<svg xmlns="http://www.w3.org/2000/svg" viewBox="0 0 474.95 449.93"><g id="freepik--background-complete--inject-7"><g><g><path d="M337.75,110.88c1.46,1,12.23,12.31,20.27,7.38,7.52-4.61,18.37-15.38,27.24-6.44,7.92,7.98-7.53,16.97-2.66,22.13,7.08,7.51,20.76-17.72,33.08-2.92,7.69,9.24-15.2,17.11-11.31,23.45,3.9,6.34,31.1,1.41,36.12,15.89,5.02,14.48-16.02,15.32-15.86,23.26,.16,7.93,27.61,10.08,25.09,24.02-2.51,13.94-22.15,1.02-25.04,5.95-2.9,4.93,20.47,15.8,14.13,28.52-6.34,12.72-24.08,5.22-28.72-4.39-4.64-9.61-2.64-19.3-8.18-20.78-5.55-1.48-7.63,11.83-20.91,6-13.28-5.83,8.13-31.76,1.99-37.79-6.15-6.03-12.39,10.43-22.91,6.48-10.52-3.95-13.49-20.25-2.72-29.48,10.78-9.23,10.54-15.84,6.8-18.85-3.74-3.01-11.62,15.56-22.01,8.48-10.38-7.08,3.86-22.69,5.11-29.21,1.24-6.52-9.52-21.69-9.52-21.69Z" style="fill:#af5c49;"></path><path d="M337.75,110.88c1.46,1,12.23,12.31,20.27,7.38,7.52-4.61,18.37-15.38,27.24-6.44,7.92,7.98-7.53,16.97-2.66,22.13,7.08,7.51,20.76-17.72,33.08-2.92,7.69,9.24-15.2,17.11-11.31,23.45,3.9,6.34,31.1,1.41,36.12,15.89,5.02,14.48-16.02,15.32-15.86,23.26,.16,7.93,27.61,10.08,25.09,24.02-2.51,13.94-22.15,1.02-25.04,5.95-2.9,4.93,20.47,15.8,14.13,28.52-6.34,12.72-24.08,5.22-28.72-4.39-4.64-9.61-2.64-19.3-8.18-20.78-5.55-1.48-7.63,11.83-20.91,6-13.28-5.83,8.13-31.76,1.99-37.79-6.15-6.03-12.39,10.43-22.91,6.48-10.52-3.95-13.49-20.25-2.72-29.48,10.78-9.23,10.54-15.84,6.8-18.85-3.74-3.01-11.62,15.56-22.01,8.48-10.38-7.08,3.86-22.69,5.11-29.21,1.24-6.52-9.52-21.69-9.52-21.69Z" style="fill:#dbdbdb;"></path><path d="M341.02,115.9c.55,.4,1.11,.81,1.68,1.22,55.53,41.08,78.55,123.85,82.91,141.54-6.42-1-12.95-5.65-15.51-10.94-4.63-9.6-2.63-19.29-8.19-20.77-5.55-1.47-7.64,11.83-20.92,6-13.28-5.83,8.14-31.76,2-37.79-6.14-6.03-12.4,10.42-22.92,6.47-10.52-3.95-13.49-20.24-2.73-29.49,10.77-9.22,10.56-15.83,6.81-18.83-3.73-3.02-11.64,15.56-22.01,8.48-10.39-7.09,3.87-22.7,5.1-29.22,.79-4.1-3.2-11.66-6.24-16.67Z" style="fill:#ebebeb;"></path><path d="M412.28,220.31c-4.72-14.57-11.65-28.26-19.38-41.36l-2.94-4.9c-1-1.62-2.09-3.18-3.13-4.78-2.11-3.17-4.13-6.39-6.46-9.4-2.3-3.03-4.41-6.2-6.81-9.15l-7.22-8.84c-1.16-1.51-2.51-2.86-3.77-4.28l-3.84-4.23-3.84-4.23-4.07-4.01-8.12-8.03-8.58-7.54-4.28-3.79c-1.45-1.24-3-2.35-4.48-3.55l-9-7.07c-.75-.59-1.48-1.2-2.25-1.78l-2.35-1.64-4.7-3.28c-3.14-2.18-6.27-4.38-9.38-6.61,3.28,1.96,6.55,3.95,9.81,5.97l4.9,3.02,2.45,1.51c.8,.53,1.57,1.1,2.35,1.65l9.34,6.73c1.55,1.14,3.14,2.22,4.63,3.42l4.43,3.68,8.84,7.4,8.35,7.96,4.15,4.01,3.9,4.25,3.9,4.25c1.28,1.44,2.66,2.78,3.83,4.31,9.95,11.74,18.79,24.41,26.31,37.82,7.47,13.41,13.78,27.59,17.42,42.49Z" style="fill:#c7c7c7;"></path><path d="M389.72,216.53s10.71-12.18,9.46-27.22c0,0-2.28,13.16-9.46,27.22Z" style="fill:#c7c7c7;"></path><path d="M364.13,138.08s14.15,7.93,28.6,3.58c0,0-13.35,.51-28.6-3.58Z" style="fill:#c7c7c7;"></path><path d="M348.76,155.64s8.99-13.5,5.75-28.24c0,0-.51,13.35-5.75,28.24Z" style="fill:#c7c7c7;"></path><path d="M380.45,184.49s5.47-15.27-1.23-28.79c0,0,2.72,13.08,1.23,28.79Z" style="fill:#c7c7c7;"></path><path d="M382.51,161.37s23.88,17.7,51.41,17.17c0,0-24.54-4.76-51.41-17.17Z" style="fill:#c7c7c7;"></path><path d="M371.03,187.88s10.13-21.24,1.76-41.49c0,0,2.45,19.12-1.76,41.49Z" style="fill:#c7c7c7;"></path></g><g><path d="M49.43,180.63c-.68,.77-5.15,8.63-10.36,6.98-4.87-1.54-12.47-6.07-16.21,.2-3.33,5.59,6.61,8.48,4.59,12.06-2.93,5.21-14.14-7.05-18.99,2.99-3.03,6.27,10.94,7.48,9.64,11.59-1.3,4.11-17.28,5.15-18.07,13.98-.79,8.84,11.14,6.37,12.17,10.85s-14.1,9.53-10.73,17.01c3.36,7.48,12.58-2.53,14.9-.17,2.32,2.36-9.29,11.74-3.94,18,5.34,6.26,14.26-.44,15.52-6.49,1.26-6.05-1.22-11.21,1.69-12.82,2.91-1.61,5.95,5.58,12.59,.44,6.64-5.14-9.01-16.7-6.41-20.95,2.61-4.25,8.42,4.12,13.78,.43,5.36-3.69,4.74-13.27-2.6-16.94-7.35-3.68-8.14-7.42-6.46-9.63,1.68-2.21,8.71,7.11,13.55,1.68,4.84-5.43-5.35-12.21-6.96-15.69-1.61-3.49,2.31-13.52,2.31-13.52Z" style="fill:#af5c49;"></path><path d="M49.43,180.63c-.68,.77-5.15,8.63-10.36,6.98-4.87-1.54-12.47-6.07-16.21,.2-3.33,5.59,6.61,8.48,4.59,12.06-2.93,5.21-14.14-7.05-18.99,2.99-3.03,6.27,10.94,7.48,9.64,11.59-1.3,4.11-17.28,5.15-18.07,13.98-.79,8.84,11.14,6.37,12.17,10.85s-14.1,9.53-10.73,17.01c3.36,7.48,12.58-2.53,14.9-.17,2.32,2.36-9.29,11.74-3.94,18,5.34,6.26,14.26-.44,15.52-6.49,1.26-6.05-1.22-11.21,1.69-12.82,2.91-1.61,5.95,5.58,12.59,.44,6.64-5.14-9.01-16.7-6.41-20.95,2.61-4.25,8.42,4.12,13.78,.43,5.36-3.69,4.74-13.27-2.6-16.94-7.35-3.68-8.14-7.42-6.46-9.63,1.68-2.21,8.71,7.11,13.55,1.68,4.84-5.43-5.35-12.21-6.96-15.69-1.61-3.49,2.31-13.52,2.31-13.52Z" style="fill:#dbdbdb;"></path><path d="M48.3,183.9c-.26,.3-.51,.61-.77,.92-25.44,30.85-26.78,80.58-26.76,91.13,3.47-1.46,6.49-4.99,7.18-8.32,1.26-6.04-1.22-11.21,1.69-12.81,2.91-1.61,5.95,5.58,12.59,.44,6.64-5.14-9.02-16.7-6.42-20.95,2.61-4.25,8.43,4.12,13.78,.43,5.36-3.69,4.75-13.26-2.6-16.95-7.34-3.67-8.15-7.41-6.46-9.62,1.67-2.22,8.72,7.11,13.55,1.68,4.84-5.44-5.35-12.21-6.96-15.7-1.02-2.19,.16-7,1.17-10.24Z" style="fill:#ebebeb;"></path><path d="M22.89,252.54c.61-8.85,2.59-17.51,5.1-25.95l.96-3.16c.34-1.05,.73-2.08,1.09-3.12,.74-2.07,1.43-4.17,2.31-6.19,.87-2.03,1.61-4.1,2.55-6.1l2.82-5.98c.44-1.01,1.01-1.96,1.52-2.93l1.56-2.91,1.56-2.91,1.72-2.82,3.44-5.65,3.77-5.44,1.88-2.73c.64-.9,1.35-1.74,2.02-2.62l4.07-5.23c.34-.44,.67-.88,1.01-1.31l1.09-1.25,2.18-2.5c1.46-1.66,2.91-3.34,4.35-5.03-1.57,1.56-3.13,3.14-4.67,4.73l-2.33,2.38-1.17,1.19c-.37,.41-.73,.84-1.09,1.26l-4.3,5.09c-.71,.85-1.45,1.69-2.12,2.57l-1.97,2.69-3.93,5.39-3.57,5.64-1.77,2.83-1.6,2.93-1.6,2.93c-.52,.99-1.1,1.94-1.55,2.96-3.94,7.99-7.14,16.35-9.48,24.93-2.32,8.58-3.88,17.43-3.84,26.31Z" style="fill:#c7c7c7;"></path><path d="M35.03,247.25s-7.72-5.34-9.13-13.97c0,0,3.13,7.07,9.13,13.97Z" style="fill:#c7c7c7;"></path><path d="M38.42,199.6s-6.84,6.44-15.56,6.01c0,0,7.57-1.58,15.56-6.01Z" style="fill:#c7c7c7;"></path><path d="M49.52,207.31s-6.94-6.33-7.18-15.06c0,0,2.15,7.43,7.18,15.06Z" style="fill:#c7c7c7;"></path><path d="M35.75,227.96s-5.21-7.81-3.34-16.35c0,0,.3,7.73,3.34,16.35Z" style="fill:#c7c7c7;"></path><path d="M31.35,215.26s-10.93,13.29-26.48,16.84c0,0,13.12-6.11,26.48-16.84Z" style="fill:#c7c7c7;"></path><path d="M41.52,228.54s-8.67-10.51-6.8-23.06c0,0,1.3,11.08,6.8,23.06Z" style="fill:#c7c7c7;"></path></g><g><path d="M270.03,56.63c-1.48-.74-15.6-4.33-15.26-13.13,.32-8.22,4.13-21.97-7.2-25.11-10.11-2.8-10.37,13.88-16.8,12.27-9.34-2.33,4.93-24.98-12.73-28.25-11.03-2.04-6.98,20.18-13.92,19.91-6.94-.27-15.35-24.66-29.42-22.14-14.07,2.53-5.15,20.03-11.68,23.53-6.53,3.5-20.81-17.86-31.01-9.45-10.2,8.41,9.29,18.48,6.6,23.09-2.69,4.61-22.21-9.44-29.66,1.53-7.45,10.97,6.75,21.98,16.69,21.36,9.94-.61,16.91-6.67,20.65-2.83,3.74,3.84-6.14,11.62,4.67,19.76,10.81,8.14,22.13-21.12,29.84-18.87,7.72,2.24-2.82,14.85,5.2,21.6,8.02,6.76,22.64,1.73,25.23-11.25,2.59-12.98,8.07-15.81,12.23-14.14,4.16,1.67-7.35,16.56,3.15,21.78,10.51,5.22,16.7-13.51,21.44-17.5,4.74-3.99,21.99-2.16,21.99-2.16Z" style="fill:#af5c49;"></path><path d="M270.03,56.63c-1.48-.74-15.6-4.33-15.26-13.13,.32-8.22,4.13-21.97-7.2-25.11-10.11-2.8-10.37,13.88-16.8,12.27-9.34-2.33,4.93-24.98-12.73-28.25-11.03-2.04-6.98,20.18-13.92,19.91-6.94-.27-15.35-24.66-29.42-22.14-14.07,2.53-5.15,20.03-11.68,23.53-6.53,3.5-20.81-17.86-31.01-9.45-10.2,8.41,9.29,18.48,6.6,23.09-2.69,4.61-22.21-9.44-29.66,1.53-7.45,10.97,6.75,21.98,16.69,21.36,9.94-.61,16.91-6.67,20.65-2.83,3.74,3.84-6.14,11.62,4.67,19.76,10.81,8.14,22.13-21.12,29.84-18.87,7.72,2.24-2.82,14.85,5.2,21.6,8.02,6.76,22.64,1.73,25.23-11.25,2.59-12.98,8.07-15.81,12.23-14.14,4.16,1.67-7.35,16.56,3.15,21.78,10.51,5.22,16.7-13.51,21.44-17.5,4.74-3.99,21.99-2.16,21.99-2.16Z" style="fill:#dbdbdb;"></path><path d="M264.46,56.26c-.58-.27-1.16-.53-1.76-.81-58.79-26.42-136.65-7.35-153.04-2.82,3.75,4.77,10.51,7.96,15.99,7.62,9.92-.61,16.9-6.67,20.64-2.82,3.74,3.85-6.14,11.62,4.67,19.76,10.81,8.14,22.12-21.13,29.83-18.89,7.71,2.24-2.82,14.85,5.2,21.6,8.02,6.75,22.63,1.74,25.24-11.25,2.58-12.98,8.06-15.82,12.21-14.14,4.16,1.66-7.34,16.58,3.15,21.78,10.51,5.21,16.7-13.51,21.45-17.49,2.97-2.51,10.94-2.72,16.42-2.53Z" style="fill:#ebebeb;"></path><path d="M146.95,45.96c14.01-2.81,28.31-3.43,42.5-3.12l5.33,.15c1.77,.08,3.54,.24,5.31,.36,3.54,.27,7.09,.44,10.61,.97,3.52,.48,7.06,.76,10.56,1.36l10.49,1.84c1.76,.25,3.47,.74,5.21,1.11l5.19,1.19,5.19,1.19,5.12,1.48,10.24,2.94,10.06,3.54,5.04,1.76c1.67,.61,3.28,1.36,4.94,2.02l9.87,4.09c.82,.34,1.66,.66,2.47,1.02l2.4,1.16,4.81,2.33c3.2,1.56,6.43,3.1,9.67,4.61-3.1-1.77-6.21-3.53-9.34-5.26l-4.69-2.61-2.35-1.3c-.8-.41-1.61-.77-2.42-1.16l-9.74-4.53c-1.63-.74-3.24-1.54-4.9-2.2l-5.02-1.92-10.06-3.81-10.29-3.16-5.16-1.54-5.24-1.24-5.24-1.23c-1.75-.38-3.48-.89-5.26-1.15-14.1-2.73-28.45-4.14-42.79-4.14-14.32,.04-28.74,1.39-42.53,5.23Z" style="fill:#c7c7c7;"></path><path d="M160.33,62.58s5.02-14.28,17.83-20.13c0,0-9.67,7.87-17.83,20.13Z" style="fill:#c7c7c7;"></path><path d="M235.85,47.58s-12.92-7.89-15.97-21.64c0,0,5.68,11.09,15.97,21.64Z" style="fill:#c7c7c7;"></path><path d="M228.58,68.11s6.88-13.48,20.35-17.57c0,0-10.63,6.51-20.35,17.57Z" style="fill:#c7c7c7;"></path><path d="M190.63,55.5s9.93-11.42,23.99-12.15c0,0-11.88,3.76-23.99,12.15Z" style="fill:#c7c7c7;"></path><path d="M208.5,43.26s-25.31-11.34-37.45-33.99c0,0,15.08,17.8,37.45,33.99Z" style="fill:#c7c7c7;"></path><path d="M192.17,64.71s12.65-17.95,32.96-20.38c0,0-16.67,6.73-32.96,20.38Z" style="fill:#c7c7c7;"></path></g><g><path d="M266.47,122.5c-2.15,2-17.1,22.89-31.09,17.53-13.07-5.01-32.81-18.69-45.22-2.07-11.07,14.83,15.69,24.37,8.93,33.9-9.82,13.85-37.15-21.64-53.88,5.17-10.44,16.74,28.07,22.33,23.13,33.41-4.94,11.08-49.78,11.37-54.82,35.53-5.04,24.16,29.01,19.29,30.42,31.77,1.42,12.48-42.33,23.92-35.36,45.03,6.97,21.11,35.87-4.93,41.57,1.94,5.7,6.87-29.64,30.79-16.76,48.84,12.88,18.06,39.87,1.09,45.32-15.34,5.45-16.42,.19-31.01,8.81-34.97,8.62-3.96,14.77,16.29,34.93,3.24,20.15-13.05-19.76-47.36-11.13-58.62,8.63-11.26,22.15,12.69,38.25,3.4,16.11-9.29,17.47-35.71-1.82-47-19.29-11.29-20.3-21.71-14.91-27.53,5.39-5.82,21.98,20.96,37.21,6.8,15.23-14.16-10.99-34.42-14.36-44.26-3.37-9.85,10.77-36.78,10.77-36.78Z" style="fill:#af5c49;"></path><path d="M266.47,122.5c-2.15,2-17.1,22.89-31.09,17.53-13.07-5.01-32.81-18.69-45.22-2.07-11.07,14.83,15.69,24.37,8.93,33.9-9.82,13.85-37.15-21.64-53.88,5.17-10.44,16.74,28.07,22.33,23.13,33.41-4.94,11.08-49.78,11.37-54.82,35.53-5.04,24.16,29.01,19.29,30.42,31.77,1.42,12.48-42.33,23.92-35.36,45.03,6.97,21.11,35.87-4.93,41.57,1.94,5.7,6.87-29.64,30.79-16.76,48.84,12.88,18.06,39.87,1.09,45.32-15.34,5.45-16.42,.19-31.01,8.81-34.97,8.62-3.96,14.77,16.29,34.93,3.24,20.15-13.05-19.76-47.36-11.13-58.62,8.63-11.26,22.15,12.69,38.25,3.4,16.11-9.29,17.47-35.71-1.82-47-19.29-11.29-20.3-21.71-14.91-27.53,5.39-5.82,21.98,20.96,37.21,6.8,15.23-14.16-10.99-34.42-14.36-44.26-3.37-9.85,10.77-36.78,10.77-36.78Z" style="fill:#ebebeb;"></path><path d="M262.26,131.31c-.81,.79-1.62,1.59-2.45,2.41-80.77,80.73-100.45,217.19-103.77,246.2,10.13-3.45,19.67-12.67,22.67-21.71,5.44-16.4,.19-31,8.82-34.95,8.63-3.95,14.79,16.29,34.94,3.23,20.15-13.05-19.78-47.36-11.16-58.62,8.62-11.26,22.15,12.67,38.26,3.39,16.11-9.29,17.47-35.68-1.8-47-19.28-11.27-20.32-21.69-14.92-27.49,5.38-5.83,22.01,20.94,37.21,6.8,15.23-14.17-11-34.42-14.35-44.28-2.13-6.18,2.7-19.2,6.55-27.97Z" style="fill:#dbdbdb;"></path><path d="M169.45,315.9c4.54-24.22,12.82-47.71,22.51-70.51l3.7-8.54c1.28-2.83,2.69-5.6,4.03-8.41,2.73-5.58,5.31-11.23,8.43-16.64,3.06-5.43,5.81-11.02,9.05-16.35l9.78-15.97c1.55-2.71,3.45-5.21,5.17-7.82l5.29-7.75,5.29-7.75,5.71-7.47,11.39-14.97,12.24-14.35,6.1-7.2c2.07-2.37,4.33-4.57,6.47-6.88l13-13.74c1.08-1.15,2.14-2.32,3.25-3.45l3.44-3.26,6.88-6.52c4.6-4.33,9.17-8.71,13.72-13.13-4.87,4.04-9.72,8.12-14.54,12.25l-7.25,6.17-3.63,3.09c-1.17,1.07-2.29,2.19-3.44,3.28l-13.62,13.29c-2.25,2.23-4.58,4.4-6.74,6.73l-6.35,7.08-12.68,14.19-11.77,14.92-5.83,7.5-5.39,7.8-5.39,7.81c-1.76,2.63-3.69,5.14-5.27,7.88-13.55,21.32-25.13,43.79-34.42,67.01-9.21,23.21-16.39,47.29-19.12,71.7Z" style="fill:#c7c7c7;"></path><path d="M214.03,193.08s-8.25,23.2,1.96,43.71c0,0-4.18-19.84-1.96-43.71Z" style="fill:#c7c7c7;"></path><path d="M147.29,300.74s23.12-8.47,32.38-29.43c0,0-12.6,15.89-32.38,29.43Z" style="fill:#c7c7c7;"></path><path d="M192.9,192.43s24.22-4.45,36.87-23.55c0,0-15.09,13.54-36.87,23.55Z" style="fill:#c7c7c7;"></path><path d="M187.84,245.88s-2.82,45.03,20.59,79.66c0,0-14.21-35.19-20.59-79.66Z" style="fill:#c7c7c7;"></path><path d="M126.67,246.25s45.06-2.35,76.78-29.57c0,0-33.33,18.15-76.78,29.57Z" style="fill:#c7c7c7;"></path></g><g><path d="M315.96,381.1c-.63,.9-7.57,7.51-4.86,12.4,2.53,4.57,8.61,11.15,3.11,16.6-4.91,4.86-9.82-4.53-12.99-1.54-4.61,4.35,9.93,12.6,.89,20.18-5.64,4.73-9.71-9.21-13.55-6.81-3.84,2.4-1.62,18.98-10.28,22.1-8.67,3.12-8.63-9.72-13.32-9.59-4.68,.12-6.64,16.88-14.8,15.4-8.16-1.48-.04-13.51-2.88-15.26-2.84-1.75-9.84,12.55-17.18,8.73-7.34-3.82-2.47-14.67,3.31-17.54,5.79-2.87,11.45-1.68,12.46-5.07,1.01-3.39-6.79-4.61-3.01-12.74,3.78-8.12,18.52,4.84,22.24,1.07,3.71-3.77-5.84-7.52-3.24-13.96,2.6-6.43,12.29-8.31,17.46-1.77,5.17,6.54,9.07,6.37,10.94,4.08,1.87-2.29-8.88-7.03-4.44-13.4,4.44-6.36,13.29,2.27,17.1,3.01,3.81,.74,13.03-5.89,13.03-5.89Z" style="fill:#af5c49;"></path><path d="M315.96,381.1c-.63,.9-7.57,7.51-4.86,12.4,2.53,4.57,8.61,11.15,3.11,16.6-4.91,4.86-9.82-4.53-12.99-1.54-4.61,4.35,9.93,12.6,.89,20.18-5.64,4.73-9.71-9.21-13.55-6.81-3.84,2.4-1.62,18.98-10.28,22.1-8.67,3.12-8.63-9.72-13.32-9.59-4.68,.12-6.64,16.88-14.8,15.4-8.16-1.48-.04-13.51-2.88-15.26-2.84-1.75-9.84,12.55-17.18,8.73-7.34-3.82-2.47-14.67,3.31-17.54,5.79-2.87,11.45-1.68,12.46-5.07,1.01-3.39-6.79-4.61-3.01-12.74,3.78-8.12,18.52,4.84,22.24,1.07,3.71-3.77-5.84-7.52-3.24-13.96,2.6-6.43,12.29-8.31,17.46-1.77,5.17,6.54,9.07,6.37,10.94,4.08,1.87-2.29-8.88-7.03-4.44-13.4,4.44-6.36,13.29,2.27,17.1,3.01,3.81,.74,13.03-5.89,13.03-5.89Z" style="fill:#ebebeb;"></path><path d="M312.92,383.12c-.25,.34-.5,.68-.76,1.03-25.63,34.03-75.04,48.39-85.58,51.12,.75-3.92,3.66-7.92,6.85-9.5,5.78-2.86,11.45-1.68,12.46-5.07,1.01-3.39-6.79-4.62-3.01-12.74,3.78-8.12,18.53,4.85,22.24,1.08,3.71-3.77-5.83-7.53-3.24-13.96s12.28-8.31,17.46-1.77c5.17,6.54,9.07,6.38,10.93,4.09,1.88-2.29-8.88-7.04-4.44-13.4,4.44-6.36,13.29,2.28,17.11,3,2.4,.47,6.96-1.99,9.99-3.87Z" style="fill:#dbdbdb;"></path><path d="M249.53,426.99c8.71-2.93,16.96-7.21,24.88-11.98l2.96-1.81c.98-.62,1.93-1.29,2.9-1.93,1.92-1.3,3.88-2.54,5.71-3.98,1.85-1.41,3.77-2.72,5.57-4.19l5.39-4.44c.92-.71,1.75-1.54,2.62-2.32l2.59-2.36,2.59-2.36,2.47-2.5,4.94-4.99,4.67-5.27,2.34-2.63c.77-.89,1.46-1.84,2.21-2.75l4.4-5.52c.37-.46,.75-.91,1.1-1.38l1.02-1.44,2.05-2.88c1.36-1.93,2.74-3.84,4.14-5.75-1.24,2.01-2.5,4.01-3.77,6.01l-1.9,3-.95,1.5c-.33,.49-.69,.96-1.03,1.44l-4.2,5.72c-.71,.95-1.39,1.92-2.14,2.84l-2.28,2.72-4.59,5.42-4.9,5.12-2.47,2.54-2.6,2.4-2.6,2.4c-.88,.78-1.71,1.63-2.64,2.35-7.18,6.11-14.87,11.56-22.97,16.2-8.1,4.61-16.62,8.51-25.5,10.79Z" style="fill:#c7c7c7;"></path><path d="M292.6,404.15s-8.14,4.25-16.25,1.54c0,0,7.55,.51,16.25-1.54Z" style="fill:#c7c7c7;"></path><path d="M256.29,434.39s1.93-8.98,9.19-13.49c0,0-5.22,5.48-9.19,13.49Z" style="fill:#c7c7c7;"></path><path d="M293.94,411.92s.39-9.18,6.79-14.85c0,0-4.22,6.28-6.79,14.85Z" style="fill:#c7c7c7;"></path><path d="M274.45,416.56s-16.49,3.38-30.5-3.47c0,0,13.74,3.42,30.5,3.47Z" style="fill:#c7c7c7;"></path><path d="M277.49,439.18s-1.47-16.77,6.94-29.91c0,0-4.98,13.26-6.94,29.91Z" style="fill:#c7c7c7;"></path></g></g></g><g id="freepik--Leaves--inject-7"><g><g><path d="M279.44,63.47c-2.65-.07-25.51,3.92-31.12-8.39-5.25-11.5-9.3-32.8-27.82-29.95-16.52,2.54-5.32,25.63-15.7,27.48-15.09,2.7-10.23-37.45-37.98-30.77-17.32,4.17,3.95,32.15-6.25,36.16-10.2,4.01-39.26-24.19-57.8-11.82-18.54,12.37,6.47,30.79-.51,39.72-6.99,8.93-42.41-11.39-51.28,6.62-8.87,18.01,26.23,19.53,25.55,27.56-.68,8.04-38.58,1.07-41.71,20.85-3.13,19.78,24.99,25.94,38.9,18.81,13.91-7.13,19.75-19.85,27.81-16.94,8.06,2.91-.8,19.85,20.45,24.2,21.24,4.35,17.25-43.01,29.94-44.81,12.69-1.79,6.23,22.19,22.49,26.4,16.26,4.21,33.86-11.94,28.58-31.42-5.28-19.48,.67-26.83,7.82-27.17,7.15-.34,.89,27.41,19.67,27.94,18.77,.52,14.71-29.12,18.77-37.6,4.06-8.48,30.22-16.88,30.22-16.88Z" style="fill:#af5c49;"></path><path d="M279.44,63.47c-2.65-.07-25.51,3.92-31.12-8.39-5.25-11.5-9.3-32.8-27.82-29.95-16.52,2.54-5.32,25.63-15.7,27.48-15.09,2.7-10.23-37.45-37.98-30.77-17.32,4.17,3.95,32.15-6.25,36.16-10.2,4.01-39.26-24.19-57.8-11.82-18.54,12.37,6.47,30.79-.51,39.72-6.99,8.93-42.41-11.39-51.28,6.62-8.87,18.01,26.23,19.53,25.55,27.56-.68,8.04-38.58,1.07-41.71,20.85-3.13,19.78,24.99,25.94,38.9,18.81,13.91-7.13,19.75-19.85,27.81-16.94,8.06,2.91-.8,19.85,20.45,24.2,21.24,4.35,17.25-43.01,29.94-44.81,12.69-1.79,6.23,22.19,22.49,26.4,16.26,4.21,33.86-11.94,28.58-31.42-5.28-19.48,.67-26.83,7.82-27.17,7.15-.34,.89,27.41,19.67,27.94,18.77,.52,14.71-29.12,18.77-37.6,4.06-8.48,30.22-16.88,30.22-16.88Z" style="fill:#37474f;"></path><path d="M271.15,66.48c-1.02,0-2.05,0-3.1,0-103.12,.87-202.18,76.32-222.68,92.9,8.71,4.19,20.69,4.29,28.35,.36,13.89-7.12,19.74-19.85,27.8-16.93,8.06,2.92-.78,19.85,20.46,24.2,21.24,4.35,17.24-43.03,29.92-44.82,12.68-1.79,6.25,22.19,22.5,26.4,16.25,4.21,33.84-11.92,28.59-31.42-5.28-19.47,.64-26.83,7.79-27.16,7.15-.35,.92,27.42,19.67,27.94,18.78,.52,14.71-29.13,18.79-37.6,2.54-5.33,13.89-10.66,21.92-13.87Z" style="fill:#263238;"></path><g><path d="M94.53,126.63c18.25-12.73,38.45-22.62,59.13-31.17l7.79-3.16c2.61-1.01,5.28-1.91,7.92-2.86,5.3-1.87,10.53-3.88,15.96-5.38,5.41-1.56,10.71-3.42,16.18-4.8l16.41-4.1c2.71-.77,5.52-1.18,8.28-1.77l8.31-1.65,8.31-1.65,8.41-1.2,16.82-2.43,16.96-1.5,8.49-.77c2.83-.22,5.68-.2,8.52-.34l17.07-.62c1.42-.05,2.85-.14,4.27-.16l4.27,.08,8.56,.15c5.71,.12,11.42,.19,17.15,.23-5.7-.48-11.4-.92-17.12-1.32l-8.57-.62-4.29-.31c-1.43-.06-2.86-.04-4.29-.07l-17.19-.06c-2.87,.01-5.74-.07-8.6,.07l-8.57,.54-17.15,1.12-17.03,2.17-8.51,1.14-8.41,1.61-8.41,1.62c-2.79,.58-5.64,.98-8.38,1.74-22.23,5.16-43.9,12.3-64.59,21.38-20.63,9.12-40.49,20.08-57.7,34.08Z" style="fill:#A6D34D;"></path><path d="M94.53,126.63c18.25-12.73,38.45-22.62,59.13-31.17l7.79-3.16c2.61-1.01,5.28-1.91,7.92-2.86,5.3-1.87,10.53-3.88,15.96-5.38,5.41-1.56,10.71-3.42,16.18-4.8l16.41-4.1c2.71-.77,5.52-1.18,8.28-1.77l8.31-1.65,8.31-1.65,8.41-1.2,16.82-2.43,16.96-1.5,8.49-.77c2.83-.22,5.68-.2,8.52-.34l17.07-.62c1.42-.05,2.85-.14,4.27-.16l4.27,.08,8.56,.15c5.71,.12,11.42,.19,17.15,.23-5.7-.48-11.4-.92-17.12-1.32l-8.57-.62-4.29-.31c-1.43-.06-2.86-.04-4.29-.07l-17.19-.06c-2.87,.01-5.74-.07-8.6,.07l-8.57,.54-17.15,1.12-17.03,2.17-8.51,1.14-8.41,1.61-8.41,1.62c-2.79,.58-5.64,.98-8.38,1.74-22.23,5.16-43.9,12.3-64.59,21.38-20.63,9.12-40.49,20.08-57.7,34.08Z" style="opacity: .7;"></path></g><g><path d="M200.99,75.73s-20,9.72-26.4,29.4c0,0,9.87-15.43,26.4-29.4Z" style="fill:#A6D34D;"></path><path d="M200.99,75.73s-20,9.72-26.4,29.4c0,0,9.87-15.43,26.4-29.4Z" style="opacity: .7;"></path></g><g><path d="M89.85,102.84s20.25,9.18,39.48,1.54c0,0-18.17,2.26-39.48-1.54Z" style="fill:#A6D34D;"></path><path d="M89.85,102.84s20.25,9.18,39.48,1.54c0,0-18.17,2.26-39.48-1.54Z" style="opacity: .7;"></path></g><g><path d="M187.78,61.94s18.42,12.46,38.66,8.17c0,0-18.29-.83-38.66-8.17Z" style="fill:#A6D34D;"></path><path d="M187.78,61.94s18.42,12.46,38.66,8.17c0,0-18.29-.83-38.66-8.17Z" style="opacity: .7;"></path></g><g><path d="M150.69,93.16s-30.32,27.22-37.16,64.35c0,0,13.12-31.67,37.16-64.35Z" style="fill:#A6D34D;"></path><path d="M150.69,93.16s-30.32,27.22-37.16,64.35c0,0,13.12-31.67,37.16-64.35Z" style="opacity: .7;"></path></g><g><path d="M111.06,54.69s30.51,27.01,68.18,29.55c0,0-32.96-9.41-68.18-29.55Z" style="fill:#A6D34D;"></path><path d="M111.06,54.69s30.51,27.01,68.18,29.55c0,0-32.96-9.41-68.18-29.55Z" style="opacity: .7;"></path></g></g><g><path d="M323.42,140.7c1.21,2.11,7.75,22.49,20.62,21.2,12.03-1.21,31.85-8.03,37.47,8.3,5.01,14.57-19.42,16.45-16.48,25.74,4.26,13.49,36.19-9.49,42.58,16.13,3.99,15.99-28.97,12.05-27.95,22.2,1.03,10.15,37.55,20.29,35.12,41.16-2.44,20.87-28.91,9.36-33.45,19.25-4.54,9.89,28.07,28.91,16.65,44.62-11.42,15.71-27.94-11.96-34.46-7.6-6.52,4.36,15.84,31.72,.43,43.63-15.41,11.92-32.84-7.92-32.83-22.55,0-14.63,8.26-25.39,2.29-30.53-5.97-5.14-16.48,10.05-29.39-5.07-12.91-15.12,28.98-34.35,24.99-45.46-3.99-11.11-21.52,5.48-32.15-5.67-10.63-11.15-4.58-33.05,14.23-38.02,18.81-4.97,22.46-13.26,19.64-19.21-2.82-5.95-23.63,12.27-32.22-2.66-8.59-14.94,18.31-25.71,23.73-33.01,5.42-7.31,1.19-32.45,1.19-32.45Z" style="fill:#af5c49;"></path><path d="M323.42,140.7c1.21,2.11,7.75,22.49,20.62,21.2,12.03-1.21,31.85-8.03,37.47,8.3,5.01,14.57-19.42,16.45-16.48,25.74,4.26,13.49,36.19-9.49,42.58,16.13,3.99,15.99-28.97,12.05-27.95,22.2,1.03,10.15,37.55,20.29,35.12,41.16-2.44,20.87-28.91,9.36-33.45,19.25-4.54,9.89,28.07,28.91,16.65,44.62-11.42,15.71-27.94-11.96-34.46-7.6-6.52,4.36,15.84,31.72,.43,43.63-15.41,11.92-32.84-7.92-32.83-22.55,0-14.63,8.26-25.39,2.29-30.53-5.97-5.14-16.48,10.05-29.39-5.07-12.91-15.12,28.98-34.35,24.99-45.46-3.99-11.11-21.52,5.48-32.15-5.67-10.63-11.15-4.58-33.05,14.23-38.02,18.81-4.97,22.46-13.26,19.64-19.21-2.82-5.95-23.63,12.27-32.22-2.66-8.59-14.94,18.31-25.71,23.73-33.01,5.42-7.31,1.19-32.45,1.19-32.45Z" style="fill:#37474f;"></path><path d="M324.46,148.84c.44,.83,.89,1.66,1.35,2.51,44.04,83.83,23.09,199.74,17.92,224.18-7.34-5.06-12.62-14.7-12.61-22.76,0-14.61,8.26-25.38,2.28-30.52-5.98-5.13-16.49,10.05-29.4-5.08-12.91-15.12,28.99-34.34,25.01-45.45-3.98-11.11-21.52,5.47-32.15-5.68-10.63-11.15-4.58-33.03,14.22-38.02,18.8-4.95,22.47-13.24,19.64-19.18-2.81-5.95-23.65,12.26-32.22-2.66-8.59-14.95,18.32-25.71,23.72-33.03,3.42-4.58,3.01-16.29,2.24-24.31Z" style="fill:#455a64;"></path><g><path d="M350.15,320.24c2.87-20.8,2.48-41.83,.75-62.61l-.71-7.8c-.28-2.59-.68-5.17-1.01-7.76-.72-5.17-1.29-10.36-2.37-15.47-1.03-5.11-1.75-10.29-2.95-15.36l-3.65-15.22c-.53-2.56-1.4-5.02-2.1-7.54l-2.21-7.51-2.21-7.51-2.63-7.37-5.24-14.76-6.1-14.43-3.03-7.23c-1.05-2.39-2.3-4.69-3.41-7.06l-6.89-14.1c-.57-1.18-1.11-2.37-1.72-3.53l-1.92-3.42-3.85-6.85c-2.58-4.56-5.12-9.15-7.64-13.76,2.88,4.38,5.73,8.79,8.55,13.22l4.25,6.64,2.12,3.32c.67,1.13,1.28,2.29,1.92,3.44l7.51,13.88c1.23,2.32,2.55,4.61,3.67,6.99l3.27,7.19,6.5,14.4,5.56,14.8,2.73,7.42,2.28,7.57,2.28,7.57c.72,2.54,1.62,5.02,2.16,7.61,5.28,20.43,8.64,41.34,9.92,62.38,1.23,21.01,.55,42.28-3.84,62.84Z" style="fill:#A6D34D;"></path><path d="M350.15,320.24c2.87-20.8,2.48-41.83,.75-62.61l-.71-7.8c-.28-2.59-.68-5.17-1.01-7.76-.72-5.17-1.29-10.36-2.37-15.47-1.03-5.11-1.75-10.29-2.95-15.36l-3.65-15.22c-.53-2.56-1.4-5.02-2.1-7.54l-2.21-7.51-2.21-7.51-2.63-7.37-5.24-14.76-6.1-14.43-3.03-7.23c-1.05-2.39-2.3-4.69-3.41-7.06l-6.89-14.1c-.57-1.18-1.11-2.37-1.72-3.53l-1.92-3.42-3.85-6.85c-2.58-4.56-5.12-9.15-7.64-13.76,2.88,4.38,5.73,8.79,8.55,13.22l4.25,6.64,2.12,3.32c.67,1.13,1.28,2.29,1.92,3.44l7.51,13.88c1.23,2.32,2.55,4.61,3.67,6.99l3.27,7.19,6.5,14.4,5.56,14.8,2.73,7.42,2.28,7.57,2.28,7.57c.72,2.54,1.62,5.02,2.16,7.61,5.28,20.43,8.64,41.34,9.92,62.38,1.23,21.01,.55,42.28-3.84,62.84Z" style="opacity: .7;"></path></g><g><path d="M324.56,302.12s20.49-8.65,27.92-27.96c0,0-10.67,14.88-27.92,27.96Z" style="fill:#A6D34D;"></path><path d="M324.56,302.12s20.49-8.65,27.92-27.96c0,0-10.67,14.88-27.92,27.96Z" style="opacity: .7;"></path></g><g><path d="M339.77,190.01s12.73,18.23,33.17,21.47c0,0-16.78-7.33-33.17-21.47Z" style="fill:#A6D34D;"></path><path d="M339.77,190.01s12.73,18.23,33.17,21.47c0,0-16.78-7.33-33.17-21.47Z" style="opacity: .7;"></path></g><g><path d="M310.31,202.52s19.15-11.3,23.94-31.43c0,0-8.59,16.17-23.94,31.43Z" style="fill:#A6D34D;"></path><path d="M310.31,202.52s19.15-11.3,23.94-31.43c0,0-8.59,16.17-23.94,31.43Z" style="opacity: .7;"></path></g><g><path d="M332.22,257.04s15.86-15.59,15.66-36.28c0,0-4.44,17.77-15.66,36.28Z" style="fill:#A6D34D;"></path><path d="M332.22,257.04s15.86-15.59,15.66-36.28c0,0-4.44,17.77-15.66,36.28Z" style="opacity: .7;"></path></g><g><path d="M348.57,229.73s18.92,36.09,53.22,51.86c0,0-27.46-20.51-53.22-51.86Z" style="fill:#A6D34D;"></path><path d="M348.57,229.73s18.92,36.09,53.22,51.86c0,0-27.46-20.51-53.22-51.86Z" style="opacity: .7;"></path></g><g><path d="M318.58,255.6s25.18-20.17,26.92-50.17c0,0-8.37,25.06-26.92,50.17Z" style="fill:#A6D34D;"></path><path d="M318.58,255.6s25.18-20.17,26.92-50.17c0,0-8.37,25.06-26.92,50.17Z" style="opacity: .7;"></path></g></g><g><path d="M238.81,112.99c-2.76,1.28-24.2,17.42-36.44,6.79-11.44-9.93-26.8-31.25-44.36-18.59-15.67,11.29,7.98,30.88-1.73,38.26-14.12,10.73-30.19-35.88-55.25-14.27-15.64,13.49,20.95,33.28,12.56,42.93-8.39,9.65-53.11-6.38-65.7,16.74-12.59,23.12,22.83,30.49,20.33,43.89-2.5,13.4-49.63,9.3-49.3,33.64,.33,24.34,37.25,7.96,40.77,17.14,3.52,9.18-39.15,21.01-31.98,44.35,7.16,23.34,39.34,15.64,49.91,.65,10.57-14.98,9.91-31.96,19.73-32.91,9.82-.95,9.6,22.21,33.75,16.06,24.15-6.14-4.83-56.11,7.28-64.6,12.12-8.49,18.07,21.17,37.01,17.43,18.94-3.73,28.58-30.52,12.92-49.2-15.66-18.68-13.4-29.81-6.22-33.86,7.18-4.05,15.31,29.65,34.91,20.57,19.6-9.08-.16-39.55-.43-50.95-.27-11.4,22.24-34.07,22.24-34.07Z" style="fill:#af5c49;"></path><path d="M238.81,112.99c-2.76,1.28-24.2,17.42-36.44,6.79-11.44-9.93-26.8-31.25-44.36-18.59-15.67,11.29,7.98,30.88-1.73,38.26-14.12,10.73-30.19-35.88-55.25-14.27-15.64,13.49,20.95,33.28,12.56,42.93-8.39,9.65-53.11-6.38-65.7,16.74-12.59,23.12,22.83,30.49,20.33,43.89-2.5,13.4-49.63,9.3-49.3,33.64,.33,24.34,37.25,7.96,40.77,17.14,3.52,9.18-39.15,21.01-31.98,44.35,7.16,23.34,39.34,15.64,49.91,.65,10.57-14.98,9.91-31.96,19.73-32.91,9.82-.95,9.6,22.21,33.75,16.06,24.15-6.14-4.83-56.11,7.28-64.6,12.12-8.49,18.07,21.17,37.01,17.43,18.94-3.73,28.58-30.52,12.92-49.2-15.66-18.68-13.4-29.81-6.22-33.86,7.18-4.05,15.31,29.65,34.91,20.57,19.6-9.08-.16-39.55-.43-50.95-.27-11.4,22.24-34.07,22.24-34.07Z" style="fill:#455a64;"></path><path d="M231.86,120.56c-1.05,.53-2.11,1.05-3.19,1.59C122.98,176.14,60.64,309.93,48.25,338.68c11.17,.12,23.55-5.93,29.36-14.18,10.55-14.96,9.9-31.95,19.73-32.89,9.83-.93,9.62,22.2,33.77,16.06,24.15-6.15-4.85-56.12,7.26-64.61,12.11-8.49,18.08,21.16,37.02,17.42,18.94-3.73,28.57-30.5,12.93-49.21-15.66-18.66-13.43-29.8-6.24-33.83,7.18-4.07,15.34,29.64,34.91,20.57,19.6-9.09-.16-39.56-.41-50.96-.19-7.16,8.7-18.85,15.28-26.5Z" style="fill:#37474f;"></path><g><path d="M81.66,277.44c12.1-23.36,27.7-44.61,44.5-64.64l6.36-7.47c2.16-2.45,4.43-4.81,6.64-7.22,4.47-4.77,8.8-9.67,13.61-14.12,4.75-4.49,9.23-9.27,14.13-13.59l14.73-12.94c2.39-2.24,5.06-4.13,7.59-6.2l7.69-6.08,7.69-6.08,8.02-5.64,16.03-11.32,16.67-10.37,8.33-5.21c2.8-1.7,5.74-3.14,8.59-4.76l17.25-9.45c1.44-.79,2.86-1.62,4.31-2.38l4.44-2.11,8.89-4.23c5.94-2.8,11.86-5.66,17.77-8.57-6.11,2.4-12.22,4.85-18.31,7.36l-9.15,3.73-4.58,1.87c-1.5,.67-2.97,1.43-4.45,2.13l-17.72,8.77c-2.94,1.49-5.94,2.88-8.81,4.5l-8.54,5-17.07,10.05-16.39,11.13-8.16,5.63-7.81,6.1-7.81,6.1c-2.57,2.07-5.29,3.97-7.71,6.22-20.17,17.09-38.73,36.08-55.25,56.69-16.44,20.62-31.13,42.88-41.49,67.1Z" style="fill:#A6D34D;"></path><path d="M81.66,277.44c12.1-23.36,27.7-44.61,44.5-64.64l6.36-7.47c2.16-2.45,4.43-4.81,6.64-7.22,4.47-4.77,8.8-9.67,13.61-14.12,4.75-4.49,9.23-9.27,14.13-13.59l14.73-12.94c2.39-2.24,5.06-4.13,7.59-6.2l7.69-6.08,7.69-6.08,8.02-5.64,16.03-11.32,16.67-10.37,8.33-5.21c2.8-1.7,5.74-3.14,8.59-4.76l17.25-9.45c1.44-.79,2.86-1.62,4.31-2.38l4.44-2.11,8.89-4.23c5.94-2.8,11.86-5.66,17.77-8.57-6.11,2.4-12.22,4.85-18.31,7.36l-9.15,3.73-4.58,1.87c-1.5,.67-2.97,1.43-4.45,2.13l-17.72,8.77c-2.94,1.49-5.94,2.88-8.81,4.5l-8.54,5-17.07,10.05-16.39,11.13-8.16,5.63-7.81,6.1-7.81,6.1c-2.57,2.07-5.29,3.97-7.71,6.22-20.17,17.09-38.73,36.08-55.25,56.69-16.44,20.62-31.13,42.88-41.49,67.1Z" style="opacity: .7;"></path></g><g><path d="M77.34,200.42s31.66,11.08,59.52-2.98c0,0-27,5.83-59.52,2.98Z" style="fill:#A6D34D;"></path><path d="M77.34,200.42s31.66,11.08,59.52-2.98c0,0-27,5.83-59.52,2.98Z" style="opacity: .7;"></path></g><g><path d="M119.86,216.25s-13.34,30.77-1.34,59.58c0,0-3.86-27.35,1.34-59.58Z" style="fill:#A6D34D;"></path><path d="M119.86,216.25s-13.34,30.77-1.34,59.58c0,0-3.86-27.35,1.34-59.58Z" style="opacity: .7;"></path></g><g><path d="M62.86,246.46s20.99,7.34,39.46-1.98c0,0-17.9,3.87-39.46,1.98Z" style="fill:#A6D34D;"></path><path d="M62.86,246.46s20.99,7.34,39.46-1.98c0,0-17.9,3.87-39.46,1.98Z" style="opacity: .7;"></path></g><g><path d="M149.44,149.47s20.99,7.34,39.46-1.98c0,0-17.9,3.87-39.46,1.98Z" style="fill:#A6D34D;"></path><path d="M149.44,149.47s20.99,7.34,39.46-1.98c0,0-17.9,3.87-39.46,1.98Z" style="opacity: .7;"></path></g><g><path d="M151.31,181.36s-12.77,18.21-8.82,38.52c0,0,1.14-18.28,8.82-38.52Z" style="fill:#A6D34D;"></path><path d="M151.31,181.36s-12.77,18.21-8.82,38.52c0,0,1.14-18.28,8.82-38.52Z" style="opacity: .7;"></path></g><g><path d="M167.24,163.57s-15.47,37.69-5.49,74.1c0,0-1.95-34.22,5.49-74.1Z" style="fill:#A6D34D;"></path><path d="M167.24,163.57s-15.47,37.69-5.49,74.1c0,0-1.95-34.22,5.49-74.1Z" style="opacity: .7;"></path></g></g><g><path d="M474.95,48.24V23.35s-42.33,17.22-50.98,21.03-84.04,15.49-98.09,17.88c-13.74,2.34-48.9,27.97-59.94,34.04-.88,.48-.71,3.89-.06,3.54,6.47-3.55,25.11-11.22,25.93-8.63,1.08,3.45-21.13,32-21.38,33.1-.55,2.39,1.73,3.76,1.99,3.81,1.05,.17,37.89-48.94,46.73-53.04,12.23-5.66,96.91-15,105.3-17.08,10.2-2.53,50.52-9.75,50.52-9.75Z" style="fill:#A6D34D;"></path><g style="opacity: .7;"><path d="M474.95,48.24V23.35s-42.33,17.22-50.98,21.03-84.04,15.49-98.09,17.88c-13.74,2.34-48.9,27.97-59.94,34.04-.88,.48-.71,3.89-.06,3.54,6.47-3.55,25.11-11.22,25.93-8.63,1.08,3.45-21.13,32-21.38,33.1-.55,2.39,1.73,3.76,1.99,3.81,1.05,.17,37.89-48.94,46.73-53.04,12.23-5.66,96.91-15,105.3-17.08,10.2-2.53,50.52-9.75,50.52-9.75Z"></path></g></g><g><g><path d="M278.21,120.02c.05,1.76,3.46,35.81,1.4,44.32-1.93,7.98-46.69,57.49-72.43,122.78-1.72,4.35-7.03,7.68-8.53,12.18-1.13,3.41,11.77,5.56,12.89,2.57,1.53-4.09,2.71-13.12,4.24-16.96,29.03-72.76,58.08-96.56,67.04-114.07,.76-1.48,4.38-2.44,4.44-5.79,.18-10.33-2.82-29.23-2.71-43.46,.04-4.39,2.21-10.72,2.52-13.17,.55-4.33-8.93,9.17-8.86,11.59Z" style="fill:#A6D34D;"></path><path d="M202.07,234.34c.84-1.37,5.69-.93,7.89-.86,2.19,.07,29.42-14.85,31.29-15.96,1.87-1.11,3.88-3.86,5.13-4.38,1.25-.53-4.51,10.86-5.8,10.99-1.29,.13-2.69,.36-4.28,1.33-1.59,.97-24.77,12.61-25.23,14.35-.45,1.74-4.16,7.24-5.14,6.58-.98-.66-3.86-12.04-3.86-12.04Z" style="fill:#A6D34D;"></path><path d="M222.65,268.56c.6-.18,2.23,2.8,4.22,3.01,2,.21,8.63-.73,9.4-1.18,.77-.45,2.64-1.64,3.92-2.27,1.28-.63,1.9,12.42,.81,12.71-1.09,.29-2.9-2.7-4.29-2.92-1.39-.23-9.87-.1-12.29,.04-2.42,.15-4.82,1.71-6.5,1.65-1.68-.06,4.72-11.04,4.72-11.04Z" style="fill:#A6D34D;"></path></g><g style="opacity: .7;"><path d="M278.21,120.02c.05,1.76,3.46,35.81,1.4,44.32-1.93,7.98-46.69,57.49-72.43,122.78-1.72,4.35-7.03,7.68-8.53,12.18-1.13,3.41,11.77,5.56,12.89,2.57,1.53-4.09,2.71-13.12,4.24-16.96,29.03-72.76,58.08-96.56,67.04-114.07,.76-1.48,4.38-2.44,4.44-5.79,.18-10.33-2.82-29.23-2.71-43.46,.04-4.39,2.21-10.72,2.52-13.17,.55-4.33-8.93,9.17-8.86,11.59Z"></path><path d="M202.07,234.34c.84-1.37,5.69-.93,7.89-.86,2.19,.07,29.42-14.85,31.29-15.96,1.87-1.11,3.88-3.86,5.13-4.38,1.25-.53-4.51,10.86-5.8,10.99-1.29,.13-2.69,.36-4.28,1.33-1.59,.97-24.77,12.61-25.23,14.35-.45,1.74-4.16,7.24-5.14,6.58-.98-.66-3.86-12.04-3.86-12.04Z"></path><path d="M222.65,268.56c.6-.18,2.23,2.8,4.22,3.01,2,.21,8.63-.73,9.4-1.18,.77-.45,2.64-1.64,3.92-2.27,1.28-.63,1.9,12.42,.81,12.71-1.09,.29-2.9-2.7-4.29-2.92-1.39-.23-9.87-.1-12.29,.04-2.42,.15-4.82,1.71-6.5,1.65-1.68-.06,4.72-11.04,4.72-11.04Z"></path></g></g></g></g><g id="freepik--Acorns--inject-7"><g><g><g><path d="M102.82,317.68c-22.97-7.04-30.15-20.87-33.54-23.47-3.4-2.58-6.71-1.23-7.89-4.54-1.17-3.31,2.25-4.34,3.26-8.5,1-4.15-2.16-19.42,11.21-39.38,13.45-20.05,66.47-35.29,66.47-35.29l34.33,96.6s-50.75,21.64-73.84,14.57Z" style="fill:#A6D34D;"></path><path d="M102.82,317.68c-22.97-7.04-30.15-20.87-33.54-23.47-3.4-2.58-6.71-1.23-7.89-4.54-1.17-3.31,2.25-4.34,3.26-8.5,1-4.15-2.16-19.42,11.21-39.38,13.45-20.05,66.47-35.29,66.47-35.29l34.33,96.6s-50.75,21.64-73.84,14.57Z" style="opacity: .5;"></path><path d="M126.16,225.32c-7.71-3.81-33.25,7.63-32.4,18.41,1.19,15.06,26.31,16.34,35.37,9.93,7.28-5.15,5.24-24.28-2.97-28.34Z" style="fill:#fff; opacity: .2;"></path><path d="M102.82,317.68c-22.97-7.04-30.15-20.87-33.54-23.47-3.4-2.58-6.71-1.23-7.89-4.54-1.17-3.31,2.25-4.34,3.26-8.5,1-4.15-2.16-19.42,11.21-39.38,1.33-1.97,3.02-3.9,5.02-5.76-7.02,10.61-8.02,30.9,1.58,42.93,14.66,18.34,49.4,11.5,85.19-1.22l9.01,25.35s-50.75,21.64-73.84,14.57Z" style="opacity: .1;"></path><path d="M163.9,267.2s-25.59,12.18-41,12.81c0,0,15.04,2.8,43.01-7.14l-2.01-5.67Z" style="opacity: .1;"></path><path d="M82.84,307.71c-2.88-2.17-5.18-4.35-7.05-6.3,12.08,3.14,29.51,4.97,52.55,.97,0,0-18,7.49-45.5,5.34Z" style="opacity: .1;"></path><path d="M113.16,309.9s-8.38,2.81-21.05,3.54c-.98-.49-1.91-.98-2.8-1.49,6.47,.18,14.38-.3,23.85-2.05Z" style="opacity: .1;"></path><path d="M145.83,216.36s-17.57,.68-42.2,9.43c0,0,11.7-6.88,40.18-15.1l2.01,5.67Z" style="fill:#fff; opacity: .2;"></path></g><g><path d="M170.19,315.04c-5.38-1.23-8.5-6.25-8.5-6.25-2.8-19.5-10.76-44.7-12.73-50.24-1.97-5.54-11.69-30.11-21.83-47.01,0,0-.75-5.86,2.65-10.21,3.41-4.34,25.06-9.39,36.57,.22,11.51,9.61,22.34,27.8,24.11,29.98,1.77,2.18,8,.22,10.49,1.63,2.48,1.43,3.85,3.18,4.59,5.27,.74,2.09,.79,4.31-.24,6.99-1.04,2.67-7.11,5.08-7.11,7.89,0,2.81,3.08,23.75,.22,38.47-2.86,14.72-22.84,24.46-28.23,23.25Z" style="fill:#A6D34D;"></path><path d="M170.19,315.04c-5.38-1.23-8.5-6.25-8.5-6.25-2.8-19.5-10.76-44.7-12.73-50.24-1.97-5.54-11.69-30.11-21.83-47.01,0,0-.75-5.86,2.65-10.21,3.41-4.34,25.06-9.39,36.57,.22,11.51,9.61,22.34,27.8,24.11,29.98,1.77,2.18,8,.22,10.49,1.63,2.48,1.43,3.85,3.18,4.59,5.27,.74,2.09,.79,4.31-.24,6.99-1.04,2.67-7.11,5.08-7.11,7.89,0,2.81,3.08,23.75,.22,38.47-2.86,14.72-22.84,24.46-28.23,23.25Z" style="opacity: .8;"></path><path d="M170.19,315.04c-5.38-1.23-8.5-6.25-8.5-6.25-2.33-16.25-8.25-36.45-11.29-45.95,3.08,8.44,10.72,25.14,22.08,22.22,20.17-5.19,15.56-36.13,19.58-37.8,6.14-2.55,13.49-8.82,8.89-14.09,2.48,1.43,3.85,3.18,4.59,5.27,.74,2.09,.79,4.31-.24,6.99-1.04,2.67-7.11,5.08-7.11,7.89,0,2.81,3.08,23.75,.22,38.47-2.86,14.72-22.84,24.46-28.23,23.25Z" style="opacity: .2;"></path></g><g style="opacity: .1;"><path d="M161.51,214.84l3.66-5.36c1.12-1.64,.47-3.88-1.35-4.67l-6.89-2.98c-1.43-.62-3.1-.1-3.92,1.22l-3.59,5.72c-1.05,1.68-.31,3.9,1.54,4.62l6.82,2.62c1.36,.52,2.91,.04,3.73-1.16Z" style="fill:#A6D34D;"></path></g><g style="opacity: .1;"><path d="M174,226.14l3.66-5.36c1.12-1.64,.47-3.88-1.35-4.67l-6.89-2.98c-1.43-.62-3.1-.1-3.92,1.22l-3.59,5.72c-1.05,1.68-.31,3.9,1.54,4.62l6.82,2.62c1.36,.52,2.91,.04,3.73-1.16Z" style="fill:#A6D34D;"></path></g><g style="opacity: .1;"><path d="M167.19,241.33l3.66-5.36c1.12-1.64,.47-3.88-1.35-4.67l-6.89-2.98c-1.43-.62-3.1-.1-3.92,1.22l-3.59,5.72c-1.05,1.68-.31,3.9,1.54,4.62l6.82,2.62c1.36,.52,2.91,.04,3.73-1.16Z" style="fill:#A6D34D;"></path></g><g style="opacity: .1;"><path d="M154.02,229.83l3.66-5.36c1.12-1.63,.47-3.88-1.35-4.67l-6.89-2.98c-1.43-.62-3.1-.1-3.92,1.22l-3.59,5.72c-1.05,1.68-.31,3.9,1.54,4.62l6.82,2.62c1.36,.52,2.91,.04,3.73-1.16Z" style="fill:#A6D34D;"></path></g><g style="opacity: .1;"><path d="M144.28,210.07l2.28-3.34c.7-1.02,.29-2.42-.84-2.91l-4.3-1.86c-.89-.39-1.93-.06-2.45,.76l-2.24,3.57c-.66,1.05-.19,2.43,.96,2.88l4.25,1.64c.85,.33,1.81,.03,2.33-.73Z" style="fill:#A6D34D;"></path></g><g style="opacity: .1;"><path d="M184.65,235.37l2.28-3.34c.7-1.02,.29-2.42-.84-2.91l-4.3-1.86c-.89-.39-1.93-.06-2.45,.76l-2.24,3.57c-.66,1.05-.19,2.43,.96,2.88l4.25,1.64c.85,.33,1.81,.03,2.33-.73Z" style="fill:#A6D34D;"></path></g><g style="opacity: .1;"><path d="M163.17,263.2l2.28-3.34c.7-1.02,.29-2.42-.84-2.91l-4.3-1.86c-.89-.39-1.93-.06-2.45,.76l-2.24,3.57c-.66,1.05-.19,2.43,.96,2.88l4.25,1.64c.85,.33,1.81,.03,2.33-.73Z" style="fill:#A6D34D;"></path></g></g><g><g><path d="M206.23,428.79c-19.44,14.12-34.81,11.54-38.92,12.69-4.11,1.16-5.02,4.62-8.37,3.58-3.35-1.05-2.11-4.41-4.83-7.71-2.71-3.29-16.82-9.95-24.72-32.63-7.94-22.8,11.77-74.34,11.77-74.34l97.83,30.65s-13.22,53.56-32.75,67.76Z" style="fill:#A6D34D;"></path><path d="M206.23,428.79c-19.44,14.12-34.81,11.54-38.92,12.69-4.11,1.16-5.02,4.62-8.37,3.58-3.35-1.05-2.11-4.41-4.83-7.71-2.71-3.29-16.82-9.95-24.72-32.63-7.94-22.8,11.77-74.34,11.77-74.34l97.83,30.65s-13.22,53.56-32.75,67.76Z" style="opacity: .4;"></path><path d="M146.46,354.62c-7.68,3.87-13.89,31.15-4.77,36.95,12.75,8.1,28.87-11.2,29.2-22.29,.26-8.91-16.25-18.78-24.43-14.66Z" style="fill:#fff; opacity: .2;"></path><path d="M206.23,428.79c-19.44,14.12-34.81,11.54-38.92,12.69-4.11,1.16-5.02,4.62-8.37,3.58s-2.11-4.41-4.83-7.71c-2.71-3.29-16.82-9.95-24.72-32.63-.78-2.24-1.29-4.76-1.58-7.48,4.26,11.98,19.87,24.99,35.26,24.55,23.47-.69,38.89-32.56,50.25-68.8l25.67,8.04s-13.22,53.56-32.75,67.76Z" style="opacity: .1;"></path><path d="M202.62,349.64s-5.66,27.77-14.41,40.46c0,0,11.28-10.34,20.16-38.66l-5.74-1.8Z" style="opacity: .1;"></path><path d="M186.24,438.77c-3.47,.99-6.59,1.53-9.27,1.84,9.77-7.77,21.72-20.59,32.37-41.41,0,0-4.84,18.89-23.09,39.57Z" style="opacity: .1;"></path><path d="M206.22,415.86s-2.79,8.38-9.83,18.94c-.98,.49-1.93,.93-2.87,1.35,4.04-5.06,8.4-11.67,12.7-20.29Z" style="opacity: .1;"></path><path d="M151.13,333.51s-10.02,14.45-17.83,39.39c0,0,1.53-13.48,12.09-41.19l5.74,1.8Z" style="fill:#fff; opacity: .2;"></path></g><g><path d="M244.62,373.38c-4.21,3.56-10.1,3.03-10.1,3.03-17.27-9.49-42.19-18.28-47.8-20.03-5.61-1.76-31.09-8.76-50.69-10.82,0,0-5.13-2.92-6.56-8.25-1.42-5.34,7.56-25.67,22.16-29.09,14.6-3.42,35.65-1.14,38.45-1.24,2.81-.1,4.98-6.26,7.61-7.4,2.64-1.13,4.86-1.17,6.97-.5,2.12,.66,3.92,1.96,5.44,4.39,1.51,2.43-.22,8.74,2.03,10.42,2.25,1.68,20.83,11.82,30.87,22.96,10.04,11.14,5.81,32.96,1.6,36.54Z" style="fill:#A6D34D;"></path><path d="M244.62,373.38c-4.21,3.56-10.1,3.03-10.1,3.03-17.27-9.49-42.19-18.28-47.8-20.03-5.61-1.76-31.09-8.76-50.69-10.82,0,0-5.13-2.92-6.56-8.25-1.42-5.34,7.56-25.67,22.16-29.09,14.6-3.42,35.65-1.14,38.45-1.24,2.81-.1,4.98-6.26,7.61-7.4,2.64-1.13,4.86-1.17,6.97-.5,2.12,.66,3.92,1.96,5.44,4.39,1.51,2.43-.22,8.74,2.03,10.42,2.25,1.68,20.83,11.82,30.87,22.96,10.04,11.14,5.81,32.96,1.6,36.54Z" style="opacity: .7;"></path><path d="M244.62,373.38c-4.21,3.56-10.1,3.03-10.1,3.03-14.39-7.91-34.09-15.33-43.5-18.6,8.59,2.61,26.54,6.55,31.03-4.28,7.98-19.24-19.52-34.16-18.43-38.38,1.65-6.43,1.06-16.08-5.91-15.58,2.64-1.13,4.86-1.17,6.97-.5,2.12,.66,3.92,1.96,5.44,4.39,1.51,2.43-.22,8.74,2.03,10.42,2.25,1.68,20.83,11.82,30.87,22.96,10.04,11.14,5.81,32.96,1.6,36.54Z" style="opacity: .2;"></path></g><g style="opacity: .1;"><path d="M159.34,320.07l-2.08-6.15c-.64-1.88-2.82-2.71-4.54-1.73l-6.53,3.71c-1.35,.77-1.94,2.41-1.39,3.87l2.42,6.31c.71,1.85,2.93,2.6,4.61,1.55l6.2-3.87c1.24-.77,1.78-2.3,1.31-3.68Z" style="fill:#A6D34D;"></path></g><g style="opacity: .1;"><path d="M175.88,316.88l-2.08-6.15c-.64-1.88-2.82-2.71-4.54-1.73l-6.53,3.71c-1.35,.77-1.94,2.41-1.39,3.87l2.42,6.31c.71,1.85,2.93,2.6,4.61,1.55l6.2-3.87c1.24-.77,1.78-2.3,1.31-3.68Z" style="fill:#A6D34D;"></path></g><g style="opacity: .1;"><path d="M183.92,331.46l-2.08-6.15c-.64-1.88-2.82-2.71-4.54-1.73l-6.53,3.71c-1.35,.77-1.94,2.41-1.39,3.87l2.42,6.31c.71,1.85,2.93,2.6,4.61,1.55l6.2-3.87c1.24-.77,1.78-2.3,1.31-3.68Z" style="fill:#A6D34D;"></path></g><g style="opacity: .1;"><path d="M166.81,335.06l-2.08-6.15c-.64-1.88-2.82-2.71-4.54-1.73l-6.53,3.71c-1.35,.77-1.94,2.41-1.39,3.87l2.42,6.31c.71,1.85,2.93,2.6,4.61,1.55l6.2-3.87c1.24-.77,1.78-2.3,1.31-3.68Z" style="fill:#A6D34D;"></path></g><g style="opacity: .1;"><path d="M145.16,330.96l-1.3-3.84c-.4-1.17-1.76-1.69-2.83-1.08l-4.07,2.32c-.84,.48-1.21,1.5-.86,2.41l1.51,3.94c.44,1.15,1.83,1.62,2.88,.96l3.86-2.41c.77-.48,1.11-1.43,.82-2.3Z" style="fill:#A6D34D;"></path></g><g style="opacity: .1;"><path d="M189.65,313.92l-1.3-3.84c-.4-1.17-1.76-1.69-2.83-1.08l-4.07,2.32c-.84,.48-1.21,1.5-.86,2.41l1.51,3.94c.44,1.15,1.83,1.62,2.88,.96l3.86-2.41c.77-.48,1.11-1.43,.82-2.3Z" style="fill:#A6D34D;"></path></g><g style="opacity: .1;"><path d="M198.97,347.82l-1.3-3.84c-.4-1.17-1.76-1.69-2.83-1.08l-4.07,2.32c-.84,.48-1.21,1.5-.86,2.41l1.51,3.94c.44,1.15,1.83,1.62,2.88,.96l3.86-2.41c.77-.48,1.11-1.43,.82-2.3Z" style="fill:#A6D34D;"></path></g></g><g><g><path d="M363.47,246.66c17.67,16.28,18.16,31.86,20.1,35.67,1.95,3.8,5.52,4.01,5.15,7.5s-3.91,2.94-6.61,6.25c-2.69,3.31-6.44,18.45-27.13,30.66-20.8,12.27-75.2,3.08-75.2,3.08l10.81-101.94s55.12,2.43,72.88,18.79Z" style="fill:#A6D34D;"></path><path d="M363.47,246.66c17.67,16.28,18.16,31.86,20.1,35.67,1.95,3.8,5.52,4.01,5.15,7.5s-3.91,2.94-6.61,6.25c-2.69,3.31-6.44,18.45-27.13,30.66-20.8,12.27-75.2,3.08-75.2,3.08l10.81-101.94s55.12,2.43,72.88,18.79Z" style="opacity: .4;"></path><path d="M326.04,309.28c5.76-6.39,1.67-34.07-8.93-36.18-14.81-2.94-22.86,20.89-19.15,31.35,2.98,8.4,21.95,11.63,28.08,4.83Z" style="fill:#fff; opacity: .2;"></path><path d="M363.47,246.66c17.67,16.28,18.16,31.86,20.1,35.67,1.95,3.8,5.52,4.01,5.15,7.5-.37,3.49-3.91,2.94-6.61,6.25-2.69,3.31-6.44,18.45-27.13,30.66-2.05,1.2-4.41,2.2-7.02,3.02,10.91-6.53,20.6-24.4,17.14-39.4-5.29-22.88-39.57-31.73-77.34-35.74l2.84-26.75s55.12,2.43,72.88,18.79Z" style="opacity: .1;"></path><path d="M286.57,265.76s28.34,.09,42.51,6.18c0,0-12.35-9.03-41.87-12.16l-.63,5.98Z" style="opacity: .1;"></path><path d="M377.18,264.29c1.65,3.21,2.79,6.16,3.63,8.73-9.53-8.05-24.46-17.25-46.96-23.59,0,0,19.47,1.03,43.33,14.86Z" style="opacity: .1;"></path><path d="M350.79,249.21s8.77,1.09,20.51,5.91c.67,.86,1.3,1.71,1.88,2.55-5.75-2.96-13.1-5.94-22.39-8.46Z" style="opacity: .1;"></path><path d="M280.88,319.42s16.14,6.98,42.13,9.74c0,0-13.52,1.15-42.76-3.76l.63-5.98Z" style="fill:#fff; opacity: .2;"></path></g><g><path d="M301.59,219.91c4.32,3.43,4.96,9.31,4.96,9.31-5.91,18.79-9.62,44.96-10.24,50.81-.62,5.84-2.48,32.21-.64,51.83,0,0-1.86,5.61-6.8,8.06-4.95,2.44-26.66-2.37-32.88-16.01s-8.13-34.73-8.78-37.46c-.65-2.73-7.12-3.65-8.75-6.01-1.62-2.36-2.1-4.53-1.86-6.74,.23-2.21,1.15-4.22,3.24-6.2,2.09-1.96,8.61-1.5,9.82-4.04s7.49-22.75,16.44-34.78c8.95-12.04,31.18-12.18,35.51-8.76Z" style="fill:#A6D34D;"></path><path d="M301.59,219.91c4.32,3.43,4.96,9.31,4.96,9.31-5.91,18.79-9.62,44.96-10.24,50.81-.62,5.84-2.48,32.21-.64,51.83,0,0-1.86,5.61-6.8,8.06-4.95,2.44-26.66-2.37-32.88-16.01s-8.13-34.73-8.78-37.46c-.65-2.73-7.12-3.65-8.75-6.01-1.62-2.36-2.1-4.53-1.86-6.74,.23-2.21,1.15-4.22,3.24-6.2,2.09-1.96,8.61-1.5,9.82-4.04s7.49-22.75,16.44-34.78c8.95-12.04,31.18-12.18,35.51-8.76Z" style="opacity: .7;"></path><path d="M301.59,219.91c4.32,3.43,4.96,9.31,4.96,9.31-4.93,15.66-8.32,36.43-9.68,46.31,.87-8.94,1.2-27.31-10.3-29.58-20.43-4.04-29.65,25.85-34,25.62-6.63-.36-15.98,2.13-14.11,8.86-1.62-2.36-2.1-4.53-1.86-6.74,.23-2.21,1.15-4.22,3.24-6.2,2.09-1.96,8.61-1.51,9.82-4.04,1.21-2.53,7.49-22.75,16.44-34.78,8.95-12.04,31.18-12.18,35.51-8.76Z" style="opacity: .2;"></path></g><g style="opacity: .1;"><path d="M272.67,285.93l-5.62,3.25c-1.71,.99-2.1,3.3-.8,4.79l4.92,5.67c1.02,1.18,2.75,1.43,4.06,.6l5.71-3.61c1.68-1.06,1.97-3.39,.61-4.83l-5.01-5.31c-1-1.06-2.6-1.3-3.87-.56Z" style="fill:#A6D34D;"></path></g><g style="opacity: .1;"><path d="M263.49,271.11l-5.62,3.25c-1.71,.99-2.1,3.3-.8,4.79l4.92,5.67c1.02,1.18,2.75,1.43,4.06,.6l5.71-3.61c1.68-1.06,1.97-3.39,.61-4.83l-5.01-5.31c-1-1.06-2.61-1.3-3.87-.56Z" style="fill:#A6D34D;"></path></g><g style="opacity: .1;"><path d="M283.19,272.68l-5.62,3.25c-1.71,.99-2.1,3.3-.8,4.79l4.92,5.67c1.02,1.18,2.75,1.43,4.06,.6l5.71-3.61c1.68-1.06,1.97-3.39,.61-4.83l-5.01-5.31c-1-1.06-2.6-1.3-3.87-.56Z" style="fill:#A6D34D;"></path></g><g style="opacity: .1;"><path d="M275.26,258.67l-5.62,3.25c-1.71,.99-2.1,3.3-.8,4.79l4.92,5.67c1.02,1.18,2.75,1.43,4.06,.6l5.71-3.61c1.68-1.06,1.97-3.39,.61-4.83l-5.01-5.31c-1-1.06-2.6-1.3-3.87-.56Z" style="fill:#A6D34D;"></path></g><g style="opacity: .1;"><path d="M279.56,325.77l-3.51,2.03c-1.07,.62-1.31,2.06-.5,2.99l3.07,3.54c.64,.73,1.71,.89,2.53,.37l3.56-2.25c1.05-.66,1.23-2.11,.38-3.01l-3.13-3.31c-.63-.66-1.62-.81-2.41-.35Z" style="fill:#A6D34D;"></path></g><g style="opacity: .1;"><path d="M254.1,285.5l-3.51,2.03c-1.07,.62-1.31,2.06-.5,2.99l3.07,3.54c.64,.73,1.71,.89,2.53,.37l3.56-2.25c1.05-.66,1.23-2.11,.38-3.01l-3.13-3.31c-.63-.66-1.62-.81-2.41-.35Z" style="fill:#A6D34D;"></path></g><g style="opacity: .1;"><path d="M263.7,298.51l-3.51,2.03c-1.07,.62-1.31,2.06-.5,2.99l3.07,3.54c.64,.73,1.71,.89,2.53,.37l3.56-2.25c1.05-.66,1.23-2.11,.38-3.01l-3.13-3.31c-.63-.66-1.62-.81-2.41-.35Z" style="fill:#A6D34D;"></path></g></g></g></g></svg>
