<svg xmlns="http://www.w3.org/2000/svg" viewBox="0 0 500 500"><g id="freepik--background-simple--inject-1"><path d="M447.91,114.93c-1.65-2.71-3.37-5.38-5.17-8C418.83,72.29,379,48.56,340.32,37.82A222.92,222.92,0,0,0,288.59,30c-114-4.09-155.82,88.58-192.54,112.47S3,207.18,10.06,292.91c5.37,65.18,43,127.51,111.64,155.87a196.11,196.11,0,0,0,23.83,8.11,230.06,230.06,0,0,0,50.33,7.63c51.91,2.28,94.07-10.06,135.3-41.14,9.58-7.22,19.12-15.37,31.56-16.27,9-.65,17.61,2.56,8.16,11.17-11.11,10.13,1.71,30.05,29.9,16.21,47.09-23.11,66.47-73,75.59-123.69C487.57,248.55,482.14,171.14,447.91,114.93Z" style="fill:#A6D34D"></path><path d="M447.91,114.93c-1.65-2.71-3.37-5.38-5.17-8C418.83,72.29,379,48.56,340.32,37.82A222.92,222.92,0,0,0,288.59,30c-114-4.09-155.82,88.58-192.54,112.47S3,207.18,10.06,292.91c5.37,65.18,43,127.51,111.64,155.87a196.11,196.11,0,0,0,23.83,8.11,230.06,230.06,0,0,0,50.33,7.63c51.91,2.28,94.07-10.06,135.3-41.14,9.58-7.22,19.12-15.37,31.56-16.27,9-.65,17.61,2.56,8.16,11.17-11.11,10.13,1.71,30.05,29.9,16.21,47.09-23.11,66.47-73,75.59-123.69C487.57,248.55,482.14,171.14,447.91,114.93Z" style="fill:#fff;opacity:0.8"></path></g><g id="freepik--Table--inject-1"><g style="opacity:0.30000000000000004"><path d="M159.2,330.08l1.19-2,1.23-1.95,2.46-3.9c1.67-2.58,3.52-5.07,5.26-7.61s3.71-5,5.56-7.44,3.81-4.88,5.73-7.31l2.9-3.64,2.95-3.59,5.94-7.16,6.05-7.08c2-2.37,4.06-4.69,6.11-7l6.13-7c4.15-4.62,8.24-9.3,12.43-13.88s8.37-9.19,12.61-13.73l6.34-6.83,6.42-6.75q12.84-13.51,26-26.74l13.18-13.18,13.33-13,26.81-25.91,107-103.86-.21-.22c-18.57,16.54-36.8,33.45-54.91,50.49S343.67,125,326.07,142.51Q312.87,155.7,299.83,169l-26.07,26.67-26,26.74c-8.62,8.95-17.29,17.86-25.81,26.92-4.3,4.5-8.5,9.09-12.75,13.63s-8.41,9.16-12.51,13.85c-8.28,9.29-16.33,18.8-24,28.62-1.88,2.49-3.84,4.92-5.66,7.46s-3.68,5-5.4,7.67l-2.55,4-1.27,2-1.2,2-4.81,8-9.66,15.94-9.78,15.85c-3.25,5.3-6.57,10.54-9.87,15.79l-10.09,15.66c-6.78,10.39-13.72,20.68-21.06,30.68-1.8,2.52-3.74,4.94-5.58,7.43s-3.8,4.89-5.82,7.22-4,4.67-6.19,6.88-4.45,4.27-6.76,6.34q-13.86,12.42-28.41,24.1l.18.24c5-3.69,9.93-7.49,14.81-11.35s9.69-7.8,14.42-11.85c2.37-2,4.72-4.05,7-6.25s4.39-4.47,6.44-6.83,4-4.76,6-7.15,3.9-4.87,5.75-7.38c15-19.92,28.65-40.75,41.86-61.84q9.88-15.83,19.41-31.87Z"></path><path d="M268.3,318.94c3-4.6,5.72-9.4,8.5-14.14l4.19-7,2.1-3.5c.69-1.17,1.39-2.35,2.15-3.48l9-13.73,9.24-13.58c3.07-4.52,6.28-9,9.42-13.45l4.73-6.71,4.83-6.64,9.69-13.27c3.24-4.41,6.57-8.76,9.86-13.14,6.57-8.76,13.33-17.38,20.06-26l20.28-25.85c13.54-17.22,26.76-34.68,40.18-52s26.67-34.75,39.86-52.25l-.24-.19c-14,16.82-27.79,33.88-41.43,51s-27.15,34.39-40.35,51.88L360.7,183.24l-19.51,26.45Q321.54,236,302.1,262.53l-9.59,13.37c-3.13,4.5-6.19,9.06-9.27,13.6-.78,1.12-1.51,2.29-2.23,3.47l-2.17,3.5-4.34,7c-2.84,4.66-5.55,9.39-8.58,13.94l-4.44,6.88-4.6,6.79c-1.54,2.26-3,4.54-4.62,6.77l-4.71,6.71c-3.13,4.49-6.33,8.93-9.51,13.38s-6.41,8.86-9.64,13.29-6.44,8.84-9.69,13.24l-9.77,13.2q-4.87,6.62-9.81,13.17L189.26,424l-19.75,26.26-9.83,13.17L154.8,470l-2.4,3.33-2.33,3.4.25.16c6.6-8.72,13.59-17.16,20.39-25.75s13.67-17.12,20.41-25.76C204.61,408.16,218,390.8,231,373.14S256.58,337.52,268.3,318.94Z"></path><path d="M326.85,378.62C338.29,365.9,350,353.44,362,341.18s24.09-24.29,36.41-36.14c3.06-3,6.15-6,9.18-9.05l8.85-9.38,8.47-9.72,8.1-10c2.55-3.45,5.15-6.88,7.66-10.37s5-7,7.27-10.65,4.67-7.21,6.83-10.92l3.3-5.54,3.15-5.62A362.81,362.81,0,0,0,482.58,177l-.28-.12a456.4,456.4,0,0,1-23.15,45.71,381.51,381.51,0,0,1-28.7,42.3,379.63,379.63,0,0,1-34,38.12c-12.23,12-24.1,24.4-35.64,37L326.13,378c-11.62,12.58-23.36,25-34.91,37.69s-22.75,25.59-33.89,38.6-22.14,26.12-32.88,39.47l.23.19q34.62-37.95,68.41-76.6l16.8-19.41,8.42-9.69Z"></path><path d="M64.84,324.2c14.44-13.39,29-26.7,43.15-40.37l21.17-20.61,10.52-10.38c1.74-1.75,3.53-3.43,5.25-5.22.85-.9,1.73-1.77,2.55-2.7l2.46-2.77c1.62-1.85,3.2-3.75,4.78-5.64l4.67-5.74q4.63-5.76,9.14-11.62c6-7.82,12-15.62,17.9-23.52,11.87-15.72,23.49-31.64,35-47.62l34.52-47.95c5.72-8,11.53-16,17.34-23.89q4.37-5.94,8.84-11.8c3-3.89,6-7.76,9.21-11.45.8-.93,1.59-1.86,2.43-2.72a35.86,35.86,0,0,1,2.53-2.55c.83-.81,1.82-1.59,2.76-2.38l2.85-2.37q5.67-4.76,11.18-9.69c3.69-3.27,7.31-6.61,10.9-10s7.15-6.78,10.63-10.27l-.21-.22q-11,9.87-22.31,19.33c-3.77,3.16-7.57,6.28-11.43,9.32l-2.9,2.27c-1,.77-1.94,1.48-2.91,2.35-.47.43-1,.83-1.43,1.28l-1.31,1.34c-.89.89-1.71,1.82-2.54,2.75-3.32,3.69-6.43,7.53-9.51,11.39S274,70.52,271,74.44c-6,7.83-11.81,15.79-17.62,23.75-11.57,16-22.87,32.08-34.22,48.18l-34,48.29c-5.74,8-11.43,16-17.41,23.85s-12,15.65-18.48,23c-3.23,3.71-6.79,7.06-10.38,10.44L128,262l-21.73,20c-14.48,13.36-28.7,27-43,40.51s-28.47,27.22-42.51,41.05l.21.22C35.75,350.77,50.32,337.52,64.84,324.2Z"></path><path d="M68.88,395.47c1.18-.9,2.32-1.89,3.48-2.86s2.32-1.92,3.44-2.92c2.2-2,4.44-4,6.6-6.11l6.41-6.28,6.27-6.42c2.09-2.13,4.11-4.32,6.16-6.5s4.08-4.36,6.09-6.58l6-6.62,6-6.68c15.85-17.86,31.17-36.16,46.37-54.55s30.16-37,45-55.68l22.26-28,11.15-14c3.71-4.67,7.49-9.28,11.23-13.93l11.24-13.91,11.33-13.85,22.61-27.73q11.24-13.92,22.38-27.91,5.56-7,11.19-13.94c1.88-2.3,3.76-4.62,5.69-6.85.95-1.13,1.94-2.23,2.95-3.32s2-2.19,3-3.26c8.2-8.59,16.79-16.85,25.66-24.79S389.27,27,398.46,19.42l-.18-.23c-4.79,3.56-9.48,7.25-14.13,11s-9.28,7.52-13.79,11.43c-9.06,7.79-17.95,15.78-26.3,24.38C343,67.05,342,68.16,341,69.25s-2.05,2.19-3,3.33c-2,2.26-3.88,4.56-5.8,6.86q-5.72,6.89-11.33,13.85c-7.53,9.26-14.92,18.62-22.28,28l-22,28.25-11,14.12-11.09,14c-7.37,9.37-14.88,18.64-22.4,27.9l-5.63,6.94-5.69,6.91-11.39,13.79c-30.54,36.63-60.95,73.39-92.46,109.14-7.83,9-15.86,17.78-24,26.51l-6.14,6.48-6.26,6.34c-2.12,2.08-4.29,4.09-6.44,6.14-1.09,1-2.22,1.94-3.33,2.91s-2.22,1.95-3.39,2.88L39.7,416.25c-9.26,7.51-18.45,15.14-27.82,22.48L12,439c4.9-3.44,9.62-7.07,14.39-10.67s9.5-7.21,14.21-10.87C50.07,410.14,59.51,402.85,68.88,395.47Z"></path><path d="M472.5,256.61c-2.78,5.26-5.69,10.45-8.54,15.68l-4.31,7.81-4.41,7.76c-3,5.15-5.88,10.33-8.9,15.45l-4.5,7.7-4.57,7.66c-3,5.13-6.2,10.14-9.32,15.19l-4.86,7.47-2.42,3.75-2.52,3.67-2.52,3.67c-.85,1.22-1.64,2.48-2.52,3.67l-5.26,7.19c-.45.6-.87,1.21-1.33,1.79l-1.41,1.72-2.8,3.46c-.95,1.14-1.85,2.33-2.84,3.43l-3.06,3.24c-4,4.38-8.45,8.39-12.51,12.75-2.06,2.16-4.18,4.26-6.19,6.47s-4.11,4.32-6.1,6.55l-6,6.66-5.85,6.78c-7.65,9.17-14.84,18.7-21.79,28.4s-13.58,19.61-19.78,29.81l.25.17c14.17-19.17,28.5-38.16,43.26-56.8l5.52-7,5.63-6.92c3.8-4.57,7.65-9.11,11.73-13.43S393,382,397.14,377.63l3.15-3.2c1-1.07,2-2.23,3-3.34l3-3.36,1.48-1.69c.49-.56.94-1.16,1.41-1.74,15.17-18.5,28-38.77,40-59.39Q458,289.36,466,273.38c2.7-5.32,5.28-10.7,7.82-16.09,1.3-2.68,2.48-5.43,3.7-8.15s2.39-5.47,3.4-8.29l-.28-.1C478.15,246.12,475.29,251.35,472.5,256.61Z"></path><path d="M69.16,216.17q14.22-13.9,27.38-28.84t25.18-30.78c2-2.64,4-5.27,6-8l2.92-4,2.85-4.08c1.89-2.74,3.83-5.38,5.75-8s4-5.26,6-7.84c8.27-10.28,17.12-20.14,26.39-29.56s18.89-18.51,28.49-27.6,19-18.34,28.53-27.55,19-18.43,28.38-27.74l-.2-.22c-10.14,8.51-20,17.3-29.77,26.27q-7.32,6.72-14.5,13.57T198.34,65.65c-4.67,4.69-9.21,9.51-13.82,14.26L170.9,94.35l-6.84,7.2-6.78,7.25c-1.15,1.2-2.27,2.41-3.37,3.65l-3.36,3.66-3.36,3.66L144,123.54c-2.17,2.51-4.38,5-6.39,7.65l-3.08,3.93c-1,1.32-2,2.65-3,4l-2.94,4-3,3.92-3,3.93-3.06,3.88c-8.18,10.36-16.71,20.45-25.36,30.41-2.14,2.51-4.33,5-6.52,7.45S83.21,197.58,81,200s-4.44,4.88-6.69,7.29-4.53,4.8-6.82,7.18c-9.15,9.5-18.53,18.82-28.94,27l.17.24C49.76,234.35,59.63,225.37,69.16,216.17Z"></path></g></g><g id="freepik--Leaves--inject-1"><path d="M204.48,248.86s-5-6.21-5.54-12-1.67-7.37-3.9-6.44-9.26,11.78-7.72-7.07-5.18-18.31-8.71-13.78-10.16,10.45-3.75-12,21.66-38.62,15.82-56.25-20.26-6.45-24.83,3.7l-2.41,7.28c-2.46,9.47-3.75,20.22-10.42,21.36-8.5,1.46-11-.52,4.36-24.94s32.78-28.69,32-56S170.08,77,155.49,92.41,134.2,141.56,130,130.86s9.35-21.42,15.06-45.93,5.47-42.88-13.66-32.31-13.33,41.87-26,32.19,1.71-54.94-9.79-43.58-9.1,22.54-17.27,15.48S59,37.92,50.61,44.31C43.45,49.75,47.15,68,52.7,84.82l1.86,5.42c.4,1.12.81,2.23,1.21,3.31,7,18.73-26.44.36-34.42,7.2s-13.31,10,7.24,20.74,52.52,22.37,37.71,20.78-34.09-17.69-43-12.64S13,146.14,32.91,158.86s27.78,16,46.87,18.19-1.61,3.33-8.88,6.4,2.5,16.87,21.58,20,40.81,2.65,31.23,6.59-20.35,20,2.9,15.2a52.16,52.16,0,0,1,19.17-.09l5.91,1.3c12.94,3.48,22.05,10.12,19.25,11.86-4.45,2.75-22.29,8.82,2.14,8.71s10.83,5.23,26.11,8.16S204.48,248.86,204.48,248.86Z" style="opacity:0.30000000000000004"></path><path d="M162.38,148.7c-2.45,9.48-3.74,20.22-10.41,21.37-8.5,1.46-11-.52,4.36-24.94s32.78-28.69,32-56S169,73.46,154.44,88.9,133.15,138.05,129,127.35s9.34-21.42,15.06-45.93,5.46-42.88-13.67-32.31S117,91,104.35,81.29s1.72-54.93-9.78-43.57S85.46,60.26,77.3,53.2,58,34.41,49.56,40.8c-7.16,5.43-3.47,23.66,2.09,40.51l1.86,5.42c.4,1.12.8,2.22,1.21,3.31,7,18.73-26.45.36-34.42,7.19S7,107.28,27.53,118s52.53,22.37,37.72,20.78-34.09-17.69-43-12.64-10.3,16.5,9.59,29.23,27.79,16,46.87,18.19-1.6,3.33-8.88,6.39,2.51,16.88,21.59,20,40.81,2.64,31.22,6.59-20.34,20,2.9,15.2a52.21,52.21,0,0,1,19.18-.09l5.91,1.3c12.94,3.47,22.05,10.12,19.25,11.85-4.45,2.75-22.3,8.82,2.13,8.71s10.83,5.24,26.11,8.16,5.3-6.34,5.3-6.34-5-6.21-5.55-12-1.67-7.38-3.9-6.45-9.25,11.78-7.71-7.06-5.19-18.31-8.71-13.78-10.17,10.45-3.75-12.05,21.66-38.63,15.82-56.25-20.27-6.45-24.83,3.7" style="fill:#A6D34D"></path><path d="M60,58.78a51.56,51.56,0,0,1-2.41-5.6l.94-.33a51.84,51.84,0,0,0,2.37,5.48Z" style="fill:#263238"></path><path d="M197.5,248.68c-.09-.1-9.44-10.1-38.44-40.94-31.65-33.66-56.57-61.36-65.61-86C86.1,101.66,72,78,64.2,65.71l.85-.53c7.79,12.34,22,36.05,29.34,56.2,9,24.48,33.83,52.1,65.4,85.67,29,30.85,38.35,40.85,38.44,40.94Z" style="fill:#263238"></path><path d="M130.33,71.73l-.92-.37c3.51-8.68,5.1-12.18,5.12-12.21l.91.41S133.84,63.08,130.33,71.73Z" style="fill:#263238"></path><path d="M109.6,150.08l-1-.09c0-.33,3-32.89,12.47-57.46,2.2-5.74,4.29-11.08,6.2-15.87l.93.37c-1.91,4.79-4,10.13-6.2,15.86C112.62,117.32,109.63,149.75,109.6,150.08Z" style="fill:#263238"></path><path d="M98.25,133.54c-.07-.06-7.45-5.78-27.84-13.44S36.82,109,36.69,108.92l.25-1c.13,0,13.31,3.5,33.82,11.2s27.82,13.36,28.11,13.59Z" style="fill:#263238"></path><path d="M64.89,153.41c-8.92-1.52-18.65-3.52-23.14-6.76l.58-.81c4.33,3.12,13.92,5.08,22.73,6.58Z" style="fill:#263238"></path><path d="M121,166.25a196.71,196.71,0,0,0-34.1-9.37c-3.33-.55-6.76-1.07-10.19-1.6-2.72-.41-5.43-.83-8.09-1.25l.16-1c2.66.42,5.37.84,8.09,1.25,3.43.53,6.86,1.05,10.2,1.61a197.2,197.2,0,0,1,34.29,9.42Z" style="fill:#263238"></path><path d="M130.49,176.68c0-.16-1.2-15.4,10.55-36.52s36-53.35,36.28-53.67l.8.6c-.24.32-24.55,32.6-36.21,53.56s-10.44,35.79-10.43,35.94Z" style="fill:#263238"></path><path d="M157.18,204.41l-1-.23c.1-.44,10.59-44.18,26.59-62.88l.76.65C167.72,160.47,157.28,204,157.18,204.41Z" style="fill:#263238"></path><path d="M132.71,190.86a98.19,98.19,0,0,1-15.08-1.45,244,244,0,0,0-30.21-2.75c-4.79-.18-6.19-.26-6.64-.69l.7-.72a39.3,39.3,0,0,0,6,.41,244.62,244.62,0,0,1,30.33,2.76c19.69,3.15,22.58.13,22.61.1l.8.59C141,189.36,139.66,190.86,132.71,190.86Z" style="fill:#263238"></path><path d="M126,216.3l-.13-1A60.19,60.19,0,0,0,132,214.1,70.72,70.72,0,0,1,147.63,212c11.71-.42,16,2.47,16.22,2.59l-.57.82S159,212.56,147.67,213a70.92,70.92,0,0,0-15.48,2.11A59.78,59.78,0,0,1,126,216.3Z" style="fill:#263238"></path><path d="M195.16,281.39s-4.93.51-8.14-1.11-4.41-1.56-4.68-.13,3,8.5-6.29,1.59-11.3-3.34-10.12-.09,2,8.54-7.55-2-12.87-23.51-24-26.3-10.18,8.13-6.42,13.74l3,3.59c4.12,4.32,9.3,8.47,7.65,12.21-2.09,4.77-4,5.38-11.55-10.32s-3.94-25.89-18.49-34.37-14.65,4.64-11.49,17,18.49,26.75,11.5,25.38-8-11.69-18.91-22.55-20.55-16.72-21.47-3.62,17.38,20.36,8,23.61-28.1-18.75-26-9.24,8.7,11.93,2.26,13.76-16.3,3.63-15.8,10c.43,5.38,11.18,9.45,21.85,12.13l3.45.82c.72.17,1.43.32,2.14.47,12.12,2.57-8.71,13.47-7.83,19.72s.77,10,13.26,3.1S98.84,309.51,93,316.47,72.33,327.93,72,334.06s5.15,10.58,18.49,4.67,17.69-8.83,25.26-17.74,1.2,1.89.35,6.56,9.65,4.23,17.72-4.37,15.11-19.75,14-13.63,3.59,16.78,8.91,3.49a31.18,31.18,0,0,1,6.4-9.72l2.67-2.56c6.17-5.4,12.7-7.84,12.66-5.86-.06,3.14-2.89,14.13,5.27,1.76s6.37-3.77,13-10.53S195.16,281.39,195.16,281.39Z" style="opacity:0.30000000000000004"></path><path d="M131.78,268.43c3.89,4.67,8.83,9.22,7,13-2.35,4.81-4.25,5.35-11-11.25s-2.56-26.93-16.64-36.43-14.87,4-12.38,17,17,28.57,10.13,26.79-7.4-12.48-17.68-24.26S71.58,235,70,248.43s16.27,21.91,6.78,24.78-27.07-20.79-25.51-10.87,8,12.76,1.53,14.32-16.47,2.91-16.31,9.48c.14,5.58,10.67,10.33,21.17,13.65l3.41,1c.71.21,1.41.4,2.11.59,12,3.28-9.41,13.46-8.86,20s.23,10.36,13.08,3.88,30.33-18.35,24.15-11.47-21.28,10.77-22,17.08,4.58,11.19,18.21,5.78,18.14-8.21,26.17-17,1.1,2,0,6.8,9.42,4.86,17.93-3.61,16.15-19.61,14.65-13.35,2.7,17.51,8.72,4.06a32.15,32.15,0,0,1,6.91-9.7l2.8-2.51c6.45-5.26,13.1-7.44,13-5.4-.23,3.24-3.64,14.44,5.16,2.09s6.57-3.56,13.59-10.2-1.28-5-1.28-5-4.95.27-8.07-1.57-4.32-1.84-4.67-.38,2.59,8.94-6.36,1.33-11.1-4-10.1-.61,1.58,8.91-7.43-2.49-11.61-24.93-22.62-28.38-10.6,7.88-7.14,13.86Z" style="fill:#A6D34D"></path><path d="M49.27,287.61a32.26,32.26,0,0,1-3.73-.83l.29-.95a34.49,34.49,0,0,0,3.59.79Z" style="fill:#263238"></path><path d="M113.91,295.9c-7.9,0-14.86-.68-20.79-2.34-12.76-3.57-29.79-5-38.8-5.57l.06-1c9,.55,26.16,2,39,5.61,15.56,4.35,38.48,1.85,66.84-1.88,26.37-3.47,34.58-4.52,34.58-4.52l.12,1s-8.21,1.05-34.58,4.52C142.61,294,127,295.9,113.91,295.9Z" style="fill:#263238"></path><path d="M80.67,257.08c-3.1-4.92-4.28-7-4.3-7l.87-.49s1.19,2.08,4.28,7Z" style="fill:#263238"></path><path d="M112.79,296.14C112.64,296,97.3,282.66,88.33,269c-2.3-3.51-4.2-6.45-5.76-8.89l.85-.54c1.55,2.44,3.45,5.38,5.74,8.88,8.89,13.57,24.14,26.83,24.29,27Z" style="fill:#263238"></path><path d="M66.25,317.49l-.64-.77c.06-.05,6.6-5.44,17.93-13s16.88-9.2,17.11-9.26l.27,1s-5.6,1.66-16.82,9.13S66.31,317.44,66.25,317.49Z" style="fill:#263238"></path><path d="M87,328.66l-.32-1c3.13-1,7.78-5.37,11.49-9l.7.71C94.89,323.36,90.34,327.56,87,328.66Z" style="fill:#263238"></path><path d="M100.59,317.74l-.71-.71,3.54-3.6c1.52-1.54,3-3.09,4.53-4.58A122.49,122.49,0,0,1,125.18,295l.54.84a122.35,122.35,0,0,0-17.06,13.76c-1.49,1.48-3,3-4.52,4.57Z" style="fill:#263238"></path><path d="M134.21,294.81c-.33-.19-8.25-5-14.65-18.64s-13.82-37.55-13.9-37.79l1-.3c.07.24,7.52,24.19,13.84,37.66s14.18,18.17,14.26,18.21Z" style="fill:#263238"></path><path d="M157.36,291.79c-.19-.21-18.46-21.4-22.09-36.29l1-.24c3.57,14.66,21.68,35.67,21.86,35.88Z" style="fill:#263238"></path><path d="M121,323.26l-.18-1c.19-.13,1.2-1.43,2.26-2.8a153.11,153.11,0,0,1,12.41-14.3c8.55-8.6,8.21-11.17,8.2-11.19l1-.28c.16.45.48,3.2-8.45,12.18a151.73,151.73,0,0,0-12.33,14.21C121.92,322.59,121.44,323.18,121,323.26Z" style="fill:#263238"></path><path d="M152.82,311.37l-.88-.47a36.6,36.6,0,0,0,1.59-3.49,45,45,0,0,1,4.62-8.7c4.08-6.11,7.16-7.26,7.29-7.31l.33.94-.17-.47.17.47s-2.93,1.14-6.79,6.92a43.75,43.75,0,0,0-4.53,8.54A36.77,36.77,0,0,1,152.82,311.37Z" style="fill:#263238"></path></g><g id="freepik--acorns-2--inject-1"><ellipse cx="293.28" cy="223.83" rx="145.51" ry="114.79" style="opacity:0.30000000000000004"></ellipse><ellipse cx="309.69" cy="177.18" rx="130.63" ry="107.73" style="fill:#383838"></ellipse><path d="M309.69,285.41c-72.31,0-131.13-48.55-131.13-108.23S237.38,69,309.69,69,440.82,117.5,440.82,177.18,382,285.41,309.69,285.41Zm0-215.46c-71.75,0-130.13,48.11-130.13,107.23s58.38,107.23,130.13,107.23,130.13-48.1,130.13-107.23S381.44,70,309.69,70Z" style="fill:#263238"></path><path d="M338.14,193s-7.74,15.69-2.48,31.77,14.82,15.08,14.82,15.08.71,4.72,3.55,3.58l2.84-1.13s12.06.17,20.17-6.71,11.1-14.73,13-21.44A103,103,0,0,0,392.77,198S363.11,173.14,338.14,193Z" style="fill:#A6D34D"></path><path d="M353.18,244.15a2.2,2.2,0,0,1-1.11-.3c-1.26-.72-1.81-2.59-2-3.45-2,0-10.15-1-14.88-15.44-5.27-16.08,2.43-32,2.51-32.14l.13-.17c25-19.93,55,4.66,55.26,4.91l.2.17,0,.26a103.74,103.74,0,0,1-2.73,16.34c-2,6.87-5.08,14.81-13.17,21.68-7.86,6.66-19.17,6.82-20.41,6.83l-2.75,1.1A2.79,2.79,0,0,1,353.18,244.15Zm-2.28-4.8.07.46c.11.69.6,2.61,1.6,3.18a1.38,1.38,0,0,0,1.27,0l2.93-1.18h.1c.12,0,12,.08,19.85-6.6s10.83-14.12,12.86-21.19a100.53,100.53,0,0,0,2.67-15.88c-2.64-2.09-30.43-23.26-53.71-4.81-.63,1.35-7.32,16.26-2.4,31.29,5.06,15.45,14.2,14.75,14.29,14.74Z" style="fill:#263238"></path><g style="opacity:0.63"><path d="M338.14,193s-7.74,15.69-2.48,31.77,14.82,15.08,14.82,15.08.71,4.72,3.55,3.58l2.84-1.13s12.06.17,20.17-6.71,11.1-14.73,13-21.44A103,103,0,0,0,392.77,198S363.11,173.14,338.14,193Z" style="fill:#383838"></path><path d="M353.18,244.15a2.2,2.2,0,0,1-1.11-.3c-1.26-.72-1.81-2.59-2-3.45-2,0-10.15-1-14.88-15.44-5.27-16.08,2.43-32,2.51-32.14l.13-.17c25-19.93,55,4.66,55.26,4.91l.2.17,0,.26a103.74,103.74,0,0,1-2.73,16.34c-2,6.87-5.08,14.81-13.17,21.68-7.86,6.66-19.17,6.82-20.41,6.83l-2.75,1.1A2.79,2.79,0,0,1,353.18,244.15Zm-2.28-4.8.07.46c.11.69.6,2.61,1.6,3.18a1.38,1.38,0,0,0,1.27,0l2.93-1.18h.1c.12,0,12,.08,19.85-6.6s10.83-14.12,12.86-21.19a100.53,100.53,0,0,0,2.67-15.88c-2.64-2.09-30.43-23.26-53.71-4.81-.63,1.35-7.32,16.26-2.4,31.29,5.06,15.45,14.2,14.75,14.29,14.74Z" style="fill:#263238"></path></g><path d="M392.77,198s-5.95-6.12-22.19-8.83-20.13-2.21-25.17-1a12.27,12.27,0,0,0-7.27,4.89s1.63-9.75,7.54-16.54,25.85-9,25.85-9,4.89-11,6.76-8.78-.45,7.24,0,8.92,8.44,9.06,11.25,13.28S395.42,192.4,392.77,198Z" style="fill:#8f8f8f"></path><path d="M392.91,198.81l-.5-.51c-.06-.06-6.06-6-21.91-8.69-16.4-2.73-20.17-2.15-25-1a11.86,11.86,0,0,0-7,4.67l-1.34,2.19.42-2.53c.07-.41,1.72-10,7.65-16.78,5.66-6.49,23.33-8.82,25.89-9.13.89-2,4.12-8.77,6.33-9.09a1.26,1.26,0,0,1,1.16.46c1.35,1.59.8,4.31.36,6.49a8.48,8.48,0,0,0-.31,2.63c.18.72,2.56,3.27,4.67,5.53a74,74,0,0,1,6.52,7.59c3.29,4.92,5.88,12.11,3.3,17.5Zm-39.82-12.16c3.69,0,8.88.53,17.57,2,13.73,2.29,20.13,6.94,21.93,8.48,1.92-5-.5-11.39-3.5-15.9a74.59,74.59,0,0,0-6.42-7.46c-3-3.19-4.68-5-4.91-6a8.58,8.58,0,0,1,.3-3.07c.4-2,.89-4.42-.15-5.65-.1-.12-.17-.12-.24-.11-1.31.19-4.11,5.24-5.68,8.77l-.12.26-.28,0c-.2,0-19.82,2.26-25.53,8.82-4.16,4.77-6.18,11.11-7,14.29a13.18,13.18,0,0,1,6.21-3.46A29.57,29.57,0,0,1,353.09,186.65Z" style="fill:#263238"></path><path d="M344.42,220.82c-1.49-15.19,6.64-31.14,6.72-31.3l.89.46c-.08.16-8.07,15.85-6.61,30.74Z" style="fill:#263238"></path><path d="M350.22,235.27a35.88,35.88,0,0,1-5.59-9.94l.95-.31a35.68,35.68,0,0,0,5.42,9.63Z" style="fill:#263238"></path><path d="M387,199.8s.25,12-4.74,22.53" style="fill:#A6D34D"></path><path d="M382.71,222.55l-.91-.43c4.88-10.34,4.69-22.19,4.69-22.31l1,0C387.49,199.91,387.68,212,382.71,222.55Z" style="fill:#263238"></path><path d="M360.88,236l-.62-.78c4.61-3.66,4.82-13.65,4.82-13.75l1,0C366.07,222,365.86,232.08,360.88,236Z" style="fill:#263238"></path><path d="M328,183.65s-3,4.18-19,2.57-23.5-16.69-24.81-22.64,6.87-17,15.7-21.22,20.18-2.44,20.18-2.44S345.83,144.72,328,183.65Z" style="fill:#A6D34D"></path><path d="M315.75,187.09a65.67,65.67,0,0,1-6.8-.38c-15.6-1.57-23.75-16.19-25.25-23-1.35-6.18,6.85-17.37,16-21.77,8.87-4.28,20-2.56,20.48-2.49a18.62,18.62,0,0,1,12.2,9.51c4.26,8.21,2.93,20-3.94,34.93l0,.08C328.26,184.09,326,187.09,315.75,187.09ZM314.23,140c-4,0-9.46.52-14.13,2.77-8.6,4.15-16.67,15-15.42,20.66,1.45,6.6,9.31,20.73,24.37,22.25,14.61,1.48,18.16-2,18.48-2.34,6.71-14.63,8-26.06,3.94-34a17.84,17.84,0,0,0-11.49-9A40.43,40.43,0,0,0,314.23,140Z" style="fill:#263238"></path><g style="opacity:0.63"><path d="M328,183.65s-3,4.18-19,2.57-23.5-16.69-24.81-22.64,6.87-17,15.7-21.22,20.18-2.44,20.18-2.44S345.83,144.72,328,183.65Z" style="fill:#383838"></path><path d="M315.75,187.09a65.67,65.67,0,0,1-6.8-.38c-15.6-1.57-23.75-16.19-25.25-23-1.35-6.18,6.85-17.37,16-21.77,8.87-4.28,20-2.56,20.48-2.49a18.62,18.62,0,0,1,12.2,9.51c4.26,8.21,2.93,20-3.94,34.93l0,.08C328.26,184.09,326,187.09,315.75,187.09ZM314.23,140c-4,0-9.46.52-14.13,2.77-8.6,4.15-16.67,15-15.42,20.66,1.45,6.6,9.31,20.73,24.37,22.25,14.61,1.48,18.16-2,18.48-2.34,6.71-14.63,8-26.06,3.94-34a17.84,17.84,0,0,0-11.49-9A40.43,40.43,0,0,0,314.23,140Z" style="fill:#263238"></path></g><path d="M320.07,139.92A25.48,25.48,0,0,1,331.5,160c.87,14-3.54,23.68-3.54,23.68s8-2.72,10.78-6.64,5.67-11.73,5.67-11.73a26.93,26.93,0,0,1,23.58-.1c12.75,6.06,20.75,10.88,20.73,8.21s-18-9.93-22.77-11.66-16-2.09-18-2.87a8.71,8.71,0,0,1-3.44-2.83S336,146.4,331,142.26A12.6,12.6,0,0,0,320.07,139.92Z" style="fill:#8f8f8f"></path><path d="M327,184.5l.48-1.06c.05-.09,4.35-9.73,3.5-23.44a25.21,25.21,0,0,0-11.17-19.65l-1-.57,1.11-.34a13,13,0,0,1,11.39,2.44c5,4.11,13.46,13.73,13.55,13.82a8.23,8.23,0,0,0,3.24,2.69,38.93,38.93,0,0,0,5.81.83c4.14.45,9.3,1,12.2,2,.24.09,23.08,8.54,23.1,12.12a1.13,1.13,0,0,1-.52,1.05c-1.31.82-4.61-.76-12.61-4.73-2.46-1.22-5.25-2.61-8.31-4.07a26.72,26.72,0,0,0-23,0c-.46,1.22-3.08,8-5.67,11.67-2.84,4-10.7,6.71-11,6.82Zm-5.67-44.33A26.48,26.48,0,0,1,332,159.93a57.19,57.19,0,0,1-3.15,22.86c2.23-.88,7.42-3.16,9.49-6.07,2.71-3.81,5.58-11.54,5.61-11.61l.06-.18.16-.09a27.7,27.7,0,0,1,24-.11c3.06,1.46,5.86,2.85,8.33,4.07,5.77,2.87,10.75,5.34,11.63,4.79,0,0,.05,0,.05-.2,0-1.93-14.53-8.34-22.43-11.19-2.8-1-7.89-1.55-12-2a37.79,37.79,0,0,1-6.06-.89,9.14,9.14,0,0,1-3.67-3c-.05,0-8.47-9.61-13.4-13.67A12,12,0,0,0,321.35,140.17Z" style="fill:#263238"></path><path d="M218.52,129.85s-6.13,12.42-2,25.14,11.73,11.94,11.73,11.94.56,3.74,2.8,2.84l2.25-.91s9.55.14,16-5.31,8.78-11.65,10.3-17a81.17,81.17,0,0,0,2.14-12.85S238.27,114.1,218.52,129.85Z" style="fill:#A6D34D"></path><path d="M230.42,170.4a1.93,1.93,0,0,1-.94-.24,4.34,4.34,0,0,1-1.61-2.72c-1.77,0-8.09-1-11.79-12.29-4.18-12.77,1.92-25.39,2-25.52l.13-.17c19.85-15.82,43.63,3.7,43.86,3.89l.2.17,0,.26a81.32,81.32,0,0,1-2.16,12.95c-1.56,5.45-4,11.75-10.46,17.21-6.2,5.25-15.07,5.42-16.19,5.42h0l-2.16.87A2.22,2.22,0,0,1,230.42,170.4Zm-1.72-4,.07.46c.08.53.46,2,1.21,2.44a1,1,0,0,0,.92,0l2.34-.94h.1c.09,0,9.43.07,15.63-5.19s8.55-11.14,10.15-16.72a78.7,78.7,0,0,0,2.1-12.49c-2.32-1.83-24.07-18.21-42.3-3.79-.56,1.19-5.75,12.88-1.89,24.67,4,12.14,10.9,11.62,11.2,11.59Z" style="fill:#263238"></path><path d="M261.74,133.74s-4.7-4.84-17.56-7S228.25,125,224.26,126a9.67,9.67,0,0,0-5.74,3.87s1.28-7.71,6-13.08,20.46-7.11,20.46-7.11,3.86-8.7,5.35-7-.36,5.73,0,7.06,6.69,7.17,8.91,10.51S263.84,129.35,261.74,133.74Z" style="fill:#8f8f8f"></path><path d="M261.89,134.6l-.5-.51c-.05-.05-4.79-4.76-17.29-6.84-12.95-2.17-15.93-1.71-19.72-.78a9.37,9.37,0,0,0-5.44,3.64l-1.34,2.19.42-2.53c.06-.32,1.37-7.92,6.08-13.33,4.46-5.12,18.27-7,20.5-7.25.87-1.92,3.3-7,5.06-7.2a1.08,1.08,0,0,1,1,.4c1.1,1.3.66,3.47.31,5.22a7,7,0,0,0-.24,2c.13.54,2,2.55,3.66,4.33a57.86,57.86,0,0,1,5.18,6c2.61,3.92,4.67,9.65,2.61,13.95Zm-31.55-9.91a89.18,89.18,0,0,1,13.92,1.57c10.61,1.77,15.72,5.33,17.29,6.64,1.42-3.86-.47-8.85-2.81-12.35a57.11,57.11,0,0,0-5.07-5.89c-2.37-2.54-3.72-4-3.9-4.77a6.61,6.61,0,0,1,.23-2.48c.31-1.53.7-3.44-.09-4.37,0-.06-.07-.06-.1-.06-.9.13-3,3.67-4.41,6.88l-.12.26-.29,0c-.15,0-15.64,1.79-20.13,6.95A28.23,28.23,0,0,0,219.45,128a10.43,10.43,0,0,1,4.7-2.51A23.13,23.13,0,0,1,230.34,124.69Z" style="fill:#263238"></path><path d="M223.38,151.84c-1.18-12.05,5.27-24.69,5.33-24.82l.89.46c-.06.13-6.38,12.52-5.23,24.27Z" style="fill:#263238"></path><path d="M228,163.34a28.53,28.53,0,0,1-4.44-7.9l.95-.32a28.17,28.17,0,0,0,4.27,7.6Z" style="fill:#263238"></path><path d="M257.17,135.21A45,45,0,0,1,253.42,153" style="fill:#A6D34D"></path><path d="M253.87,153.25l-.9-.43c3.85-8.15,3.7-17.51,3.7-17.6l1,0C257.67,135.29,257.83,144.88,253.87,153.25Z" style="fill:#263238"></path><path d="M236.58,164l-.63-.78c3.61-2.87,3.78-10.73,3.78-10.81l1,0C240.72,152.73,240.55,160.8,236.58,164Z" style="fill:#263238"></path><path d="M253.1,200.08s-7.74,15.69-2.48,31.77,14.82,15.08,14.82,15.08.71,4.72,3.55,3.58l2.83-1.14s12.07.17,20.18-6.71,11.1-14.73,13-21.43A103.1,103.1,0,0,0,307.73,205S278.07,180.17,253.1,200.08Z" style="fill:#A6D34D"></path><path d="M268.14,251.19a2.2,2.2,0,0,1-1.11-.3c-1.26-.72-1.81-2.59-2-3.45-2,0-10.15-1-14.88-15.44-5.27-16.08,2.43-32,2.51-32.15l.13-.17c25-19.92,55,4.67,55.26,4.92l.2.17,0,.26a103.92,103.92,0,0,1-2.73,16.34c-2,6.86-5.08,14.81-13.17,21.68-7.8,6.61-19,6.82-20.38,6.83h0L269.17,251A2.79,2.79,0,0,1,268.14,251.19Zm-2.28-4.81.07.47c.11.69.6,2.6,1.6,3.17a1.38,1.38,0,0,0,1.27,0l2.93-1.18h.1c.13,0,12,.09,19.85-6.59s10.83-14.13,12.86-21.19a100.53,100.53,0,0,0,2.67-15.88c-2.64-2.1-30.43-23.26-53.71-4.82-.63,1.36-7.32,16.26-2.4,31.3,5.06,15.45,14.2,14.75,14.29,14.74Z" style="fill:#263238"></path><g style="opacity:0.63"><path d="M253.1,200.08s-7.74,15.69-2.48,31.77,14.82,15.08,14.82,15.08.71,4.72,3.55,3.58l2.83-1.14s12.07.17,20.18-6.71,11.1-14.73,13-21.43A103.1,103.1,0,0,0,307.73,205S278.07,180.17,253.1,200.08Z" style="fill:#383838"></path><path d="M268.14,251.19a2.2,2.2,0,0,1-1.11-.3c-1.26-.72-1.81-2.59-2-3.45-2,0-10.15-1-14.88-15.44-5.27-16.08,2.43-32,2.51-32.15l.13-.17c25-19.92,55,4.67,55.26,4.92l.2.17,0,.26a103.92,103.92,0,0,1-2.73,16.34c-2,6.86-5.08,14.81-13.17,21.68-7.8,6.61-19,6.82-20.38,6.83h0L269.17,251A2.79,2.79,0,0,1,268.14,251.19Zm-2.28-4.81.07.47c.11.69.6,2.6,1.6,3.17a1.38,1.38,0,0,0,1.27,0l2.93-1.18h.1c.13,0,12,.09,19.85-6.59s10.83-14.13,12.86-21.19a100.53,100.53,0,0,0,2.67-15.88c-2.64-2.1-30.43-23.26-53.71-4.82-.63,1.36-7.32,16.26-2.4,31.3,5.06,15.45,14.2,14.75,14.29,14.74Z" style="fill:#263238"></path></g><path d="M307.73,205s-6-6.11-22.19-8.82-20.13-2.21-25.17-1a12.31,12.31,0,0,0-7.27,4.9s1.63-9.75,7.54-16.54,25.85-9,25.85-9,4.89-11,6.76-8.77-.45,7.24,0,8.92,8.44,9.06,11.25,13.27S310.38,199.44,307.73,205Z" style="fill:#8f8f8f"></path><path d="M307.87,205.85l-.5-.52c-.06-.06-6.06-6-21.91-8.68-16.4-2.73-20.17-2.15-25-1a11.81,11.81,0,0,0-7,4.67l-1.34,2.19.42-2.54c.07-.4,1.72-10,7.65-16.78,5.66-6.49,23.33-8.81,25.89-9.12.89-2,4.12-8.77,6.33-9.09a1.21,1.21,0,0,1,1.16.46c1.35,1.59.8,4.3.36,6.48a8.57,8.57,0,0,0-.31,2.64c.18.72,2.56,3.27,4.67,5.53a73,73,0,0,1,6.52,7.59c3.29,4.92,5.88,12.11,3.3,17.5Zm-39.82-12.16c3.69,0,8.88.53,17.57,2,13.73,2.29,20.13,6.94,21.93,8.47,1.92-4.94-.5-11.38-3.5-15.89a72.23,72.23,0,0,0-6.42-7.46c-3-3.19-4.68-5-4.91-6a8.54,8.54,0,0,1,.3-3.06c.4-2,.89-4.42-.15-5.65a.24.24,0,0,0-.25-.11c-1.3.19-4.1,5.24-5.67,8.77l-.12.26-.28,0c-.2,0-19.82,2.26-25.53,8.82-4.16,4.77-6.18,11.11-7,14.29a13.18,13.18,0,0,1,6.21-3.46A29.57,29.57,0,0,1,268.05,193.69Z" style="fill:#263238"></path><path d="M259.38,227.85c-1.49-15.19,6.64-31.13,6.72-31.29l.89.46c-.08.16-8.07,15.85-6.61,30.74Z" style="fill:#263238"></path><path d="M265.18,242.31a35.88,35.88,0,0,1-5.59-9.94l1-.32a35.5,35.5,0,0,0,5.42,9.64Z" style="fill:#263238"></path><path d="M302,206.84s.25,12-4.74,22.53" style="fill:#A6D34D"></path><path d="M297.67,229.58l-.91-.42c4.88-10.34,4.69-22.19,4.69-22.31l1,0C302.45,207,302.64,219,297.67,229.58Z" style="fill:#263238"></path><path d="M275.84,243.07l-.62-.78c4.61-3.67,4.82-13.65,4.82-13.75h1C281,229,280.82,239.11,275.84,243.07Z" style="fill:#263238"></path><path d="M383.3,183.07s-7.74,15.69-2.48,31.77,14.82,15.08,14.82,15.08.71,4.72,3.55,3.58l2.83-1.13s12.07.17,20.18-6.71,11.09-14.74,13-21.44A103,103,0,0,0,437.93,188S408.27,163.17,383.3,183.07Z" style="fill:#A6D34D"></path><path d="M398.34,234.18a2.2,2.2,0,0,1-1.11-.3c-1.26-.72-1.81-2.59-2-3.45-2,0-10.15-1-14.88-15.44-5.27-16.08,2.43-32,2.5-32.14l.14-.17c25-19.93,55,4.66,55.26,4.91l.2.17,0,.26a103.74,103.74,0,0,1-2.73,16.34c-2,6.87-5.08,14.81-13.18,21.68-7.79,6.61-18.95,6.83-20.37,6.83h0l-2.75,1.1A2.83,2.83,0,0,1,398.34,234.18Zm-2.28-4.8.07.46c.11.69.6,2.61,1.6,3.18a1.41,1.41,0,0,0,1.27,0l2.93-1.18h.1c.12,0,12,.08,19.85-6.6s10.83-14.12,12.86-21.19a101.75,101.75,0,0,0,2.67-15.88c-2.64-2.09-30.42-23.26-53.71-4.81-.63,1.35-7.32,16.26-2.4,31.29,5.06,15.45,14.2,14.75,14.29,14.74Z" style="fill:#263238"></path><path d="M437.93,188s-5.95-6.12-22.19-8.83-20.13-2.21-25.17-1a12.27,12.27,0,0,0-7.27,4.89s1.63-9.75,7.54-16.54,25.85-9,25.85-9,4.89-11,6.76-8.78-.45,7.24,0,8.92,8.44,9.06,11.25,13.28S440.58,182.43,437.93,188Z" style="fill:#8f8f8f"></path><path d="M438.07,188.84l-.5-.51c-.06-.06-6.06-6-21.91-8.69-16.4-2.73-20.17-2.15-25-1a11.86,11.86,0,0,0-7,4.67l-1.34,2.19.42-2.53c.07-.41,1.72-10,7.65-16.78,5.66-6.49,23.33-8.82,25.89-9.13.89-2,4.12-8.77,6.33-9.09a1.21,1.21,0,0,1,1.16.46c1.35,1.59.8,4.31.36,6.49a8.48,8.48,0,0,0-.31,2.63c.18.72,2.56,3.27,4.67,5.53a73,73,0,0,1,6.52,7.59c3.29,4.92,5.88,12.11,3.3,17.5Zm-39.82-12.16c3.69,0,8.88.53,17.57,2,13.72,2.29,20.13,6.94,21.93,8.48,1.92-4.95-.5-11.39-3.5-15.9a73.49,73.49,0,0,0-6.42-7.46c-3-3.19-4.68-5.05-4.91-6a8.35,8.35,0,0,1,.3-3.07c.4-2,.89-4.42-.15-5.65a.24.24,0,0,0-.25-.11c-1.3.19-4.1,5.24-5.67,8.77L417,158l-.28,0c-.2,0-19.82,2.26-25.53,8.82-4.16,4.77-6.18,11.11-7,14.29a13.18,13.18,0,0,1,6.21-3.46A29.57,29.57,0,0,1,398.25,176.68Z" style="fill:#263238"></path><path d="M389.58,210.85c-1.49-15.19,6.64-31.14,6.72-31.3l.89.46c-.08.16-8.08,15.85-6.61,30.74Z" style="fill:#263238"></path><path d="M395.38,225.3a35.88,35.88,0,0,1-5.59-9.94l.95-.31a35.68,35.68,0,0,0,5.42,9.63Z" style="fill:#263238"></path><path d="M432.15,189.83s.25,12-4.74,22.53" style="fill:#A6D34D"></path><path d="M427.87,212.58l-.91-.43c4.88-10.34,4.69-22.19,4.69-22.31l1,0C432.65,189.94,432.84,202,427.87,212.58Z" style="fill:#263238"></path><path d="M406,226.06l-.62-.78c4.6-3.66,4.82-13.65,4.82-13.75l1,0C411.23,212,411,222.11,406,226.06Z" style="fill:#263238"></path><path d="M278.91,220.6s-7.74,15.7-2.48,31.77,14.81,15.08,14.81,15.08.71,4.73,3.55,3.59l2.84-1.14s12.06.17,20.18-6.71,11.09-14.73,13-21.43a102,102,0,0,0,2.71-16.25S303.88,200.7,278.91,220.6Z" style="fill:#A6D34D"></path><path d="M294,271.72a2.21,2.21,0,0,1-1.12-.3c-1.25-.72-1.8-2.59-2-3.45-2,0-10.14-1-14.88-15.44-5.26-16.09,2.43-32,2.51-32.15l.14-.17c25-19.92,55,4.67,55.26,4.92l.19.16,0,.26a103,103,0,0,1-2.72,16.34c-2,6.87-5.08,14.82-13.18,21.68-7.86,6.67-19.15,6.82-20.41,6.83L295,271.5A2.65,2.65,0,0,1,294,271.72Zm-2.28-4.81.07.47c.1.69.59,2.6,1.59,3.17a1.43,1.43,0,0,0,1.28,0l2.93-1.18h.1c.12,0,12,.08,19.84-6.59s10.84-14.13,12.86-21.19A99.41,99.41,0,0,0,333,225.73c-2.63-2.09-30.42-23.25-53.7-4.81-.63,1.35-7.33,16.26-2.4,31.3C282,267.68,291.09,267,291.19,267Z" style="fill:#263238"></path><path d="M333.53,225.51s-5.94-6.11-22.19-8.82-20.13-2.21-25.17-1a12.22,12.22,0,0,0-7.26,4.89s1.62-9.74,7.54-16.53,25.85-9,25.85-9,4.88-11,6.76-8.77-.46,7.23-.05,8.91,8.45,9.07,11.26,13.28S336.19,220,333.53,225.51Z" style="fill:#8f8f8f"></path><path d="M333.68,226.37l-.5-.51c-.06-.06-6.06-6-21.92-8.68-16.39-2.74-20.17-2.16-25-1a11.86,11.86,0,0,0-7,4.66l-1.35,2.2.43-2.54c.06-.4,1.71-10,7.65-16.78,5.65-6.49,23.32-8.82,25.89-9.12.88-2,4.12-8.78,6.33-9.09a1.22,1.22,0,0,1,1.15.45c1.35,1.6.81,4.31.37,6.49a8.21,8.21,0,0,0-.31,2.63c.17.72,2.56,3.28,4.66,5.53a74,74,0,0,1,6.53,7.59c3.28,4.93,5.88,12.12,3.3,17.51Zm-39.82-12.15c3.68,0,8.88.52,17.57,2,13.72,2.29,20.13,6.95,21.92,8.48,1.93-4.94-.49-11.39-3.5-15.89a72.24,72.24,0,0,0-6.42-7.47c-3-3.19-4.68-5-4.9-6a8.16,8.16,0,0,1,.3-3.07c.39-2,.89-4.41-.15-5.64-.11-.12-.18-.13-.25-.11-1.31.18-4.11,5.24-5.67,8.76l-.12.27-.29,0c-.19,0-19.81,2.26-25.53,8.82-4.15,4.77-6.17,11.11-7,14.29a13.06,13.06,0,0,1,6.2-3.46A29.24,29.24,0,0,1,293.86,214.22Z" style="fill:#263238"></path><path d="M285.18,248.38c-1.48-15.19,6.65-31.13,6.73-31.29l.89.46c-.08.15-8.08,15.84-6.62,30.73Z" style="fill:#263238"></path><path d="M291,262.84a36.35,36.35,0,0,1-5.59-9.94l.95-.32a35.9,35.9,0,0,0,5.43,9.63Z" style="fill:#263238"></path><path d="M327.76,227.37s.25,12-4.74,22.53" style="fill:#A6D34D"></path><path d="M323.47,250.11l-.9-.43c4.87-10.33,4.69-22.18,4.69-22.3l1,0C328.26,227.48,328.45,239.56,323.47,250.11Z" style="fill:#263238"></path><path d="M301.65,263.6l-.62-.78c4.6-3.67,4.81-13.65,4.81-13.76l1,0C306.84,249.51,306.62,259.64,301.65,263.6Z" style="fill:#263238"></path><path d="M189.48,194.13s3.17,17.21,17,27,20.89,3.23,20.89,3.23,3.39,3.37,5,.76l1.6-2.61s9.77-7.08,12.16-17.44.09-18.44-2.38-25a102.16,102.16,0,0,0-7.54-14.64S197.59,163.25,189.48,194.13Z" style="fill:#A6D34D"></path><path d="M220.52,227c-3.5,0-8.28-1.22-14.32-5.48C192.36,211.75,189,194.4,189,194.23l0-.11,0-.11c8.13-30.92,46.85-29.12,47.24-29.1l.26,0,.13.22a102.81,102.81,0,0,1,7.59,14.73c2.52,6.68,4.78,14.91,2.4,25.25-2.32,10-11.25,16.91-12.28,17.67l-1.54,2.53a2.37,2.37,0,0,1-1.77,1.21c-1.44.17-3-1-3.66-1.57A11.43,11.43,0,0,1,220.52,227ZM190,194.15c.3,1.46,3.85,17.41,16.78,26.52C220.07,230,227,224,227,224l.35-.32.34.33c.49.49,2,1.73,3.17,1.59a1.41,1.41,0,0,0,1-.74l1.73-2.76c.09-.07,9.64-7.09,12-17.15s.24-17.8-2.36-24.67a101.22,101.22,0,0,0-7.35-14.33C232.55,165.8,197.62,165.45,190,194.15Z" style="fill:#263238"></path><g style="opacity:0.63"><path d="M189.48,194.13s3.17,17.21,17,27,20.89,3.23,20.89,3.23,3.39,3.37,5,.76l1.6-2.61s9.77-7.08,12.16-17.44.09-18.44-2.38-25a102.16,102.16,0,0,0-7.54-14.64S197.59,163.25,189.48,194.13Z" style="fill:#383838"></path><path d="M220.52,227c-3.5,0-8.28-1.22-14.32-5.48C192.36,211.75,189,194.4,189,194.23l0-.11,0-.11c8.13-30.92,46.85-29.12,47.24-29.1l.26,0,.13.22a102.81,102.81,0,0,1,7.59,14.73c2.52,6.68,4.78,14.91,2.4,25.25-2.32,10-11.25,16.91-12.28,17.67l-1.54,2.53a2.37,2.37,0,0,1-1.77,1.21c-1.44.17-3-1-3.66-1.57A11.43,11.43,0,0,1,220.52,227ZM190,194.15c.3,1.46,3.85,17.41,16.78,26.52C220.07,230,227,224,227,224l.35-.32.34.33c.49.49,2,1.73,3.17,1.59a1.41,1.41,0,0,0,1-.74l1.73-2.76c.09-.07,9.64-7.09,12-17.15s.24-17.8-2.36-24.67a101.22,101.22,0,0,0-7.35-14.33C232.55,165.8,197.62,165.45,190,194.15Z" style="fill:#263238"></path></g><path d="M236.2,165.41s-8.42-1.35-23.06,6.19-17.46,10.27-20.76,14.27a12.21,12.21,0,0,0-2.9,8.26s-4.53-8.78-3.85-17.75S201,153.71,201,153.71s-2.66-11.72.17-11.07,4,6.07,5.29,7.17,12.19,2.22,17,3.92S235,159.38,236.2,165.41Z" style="fill:#8f8f8f"></path><path d="M190.22,196.67,189,194.36c-.18-.36-4.58-9-3.89-18,.65-8.58,13.42-21,15.3-22.8-.47-2.09-1.95-9.49-.37-11.07a1.22,1.22,0,0,1,1.2-.32c2,.47,3.22,3,4.17,5a8.46,8.46,0,0,0,1.33,2.3c.57.47,4,1.09,7,1.64a73,73,0,0,1,9.77,2.18c5.58,2,11.95,6.2,13.11,12.06l.14.7-.71-.11c-.08,0-8.47-1.21-22.76,6.15-14.77,7.61-17.45,10.33-20.6,14.14a11.79,11.79,0,0,0-2.78,7.9Zm10.72-53.56a.2.2,0,0,0-.16.07c-.94.93-.16,6.66.69,10.42l.07.28-.21.2c-.15.13-14.54,13.66-15.2,22.33-.48,6.31,1.7,12.6,3,15.63a13.28,13.28,0,0,1,2.91-6.49c3.23-3.91,6-6.69,20.92-14.39,12.37-6.37,20.29-6.47,22.64-6.32-1.41-5.11-7.2-8.83-12.3-10.64a73,73,0,0,0-9.61-2.15c-4.3-.77-6.77-1.24-7.51-1.85a8.39,8.39,0,0,1-1.59-2.64c-.86-1.81-1.93-4.07-3.49-4.44Z" style="fill:#263238"></path><path d="M211.12,212.65c-10.28-11.29-13.29-28.93-13.32-29.11l1-.16c0,.18,3,17.53,13.08,28.6Z" style="fill:#263238"></path><path d="M224.41,220.77A35.69,35.69,0,0,1,214,216.14l.57-.82a35.73,35.73,0,0,0,10.1,4.48Z" style="fill:#263238"></path><path d="M232.68,170.35s7.35,9.44,9.67,20.89" style="fill:#A6D34D"></path><path d="M241.86,191.34c-2.27-11.2-9.5-20.59-9.58-20.68l.79-.61c.08.09,7.45,9.66,9.77,21.1Z" style="fill:#263238"></path><path d="M233.41,215l-1-.25c1.5-5.69-4.3-13.82-4.36-13.9l.81-.59C229.15,200.61,235,208.86,233.41,215Z" style="fill:#263238"></path><path d="M259.43,157.25s4.25-.36,6.33.87c3.06,1.82,9.4,27.52,10.71,34.73a22.3,22.3,0,0,1-2.84,15.73c-1.75,2.62-2.62,3.93-2,3.71s11.14-2,15.29-5a32.1,32.1,0,0,0,9.83-11.8c2.18-4.58,3.49-8.3,1.53-16.38s-5-15.73-11.8-20.53-12.23-6.77-18.13-5.68S259,155.06,259.43,157.25Z" style="fill:#8f8f8f"></path><path d="M271.54,212.81a.55.55,0,0,1-.47-.22c-.37-.48-.1-.93,2.14-4.28A21.92,21.92,0,0,0,276,192.94c-1.62-8.9-7.83-32.83-10.46-34.39-1.93-1.14-6-.81-6-.8l-.44,0-.09-.44a2.12,2.12,0,0,1,.33-1.66c1.05-1.55,4.23-2.41,9-3.3,5.78-1.07,11.31.65,18.51,5.76,7.42,5.27,10.31,13.9,12,20.82,2,8.26.62,12.14-1.56,16.72a32.66,32.66,0,0,1-10,12c-3.57,2.63-11.48,4.27-14.46,4.89a9.76,9.76,0,0,0-1,.21A1,1,0,0,1,271.54,212.81ZM260.85,156.7a11.2,11.2,0,0,1,5.17,1c3.41,2,9.83,28.95,10.94,35.07a22.54,22.54,0,0,1-2.92,16.1c-.75,1.13-1.44,2.16-1.81,2.79l.35-.07c2.65-.55,10.68-2.22,14.07-4.71a31.68,31.68,0,0,0,9.68-11.61c2.16-4.53,3.43-8.1,1.49-16-1.64-6.76-4.44-15.17-11.6-20.24-7-4.94-12.26-6.61-17.75-5.6-3.81.71-7.47,1.55-8.37,2.88a1,1,0,0,0-.19.47Z" style="fill:#263238"></path><path d="M259.43,157.25s-12.39-1.68-32.33,3.49c-18.86,4.9-24.46,12.45-27.08,19.66s-.44,22.94,5.46,29.27,22.93,11.36,37.13,10.7,29.05-8.08,29.05-8.08,7.86-5.46,8.52-11.79-5.24-32.55-7.86-37.79-4.59-5.68-4.59-5.68Z" style="fill:#A6D34D"></path><path d="M240.06,220.93c-13.68,0-29.22-4.76-34.95-10.92-6.07-6.52-8.28-22.3-5.56-29.78,2.55-7,7.8-14.88,27.43-20,19.22-5,31.65-3.61,32.47-3.51l8.33-.22h.06c.22.05,2.27.64,4.92,6,2.51,5,8.6,31.48,7.92,38.06s-8.41,11.92-8.73,12.15-15.18,7.52-29.32,8.17C241.78,220.91,240.92,220.93,240.06,220.93Zm14-63.43a108.08,108.08,0,0,0-26.79,3.73c-19.18,5-24.28,12.57-26.74,19.34-2.57,7.07-.4,22.58,5.35,28.76s23,11.18,36.75,10.54c13.92-.64,28.7-8,28.85-8s7.62-5.37,8.24-11.39-5.08-32-7.81-37.52c-2.21-4.42-3.92-5.28-4.22-5.4l-8.25.22h0A49.18,49.18,0,0,0,254,157.5Z" style="fill:#263238"></path><path d="M296.34,173.19a55.94,55.94,0,0,0,13.11-1.53c7.86-1.74,12.45-5.46,14-5.24s2,1.75,1.09,4.15-4.59,2.41-6.55,3.28-7.43,2-12.24,3.49a37.93,37.93,0,0,1-7.42,1.75Z" style="fill:#263238"></path><path d="M298,179.62l-2.32-7,.72,0a55.4,55.4,0,0,0,13-1.51,44.48,44.48,0,0,0,10.51-3.94c1.8-.89,2.89-1.42,3.65-1.31a2.13,2.13,0,0,1,1.6,1c.52.86.48,2.18-.11,3.8-.71,1.95-2.89,2.49-4.82,3a12.25,12.25,0,0,0-2,.61,45.63,45.63,0,0,1-5.55,1.63c-2.1.55-4.49,1.17-6.73,1.88a38.21,38.21,0,0,1-7.54,1.77ZM297,173.7l1.61,4.85a42.64,42.64,0,0,0,6.93-1.68c2.27-.72,4.67-1.35,6.79-1.9a42.69,42.69,0,0,0,5.39-1.58,14.72,14.72,0,0,1,2.17-.66c1.77-.44,3.6-.89,4.12-2.33a3.7,3.7,0,0,0,.19-3,1.14,1.14,0,0,0-.88-.53,9.24,9.24,0,0,0-3.06,1.22,46,46,0,0,1-10.74,4A59.89,59.89,0,0,1,297,173.7Z" style="fill:#263238"></path><path d="M203.6,203.41c-.82,0-1.57-1.33-2.08-2.5l.92-.39a6.14,6.14,0,0,0,1.05,1.78,6.92,6.92,0,0,0-.25-2.35,60.63,60.63,0,0,0-2.48-7.94l.93-.37a62.37,62.37,0,0,1,2.53,8.09c.49,2.21.36,3.4-.38,3.64A.67.67,0,0,1,203.6,203.41Z" style="fill:#263238"></path><path d="M291.77,190.48a4.9,4.9,0,0,1-3.43-1.12,1.68,1.68,0,0,1-.53-1.38,2.35,2.35,0,0,1,.51-1.17,6.29,6.29,0,0,1-2.78-.93,1.22,1.22,0,0,1-.49-.93c0-1.25,1.76-2.86,2.12-3.17l.66.76c-.73.62-1.79,1.81-1.78,2.38a.2.2,0,0,0,.09.16,7,7,0,0,0,3.34.82l1.55,0-1.27.89c-.23.16-.9.74-.95,1.27a.71.71,0,0,0,.24.58c.85.87,2.69.87,3.33.8l.11,1S292.18,190.48,291.77,190.48Z" style="fill:#263238"></path><path d="M288.69,196.44a3.78,3.78,0,0,1-2.65-.76,1.1,1.1,0,0,1-.31-1.05c.3-1.26,3.06-2.27,3.9-2.54l.32.94c-1.48.49-3.13,1.35-3.25,1.84,0,0,0,0,.06.11.73.75,3.43.44,5,.07l.23,1A15,15,0,0,1,288.69,196.44Z" style="fill:#263238"></path><path d="M287,201c-1.38,0-3-.32-3.77-1.32a1.19,1.19,0,0,1-.2-1.13,2.69,2.69,0,0,1,1.37-1.28,5.31,5.31,0,0,1-2.9-1.9,1.34,1.34,0,0,1-.19-1.32c.59-1.54,4.09-2.42,4.78-2.58l.23,1c-1.52.35-3.78,1.18-4.08,2a.37.37,0,0,0,.08.39c1.13,1.62,3.88,1.81,3.9,1.81l3,.17-2.87.81c-1,.28-2.21.86-2.35,1.29,0,0,0,.09.05.21.76,1,3.53,1,4.48.74l.31.95A6.57,6.57,0,0,1,287,201Z" style="fill:#263238"></path><path d="M288.93,172.79a4.89,4.89,0,0,1-3.43-1.12,1.73,1.73,0,0,1-.53-1.38,2.35,2.35,0,0,1,.51-1.17,6.46,6.46,0,0,1-2.78-.93,1.18,1.18,0,0,1-.48-.93c-.05-1.25,1.75-2.86,2.11-3.17l.66.75c-.73.63-1.79,1.82-1.78,2.39a.22.22,0,0,0,.09.16,7.11,7.11,0,0,0,3.34.82l1.55,0-1.27.89c-.23.16-.9.73-.95,1.26a.72.72,0,0,0,.24.59c1,1.05,3.3.8,3.33.79l.11,1S289.34,172.79,288.93,172.79Z" style="fill:#263238"></path><path d="M285.86,178.75a3.79,3.79,0,0,1-2.66-.76,1.1,1.1,0,0,1-.31-1.05c.3-1.26,3.06-2.27,3.9-2.55l.32,1c-1.48.49-3.13,1.35-3.25,1.84,0,0,0,0,.06.11.73.75,3.43.44,5,.07l.23,1A14.94,14.94,0,0,1,285.86,178.75Z" style="fill:#263238"></path><path d="M284.14,183.35c-1.38,0-3-.32-3.77-1.32a1.19,1.19,0,0,1-.2-1.13,2.69,2.69,0,0,1,1.37-1.28,5.36,5.36,0,0,1-2.9-1.9,1.34,1.34,0,0,1-.19-1.32c.59-1.55,4.09-2.42,4.78-2.58l.23,1c-1.52.34-3.78,1.18-4.08,2,0,.09-.05.2.08.39,1.13,1.62,3.88,1.8,3.9,1.8l3,.18-2.87.81c-1,.28-2.21.85-2.35,1.29,0,0,0,.09.05.2.76,1,3.53,1,4.48.74l.31,1A6.57,6.57,0,0,1,284.14,183.35Z" style="fill:#263238"></path><path d="M205.31,189.11l-1-.09c0-.16,1.7-15.45,21.85-20.72l.25,1C207,174.36,205.32,189,205.31,189.11Z" style="fill:#263238"></path><rect x="230.07" y="167.56" width="6.04" height="1" transform="matrix(0.99, -0.16, 0.16, 0.99, -23.66, 39)" style="fill:#263238"></rect><path d="M218.77,213.89c-5.78-1.45-11.88-6.57-12.14-6.79l.65-.76c.06,0,6.18,5.19,11.73,6.58Z" style="fill:#263238"></path><path d="M238.89,218c-11.18,0-17.06-2.79-17.36-2.93l.44-.9c.09,0,8.92,4.2,25.26,2.34l.11,1A75.24,75.24,0,0,1,238.89,218Z" style="fill:#263238"></path><path d="M253.77,203.4l-.08-1a125,125,0,0,0,24.94-4.75l.31,1A125.57,125.57,0,0,1,253.77,203.4Z" style="fill:#263238"></path><path d="M245.46,204.11l-.17-1a37.83,37.83,0,0,1,5.81-.49v1A38,38,0,0,0,245.46,204.11Z" style="fill:#263238"></path><path d="M265.78,179.77l-.24-1a56.85,56.85,0,0,1,9.4-1.21l.05,1A56,56,0,0,0,265.78,179.77Z" style="fill:#263238"></path><path d="M336.65,263.63s-.34,5.13,13,14,28.75,2.06,33.54-1.71,5.48-17.45,1.37-26.35-14-14.72-14-14.72S347.61,222.22,336.65,263.63Z" style="fill:#A6D34D"></path><path d="M364.29,282.49a26.52,26.52,0,0,1-14.91-4.41c-13.43-9-13.24-14.26-13.22-14.48v-.1c4.21-15.92,10.66-25.83,19.16-29.46a18.56,18.56,0,0,1,15.45.4c.42.25,10.12,6,14.24,14.95,4.25,9.19,3.47,23-1.51,27C380.05,279.07,372.6,282.49,364.29,282.49ZM337.15,263.7c0,.48.57,5.4,12.79,13.55,12.59,8.39,27.64,2.49,32.95-1.69,4.59-3.6,5.23-17.08,1.23-25.75s-13.74-14.44-13.83-14.5a17.89,17.89,0,0,0-14.58-.35C347.52,238.47,341.28,248.14,337.15,263.7Z" style="fill:#263238"></path><path d="M370.54,234.88A25.49,25.49,0,0,0,349,243.09c-9.59,10.27-12.33,20.54-12.33,20.54s-4.45-7.19-4.1-12S335.63,239,335.63,239a26.92,26.92,0,0,0-18.14-15.06c-13.69-3.42-22.93-4.79-21.22-6.85s20.19,3.77,25,5.48,13.69,8.56,15.75,9.24a8.71,8.71,0,0,0,4.45,0s12.66-2.05,19.16-2.05A12.59,12.59,0,0,1,370.54,234.88Z" style="fill:#8f8f8f"></path><path d="M336.84,264.88l-.61-1c-.19-.3-4.53-7.38-4.18-12.27.32-4.46,2.62-11.38,3-12.62a26.7,26.7,0,0,0-17.72-14.59c-3.29-.82-6.33-1.52-9-2.15-8.7-2-12.25-2.89-12.74-4.35a1.16,1.16,0,0,1,.26-1.15c2.29-2.75,25.31,5.25,25.54,5.33,2.91,1,7.24,3.89,10.72,6.18a39.84,39.84,0,0,0,5,3.06,8.22,8.22,0,0,0,4.16,0c.18,0,12.83-2.07,19.3-2.07A12.94,12.94,0,0,1,371,234.6l.65,1-1.15-.2a25.21,25.21,0,0,0-21.11,8.07,53.69,53.69,0,0,0-12.2,20.32ZM298,217.1c-.67,0-1.12.09-1.3.3s-.09.17-.08.19c.33,1,5.75,2.24,12,3.7,2.68.62,5.72,1.33,9,2.15a27.66,27.66,0,0,1,18.48,15.37l.07.17-.06.17c0,.08-2.72,7.87-3.05,12.54-.26,3.56,2.3,8.61,3.47,10.71a56.87,56.87,0,0,1,12.09-19.65,26.4,26.4,0,0,1,20.78-8.48,12,12,0,0,0-8.78-4c-6.39,0-19,2-19.08,2a8.93,8.93,0,0,1-4.69,0,35.4,35.4,0,0,1-5.25-3.16c-3.44-2.27-7.71-5.08-10.51-6.08C314.29,220.6,302.05,217.1,298,217.1Z" style="fill:#263238"></path><path d="M346.61,124.53s-3,4.18-19,2.57-23.5-16.69-24.81-22.64,6.87-17,15.69-21.22,20.19-2.44,20.19-2.44S364.47,85.6,346.61,124.53Z" style="fill:#A6D34D"></path><path d="M334.4,128c-2,0-4.22-.11-6.8-.37-15.6-1.57-23.75-16.19-25.25-23-1.35-6.18,6.85-17.37,16-21.77,8.86-4.28,20-2.56,20.48-2.49A18.58,18.58,0,0,1,351,89.81c4.25,8.21,2.93,20-3.94,34.93l-.05.08C346.9,125,344.62,128,334.4,128Zm-1.52-47c-4,0-9.46.52-14.13,2.77-8.6,4.15-16.67,15-15.42,20.66,1.45,6.6,9.31,20.73,24.37,22.25,14.61,1.48,18.16-2,18.48-2.34,6.71-14.64,8-26.08,3.93-34a17.79,17.79,0,0,0-11.48-9A40.43,40.43,0,0,0,332.88,80.92Z" style="fill:#263238"></path><path d="M338.72,80.8a25.47,25.47,0,0,1,11.43,20c.87,14-3.54,23.69-3.54,23.69s8-2.72,10.78-6.64,5.67-11.73,5.67-11.73a26.92,26.92,0,0,1,23.58-.1c12.74,6.06,20.75,10.88,20.73,8.21s-18-9.93-22.77-11.66-16-2.09-18-2.87a8.64,8.64,0,0,1-3.43-2.83s-8.47-9.63-13.49-13.77A12.6,12.6,0,0,0,338.72,80.8Z" style="fill:#8f8f8f"></path><path d="M345.67,125.38l.48-1.06c.05-.09,4.35-9.73,3.5-23.44a25.14,25.14,0,0,0-11.18-19.65l-1-.57,1.11-.34A13,13,0,0,1,350,82.76c5,4.11,13.46,13.72,13.54,13.82a8.31,8.31,0,0,0,3.24,2.69,39.14,39.14,0,0,0,5.82.83c4.14.44,9.3,1,12.2,2,.23.09,23.08,8.54,23.1,12.12a1.13,1.13,0,0,1-.52,1c-1.31.82-4.61-.76-12.61-4.73-2.46-1.23-5.26-2.61-8.32-4.07a26.68,26.68,0,0,0-23,0c-.45,1.22-3.07,8-5.66,11.67-2.84,4-10.7,6.71-11,6.82ZM340,81.05a26.44,26.44,0,0,1,10.65,19.76,56.85,56.85,0,0,1-3.16,22.85c2.24-.87,7.43-3.15,9.49-6.06,2.71-3.81,5.58-11.54,5.61-11.62l.07-.17.16-.09a27.68,27.68,0,0,1,24-.11c3.07,1.46,5.87,2.85,8.33,4.07,5.77,2.86,10.75,5.34,11.64,4.78,0,0,.05,0,.05-.19,0-1.93-14.53-8.34-22.44-11.19-2.79-1-7.88-1.55-12-2a37.78,37.78,0,0,1-6.07-.89,9.07,9.07,0,0,1-3.66-3c-.05,0-8.47-9.6-13.4-13.66A12,12,0,0,0,340,81.05Z" style="fill:#263238"></path><path d="M390.6,163.16s12.73,10.67,28.74,9.44,17.25-10.26,17.25-10.26,4.51.41,4.1-2.46l-.41-2.88s2.87-11.08-1.64-20.12-11.09-13.54-16.83-16.83a98.1,98.1,0,0,0-14.37-6.16S377.88,135.65,390.6,163.16Z" style="fill:#A6D34D"></path><path d="M416.79,173.2c-14.81,0-26.39-9.55-26.51-9.66l-.13-.17c-12.75-27.56,16.69-49.66,17-49.88l.21-.15.24.08a98.58,98.58,0,0,1,14.46,6.2c5.9,3.36,12.53,8,17,17,4.37,8.75,2,19.17,1.7,20.37l.4,2.77a2.31,2.31,0,0,1-.57,2c-.95,1-2.78,1.09-3.63,1.08-.48,1.91-3.25,9.14-17.61,10.24C418.51,173.17,417.64,173.2,416.79,173.2ZM391,162.85c1.13.9,13.32,10.4,28.29,9.25,15.44-1.18,16.78-9.74,16.79-9.83l.07-.47.47,0c.66.06,2.52,0,3.26-.75a1.26,1.26,0,0,0,.31-1.14l-.43-3,0-.09c0-.11,2.77-11-1.61-19.77s-10.58-13.17-16.63-16.62a95.47,95.47,0,0,0-14-6C405,116.46,379.28,137.28,391,162.85Z" style="fill:#263238"></path><path d="M407.44,113.89s-7,4.11-13.14,18.48-6.57,18.06-6.57,23a11.62,11.62,0,0,0,2.87,7.8s-8.62-3.7-13.54-10.67-2.47-25.87-2.47-25.87-9-7-6.57-8.21,6.57,2,8.21,2,10.27-5.75,14.78-7.39S402.92,110.2,407.44,113.89Z" style="fill:#c4c4c4"></path><path d="M392.77,164.63l-2.36-1c-.36-.15-8.81-3.83-13.76-10.85-4.71-6.66-2.89-23.44-2.59-25.93-1.62-1.27-7.16-5.78-7-7.9a1.23,1.23,0,0,1,.7-1c1.79-.89,4.17.23,6.09,1.13a7.94,7.94,0,0,0,2.34.87c.7,0,3.59-1.62,6.14-3a70.91,70.91,0,0,1,8.47-4.31c5.29-1.92,12.51-2.69,16.91.91l.56.45-.62.36c-.07,0-6.93,4.23-12.93,18.24-6.21,14.5-6.53,18.11-6.53,22.8a11.25,11.25,0,0,0,2.73,7.45Zm-23.47-46a2.28,2.28,0,0,0-1.05.23c-.13.06-.14.12-.15.18-.12,1.24,3.9,4.95,6.8,7.19l.23.17,0,.29c0,.18-2.38,18.77,2.37,25.51,3.43,4.86,8.75,8.12,11.52,9.6a12.46,12.46,0,0,1-1.75-6.44c0-4.82.32-8.51,6.61-23.19,5.18-12.08,10.88-17,12.74-18.3-4.12-2.85-10.58-2.08-15.39-.33a68.61,68.61,0,0,0-8.33,4.24c-3.62,2-5.71,3.18-6.63,3.18a8,8,0,0,1-2.77-1A11.22,11.22,0,0,0,369.3,118.63Z" style="fill:#263238"></path><path d="M417.63,163.65c-14.35-2.05-27.23-13.14-27.35-13.25l.65-.75c.13.1,12.79,11,26.84,13Z" style="fill:#263238"></path><path d="M421.85,164.48l-.09-1a33.56,33.56,0,0,0,10.1-2.83l.42.91A34.5,34.5,0,0,1,421.85,164.48Z" style="fill:#263238"></path><path d="M427.24,129.47c-8.43-6.82-19.39-9.32-19.5-9.34l.22-1c.11,0,11.29,2.57,19.91,9.55Z" style="fill:#263238"></path><path d="M434.49,152.28c-2.33-5.05-11.49-7.5-11.58-7.52l.25-1c.4.1,9.7,2.59,12.24,8.08Z" style="fill:#263238"></path><path d="M338.16,115.24s23.28.35,30.46,9.59,8.22,21.22.35,32.17-24.65,13.69-33.89,12.32-13.35-4.79-13.35-4.79,16.43-12.32,18.14-26.7S338.16,115.24,338.16,115.24Z" style="fill:#A6D34D"></path><path d="M339.8,170.14a32.08,32.08,0,0,1-4.79-.33c-9.27-1.37-13.43-4.75-13.6-4.9l-.48-.4.5-.38c.17-.12,16.28-12.36,17.95-26.36s-1.65-22.25-1.68-22.33l-.29-.71h.76c1,0,23.6.46,30.85,9.78,7.78,10,7.91,22.25.35,32.77C362.68,166.6,349.47,170.14,339.8,170.14Zm-17.23-5.63c1.35.91,5.41,3.25,12.59,4.32,9.26,1.37,25.75-1.48,33.4-12.12,7.28-10.14,7.16-21.94-.33-31.58-6.25-8-25.35-9.21-29.34-9.36.78,2.3,2.92,10,1.48,22.12C338.81,151,325.47,162.22,322.57,164.51Z" style="fill:#263238"></path><path d="M338.16,115.24s4.45-1.37,5.14,15.41-7.53,25.66-10.61,29.77-6.85,4.45-11,4.11S310.1,154.6,308,147.76a50.74,50.74,0,0,1-2.05-13s-12.66-12-20.88-17.11-10.61-8.56-9.58-9.58,10.27,6.16,10.27,6.16,18.82,11,21.56,12.66a5.08,5.08,0,0,0,4.79.68s3.42-8.89,12.66-11.29S338.16,115.24,338.16,115.24Z" style="fill:#8f8f8f"></path><path d="M323.88,165.13c-.71,0-1.43,0-2.19-.1-4.45-.37-12.1-10.37-14.13-17.13A52.57,52.57,0,0,1,305.49,135c-1.46-1.37-13.05-12.16-20.64-16.91-6.15-3.84-9.8-7.2-10-9.22a1.32,1.32,0,0,1,.35-1.14c.89-.88,4.57,1.17,10.93,6.12.14.07,18.81,10.94,21.52,12.64a4.84,4.84,0,0,0,4.15.72c.59-1.39,4.21-9.14,12.92-11.39,8.49-2.21,12.71-1.28,13.5-1.06a2.25,2.25,0,0,1,1.59.47c1.59,1.12,3.58,4.72,4,15.42.63,15.53-6.17,24.26-9.83,28.95-.32.42-.62.8-.88,1.15C330.51,164.16,327.5,165.13,323.88,165.13Zm-48.06-56.68a1.23,1.23,0,0,0,0,.28c.14,1.24,2.73,4.21,9.57,8.49,8.16,5.1,20.83,17.05,20.95,17.17l.16.15v.21a50.34,50.34,0,0,0,2,12.86c2.07,6.9,9.5,16.11,13.26,16.42,4.28.36,7.7-.17,10.51-3.91.26-.35.56-.74.89-1.16,3.58-4.59,10.24-13.14,9.62-28.29-.44-10.71-2.41-13.75-3.54-14.61a1.23,1.23,0,0,0-1-.33l-.13,0-.15,0c-.05,0-4.13-1.28-13.07,1s-12.29,10.91-12.32,11l-.07.19-.18.08c-.09.05-2.33,1.13-5.28-.71-2.7-1.68-21.36-12.54-21.55-12.65C281.53,111.53,276.75,108.32,275.82,108.45Z" style="fill:#263238"></path><path d="M354.91,175.5s-2.72,23.25,1,38,18.82,27.38,24,29.09l5.13,1.72s1,2.73,3.08,2.05,2.74-4.45,2.74-4.45a24.94,24.94,0,0,0,16.77-12.66c5.82-11,3.77-39.36,2.4-43.81s-4.2-14.15-4.2-14.15S381.58,156,354.91,175.5Z" style="fill:#A6D34D"></path><path d="M387.49,246.94c-1.42,0-2.39-1.32-2.81-2.26L379.76,243c-5.59-1.87-20.57-14.92-24.28-29.44s-1.1-37.92-1.07-38.16l0-.21.17-.13c26.64-19.47,51.25-4.42,51.5-4.27l.16.1.05.19c0,.09,2.84,9.75,4.19,14.14,1.29,4.17,3.52,33-2.43,44.19a25.74,25.74,0,0,1-16.79,12.86c-.23,1-1.06,3.85-3,4.49A2.37,2.37,0,0,1,387.49,246.94Zm-32.11-71.17c-.26,2.39-2.44,23.87,1.06,37.58,3.83,15,19.06,27.22,23.64,28.74l5.35,1.79.09.22c0,.09.89,2.28,2.45,1.75s2.23-3.09,2.41-4.06l.06-.35.35-.05A24.68,24.68,0,0,0,407.2,229c5.83-11,3.62-39.32,2.36-43.43s-3.74-12.59-4.14-14C403.28,170.34,380.28,157.72,355.38,175.77Z" style="fill:#263238"></path><path d="M374.2,152.73a32.65,32.65,0,0,0-12.73,6.56c-5.79,5-6.56,4.63-7,8.88a24.36,24.36,0,0,0,.39,7.33s8.87-3.09,11.19-3.47,23.15-3.48,25.08-3.48,7.33.39,9.65,1.16,5,1.55,5,1.55a18.76,18.76,0,0,0-4.63-11.58c-4.63-5-16.59-8.88-17.75-8.88s-5-1.15-3.47-1.93,5.4-2.31,2.31-3.47S374.2,152.73,374.2,152.73Z" style="fill:#c4c4c4"></path><path d="M354.55,176.15l-.13-.53a24.56,24.56,0,0,1-.4-7.5c.33-3.58,1-4.12,4.15-6.71.8-.66,1.78-1.46,3-2.49a32.61,32.61,0,0,1,12.74-6.62c.9-1.49,5.38-8.57,8.6-7.37.36.14,1.45.55,1.49,1.43,0,1.06-1.44,1.85-3.23,2.71l-.51.24a8.06,8.06,0,0,0,3.23,1c1.18,0,13.27,3.78,18.12,9a19.05,19.05,0,0,1,4.76,11.92v.66l-.64-.18s-2.73-.79-5-1.55a42.47,42.47,0,0,0-9.49-1.14c-1.86,0-22.55,3.06-25,3.47-2.25.38-11,3.42-11.11,3.45Zm27.14-30.36c-2,0-5.33,4.28-7.06,7.2l-.11.18-.21.05a32.38,32.38,0,0,0-12.52,6.45c-1.19,1-2.17,1.85-3,2.51-3.1,2.55-3.5,2.87-3.79,6a25.39,25.39,0,0,0,.26,6.63c2-.68,8.71-3,10.74-3.31,2.26-.37,23.18-3.48,25.16-3.48,1.72,0,7.35.37,9.8,1.19,1.59.53,3.38,1.06,4.32,1.34A18.21,18.21,0,0,0,400.84,160c-4.46-4.83-16.33-8.72-17.38-8.72-.8,0-4-.69-4.31-1.84,0-.2-.08-.69.62-1l.54-.27c.66-.31,2.68-1.28,2.66-1.76,0-.05-.16-.28-.84-.53A1.32,1.32,0,0,0,381.69,145.79Z" style="fill:#263238"></path><path d="M373.76,161.68a1.8,1.8,0,0,1-.82-.2,1.42,1.42,0,0,1-.77-.95c-.35-1.33.94-3.31,1.08-3.53l.83.55c-.46.7-1.12,2-.94,2.72a.45.45,0,0,0,.25.32c.91.45,2.23-1,2.63-1.6l.81.58C376.77,159.67,375.34,161.68,373.76,161.68Z" style="fill:#263238"></path><path d="M371.16,165.54a1.79,1.79,0,0,1-1.37-.6c-.94-1.09-.66-3.23-.63-3.48l1,.15a4.16,4.16,0,0,0,.4,2.67.74.74,0,0,0,.61.26,5.8,5.8,0,0,0,3.41-1.6l.71.7A6.7,6.7,0,0,1,371.16,165.54Z" style="fill:#263238"></path><path d="M365.34,166.88a3.72,3.72,0,0,1-1.67-.39,1.32,1.32,0,0,1-.71-.88c-.35-1.43,1.34-3.84,1.53-4.11l.81.58c-.67.94-1.54,2.58-1.37,3.29a.34.34,0,0,0,.19.23,3.11,3.11,0,0,0,2.56,0l.44.89A4.13,4.13,0,0,1,365.34,166.88Z" style="fill:#263238"></path><path d="M358.38,170.81a1.13,1.13,0,0,1-.92-.45c-.8-1-.2-3.66-.07-4.18l1,.24c-.26,1.06-.48,2.85-.11,3.32a.13.13,0,0,0,.13.07c1,0,2-1.28,2.33-1.77l.85.53C361.5,168.66,360.14,170.81,358.38,170.81Z" style="fill:#263238"></path><path d="M365.77,216.42c-5.8-12.64-3.56-38.52-3.46-39.61l1,.08c0,.27-2.31,26.71,3.38,39.11Z" style="fill:#263238"></path><path d="M371.73,227.55c-1.77-1.41-4.13-5.78-4.23-6l.88-.47s2.37,4.37,4,5.66Z" style="fill:#263238"></path><path d="M406.42,210.49l-1-.19c1.34-7-.33-18.2-.35-18.32l1-.15C406.15,192.3,407.79,203.3,406.42,210.49Z" style="fill:#263238"></path><path d="M402.57,225.74l-.81-.58c1.62-2.28,2.64-7.95,2.65-8l1,.17C405.35,217.57,404.33,223.28,402.57,225.74Z" style="fill:#263238"></path><path d="M393.11,193.66c-1-11.82-2.72-22.44-2.73-22.55l1-.16c0,.11,1.73,10.77,2.75,22.63Z" style="fill:#263238"></path><path d="M312.37,209.67s10.61,8.9,24,7.87S350.71,209,350.71,209s3.76.35,3.42-2l-.34-2.4s2.39-9.24-1.37-16.77-9.24-11.29-14-14a81.12,81.12,0,0,0-12-5.13S301.76,186.74,312.37,209.67Z" style="fill:#A6D34D"></path><path d="M334.2,218.12c-12.37,0-22.05-8-22.15-8.07l-.13-.17c-10.66-23,13.94-41.5,14.19-41.69l.21-.15.24.08a83.11,83.11,0,0,1,12.07,5.18c4.93,2.81,10.47,6.7,14.24,14.24,3.63,7.28,1.69,15.94,1.43,17l.32,2.3a2,2,0,0,1-.49,1.72,4.32,4.32,0,0,1-3,.92c-.46,1.71-2.88,7.63-14.74,8.54C335.64,218.09,334.92,218.12,334.2,218.12Zm-21.42-8.77c1,.82,11.13,8.64,23.51,7.69,12.74-1,13.88-7.83,13.92-8.13l.07-.46.47,0c.54,0,2.06,0,2.65-.6a1,1,0,0,0,.23-.89l-.35-2.49,0-.1c0-.09,2.31-9.15-1.33-16.42s-8.8-11-13.83-13.83a80.06,80.06,0,0,0-11.64-5C324.17,171,303.1,188.22,312.78,209.35Z" style="fill:#263238"></path><path d="M326.41,168.6s-5.82,3.42-11,15.4S310,199.06,310,203.16a9.72,9.72,0,0,0,2.39,6.51s-7.18-3.08-11.29-8.9S299,179.21,299,179.21s-7.53-5.82-5.48-6.85,5.48,1.71,6.85,1.71,8.55-4.79,12.32-6.16S322.64,165.52,326.41,168.6Z" style="fill:#c4c4c4"></path><path d="M314.53,211.14l-2.35-1c-.3-.13-7.37-3.21-11.51-9.07-3.91-5.55-2.44-19.4-2.17-21.63-1.67-1.31-6-4.86-5.8-6.63a1.1,1.1,0,0,1,.63-.89c1.52-.76,3.53.18,5.14.94a6.71,6.71,0,0,0,1.92.72c.56,0,3-1.34,5.08-2.53a59.33,59.33,0,0,1,7.07-3.6c4.44-1.61,10.49-2.25,14.18.77l.56.45-.62.37c-.06,0-5.75,3.51-10.75,15.17-5.17,12.07-5.43,15.07-5.43,19a9.34,9.34,0,0,0,2.25,6.15Zm-19.92-38.51a1.81,1.81,0,0,0-.84.18c-.07,0-.07.05-.07.09-.09.89,2.85,3.76,5.63,5.91l.23.18,0,.28c0,.16-2,15.62,2,21.21a28.11,28.11,0,0,0,9.31,7.84,10.57,10.57,0,0,1-1.32-5.15c0-4,.27-7.12,5.51-19.37,4.24-9.88,8.91-14,10.55-15.22-3.41-2.28-8.7-1.63-12.65-.2a58.52,58.52,0,0,0-6.93,3.53c-3,1.7-4.78,2.66-5.57,2.66a6.78,6.78,0,0,1-2.34-.81A9.26,9.26,0,0,0,294.61,172.63Z" style="fill:#263238"></path><path d="M334.89,210.16c-12-1.71-22.74-11-22.84-11.07l.65-.75c.11.09,10.64,9.16,22.33,10.83Z" style="fill:#263238"></path><path d="M338.43,210.85l-.09-1a28,28,0,0,0,8.39-2.35l.42.91A28.39,28.39,0,0,1,338.43,210.85Z" style="fill:#263238"></path><path d="M326.75,173.39a45.07,45.07,0,0,1,16.43,7.87" style="fill:#A6D34D"></path><path d="M342.86,181.65c-7-5.67-16.13-7.75-16.22-7.77l.22-1c.09,0,9.44,2.15,16.63,8Z" style="fill:#263238"></path><path d="M348.88,200.64c-1.93-4.18-9.52-6.21-9.59-6.23l.25-1c.33.09,8.12,2.17,10.25,6.78Z" style="fill:#263238"></path><path d="M292.3,237.43a53.08,53.08,0,0,1,27.38,9.93c13,9.58,15.06,27.38,13,35.25s-19.17,11.64-36.63,12.66S270.74,286,270.74,286s-11-5.48-7.88-20.88,10.61-22.93,15.75-25S292.3,237.43,292.3,237.43Z" style="fill:#A6D34D"></path><path d="M293.67,295.84c-15,0-22.46-8.45-23.26-9.42-1.12-.62-11-6.57-8-21.36,3-15.19,10.54-23.15,16-25.36,5.15-2,13.49-2.74,13.84-2.77h.05A54.16,54.16,0,0,1,320,247c13.35,9.84,15.18,28.16,13.19,35.78-2.6,9.95-26.79,12.44-37.08,13C295.27,295.82,294.46,295.84,293.67,295.84Zm-1.36-57.91c-.53,0-8.65.76-13.52,2.7-5.27,2.11-12.48,9.82-15.43,24.62s7.17,20.12,7.6,20.33l.17.15c.08.1,7.95,10,24.91,9,21-1.23,34.48-5.82,36.16-12.29,1.93-7.39.15-25.17-12.82-34.72A53.14,53.14,0,0,0,292.31,237.93Z" style="fill:#263238"></path><path d="M292.3,237.43s-8.22.34-18.14,9.93-8.21,26.35-5.82,32.51l2.4,6.16a25.78,25.78,0,0,1-9.93-6.5c-5.13-5.14-5.47-20.88-2.05-28.07s16.77-13,19.85-13.69S292.3,237.43,292.3,237.43Z" style="fill:#c4c4c4"></path><path d="M271.57,286.79l-1-.28c-.2-.05-5-1.46-10.14-6.63s-5.73-21.13-2.15-28.63c3.67-7.71,17.62-13.39,20.19-14,3.11-.69,13.38-.36,13.82-.35v1c-.08,0-8.16.47-17.81,9.79-9.32,9-8.31,25.26-5.7,32Zm15-48.94a49.71,49.71,0,0,0-7.87.41c-3,.67-16.17,6.41-19.51,13.42s-3,22.57,2,27.49a27.35,27.35,0,0,0,8.7,6l-2-5.13c-2.42-6.22-4.29-23.18,5.93-33.05,5.72-5.53,10.86-8,14.26-9.15Z" style="fill:#263238"></path><path d="M304.27,281.4c-2.58,0-5.15-.2-7.62-.47l.11-1c2.44.27,5,.43,7.53.47Z" style="fill:#263238"></path><path d="M292.72,280.39c-13.82-2.25-20.64-7.43-20.92-7.65l.61-.79c.07.05,6.92,5.24,20.47,7.46Z" style="fill:#263238"></path><path d="M289.66,261.83a61.22,61.22,0,0,0-16.28-6.45l.19-1A63,63,0,0,1,290.15,261Z" style="fill:#263238"></path><path d="M312.27,246.44a75.79,75.79,0,0,0-20-6.12l.14-1a76.52,76.52,0,0,1,20.34,6.21Z" style="fill:#263238"></path><path d="M325.73,258.18c-2.94-6.22-7.54-7.94-7.59-8l.34-.94c.2.07,5,1.86,8.15,8.47Z" style="fill:#263238"></path><path d="M206.05,223.4s1,13.35,9.24,32.51S244,279.53,251.57,278.5s12.66-20.88,10.61-34.22-9.58-29.78-9.58-29.78S231.72,232.64,206.05,223.4Z" style="fill:#A6D34D"></path><path d="M249.46,279.13c-8.38,0-26.78-4.71-34.63-23-8.15-19-9.27-32.54-9.28-32.67l-.06-.77.73.26c25.1,9,45.84-8.63,46.05-8.81l.5-.44.28.61c.08.17,7.58,16.65,9.62,29.91,1.61,10.45-1.13,24.77-6,31.27-1.57,2.1-3.27,3.28-5.05,3.53A17.15,17.15,0,0,1,249.46,279.13Zm-42.83-55c.36,3.1,2.14,15.3,9.12,31.58,8.39,19.59,29.14,23.2,35.75,22.3,1.51-.21,3-1.26,4.39-3.14,4.71-6.32,7.37-20.29,5.8-30.52-1.81-11.71-7.93-26-9.28-29C249,218,229.72,232,206.63,224.13Z" style="fill:#263238"></path><path d="M221.45,192.59a115.3,115.3,0,0,1-9.92,9.93c-5.48,4.79-7.19,14.37-6.51,18.48s7.19,7.87,13,7.87,21.56-2.73,25.67-4.79,9.24-6.16,8.9-9.58-.69-8.22-6.85-14.72c-1.84-1.94-13.69-9.24-15.4-9.92S217,174.11,213.92,167.61a105.47,105.47,0,0,0-7.87-13.69c-2.4-3.77-6.5-8.22-7.19-4.79s4.79,8.21,6.51,12.66,13.69,23.27,16.08,26.35S221.45,192.59,221.45,192.59Z" style="fill:#c4c4c4"></path><path d="M218,229.37c-6.23,0-12.79-4-13.5-8.29-.68-4.1,1-13.94,6.67-18.94a115.69,115.69,0,0,0,9.87-9.87l.13-.11A1.76,1.76,0,0,0,222,191a3.34,3.34,0,0,0-.92-2.56c-2.35-3-14.42-21.95-16.16-26.48a26.92,26.92,0,0,0-3.21-5.34c-1.94-2.75-3.77-5.35-3.32-7.6.24-1.17.84-1.52,1.3-1.6,2-.38,5.22,3.73,6.8,6.22l1.05,1.63a94.33,94.33,0,0,1,6.85,12.12c3.17,6.68,14.73,21.42,16.17,22,1.77.71,13.65,8,15.57,10.05,6.14,6.47,6.61,11.27,7,14.77l0,.24c.39,3.84-5.27,8.13-9.17,10.08C239.74,226.62,224,229.37,218,229.37ZM221.78,193a117.92,117.92,0,0,1-9.93,9.92c-5.35,4.68-7,14.22-6.33,18s6.82,7.45,12.51,7.45,21.45-2.74,25.44-4.74c4.41-2.2,8.92-6.13,8.63-9.08l0-.24c-.34-3.36-.79-8-6.69-14.18-1.85-2-13.64-9.18-15.23-9.81-2-.81-13.68-16.15-16.69-22.5a94.43,94.43,0,0,0-6.79-12l-1.05-1.63c-2.15-3.38-4.76-6-5.78-5.78-.23,0-.4.32-.5.82-.36,1.82,1.35,4.25,3.16,6.82a27.76,27.76,0,0,1,3.32,5.56c1.72,4.48,13.68,23.23,16,26.23a4.21,4.21,0,0,1,1.11,3.37A2.85,2.85,0,0,1,221.78,193Z" style="fill:#263238"></path><path d="M213,215.21h-.11a1.92,1.92,0,0,1-1.55-1c-1.68-2.8,1.19-6,1.31-6.11l.74.67s-2.49,2.77-1.2,4.92a.92.92,0,0,0,.76.55c.93.06,2.46-1.41,3.18-2.35l.79.61C216.7,212.75,214.77,215.21,213,215.21Z" style="fill:#263238"></path><path d="M219.27,221.44c-1.45,0-3.2-3.48-3.71-4.55l.91-.43c1,2.12,2.31,4,2.8,4s1.94-1.56,2.84-3l.85.52C222.45,218.76,220.7,221.44,219.27,221.44Z" style="fill:#263238"></path><path d="M212.83,223a3.39,3.39,0,0,1-.68-.08,2.14,2.14,0,0,1-1.44-1c-.82-1.36-.21-3.52-.19-3.61l1,.28a4.3,4.3,0,0,0,.09,2.82,1.13,1.13,0,0,0,.79.56c1.82.4,2.66-1.61,2.69-1.7l.93.37A3.66,3.66,0,0,1,212.83,223Z" style="fill:#263238"></path><path d="M227.8,219.68a3.28,3.28,0,0,1-2.53-1,4.43,4.43,0,0,1-1-3.05l1,.07A3.45,3.45,0,0,0,226,218a2.3,2.3,0,0,0,1.79.67Z" style="fill:#263238"></path><path d="M222.17,212.68a1.76,1.76,0,0,1-.74-.16c-1.6-.77-2.1-3.94-2.15-4.29l1-.15c.17,1.15.74,3.13,1.59,3.53a.9.9,0,0,0,.92-.12,10,10,0,0,0,3.33-3.08l.87.49a10.76,10.76,0,0,1-3.69,3.44A2.1,2.1,0,0,1,222.17,212.68Z" style="fill:#263238"></path><path d="M431.35,137.87a91.13,91.13,0,0,1,9,39.31c0,59.5-58.49,107.73-130.63,107.73S179.06,236.68,179.06,177.18a91.13,91.13,0,0,1,9-39.31,119.49,119.49,0,0,0-18,62.91c0,70.76,62.51,128.12,139.63,128.12s139.63-57.36,139.63-128.12A119.58,119.58,0,0,0,431.35,137.87Z" style="fill:#263238"></path><path d="M309.69,329.4c-77.27,0-140.13-57.7-140.13-128.62a120.51,120.51,0,0,1,18.05-63.17l.87.48a90.39,90.39,0,0,0-8.92,39.09c0,59.13,58.38,107.23,130.13,107.23s130.13-48.1,130.13-107.23a90.4,90.4,0,0,0-8.93-39.09l.88-.48a120.49,120.49,0,0,1,18.05,63.17C449.82,271.7,387,329.4,309.69,329.4ZM184.26,145.51a119.21,119.21,0,0,0-13.7,55.27c0,70.37,62.41,127.62,139.13,127.62s139.13-57.25,139.13-127.62a119.1,119.1,0,0,0-13.71-55.27,90.66,90.66,0,0,1,5.71,31.67c0,59.68-58.83,108.23-131.13,108.23S178.56,236.86,178.56,177.18A90.88,90.88,0,0,1,184.26,145.51Z" style="fill:#263238"></path><path d="M309.69,62c-77.12,0-139.63,52.15-139.63,116.47S232.57,295,309.69,295,449.32,242.82,449.32,178.5,386.8,62,309.69,62Zm0,222.88c-72.15,0-130.63-48.23-130.63-107.73S237.54,69.45,309.69,69.45s130.63,48.23,130.63,107.73S381.83,284.91,309.69,284.91Z" style="fill:#6e6e6e"></path><path d="M309.69,295.46c-77.27,0-140.13-52.47-140.13-117s62.86-117,140.13-117S449.82,114,449.82,178.5,387,295.46,309.69,295.46Zm0-232.93c-76.72,0-139.13,52-139.13,116s62.41,116,139.13,116,139.13-52,139.13-116S386.4,62.53,309.69,62.53Zm0,222.88c-72.31,0-131.13-48.55-131.13-108.23S237.38,69,309.69,69,440.82,117.5,440.82,177.18,382,285.41,309.69,285.41Zm0-215.46c-71.75,0-130.13,48.11-130.13,107.23s58.38,107.23,130.13,107.23,130.13-48.1,130.13-107.23S381.44,70,309.69,70Z" style="fill:#263238"></path><path d="M296.16,156a5.38,5.38,0,0,0,6.18.92c3.42-1.84,2.23-6.84,2.23-6.84Z" style="fill:#263238"></path><path d="M300,158a6.47,6.47,0,0,1-4.15-1.7l-.42-.42,9.51-6.68.17.72c.05.22,1.23,5.39-2.49,7.39A5.46,5.46,0,0,1,300,158Zm-3-2a4.65,4.65,0,0,0,5.12.45c2.29-1.23,2.26-4.15,2.11-5.53Z" style="fill:#263238"></path><path d="M244.21,119.26s3.42,16.3,15.52,26,19.85,12.1,29.06,11.7,16.57-2.63,20-13,3.16-18.41-.26-30.38-12.63-21.44-12.63-21.44Z" style="fill:#A6D34D"></path><path d="M286.87,157.54c-7.9,0-15.57-2.29-27.46-11.85-12.1-9.74-15.66-26.17-15.69-26.33l-.08-.37L296,91.55l.26.26c.09.1,9.33,9.7,12.75,21.65,3.55,12.43,3.62,20.46.26,30.68-3.67,11.13-12,13-20.45,13.36C288.16,157.53,287.52,157.54,286.87,157.54Zm-42.09-38c.6,2.46,4.44,16.68,15.26,25.39,12.61,10.14,20.34,12,28.73,11.59,9.35-.4,16.26-2.71,19.54-12.68s3.22-17.87-.27-30.08c-3-10.61-10.75-19.33-12.25-21Z" style="fill:#263238"></path><path d="M245,121.39a104.75,104.75,0,0,0,14.7-5.37c6.3-3,16.1-10.73,22.63-14.23a59.69,59.69,0,0,0,9.81-6.3L252.9,116l-8.69,3.24Z" style="fill:#263238"></path><path d="M244.65,122l-1.08-3,9.16-3.4,43-22.56-3.34,2.87a60,60,0,0,1-9.89,6.36c-3,1.61-6.81,4.19-10.49,6.67a110.46,110.46,0,0,1-12.16,7.57,105.93,105.93,0,0,1-14.79,5.4Zm.19-2.45.44,1.23a102.6,102.6,0,0,0,14.17-5.21,111,111,0,0,0,12-7.49c3.7-2.51,7.52-5.09,10.58-6.73.53-.29,1-.56,1.52-.84l-30.46,16Z" style="fill:#263238"></path><path d="M250.91,79.54a6.81,6.81,0,0,0-3.55,3.55c-.92,2.5-1.05,3.68-1.31,4.21s-3,2-4.47,4.47-1.85,3.42-1.85,3.42-5.12,3-5.65,6.71a32.45,32.45,0,0,0-.13,6.18,8.84,8.84,0,0,0,.13,5.65c1,2.63,2.5,5,6.84,5.66a24.36,24.36,0,0,0,8.94-.66l17.89-8.15S295.24,94,296.42,93.35s4.34-6.58,3.68-10.92a8.74,8.74,0,0,0-4.6-6.18s-5.79-3.68-9.87-3.16a68.09,68.09,0,0,0-8.28,1.71,12.46,12.46,0,0,0-3.68,0c-2.63.27-7.5,1.45-7.5,1.45a12.8,12.8,0,0,0-7.37-.4A20.8,20.8,0,0,0,250.91,79.54Z" style="fill:#c4c4c4"></path><path d="M243.53,120.07a17.56,17.56,0,0,1-2.69-.19c-4.75-.72-6.22-3.45-7.23-6a9.48,9.48,0,0,1-.14-6,5.13,5.13,0,0,0,0-.66,23.8,23.8,0,0,1,.15-5.44c.51-3.57,4.91-6.45,5.76-7,.17-.35.66-1.35,1.8-3.32a13.87,13.87,0,0,1,3.68-3.81,5.25,5.25,0,0,0,.79-.65,6.93,6.93,0,0,0,.27-.91,33,33,0,0,1,1-3.23,7.22,7.22,0,0,1,3.77-3.82,21,21,0,0,1,8-3.73,13.57,13.57,0,0,1,7.51.36,69.19,69.19,0,0,1,7.41-1.42,14.79,14.79,0,0,1,3.71,0,67.65,67.65,0,0,1,8.24-1.69c4.22-.54,9.95,3.07,10.2,3.23a9.13,9.13,0,0,1,4.83,6.53c.67,4.47-2.48,10.61-3.94,11.42-1.16.65-28.38,17.06-28.65,17.22l-17.94,8.18A25.46,25.46,0,0,1,243.53,120.07Zm18.4-44a15.63,15.63,0,0,0-3,.31,20.27,20.27,0,0,0-7.68,3.59l-.13.07a6.39,6.39,0,0,0-3.27,3.26,31.19,31.19,0,0,0-1,3.15,6.57,6.57,0,0,1-.36,1.11c-.13.26-.42.49-1.06,1A12.61,12.61,0,0,0,242,92c-1.41,2.43-1.81,3.36-1.82,3.37l-.06.15-.14.08c-.05,0-4.93,2.95-5.42,6.35a22.9,22.9,0,0,0-.14,5.22,3,3,0,0,1,0,1,8.4,8.4,0,0,0,.12,5.32c.94,2.35,2.22,4.7,6.45,5.34a23.8,23.8,0,0,0,8.73-.64l17.82-8.13c1.07-.65,27.46-16.56,28.64-17.21.87-.49,4.07-6.18,3.43-10.4a8.33,8.33,0,0,0-4.32-5.81c-.12-.06-5.74-3.62-9.59-3.11a67.69,67.69,0,0,0-8.22,1.69l-.12,0-.13,0a12.31,12.31,0,0,0-3.51,0,73.46,73.46,0,0,0-7.43,1.44l-.17,0-.16-.07A10.71,10.71,0,0,0,261.93,76Z" style="fill:#263238"></path><path d="M248,63.1s-6.44,2.76-5.92,3.81,4.87,8,5.53,9.21a3,3,0,0,1-.53,3.15,5.29,5.29,0,0,0-.79,3.42,2.35,2.35,0,0,0,.92,1.32,15.85,15.85,0,0,1,2.89-2.63c1.45-.92,2.37-1.58,2.37-1.58a6.73,6.73,0,0,0,2.9-.79c1.44-.79,1.84-1.45,2.63-1.58a6.37,6.37,0,0,0,2.36-1.05c.53-.39,1.45-.13,1.84-.79s.53-.79-.65-1.18-5.13-1.32-5.13-1.32-2.9-7.76-4.34-10S248,63.1,248,63.1Z" style="fill:#263238"></path><path d="M247.34,84.66l-.37-.22a2.86,2.86,0,0,1-1.14-1.61,5.72,5.72,0,0,1,.85-3.83,2.53,2.53,0,0,0,.51-2.64c-.28-.5-1.25-2.08-2.27-3.76-1.45-2.38-3-4.84-3.27-5.46a.83.83,0,0,1,0-.67c.47-1.28,4.72-3.2,6.13-3.8a4.36,4.36,0,0,1,3-1,2.51,2.51,0,0,1,1.75,1.2c1.33,2,3.77,8.46,4.29,9.84.91.21,3.89.92,4.91,1.26.63.21,1.09.39,1.24.8a1.19,1.19,0,0,1-.27,1,1.81,1.81,0,0,1-1.42.83,1.6,1.6,0,0,0-.59.17,7.14,7.14,0,0,1-2.58,1.15,2.38,2.38,0,0,0-1,.55,11.41,11.41,0,0,1-1.49,1,7.17,7.17,0,0,1-3,.84c-.3.21-1.11.78-2.27,1.51a16,16,0,0,0-2.78,2.53Zm-4.75-17.9c.37.71,1.86,3.15,3.18,5.32,1.08,1.76,2,3.28,2.29,3.8.87,1.55-.16,3.09-.54,3.67a4.92,4.92,0,0,0-.73,3,2,2,0,0,0,.4.74A14.6,14.6,0,0,1,249.86,81c1.41-.9,2.33-1.56,2.34-1.57l.13-.09h.16a6.21,6.21,0,0,0,2.66-.73,9.85,9.85,0,0,0,1.37-.9,3.19,3.19,0,0,1,1.41-.73,6,6,0,0,0,2.15-1,2.28,2.28,0,0,1,1-.36c.4-.07.59-.12.7-.29l.14-.24a4.31,4.31,0,0,0-.53-.21c-1.15-.38-5.05-1.29-5.09-1.3l-.26-.06-.09-.25c0-.08-2.89-7.74-4.29-9.9a1.51,1.51,0,0,0-1.05-.75,3.62,3.62,0,0,0-2.29.86l-.12.08C245.4,64.76,242.88,66.2,242.59,66.76Z" style="fill:#263238"></path><path d="M265.25,101.74c-.45,0-5.1-1.06-5.74-3-.55-1.67.29-5.15.39-5.54l1,.24c-.25,1-.8,3.8-.41,5s4.14,2.25,4.8,2.29Z" style="fill:#263238"></path><path d="M266,94.6c-1.67,0-4.39-1.88-4.42-1.9-1.1-.78-.63-3.7-.46-4.58l1,.19c-.28,1.47-.33,3.3.06,3.58,1.36,1,3.57,2,4.06,1.68a3.61,3.61,0,0,0,1.25-1.37l.9.45a4.83,4.83,0,0,1-1.65,1.79A1.5,1.5,0,0,1,266,94.6Z" style="fill:#263238"></path><path d="M257,97.83A9.82,9.82,0,0,1,252,96c-1.23-1.08-.23-4.68,0-5.39l1,.29c-.52,1.75-.78,3.91-.28,4.35,1,.85,3.7,1.81,4.55,1.6l.24,1A2.38,2.38,0,0,1,257,97.83Z" style="fill:#263238"></path><path d="M257.81,103.15c-1.68,0-4.39-1.88-4.43-1.9-1.09-.78-.63-3.7-.46-4.58l1,.19c-.28,1.47-.32,3.3.07,3.58,1.36,1,3.57,2,4.06,1.68a3.81,3.81,0,0,0,1.25-1.37l.89.45a4.66,4.66,0,0,1-1.64,1.79A1.5,1.5,0,0,1,257.81,103.15Z" style="fill:#263238"></path><path d="M248.83,106.38a9.82,9.82,0,0,1-5-1.87c-1.23-1.08-.23-4.68,0-5.39l1,.29c-.53,1.75-.78,3.91-.28,4.34,1,.86,3.69,1.82,4.54,1.61l.25,1A2.49,2.49,0,0,1,248.83,106.38Z" style="fill:#263238"></path><path d="M257.09,110.29c-.44,0-5.09-1.06-5.73-3-.45-1.35,0-3.9.26-5-1-.21-3.06-.72-4-1.62-1.22-1.21.73-5.28,1.35-6.5l.89.46c-1.1,2.15-2,4.87-1.54,5.33.77.77,3.11,1.3,3.94,1.44l.53.09-.13.53c-.24,1-.79,3.8-.4,5s4.13,2.25,4.8,2.29Z" style="fill:#263238"></path><path d="M250.26,115.15a6.18,6.18,0,0,1-2.64-.91c-.71,0-3.27,0-4-1.32a9.4,9.4,0,0,1-.72-3.65c-.7-.5-2.63-2-2.63-3.69a29.09,29.09,0,0,1,1.34-5.94l1,.3a29.09,29.09,0,0,0-1.29,5.64c0,1.17,1.73,2.56,2.4,3l.23.15V109a9.16,9.16,0,0,0,.59,3.44c.39.69,2.34.83,3.23.79h.15l.14.08a5.5,5.5,0,0,0,2.23.84Z" style="fill:#263238"></path><path d="M243.65,97.73l-1-.08a13.58,13.58,0,0,1,1-3.7c.72-1.8,3-2.26,4-2.38a6.2,6.2,0,0,1,1.1-2.61,6.09,6.09,0,0,1,3.19-1.76l.19,1a5.2,5.2,0,0,0-2.59,1.4,5.33,5.33,0,0,0-.95,2.49l0,.44-.44,0s-2.84.15-3.5,1.79A13.24,13.24,0,0,0,243.65,97.73Z" style="fill:#263238"></path><path d="M242.47,117.83a5.78,5.78,0,0,1-.71,0,5.22,5.22,0,0,1-3.1-2.26,3.58,3.58,0,0,1-3.1-3,8.79,8.79,0,0,1,1.37-5.37,8.55,8.55,0,0,1-.85-3.39c0-1.95,2.47-3.75,2.57-3.83l.59.81c-.6.44-2.16,1.83-2.16,3a7.88,7.88,0,0,0,.86,3.18l.14.26-.16.25s-1.73,2.64-1.37,4.91a2.63,2.63,0,0,0,2.42,2.21h.27l.13.23a3.62,3.62,0,0,0,5.36,1.41l.53.85A5.72,5.72,0,0,1,242.47,117.83Z" style="fill:#263238"></path><path d="M257,132c-2.29-4.2-6.14-12.27-6.18-12.35l.91-.43c0,.08,3.87,8.13,6.15,12.3Z" style="fill:#263238"></path><path d="M260.5,137.05c-1.29-.65-2.25-2.89-2.36-3.15l.93-.38a6.16,6.16,0,0,0,1.88,2.63Z" style="fill:#263238"></path><path d="M272.32,137.54c-8.09-7.71-10.62-15.49-10.73-15.81l1-.31A41.14,41.14,0,0,0,273,136.81Z" style="fill:#263238"></path><path d="M294.76,153.7c-2.95,0-9.33-.34-14.61-3l.44-.89c6.73,3.36,15.64,2.84,15.74,2.84l.06,1C296.3,153.67,295.7,153.7,294.76,153.7Z" style="fill:#263238"></path></g><g id="freepik--acorns-1--inject-1"><path d="M379.12,351c-1.53-.21-6.12,3.5-14,5.25a58,58,0,0,1-12.85,1.53c-2-5.8-5-11-10.09-14.64-6.77-4.8-12.23-6.77-18.13-5.68s-9.39,2.19-8.95,4.37c0,0,.73-.06,1.73-.05l-1.73.05s-12.4-1.68-32.33,3.49a67.07,67.07,0,0,0-12.23,4.33,38.37,38.37,0,0,0-1.58-16,90.42,90.42,0,0,0-6.2-13.24l1.74,3s2.36-.52,3.67.53,2.89,5.25,4.73,6.83,4.2,3.94,5.25,3.94a11.12,11.12,0,0,0,4.2-1.32c.79-.52,1.32-2.1.53-3.94s-11.56-9.71-11.56-9.71-9.71-10.51-10.76-10.77-3.21,2.06-3.21,2.06l1.11,1.92a47.05,47.05,0,0,0-13.4-13.7c-10.5-6.83-23.37-8.93-29.15-3.67s-5.51,9.71-5.51,10.76a14.79,14.79,0,0,0,.26,2.37s-12.94,7.57-22.35,19.49-9.89,31.84-9.73,33.88,1.26,5.81,3.14,7.69a9.09,9.09,0,0,0,4.08,2.35,37.44,37.44,0,0,0,13.26,6.36,5.6,5.6,0,0,0-.54,3.24,2.78,2.78,0,0,0,.88,1.38c-.76,2.24-.91,3.37-1.18,3.91s-3.48,2.27-5.14,5.14A43.41,43.41,0,0,0,191,396.1a19.34,19.34,0,0,0-1.79,1.24A21.35,21.35,0,0,0,187,386.28c-6.57-12.81-19.88-22.34-36.32-21.52a72,72,0,0,0-25.81,6.41c-4-2.87-8.57-4.72-12-3.62,0,0-6.58.66-10,4.77s-7.56,14.13-8.38,21.85S93,404,93,404s0,.69.16,1.89a10.88,10.88,0,0,1-3,1.07c-1,0-2.63-1.15-4-3.45s-3-1.48-5.09.49-3,2.14-2.46,3,2,3.94,2.62,5.09,1,1.16-.16,2.63-2.63,1.15-3.12,3-.33,3.62,1.81,6.25,7.39,3.45,7.39,3.45,3.12-3.45,4.11-4.6a15.07,15.07,0,0,0,1.81-4.28s1.2-.11,2.87-.15a12.68,12.68,0,0,0,1.56,3.11,43.24,43.24,0,0,0,12.66,14c8.38,5.75,11.66,8.55,16.43,7.72,4-.68,7.12-1,9.49-4.13,1,0,2,.05,3,0l1.21.07.09-.13A58.61,58.61,0,0,0,172.09,427a49.66,49.66,0,0,0,11.78-13.6,9.45,9.45,0,0,0,.6,4c1.21,3,2.88,5.75,7.87,6.51a20.22,20.22,0,0,0,3.86.19c.6,2.56,4.94,19.29,17.77,29.61,13.92,11.19,22.84,13.91,33.43,13.46a43.22,43.22,0,0,0,8.58-1.11,6.12,6.12,0,0,0,7,1c2.71-1.46,2.91-4.65,2.77-6.49a22.62,22.62,0,0,0,4.64-8.33c3.93-12,3.63-21.18-.3-35-3.21-11.23-10.85-20.54-13.55-23.59a12.88,12.88,0,0,0,2-3.23,17.6,17.6,0,0,0,2.6,3.83c5.89,6.34,22.93,11.36,37.13,10.7s29.05-8.08,29.05-8.08c.65-.22,11.14-2,15.29-5a32.1,32.1,0,0,0,9.83-11.8c2.18-4.58,3.49-8.3,1.53-16.38a37.93,37.93,0,0,0,7.42-1.75c4.81-1.52,10.27-2.62,12.23-3.49s5.68-.87,6.56-3.28S380.64,351.25,379.12,351ZM243.77,370.68a74.54,74.54,0,0,0-7.52,1.45c6.65-3.2,11.46-6.16,11.46-6.16s1,3.07,7.14,2.89a33.07,33.07,0,0,0-.21,5.17C253.06,373.09,247.72,370.17,243.77,370.68Z" style="opacity:0.30000000000000004"></path><path d="M216.34,301.44S203.4,309,194,320.94s-9.89,31.84-9.73,33.88,1.25,5.8,3.14,7.68a9.05,9.05,0,0,0,4.08,2.36s9.09,7.68,24,7.84,37.89-14,37.89-14l4.93-2.93a25.9,25.9,0,0,0-1.41-13.65c-2.83-6.9-10.67-23.53-19.92-33.41s-12.4-10.67-13.34-10.51a12.78,12.78,0,0,1-1.88.16Z" style="fill:#A6D34D"></path><path d="M215.72,373.2h-.25a41.39,41.39,0,0,1-24.22-7.88,9.67,9.67,0,0,1-4.21-2.46c-2-2-3.12-5.88-3.28-8,0-.2-.32-21.37,9.83-34.23C203,308.77,216,301.09,216.09,301h0l5.53-3.16h.13a14.16,14.16,0,0,0,1.8-.15c1.49-.27,5.1,1.39,13.78,10.66,10.85,11.58,19.12,31.35,20,33.56a26.1,26.1,0,0,1,1.44,13.94l-.05.22-5.12,3C252.69,359.69,230.6,373.2,215.72,373.2Zm.87-71.33c-.21.13-13,7.71-22.21,19.38-9,11.45-9.82,31-9.62,33.53.15,1.91,1.2,5.58,3,7.37a8.69,8.69,0,0,0,3.83,2.22l.12,0,.1.09a40.1,40.1,0,0,0,23.68,7.72h.24c14.59,0,37.16-13.79,37.39-13.94l4.74-2.81a25.72,25.72,0,0,0-1.42-13.15c-3.27-8-11.12-23.95-19.83-33.26-9.64-10.29-12.43-10.42-12.88-10.36a12.23,12.23,0,0,1-1.83.16Z" style="fill:#263238"></path><path d="M266.24,309.32A47.31,47.31,0,0,0,250.74,292c-10.5-6.83-23.37-8.93-29.15-3.68s-5.51,9.72-5.51,10.77a14.59,14.59,0,0,0,.26,2.36l4.46-2.36s5.26,3.67,12.87,12.08,21.54,37.29,22.32,40.18a9.86,9.86,0,0,1,0,5.25l-2.62,2.1s1,3.15,7.35,2.89,10.51-5.52,13.39-11.29,3.16-16.29.53-23.9S266.24,309.32,266.24,309.32Z" style="fill:#c4c4c4"></path><path d="M260,362.09c-5.94,0-7.05-3.1-7.1-3.24l-.11-.33,2.78-2.22a9.71,9.71,0,0,0-.05-4.83c-.85-3.13-14.82-31.82-22.21-40a92.19,92.19,0,0,0-12.54-11.82L216,302.2l-.13-.66a15.11,15.11,0,0,1-.27-2.46V299c0-3.85,1.88-7.55,5.68-11,5.74-5.22,18.54-3.66,29.75,3.63a48.41,48.41,0,0,1,15.67,17.51c.3.51,5.88,9.74,8.43,17.15,2.66,7.69,2.41,18.36-.55,24.28-3.72,7.45-8.37,11.34-13.82,11.57Zm-6-3.26c.45.72,2,2.45,6.71,2.25,5.13-.21,9.37-3.82,13-11,2.85-5.71,3.07-16,.5-23.51s-8.3-16.88-8.36-17l0-.05a47.28,47.28,0,0,0-15.32-17.12c-10.67-6.94-23.21-8.58-28.54-3.73-3.58,3.26-5.38,6.71-5.35,10.26v.14a11.34,11.34,0,0,0,.14,1.6l4.12-2.19.25.18A89,89,0,0,1,234,310.82c7.47,8.24,21.57,37.22,22.44,40.39a10.46,10.46,0,0,1,0,5.54l-.05.14Z" style="fill:#263238"></path><path d="M263,303.76s2.17-2.32,3.22-2.06S277,312.47,277,312.47s10.77,7.88,11.56,9.72.26,3.41-.53,3.94a11.29,11.29,0,0,1-4.2,1.31c-1.05,0-3.41-2.36-5.25-3.94s-3.41-5.78-4.73-6.83-3.67-.52-3.67-.52Z" style="fill:#263238"></path><path d="M283.83,327.94c-.95,0-2.28-1.13-4.37-3-.41-.37-.82-.74-1.21-1.07a16.35,16.35,0,0,1-2.83-4,11.74,11.74,0,0,0-1.88-2.8c-1.11-.88-3.23-.43-3.26-.42l-.35.07-7.52-13,.25-.27c.55-.6,2.46-2.51,3.7-2.2,1.08.27,8.06,7.72,11,10.91,1,.75,10.83,7.95,11.65,9.86s.29,3.88-.71,4.55A11.64,11.64,0,0,1,283.83,327.94Zm-12.32-12.42a4.28,4.28,0,0,1,2.65.76,11.67,11.67,0,0,1,2.13,3.08,15.94,15.94,0,0,0,2.61,3.76l1.23,1.08c1.29,1.16,3.06,2.74,3.7,2.74a11.09,11.09,0,0,0,3.93-1.23c.55-.37,1-1.68.34-3.33-.54-1.24-7.27-6.49-11.39-9.51-4.62-5-9.86-10.37-10.62-10.69-.39-.09-1.54.75-2.44,1.66l6.78,11.75A9.58,9.58,0,0,1,271.51,315.52Z" style="fill:#263238"></path><path d="M262.77,321.42c-.53,0-5.21-.41-6.31-1s-.09-3.54,1.08-5.88l.89.44c-1,2.05-1.71,4.18-1.48,4.58a33.55,33.55,0,0,0,5.89.82Z" style="fill:#263238"></path><path d="M265.19,324.51a3.9,3.9,0,0,1-2.13-.56c-1.72-1.09.64-5.19,1.4-6.42l.85.53c-1.29,2.08-2.3,4.68-1.72,5.05a3.94,3.94,0,0,0,3,.2l.32.95A5.69,5.69,0,0,1,265.19,324.51Z" style="fill:#263238"></path><path d="M265.46,332.09a2.8,2.8,0,0,1-1.33-.31c-1.73-.94-.39-4.8-.1-5.56l.93.35c-.58,1.58-1,4-.35,4.33,1,.53,2.7-.19,3.29-.52l.49.88A7,7,0,0,1,265.46,332.09Z" style="fill:#263238"></path><path d="M267.58,341a4.13,4.13,0,0,1-2.17-.53,1.9,1.9,0,0,1-.94-1.34,2.74,2.74,0,0,1,.29-1.53,7.38,7.38,0,0,1-3.45-.22,1.26,1.26,0,0,1-.76-.85c-.39-1.35,1.14-3.63,1.45-4.07l.82.57c-.66.94-1.5,2.56-1.31,3.22a.28.28,0,0,0,.18.2c1.4.58,4,0,4,0l1.52-.36-1,1.17a2.68,2.68,0,0,0-.72,1.74.88.88,0,0,0,.47.63c1.22.75,3.29.23,4,0l.36.94A8.57,8.57,0,0,1,267.58,341Z" style="fill:#263238"></path><path d="M266,348.52a2.63,2.63,0,0,1-1.41-.34,1.18,1.18,0,0,1-.61-1c0-1.49,3-3.49,3.59-3.87l.54.84c-1.51,1-3.14,2.4-3.13,3,0,0,0,.09.13.17,1.06.65,4-.46,5.63-1.32l.46.88A13.53,13.53,0,0,1,266,348.52Z" style="fill:#263238"></path><path d="M265,354.17a3.72,3.72,0,0,1-2.37-.69,1.3,1.3,0,0,1-.52-1.13,3.25,3.25,0,0,1,1.28-1.89,6.22,6.22,0,0,1-3.9-1.28,1.52,1.52,0,0,1-.56-1.36c.23-1.89,4.12-3.93,4.57-4.16l.45.89c-1.49.77-3.9,2.36-4,3.39a.52.52,0,0,0,.22.48c1.75,1.51,4.89.94,4.92.93l2.94-.56-2.59,1.48c-.9.52-2.25,1.56-2.3,2.16a.31.31,0,0,0,.15.28c1.2,1,4.33.16,5.28-.43l.53.85A8.91,8.91,0,0,1,265,354.17Z" style="fill:#263238"></path><path d="M216.34,301.44s.81-4.15,2.14-4.15,2.32,1.79,2.32,1.79Z" style="fill:#263238"></path><path d="M215.65,302.37l.2-1c.21-1.07,1-4.56,2.63-4.56s2.71,2,2.76,2l.25.45Zm2.83-4.58c-.4,0-1,1.19-1.4,2.7l3-1.6A2.4,2.4,0,0,0,218.48,297.79Z" style="fill:#263238"></path><polygon points="255.99 356.59 255.47 360.64 253.37 358.69 255.99 356.59" style="fill:#263238"></polygon><path d="M255.84,361.67l-3.24-3,4-3.23Zm-1.71-2.95,1,.9.24-1.87Z" style="fill:#263238"></path><path d="M204.3,364.91a28.49,28.49,0,0,1-14.45-3.62l.54-.84a28.12,28.12,0,0,0,13.91,3.46Z" style="fill:#263238"></path><path d="M208.41,364.48a2,2,0,0,1-.4,0l.1-1s2.25.18,8-1.32l.26,1A34.26,34.26,0,0,1,208.41,364.48Z" style="fill:#263238"></path><rect x="233.01" y="336.66" width="13.91" height="1" transform="translate(-138.43 169.6) rotate(-30.68)" style="fill:#263238"></rect><path d="M247.55,356l-.55-.84c.67-.45,7.95-3.86,8.78-4.25l.43.91C253,353.3,248,355.66,247.55,356Z" style="fill:#263238"></path><path d="M235.74,361.32l-.41-.91c4-1.77,9.3-4.21,9.3-4.21l.42.91S239.73,359.55,235.74,361.32Z" style="fill:#263238"></path><path d="M320.78,334.58s4.25-.36,6.33.88c3.06,1.81,9.39,27.52,10.7,34.73A22.22,22.22,0,0,1,335,385.91c-1.74,2.63-2.62,3.94-2,3.72s11.14-2,15.29-5a32,32,0,0,0,9.83-11.79c2.18-4.59,3.49-8.3,1.53-16.38s-5-15.73-11.8-20.53-12.23-6.78-18.13-5.68S320.34,332.4,320.78,334.58Z" style="fill:#c4c4c4"></path><path d="M332.89,390.15a.59.59,0,0,1-.48-.23c-.36-.48-.09-.92,2.14-4.28a21.88,21.88,0,0,0,2.77-15.36c-1.62-8.91-7.84-32.83-10.46-34.39-1.92-1.14-6-.81-6-.81l-.45,0-.08-.44a2.09,2.09,0,0,1,.33-1.65c1.05-1.56,4.23-2.42,9-3.31,5.77-1.07,11.31.66,18.51,5.77,7.42,5.26,10.31,13.89,12,20.82,2,8.25.62,12.13-1.56,16.71a32.64,32.64,0,0,1-10,12c-3.56,2.62-11.48,4.26-14.46,4.88l-1,.21A.79.79,0,0,1,332.89,390.15ZM322.19,334a11.23,11.23,0,0,1,5.18,1c3.41,2,9.82,29,10.94,35.07a22.52,22.52,0,0,1-2.92,16.09c-.76,1.14-1.44,2.16-1.81,2.8l.35-.08c2.64-.55,10.68-2.21,14.07-4.71a31.6,31.6,0,0,0,9.68-11.61c2.15-4.53,3.42-8.09,1.49-16-1.64-6.75-4.45-15.16-11.6-20.24-7-4.93-12.27-6.6-17.75-5.59-3.82.71-7.47,1.54-8.38,2.88a1.22,1.22,0,0,0-.19.46Z" style="fill:#263238"></path><path d="M320.78,334.58s-12.4-1.67-32.33,3.5C269.59,343,264,350.53,261.37,357.74s-.44,22.93,5.46,29.27,22.93,11.35,37.13,10.7S333,389.63,333,389.63s7.86-5.46,8.52-11.8-5.25-32.54-7.87-37.78-4.58-5.68-4.58-5.68Z" style="fill:#A6D34D"></path><path d="M301.4,398.27c-13.68,0-29.21-4.77-34.94-10.92-6.07-6.53-8.28-22.31-5.56-29.78,2.55-7,7.8-14.88,27.42-20,19.23-5,31.66-3.61,32.48-3.51l8.32-.21h.06c.23.05,2.28.64,4.93,5.94,2.51,5,8.6,31.48,7.91,38.06s-8.4,11.93-8.73,12.16-15.17,7.52-29.31,8.17Q302.71,398.27,301.4,398.27Zm14-63.44a108,108,0,0,0-26.78,3.73c-19.18,5-24.28,12.58-26.75,19.35-2.57,7.07-.39,22.58,5.36,28.76s23,11.18,36.74,10.54c13.94-.64,28.71-8,28.85-8s7.63-5.37,8.25-11.4-5.08-32-7.81-37.51c-2.22-4.43-3.92-5.28-4.22-5.4l-8.25.22h0A44.51,44.51,0,0,0,315.36,334.83Z" style="fill:#263238"></path><path d="M357.69,350.53A55.94,55.94,0,0,0,370.8,349c7.86-1.75,12.45-5.46,14-5.24s2,1.75,1.1,4.15-4.59,2.4-6.56,3.27-7.42,2-12.23,3.5a37.93,37.93,0,0,1-7.42,1.75Z" style="fill:#263238"></path><path d="M359.3,357,357,350l.72,0a56.53,56.53,0,0,0,13-1.52,45.17,45.17,0,0,0,10.51-3.93c1.79-.89,2.89-1.43,3.64-1.32a2.17,2.17,0,0,1,1.61,1c.52.87.48,2.18-.11,3.81-.71,1.94-2.89,2.48-4.82,3a13.39,13.39,0,0,0-2,.6,45.27,45.27,0,0,1-5.55,1.64c-2.1.54-4.5,1.16-6.74,1.88a37.46,37.46,0,0,1-7.53,1.76Zm-.91-5.92,1.61,4.84a41.52,41.52,0,0,0,6.93-1.68c2.27-.72,4.67-1.34,6.79-1.89a47.67,47.67,0,0,0,5.39-1.58,13.29,13.29,0,0,1,2.17-.66c1.76-.44,3.59-.89,4.12-2.33a3.78,3.78,0,0,0,.19-2.95,1.15,1.15,0,0,0-.89-.54,9.49,9.49,0,0,0-3.06,1.22,45.54,45.54,0,0,1-10.74,4A59.82,59.82,0,0,1,358.39,351Z" style="fill:#263238"></path><path d="M265,380.75c-.83,0-1.58-1.33-2.08-2.5l.92-.4a5.56,5.56,0,0,0,1,1.78,7.17,7.17,0,0,0-.25-2.34,58.26,58.26,0,0,0-2.49-7.94L263,369a61,61,0,0,1,2.54,8.09c.49,2.21.36,3.4-.38,3.64A1,1,0,0,1,265,380.75Z" style="fill:#263238"></path><path d="M353.12,367.82a4.94,4.94,0,0,1-3.44-1.13,1.7,1.7,0,0,1-.52-1.38,2.34,2.34,0,0,1,.51-1.17,6.28,6.28,0,0,1-2.78-.92,1.19,1.19,0,0,1-.49-.93c0-1.25,1.76-2.87,2.12-3.18l.65.76c-.72.63-1.79,1.82-1.77,2.39a.19.19,0,0,0,.09.16,7.09,7.09,0,0,0,3.34.81l1.55,0-1.28.88a2.33,2.33,0,0,0-.94,1.27.67.67,0,0,0,.24.59c1,1,3.3.79,3.32.79l.12,1A4.85,4.85,0,0,1,353.12,367.82Z" style="fill:#263238"></path><path d="M350,373.78a3.76,3.76,0,0,1-2.65-.76,1.09,1.09,0,0,1-.32-1c.31-1.26,3.07-2.27,3.91-2.55l.31.95c-1.47.49-3.12,1.35-3.24,1.84,0,0,0,0,.05.11.73.75,3.44.44,5,.07l.24,1A15.64,15.64,0,0,1,350,373.78Z" style="fill:#263238"></path><path d="M348.32,378.38c-1.38,0-3-.32-3.76-1.32a1.14,1.14,0,0,1-.2-1.13,2.69,2.69,0,0,1,1.37-1.28,5.38,5.38,0,0,1-2.91-1.9,1.38,1.38,0,0,1-.19-1.33c.6-1.54,4.1-2.41,4.79-2.57l.22,1c-1.51.34-3.77,1.18-4.07,1.95a.38.38,0,0,0,.07.4c1.14,1.62,3.88,1.8,3.91,1.8l3,.18-2.86.8c-1,.29-2.21.86-2.36,1.29,0,0,0,.09.06.21.75,1,3.53,1.05,4.48.74l.3.95A6.4,6.4,0,0,1,348.32,378.38Z" style="fill:#263238"></path><path d="M350.28,350.13a4.94,4.94,0,0,1-3.44-1.13,1.7,1.7,0,0,1-.52-1.38,2.3,2.3,0,0,1,.51-1.17,6.28,6.28,0,0,1-2.78-.92,1.19,1.19,0,0,1-.49-.93c0-1.25,1.76-2.87,2.12-3.18l.65.76c-.72.63-1.79,1.82-1.77,2.38a.2.2,0,0,0,.09.17,7.09,7.09,0,0,0,3.34.81l1.55,0-1.28.89a2.33,2.33,0,0,0-.94,1.27.67.67,0,0,0,.24.58c1,1.05,3.3.8,3.32.8l.12,1A4.85,4.85,0,0,1,350.28,350.13Z" style="fill:#263238"></path><path d="M347.2,356.08a3.72,3.72,0,0,1-2.65-.76,1.08,1.08,0,0,1-.32-1c.31-1.26,3.07-2.27,3.91-2.55l.31.95c-1.47.49-3.12,1.34-3.24,1.84,0,0,0,0,.05.11.74.75,3.44.44,5,.06l.24,1A15,15,0,0,1,347.2,356.08Z" style="fill:#263238"></path><path d="M345.48,360.69c-1.38,0-3-.32-3.76-1.32a1.14,1.14,0,0,1-.2-1.13,2.69,2.69,0,0,1,1.37-1.28,5.38,5.38,0,0,1-2.91-1.9,1.38,1.38,0,0,1-.19-1.33c.6-1.54,4.1-2.41,4.79-2.57l.22,1c-1.51.35-3.77,1.19-4.07,2a.38.38,0,0,0,.07.4c1.14,1.62,3.88,1.8,3.91,1.8l3,.18-2.86.8c-1,.29-2.21.86-2.36,1.29,0,0,0,.09.06.21.75,1,3.53,1,4.48.74l.3.95A6.4,6.4,0,0,1,345.48,360.69Z" style="fill:#263238"></path><path d="M266.66,366.45l-1-.1c0-.15,1.7-15.44,21.85-20.72l.25,1C268.28,351.7,266.67,366.3,266.66,366.45Z" style="fill:#263238"></path><rect x="291.41" y="344.9" width="6.04" height="1" transform="translate(-50.89 50.88) rotate(-9.09)" style="fill:#263238"></rect><path d="M280.11,391.22c-5.77-1.44-11.87-6.56-12.13-6.78l.65-.76c.06.05,6.18,5.19,11.73,6.57Z" style="fill:#263238"></path><path d="M300.24,395.31c-11.18,0-17.06-2.78-17.36-2.93l.44-.9c.09,0,8.91,4.21,25.26,2.34l.11,1A75.07,75.07,0,0,1,300.24,395.31Z" style="fill:#263238"></path><path d="M315.12,380.74l-.09-1A123,123,0,0,0,340,375l.32.95A125.34,125.34,0,0,1,315.12,380.74Z" style="fill:#263238"></path><path d="M306.81,381.45l-.18-1a37.4,37.4,0,0,1,5.82-.48v1A36.56,36.56,0,0,0,306.81,381.45Z" style="fill:#263238"></path><path d="M327.13,357.1l-.25-1a56.92,56.92,0,0,1,9.41-1.21l0,1A57.24,57.24,0,0,0,327.13,357.1Z" style="fill:#263238"></path><path d="M127.62,365.37a70.69,70.69,0,0,1,28.76-7.89c16.43-.82,29.74,8.71,36.32,21.53s-2.52,30.93-15,40.75c-9,7.13-23.82,13.15-38.12,11.84S127.62,365.37,127.62,365.37Z" style="fill:#A6D34D"></path><path d="M143.68,432.28c-1.36,0-2.73-.06-4.11-.19C125,430.75,127,368,127.12,365.35v-.28l.24-.13a72,72,0,0,1,29-8c15.4-.78,29.49,7.59,36.78,21.8,6.73,13.13-2.38,31.34-15.09,41.38C170.68,426,157.62,432.28,143.68,432.28Zm-15.57-66.61c-.14,4.65-1.65,64.21,11.56,65.43,15.14,1.39,29.81-5.45,37.76-11.73,12.12-9.57,21.23-27.63,14.82-40.13-7.11-13.86-20.83-22-35.84-21.26A71.36,71.36,0,0,0,128.11,365.67Z" style="fill:#263238"></path><path d="M148.49,398.89s.53,12.81.26,21.13-2.68,11.81-2.68,11.81l-4.57-.27S149.84,409.44,148.49,398.89Z" style="fill:#263238"></path><path d="M146.32,432.34,140.8,432l.24-.64c.07-.19,6.65-17.78,7.08-28.85-.07-2.16-.13-3.57-.13-3.62l1-.08a23.8,23.8,0,0,1,.13,3.75c.14,4.43.31,12,.13,17.46-.27,8.37-2.67,11.92-2.77,12.07Zm-4.11-1.24,3.59.21c.5-.9,2.23-4.43,2.45-11.31.1-3.12.09-6.9,0-10.39A147,147,0,0,1,142.21,431.1Z" style="fill:#263238"></path><path d="M118.58,360.28s-6.57.65-10,4.76-7.56,14.13-8.38,21.86-1.48,9.86-1.48,9.86a52.93,52.93,0,0,0,1.64,9.86c1.48,5.75,3,7.56,3,7.56a43.12,43.12,0,0,0,12.66,14c8.38,5.76,11.66,8.55,16.43,7.73s8.38-1.15,10.84-6.41,5.26-19.23,5.26-30.57-7.39-23.17-11.5-28.75S124.17,358.47,118.58,360.28Z" style="fill:#c4c4c4"></path><path d="M130.81,436.51c-3.67,0-6.88-2.23-12.54-6.16-.81-.56-1.67-1.16-2.6-1.79a44.21,44.21,0,0,1-12.79-14.11c-.24-.32-1.64-2.32-3-7.71a52.21,52.21,0,0,1-1.66-10v-.09l0-.08s.66-2.22,1.46-9.77c.86-8.1,5.17-18.16,8.5-22.12s9.61-4.86,10.3-4.94c6-1.88,15,4.73,18.91,10.06,3.49,4.74,11.6,17.07,11.6,29.05,0,11.47-2.79,25.43-5.3,30.78s-6,5.8-10.44,6.56l-.78.13A9.57,9.57,0,0,1,130.81,436.51ZM99.2,396.81a54,54,0,0,0,1.63,9.68c1.42,5.53,2.85,7.35,2.86,7.37l.06.09a42.94,42.94,0,0,0,12.49,13.78l2.6,1.8c6.47,4.49,9.43,6.54,13.46,5.85l.78-.14c4.34-.73,7.48-1.26,9.7-6C145.24,424,148,409.9,148,398.89c0-11.69-8-23.79-11.4-28.46-4.35-5.9-12.74-11.33-17.85-9.68l-.11,0c-.06,0-6.41.69-9.69,4.59S101.52,379,100.68,387A69.58,69.58,0,0,1,99.2,396.81Z" style="fill:#263238"></path><path d="M127.43,424.86a6.53,6.53,0,0,1-3.35-.89,11.09,11.09,0,0,1-3.8-3.8l.88-.48a10.22,10.22,0,0,0,3.43,3.42,5.75,5.75,0,0,0,4.16.6,1.66,1.66,0,0,0,.85-.4,10.22,10.22,0,0,0-2.15-2.52l.68-.74c.74.69,2.46,2.39,2.46,3.33a1.1,1.1,0,0,1-.69.95A5.24,5.24,0,0,1,127.43,424.86Z" style="fill:#263238"></path><path d="M129.75,428.71a4.58,4.58,0,0,1-.91-.08,2.89,2.89,0,0,1-2.21-2.58l1-.09-.5.05.5-.05a1.92,1.92,0,0,0,1.41,1.69c1.44.3,5.11-.51,5.63-1.08a4,4,0,0,0-1.4-1.45l.53-.85a4.79,4.79,0,0,1,1.86,2.07.87.87,0,0,1-.21.86C134.67,428.08,131.6,428.71,129.75,428.71Z" style="fill:#263238"></path><path d="M135.84,424.46a11,11,0,0,1-4.69-1.47l.51-.86c.94.55,3.73,1.84,5.28,1.12a2.67,2.67,0,0,0,1.49-2.62c0-.23-.13-.77-.56-.87l.21-1a1.84,1.84,0,0,1,1.35,1.75,3.68,3.68,0,0,1-2.07,3.63A3.53,3.53,0,0,1,135.84,424.46Z" style="fill:#263238"></path><path d="M121.88,426.65a4.56,4.56,0,0,1-1.67-.34,11.43,11.43,0,0,1-4.32-3.28l.79-.61a10.66,10.66,0,0,0,3.9,3c2,.82,3-.43,3-.48l.82.57A3.12,3.12,0,0,1,121.88,426.65Z" style="fill:#263238"></path><path d="M127.61,432.17a3.49,3.49,0,0,1-.76-.09c-2.28-.52-4.77-3.66-4.88-3.79l.79-.62s2.38,3,4.32,3.44c1.75.41,2.86-1.35,2.91-1.42l.26-.42.42.25a8,8,0,0,0,3.69.92,5.61,5.61,0,0,0,3.59-1.5l.23-.23.3.12c.07,0,1.76.64,2.52-.61l.86.51a3,3,0,0,1-3.44,1.13,6.54,6.54,0,0,1-4.06,1.58,9,9,0,0,1-3.79-.85A4,4,0,0,1,127.61,432.17Z" style="fill:#263238"></path><path d="M125.51,411.57l-.28,0c-1.92-.35-5.35-3.28-5.49-3.4l.65-.76c.93.8,3.65,2.92,5,3.17,1,.19,2.69-2.23,3.57-4l.9.44C129.48,407.79,127.49,411.57,125.51,411.57Z" style="fill:#263238"></path><path d="M130.16,406.34c-2.84,0-6.46-3-6.64-3.12l.64-.77c1.26,1,5,3.57,6.88,2.72,2.33-1,2.82-5,2.82-5l1,.12c0,.18-.56,4.57-3.42,5.82A3.25,3.25,0,0,1,130.16,406.34Z" style="fill:#263238"></path><path d="M135.11,408.32c-2.48,0-3.27-1.22-3.31-1.27l.84-.54s.76,1,3.31.76,3.17-3.5,3.18-3.54l1,.18c0,.17-.76,4-4.05,4.35A8.21,8.21,0,0,1,135.11,408.32Z" style="fill:#263238"></path><path d="M131.86,414.88c-2.31,0-4.78-2.19-4.9-2.3l.67-.75c.85.76,3.42,2.59,5.05,1.89,2.13-.91,4.19-4.36,4.21-4.4l.86.51c-.09.15-2.25,3.77-4.67,4.81A3.23,3.23,0,0,1,131.86,414.88Z" style="fill:#263238"></path><path d="M120.88,417.83a3.48,3.48,0,0,1-.55,0,9.22,9.22,0,0,1-4.74-2.76,3.91,3.91,0,0,1-4.13.74c-2.13-1.06-3.17-4.1-3.21-4.23l1-.32s1,2.78,2.71,3.66,3.35-.88,3.36-.89l.38-.38.35.4s2.21,2.49,4.46,2.79a3.94,3.94,0,0,0,3.46-1.74l.84.54A5.06,5.06,0,0,1,120.88,417.83Z" style="fill:#263238"></path><path d="M116.41,420.41a3.51,3.51,0,0,1-1.87-.55,18.83,18.83,0,0,1-2.55-1.71l.69-.72a22.56,22.56,0,0,0,2.39,1.58,2.76,2.76,0,0,0,3.33-.42l.7.71A4,4,0,0,1,116.41,420.41Z" style="fill:#263238"></path><path d="M100.34,397.91s-3.45,1.81-4.43,1.81-2.63-1.16-4-3.46-2.95-1.47-5.09.5-3,2.13-2.47,3,2,3.94,2.63,5.09,1,1.15-.16,2.63-2.63,1.15-3.12,3-.33,3.61,1.8,6.24,7.4,3.45,7.4,3.45,3.12-3.45,4.11-4.6a15,15,0,0,0,1.81-4.27s1.64-.17,3.77-.17,3.13-.65,2.31-2.13-1.81-2-1.48-3.78,1.64-3.95,1.15-5.1A4.07,4.07,0,0,0,100.34,397.91Z" style="fill:#263238"></path><path d="M93.14,420.63l-.27,0c-.22,0-5.47-.89-7.7-3.63-2-2.44-2.54-4.38-1.91-6.7a3.08,3.08,0,0,1,1.82-2.05,3.87,3.87,0,0,0,1.39-1.08c.78-1,.78-1,.39-1.64-.08-.13-.17-.27-.26-.43-.34-.59-.87-1.66-1.39-2.7s-1-2-1.23-2.39c-.57-1,.06-1.47,1-2.26.39-.33.9-.75,1.52-1.32,1.25-1.15,2.59-2.19,3.89-2a2.86,2.86,0,0,1,2,1.62c1.33,2.33,2.86,3.19,3.51,3.19a18.39,18.39,0,0,0,4.2-1.75l.1,0a4.55,4.55,0,0,1,4.87,2.43c.38.9,0,2.09-.51,3.36a13.16,13.16,0,0,0-.61,2,2.59,2.59,0,0,0,.7,2.34,11.72,11.72,0,0,1,.72,1.1,1.83,1.83,0,0,1,.16,1.88c-.39.67-1.34,1-2.9,1s-2.8.09-3.39.14a13.78,13.78,0,0,1-1.81,4.13c-1,1.14-4.09,4.57-4.12,4.61Zm-8.37-21.32a.4.4,0,0,0,.06.15c.26.42.75,1.41,1.27,2.46s1.05,2.08,1.37,2.64c.08.15.17.29.24.4.6,1,.64,1.39-.45,2.79a5,5,0,0,1-1.7,1.34,2.14,2.14,0,0,0-1.33,1.44c-.45,1.66-.33,3.28,1.71,5.8,1.73,2.12,5.76,3,6.82,3.22.69-.76,3.09-3.41,3.92-4.38a13.81,13.81,0,0,0,1.7-4.08l.09-.33.35,0c.06,0,1.69-.17,3.82-.17,1.62,0,2-.39,2-.51s0-.6-.17-.88a11.08,11.08,0,0,0-.66-1,3.57,3.57,0,0,1-.88-3.1,13.92,13.92,0,0,1,.66-2.18c.37-1,.76-2.09.53-2.63a3.62,3.62,0,0,0-3.63-1.86c-.7.36-3.59,1.83-4.62,1.83s-2.92-1.14-4.38-3.7a2,2,0,0,0-1.26-1.13c-.9-.13-2.11.86-3.06,1.74-.64.59-1.16,1-1.57,1.36s-.85.7-.87.83Z" style="fill:#263238"></path><path d="M91.75,419a3.61,3.61,0,0,1-1.07-.2l.27-1c.87.25.94.21,1.6-.19l.14-.08a.35.35,0,0,0,.1-.08,16.16,16.16,0,0,0-2.44-2.85l-.23-.25c-2.66-2.82-2.84-3-3.91-3a1.56,1.56,0,0,0-1.34,1l-.93-.35a2.53,2.53,0,0,1,2.27-1.64c1.55,0,2,.5,4.64,3.28l.23.24c2.09,2.22,2.8,3,2.69,3.71a1,1,0,0,1-.56.76l-.14.09A2.43,2.43,0,0,1,91.75,419Z" style="fill:#999"></path><path d="M148.66,425.59h-.18l0-1a54.89,54.89,0,0,0,20.39-4.39l.39.92A56.34,56.34,0,0,1,148.66,425.59Z" style="fill:#263238"></path><path d="M166.59,419.14l-.3-.95a53.52,53.52,0,0,0,10.08-4.6l.52.85A53.77,53.77,0,0,1,166.59,419.14Z" style="fill:#263238"></path><path d="M136.5,366.62l-.38-.92c.51-.21,12.37-4.91,21.22-5.14l0,1C148.7,361.78,136.62,366.58,136.5,366.62Z" style="fill:#263238"></path><path d="M167.21,362a35.44,35.44,0,0,0-6.53-.65v-1a35.57,35.57,0,0,1,6.76.68Z" style="fill:#263238"></path><path d="M261.53,458.7s3.18,3.18,7.11,1.06,2.57-7.86,2.57-7.86Z" style="fill:#263238"></path><path d="M265.89,461a7.36,7.36,0,0,1-4.71-1.93l-.43-.42,10.78-7.58.17.72c.06.25,1.4,6.15-2.82,8.42A6.26,6.26,0,0,1,265.89,461Zm-3.54-2.25a5.45,5.45,0,0,0,6,.58c2.74-1.47,2.64-5,2.45-6.56Z" style="fill:#263238"></path><path d="M201.78,416.5s3.93,18.76,17.85,29.95,22.84,13.92,33.43,13.47,19.06-3,23-15,3.63-21.18-.3-34.94-14.52-24.66-14.52-24.66Z" style="fill:#A6D34D"></path><path d="M250.85,460.46c-9.07,0-17.88-2.64-31.53-13.62-13.9-11.17-18-30-18-30.24l-.08-.37.34-.17,59.78-31.34.25.27c.11.11,10.73,11.14,14.65,24.87,4.08,14.28,4.16,23.5.3,35.24-4.2,12.76-13.75,14.9-23.45,15.32C252.33,460.45,251.59,460.46,250.85,460.46Zm-48.5-43.69c.64,2.66,5,19.2,17.59,29.29,14.52,11.68,23.43,13.77,33.1,13.36,10.79-.47,18.75-3.13,22.54-14.64s3.71-20.58-.31-34.65c-3.52-12.29-12.52-22.41-14.15-24.17Z" style="fill:#263238"></path><path d="M202.66,419a121.44,121.44,0,0,0,16.9-6.18c7.25-3.48,18.52-12.34,26-16.37a68.59,68.59,0,0,0,11.27-7.24l-45.09,23.61-10,3.72Z" style="fill:#263238"></path><path d="M202.34,419.56l-1.2-3.35,10.47-3.89,48.93-25.64-3.34,2.87a69.08,69.08,0,0,1-11.37,7.3c-3.46,1.86-7.83,4.82-12.06,7.68-5,3.35-10.07,6.82-14,8.71a123.87,123.87,0,0,1-17,6.2Zm.08-2.76.55,1.55a119,119,0,0,0,16.38-6c3.85-1.85,8.94-5.29,13.86-8.62,4.25-2.88,8.64-5.86,12.15-7.74,1.7-.91,3.21-1.78,4.53-2.58L212,413.23Z" style="fill:#263238"></path><path d="M209.49,370.82a7.85,7.85,0,0,0-4.08,4.08c-1.06,2.88-1.21,4.24-1.51,4.84s-3.48,2.27-5.15,5.15a43.62,43.62,0,0,0-2.11,3.93s-5.9,3.48-6.51,7.71a38.35,38.35,0,0,0-.15,7.11,10.18,10.18,0,0,0,.15,6.51c1.21,3,2.88,5.75,7.87,6.5a27.81,27.81,0,0,0,10.28-.75l20.58-9.38s31.61-19.06,33-19.82,5-7.56,4.24-12.55a10.06,10.06,0,0,0-5.3-7.11s-6.65-4.24-11.34-3.63a76.78,76.78,0,0,0-9.53,2,14.34,14.34,0,0,0-4.24,0c-3,.31-8.62,1.67-8.62,1.67a14.8,14.8,0,0,0-8.47-.46A23.85,23.85,0,0,0,209.49,370.82Z" style="fill:#c4c4c4"></path><path d="M201,417.37a21.68,21.68,0,0,1-3.08-.22c-5.43-.83-7.11-3.95-8.25-6.82a10.68,10.68,0,0,1-.16-6.84c0-.08,0-.44,0-.79a27.13,27.13,0,0,1,.18-6.24c.58-4.1,5.68-7.41,6.61-8,.17-.38.74-1.53,2.07-3.83a15.46,15.46,0,0,1,4.21-4.36,5.61,5.61,0,0,0,.92-.77,6.21,6.21,0,0,0,.33-1.06,38.37,38.37,0,0,1,1.16-3.72,8.26,8.26,0,0,1,4.3-4.35,24.15,24.15,0,0,1,9.23-4.29,15.62,15.62,0,0,1,8.61.42,84.5,84.5,0,0,1,8.53-1.63,16.39,16.39,0,0,1,4.27,0,77.82,77.82,0,0,1,9.48-1.95c4.81-.62,11.4,3.53,11.68,3.71a10.43,10.43,0,0,1,5.52,7.45c.78,5.12-2.81,12.14-4.48,13.07-1.34.74-32.65,19.62-33,19.81l-20.62,9.4A29.5,29.5,0,0,1,201,417.37Zm21.16-50.66a17.67,17.67,0,0,0-3.49.36,23.42,23.42,0,0,0-8.86,4.14l-.13.07a7.39,7.39,0,0,0-3.8,3.8,34.77,34.77,0,0,0-1.13,3.62,7.29,7.29,0,0,1-.41,1.27c-.14.29-.47.55-1.2,1.11a14.61,14.61,0,0,0-3.95,4.06A43.91,43.91,0,0,0,197.1,389l-.07.15-.14.08c-.06,0-5.7,3.41-6.26,7.36a26.22,26.22,0,0,0-.17,6,3.24,3.24,0,0,1,0,1.17,9.71,9.71,0,0,0,.15,6.16c1.09,2.73,2.56,5.46,7.47,6.2a27.76,27.76,0,0,0,10.08-.74l20.5-9.36c1.24-.75,31.59-19,32.94-19.79,1.05-.59,4.74-7,4-12a9.62,9.62,0,0,0-5-6.73c-.12-.07-6.61-4.17-11.07-3.59a77.13,77.13,0,0,0-9.46,2l-.12,0-.13,0a14.18,14.18,0,0,0-4.07,0c-3,.3-8.5,1.64-8.55,1.65l-.17,0-.16-.07A12.51,12.51,0,0,0,222.16,366.71Z" style="fill:#263238"></path><path d="M206.17,351.91s-7.42,3.18-6.81,4.39,5.6,9.23,6.35,10.59,0,2.72-.6,3.63a6.05,6.05,0,0,0-.91,3.93,2.66,2.66,0,0,0,1.06,1.51,18,18,0,0,1,3.33-3c1.66-1.06,2.72-1.82,2.72-1.82a7.72,7.72,0,0,0,3.33-.91c1.66-.9,2.11-1.66,3-1.81a7.57,7.57,0,0,0,2.73-1.21c.6-.45,1.66-.15,2.11-.91s.61-.91-.75-1.36-5.9-1.51-5.9-1.51-3.33-8.93-5-11.5S206.17,351.91,206.17,351.91Z" style="fill:#263238"></path><path d="M205.37,376.61l-.37-.22a3.17,3.17,0,0,1-1.28-1.8,6.51,6.51,0,0,1,1-4.35c.62-.94,1.18-2,.59-3.11-.32-.57-1.43-2.4-2.61-4.33-1.67-2.73-3.4-5.57-3.76-6.28a.88.88,0,0,1,0-.71c.52-1.44,5.42-3.64,7-4.33a5.08,5.08,0,0,1,3.42-1.18,2.79,2.79,0,0,1,2,1.34c1.53,2.37,4.38,9.84,4.94,11.34,1,.24,4.49,1.07,5.68,1.47.82.27,1.23.47,1.38.87s-.06.74-.3,1.14a2,2,0,0,1-1.59.92,1.81,1.81,0,0,0-.71.21,8,8,0,0,1-2.94,1.3,2.88,2.88,0,0,0-1.16.65,14.43,14.43,0,0,1-1.7,1.11,8.45,8.45,0,0,1-3.4,1c-.33.23-1.29.89-2.63,1.74a17.78,17.78,0,0,0-3.21,2.93Zm3.53-25.34a4.55,4.55,0,0,0-2.41,1l-.13.08c-3.4,1.46-6.4,3.2-6.54,3.79.32.59,2.12,3.53,3.7,6.12,1.24,2,2.3,3.77,2.63,4.36,1,1.75-.19,3.5-.63,4.15a5.66,5.66,0,0,0-.84,3.52,2.37,2.37,0,0,0,.53.95,17.3,17.3,0,0,1,3.11-2.74c1.63-1,2.69-1.8,2.7-1.81l.13-.09h.16a7.28,7.28,0,0,0,3.09-.84,13.53,13.53,0,0,0,1.58-1,3.48,3.48,0,0,1,1.6-.83,7,7,0,0,0,2.5-1.12,2.65,2.65,0,0,1,1.14-.4c.45-.08.71-.13.85-.37s.17-.27.21-.35a4.82,4.82,0,0,0-.69-.28c-1.33-.44-5.81-1.49-5.86-1.5l-.26-.06-.09-.25c0-.09-3.33-8.9-4.94-11.4a1.82,1.82,0,0,0-1.27-.89A1.23,1.23,0,0,0,208.9,351.27Z" style="fill:#263238"></path><path d="M226,396.28c-.51,0-5.8-1.2-6.52-3.37-.65-1.93.39-6.15.44-6.33l1,.24c-.28,1.14-.92,4.4-.46,5.77s5,2.66,5.58,2.69Z" style="fill:#263238"></path><path d="M226.79,388.08c-1.89,0-5-2.16-5-2.18-1.23-.88-.7-4.19-.5-5.19l1,.19c-.34,1.75-.38,3.85.1,4.18,1.42,1,4.11,2.31,4.76,1.95a4.46,4.46,0,0,0,1.46-1.61l.89.45a5.23,5.23,0,0,1-1.86,2A1.55,1.55,0,0,1,226.79,388.08Z" style="fill:#263238"></path><path d="M216.47,391.78a11.11,11.11,0,0,1-5.64-2.13c-1.38-1.21-.24-5.31,0-6.12l1,.29c-.51,1.71-1,4.5-.3,5.08,1.13,1,4.31,2.11,5.29,1.85l.25,1A2.38,2.38,0,0,1,216.47,391.78Z" style="fill:#263238"></path><path d="M217.42,397.91c-1.9,0-5-2.15-5-2.18-1.22-.87-.69-4.19-.5-5.19l1,.19c-.34,1.75-.38,3.85.1,4.19,1.43,1,4.11,2.3,4.76,1.94a4.27,4.27,0,0,0,1.46-1.61l.9.45a5.47,5.47,0,0,1-1.87,2A1.65,1.65,0,0,1,217.42,397.91Z" style="fill:#263238"></path><path d="M207.09,401.62a11.12,11.12,0,0,1-5.64-2.14c-1.38-1.21-.24-5.3,0-6.11l1,.28c-.51,1.71-1,4.5-.3,5.08,1.14,1,4.31,2.11,5.3,1.86l.24,1A2.34,2.34,0,0,1,207.09,401.62Z" style="fill:#263238"></path><path d="M216.6,406.11c-.51,0-5.8-1.2-6.52-3.37-.52-1.55.06-4.59.32-5.81-1.1-.22-3.55-.82-4.59-1.86-1.36-1.36.86-6,1.58-7.39l.88.46c-1.3,2.55-2.32,5.66-1.75,6.23.9.89,3.6,1.51,4.57,1.67l.53.09-.13.53c-.28,1.14-.92,4.39-.46,5.77s5,2.65,5.58,2.68Z" style="fill:#263238"></path><path d="M208.74,411.71a6.94,6.94,0,0,1-3-1.06c-.79,0-3.73,0-4.54-1.47a10.88,10.88,0,0,1-.81-4.21c-.74-.53-3-2.3-3-4.2s1.47-6.61,1.53-6.81l1,.31s-1.48,4.64-1.48,6.5c0,1.39,2,3,2.79,3.51l.23.15v.27a10.69,10.69,0,0,0,.7,4c.45.82,2.73,1,3.77.95H206l.13.09a6.39,6.39,0,0,0,2.61,1Z" style="fill:#263238"></path><path d="M201.07,391.74l-1-.09a16.58,16.58,0,0,1,1.09-4.23c.83-2.07,3.52-2.57,4.57-2.69a5.6,5.6,0,0,1,4.88-5l.19,1a6,6,0,0,0-3,1.63,6.44,6.44,0,0,0-1.11,2.91l0,.44-.44,0s-3.32.17-4.1,2.11A15.41,15.41,0,0,0,201.07,391.74Z" style="fill:#263238"></path><path d="M199.78,414.79a5.49,5.49,0,0,1-.8-.06,6,6,0,0,1-3.54-2.59,4,4,0,0,1-3.53-3.43c-.41-2.58,1.08-5.32,1.58-6.15a9.81,9.81,0,0,1-1-3.91c0-2.19,2.81-4.25,2.93-4.34l.58.81c-.7.51-2.51,2.13-2.51,3.53a9.21,9.21,0,0,0,1,3.7l.14.26-.17.25s-2,3.06-1.59,5.7a3.09,3.09,0,0,0,2.87,2.6l.26,0,.14.22s1.27,2.08,3,2.34a5.42,5.42,0,0,0,3.29-.69l.54.85A6.49,6.49,0,0,1,199.78,414.79Z" style="fill:#263238"></path><path d="M216.57,431.15c-2.63-4.83-7.06-14.11-7.1-14.2l.9-.43c0,.09,4.46,9.35,7.08,14.15Z" style="fill:#263238"></path><path d="M220.55,436.9c-1.45-.73-2.55-3.29-2.67-3.58l.92-.39c.29.7,1.25,2.6,2.2,3.07Z" style="fill:#263238"></path><path d="M234.17,437.48c-9.29-8.85-12.29-18.07-12.32-18.16l1-.3c0,.09,3,9.07,12,17.73Z" style="fill:#263238"></path><path d="M259.92,456.05c-3.39,0-10.71-.39-16.77-3.42l.45-.9c7.76,3.88,18,3.28,18.13,3.27l.06,1C261.69,456,261,456.05,259.92,456.05Z" style="fill:#263238"></path></g></svg>
