<svg xmlns="http://www.w3.org/2000/svg" viewBox="0 0 48 48"><defs><style>.cls-1{fill:#9dcc6b;}.cls-2{fill:#b5e08c;}.cls-3{fill:#7c7d7d;}.cls-4{fill:#dad7e5;}</style></defs><title>Support 24 hour</title><g id="Support_24_hour" data-name="Support 24 hour"><path class="cls-1" d="M10,19V29a2,2,0,0,0,2,2h3a4,4,0,0,1,4,4v8a4,4,0,0,1-4,4,22.38,22.38,0,0,1-4-.17A12,12,0,0,1,1,35V13A12,12,0,0,1,9,1.69,15.75,15.75,0,0,1,15,1a4,4,0,0,1,4,4v8a4,4,0,0,1-4,4H12A2,2,0,0,0,10,19Z"/><path class="cls-1" d="M5.11,4A11.42,11.42,0,0,1,7.92,2.14,12.46,12.46,0,0,0,5.11,4Z"/><path class="cls-2" d="M10,19V29a2,2,0,0,0,2,2h3a4,4,0,0,1,4,4v8a4,4,0,0,1-2,3.43A4,4,0,0,0,18.47,45,21.69,21.69,0,0,1,14,44.83,12,12,0,0,1,4,33V11A11.92,11.92,0,0,1,7.92,2.14C10.6.84,12.89,1,15,1a4,4,0,0,1,4,4v8a4,4,0,0,1-4,4H12A2,2,0,0,0,10,19Z"/><path class="cls-1" d="M11,1.17V10a1,1,0,0,1-2,0V1.69A10.31,10.31,0,0,1,11,1.17Z"/><path class="cls-1" d="M11,38v8.83a10.31,10.31,0,0,1-2-.52V38A1,1,0,0,1,11,38Z"/><path class="cls-3" d="M26,22a3,3,0,0,0-3-3H20a1,1,0,0,0,0,2h3a1,1,0,0,1,1,1c0,.66,0,.5-4.62,4.19C18.92,26.58,19,27,19,28a1,1,0,0,0,1,1h5a1,1,0,0,0,0-2H21.6C24.73,24.49,26,23.92,26,22Z"/><path class="cls-3" d="M34,23V20a1,1,0,0,0-2,0v3H31a1,1,0,0,1-1-1V20a1,1,0,0,0-2,0v2a3,3,0,0,0,3,3h1v3a1,1,0,0,0,2,0V25A1,1,0,0,0,34,23Z"/><path class="cls-3" d="M40,23H39V20a1,1,0,0,0-2,0v8a1,1,0,0,0,2,0V25h1a1,1,0,0,1,1,1v2a1,1,0,0,0,2,0V26A3,3,0,0,0,40,23Z"/><path class="cls-4" d="M24,47a1,1,0,0,1,0-2A21,21,0,0,0,24,3a1,1,0,0,1,0-2,23,23,0,0,1,0,46Z"/></g></svg>