<svg xmlns="http://www.w3.org/2000/svg" viewBox="0 0 48 48"><defs><style>.cls-1{fill:#6fabe6;}.cls-2{fill:#82bcf4;}.cls-3{fill:#5b9ad8;}.cls-4{fill:#fc6;}</style></defs><title>Size guide</title><g id="Size_guide" data-name="Size guide"><path class="cls-1" d="M39,13c-1.08,8.63.07,14.4,1,20H20c1.18-7.09,2-12,1-20l-4,3L13,9c7.39-5.54,7.57-6,9.33-6H37.67c1.77,0,2,.48,9.33,6l-4,7Z"/><path class="cls-2" d="M39,13a57.48,57.48,0,0,0,.67,18H27.11A3.49,3.49,0,0,1,23.67,27a55.21,55.21,0,0,0,.63-12.83,1.82,1.82,0,0,0-2.84-1.37,1.81,1.81,0,0,1-2.56-.52L15.64,7C20,3.77,20.57,3,22.33,3c16.82,0,16.3-.27,17.74.8L47,9l-4,7Z"/><path class="cls-3" d="M36,3A6,6,0,0,1,24,3Z"/><path class="cls-1" d="M34,3a6,6,0,0,1-5,5.91A6,6,0,0,1,24,3Z"/><path class="cls-4" d="M8,5A1,1,0,0,0,8,3H2A1,1,0,0,0,2,5H4V31H2a1,1,0,0,0,0,2H8a1,1,0,0,0,0-2H6V29H8a1,1,0,0,0,0-2H6V24H8a1,1,0,0,0,0-2H6V19H8a1,1,0,0,0,0-2H6V14H8a1,1,0,0,0,0-2H6V9H8A1,1,0,0,0,8,7H6V5Z"/><path class="cls-4" d="M45,38v2H43V38a1,1,0,0,0-2,0v2H38V38a1,1,0,0,0-2,0v2H33V38a1,1,0,0,0-2,0v2H28V38a1,1,0,0,0-2,0v2H23V38a1,1,0,0,0-2,0v2H18V38a1,1,0,0,0-2,0v2H14V38a1,1,0,0,0-2,0v6a1,1,0,0,0,2,0V42H45v2a1,1,0,0,0,2,0V38A1,1,0,0,0,45,38Z"/></g></svg>