<svg xmlns="http://www.w3.org/2000/svg" viewBox="0 0 48 48"><defs><style>.cls-1{fill:#fc6;}.cls-2{fill:#ffde76;}.cls-3{fill:#7c7d7d;}.cls-4{fill:#747575;}.cls-5{fill:#919191;}.cls-6{fill:#dad7e5;}.cls-7{fill:#edebf2;}.cls-8{fill:#374f68;}</style></defs><title>Security password</title><g id="Security_password" data-name="Security password"><path class="cls-1" d="M39,40v5a2,2,0,0,1-2,2H11a2,2,0,0,1-2-2V40Z"/><path class="cls-1" d="M39,23v5H9V23a2,2,0,0,1,2-2H37A2,2,0,0,1,39,23Z"/><path class="cls-2" d="M39,42v2H14a2,2,0,0,1-2-2Z"/><path class="cls-2" d="M39,23v5H12V23a2,2,0,0,1,2-2H37A2,2,0,0,1,39,23Z"/><path class="cls-3" d="M36,13v8H32c0-8.09.61-10.69-2.34-13.66A8,8,0,0,0,16,13v8H12V13a12,12,0,0,1,24,0Z"/><path class="cls-3" d="M36,13v8H32c0-8.09.61-10.69-2.34-13.66A8,8,0,0,0,16,13v8H12V13a12,12,0,0,1,24,0Z"/><path class="cls-4" d="M14,13v8h2V13a8,8,0,0,1,7-7.93A8,8,0,0,0,14,13Z"/><path class="cls-5" d="M23,1.05A12,12,0,0,1,34,13v8h2V13A12,12,0,0,0,23,1.05Z"/><rect class="cls-6" x="2" y="28" width="44" height="12" rx="2"/><path class="cls-7" d="M46,30v8H15A10,10,0,0,1,5,28H44A2,2,0,0,1,46,30Z"/><path class="cls-8" d="M9.23,32.13c-.3.18-.23.21-.23-.13a1,1,0,0,0-2,0c0,.35.06.3-.23.13a1,1,0,0,0-1,1.74c.3.17.29.09,0,.26a1,1,0,0,0,1,1.74c.3-.18.23-.21.23.13a1,1,0,0,0,2,0c0-.35-.06-.3.23-.13a1,1,0,0,0,1-1.74c-.3-.17-.29-.09,0-.26A1,1,0,0,0,9.23,32.13Z"/><path class="cls-8" d="M17.23,32.13c-.3.18-.23.21-.23-.13a1,1,0,0,0-2,0c0,.35.06.3-.23.13a1,1,0,0,0-1,1.74c.3.17.29.09,0,.26a1,1,0,0,0,1,1.74c.3-.18.23-.21.23.13a1,1,0,0,0,2,0c0-.35-.06-.3.23-.13a1,1,0,0,0,1-1.74c-.3-.17-.29-.09,0-.26A1,1,0,0,0,17.23,32.13Z"/><path class="cls-8" d="M33.23,32.13c-.3.18-.23.21-.23-.13a1,1,0,0,0-2,0c0,.35.06.3-.23.13a1,1,0,0,0-1,1.74c.3.17.29.09,0,.26a1,1,0,0,0,1,1.74c.3-.18.23-.21.23.13a1,1,0,0,0,2,0c0-.35-.06-.3.23-.13a1,1,0,0,0,1-1.74c-.3-.17-.29-.09,0-.26A1,1,0,0,0,33.23,32.13Z"/><path class="cls-8" d="M25.23,32.13c-.3.18-.23.21-.23-.13a1,1,0,0,0-2,0c0,.35.06.3-.23.13a1,1,0,0,0-1,1.74c.3.17.29.09,0,.26a1,1,0,0,0,1,1.74c.3-.18.23-.21.23.13a1,1,0,0,0,2,0c0-.35-.06-.3.23-.13a1,1,0,0,0,1-1.74c-.3-.17-.29-.09,0-.26A1,1,0,0,0,25.23,32.13Z"/><path class="cls-8" d="M42.23,34.13c-.3-.17-.29-.09,0-.26a1,1,0,0,0-1-1.74c-.3.18-.23.21-.23-.13a1,1,0,0,0-2,0c0,.35.06.3-.23.13a1,1,0,0,0-1,1.74c.3.17.29.09,0,.26a1,1,0,0,0,.5,1.87c.77,0,.73-.63.73,0a1,1,0,0,0,2,0v-.27C42.58,36.64,43.28,34.74,42.23,34.13Z"/></g></svg>