<svg id="Cashback" xmlns="http://www.w3.org/2000/svg" viewBox="0 0 48 48"><defs><style>.cls-1{fill:#fc6;}.cls-2{fill:#ffde76;}.cls-3{fill:#ffba55;}.cls-4{fill:#84b749;}.cls-5{fill:#9dcc6b;}</style></defs><title>Cashback</title><path class="cls-1" d="M35.66,39A19,19,0,0,1,6.89,32.26s-.36-.84-.39-.87A18.88,18.88,0,0,1,8.69,12.75c.3,0-1.08.06,3.81-.25l-1.93-1.93A19,19,0,1,1,35.66,39Z"/><path class="cls-2" d="M29.93,40.77C13.53,43.33,2,25.06,11.3,11.3c2.43-3.56,4.24-4.58,7.05-5.44a18.52,18.52,0,0,1,4.18-.8,19,19,0,0,1,7.4,35.71Z"/><path class="cls-3" d="M24.73,22H23.34c-3.22,0-2.89-4-.34-4h5.89A2,2,0,1,0,29,14H26V12a2,2,0,0,0-4,0v2.09a6,6,0,0,0-5,6.2A6.18,6.18,0,0,0,23.27,26h1.39c3.22,0,2.89,4,.34,4H19.11A2,2,0,1,0,19,34h3v2a2,2,0,0,0,4,0V33.91a6,6,0,0,0,5-6.2A6.18,6.18,0,0,0,24.73,22Z"/><path class="cls-4" d="M47,25.47A23,23,0,0,1,1,24H5a18.81,18.81,0,0,0,2.3,9A19,19,0,0,0,39.69,34.7c6-8.37,3.84-21-5.84-26.95a19,19,0,0,0-23.28,2.82L12.5,12.5,5,13c.86-6,.19-1.24,1-7L7.74,7.74C22.58-7.1,48.28,4.24,47,25.47Z"/><path class="cls-5" d="M47,25.47A23.11,23.11,0,0,1,33.34,45,23,23,0,0,0,12.83,3.91C28.28-4.87,48.11,7,47,25.47Z"/></svg>