<svg xmlns="http://www.w3.org/2000/svg" viewBox="0 0 48 48"><defs><style>.cls-1{fill:#6fabe6;}.cls-2{fill:#82bcf4;}.cls-3{fill:#f6ccaf;}.cls-4{fill:#edb996;}.cls-5{fill:#edebf2;}.cls-6{fill:#7c7d7d;}</style></defs><title>Shipping product</title><g id="Shipping_product" data-name="Shipping product"><rect class="cls-1" x="1" y="27" width="8" height="20" rx="2"/><path class="cls-2" d="M9,29c0,16.82-.1,16,0,16a5,5,0,0,1-5-5V27H7A2,2,0,0,1,9,29Z"/><path class="cls-3" d="M17,1H35a2,2,0,0,1,2,2V21a2,2,0,0,1-2,2H17a0,0,0,0,1,0,0V1A0,0,0,0,1,17,1Z"/><path class="cls-4" d="M13,1h4a0,0,0,0,1,0,0V23a0,0,0,0,1,0,0H13a2,2,0,0,1-2-2V3A2,2,0,0,1,13,1Z"/><rect class="cls-5" x="24" y="1" width="6" height="6"/><path class="cls-6" d="M23,20H21a1,1,0,0,1,0-2h2A1,1,0,0,1,23,20Z"/><path class="cls-4" d="M47,26,36.38,41.52A8,8,0,0,1,29.78,45H13.83A6.84,6.84,0,0,1,9,43c0-12.22-.06-10.94.14-11.14a9.77,9.77,0,0,1,12.32-1.22c.72.48-.27.36,5.54.36a4,4,0,0,1,4,4v2c1.39-1.61-.34.4,9.56-11.15a4,4,0,0,1,5.44-.6Z"/><path class="cls-3" d="M45.63,25,36.38,38.52A8,8,0,0,1,29.78,42H13.83A6.84,6.84,0,0,1,9,40c0-8.89-.06-7.94.14-8.14a9.77,9.77,0,0,1,12.32-1.22c.72.48-.27.36,5.54.36a4,4,0,0,1,4,4v2c1.39-1.61-.34.4,9.56-11.15A4,4,0,0,1,45.63,25Z"/><path class="cls-4" d="M31,35v2H20a1,1,0,0,1,0-2Z"/></g></svg>