<svg xmlns="http://www.w3.org/2000/svg" viewBox="0 0 48 48"><defs><style>.cls-1{fill:#6fabe6;}.cls-2{fill:#82bcf4;}.cls-3{fill:#9dcc6b;}.cls-4{fill:#b5e08c;}.cls-5{fill:#dad7e5;}.cls-6{fill:#edebf2;}.cls-7{fill:#84b749;}.cls-8{fill:#f26674;}.cls-9{fill:#ffde76;}.cls-10{fill:#fc6;}</style></defs><title>Payment methode</title><g id="Payment_methode" data-name="Payment methode"><path class="cls-1" d="M47,7V23a2,2,0,0,1-2,2H15a2,2,0,0,1-2-2V7Z"/><path class="cls-2" d="M47,7V23H32A16.05,16.05,0,0,1,16,7Z"/><path class="cls-3" d="M41,25V47H1V23H13a2,2,0,0,0,2,2Z"/><path class="cls-4" d="M41,27V45H26A22,22,0,0,1,4,23h7v2a2,2,0,0,0,2,2Z"/><path class="cls-5" d="M47,3V7H13V3a2,2,0,0,1,2-2H45A2,2,0,0,1,47,3Z"/><path class="cls-6" d="M47,3V7H16V3a2,2,0,0,1,2-2H45A2,2,0,0,1,47,3Z"/><path class="cls-7" d="M22,34H20a1,1,0,0,1,0-2h4a1,1,0,0,0,0-2H22V29a1,1,0,0,0-2,0v1a3,3,0,0,0,0,6h2a1,1,0,0,1,0,2H18a1,1,0,0,0,0,2h2v1a1,1,0,0,0,2,0V40a3,3,0,0,0,0-6Z"/><path class="cls-7" d="M12,36H8a1,1,0,0,1,0-2h4A1,1,0,0,1,12,36Z"/><path class="cls-7" d="M34,36H30a1,1,0,0,1,0-2h4A1,1,0,0,1,34,36Z"/><path class="cls-5" d="M41,41v6H35A6,6,0,0,1,41,41Z"/><path class="cls-6" d="M41,41v4H35.35A6,6,0,0,1,41,41Z"/><path class="cls-5" d="M41,25v4a6,6,0,0,1-5.65-4Z"/><path class="cls-6" d="M41,27v2a6,6,0,0,1-4.46-2Z"/><path class="cls-5" d="M7,23a6,6,0,0,1-6,6V23Z"/><path class="cls-6" d="M7,23a6,6,0,0,1-2.46,4.84A21.5,21.5,0,0,1,4,23Z"/><path class="cls-5" d="M7,47H1V41A6,6,0,0,1,7,47Z"/><circle class="cls-8" cx="40" cy="18" r="3"/><circle class="cls-9" cx="34" cy="18" r="3"/><rect class="cls-10" x="17" y="11" width="6" height="4" rx="1"/><path class="cls-9" d="M23,12v2a1,1,0,0,1-1,1H18.16A16.06,16.06,0,0,1,17,12.56V12a1,1,0,0,1,1-1h4A1,1,0,0,1,23,12Z"/></g></svg>