<svg xmlns="http://www.w3.org/2000/svg" viewBox="0 0 48 48"><defs><style>.cls-1{fill:#dad7e5;}.cls-2{fill:#edebf2;}.cls-3{fill:#c6c3d8;}.cls-4{fill:#fc6;}.cls-5{fill:#ffde76;}.cls-6{fill:#7c7d7d;}.cls-7{fill:#6fabe6;}</style></defs><title>Wishlist</title><g id="Wishlist"><path class="cls-1" d="M41,5V43H9V5A4,4,0,0,0,5,1H37A4,4,0,0,1,41,5Z"/><path class="cls-2" d="M39,31v1H33V31a3,3,0,0,1,6,0Z"/><path class="cls-2" d="M41,5V31a5,5,0,0,0-10,0v1H27v5.79A32,32,0,0,1,9,9V5A4,4,0,0,0,5,1H37A4,4,0,0,1,41,5Z"/><path class="cls-2" d="M39,31v1H33V31a3,3,0,0,1,6,0Z"/><path class="cls-3" d="M9,5V23H1V5A4,4,0,1,1,9,5Z"/><path class="cls-1" d="M7,5V23H1V5A4,4,0,0,1,4,1.13,4,4,0,0,1,7,5Z"/><path class="cls-4" d="M47,31V45a2,2,0,0,1-2,2H31a2,2,0,0,1-2-2V31Z"/><path class="cls-5" d="M47,31V45H46A14,14,0,0,1,32,31Z"/><path class="cls-6" d="M41,34V30a3,3,0,0,0-6,0v4a1,1,0,0,1-2,0V30a5,5,0,0,1,10,0v4A1,1,0,0,1,41,34Z"/><path class="cls-7" d="M15,10a1,1,0,0,0,0-2A1,1,0,0,0,15,10Z"/><path class="cls-7" d="M15,20a1,1,0,0,0,0,2A1,1,0,0,0,15,20Z"/><path class="cls-7" d="M15,26a1,1,0,0,0,0,2A1,1,0,0,0,15,26Z"/><path class="cls-7" d="M15,14a1,1,0,0,0,0,2A1,1,0,0,0,15,14Z"/><path class="cls-6" d="M19,10H35a1,1,0,0,0,0-2H19A1,1,0,0,0,19,10Z"/><path class="cls-6" d="M35,20H19a1,1,0,0,0,0,2H35A1,1,0,0,0,35,20Z"/><path class="cls-6" d="M28,26H19a1,1,0,0,0,0,2h9A1,1,0,0,0,28,26Z"/><path class="cls-6" d="M35,14H19a1,1,0,0,0,0,2H35A1,1,0,0,0,35,14Z"/></g></svg>