<svg xmlns="http://www.w3.org/2000/svg" viewBox="0 0 48 48"><defs><style>.cls-1{fill:#ffba55;}.cls-2{fill:#fc6;}.cls-3{fill:#f16f39;}.cls-4{fill:#f8834b;}.cls-5{fill:#b5e08c;}.cls-6{fill:#9dcc6b;}</style></defs><title>Gift wrapping</title><g id="Gift_wrapping" data-name="Gift wrapping"><path class="cls-1" d="M47,7V41H7a6,6,0,0,0,6-6V7Z"/><circle class="cls-1" cx="7" cy="35" r="6"/><path class="cls-2" d="M13,7V35A6,6,0,0,0,1,35V7A6,6,0,0,1,13,7Z"/><path class="cls-3" d="M13,7V35A6,6,0,0,0,1,35V7A6,6,0,0,1,13,7Z"/><path class="cls-4" d="M13,7V35a6,6,0,0,0-6-6,2.86,2.86,0,0,1-3-2.81V7A6,6,0,0,1,8.5,1.2,6,6,0,0,1,13,7Z"/><path class="cls-2" d="M47,7V38H43V34h2V28H37a4,4,0,0,0,4-4V22H37a4,4,0,0,0-4,4,4,4,0,0,0-4-4H25v2a4,4,0,0,0,4,4H21v6h2v4H12.19c1.11-1.88.81-.84.81-31Z"/><rect class="cls-3" x="23" y="27" width="24" height="6"/><path class="cls-4" d="M47,27v4H30a4,4,0,0,1-4-4Z"/><rect class="cls-3" x="25" y="33" width="20" height="14"/><path class="cls-4" d="M45,35V45H36c-7.7,0-10.14-10-6-10Z"/><path class="cls-5" d="M39,21h4a0,0,0,0,1,0,0v2a4,4,0,0,1-4,4H35a0,0,0,0,1,0,0V25A4,4,0,0,1,39,21Z"/><path class="cls-6" d="M35,25v2H31a4,4,0,0,1-4-4V21h4A4,4,0,0,1,35,25Z"/><path class="cls-5" d="M35,25v2H33a4,4,0,0,1-4-4V21h2A4,4,0,0,1,35,25Z"/><rect class="cls-6" x="32" y="27" width="6" height="6"/><rect class="cls-5" x="32" y="27" width="6" height="4"/><rect class="cls-6" x="33" y="33" width="4" height="14"/><path class="cls-5" d="M37,35V45a9.18,9.18,0,0,1-4-.58V35Z"/><circle class="cls-3" cx="7" cy="35" r="2"/></g></svg>