<svg xmlns="http://www.w3.org/2000/svg" viewBox="0 0 48 48"><defs><style>.cls-1{fill:#9dcc6b;}.cls-2{fill:#b5e08c;}.cls-3{fill:#fc6;}.cls-4{fill:#ffde76;}.cls-5{fill:#edebf2;}.cls-6{fill:#84b749;}</style></defs><title>Discount price tag</title><g id="Discount_price_tag" data-name="Discount price tag"><path class="cls-1" d="M47,11.83c0-1.11-.14-1-6-6.83H31l-5.41,5.41C24.75,11.25,25,9.93,25,35l2,2-2,2v6a2,2,0,0,0,2,2H45a2,2,0,0,0,2-2V39l-2-2,2-2ZM36,9a3,3,0,1,1-3,3A3,3,0,0,1,36,9Z"/><path class="cls-2" d="M47,11.83c0-1.11-.14-1-6-6.83H34l-5.41,5.41C27.75,11.25,28,9.93,28,35l2,2-2,2a6,6,0,0,0,6,6H47V39l-2-2,2-2ZM36,15a3,3,0,1,1,3-3A3,3,0,0,1,36,15Z"/><path class="cls-3" d="M31,5c-5.64,5.64-6,5.71-6,6.83V27H4a3,3,0,0,1-3-3V8A3,3,0,0,1,4,5Z"/><path class="cls-4" d="M29,5c-5.66,5.66-6,5.71-6,6.83C23,25.71,22.9,25,23,25,13.24,25,4,17.56,4,5Z"/><path class="cls-4" d="M35,12V1a1,1,0,0,1,2,0V12A1,1,0,0,1,35,12Z"/><path class="cls-5" d="M17,22c-.6,0,.1.51-10.71-10.29a1,1,0,0,1,1.42-1.42l10,10A1,1,0,0,1,17,22Z"/><circle class="cls-5" cx="16" cy="11" r="2"/><circle class="cls-5" cx="8" cy="21" r="2"/><path class="cls-6" d="M36,25a1,1,0,0,1,0-2h2a1,1,0,0,0,0-2H37V20a1,1,0,0,0-2,0v1.18A3,3,0,0,0,36,27a1,1,0,0,1,0,2H34a1,1,0,0,0,0,2h1v1a1,1,0,0,0,2,0V30.82A3,3,0,0,0,36,25Z"/><path class="cls-6" d="M32,36H30a1,1,0,0,0,0,2h2A1,1,0,0,0,32,36Z"/><path class="cls-6" d="M37,36H35a1,1,0,0,0,0,2h2A1,1,0,0,0,37,36Z"/><path class="cls-6" d="M42,36H40a1,1,0,0,0,0,2h2A1,1,0,0,0,42,36Z"/></g></svg>