<svg xmlns="http://www.w3.org/2000/svg" viewBox="0 0 48 48"><defs><style>.cls-1{fill:#9dcc6b;}.cls-2{fill:#f6ccaf;}.cls-3{fill:#6fabe6;}.cls-4{fill:#b5e08c;}.cls-5{fill:#82bcf4;}.cls-6{fill:#dad7e5;}.cls-7{fill:#ffde76;}.cls-8{fill:#f8834b;}.cls-9{fill:#edebf2;}.cls-10{fill:#ffdec7;}</style></defs><title>Card payment</title><g id="Card_payment" data-name="Card payment"><path class="cls-1" d="M23.59,24.59C21.93,26.2,23.84,31,28,31h2v2a2,2,0,0,1-2,2H10a2,2,0,0,1-2-2V3a2,2,0,0,1,2-2H28a2,2,0,0,1,2,2V24C25,24,24.37,23.78,23.59,24.59Z"/><path class="cls-2" d="M38,19.16c0,20.09.3,17.93-1,21.84-20,0-17.85.21-18.34-.5A10,10,0,0,1,17,35H28a2,2,0,0,0,2-2V31H28c-5.1,0-6.63-7-3-7h5V12l4.11,1.54A6,6,0,0,1,38,19.16Z"/><rect class="cls-3" x="16" y="41" width="24" height="6"/><path class="cls-4" d="M26,32h4v1a19,19,0,0,1-16-8.76V1H28a2,2,0,0,1,2,2V24c-5,0-5.94-.32-6.73,1C19.08,25,21.05,32,26,32Z"/><path class="cls-5" d="M40,41v4H23a4,4,0,0,1-4-4Z"/><path class="cls-6" d="M14,1V35H10a2,2,0,0,1-2-2V3a2,2,0,0,1,2-2Z"/><circle class="cls-7" cx="23" cy="14" r="3"/><circle class="cls-8" cx="23" cy="8" r="3"/><path class="cls-9" d="M14,1V24.24c-3.77-5.86-3-10-3-23.24Z"/><path class="cls-10" d="M38,19.16C38,38,38.12,37.29,37.64,39H24.13a4.19,4.19,0,0,1-3.58-2H30a2,2,0,0,0,2-2V24h1a1,1,0,0,0,0-2H32V12.75l2.11.79A6,6,0,0,1,38,19.16Z"/><path class="cls-10" d="M38,24v7H28c-4.16,0-6.07-4.8-4.41-6.41C24.38,23.78,24.13,24,38,24Z"/></g></svg>