<svg xmlns="http://www.w3.org/2000/svg" viewBox="0 0 48 48"><defs><style>.cls-1{fill:#7c7d7d;}.cls-2{fill:#f6ccaf;}.cls-3{fill:#edb996;}.cls-4{fill:#edebf2;}</style></defs><title>Replacement product</title><g id="Replacement_product" data-name="Replacement product"><path class="cls-1" d="M45.29,19.29,44,20.59V15a5,5,0,0,0-5-5H31a1,1,0,0,0,0,2h8a3,3,0,0,1,3,3v5.59l-1.29-1.3a1,1,0,0,0-1.42,1.42c4.4,4.4,3,4.38,7.42,0A1,1,0,0,0,45.29,19.29Z"/><path class="cls-1" d="M14.71,33.29a1,1,0,0,0-1.42,1.42L14.59,36H9a3,3,0,0,1-3-3V25a1,1,0,0,0-2,0v8a5,5,0,0,0,5,5h5.59l-1.3,1.29a1,1,0,0,0,1.42,1.42C19.09,36.32,19.13,37.72,14.71,33.29Z"/><path class="cls-2" d="M27,27H45a2,2,0,0,1,2,2V45a2,2,0,0,1-2,2H27a0,0,0,0,1,0,0V27A0,0,0,0,1,27,27Z"/><path class="cls-3" d="M23,27h4a0,0,0,0,1,0,0V47a0,0,0,0,1,0,0H23a2,2,0,0,1-2-2V29A2,2,0,0,1,23,27Z"/><rect class="cls-4" x="34" y="27" width="6" height="6"/><path class="cls-1" d="M33,44H31a1,1,0,0,1,0-2h2A1,1,0,0,1,33,44Z"/><path class="cls-2" d="M27,3V19a2,2,0,0,1-2,2H7V1H25A2,2,0,0,1,27,3Z"/><path class="cls-3" d="M7,1V21H3a2,2,0,0,1-2-2V3A2,2,0,0,1,3,1Z"/><rect class="cls-4" x="14" y="1" width="6" height="6"/><path class="cls-1" d="M13,18H11a1,1,0,0,1,0-2h2A1,1,0,0,1,13,18Z"/></g></svg>