<svg xmlns="http://www.w3.org/2000/svg" viewBox="0 0 48 48"><defs><style>.cls-1{fill:#dad7e5;}.cls-2{fill:#db5669;}.cls-3{fill:#7c7d7d;}.cls-4{fill:#f26674;}.cls-5{fill:#919191;}.cls-6{fill:#c4455e;}.cls-7{fill:#edebf2;}</style></defs><title>Empty shopping basket</title><g id="Empty_shopping_basket" data-name="Empty shopping basket"><path class="cls-1" d="M46.12,22.12C44.89,23.35,45.24,23,24,23a4,4,0,0,0,3.45-6H44A3,3,0,0,1,46.12,22.12Z"/><path class="cls-1" d="M24,23H4a3,3,0,0,1,0-6H20.54A4,4,0,0,0,24,23Z"/><path class="cls-2" d="M44,23c-2.41,17.68-2.14,18.36-3.78,20a6,6,0,0,1-4.46,2H12.24a6,6,0,0,1-5.95-5.19L4,23Z"/><path class="cls-3" d="M24,23a4,4,0,0,1-3-6.64V6a3,3,0,0,1,5.12-2.12c1.18,1.18.88,1.3.88,12.48A4,4,0,0,1,24,23Z"/><path class="cls-4" d="M43.73,25c-2.12,15.55-1.9,16.39-3.51,18H28A20.49,20.49,0,0,1,8.12,27.49,2,2,0,0,1,10.06,25Z"/><path class="cls-5" d="M27.64,20.64A4,4,0,0,1,23,14.36c0-11.08-.06-10.6.13-11.23a3,3,0,0,1,3,.75c1.18,1.18.88,1.3.88,12.48A4,4,0,0,1,27.64,20.64Z"/><path class="cls-6" d="M15,30v8a2,2,0,0,1-4,0c0-8.74-.09-8.38.26-9A2,2,0,0,1,15,30Z"/><path class="cls-2" d="M13,31c0,8.74.09,8.38-.26,9A2,2,0,0,1,11,38c0-8.74-.09-8.38.26-9A2,2,0,0,1,13,31Z"/><path class="cls-6" d="M26,30v8a2,2,0,0,1-4,0c0-8.74-.09-8.38.26-9A2,2,0,0,1,26,30Z"/><path class="cls-2" d="M24,31c0,8.74.09,8.38-.26,9A2,2,0,0,1,22,38c0-8.74-.09-8.38.26-9A2,2,0,0,1,24,31Z"/><path class="cls-6" d="M37,30v8a2,2,0,0,1-4,0c0-8.74-.09-8.38.26-9A2,2,0,0,1,37,30Z"/><path class="cls-2" d="M35,31c0,8.74.09,8.38-.26,9A2,2,0,0,1,33,38c0-8.74-.09-8.38.26-9A2,2,0,0,1,35,31Z"/><path class="cls-7" d="M19,17c0,.62,0,.19-.46,1a4,4,0,0,0-.41,3H8a4,4,0,0,1-4-4Z"/><path class="cls-7" d="M46.82,21H27.46a4,4,0,0,0,0-4H44A3,3,0,0,1,46.82,21Z"/></g></svg>