<svg xmlns="http://www.w3.org/2000/svg" viewBox="0 0 48 48"><defs><style>.cls-1{fill:#dad7e5;}.cls-2{fill:#edebf2;}.cls-3{fill:#fc6;}.cls-4{fill:#ffde76;}.cls-5{fill:#7c7d7d;}.cls-6{fill:#919191;}.cls-7{fill:#747575;}</style></defs><title>Event sale promotion</title><g id="Event_sale_promotion" data-name="Event sale promotion"><path class="cls-1" d="M9,31v6H7a3,3,0,0,1,0-6Z"/><path class="cls-2" d="M7.17,31C7,31.62,7,31.75,7,35a3,3,0,0,1-2.82-2A3,3,0,0,1,7.17,31Z"/><path class="cls-3" d="M44,3V17a2,2,0,0,1-2,2H40l-8,6V19H6a2,2,0,0,1-2-2V3A2,2,0,0,1,6,1H42A2,2,0,0,1,44,3Z"/><path class="cls-4" d="M18,9.85,17.19,12h1.62ZM42,1H7a15.84,15.84,0,0,0,.88,5.22C8.58,5.93,8.86,6,12,6a1,1,0,0,1,0,2c-3.37,0-3.12,0-3.34.06A14.2,14.2,0,0,0,9.79,10,3,3,0,0,1,13,13.43c.39.32.8.62,1.22.9C17.26,6.11,17.06,6,18,6s.73.1,3.94,8.65A1,1,0,0,1,21,16c-.85,0-.95-.68-1.44-2H16.44l-.5,1.35C20,17.34,21.84,17,33,17a2,2,0,0,1,2,2v3.75L40,19h2a2,2,0,0,0,2-2V3A2,2,0,0,0,42,1ZM29,16H24a1,1,0,0,1-1-1V7a1,1,0,0,1,2,0v7h4A1,1,0,0,1,29,16Zm7-6a1,1,0,0,1,0,2H33v2h4a1,1,0,0,1,0,2H32a1,1,0,0,1-1-1V7a1,1,0,0,1,1-1h5a1,1,0,0,1,0,2H33v2ZM17.19,12h1.62L18,9.85ZM18,9.85,17.19,12h1.62Z"/><path class="cls-2" d="M11,7h3a1,1,0,0,0,0-2H11a3,3,0,0,0,0,6h1a1,1,0,0,1,0,2H9a1,1,0,0,0,0,2h3a3,3,0,0,0,0-6H11A1,1,0,0,1,11,7Z"/><path class="cls-2" d="M20.94,5.65a1,1,0,0,0-1.88,0l-3,8a1,1,0,0,0,1.88.7l.5-1.35h3.12l.5,1.35a1,1,0,0,0,1.88-.7ZM19.19,11,20,8.85,20.81,11Z"/><path class="cls-2" d="M31,13H27V6a1,1,0,0,0-2,0v8a1,1,0,0,0,1,1h5A1,1,0,0,0,31,13Z"/><path class="cls-2" d="M39,13H35V11h3a1,1,0,0,0,0-2H35V7h4a1,1,0,0,0,0-2H34a1,1,0,0,0-1,1v8a1,1,0,0,0,1,1h5A1,1,0,0,0,39,13Z"/><polygon class="cls-1" points="28 25 28 43 18 39 18 29 28 25"/><polygon class="cls-2" points="28 25 28 41 18 37 18 29 28 25"/><path class="cls-5" d="M18,29V39c-7.38,0-7.24,0-7.8-.11h0A3,3,0,0,1,8,36V32a3,3,0,0,1,3-3Z"/><path class="cls-6" d="M18,29v8c-3.86,0-5.8,0-5.8-.12A3,3,0,0,1,10,34c0-4.37,0-4.29.13-4.87C10.73,29,10.27,29,18,29Z"/><path class="cls-7" d="M15,39v6.34a1.67,1.67,0,0,1-3.29.36L10.2,38.89C10.77,39.05,10.77,39,15,39Z"/><path class="cls-5" d="M15,41v4.34A1.66,1.66,0,0,1,13.55,47L12.2,40.89A10.59,10.59,0,0,0,15,41Z"/><path class="cls-2" d="M38,35H34a1,1,0,0,1,0-2h4A1,1,0,0,1,38,35Z"/><path class="cls-2" d="M32.24,30.76a1,1,0,0,1-.7-1.71l2.82-2.83a1,1,0,0,1,1.42,1.42C32.71,30.7,32.8,30.76,32.24,30.76Z"/><path class="cls-2" d="M35.07,42.07c-.55,0-.46,0-3.53-3.12A1,1,0,0,1,33,37.54l2.83,2.82A1,1,0,0,1,35.07,42.07Z"/></g></svg>