<svg xmlns="http://www.w3.org/2000/svg" viewBox="0 0 48 48"><defs><style>.cls-1{fill:#db5669;}.cls-2{fill:#f26674;}.cls-3{fill:#dad7e5;}.cls-4{fill:#edebf2;}.cls-5{fill:#c6c3d8;}.cls-6{fill:#c4455e;}.cls-7{fill:#fc6;}.cls-8{fill:#ffde76;}.cls-9{fill:#6fabe6;}.cls-10{fill:#82bcf4;}</style></defs><title>Store</title><g id="Store"><path class="cls-1" d="M38,4V7H10V4a1,1,0,0,1,1-1H37A1,1,0,0,1,38,4Z"/><path class="cls-2" d="M38,4V5H15a2,2,0,0,1-2-2H37A1,1,0,0,1,38,4Z"/><polygon class="cls-1" points="44 17 36 17 32 7 38 7 44 17"/><polygon class="cls-3" points="36 17 28 17 26 7 32 7 36 17"/><polygon class="cls-1" points="28 17 20 17 22 7 26 7 28 17"/><path class="cls-3" d="M22,7,20,17H12c1.92-4.81,2.11-5.26,4-10Z"/><polygon class="cls-1" points="16 7 12 17 4 17 10 7 16 7"/><path class="cls-2" d="M16,7l-2.4,6A6.49,6.49,0,0,1,14,7Z"/><path class="cls-4" d="M22,7c-2.22,11.11-1.85,10-2.34,10a6.55,6.55,0,0,1-6.06-4L16,7Z"/><polygon class="cls-2" points="28 17 20 17 22 7 26 7 28 17"/><polygon class="cls-4" points="36 17 28 17 26 7 32 7 36 17"/><polygon class="cls-2" points="44 17 36 17 32 7 38 7 44 17"/><path class="cls-1" d="M28,17v2a4,4,0,0,1-8,0V17Z"/><path class="cls-5" d="M20,17v2a4,4,0,0,1-8,0V17Z"/><path class="cls-6" d="M12,17v2a4,4,0,0,1-8,0V17Z"/><path class="cls-3" d="M36,17v2a4,4,0,0,1-8,0V17Z"/><path class="cls-1" d="M44,17c0,1.91.31,4.13-2,5.46A4,4,0,0,1,36,19V17Z"/><path class="cls-7" d="M42,22.46V45H6V22.46A4,4,0,0,0,12,19a4,4,0,0,0,8,0,4,4,0,0,0,8,0,4,4,0,0,0,8,0A4,4,0,0,0,42,22.46Z"/><path class="cls-8" d="M42,22.46V43H26A17,17,0,0,1,9,26a5.23,5.23,0,0,1,1-3.52,3.54,3.54,0,0,0,.79-.59,4,4,0,0,0,7.21.58,3.42,3.42,0,0,0,.79-.58,4,4,0,0,0,7.21.58,3.42,3.42,0,0,0,.79-.58,4,4,0,0,0,7.21.58,3.42,3.42,0,0,0,.79-.58A4,4,0,0,0,40.5,24,4.07,4.07,0,0,0,42,22.46Z"/><rect class="cls-3" x="10" y="29" width="10" height="16"/><path class="cls-4" d="M20,29c0,14.74-.1,14,0,14a8,8,0,0,1-8-8V29Z"/><rect class="cls-9" x="24" y="30" width="14" height="10"/><path class="cls-10" d="M38,30V40H37A10,10,0,0,1,27,30Z"/><rect class="cls-4" x="30" y="30" width="2" height="10"/><path class="cls-9" d="M46,46H2a1,1,0,0,1,0-2H46A1,1,0,0,1,46,46Z"/><path class="cls-4" d="M38,41H24a1,1,0,0,1-1-1V30a1,1,0,0,1,1-1H38a1,1,0,0,1,1,1V40A1,1,0,0,1,38,41ZM25,39H37V31H25Z"/></g></svg>