<svg xmlns="http://www.w3.org/2000/svg" viewBox="0 0 48 48"><defs><style>.cls-1{fill:#7c7d7d;}.cls-2{fill:#919191;}.cls-3{fill:#747575;}.cls-4{fill:#6fabe6;}.cls-5{fill:#82bcf4;}.cls-6{fill:#9fdbf3;}.cls-7{fill:#b2e5fb;}.cls-8{fill:#dad7e5;}.cls-9{fill:#c6c3d8;}.cls-10{fill:#edebf2;}</style></defs><title>Cash register</title><g id="Cash_register" data-name="Cash register"><rect class="cls-1" x="1" y="36" width="46" height="10"/><path class="cls-2" d="M47,36v8H12a8,8,0,0,1-8-8Z"/><polygon class="cls-3" points="46 36 2 36 6 14 42 14 46 36"/><path class="cls-1" d="M46,36H27.36A18.66,18.66,0,0,1,9,14c0-.1-1.15,0,33,0Z"/><rect class="cls-3" x="33" y="8" width="4" height="6"/><path class="cls-1" d="M37,10v4a2,2,0,0,1,0-4Z"/><rect class="cls-4" x="28" y="2" width="14" height="6" rx="1"/><path class="cls-5" d="M42,3V7a1,1,0,0,1-1,1H36a6,6,0,0,1-6-6c0-.1,11.1,0,11,0A1,1,0,0,1,42,3Z"/><rect class="cls-6" x="27" y="18" width="12" height="6" rx="1"/><path class="cls-7" d="M39,19v4a1,1,0,0,1-1,1H35a6,6,0,0,1-6-6h9A1,1,0,0,1,39,19Z"/><path class="cls-8" d="M28,27H26a1,1,0,0,0,0,2h2A1,1,0,0,0,28,27Z"/><path class="cls-8" d="M34,27H32a1,1,0,0,0,0,2h2A1,1,0,0,0,34,27Z"/><path class="cls-8" d="M38,29h2a1,1,0,0,0,0-2H38A1,1,0,0,0,38,29Z"/><path class="cls-8" d="M10,27H8a1,1,0,0,0,0,2h2A1,1,0,0,0,10,27Z"/><path class="cls-8" d="M16,27H14a1,1,0,0,0,0,2h2A1,1,0,0,0,16,27Z"/><path class="cls-8" d="M22,27H20a1,1,0,0,0,0,2h2A1,1,0,0,0,22,27Z"/><path class="cls-8" d="M10,23H8a1,1,0,0,0,0,2h2A1,1,0,0,0,10,23Z"/><path class="cls-8" d="M16,23H14a1,1,0,0,0,0,2h2A1,1,0,0,0,16,23Z"/><path class="cls-8" d="M22,23H20a1,1,0,0,0,0,2h2A1,1,0,0,0,22,23Z"/><path class="cls-8" d="M28,31H26a1,1,0,0,0,0,2h2A1,1,0,0,0,28,31Z"/><path class="cls-8" d="M34,31H32a1,1,0,0,0,0,2h2A1,1,0,0,0,34,31Z"/><path class="cls-8" d="M40,31H38a1,1,0,0,0,0,2h2A1,1,0,0,0,40,31Z"/><path class="cls-8" d="M10,31H8a1,1,0,0,0,0,2h2A1,1,0,0,0,10,31Z"/><path class="cls-8" d="M16,31H14a1,1,0,0,0,0,2h2A1,1,0,0,0,16,31Z"/><path class="cls-8" d="M22,31H20a1,1,0,0,0,0,2h2A1,1,0,0,0,22,31Z"/><path class="cls-8" d="M27,42H21a1,1,0,0,1,0-2h6A1,1,0,0,1,27,42Z"/><path class="cls-9" d="M21,20H9a1,1,0,0,1,0-2H21A1,1,0,0,1,21,20Z"/><path class="cls-8" d="M20,5V19H10V5l5,2Z"/><path class="cls-10" d="M20,5c0,14.74-.1,14,0,14a8,8,0,0,1-8-8V5.8L15,7Z"/></g></svg>