<svg xmlns="http://www.w3.org/2000/svg" viewBox="0 0 48 48"><defs><style>.cls-1{fill:#6fabe6;}.cls-2{fill:#82bcf4;}.cls-3{fill:#dad7e5;}.cls-4{fill:#edebf2;}.cls-5{fill:#374f68;}.cls-6{fill:#db5669;}.cls-7{fill:#f26674;}.cls-8{fill:#425b72;}</style></defs><title>Book of FAQ</title><g id="Book_of_FAQ" data-name="Book of FAQ"><path class="cls-1" d="M42,3l0,34L12,37,12,1,40,1A2,2,0,0,1,42,3Z"/><path class="cls-2" d="M42,3c0,35.18-.07,34,0,34A30,30,0,0,1,12,7V1L40,1A2,2,0,0,1,42,3Z"/><path class="cls-3" d="M42,37v8H10a4,4,0,0,1,0-8Z"/><path class="cls-4" d="M42,39v6H10a4,4,0,0,1-3.87-3A4,4,0,0,1,10,39Z"/><path class="cls-5" d="M12,1V37H10a4,4,0,0,0-4,4V5a4,4,0,0,1,4-4Z"/><path class="cls-4" d="M21,10H17a1,1,0,0,0-1,1v6a1,1,0,0,0,2,0V15h2a1,1,0,0,0,0-2H18V12h3A1,1,0,0,0,21,10Z"/><path class="cls-4" d="M27,10.68a1,1,0,0,0-1.9,0l-2,6a1,1,0,0,0,1.9.64l.1-.32c2.2,0,1.86-.1,2,.32a1,1,0,0,0,1.9-.64ZM25.72,15l.28-.84.28.84Z"/><path class="cls-4" d="M37.71,16.29c-1-1-.71-.55-.71-1.29V13a3,3,0,0,0-6,0v2a3,3,0,0,0,4.89,2.31c.46.45.64.69,1.11.69A1,1,0,0,0,37.71,16.29ZM33,15V13a1,1,0,0,1,2,0v1c-.77,0-1.48.93-.54,1.87A1,1,0,0,1,33,15Z"/><path class="cls-4" d="M35,22H17a1,1,0,0,1,0-2H35A1,1,0,0,1,35,22Z"/><path class="cls-4" d="M31,28H21a1,1,0,0,1,0-2H31A1,1,0,0,1,31,28Z"/><path class="cls-3" d="M42,40v2H12a1,1,0,0,1,0-2Z"/><path class="cls-6" d="M20,41v5a1,1,0,0,1-1,1H17a1,1,0,0,1-1-1V41Z"/><path class="cls-7" d="M20,41v5a1,1,0,0,1-2,0V41Z"/><path class="cls-8" d="M12,1V37H10a1.92,1.92,0,0,1-2-1.87V1.54C9.19.86,10.07,1,12,1Z"/></g></svg>