<svg xmlns="http://www.w3.org/2000/svg" viewBox="0 0 48 48"><defs><style>.cls-1{fill:#fc6;}.cls-2{fill:#ffde76;}.cls-3{fill:#ffba55;}.cls-4{fill:#dad7e5;}.cls-5{fill:#edebf2;}.cls-6{fill:#6fabe6;}.cls-7{fill:#82bcf4;}.cls-8{fill:#7c7d7d;}</style></defs><title>Collections</title><g id="Collections"><path class="cls-1" d="M47,26c-6.09,18.27-5,15.16-6,18H1L7,26Z"/><path class="cls-2" d="M47,26,41.67,42H21.86A12.16,12.16,0,0,1,10.33,26Z"/><polygon class="cls-3" points="11 11 11 26 7 26 1 44 1 11 11 11"/><path class="cls-1" d="M9,11V21.68A2.32,2.32,0,0,1,6.68,24a2.33,2.33,0,0,0-2.21,1.59L1,36V11Z"/><polygon class="cls-4" points="41 10 41 26 17 26 17 4 35 4 41 10"/><polygon class="cls-5" points="41 10 35 10 35 4 41 10"/><path class="cls-5" d="M41,11V24C27.87,24,20,14.29,20,4H34v6a1,1,0,0,0,1,1Z"/><rect class="cls-6" x="11" y="7" width="6" height="19"/><path class="cls-7" d="M15,7c0,17.84-.1,17,0,17a4,4,0,0,1-4-4V7Z"/><polygon class="cls-7" points="41 10 35 10 35 4 41 10"/><path class="cls-8" d="M31,13H21a1,1,0,0,0,0,2H31A1,1,0,0,0,31,13Z"/><path class="cls-8" d="M27,17H21a1,1,0,0,0,0,2h6A1,1,0,0,0,27,17Z"/></g></svg>