<svg xmlns="http://www.w3.org/2000/svg" viewBox="0 0 48 48"><defs><style>.cls-1{fill:#374f68;}.cls-2{fill:#425b72;}.cls-3{fill:#9fdbf3;}.cls-4{fill:#dad7e5;}.cls-5{fill:#db5669;}.cls-6{fill:#edebf2;}.cls-7{fill:#f26674;}.cls-8{fill:#c6c3d8;}.cls-9{fill:#c4455e;}.cls-10{fill:#b2e5fb;}.cls-11{fill:#fc6;}.cls-12{fill:#ffde76;}.cls-13{fill:#919191;}</style></defs><title>Smartphone ecommerce</title><g id="Smartphone_ecommerce" data-name="Smartphone ecommerce"><path class="cls-1" d="M38,5V7H10V5a4,4,0,0,1,3.52-4C13.87,1,12.43,1,34,1A4,4,0,0,1,38,5Z"/><path class="cls-2" d="M38,5H15c-1.52,0-2.56-1.52-1.68-3.57C13.59.81,12.33,1,34,1A4,4,0,0,1,38,5Z"/><path class="cls-3" d="M38,20.46V41H10V20.46A4,4,0,0,0,12,17a4,4,0,0,0,8,0,4,4,0,0,0,8,0,4,4,0,1,0,8,0A4,4,0,0,0,38,20.46Z"/><path class="cls-1" d="M38,41c0,1.9.13,2.83-.52,4A4,4,0,0,1,34,47H14a4,4,0,0,1-4-4V41Z"/><path class="cls-2" d="M38,41c0,1.9.13,2.83-.52,4-.35,0,1.09,0-20.48,0a4,4,0,0,1-4-4Z"/><path class="cls-4" d="M25,45H23a1,1,0,0,1,0-2h2A1,1,0,0,1,25,45Z"/><polygon class="cls-5" points="44 17 36 17 32 7 38 7 44 17"/><polygon class="cls-4" points="36 17 28 17 26 7 32 7 36 17"/><polygon class="cls-5" points="28 17 20 17 22 7 26 7 28 17"/><polygon class="cls-4" points="22 7 20 17 12 17 16 7 22 7"/><path class="cls-5" d="M16,7c-3.36,8.38-2.58,6.44-4,10H4L10,7Z"/><path class="cls-6" d="M22,7,20,17c-2.11,0-4.82.07-6.83-2.93L16,7Z"/><polygon class="cls-7" points="28 17 20 17 22 7 26 7 28 17"/><polygon class="cls-6" points="36 17 28 17 26 7 32 7 36 17"/><polygon class="cls-7" points="44 17 36 17 32 7 38 7 44 17"/><path class="cls-7" d="M16,7l-2.83,7.07A6.56,6.56,0,0,1,13,7Z"/><path class="cls-5" d="M28,17a4,4,0,0,1-8,0Z"/><path class="cls-8" d="M20,17a4,4,0,0,1-8,0Z"/><path class="cls-9" d="M12,17a4,4,0,0,1-8,0Z"/><path class="cls-4" d="M36,17a4,4,0,0,1-8,0Z"/><path class="cls-5" d="M44,17a4,4,0,0,1-8,0Z"/><path class="cls-1" d="M12,17V41H10V20.46A4,4,0,0,0,12,17Z"/><path class="cls-10" d="M34.76,19.89a3.42,3.42,0,0,1-.79.58,4,4,0,0,1-7.21-.58,3.42,3.42,0,0,1-.79.58,4,4,0,0,1-7.21-.58,3.42,3.42,0,0,1-.79.58,4,4,0,0,1-5,1.73V41H38V22.46A4,4,0,0,1,34.76,19.89ZM30.5,31.5H29.38l-.66,5.25a2,2,0,0,1-2,1.75H18.27a2,2,0,0,1-2-1.75l-.66-5.25H14.5a1,1,0,0,1,0-2h3.72l-.7-2.8a1,1,0,0,1,2-.4l.8,3.2h4.44l.8-3.2a1,1,0,0,1,2,.4l-.7,2.8H30.5A1,1,0,0,1,30.5,31.5Z"/><path class="cls-1" d="M38,20.46V41H36V17A4,4,0,0,0,38,20.46Z"/><path class="cls-2" d="M38,22.46V41H36V21.61A3.93,3.93,0,0,0,38,22.46Z"/><path class="cls-11" d="M31,29l-.78,6.25a2,2,0,0,1-2,1.75H19.77a2,2,0,0,1-2-1.75L17,29Z"/><path class="cls-12" d="M31,29l-.78,6.25a2,2,0,0,1-2,1.75H21.77a2,2,0,0,1-2-1.75L19,29Z"/><path class="cls-4" d="M32,30H16a1,1,0,0,1,0-2H32A1,1,0,0,1,32,30Z"/><path class="cls-6" d="M32,30H18a1,1,0,0,1,0-2H32A1,1,0,0,1,32,30Z"/><path class="cls-13" d="M20,29.2l-1-4a1,1,0,0,1,2-.4l1,4A1,1,0,0,1,20,29.2Z"/><path class="cls-13" d="M26,28.8l1-4a1,1,0,0,1,2,.4l-1,4A1,1,0,0,1,26,28.8Z"/></g></svg>