<svg xmlns="http://www.w3.org/2000/svg" viewBox="0 0 48 48"><defs><style>.cls-1{fill:#f6ccaf;}.cls-2{fill:#edb996;}.cls-3{fill:#edebf2;}.cls-4{fill:#7c7d7d;}</style></defs><title>Package</title><g id="Package"><path class="cls-1" d="M11,5H45a2,2,0,0,1,2,2V41a2,2,0,0,1-2,2H11a0,0,0,0,1,0,0V5A0,0,0,0,1,11,5Z"/><path class="cls-2" d="M3,5h8a0,0,0,0,1,0,0V43a0,0,0,0,1,0,0H3a2,2,0,0,1-2-2V7A2,2,0,0,1,3,5Z"/><path class="cls-3" d="M24,5H34a0,0,0,0,1,0,0V15a2,2,0,0,1-2,2H26a2,2,0,0,1-2-2V5A0,0,0,0,1,24,5Z"/><path class="cls-4" d="M19,40H15a1,1,0,0,1,0-2h4A1,1,0,0,1,19,40Z"/></g></svg>