<svg xmlns="http://www.w3.org/2000/svg" viewBox="0 0 48 48"><defs><style>.cls-1{fill:#374f68;}.cls-2{fill:#425b72;}.cls-3{fill:#9fdbf3;}.cls-4{fill:#edebf2;}.cls-5{fill:#b2e5fb;}.cls-6{fill:#dad7e5;}.cls-7{fill:#6fabe6;}.cls-8{fill:#82bcf4;}</style></defs><title>Chatbot support</title><g id="Chatbot_support" data-name="Chatbot support"><path class="cls-1" d="M28,1a2,2,0,0,0-2,2V7H6V5a4,4,0,0,1,4-4Z"/><path class="cls-2" d="M28,1a2,2,0,0,0-2,2,2,2,0,0,0-2,2V7H9V5a4,4,0,0,1,4-4Z"/><path class="cls-3" d="M34,11V41H6V7H26V9a2,2,0,0,0,2,2h1v2C33.66,10.67,32.67,11,34,11Z"/><path class="cls-1" d="M34,41c0,1.9.13,2.83-.52,4A4,4,0,0,1,30,47H10a4,4,0,0,1-4-4V41Z"/><path class="cls-2" d="M34,41c0,1.9.13,2.83-.52,4-.35,0,1.09,0-20.48,0a4,4,0,0,1-4-4Z"/><path class="cls-4" d="M21,45H19a1,1,0,0,1,0-2h2A1,1,0,0,1,21,45Z"/><path class="cls-5" d="M31,13l-4,2V13H26a2,2,0,0,1-2-2V7H9v7a1,1,0,0,1,1,1v5.17A5.39,5.39,0,0,1,12,20V19a1,1,0,0,1,1-1H23a1,1,0,0,1,1,1v1c1.19,0,2.14-.1,3.12.88A3,3,0,0,1,25,26H24v1a1,1,0,0,1-1,1H21c3.28,3.28,3.14,2.54,2.1,6.15a5.31,5.31,0,0,1-10.2,0c-1-3.57-1.19-2.86,2.1-6.15H13a1,1,0,0,1-1-1V26c-1.21,0-2.05.09-3-.77V41H34V13Z"/><rect class="cls-6" x="14" y="17" width="12" height="10" rx="1"/><rect class="cls-4" x="16" y="17" width="10" height="10" rx="1"/><path class="cls-4" d="M10,22V14a1,1,0,0,1,2,0v8A1,1,0,0,1,10,22Z"/><path class="cls-7" d="M14,19v6H13a3,3,0,0,1,0-6Z"/><path class="cls-8" d="M14,19v4H13a3,3,0,0,1-2.82-2A3,3,0,0,1,13,19Z"/><path class="cls-7" d="M30,22a3,3,0,0,1-3,3H26V19h1A3,3,0,0,1,30,22Z"/><path class="cls-8" d="M29.82,21A3,3,0,0,1,27,23H26V19h1A3,3,0,0,1,29.82,21Z"/><path class="cls-7" d="M19,22a1,1,0,0,0-2,0A1,1,0,0,0,19,22Z"/><path class="cls-7" d="M23,22a1,1,0,0,0-2,0A1,1,0,0,0,23,22Z"/><rect class="cls-1" x="32" y="7" width="2" height="34"/><rect class="cls-2" x="32" y="13" width="2" height="28"/><path class="cls-7" d="M25.68,31.13c-.61,2.12-.8,3.44-2.36,4.7a5.3,5.3,0,0,1-6.52.1c-1.68-1.28-1.87-2.69-2.48-4.8a2,2,0,0,1,.51-2L17,27h6C24.83,28.83,26.11,29.64,25.68,31.13Z"/><path class="cls-8" d="M25.68,31.13c-.61,2.12-.8,3.44-2.36,4.7a5.3,5.3,0,0,1-4.52-.9c-1.68-1.28-1.87-2.69-2.48-4.8C15.92,28.74,17,28,18,27h5C24.83,28.83,26.11,29.64,25.68,31.13Z"/><path class="cls-6" d="M44,3V9a2,2,0,0,1-2,2H33l-4,2V11H28a2,2,0,0,1-2-2V3a2,2,0,0,1,2-2H42A2,2,0,0,1,44,3Z"/><path class="cls-6" d="M44,3V9a2,2,0,0,1-2,2H33l-4,2V11H28a2,2,0,0,1-2-2V3a2,2,0,0,1,2-2H42A2,2,0,0,1,44,3Z"/><path class="cls-4" d="M44,3V9a2,2,0,0,1-2,2H33l-.89.45A.77.77,0,0,1,31,10.76c0-.93-1.2-.76-1-.76a2,2,0,0,1-2-2c0-6.44-.1-6.33.28-7H42A2,2,0,0,1,44,3Z"/><path class="cls-7" d="M32,6a1,1,0,0,0-2,0A1,1,0,0,0,32,6Z"/><path class="cls-7" d="M36,6a1,1,0,0,0-2,0A1,1,0,0,0,36,6Z"/><path class="cls-7" d="M40,6a1,1,0,0,0-2,0A1,1,0,0,0,40,6Z"/><path class="cls-6" d="M21,32a1,1,0,0,0-2,0A1,1,0,0,0,21,32Z"/><rect class="cls-1" x="6" y="7" width="2" height="34"/></g></svg>