<svg xmlns="http://www.w3.org/2000/svg" viewBox="0 0 48 48"><defs><style>.cls-1{fill:#9dcc6b;}.cls-2{fill:#fc6;}.cls-3{fill:#ffde76;}.cls-4{fill:#b5e08c;}.cls-5{fill:#84b749;}.cls-6{fill:#dad7e5;}.cls-7{fill:#edebf2;}.cls-8{fill:#919191;}</style></defs><title>Pay later</title><g id="Pay_later" data-name="Pay later"><path class="cls-1" d="M45,6V27.36A9,9,0,0,0,29.06,32H1V6Z"/><path class="cls-2" d="M47,33a9,9,0,1,1-9-9A9,9,0,0,1,47,33Z"/><path class="cls-3" d="M47,33a8.94,8.94,0,0,1-1.72,5.28A9,9,0,0,1,32.72,25.71,9,9,0,0,1,47,33Z"/><path class="cls-4" d="M45,6V27.36A9,9,0,0,0,33,25.5,9,9,0,0,0,27.94,30,24,24,0,0,1,4,6Z"/><path class="cls-5" d="M22,16h4a1,1,0,0,0,0-2H24V13a1,1,0,0,0-2,0v1a3,3,0,0,0,0,6h2a1,1,0,0,1,0,2H20a1,1,0,0,0,0,2h1v1a1,1,0,0,0,2,0V24h1a3,3,0,0,0,0-6H22A1,1,0,0,1,22,16Z"/><path class="cls-5" d="M14,18H10a1,1,0,0,0,0,2h4A1,1,0,0,0,14,18Z"/><path class="cls-5" d="M36,18H32a1,1,0,0,0,0,2h4A1,1,0,0,0,36,18Z"/><path class="cls-6" d="M7,6a6,6,0,0,1-6,6V6Z"/><path class="cls-7" d="M7,6a6,6,0,0,1-2.5,4.87A23.66,23.66,0,0,1,4,6Z"/><path class="cls-6" d="M45,6v6a6,6,0,0,1-6-6Z"/><path class="cls-7" d="M45,6v6a6,6,0,0,1-6-6Z"/><path class="cls-6" d="M7,32H1V26A6,6,0,0,1,7,32Z"/><path class="cls-8" d="M38,34H34a1,1,0,0,1,0-2h3V28a1,1,0,0,1,2,0v5A1,1,0,0,1,38,34Z"/></g></svg>