<svg xmlns="http://www.w3.org/2000/svg" viewBox="0 0 48 48"><defs><style>.cls-1{fill:#db5669;}.cls-2{fill:#f26674;}.cls-3{fill:#9dcc6b;}.cls-4{fill:#b5e08c;}.cls-5{fill:#dad7e5;}.cls-6{fill:#edebf2;}.cls-7{fill:#919191;}.cls-8{fill:#df8761;}.cls-9{fill:#f29b75;}.cls-10{fill:#fc6;}.cls-11{fill:#ffde76;}</style></defs><title>Adress location</title><g id="Adress_location" data-name="Adress location"><path class="cls-1" d="M39,16c0,6.87-10.7,21-15,26C19.63,36.86,9,22.88,9,16a15,15,0,0,1,30,0Z"/><path class="cls-2" d="M39,16c0,7.28-11.92,22.15-11.17,21.17a2,2,0,0,1-3.1,0C20.81,32.22,12,20.35,12,14A14.9,14.9,0,0,1,17.27,2.6,15,15,0,0,1,39,16Z"/><path class="cls-3" d="M40,42c0,2.76-7.16,5-16,5S8,44.76,8,42c0-2.35,5.17-4.32,12.15-4.85C22.35,40.06,24,42,24,42s1.65-1.94,3.85-4.85C34.83,37.68,40,39.65,40,42Z"/><path class="cls-3" d="M34.76,45.7a18.91,18.91,0,0,0,2.1-.73A17.67,17.67,0,0,1,34.76,45.7Z"/><path class="cls-3" d="M36.86,45c.4-.17.76-.35,1.09-.53A8.51,8.51,0,0,1,36.86,45Z"/><path class="cls-4" d="M40,42a1.86,1.86,0,0,1-.38,1.06c-10.2,4.11-32,1.14-28.23-4.14a26.92,26.92,0,0,1,6.21-1.5C18.4,38.48,20.27,41,22,43c0,0,.54-.63,1.41-1.71L24,42s1.65-1.94,3.85-4.85C34.83,37.68,40,39.65,40,42Z"/><path class="cls-3" d="M39.63,43.06c-.05.07-.07.09,0,0Z"/><path class="cls-3" d="M39.58,43.12l-.2.25Z"/><path class="cls-3" d="M39.07,43.68a3,3,0,0,0,.31-.31Z"/><path class="cls-5" d="M35,16A11,11,0,0,1,24,27C13.56,27,9,13.66,17.29,7.29A11,11,0,0,1,35,16Z"/><path class="cls-6" d="M35,16a10.88,10.88,0,0,1-2.29,6.71A11,11,0,0,1,21.41,24H27a1,1,0,0,0,0-2H26V16h2l-2-2V11a1,1,0,0,0-2,0v1l-2-2-6,6h2v5.55a11,11,0,0,1-.71-14.26A11,11,0,0,1,35,16Z"/><path class="cls-7" d="M26,14V10a1,1,0,0,1,2,0v4A1,1,0,0,1,26,14Z"/><polygon class="cls-8" points="30 15 18 15 24 9 30 15"/><path class="cls-9" d="M29,14H23.83a2,2,0,0,1-1.42-3.41L24,9Z"/><rect class="cls-10" x="20" y="15" width="8" height="7"/><path class="cls-11" d="M28,16v6a6,6,0,0,1-6-6Z"/><path class="cls-7" d="M29,23H19a1,1,0,0,1,0-2H29A1,1,0,0,1,29,23Z"/></g></svg>