<svg xmlns="http://www.w3.org/2000/svg" viewBox="0 0 48 48"><defs><style>.cls-1{fill:#7c7d7d;}.cls-2{fill:#919191;}.cls-3{fill:#edb996;}.cls-4{fill:#f6ccaf;}.cls-5{fill:#edebf2;}</style></defs><title>Stock product</title><g id="Stock_product" data-name="Stock product"><path class="cls-1" d="M5,3V47H1V3A2,2,0,0,1,5,3Z"/><path class="cls-2" d="M5,3c0,43.26-.1,42,0,42a2,2,0,0,1-2-2V1A2,2,0,0,1,5,3Z"/><path class="cls-1" d="M47,3V47H43V3a2,2,0,0,1,4,0Z"/><path class="cls-2" d="M47,3V45H43V3a2,2,0,0,1,4,0Z"/><rect class="cls-1" x="5" y="40" width="38" height="4"/><rect class="cls-2" x="5" y="40" width="36" height="4"/><rect class="cls-1" x="5" y="17" width="38" height="4"/><rect class="cls-2" x="5" y="17" width="36" height="4"/><rect class="cls-3" x="5" y="26" width="14" height="14"/><path class="cls-4" d="M19,26c0,12.64-.1,12,0,12A12,12,0,0,1,7,26Z"/><rect class="cls-3" x="5" y="5" width="20" height="12"/><path class="cls-4" d="M25,5V15H17A10,10,0,0,1,7,5Z"/><rect class="cls-3" x="31" y="28" width="12" height="12"/><path class="cls-4" d="M41,28c0,10.61-.1,10,0,10a8,8,0,0,1-8-8V28Z"/><rect class="cls-3" x="19" y="30" width="12" height="10"/><path class="cls-4" d="M31,30v8H29a8,8,0,0,1-8-8Z"/><rect class="cls-3" x="25" y="7" width="18" height="10"/><path class="cls-4" d="M41,7v8H35a8,8,0,0,1-8-8Z"/><path class="cls-5" d="M13,5h4a0,0,0,0,1,0,0V8a1,1,0,0,1-1,1H14a1,1,0,0,1-1-1V5A0,0,0,0,1,13,5Z"/><path class="cls-5" d="M32,7h4a0,0,0,0,1,0,0v3a1,1,0,0,1-1,1H33a1,1,0,0,1-1-1V7A0,0,0,0,1,32,7Z"/><path class="cls-5" d="M10,26h4a0,0,0,0,1,0,0v3a1,1,0,0,1-1,1H11a1,1,0,0,1-1-1V26A0,0,0,0,1,10,26Z"/><path class="cls-5" d="M23,30h4a0,0,0,0,1,0,0v3a1,1,0,0,1-1,1H24a1,1,0,0,1-1-1V30A0,0,0,0,1,23,30Z"/><path class="cls-5" d="M35,28h4a0,0,0,0,1,0,0v3a1,1,0,0,1-1,1H36a1,1,0,0,1-1-1V28A0,0,0,0,1,35,28Z"/></g></svg>