<svg xmlns="http://www.w3.org/2000/svg" viewBox="0 0 48 48"><defs><style>.cls-1{fill:#db5669;}.cls-2{fill:#f26674;}.cls-3{fill:#fc6;}.cls-4{fill:#ffde76;}.cls-5{fill:#edebf2;}</style></defs><title>Sale discount labels</title><g id="Sale_discount_labels" data-name="Sale discount labels"><path class="cls-1" d="M46.41,10.41,41,5H31c-5.64,5.64-6,5.71-6,6.83V45a2,2,0,0,0,2,2H45a2,2,0,0,0,2-2C47,8.92,47.25,11.25,46.41,10.41ZM36,9a3,3,0,1,1-3,3A3,3,0,0,1,36,9Z"/><path class="cls-2" d="M46.41,10.41,41,5H32c-3.58,3.58-4,3.73-4,4.83V26A19.06,19.06,0,0,0,47,45C47,8.92,47.25,11.25,46.41,10.41ZM36,15a3,3,0,1,1,3-3A3,3,0,0,1,36,15Z"/><path class="cls-3" d="M31,5c-5.64,5.64-6,5.71-6,6.83V27H4a3,3,0,0,1-3-3V8A3,3,0,0,1,4,5Z"/><path class="cls-4" d="M29,5c-5.64,5.64-6,5.71-6,6.83V25A19,19,0,0,1,4,6a2.77,2.77,0,0,1,.18-1Z"/><path class="cls-3" d="M35,12V2a1,1,0,0,1,2,0V12A1,1,0,0,1,35,12Z"/><path class="cls-5" d="M39.5,19A2.5,2.5,0,0,0,37,21.5v1a.5.5,0,0,1-1,0V20a1,1,0,0,0-2,0v2.5a2.5,2.5,0,0,0,5,0c0-.66-.16-1.5.5-1.5a.5.5,0,0,1,.5.5V24a1,1,0,0,0,2,0V21.5A2.5,2.5,0,0,0,39.5,19Z"/><path class="cls-5" d="M41.32,28.05l-6-2a1,1,0,0,0-.64,1.9l.32.1c0,2.2.1,1.86-.32,2A1,1,0,0,0,35,32c.23,0-.23.13,6.32-2.05A1,1,0,0,0,41.32,28.05ZM37,29.28v-.56l.84.28Z"/><path class="cls-5" d="M41,33H35a1,1,0,0,0-1,1v3a1,1,0,0,0,2,0V35h5A1,1,0,0,0,41,33Z"/><path class="cls-5" d="M41,39H35a1,1,0,0,0-1,1v3a1,1,0,0,0,2,0V41h1v1a1,1,0,0,0,2,0V41h1v2a1,1,0,0,0,2,0V40A1,1,0,0,0,41,39Z"/><path class="cls-5" d="M30,43V20a1,1,0,0,1,2,0V43A1,1,0,0,1,30,43Z"/><path class="cls-5" d="M17,22c-.6,0,.1.51-10.71-10.29a1,1,0,0,1,1.42-1.42l10,10A1,1,0,0,1,17,22Z"/><circle class="cls-5" cx="16" cy="11" r="2"/><circle class="cls-5" cx="8" cy="21" r="2"/></g></svg>