<svg xmlns="http://www.w3.org/2000/svg" viewBox="0 0 48 48"><defs><style>.cls-1{fill:#dad7e5;}.cls-2{fill:#edebf2;}.cls-3{fill:#7c7d7d;}.cls-4{fill:#919191;}.cls-5{fill:#9fdbf3;}.cls-6{fill:#b2e5fb;}.cls-7{fill:#82bcf4;}</style></defs><title>Searching bar</title><g id="Searching_bar" data-name="Searching bar"><path class="cls-1" d="M37,29V25a1,1,0,0,1,2,0v4A1,1,0,0,1,37,29Z"/><path class="cls-1" d="M32.36,23H5a4,4,0,0,1-4-4V13A4,4,0,0,1,4,9.13C4.66,8.94,2.34,9,32.36,9A9,9,0,0,0,32.36,23Z"/><path class="cls-2" d="M31.91,9a9,9,0,0,0-4,12H15.87A11.86,11.86,0,0,1,4,9.13C4.66,8.94,2.43,9,31.91,9Z"/><circle class="cls-3" cx="38" cy="16" r="9"/><path class="cls-4" d="M47,16a9,9,0,0,1-2.62,6.34c-9,3.73-16.6-7.83-9.76-14.67h0A9,9,0,0,1,47,16Z"/><path class="cls-5" d="M45,16a7,7,0,0,1-7,7c-7.07,0-9.52-9.25-3.84-12.84A7,7,0,0,1,45,16Z"/><path class="cls-6" d="M45,16a6.92,6.92,0,0,1-1.15,3.85A6.92,6.92,0,0,1,40,21a7,7,0,0,1-5.84-10.84A7,7,0,0,1,45,16Z"/><path class="cls-3" d="M40,29V39a2,2,0,0,1-4,0V29Z"/><path class="cls-4" d="M40,29V39a2,2,0,0,1-2-2V29Z"/><path class="cls-7" d="M9.05,13.7c-.7,2.22-.56,2-.7,1.77a1,1,0,0,0-1.7,0c-.14.22,0,.44-.7-1.77a1,1,0,0,0-1.9.6C5.4,18.64,5.31,18.89,6.12,19s1-.47,1.38-1.1c.42.66.6,1.11,1.25,1.11a1,1,0,0,0,.95-.7l1.25-4A1,1,0,0,0,9.05,13.7Z"/><path class="cls-7" d="M17.05,13.7c-.7,2.22-.56,2-.7,1.77a1,1,0,0,0-1.7,0c-.14.22,0,.44-.7-1.77a1,1,0,0,0-1.9.6c1.35,4.34,1.26,4.59,2.07,4.69s1-.47,1.38-1.1c.42.66.6,1.11,1.25,1.11a1,1,0,0,0,.95-.7l1.25-4A1,1,0,0,0,17.05,13.7Z"/><path class="cls-7" d="M25.05,13.7c-.7,2.22-.56,2-.7,1.77a1,1,0,0,0-1.7,0c-.14.22,0,.44-.7-1.77a1,1,0,0,0-1.9.6c1.35,4.34,1.26,4.59,2.07,4.69s1-.47,1.38-1.1c.42.66.6,1.11,1.25,1.11a1,1,0,0,0,.95-.7l1.25-4A1,1,0,0,0,25.05,13.7Z"/></g></svg>