<svg xmlns="http://www.w3.org/2000/svg" viewBox="0 0 48 48"><defs><style>.cls-1{fill:#c6c3d8;}.cls-2{fill:#dad7e5;}.cls-3{fill:#edebf2;}.cls-4{fill:#9fdbf3;}.cls-5{fill:#b2e5fb;}.cls-6{fill:#6fabe6;}.cls-7{fill:#db5669;}.cls-8{fill:#9dcc6b;}</style></defs><title>Digital advertise</title><g id="Digital_advertise" data-name="Digital advertise"><path class="cls-1" d="M45,15V41H29l-1,1H20l-1-1H3V15a4,4,0,0,1,3-3.87c.66-.19-2.36-.13,35-.13A4,4,0,0,1,45,15Z"/><path class="cls-2" d="M47,41c0,1.9.13,2.83-.52,4A4,4,0,0,1,43,47H5a4,4,0,0,1-4-4V41H19l1,1h8l1-1Z"/><path class="cls-2" d="M45,15V41H29l-1,1H20l-1-1H6V11.13A7,7,0,0,1,8,11V31a2,2,0,0,0,2,2H34a2,2,0,0,0,2-2V11h5A4,4,0,0,1,45,15Z"/><path class="cls-3" d="M47,41c0,1.9.13,2.83-.52,4C46.11,45,48.63,45,8,45a4,4,0,0,1-4-4H19l1,1h8l1-1Z"/><path class="cls-4" d="M43,15V39H5V15a2,2,0,0,1,2-2H41A2,2,0,0,1,43,15Z"/><path class="cls-5" d="M8,13V24.58A23.78,23.78,0,0,1,6,15,2,2,0,0,1,8,13Z"/><path class="cls-5" d="M43,15V39H30a23.92,23.92,0,0,1-15.86-6H34a2,2,0,0,0,2-2V13h5A2,2,0,0,1,43,15Z"/><path class="cls-2" d="M38,7V29a2,2,0,0,1-2,2H12a2,2,0,0,1-2-2V7Z"/><path class="cls-3" d="M38,7V29H35A22.06,22.06,0,0,1,13,7Z"/><path class="cls-1" d="M38,3V7H10V3a2,2,0,0,1,2-2H36A2,2,0,0,1,38,3Z"/><path class="cls-2" d="M38,3V7H13V3a2,2,0,0,1,2-2H36A2,2,0,0,1,38,3Z"/><path class="cls-6" d="M24,14H22a1,1,0,0,0-1,1v6a1,1,0,0,0,1,1h2a3,3,0,0,0,3-3V17A3,3,0,0,0,24,14Zm1,5a1,1,0,0,1-1,1H23V16h1a1,1,0,0,1,1,1Z"/><path class="cls-6" d="M18,14.68a1,1,0,0,0-1.9,0l-2,6a1,1,0,0,0,1.9.64l.1-.32c2.2,0,1.86-.1,2,.32a1,1,0,0,0,1.9-.64ZM16.72,19l.28-.84.28.84Z"/><path class="cls-6" d="M31.5,17c-.66,0-1.5.16-1.5-.5a.5.5,0,0,1,.5-.5H33a1,1,0,0,0,0-2H30.5a2.5,2.5,0,0,0,0,5h1a.5.5,0,0,1,0,1H29a1,1,0,0,0,0,2h2.5a2.5,2.5,0,0,0,0-5Z"/><path class="cls-7" d="M14,4a1,1,0,0,0-2,0A1,1,0,0,0,14,4Z"/><path class="cls-6" d="M18,4a1,1,0,0,0-2,0A1,1,0,0,0,18,4Z"/><path class="cls-8" d="M22,4a1,1,0,0,0-2,0A1,1,0,0,0,22,4Z"/></g></svg>