<svg xmlns="http://www.w3.org/2000/svg" viewBox="0 0 48 48"><defs><style>.cls-1{fill:#9dcc6b;}.cls-2{fill:#c6c3d8;}.cls-3{fill:#b5e08c;}.cls-4{fill:#edebf2;}.cls-5{fill:#f6ccaf;}.cls-6{fill:#ffdec7;}.cls-7{fill:#6fabe6;}.cls-8{fill:#82bcf4;}.cls-9{fill:#ffde76;}.cls-10{fill:#f26674;}.cls-11{fill:#dad7e5;}</style></defs><title>Swipe card</title><g id="Swipe_card" data-name="Swipe card"><path class="cls-1" d="M47,14V24a2,2,0,0,1-2,2H25a2,2,0,0,1-2-2V11.82A6.51,6.51,0,0,0,24,11a5.65,5.65,0,0,0,2,3,5,5,0,0,0,4.34.79C33.64,13.85,25.15,14,47,14Z"/><path class="cls-2" d="M47,12v2H31.49c1.1-1.34.23-2.54-.49-4H45A2,2,0,0,1,47,12Z"/><path class="cls-3" d="M47,14V24H36a10,10,0,0,1-9.59-7.09c1.55.26,3.35-.4,3.55-2.07l.35-.08C33.64,13.85,25.15,14,47,14Z"/><path class="cls-4" d="M47,12v2H31.49c1.1-1.34.23-2.54-.49-4H45A2,2,0,0,1,47,12Z"/><path class="cls-5" d="M31.76,11.53C32.48,12.94,31.71,15,29,15a5,5,0,0,1-4.65-3.14L24,11a6.51,6.51,0,0,1-1,.82V22c-2.82,0-4.75.39-6-1.5S14.09,19,12,19V3H32a6,6,0,0,1,5.52,3.64L39,10H31Z"/><path class="cls-6" d="M31,10c.76,1.54,1.58,2.67.49,4-1.36,1.7-5.79,1.25-7.17-2.19-.24-.6-.17-.42-.32-.81-1.26,1.26-1,.07-1,3a7.19,7.19,0,0,1-2,.46V19.9c-2.38-.6-2-2.9-4.8-2.9A2.18,2.18,0,0,1,14,14.8V3H32a6,6,0,0,1,5.52,3.64L39,10Z"/><path class="cls-5" d="M23,11.82V14c-1.73.68-3.25.49-5.86.49a1,1,0,0,1,0-2C19.94,12.49,21.4,12.71,23,11.82Z"/><path class="cls-5" d="M33.22,10H31l-.59-1.17a1,1,0,0,1,1.79-.9C32.88,9.28,33.22,9.9,33.22,10Z"/><rect class="cls-7" x="1" y="1" width="11" height="21" rx="2"/><path class="cls-8" d="M12,3c0,17.84-.1,17,0,17a8,8,0,0,1-8-8V1h6A2,2,0,0,1,12,3Z"/><circle class="cls-9" cx="37" cy="20" r="2"/><circle class="cls-10" cx="41" cy="20" r="2"/><polygon class="cls-7" points="47 30 47 47 1 47 1 36 27 36 33 30 47 30"/><path class="cls-8" d="M47,30V45H40V41H9v3.06A9,9,0,0,1,4,36H27l6-6Z"/><rect class="cls-11" x="11" y="41" width="31" height="6"/><path class="cls-4" d="M42,41v4H15a4,4,0,0,1-4-4Z"/><rect class="cls-11" x="1" y="32" width="6" height="4"/><path class="cls-4" d="M7,32v2H5a2,2,0,0,1-2-2Z"/><rect class="cls-11" x="11" y="32" width="6" height="4"/><path class="cls-4" d="M17,32v2H15a2,2,0,0,1-2-2Z"/><rect class="cls-11" x="21" y="32" width="6" height="4"/><path class="cls-4" d="M27,32v2H25a2,2,0,0,1-2-2Z"/></g></svg>