<svg xmlns="http://www.w3.org/2000/svg" viewBox="0 0 48 48"><defs><style>.cls-1{fill:#edb996;}.cls-2{fill:#f6ccaf;}.cls-3{fill:#edebf2;}.cls-4{fill:#dad7e5;}.cls-5{fill:#7c7d7d;}.cls-6{fill:#db5669;}</style></defs><title>Out of stock</title><g id="Out_of_stock" data-name="Out of stock"><path class="cls-1" d="M43,7V26.52A9,9,0,0,0,30.52,39H11V5H41A2,2,0,0,1,43,7Z"/><path class="cls-2" d="M43,7V26.52a9,9,0,0,0-10,0A9,9,0,0,0,27.94,39H11V5H41A2,2,0,0,1,43,7Z"/><path class="cls-1" d="M3,5h8a0,0,0,0,1,0,0V39a0,0,0,0,1,0,0H3a2,2,0,0,1-2-2V7A2,2,0,0,1,3,5Z"/><path class="cls-3" d="M22,5H32a0,0,0,0,1,0,0V15a2,2,0,0,1-2,2H24a2,2,0,0,1-2-2V5A0,0,0,0,1,22,5Z"/><path class="cls-4" d="M47,34c0,8.75-11.5,12.45-16.48,5A9,9,0,1,1,47,34Z"/><path class="cls-3" d="M47,34a9.09,9.09,0,0,1-1.33,4.69c-8,4.89-17.24-4.36-12.36-12.36A8.69,8.69,0,0,1,38,25,9,9,0,0,1,47,34Z"/><path class="cls-5" d="M19,36H15a1,1,0,0,1,0-2h4A1,1,0,0,1,19,36Z"/><path class="cls-6" d="M45,28.3A9,9,0,1,0,38,43,9,9,0,0,0,45,28.3ZM31,34a7,7,0,0,1,11.18-5.6L32.4,38.18A6.85,6.85,0,0,1,31,34Zm7,7a6.85,6.85,0,0,1-4.18-1.4l9.78-9.78A7,7,0,0,1,38,41Z"/></g></svg>