<svg xmlns="http://www.w3.org/2000/svg" viewBox="0 0 48 48"><defs><style>.cls-1{fill:#6fabe6;}.cls-2{fill:#db5669;}.cls-3{fill:#82bcf4;}.cls-4{fill:#f26674;}.cls-5{fill:#f6ccaf;}.cls-6{fill:#edb996;}.cls-7{fill:#edebf2;}.cls-8{fill:#7c7d7d;}</style></defs><title>Return product</title><g id="Return_product" data-name="Return product"><path class="cls-1" d="M43,24c0,12.36-11.77,21-22.23,18.72a19,19,0,0,1-12.08-30c.3,0-1.08.06,3.81-.25l-1.93-1.93C22.49-1.35,43,7.07,43,24Z"/><path class="cls-2" d="M47,25.47A23,23,0,0,1,1,24H5A19,19,0,0,0,39.69,34.7c6-8.37,3.84-21-5.84-26.95a19,19,0,0,0-23.28,2.82L12.5,12.5,5,13c.43-3,.75-5.25,1-7L7.74,7.74C22.58-7.1,48.28,4.24,47,25.47Z"/><path class="cls-3" d="M41,24a19,19,0,0,1-9.54,16.47,19,19,0,0,1-18.7-5.9c.77.61-.21.43,19.24.43a2,2,0,0,0,2-2V19a2,2,0,0,0-2-2H14a2,2,0,0,0-2,2c0,15.15-.1,14.31.24,15a18.94,18.94,0,0,1-1.76-21.32l2-.13-1.2-1.2a19,19,0,0,1,3.69-4C27.75.48,41,11.27,41,24Z"/><path class="cls-4" d="M47,25.47A23.12,23.12,0,0,1,33.32,45,23,23,0,0,0,12.78,3.93C28.32-4.85,48.11,7,47,25.47Z"/><path class="cls-5" d="M20,15H34a2,2,0,0,1,2,2V31a2,2,0,0,1-2,2H20a0,0,0,0,1,0,0V15A0,0,0,0,1,20,15Z"/><path class="cls-6" d="M16,15h4a0,0,0,0,1,0,0V33a0,0,0,0,1,0,0H16a2,2,0,0,1-2-2V17A2,2,0,0,1,16,15Z"/><rect class="cls-7" x="26" y="15" width="4" height="4"/><path class="cls-8" d="M26,30H24a1,1,0,0,1,0-2h2A1,1,0,0,1,26,30Z"/></g></svg>