<svg xmlns="http://www.w3.org/2000/svg" viewBox="0 0 48 48"><defs><style>.cls-1{fill:#fc6;}.cls-2{fill:#ffde76;}.cls-3{fill:#ffba55;}.cls-4{fill:#9dcc6b;}.cls-5{fill:#b5e08c;}</style></defs><title>Best seller</title><g id="Best_seller" data-name="Best seller"><path class="cls-1" d="M40,17c0,9.65-8.54,16.73-17,16C8.84,32.13,2.73,14.4,13.42,5,23.63-4.06,40,3.22,40,17Z"/><path class="cls-2" d="M40,17a15.91,15.91,0,0,1-5.73,12.26A16,16,0,0,1,27,31C12.11,31,5.35,12.34,16.67,2.78A16,16,0,0,1,40,17Z"/><path class="cls-3" d="M35,17A11,11,0,1,1,19.49,7,11,11,0,0,1,35,17Z"/><path class="cls-1" d="M35,17a11,11,0,0,1-3.49,8A11,11,0,0,1,19.49,7,11,11,0,0,1,35,17Z"/><polygon class="cls-3" points="24 10.29 25.85 14.05 30 14.65 27 17.58 27.71 21.71 24 19.76 20.29 21.71 21 17.58 18 14.65 22.15 14.05 24 10.29"/><path class="cls-4" d="M34,29.49V47L24,42,14,47V29.49A16,16,0,0,0,34,29.49Z"/><path class="cls-1" d="M25,28v5a13.35,13.35,0,0,1-2,0V28A9.55,9.55,0,0,0,25,28Z"/><path class="cls-1" d="M25,1v5a9.55,9.55,0,0,0-2,0V1A16.68,16.68,0,0,1,25,1Z"/><path class="cls-1" d="M13.05,18H8a13.35,13.35,0,0,1,0-2h5A9.55,9.55,0,0,0,13.05,18Z"/><path class="cls-1" d="M40,18H35a9.55,9.55,0,0,0,0-2h5A13.35,13.35,0,0,1,40,18Z"/><path class="cls-1" d="M36,6.42C31.14,11.28,32.81,9.6,32.45,10,31.4,8.69,31,8.61,31.07,8.51L34.58,5A15.86,15.86,0,0,1,36,6.42Z"/><path class="cls-1" d="M36,27.58A14.63,14.63,0,0,1,34.57,29l-3.5-3.5c-.11-.11.26-.11,1.39-1.45C32.76,24.35,31.44,23,36,27.58Z"/><path class="cls-1" d="M17,25.46c-.31.3,1-1-3.54,3.54A15.86,15.86,0,0,1,12,27.58l3.51-3.51C15.62,24,15.62,24.33,17,25.46Z"/><path class="cls-1" d="M17,8.54c-1.33,1.12-1.34,1.5-1.45,1.39L12,6.42A15.86,15.86,0,0,1,13.42,5Z"/><path class="cls-5" d="M34,29.49V45c-9.69-4.84-9.69-5.15-10.89-4.55l-3.22,1.6A2,2,0,0,1,17,40.26V35.74a2,2,0,0,1,2.32-2,16,16,0,0,0,10.8-2A15.78,15.78,0,0,0,34,29.49Z"/></g></svg>