<svg xmlns="http://www.w3.org/2000/svg" viewBox="0 0 48 48"><defs><style>.cls-1{fill:#9dcc6b;}.cls-2{fill:#b5e08c;}.cls-3{fill:#edebf2;}.cls-4{fill:#6fabe6;}.cls-5{fill:#82bcf4;}.cls-6{fill:#5b9ad8;}</style></defs><title>Buy product</title><g id="Buy_product" data-name="Buy product"><path class="cls-1" d="M41,37c0,6.17.18,6.75-.54,8A4,4,0,0,1,37,47H11a4,4,0,0,1-4-4V37a4,4,0,0,1,4-4H37A4,4,0,0,1,41,37Z"/><path class="cls-2" d="M41,37c0,6.17.18,6.75-.54,8H21.87A11.86,11.86,0,0,1,10,33.13c0-.2,27.85-.13,27-.13A4,4,0,0,1,41,37Z"/><path class="cls-3" d="M25,37v4a1,1,0,0,1-2,0V37a1,1,0,0,0-2,0v4a3,3,0,0,0,6,0V37A1,1,0,0,0,25,37Z"/><path class="cls-3" d="M33.17,36.45,32,38.2l-1.17-1.75a1,1,0,0,0-1.66,1.1L31,40.3V43a1,1,0,0,0,2,0V40.3l1.83-2.75A1,1,0,0,0,33.17,36.45Z"/><path class="cls-3" d="M16.5,36H14a1,1,0,0,0-1,1v6a1,1,0,0,0,1,1h2.5a2.5,2.5,0,0,0,2-4A2.5,2.5,0,0,0,16.5,36ZM15,42V41c1.51,0,2-.11,2,.5S16.39,42,15,42Zm0-3V38c1.51,0,2-.11,2,.5S16.39,39,15,39Z"/><path class="cls-3" d="M46,39H44a1,1,0,0,0,0,2h2A1,1,0,0,0,46,39Z"/><path class="cls-3" d="M43,37c.54,0,.57-.15,2.71-2.29a1,1,0,0,0-1.42-1.42l-2,2A1,1,0,0,0,43,37Z"/><path class="cls-3" d="M43.71,43.29a1,1,0,0,0-1.42,1.42C44.47,46.89,44.46,47,45,47a1,1,0,0,0,.71-1.71Z"/><path class="cls-3" d="M4,41a1,1,0,0,0,0-2H2a1,1,0,0,0,0,2Z"/><path class="cls-3" d="M3.71,33.29a1,1,0,0,0-1.42,1.42C4.47,36.89,4.46,37,5,37a1,1,0,0,0,.71-1.71Z"/><path class="cls-3" d="M4.29,43.29l-2,2a1,1,0,0,0,1.42,1.42l2-2A1,1,0,0,0,4.29,43.29Z"/><path class="cls-4" d="M33,11c-.87,7-.22,11.9,1,18H14c1.28-6.4,1.85-11.23,1-18l-4,3L7,7c7.39-5.54,7.57-6,9.33-6H31.67c1.77,0,2,.48,9.33,6l-4,7Z"/><path class="cls-4" d="M33,11c-.87,7-.22,11.9,1,18H14c1.28-6.4,1.85-11.23,1-18l-4,3L7,7c7.39-5.54,7.57-6,9.33-6H31.67c1.77,0,2,.48,9.33,6l-4,7Z"/><path class="cls-5" d="M33,11a49.6,49.6,0,0,0,.6,16H19.13a1.75,1.75,0,0,1-1.71-2.09,49.72,49.72,0,0,0,.87-12.79,1.8,1.8,0,0,0-2.83-1.36,1.83,1.83,0,0,1-2.56-.53L9.64,5C14,1.77,14.57,1,16.33,1c16.87,0,16.3-.27,17.74.8L41,7l-4,7Z"/><path class="cls-4" d="M15.36,15.63q0-1.45-.18-2.91C15.27,13.69,15.32,14.66,15.36,15.63Z"/><path class="cls-6" d="M30,1A6,6,0,0,1,18,1Z"/><path class="cls-4" d="M28,1a6,6,0,0,1-5,5.91A6,6,0,0,1,18,1Z"/></g></svg>