<svg xmlns="http://www.w3.org/2000/svg" viewBox="0 0 48 48"><defs><style>.cls-1{fill:#7c7d7d;}.cls-2{fill:#db5669;}.cls-3{fill:#f26674;}.cls-4{fill:#fc6;}.cls-5{fill:#ffde76;}.cls-6{fill:#9fdbf3;}.cls-7{fill:#b2e5fb;}.cls-8{fill:#374f68;}.cls-9{fill:#425b72;}.cls-10{fill:#dad7e5;}.cls-11{fill:#edebf2;}</style></defs><title>Happy hour</title><g id="Happy_hour" data-name="Happy hour"><path class="cls-1" d="M27,1H21a1,1,0,0,0,0,2h2V6a1,1,0,0,0,2,0V3h2A1,1,0,0,0,27,1Z"/><path class="cls-2" d="M42,24c0,15.75-18.93,23.84-30.31,13.13C-.25,25.94,7.83,6,24,6A18,18,0,0,1,42,24Z"/><path class="cls-3" d="M42,24a18,18,0,0,1-6.56,13.89A17.68,17.68,0,0,1,27,40C10.35,40,2.45,18.92,15.55,8.11A17.7,17.7,0,0,1,24,6,18,18,0,0,1,42,24Z"/><path class="cls-4" d="M47,10a8.94,8.94,0,0,1-1.72,5.28L32.72,2.72A9,9,0,0,1,47,10Z"/><path class="cls-5" d="M46.87,8.48a2.43,2.43,0,0,1-4.12,1.27l-8.1-8.1A9,9,0,0,1,46.87,8.48Z"/><path class="cls-4" d="M15.28,2.72,2.72,15.28A9,9,0,0,1,15.28,2.72Z"/><path class="cls-5" d="M15.28,2.72,8,10A2.92,2.92,0,0,1,3,8.06,8.94,8.94,0,0,1,4.72,2.72,9,9,0,0,1,15.28,2.72Z"/><path class="cls-6" d="M40,24A16,16,0,0,1,24,40C10.38,40,3.09,24,11.73,13.73,21.28,2.33,40,9.07,40,24Z"/><path class="cls-7" d="M38,26a15.93,15.93,0,0,1-3.73,10.27A15.93,15.93,0,0,1,24,40C10.38,40,3.09,24,11.73,13.73,22,5.09,38,12.39,38,26Z"/><path class="cls-8" d="M25,10a1,1,0,0,0-2,0A1,1,0,0,0,25,10Z"/><path class="cls-8" d="M34.61,14.81a1,1,0,0,0-1.42-1.42A1,1,0,0,0,34.61,14.81Z"/><path class="cls-8" d="M38,25a1,1,0,0,0,0-2A1,1,0,0,0,38,25Z"/><path class="cls-9" d="M33.19,34.61a1,1,0,0,0,1.42-1.42A1,1,0,0,0,33.19,34.61Z"/><path class="cls-9" d="M23,38a1,1,0,0,0,2,0A1,1,0,0,0,23,38Z"/><path class="cls-9" d="M13.39,33.19a1,1,0,0,0,1.42,1.42A1,1,0,0,0,13.39,33.19Z"/><path class="cls-9" d="M10,23a1,1,0,0,0,0,2A1,1,0,0,0,10,23Z"/><path class="cls-9" d="M14.81,13.39a1,1,0,0,0-1.42,1.42A1,1,0,0,0,14.81,13.39Z"/><path class="cls-1" d="M24,25H17a1,1,0,0,1,0-2h6V14a1,1,0,0,1,2,0V24A1,1,0,0,1,24,25Z"/><path class="cls-10" d="M24,22a2,2,0,1,0,1.82,2.82A2,2,0,0,0,24,22Z"/><path class="cls-11" d="M23.18,22.18a2,2,0,0,0,2.64,2.64A2,2,0,0,0,23.18,22.18Z"/><path class="cls-9" d="M20,21a1,1,0,0,1-1-1,1,1,0,0,0-2,0,1,1,0,0,1-1,1c-1.91,0-1-4,2-4S21.92,21,20,21Z"/><path class="cls-9" d="M32,21a1,1,0,0,1-1-1,1,1,0,0,0-2,0,1,1,0,0,1-1,1c-1.91,0-1-4,2-4S33.92,21,32,21Z"/><path class="cls-9" d="M14.74,29.64a1,1,0,0,1,1.54-1.28,10,10,0,0,0,15.44,0,1,1,0,0,1,1.54,1.28A12,12,0,0,1,14.74,29.64Z"/><path class="cls-4" d="M17.55,40.81c-2.45,3.89-3.11,4.94-3.19,5.08a2.36,2.36,0,0,1-4.3-1.79l1.63-7A18.06,18.06,0,0,0,17.55,40.81Z"/><path class="cls-5" d="M16.56,42.39,14.41,45.8a2.36,2.36,0,0,1-1.35-2.7,1.77,1.77,0,0,1,2.52-1.19C15.9,42.08,16.23,42.24,16.56,42.39Z"/><path class="cls-4" d="M37.88,45.38a2.36,2.36,0,0,1-4.24.51l-3.19-5.08a18.24,18.24,0,0,0,5.86-3.68C38,44.54,38.16,44.51,37.88,45.38Z"/><path class="cls-5" d="M37.88,45.38a2.36,2.36,0,0,1-2.74-1l-.94-1.51a1.79,1.79,0,0,1,.47-2.39,17.33,17.33,0,0,0,2-1.73C38.05,44.56,38.16,44.53,37.88,45.38Z"/></g></svg>