<svg xmlns="http://www.w3.org/2000/svg" viewBox="0 0 48 48"><defs><style>.cls-1{fill:#6fabe6;}.cls-2{fill:#dad7e5;}.cls-3{fill:#edebf2;}.cls-4{fill:#7c7d7d;}.cls-5{fill:#82bcf4;}</style></defs><title>Global language</title><g id="Global_language" data-name="Global language"><path class="cls-1" d="M21,44.78V31a2,2,0,0,0-2-2H3.6A21,21,0,0,1,26.08,3.1h0c.31,0,.61.06.92.11V17a2,2,0,0,0,2,2H44.4C48,33.82,35.18,47.07,21,44.78Z"/><rect class="cls-2" x="27" y="1" width="20" height="18" rx="2"/><path class="cls-3" d="M47,3V17C36.07,17,30,9,30,1H45A2,2,0,0,1,47,3Z"/><rect class="cls-2" x="1" y="29" width="20" height="18" rx="2"/><path class="cls-3" d="M21,31V45C10.07,45,4,37,4,29H19A2,2,0,0,1,21,31Z"/><path class="cls-4" d="M41.93,14.63C37.59,3.79,37.93,4,37,4s-.55-.32-4.93,10.63a1,1,0,0,0,1.86.74C35,12.61,34.83,13,35,13c4.92,0,3.85,0,4.11,0,.84,2.1,1,3,1.89,3A1,1,0,0,0,41.93,14.63ZM35.68,11,37,7.69,38.32,11Z"/><path class="cls-4" d="M15,34H12V33a1,1,0,0,0-2,0v1H7a1,1,0,0,0,0,2h5.89A7.22,7.22,0,0,1,11,39.46a9.42,9.42,0,0,1-.84-1,1,1,0,0,0-1.64,1.14,11.28,11.28,0,0,0,1,1.24,14.16,14.16,0,0,1-2,1.3,1,1,0,0,0,.9,1.78A15.21,15.21,0,0,0,11,42.2a15,15,0,0,0,2.55,1.69,1,1,0,0,0,.9-1.78,14.16,14.16,0,0,1-2-1.29A9,9,0,0,0,14.93,36,1,1,0,1,0,15,34Z"/><path class="cls-5" d="M37,40.47a20.87,20.87,0,0,1-16,1.66V31a2,2,0,0,0-2-2H7.2A21,21,0,0,1,13.89,5.59a21.14,21.14,0,0,1,9-2.57,23.35,23.35,0,0,1,3.17.09C27,3.11,25,3.16,25,5V19a2,2,0,0,0,2,2H43a2,2,0,0,0,1.64-.85A20.91,20.91,0,0,1,37,40.47Z"/><path class="cls-1" d="M34,25a35.63,35.63,0,0,1-2.34,11.84,16.93,16.93,0,0,1,5,3.79c.07.1.19,0-.74.67-.28.19-.56.38-.85.55a15.27,15.27,0,0,0-4.18-3.16,36.1,36.1,0,0,1-3.43,6c-4.59.51-1.84.82,1.58-6.83a14.7,14.7,0,0,0-7.83-.62c-.27,0-.19.31-.19-2a16.57,16.57,0,0,1,8.78.76A33.82,33.82,0,0,0,32,25H16a34.57,34.57,0,0,0,.32,4h-2A32.87,32.87,0,0,1,14,25H3V23H14a35.63,35.63,0,0,1,2.34-11.84A16.6,16.6,0,0,1,11.3,7.29,18.11,18.11,0,0,1,13,6.15a15.27,15.27,0,0,0,4.18,3.16,36.1,36.1,0,0,1,3.43-6c4.58-.51,1.84-.83-1.58,6.83a14.51,14.51,0,0,0,8,.6v2A16.57,16.57,0,0,1,18.22,12,33.82,33.82,0,0,0,16,23H32a30.3,30.3,0,0,0-.31-3.85c0-.21-.25-.15,2-.15A32.87,32.87,0,0,1,34,23H45c0,.74,0,1.29,0,2Z"/></g></svg>