<svg xmlns="http://www.w3.org/2000/svg" viewBox="0 0 48 48"><defs><style>.cls-1{fill:#c6c3d8;}.cls-2{fill:#dad7e5;}.cls-3{fill:#edebf2;}.cls-4{fill:#425b72;}.cls-5{fill:#374f68;}</style></defs><title>Shopping cart</title><g id="Shopping_cart" data-name="Shopping cart"><path class="cls-1" d="M39,41H10.16a4.17,4.17,0,0,1-3.61-6.23C11,27.06,9.41,28,21,28a1,1,0,0,1,0,2c-10.91,0-8.76-1.14-12.72,5.77A2.17,2.17,0,0,0,10.16,39H39A1,1,0,0,1,39,41Z"/><path class="cls-2" d="M45,8a1.61,1.61,0,0,1,1.55,2c0,.1-4.22,18.54-4.2,18.44a2,2,0,0,1-2,1.56H13c-.47-2.17-3.6-16.85-4.71-22Z"/><path class="cls-3" d="M45,8a1.61,1.61,0,0,1,1.55,2c-.73,3.23-2.95,13-3.87,17H35.43A24,24,0,0,1,11.93,8Z"/><path class="cls-4" d="M22,44a3,3,0,1,1-5.56-1.56A3,3,0,0,1,22,44Z"/><path class="cls-5" d="M20.56,46.56a3,3,0,0,1-4.12-4.12A3,3,0,0,1,20.56,46.56Z"/><path class="cls-4" d="M36,44a3,3,0,1,1-5.56-1.56A3,3,0,0,1,36,44Z"/><path class="cls-5" d="M34.56,46.56a3,3,0,0,1-4.12-4.12A3,3,0,0,1,34.56,46.56Z"/><path class="cls-1" d="M45.18,16l.46-2H34V8H32v6H23V8H21v6H9.57L10,16H21v6H11.29l.43,2H21v6h2V24h9v6h2V24h9.36l.46-2H34V16ZM32,22H23V16h9Z"/><path class="cls-1" d="M46.56,10A1.61,1.61,0,0,0,45,8H9.31l-1-4.63A3,3,0,0,0,5.38,1H2A1,1,0,0,0,2,3H5.38a1,1,0,0,1,1,.79c6.09,28.45,5.62,26.4,5.75,26.47C13.05,29.83,40.5,30,40.4,30a2,2,0,0,0,2-1.56C42.38,28.33,46.79,8.93,46.56,10ZM40.45,28H13.6L9.74,10H44.55Z"/></g></svg>