<svg xmlns="http://www.w3.org/2000/svg" viewBox="0 0 48 48"><defs><style>.cls-1{fill:#dad7e5;}.cls-2{fill:#db5669;}.cls-3{fill:#7c7d7d;}.cls-4{fill:#919191;}.cls-5{fill:#f26674;}.cls-6{fill:#c4455e;}.cls-7{fill:#9fdbf3;}.cls-8{fill:#b2e5fb;}.cls-9{fill:#edebf2;}</style></defs><title>Find product</title><g id="Find_product" data-name="Find product"><path class="cls-1" d="M32,41c-.55,0-.43,0-3.76-3.34a1,1,0,0,1,1.42-1.42l3.05,3A1,1,0,0,1,32,41Z"/><path class="cls-1" d="M44,13a3,3,0,0,1-3,3H24a3,3,0,0,0,2-5.23V10H41A3,3,0,0,1,44,13Z"/><path class="cls-1" d="M24,16c-18.34,0-17.92.32-19.12-.88A3,3,0,0,1,7,10H22v.77A3,3,0,0,0,24,16Z"/><path class="cls-2" d="M41,16c-.34,2.68-.08.62-1.34,10.74a6,6,0,0,1-6,5.26H31c0-9.26-14-9.23-14,0H14.3a6,6,0,0,1-6-5.26L7,16Z"/><path class="cls-3" d="M29,37A7,7,0,1,1,25.6,25.19,7,7,0,0,1,29,37Z"/><path class="cls-4" d="M29.85,35.85C23.54,40,16,32.48,20.15,26.15,26.51,22,34,29.57,29.85,35.85Z"/><path class="cls-3" d="M24,16a3,3,0,0,1-2-5.23V3a2,2,0,0,1,4,0v7.77A3,3,0,0,1,24,16Z"/><path class="cls-4" d="M26.24,15A1,1,0,0,1,26,15a3,3,0,0,1-2-5.23c0-8.48-.09-8.15.26-8.75a1.94,1.94,0,0,1,1.15.57c.79.77.59.74.59,9.18A3,3,0,0,1,26.24,15Z"/><path class="cls-3" d="M39,45a2,2,0,0,1-3.41,1.41l-5.23-5.22,2.83-2.83C38.94,44.12,39,43.93,39,45Z"/><path class="cls-4" d="M38.73,44a2,2,0,0,1-3.14.41l-4.23-4.22,1.83-1.83C38.94,44.12,38.54,43.68,38.73,44Z"/><path class="cls-5" d="M40.75,18c-1.12,8.94-.9,10.15-2.58,12H30.71a7,7,0,0,0-10.77-3.69,7,7,0,0,0-3.6,2.59,9.91,9.91,0,0,1-5.4-8.07A2.84,2.84,0,0,1,13.78,18Z"/><path class="cls-6" d="M16,22c0,1.62.3,3.15-1.18,3.82A2,2,0,0,1,12,24c0-2-.06-2.32.18-2.82A2,2,0,0,1,16,22Z"/><path class="cls-2" d="M15,23c0,2,.06,2.32-.18,2.82A2,2,0,0,1,12,24c0-2-.06-2.32.18-2.82A2,2,0,0,1,15,23Z"/><path class="cls-6" d="M26,22c0,1.87.12,2.53-.4,3.19a6.9,6.9,0,0,0-3.2,0c-.48-.61-.4-1-.4-3.19a2,2,0,0,1,4,0Z"/><path class="cls-2" d="M25,23c0,1.35,0,2,0,2.08a6.85,6.85,0,0,0-2.59.11A1.92,1.92,0,0,1,22,24c0-2-.06-2.32.18-2.82A2,2,0,0,1,25,23Z"/><path class="cls-6" d="M36,22c0,1.62.3,3.15-1.18,3.82A2,2,0,0,1,32,24c0-2-.06-2.32.18-2.82A2,2,0,0,1,36,22Z"/><path class="cls-2" d="M35,23c0,2,.06,2.32-.18,2.82A2,2,0,0,1,32,24c0-2-.06-2.32.18-2.82A2,2,0,0,1,35,23Z"/><path class="cls-7" d="M29,32a5,5,0,1,1-8-4A5,5,0,0,1,29,32Z"/><path class="cls-8" d="M29,32a4.94,4.94,0,0,1-1,3,4.94,4.94,0,0,1-3,1,5,5,0,0,1-4-8A5,5,0,0,1,29,32Z"/><path class="cls-9" d="M20,10v1.77A2.94,2.94,0,0,0,19,14H11a4,4,0,0,1-4-4Z"/><path class="cls-9" d="M43.82,14h-17A3,3,0,0,0,26,10.77V10H41A3,3,0,0,1,43.82,14Z"/></g></svg>