<svg xmlns="http://www.w3.org/2000/svg" viewBox="0 0 48 48"><defs><style>.cls-1{fill:#fc6;}.cls-2{fill:#ffde76;}.cls-3{fill:#ffba55;}.cls-4{fill:#7c7d7d;}</style></defs><title>Currency Exchange</title><g id="Currency_Exchange" data-name="Currency Exchange"><path class="cls-1" d="M21.07,21.89A12,12,0,0,1,1,13,11.88,11.88,0,0,1,7.93,2.11C19.81-3.37,31.31,11.65,21.07,21.89Z"/><path class="cls-2" d="M21.07,21.89C9.19,27.37-2.31,12.35,7.93,2.11,19.81-3.37,31.31,11.65,21.07,21.89Z"/><path class="cls-1" d="M43.07,43.89A12,12,0,0,1,23,35a11.88,11.88,0,0,1,6.93-10.89C41.79,18.64,53.32,33.64,43.07,43.89Z"/><path class="cls-2" d="M43.07,43.89c-11.88,5.48-23.38-9.54-13.14-19.78C41.79,18.64,53.32,33.64,43.07,43.89Z"/><path class="cls-3" d="M14,12V8h3a1,1,0,0,0,0-2H14V5a1,1,0,0,0-2,0V6a4,4,0,0,0,0,8v4H9a1,1,0,0,0,0,2h3v1a1,1,0,0,0,2,0V20a4,4,0,0,0,0-8Zm-4-2a2,2,0,0,1,2-2v4A2,2,0,0,1,10,10Zm4,8V14a2,2,0,0,1,0,4Z"/><path class="cls-4" d="M41.29,17.29c-.4.4-.29,1.4-.29-5.29a5,5,0,0,0-5-5H29a1,1,0,0,0,0,2h7a3,3,0,0,1,3,3c0,6.43.13,5.71-.29,5.29a1,1,0,0,0-1.42,1.42l2,2a1,1,0,0,0,1.42,0l2-2A1,1,0,0,0,41.29,17.29Z"/><path class="cls-4" d="M19,39H12a3,3,0,0,1-3-3c0-6.43-.13-5.71.29-5.29a1,1,0,0,0,1.42-1.42l-2-2a1,1,0,0,0-1.42,0l-2,2a1,1,0,0,0,1.42,1.42c.4-.4.29-1.4.29,5.29a5,5,0,0,0,5,5h7A1,1,0,0,0,19,39Z"/><path class="cls-3" d="M38,41a6,6,0,0,1-5.19-3H35a1,1,0,0,0,0-2H32.09a5.6,5.6,0,0,1,0-2H35a1,1,0,0,0,0-2H32.81A6,6,0,0,1,38,29a1,1,0,0,0,0-2,8,8,0,0,0-7.41,5H28a1,1,0,0,0,0,2h2.07a7.44,7.44,0,0,0,0,2H28a1,1,0,0,0,0,2h2.59A8,8,0,0,0,38,43,1,1,0,0,0,38,41Z"/></g></svg>