<svg xmlns="http://www.w3.org/2000/svg" viewBox="0 0 48 48"><defs><style>.cls-1{fill:#db5669;}.cls-2{fill:#f26674;}.cls-3{fill:#dad7e5;}.cls-4{fill:#edebf2;}.cls-5{fill:#425b72;}.cls-6{fill:#919191;}.cls-7{fill:#7c7d7d;}.cls-8{fill:#c4455e;}.cls-9{fill:#b5e08c;}</style></defs><title>Shopping list</title><g id="Shopping_list" data-name="Shopping list"><path class="cls-1" d="M36,4V9H4V4A1,1,0,0,1,5,3H35A1,1,0,0,1,36,4Z"/><path class="cls-2" d="M36,4V9H7V3H35A1,1,0,0,1,36,4Z"/><path class="cls-3" d="M36,9V45H5a1,1,0,0,1-1-1V9Z"/><path class="cls-4" d="M33.2,34.6,35,37H29l1.8-2.4a1,1,0,0,0-1.6-1.2L26.5,37H22a1,1,0,0,0,0,2h1.2l.23,1.14A29,29,0,0,1,7,14V9H36V35l-1.2-1.6A1,1,0,0,0,33.2,34.6Z"/><path class="cls-5" d="M10,6V2a1,1,0,0,1,2,0V6A1,1,0,0,1,10,6Z"/><path class="cls-5" d="M16,6V2a1,1,0,0,1,2,0V6A1,1,0,0,1,16,6Z"/><path class="cls-5" d="M22,6V2a1,1,0,0,1,2,0V6A1,1,0,0,1,22,6Z"/><path class="cls-5" d="M28,6V2a1,1,0,0,1,2,0V6A1,1,0,0,1,28,6Z"/><path class="cls-1" d="M43,37c-1.77,8.85-1.57,7.86-1.68,8.39a2,2,0,0,1-2,1.61H28.64a2,2,0,0,1-2-1.61L25,37Z"/><path class="cls-2" d="M42.6,39l-1.2,6H39.2a12.42,12.42,0,0,1-9.43-4.33A1,1,0,0,1,30.52,39Z"/><path class="cls-6" d="M44,38H24a1,1,0,0,1,0-2H44A1,1,0,0,1,44,38Z"/><path class="cls-7" d="M29,38a1,1,0,0,1-.8-1.6l3-4a1,1,0,0,1,1.6,1.2C29.55,37.93,29.66,38,29,38Z"/><path class="cls-7" d="M39,38c-.67,0-.55-.06-3.8-4.4a1,1,0,0,1,1.6-1.2l3,4A1,1,0,0,1,39,38Z"/><path class="cls-8" d="M29,43V41a1,1,0,0,1,2,0v2A1,1,0,0,1,29,43Z"/><path class="cls-8" d="M33,43V41a1,1,0,0,1,2,0v2A1,1,0,0,1,33,43Z"/><path class="cls-8" d="M37,43V41a1,1,0,0,1,2,0v2A1,1,0,0,1,37,43Z"/><path class="cls-9" d="M9.29,18.71a1,1,0,0,0,1.42,0l4-4a1,1,0,0,0-1.42-1.42L10,16.59l-1.29-1.3a1,1,0,0,0-1.42,1.42Z"/><path class="cls-9" d="M13.29,23.29,10,26.59l-1.29-1.3a1,1,0,0,0-1.42,1.42c3.29,3.28,2,3.4,7.42-2A1,1,0,0,0,13.29,23.29Z"/><path class="cls-9" d="M13.29,33.29,10,36.59l-1.29-1.3a1,1,0,0,0-1.42,1.42c3.29,3.28,2,3.4,7.42-2A1,1,0,0,0,13.29,33.29Z"/><path class="cls-6" d="M18,18H32a1,1,0,0,0,0-2H18A1,1,0,0,0,18,18Z"/><path class="cls-6" d="M32,26H18a1,1,0,0,0,0,2H32A1,1,0,0,0,32,26Z"/><path class="cls-6" d="M20,36H18a1,1,0,0,0,0,2h2A1,1,0,0,0,20,36Z"/></g></svg>