<svg xmlns="http://www.w3.org/2000/svg" viewBox="0 0 48 48"><defs><style>.cls-1{fill:#7c7d7d;}.cls-2{fill:#fc6;}.cls-3{fill:#ffde76;}.cls-4{fill:#dad7e5;}.cls-5{fill:#edebf2;}.cls-6{fill:#c6c3d8;}.cls-7{fill:#919191;}.cls-8{fill:#f26674;}</style></defs><title>Shopping bag</title><g id="Shopping_bag" data-name="Shopping bag"><path class="cls-1" d="M29,11a8,8,0,0,0-16,0,1,1,0,0,1-2,0,10,10,0,0,1,20,0A1,1,0,0,1,29,11Z"/><path class="cls-2" d="M47,11V45a2,2,0,0,1-2,2H11V11Z"/><path class="cls-3" d="M47,11V43a2,2,0,0,1-2,2A34,34,0,0,1,11,11h6v3.27a2,2,0,1,0,2,0V11H35v3.27a2,2,0,1,0,2,0V11Z"/><path class="cls-4" d="M11,11V47H3a2,2,0,0,1-1.93-1.49C1,45.18,1,47.35,1,11Z"/><path class="cls-5" d="M6,11V47H3a2,2,0,0,1-1.93-1.49C1,45.18,1,47.35,1,11Z"/><path class="cls-6" d="M11,45.58V47H9.58L6,43.41,2.49,46.93a2,2,0,0,1-1.42-1.42L5,41.59V22a1,1,0,0,1,2,0V41.59Z"/><path class="cls-7" d="M37,16V11a8,8,0,0,0-16,0v5a1,1,0,0,1-2,0V11a10,10,0,0,1,20,0v5A1,1,0,0,1,37,16Z"/><circle class="cls-7" cx="20" cy="16" r="2"/><circle class="cls-7" cx="38" cy="16" r="2"/><path class="cls-8" d="M36.07,32,29,39.07,21.93,32A5,5,0,0,1,29,24.93,5,5,0,0,1,36.07,32Z"/></g></svg>