<svg xmlns="http://www.w3.org/2000/svg" viewBox="0 0 48 48"><defs><style>.cls-1{fill:#fc6;}.cls-2{fill:#ffde76;}.cls-3{fill:#dad7e5;}.cls-4{fill:#edebf2;}.cls-5{fill:#a87e6b;}.cls-6{fill:#6fabe6;}.cls-7{fill:#82bcf4;}.cls-8{fill:#7c7d7d;}</style></defs><title>Policy rules</title><g id="Policy_rules" data-name="Policy rules"><rect class="cls-1" x="6" y="1" width="36" height="6"/><path class="cls-2" d="M42,1V5H14a4,4,0,0,1-4-4Z"/><rect class="cls-1" x="6" y="41" width="36" height="6"/><path class="cls-2" d="M42,41v4H14a4,4,0,0,1-4-4Z"/><rect class="cls-3" x="8" y="7" width="32" height="34"/><path class="cls-4" d="M40,9V41H36A26,26,0,0,1,10,15a6,6,0,0,1,6-6Z"/><path class="cls-5" d="M45,6H42V2h3A2,2,0,0,1,45,6Z"/><path class="cls-5" d="M3,6H6V2H3A2,2,0,0,0,3,6Z"/><path class="cls-5" d="M45,46H42V42h3A2,2,0,0,1,45,46Z"/><path class="cls-5" d="M3,46H6V42H3A2,2,0,0,0,3,46Z"/><path class="cls-6" d="M28,13c0,1.95.11,3.39-1.08,5.33A7.27,7.27,0,0,1,24,21a7.24,7.24,0,0,1-4-6.47V13l4-2Z"/><path class="cls-7" d="M28,13c0,2.32.1,4.52-2.31,6.83A7.24,7.24,0,0,1,22,13.53V12l2-1Z"/><path class="cls-8" d="M14,24H12a1,1,0,0,0,0,2h2A1,1,0,0,0,14,24Z"/><path class="cls-8" d="M18,26H36a1,1,0,0,0,0-2H18A1,1,0,0,0,18,26Z"/><path class="cls-8" d="M14,28H12a1,1,0,0,0,0,2h2A1,1,0,0,0,14,28Z"/><path class="cls-8" d="M36,28H18a1,1,0,0,0,0,2H36A1,1,0,0,0,36,28Z"/><path class="cls-8" d="M14,32H12a1,1,0,0,0,0,2h2A1,1,0,0,0,14,32Z"/><path class="cls-8" d="M36,32H18a1,1,0,0,0,0,2H36A1,1,0,0,0,36,32Z"/><path class="cls-8" d="M14,36H12a1,1,0,0,0,0,2h2A1,1,0,0,0,14,36Z"/><path class="cls-8" d="M36,36H18a1,1,0,0,0,0,2H36A1,1,0,0,0,36,36Z"/></g></svg>