<svg xmlns="http://www.w3.org/2000/svg" viewBox="0 0 48 48"><defs><style>.cls-1{fill:#fc6;}.cls-2{fill:#ffde76;}.cls-3{fill:#db5669;}.cls-4{fill:#f26674;}</style></defs><title>Gift box</title><g id="Gift_box" data-name="Gift box"><rect class="cls-1" x="3" y="9" width="42" height="8"/><path class="cls-2" d="M45,9v8H15A8,8,0,0,1,7,9Z"/><rect class="cls-1" x="6" y="17" width="36" height="30"/><path class="cls-2" d="M42,19V45c-10.56,0-16.29.83-23-3.56A22,22,0,0,1,9,23a4,4,0,0,1,4-4Z"/><path class="cls-3" d="M39,1V3a6,6,0,0,1-6,6H27V7a6,6,0,0,1,6-6Z"/><path class="cls-4" d="M39,1V3a6,6,0,0,1-6,6H29V7a6,6,0,0,1,6-6Z"/><path class="cls-3" d="M21,7V9H15A6,6,0,0,1,9,3V1h6A6,6,0,0,1,21,7Z"/><path class="cls-4" d="M21,7V9H17a6,6,0,0,1-6-6V1h4A6,6,0,0,1,21,7Z"/><path class="cls-3" d="M27,6V9H21V6a3,3,0,0,1,6,0Z"/><path class="cls-4" d="M27,6V9H23V6a3,3,0,0,1,2-2.82A3,3,0,0,1,27,6Z"/><rect class="cls-4" x="17" y="9" width="14" height="8"/><rect class="cls-3" x="19" y="17" width="10" height="30"/><path class="cls-4" d="M29,19V44.91a21.8,21.8,0,0,1-10-3.47V19Z"/></g></svg>