<svg xmlns="http://www.w3.org/2000/svg" viewBox="0 0 48 48"><defs><style>.cls-1{fill:#dad7e5;}.cls-2{fill:#6fabe6;}.cls-3{fill:#82bcf4;}.cls-4{fill:#9fdbf3;}.cls-5{fill:#b2e5fb;}.cls-6{fill:#425b72;}.cls-7{fill:#374f68;}.cls-8{fill:#edebf2;}.cls-9{fill:#b5e08c;}</style></defs><title>Free delivery</title><g id="Free_delivery" data-name="Free delivery"><path class="cls-1" d="M31,8V36H16a4,4,0,0,0-8,0H1V8Z"/><path class="cls-2" d="M47,28v8H43a4,4,0,0,0-8,0H31V14h6.65a2,2,0,0,1,1.85,1.26L43,24A4,4,0,0,1,47,28Z"/><path class="cls-3" d="M47,28v6H42.46a4,4,0,0,0-6.92,0A2.54,2.54,0,0,1,33,31.46V14h4.65a2,2,0,0,1,1.85,1.26L43,24A4,4,0,0,1,47,28Z"/><path class="cls-4" d="M43,24H35V14h2.65a2,2,0,0,1,1.85,1.26Z"/><path class="cls-5" d="M43,24a6,6,0,0,1-6-6V14h.65a2,2,0,0,1,1.85,1.26Z"/><path class="cls-6" d="M16,36a4,4,0,1,1-4-4A4,4,0,0,1,16,36Z"/><path class="cls-7" d="M14.93,38.72c-2.73,3-7.69.37-6.86-3.44C10.81,32.31,15.76,34.92,14.93,38.72Z"/><path class="cls-6" d="M43,36a4,4,0,1,1-4-4A4,4,0,0,1,43,36Z"/><path class="cls-7" d="M41.93,38.72c-2.73,3-7.69.37-6.86-3.44C37.81,32.31,42.76,34.92,41.93,38.72Z"/><path class="cls-1" d="M13,36a1,1,0,0,0-2,0A1,1,0,0,0,13,36Z"/><path class="cls-8" d="M31,8V34H15.46a4,4,0,0,0-6.92,0A4.54,4.54,0,0,1,4,29.46V8Z"/><path class="cls-1" d="M40,36a1,1,0,0,0-2,0A1,1,0,0,0,40,36Z"/><path class="cls-9" d="M8,16a1,1,0,0,0,0-2H5a1,1,0,0,0-1,1v6a1,1,0,0,0,2,0V19H8a1,1,0,0,0,0-2H6V16Z"/><path class="cls-9" d="M13.5,14H11a1,1,0,0,0-1,1v6a1,1,0,0,0,2,0V19h.46c1.81,2.71,1.84,3,2.54,3a1,1,0,0,0,.83-1.55L14.67,18.7A2.5,2.5,0,0,0,13.5,14ZM12,16h1.5a.5.5,0,0,1,.5.5c0,.63-.61.5-2,.5Z"/><path class="cls-9" d="M21,16a1,1,0,0,0,0-2H18a1,1,0,0,0-1,1v6a1,1,0,0,0,1,1h3a1,1,0,0,0,0-2H19V19h1a1,1,0,0,0,0-2H19V16Z"/><path class="cls-9" d="M27,20H25V19h1a1,1,0,0,0,0-2H25V16h2a1,1,0,0,0,0-2H24a1,1,0,0,0-1,1v6a1,1,0,0,0,1,1h3A1,1,0,0,0,27,20Z"/><rect class="cls-1" x="1" y="27" width="30" height="2"/></g></svg>