<svg xmlns="http://www.w3.org/2000/svg" viewBox="0 0 48 48"><defs><style>.cls-1{fill:#c6c3d8;}.cls-2{fill:#dad7e5;}.cls-3{fill:#edebf2;}.cls-4{fill:#db5669;}.cls-5{fill:#6fabe6;}.cls-6{fill:#9dcc6b;}.cls-7{fill:#82bcf4;}.cls-8{fill:#5b9ad8;}.cls-9{fill:#919191;}.cls-10{fill:#b5e08c;}</style></defs><title>Online buying order</title><g id="Online_buying_order" data-name="Online buying order"><path class="cls-1" d="M47,3V9H1V3A2,2,0,0,1,3,1H45A2,2,0,0,1,47,3Z"/><path class="cls-2" d="M47,3V9H4V3A2,2,0,0,1,6,1H45A2,2,0,0,1,47,3Z"/><path class="cls-2" d="M47,9V45a2,2,0,0,1-2,2H3a2,2,0,0,1-2-2V9Z"/><path class="cls-3" d="M47,9V45H40A36.11,36.11,0,0,1,4,9Z"/><path class="cls-4" d="M6,5A1,1,0,0,0,4,5,1,1,0,0,0,6,5Z"/><path class="cls-5" d="M10,5A1,1,0,0,0,8,5,1,1,0,0,0,10,5Z"/><path class="cls-6" d="M14,5a1,1,0,0,0-2,0A1,1,0,0,0,14,5Z"/><path class="cls-3" d="M43,6H21a1,1,0,0,1,0-2H43A1,1,0,0,1,43,6Z"/><polygon class="cls-5" points="29 23 26 27 23 25 23 38 11 38 11 25 8 27 5 23 11 18 23 18 29 23"/><path class="cls-7" d="M29,23l-3,4-3-2V36H18a5,5,0,0,1-5-5V25.39a1.28,1.28,0,0,0-2-1.06A1.29,1.29,0,0,1,9.27,24L7.15,21.21,11,18H23Z"/><path class="cls-8" d="M21,18a4,4,0,0,1-8,0Z"/><path class="cls-5" d="M19,18a4,4,0,0,1-3,3.87A4,4,0,0,1,13,18Z"/><path class="cls-9" d="M33,19H43a1,1,0,0,0,0-2H33A1,1,0,0,0,33,19Z"/><path class="cls-9" d="M43,21H33a1,1,0,0,0,0,2H43A1,1,0,0,0,43,21Z"/><path class="cls-9" d="M37,25H33a1,1,0,0,0,0,2h4A1,1,0,0,0,37,25Z"/><path class="cls-6" d="M44,36a2,2,0,0,1-2,2H34a2,2,0,0,1,0-4h8A2,2,0,0,1,44,36Z"/><path class="cls-10" d="M44,36H36a2,2,0,0,1-2-2h8A2,2,0,0,1,44,36Z"/></g></svg>