<svg xmlns="http://www.w3.org/2000/svg" viewBox="0 0 48 48"><defs><style>.cls-1{fill:#9fdbf3;}.cls-2{fill:#b2e5fb;}.cls-3{fill:#374f68;}.cls-4{fill:#425b72;}.cls-5{fill:#edebf2;}.cls-6{fill:#f6ccaf;}.cls-7{fill:#edb996;}.cls-8{fill:#db5669;}.cls-9{fill:#f26674;}.cls-10{fill:#7c7d7d;}.cls-11{fill:#dad7e5;}</style></defs><title>Tracking delivery</title><g id="Tracking_delivery" data-name="Tracking delivery"><rect class="cls-1" x="12" y="7" width="28" height="34"/><path class="cls-2" d="M38,14s-3-4.41-3.82-7H15V41H40V10.83C39.4,11.88,38.57,13.18,38,14Zm-4,4a4,4,0,0,1-4,4H21a2,2,0,0,0,0,4h9a4,4,0,0,1,0,8H18a1,1,0,0,1,0-2H30a2,2,0,0,0,0-4H21a4,4,0,0,1,0-8h9a2,2,0,0,0,2-2V15a1,1,0,0,1,2,0Z"/><rect class="cls-3" x="12" y="7" width="2" height="34"/><rect class="cls-3" x="38" y="7" width="2" height="34"/><path class="cls-4" d="M40,10.83V41H38V14C38.58,13.17,39.4,11.87,40,10.83Z"/><path class="cls-3" d="M40,41c0,1.9.13,2.83-.52,4A4,4,0,0,1,36,47H16a4,4,0,0,1-4-4V41Z"/><path class="cls-4" d="M40,41c0,1.9.13,2.83-.52,4-.35,0,1.09,0-20.48,0a4,4,0,0,1-4-4Z"/><path class="cls-3" d="M40,5V7H12V5a4,4,0,0,1,4-4H36A4,4,0,0,1,40,5Z"/><path class="cls-4" d="M38.72,2.07A4,4,0,0,0,34.18,7H15V5a4,4,0,0,1,4-4C37.63,1,37.16.64,38.72,2.07Z"/><path class="cls-5" d="M27,45H25a1,1,0,0,1,0-2h2A1,1,0,0,1,27,45Z"/><rect class="cls-6" x="7" y="27" width="10" height="10"/><rect class="cls-7" x="3" y="27" width="4" height="10"/><path class="cls-5" d="M13,27v2a1,1,0,0,1-2,0V27Z"/><path class="cls-8" d="M44,5c0,1.87-3,6.49-4,8,0,0-4-5.79-4-8a4,4,0,0,1,8,0Z"/><path class="cls-9" d="M44,5c0,1.36-1.52,4.08-2.68,6C40.18,9.21,38,5.63,38,4a4,4,0,0,1,1.28-2.93A4,4,0,0,1,44,5Z"/><path class="cls-10" d="M32,33H20a1,1,0,0,1,0-2H32a2,2,0,0,0,0-4H23a4,4,0,0,1,0-8h9a2,2,0,0,0,2-2V14a1,1,0,0,1,2,0v3a4,4,0,0,1-4,4H23a2,2,0,0,0,0,4h9a4,4,0,0,1,0,8Z"/><path class="cls-11" d="M41,5a1,1,0,0,0-2,0A1,1,0,0,0,41,5Z"/></g></svg>