<svg xmlns="http://www.w3.org/2000/svg" viewBox="0 0 48 48"><defs><style>.cls-1{fill:#fc6;}.cls-2{fill:#6fabe6;}.cls-3{fill:#82bcf4;}.cls-4{fill:#9fdbf3;}.cls-5{fill:#b2e5fb;}.cls-6{fill:#ffde76;}.cls-7{fill:#425b72;}.cls-8{fill:#374f68;}.cls-9{fill:#dad7e5;}.cls-10{fill:#edebf2;}.cls-11{fill:#9dcc6b;}</style></defs><title>Delivery truck</title><g id="Delivery_truck" data-name="Delivery truck"><path class="cls-1" d="M31,10V35H19a4,4,0,0,0-8,0H6a1,1,0,0,1-1-1V10A1,1,0,0,1,6,9H30A1,1,0,0,1,31,10Z"/><path class="cls-2" d="M47,29v6H43a4,4,0,0,0-8,0H31V14h6.6a2,2,0,0,1,1.88,1.32L43,25A4,4,0,0,1,47,29Z"/><path class="cls-3" d="M47,29v4H42.46a4,4,0,0,0-6.92,0A2.54,2.54,0,0,1,33,30.46V14h4.6a2,2,0,0,1,1.88,1.32L43,25A4,4,0,0,1,47,29Z"/><path class="cls-2" d="M35.55,33a4.73,4.73,0,0,0-.23.45,2.35,2.35,0,0,1,.22-.45Z"/><path class="cls-2" d="M42.68,33.45a4.73,4.73,0,0,0-.23-.45h0A2.35,2.35,0,0,1,42.68,33.45Z"/><path class="cls-4" d="M43,25H35V14h2.6a2,2,0,0,1,1.88,1.32Z"/><path class="cls-5" d="M43,25a5.78,5.78,0,0,1-6-5.77V14h.6a2,2,0,0,1,1.88,1.32Z"/><path class="cls-6" d="M31,10V33H18.46a4,4,0,0,0-6.92,0A3.54,3.54,0,0,1,8,29.46V9H30A1,1,0,0,1,31,10Z"/><path class="cls-1" d="M31,26v2H12a1,1,0,0,1,0-2Z"/><path class="cls-7" d="M19,35a4,4,0,1,1-4-4A4,4,0,0,1,19,35Z"/><path class="cls-8" d="M17.93,37.72c-2.73,3-7.69.37-6.86-3.44C13.81,31.31,18.76,33.92,17.93,37.72Z"/><path class="cls-7" d="M43,35a4,4,0,1,1-4-4A4,4,0,0,1,43,35Z"/><path class="cls-8" d="M41.93,37.72c-2.73,3-7.69.37-6.86-3.44C37.81,31.31,42.76,33.92,41.93,37.72Z"/><path class="cls-9" d="M16,35a1,1,0,0,0-2,0A1,1,0,0,0,16,35Z"/><path class="cls-9" d="M40,35a1,1,0,0,0-2,0A1,1,0,0,0,40,35Z"/><path class="cls-10" d="M11,16H2a1,1,0,0,1,0-2h9A1,1,0,0,1,11,16Z"/><path class="cls-10" d="M10,22H3a1,1,0,0,1,0-2h7A1,1,0,0,1,10,22Z"/><path class="cls-10" d="M8,28H4a1,1,0,0,1,0-2H8A1,1,0,0,1,8,28Z"/><path class="cls-11" d="M17,23c-.55,0-.43,0-3.71-3.29a1,1,0,0,1,1.42-1.42l2.34,2.35,6.3-5.4a1,1,0,0,1,1.3,1.52C17.09,23.24,17.53,23,17,23Z"/></g></svg>