<svg xmlns="http://www.w3.org/2000/svg" viewBox="0 0 48 48"><defs><style>.cls-1{fill:#dad7e5;}.cls-2{fill:#edebf2;}.cls-3{fill:#84b749;}.cls-4{fill:#9dcc6b;}.cls-5{fill:#5b9ad8;}.cls-6{fill:#6fabe6;}.cls-7{fill:#7c7d7d;}</style></defs><title>Time duration</title><g id="Time_duration" data-name="Time duration"><path class="cls-1" d="M43,24A19,19,0,1,1,15,7.27,19,19,0,0,1,43,24Z"/><path class="cls-2" d="M43,24a18.94,18.94,0,0,1-7,14.73A18.83,18.83,0,0,1,27,41C9.14,41,1.21,18.49,15,7.27A19,19,0,0,1,43,24Z"/><path class="cls-3" d="M47,24H43C43,7,22.41-1.3,10.57,10.57L12.5,12.5,5,13c.43-3,.75-5.25,1-7L7.74,7.74C22.13-6.65,47,3.51,47,24Z"/><path class="cls-4" d="M47,24H45A23,23,0,0,0,12.78,3.93C27.79-4.55,47,6.23,47,24Z"/><path class="cls-5" d="M39,24a14.93,14.93,0,0,1-5.43,11.54s0,0,0,0C23.89,43.55,9,36.76,9,24c0-3.87,1.71-7.82,3.46-9.57C21.37,3.63,39,10,39,24Z"/><path class="cls-6" d="M37,26c0,5.2-3,9.36-3.46,9.57C23.89,43.55,9,36.76,9,24c0-3.87,1.71-7.82,3.46-9.57C22.11,6.45,37,13.24,37,26Z"/><path class="cls-3" d="M43,35l-1,7-1.74-1.74C25.77,54.75,1,44.38,1,24H5C5,41,25.59,49.3,37.43,37.43L35.5,35.5Z"/><path class="cls-4" d="M42,42l-1.74-1.74a23,23,0,0,1-7,4.8A23,23,0,0,0,42.7,35C43.12,35,43.15,34,42,42Z"/><path class="cls-1" d="M24.1,14a1,1,0,0,0-.2-2A1,1,0,0,0,24.1,14Z"/><path class="cls-1" d="M31.15,17a1,1,0,0,0,1.26-1.55A1,1,0,0,0,31.15,17Z"/><path class="cls-1" d="M34,24.1a1,1,0,0,0,2-.2A1,1,0,0,0,34,24.1Z"/><path class="cls-1" d="M31,31.15a1,1,0,0,0,1.55,1.26A1,1,0,0,0,31,31.15Z"/><path class="cls-1" d="M23.9,34a1,1,0,0,0,.2,2A1,1,0,0,0,23.9,34Z"/><path class="cls-1" d="M16.85,31a1,1,0,0,0-1.26,1.55A1,1,0,0,0,16.85,31Z"/><path class="cls-1" d="M14,23.9a1,1,0,0,0-2,.2A1,1,0,0,0,14,23.9Z"/><path class="cls-1" d="M17,16.85a1,1,0,0,0-1.55-1.26A1,1,0,0,0,17,16.85Z"/><path class="cls-7" d="M23,22V17a1,1,0,0,1,2,0v5A1,1,0,0,1,23,22Z"/><path class="cls-7" d="M19,30a1,1,0,0,1-.71-1.71l4-4a1,1,0,0,1,1.42,1.42C19.34,30.08,19.56,30,19,30Z"/><path class="cls-1" d="M24,22a2,2,0,1,0,1.82,2.82A2,2,0,0,0,24,22Z"/><path class="cls-2" d="M23.18,22.18a2,2,0,0,0,2.64,2.64A2,2,0,0,0,23.18,22.18Z"/></g></svg>