<svg xmlns="http://www.w3.org/2000/svg" viewBox="0 0 64 64"><defs><style>.cls-1{fill:#b0c4d9;}.cls-2{fill:#0e9347;}.cls-3{fill:#3bb54a;}.cls-4{fill:#89c763;}</style></defs><title>standing money</title><g id="standing_money" data-name="standing money"><path class="cls-1" d="M59,59H5a1,1,0,0,1,0-2H59a1,1,0,0,1,0,2Z"/><rect class="cls-2" x="8.67" y="17.86" width="46.67" height="28.28" rx="3" ry="3" transform="translate(-13.25 32) rotate(-45)"/><path class="cls-2" d="M14,35.67,35.67,14a4,4,0,0,0,5.66,0L50,22.67a4,4,0,0,0,0,5.66L28.33,50a4,4,0,0,0-5.66,0L14,41.33A4,4,0,0,0,14,35.67Z"/><rect class="cls-2" x="8.67" y="17.86" width="46.67" height="28.28" rx="3" ry="3" transform="translate(-13.25 32) rotate(-45)"/><path class="cls-3" d="M14,35.67,35.67,14a4,4,0,0,0,5.66,0L50,22.67a4,4,0,0,0,0,5.66L28.33,50a4,4,0,0,0-5.66,0L14,41.33A4,4,0,0,0,14,35.67Z"/><ellipse class="cls-4" cx="32" cy="32" rx="4.5" ry="5.66" transform="translate(-13.25 32) rotate(-45)"/></g></svg>