<svg xmlns="http://www.w3.org/2000/svg" viewBox="0 0 64 64"><defs><style>.cls-1{fill:#0e9347;}.cls-2{fill:#ffe27a;}.cls-3{fill:#f6b545;}.cls-4{fill:#3bb54a;}</style></defs><title>buck of money</title><g id="buck_of_money" data-name="buck of money"><path class="cls-1" d="M58.75,24.65,45.62,15.17a4,4,0,0,0-3.53-.58L27.25,19.18,18,22,5.83,25.81a2,2,0,0,0-.58,3.54L6.84,30.5,11.69,34l6.69,4.83a4,4,0,0,0,3.53.58L36,35.05l9-2.78L52.31,30l4.85-1.5,1-.31A2,2,0,0,0,58.75,24.65Z"/><polygon class="cls-2" points="45 32 45 32.27 36 35.05 36 35 31.99 32.1 27.74 29.03 22.89 25.53 22.11 24.96 18.04 22.03 27.25 19.18 31.31 22.11 32.1 22.68 36.94 26.18 41.2 29.26 45 32"/><polygon class="cls-3" points="45 32.27 45 42.27 36 45.05 36 35.05 45 32.27"/><path class="cls-4" d="M36,35.05v5L21.91,44.41a4,4,0,0,1-3.53-.58L6.84,35.5,5.25,34.35a2,2,0,0,1,.58-3.54l1-.31L11.69,34l6.69,4.83a4,4,0,0,0,3.53.58Z"/><path class="cls-1" d="M36,40.05v5L21.91,49.41a4,4,0,0,1-3.53-.58L5.25,39.35a2,2,0,0,1,.58-3.54l1-.31,11.54,8.33a4,4,0,0,0,3.53.58Z"/><path class="cls-4" d="M58.17,33.19l-1,.31L45,37.27v-5L52.31,30l4.85-1.5,1.59,1.15A2,2,0,0,1,58.17,33.19Z"/><path class="cls-1" d="M58.17,38.19,45,42.27v-5L57.16,33.5l1.59,1.15A2,2,0,0,1,58.17,38.19Z"/><path class="cls-4" d="M32,32.1,22.63,35a4,4,0,0,0-3.52-.58l-6.65-4.8a1,1,0,0,0,.29-1.76L22.11,25l.78.57L27.74,29Z"/><path class="cls-4" d="M51.25,26.14l-7.44,2.31-2.61.81-4.26-3.08-4.84-3.5-.79-.57L41.37,19a4,4,0,0,0,3.52.58l6.65,4.8A1,1,0,0,0,51.25,26.14Z"/></g></svg>