<svg xmlns="http://www.w3.org/2000/svg" viewBox="0 0 64 64"><defs><style>.cls-1{fill:#3bb54a;}.cls-2{fill:#0e9347;}.cls-3{fill:#89c763;}.cls-4{fill:#6f707e;}.cls-5{fill:#595a66;}.cls-6{fill:#494a52;}</style></defs><title>insert money</title><g id="insert_money" data-name="insert money"><path class="cls-1" d="M43,15V51a4,4,0,0,0-4,4H25a4,4,0,0,0-4-4V15Z"/><path class="cls-2" d="M47,15V55a3.72,3.72,0,0,1-.15,1.06A4,4,0,0,1,43,59H21a4,4,0,0,1-4-4V15h4V51a4,4,0,0,1,4,4H39a4,4,0,0,1,4-4V15Z"/><ellipse class="cls-3" cx="32" cy="32" rx="7" ry="6"/><path class="cls-4" d="M59,12v3a4,4,0,0,0-4-4H9a4,4,0,0,0-4,4V12A4,4,0,0,1,9,8H55A4,4,0,0,1,59,12Z"/><path class="cls-5" d="M59,15v8a4,4,0,0,1-4,4H47V15H17V27H9a4,4,0,0,1-4-4V15a4,4,0,0,1,4-4H55A4,4,0,0,1,59,15Z"/><rect class="cls-6" x="13" y="15" width="4" height="5"/><rect class="cls-6" x="47" y="15" width="4" height="5"/></g></svg>