<svg xmlns="http://www.w3.org/2000/svg" viewBox="0 0 64 64"><defs><style>.cls-1{fill:#595a66;}.cls-2{fill:#6f707e;}.cls-3{fill:#494a52;}.cls-4{fill:#0e9347;}.cls-5{fill:#3bb54a;}</style></defs><title>wallet</title><g id="wallet"><path class="cls-1" d="M41.17,39.17A4,4,0,0,0,44,46v8H9a4,4,0,0,1-4-4V27a2,2,0,0,0,2,2H44v9A4,4,0,0,0,41.17,39.17Z"/><path class="cls-2" d="M49,46v9a4,4,0,0,1-4,4H9a4,4,0,0,1-4-4V50a4,4,0,0,0,4,4H44V46Z"/><path class="cls-1" d="M10,19v5H7.66a2.68,2.68,0,0,1-2.54-1.79A1.42,1.42,0,0,1,5.05,22a1.57,1.57,0,0,1,0-.23,2.26,2.26,0,0,1,0-.26v-.15A2.5,2.5,0,0,1,7.5,19Z"/><path class="cls-1" d="M54,23V38H49V28a4,4,0,0,0-4-4H44V19h6A4,4,0,0,1,54,23Z"/><path class="cls-1" d="M54,46v5a4,4,0,0,1-4,4H49V46Z"/><path class="cls-3" d="M59,36a2,2,0,0,1-.27,1,1.81,1.81,0,0,1-.32.41A2,2,0,0,1,57,38H54V31a5,5,0,0,1,5,5Z"/><path class="cls-4" d="M38,8V24H34V13a4,4,0,0,1-4-4H18a1.09,1.09,0,0,1,0,.18A4,4,0,0,1,14,13V24H10V8a3,3,0,0,1,3-3H35A3,3,0,0,1,38,8Z"/><path class="cls-5" d="M44,12V24H38V9h3A3,3,0,0,1,44,12Z"/><path class="cls-5" d="M34,13V24H14V13a4,4,0,0,0,4-4H30A4,4,0,0,0,34,13Z"/><path class="cls-2" d="M59,36v5a5,5,0,0,1-5,5H44a4,4,0,1,1,0-8H57a2,2,0,0,0,1.41-.59,1.81,1.81,0,0,0,.32-.41A2,2,0,0,0,59,36Z"/><path class="cls-2" d="M49,28V38H44V29H7a2,2,0,0,1-2-2V21.5a2.26,2.26,0,0,0,0,.26,1.57,1.57,0,0,0,0,.23,1.42,1.42,0,0,0,.07.22A2.45,2.45,0,0,0,7.5,24H45A4,4,0,0,1,49,28Z"/></g></svg>