<svg xmlns="http://www.w3.org/2000/svg" viewBox="0 0 64 64"><defs><style>.cls-1{fill:#0e9347;}.cls-2{fill:#3bb54a;}.cls-3{fill:#89c763;}.cls-4{fill:#70b7e5;}.cls-5{fill:#b0c4d9;}.cls-6{fill:#ffe27a;}.cls-7{fill:#f9a49b;}</style></defs><title>creadit card</title><g id="creadit_card" data-name="creadit card"><path class="cls-1" d="M62,12V42a4,4,0,0,1-4,4V32a4,4,0,0,0-4-4H22a4,4,0,0,0-4,4V46H6a4,4,0,0,1-4-4V12A4,4,0,0,1,6,8H58A4,4,0,0,1,62,12Z"/><path class="cls-1" d="M62,12V42a4,4,0,0,1-4,4V32a4,4,0,0,0-4-4H22a4,4,0,0,0-4,4V46H6a4,4,0,0,1-4-4V12A4,4,0,0,1,6,8H58A4,4,0,0,1,62,12Z"/><path class="cls-2" d="M58,18V32a4,4,0,0,0-4-4H22a4,4,0,0,0-4,4V42H12a6,6,0,0,0-6-6V18a6,6,0,0,0,6-6H52A6,6,0,0,0,58,18Z"/><path class="cls-3" d="M40,27c0,.34,0,.67,0,1H24c0-.33,0-.66,0-1,0-5.52,3.58-10,8-10S40,21.48,40,27Z"/><rect class="cls-4" x="18" y="28" width="40" height="28" rx="4" ry="4"/><rect class="cls-5" x="18" y="34" width="40" height="7"/><path class="cls-6" d="M45,48.5a3.47,3.47,0,0,1-1.5,2.86,3.38,3.38,0,0,1-2,.64,3.5,3.5,0,0,1,0-7,3.38,3.38,0,0,1,2,.64A3.47,3.47,0,0,1,45,48.5Z"/><path class="cls-7" d="M49,48.5A3.5,3.5,0,0,1,45.5,52a3.38,3.38,0,0,1-2-.64,3.48,3.48,0,0,0,0-5.72,3.38,3.38,0,0,1,2-.64A3.5,3.5,0,0,1,49,48.5Z"/></g></svg>