<svg xmlns="http://www.w3.org/2000/svg" viewBox="0 0 64 64"><defs><style>.cls-1{fill:#ffe27a;}.cls-2{fill:#f6b545;}.cls-3{fill:#70b7e5;}.cls-4{fill:#3bb54a;}.cls-5{fill:#89c763;}.cls-6{fill:#0e9347;}</style></defs><title>pay</title><g id="pay"><path class="cls-1" d="M44.92,23.54A3.72,3.72,0,0,0,42.81,23,4,4,0,0,0,39,27v8H18V45a6.92,6.92,0,0,0,1.15,3.85A6.92,6.92,0,0,0,23,50H40.76A4.24,4.24,0,0,0,45,45.76V24.12A2.45,2.45,0,0,0,44.92,23.54Z"/><path class="cls-2" d="M47,27.23V45a7,7,0,0,1-7,7H25a7,7,0,0,1-4.95-2,7.43,7.43,0,0,1-.9-1.1A6.92,6.92,0,0,0,23,50H40.76A4.24,4.24,0,0,0,45,45.76V24.12a2.45,2.45,0,0,0-.08-.58A4.34,4.34,0,0,1,47,27.23Z"/><rect class="cls-3" x="20" y="52" width="25" height="10" rx="3" ry="3" transform="translate(65 114) rotate(180)"/><path class="cls-4" d="M9,13V27a4,4,0,0,1,4,4H39V27a4,4,0,0,1,3.81-4A4.17,4.17,0,0,1,47,27.23V31h4a4,4,0,0,1,4-4V13a4,4,0,0,1-4-4H13A4,4,0,0,1,9,13Z"/><ellipse class="cls-5" cx="32" cy="20" rx="6" ry="7"/><path class="cls-2" d="M38.9,35a8.7,8.7,0,0,0-2.26,1.64A8.94,8.94,0,0,0,34,43a1,1,0,0,1-2,0,10.92,10.92,0,0,1,3.22-7.78l.23-.22Z"/><path class="cls-6" d="M59,9V31a4,4,0,0,1-2.94,3.85A3.72,3.72,0,0,1,55,35H47V31h4a4,4,0,0,1,4-4V13a4,4,0,0,1-4-4H13a4,4,0,0,1-4,4V27a4,4,0,0,1,4,4H39v4H9a4,4,0,0,1-4-4V9A4,4,0,0,1,7.94,5.15,3.72,3.72,0,0,1,9,5H55A4,4,0,0,1,59,9Z"/></g></svg>