<svg xmlns="http://www.w3.org/2000/svg" viewBox="0 0 64 64"><defs><style>.cls-1{fill:#6f707e;}.cls-2{fill:#b0c4d9;}.cls-3{fill:#0e9347;}.cls-4{fill:#89c763;}.cls-5{fill:#3bb54a;}.cls-6{fill:#70b7e5;}.cls-7{fill:#4c9cd6;}</style></defs><title>mobile payment</title><g id="mobile_payment" data-name="mobile payment"><path class="cls-1" d="M35,9V39H25a2,2,0,0,0-2,2V53H9a4,4,0,0,1-4-4V9A4,4,0,0,1,9,5H31A4,4,0,0,1,35,9Z"/><path class="cls-2" d="M31,10V39H25a2,2,0,0,0-2,2v8H10a1,1,0,0,1-1-1V10a1,1,0,0,1,1-1h5l1,1h8l1-1h5A1,1,0,0,1,31,10Z"/><path class="cls-3" d="M59,18V40a4,4,0,0,1-4,4H51V41a2,2,0,0,0-.27-1H51a4,4,0,0,1,4-4V22a4,4,0,0,1-4-4H35V14H55a3.72,3.72,0,0,1,1.06.15A4,4,0,0,1,59,18Z"/><path class="cls-4" d="M44,29c0,3.87-2.69,7-6,7a5.28,5.28,0,0,1-3-.94V22.94A5.28,5.28,0,0,1,38,22C41.31,22,44,25.13,44,29Z"/><path class="cls-5" d="M55,22V36a4,4,0,0,0-4,4h-.27A2,2,0,0,0,49,39H35V35.06A5.28,5.28,0,0,0,38,36c3.31,0,6-3.13,6-7s-2.69-7-6-7a5.28,5.28,0,0,0-3,.94V18H51A4,4,0,0,0,55,22Z"/><path class="cls-6" d="M51,41V57a2,2,0,0,1-2,2H25a2,2,0,0,1-2-2V41a2,2,0,0,1,2-2H49a2,2,0,0,1,2,2Z"/><rect class="cls-7" x="23" y="44" width="28" height="4"/><path class="cls-2" d="M39,56H36a1,1,0,0,1,0-2h3a1,1,0,0,1,0,2Z"/><path class="cls-2" d="M46,56H43a1,1,0,0,1,0-2h3a1,1,0,0,1,0,2Z"/></g></svg>