<svg xmlns="http://www.w3.org/2000/svg" viewBox="0 0 64 64"><defs><style>.cls-1{fill:#ffe27a;}.cls-2{fill:#f6b545;}.cls-3{fill:#6f707e;}.cls-4{fill:#595a66;}.cls-5{fill:#4c9cd6;}.cls-6{fill:#70b7e5;}.cls-7{fill:#0e9347;}.cls-8{fill:#3bb54a;}.cls-9{fill:#89c763;}.cls-10{fill:#494a52;}</style></defs><title>payout</title><g id="payout"><path class="cls-1" d="M46,26.23V44a7,7,0,0,1-7,7H24a7,7,0,0,1-7-7V34H38V26a4,4,0,0,1,3.81-4A4.17,4.17,0,0,1,46,26.23Z"/><path class="cls-2" d="M46,26.23V44a7,7,0,0,1-7,7H24a7,7,0,0,1-4.95-2,7.43,7.43,0,0,1-.9-1.1A6.92,6.92,0,0,0,22,49H39.76A4.24,4.24,0,0,0,44,44.76V23.12a2.45,2.45,0,0,0-.08-.58A4.34,4.34,0,0,1,46,26.23Z"/><path class="cls-2" d="M37.9,34a8.7,8.7,0,0,0-2.26,1.64A8.94,8.94,0,0,0,33,42a1,1,0,0,1-2,0,10.92,10.92,0,0,1,3.22-7.78l.23-.22Z"/><path class="cls-3" d="M59,9v3a4,4,0,0,0-4-4H9a4,4,0,0,0-4,4V9A4,4,0,0,1,9,5H55A4,4,0,0,1,59,9Z"/><path class="cls-4" d="M59,12v5a4,4,0,0,1-4,4H54V13H10v8H9a4,4,0,0,1-4-4V12A4,4,0,0,1,9,8H55A4,4,0,0,1,59,12Z"/><path class="cls-5" d="M44,54v4a3,3,0,0,1-3,3H22a3,3,0,0,1-3-3V54a3,3,0,0,1,3-3H41a2.77,2.77,0,0,1,1,.18A3,3,0,0,1,44,54Z"/><path class="cls-6" d="M42,51.18V55a3,3,0,0,1-3,3H20a2.77,2.77,0,0,1-1-.18V54a3,3,0,0,1,3-3H41A2.77,2.77,0,0,1,42,51.18Z"/><path class="cls-7" d="M38,30v4H14a4,4,0,0,1-4-4V13h7.87A4,4,0,0,1,14,16V26a4,4,0,0,1,4,4Z"/><path class="cls-8" d="M50,16V26a4,4,0,0,0-4,4V26.23A4.17,4.17,0,0,0,41.81,22,4,4,0,0,0,38,26v4H18a4,4,0,0,0-4-4V16a4,4,0,0,0,3.87-3H46.13A4,4,0,0,0,50,16Z"/><path class="cls-7" d="M54,13V30a4,4,0,0,1-2.94,3.85A3.72,3.72,0,0,1,50,34H46V30a4,4,0,0,1,4-4V16a4,4,0,0,1-3.87-3Z"/><ellipse class="cls-9" cx="32" cy="19.5" rx="5" ry="6.5"/><path class="cls-10" d="M55,14H9a1,1,0,0,1,0-2H55a1,1,0,0,1,0,2Z"/></g></svg>