<svg xmlns="http://www.w3.org/2000/svg" viewBox="0 0 64 64"><defs><style>.cls-1{fill:#0e9347;}.cls-2{fill:#3bb54a;}.cls-3{fill:#89c763;}.cls-4{fill:#ffe27a;}.cls-5{fill:#4c9cd6;}.cls-6{fill:#70b7e5;}.cls-7{fill:#f6b545;}</style></defs><title>payment</title><g id="payment"><path class="cls-1" d="M42,6V34a4,4,0,0,0-4-4V10a4,4,0,0,1-4-4H20a4,4,0,0,1-4,4V44a4,4,0,0,1,4,4H31v2a2,2,0,0,0,2,2H16a4,4,0,0,1-4-4V6a3.72,3.72,0,0,1,.15-1.06A4,4,0,0,1,16,2H38A4,4,0,0,1,42,6Z"/><path class="cls-2" d="M38,10V30a4,4,0,0,0-4,4v1.77a22.29,22.29,0,0,1-2.42,9.65A6,6,0,0,0,31,48H20a4,4,0,0,0-4-4V10a4,4,0,0,0,4-4H34A4,4,0,0,0,38,10Z"/><ellipse class="cls-3" cx="27" cy="27" rx="7" ry="6"/><path class="cls-4" d="M50,28.49V48a4,4,0,0,1-4,4H33a2,2,0,0,1-2-2V48a6,6,0,0,1,.58-2.58A22.29,22.29,0,0,0,34,35.77V34.23A4.17,4.17,0,0,1,38.19,30,4,4,0,0,1,42,34V18l6.24,6.24A6,6,0,0,1,50,28.49Z"/><path class="cls-5" d="M52,54v6a2.23,2.23,0,0,1-2.4,2H30.4A2.23,2.23,0,0,1,28,60V54a2.23,2.23,0,0,1,2.4-2H49.6A2.23,2.23,0,0,1,52,54Z"/><path class="cls-6" d="M48.5,52v4.5a2.23,2.23,0,0,1-2.4,2H28V54a2.23,2.23,0,0,1,2.4-2Z"/><path class="cls-7" d="M42,18a6.84,6.84,0,0,1,2,4.83V40a1,1,0,0,1-2,0V18Z"/></g></svg>