<svg xmlns="http://www.w3.org/2000/svg" viewBox="0 0 64 64"><defs><style>.cls-1{fill:#3bb54a;}.cls-2{fill:#0e9347;}.cls-3{fill:#f04b4d;}.cls-4{fill:#89c763;}</style></defs><title>no money</title><g id="no_money" data-name="no money"><path class="cls-1" d="M52,25V39a4,4,0,0,0-4,4H25l4.59-4.59,8.2-8.2L47,21h1A4,4,0,0,0,52,25Z"/><path class="cls-2" d="M56,21V43a4,4,0,0,1-4,4H21l4-4H48a4,4,0,0,1,4-4V25a4,4,0,0,1-4-4H47l4-4h1a3.72,3.72,0,0,1,1.06.15A4,4,0,0,1,56,21Z"/><path class="cls-2" d="M12,25V39a4,4,0,0,1,4,4h1l-4,4H12a3.72,3.72,0,0,1-1.06-.15A4,4,0,0,1,8,43V21a4,4,0,0,1,4-4H43l-4,4H16A4,4,0,0,1,12,25Z"/><path class="cls-1" d="M39,21l-4.59,4.59-8.2,8.2L17,43H16a4,4,0,0,0-4-4V25a4,4,0,0,0,4-4Z"/><path class="cls-3" d="M32,2A30,30,0,1,0,62,32,30,30,0,0,0,32,2ZM12,47a3.72,3.72,0,0,1-1.06-.15A4,4,0,0,1,8,43V39A25,25,0,0,1,8,25V21a4,4,0,0,1,4-4,25,25,0,0,1,35.56-4.56L39,21l-4.59,4.59-8.2,8.2L12.44,47.56C12.28,47.38,12.14,47.19,12,47Zm44-4a4,4,0,0,1-4,4,25,25,0,0,1-35.56,4.56L29.59,38.41l8.2-8.2L47,21l4.56-4.56c.16.18.3.37.44.56a3.72,3.72,0,0,1,1.06.15A4,4,0,0,1,56,21v4a25,25,0,0,1,0,14Z"/><path class="cls-4" d="M34.41,25.59l-8.2,8.2A7.5,7.5,0,0,1,26,32c0-3.87,2.69-7,6-7A5.23,5.23,0,0,1,34.41,25.59Z"/><path class="cls-4" d="M38,32c0,3.87-2.69,7-6,7a5.23,5.23,0,0,1-2.41-.59l8.2-8.2A7.5,7.5,0,0,1,38,32Z"/></g></svg>