<svg xmlns="http://www.w3.org/2000/svg" viewBox="0 0 64 64"><defs><style>.cls-1{fill:#0e9347;}.cls-2{fill:#3bb54a;}.cls-3{fill:#89c763;}</style></defs><title>Account Balance</title><g id="Account_Balance" data-name="Account Balance"><path class="cls-1" d="M52,16V38a4,4,0,0,1-4,4H6a3.72,3.72,0,0,1-1.06-.15A4,4,0,0,1,2,38V16a4,4,0,0,1,4-4H48a3.72,3.72,0,0,1,1.06.15A4,4,0,0,1,52,16Z"/><path class="cls-2" d="M48,34a4,4,0,0,0-4,4H10a4,4,0,0,0-4-4V20a4,4,0,0,0,4-4H44a4,4,0,0,0,4,4Z"/><ellipse class="cls-3" cx="27" cy="27" rx="6" ry="7"/><path class="cls-2" d="M57,21V43a4,4,0,0,1-4,4H11a3.72,3.72,0,0,1-1.06-.15A4,4,0,0,1,7,43V42H48a4,4,0,0,0,4-4V17h1a3.72,3.72,0,0,1,1.06.15A4,4,0,0,1,57,21Z"/><path class="cls-1" d="M62,26V48a4,4,0,0,1-4,4H16a3.72,3.72,0,0,1-1.06-.15A4,4,0,0,1,12,48V47H53a4,4,0,0,0,4-4V22h1a3.72,3.72,0,0,1,1.06.15A4,4,0,0,1,62,26Z"/></g></svg>