<svg xmlns="http://www.w3.org/2000/svg" viewBox="0 0 64 64"><defs><style>.cls-1{fill:#ffe27a;}.cls-2{fill:#4c9cd6;}.cls-3{fill:#70b7e5;}.cls-4{fill:#f6b545;}.cls-5{fill:#3bb54a;}.cls-6{fill:#494a52;}.cls-7{fill:#595a66;}.cls-8{fill:#0e9347;}.cls-9{fill:#89c763;}</style></defs><title>charity</title><g id="charity"><path class="cls-1" d="M49,11V24a2,2,0,0,1-2,2H45a6,6,0,0,1-2.58-.58L42,25.23a24.4,24.4,0,0,0-4-1.49A19.6,19.6,0,0,0,32.77,23H31.23A4.17,4.17,0,0,1,27,19v-.19A4,4,0,0,1,31,15H15l6.24-6.24A6,6,0,0,1,25.49,7H45a4,4,0,0,1,4,4Z"/><path class="cls-2" d="M59,7.4V26.6A2.23,2.23,0,0,1,57,29H51a2.23,2.23,0,0,1-2-2.4V7.4A2.23,2.23,0,0,1,51,5h6A2.23,2.23,0,0,1,59,7.4Z"/><path class="cls-3" d="M56,5V23.6A2.23,2.23,0,0,1,54,26H49V7.4A2.23,2.23,0,0,1,51,5Z"/><path class="cls-4" d="M42,14a1,1,0,0,1-1,1H15a6.84,6.84,0,0,1,4.83-2H41A1,1,0,0,1,42,14Z"/><path class="cls-5" d="M32.77,23H31.23A4.17,4.17,0,0,1,27,19H20a4,4,0,0,1-4,4V51H38V23.74A19.6,19.6,0,0,0,32.77,23ZM33.9,43c-.55,2.84-3.43,5-6.9,5s-6.35-2.16-6.89-5A4.14,4.14,0,0,1,20,42c0-3.31,3.13-6,7-6s7,2.69,7,6A4.71,4.71,0,0,1,33.9,43Z"/><path class="cls-6" d="M49,51v4a4,4,0,0,1-4,4H9a4,4,0,0,1-4-4V51a4,4,0,0,0,4,4H45A4,4,0,0,0,49,51Z"/><path class="cls-7" d="M49,47v4a4,4,0,0,1-4,4H9a4,4,0,0,1-4-4V47a4,4,0,0,1,4-4h3v8H42V43h3A4,4,0,0,1,49,47Z"/><path class="cls-8" d="M31,15a4,4,0,0,0-4,3.81V19H20a4,4,0,0,1-4,4V51H12V19a3.72,3.72,0,0,1,.15-1.06A4,4,0,0,1,16,15Z"/><path class="cls-9" d="M34,42a4.71,4.71,0,0,1-.1,1c-.55,2.84-3.43,5-6.9,5s-6.35-2.16-6.89-5A4.14,4.14,0,0,1,20,42c0-3.31,3.13-6,7-6S34,38.69,34,42Z"/><path class="cls-8" d="M42,25.23V51H38V23.74A24.4,24.4,0,0,1,42,25.23Z"/><path class="cls-6" d="M45,52H9a1,1,0,0,1,0-2H45a1,1,0,0,1,0,2Z"/></g></svg>