<svg xmlns="http://www.w3.org/2000/svg" viewBox="0 0 64 64"><defs><style>.cls-1{fill:#f19920;}.cls-2{fill:#f6b545;}.cls-3{fill:#0e9347;}.cls-4{fill:#3bb54a;}.cls-5{fill:#89c763;}</style></defs><title>asset</title><g id="asset"><rect class="cls-1" x="35" y="35" width="20" height="6" rx="2" ry="2"/><path class="cls-2" d="M52.5,35v1.5a2,2,0,0,1-2,2H35V37a2,2,0,0,1,2-2Z"/><path class="cls-3" d="M55,30v7a2,2,0,0,0-2-2H37a2,2,0,0,0-2,2v2a2,2,0,0,0,2,2,2,2,0,0,0-2,2,10,10,0,0,0-18,6c0,.34,0,.67.05,1H13a4,4,0,0,0-4-4V30a4,4,0,0,0,4-4H51A4,4,0,0,0,55,30Z"/><path class="cls-4" d="M55,30v7a2,2,0,0,0-2-2H37a2,2,0,0,0-2,2v2a2,2,0,0,0,2,2,2,2,0,0,0-2,2,10,10,0,0,0-18,6c0,.34,0,.67.05,1H13a4,4,0,0,0-4-4V30a4,4,0,0,0,4-4H51A4,4,0,0,0,55,30Z"/><path class="cls-5" d="M35,37v2a2,2,0,0,0,2,2,2,2,0,0,0-2,2,10,10,0,0,0-9.91-3.82A7.62,7.62,0,0,1,25,38c0-4.42,3.13-8,7-8a7.07,7.07,0,0,1,6.49,5H37A2,2,0,0,0,35,37Z"/><path class="cls-2" d="M33,49a5.47,5.47,0,0,1-.09,1,6,6,0,0,1-11.82,0A5.47,5.47,0,0,1,21,49a6,6,0,0,1,5.55-6L27,43a6,6,0,0,1,5.19,3A5.89,5.89,0,0,1,33,49Z"/><path class="cls-3" d="M59,26V50a4,4,0,0,1-4,4h-.27A2,2,0,0,0,53,53a2,2,0,0,0,2-2V49a2,2,0,0,0-2-2,2,2,0,0,0,1.72-1A1.94,1.94,0,0,0,55,45V30a4,4,0,0,1-4-4H13a4,4,0,0,1-4,4V46a4,4,0,0,1,4,4h4.05a9.92,9.92,0,0,0,1.29,4H9a3.72,3.72,0,0,1-1.06-.15A4,4,0,0,1,5,50V26a4,4,0,0,1,4-4H55a3.72,3.72,0,0,1,1.06.15A4,4,0,0,1,59,26Z"/><path class="cls-3" d="M54,22H49.36l-3.29-5.7-1.65-2.86a4,4,0,0,1-5.2-1.06A3.62,3.62,0,0,1,39,12L21.58,22h-8l22-12.71L39.6,7l.82-.47A4,4,0,0,1,45.88,8Z"/><path class="cls-4" d="M49.36,22H21.58L39,12a3.62,3.62,0,0,0,.27.41,4,4,0,0,0,5.2,1.06l1.65,2.86Z"/><path class="cls-4" d="M55,39v4a2,2,0,0,0-2-2A2,2,0,0,0,55,39Z"/><path class="cls-1" d="M55,49v2a2,2,0,0,1-2,2H37a1.83,1.83,0,0,1-.77-.16A9.64,9.64,0,0,0,37,50c0-.33,0-.66,0-1a10,10,0,0,0-.2-2H53A2,2,0,0,1,55,49Z"/><path class="cls-1" d="M55,55v2a2,2,0,0,1-2,2H37a2,2,0,0,1-2-2V55a8.52,8.52,0,0,0,.66-1c.14-.24.27-.5.39-.76A2,2,0,0,1,37,53H53a2,2,0,0,1,2,2Z"/><path class="cls-1" d="M55,43v2a1.94,1.94,0,0,1-.28,1A2,2,0,0,1,53,47H36.8A10.24,10.24,0,0,0,36,44.58,9.34,9.34,0,0,0,35,43h0a2,2,0,0,1,2-2H53A2,2,0,0,1,55,43Z"/><path class="cls-2" d="M52.5,41v1.5a2,2,0,0,1-2,2H35V43a2,2,0,0,1,2-2Z"/><path class="cls-2" d="M52.5,47v1.5a2,2,0,0,1-2,2H35V49a2,2,0,0,1,2-2Z"/><path class="cls-2" d="M52.5,53v1.5a2,2,0,0,1-2,2H35V55a2,2,0,0,1,2-2Z"/><path class="cls-1" d="M36.8,47v0A10.24,10.24,0,0,0,36,44.58,9.34,9.34,0,0,0,35,43h0a10,10,0,0,0-18,6c0,.34,0,.67.05,1a10,10,0,0,0,18,5h0a8.52,8.52,0,0,0,.66-1c.14-.24.27-.5.39-.76a2.87,2.87,0,0,0,.18-.4A9.64,9.64,0,0,0,37,50c0-.33,0-.66,0-1A10,10,0,0,0,36.8,47Zm-3.89,3a6,6,0,0,1-11.82,0A5.47,5.47,0,0,1,21,49a6,6,0,0,1,5.55-6L27,43a6,6,0,0,1,5.19,3A5.89,5.89,0,0,1,33,49,5.47,5.47,0,0,1,32.91,50Z"/></g></svg>