<svg xmlns="http://www.w3.org/2000/svg" viewBox="0 0 64 64"><defs><style>.cls-1{fill:#3bb54a;}.cls-2{fill:#0e9347;}.cls-3{fill:#89c763;}</style></defs><title>deposit</title><g id="deposit"><path class="cls-1" d="M55,37V51a4,4,0,0,0-4,4H13a4,4,0,0,0-4-4V37a4,4,0,0,0,4-4H51A4,4,0,0,0,55,37Z"/><path class="cls-2" d="M56.06,29.15A3.72,3.72,0,0,0,55,29H39a4,4,0,0,1-4-4V15h6L32,5,23,15h6V25a4,4,0,0,1-4,4H9a4,4,0,0,0-4,4V55a4,4,0,0,0,2.94,3.85A3.72,3.72,0,0,0,9,59H55a4,4,0,0,0,4-4V33A4,4,0,0,0,56.06,29.15ZM55,51a4,4,0,0,0-4,4H13a4,4,0,0,0-4-4V37a4,4,0,0,0,4-4H51a4,4,0,0,0,4,4Z"/><ellipse class="cls-3" cx="32" cy="44" rx="6" ry="7"/></g></svg>