<svg xmlns="http://www.w3.org/2000/svg" viewBox="0 0 64 64"><defs><style>.cls-1{fill:#0e9347;}.cls-2{fill:#3bb54a;}.cls-3{fill:#6f707e;}.cls-4{fill:#70b7e5;}.cls-5{fill:#89c763;}.cls-6{fill:#b0c4d9;}</style></defs><title>digital payment</title><g id="digital_payment" data-name="digital payment"><path class="cls-1" d="M59,21V43a4,4,0,0,1-4,4H22V43H51a4,4,0,0,1,4-4V25a4,4,0,0,1-4-4H22V17H55a3.72,3.72,0,0,1,1.06.15A4,4,0,0,1,59,21Z"/><path class="cls-2" d="M51,21H22V43H51a4,4,0,0,1,4-4V25A4,4,0,0,1,51,21ZM39,35.85a6,6,0,0,1-4,3,4.71,4.71,0,0,1-1,.1c-3.31,0-6-3.13-6-7s2.69-7,6-7a4.14,4.14,0,0,1,1,.11,5.92,5.92,0,0,1,4,3,7.91,7.91,0,0,1,0,7.7Z"/><path class="cls-3" d="M39,17V9a4,4,0,0,0-4-4H9A4,4,0,0,0,5,9V55a4,4,0,0,0,4,4H35a4,4,0,0,0,4-4V47H35v7a1,1,0,0,1-1,1H10a1,1,0,0,1-1-1V10a1,1,0,0,1,1-1h6l1,1h9l1-1h7a1,1,0,0,1,1,1v7Z"/><path class="cls-4" d="M22,47H35v7a1,1,0,0,1-1,1H10a1,1,0,0,1-1-1V10a1,1,0,0,1,1-1h6l1,1h9l1-1h7a1,1,0,0,1,1,1v7H22Z"/><path class="cls-5" d="M40,32a7.63,7.63,0,0,1-1,3.85,6,6,0,0,1-4,3,4.71,4.71,0,0,1-1,.1c-3.31,0-6-3.13-6-7s2.69-7,6-7a4.14,4.14,0,0,1,1,.11,5.92,5.92,0,0,1,4,3A7.63,7.63,0,0,1,40,32Z"/><path class="cls-6" d="M22,50a1,1,0,0,1-1-1V15a1,1,0,0,1,2,0V49A1,1,0,0,1,22,50Z"/></g></svg>