<svg xmlns="http://www.w3.org/2000/svg" viewBox="0 0 64 64"><defs><style>.cls-1{fill:#3bb54a;}.cls-2{fill:#0e9347;}.cls-3{fill:#89c763;}</style></defs><title>withdraw</title><g id="withdraw"><path class="cls-1" d="M9,27V13a4,4,0,0,0,4-4H51a4,4,0,0,0,4,4V27a4,4,0,0,0-4,4H13A4,4,0,0,0,9,27Z"/><path class="cls-2" d="M7.94,34.85A3.72,3.72,0,0,0,9,35H25a4,4,0,0,1,4,4V49H23l9,10,9-10H35V39a4,4,0,0,1,4-4H55a4,4,0,0,0,4-4V9a4,4,0,0,0-2.94-3.85A3.72,3.72,0,0,0,55,5H9A4,4,0,0,0,5,9V31A4,4,0,0,0,7.94,34.85ZM9,13a4,4,0,0,0,4-4H51a4,4,0,0,0,4,4V27a4,4,0,0,0-4,4H13a4,4,0,0,0-4-4Z"/><ellipse class="cls-3" cx="32" cy="20" rx="6" ry="7"/></g></svg>