<svg xmlns="http://www.w3.org/2000/svg" viewBox="0 0 64 64"><defs><style>.cls-1{fill:#0e9347;}.cls-2{fill:#3bb54a;}.cls-3{fill:#89c763;}</style></defs><title>cash</title><g id="cash"><path class="cls-1" d="M56.06,29.15A3.72,3.72,0,0,0,55,29H9a4,4,0,0,0-4,4V55a4,4,0,0,0,2.94,3.85A3.72,3.72,0,0,0,9,59H55a4,4,0,0,0,4-4V33A4,4,0,0,0,56.06,29.15ZM55,51a4,4,0,0,0-4,4H13a4,4,0,0,0-4-4V37a4,4,0,0,0,4-4H51a4,4,0,0,0,4,4Z"/><path class="cls-2" d="M55,37V51a4,4,0,0,0-4,4H13a4,4,0,0,0-4-4V37a4,4,0,0,0,4-4H51A4,4,0,0,0,55,37Z"/><path class="cls-1" d="M56.06,29.15A3.72,3.72,0,0,0,55,29H51.36l-3.29-5.7-1.65-2.86a4,4,0,0,1-5.2-1.06A3.62,3.62,0,0,1,41,19L23.58,29h-8l22-12.71,4-2.31.82-.47A4,4,0,0,1,47.88,15Z"/><path class="cls-2" d="M51.36,29H23.58L41,19a3.62,3.62,0,0,0,.27.41,4,4,0,0,0,5.2,1.06l1.65,2.86Z"/><path class="cls-1" d="M41.6,14l-4,2.31-8.16-4.71A4,4,0,0,1,24,13.05L14.76,29H10.14L22.51,7.58A4,4,0,0,1,28,6.12Z"/><ellipse class="cls-3" cx="32" cy="44" rx="6" ry="7"/><path class="cls-2" d="M37.6,16.29,15.59,29h-.83L24,13.05a4,4,0,0,0,5.47-1.47Z"/></g></svg>