<svg xmlns="http://www.w3.org/2000/svg" viewBox="0 0 64 64"><defs><style>.cls-1{fill:#6f707e;}.cls-2{fill:#4c9cd6;}.cls-3{fill:#494a52;}.cls-4{fill:#0e9347;}.cls-5{fill:#3bb54a;}.cls-6{fill:#f6b545;}.cls-7{fill:#89c763;}</style></defs><title>money laundry</title><g id="money_laundry" data-name="money laundry"><path class="cls-1" d="M56,32H8a1,1,0,0,1,0-2H56a1,1,0,0,1,0,2Z"/><path class="cls-2" d="M32,20h0a12.87,12.87,0,0,0-3.9.61L6.66,27.47A2.38,2.38,0,0,0,5,29.74H5A2.39,2.39,0,0,0,8.11,32l20-6.4A12.87,12.87,0,0,1,32,25h0a12.87,12.87,0,0,1,3.9.61l20,6.4A2.39,2.39,0,0,0,59,29.74h0a2.38,2.38,0,0,0-1.66-2.27L35.9,20.61A12.87,12.87,0,0,0,32,20Z"/><path class="cls-3" d="M32,21a1,1,0,0,1-1-1,8.81,8.81,0,0,1,3.5-6.87A4,4,0,1,0,28,10a1,1,0,0,1-2,0,6,6,0,0,1,6-6,6.08,6.08,0,0,1,6,6,6,6,0,0,1-2.26,4.69A6.85,6.85,0,0,0,33,20,1,1,0,0,1,32,21Z"/><path class="cls-4" d="M51,34H13a2,2,0,0,0-2,2V56a2,2,0,0,0,2,2H51a2,2,0,0,0,2-2V36A2,2,0,0,0,51,34Z"/><path class="cls-5" d="M49,50a4,4,0,0,0-4,4H19a4,4,0,0,0-4-4V42a4,4,0,0,0,4-4H45a4,4,0,0,0,4,4Z"/><path class="cls-6" d="M21,36a1,1,0,0,1-1-1V30a1,1,0,0,1,2,0v5A1,1,0,0,1,21,36Z"/><path class="cls-6" d="M43,36a1,1,0,0,1-1-1V30a1,1,0,0,1,2,0v5A1,1,0,0,1,43,36Z"/><circle class="cls-7" cx="32" cy="46" r="6"/></g></svg>