<svg xmlns="http://www.w3.org/2000/svg" viewBox="0 0 64 64"><defs><style>.cls-1{fill:#494a52;}.cls-2{fill:#595a66;}.cls-3{fill:#0e9347;}.cls-4{fill:#3bb54a;}.cls-5{fill:#89c763;}.cls-6{fill:#6f707e;}</style></defs><title>investment</title><g id="investment"><polygon class="cls-1" points="46 43 43 62 21 62 20.69 60 20.61 59.5 18 43 46 43"/><path class="cls-2" d="M43.49,43h0a20.15,20.15,0,0,1-19.9,17h-2.9l-.08-.5L18,43Z"/><path class="cls-3" d="M45,27a8,8,0,0,1-8,8H33a8.24,8.24,0,0,1,.25-2,8.12,8.12,0,0,1,2.09-3.66A8,8,0,0,1,41,27Z"/><path class="cls-3" d="M31,32H27a8,8,0,0,1-8-8h4a8,8,0,0,1,5.66,2.34A8.12,8.12,0,0,1,30.75,30,8.24,8.24,0,0,1,31,32Z"/><path class="cls-4" d="M44.75,27a8.12,8.12,0,0,1-2.09,3.66A8,8,0,0,1,37,33H33.25a8.12,8.12,0,0,1,2.09-3.66A8,8,0,0,1,41,27Z"/><path class="cls-4" d="M30.75,30H27a8,8,0,0,1-5.66-2.34A8.12,8.12,0,0,1,19.25,24H23a8,8,0,0,1,5.66,2.34A8.12,8.12,0,0,1,30.75,30Z"/><path class="cls-3" d="M32,41a1,1,0,0,1-1-1V20a1,1,0,0,1,2,0V40A1,1,0,0,1,32,41Z"/><rect class="cls-3" x="14" y="2" width="36" height="18" rx="2" ry="2"/><path class="cls-4" d="M43,16H21a3,3,0,0,0-3-3V9a3,3,0,0,0,3-3H43a3,3,0,0,0,3,3v4A3,3,0,0,0,43,16Z"/><circle class="cls-5" cx="32" cy="11" r="4"/><rect class="cls-6" x="16" y="39" width="32" height="4"/></g></svg>