<svg xmlns="http://www.w3.org/2000/svg" viewBox="0 0 64 64"><defs><style>.cls-1{fill:#f19920;}.cls-2{fill:#f6b545;}.cls-3{fill:#ffe27a;}.cls-4{fill:#0e9347;}.cls-5{fill:#89c763;}.cls-6{fill:#3bb54a;}</style></defs><title>send money</title><g id="send_money" data-name="send money"><path class="cls-1" d="M12,24.2v11L6.14,31.68l0,0a2.33,2.33,0,0,1,0-4Z"/><path class="cls-1" d="M34,32c0,3.31-3.13,6-7,6a7.55,7.55,0,0,1-5-1.81,5.39,5.39,0,0,1,0-8.38A7.55,7.55,0,0,1,27,26C30.87,26,34,28.69,34,32Z"/><path class="cls-1" d="M59,29.67a2.33,2.33,0,0,1-1.09,2l0,0L52,35.15V24.2l5.86,3.47A2.32,2.32,0,0,1,59,29.67Z"/><path class="cls-2" d="M59,29.67V55a4,4,0,0,1-4,4H9a4,4,0,0,1-4-4V29.67a2.33,2.33,0,0,0,1.09,2l0,0L12,35.15l4,2.37,14,8.27a4,4,0,0,0,4.08,0l4-2.35,4-2.37,10-5.92,5.86-3.47,0,0A2.33,2.33,0,0,0,59,29.67Z"/><path class="cls-3" d="M6.09,56.35a1,1,0,0,1-.71-.29,1,1,0,0,1,0-1.42,1.69,1.69,0,0,1,.31-.21l19.9-11.79a1,1,0,1,1,1,1.72l-4.1,2.43L6.65,56.18h0A1,1,0,0,1,6.09,56.35Z"/><path class="cls-3" d="M57.91,56.35a1,1,0,0,1-.58-.18L37.39,44.36a1,1,0,0,1,1-1.72l20,11.82a1.44,1.44,0,0,1,.25.18,1,1,0,0,1,0,1.42A1,1,0,0,1,57.91,56.35Z"/><path class="cls-4" d="M42,9V41.07l-4,2.37V13a4,4,0,0,1-4-4H20a.57.57,0,0,1,0,.13,4,4,0,0,1-3,3.74A4.17,4.17,0,0,1,16,13V37.52l-4-2.37V9a4,4,0,0,1,4-4H38a4,4,0,0,1,3.85,2.94A3.72,3.72,0,0,1,42,9Z"/><path class="cls-5" d="M34,32c0,3.31-3.13,6-7,6a7.55,7.55,0,0,1-5-1.81,5.39,5.39,0,0,1,0-8.38A7.55,7.55,0,0,1,27,26C30.87,26,34,28.69,34,32Z"/><path class="cls-6" d="M47,13V38.11l-5,3V9h1a4,4,0,0,1,3.85,2.94A3.72,3.72,0,0,1,47,13Z"/><path class="cls-4" d="M52,17V35.15l-5,3V13h1a4,4,0,0,1,3.85,2.94A3.72,3.72,0,0,1,52,17Z"/><path class="cls-6" d="M34,9H21a4.17,4.17,0,0,0-1,.13,4,4,0,0,1-3,3.74A4.17,4.17,0,0,1,16,13V37.52l14,8.27a4,4,0,0,0,4.08,0l4-2.35V13A4,4,0,0,1,34,9ZM27,38a7.55,7.55,0,0,1-5-1.81,5.39,5.39,0,0,1,0-8.38A7.55,7.55,0,0,1,27,26c3.87,0,7,2.69,7,6S30.87,38,27,38Z"/></g></svg>