<svg xmlns="http://www.w3.org/2000/svg" viewBox="0 0 64 64"><defs><style>.cls-1{fill:#0e9347;}.cls-2{fill:#3bb54a;}.cls-3{fill:#89c763;}.cls-4{fill:#f6b545;}</style></defs><title>exchange rate</title><g id="exchange_rate" data-name="exchange rate"><rect class="cls-1" x="25" y="5" width="34" height="20" rx="2" ry="2"/><path class="cls-2" d="M52,21H32a3,3,0,0,0-3-3V12a3,3,0,0,0,3-3H52a3,3,0,0,0,3,3v6A3,3,0,0,0,52,21Z"/><rect class="cls-1" x="5" y="39" width="34" height="20" rx="2" ry="2"/><circle class="cls-3" cx="42" cy="15" r="4"/><circle class="cls-2" cx="22" cy="49" r="5"/><path class="cls-4" d="M13,33a1,1,0,0,1-1-1V23a9,9,0,0,1,9-9,1,1,0,0,1,0,2,7,7,0,0,0-7,7v9A1,1,0,0,1,13,33Z"/><path class="cls-4" d="M13,33a1,1,0,0,1-.71-.29l-3.5-3.5a1,1,0,0,1,1.42-1.42L13,30.59l2.79-2.8a1,1,0,0,1,1.42,1.42l-3.5,3.5A1,1,0,0,1,13,33Z"/><path class="cls-4" d="M43,51a1,1,0,0,1,0-2,7,7,0,0,0,7-7V33a1,1,0,0,1,2,0v9A9,9,0,0,1,43,51Z"/><path class="cls-4" d="M54.5,37.5a1,1,0,0,1-.71-.29L51,34.41l-2.79,2.8a1,1,0,0,1-1.42-1.42l3.5-3.5a1,1,0,0,1,1.42,0l3.5,3.5a1,1,0,0,1,0,1.42A1,1,0,0,1,54.5,37.5Z"/><path class="cls-3" d="M13,47H9a1,1,0,0,1,0-2h4a1,1,0,0,1,0,2Z"/><path class="cls-3" d="M13,53H9a1,1,0,0,1,0-2h4a1,1,0,0,1,0,2Z"/><path class="cls-3" d="M35,47H31a1,1,0,0,1,0-2h4a1,1,0,0,1,0,2Z"/><path class="cls-3" d="M35,53H31a1,1,0,0,1,0-2h4a1,1,0,0,1,0,2Z"/></g></svg>