<svg xmlns="http://www.w3.org/2000/svg" viewBox="0 0 48 48"><defs><style>.cls-1{fill:#a87e6b;}.cls-2{fill:#be927c;}.cls-3{fill:#7c7d7d;}</style></defs><title>Wooden Box</title><g id="Wooden_Box" data-name="Wooden Box"><path class="cls-1" d="M47,3V9H1V3A2,2,0,0,1,3,1H45A2,2,0,0,1,47,3Z"/><path class="cls-2" d="M47,3V7H9A6,6,0,0,1,3,1H45A2,2,0,0,1,47,3Z"/><path class="cls-1" d="M47,39v6a2,2,0,0,1-2,2H3a2,2,0,0,1-2-2V39Z"/><path class="cls-2" d="M47,39v6H9a6,6,0,0,1-6-6Z"/><rect class="cls-1" x="1" y="9" width="8" height="30"/><path class="cls-2" d="M9,9c0,29.13-.1,28,0,28a6,6,0,0,1-6-6V9Z"/><rect class="cls-1" x="39" y="9" width="8" height="30"/><path class="cls-2" d="M47,9c0,29.13-.1,28,0,28a6,6,0,0,1-6-6V9Z"/><path class="cls-3" d="M6,43a1,1,0,0,0-2,0A1,1,0,0,0,6,43Z"/><path class="cls-3" d="M6,34a1,1,0,0,0-2,0A1,1,0,0,0,6,34Z"/><path class="cls-3" d="M6,24a1,1,0,0,0-2,0A1,1,0,0,0,6,24Z"/><path class="cls-3" d="M6,14a1,1,0,0,0-2,0A1,1,0,0,0,6,14Z"/><path class="cls-3" d="M44,34a1,1,0,0,0-2,0A1,1,0,0,0,44,34Z"/><path class="cls-3" d="M44,14a1,1,0,0,0-2,0A1,1,0,0,0,44,14Z"/><path class="cls-3" d="M44,24a1,1,0,0,0-2,0A1,1,0,0,0,44,24Z"/><path class="cls-3" d="M6,5A1,1,0,0,0,4,5,1,1,0,0,0,6,5Z"/><path class="cls-3" d="M44,43a1,1,0,0,0-2,0A1,1,0,0,0,44,43Z"/><path class="cls-3" d="M44,5a1,1,0,0,0-2,0A1,1,0,0,0,44,5Z"/><path class="cls-3" d="M35,5a1,1,0,0,0-2,0A1,1,0,0,0,35,5Z"/><path class="cls-3" d="M25,5a1,1,0,0,0-2,0A1,1,0,0,0,25,5Z"/><path class="cls-3" d="M15,5a1,1,0,0,0-2,0A1,1,0,0,0,15,5Z"/><path class="cls-3" d="M35,43a1,1,0,0,0-2,0A1,1,0,0,0,35,43Z"/><path class="cls-3" d="M25,43a1,1,0,0,0-2,0A1,1,0,0,0,25,43Z"/><path class="cls-3" d="M15,43a1,1,0,0,0-2,0A1,1,0,0,0,15,43Z"/><polygon class="cls-1" points="39 9 9 39 9 29 29 9 39 9"/><polygon class="cls-2" points="29 9 9 29 9 19 19 9 29 9"/><polygon class="cls-1" points="19 9 9 19 9 9 19 9"/><polygon class="cls-2" points="39 9 39 19 19 39 9 39 39 9"/><polygon class="cls-2" points="39 29 39 39 29 39 39 29"/><polygon class="cls-1" points="39 19 39 29 29 39 19 39 39 19"/><path class="cls-1" d="M11,37V9H9V39H39V37Z"/></g></svg>