<svg xmlns="http://www.w3.org/2000/svg" viewBox="0 0 48 48"><defs><style>.cls-1{fill:#9fdbf3;}.cls-2{fill:#b2e5fb;}.cls-3{fill:#dad7e5;}.cls-4{fill:#edebf2;}.cls-5{fill:#fc6;}.cls-6{fill:#374f68;}.cls-7{fill:#425b72;}.cls-8{fill:#db5669;}</style></defs><title>24 Hours Delivery</title><g id="_24_Hours_Delivery" data-name="24 Hours Delivery"><path class="cls-1" d="M13.71,2.29a1,1,0,0,0-1.42,1.42l.38.38A11,11,0,0,0,3,15a1,1,0,0,0,2,0,9,9,0,0,1,7.44-8.86l-.15.15A1,1,0,0,0,13,8c.54,0,.57-.15,2.71-2.29a1,1,0,0,0,0-1.42Z"/><path class="cls-2" d="M15.71,4.29l-2-2A1,1,0,0,0,12,3c.54,0,.57.15,2.71,2.29a1,1,0,0,1,0,1.42l1-1A1,1,0,0,0,15.71,4.29Z"/><path class="cls-2" d="M4,16a1,1,0,0,0,1-1A8.92,8.92,0,0,1,7.14,9.19,9,9,0,0,0,4,16Z"/><path class="cls-3" d="M47,29V39H42a4,4,0,0,0-8,0H15a4,4,0,0,0-8,0H1V15H5a10,10,0,0,0,20,0H35l3.43,4H33V29Z"/><path class="cls-4" d="M47,29v8H41.46a4,4,0,0,0-6.92,0H25A22,22,0,0,1,3,15H5a10,10,0,0,0,20,0H35l3.43,4H33V29Z"/><path class="cls-1" d="M47,29H33V19h5.43Z"/><path class="cls-2" d="M46.14,28H40a6,6,0,0,1-6-6V19h4.43Z"/><path class="cls-5" d="M47,32v2H44a1,1,0,0,1,0-2Z"/><path class="cls-3" d="M29,30H28a1,1,0,0,1,0-2h1A1,1,0,0,1,29,30Z"/><path class="cls-6" d="M42,39a4,4,0,1,1-6.28-3.28A4,4,0,0,1,42,39Z"/><path class="cls-7" d="M41.28,41.28a4,4,0,0,1-5.56-5.56A4,4,0,0,1,41.28,41.28Z"/><path class="cls-6" d="M15,39a4,4,0,1,1-6.28-3.28A4,4,0,0,1,15,39Z"/><path class="cls-7" d="M14.28,41.28a4,4,0,0,1-5.56-5.56A4,4,0,0,1,14.28,41.28Z"/><path class="cls-3" d="M39,39a1,1,0,0,0-2,0A1,1,0,0,0,39,39Z"/><path class="cls-3" d="M12,39a1,1,0,0,0-2,0A1,1,0,0,0,12,39Z"/><path class="cls-8" d="M5,36H1V34H5A1,1,0,0,1,5,36Z"/><path class="cls-1" d="M13,19H9a1,1,0,0,1-1-1V15a1,1,0,0,1,1-1h3V13H9a1,1,0,0,1,0-2h4a1,1,0,0,1,1,1v3a1,1,0,0,1-1,1H10v1h3A1,1,0,0,1,13,19Z"/><path class="cls-2" d="M13,11H9a1,1,0,0,0-1,1h4a1,1,0,0,1,1,1v3a1,1,0,0,0,1-1V12A1,1,0,0,0,13,11Z"/><path class="cls-2" d="M13,17H10v1h2a1,1,0,0,1,1,1A1,1,0,0,0,13,17Z"/><path class="cls-1" d="M20,18V16H17a1,1,0,0,1-1-1V12a1,1,0,0,1,2,0v2h2V12a1,1,0,0,1,2,0v6A1,1,0,0,1,20,18Z"/><path class="cls-2" d="M17,13v2h2V14H18V12a1,1,0,0,0-2,0A1,1,0,0,1,17,13Z"/><path class="cls-2" d="M20,12a1,1,0,0,1,1,1v6a1,1,0,0,0,1-1V12A1,1,0,0,0,20,12Z"/><path class="cls-4" d="M19.38,4.92a1,1,0,0,0-.76,1.84C20.2,7.42,20.33,8,21,8a1,1,0,0,0,.61-1.79A9.68,9.68,0,0,0,19.38,4.92Z"/><path class="cls-4" d="M25.34,11.27a9.52,9.52,0,0,0-1.05-2.15,1,1,0,0,0-1.68,1.09,8.1,8.1,0,0,1,.85,1.72A1,1,0,0,0,25.34,11.27Z"/></g></svg>