<svg xmlns="http://www.w3.org/2000/svg" viewBox="0 0 48 48"><defs><style>.cls-1{fill:#dad7e5;}.cls-2{fill:#edebf2;}.cls-3{fill:#9fdbf3;}.cls-4{fill:#b2e5fb;}.cls-5{fill:#374f68;}.cls-6{fill:#425b72;}.cls-7{fill:#a87e6b;}.cls-8{fill:#be927c;}.cls-9{fill:#f6ccaf;}.cls-10{fill:#ffdec7;}.cls-11{fill:#ffde76;}.cls-12{fill:#db5669;}</style></defs><title>Car Delivery</title><g id="Car_Delivery" data-name="Car Delivery"><path class="cls-1" d="M47,24V34H42a4,4,0,0,0-8,0H15a4,4,0,0,0-8,0H1V10H35l3.43,4H33V24Z"/><path class="cls-2" d="M47,24v8H41.46a4,4,0,0,0-6.92,0H25A22,22,0,0,1,3,10H35l3.43,4H33V24Z"/><path class="cls-3" d="M47,24H33V14h5.43Z"/><path class="cls-4" d="M46.14,23H40a6,6,0,0,1-6-6V14h4.43Z"/><path class="cls-5" d="M42,34a4,4,0,1,1-6.28-3.28A4,4,0,0,1,42,34Z"/><path class="cls-6" d="M41.28,36.28a4,4,0,0,1-5.56-5.56A4,4,0,0,1,41.28,36.28Z"/><path class="cls-5" d="M15,34a4,4,0,1,1-6.28-3.28A4,4,0,0,1,15,34Z"/><path class="cls-6" d="M14.28,36.28a4,4,0,0,1-5.56-5.56A4,4,0,0,1,14.28,36.28Z"/><path class="cls-1" d="M39,34a1,1,0,0,0-2,0A1,1,0,0,0,39,34Z"/><path class="cls-1" d="M12,34a1,1,0,0,0-2,0A1,1,0,0,0,12,34Z"/><rect class="cls-7" x="7" y="15" width="10" height="10"/><path class="cls-8" d="M17,15v9H14a6,6,0,0,1-6-6V15Z"/><rect class="cls-9" x="10" y="15" width="4" height="2"/><rect class="cls-10" x="11" y="15" width="3" height="1"/><path class="cls-1" d="M24,10v9a1,1,0,0,1-2,0V10Z"/><path class="cls-11" d="M47,27v2H44a1,1,0,0,1,0-2Z"/><path class="cls-6" d="M29,25H28a1,1,0,0,1,0-2h1A1,1,0,0,1,29,25Z"/><path class="cls-12" d="M5,31H1V29H5A1,1,0,0,1,5,31Z"/></g></svg>