<svg xmlns="http://www.w3.org/2000/svg" viewBox="0 0 48 48"><defs><style>.cls-1{fill:#2c435e;}.cls-2{fill:#7c7d7d;}.cls-3{fill:#919191;}.cls-4{fill:#425b72;}.cls-5{fill:#374f68;}.cls-6{fill:#747575;}.cls-7{fill:#a87e6b;}.cls-8{fill:#be927c;}.cls-9{fill:#f6ccaf;}.cls-10{fill:#ffdec7;}</style></defs><title>Conveyor</title><g id="Conveyor"><rect class="cls-1" x="6" y="30" width="36" height="6"/><path class="cls-2" d="M42,25.58c-2.09-.83-.94-.58-33-.58A8,8,0,0,0,9,41c32.29,0,31,.24,33-.58A8,8,0,0,0,42,25.58ZM6.88,30.88C8.1,29.66,6.45,30,39,30a3,3,0,0,1,2.12,5.12C39.9,36.34,41.55,36,9,36A3,3,0,0,1,6.88,30.88Z"/><path class="cls-3" d="M42,25.58c-2.09-.83-.94-.58-33-.58a7.78,7.78,0,0,0-4.57,1.45A8,8,0,0,0,11,39H41a7.9,7.9,0,0,0,4.57-1.44A8,8,0,0,0,42,25.58Zm-.88,9.54C39.9,36.34,41.55,36,9,36a3,3,0,0,1-2.12-5.12C8.1,29.66,6.45,30,39,30A3,3,0,0,1,41.12,35.12Z"/><circle class="cls-4" cx="39" cy="33" r="3"/><path class="cls-5" d="M39,30a3,3,0,0,0-2.55,1.45,3,3,0,0,1,4.1,4.1A3,3,0,0,0,39,30Z"/><circle class="cls-4" cx="9" cy="33" r="3"/><path class="cls-5" d="M9,30a3,3,0,0,0-2.55,1.45,3,3,0,0,1,4.1,4.1A3,3,0,0,0,9,30Z"/><circle class="cls-4" cx="24" cy="33" r="3"/><path class="cls-5" d="M24,30a3,3,0,0,0-2.55,1.45,3,3,0,0,1,4.1,4.1A3,3,0,0,0,24,30Z"/><path class="cls-6" d="M25,25v1a1,1,0,0,1-2,0V25Z"/><path class="cls-6" d="M46.94,34H46a1,1,0,0,1,0-2h.94A8.36,8.36,0,0,1,46.94,34Z"/><path class="cls-6" d="M25,40v1H23V40A1,1,0,0,1,25,40Z"/><path class="cls-6" d="M2,34H1.06a8.36,8.36,0,0,1,0-2H2A1,1,0,0,1,2,34Z"/><path class="cls-6" d="M16,25v1a1,1,0,0,1-2,0V25Z"/><path class="cls-6" d="M34,25v1a1,1,0,0,1-2,0V25Z"/><path class="cls-6" d="M16,40v1H14V40A1,1,0,0,1,16,40Z"/><path class="cls-6" d="M34,40v1H32V40A1,1,0,0,1,34,40Z"/><path class="cls-6" d="M43.8,39.39a7.84,7.84,0,0,1-1.8,1l-.71-.71a1,1,0,0,1,1.42-1.42C43.92,39.5,43.79,39.38,43.8,39.39Z"/><path class="cls-6" d="M43.8,26.6c0,.1-.53.55-1.09,1.11a1,1,0,0,1-1.42-1.42l.71-.71A8.19,8.19,0,0,1,43.8,26.6Z"/><path class="cls-6" d="M6.71,27.71c-.91.87-1.71-.3-2.51-1.1a7.84,7.84,0,0,1,1.8-1l.71.71A1,1,0,0,1,6.71,27.71Z"/><path class="cls-6" d="M6.71,39.71,6,40.42a8.19,8.19,0,0,1-1.8-1c0-.1.53-.55,1.09-1.11A1,1,0,0,1,6.71,39.71Z"/><rect class="cls-7" x="8" y="7" width="18" height="18"/><path class="cls-8" d="M26,7V23H18a8,8,0,0,1-8-8V7Z"/><rect class="cls-7" x="31" y="15" width="10" height="10"/><path class="cls-8" d="M41,15v9H38a6,6,0,0,1-6-6V15Z"/><rect class="cls-9" x="15" y="7" width="4" height="4"/><path class="cls-10" d="M19,7v3a3,3,0,0,1-3-3Z"/><path class="cls-9" d="M37,15v2a1,1,0,0,1-2,0V15Z"/><path class="cls-1" d="M16,19H12a1,1,0,0,1,0-2h4A1,1,0,0,1,16,19Z"/><path class="cls-1" d="M14,22H12a1,1,0,0,1,0-2h2A1,1,0,0,1,14,22Z"/></g></svg>