<svg xmlns="http://www.w3.org/2000/svg" viewBox="0 0 48 48"><defs><style>.cls-1{fill:#9fdbf3;}.cls-2{fill:#a87e6b;}.cls-3{fill:#f6ccaf;}.cls-4{fill:#be927c;}.cls-5{fill:#ffdec7;}.cls-6{fill:#a07765;}.cls-7{fill:#c6c3d8;}.cls-8{fill:#b2e5fb;}.cls-9{fill:#edebf2;}</style></defs><title>Box with Fragile</title><g id="Box_With_Fragile" data-name="Box With Fragile"><path class="cls-1" d="M43,39v7a1,1,0,0,1-2,0V39A1,1,0,0,1,43,39Z"/><path class="cls-1" d="M45,47H39a1,1,0,0,1,0-2h6A1,1,0,0,1,45,47Z"/><path class="cls-2" d="M28,19.8,21,24,1,12c2.78-1.52.42-.22,8-4.38Z"/><path class="cls-3" d="M34,16.2l-6,3.6L9,7.62l6.28-3.46Z"/><path class="cls-2" d="M41,12c-4.22,2.54,5.31-3.21-7,4.2l-18.75-12L21,1Z"/><path class="cls-4" d="M28,19.8l-5,3L10.7,15.42a3.82,3.82,0,0,1,.12-6.62Z"/><path class="cls-5" d="M34,16.2l-6,3.6L10.82,8.8c5.53-3,1-.59,6.28-3.45Z"/><path class="cls-4" d="M41,12l-7,4.2L17.1,5.35,23,2.1C41.7,12.38,38.62,10.68,41,12Z"/><path class="cls-2" d="M37.9,36.86,21,47V24L41,12V29H37C37,33.56,36.7,35.22,37.9,36.86Z"/><path class="cls-4" d="M37,29c0,5.45-.06,5.43.17,6.3l-8.11,4.87A4,4,0,0,1,23,36.74V22.8L41,12V29Z"/><path class="cls-3" d="M34,16.2V23l-6,3V19.8Z"/><path class="cls-5" d="M34,16.2V22l-1.35.67A3.21,3.21,0,0,1,28,19.8Z"/><polygon class="cls-3" points="34 33 34 39.2 28 42.8 28 37 34 33"/><polygon class="cls-2" points="28 37.33 28 42.8 27 43.4 27 38 28 37.33"/><path class="cls-5" d="M34,33v4.2l-2.74,1.64A2.15,2.15,0,0,1,28,37Z"/><polygon class="cls-6" points="21 24 21 47 1 35 1 12 21 24"/><polygon class="cls-7" points="11 30 11 36 17 40 17 34 11 30"/><path class="cls-2" d="M10.82,8.8a3.5,3.5,0,0,0-.73.53C11,9.94,8.37,8.2,27,20.4V26l1-.5V19.8Z"/><path class="cls-1" d="M47,29c0,5.13.26,6.34-1,8a5,5,0,0,1-9-3V29Z"/><path class="cls-8" d="M47,29c0,5.13.26,6.34-1,8a5,5,0,0,1-8-4V29Z"/><path class="cls-2" d="M37.9,36.86,36,38c-1.29-1.7-1-2.94-1-8h2C37,33.31,36.73,35.25,37.9,36.86Z"/><path class="cls-9" d="M44.89,32.45C43.8,34.62,43.76,35,43,35a1,1,0,0,1-.89-1.45l.55-1.1-1.11-.56a1,1,0,0,1-.38-1.44l1-1.45h2.39l-1.07,1.61,1,.5A1,1,0,0,1,44.89,32.45Z"/></g></svg>