<svg xmlns="http://www.w3.org/2000/svg" viewBox="0 0 48 48"><defs><style>.cls-1{fill:#a87e6b;}.cls-2{fill:#f6ccaf;}.cls-3{fill:#be927c;}.cls-4{fill:#ffdec7;}.cls-5{fill:#a07765;}.cls-6{fill:#c6c3d8;}.cls-7{fill:#dad7e5;}.cls-8{fill:#edebf2;}.cls-9{fill:#374f68;}.cls-10{fill:#2c435e;}</style></defs><title>QR code with Box</title><g id="QR_Code_with_Box" data-name="QR Code with Box"><path class="cls-1" d="M28,19.8,21,24,1,12c2.78-1.52.42-.22,8-4.38Z"/><path class="cls-2" d="M34,16.2l-6,3.6L9,7.62l6.28-3.46Z"/><path class="cls-1" d="M41,12c-4.22,2.54,5.31-3.21-7,4.2l-18.75-12L21,1Z"/><path class="cls-3" d="M28,19.8l-5,3L10.7,15.42a3.82,3.82,0,0,1,.12-6.62Z"/><path class="cls-4" d="M34,16.2l-6,3.6L10.82,8.8c5.53-3,1-.59,6.28-3.45Z"/><path class="cls-3" d="M41,12l-7,4.2L17.1,5.35,23,2.1C41.7,12.38,38.62,10.68,41,12Z"/><path class="cls-1" d="M41,12V35L21,47V24Z"/><path class="cls-3" d="M41,12V33L29.06,40.17A4,4,0,0,1,23,36.74V22.8Z"/><path class="cls-2" d="M34,16.2V23l-6,3V19.8Z"/><path class="cls-4" d="M34,16.2V22l-1.35.67A3.21,3.21,0,0,1,28,19.8Z"/><polygon class="cls-1" points="28 37.33 28 42.8 27 43.4 27 38 28 37.33"/><polygon class="cls-5" points="21 24 21 47 1 35 1 12 21 24"/><polygon class="cls-6" points="11 30 11 36 17 40 17 34 11 30"/><path class="cls-1" d="M10.82,8.8a3.5,3.5,0,0,0-.73.53C11,9.94,8.37,8.2,27,20.4V26l1-.5V19.8Z"/><path class="cls-7" d="M47,33c0,11,.12,10.59-.36,11.64A4,4,0,0,1,43,47H33a4,4,0,0,1-4-4V33a4,4,0,0,1,4-4H43A4,4,0,0,1,47,33Z"/><path class="cls-5" d="M29,40.2v2l-2,1.2V40.74A4,4,0,0,0,29,40.2Z"/><path class="cls-1" d="M30.29,30.08C28.63,31.62,29,32.75,29,40.2a4,4,0,0,1-2,.54V34A4,4,0,0,1,30.29,30.08Z"/><path class="cls-8" d="M47,32.93c0,11,.12,10.66-.36,11.71C42.38,46.6,31,41.84,31,31a3.93,3.93,0,0,1,.36-1.64A3.93,3.93,0,0,1,33,29H43.07A3.93,3.93,0,0,1,47,32.93Z"/><path class="cls-9" d="M35,44H33a1,1,0,0,1-1-1V41a1,1,0,0,1,1-1h2a1,1,0,0,1,1,1v2A1,1,0,0,1,35,44Zm-1-2h0Z"/><path class="cls-10" d="M43,36H41a1,1,0,0,1-1-1V33a1,1,0,0,1,1-1h2a1,1,0,0,1,1,1v2A1,1,0,0,1,43,36Zm-1-2h0Z"/><path class="cls-10" d="M34,35V34h1a1,1,0,0,0,0-2H33a1,1,0,0,0-1,1v2A1,1,0,0,0,34,35Z"/><path class="cls-10" d="M42,41v1H41a1,1,0,0,0,0,2h2a1,1,0,0,0,1-1V41A1,1,0,0,0,42,41Z"/><path class="cls-10" d="M37,33v4H33a1,1,0,0,0,0,2h4v4a1,1,0,0,0,2,0V33A1,1,0,0,0,37,33Z"/><path class="cls-10" d="M41,39h2a1,1,0,0,0,0-2H41A1,1,0,0,0,41,39Z"/></g></svg>