<svg xmlns="http://www.w3.org/2000/svg" viewBox="0 0 48 48"><defs><style>.cls-1{fill:#919191;}.cls-2{fill:#db5669;}.cls-3{fill:#f26674;}.cls-4{fill:#a87e6b;}.cls-5{fill:#be927c;}.cls-6{fill:#dad7e5;}.cls-7{fill:#edebf2;}</style></defs><title>Parachute Box</title><g id="Parachute_Box" data-name="Parachute Box"><path class="cls-1" d="M24,34c-.72,0-.17.44-9.8-12.4a1,1,0,0,1,1.6-1.2L24,31.33,32.2,20.4a1,1,0,0,1,1.6,1.2C24.17,34.44,24.73,34,24,34Z"/><path class="cls-1" d="M24,34c-.43,0,.85.72-19.53-12.15a1,1,0,0,1,1.06-1.7l19,12A1,1,0,0,1,24,34Z"/><path class="cls-1" d="M24,34a1,1,0,0,1-.53-1.85l19-12a1,1,0,0,1,1.06,1.7C22.94,34.85,24.43,34,24,34Z"/><path class="cls-2" d="M44,21H34A25,25,0,0,0,24,1,20,20,0,0,1,44,21Z"/><path class="cls-3" d="M40.88,16.83A20,20,0,0,0,33.49,3.39,19.94,19.94,0,0,0,24,1a24.94,24.94,0,0,1,9.91,18h5A2,2,0,0,0,40.88,16.83Z"/><path class="cls-2" d="M24,1A25,25,0,0,0,14,21H4A20,20,0,0,1,24,1Z"/><path class="cls-3" d="M9.11,19h5A24.94,24.94,0,0,1,24,1a19.94,19.94,0,0,0-9.49,2.39A20,20,0,0,0,7.12,16.83,2,2,0,0,0,9.11,19Z"/><rect class="cls-4" x="15" y="33" width="18" height="4"/><path class="cls-5" d="M33,33v3H19a3,3,0,0,1-3-3Z"/><rect class="cls-4" x="15" y="37" width="4" height="6"/><path class="cls-5" d="M19,37v5a3,3,0,0,1-3-3V37Z"/><rect class="cls-4" x="29" y="37" width="4" height="6"/><path class="cls-5" d="M33,37v5a3,3,0,0,1-3-3V37Z"/><polygon class="cls-4" points="29 37 19 43 19 37 29 37"/><polygon class="cls-5" points="27.33 37 20 41.4 20 37 27.33 37"/><rect class="cls-4" x="15" y="43" width="18" height="4"/><path class="cls-5" d="M33,43v3H19a3,3,0,0,1-3-3Z"/><path class="cls-6" d="M34,21H14A25,25,0,0,1,24,1,25,25,0,0,1,34,21Z"/><path class="cls-7" d="M24.37,1.29a24.92,24.92,0,0,0-7.28,15.56,2,2,0,0,0,2,2.15H33.91A25,25,0,0,0,24.37,1.29Z"/><path class="cls-4" d="M29,37v6H19Z"/><path class="cls-5" d="M29,37.2V42H21Z"/></g></svg>