<svg xmlns="http://www.w3.org/2000/svg" viewBox="0 0 48 48"><defs><style>.cls-1{fill:#dad7e5;}.cls-12,.cls-2{fill:#edebf2;}.cls-3{fill:#9fdbf3;}.cls-4{fill:#b2e5fb;}.cls-5{fill:#374f68;}.cls-6{fill:#c6c3d8;}.cls-7{fill:#9dcc6b;}.cls-8{fill:#a87e6b;}.cls-9{fill:#be927c;}.cls-10{fill:#a07765;}.cls-11{fill:#f6ccaf;}.cls-12{opacity:0.2;}</style></defs><title>Computer with Box</title><g id="Computer_with_Box" data-name="Computer with Box"><path class="cls-1" d="M45,3V29H3V3A2,2,0,0,1,5,1H43A2,2,0,0,1,45,3Z"/><path class="cls-2" d="M45,3V26H30A25,25,0,0,1,5,1H43A2,2,0,0,1,45,3Z"/><rect class="cls-3" x="5" y="3" width="38" height="24" rx="2"/><path class="cls-4" d="M43,5V25H29A22,22,0,0,1,7,3H41A2,2,0,0,1,43,5Z"/><path class="cls-5" d="M40,9H28a1,1,0,0,1,0-2H40A1,1,0,0,1,40,9Z"/><path class="cls-5" d="M38,13H28a1,1,0,0,1,0-2H38A1,1,0,0,1,38,13Z"/><path class="cls-5" d="M36,17H28a1,1,0,0,1,0-2h8A1,1,0,0,1,36,17Z"/><path class="cls-5" d="M40,21H28a1,1,0,0,1,0-2H40A1,1,0,0,1,40,21Z"/><path class="cls-1" d="M45,29v4a2,2,0,0,1-2,2H5a2,2,0,0,1-2-2V29Z"/><path class="cls-2" d="M45,29v4H9a4,4,0,0,1-4-4Z"/><path class="cls-6" d="M31,47,17,47,19,35l10,0Z"/><path class="cls-1" d="M28.69,47,17,47l1.62-10,4.94,0a4,4,0,0,1,3.95,3.32Z"/><path class="cls-6" d="M35,47l-22,.1a1,1,0,0,1,0-2L35,45A1,1,0,0,1,35,47Z"/><path class="cls-1" d="M36,45.94c0,.1.28,0-22,.11a1,1,0,0,1-1-1L35,45A1,1,0,0,1,36,45.94Z"/><path class="cls-7" d="M8,32a1,1,0,0,0-2,0A1,1,0,0,0,8,32Z"/><path class="cls-5" d="M12,32a1,1,0,0,0-2,0A1,1,0,0,0,12,32Z"/><path class="cls-5" d="M16,32a1,1,0,0,0-2,0A1,1,0,0,0,16,32Z"/><path class="cls-8" d="M24,11l-8,4L8,11l8-4Z"/><path class="cls-9" d="M24,11c-6.61,3.32-1,.49-7,3.5l-5.21-2.61a1,1,0,0,1,0-1.78L17,7.5Z"/><polygon class="cls-10" points="16 15 16 23 8 19 8 11 16 15"/><polygon class="cls-8" points="24 11 24 19 16 23 16 15 24 11"/><path class="cls-9" d="M24,11v6.5l-4.11,2.05A2,2,0,0,1,17,17.76V14.5Z"/><path class="cls-11" d="M21,13v2a1,1,0,0,1-2,0V13.62L10.88,9.56l2.24-1.12C20.48,12.13,21,12.16,21,13Z"/><path class="cls-8" d="M19.5,15.85A1,1,0,0,1,18,15V13.62L10.38,9.81c.71-.36-.65-.82,8.62,3.81C19,15.17,18.9,15.48,19.5,15.85Z"/><path class="cls-12" d="M43,5V25a2,2,0,0,1-2,2H32c1.06-2.31-1.2,2.63,10.62-23.17A2,2,0,0,1,43,5Z"/><polygon class="cls-12" points="37 3 26 27 20 27 30 3 37 3"/><polygon class="cls-12" points="22 3 12 27 8 27 18 3 22 3"/></g></svg>