<svg xmlns="http://www.w3.org/2000/svg" viewBox="0 0 48 48"><defs><style>.cls-1{fill:#ffba55;}.cls-2{fill:#a87e6b;}.cls-3{fill:#be927c;}.cls-4{fill:#a07765;}.cls-5{fill:#fc6;}.cls-6{fill:#ffde76;}.cls-7{fill:#f6ccaf;}</style></defs><title>Distribution</title><g id="Distribution"><path class="cls-1" d="M10,25H4a1,1,0,0,1-.86-1.5c.38-.67.37-.5,6.86-.5A1,1,0,0,1,10,25Z"/><path class="cls-1" d="M13,13V10a1,1,0,0,0-1-1H4A1,1,0,0,1,4,7h8a3,3,0,0,1,3,3v3A1,1,0,0,1,13,13Z"/><path class="cls-1" d="M12,41H4a1,1,0,0,1,0-2h8a1,1,0,0,0,1-1V35a1,1,0,0,1,2,0v3A3,3,0,0,1,12,41Z"/><path class="cls-1" d="M44,9H36a1,1,0,0,0-1,1v3a1,1,0,0,1-2,0V10a3,3,0,0,1,3-3h8A1,1,0,0,1,44,9Z"/><path class="cls-1" d="M43,41H36a3,3,0,0,1-3-3V35a1,1,0,0,1,2,0v3a1,1,0,0,0,1,1h7A1,1,0,0,1,43,41Z"/><path class="cls-1" d="M44,25H38a1,1,0,0,1,0-2h6A1,1,0,0,1,44,25Z"/><path class="cls-1" d="M25,4c0,5.35.17,5.48-.5,5.86A1,1,0,0,1,23,9V4A1,1,0,0,1,25,4Z"/><path class="cls-1" d="M25,39c0,5.35.17,5.48-.5,5.86A1,1,0,0,1,23,44V39A1,1,0,0,1,25,39Z"/><path class="cls-2" d="M34,18c-9.53,4.75-2.18,1.1-10,5L14,18c8.93-4.45,2.42-1.22,10-5Z"/><path class="cls-3" d="M34,18l-9,4.5-7.21-3.61a1,1,0,0,1,0-1.78L25,13.5Z"/><polygon class="cls-2" points="34 18 34 30 24 35 24 23 34 18"/><polygon class="cls-2" points="34 18 34 30 24 35 24 23 34 18"/><path class="cls-3" d="M34,18V28l-6.11,3.05A2,2,0,0,1,25,29.26V22.5Z"/><polygon class="cls-4" points="24 23 24 35 14 30 14 18 24 23"/><path class="cls-5" d="M26,3a2,2,0,1,1-2.82-1.82A2,2,0,0,1,26,3Z"/><path class="cls-6" d="M25.82,3.82a2,2,0,0,1-2.64-2.64A2,2,0,0,1,25.82,3.82Z"/><path class="cls-5" d="M26,45a2,2,0,1,1-2.82-1.82A2,2,0,0,1,26,45Z"/><path class="cls-6" d="M25.82,45.82a2,2,0,0,1-2.64-2.64A2,2,0,0,1,25.82,45.82Z"/><path class="cls-5" d="M5,24a2,2,0,1,1-2.82-1.82A2,2,0,0,1,5,24Z"/><path class="cls-6" d="M4.82,24.82a2,2,0,0,1-2.64-2.64A2,2,0,0,1,4.82,24.82Z"/><path class="cls-5" d="M5,8A2,2,0,1,1,2.18,6.18,2,2,0,0,1,5,8Z"/><path class="cls-6" d="M4.82,8.82A2,2,0,0,1,2.18,6.18,2,2,0,0,1,4.82,8.82Z"/><path class="cls-5" d="M47,24a2,2,0,1,1-2.82-1.82A2,2,0,0,1,47,24Z"/><path class="cls-6" d="M46.82,24.82a2,2,0,0,1-2.64-2.64A2,2,0,0,1,46.82,24.82Z"/><path class="cls-5" d="M5,40a2,2,0,1,1-2.82-1.82A2,2,0,0,1,5,40Z"/><path class="cls-6" d="M4.82,40.82a2,2,0,0,1-2.64-2.64A2,2,0,0,1,4.82,40.82Z"/><path class="cls-5" d="M47,8a2,2,0,1,1-2.82-1.82A2,2,0,0,1,47,8Z"/><path class="cls-6" d="M46.82,8.82a2,2,0,0,1-2.64-2.64A2,2,0,0,1,46.82,8.82Z"/><path class="cls-5" d="M47,40a2,2,0,1,1-2.82-1.82A2,2,0,0,1,47,40Z"/><path class="cls-6" d="M46.82,40.82a2,2,0,0,1-2.64-2.64A2,2,0,0,1,46.82,40.82Z"/><path class="cls-2" d="M28,23c0-2.3,0-2-.09-1.95l-8.64-4.68-.9.45L27,21.5V23a1,1,0,0,0,1.5.85A1,1,0,0,1,28,23Z"/><path class="cls-7" d="M29.9,20.07c-.45-.57,1,.31-9.41-5.32l-2.18,1.1,9.6,5.2c.13.07.09-.22.09,1.95a1,1,0,0,0,2,0C30,20.16,30,20.37,29.9,20.07Z"/></g></svg>