<svg id="Box_Package" data-name="Box Package" xmlns="http://www.w3.org/2000/svg" viewBox="0 0 48 48"><defs><style>.cls-1{fill:#a87e6b;}.cls-2{fill:#f6ccaf;}.cls-3{fill:#be927c;}.cls-4{fill:#ffdec7;}.cls-5{fill:#a07765;}.cls-6{fill:#c6c3d8;}</style></defs><title>Box Package </title><path class="cls-1" d="M31,19.8,24,24,4,12c2.78-1.52.42-.22,8-4.38Z"/><path class="cls-2" d="M37,16.2l-6,3.6L12,7.62l6.28-3.46Z"/><path class="cls-1" d="M44,12c-4.22,2.54,5.31-3.21-7,4.2l-18.75-12L24,1Z"/><path class="cls-3" d="M31,19.8l-5,3L13.7,15.42a3.82,3.82,0,0,1,.12-6.62Z"/><path class="cls-4" d="M37,16.2l-6,3.6L13.82,8.8c5.53-3,1-.59,6.28-3.45Z"/><path class="cls-3" d="M44,12l-7,4.2L20.1,5.35,26,2.1C44.7,12.38,41.62,10.68,44,12Z"/><path class="cls-1" d="M44,12V35L24,47V24Z"/><path class="cls-3" d="M44,12V33L32.06,40.17A4,4,0,0,1,26,36.74V22.8Z"/><path class="cls-2" d="M37,16.2V23l-6,3V19.8Z"/><path class="cls-4" d="M37,16.2V22l-1.35.67A3.21,3.21,0,0,1,31,19.8Z"/><polygon class="cls-2" points="37 33 37 39.2 31 42.8 31 37 37 33"/><polygon class="cls-1" points="31 37.33 31 42.8 30 43.4 30 38 31 37.33"/><path class="cls-4" d="M37,33v4.2l-2.74,1.64A2.15,2.15,0,0,1,31,37Z"/><polygon class="cls-5" points="24 24 24 47 4 35 4 12 24 24"/><polygon class="cls-6" points="14 30 14 36 20 40 20 34 14 30"/><path class="cls-1" d="M13.82,8.8a3.5,3.5,0,0,0-.73.53C14,9.94,11.37,8.2,30,20.4V26l1-.5V19.8Z"/></svg>