<svg xmlns="http://www.w3.org/2000/svg" viewBox="0 0 48 48"><defs><style>.cls-1{fill:#7c7d7d;}.cls-2{fill:#919191;}.cls-3{fill:#a87e6b;}.cls-4{fill:#be927c;}.cls-5{fill:#f6ccaf;}.cls-6{fill:#ffdec7;}.cls-7{fill:#dad7e5;}.cls-8{fill:#c6c3d8;}</style></defs><title>Overflow</title><g id="Overflow"><rect class="cls-1" x="1" y="43" width="46" height="4"/><path class="cls-2" d="M47,43v2H5a2,2,0,0,1-2-2Z"/><rect class="cls-3" x="1" y="31" width="12" height="12"/><path class="cls-4" d="M13,31V41H9a6,6,0,0,1-6-6V31Z"/><rect class="cls-5" x="5" y="31" width="4" height="4"/><path class="cls-6" d="M9,31v3a3,3,0,0,1-3-3Z"/><path class="cls-7" d="M35,8V6a1,1,0,0,1,2,0V8A1,1,0,0,1,35,8Z"/><path class="cls-7" d="M43,14H41a1,1,0,0,1,0-2h2A1,1,0,0,1,43,14Z"/><path class="cls-7" d="M39,11a1,1,0,0,1-.71-1.71l2-2a1,1,0,0,1,1.42,1.42C39.53,10.89,39.54,11,39,11Z"/><path class="cls-8" d="M8,40H6a1,1,0,0,1,0-2H8A1,1,0,0,1,8,40Z"/><rect class="cls-3" x="13" y="31" width="12" height="12"/><path class="cls-4" d="M25,31V41H21a6,6,0,0,1-6-6V31Z"/><rect class="cls-5" x="17" y="31" width="4" height="4"/><path class="cls-6" d="M21,31v3a3,3,0,0,1-3-3Z"/><path class="cls-8" d="M20,40H18a1,1,0,0,1,0-2h2A1,1,0,0,1,20,40Z"/><rect class="cls-3" x="1" y="19" width="12" height="12"/><path class="cls-4" d="M13,19V29H9a6,6,0,0,1-6-6V19Z"/><rect class="cls-5" x="5" y="19" width="4" height="4"/><path class="cls-6" d="M9,19v3a3,3,0,0,1-3-3Z"/><path class="cls-8" d="M8,28H6a1,1,0,0,1,0-2H8A1,1,0,0,1,8,28Z"/><rect class="cls-3" x="1" y="7" width="12" height="12"/><path class="cls-4" d="M13,7V17H9a6,6,0,0,1-6-6V7Z"/><rect class="cls-5" x="5" y="7" width="4" height="4"/><path class="cls-6" d="M9,7v3A3,3,0,0,1,6,7Z"/><path class="cls-8" d="M8,16H6a1,1,0,0,1,0-2H8A1,1,0,0,1,8,16Z"/><rect class="cls-3" x="13" y="19" width="12" height="12"/><path class="cls-4" d="M25,19V29H21a6,6,0,0,1-6-6V19Z"/><rect class="cls-5" x="17" y="19" width="4" height="4"/><path class="cls-6" d="M21,19v3a3,3,0,0,1-3-3Z"/><path class="cls-8" d="M20,28H18a1,1,0,0,1,0-2h2A1,1,0,0,1,20,28Z"/><rect class="cls-3" x="25" y="31" width="12" height="12"/><path class="cls-4" d="M37,31V41H33a6,6,0,0,1-6-6V31Z"/><rect class="cls-5" x="29" y="31" width="4" height="4"/><path class="cls-6" d="M33,31v3a3,3,0,0,1-3-3Z"/><path class="cls-8" d="M32,40H30a1,1,0,0,1,0-2h2A1,1,0,0,1,32,40Z"/><rect class="cls-3" x="19" y="6" width="12" height="12" transform="translate(6.94 33.04) rotate(-75)"/><path class="cls-4" d="M32.35,7.76l-2.59,9.66-3.86-1A6,6,0,0,1,21.65,9l1-3.86Z"/><rect class="cls-5" x="24.04" y="6.14" width="4" height="4" transform="translate(11.44 31.18) rotate(-75)"/><path class="cls-6" d="M28.48,6.72l-.77,2.9A3,3,0,0,1,25.59,6Z"/><path class="cls-8" d="M25.19,15.16l-1.93-.52a1,1,0,0,1,.52-1.93l1.93.51A1,1,0,0,1,25.19,15.16Z"/><rect class="cls-3" x="32" y="17" width="12" height="12" transform="translate(-0.92 44.41) rotate(-60)"/><path class="cls-4" d="M46.2,20.8l-5,8.66-3.47-2a6,6,0,0,1-2.19-8.19l2-3.47Z"/><rect class="cls-5" x="38" y="17.54" width="4" height="4" transform="translate(3.08 44.41) rotate(-60)"/><path class="cls-6" d="M42.73,18.8l-1.5,2.6a3,3,0,0,1-1.1-4.1Z"/><path class="cls-8" d="M37.37,26.1l-1.74-1a1,1,0,0,1,1-1.73l1.74,1A1,1,0,0,1,37.37,26.1Z"/></g></svg>