<svg xmlns="http://www.w3.org/2000/svg" viewBox="0 0 48 48"><defs><style>.cls-1{fill:#fc6;}.cls-2{fill:#ffde76;}.cls-3{fill:#dad7e5;}.cls-4{fill:#edebf2;}.cls-5{fill:#ffba55;}.cls-6{fill:#374f68;}.cls-7{fill:#2c435e;}.cls-8{fill:#df8761;}.cls-9{fill:#425b72;}.cls-10{fill:#a87e6b;}.cls-11{fill:#be927c;}.cls-12{fill:#f6ccaf;}.cls-13{fill:#ffdec7;}</style></defs><title>Scooter Delivery</title><g id="Scooter_Delivery" data-name="Scooter Delivery"><path class="cls-1" d="M39,8v8H29a8,8,0,0,1,5.46-7.59A12.65,12.65,0,0,1,39,8Z"/><path class="cls-2" d="M39,8v7H33.35a2,2,0,0,1-1.91-2.62,8,8,0,0,1,3-4A12.65,12.65,0,0,1,39,8Z"/><path class="cls-3" d="M38,32l-3,8H1V34a12,12,0,0,1,5-9.75C9.78,21.53,12.8,22,19,22V32a4,4,0,0,0,4,4h8V16h4Z"/><path class="cls-4" d="M17,24V34a4,4,0,0,0,4,4h6a2,2,0,0,0,2-2H23a4,4,0,0,1-4-4V22c-6.08,0-11.15-.81-15.41,4.58C7.53,23.48,10.62,24,17,24Z"/><path class="cls-4" d="M38,32l-1.65,4.41c-.57-3.12-3-16.21-2.92-16.07a2,2,0,0,1,2-2.34C35.48,18,35.21,17.1,38,32Z"/><path class="cls-1" d="M47,40H35l3-8c2.53,0,4.6.29,6.66,2.34A8,8,0,0,1,47,40Z"/><path class="cls-2" d="M45.32,38H37.19a1,1,0,0,1-.93-1.35L38,32h1a8,8,0,0,1,7.21,4.54A1,1,0,0,1,45.32,38Z"/><path class="cls-1" d="M15,26V36H5c0-2.48-.28-6,3.44-8.56C10.78,25.79,12.86,26,15,26Z"/><path class="cls-2" d="M15,26v8H7c0-2.46-.16-4.29,1.44-6.56C10.78,25.79,12.86,26,15,26Z"/><path class="cls-5" d="M15,30v2H13a1,1,0,0,1,0-2Z"/><path class="cls-6" d="M38,46a5,5,0,0,1-4.9-6h9.8A5,5,0,0,1,38,46Z"/><path class="cls-7" d="M42.9,40H33.1a4.71,4.71,0,0,0-.1,1h7.9a4.94,4.94,0,0,1-1.75,4.85A5,5,0,0,0,42.9,40Z"/><path class="cls-6" d="M10,46a5,5,0,0,1-4.9-6h9.8A5,5,0,0,1,10,46Z"/><path class="cls-7" d="M14.9,40H5.1A4.71,4.71,0,0,0,5,41h7.9a4.94,4.94,0,0,1-1.75,4.85A5,5,0,0,0,14.9,40Z"/><path class="cls-3" d="M12,41a2,2,0,0,1-4,0Z"/><path class="cls-3" d="M40,41a2,2,0,0,1-4,0Z"/><path class="cls-8" d="M22,20v2c-8.95,0-12.06-.59-16,2.25V18H20A2,2,0,0,1,22,20Z"/><path class="cls-9" d="M22,20v2c-8.95,0-12.06-.59-16,2.25V18H20A2,2,0,0,1,22,20Z"/><path class="cls-6" d="M21,21v1H13a12.17,12.17,0,0,0-7,2.25A5.25,5.25,0,0,1,11.25,19H19A2,2,0,0,1,21,21Z"/><rect class="cls-10" x="4" y="3" width="16" height="15"/><path class="cls-11" d="M20,3V16H14A8,8,0,0,1,6,8V3Z"/><path class="cls-6" d="M32,13H26a1,1,0,0,1,0-2h6A1,1,0,0,1,32,13Z"/><rect class="cls-12" x="10" y="3" width="4" height="4"/><path class="cls-13" d="M14,3V6a3,3,0,0,1-3-3Z"/><path class="cls-4" d="M13,15H11a1,1,0,0,1,0-2h2A1,1,0,0,1,13,15Z"/></g></svg>