<svg xmlns="http://www.w3.org/2000/svg" viewBox="0 0 48 48"><defs><style>.cls-1{fill:#a87e6b;}.cls-2{fill:#f6ccaf;}.cls-3{fill:#be927c;}.cls-4{fill:#ffdec7;}.cls-5{fill:#a07765;}.cls-6{fill:#c6c3d8;}.cls-7{fill:#7c7d7d;}.cls-8{fill:#919191;}.cls-9{fill:#9fdbf3;}.cls-10{fill:#edb996;}.cls-11{fill:#b2e5fb;}.cls-12{fill:#db5669;}.cls-13{fill:#6fabe6;}.cls-14{fill:#8bd1ea;}</style></defs><title>Compass With Box</title><g id="Compass_With_Box" data-name="Compass With Box"><path class="cls-1" d="M28,19.8,21,24,1,12c2.78-1.52.42-.22,8-4.38Z"/><path class="cls-2" d="M34,16.2l-6,3.6L9,7.62l6.28-3.46Z"/><path class="cls-1" d="M41,12c-4.22,2.54,5.31-3.21-7,4.2l-18.75-12L21,1Z"/><path class="cls-3" d="M28,19.8l-5,3L10.7,15.42a3.82,3.82,0,0,1,.12-6.62Z"/><path class="cls-4" d="M34,16.2l-6,3.6L10.82,8.8c5.53-3,1-.59,6.28-3.45Z"/><path class="cls-3" d="M41,12l-7,4.2L17.1,5.35,23,2.1C41.7,12.38,38.62,10.68,41,12Z"/><path class="cls-1" d="M41,12V29.13a4,4,0,0,0-4.83,5A7,7,0,0,0,33,39.8L21,47V24Z"/><path class="cls-1" d="M41,31.28v1.8a6.89,6.89,0,0,0-3,.21A2,2,0,0,1,41,31.28Z"/><path class="cls-3" d="M41,12V29.13a4,4,0,0,0-4.83,5,6.29,6.29,0,0,0-2,2c-1.31,2,.34.75-2.91,2.69-2.06,1.25-2.5,1.58-3.26,1.77a4,4,0,0,1-5-3.87V22.8Z"/><path class="cls-3" d="M41,31.28c0,3.09.5,1-3,2A2,2,0,0,1,41,31.28Z"/><path class="cls-2" d="M34,16.2V23l-6,3V19.8Z"/><path class="cls-4" d="M34,16.2V22l-1.35.67A3.21,3.21,0,0,1,28,19.8Z"/><path class="cls-2" d="M34,33v3.41a6.94,6.94,0,0,0-.79,1.92c-.58,2.13,1.25.6-5.21,4.47V37Z"/><polygon class="cls-1" points="28 37.33 28 42.8 27 43.4 27 38 28 37.33"/><path class="cls-4" d="M34,33c0,4.44.15,2.82-.46,4.33-.2.31.43-.09-2.28,1.51A2.15,2.15,0,0,1,28,37Z"/><polygon class="cls-5" points="21 24 21 47 1 35 1 12 21 24"/><polygon class="cls-6" points="11 30 11 36 17 40 17 34 11 30"/><path class="cls-1" d="M10.82,8.8a3.5,3.5,0,0,0-.73.53C11,9.94,8.37,8.2,27,20.4V26l1-.5V19.8Z"/><path class="cls-7" d="M43.83,34.15A6.44,6.44,0,0,0,42,33.29a2,2,0,0,0-1.29-2.16A2,2,0,0,0,38,33.29a6.44,6.44,0,0,0-1.86.86,4,4,0,1,1,7.66,0Z"/><path class="cls-1" d="M41,32.35c0,1.33.14.33-2,.73-.51.1-.18,0-1-.07a2,2,0,0,1,1.16-1.82A3.86,3.86,0,0,1,41,32.35Z"/><path class="cls-1" d="M36.17,34.15a6.29,6.29,0,0,0-2,2,4,4,0,0,1,2.19-4.79A3.89,3.89,0,0,0,36.17,34.15Z"/><path class="cls-8" d="M38.19,32.18A2,2,0,0,0,37,33.66a6.93,6.93,0,0,1,1-.37A1.78,1.78,0,0,1,38.19,32.18Z"/><path class="cls-8" d="M36.72,30.72a4,4,0,0,1,6.25,3,6.53,6.53,0,0,1,.86.48A4,4,0,0,0,36.72,30.72Z"/><path class="cls-9" d="M47,40a7,7,0,1,1-10.84-5.84h0A7,7,0,0,1,47,40Z"/><path class="cls-10" d="M33.54,37.33A7,7,0,0,0,33,39.8L31.09,41A6.78,6.78,0,0,1,32,38.39C33.89,37.27,33.33,37.65,33.54,37.33Z"/><path class="cls-2" d="M34.15,36.17C33,38,34.15,37.11,32,38.39A6.9,6.9,0,0,1,34.15,36.17Z"/><path class="cls-11" d="M45.84,43.84C40.82,47.23,34,42.68,35.08,37a6.5,6.5,0,0,1,1.09-2.85C42.51,29.85,50,37.71,45.84,43.84Z"/><polygon class="cls-12" points="42 38 41 41 39 39 42 38"/><polygon class="cls-13" points="41 41 38 42 39 39 41 41"/><path class="cls-14" d="M41,33.08V34a1,1,0,0,1-2,0v-.92A6.1,6.1,0,0,1,41,33.08Z"/><path class="cls-14" d="M46.92,41H46a1,1,0,0,1,0-2h.92A6.1,6.1,0,0,1,46.92,41Z"/><path class="cls-14" d="M41,46v.92a6.1,6.1,0,0,1-2,0V46A1,1,0,0,1,41,46Z"/><path class="cls-14" d="M34,41h-.92a6.1,6.1,0,0,1,0-2H34A1,1,0,0,1,34,41Z"/></g></svg>