<svg xmlns="http://www.w3.org/2000/svg" viewBox="0 0 48 48"><defs><style>.cls-1{fill:#7c7d7d;}.cls-2{fill:#919191;}.cls-3{fill:#df8761;}.cls-4{fill:#f29b75;}.cls-5{fill:#c6c3d8;}.cls-6{fill:#dad7e5;}.cls-7{fill:#a87e6b;}.cls-8{fill:#be927c;}.cls-9{fill:#f6ccaf;}.cls-10{fill:#ffdec7;}</style></defs><title>Doorstep</title><g id="Doorstep"><path class="cls-1" d="M47,1V47H29V33H24a27.35,27.35,0,0,1-3-5.61V19H17V1Z"/><path class="cls-2" d="M47,1V45a28,28,0,0,1-18-6.55V33H24a27.68,27.68,0,0,1-5-14C19,17.63,19,17.59,19,1Z"/><polygon class="cls-3" points="43 5 43 47 29 47 29 33 21 33 21 5 43 5"/><path class="cls-4" d="M37.07,26.5A2,2,0,0,0,40.72,28H43V45a19.89,19.89,0,0,1-14-5.73V33H24.67C22.45,27.91,23,25.83,23,5H43V27H40.72A2,2,0,0,1,37.07,26.5Z"/><path class="cls-5" d="M44,25H40.72a2,2,0,1,0,0,2H44A1,1,0,0,0,44,25Z"/><path class="cls-3" d="M43,27v1H40.72a2,2,0,0,1-3.65-1.5,2,2,0,0,0,3.65.5Z"/><path class="cls-1" d="M44,28H43V27c.89,0,1.45.14,1.85-.5A1,1,0,0,1,44,28Z"/><path class="cls-6" d="M40.72,25a2,2,0,0,0-3.65.5,2,2,0,0,0,3.65.5c3.39,0,3.73.17,4.13-.5C44.45,24.83,44.13,25,40.72,25Z"/><rect class="cls-7" x="1" y="33" width="14" height="14"/><path class="cls-8" d="M15,33V45H9a6,6,0,0,1-6-6V33Z"/><rect class="cls-7" x="15" y="33" width="14" height="14"/><path class="cls-8" d="M29,33V45H23a6,6,0,0,1-6-6V33Z"/><rect class="cls-7" x="7" y="19" width="14" height="14"/><path class="cls-8" d="M21,19V31H15a6,6,0,0,1-6-6V19Z"/><rect class="cls-9" x="6" y="33" width="4" height="4"/><path class="cls-10" d="M10,33v3a3,3,0,0,1-3-3Z"/><rect class="cls-9" x="20" y="33" width="4" height="4"/><path class="cls-10" d="M24,33v3a3,3,0,0,1-3-3Z"/><rect class="cls-9" x="12" y="19" width="4" height="4"/><path class="cls-10" d="M16,19v3a3,3,0,0,1-3-3Z"/><path class="cls-5" d="M7,44H5a1,1,0,0,1,0-2H7A1,1,0,0,1,7,44Z"/><path class="cls-5" d="M21,44H19a1,1,0,0,1,0-2h2A1,1,0,0,1,21,44Z"/><path class="cls-5" d="M13,30H11a1,1,0,0,1,0-2h2A1,1,0,0,1,13,30Z"/></g></svg>