<svg xmlns="http://www.w3.org/2000/svg" viewBox="0 0 48 48"><defs><style>.cls-1{fill:#374f68;}.cls-2{fill:#425b72;}.cls-3{fill:#a87e6b;}.cls-4{fill:#f6ccaf;}.cls-5{fill:#be927c;}.cls-6{fill:#ffdec7;}.cls-7{fill:#a07765;}.cls-8{fill:#c6c3d8;}.cls-9{fill:#9fdbf3;}.cls-10{fill:#b2e5fb;}.cls-11{fill:#edb996;}</style></defs><title>Inspection</title><g id="Inspection"><path class="cls-1" d="M45.29,44.71,40.53,40A1,1,0,0,1,42,38.53c5.21,5.21,4.85,4.83,4.92,5A1,1,0,0,1,45.29,44.71Z"/><path class="cls-2" d="M46.87,43.5A1,1,0,0,1,46,44c-.58,0-.42,0-5.47-5-.19-.19-.21-.21,0-.42a1,1,0,0,1,1.42,0C47.16,43.74,46.8,43.36,46.87,43.5Z"/><path class="cls-3" d="M29,19.8,22,24,2,12c2.78-1.52.42-.22,8-4.38Z"/><path class="cls-4" d="M35,16.2l-6,3.6L10,7.62l6.28-3.46Z"/><path class="cls-3" d="M42,12c-4.22,2.54,5.31-3.21-7,4.2l-18.75-12L22,1Z"/><path class="cls-5" d="M29,19.8l-5,3L11.7,15.42a3.82,3.82,0,0,1,.12-6.62Z"/><path class="cls-6" d="M35,16.2l-6,3.6L11.82,8.8c5.53-3,1-.59,6.28-3.45Z"/><path class="cls-5" d="M42,12l-7,4.2L18.1,5.35,24,2.1C42.7,12.38,39.62,10.68,42,12Z"/><path class="cls-3" d="M42,12V31.69A6,6,0,1,0,33.68,40L22,47V24Z"/><path class="cls-5" d="M42,12V31.69a6,6,0,1,0-9.65,7.1A18.54,18.54,0,0,1,29,40.61a4,4,0,0,1-5-3.87V22.8Z"/><path class="cls-4" d="M35,16.2V23l-6,3V19.8Z"/><path class="cls-6" d="M35,16.2V22l-1.35.67A3.21,3.21,0,0,1,29,19.8Z"/><path class="cls-4" d="M33.68,40,29,42.8V37l2-1.36A5.91,5.91,0,0,0,33.68,40Z"/><polygon class="cls-3" points="29 37.33 29 42.8 28 43.4 28 38 29 37.33"/><path class="cls-6" d="M32.35,38.79A2.15,2.15,0,0,1,29,37l2-1.36A5.89,5.89,0,0,0,32.35,38.79Z"/><polygon class="cls-7" points="22 24 22 47 2 35 2 12 22 24"/><polygon class="cls-8" points="12 30 12 36 18 40 18 34 12 30"/><path class="cls-3" d="M11.82,8.8a3.5,3.5,0,0,0-.73.53C12,9.94,9.37,8.2,28,20.4V26l1-.5V19.8Z"/><circle class="cls-9" cx="37" cy="35" r="6"/><path class="cls-10" d="M33.88,29.88a6,6,0,0,0,8.24,8.24A6,6,0,0,0,33.88,29.88Z"/><path class="cls-1" d="M37,28a7,7,0,1,0,5.85,10.85A7,7,0,0,0,37,28Zm0,12a5,5,0,1,1,5-5A5,5,0,0,1,37,40Z"/><path class="cls-1" d="M37,28a7,7,0,1,0,5.85,10.85A7,7,0,0,0,37,28Zm0,12a5,5,0,1,1,5-5A5,5,0,0,1,37,40Z"/><path class="cls-2" d="M44,35a7,7,0,0,1-1.15,3.85,7,7,0,0,1-4.91,1.06,5,5,0,1,0-5.85-5.85,6.91,6.91,0,0,1,1.06-4.91A7,7,0,0,1,44,35Z"/><path class="cls-3" d="M30,35c0,1.68.55,1-1,2v3.6a7,7,0,0,1,2.15-9.45A7.06,7.06,0,0,0,30,35Z"/><path class="cls-11" d="M32.75,40.55,30.2,42.08A6.18,6.18,0,0,1,29,40.6V37a2.15,2.15,0,0,0,2.36,2.14A6.64,6.64,0,0,0,32.75,40.55Z"/><path class="cls-4" d="M31.36,39.14A2.15,2.15,0,0,1,29,37l1.12-.75A6.82,6.82,0,0,0,31.36,39.14Z"/></g></svg>