<svg xmlns="http://www.w3.org/2000/svg" viewBox="0 0 48 48"><defs><style>.cls-1{fill:#dad7e5;}.cls-2{fill:#edebf2;}.cls-3{fill:#6fabe6;}.cls-4{fill:#82bcf4;}.cls-5{fill:#b5e08c;}.cls-6{fill:#ffde76;}.cls-7{fill:#f26674;}.cls-8{fill:#db5669;}.cls-9{fill:#a87e6b;}.cls-10{fill:#be927c;}.cls-11{fill:#f6ccaf;}.cls-12{fill:#84b749;}</style></defs><title>Tracking Delivery</title><g id="Tracking_Delivery" data-name="Tracking Delivery"><rect class="cls-1" x="1" y="9" width="46" height="38"/><path class="cls-2" d="M47,9V45H39A36,36,0,0,1,3,9Z"/><rect class="cls-3" x="1" y="1" width="46" height="8"/><path class="cls-4" d="M47,1V7H9A6,6,0,0,1,3,1Z"/><path class="cls-5" d="M6,5A1,1,0,0,0,4,5,1,1,0,0,0,6,5Z"/><path class="cls-6" d="M10,5A1,1,0,0,0,8,5,1,1,0,0,0,10,5Z"/><path class="cls-7" d="M14,5a1,1,0,0,0-2,0A1,1,0,0,0,14,5Z"/><path class="cls-8" d="M11,16c0,1.36-2.09,4-3,5,0,0-3-3.34-3-5a3,3,0,0,1,1.44-2.56A3,3,0,0,1,11,16Z"/><path class="cls-7" d="M11,16c0,1.05-1.21,2.78-2.09,3.9C8.42,19.33,6,16.49,6,15a3,3,0,0,1,.44-1.56A3,3,0,0,1,11,16Z"/><rect class="cls-9" x="34" y="35" width="8" height="8"/><path class="cls-10" d="M42,35v7H39a4,4,0,0,1-4-4V35Z"/><path class="cls-11" d="M39,35v2a1,1,0,0,1-2,0V35Z"/><path class="cls-12" d="M37,16c-21.94,0-19.75.16-19.29-.29a1,1,0,0,0-1.42-1.42c-2,2-2.24,2.12-2.28,2.65a1,1,0,0,0,.28.77C16.47,19.89,16.46,20,17,20a1,1,0,0,0,.71-1.71C17.25,17.84,15.05,18,37,18a4,4,0,0,1,0,8H14a7,7,0,0,0,0,14H30a1,1,0,0,0,0-2H14a5,5,0,0,1,0-10H37a6,6,0,0,0,0-12Z"/></g></svg>