<svg xmlns="http://www.w3.org/2000/svg" viewBox="0 0 48 48"><defs><style>.cls-1{fill:#dad7e5;}.cls-2{fill:#edebf2;}.cls-3{fill:#747575;}.cls-4{fill:#7c7d7d;}.cls-5{fill:#a87e6b;}.cls-6{fill:#be927c;}.cls-7{fill:#c6c3d8;}.cls-8{fill:#9fdbf3;}.cls-9{fill:#b2e5fb;}.cls-10{fill:#374f68;}.cls-11{fill:#425b72;}.cls-12{fill:#f6ccaf;}.cls-13{fill:#ffdec7;}.cls-14{fill:#919191;}</style></defs><title>Weight Scale</title><g id="Weight_Scale" data-name="Weight Scale"><rect class="cls-1" x="5" y="39" width="38" height="4"/><path class="cls-2" d="M43,39v2H9a2,2,0,0,1-2-2Z"/><rect class="cls-3" x="9" y="43" width="4" height="4"/><path class="cls-4" d="M12,47H9V44A3,3,0,0,1,12,47Z"/><rect class="cls-3" x="35" y="43" width="4" height="4"/><path class="cls-4" d="M38,47H35V44A3,3,0,0,1,38,47Z"/><rect class="cls-5" x="10" y="21" width="14" height="14"/><path class="cls-6" d="M24,21V32H20a8,8,0,0,1-8-8V21Z"/><rect class="cls-5" x="24" y="21" width="14" height="14"/><path class="cls-6" d="M38,21V33H34a8,8,0,0,1-8-8V21Z"/><rect class="cls-7" x="8" y="35" width="32" height="4"/><rect class="cls-1" x="8" y="38" width="31" height="1"/><path class="cls-8" d="M31,8A7,7,0,1,1,20.15,2.15,7,7,0,0,1,31,8Z"/><path class="cls-9" d="M31,8a6.92,6.92,0,0,1-1.15,3.84C23.57,16.1,16,8.42,20.15,2.15A7,7,0,0,1,31,8Z"/><path class="cls-3" d="M26,14.71V21H22V14.71A7,7,0,0,0,26,14.71Z"/><path class="cls-4" d="M25,17.89V21H22V15.93A6.63,6.63,0,0,0,23,16,1.94,1.94,0,0,1,25,17.89Z"/><path class="cls-10" d="M24,10a2,2,0,0,1-1-3.72V4a1,1,0,0,1,2,0V6.28A2,2,0,0,1,24,10Z"/><path class="cls-11" d="M24.5,9.93A2,2,0,0,1,24,6.28c0-2.42-.13-2.78.5-3.14.67.38.5.92.5,3.14A2,2,0,0,1,24.5,9.93Z"/><rect class="cls-12" x="15" y="21" width="4" height="4"/><rect class="cls-12" x="29" y="21" width="4" height="4"/><path class="cls-13" d="M33,21v3a3,3,0,0,1-3-3Z"/><path class="cls-13" d="M19,21v3a3,3,0,0,1-3-3Z"/><path class="cls-7" d="M18,32H16a1,1,0,0,1,0-2h2A1,1,0,0,1,18,32Z"/><path class="cls-7" d="M32,32H30a1,1,0,0,1,0-2h2A1,1,0,0,1,32,32Z"/><path class="cls-4" d="M42,37H6a1,1,0,0,1,0-2H42A1,1,0,0,1,42,37Z"/><path class="cls-14" d="M43,36H7a1,1,0,0,1-1-1H42A1,1,0,0,1,43,36Z"/></g></svg>