<svg xmlns="http://www.w3.org/2000/svg" viewBox="0 0 48 48"><defs><style>.cls-1{fill:#7c7d7d;}.cls-2{fill:#919191;}.cls-3{fill:#a87e6b;}.cls-4{fill:#be927c;}.cls-5{fill:#f6ccaf;}.cls-6{fill:#ffdec7;}.cls-7{fill:#c6c3d8;}</style></defs><title>Stack of Boxes</title><g id="Stack_of_Boxes" data-name="Stack of Boxes"><rect class="cls-1" x="1" y="40" width="46" height="4"/><path class="cls-2" d="M47,40v2H5a2,2,0,0,1-2-2Z"/><rect class="cls-3" x="6" y="28" width="12" height="12"/><path class="cls-4" d="M18,28V38H14a6,6,0,0,1-6-6V28Z"/><rect class="cls-3" x="12" y="16" width="12" height="12"/><path class="cls-4" d="M24,16V26H20a6,6,0,0,1-6-6V16Z"/><rect class="cls-3" x="24" y="16" width="12" height="12"/><path class="cls-4" d="M36,16V26H32a6,6,0,0,1-6-6V16Z"/><rect class="cls-3" x="18" y="4" width="12" height="12"/><path class="cls-4" d="M30,4V14H26a6,6,0,0,1-6-6V4Z"/><rect class="cls-3" x="18" y="28" width="12" height="12"/><path class="cls-4" d="M30,28V38H26a6,6,0,0,1-6-6V28Z"/><rect class="cls-3" x="30" y="28" width="12" height="12"/><path class="cls-4" d="M42,28V38H38a6,6,0,0,1-6-6V28Z"/><rect class="cls-5" x="10" y="28" width="4" height="4"/><rect class="cls-5" x="22" y="28" width="4" height="4"/><rect class="cls-5" x="34" y="28" width="4" height="4"/><rect class="cls-5" x="16" y="16" width="4" height="4"/><path class="cls-6" d="M20,16v3a3,3,0,0,1-3-3Z"/><rect class="cls-5" x="28" y="16" width="4" height="4"/><rect class="cls-5" x="22" y="4" width="4" height="4"/><path class="cls-6" d="M26,4V7a3,3,0,0,1-3-3Z"/><path class="cls-6" d="M32,16v3a3,3,0,0,1-3-3Z"/><path class="cls-6" d="M14,28v3a3,3,0,0,1-3-3Z"/><path class="cls-6" d="M26,28v3a3,3,0,0,1-3-3Z"/><path class="cls-6" d="M38,28v3a3,3,0,0,1-3-3Z"/><path class="cls-7" d="M25,13H23a1,1,0,0,1,0-2h2A1,1,0,0,1,25,13Z"/><path class="cls-7" d="M19,25H17a1,1,0,0,1,0-2h2A1,1,0,0,1,19,25Z"/><path class="cls-7" d="M31,25H29a1,1,0,0,1,0-2h2A1,1,0,0,1,31,25Z"/><path class="cls-7" d="M13,37H11a1,1,0,0,1,0-2h2A1,1,0,0,1,13,37Z"/><path class="cls-7" d="M25,37H23a1,1,0,0,1,0-2h2A1,1,0,0,1,25,37Z"/><path class="cls-7" d="M37,37H35a1,1,0,0,1,0-2h2A1,1,0,0,1,37,37Z"/></g></svg>