<svg xmlns="http://www.w3.org/2000/svg" viewBox="0 0 48 48"><defs><style>.cls-1{fill:#7c7d7d;}.cls-2{fill:#374f68;}.cls-3{fill:#425b72;}.cls-4{fill:#db5669;}.cls-5{fill:#f26674;}.cls-6{fill:#c4455e;}</style></defs><title>Crane</title><g id="Crane"><path class="cls-1" d="M35,18V14.18a1,1,0,0,1,2,0V18A1,1,0,0,1,35,18Z"/><path class="cls-2" d="M2,8a1,1,0,0,1-.53-1.85l8-5a1,1,0,0,1,1.06,1.7C1.84,8.28,2.41,8,2,8Z"/><path class="cls-2" d="M40,9c-.21,0,1.31.39-22.26-6A1,1,0,0,1,18.26,1l22,6A1,1,0,0,1,40,9Z"/><path class="cls-2" d="M37,26.8a1,1,0,0,1-1,1h0c-.1.1,1-.68-8.45,6.08a1,1,0,0,1-1.1-1.66c9.62-6.41,9.36-6.52,10.1-6C36.89,26.39,37,26.38,37,26.8Z"/><path class="cls-2" d="M44.45,33.83l-6.56-4.72a2.88,2.88,0,0,0,1-1.4l6.7,4.46A1,1,0,0,1,44.45,33.83Z"/><path class="cls-1" d="M18,45H10a1,1,0,0,1-1-1V2a1,1,0,0,1,1-1h8a1,1,0,0,1,1,1V44A1,1,0,0,1,18,45Zm-7-2h6V3H11Z"/><path class="cls-1" d="M18,16A1,1,0,0,1,18,14L39,13V9L18,8a1,1,0,0,1,.1-2l22,1a1,1,0,0,1,1,1v6a1,1,0,0,1-1,1C10.9,16.32,19.66,16,18,16Z"/><path class="cls-1" d="M10,16H2a1,1,0,0,1-1-1V7A1,1,0,0,1,2,6h8a1,1,0,0,1,0,2H3v6h7A1,1,0,0,1,10,16Z"/><path class="cls-2" d="M21,45v2H7V45a2,2,0,0,1,2-2H19A2,2,0,0,1,21,45Z"/><path class="cls-3" d="M21,45v1H11a2,2,0,0,1-1.73-3H19A2,2,0,0,1,21,45Z"/><path class="cls-1" d="M10,43a1,1,0,0,1-.71-1.71L16.59,34l-7.3-7.29a1,1,0,0,1,0-1.42L16.59,18l-7.3-7.29a1,1,0,0,1,0-1.42l8-8a1,1,0,0,1,1.42,1.42L11.41,10l7.3,7.29a1,1,0,0,1,0,1.42L11.41,26l7.3,7.29a1,1,0,0,1,0,1.42C10.07,43.34,10.59,43,10,43Z"/><path class="cls-1" d="M2,16a1,1,0,0,1-.71-1.71l8-8a1,1,0,0,1,1.42,1.42C2.07,16.34,2.59,16,2,16Z"/><path class="cls-1" d="M18,16a1,1,0,0,1-.71-1.71l7.5-7.5a1,1,0,0,1,1.42,0L32,12.59l5.29-5.3a1,1,0,0,1,1.42,1.42l-6,6a1,1,0,0,1-1.42,0L25.5,8.91C18,16.41,18.58,16,18,16Z"/><path class="cls-1" d="M35,26c0,.63.31.26-1.85,1.71A4.67,4.67,0,0,1,33,26,1,1,0,0,1,35,26Z"/><path class="cls-1" d="M39,26.8a3,3,0,0,1-4.87,2.3C36,27.74,35.91,27.76,36,27.76a1,1,0,0,0,.91-1.35c-.11-.22,0-.11-1.63-1.7-.41-.43-.29-.82-.29-2.71a1,1,0,0,1,2,0v1.59C38.06,24.65,39,25.33,39,26.8Z"/><rect class="cls-4" x="26" y="33" width="20" height="12"/><path class="cls-5" d="M46,33V43H38A10,10,0,0,1,28,33Z"/><path class="cls-6" d="M29,41V37a1,1,0,0,1,2,0v4A1,1,0,0,1,29,41Z"/><path class="cls-6" d="M33,41V37a1,1,0,0,1,2,0v4A1,1,0,0,1,33,41Z"/><path class="cls-6" d="M37,41V37a1,1,0,0,1,2,0v4A1,1,0,0,1,37,41Z"/><path class="cls-6" d="M41,41V37a1,1,0,0,1,2,0v4A1,1,0,0,1,41,41Z"/><rect class="cls-2" x="34" y="18" width="4" height="4"/><path class="cls-3" d="M38,18v3a3,3,0,0,1-3-3Z"/></g></svg>