<svg xmlns="http://www.w3.org/2000/svg" viewBox="0 0 48 48"><defs><style>.cls-1{fill:#a87e6b;}.cls-2{fill:#f6ccaf;}.cls-3{fill:#be927c;}.cls-4{fill:#ffdec7;}.cls-5{fill:#a07765;}.cls-6{fill:#c6c3d8;}.cls-7{fill:#9dcc6b;}.cls-8{fill:#edb996;}.cls-9{fill:#b5e08c;}.cls-10{fill:#edebf2;}</style></defs><title>Received Package</title><g id="Received_Package" data-name="Received Package"><path class="cls-1" d="M28,19.8,21,24,1,12c2.78-1.52.42-.22,8-4.38Z"/><path class="cls-2" d="M34,16.2l-6,3.6L9,7.62l6.28-3.46Z"/><path class="cls-1" d="M41,12c-4.22,2.54,5.31-3.21-7,4.2l-18.75-12L21,1Z"/><path class="cls-3" d="M28,19.8l-5,3L10.7,15.42a3.82,3.82,0,0,1,.12-6.62Z"/><path class="cls-4" d="M34,16.2l-6,3.6L10.82,8.8c5.53-3,1-.59,6.28-3.45Z"/><path class="cls-3" d="M41,12l-7,4.2L17.1,5.35,23,2.1C41.7,12.38,38.62,10.68,41,12Z"/><path class="cls-1" d="M41,12V29.25a8,8,0,0,0-9.19,11.26L21,47V24Z"/><path class="cls-3" d="M41,12V29.25a8,8,0,0,0-9.78,9.61A17.33,17.33,0,0,1,28,40.61a4,4,0,0,1-5-3.87V22.8Z"/><path class="cls-2" d="M34,16.2V23l-6,3V19.8Z"/><path class="cls-4" d="M34,16.2V22l-1.35.67A3.21,3.21,0,0,1,28,19.8Z"/><path class="cls-2" d="M31.81,40.51,28,42.8V37c3.67-2.43,3.3-2.29,3.3-2.18A8.1,8.1,0,0,0,31.81,40.51Z"/><polygon class="cls-1" points="28 37.33 28 42.8 27 43.4 27 38 28 37.33"/><path class="cls-4" d="M31.22,38.86A2.15,2.15,0,0,1,28,37l1.21-.8h0C33.05,33.63,30.23,34.63,31.22,38.86Z"/><polygon class="cls-5" points="21 24 21 47 1 35 1 12 21 24"/><polygon class="cls-6" points="11 30 11 36 17 40 17 34 11 30"/><path class="cls-1" d="M10.82,8.8a3.5,3.5,0,0,0-.73.53C11,9.94,8.37,8.2,27,20.4V26l1-.5V19.8Z"/><path class="cls-7" d="M47,37a8,8,0,1,1-12.56-6.56A8,8,0,0,1,47,37Z"/><path class="cls-8" d="M31.81,40.51l-1.92,1.15a7.7,7.7,0,0,1-.84-2.82,2.18,2.18,0,0,0,2.17,0A8.56,8.56,0,0,0,31.81,40.51Z"/><path class="cls-1" d="M34.49,30.41a8,8,0,0,0-3.18,4.38l-2.1,1.4A8,8,0,0,1,34.49,30.41Z"/><path class="cls-2" d="M31.22,38.86a2.11,2.11,0,0,1-2.17,0,7.5,7.5,0,0,1,.16-2.65C33.05,33.63,30.23,34.63,31.22,38.86Z"/><path class="cls-9" d="M47,37a7.87,7.87,0,0,1-1.44,4.56A7.87,7.87,0,0,1,41,43a8,8,0,0,1-6.56-12.56A8,8,0,0,1,47,37Z"/><path class="cls-10" d="M35.29,37.71a1,1,0,0,1,1.42-1.42L38,37.59l3.29-3.3a1,1,0,0,1,1.42,1.42C37.26,41.15,38.54,41,35.29,37.71Z"/></g></svg>