<svg xmlns="http://www.w3.org/2000/svg" viewBox="0 0 48 48"><defs><style>.cls-1{fill:#747575;}.cls-2{fill:#db5669;}.cls-3{fill:#f26674;}.cls-4{fill:#374f68;}.cls-5{fill:#425b72;}.cls-6{fill:#dad7e5;}.cls-7{fill:#edebf2;}.cls-8{fill:#7c7d7d;}.cls-9{fill:#919191;}.cls-10{fill:#6fabe6;}.cls-11{fill:#82bcf4;}.cls-12{fill:#9dcc6b;}.cls-13{fill:#b5e08c;}.cls-14{fill:#fc6;}.cls-15{fill:#ffde76;}</style></defs><title>Shipping</title><g id="Shipping"><path class="cls-1" d="M39,21v1H37V21A1,1,0,0,1,39,21Z"/><path class="cls-1" d="M43,21v1H41V21A1,1,0,0,1,43,21Z"/><path class="cls-1" d="M47,21v1H45V21A1,1,0,0,1,47,21Z"/><path class="cls-2" d="M42.57,36c-.51,3.54-.38,2.67-.57,4H3l-.57-4Z"/><path class="cls-3" d="M42.57,36l-.43,3H9a3.5,3.5,0,0,1-3.46-3Z"/><path class="cls-4" d="M47,22c0,2.91.25,5.69-2.25,8.81a10.27,10.27,0,0,0-2.15,5c-.05.36,3.11.23-40.17.23L1,26H31l4-4Z"/><path class="cls-5" d="M47,22c0,2.91.25,5.69-2.25,8.81A10.1,10.1,0,0,0,43,34H13.12a9.68,9.68,0,0,1-9.53-8H31l4-4Z"/><rect class="cls-6" x="8" y="14" width="8" height="12"/><path class="cls-7" d="M16,14c0,10.61-.1,10,0,10a6,6,0,0,1-6-6V14Z"/><rect class="cls-8" x="10" y="8" width="4" height="6"/><path class="cls-9" d="M14,11v2H13a2,2,0,0,1-2-2Z"/><path class="cls-1" d="M13,18a1,1,0,0,0-2,0A1,1,0,0,0,13,18Z"/><path class="cls-1" d="M13,22a1,1,0,0,0-2,0A1,1,0,0,0,13,22Z"/><path class="cls-6" d="M14,31a1,1,0,0,0-2,0A1,1,0,0,0,14,31Z"/><path class="cls-6" d="M10,31a1,1,0,0,0-2,0A1,1,0,0,0,10,31Z"/><rect class="cls-10" x="16" y="22" width="6" height="4"/><path class="cls-11" d="M22,22v3H19a2,2,0,0,1-2-2V22Z"/><rect class="cls-4" x="16" y="18" width="6" height="4"/><path class="cls-5" d="M22,18v3H19a2,2,0,0,1-2-2V18Z"/><rect class="cls-12" x="16" y="14" width="6" height="4"/><path class="cls-13" d="M22,14v3H19a2,2,0,0,1-2-2V14Z"/><rect class="cls-14" x="22" y="18" width="6" height="4"/><path class="cls-15" d="M28,18v3H25a2,2,0,0,1-2-2V18Z"/><rect class="cls-2" x="2" y="22" width="6" height="4"/><path class="cls-3" d="M7,22v3H6a3,3,0,0,1-3-3Z"/><rect class="cls-10" x="2" y="18" width="6" height="4"/><path class="cls-11" d="M7,18v3H5a2,2,0,0,1-2-2V18Z"/><rect class="cls-12" x="22" y="22" width="6" height="4"/><path class="cls-13" d="M28,22v3H25a2,2,0,0,1-2-2V22Z"/><path class="cls-8" d="M14,10H10a1,1,0,0,1,0-2h4A1,1,0,0,1,14,10Z"/><path class="cls-9" d="M15,9H11a1,1,0,0,1-1-1h4A1,1,0,0,1,15,9Z"/></g></svg>