<svg xmlns="http://www.w3.org/2000/svg" viewBox="0 0 48 48"><defs><style>.cls-1{fill:#dad7e5;}.cls-2{fill:#fc6;}.cls-3{fill:#ffde76;}.cls-4{fill:#db5669;}.cls-5{fill:#9fdbf3;}.cls-6{fill:#b2e5fb;}.cls-7{fill:#374f68;}.cls-8{fill:#425b72;}.cls-9{fill:#a87e6b;}.cls-10{fill:#be927c;}.cls-11{fill:#f6ccaf;}.cls-12{fill:#f26674;}.cls-13{fill:#edebf2;}</style></defs><title>Truck Delivery</title><g id="Truck_Delivery" data-name="Truck Delivery"><path class="cls-1" d="M7.13,34H1V30H8.36A4,4,0,0,0,7.13,34Z"/><path class="cls-1" d="M47,30v4H41.87a4,4,0,0,0-1.23-4Z"/><path class="cls-1" d="M34.13,34H14.87a4,4,0,0,0-1.23-4H35.36A4,4,0,0,0,34.13,34Z"/><path class="cls-2" d="M32,12V30H13.64a4,4,0,0,0-5.28,0H2V12Z"/><path class="cls-3" d="M32,12V28H14A10,10,0,0,1,4,18V12Z"/><path class="cls-4" d="M47,22v8H40.64a4,4,0,0,0-5.28,0H32V14h4v6a2,2,0,0,0,2,2Z"/><path class="cls-5" d="M47,22H38a2,2,0,0,1-2-2V14h6Z"/><path class="cls-6" d="M46.38,21H44a7,7,0,0,1-7-7h5Z"/><path class="cls-7" d="M42,33c0,4.65-6.72,5.53-7.87,1A4,4,0,1,1,42,33Z"/><path class="cls-8" d="M41.27,35.3c-3.82,2.59-8-2.15-5.55-5.57A4,4,0,0,1,41.27,35.3Z"/><path class="cls-7" d="M15,33c0,4.65-6.72,5.53-7.87,1A4,4,0,1,1,15,33Z"/><path class="cls-8" d="M14.27,35.3c-3.82,2.59-8-2.15-5.55-5.57A4,4,0,0,1,14.27,35.3Z"/><path class="cls-1" d="M12,33a1,1,0,0,0-2,0A1,1,0,0,0,12,33Z"/><path class="cls-1" d="M39,33a1,1,0,0,0-2,0A1,1,0,0,0,39,33Z"/><rect class="cls-9" x="13" y="17" width="8" height="8"/><path class="cls-10" d="M21,17v7H20a6,6,0,0,1-6-6V17Z"/><path class="cls-11" d="M18,17v2a1,1,0,0,1-2,0V17Z"/><path class="cls-12" d="M47,22v6H40a6,6,0,0,1-6-6V14h2v6a2,2,0,0,0,2,2Z"/><path class="cls-3" d="M47,25v2H45a1,1,0,0,1,0-2Z"/><path class="cls-13" d="M47,30v3c-2.18,0-4.32.25-5.48-1.89A4,4,0,0,0,40.64,30Z"/><path class="cls-13" d="M35.36,30a4,4,0,0,0-.88,1.11A3.85,3.85,0,0,1,31.08,33H17.92a3.85,3.85,0,0,1-3.4-1.89A4,4,0,0,0,13.64,30Z"/><path class="cls-13" d="M8.36,30A4,4,0,0,0,7,33H4a3,3,0,0,1-3-3Z"/></g></svg>