<svg xmlns="http://www.w3.org/2000/svg" viewBox="0 0 48 48"><defs><style>.cls-1{fill:#dad7e5;}.cls-2{fill:#edebf2;}.cls-3{fill:#db5669;}.cls-4{fill:#f26674;}.cls-5{fill:#6fabe6;}.cls-6{fill:#82bcf4;}.cls-7{fill:#b5e08c;}.cls-8{fill:#ffde76;}.cls-9{fill:#9dcc6b;}.cls-10{fill:#425b72;}</style></defs><title>Online Shop</title><g id="Online_Shop" data-name="Online Shop"><rect class="cls-1" x="1" y="9" width="46" height="38"/><path class="cls-2" d="M47,9V45H39A36,36,0,0,1,3,9Z"/><path class="cls-3" d="M21,35H5L6,21H20C21,35,20.81,32.26,21,35Z"/><path class="cls-4" d="M20.86,33H17.74a10,10,0,0,1-10-10.71L7.86,21H20Z"/><path class="cls-3" d="M15,23V20a2,2,0,0,0-4,0v3a1,1,0,0,1-2,0V20a4,4,0,0,1,8,0v3A1,1,0,0,1,15,23Z"/><path class="cls-4" d="M10,20c0,3.16.15,3.46-.5,3.85A1,1,0,0,0,11,23V20a2,2,0,0,1,1.5-1.93A2,2,0,0,0,10,20Z"/><path class="cls-4" d="M12.5,16.05A4,4,0,0,1,16,20c0,3.16.15,3.46-.5,3.85A1,1,0,0,0,17,23V20A4,4,0,0,0,12.5,16.05Z"/><rect class="cls-5" x="1" y="1" width="46" height="8"/><path class="cls-6" d="M47,1V7H9A6,6,0,0,1,3,1Z"/><path class="cls-7" d="M6,5A1,1,0,0,0,4,5,1,1,0,0,0,6,5Z"/><path class="cls-8" d="M10,5A1,1,0,0,0,8,5,1,1,0,0,0,10,5Z"/><path class="cls-4" d="M14,5a1,1,0,0,0-2,0A1,1,0,0,0,14,5Z"/><path class="cls-9" d="M39.41,38.41c-.77.79-.74.59-9.41.59a2,2,0,0,1-1.41-3.41c.79-.79.71-.59,9.41-.59A2,2,0,0,1,39.41,38.41Z"/><path class="cls-7" d="M40,37c0,1.34.35,1-9,1a2,2,0,0,1-2-2c0-1.34-.35-1,9-1A2,2,0,0,1,40,37Z"/><path class="cls-10" d="M43,22H28a1,1,0,0,1,0-2H43A1,1,0,0,1,43,22Z"/><path class="cls-10" d="M40,26H28a1,1,0,0,1,0-2H40A1,1,0,0,1,40,26Z"/><path class="cls-10" d="M34,30H28a1,1,0,0,1,0-2h6A1,1,0,0,1,34,30Z"/></g></svg>