<svg xmlns="http://www.w3.org/2000/svg" viewBox="0 0 48 48"><defs><style>.cls-1{fill:#a07765;}.cls-2{fill:#a87e6b;}.cls-3{fill:#be927c;}.cls-4{fill:#ffdec7;}.cls-5{fill:#dad7e5;}.cls-6{fill:#f6ccaf;}</style></defs><title>Fast Delivery</title><g id="Fast_Delivery" data-name="Fast Delivery"><polygon class="cls-1" points="37 14 33 40 7 40 11 14 37 14"/><path class="cls-2" d="M37,14,33,40H16.23a6.2,6.2,0,0,1-6.13-7.15L13,14Z"/><polygon class="cls-3" points="47 8 43 34 33 40 37 14 47 8"/><polygon class="cls-3" points="47 8 37 14 27 14 37 8 47 8"/><polygon class="cls-4" points="37 8 27 14 21 14 31 8 37 8"/><polygon class="cls-3" points="31 8 21 14 11 14 21 8 31 8"/><path class="cls-5" d="M19,10H7A1,1,0,0,1,7,8H19A1,1,0,0,1,19,10Z"/><path class="cls-5" d="M7,14H5a1,1,0,0,1,0-2H7A1,1,0,0,1,7,14Z"/><path class="cls-5" d="M14,20H4a1,1,0,0,1,0-2H14A1,1,0,0,1,14,20Z"/><path class="cls-5" d="M5,24H3a1,1,0,0,1,0-2H5A1,1,0,0,1,5,24Z"/><path class="cls-5" d="M15,29H2a1,1,0,0,1,0-2H15A1,1,0,0,1,15,29Z"/><path class="cls-5" d="M10,36H4a1,1,0,0,1,0-2h6A1,1,0,0,1,10,36Z"/><path class="cls-5" d="M13,45H2a1,1,0,0,1,0-2H13A1,1,0,0,1,13,45Z"/><path class="cls-5" d="M28,5H24a1,1,0,0,1,0-2h4A1,1,0,0,1,28,5Z"/><path class="cls-5" d="M20,5H14a1,1,0,0,1,0-2h6A1,1,0,0,1,20,5Z"/><path class="cls-5" d="M19,45H17a1,1,0,0,1,0-2h2A1,1,0,0,1,19,45Z"/><polygon class="cls-6" points="21 14 20.23 19 26.23 19 27 14 21 14"/><path class="cls-1" d="M20.23,19c.73-4.72.57-3.69.77-5H20c-.9,5.82-.71,4.67-1,6h6.19l.15-1Z"/><path class="cls-4" d="M21,14a4.34,4.34,0,0,0,4.29,5h.94L27,14Z"/><path class="cls-6" d="M23.77,35c-.73,4.72-.57,3.69-.77,5H17l.77-5Z"/><polygon class="cls-1" points="16.77 35 16 40 17 40 17.77 35 16.77 35"/><path class="cls-4" d="M23.77,35c-.73,4.72-.57,3.69-.77,5h-.94a4.34,4.34,0,0,1-4.29-5Z"/></g></svg>