<svg xmlns="http://www.w3.org/2000/svg" viewBox="0 0 48 48"><defs><style>.cls-1{fill:#9fdbf3;}.cls-2{fill:#b2e5fb;}.cls-3{fill:#b5e08c;}.cls-4{fill:#a87e6b;}.cls-5{fill:#be927c;}.cls-6{fill:#a07765;}.cls-7{fill:#f6ccaf;}</style></defs><title>World Delivery</title><g id="World_Delivery" data-name="World Delivery"><path class="cls-1" d="M44.26,28.63,37,25,27,30V42l3.42,1.71A22,22,0,1,1,18,1.58V7.5A1.5,1.5,0,0,0,19.5,9h3A1.5,1.5,0,0,0,24,7.5,1.5,1.5,0,0,1,25.5,6h1A1.5,1.5,0,0,1,28,7.5v5A1.5,1.5,0,0,0,29.5,14h3.88c.92,0,.91-.29,6.15-5.53A22,22,0,0,1,44.26,28.63Z"/><path class="cls-2" d="M44.26,28.63,37,25,27,30V41C10,42-1.89,23,7,7.91A21.8,21.8,0,0,1,18,1.58V7.5A1.5,1.5,0,0,0,19.5,9h3A1.5,1.5,0,0,0,24,7.5,1.5,1.5,0,0,1,25.5,6h1A1.5,1.5,0,0,1,28,7.5v5A1.5,1.5,0,0,0,29.5,14h3.88c.92,0,.91-.29,6.15-5.53A22,22,0,0,1,44.26,28.63Z"/><path class="cls-3" d="M39.53,8.47C34,14,34.21,14,33.38,14H29.5A1.5,1.5,0,0,1,28,12.5v-5A1.5,1.5,0,0,0,26.5,6h-1A1.5,1.5,0,0,0,24,7.5,1.5,1.5,0,0,1,22.5,9h-3A1.5,1.5,0,0,1,18,7.5V1.58A22,22,0,0,1,39.53,8.47Z"/><path class="cls-3" d="M10,16H22a2,2,0,0,1,2,2v4a2,2,0,0,1-2,2H18a2,2,0,0,0-2,2v1a2,2,0,0,0,2,2h1a2,2,0,0,1,2,2v3a2,2,0,0,1-2,2c-6.41,0-6.8.2-7.59-.59C8.62,32.62,8,32.28,8,31.17V18A2,2,0,0,1,10,16Z"/><path class="cls-4" d="M47,30c-9.53,4.75-2.18,1.1-10,5L27,30c8.93-4.45,2.42-1.22,10-5Z"/><path class="cls-5" d="M47,30l-9,4.5-7.21-3.61a1,1,0,0,1,0-1.78L38,25.5Z"/><polygon class="cls-4" points="47 30 47 42 37 47 37 35 47 30"/><polygon class="cls-4" points="47 30 47 42 37 47 37 35 47 30"/><path class="cls-5" d="M47,30V40l-6.11,3A2,2,0,0,1,38,41.26V34.5Z"/><polygon class="cls-6" points="37 35 37 47 27 42 27 30 37 35"/><path class="cls-1" d="M30.42,43.71a21.47,21.47,0,0,1-2.52.74L25,43V31l2,1V42Z"/><path class="cls-4" d="M41,35c0-2.3,0-2-.09-2l-8.64-4.68-.9.45L40,33.5V35a1,1,0,0,0,1.5.85A1,1,0,0,1,41,35Z"/><path class="cls-7" d="M42.9,32.07c-.45-.57,1,.31-9.41-5.32l-2.18,1.1,9.6,5.2c.13.07.09-.22.09,2a1,1,0,0,0,2,0C43,32.16,43,32.37,42.9,32.07Z"/></g></svg>