<svg xmlns="http://www.w3.org/2000/svg" viewBox="0 0 48 48"><defs><style>.cls-1{fill:#747575;}.cls-2{fill:#7c7d7d;}.cls-3{fill:#db5669;}.cls-4{fill:#f26674;}.cls-5{fill:#dad7e5;}.cls-6{fill:#9fdbf3;}.cls-7{fill:#b2e5fb;}.cls-8{fill:#a87e6b;}.cls-9{fill:#be927c;}.cls-10{fill:#f6ccaf;}.cls-11{fill:#ffdec7;}.cls-12{fill:#c6c3d8;}.cls-13{fill:#edebf2;}</style></defs><title>Flight Delivery</title><g id="Flight_Delivery" data-name="Flight Delivery"><path class="cls-1" d="M13,25v4a1,1,0,0,1-2,0V25A1,1,0,0,1,13,25Z"/><path class="cls-2" d="M12,27v3a1,1,0,0,1-1-1V26A1,1,0,0,1,12,27Z"/><path class="cls-1" d="M37,25v4a1,1,0,0,1-2,0V25A1,1,0,0,1,37,25Z"/><path class="cls-2" d="M36,27v3a1,1,0,0,1-1-1V26A1,1,0,0,1,36,27Z"/><path class="cls-3" d="M11,13H1V3H7Z"/><path class="cls-4" d="M10.6,12A7.6,7.6,0,0,1,3,4.4V3H7Z"/><path class="cls-5" d="M45,25H26.5L33,19H21l-3,6H13A12,12,0,0,1,1,13H37v4a2,2,0,0,0,2,2c3.71,0,5.31-.33,6.83,1.17C47.64,22,47.3,25,45,25Z"/><path class="cls-6" d="M43,19H39a2,2,0,0,1-2-2V13A6,6,0,0,1,43,19Z"/><path class="cls-7" d="M42.91,18H40a2,2,0,0,1-2-2V13.09A6,6,0,0,1,42.91,18Z"/><path class="cls-3" d="M33,19c-7.92,7.31-10.22,9.45-13,12H15l6-12Z"/><path class="cls-4" d="M33,19,21.09,30a2.53,2.53,0,0,1-2.26-3.66L22.5,19Z"/><path class="cls-3" d="M26.5,13H18L15,7h5Z"/><path class="cls-4" d="M25.42,12h-.83A9,9,0,0,1,16.5,7H20Z"/><path class="cls-8" d="M37,29V45H11V29h5l-1,2h5l2.17-2Z"/><path class="cls-9" d="M37,29V43H23A10,10,0,0,1,13,33V29h3l-1,2h5l2.17-2Z"/><path class="cls-10" d="M27,29v5H21V30.08l1-.92C22.24,28.93,21.47,29,27,29Z"/><path class="cls-11" d="M27,29v4H25.84A3.84,3.84,0,0,1,22,29.16C22.24,28.93,21.47,29,27,29Z"/><path class="cls-12" d="M17,42H15a1,1,0,0,1,0-2h2A1,1,0,0,1,17,42Z"/><path class="cls-13" d="M28.67,23,33,19H21l-2,4H13A10,10,0,0,1,3,13H37v4a2,2,0,0,0,2,2c3.71,0,5.31-.33,6.83,1.17A4,4,0,0,1,47,23Z"/><polygon class="cls-12" points="19 23 18 25 16.5 25 17.5 23 19 23"/><polygon class="cls-5" points="20.5 20 19 23 17.5 23 19 20 20.5 20"/><path class="cls-8" d="M15,31c4.71,0,4.13,0,4,.08L18,32H13l1.5-3H16Z"/></g></svg>