<svg xmlns="http://www.w3.org/2000/svg" viewBox="0 0 48 48"><defs><style>.cls-1{fill:#db5669;}.cls-2{fill:#f26674;}.cls-3{fill:#edebf2;}.cls-4{fill:#dad7e5;}.cls-5{fill:#9dcc6b;}.cls-6{fill:#7c7d7d;}.cls-7{fill:#a87e6b;}.cls-8{fill:#be927c;}.cls-9{fill:#f6ccaf;}.cls-10{fill:#b5e08c;}.cls-11{fill:#919191;}</style></defs><title>Map Delivery</title><g id="Map_Delivery" data-name="Map Delivery"><path class="cls-1" d="M36,13c0,5.15-7.58,16.65-10.36,20.67a2,2,0,0,1-3.28,0C19.39,29.39,12,18.2,12,13a12,12,0,0,1,24,0Z"/><path class="cls-2" d="M36,13c0,4.94-7,15.73-9.77,19.82A2,2,0,0,1,24.36,32C21.39,27.68,14,16.49,14,11.29a12,12,0,0,1,3.24-8.2A12,12,0,0,1,36,13Z"/><circle class="cls-3" cx="24" cy="13" r="8"/><path class="cls-4" d="M24,5a8,8,0,0,0-6.56,3.44A7.87,7.87,0,0,1,22,7a8,8,0,0,1,6.56,12.56A8,8,0,0,0,24,5Z"/><path class="cls-5" d="M43.69,45a2,2,0,0,1-2,2c-38.76,0-35.77.14-36.51-.34C42.29,35.5,42.25,35.49,42.36,35.49,43.89,46.28,43.69,44.78,43.69,45Z"/><path class="cls-5" d="M41.18,27.21l-13.54,3.5A89.82,89.82,0,0,0,34.3,19h4a2,2,0,0,1,2,1.72Z"/><path class="cls-6" d="M9.2,22.6l-1-2.91A2,2,0,0,1,9.71,19Z"/><path class="cls-6" d="M10.7,45,5.18,46.66a2,2,0,0,1-.85-1.94l1.12-7.84,1.81-.69-.93,6.53a2,2,0,0,0,2,2.28Z"/><path class="cls-5" d="M9.2,22.6,7.26,36.19l-1.81.69C8.38,16.28,7.72,18.16,9.2,22.6Z"/><rect class="cls-7" x="21" y="10" width="6" height="6"/><path class="cls-8" d="M27,10v5H26a4,4,0,0,1-4-4V10Z"/><path class="cls-9" d="M25,10v1a1,1,0,0,1-2,0V10Z"/><path class="cls-10" d="M11.21,34.68l-4,1.51L9.2,22.6l3.19,9.58A2,2,0,0,1,11.21,34.68Z"/><path class="cls-11" d="M42.35,35.49C6.17,46.36,11.68,45,8.31,45a2,2,0,0,1-2-2.28l.93-6.53,4-1.51a2,2,0,0,0,1.18-2.5L9.2,22.6,9.71,19h4a101.62,101.62,0,0,0,8.66,14.67,2,2,0,0,0,2.09.82c1-.23,1.18-.73,3.18-3.78.1,0-.29.08,13.55-3.5Z"/><path class="cls-10" d="M41.18,27.21l-13.54,3.5A89.82,89.82,0,0,0,34.3,19h4a2,2,0,0,1,2,1.72Z"/><path class="cls-10" d="M43.69,45h-33l31.65-9.51C42.43,35.49,43.69,44.92,43.69,45Z"/><path class="cls-6" d="M24.45,34.49c-.14.22-.15.23-.81,1.18a2,2,0,0,1-3.28,0C17.29,31.23,12.72,24.1,10.89,19H13.7a101.62,101.62,0,0,0,8.66,14.67A2,2,0,0,0,24.45,34.49Z"/></g></svg>