<svg xmlns="http://www.w3.org/2000/svg" viewBox="0 0 48 48"><defs><style>.cls-1{fill:#ffba55;}.cls-2{fill:#fc6;}.cls-3{fill:#c6c3d8;}.cls-4{fill:#dad7e5;}.cls-5{fill:#a87e6b;}.cls-6{fill:#be927c;}.cls-7{fill:#a07765;}.cls-8{fill:#f6ccaf;}</style></defs><title>Shipping Warranty</title><g id="Shipping_Warranty" data-name="Shipping Warranty"><path class="cls-1" d="M46,11l-.38,5.13A36.85,36.85,0,0,1,24,47,36.85,36.85,0,0,1,2.38,16.13L2,11,24,1Z"/><path class="cls-2" d="M46,11l-.38,5.13A36.83,36.83,0,0,1,27.9,45,36.83,36.83,0,0,1,6.38,14.13L6,9.18,24,1Z"/><path class="cls-3" d="M41,14l-.43,4.52A29,29,0,0,1,24,42,29,29,0,0,1,7.43,18.52L7,14c2.79-1.3-.4.19,17-8Z"/><path class="cls-4" d="M41,14l-.43,4.52A28.91,28.91,0,0,1,26,41,28.94,28.94,0,0,1,9.43,17.52L9,13.06,24,6Z"/><path class="cls-5" d="M34,16c-9.53,4.75-2.18,1.1-10,5L14,16c8.93-4.45,2.42-1.22,10-5Z"/><path class="cls-6" d="M34,16c-15.29,7.66,5-2.49-9,4.5l-7.21-3.61a1,1,0,0,1,0-1.78L25,11.5Z"/><polygon class="cls-5" points="34 16 34 28 24 33 24 21 34 16"/><polygon class="cls-5" points="34 16 34 28 24 33 24 21 34 16"/><polygon class="cls-3" points="24 33 22 34 22 32 24 33"/><path class="cls-6" d="M34,16V26l-6.11,3.05A2,2,0,0,1,25,27.26V20.5Z"/><polygon class="cls-7" points="24 21 24 33 14 28 14 16 24 21"/><path class="cls-3" d="M18.31,13.85c2.23-1.13,2.25-1.13.18-.1C16.24,14.88,16.06,15,18.31,13.85Z"/><polygon class="cls-3" points="22 32 22 34 12 29 12 17 14 16 14 28 22 32"/><polygon class="cls-3" points="27.85 19.08 27.89 19.06 27.89 19.06 27.85 19.08"/><path class="cls-5" d="M28,21c0-2.3,0-2-.09-1.95l-8.64-4.68-.9.45L27,19.5V21a1,1,0,0,0,1.5.85A1,1,0,0,1,28,21Z"/><path class="cls-8" d="M29.9,18.07c-.45-.57,1,.31-9.41-5.32l-2.18,1.1,9.6,5.2c.13.07.09-.22.09,1.95a1,1,0,0,0,2,0C30,18.16,30,18.37,29.9,18.07Z"/></g></svg>