<svg xmlns="http://www.w3.org/2000/svg" viewBox="0 0 48 48"><defs><style>.cls-1{fill:#fc6;}.cls-2{fill:#ffde76;}.cls-3{fill:#425b72;}.cls-4{fill:#374f68;}.cls-5{fill:#dad7e5;}.cls-6{fill:#7c7d7d;}.cls-7{fill:#919191;}.cls-8{fill:#a87e6b;}.cls-9{fill:#be927c;}.cls-10{fill:#f6ccaf;}.cls-11{fill:#db5669;}.cls-12{fill:#f26674;}</style></defs><title>Forklift</title><g id="Forklift"><path class="cls-1" d="M18,7V9H14c0-1.62-.3-3.15,1.18-3.82A2,2,0,0,1,18,7Z"/><path class="cls-2" d="M18,7V8H17a2,2,0,0,1-1.82-2.82A2,2,0,0,1,18,7Z"/><path class="cls-3" d="M33,22v3.37L22.49,11H11V24a1,1,0,0,1-2,0V10a1,1,0,0,1,1-1c13.92,0,13.39-.18,13.81.42Z"/><polygon class="cls-4" points="33 26 33 30 14 30 9 24 16 24 17 26 33 26"/><path class="cls-3" d="M33,26v3H17.81c-3.39,0-4.69-2.26-7-5H16l1,2Z"/><path class="cls-1" d="M33,30v8a4,4,0,0,0-8,0H13a4,4,0,0,0-8,0H3a2,2,0,0,1-2-2V28c1.75,0,2.65.19,3.41-.59S5,26,5,24H9l5,6Z"/><path class="cls-4" d="M13,38a4,4,0,1,1-6.28-3.28A4,4,0,0,1,13,38Z"/><path class="cls-3" d="M12.28,40.28a4,4,0,0,1-5.56-5.56A4,4,0,0,1,12.28,40.28Z"/><path class="cls-4" d="M33,38a4,4,0,1,1-6.28-3.28A4,4,0,0,1,33,38Z"/><path class="cls-3" d="M32.28,40.28a4,4,0,0,1-5.56-5.56A4,4,0,0,1,32.28,40.28Z"/><path class="cls-5" d="M10,38a1,1,0,0,0-2,0A1,1,0,0,0,10,38Z"/><path class="cls-5" d="M30,38a1,1,0,0,0-2,0A1,1,0,0,0,30,38Z"/><rect class="cls-6" x="33" y="11" width="4" height="27"/><path class="cls-7" d="M37,11c0,26.24-.1,25,0,25a3,3,0,0,1-3-3V11Z"/><polygon class="cls-6" points="47 34 47 37 37 38 37 34 47 34"/><path class="cls-7" d="M47,34v1.2l-6,.6A1.82,1.82,0,0,1,39,34Z"/><rect class="cls-8" x="37" y="24" width="10" height="10"/><path class="cls-9" d="M47,24v8H43a4,4,0,0,1-4-4V24Z"/><path class="cls-10" d="M43,24v2a1,1,0,0,1-2,0V24Z"/><path class="cls-11" d="M5,24c0,2,.06,2.32-.18,2.82C4.15,28.3,2.62,28,1,28c0-1.62-.3-3.15,1.18-3.82C2.69,23.94,3,24,5,24Z"/><path class="cls-12" d="M5,24c0,2,.06,2.32-.18,2.82a2,2,0,0,1-2.64-2.64C2.69,23.94,3,24,5,24Z"/><path class="cls-2" d="M33,30v6h-.54a4,4,0,0,0-6.92,0H12.46A4,4,0,0,0,6.7,34.74,8,8,0,0,1,3,28a2,2,0,0,0,2-2V24H9l5,6Z"/></g></svg>