<svg xmlns="http://www.w3.org/2000/svg" viewBox="0 0 48 48"><defs><style>.cls-1{fill:#a87e6b;}.cls-2{fill:#be927c;}.cls-3{fill:#a07765;}</style></defs><title>Unboxing</title><g id="Unboxing"><path class="cls-1" d="M47,22,31,34l-7-5.61L39.88,17C47.54,22.39,43.85,19.79,47,22Z"/><path class="cls-2" d="M45.62,21l-8.8,6.6a9.38,9.38,0,0,1-11.5-.18L39.88,17C45.67,21.07,44.65,20.36,45.62,21Z"/><path class="cls-1" d="M47,12l-7.12,5L24,5.61,32,1Z"/><path class="cls-2" d="M45.61,11a9.87,9.87,0,0,1-11.42-.06l-8.65-6.2L32,1Z"/><path class="cls-1" d="M24,28.39,17,34,1,22l7.12-5Z"/><path class="cls-2" d="M22.68,27.45a9.38,9.38,0,0,1-11.5.18L2.38,21l5.74-4C23.1,27.75,21.78,26.79,22.68,27.45Z"/><path class="cls-1" d="M24,5.61,8.12,17,1,12,16,1Z"/><path class="cls-2" d="M22.45,4.72l-8.64,6.2A9.87,9.87,0,0,1,2.39,11c-.1-.07-.4.3,13.61-10Z"/><path class="cls-1" d="M40,27.25V36L24,47V28.39L31,34Z"/><path class="cls-3" d="M31,34l-7-5.61v2L31,36l9-6.75v-2Z"/><polygon class="cls-1" points="24 28.39 24 47 8 36 8 27.25 17 34 24 28.39"/><polygon class="cls-3" points="17 34 8 27.25 8 29.25 17 36 24 30.39 24 28.39 17 34"/><path class="cls-2" d="M24,5.61V28.39L8.12,17Z"/><path class="cls-1" d="M39.88,17,24,28.39V5.61Z"/><path class="cls-1" d="M24,16.61c0,13.07.06,11.82-.13,11.69-3-2.16,2.52,1.81-8.08-5.8Z"/><polygon class="cls-3" points="32.21 22.5 24 28.39 24 16.61 32.21 22.5"/><polygon class="cls-1" points="16.99 21.64 15.79 22.5 8.12 17 9.32 16.14 16.99 21.64"/><path class="cls-3" d="M25,27.39l-1.13.91c-3-2.16,2.52,1.81-8.08-5.8l1.2-.86Z"/></g></svg>