<svg xmlns="http://www.w3.org/2000/svg" viewBox="0 0 48 48"><defs><style>.cls-1{fill:#db5669;}.cls-2{fill:#f26674;}.cls-3{fill:#374f68;}.cls-4{fill:#425b72;}.cls-5{fill:#7c7d7d;}.cls-6{fill:#919191;}.cls-7{fill:#c4455e;}</style></defs><title>Cargo</title><g id="Cargo"><rect class="cls-1" x="4" y="21" width="40" height="26"/><path class="cls-2" d="M44,21V45H30A24,24,0,0,1,6,21Z"/><path class="cls-3" d="M25.16,11.46A1,1,0,0,0,25,12a1,1,0,0,1-1,1L10.45,19.89a1,1,0,0,1-.9-1.78c15.05-7.52,14.28-7.33,14.9-7A7.77,7.77,0,0,1,25.16,11.46Z"/><path class="cls-4" d="M25.13,11.44,12.45,17.89a1,1,0,0,1-1.38-.54l12.48-6.24C24.09,10.82,24.51,11.14,25.13,11.44Z"/><path class="cls-3" d="M37.55,19.89l-11.4-5.8A3,3,0,0,0,27,12.37l11.48,5.74A1,1,0,0,1,37.55,19.89Z"/><path class="cls-4" d="M38.86,18.49a1,1,0,0,1-1.31.4L26.67,13.36a3,3,0,0,0,.3-1C39.51,18.64,38.66,18.14,38.86,18.49Z"/><path class="cls-5" d="M21,12.37c-.31-1.83.89-2.7,2-3.78V5a1,1,0,0,1,2,0c0,4.36.1,4.3-.29,4.71C22.62,11.78,23.59,11.09,21,12.37Z"/><path class="cls-6" d="M25,9c0-4.22.17-4.45-.5-4.85-.66.4-.5.64-.5,4.44-1.14,1.14-2,1.75-2,3.24,0,.1-.13.12,1.13-.51C23.76,10.44,25,9.83,25,9Z"/><path class="cls-5" d="M27,12a3,3,0,0,1-5.15,2.09L24,13a1,1,0,0,0,1-1A1,1,0,0,1,27,12Z"/><path class="cls-3" d="M25,12a1,1,0,0,1-1,1l-2.78,1.41a2.83,2.83,0,0,1-.37-.32L23,13a1,1,0,0,0,1-1,1,1,0,0,1,.5-.87C25.54,11.64,25,11.28,25,12Z"/><path class="cls-6" d="M25,12a1,1,0,0,1-1,1l-1.33.67a3,3,0,0,0,4.25-2.06A1,1,0,0,0,25,12Z"/><path class="cls-5" d="M11,17v4H7V17a2,2,0,0,1,4,0Z"/><path class="cls-6" d="M11,17v3a3,3,0,0,1-3-3,4.1,4.1,0,0,1,.18-1.82A2,2,0,0,1,11,17Z"/><path class="cls-5" d="M41,17v4H37V17a2,2,0,0,1,4,0Z"/><path class="cls-6" d="M41,17v3a3,3,0,0,1-3-3,4.1,4.1,0,0,1,.18-1.82A2,2,0,0,1,41,17Z"/><path class="cls-7" d="M10,26V42a1,1,0,0,1-2,0V26A1,1,0,0,1,10,26Z"/><path class="cls-7" d="M23,42V26a1,1,0,0,1,2,0V42A1,1,0,0,1,23,42Z"/><path class="cls-7" d="M13,42V26a1,1,0,0,1,2,0V42A1,1,0,0,1,13,42Z"/><path class="cls-7" d="M18,42V26a1,1,0,0,1,2,0V42A1,1,0,0,1,18,42Z"/><path class="cls-7" d="M28,42V26a1,1,0,0,1,2,0V42A1,1,0,0,1,28,42Z"/><path class="cls-7" d="M33,42V26a1,1,0,0,1,2,0V42A1,1,0,0,1,33,42Z"/><path class="cls-7" d="M38,42V26a1,1,0,0,1,2,0V42A1,1,0,0,1,38,42Z"/><rect class="cls-3" x="21" y="1" width="6" height="4"/><path class="cls-4" d="M27,1V4H25a3,3,0,0,1-3-3Z"/></g></svg>