<svg xmlns="http://www.w3.org/2000/svg" viewBox="0 0 48 48"><defs><style>.cls-1{fill:#df8761;}.cls-2{fill:#dad7e5;}.cls-3{fill:#edebf2;}.cls-4{fill:#7c7d7d;}.cls-5{fill:#919191;}.cls-6{fill:#b5e08c;}.cls-7{fill:#425b72;}.cls-8{fill:#f29b75;}</style></defs><title>Clipboard Checklist</title><g id="Clipboard_Checklist" data-name="Clipboard Checklist"><path class="cls-1" d="M41,5V45a2,2,0,0,1-2,2H9a2,2,0,0,1-2-2V5A2,2,0,0,1,9,3h6V7H11V43H37V7H33V3h6A2,2,0,0,1,41,5Z"/><path class="cls-2" d="M37,7V43H11V7h4a2,2,0,0,0,2,2H31a2,2,0,0,0,2-2Z"/><path class="cls-3" d="M37,7c0,35.18-.1,34,0,34A24,24,0,0,1,13,17V7h2a2,2,0,0,0,2,2H31a2,2,0,0,0,2-2Z"/><rect class="cls-4" x="15" y="1" width="18" height="8" rx="2"/><path class="cls-5" d="M33,3V7H23a6,6,0,0,1-6-6H31A2,2,0,0,1,33,3Z"/><path class="cls-6" d="M14.29,15.71a1,1,0,0,1,1.42-1.42L17,15.59l3.29-3.3a1,1,0,0,1,1.42,1.42C16.26,19.15,17.54,19,14.29,15.71Z"/><path class="cls-6" d="M14.29,26.71a1,1,0,0,1,1.42-1.42L17,26.59l3.29-3.3a1,1,0,0,1,1.42,1.42C16.26,30.15,17.54,30,14.29,26.71Z"/><path class="cls-6" d="M14.29,37.71a1,1,0,0,1,1.42-1.42L17,37.59l3.29-3.3a1,1,0,0,1,1.42,1.42C16.26,41.15,17.54,41,14.29,37.71Z"/><path class="cls-7" d="M33,14H25a1,1,0,0,1,0-2h8A1,1,0,0,1,33,14Z"/><path class="cls-7" d="M29,18H25a1,1,0,0,1,0-2h4A1,1,0,0,1,29,18Z"/><path class="cls-7" d="M33,25H25a1,1,0,0,1,0-2h8A1,1,0,0,1,33,25Z"/><path class="cls-7" d="M29,29H25a1,1,0,0,1,0-2h4A1,1,0,0,1,29,29Z"/><path class="cls-7" d="M33,36H25a1,1,0,0,1,0-2h8A1,1,0,0,1,33,36Z"/><path class="cls-7" d="M29,40H25a1,1,0,0,1,0-2h4A1,1,0,0,1,29,40Z"/><path class="cls-8" d="M9,3h6V7H11V24.17C8.53,17.52,9,13.06,9,3Z"/><path class="cls-8" d="M41,5V45a32.06,32.06,0,0,1-11.17-2H37V7H33V3h6A2,2,0,0,1,41,5Z"/><path class="cls-2" d="M31.72,9A2,2,0,0,1,30,10H16a2,2,0,0,1-2-2V7h1a2,2,0,0,0,2,2Z"/><path class="cls-1" d="M15,3V7H14C14,2.57,13.88,3,15,3Z"/></g></svg>