<svg xmlns="http://www.w3.org/2000/svg" viewBox="0 0 48 48"><defs><style>.cls-1{fill:#2c435e;}.cls-2{fill:#374f68;}.cls-3{fill:#7c7d7d;}.cls-4{fill:#dad7e5;}.cls-5{fill:#edebf2;}.cls-6{fill:#425b72;}.cls-7{fill:#fc6;}.cls-8{fill:#ffde76;}.cls-9{fill:#a87e6b;}.cls-10{fill:#be927c;}.cls-11{fill:#f6ccaf;}.cls-12{fill:#ffdec7;}</style></defs><title>Drone Delivery</title><g id="Drone_Delivery" data-name="Drone Delivery"><path class="cls-1" d="M22,22v4a1,1,0,0,1-2,0V22A1,1,0,0,1,22,22Z"/><path class="cls-2" d="M21,24v3a1,1,0,0,1-1-1V23A1,1,0,0,1,21,24Z"/><path class="cls-1" d="M28,22v4a1,1,0,0,1-2,0V22A1,1,0,0,1,28,22Z"/><path class="cls-2" d="M27,24v3a1,1,0,0,1-1-1V23A1,1,0,0,1,27,24Z"/><path class="cls-2" d="M13,36V24c0-.55,0-.43,3.29-3.71a1,1,0,0,1,1.42,1.42L15,24.41V36A1,1,0,0,1,13,36Z"/><path class="cls-1" d="M17.71,21.71,15,24.41V34H14V24.41l2.71-2.7a1,1,0,0,0-.21-1.55A1,1,0,0,1,17.71,21.71Z"/><path class="cls-2" d="M33,36V24.41l-2.71-2.7a1,1,0,0,1,1.42-1.42l3,3c.42.42.29-.26.29,12.71A1,1,0,0,1,33,36Z"/><path class="cls-1" d="M35,24V34H34c0-10.77.12-10.27-.29-10.71-3.44-3.44-2.94-3-3.21-3.13a1,1,0,0,1,1.21.13C34.82,23.4,35,23.43,35,24Z"/><path class="cls-3" d="M41,16V12a1,1,0,0,1,2,0v4A1,1,0,0,1,41,16Z"/><path class="cls-3" d="M5,16V12a1,1,0,0,1,2,0v4A1,1,0,0,1,5,16Z"/><polygon class="cls-4" points="32 15 32 22 16 22 16 15 19 12 29 12 32 15"/><path class="cls-5" d="M32,15v5H24a6,6,0,0,1-6-6V13l1-1H29Z"/><path class="cls-2" d="M8,16c0,4.2.07,4.31-.18,4.82A2,2,0,0,1,4,20V16Z"/><path class="cls-6" d="M8,16c0,4.2.07,4.31-.18,4.82A2,2,0,0,1,5,19V16Z"/><path class="cls-4" d="M10,14H2a1,1,0,0,1,0-2h8A1,1,0,0,1,10,14Z"/><path class="cls-5" d="M11,13H3a1,1,0,0,1-1-1h8A1,1,0,0,1,11,13Z"/><polygon class="cls-4" points="16 16 16 22 12 20 8 20 8 16 16 16"/><path class="cls-5" d="M14,16v1.38a1,1,0,0,1-1.45.9c-.77-.39.06-.28-4.55-.28V16Z"/><path class="cls-2" d="M44,16c0,4.2.07,4.31-.18,4.82A2,2,0,0,1,40,20V16Z"/><path class="cls-6" d="M44,16c0,4.2.07,4.31-.18,4.82A2,2,0,0,1,41,19V16Z"/><path class="cls-4" d="M46,14H38a1,1,0,0,1,0-2h8A1,1,0,0,1,46,14Z"/><path class="cls-5" d="M47,13H39a1,1,0,0,1-1-1h8A1,1,0,0,1,47,13Z"/><polygon class="cls-4" points="40 16 40 20 36 20 32 22 32 16 40 16"/><path class="cls-5" d="M37,16v2H36l-2.55,1.28a1,1,0,0,1-1.45-.9V16Z"/><path class="cls-7" d="M26,18H22a1,1,0,0,1,0-2h4A1,1,0,0,1,26,18Z"/><path class="cls-8" d="M27,17H23a1,1,0,0,1-1-1h4A1,1,0,0,1,27,17Z"/><rect class="cls-9" x="18" y="26" width="12" height="7"/><path class="cls-10" d="M30,26v6H25a6,6,0,0,1-6-6Z"/><path class="cls-11" d="M25,26v2a1,1,0,0,1-2,0V26Z"/><path class="cls-12" d="M25,26v2a1,1,0,0,1-1-1V26Z"/><path class="cls-2" d="M15,37H13a1,1,0,0,1,0-2h2A1,1,0,0,1,15,37Z"/><path class="cls-6" d="M16,36H14a1,1,0,0,1-1-1h2A1,1,0,0,1,16,36Z"/><path class="cls-2" d="M35,37H33a1,1,0,0,1,0-2h2A1,1,0,0,1,35,37Z"/><path class="cls-6" d="M36,36H34a1,1,0,0,1-1-1h2A1,1,0,0,1,36,36Z"/></g></svg>