<svg xmlns="http://www.w3.org/2000/svg" viewBox="0 0 48 48"><defs><style>.cls-1{fill:#db5669;}.cls-2{fill:#f26674;}.cls-3{fill:#c6c3d8;}.cls-4{fill:#dad7e5;}.cls-5{fill:#7c7d7d;}.cls-6{fill:#919191;}.cls-7{fill:#edebf2;}.cls-8{fill:#a87e6b;}.cls-9{fill:#be927c;}.cls-10{fill:#ffdec7;}</style></defs><title>Werehouse</title><g id="Werehouse"><path class="cls-1" d="M45,16V47H37V19H11V47H3V16L24,1Z"/><path class="cls-2" d="M45,16V45H37V19H11c0,27.19-.1,26,0,26a6,6,0,0,1-6-6V14.57L24,1Z"/><rect class="cls-3" x="11" y="27" width="26" height="20"/><path class="cls-4" d="M35,33V47H11V29H31A4,4,0,0,1,35,33Z"/><rect class="cls-5" x="11" y="19" width="26" height="4"/><path class="cls-6" d="M37,19v3H15a3,3,0,0,1-3-3Z"/><rect class="cls-5" x="11" y="23" width="26" height="4"/><path class="cls-6" d="M37,23v3H15a3,3,0,0,1-3-3Z"/><path class="cls-3" d="M27,12v3H21c0-2.91-.14-3.62.44-4.56A3,3,0,0,1,27,12Z"/><path class="cls-7" d="M26,13v2H21c0-2.91-.14-3.62.44-4.56A3,3,0,0,1,26,13Z"/><rect class="cls-8" x="16" y="39" width="8" height="8"/><path class="cls-9" d="M24,39v7H21a4,4,0,0,1-4-4V39Z"/><rect class="cls-8" x="24" y="39" width="8" height="8"/><path class="cls-9" d="M32,39v7H29a4,4,0,0,1-4-4V39Z"/><rect class="cls-8" x="20" y="31" width="8" height="8"/><path class="cls-9" d="M28,31v7H25a4,4,0,0,1-4-4V31Z"/><path class="cls-10" d="M21,39v2a1,1,0,0,1-2,0V39Z"/><path class="cls-10" d="M29,39v2a1,1,0,0,1-2,0V39Z"/><path class="cls-10" d="M25,31v2a1,1,0,0,1-2,0V31Z"/></g></svg>