<svg xmlns="http://www.w3.org/2000/svg" viewBox="0 0 48 48"><defs><style>.cls-1{fill:#ffba55;}.cls-2{fill:#fc6;}.cls-3{fill:#db5669;}.cls-4{fill:#f26674;}.cls-5{fill:#84b749;}.cls-6{fill:#dad7e5;}.cls-7{fill:#edebf2;}.cls-8{fill:#a87e6b;}.cls-9{fill:#be927c;}.cls-10{fill:#a07765;}.cls-11{fill:#f6ccaf;}</style></defs><title>Destination Tracking</title><g id="Destination_Tracking" data-name="Destination Tracking"><path class="cls-1" d="M47,43a4,4,0,1,1-6.28-3.28A4,4,0,0,1,47,43Z"/><path class="cls-2" d="M46.28,45.28a4,4,0,0,1-5.56-5.56A4,4,0,0,1,46.28,45.28Z"/><path class="cls-3" d="M9,5c0,1.84-2.9,5.68-4,7C3.82,10.6,1,6.84,1,5A4,4,0,0,1,9,5Z"/><path class="cls-4" d="M9,5c0,1.54-1.93,4.32-3.1,5.87C4.79,9.6,2,5.78,2,4a4,4,0,0,1,.72-2.28A4,4,0,0,1,9,5Z"/><path class="cls-5" d="M35,44H10.5A9.51,9.51,0,0,1,1,34.5C1,29.64,4.72,25,11,25a1,1,0,0,1,0,2c-5.2,0-8,3.77-8,7.5A7.5,7.5,0,0,0,10.5,42H35A1,1,0,0,1,35,44Z"/><path class="cls-6" d="M5,16c-4.83,0-5.48-4.41-.76-4.95.45.58.76.95.76.95s.31-.37.76-.95C10.46,11.61,9.88,16,5,16Z"/><path class="cls-7" d="M8.79,14.29c-3,1.83-7.93-.16-6.58-2.58a5.06,5.06,0,0,1,2-.66c.45.58.76.95.76.95s.31-.37.76-.95C7.81,11.29,9.68,12.71,8.79,14.29Z"/><path class="cls-6" d="M6,5A1,1,0,0,0,4,5,1,1,0,0,0,6,5Z"/><path class="cls-5" d="M37,7c-24.87,0-21.7.12-21.29-.29a1,1,0,0,0-1.42-1.42c-2,2-2.24,2.12-2.28,2.65a1,1,0,0,0,.28.77C14.47,10.89,14.46,11,15,11a1,1,0,0,0,.71-1.71C15.25,8.84,12.8,9,37,9a8,8,0,0,1,0,16,1,1,0,0,0,0,2A10,10,0,0,0,37,7Z"/><path class="cls-8" d="M34,18c-9.53,4.75-2.18,1.1-10,5L14,18c8.93-4.45,2.42-1.22,10-5Z"/><path class="cls-9" d="M34,18l-9,4.5-7.21-3.61a1,1,0,0,1,0-1.78L25,13.5Z"/><polygon class="cls-8" points="34 18 34 30 24 35 24 23 34 18"/><polygon class="cls-8" points="34 18 34 30 24 35 24 23 34 18"/><path class="cls-9" d="M34,18V28l-6.11,3.05A2,2,0,0,1,25,29.26V22.5Z"/><polygon class="cls-10" points="24 23 24 35 14 30 14 18 24 23"/><path class="cls-8" d="M28,23c0-2.3,0-2-.09-1.95l-8.64-4.68-.9.45L27,21.5V23a1,1,0,0,0,1.5.85A1,1,0,0,1,28,23Z"/><path class="cls-11" d="M29.9,20.07c-.45-.57,1,.31-9.41-5.32l-2.18,1.1,9.6,5.2c.13.07.09-.22.09,1.95a1,1,0,0,0,2,0C30,20.16,30,20.37,29.9,20.07Z"/></g></svg>