<svg xmlns="http://www.w3.org/2000/svg" viewBox="0 0 48 48"><defs><style>.cls-1{fill:#747575;}.cls-2{fill:#7c7d7d;}.cls-3{fill:#919191;}.cls-4{fill:#a87e6b;}.cls-5{fill:#be927c;}.cls-6{fill:#c6c3d8;}.cls-7{fill:#f6ccaf;}.cls-8{fill:#ffdec7;}</style></defs><title>Storage</title><g id="Storage"><path class="cls-1" d="M5,11V47H1V11a2,2,0,0,1,4,0Z"/><path class="cls-2" d="M5,11c0,35.18-.1,34,0,34a2,2,0,0,1-2-2V9A2,2,0,0,1,5,11Z"/><rect class="cls-2" x="5" y="15" width="38" height="4"/><path class="cls-3" d="M41,15v2H9a2,2,0,0,1-2-2Z"/><rect class="cls-2" x="5" y="37" width="38" height="4"/><path class="cls-3" d="M41,37v2H9a2,2,0,0,1-2-2Z"/><path class="cls-1" d="M47,11V47H43V11a2,2,0,0,1,4,0Z"/><path class="cls-2" d="M47,11c0,35.18-.1,34,0,34a3,3,0,0,1-3-3V9.27A2,2,0,0,1,47,11Z"/><rect class="cls-4" x="12" y="25" width="24" height="12"/><path class="cls-5" d="M36,25V35H20a6,6,0,0,1-6-6V25Z"/><rect class="cls-4" x="9" y="1" width="14" height="14"/><path class="cls-5" d="M23,1V13H17a6,6,0,0,1-6-6V1Z"/><rect class="cls-4" x="27" y="3" width="12" height="12"/><path class="cls-5" d="M39,3V13H35a6,6,0,0,1-6-6V3Z"/><path class="cls-6" d="M18,34H16a1,1,0,0,1,0-2h2A1,1,0,0,1,18,34Z"/><path class="cls-6" d="M15,12H13a1,1,0,0,1,0-2h2A1,1,0,0,1,15,12Z"/><rect class="cls-7" x="22" y="25" width="4" height="4"/><path class="cls-8" d="M26,25v3a3,3,0,0,1-3-3Z"/><rect class="cls-7" x="14" y="1" width="4" height="4"/><path class="cls-8" d="M18,1V4a3,3,0,0,1-3-3Z"/><rect class="cls-7" x="31" y="3" width="4" height="4"/><path class="cls-8" d="M35,3V6a3,3,0,0,1-3-3Z"/></g></svg>