<svg xmlns="http://www.w3.org/2000/svg" viewBox="0 0 48 48"><defs><style>.cls-1{fill:#a07765;}.cls-2{fill:#a87e6b;}.cls-3{fill:#be927c;}.cls-4{fill:#edb996;}.cls-5{fill:#f6ccaf;}.cls-6{fill:#ffdec7;}</style></defs><title>Broken Box</title><g id="Broken_Box" data-name="Broken Box"><path class="cls-1" d="M40,20H37l4,5,3-2V47H36V41H32v3l-5-3v6H9l6-8-5,2L7,38,5,41,4,30l3-3,3,3,4-9-4,3L8,21H4V11H44v6H43Z"/><path class="cls-2" d="M37,20l4,5,3-2V45H36V39H32v3l-5-3v6H16.56a3,3,0,0,1-2.42-4.85h0L15,39l-2.14.85L15,37l-5,2L7,36l-.4.6L6,30l2-2,2,2c1.12-2.49,1.3-2.91,4-9l-1.33,1L14,19l-4,3c-.85-1.26-.41-.6-2-3H6V11H44v6H43l-3,3Z"/><polygon class="cls-3" points="22 6 19.86 6.71 19 11 4 11 8 1 11 1 13 3 15 1 21 1 20.33 4.33 22 6"/><polygon class="cls-2" points="8 1 4 11 6 11 10 1 8 1"/><polygon class="cls-3" points="44 11 29 11 27 1 31 1 34 3 37 1 40 1 44 11"/><polygon class="cls-4" points="29 14 25.5 17.5 29 21 19 21 19 11 29 11 29 14"/><path class="cls-5" d="M29,14l-3.5,3.5L27,19a6,6,0,0,1-6-6V11h8Z"/><polygon class="cls-5" points="29 11 19 11 19.86 6.71 22 6 20.33 4.33 21 1 27 1 29 11"/><polygon class="cls-6" points="29 11 21 11 21.86 6.71 24 6 22.33 4.33 23 1 27 1 29 11"/><path class="cls-1" d="M19,34H18V33a1,1,0,0,0-2,0v3.53l-4.78,4L15,39l-1.94,2.59C18.61,37,18,37.9,18,36h1A1,1,0,0,0,19,34Z"/></g></svg>