<svg xmlns="http://www.w3.org/2000/svg" viewBox="0 0 48 48"><defs><style>.cls-1{fill:#a87e6b;}.cls-2{fill:#f6ccaf;}.cls-3{fill:#be927c;}.cls-4{fill:#ffdec7;}.cls-5{fill:#a07765;}.cls-6{fill:#c6c3d8;}.cls-7{fill:#db5669;}.cls-8{fill:#edb996;}.cls-9{fill:#f26674;}.cls-10{fill:#dad7e5;}.cls-11{fill:#edebf2;}</style></defs><title>Box with Pin Location</title><g id="Box_with_Pin_Location" data-name="Box with Pin Location"><path class="cls-1" d="M28,19.8,21,24,1,12c2.78-1.52.42-.22,8-4.38Z"/><path class="cls-2" d="M34,16.2l-6,3.6L9,7.62l6.28-3.46Z"/><path class="cls-1" d="M41,12c-4.22,2.54,5.31-3.21-7,4.2l-18.75-12L21,1Z"/><path class="cls-3" d="M28,19.8l-5,3L10.7,15.42a3.82,3.82,0,0,1,.12-6.62Z"/><path class="cls-4" d="M34,16.2l-6,3.6L10.82,8.8c5.53-3,1-.59,6.28-3.45Z"/><path class="cls-3" d="M41,12l-7,4.2L17.1,5.35,23,2.1C41.7,12.38,38.62,10.68,41,12Z"/><path class="cls-1" d="M41,12V29.08A7,7,0,0,0,33,36a7.91,7.91,0,0,0,1,3.19c-.1.1.64-.38-13,7.81V24Z"/><path class="cls-3" d="M41,12V29.08A7,7,0,0,0,33,36a5.65,5.65,0,0,0,.31,1.62c-4.51,2.71-4.56,2.8-5.31,3a4,4,0,0,1-5-3.87V22.8Z"/><path class="cls-2" d="M34,16.2V23l-6,3V19.8Z"/><path class="cls-4" d="M34,16.2V22l-1.35.67A3.21,3.21,0,0,1,28,19.8Z"/><path class="cls-2" d="M34,39.17c0,.1.39-.2-6,3.63V37l5.54-3.69a7.28,7.28,0,0,0-.39,1.25A6,6,0,0,0,34,39.17Z"/><polygon class="cls-1" points="28 37.33 28 42.8 27 43.4 27 38 28 37.33"/><path class="cls-4" d="M33.54,33.31A6.73,6.73,0,0,0,33,36.38a7,7,0,0,0,.29,1.24l-1.94,1.15A2.14,2.14,0,0,1,28,37C30.61,35.26,23.58,39.92,33.54,33.31Z"/><polygon class="cls-5" points="21 24 21 47 1 35 1 12 21 24"/><polygon class="cls-6" points="11 30 11 36 17 40 17 34 11 30"/><path class="cls-1" d="M10.82,8.8a3.5,3.5,0,0,0-.73.53C11,9.94,8.37,8.2,27,20.4V26l1-.5V19.8Z"/><path class="cls-7" d="M47,36c0,3.16-4.84,8.81-7,11,0,0-7-7.13-7-11a7,7,0,1,1,14,0Z"/><path class="cls-7" d="M47,36c0,3.16-4.84,8.81-7,11,0,0-7-7.13-7-11a7,7,0,1,1,14,0Z"/><path class="cls-8" d="M34,39.17c0,.1.08,0-1.91,1.18a11.47,11.47,0,0,1-.72-1.58l1.94-1.15A11.23,11.23,0,0,0,34,39.17Z"/><path class="cls-1" d="M36,30.3a7.11,7.11,0,0,0-2.41,3l-2.17,1.44A7,7,0,0,1,36,30.3Z"/><path class="cls-2" d="M33.54,33.31A6.73,6.73,0,0,0,33,36.38a6.81,6.81,0,0,0,.29,1.24l-1.94,1.15a5.73,5.73,0,0,1,0-4Z"/><path class="cls-9" d="M47,36c0,2.54-3,6.48-5.09,8.9C41.07,44,35,37.6,35,34a6.92,6.92,0,0,1,1.15-3.85A7,7,0,0,1,47,36Z"/><path class="cls-10" d="M43,36a3,3,0,1,1-4.56-2.56A3,3,0,0,1,43,36Z"/><path class="cls-11" d="M42.56,37.56a3,3,0,0,1-4.12-4.12A3,3,0,0,1,42.56,37.56Z"/></g></svg>