<svg xmlns="http://www.w3.org/2000/svg" viewBox="0 0 48 48"><defs><style>.cls-1{fill:#a87e6b;}.cls-2{fill:#be927c;}.cls-3{fill:#9dcc6b;}.cls-4{fill:#a07765;}.cls-5{fill:#b5e08c;}.cls-6{fill:#f6ccaf;}.cls-7{fill:#ffdec7;}.cls-8{fill:#84b749;}.cls-9{fill:#edb996;}.cls-10{fill:#c6c3d8;}</style></defs><title>Cash On Delivery</title><g id="Cash_On_Delivery" data-name="Cash On Delivery"><path class="cls-1" d="M35,1V14H29a2,2,0,0,0-1.84,1.22s0,0,0,0c-.23.46-.16-.8-.16,19.77H1V1Z"/><path class="cls-2" d="M35,1V14H29a2,2,0,0,0-2,1.72c0,.28,0,3.1,0,17.28a24,24,0,0,1-17-7C1.94,17.87,3,9.2,3,1Z"/><path class="cls-3" d="M38,32.8c0,1.54,1.23,2,3,3.2a2,2,0,0,1-2,2H29a2,2,0,0,1-2-2V16a2,2,0,0,1,2-2H39a2,2,0,0,1,2,2V30.7A2.23,2.23,0,0,0,38,32.8Z"/><path class="cls-4" d="M27,33v2H25V32.91C25.66,33,26.33,33,27,33Z"/><path class="cls-1" d="M27.28,15c-.44.77-.28-.21-.28,18-.67,0-1.34,0-2-.09V17A2,2,0,0,1,27.28,15Z"/><path class="cls-5" d="M38,32.46c-.32,1.75,1.35,2.45,3,3.54H31a2,2,0,0,1-2-2V14H39a2,2,0,0,1,2,2V30.7A2.24,2.24,0,0,0,38,32.46Z"/><path class="cls-6" d="M47,34l-5.68-3.15c-.46-.27-.32.95-.32-8.85C47.91,28.91,47,26.84,47,34Z"/><path class="cls-7" d="M47,33l-2-1.11c0-3.36-.07-3-4-6.89V22C47.7,28.7,47,27,47,33Z"/><path class="cls-6" d="M47,34c0,5.43.42,6.58-1.41,8.41-.74.74-.59,1.23-.59,4.59H35c0-3.4.35-3.82-1.79-4.89A4,4,0,0,1,31,38.53V38h8a2,2,0,0,0,2-2l-2-1.34a2.24,2.24,0,0,1,2-4C41.25,30.79,40.34,30.31,47,34Z"/><path class="cls-8" d="M41,36a2,2,0,0,1-2.28,2A2,2,0,0,0,39,37l-1.49-1Z"/><path class="cls-3" d="M41,36c-4.06,0-3.32.11-4-.34a2.23,2.23,0,0,1,1.38-4.09A2.22,2.22,0,0,0,39,34.66Z"/><path class="cls-9" d="M38.72,38H31a7,7,0,0,0,0,1C37.1,39,37.94,39.33,38.72,38Z"/><path class="cls-7" d="M41.32,30.85a2.22,2.22,0,0,0-2.94.72,2.19,2.19,0,0,1,.94.28l1,.56A9.08,9.08,0,0,1,45,40.35a4.14,4.14,0,0,1-1.41,3.06c-.76.76-.59,1.51-.59,3.59h2c0-3-.2-3.8.59-4.59C47.31,40.69,47,40.22,47,34Z"/><circle class="cls-8" cx="34" cy="26" r="2"/><path class="cls-8" d="M33,20V18a1,1,0,0,1,2,0v2A1,1,0,0,1,33,20Z"/><path class="cls-8" d="M33,34V32a1,1,0,0,1,2,0v2A1,1,0,0,1,33,34Z"/><rect class="cls-6" x="14" y="1" width="8" height="8"/><path class="cls-7" d="M22,1V7a6,6,0,0,1-6-6Z"/><path class="cls-10" d="M9,28H5a1,1,0,0,1,0-2H9A1,1,0,0,1,9,28Z"/><path class="cls-10" d="M9,32H5a1,1,0,0,1,0-2H9A1,1,0,0,1,9,32Z"/></g></svg>