<svg xmlns="http://www.w3.org/2000/svg" viewBox="0 0 48 48"><defs><style>.cls-1{fill:#747575;}.cls-2{fill:#7c7d7d;}.cls-3{fill:#dad7e5;}.cls-4{fill:#c6c3d8;}.cls-5{fill:#374f68;}.cls-6{fill:#425b72;}.cls-7{fill:#a87e6b;}.cls-8{fill:#be927c;}.cls-9{fill:#f6ccaf;}.cls-10{fill:#ffdec7;}</style></defs><title>Trolley</title><g id="Trolley"><path class="cls-1" d="M47,37v2a2,2,0,0,1-2,2H42.46a4,4,0,0,0-6.92,0H12.46a4,4,0,0,0-6.92,0H3a2,2,0,0,1-2-2V37a2,2,0,0,1,2-2H45A2,2,0,0,1,47,37Z"/><rect class="cls-2" x="1" y="29" width="6" height="6"/><path class="cls-1" d="M7,29v5H6a4,4,0,0,1-4-4V29Z"/><path class="cls-3" d="M11,7V35H7V8A3,3,0,0,0,4,5H3A2,2,0,0,1,3,1H5A6,6,0,0,1,11,7Z"/><path class="cls-4" d="M9,31V7A4,4,0,0,0,5,3,2,2,0,0,1,3,1,2,2,0,0,0,1,3.18,2.08,2.08,0,0,0,3.11,5H4A3,3,0,0,1,7,8V35h4V33A2,2,0,0,1,9,31Z"/><path class="cls-5" d="M43,43a4,4,0,1,1-7.46-2A4,4,0,0,1,43,43Z"/><path class="cls-6" d="M42.28,45.28A4,4,0,0,1,40,46c-4.58,0-5.7-7-1-7A4,4,0,0,1,42.28,45.28Z"/><path class="cls-5" d="M13,43a4,4,0,1,1-7.46-2A4,4,0,0,1,13,43Z"/><path class="cls-6" d="M12.28,45.28A4,4,0,0,1,10,46c-4.58,0-5.7-7-1-7A4,4,0,0,1,12.28,45.28Z"/><rect class="cls-7" x="11" y="21" width="26" height="14"/><path class="cls-8" d="M37,21V33H19a6,6,0,0,1-6-6V21Z"/><rect class="cls-7" x="11" y="7" width="14" height="14"/><path class="cls-8" d="M25,7V19H19a6,6,0,0,1-6-6V7Z"/><rect class="cls-7" x="25" y="9" width="12" height="12"/><path class="cls-8" d="M37,9V19H33a6,6,0,0,1-6-6V9Z"/><rect class="cls-9" x="16" y="7" width="4" height="4"/><path class="cls-10" d="M20,7v3a3,3,0,0,1-3-3Z"/><rect class="cls-9" x="29" y="9" width="4" height="4"/><path class="cls-10" d="M33,9v3a3,3,0,0,1-3-3Z"/><path class="cls-3" d="M8,43a1,1,0,0,1,2,0A1,1,0,0,1,8,43Z"/><path class="cls-3" d="M38,43a1,1,0,0,1,2,0A1,1,0,0,1,38,43Z"/><rect class="cls-9" x="22" y="21" width="4" height="4"/><path class="cls-10" d="M26,21v3a3,3,0,0,1-3-3Z"/><path class="cls-4" d="M17,18H15a1,1,0,0,1,0-2h2A1,1,0,0,1,17,18Z"/><path class="cls-4" d="M17,32H15a1,1,0,0,1,0-2h2A1,1,0,0,1,17,32Z"/><path class="cls-2" d="M47,37v1H6a3,3,0,0,1-3-3H45A2,2,0,0,1,47,37Z"/></g></svg>