<svg xmlns="http://www.w3.org/2000/svg" viewBox="0 0 48 48"><defs><style>.cls-1{fill:#a87e6b;}.cls-2{fill:#f6ccaf;}.cls-3{fill:#be927c;}.cls-4{fill:#ffdec7;}.cls-5{fill:#a07765;}.cls-6{fill:#c6c3d8;}.cls-7{fill:#84b749;}.cls-8{fill:#edb996;}.cls-9{fill:#9dcc6b;}.cls-10{fill:#edebf2;}</style></defs><title>Delivery Protection</title><g id="Delivery_Protection" data-name="Delivery Protection"><path class="cls-1" d="M28,19.8,21,24,1,12c2.78-1.52.42-.22,8-4.38Z"/><path class="cls-2" d="M34,16.2l-6,3.6L9,7.62l6.28-3.46Z"/><path class="cls-1" d="M41,12c-4.22,2.54,5.31-3.21-7,4.2l-18.75-12L21,1Z"/><path class="cls-3" d="M28,19.8l-5,3L10.7,15.42a3.82,3.82,0,0,1,.12-6.62Z"/><path class="cls-4" d="M34,16.2l-6,3.6L10.82,8.8c5.53-3,1-.59,6.28-3.45Z"/><path class="cls-3" d="M41,12l-7,4.2L17.1,5.35,23,2.1C41.7,12.38,38.62,10.68,41,12Z"/><path class="cls-1" d="M41,12V30l-2-1-8,4c.3,3.35.32,5.06,1.27,7.24L21,47V24Z"/><path class="cls-3" d="M41,12V30l-2-1-8,4a30.92,30.92,0,0,0,.7,5.58c-2.3,1.38-2.89,1.83-3.7,2a4,4,0,0,1-5-3.87V22.8Z"/><path class="cls-2" d="M34,16.2V23l-6,3V19.8Z"/><path class="cls-4" d="M34,16.2V22l-1.35.67A3.21,3.21,0,0,1,28,19.8Z"/><path class="cls-2" d="M32.27,40.24,28,42.8V37l3.17-2.11A15.85,15.85,0,0,0,32.27,40.24Z"/><polygon class="cls-1" points="28 37.33 28 42.8 27 43.4 27 38 28 37.33"/><path class="cls-4" d="M31.7,38.58l-.44.26A2.15,2.15,0,0,1,28,37l3.17-2.11A20.26,20.26,0,0,0,31.7,38.58Z"/><polygon class="cls-5" points="21 24 21 47 1 35 1 12 21 24"/><polygon class="cls-6" points="11 30 11 36 17 40 17 34 11 30"/><path class="cls-1" d="M10.82,8.8a3.5,3.5,0,0,0-.73.53C11,9.94,8.37,8.2,27,20.4V26l1-.5V19.8Z"/><path class="cls-7" d="M47,33c-.33,3.61-.28,9.21-6.07,13A12.69,12.69,0,0,1,39,47a12.79,12.79,0,0,1-7.69-10.58L31,33l8-4Z"/><path class="cls-8" d="M32.27,40.24,30.34,41.4a12.24,12.24,0,0,1-.77-2.33,2.1,2.1,0,0,0,1.69-.23l.44-.26A14,14,0,0,0,32.27,40.24Z"/><polygon class="cls-5" points="31.17 34.89 29.2 36.2 29 34 31 33 31.17 34.89"/><path class="cls-2" d="M31.7,38.58l-.44.26a2.1,2.1,0,0,1-1.69.23,20.2,20.2,0,0,1-.37-2.87l2-1.31A20.77,20.77,0,0,0,31.7,38.58Z"/><path class="cls-9" d="M47,33c-.33,3.61-.28,9.21-6.07,13a12.8,12.8,0,0,1-7.62-10.55L33,32l6-3Z"/><path class="cls-10" d="M38,42c-.54,0-.57-.15-2.71-2.29a1,1,0,0,1,1.42-1.42l1.22,1.23,4.3-5.16a1,1,0,0,1,1.54,1.28C38.42,42.06,38.65,42,38,42Z"/></g></svg>