<svg xmlns="http://www.w3.org/2000/svg" viewBox="0 0 48 48"><defs><style>.cls-1{fill:#dad7e5;}.cls-10,.cls-2{fill:#edebf2;}.cls-3{fill:#9fdbf3;}.cls-4{fill:#b2e5fb;}.cls-5{fill:#7c7d7d;}.cls-6{fill:#a87e6b;}.cls-7{fill:#be927c;}.cls-8{fill:#a07765;}.cls-9{fill:#f6ccaf;}.cls-10{opacity:0.2;}.cls-11{fill:#919191;}</style></defs><title>Smartphone with Box</title><g id="Smartphone_with_Box" data-name="Smartphone with Box"><rect class="cls-1" x="10" y="9" width="28" height="30"/><path class="cls-2" d="M38,9c0,29.13-.1,28,0,28A26,26,0,0,1,12,11V9Z"/><rect class="cls-3" x="12" y="9" width="24" height="30"/><path class="cls-4" d="M36,9c0,29.13-.1,28,0,28A22,22,0,0,1,14,15V9Z"/><path class="cls-1" d="M38,5V9H10V5a4,4,0,0,1,2.36-3.64C13.45.86,12.36,1,34,1A4,4,0,0,1,38,5Z"/><path class="cls-2" d="M38,5V7H16a4,4,0,0,1-3.64-5.64A3.93,3.93,0,0,1,14,1H34A4,4,0,0,1,38,5Z"/><path class="cls-1" d="M38,39c0,4.09.12,4.6-.36,5.64A4,4,0,0,1,34,47H14a4,4,0,0,1-4-4V39Z"/><path class="cls-2" d="M38,39c0,4.09.12,4.6-.36,5.64-1.09.5,0,.36-21.64.36a4,4,0,0,1-4-4V39Z"/><path class="cls-5" d="M21,5a1,1,0,0,0-2,0A1,1,0,0,0,21,5Z"/><path class="cls-5" d="M30,6H24a1,1,0,0,1,0-2h6A1,1,0,0,1,30,6Z"/><path class="cls-6" d="M32,17c-5.86,2.94-1.5.75-8,4l-8-4,8-4Z"/><path class="cls-7" d="M32,17c-6.61,3.32-1,.49-7,3.5l-5.21-2.61a1,1,0,0,1,0-1.78L25,13.5Z"/><polygon class="cls-8" points="24 21 24 29 16 25 16 17 24 21"/><polygon class="cls-6" points="32 17 32 25 24 29 24 21 32 17"/><path class="cls-7" d="M32,17v6.5l-4.11,2.05A2,2,0,0,1,25,23.76V20.5Z"/><path class="cls-9" d="M29,19v2a1,1,0,0,1-2,0V19.62l-8.12-4.06,2.24-1.12C28.48,18.13,29,18.16,29,19Z"/><path class="cls-6" d="M27.5,21.85A1,1,0,0,1,26,21V19.62l-7.62-3.81c.71-.36-.65-.82,8.62,3.81C27,21.17,26.9,21.48,27.5,21.85Z"/><path class="cls-1" d="M32,34H16a1,1,0,0,1,0-2H32A1,1,0,0,1,32,34Z"/><polygon class="cls-10" points="36 9 36 39 25 39 36 9"/><polygon class="cls-10" points="31 9 21 39 16 39 26 9 31 9"/></g><g id="Support_Help" data-name="Support Help"><path class="cls-5" d="M26,43a2,2,0,1,1-3.14-1.64A2,2,0,0,1,26,43Z"/><path class="cls-11" d="M25.64,44.14a2,2,0,0,1-2.78-2.78A2,2,0,0,1,25.64,44.14Z"/></g></svg>