<svg xmlns="http://www.w3.org/2000/svg" viewBox="0 0 48 48"><defs><style>.cls-1{fill:#9dcc6b;}.cls-2{fill:#b5e08c;}.cls-3{fill:#fc6;}.cls-4{fill:#ffde76;}.cls-5{fill:#7c7d7d;}.cls-6{fill:#919191;}.cls-7{fill:#9fdbf3;}.cls-8{fill:#b2e5fb;}.cls-9{fill:#db5669;}.cls-10{fill:#f26674;}.cls-11{fill:#6fabe6;}.cls-12{fill:#f8834b;}.cls-13{fill:#425b72;}.cls-14{fill:#82bcf4;}</style></defs><title>25. Book and Globe</title><g id="_25._Book_and_Globe" data-name="25. Book and Globe"><rect class="cls-1" x="31" y="21" width="8" height="26"/><path class="cls-2" d="M39,21c0,24.83-.1,24,0,24a6,6,0,0,1-6-6V21Z"/><rect class="cls-3" x="39" y="21" width="8" height="26"/><path class="cls-4" d="M47,21c0,24.83-.1,24,0,24a6,6,0,0,1-6-6V21Z"/><path class="cls-5" d="M17,24.86V29H13V24.86A14.07,14.07,0,0,0,17,24.86Z"/><path class="cls-6" d="M17,24.86V28a3,3,0,0,1-3-3A13.72,13.72,0,0,0,17,24.86Z"/><path class="cls-6" d="M15,26C1.65,26-5,9.82,4.39.39A1,1,0,0,1,5.1.1c.55,0,.46,0,3.54,3.12A1,1,0,0,1,7.22,4.64L5.13,2.54A13,13,0,0,0,23.46,20.87l-2.1-2.09a1,1,0,0,1,1.42-1.42l2.83,2.83a1,1,0,0,1,0,1.42A15,15,0,0,1,15,26Z"/><path class="cls-7" d="M25,11a10,10,0,0,1-2,6c-5.76,7.67-18,3.54-18-6A10,10,0,0,1,9,3S9,3,9,3A10,10,0,0,1,25,11Z"/><path class="cls-8" d="M25,11a10,10,0,0,1-2,6A10,10,0,0,1,7,9C7,5.89,8.63,3.21,9.15,2.9,15.62-1.95,25,2.84,25,11Z"/><path class="cls-1" d="M23.85,15.64a2.27,2.27,0,0,1-1.89-.7c-.49-.84-.61-3.45-1.94-3.11-1.81,1-5.31-.24-2.27-4.68a8.4,8.4,0,0,1,1.74-1.86c.91-.7,1.49-1.45,2.27-1.65A10,10,0,0,1,23.85,15.64Z"/><path class="cls-2" d="M24.64,13.63A2.09,2.09,0,0,1,23,12.94c-.49-.84-.61-3.45-1.94-3.11-1.5.86-3.88,0-3.43-2.08,0-.2.1-.4.16-.6a8.4,8.4,0,0,1,1.74-1.86c.91-.7,1.49-1.45,2.27-1.65A10,10,0,0,1,24.64,13.63Z"/><path class="cls-1" d="M15.56,4.08c-.75,1.28-2.37,1.72-3.78,2.31-2.61,1.1-1.16,2.22-2.24,3.84C9,11,6.3,11.87,5.44,8.39,5.11,7.48,8.16,1,15,1A2.55,2.55,0,0,1,15.56,4.08Z"/><path class="cls-2" d="M15.62,2c-.3,1.19-3,2.07-3.84,2.43-2.83,1.19-1,2.66-2.36,4A1.37,1.37,0,0,1,7.2,7,9.82,9.82,0,0,1,9,3a9.74,9.74,0,0,1,6-2A4.34,4.34,0,0,1,15.62,2Z"/><path class="cls-1" d="M17.71,20.62A9.92,9.92,0,0,1,10.57,20a11.06,11.06,0,0,0,0-3c-.59-2.89,3.31-3.81,4.38-.5C15.46,17.86,18.92,16.53,17.71,20.62Z"/><path class="cls-2" d="M17.9,18.81c-4.11.88-6.32-1.08-6.32-4.25,1.07-.61,2.8,0,3.42,1.88C15.39,17.62,17.63,16.84,17.9,18.81Z"/><path class="cls-5" d="M20,31v2H10V31a2,2,0,0,1,2-2h6A2,2,0,0,1,20,31Z"/><path class="cls-6" d="M20,31H14a2,2,0,0,1-2-2h6A2,2,0,0,1,20,31Z"/><path class="cls-9" d="M27,33v7H6.5A3.5,3.5,0,0,1,4,34,3.45,3.45,0,0,1,6.5,33Z"/><path class="cls-10" d="M27,33v5H8.5a3.5,3.5,0,0,1-3.26-4.76C6.09,32.89,4.76,33,27,33Z"/><path class="cls-11" d="M6.5,40H27v7H6.5a3.5,3.5,0,0,1,0-7Z"/><rect class="cls-12" x="31" y="25" width="8" height="2"/><rect class="cls-12" x="31" y="41" width="8" height="2"/><rect class="cls-13" x="39" y="25" width="8" height="2"/><rect class="cls-13" x="39" y="41" width="8" height="2"/><path class="cls-13" d="M42,38V30a1,1,0,0,1,2,0v8A1,1,0,0,1,42,38Z"/><path class="cls-14" d="M27,40v5H8.5a3.5,3.5,0,0,1-3.26-4.76C6.09,39.89,4.76,40,27,40Z"/></g></svg>