<svg xmlns="http://www.w3.org/2000/svg" viewBox="0 0 48 48"><defs><style>.cls-1{fill:#6fabe6;}.cls-2{fill:#dad7e5;}.cls-3{fill:#82bcf4;}.cls-4{fill:#edebf2;}.cls-5{fill:#f26674;}.cls-6{fill:#ffde76;}.cls-7{fill:#b5e08c;}.cls-8{fill:#db5669;}.cls-9{fill:#fc6;}.cls-10{fill:#919191;}</style></defs><title>16. Website</title><g id="_16._Website" data-name="16. Website"><path class="cls-1" d="M3,1H45a2,2,0,0,1,2,2V9a0,0,0,0,1,0,0H1A0,0,0,0,1,1,9V3A2,2,0,0,1,3,1Z"/><path class="cls-2" d="M1,9H47a0,0,0,0,1,0,0V45a2,2,0,0,1-2,2H3a2,2,0,0,1-2-2V9A0,0,0,0,1,1,9Z"/><path class="cls-3" d="M47,3V7H10A6,6,0,0,1,4,1H45A2,2,0,0,1,47,3Z"/><path class="cls-4" d="M47,9V45H40A36.11,36.11,0,0,1,4,9Z"/><path class="cls-5" d="M5,6a1,1,0,1,1,.83-1.56A1,1,0,0,1,5,6Z"/><path class="cls-6" d="M9,6a1,1,0,1,1,.38-1.92A1,1,0,0,1,9,6Z"/><path class="cls-7" d="M12.29,4.29a1,1,0,0,1,1.63,1.09A1,1,0,1,1,12.29,4.29Z"/><rect class="cls-8" x="5" y="13" width="38" height="4"/><path class="cls-5" d="M43,13v2H10a2,2,0,0,1-2-2Z"/><rect class="cls-9" x="5" y="21" width="10" height="18"/><path class="cls-6" d="M15,21c0,16.82-.1,16,0,16a7,7,0,0,1-7-7V21Z"/><path class="cls-10" d="M25,23H19a1,1,0,0,1,0-2h6A1,1,0,0,1,25,23Z"/><path class="cls-10" d="M43,23H29a1,1,0,0,1,0-2H43A1,1,0,0,1,43,23Z"/><path class="cls-10" d="M43,39H37a1,1,0,0,1,0-2h6A1,1,0,0,1,43,39Z"/><path class="cls-10" d="M33,39H19a1,1,0,0,1,0-2H33A1,1,0,0,1,33,39Z"/><path class="cls-10" d="M43,27H19a1,1,0,0,1,0-2H43A1,1,0,0,1,43,27Z"/><path class="cls-10" d="M33,31H19a1,1,0,0,1,0-2H33A1,1,0,0,1,33,31Z"/><path class="cls-10" d="M43,35H19a1,1,0,0,1,0-2H43A1,1,0,0,1,43,35Z"/><path class="cls-10" d="M43,44H5a1,1,0,0,1,0-2H43A1,1,0,0,1,43,44Z"/></g></svg>