<svg xmlns="http://www.w3.org/2000/svg" viewBox="0 0 48 48"><defs><style>.cls-1{fill:#9fdbf3;}.cls-2{fill:#b2e5fb;}.cls-3{fill:#dad7e5;}.cls-4{fill:#edebf2;}.cls-5{fill:#425b72;}.cls-6{fill:#ffde76;}.cls-7{fill:#374f68;}</style></defs><title>4. Mortarboard on Smartphone</title><g id="_4._Mortarboard_on_Smartphone" data-name="4. Mortarboard on Smartphone"><rect class="cls-1" x="11" y="7" width="26" height="34"/><path class="cls-2" d="M37,7c0,33.18-.1,32,0,32A23,23,0,0,1,14,16V7Z"/><path class="cls-3" d="M37,3V7H11V3a2,2,0,0,1,2-2H35A2,2,0,0,1,37,3Z"/><path class="cls-4" d="M37,3V5H18a4,4,0,0,1-4-4H35A2,2,0,0,1,37,3Z"/><path class="cls-3" d="M37,41v4a2,2,0,0,1-2,2H13a2,2,0,0,1-2-2V41Z"/><path class="cls-4" d="M37,41v4H18a4,4,0,0,1-4-4Z"/><path class="cls-5" d="M27,5H21a1,1,0,0,1,0-2h6A1,1,0,0,1,27,5Z"/><path class="cls-5" d="M25,45H23a1,1,0,0,1,0-2h2A1,1,0,0,1,25,45Z"/><path class="cls-6" d="M17,26a1,1,0,0,1-2,0c0-3.41,0-3.92.07-4C17.27,21.25,17,20.81,17,26Z"/><path class="cls-7" d="M33,22l-9,3c-8.58-2.87-3.2-1.06-9-3l1.54-.51L24,19Z"/><path class="cls-5" d="M30,21l-6,2-6-2,6-2Z"/><path class="cls-7" d="M29,23.33V29a1,1,0,0,1-1,1H20a1,1,0,0,1-1-1V23.33L24,25Z"/><path class="cls-5" d="M29,23.33V28H22a1,1,0,0,1-1-1V24l3,1Z"/></g></svg>