<svg xmlns="http://www.w3.org/2000/svg" viewBox="0 0 48 48"><defs><style>.cls-1{fill:#9dcc6b;}.cls-2{fill:#b5e08c;}.cls-3{fill:#dad7e5;}.cls-4{fill:#edebf2;}.cls-5{fill:#fc6;}.cls-6{fill:#ffde76;}</style></defs><title>11. Information Sign</title><g id="_11._Information_Sign" data-name="11. Information Sign"><path class="cls-1" d="M47,24A23,23,0,1,1,12.81,3.91,23,23,0,0,1,47,24Z"/><path class="cls-2" d="M47,24a22.91,22.91,0,0,1-8.81,18.09A22.88,22.88,0,0,1,27,45C5.28,45-4.37,17.34,12.81,3.91A23,23,0,0,1,47,24Z"/><path class="cls-3" d="M43,24A19,19,0,1,1,15,7.27,19,19,0,0,1,43,24Z"/><path class="cls-4" d="M43,24a19,19,0,0,1-7,14.73A18.83,18.83,0,0,1,27,41C9.14,41,1.21,18.52,15,7.27A19,19,0,0,1,43,24Z"/><rect class="cls-5" x="21" y="21" width="6" height="16"/><path class="cls-6" d="M27,21c0,14.74-.1,14,0,14a4,4,0,0,1-4-4V21Z"/><path class="cls-5" d="M27,14a3,3,0,1,1-5-2.24A3,3,0,0,1,27,14Z"/><path class="cls-6" d="M26.86,14.88a3,3,0,0,1-3.73-3.75A3,3,0,0,1,26.86,14.88Z"/></g></svg>