<svg xmlns="http://www.w3.org/2000/svg" viewBox="0 0 48 48"><defs><style>.cls-1{fill:#6fabe6;}.cls-2{fill:#82bcf4;}.cls-3{fill:#f6ccaf;}.cls-4{fill:#9dcc6b;}.cls-5{fill:#fc6;}.cls-6{fill:#ffdec7;}.cls-7{fill:#b5e08c;}.cls-8{fill:#ffde76;}.cls-9{fill:#edebf2;}</style></defs><title>41. Book on Cloud</title><g id="_41._Book_on_Cloud" data-name="41. Book on Cloud"><path class="cls-1" d="M12,31H8A7,7,0,0,1,7,17.08a7,7,0,0,1,9.35-6.67A10,10,0,0,1,36,13c0,.5-.16,0,2,0a9,9,0,0,1,0,18H36"/><path class="cls-2" d="M47,22a9,9,0,0,1-9,9c-31.94,0-31.45.44-33.85-1.15A7,7,0,0,1,9,19.08a7,7,0,0,1,9.35-6.67A10,10,0,0,1,34,7a9.89,9.89,0,0,1,2,6c0,.46-.22.06,1.8,0A9,9,0,0,1,47,22Z"/><path class="cls-3" d="M35,41v4H15a2,2,0,0,1-1.41-3.41C14.4,40.75,13.48,41,35,41Z"/><rect class="cls-4" x="17" y="17" width="18" height="24"/><path class="cls-5" d="M17,17V41H15a2,2,0,0,0-2,2V19a2,2,0,0,1,2-2Z"/><path class="cls-6" d="M35,41v2H17a2,2,0,0,1-2-2Z"/><path class="cls-7" d="M35,17c0,23.28-.1,22,0,22A16,16,0,0,1,19,23V17Z"/><path class="cls-8" d="M17,17c0,23.28-.1,22,0,22a2,2,0,0,1-2-2V17Z"/><rect class="cls-5" x="22" y="22" width="8" height="4"/><path class="cls-8" d="M30,22v2H26a2,2,0,0,1-2-2Z"/><path class="cls-9" d="M30,33H22a1,1,0,0,1,0-2h8A1,1,0,0,1,30,33Z"/><path class="cls-9" d="M28,37H24a1,1,0,0,1,0-2h4A1,1,0,0,1,28,37Z"/></g></svg>