<svg xmlns="http://www.w3.org/2000/svg" viewBox="0 0 48 48"><defs><style>.cls-1{fill:#db5669;}.cls-2{fill:#f26674;}.cls-3{fill:#dad7e5;}.cls-4{fill:#edebf2;}.cls-5{fill:#919191;}.cls-6{fill:#6fabe6;}.cls-7{fill:#82bcf4;}.cls-8{fill:#425b72;}</style></defs><title>42. Wifi Book</title><g id="_42._Wifi_Book" data-name="42. Wifi Book"><rect class="cls-1" x="1" y="19" width="46" height="28"/><path class="cls-2" d="M24,19V45H6a3,3,0,0,1-3-3V19Z"/><path class="cls-2" d="M24,19V45H42a3,3,0,0,0,3-3V19Z"/><path class="cls-3" d="M24,19V47a4,4,0,0,0-4-4H5V15H20A4,4,0,0,1,24,19Z"/><path class="cls-4" d="M24,19V42.36A4,4,0,0,0,21,41H11c-1.66,0-4-1.34-4-3V15H20A4,4,0,0,1,24,19Z"/><path class="cls-3" d="M43,15V43H28a4,4,0,0,0-4,4V19a4,4,0,0,1,4-4Z"/><path class="cls-4" d="M24,19V42.36A4,4,0,0,1,27,41H38a3,3,0,0,0,3-3V15H28A4,4,0,0,0,24,19Z"/><path class="cls-5" d="M16,24H9a1,1,0,0,1,0-2h7A1,1,0,0,1,16,24Z"/><path class="cls-5" d="M20,28H9a1,1,0,0,1,0-2H20A1,1,0,0,1,20,28Z"/><path class="cls-5" d="M20,32H9a1,1,0,0,1,0-2H20A1,1,0,0,1,20,32Z"/><path class="cls-5" d="M20,36H9a1,1,0,0,1,0-2H20A1,1,0,0,1,20,36Z"/><path class="cls-5" d="M35,24H28a1,1,0,0,1,0-2h7A1,1,0,0,1,35,24Z"/><path class="cls-5" d="M39,28H28a1,1,0,0,1,0-2H39A1,1,0,0,1,39,28Z"/><path class="cls-5" d="M39,32H28a1,1,0,0,1,0-2H39A1,1,0,0,1,39,32Z"/><path class="cls-5" d="M39,36H28a1,1,0,0,1,0-2H39A1,1,0,0,1,39,36Z"/><path class="cls-6" d="M24,8a2,2,0,1,0,1.82,2.82A2,2,0,0,0,24,8Z"/><path class="cls-7" d="M23.18,8.18a2,2,0,0,0,2.64,2.64A2,2,0,0,0,23.18,8.18Z"/><path class="cls-8" d="M26.83,7.17a4.1,4.1,0,0,0-5.66,0,1,1,0,0,1-1.41-1.41,6,6,0,0,1,8.48,0A1,1,0,0,1,26.83,7.17Z"/><path class="cls-8" d="M29.66,4.34a8,8,0,0,0-11.32,0,1,1,0,0,1-1.41-1.41,10,10,0,0,1,14.14,0A1,1,0,0,1,29.66,4.34Z"/></g></svg>