<svg xmlns="http://www.w3.org/2000/svg" viewBox="0 0 48 48"><defs><style>.cls-1{fill:#dad7e5;}.cls-2{fill:#edebf2;}.cls-3{fill:#374f68;}.cls-4{fill:#425b72;}.cls-5{fill:#9fdbf3;}.cls-6{fill:#b2e5fb;}.cls-7{fill:#f26674;}.cls-8{fill:#919191;}</style></defs><title>8. Projector</title><g id="_8._Projector" data-name="8. Projector"><rect class="cls-1" x="1" y="15" width="46" height="18" rx="2"/><path class="cls-2" d="M47,17V31H20A16,16,0,0,1,4,15H45A2,2,0,0,1,47,17Z"/><path class="cls-3" d="M25,19a8,8,0,1,1-14.92-4C14,8,25,10.76,25,19Z"/><path class="cls-4" d="M25,19a7.87,7.87,0,0,1-1.44,4.56A7.87,7.87,0,0,1,19,25c-6.76,0-10.21-7.86-6.55-12.57A8,8,0,0,1,25,19Z"/><path class="cls-5" d="M21,19a4,4,0,1,1-5.64-3.64A4,4,0,0,1,21,19Z"/><path class="cls-6" d="M20.64,20.64a4,4,0,0,1-5.28-5.28A4,4,0,0,1,20.64,20.64Z"/><path class="cls-7" d="M5,20a1,1,0,0,1-1-1,1,1,0,1,1,1,1Z"/><path class="cls-8" d="M41,28V20a1,1,0,0,1,2,0v8A1,1,0,0,1,41,28Z"/><path class="cls-8" d="M36,28V20a1,1,0,0,1,2,0v8A1,1,0,0,1,36,28Z"/><path class="cls-8" d="M31,28V20a1,1,0,0,1,2,0v8A1,1,0,0,1,31,28Z"/><polygon class="cls-3" points="12 33 11 37 7 37 6 33 12 33"/><path class="cls-4" d="M12,33l-.75,3a4,4,0,0,1-4-3Z"/><polygon class="cls-3" points="37 37 41 37 42 33 36 33 37 37"/><path class="cls-4" d="M42,33l-.75,3a4,4,0,0,1-4-3Z"/></g></svg>