<svg xmlns="http://www.w3.org/2000/svg" viewBox="0 0 48 48"><defs><style>.cls-1{fill:#dad7e5;}.cls-2{fill:#edebf2;}.cls-3{fill:#c6c3d8;}.cls-4{fill:#6fabe6;}.cls-5{fill:#82bcf4;}</style></defs><title>46. File Download</title><g id="_46._File_Download" data-name="46. File Download"><path class="cls-1" d="M6,45a2,2,0,0,0,2,2H34a2,2,0,0,0,2-2V13L30,7H8A2,2,0,0,0,6,9Z"/><path class="cls-1" d="M36,41h4a2,2,0,0,0,2-2V7L36,1H14a2,2,0,0,0-2,2V7Z"/><path class="cls-2" d="M42,7c0,33.18-.1,32,0,32a4,4,0,0,1-4-4V12.17L30.83,5H19a4,4,0,0,1-4-4H36Z"/><path class="cls-2" d="M36,13V45H16a7,7,0,0,1-7-7V7H30Z"/><polygon class="cls-3" points="36 13 30 13 30 7 36 13"/><polygon class="cls-3" points="42 7 36 7 36 1 42 7"/><path class="cls-4" d="M30,27a9,9,0,1,1-12.38-8.34A9,9,0,0,1,30,27Z"/><path class="cls-5" d="M30,27a9,9,0,0,1-2.62,6.34A8.85,8.85,0,0,1,24,34a9,9,0,0,1-6.38-15.34A9,9,0,0,1,30,27Z"/><path class="cls-1" d="M25,27l-4,5-4-5h2V22h4v5Z"/><polygon class="cls-2" points="25 27 23 27 23 22 21 22 21 27 19 27 22 30.75 25 27"/></g></svg>