<svg xmlns="http://www.w3.org/2000/svg" viewBox="0 0 48 48"><defs><style>.cls-1{fill:#374f68;}.cls-2{fill:#425b72;}.cls-3{fill:#ffde76;}.cls-4{fill:#fc6;}.cls-5{fill:#dad7e5;}.cls-6{fill:#edebf2;}.cls-7{fill:#db5669;}.cls-8{fill:#f26674;}.cls-9{fill:#f16f39;}.cls-10{fill:#f8834b;}</style></defs><title>48. Mortarboard and Diploma Roll Certificate</title><g id="_48._Mortarboard_and_Diploma_Roll_Certificate" data-name="48. Mortarboard and Diploma Roll Certificate"><path class="cls-1" d="M37,29a44.06,44.06,0,0,1-26,0l1.74-13.92H35.26C37.05,29.45,36.8,27.42,37,29Z"/><path class="cls-2" d="M36.85,27.84a44,44,0,0,1-20.27-.13,3,3,0,0,1-2.26-3.29l1.17-9.34H35.26Z"/><path class="cls-1" d="M47,11,24,19,1,11,24,3Z"/><polygon class="cls-2" points="42.69 9.5 24 16 5.31 9.5 24 3 42.69 9.5"/><path class="cls-3" d="M5,20V12.74a1,1,0,0,1,.9-1l16-1.56a1,1,0,0,1,.2,2L7,13.65V20A1,1,0,0,1,5,20Z"/><path class="cls-4" d="M8,22v4H4V22a2,2,0,0,1,4,0Z"/><path class="cls-3" d="M8,22v3a3,3,0,0,1-3-3,4.1,4.1,0,0,1,.18-1.82A2,2,0,0,1,8,22Z"/><path class="cls-4" d="M26,11a2,2,0,1,1-2.82-1.82A2,2,0,0,1,26,11Z"/><path class="cls-3" d="M25.82,11.82a2,2,0,0,1-2.64-2.64A2,2,0,0,1,25.82,11.82Z"/><path class="cls-5" d="M44.89,35.1l-2,.34-1.39-7.87,2-.35a2,2,0,0,1,2.31,1.62l.7,3.94A2,2,0,0,1,44.89,35.1Z"/><path class="cls-6" d="M46.52,32.87a2,2,0,0,1-3-1.4l-.73-4.13.66-.12a2,2,0,0,1,2.31,1.62C46.54,33,46.52,32.77,46.52,32.87Z"/><path class="cls-5" d="M7.46,41.7l-2,.34a2,2,0,0,1-2.31-1.62l-.7-3.94a2,2,0,0,1,1-2.09c.39-.22.45-.2,2.6-.57C7.8,43.68,6.72,37.53,7.46,41.7Z"/><path class="cls-6" d="M7.14,39.93,6.49,40a2,2,0,0,1-2.31-1.62c-.73-4.11-.71-3.93-.71-4,.39-.22.45-.2,2.6-.57Z"/><path class="cls-5" d="M43.07,36.33a1,1,0,0,1-.9,1.17C22.82,39,27,38.27,8.87,43.38a1,1,0,0,1-1.25-.8c-1.07-6.06-.68-3.84-1.7-9.65a1,1,0,0,1,.9-1.17c19.16-1.4,15.67-.91,33.3-5.88a1,1,0,0,1,1.25.8C42.82,34.92,42.7,34.2,43.07,36.33Z"/><path class="cls-6" d="M42.94,35.59c-17.46,1.32-13.84.65-32.07,5.79a1,1,0,0,1-1.25-.8c-1-5.87-.67-3.82-1.57-8.91,17.38-1.3,13.72-.61,32.07-5.79a1,1,0,0,1,1.25.8C42.39,32.48,42,30.44,42.94,35.59Z"/><path class="cls-4" d="M30.13,36.68c-1.48,1.25-1.09.65-1.78,2.55-1.9.34-1.26,0-2.81,1.31-1.9-.69-1.19-.61-3.1-.27-1.24-1.48-.64-1.09-2.54-1.78-.34-1.91,0-1.27-1.31-2.82.66-1.81.62-1.1.27-3.09,1.55-1.3,1.12-.73,1.78-2.55,1.87-.31,1.29,0,2.81-1.31,1.9.69,1.19.61,3.1.27,1.24,1.48.64,1.09,2.54,1.78.34,1.91,0,1.27,1.31,2.82C29.74,35.4,29.78,34.69,30.13,36.68Z"/><path class="cls-7" d="M29.19,44l-3.13-.47L23.28,45l-.84-4.73c2-.35,1.29-.39,3.1.27,1.48-1.24.82-1,2.81-1.31C29.17,43.83,29,42.89,29.19,44Z"/><path class="cls-8" d="M29.05,43.16l-.84.15a4,4,0,0,1-4.63-3.24c.6-.11.19-.18,2,.47,1.48-1.24.82-1,2.81-1.31Z"/><path class="cls-3" d="M30.13,36.68c-1.43,1.21-1.19.93-1.35,1.37A6,6,0,0,1,21.07,30c1.45-.25.9,0,2.38-1.24,1.9.69,1.19.61,3.1.27,1.24,1.48.64,1.09,2.54,1.78.34,1.91,0,1.27,1.31,2.82C29.74,35.4,29.78,34.69,30.13,36.68Z"/><path class="cls-9" d="M26.32,35.45a2,2,0,1,1-2.17-2.79A2,2,0,0,1,26.32,35.45Z"/><path class="cls-10" d="M26.32,35.45a2,2,0,0,1-2.63-2.65A2,2,0,0,1,26.32,35.45Z"/></g></svg>