<svg xmlns="http://www.w3.org/2000/svg" viewBox="0 0 48 48"><defs><style>.cls-1{fill:#dad7e5;}.cls-2{fill:#edebf2;}.cls-3{fill:#9fdbf3;}.cls-4{fill:#b2e5fb;}.cls-5{fill:#425b72;}.cls-6{fill:#919191;}.cls-7{fill:#db5669;}.cls-8{fill:#fc6;}.cls-9{fill:#f26674;}.cls-10{fill:#9dcc6b;}.cls-11{fill:#b5e08c;}.cls-12{fill:#ffde76;}</style></defs><title>35. Language Tutorial</title><g id="_35._Language_Tutorial" data-name="35. Language Tutorial"><path class="cls-1" d="M1,30H47a0,0,0,0,1,0,0v4a2,2,0,0,1-2,2H3a2,2,0,0,1-2-2V30A0,0,0,0,1,1,30Z"/><path class="cls-2" d="M47,30v4H8a4,4,0,0,1-4-4Z"/><polygon class="cls-1" points="28 42 20 42 21.33 36 26.67 36 28 42"/><path class="cls-1" d="M17,42H31a1,1,0,0,1,1,1v3a0,0,0,0,1,0,0H16a0,0,0,0,1,0,0V43A1,1,0,0,1,17,42Z"/><path class="cls-3" d="M3,2H45a2,2,0,0,1,2,2V30a0,0,0,0,1,0,0H1a0,0,0,0,1,0,0V4A2,2,0,0,1,3,2Z"/><path class="cls-4" d="M47,4V28H30A26,26,0,0,1,4,2H45A2,2,0,0,1,47,4Z"/><path class="cls-5" d="M24,34a1,1,0,1,1,.71-1.71A1,1,0,0,1,24,34Z"/><path class="cls-2" d="M39,25H17a1,1,0,0,1,0-2H39A1,1,0,0,1,39,25Z"/><path class="cls-6" d="M20,25V23a1,1,0,0,1,2,0v2A1,1,0,0,1,20,25Z"/><polygon class="cls-7" points="9 26 9 22 13 24 9 26"/><path class="cls-8" d="M33,7v5a1,1,0,0,1-1,1H31v3l-3-3H26l-4-3V7a1,1,0,0,1,1-1h9A1,1,0,0,1,33,7Z"/><polygon class="cls-9" points="12 23.5 9 25 9 22 12 23.5"/><path class="cls-2" d="M27.56,40H26.1a3.29,3.29,0,0,1-3.21-4h3.78Z"/><path class="cls-2" d="M32,43v1H20a2,2,0,0,1-2-2H31A1,1,0,0,1,32,43Z"/><path class="cls-10" d="M26,11v5a1,1,0,0,1-1,1H20l-3,3V17H16a1,1,0,0,1-1-1V11a1,1,0,0,1,1-1h9A1,1,0,0,1,26,11Z"/><path class="cls-11" d="M26,11v4H22a5,5,0,0,1-5-5h8A1,1,0,0,1,26,11Z"/><path class="cls-12" d="M33,7v4H29a5,5,0,0,1-5-5h8A1,1,0,0,1,33,7Z"/></g></svg>