<svg xmlns="http://www.w3.org/2000/svg" viewBox="0 0 48 48"><defs><style>.cls-1{fill:#374f68;}.cls-2{fill:#425b72;}.cls-3{fill:#6fabe6;}.cls-4{fill:#82bcf4;}.cls-5{fill:#dad7e5;}.cls-6{fill:#edebf2;}</style></defs><title>13. Searching Bar</title><g id="_13._Searching_Bar" data-name="13. Searching Bar"><path class="cls-1" d="M33.71,18V30H3a2,2,0,0,1-2-2V20a2,2,0,0,1,2-2Z"/><path class="cls-2" d="M33.71,18V28H6a2,2,0,0,1-2-2V18Z"/><path class="cls-3" d="M47,24a8,8,0,1,1-10.83-7.48A8,8,0,0,1,47,24Z"/><path class="cls-4" d="M44.83,29.48c-7.85,3-14.43-6.8-8.66-13C44,13.48,50.57,23.35,44.83,29.48Z"/><rect class="cls-5" x="5" y="22" width="22" height="4" rx="1"/><path class="cls-6" d="M27,23v1H9a2,2,0,0,1-2-2H26A1,1,0,0,1,27,23Z"/><path class="cls-6" d="M38,26a3,3,0,1,1,3-3A3,3,0,0,1,38,26Zm0-4a1,1,0,0,0,0,2A1,1,0,0,0,38,22Z"/><path class="cls-6" d="M42.24,28.24c-.55,0-.46,0-3.53-3.12a1,1,0,0,1,1.41-1.41L43,26.54A1,1,0,0,1,42.24,28.24Z"/></g></svg>