<svg xmlns="http://www.w3.org/2000/svg" viewBox="0 0 48 48"><defs><style>.cls-1{fill:#dad7e5;}.cls-2{fill:#edebf2;}.cls-3{fill:#c6c3d8;}.cls-4{fill:#374f68;}.cls-5{fill:#425b72;}.cls-6{fill:#ffde76;}.cls-7{fill:#919191;}</style></defs><title>23. mortarboard on Paper</title><g id="_23._mortarboard_on_Paper" data-name="23. mortarboard on Paper"><path class="cls-1" d="M36,41h4a2,2,0,0,0,2-2V7L36,1H14a2,2,0,0,0-2,2V7Z"/><path class="cls-1" d="M36,13V45a2,2,0,0,1-2,2H8a2,2,0,0,1-2-2V9A2,2,0,0,1,8,7H30Z"/><path class="cls-2" d="M42,7c0,33.18-.1,32,0,32a4,4,0,0,1-4-4V12.17L30.83,5H19a4,4,0,0,1-4-4H36Z"/><path class="cls-2" d="M36,13V45H16a7,7,0,0,1-7-7V7H30Z"/><polygon class="cls-3" points="36 13 30 13 30 7 36 13"/><polygon class="cls-3" points="42 7 36 7 36 1 42 7"/><path class="cls-4" d="M26,21.33V27a1,1,0,0,1-1,1H17a1,1,0,0,1-1-1V21.33L21,23Z"/><path class="cls-5" d="M26,21.33V26H19a1,1,0,0,1-1-1V22l3,1Z"/><path class="cls-6" d="M14,24a1,1,0,0,1-2,0c0-3.41,0-3.92.07-4C14.27,19.25,14,18.81,14,24Z"/><path class="cls-7" d="M30,34H12a1,1,0,0,1,0-2H30A1,1,0,0,1,30,34Z"/><path class="cls-7" d="M22,38H12a1,1,0,0,1,0-2H22A1,1,0,0,1,22,38Z"/><path class="cls-7" d="M30,38H26a1,1,0,0,1,0-2h4A1,1,0,0,1,30,38Z"/><path class="cls-7" d="M30,42H12a1,1,0,0,1,0-2H30A1,1,0,0,1,30,42Z"/><path class="cls-4" d="M30,20l-9,3-9-3c.15,0,1.81-.6,9-3Z"/><path class="cls-5" d="M27,19l-6,2-6-2,6-2Z"/></g></svg>