<svg xmlns="http://www.w3.org/2000/svg" viewBox="0 0 48 48"><defs><style>.cls-1{fill:#dad7e5;}.cls-2{fill:#9fdbf3;}.cls-3{fill:#b2e5fb;}.cls-4{fill:#edebf2;}.cls-5{fill:#425b72;}.cls-6{fill:#919191;}.cls-7{fill:#db5669;}.cls-8{fill:#f26674;}</style></defs><title>32. Mathematics tutorial</title><g id="_32._Mathematics_tutorial" data-name="32. Mathematics tutorial"><path class="cls-1" d="M1,30H47a0,0,0,0,1,0,0v4a2,2,0,0,1-2,2H3a2,2,0,0,1-2-2V30a0,0,0,0,1,0,0Z"/><polygon class="cls-1" points="28 42 20 42 21.33 36 26.67 36 28 42"/><path class="cls-1" d="M17,42H31a1,1,0,0,1,1,1v3a0,0,0,0,1,0,0H16a0,0,0,0,1,0,0V43A1,1,0,0,1,17,42Z"/><path class="cls-2" d="M3,2H45a2,2,0,0,1,2,2V30a0,0,0,0,1,0,0H1a0,0,0,0,1,0,0V4A2,2,0,0,1,3,2Z"/><path class="cls-3" d="M47,4V28H30A26,26,0,0,1,4,2H45A2,2,0,0,1,47,4Z"/><path class="cls-4" d="M47,30v4H8a4,4,0,0,1-4-4Z"/><path class="cls-4" d="M27.56,40H26.1a3.29,3.29,0,0,1-3.21-4h3.78Z"/><path class="cls-4" d="M32,43v1H20a2,2,0,0,1-2-2H31A1,1,0,0,1,32,43Z"/><path class="cls-5" d="M24,34a1,1,0,1,1,.38-1.92A1,1,0,0,1,24,34Z"/><path class="cls-4" d="M39,25H17a1,1,0,0,1,0-2H39A1,1,0,0,1,39,25Z"/><path class="cls-6" d="M20,25V23a1,1,0,0,1,2,0v2A1,1,0,0,1,20,25Z"/><polygon class="cls-7" points="9 26 9 22 13 24 9 26"/><path class="cls-8" d="M28,18c-.56,0-.3.12-4.71-4.29a1,1,0,0,1,1.42-1.42l4,4A1,1,0,0,1,28,18Z"/><path class="cls-8" d="M24,18a1,1,0,0,1-.71-1.71l4-4a1,1,0,0,1,1.42,1.42C24.34,18.08,24.56,18,24,18Z"/><path class="cls-5" d="M19,18c-.72,0-.72-.28-2.83-3.45a1,1,0,0,1,1.66-1.1l.92,1.37,2.31-6.17C21.4,7.76,21.37,8,31,8a1,1,0,0,1,0,2H22.69C19.75,17.85,19.94,18,19,18Z"/><polygon class="cls-8" points="12 23.5 9 25 9 22 12 23.5"/></g></svg>