<svg xmlns="http://www.w3.org/2000/svg" viewBox="0 0 48 48"><defs><style>.cls-1{fill:#9fdbf3;}.cls-2{fill:#dad7e5;}.cls-3{fill:#b2e5fb;}.cls-4{fill:#edebf2;}.cls-5{fill:#425b72;}.cls-6{fill:#919191;}.cls-7{fill:#db5669;}.cls-8{fill:#a87e6b;}.cls-9{fill:#be927c;}.cls-10{fill:#f26674;}.cls-11{fill:#ffde76;}.cls-12{fill:#82bcf4;}.cls-13{fill:#b5e08c;}</style></defs><title>30. Art tutorial</title><g id="_30._Art_tutorial" data-name="30. Art tutorial"><path class="cls-1" d="M3,2H45a2,2,0,0,1,2,2V30a0,0,0,0,1,0,0H1a0,0,0,0,1,0,0V4A2,2,0,0,1,3,2Z"/><path class="cls-2" d="M1,30H47a0,0,0,0,1,0,0v4a2,2,0,0,1-2,2H3a2,2,0,0,1-2-2V30A0,0,0,0,1,1,30Z"/><path class="cls-3" d="M47,4V28H30A26,26,0,0,1,4,2H45A2,2,0,0,1,47,4Z"/><path class="cls-4" d="M47,30v4H8a4,4,0,0,1-4-4Z"/><path class="cls-5" d="M24,34a1,1,0,0,1-1-1,1,1,0,1,1,1,1Z"/><polygon class="cls-2" points="28 42 20 42 21.33 36 26.67 36 28 42"/><path class="cls-2" d="M17,42H31a1,1,0,0,1,1,1v3a0,0,0,0,1,0,0H16a0,0,0,0,1,0,0V43A1,1,0,0,1,17,42Z"/><path class="cls-4" d="M39,25H17a1,1,0,0,1,0-2H39A1,1,0,0,1,39,25Z"/><path class="cls-6" d="M20,25V23a1,1,0,0,1,2,0v2A1,1,0,0,1,20,25Z"/><polygon class="cls-7" points="9 26 9 22 13 24 9 26"/><path class="cls-8" d="M24,19c-6.74,0-9.55-7.36-4.2-10.79a7.93,7.93,0,0,1,6.67-.82,3,3,0,0,0,4.28,4C32,15,28.81,19,24,19Z"/><path class="cls-9" d="M30.2,15.79c-5.89,3.83-13.87-1.93-10.4-7.58a7.93,7.93,0,0,1,6.67-.82,3,3,0,0,0,4.28,4A5.24,5.24,0,0,1,30.2,15.79Z"/><path class="cls-10" d="M21.29,10.29a1,1,0,0,1,1.42,1.42A1,1,0,0,1,21.29,10.29Z"/><path class="cls-11" d="M21,15a1,1,0,1,1,.56-1.83A1,1,0,0,1,21,15Z"/><path class="cls-12" d="M24,17a1,1,0,1,1,.55-1.83A1,1,0,0,1,24,17Z"/><path class="cls-13" d="M27,16a1,1,0,1,1,.92-1.38A1,1,0,0,1,27,16Z"/><path class="cls-4" d="M27.56,40H26.1a3.29,3.29,0,0,1-3.21-4h3.78Z"/><path class="cls-4" d="M32,43v1H20a2,2,0,0,1-2-2H31A1,1,0,0,1,32,43Z"/><polygon class="cls-10" points="12 23.5 9 25 9 22 12 23.5"/></g></svg>