<svg xmlns="http://www.w3.org/2000/svg" viewBox="0 0 48 48"><defs><style>.cls-1{fill:#dad7e5;}.cls-2{fill:#edebf2;}.cls-3{fill:#9fdbf3;}.cls-4{fill:#b2e5fb;}.cls-5{fill:#425b72;}.cls-6{fill:#ffde76;}.cls-7{fill:#919191;}.cls-8{fill:#db5669;}.cls-9{fill:#f26674;}.cls-10{fill:#374f68;}</style></defs><title>10. Video Learning</title><g id="_10._Video_Learning" data-name="10. Video Learning"><rect class="cls-1" x="1" y="6" width="46" height="36" rx="2"/><path class="cls-2" d="M45,6H3V37a2,2,0,0,0,2,2H47V8A2,2,0,0,0,45,6Z"/><rect class="cls-3" x="7" y="10" width="36" height="28"/><path class="cls-4" d="M43,36H35A26,26,0,0,1,9,10c0-.1-1.18,0,34,0Z"/><path class="cls-5" d="M4.71,23.29a1,1,0,0,1-1.42,1.42A1,1,0,0,1,4.71,23.29Z"/><path class="cls-2" d="M38,33H19a1,1,0,0,1,0-2H38A1,1,0,0,1,38,33Z"/><path class="cls-6" d="M18,22a1,1,0,0,1-2,0c0-3.41,0-3.92.07-4C18.27,17.25,18,16.81,18,22Z"/><path class="cls-7" d="M22,33V31a1,1,0,0,1,2,0v2A1,1,0,0,1,22,33Z"/><polygon class="cls-8" points="15 32 11 34 11 30 15 32"/><polygon class="cls-9" points="14 31.5 11 33 11 30 14 31.5"/><path class="cls-10" d="M34,18l-9,3c-8.58-2.87-3.2-1.06-9-3,.15,0,1.81-.6,9-3Z"/><path class="cls-5" d="M31,17l-6,2-6-2,6-2Z"/><path class="cls-10" d="M30,19.33V24a1,1,0,0,1-1,1H21a1,1,0,0,1-1-1V19.33L25,21Z"/><path class="cls-5" d="M30,19.33V23H23a1,1,0,0,1-1-1V20l3,1Z"/></g></svg>