<svg xmlns="http://www.w3.org/2000/svg" viewBox="0 0 48 48"><defs><style>.cls-1{fill:#dad7e5;}.cls-2{fill:#edebf2;}.cls-3{fill:#9fdbf3;}.cls-4{fill:#b2e5fb;}.cls-5{fill:#ffde76;}.cls-6{fill:#374f68;}.cls-7{fill:#425b72;}</style></defs><title>5. Mortarboard on Laptop</title><g id="_5._Mortarboard_on_Laptop" data-name="5. Mortarboard on Laptop"><path class="cls-1" d="M47,37v2a2,2,0,0,1-2,2H3a2,2,0,0,1-2-2V37H20l1,1h6l1-1Z"/><path class="cls-2" d="M47,37v2H6a2,2,0,0,1-2-2H20l1,1h6l1-1Z"/><path class="cls-1" d="M44,9V37H28l-1,1H21l-1-1H4V9A2,2,0,0,1,6,7H42A2,2,0,0,1,44,9Z"/><path class="cls-2" d="M44,9V35H10a3,3,0,0,1-3-3V7H42A2,2,0,0,1,44,9Z"/><rect class="cls-3" x="8" y="11" width="32" height="22"/><path class="cls-4" d="M40,11V31H14a3,3,0,0,1-3-3V11Z"/><path class="cls-5" d="M16,24a1,1,0,0,1-2,0c0-3.92,0-4.92.06-5C16.37,18.3,16,17.57,16,24Z"/><path class="cls-6" d="M34,19,24,22c-13.47-4-9.15-2.83-10-3l1.62-.48L24,16Z"/><path class="cls-7" d="M30.67,18,24,20l-6.66-2L24,16Z"/><path class="cls-6" d="M30,20.2V27a1,1,0,0,1-1,1H19a1,1,0,0,1-1-1V20.2L24,22Z"/><path class="cls-7" d="M30,20.2V26H21a1,1,0,0,1-1-1V20.8L24,22Z"/></g></svg>