<svg xmlns="http://www.w3.org/2000/svg" viewBox="0 0 48 48"><defs><style>.cls-1{fill:#f6ccaf;}.cls-2{fill:#ffdec7;}.cls-3{fill:#6fabe6;}.cls-4{fill:#82bcf4;}.cls-5{fill:#ffde76;}.cls-6{fill:#dad7e5;}.cls-7{fill:#edebf2;}.cls-8{fill:#374f68;}.cls-9{fill:#425b72;}.cls-10{fill:#db5669;}.cls-11{fill:#f26674;}</style></defs><title>6. Student in front of the laptop</title><g id="_6._Student_in_front_of_the_laptop" data-name="6. Student in front of the laptop"><path class="cls-1" d="M42,41v3a3,3,0,0,1-3,3H9a3,3,0,0,1-3-3V41Z"/><path class="cls-2" d="M42,41v1a3,3,0,0,1-3,3H9a3,3,0,0,1-3-3V41Z"/><path class="cls-3" d="M6,41l.77-9.25a4,4,0,0,1,2.89-3.51L21,25V21.42h6V25l11.34,3.24a4,4,0,0,1,2.89,3.51L42,41Z"/><path class="cls-4" d="M42,41H8.08l.69-8.25a4,4,0,0,1,2.89-3.51L23,26V22.42h4V25c12.19,3.48,12,3.28,12.92,4.12C41.49,30.54,41.19,31.32,42,41Z"/><path class="cls-1" d="M32,13h.5a2.5,2.5,0,0,0,0-5H32Z"/><path class="cls-5" d="M11,5V1a1,1,0,0,1,2,0V5A1,1,0,0,1,11,5Z"/><path class="cls-6" d="M35.92,34.07c-.62,8.79-.7,9.72-.92,12.93H13c-.54-7.55-.33-4.61-.92-12.93a1,1,0,0,1,1-1.07H34.93A1,1,0,0,1,35.92,34.07Z"/><path class="cls-7" d="M35.92,34.07c-.59,8.34-.41,5.88-.78,10.93H21a6.47,6.47,0,0,1-6.45-6s-.16-2.34-.42-6H34.92A1,1,0,0,1,35.92,34.07Z"/><path class="cls-1" d="M32,8v6a8,8,0,0,1-13.66,5.66C15.38,16.68,16,13.51,16,8Z"/><path class="cls-2" d="M32,8v6a8,8,0,0,1-3.47,6.59,8,8,0,0,1-8.19-1.93C17.5,15.8,18,13,18,8Z"/><rect class="cls-8" x="16" y="1" width="16" height="7"/><path class="cls-9" d="M32,1V6H23a5,5,0,0,1-5-5Z"/><path class="cls-1" d="M27,21.42V25l-3,3.09L21,25V21.42Z"/><polygon class="cls-2" points="27 21.42 27 25 25 27.06 23 25 23 21.42 27 21.42"/><path class="cls-3" d="M30.14,25.9,28,30l-3.45-2.48L27,25Z"/><path class="cls-3" d="M23.45,27.52,20,30l-2.14-4.1L21,25Z"/><path class="cls-4" d="M22.72,26.77,21,28l-1.36-2.61L21,25Z"/><path class="cls-4" d="M25.28,26.77,27,28l1.36-2.61L27,25Z"/><path class="cls-10" d="M26.66,29c-.58,3.48-.43,2.63-.66,4H22l-.66-4,2.11-1.52.55.57.55-.57Z"/><path class="cls-11" d="M26.66,29l-.49,3a3.74,3.74,0,0,1-3.69-3.13l-.1-.58,1.07-.77.55.57.55-.57Z"/><path class="cls-9" d="M38,2H10a1,1,0,0,1,0-2H38A1,1,0,0,1,38,2Z"/><path class="cls-1" d="M16,8v5h-.5C12.43,13,11.72,8,16,8Z"/><path class="cls-2" d="M16,8V12A2.5,2.5,0,0,1,14,9.5a2.47,2.47,0,0,1,.31-1.2A3.13,3.13,0,0,1,16,8Z"/><path class="cls-2" d="M32,8V12A2.5,2.5,0,0,0,34,9.5a2.47,2.47,0,0,0-.31-1.2A3.13,3.13,0,0,0,32,8Z"/></g></svg>