<svg xmlns="http://www.w3.org/2000/svg" viewBox="0 0 48 48"><defs><style>.cls-1{fill:#dad7e5;}.cls-2{fill:#edebf2;}.cls-3{fill:#9fdbf3;}.cls-4{fill:#b2e5fb;}.cls-5{fill:#9dcc6b;}.cls-6{fill:#425b72;}.cls-7{fill:#b5e08c;}</style></defs><title>24. Ebook</title><g id="_24._Ebook" data-name="24. Ebook"><rect class="cls-1" x="1" y="1" width="36" height="46" rx="2"/><path class="cls-2" d="M37,3V45H6a2,2,0,0,1-2-2V1H35A2,2,0,0,1,37,3Z"/><rect class="cls-3" x="5" y="5" width="28" height="36"/><path class="cls-4" d="M7,5v8A26,26,0,0,0,33,39c.1,0,0,1.18,0-34Z"/><rect class="cls-5" x="9" y="29" width="8" height="8"/><path class="cls-6" d="M19,10H9A1,1,0,0,1,9,8H19A1,1,0,0,1,19,10Z"/><path class="cls-6" d="M29,14H9a1,1,0,0,1,0-2H29A1,1,0,0,1,29,14Z"/><path class="cls-6" d="M29,18H9a1,1,0,0,1,0-2H29A1,1,0,0,1,29,18Z"/><path class="cls-6" d="M29,26H9a1,1,0,0,1,0-2H29A1,1,0,0,1,29,26Z"/><path class="cls-6" d="M29,30H21a1,1,0,0,1,0-2h8A1,1,0,0,1,29,30Z"/><path class="cls-6" d="M29,34H21a1,1,0,0,1,0-2h8A1,1,0,0,1,29,34Z"/><path class="cls-6" d="M29,38H21a1,1,0,0,1,0-2h8A1,1,0,0,1,29,38Z"/><path class="cls-6" d="M14,22H9a1,1,0,0,1,0-2h5A1,1,0,0,1,14,22Z"/><path class="cls-6" d="M29,22H18a1,1,0,0,1,0-2H29A1,1,0,0,1,29,22Z"/><path class="cls-6" d="M19.71,43.29a1,1,0,0,0-1.42,1.42A1,1,0,0,0,19.71,43.29Z"/><path class="cls-7" d="M17,29v6H15.25c-3,0-5.25-2.79-5.25-6Z"/><path class="cls-1" d="M45,5.5a2,2,0,0,0-2,2v30l2,5,2-5V7.5A2,2,0,0,0,45,5.5Z"/><path class="cls-2" d="M46,5.77A2,2,0,0,0,45,7.5v30L46,40l1-2.5V7.5A2,2,0,0,0,46,5.77Z"/></g></svg>