<svg xmlns="http://www.w3.org/2000/svg" viewBox="0 0 48 48"><defs><style>.cls-1{fill:#dad7e5;}.cls-2{fill:#edebf2;}.cls-3{fill:#c6c3d8;}.cls-4{fill:#6fabe6;}.cls-5{fill:#82bcf4;}</style></defs><title>20. Documents</title><g id="_20._Documents" data-name="20. Documents"><path class="cls-1" d="M8,45a2,2,0,0,0,2,2H36a2,2,0,0,0,2-2V13L32,7H10A2,2,0,0,0,8,9Z"/><path class="cls-1" d="M44,7V39a2,2,0,0,1-2,2H16a2,2,0,0,1-2-2V3a2,2,0,0,1,2-2H38Z"/><path class="cls-2" d="M44,7c0,33.18-.1,32,0,32a4,4,0,0,1-4-4V12.17L32.83,5H21a4,4,0,0,1-4-4H38Z"/><path class="cls-2" d="M38,13V45H18a7,7,0,0,1-7-7V7H32Z"/><polygon class="cls-3" points="38 13 32 13 32 7 38 13"/><polygon class="cls-3" points="44 7 38 7 38 1 44 7"/><rect class="cls-4" x="4" y="25" width="28" height="16" rx="2"/><path class="cls-5" d="M32,27V39H21A14,14,0,0,1,7,25H30A2,2,0,0,1,32,27Z"/><path class="cls-2" d="M10,38H8a1,1,0,0,1-1-1V29a1,1,0,0,1,1-1h2a3,3,0,0,1,3,3v4A3,3,0,0,1,10,38ZM9,36h1a1,1,0,0,0,1-1V31a1,1,0,0,0-1-1H9Z"/><path class="cls-2" d="M18,38a3,3,0,0,1-3-3V31a3,3,0,0,1,6,0v4A3,3,0,0,1,18,38Zm-1-7v4a1,1,0,0,0,2,0V31A1,1,0,0,0,17,31Z"/><path class="cls-2" d="M26,38a3,3,0,0,1-3-3V31a3,3,0,0,1,6,0,1,1,0,0,1-2,0,1,1,0,0,0-2,0v4a1,1,0,0,0,2,0,1,1,0,0,1,1-1C29.91,34,29,38,26,38Z"/></g></svg>