<svg xmlns="http://www.w3.org/2000/svg" viewBox="0 0 48 48"><defs><style>.cls-1{fill:#dad7e5;}.cls-2{fill:#edebf2;}.cls-3{fill:#9fdbf3;}.cls-4{fill:#b2e5fb;}.cls-5{fill:#374f68;}.cls-6{fill:#425b72;}.cls-7{fill:#ffde76;}</style></defs><title>2. Mortarboard on Monitor-Computer</title><g id="_2._Mortarboard_on_Monitor_Computer" data-name="2. Mortarboard on Monitor/Computer"><path class="cls-1" d="M47,30v4a2,2,0,0,1-2,2H3a2,2,0,0,1-2-2V30Z"/><path class="cls-2" d="M47,30v4H8a4,4,0,0,1-4-4Z"/><path class="cls-3" d="M47,4V30H1V4A2,2,0,0,1,3,2H45A2,2,0,0,1,47,4Z"/><path class="cls-4" d="M47,4V28H30A26,26,0,0,1,4,2H45A2,2,0,0,1,47,4Z"/><path class="cls-1" d="M28,42H20l1.33-6h5.34C27.74,40.81,27.45,39.48,28,42Z"/><path class="cls-2" d="M27.56,40H26.1a3.29,3.29,0,0,1-3.21-4h3.78Z"/><path class="cls-1" d="M32,43v3H16V43a1,1,0,0,1,1-1H31A1,1,0,0,1,32,43Z"/><path class="cls-2" d="M32,43v1H20a2,2,0,0,1-2-2H31A1,1,0,0,1,32,43Z"/><path class="cls-5" d="M34,14.25V24a2,2,0,0,1-2,2H16a2,2,0,0,1-2-2V14.25L24,18Z"/><path class="cls-6" d="M34,14.25V24H18a2,2,0,0,1-2-2V15l8,3Z"/><path class="cls-7" d="M8.88,19,9,12.73a1,1,0,0,1,2,0L10.88,19A1,1,0,0,1,8.88,19Z"/><path class="cls-5" d="M40,12,24,18,8,12,24,6Z"/><polygon class="cls-6" points="37.33 11 24 16 10.67 11 24 6 37.33 11"/><path class="cls-6" d="M23.29,33.71a1,1,0,0,1,1.09-1.63A1,1,0,1,1,23.29,33.71Z"/></g></svg>