<svg xmlns="http://www.w3.org/2000/svg" viewBox="0 0 48 48"><defs><style>.cls-1{fill:#f6ccaf;}.cls-2{fill:#ffdec7;}.cls-3{fill:#919191;}.cls-4{fill:#7c7d7d;}.cls-5{fill:#f16f39;}.cls-6{fill:#f8834b;}.cls-7{fill:#ffde76;}.cls-8{fill:#db5669;}.cls-9{fill:#f26674;}.cls-10{fill:#6fabe6;}.cls-11{fill:#82bcf4;}</style></defs><title>15. Pencil Rocket</title><g id="_15._Pencil_Rocket" data-name="15. Pencil Rocket"><path class="cls-1" d="M30,13H18L24,1l1,2L23.6,5.79A2.8,2.8,0,0,0,26,5Z"/><path class="cls-2" d="M30,13H20l3.6-7.21A2.8,2.8,0,0,0,26,5Z"/><path class="cls-3" d="M26,5a2.84,2.84,0,0,1-4,0l2-4Z"/><path class="cls-4" d="M25,3,23.6,5.79A2.8,2.8,0,0,1,22,5l2-4Z"/><path class="cls-5" d="M30,13V41H18V13l3-1,3,1,3-1Z"/><path class="cls-6" d="M30,13c0,27.19-.1,26,0,26a9,9,0,0,1-9-9V12l3,1,3-1Z"/><path class="cls-7" d="M25,12.67V41H23V12.67C24.2,13.07,23.74,13.09,25,12.67Z"/><path class="cls-8" d="M30,41v4a2,2,0,0,1-2,2H20a2,2,0,0,1-2-2V41Z"/><path class="cls-9" d="M30,41v4H25a4,4,0,0,1-4-4Z"/><polygon class="cls-10" points="18 27 18 43 7 43 7 40 18 27"/><polygon class="cls-11" points="18 29.36 18 41 9 41 9 40 18 29.36"/><polygon class="cls-10" points="30 43 41 43 41 40 30 27 30 43"/><polygon class="cls-11" points="30 29.36 30 41 39 41 39 40 30 29.36"/></g></svg>