<svg xmlns="http://www.w3.org/2000/svg" viewBox="0 0 48 48"><defs><style>.cls-1{fill:#fc6;}.cls-2{fill:#ffde76;}.cls-3{fill:#9dcc6b;}.cls-4{fill:#b5e08c;}.cls-5{fill:#edebf2;}</style></defs><title>36. Q and A</title><g id="_36._Q_and_A" data-name="36. Q and A"><path class="cls-1" d="M47,42l-6.82-2c-12.31,6-28.7-2.12-24.56-12,6.26.42,14.32-2.09,16.76-7.92,11.16.65,18.36,9.09,12.66,16.25C45.32,37.1,45,36.18,47,42Z"/><path class="cls-2" d="M45,36.29l.19.55C34.56,44,16.59,38,18.07,28c6.83-.3,12.48-3.56,14.31-7.93C43.54,20.69,50.74,29.13,45,36.29Z"/><path class="cls-3" d="M33,17c0,7.14-9.2,11.51-17.38,11C4.46,27.31-2.74,18.87,3,11.71L1,6,7.7,8c.37.09,3.38-2,9.3-2C25.84,6,33,10.92,33,17Z"/><path class="cls-4" d="M33,17a9.13,9.13,0,0,1-3.5,6.86C18.83,29.24,4,23.92,4,15A9.21,9.21,0,0,1,7.7,8l.12,0C18.35,2.89,33,8.1,33,17Z"/><path class="cls-5" d="M17,22a4,4,0,0,1-4-4V16a4,4,0,0,1,8,0v2A4,4,0,0,1,17,22Zm0-8a2,2,0,0,0-2,2v2a2,2,0,0,0,4,0V16A2,2,0,0,0,17,14Z"/><path class="cls-5" d="M20,22c-.54,0-.57-.15-2.71-2.29a1,1,0,0,1,1.42-1.42l2,2A1,1,0,0,1,20,22Z"/><path class="cls-5" d="M28,36a1,1,0,0,1-.94-1.35l3-8a1,1,0,0,1,1.88.7C28.69,36,28.93,36,28,36Z"/><path class="cls-5" d="M34,36c-1,0-.71,0-3.94-8.65a1,1,0,0,1,1.88-.7l3,8A1,1,0,0,1,34,36Z"/><path class="cls-5" d="M32.88,33H29.13a1,1,0,0,1,0-2h3.75A1,1,0,0,1,32.88,33Z"/></g></svg>