<svg xmlns="http://www.w3.org/2000/svg" viewBox="0 0 48 48"><defs><style>.cls-1{fill:#dad7e5;}.cls-2{fill:#edebf2;}.cls-3{fill:#6fabe6;}.cls-4{fill:#82bcf4;}.cls-5{fill:#f6ccaf;}.cls-6{fill:#9dcc6b;}.cls-7{fill:#fc6;}.cls-8{fill:#ffdec7;}.cls-9{fill:#b5e08c;}.cls-10{fill:#ffde76;}.cls-11{fill:#f26674;}</style></defs><title>40. book on the website</title><g id="_40._book_on_the_website" data-name="40. book on the website"><path class="cls-1" d="M1,9H47a0,0,0,0,1,0,0V45a2,2,0,0,1-2,2H3a2,2,0,0,1-2-2V9A0,0,0,0,1,1,9Z"/><path class="cls-2" d="M47,9V45H40A36.11,36.11,0,0,1,4,9Z"/><path class="cls-3" d="M3,1H45a2,2,0,0,1,2,2V9a0,0,0,0,1,0,0H1A0,0,0,0,1,1,9V3A2,2,0,0,1,3,1Z"/><path class="cls-4" d="M47,3V7H10A6,6,0,0,1,4,1H45A2,2,0,0,1,47,3Z"/><path class="cls-5" d="M35,38v4H15a2,2,0,0,1-1.41-3.41C14.4,37.75,13.48,38,35,38Z"/><rect class="cls-6" x="17" y="14" width="18" height="24"/><path class="cls-7" d="M17,14V38H15a2,2,0,0,0-2,2V16a2,2,0,0,1,2-2Z"/><path class="cls-8" d="M35,38v2H17a2,2,0,0,1-2-2Z"/><path class="cls-9" d="M35,14c0,23.28-.1,22,0,22A16,16,0,0,1,19,20V14Z"/><path class="cls-10" d="M17,14c0,23.28-.1,22,0,22a2,2,0,0,1-2-2V14Z"/><rect class="cls-7" x="22" y="19" width="8" height="4"/><path class="cls-10" d="M30,19v2H26a2,2,0,0,1-2-2Z"/><path class="cls-2" d="M30,30H22a1,1,0,0,1,0-2h8A1,1,0,0,1,30,30Z"/><path class="cls-2" d="M28,34H24a1,1,0,0,1,0-2h4A1,1,0,0,1,28,34Z"/><path class="cls-11" d="M5,6A1,1,0,1,1,6,5,1,1,0,0,1,5,6Z"/><path class="cls-10" d="M9,6a1,1,0,1,1,.92-.62A1,1,0,0,1,9,6Z"/><path class="cls-9" d="M13,6a1,1,0,1,1,1-1A1,1,0,0,1,13,6Z"/></g></svg>