<svg xmlns="http://www.w3.org/2000/svg" viewBox="0 0 48 48"><defs><style>.cls-1{fill:#9fdbf3;}.cls-2{fill:#b2e5fb;}.cls-3{fill:#dad7e5;}.cls-4{fill:#edebf2;}.cls-5{fill:#425b72;}.cls-6{fill:#f6ccaf;}.cls-7{fill:#ffdec7;}.cls-8{fill:#9dcc6b;}.cls-9{fill:#b5e08c;}.cls-10{fill:#fc6;}.cls-11{fill:#ffde76;}</style></defs><title>38. book on monitor-computer</title><g id="_38._book_on_monitor_computer" data-name="38. book on monitor/computer"><path class="cls-1" d="M46,8V33H2V8A2,2,0,0,1,4,6H44A2,2,0,0,1,46,8Z"/><path class="cls-2" d="M46,8V31H30A25,25,0,0,1,5,6H44A2,2,0,0,1,46,8Z"/><path class="cls-3" d="M46,33v4a2,2,0,0,1-2,2H4a2,2,0,0,1-2-2V33Z"/><path class="cls-4" d="M46,33v4H9a4,4,0,0,1-4-4Z"/><path class="cls-5" d="M24,37a1,1,0,1,1,.92-1.38A1,1,0,0,1,24,37Z"/><path class="cls-3" d="M27,43H21l1.33-4h3.34C26.47,41.4,26.17,40.48,27,43Z"/><path class="cls-4" d="M26.34,41H25.11a1.53,1.53,0,0,1-1.44-2h2Z"/><path class="cls-3" d="M31,44v3H17V44a1,1,0,0,1,1-1H30A1,1,0,0,1,31,44Z"/><path class="cls-4" d="M31,44v1H21a2,2,0,0,1-2-2H30A1,1,0,0,1,31,44Z"/><path class="cls-6" d="M35,25v4H15a2,2,0,0,1-1.41-3.41C14.4,24.75,13.48,25,35,25Z"/><path class="cls-7" d="M35,25v2H17a2,2,0,0,1-2-2Z"/><rect class="cls-8" x="17" y="1" width="18" height="24"/><path class="cls-9" d="M35,1c0,23.28-.1,22,0,22A16,16,0,0,1,19,7V1Z"/><path class="cls-10" d="M17,1V25H15a2,2,0,0,0-2,2V3a2,2,0,0,1,2-2Z"/><path class="cls-11" d="M17,1c0,23.28-.1,22,0,22a2,2,0,0,1-2-2V1Z"/><path class="cls-4" d="M30,17H22a1,1,0,0,1,0-2h8A1,1,0,0,1,30,17Z"/><path class="cls-4" d="M28,21H24a1,1,0,0,1,0-2h4A1,1,0,0,1,28,21Z"/><rect class="cls-10" x="22" y="6" width="8" height="4"/><path class="cls-11" d="M30,6V8H26a2,2,0,0,1-2-2Z"/></g></svg>