<svg xmlns="http://www.w3.org/2000/svg" viewBox="0 0 48 48"><defs><style>.cls-1{fill:#fc6;}.cls-2{fill:#ffde76;}.cls-3{fill:#dad7e5;}.cls-4{fill:#7c7d7d;}.cls-5{fill:#919191;}.cls-6{fill:#edebf2;}.cls-7{fill:#374f68;}.cls-8{fill:#425b72;}</style></defs><title>18. Idea Bulb Mortagboard</title><g id="_18._Idea_Bulb_Mortagboard" data-name="18. Idea Bulb Mortagboard"><path class="cls-1" d="M33,21.92c0,5.19-4,6.17-4,13.08-11.12,0-10,.08-10-.19,0-6.5-4-7.68-4-12.81a9,9,0,0,1,9.25-9A9.11,9.11,0,0,1,33,21.92Z"/><path class="cls-2" d="M33,21.92c0,4.71-3.1,5.68-3.87,11.08-7.45,0-7.13.08-7.13-.19A14.37,14.37,0,0,0,19.49,25a9,9,0,0,1,1.13-11.29A9,9,0,0,1,33,21.92Z"/><path class="cls-3" d="M30,37a2,2,0,0,1-2,2H20a2,2,0,0,1,0-4h8A2,2,0,0,1,30,37Z"/><path class="cls-3" d="M28,43H20a2,2,0,0,1,0-4h8A2,2,0,0,1,28,43Z"/><path class="cls-4" d="M28,43a4,4,0,0,1-8,0Z"/><path class="cls-5" d="M28,43a4,4,0,0,1-1.28,2.93A4,4,0,0,1,22.13,43Z"/><path class="cls-6" d="M30,37H22a2,2,0,0,1-2-2h8A2,2,0,0,1,30,37Z"/><path class="cls-6" d="M30,41H22a2,2,0,0,1-2-2h8A2,2,0,0,1,30,41Z"/><path class="cls-2" d="M10,13V6.1a1,1,0,0,1,2,0V13A1,1,0,0,1,10,13Z"/><path class="cls-7" d="M39,5.5,24,10,9,5.5,24,1Z"/><path class="cls-8" d="M35.67,4.5,24,8,12.33,4.5,24,1Z"/><path class="cls-7" d="M33,7.3V17.5A1.51,1.51,0,0,1,31.5,19h-15A1.51,1.51,0,0,1,15,17.5V7.3L24,10Z"/><path class="cls-8" d="M33,7.3V17H18.5A1.51,1.51,0,0,1,17,15.5V7.9L24,10Z"/><path class="cls-2" d="M11,23H9a1,1,0,0,1,0-2h2A1,1,0,0,1,11,23Z"/><path class="cls-2" d="M11,30.5a1,1,0,0,1-.5-1.87l1.73-1a1,1,0,0,1,1,1.74C11.39,30.44,11.38,30.5,11,30.5Z"/><path class="cls-2" d="M37,30.5c-.35,0-.34,0-2.23-1.13a1,1,0,0,1,1-1.74l1.73,1A1,1,0,0,1,37,30.5Z"/><path class="cls-2" d="M39,23H37a1,1,0,0,1,0-2h2A1,1,0,0,1,39,23Z"/></g></svg>