<svg xmlns="http://www.w3.org/2000/svg" viewBox="0 0 48 48"><defs><style>.cls-1{fill:#9dcc6b;}.cls-2{fill:#b5e08c;}.cls-3{fill:#dad7e5;}.cls-4{fill:#edebf2;}.cls-5{fill:#fc6;}.cls-6{fill:#ffde76;}</style></defs><title>12. Ask sign</title><g id="_12._Ask_sign" data-name="12. Ask sign"><circle class="cls-1" cx="24" cy="24" r="23"/><path class="cls-2" d="M47,24a22.91,22.91,0,0,1-8.81,18.09A22.88,22.88,0,0,1,27,45C5.28,45-4.37,17.34,12.81,3.91A23,23,0,0,1,47,24Z"/><circle class="cls-3" cx="24" cy="24" r="19"/><path class="cls-4" d="M43,24a19,19,0,0,1-7,14.73A18.83,18.83,0,0,1,27,41C9.14,41,1.21,18.52,15,7.27A19,19,0,0,1,43,24Z"/><rect class="cls-5" x="22" y="34" width="4" height="4"/><path class="cls-6" d="M26,34v3a3,3,0,0,1-3-3Z"/><path class="cls-5" d="M26,30c-4.6,0-4,.09-4-.22a10.91,10.91,0,0,1,4.44-8.61,4,4,0,0,0,1.47-4.05c-1-4.63-7.91-3.84-7.91.88H16a8,8,0,1,1,12.88,6.34A7,7,0,0,0,26,30Z"/><path class="cls-5" d="M28.88,24.34A6.92,6.92,0,0,0,26,30c-4.59,0-4,.09-4-.22a10.91,10.91,0,0,1,4.44-8.61A4,4,0,1,0,20,18H18a8,8,0,0,1,3-6.21C28.53,5.63,36.58,18.4,28.88,24.34Z"/><path class="cls-6" d="M28.88,24.34A6.92,6.92,0,0,0,26,30c-2.3,0-2,.09-2-.22a10.91,10.91,0,0,1,4.44-8.61A4,4,0,0,0,25,14.12,4,4,0,0,0,20,18H18a8,8,0,0,1,7-7.93A8,8,0,0,1,28.88,24.34Z"/></g></svg>