<svg xmlns="http://www.w3.org/2000/svg" viewBox="0 0 48 48"><defs><style>.cls-1{fill:#fc6;}.cls-2{fill:#ffde76;}.cls-3{fill:#6fabe6;}.cls-4{fill:#82bcf4;}.cls-5{fill:#9dcc6b;}.cls-6{fill:#edebf2;}.cls-7{fill:#db5669;}.cls-8{fill:#f26674;}.cls-9{fill:#f6ccaf;}.cls-10{fill:#ffdec7;}.cls-11{fill:#b5e08c;}</style></defs><title>21. Discussion</title><g id="_21._Discussion" data-name="21. Discussion"><path class="cls-1" d="M36,2v8a1,1,0,0,1-1,1H34v4l-4-4H26L22,5V2a1,1,0,0,1,1-1H35A1,1,0,0,1,36,2Z"/><path class="cls-2" d="M36,2V9H32a8,8,0,0,1-8-8H35A1,1,0,0,1,36,2Z"/><path class="cls-3" d="M47,38v6H31V38a4,4,0,0,1,2.36-3.64c1-.47,1.75-.36,3.64-.36l2,2,2-2h2A4,4,0,0,1,47,38Z"/><path class="cls-4" d="M47,38v4H39c-4.44,0-7-4.64-5.64-7.64,1-.47,1.75-.36,3.64-.36l2,2,2-2h2A4,4,0,0,1,47,38Z"/><path class="cls-3" d="M17,38v6H1V38a4,4,0,0,1,2.36-3.64C4.39,33.89,5.11,34,7,34l2,2,2-2h2A4,4,0,0,1,17,38Z"/><path class="cls-4" d="M17,38v4H9c-4.44,0-7-4.64-5.64-7.64C4.39,33.89,5.11,34,7,34l2,2,2-2h2A4,4,0,0,1,17,38Z"/><path class="cls-5" d="M26,6v8a1,1,0,0,1-1,1H18l-4,4V15H13a1,1,0,0,1-1-1V6a1,1,0,0,1,1-1H25A1,1,0,0,1,26,6Z"/><path class="cls-6" d="M28.29,5.29a1,1,0,0,1,1.42,1.42A1,1,0,0,1,28.29,5.29Z"/><path class="cls-6" d="M32,7a1,1,0,1,1,1-1A1,1,0,0,1,32,7Z"/><path class="cls-7" d="M32,41v6H16V41a4,4,0,0,1,2.36-3.64c1-.47,1.75-.36,3.64-.36l2,2,2-2h2A4,4,0,0,1,32,41Z"/><path class="cls-8" d="M32,41v4H24c-4.44,0-7-4.64-5.64-7.64,1-.47,1.75-.36,3.64-.36l2,2,2-2h2A4,4,0,0,1,32,41Z"/><path class="cls-9" d="M28,29a4,4,0,1,1-5.64-3.64A4,4,0,0,1,28,29Z"/><path class="cls-10" d="M27.64,30.64a4,4,0,0,1-5.28-5.28A4,4,0,0,1,27.64,30.64Z"/><circle class="cls-9" cx="39" cy="26" r="4"/><circle class="cls-9" cx="9" cy="26" r="4"/><path class="cls-10" d="M42.64,27.64a4,4,0,0,1-5.28-5.28A4,4,0,0,1,42.64,27.64Z"/><path class="cls-10" d="M12.64,27.64a4,4,0,0,1-5.28-5.28A4,4,0,0,1,12.64,27.64Z"/><path class="cls-11" d="M26,6v7H22a8,8,0,0,1-8-8H25A1,1,0,0,1,26,6Z"/><path class="cls-6" d="M18.29,9.29a1,1,0,0,1,1.42,1.42A1,1,0,0,1,18.29,9.29Z"/><path class="cls-6" d="M22,11a1,1,0,0,1-1-.8,1,1,0,1,1,1,.8Z"/><path class="cls-6" d="M16,11a1,1,0,0,1-1-.8,1,1,0,1,1,1,.8Z"/></g></svg>