<svg xmlns="http://www.w3.org/2000/svg" viewBox="0 0 48 48"><defs><style>.cls-1{fill:#dad7e5;}.cls-2{fill:#edebf2;}.cls-3{fill:#fc6;}.cls-4{fill:#db5669;}.cls-5{fill:#f26674;}.cls-6{fill:#919191;}.cls-7{fill:#ffde76;}.cls-8{fill:#f16f39;}.cls-9{fill:#f8834b;}</style></defs><title>17. Certificate</title><g id="_17._Certificate" data-name="17. Certificate"><path class="cls-1" d="M47,4.5V9H40V4.5a3.5,3.5,0,0,1,7,0Z"/><path class="cls-1" d="M43.5,1A3.5,3.5,0,0,0,40,4.5v39A3.5,3.5,0,0,1,34,46c-1.34-1.32-1-2.51-1-7H8V4.5A3.5,3.5,0,0,1,11.5,1Z"/><path class="cls-2" d="M43.5,1A3.5,3.5,0,0,0,40,4.5c0,42.21.11,39.41-.24,40.26A3.5,3.5,0,0,1,35,41.5V37H11c0-37.49-.15-35,.34-36C11.44,1,10,1,43.5,1Z"/><path class="cls-2" d="M43.5,1A3.5,3.5,0,0,0,40,4.5c0,42.21.11,39.41-.24,40.26A3.5,3.5,0,0,1,35,41.5V37H11c0-37.49-.15-35,.34-36C11.44,1,10,1,43.5,1Z"/><path class="cls-1" d="M36.5,47H4.5A3.46,3.46,0,0,1,2,46c-1.34-1.32-1-2.51-1-7H33c0,4.4-.31,5.63,1,7A3.46,3.46,0,0,0,36.5,47Z"/><path class="cls-2" d="M33.35,45H7.5A3.46,3.46,0,0,1,5,44c-1.29-1.27-1-2.66-1-5H33C33,43.61,32.88,44.09,33.35,45Z"/><path class="cls-3" d="M44.93,23c-1.12,1.93-.93,1.13-.93,3.46-1.93,1.12-1.41.58-2.54,2.54-2.33,0-1.53-.19-3.46.93-1.93-1.12-1.13-.93-3.46-.93C33.42,27.07,34,27.63,32,26.46c0-2.33.19-1.53-.93-3.46,1.12-1.93.93-1.13.93-3.46,2-1.13,1.42-.61,2.54-2.54,2.33,0,1.53.19,3.46-.93,1.93,1.12,1.13.93,3.46.93,1.12,1.93.51,1.37,2.54,2.54C44,21.87,43.81,21.07,44.93,23Z"/><path class="cls-4" d="M41,29v6l-3-1-3,1V29c1.72,0,1-.21,3,.93C39.93,28.81,39.25,29,41,29Z"/><path class="cls-5" d="M41,29v4a3.68,3.68,0,0,1-4-3.65l1,.58C39.93,28.81,39.25,29,41,29Z"/><path class="cls-6" d="M21,8H13a1,1,0,0,1,0-2h8A1,1,0,0,1,21,8Z"/><path class="cls-6" d="M35,12H13a1,1,0,0,1,0-2H35A1,1,0,0,1,35,12Z"/><path class="cls-6" d="M19,30H13a1,1,0,0,1,0-2h6A1,1,0,0,1,19,30Z"/><path class="cls-6" d="M27,30H24a1,1,0,0,1,0-2h3A1,1,0,0,1,27,30Z"/><path class="cls-6" d="M30,34H13a1,1,0,0,1,0-2H30A1,1,0,0,1,30,34Z"/><path class="cls-6" d="M27,20H13a1,1,0,0,1,0-2H27A1,1,0,0,1,27,20Z"/><path class="cls-6" d="M17,16H13a1,1,0,0,1,0-2h4A1,1,0,0,1,17,16Z"/><path class="cls-6" d="M30,16H22a1,1,0,0,1,0-2h8A1,1,0,0,1,30,16Z"/><path class="cls-7" d="M44.93,23c-1.12,1.93-.93,1.13-.93,3.46-1.87,1.08-1.56.85-1.75,1.17a7,7,0,0,1-8.88-8.88c.32-.19.09.12,1.17-1.75,2.33,0,1.53.19,3.46-.93,1.93,1.12,1.13.93,3.46.93,1.12,1.93.51,1.37,2.54,2.54C44,21.87,43.81,21.07,44.93,23Z"/><path class="cls-8" d="M41,23a3,3,0,1,1-3.87-2.87A3,3,0,0,1,41,23Z"/><path class="cls-9" d="M40.87,23.87a3,3,0,0,1-3.74-3.74A3,3,0,0,1,40.87,23.87Z"/></g></svg>