<svg xmlns="http://www.w3.org/2000/svg" viewBox="0 0 48 48"><defs><style>.cls-1{fill:#9fdbf3;}.cls-2{fill:#dad7e5;}.cls-3{fill:#edebf2;}.cls-4{fill:#b2e5fb;}.cls-5{fill:#425b72;}.cls-6{fill:#f6ccaf;}.cls-7{fill:#ffdec7;}.cls-8{fill:#fc6;}.cls-9{fill:#ffde76;}.cls-10{fill:#db5669;}.cls-11{fill:#f26674;}</style></defs><title>49. Smartphone and Pencil</title><g id="_49._Smartphone_and_Pencil" data-name="49. Smartphone and Pencil"><polyline class="cls-1" points="32 30.16 32 41 6 41 6 7 32 7 32 20.16"/><path class="cls-2" d="M8,1H30a2,2,0,0,1,2,2V7a0,0,0,0,1,0,0H6A0,0,0,0,1,6,7V3A2,2,0,0,1,8,1Z"/><path class="cls-2" d="M6,41v4a2,2,0,0,0,2,2H30a2,2,0,0,0,2-2V41Z"/><path class="cls-3" d="M32,41v4H13a4,4,0,0,1-4-4Z"/><path class="cls-3" d="M32,3V5H13A4,4,0,0,1,9,1H30A2,2,0,0,1,32,3Z"/><path class="cls-4" d="M32,7c0,33.18-.1,32,0,32A23,23,0,0,1,9,16V7Z"/><path class="cls-5" d="M22,5H16a1,1,0,0,1,0-2h6A1,1,0,0,1,22,5Z"/><path class="cls-5" d="M20,45H18a1,1,0,0,1,0-2h2A1,1,0,0,1,20,45Z"/><path class="cls-6" d="M30.53,32.7c-.17.3.4-.13-4.78,3.29.36-6.19.29-5.5.45-5.79A4.46,4.46,0,0,1,30.53,32.7Z"/><path class="cls-7" d="M29.61,31.44l-3.74,2.47c.24-4,.16-3.41.33-3.71A4.49,4.49,0,0,1,29.61,31.44Z"/><path class="cls-8" d="M39.91,16.46,30.53,32.7a4.47,4.47,0,0,0-4.33-2.5L35.58,14C38.83,15.85,37.87,15.29,39.91,16.46Z"/><path class="cls-9" d="M38.29,15.53,31.1,28a3.13,3.13,0,0,1-4.28,1.14c-.1-.06-.44.76,8.76-15.17Z"/><path class="cls-10" d="M42,12.17c0,.88-.24,1.08-2.09,4.29L35.58,14c.77-1.35.38-.68,1.75-3A2.51,2.51,0,0,1,42,12.17Z"/><path class="cls-11" d="M41,10.18a3.27,3.27,0,0,1-4.81,2.71l1.14-2A2.5,2.5,0,0,1,41,10.18Z"/><path class="cls-5" d="M13,14H10a1,1,0,0,1,0-2h3A1,1,0,0,1,13,14Z"/><path class="cls-5" d="M28,14H17a1,1,0,0,1,0-2H28A1,1,0,0,1,28,14Z"/><path class="cls-5" d="M22,26H20a1,1,0,0,1,0-2h2A1,1,0,0,1,22,26Z"/><path class="cls-5" d="M16,26H10a1,1,0,0,1,0-2h6A1,1,0,0,1,16,26Z"/><path class="cls-5" d="M28,18H10a1,1,0,0,1,0-2H28A1,1,0,0,1,28,18Z"/><path class="cls-5" d="M25,22H10a1,1,0,0,1,0-2H25A1,1,0,0,1,25,22Z"/><path class="cls-5" d="M22,30H10a1,1,0,0,1,0-2H22A1,1,0,0,1,22,30Z"/></g></svg>