<svg xmlns="http://www.w3.org/2000/svg" viewBox="0 0 48 48"><defs><style>.cls-1{fill:#9fdbf3;}.cls-2{fill:#dad7e5;}.cls-3{fill:#b2e5fb;}.cls-4{fill:#edebf2;}.cls-5{fill:#425b72;}.cls-6{fill:#919191;}.cls-7{fill:#db5669;}.cls-8{fill:#f26674;}</style></defs><title>31. Physics tutorial</title><g id="_31._Physics_tutorial" data-name="31. Physics tutorial"><path class="cls-1" d="M3,2H45a2,2,0,0,1,2,2V30a0,0,0,0,1,0,0H1a0,0,0,0,1,0,0V4A2,2,0,0,1,3,2Z"/><path class="cls-2" d="M1,30H47a0,0,0,0,1,0,0v4a2,2,0,0,1-2,2H3a2,2,0,0,1-2-2V30A0,0,0,0,1,1,30Z"/><path class="cls-3" d="M47,4V28H30A26,26,0,0,1,4,2H45A2,2,0,0,1,47,4Z"/><path class="cls-4" d="M47,30v4H8a4,4,0,0,1-4-4Z"/><path class="cls-5" d="M24,34a1,1,0,0,1-1-1,1,1,0,1,1,1,1Z"/><polygon class="cls-2" points="28 42 20 42 21.33 36 26.67 36 28 42"/><path class="cls-2" d="M17,42H31a1,1,0,0,1,1,1v3a0,0,0,0,1,0,0H16a0,0,0,0,1,0,0V43A1,1,0,0,1,17,42Z"/><path class="cls-4" d="M39,25H17a1,1,0,0,1,0-2H39A1,1,0,0,1,39,25Z"/><path class="cls-6" d="M20,25V23a1,1,0,0,1,2,0v2A1,1,0,0,1,20,25Z"/><polygon class="cls-7" points="9 26 9 22 13 24 9 26"/><path class="cls-5" d="M19.46,20c-1.93,0-3.31-1.68-1.83-4.93C19.93,10,27.6,4,30.32,6.68,33.61,10,24.35,20,19.46,20Zm0-4.1c-.61,1.33-.46,1.91-.36,2,.89.89,7.21-2.86,9.46-7.81.61-1.33.46-1.91.36-2C28.1,7.29,21.77,10.8,19.45,15.9Zm6.66-.79h0Z"/><path class="cls-5" d="M28.54,20C23.67,20,14.38,10,17.68,6.68c2.76-2.77,10.43,3.43,12.69,8.39C31.85,18.33,30.47,20,28.54,20Zm.37-2.09c.1-.1.25-.68-.36-2C26.37,11.1,20,7.16,19.09,8.09c-.1.1-.25.68.36,2C21.7,15.05,28,18.79,28.91,17.91Z"/><path class="cls-8" d="M24,14a1,1,0,0,1-.92-1.38A1,1,0,1,1,24,14Z"/><path class="cls-4" d="M27.56,40H26.1a3.29,3.29,0,0,1-3.21-4h3.78Z"/><path class="cls-4" d="M32,43v1H20a2,2,0,0,1-2-2H31A1,1,0,0,1,32,43Z"/><polygon class="cls-8" points="12 23.5 9 25 9 22 12 23.5"/></g></svg>