<svg xmlns="http://www.w3.org/2000/svg" viewBox="0 0 48 48"><defs><style>.cls-1{fill:#9fdbf3;}.cls-2{fill:#b2e5fb;}.cls-3{fill:#9dcc6b;}.cls-4{fill:#b5e08c;}.cls-5{fill:#374f68;}.cls-6{fill:#425b72;}.cls-7{fill:#ffde76;}.cls-8{fill:#fc6;}</style></defs><title>19. Worldwide Education</title><g id="_19._Worldwide_Education" data-name="19. Worldwide Education"><path class="cls-1" d="M38,33A14,14,0,0,1,24,47C10.82,47,5,30.41,15.16,22.16A14,14,0,0,1,38,33Z"/><path class="cls-2" d="M38,33a13.88,13.88,0,0,1-3.16,8.84A14,14,0,0,1,12,31C12,13.4,38,16,38,33Z"/><path class="cls-3" d="M20.47,28.81c-.83.51-2.38.14-3.17.54-1.54.76-.28,3.49-1.82,4.26-2.51,1.27-4.17-1.52-4.87-4.26l-.07-.2A13.72,13.72,0,0,1,11.37,27c.25.27.53.32,1.1.45A42.69,42.69,0,0,0,20.47,28.81Z"/><path class="cls-4" d="M12.47,27.41c1,.29,2.08.53,3.14.74-.42,1.12.05,2.87-1.13,3.46h0A1.71,1.71,0,0,1,12,29.94,13.93,13.93,0,0,1,12.47,27.41Z"/><path class="cls-3" d="M19.13,36a4.76,4.76,0,0,1,2.44,1.83c.6,1.22,2.47,0,3,1.22S24.22,41,23,41.22a2,2,0,0,0-1.57,1.93.61.61,0,0,1-1.11.23,4.85,4.85,0,0,1-.61-1.25c-.61-1.83-2.5-2-3-3S16.7,35.43,19.13,36Z"/><path class="cls-3" d="M23,41.22a2.06,2.06,0,0,0-1.57,1.93.61.61,0,0,1-1.11.23,4.85,4.85,0,0,1-.61-1.25c-.61-1.83-2.5-2-3-3a2.33,2.33,0,0,1,.78-2.93c1.38-.74,3.54.62,4.09,1.71s2.47,0,3,1.19C24.6,39.3,25.58,40.66,23,41.22Z"/><path class="cls-3" d="M37.67,30a5.91,5.91,0,0,0-2.78,1.87c-1.09,1.22-.46,2.82-.54,4.84,0,4.19-5.5,5-3.65.42.5-1.26.6-3-1.22-3.65s-3.65.61-4.26-2.43a2.29,2.29,0,0,1,.65-2.11,44.13,44.13,0,0,0,10.31-1.67,1,1,0,0,0,.45-.27A14,14,0,0,1,37.67,30Z"/><path class="cls-4" d="M37.67,30a5.91,5.91,0,0,0-2.78,1.87c-1.31,1.69-.06,4-.76,6.27-1.78.58-2.13-1.28-1.43-3,.5-1.26.6-3-1.22-3.65s-3.75.65-4.29-2.61a44.63,44.63,0,0,0,9-1.6,1,1,0,0,0,.45-.27A14,14,0,0,1,37.67,30Z"/><path class="cls-4" d="M23,41.22a1.73,1.73,0,0,0-.76.36s-.71.11-.92-.2a4.85,4.85,0,0,1-.61-1.25c-.73-2.19-3.2-1.82-3.26-4A2.27,2.27,0,0,1,19.13,36c2.28.76,2.2,1.9,2.88,2.29s1.29.07,1.91.21a.9.9,0,0,1,.69.55C25.22,40.41,24.22,41,23,41.22Z"/><path class="cls-5" d="M35.26,13.08l1.63,13.07a1,1,0,0,1-.71,1.09,44,44,0,0,1-24.36,0,1,1,0,0,1-.71-1.09l1.63-13.07Z"/><path class="cls-6" d="M36.85,25.84a44,44,0,0,1-20.27-.13,3,3,0,0,1-2.26-3.29l1.17-9.34H35.26Z"/><path class="cls-5" d="M47,9,24,17,1,9,24,1Z"/><polygon class="cls-6" points="42.69 7.5 24 14 5.31 7.5 24 1 42.69 7.5"/><path class="cls-7" d="M5,18V10.74a1,1,0,0,1,.9-1l16-1.56a1,1,0,0,1,.2,2L7,11.65V18A1,1,0,0,1,5,18Z"/><path class="cls-8" d="M8,20v4H4V20a2,2,0,0,1,4,0Z"/><path class="cls-7" d="M8,20v3a3,3,0,0,1-3-3,4.1,4.1,0,0,1,.18-1.82A2,2,0,0,1,8,20Z"/><path class="cls-8" d="M26,9a2,2,0,1,1-2.82-1.82A2,2,0,0,1,26,9Z"/><path class="cls-7" d="M25.82,9.82a2,2,0,0,1-2.64-2.64A2,2,0,0,1,25.82,9.82Z"/></g></svg>