<svg xmlns="http://www.w3.org/2000/svg" viewBox="0 0 48 48"><defs><style>.cls-1{fill:#db5669;}.cls-2{fill:#f26674;}.cls-3{fill:#dad7e5;}.cls-4{fill:#edebf2;}.cls-5{fill:#919191;}.cls-6{fill:#9dcc6b;}.cls-7{fill:#b5e08c;}</style></defs><title>45. Book Upload</title><g id="_45._Book_Upload" data-name="45. Book Upload"><rect class="cls-1" x="1" y="6" width="46" height="28"/><path class="cls-2" d="M24,6V32H6a3,3,0,0,1-3-3V6Z"/><path class="cls-2" d="M24,6V32H42a3,3,0,0,0,3-3V6Z"/><path class="cls-3" d="M24,6V34a4,4,0,0,0-4-4H5V2H20A4,4,0,0,1,24,6Z"/><path class="cls-4" d="M24,6V29.36A4,4,0,0,0,21,28H11c-1.66,0-4-1.34-4-3V2H20A4,4,0,0,1,24,6Z"/><path class="cls-3" d="M43,2V30H28a4,4,0,0,0-4,4V6a4,4,0,0,1,4-4Z"/><path class="cls-4" d="M24,6V29.36A4,4,0,0,1,27,28H38a3,3,0,0,0,3-3V2H28A4,4,0,0,0,24,6Z"/><path class="cls-5" d="M16,11H9A1,1,0,0,1,9,9h7A1,1,0,0,1,16,11Z"/><path class="cls-5" d="M20,15H9a1,1,0,0,1,0-2H20A1,1,0,0,1,20,15Z"/><path class="cls-5" d="M20,19H9a1,1,0,0,1,0-2H20A1,1,0,0,1,20,19Z"/><path class="cls-5" d="M20,23H9a1,1,0,0,1,0-2H20A1,1,0,0,1,20,23Z"/><path class="cls-5" d="M35,11H28a1,1,0,0,1,0-2h7A1,1,0,0,1,35,11Z"/><path class="cls-5" d="M39,15H28a1,1,0,0,1,0-2H39A1,1,0,0,1,39,15Z"/><path class="cls-5" d="M39,19H28a1,1,0,0,1,0-2H39A1,1,0,0,1,39,19Z"/><path class="cls-5" d="M39,23H28a1,1,0,0,1,0-2H39A1,1,0,0,1,39,23Z"/><path class="cls-6" d="M45,37a9,9,0,1,1-12.38-8.34A9,9,0,0,1,45,37Z"/><path class="cls-7" d="M45,37a9,9,0,0,1-2.62,6.34A8.85,8.85,0,0,1,39,44a9,9,0,0,1-6.38-15.34A9,9,0,0,1,45,37Z"/><path class="cls-3" d="M40,37H38v5H34V37H32l4-5Z"/><polygon class="cls-4" points="40 37 38 37 38 42 36 42 36 37 34 37 37 33.25 40 37"/></g></svg>