<svg xmlns="http://www.w3.org/2000/svg" viewBox="0 0 48 48"><defs><style>.cls-1{fill:#82bcf4;}.cls-2{fill:#374f68;}.cls-3{fill:#425b72;}.cls-4{fill:#ffde76;}.cls-5{fill:#fc6;}.cls-6{fill:#db5669;}.cls-7{fill:#f26674;}.cls-8{fill:#dad7e5;}.cls-9{fill:#edebf2;}.cls-10{fill:#6fabe6;}</style></defs><title>34. Magnify Mortarboard</title><g id="_34._Magnify_Mortarboard" data-name="34. Magnify Mortarboard"><path class="cls-1" d="M33.49,38.49c-.56,0-.47-.05-3.54-3.13A1,1,0,0,1,31.36,34l2.83,2.83A1,1,0,0,1,33.49,38.49Z"/><path class="cls-2" d="M37,27a44.06,44.06,0,0,1-26,0l1.74-13.92H35.26C37.05,27.45,36.8,25.42,37,27Z"/><path class="cls-3" d="M36.85,25.84a44,44,0,0,1-20.27-.13,3,3,0,0,1-2.26-3.29l1.17-9.34H35.26Z"/><path class="cls-2" d="M47,9,24,17,1,9,24,1Z"/><polygon class="cls-3" points="42.69 7.5 24 14 5.31 7.5 24 1 42.69 7.5"/><path class="cls-4" d="M5,18V10.74a1,1,0,0,1,.9-1l16-1.56a1,1,0,0,1,.2,2L7,11.65V18A1,1,0,0,1,5,18Z"/><path class="cls-5" d="M8,20v4H4V20a2,2,0,0,1,4,0Z"/><path class="cls-4" d="M8,20v3a3,3,0,0,1-3-3,4.1,4.1,0,0,1,.18-1.82A2,2,0,0,1,8,20Z"/><path class="cls-5" d="M26,9a2,2,0,1,1-2.82-1.82A2,2,0,0,1,26,9Z"/><path class="cls-4" d="M25.82,9.82a2,2,0,0,1-2.64-2.64A2,2,0,0,1,25.82,9.82Z"/><path class="cls-6" d="M31.57,33.57a8,8,0,1,1-.91-10.23A8,8,0,0,1,31.57,33.57Z"/><ellipse class="cls-7" cx="26" cy="28" rx="6.59" ry="7.88" transform="translate(-12.18 26.59) rotate(-45)"/><path class="cls-8" d="M28.64,30.64a4,4,0,1,1-5.28-5.28A4,4,0,0,1,28.64,30.64Z"/><path class="cls-9" d="M28.64,30.64a4,4,0,0,1-5.28-5.28A4,4,0,0,1,28.64,30.64Z"/><path class="cls-10" d="M42,46a2,2,0,0,1-2.83,0L32.07,38.9l2.83-2.83L42,43.14A2,2,0,0,1,42,46Z"/><path class="cls-1" d="M42.28,43.56a2,2,0,0,1-1.72,1c-1.11,0-.88-.05-7.49-6.66l1.83-1.83C42.6,43.77,42.14,43.27,42.28,43.56Z"/></g></svg>