<svg xmlns="http://www.w3.org/2000/svg" viewBox="0 0 48 48"><defs><style>.cls-1{fill:#dad7e5;}.cls-2{fill:#edebf2;}.cls-3{fill:#c6c3d8;}.cls-4{fill:#db5669;}.cls-5{fill:#f26674;}</style></defs><title>9. PDF file</title><g id="_9._PDF_file" data-name="9. PDF file"><path class="cls-1" d="M44,7V39a2,2,0,0,1-2,2H16a2,2,0,0,1-2-2V3a2,2,0,0,1,2-2H38Z"/><path class="cls-2" d="M44,7c0,33.18-.1,32,0,32a4,4,0,0,1-4-4V12.17L32.83,5H21a4,4,0,0,1-4-4H38Z"/><path class="cls-1" d="M38,13V45a2,2,0,0,1-2,2H10a2,2,0,0,1-2-2V9a2,2,0,0,1,2-2H32Z"/><path class="cls-2" d="M38,13V45H18a7,7,0,0,1-7-7V7H32Z"/><polygon class="cls-3" points="38 13 32 13 32 7 38 13"/><polygon class="cls-3" points="44 7 38 7 38 1 44 7"/><rect class="cls-4" x="4" y="25" width="28" height="16" rx="2"/><path class="cls-5" d="M32,27V39H21A14,14,0,0,1,7,25H30A2,2,0,0,1,32,27Z"/><path class="cls-2" d="M7,37V29a1,1,0,0,1,1-1h2a3,3,0,0,1,0,6H9v3A1,1,0,0,1,7,37Zm2-5h1a1,1,0,0,0,0-2H9Z"/><path class="cls-2" d="M18,38H16a1,1,0,0,1-1-1V29a1,1,0,0,1,1-1h2a3,3,0,0,1,3,3v4A3,3,0,0,1,18,38Zm-1-2h1a1,1,0,0,0,1-1V31a1,1,0,0,0-1-1H17Z"/><path class="cls-2" d="M23,37V29a1,1,0,0,1,1-1h4a1,1,0,0,1,0,2H25v7A1,1,0,0,1,23,37Z"/><path class="cls-2" d="M28,34H24a1,1,0,0,1,0-2h4A1,1,0,0,1,28,34Z"/></g></svg>