<svg xmlns="http://www.w3.org/2000/svg" viewBox="0 0 48 48"><defs><style>.cls-1{fill:#ffba55;}.cls-2{fill:#fc6;}.cls-3{fill:#ffde76;}.cls-4{fill:#374f68;}.cls-5{fill:#425b72;}.cls-6{fill:#82bcf4;}</style></defs><title>22. Folder mortarboard</title><g id="_22._Folder_mortarboard" data-name="22. Folder mortarboard"><path class="cls-1" d="M47,17c0,26.37.06,24.22-.13,24.87A3,3,0,0,1,44,44H5a4,4,0,0,0,4-4V17a3,3,0,0,1,3-3H44A3,3,0,0,1,47,17Z"/><path class="cls-2" d="M47,17c0,26.37.06,24.22-.13,24.87A3.16,3.16,0,0,1,46,42H38A27,27,0,0,1,11,15a3.16,3.16,0,0,1,.13-.87c.71-.2,33-.13,32.87-.13A3,3,0,0,1,47,17Z"/><path class="cls-2" d="M41,10v4H12a3,3,0,0,0-3,3V40a4,4,0,0,1-8,0V6A2,2,0,0,1,3,4c14,0,13.76-.24,14.59.59L21,8H39A2,2,0,0,1,41,10Z"/><path class="cls-3" d="M41,10v4H12a3,3,0,0,0-3,3V40c0,3.42-6,2.24-6-2V4c14,0,13.76-.24,14.59.59L21,8H39A2,2,0,0,1,41,10Z"/><path class="cls-4" d="M37,26.3V36.5A1.51,1.51,0,0,1,35.5,38h-15A1.51,1.51,0,0,1,19,36.5V26.3L28,29Z"/><path class="cls-5" d="M37,26.3V36H22.5A1.51,1.51,0,0,1,21,34.5V26.9L28,29Z"/><path class="cls-6" d="M14,32V25.1a1,1,0,0,1,2,0V32A1,1,0,0,1,14,32Z"/><path class="cls-4" d="M43,24.5,28,29,13,24.5,28,20Z"/><path class="cls-5" d="M39.67,23.5,28,27,16.33,23.5,28,20Z"/></g></svg>