<svg xmlns="http://www.w3.org/2000/svg" viewBox="0 0 48 48"><defs><style>.cls-1{fill:#dad7e5;}.cls-2{fill:#edebf2;}.cls-3{fill:#9fdbf3;}.cls-4{fill:#b2e5fb;}.cls-5{fill:#425b72;}.cls-6{fill:#ffde76;}.cls-7{fill:#374f68;}</style></defs><title>3. Mortarboard on Ipad</title><g id="_24._Ebook" data-name="24. Ebook"><rect class="cls-1" x="1" y="1" width="46" height="36" rx="2"/><path class="cls-2" d="M45,1H3V32a2,2,0,0,0,2,2H47V3A2,2,0,0,0,45,1Z"/><rect class="cls-3" x="7" y="5" width="36" height="28"/><path class="cls-4" d="M43,31H35A26,26,0,0,1,9,5c0-.1-1.18,0,34,0Z"/><path class="cls-5" d="M4.71,18.29a1,1,0,0,1-1.42,1.42A1,1,0,0,1,4.71,18.29Z"/></g><g id="_5._Mortarboard_on_Laptop" data-name="5. Mortarboard on Laptop"><path class="cls-6" d="M17,21a1,1,0,0,1-2,0c0-3.92,0-4.92.06-5C17.37,15.3,17,14.57,17,21Z"/><path class="cls-7" d="M35,16,25,19c-13.47-4-9.15-2.83-10-3l1.62-.48L25,13Z"/><path class="cls-5" d="M31.67,15,25,17l-6.66-2L25,13Z"/><path class="cls-7" d="M31,17.2V24a1,1,0,0,1-1,1H20a1,1,0,0,1-1-1V17.2L25,19Z"/><path class="cls-5" d="M31,17.2V23H22a1,1,0,0,1-1-1V17.8L25,19Z"/></g><g id="_3._Mortarboard_on_Ipad" data-name="3. Mortarboard on Ipad"><path class="cls-1" d="M42.5,45a2,2,0,0,1-2,2h-30l-5-2,5-2h30A2,2,0,0,1,42.5,45Z"/><path class="cls-2" d="M42.23,44a2,2,0,0,1-1.73,1h-30L8,44l2.5-1h30A2,2,0,0,1,42.23,44Z"/></g></svg>