<svg xmlns="http://www.w3.org/2000/svg" viewBox="0 0 48 48"><defs><style>.cls-1{fill:#6fabe6;}.cls-2{fill:#82bcf4;}.cls-3{fill:#ffde76;}.cls-4{fill:#425b72;}.cls-5{fill:#db5669;}.cls-6{fill:#f26674;}.cls-7{fill:#374f68;}</style></defs><title>29. Headphone mortarboard</title><g id="_29._Headphone_mortarboard" data-name="29. Headphone mortarboard"><path class="cls-1" d="M5,27v6H4a3,3,0,0,1-1.56-5.56A4.23,4.23,0,0,1,5,27Z"/><path class="cls-2" d="M5,27v4a3,3,0,0,1-3-3c0-.21-.05-.26.44-.56A4.23,4.23,0,0,1,5,27Z"/><path class="cls-1" d="M37.73,8.76a4.64,4.64,0,0,1-5.63-.61,12,12,0,0,0-16.2,0,4.64,4.64,0,0,1-5.63.61A16,16,0,0,1,37.73,8.76Z"/><path class="cls-2" d="M36.69,7.24A4.7,4.7,0,0,1,32.1,6.15a12,12,0,0,0-16.2,0,4.7,4.7,0,0,1-4.58,1.09A16,16,0,0,1,36.69,7.24Z"/><path class="cls-3" d="M17,31a1,1,0,0,1-2,0c0-3.41,0-3.92.07-4C17.27,26.25,17,25.81,17,31Z"/><path class="cls-4" d="M39,24V17A15,15,0,0,0,9,17v7a1,1,0,0,1-2,0V17a17,17,0,0,1,34,0v7A1,1,0,0,1,39,24Z"/><path class="cls-4" d="M34,46H28a1,1,0,0,1,0-2h6a5,5,0,0,0,5-5V36a1,1,0,0,1,2,0v3A7,7,0,0,1,34,46Z"/><path class="cls-5" d="M11,24V36H7a2,2,0,0,1-2-2V26a2,2,0,0,1,2-2Z"/><path class="cls-6" d="M11,24c0,10.61-.1,10,0,10a4,4,0,0,1-4-4V24Z"/><path class="cls-5" d="M39,24h4a0,0,0,0,1,0,0V36a0,0,0,0,1,0,0H39a2,2,0,0,1-2-2V26A2,2,0,0,1,39,24Z" transform="translate(80 60) rotate(-180)"/><path class="cls-1" d="M43,33h1a3,3,0,0,0,0-6H43Z"/><path class="cls-5" d="M27.41,46.41c-.82.84-1.7.59-5.41.59a2,2,0,0,1-1.41-3.41c.82-.84,1.7-.59,5.41-.59A2,2,0,0,1,27.41,46.41Z"/><path class="cls-6" d="M27.73,46H24a2,2,0,0,1-1.73-3H26A2,2,0,0,1,27.73,46Z"/><path class="cls-6" d="M37,24c0,10.61.1,10,0,10a4,4,0,0,0,4-4V24Z"/><path class="cls-2" d="M43,27v4a3,3,0,0,0,3-3c0-.21,0-.26-.44-.56A4.23,4.23,0,0,0,43,27Z"/><path class="cls-7" d="M33,27l-9,3-9-3c.15,0,1.81-.6,9-3Z"/><path class="cls-4" d="M30,26l-6,2-6-2,6-2Z"/><path class="cls-7" d="M29,28.33V34a1,1,0,0,1-1,1H20a1,1,0,0,1-1-1V28.33L24,30Z"/><path class="cls-4" d="M29,28.33V33H22a1,1,0,0,1-1-1V29l3,1Z"/></g></svg>