<svg xmlns="http://www.w3.org/2000/svg" viewBox="0 0 48 48"><defs><style>.cls-1{fill:#374f68;}.cls-2{fill:#425b72;}.cls-3{fill:#f6ccaf;}.cls-4{fill:#dad7e5;}.cls-5{fill:#9fdbf3;}.cls-6{fill:#b2e5fb;}.cls-7{fill:#6fabe6;}.cls-8{fill:#82bcf4;}.cls-9{fill:#db5669;}.cls-10{fill:#f26674;}.cls-11{fill:#2c435e;}.cls-12{fill:#ffde76;}.cls-13{fill:#edebf2;}.cls-14{fill:#ffdec7;}.cls-15{fill:#a87e6b;}.cls-16{fill:#be927c;}</style></defs><title>27. Graduate Women</title><g id="_27._Graduate_Women" data-name="27. Graduate Women"><path class="cls-1" d="M42,47H6l.77-9.25a4,4,0,0,1,2.89-3.51L21,31h6l11.34,3.24a4,4,0,0,1,2.89,3.51Z"/><path class="cls-2" d="M41.92,46H17.28c-7.42,0-10.62-8.78-7.2-11.88L21,31h6l11.34,3.24a4,4,0,0,1,2.89,3.51Z"/><path class="cls-3" d="M27,27.32V31l-3,3.09L21,31V27.32Z"/><path class="cls-4" d="M30.14,31.9a18,18,0,0,1-2.33,4l-3.26-2.35L27,31Z"/><path class="cls-5" d="M33.73,32.92,24,45,14.27,32.92l3.59-1a18,18,0,0,0,2.33,4c2.45,2.86,5.17,2.86,7.62,0a18.56,18.56,0,0,0,2.33-4Z"/><path class="cls-6" d="M32.42,32.55,24,43,15.58,32.55l2.28-.65,1.21,2.33c1.58,3,4.63,5,7.33,3,2-1.47,2.59-3.08,3.74-5.3Z"/><path class="cls-7" d="M37.65,34,27.22,47H20.78L10.35,34l3.92-1.12L24,45l9.73-12.08Z"/><polygon class="cls-8" points="36.18 33.62 26.22 46 21.78 46 11.82 33.62 14.27 32.92 24 45 33.73 32.92 36.18 33.62"/><path class="cls-4" d="M23.45,33.52l-3.26,2.35a18.56,18.56,0,0,1-2.33-4L21,31Z"/><path class="cls-9" d="M27.81,35.87A9.08,9.08,0,0,1,26.4,37.2c-1.69,1.26-4,1.23-6.21-1.33l3.26-2.35.55.57.55-.57Z"/><path class="cls-10" d="M27.81,35.87c-1.53,1.53-4.17,1.77-6.47-.83l2.11-1.52.55.57.55-.57Z"/><path class="cls-11" d="M13,42v5H11V42A1,1,0,0,1,13,42Z"/><path class="cls-11" d="M37,42v5H35V42A1,1,0,0,1,37,42Z"/><path class="cls-12" d="M12,5v5a1,1,0,0,1-2,0V5Z"/><path class="cls-1" d="M33,6.43V13H15V6.43L24,9Z"/><path class="cls-2" d="M33,6.43V11H19a2,2,0,0,1-2-2V7l7,2Z"/><path class="cls-1" d="M38,5,24,9,10,5,24,1Z"/><path class="cls-2" d="M34.5,4,24,7,13.5,4,24,1Z"/><path class="cls-13" d="M22.31,32.34l-2.12,1.53a10.25,10.25,0,0,1-1.43-2.23L21,31Z"/><path class="cls-13" d="M25.69,32.34l2.12,1.53a10.25,10.25,0,0,0,1.43-2.23L27,31Z"/><path class="cls-3" d="M31,13c-.4,6-.26,4-.6,9a6.42,6.42,0,0,1-12.8,0c-.34-5.05-.2-3-.6-9Z"/><path class="cls-14" d="M31,13c-.4,6-.26,4-.6,9a6.36,6.36,0,0,1-2.59,4.72A6.4,6.4,0,0,1,19.6,21c-.32-4.81-.2-3-.53-8Z"/><path class="cls-3" d="M17.33,18c-2,0-2.54.1-3.33-.5a2.5,2.5,0,0,1-.27-3.77c.92-.92,1.95-.73,3.27-.73C17.31,17.74,17.24,16.7,17.33,18Z"/><path class="cls-14" d="M17.26,17A3.31,3.31,0,0,1,15,16.5a2.49,2.49,0,0,1-.7-3.19A2.35,2.35,0,0,1,15.5,13H17Z"/><path class="cls-3" d="M32.5,18H30.67L31,13c1.52,0,2.39-.15,3.27.73A2.51,2.51,0,0,1,32.5,18Z"/><polygon class="cls-14" points="27 27.32 27 31 25 33.06 23 31 23 27.32 27 27.32"/><path class="cls-14" d="M30.74,17A3.31,3.31,0,0,0,33,16.5a2.49,2.49,0,0,0,.7-3.19A2.35,2.35,0,0,0,32.5,13H31Z"/><path class="cls-15" d="M19.42,26.07A8.62,8.62,0,0,1,14,28V17.5c.79.6,1.36.5,3.33.5C17.59,21.9,17.37,24,19.42,26.07Z"/><path class="cls-15" d="M34,17.5V28a8.59,8.59,0,0,1-5.42-1.93C30.66,24,30.42,21.76,30.67,18,32.65,18,33.21,18.1,34,17.5Z"/><path class="cls-16" d="M19.42,26.07l-.62.46A2.14,2.14,0,0,1,16,24.48V18h1.33C17.59,21.9,17.37,24,19.42,26.07Z"/><path class="cls-16" d="M28.58,26.07l.62.46A2.14,2.14,0,0,0,32,24.48V18H30.67C30.41,21.9,30.63,24,28.58,26.07Z"/></g></svg>