<svg xmlns="http://www.w3.org/2000/svg" viewBox="0 0 48 48"><defs><style>.cls-1{fill:#6fabe6;}.cls-2{fill:#82bcf4;}.cls-3{fill:#dad7e5;}.cls-4{fill:#edebf2;}.cls-5{fill:#f26674;}.cls-6{fill:#ffde76;}.cls-7{fill:#b5e08c;}.cls-8{fill:#374f68;}.cls-9{fill:#425b72;}</style></defs><title>1. Mortarboard on website</title><g id="_1._Mortarboard_on_website" data-name="1. Mortarboard on website"><path class="cls-1" d="M47,3V9H1V3A2,2,0,0,1,3,1H45A2,2,0,0,1,47,3Z"/><path class="cls-2" d="M47,3V7H10A6,6,0,0,1,4,1H45A2,2,0,0,1,47,3Z"/><path class="cls-3" d="M47,9V45a2,2,0,0,1-2,2H3a2,2,0,0,1-2-2V9Z"/><path class="cls-4" d="M47,9V45H40A36.11,36.11,0,0,1,4,9Z"/><path class="cls-5" d="M5,6a1,1,0,1,1,1-.8A1,1,0,0,1,5,6Z"/><path class="cls-6" d="M8,5a1,1,0,1,1,2,.2A1,1,0,0,1,8,5Z"/><path class="cls-7" d="M13,6a1,1,0,0,1-1-1,1,1,0,1,1,1,1Z"/><path class="cls-8" d="M34,26.25V36a2,2,0,0,1-2,2H16a2,2,0,0,1-2-2V26.25c7.8,2.93-4-1.48,10,3.75Z"/><path class="cls-9" d="M34,26.25V36H18a2,2,0,0,1-2-2V27l8,3Z"/><path class="cls-6" d="M8.91,31,9,24.74a1,1,0,1,1,2,0L10.91,31A1,1,0,0,1,8.91,31Z"/><path class="cls-8" d="M40,24,24,30,8,24l16-6Z"/><polygon class="cls-9" points="37.33 23 24 28 10.67 23 24 18 37.33 23"/></g></svg>