<svg xmlns="http://www.w3.org/2000/svg" viewBox="0 0 48 48"><defs><style>.cls-1{fill:#6fabe6;}.cls-2{fill:#82bcf4;}.cls-3{fill:#db5669;}.cls-4{fill:#f26674;}.cls-5{fill:#dad7e5;}.cls-6{fill:#edebf2;}.cls-7{fill:#919191;}</style></defs><title>7. Book data cloud</title><g id="_7._Book_data_cloud" data-name="7. Book data cloud"><path class="cls-1" d="M5,28.32A7,7,0,0,1,7,15.08a7,7,0,0,1,9.35-6.67A10,10,0,0,1,36,11.22C45.74,9.09,51.22,22,43,27.48Z"/><path class="cls-2" d="M43,27.48c-40.74.9-38.15,1.06-38.86.35A7,7,0,0,1,9,17.08a7,7,0,0,1,9.35-6.67A10,10,0,0,1,34,5a10,10,0,0,1,2,6.2C45.73,9,51.22,22,43,27.48Z"/><rect class="cls-3" x="5" y="23" width="38" height="24"/><path class="cls-4" d="M24,23V45H10a3,3,0,0,1-3-3V23Z"/><path class="cls-4" d="M24,23V45H38a3,3,0,0,0,3-3V23Z"/><path class="cls-5" d="M24,23V47a4,4,0,0,0-4-4H9V19H20A4,4,0,0,1,24,23Z"/><path class="cls-6" d="M24,23V42.36A4,4,0,0,0,21,41H14a3,3,0,0,1-3-3V19h9A4,4,0,0,1,24,23Z"/><path class="cls-5" d="M39,19V43H28a4,4,0,0,0-4,4V23a4,4,0,0,1,4-4Z"/><path class="cls-6" d="M24,23V42.36A4,4,0,0,1,27,41h7a3,3,0,0,0,3-3V19H28A4,4,0,0,0,24,23Z"/><path class="cls-7" d="M17,28H13a1,1,0,0,1,0-2h4A1,1,0,0,1,17,28Z"/><path class="cls-7" d="M20,32H13a1,1,0,0,1,0-2h7A1,1,0,0,1,20,32Z"/><path class="cls-7" d="M20,36H13a1,1,0,0,1,0-2h7A1,1,0,0,1,20,36Z"/><path class="cls-7" d="M32,28H28a1,1,0,0,1,0-2h4A1,1,0,0,1,32,28Z"/><path class="cls-7" d="M35,32H28a1,1,0,0,1,0-2h7A1,1,0,0,1,35,32Z"/><path class="cls-7" d="M35,36H28a1,1,0,0,1,0-2h7A1,1,0,0,1,35,36Z"/></g></svg>