<svg xmlns="http://www.w3.org/2000/svg" viewBox="0 0 48 48"><defs><style>.cls-1{fill:#374f68;}.cls-2{fill:#425b72;}.cls-3{fill:#ffde76;}.cls-4{fill:#fc6;}</style></defs><title>14. Mortarboard</title><g id="_14._Mortarboard" data-name="14. Mortarboard"><path class="cls-1" d="M37,36a44.06,44.06,0,0,1-26,0l1.74-13.92H35.26C37.05,36.45,36.8,34.42,37,36Z"/><path class="cls-2" d="M36.85,34.84a44,44,0,0,1-20.27-.13,3,3,0,0,1-2.26-3.29l1.17-9.34H35.26Z"/><path class="cls-1" d="M47,18,24,26,1,18l23-8Z"/><polygon class="cls-2" points="42.69 16.5 24 23 5.31 16.5 24 10 42.69 16.5"/><path class="cls-3" d="M5,27V19.74a1,1,0,0,1,.9-1l16-1.56a1,1,0,0,1,.2,2L7,20.65V27A1,1,0,0,1,5,27Z"/><path class="cls-4" d="M8,29v4H4V29a2,2,0,0,1,4,0Z"/><path class="cls-3" d="M8,29v3a3,3,0,0,1-3-3,4.1,4.1,0,0,1,.18-1.82A2,2,0,0,1,8,29Z"/><path class="cls-4" d="M26,18a2,2,0,1,1-2.82-1.82A2,2,0,0,1,26,18Z"/><path class="cls-3" d="M25.82,18.82a2,2,0,0,1-2.64-2.64A2,2,0,0,1,25.82,18.82Z"/></g></svg>