<svg xmlns="http://www.w3.org/2000/svg" viewBox="0 0 48 48"><defs><style>.cls-1{fill:#919191;}.cls-2{fill:#f6ccaf;}.cls-3{fill:#9dcc6b;}.cls-4{fill:#fc6;}.cls-5{fill:#ffdec7;}.cls-6{fill:#b5e08c;}.cls-7{fill:#ffde76;}.cls-8{fill:#edebf2;}.cls-9{fill:#374f68;}.cls-10{fill:#425b72;}.cls-11{fill:#f26674;}.cls-12{fill:#db5669;}</style></defs><title>43. Mouse and Book</title><g id="_43._Mouse_and_Book" data-name="43. Mouse and Book"><path class="cls-1" d="M39,27V18a2,2,0,0,0-2-2H25a1,1,0,0,1,0-2H37a4,4,0,0,1,4,4v9A1,1,0,0,1,39,27Z"/><path class="cls-2" d="M25,29v4H3a2,2,0,0,1-1.41-3.41C2.41,28.75,1.27,29,25,29Z"/><rect class="cls-3" x="5" y="1" width="20" height="28"/><path class="cls-4" d="M5,1V29H3a2,2,0,0,0-2,2V3A2,2,0,0,1,3,1Z"/><path class="cls-5" d="M25,29v2H5a2,2,0,0,1-2-2Z"/><path class="cls-6" d="M25,1c0,27.19-.1,26,0,26A16,16,0,0,1,9,11V1Z"/><path class="cls-7" d="M5,1c0,27.19-.1,26,0,26a2,2,0,0,1-2-2V1Z"/><path class="cls-8" d="M20,20H10a1,1,0,0,1,0-2H20A1,1,0,0,1,20,20Z"/><path class="cls-8" d="M18,24H12a1,1,0,0,1,0-2h6A1,1,0,0,1,18,24Z"/><rect class="cls-4" x="10" y="7" width="10" height="6"/><path class="cls-7" d="M20,7v4H16a4,4,0,0,1-4-4Z"/><path class="cls-9" d="M47,30c0,10.4.37,11.56-1.15,13.85A7,7,0,0,1,33,40V30a3,3,0,0,1,2.13-2.87c.68-.2.57-.13,8.87-.13A3,3,0,0,1,47,30Z"/><path class="cls-10" d="M47,30c0,10.4.37,11.56-1.15,13.85A7,7,0,0,1,35,38c0-10.78-.06-10.25.13-10.87.68-.2.57-.13,8.87-.13A3,3,0,0,1,47,30Z"/><path class="cls-11" d="M47,30v4H40V27h4A3,3,0,0,1,47,30Z"/><path class="cls-12" d="M40,27v7H33V30a3,3,0,0,1,3-3Z"/><path class="cls-11" d="M40,27v7H35V30a3,3,0,0,1,3-3Z"/><rect class="cls-10" x="39" y="27" width="2" height="8"/></g></svg>