<svg xmlns="http://www.w3.org/2000/svg" viewBox="0 0 48 48"><defs><style>.cls-1{fill:#9fdbf3;}.cls-2{fill:#dad7e5;}.cls-3{fill:#b2e5fb;}.cls-4{fill:#edebf2;}.cls-5{fill:#425b72;}.cls-6{fill:#919191;}.cls-7{fill:#db5669;}.cls-8{fill:#f26674;}.cls-9{fill:#9dcc6b;}.cls-10{fill:#b5e08c;}</style></defs><title>33. Chemistry tutorial</title><g id="_33._Chemistry_tutorial" data-name="33. Chemistry tutorial"><path class="cls-1" d="M3,2H45a2,2,0,0,1,2,2V30a0,0,0,0,1,0,0H1a0,0,0,0,1,0,0V4A2,2,0,0,1,3,2Z"/><path class="cls-2" d="M1,30H47a0,0,0,0,1,0,0v4a2,2,0,0,1-2,2H3a2,2,0,0,1-2-2V30a0,0,0,0,1,0,0Z"/><path class="cls-3" d="M47,4V28H30A26,26,0,0,1,4,2H45A2,2,0,0,1,47,4Z"/><path class="cls-4" d="M47,30v4H8a4,4,0,0,1-4-4Z"/><path class="cls-5" d="M24,34a1,1,0,0,1-1-1,1,1,0,1,1,1,1Z"/><polygon class="cls-2" points="28 42 20 42 21.33 36 26.67 36 28 42"/><path class="cls-2" d="M17,42H31a1,1,0,0,1,1,1v3a0,0,0,0,1,0,0H16a0,0,0,0,1,0,0V43A1,1,0,0,1,17,42Z"/><path class="cls-4" d="M39,25H17a1,1,0,0,1,0-2H39A1,1,0,0,1,39,25Z"/><path class="cls-6" d="M20,25V23a1,1,0,0,1,2,0v2A1,1,0,0,1,20,25Z"/><polygon class="cls-7" points="9 26 9 22 13 24 9 26"/><polygon class="cls-8" points="12 23.5 9 25 9 22 12 23.5"/><path class="cls-2" d="M26.73,19H21.27a2,2,0,0,1-1.54-3.28L22,13V7h4v6l2.27,2.72A2,2,0,0,1,26.73,19Z"/><path class="cls-4" d="M26.73,19H23.27a2,2,0,0,1-1.54-3.28L24,13V7h2v6l2.27,2.72A2,2,0,0,1,26.73,19Z"/><path class="cls-9" d="M26.73,19H21.27a2,2,0,0,1-1.54-3.28c1.51-1.81.41-1,2.42-.51,1.65.4,2.67-.15,4.94-.91l1.18,1.42A2,2,0,0,1,26.73,19Z"/><path class="cls-10" d="M26.73,19H23.27a2,2,0,0,1-1.54-3.28l.42-.51c1.65.4,2.67-.15,4.94-.91l1.18,1.42A2,2,0,0,1,26.73,19Z"/><path class="cls-4" d="M27,8H21a1,1,0,0,1,0-2h6A1,1,0,0,1,27,8Z"/><path class="cls-4" d="M27.56,40H26.1a3.29,3.29,0,0,1-3.21-4h3.78Z"/><path class="cls-4" d="M32,43v1H20a2,2,0,0,1-2-2H31A1,1,0,0,1,32,43Z"/></g></svg>