<svg xmlns="http://www.w3.org/2000/svg" viewBox="0 0 48 48"><defs><style>.cls-1{fill:#dad7e5;}.cls-2{fill:#edebf2;}.cls-3{fill:#9fdbf3;}.cls-4{fill:#b2e5fb;}.cls-5{fill:#f6ccaf;}.cls-6{fill:#9dcc6b;}.cls-7{fill:#fc6;}.cls-8{fill:#ffdec7;}.cls-9{fill:#b5e08c;}.cls-10{fill:#ffde76;}</style></defs><title>39. book on Laptop</title><g id="_39._book_on_Laptop" data-name="39. book on Laptop"><path class="cls-1" d="M42,10a2,2,0,0,1,2,2V40H28l-1,1H21l-1-1H4V12a2,2,0,0,1,2-2Z"/><path class="cls-2" d="M44,12V38H10a3,3,0,0,1-3-3V10H42A2,2,0,0,1,44,12Z"/><path class="cls-3" d="M40,14V36H8V14Z"/><path class="cls-4" d="M40,14V34H14a3,3,0,0,1-3-3V14Z"/><path class="cls-1" d="M47,40v2a2,2,0,0,1-2,2H3a2,2,0,0,1-2-2V40H20l1,1h6l1-1Z"/><path class="cls-2" d="M47,40v2H6a2,2,0,0,1-2-2H20l1,1h6l1-1Z"/><path class="cls-5" d="M35,28v4H15a2,2,0,0,1-1.41-3.41C14.4,27.75,13.48,28,35,28Z"/><rect class="cls-6" x="17" y="4" width="18" height="24"/><path class="cls-7" d="M17,4V28H15a2,2,0,0,0-2,2V6a2,2,0,0,1,2-2Z"/><path class="cls-8" d="M35,28v2H17a2,2,0,0,1-2-2Z"/><path class="cls-9" d="M35,4c0,23.28-.1,22,0,22A16,16,0,0,1,19,10V4Z"/><path class="cls-10" d="M17,4c0,23.28-.1,22,0,22a2,2,0,0,1-2-2V4Z"/><rect class="cls-7" x="22" y="9" width="8" height="4"/><path class="cls-10" d="M30,9v2H26a2,2,0,0,1-2-2Z"/><path class="cls-2" d="M30,20H22a1,1,0,0,1,0-2h8A1,1,0,0,1,30,20Z"/><path class="cls-2" d="M28,24H24a1,1,0,0,1,0-2h4A1,1,0,0,1,28,24Z"/></g></svg>