<svg xmlns="http://www.w3.org/2000/svg" viewBox="0 0 48 48"><defs><style>.cls-1{fill:#374f68;}.cls-2{fill:#425b72;}.cls-3{fill:#f6ccaf;}.cls-4{fill:#ffdec7;}.cls-5{fill:#dad7e5;}.cls-6{fill:#9fdbf3;}.cls-7{fill:#b2e5fb;}.cls-8{fill:#6fabe6;}.cls-9{fill:#82bcf4;}.cls-10{fill:#db5669;}.cls-11{fill:#f26674;}.cls-12{fill:#2c435e;}.cls-13{fill:#ffde76;}.cls-14{fill:#edebf2;}</style></defs><title>26. Graduate man</title><g id="_26._Graduate_man" data-name="26. Graduate man"><path class="cls-1" d="M42,47H6l.77-9.25a4,4,0,0,1,2.89-3.51L21,31h6l11.34,3.24a4,4,0,0,1,2.89,3.51Z"/><path class="cls-2" d="M41.92,46H17.28c-7.42,0-10.62-8.78-7.2-11.88L21,31h6l11.34,3.24a4,4,0,0,1,2.89,3.51Z"/><path class="cls-3" d="M27,27.32V31l-3,3.09L21,31V27.32Z"/><polygon class="cls-4" points="27 27.32 27 31 25 33.06 23 31 23 27.32 27 27.32"/><path class="cls-5" d="M30.14,31.9a18,18,0,0,1-2.33,4l-3.26-2.35L27,31Z"/><path class="cls-6" d="M33.73,32.92,24,45,14.27,32.92l3.59-1a18,18,0,0,0,2.33,4c2.45,2.86,5.17,2.86,7.62,0a18.56,18.56,0,0,0,2.33-4Z"/><path class="cls-7" d="M32.42,32.55,24,43,15.58,32.55l2.28-.65,1.21,2.33c1.58,3,4.63,5,7.33,3,2-1.47,2.59-3.08,3.74-5.3Z"/><path class="cls-8" d="M37.65,34,27.22,47H20.78L10.35,34l3.92-1.12L24,45l9.73-12.08Z"/><polygon class="cls-9" points="36.18 33.62 26.22 46 21.78 46 11.82 33.62 14.27 32.92 24 45 33.73 32.92 36.18 33.62"/><path class="cls-3" d="M31,13v8a7,7,0,0,1-14,0V13Z"/><path class="cls-4" d="M31,13v8a6.94,6.94,0,0,1-2.94,5.69A7,7,0,0,1,19,20V13Z"/><path class="cls-3" d="M17,13v5H15.5a2.51,2.51,0,0,1-1.77-4.27C14.65,12.81,15.7,13,17,13Z"/><path class="cls-4" d="M17,13v4h-.5a2.5,2.5,0,0,1-2.2-3.69C14.67,12.94,15.9,13,17,13Z"/><path class="cls-3" d="M31,18h1.5a2.5,2.5,0,0,0,0-5H31Z"/><path class="cls-5" d="M23.45,33.52l-3.26,2.35a18.56,18.56,0,0,1-2.33-4L21,31Z"/><path class="cls-10" d="M27.81,35.87A9.08,9.08,0,0,1,26.4,37.2c-1.69,1.26-4,1.23-6.21-1.33l3.26-2.35.55.57.55-.57Z"/><path class="cls-11" d="M27.81,35.87c-1.53,1.53-4.17,1.77-6.47-.83l2.11-1.52.55.57.55-.57Z"/><path class="cls-12" d="M13,42v5H11V42A1,1,0,0,1,13,42Z"/><path class="cls-12" d="M37,42v5H35V42A1,1,0,0,1,37,42Z"/><path class="cls-13" d="M12,5v5a1,1,0,0,1-2,0V5Z"/><path class="cls-4" d="M31,13v4h.5a2.5,2.5,0,0,0,2.2-3.69C33.33,12.94,32.1,13,31,13Z"/><path class="cls-1" d="M33,6.43V13H15V6.43L24,9Z"/><path class="cls-2" d="M33,6.43V11H19a2,2,0,0,1-2-2V7l7,2Z"/><path class="cls-1" d="M38,5,24,9,10,5,24,1Z"/><path class="cls-2" d="M34.5,4,24,7,13.5,4,24,1Z"/><path class="cls-14" d="M22.31,32.34l-2.12,1.53a10.25,10.25,0,0,1-1.43-2.23L21,31Z"/><path class="cls-14" d="M25.69,32.34l2.12,1.53a10.25,10.25,0,0,0,1.43-2.23L27,31Z"/></g></svg>