<svg xmlns="http://www.w3.org/2000/svg" viewBox="0 0 48 48"><defs><style>.cls-1{fill:#6fabe6;}.cls-2{fill:#82bcf4;}.cls-3{fill:#374f68;}.cls-4{fill:#425b72;}.cls-5{fill:#ffde76;}</style></defs><title>28. Cloud mortarboard</title><g id="_28._Cloud_mortarboard" data-name="28. Cloud mortarboard"><path class="cls-1" d="M38,34a9,9,0,0,0,0-18c-2.21,0-2,.51-2,0a10,10,0,0,0-19.65-2.59A7,7,0,0,0,7,20.08,7,7,0,0,0,8,34Z"/><path class="cls-2" d="M47,25a9,9,0,0,1-9,9c-31.94,0-31.45.44-33.85-1.15A7,7,0,0,1,9,22.08a7,7,0,0,1,9.35-6.67A10,10,0,0,1,34,10a9.89,9.89,0,0,1,2,6c0,.46-.22.06,1.8,0A9,9,0,0,1,47,25Z"/><path class="cls-3" d="M34,30.25V40a2,2,0,0,1-2,2H16a2,2,0,0,1-2-2V30.25L24,34Z"/><path class="cls-4" d="M34,30.25V40H18a2,2,0,0,1-2-2V31l8,3Z"/><path class="cls-5" d="M8.88,36,9,28.73a1,1,0,0,1,2,0L10.88,36A1,1,0,0,1,8.88,36Z"/><path class="cls-3" d="M40,28,24,34,8,28l16-6Z"/><polygon class="cls-4" points="37.33 27 24 32 10.67 27 24 22 37.33 27"/></g></svg>