<svg id="_50._Biology_Tutorial" data-name="50. Biology Tutorial" xmlns="http://www.w3.org/2000/svg" viewBox="0 0 48 48"><defs><style>.cls-1{fill:#dad7e5;}.cls-2{fill:#edebf2;}.cls-3{fill:#9fdbf3;}.cls-4{fill:#b2e5fb;}.cls-5{fill:#425b72;}.cls-6{fill:#919191;}.cls-7{fill:#b5e08c;}.cls-8{fill:#db5669;}.cls-9{fill:#f26674;}</style></defs><title>50. Biology Tutorial</title><path class="cls-1" d="M1,30H47a0,0,0,0,1,0,0v4a2,2,0,0,1-2,2H3a2,2,0,0,1-2-2V30A0,0,0,0,1,1,30Z"/><path class="cls-2" d="M47,30v4H8a4,4,0,0,1-4-4Z"/><path class="cls-3" d="M3,2H45a2,2,0,0,1,2,2V30a0,0,0,0,1,0,0H1a0,0,0,0,1,0,0V4A2,2,0,0,1,3,2Z"/><path class="cls-4" d="M47,4V28H30A26,26,0,0,1,4,2H45A2,2,0,0,1,47,4Z"/><path class="cls-5" d="M24,34a1,1,0,1,1,.56-1.83A1,1,0,0,1,24,34Z"/><polygon class="cls-1" points="28 42 20 42 21.33 36 26.67 36 28 42"/><path class="cls-1" d="M17,42H31a1,1,0,0,1,1,1v3a0,0,0,0,1,0,0H16a0,0,0,0,1,0,0V43A1,1,0,0,1,17,42Z"/><path class="cls-2" d="M39,25H17a1,1,0,0,1,0-2H39A1,1,0,0,1,39,25Z"/><path class="cls-6" d="M20,25V23a1,1,0,0,1,2,0v2A1,1,0,0,1,20,25Z"/><path class="cls-7" d="M25.85,14.44c-.79,0-2.39-.28-2.74-1a5.12,5.12,0,0,1,1-5.93l1.22-1.23a1,1,0,0,1,1.42,1.42c-1.18,1.17-2.76,2.35-1.95,4.53,2.18.81,3.41-.83,4.53-2a1,1,0,0,1,1.42,1.42C29.29,13.12,28.23,14.44,25.85,14.44Z"/><path class="cls-7" d="M22,20a1,1,0,0,1-.71-1.71c1.18-1.17,2.76-2.35,1.95-4.53-2.19-.82-3.44.86-4.53,2a1,1,0,0,1-1.42-1.42l1.23-1.22a5.12,5.12,0,0,1,5.93-1c1,.51,1.8,4.05-.52,6.37C22.76,19.65,22.56,20,22,20Z"/><path class="cls-7" d="M28.67,13.33c-.56,0-.3.12-4.71-4.29a1,1,0,0,1,1.41-1.41l4,4A1,1,0,0,1,28.67,13.33Z"/><path class="cls-7" d="M23.33,18.67c-.55,0-.29.11-4.7-4.3A1,1,0,0,1,20,13l4,4A1,1,0,0,1,23.33,18.67Z"/><path class="cls-2" d="M27.56,40H26.1a3.29,3.29,0,0,1-3.21-4h3.78Z"/><path class="cls-2" d="M32,43v1H20a2,2,0,0,1-2-2H31A1,1,0,0,1,32,43Z"/><polygon class="cls-8" points="9 26 9 22 13 24 9 26"/><polygon class="cls-9" points="12 23.5 9 25 9 22 12 23.5"/></svg>