<svg xmlns="http://www.w3.org/2000/svg" viewBox="0 0 512 512"><title>80 Winery Icons - Expanded</title><path d="M188,16h0A112,112,0,0,0,76,128V320H188V288h64a48,48,0,0,0,48-48V128A112,112,0,0,0,188,16Z" fill="#fab991"/><path d="M76,320H252a48,48,0,0,1,48,48V496a0,0,0,0,1,0,0H28a0,0,0,0,1,0,0V368A48,48,0,0,1,76,320Z" fill="#e13741"/><path d="M76,320h0a48,48,0,0,1,48,48V496a0,0,0,0,1,0,0H28a0,0,0,0,1,0,0V368A48,48,0,0,1,76,320Z" fill="#ff555f"/><path d="M108,288h80a0,0,0,0,1,0,0v32a0,0,0,0,1,0,0H76a0,0,0,0,1,0,0v0A32,32,0,0,1,108,288Z" fill="#f0915a"/><path d="M172,112H76a16,16,0,0,0-16,16V240a32,32,0,0,0,32,32h32a32,32,0,0,0,32-32V200h0a32,32,0,0,0,32-32V128A16,16,0,0,0,172,112Z" fill="#d7e6f0"/><path d="M140,320h0a48,48,0,0,1,48,48v8a24,24,0,0,0,24,24h0a24,24,0,0,0,24-24v-8a48,48,0,0,0-48-48Z" fill="#d7e6f0"/><circle cx="226.667" cy="160" r="12" fill="#3c413c"/><circle cx="266.667" cy="160" r="12" fill="#3c413c"/><path d="M246.667,173.333h0a32,32,0,0,1,32,32V208a16,16,0,0,1-16,16h0a16,16,0,0,1-16-16V173.333a0,0,0,0,1,0,0Z" fill="#f0915a"/><path d="M244,240h32a0,0,0,0,1,0,0v0a16,16,0,0,1-16,16h0a16,16,0,0,1-16-16v0a0,0,0,0,1,0,0Z" fill="#3c413c"/><path d="M479.314,388.687a16,16,0,0,0-22.627,0l-38.629,38.627A15.891,15.891,0,0,1,406.745,432H364a8,8,0,0,0-8,8v56h32V480a16,16,0,0,1,16-16h2.745a47.678,47.678,0,0,0,33.941-14.06l38.628-38.627A16,16,0,0,0,479.314,388.687Z" fill="#f0915a"/><path d="M392,392H356a32,32,0,0,0-32,32v72h32V440a8,8,0,0,1,8-8h28a20,20,0,0,0,20-20h0A20,20,0,0,0,392,392Z" fill="#fab991"/><path d="M156,160v80a40,40,0,0,1,0-80Z" fill="#f0915a"/><path d="M364,192h64a8,8,0,0,1,8,8v72a32,32,0,0,1-32,32H388a32,32,0,0,1-32-32V200A8,8,0,0,1,364,192Z" fill="#a5c3dc"/><path d="M356,226.667h80a0,0,0,0,1,0,0V272a32,32,0,0,1-32,32H388a32,32,0,0,1-32-32V226.667a0,0,0,0,1,0,0Z" fill="#aa2823"/><rect x="388" y="304" width="16" height="64" fill="#a5c3dc"/><rect x="388" y="304" width="16" height="16" fill="#87a5be"/><path d="M380,368h32a16,16,0,0,1,16,16v0a0,0,0,0,1,0,0H364a0,0,0,0,1,0,0v0A16,16,0,0,1,380,368Z" fill="#87a5be"/><path d="M356,226.667h32a0,0,0,0,1,0,0V272a16,16,0,0,1-16,16h0a16,16,0,0,1-16-16V226.667a0,0,0,0,1,0,0Z" fill="#e13741"/><rect x="366.667" y="202.667" width="10.667" height="69.333" rx="5.333" ry="5.333" fill="#d7e6f0"/><path d="M420.318,80A31.915,31.915,0,0,0,396,90.845,31.915,31.915,0,0,0,371.682,80c-18.984.184-33.212,17.14-31.5,36.047,2.934,32.378,40.3,53.479,50.558,58.689A11.6,11.6,0,0,0,396,176h0a11.6,11.6,0,0,0,5.259-1.262c10.263-5.21,47.624-26.311,50.558-58.689C453.53,97.142,439.3,80.186,420.318,80Z" fill="#e13741"/><circle cx="372" cy="112" r="16" fill="#ff555f"/></svg>