<svg xmlns="http://www.w3.org/2000/svg" viewBox="0 0 512 512"><title>80 Winery Icons - Expanded</title><path d="M208,144a47.834,47.834,0,0,1,18.632,3.752,63.829,63.829,0,0,1,18.623-49.007L256,88V200h-8a48,48,0,0,1-48-48h0a8,8,0,0,1,8-8Z" fill="#4b873c"/><path d="M208,144h0a47.834,47.834,0,0,1,18.632,3.752,63.829,63.829,0,0,1,18.623-49.007L256,88l10.745,10.745a63.829,63.829,0,0,1,18.623,49.007A47.834,47.834,0,0,1,304,144h0a8,8,0,0,1,8,8h0a48,48,0,0,1-48,48H248a48,48,0,0,1-48-48h0A8,8,0,0,1,208,144Z" fill="#73a041"/><path d="M208,144a47.834,47.834,0,0,1,18.632,3.752,63.829,63.829,0,0,1,18.623-49.007L256,88V200h-8a48,48,0,0,1-48-48h0a8,8,0,0,1,8-8Z" fill="#4b873c"/><circle cx="256" cy="248" r="32" fill="#aa2823"/><circle cx="256" cy="344" r="32" fill="#aa2823"/><circle cx="309.333" cy="248" r="32" fill="#aa2823"/><circle cx="202.667" cy="248" r="32" fill="#aa2823"/><circle cx="282.667" cy="296" r="32" fill="#aa2823"/><circle cx="229.333" cy="296" r="32" fill="#aa2823"/><circle cx="282.667" cy="200" r="32" fill="#aa2823"/><circle cx="229.333" cy="200" r="32" fill="#aa2823"/><circle cx="248" cy="240" r="16" fill="#e13741"/><circle cx="248" cy="336" r="16" fill="#e13741"/><circle cx="301.333" cy="240" r="16" fill="#e13741"/><circle cx="194.667" cy="240" r="16" fill="#e13741"/><circle cx="274.667" cy="288" r="16" fill="#e13741"/><circle cx="221.333" cy="288" r="16" fill="#e13741"/><circle cx="274.667" cy="192" r="16" fill="#e13741"/><circle cx="221.333" cy="192" r="16" fill="#e13741"/><path d="M368,72a47.834,47.834,0,0,1,18.632,3.752,63.829,63.829,0,0,1,18.623-49.007L416,16V128h-8a48,48,0,0,1-48-48h0a8,8,0,0,1,8-8Z" fill="#4b873c"/><path d="M368,72h0a47.834,47.834,0,0,1,18.632,3.752,63.829,63.829,0,0,1,18.623-49.007L416,16l10.745,10.745a63.829,63.829,0,0,1,18.623,49.007A47.834,47.834,0,0,1,464,72h0a8,8,0,0,1,8,8h0a48,48,0,0,1-48,48H408a48,48,0,0,1-48-48h0A8,8,0,0,1,368,72Z" fill="#73a041"/><path d="M368,72a47.834,47.834,0,0,1,18.632,3.752,63.829,63.829,0,0,1,18.623-49.007L416,16V128h-8a48,48,0,0,1-48-48h0a8,8,0,0,1,8-8Z" fill="#4b873c"/><circle cx="416" cy="176" r="32" fill="#aa2823"/><circle cx="416" cy="272" r="32" fill="#aa2823"/><circle cx="469.333" cy="176" r="32" fill="#aa2823"/><circle cx="362.667" cy="176" r="32" fill="#aa2823"/><circle cx="442.667" cy="224" r="32" fill="#aa2823"/><circle cx="389.333" cy="224" r="32" fill="#aa2823"/><circle cx="442.667" cy="128" r="32" fill="#aa2823"/><circle cx="389.333" cy="128" r="32" fill="#aa2823"/><circle cx="408" cy="168" r="16" fill="#e13741"/><circle cx="408" cy="264" r="16" fill="#e13741"/><circle cx="461.333" cy="168" r="16" fill="#e13741"/><circle cx="354.667" cy="168" r="16" fill="#e13741"/><circle cx="434.667" cy="216" r="16" fill="#e13741"/><circle cx="381.333" cy="216" r="16" fill="#e13741"/><circle cx="434.667" cy="120" r="16" fill="#e13741"/><circle cx="381.333" cy="120" r="16" fill="#e13741"/><path d="M48,72a47.834,47.834,0,0,1,18.632,3.752A63.829,63.829,0,0,1,85.255,26.745L96,16V128H88A48,48,0,0,1,40,80h0a8,8,0,0,1,8-8Z" fill="#4b873c"/><path d="M48,72h0a47.834,47.834,0,0,1,18.632,3.752A63.829,63.829,0,0,1,85.255,26.745L96,16l10.745,10.745a63.829,63.829,0,0,1,18.623,49.007A47.834,47.834,0,0,1,144,72h0a8,8,0,0,1,8,8h0a48,48,0,0,1-48,48H88A48,48,0,0,1,40,80h0A8,8,0,0,1,48,72Z" fill="#73a041"/><path d="M48,72a47.834,47.834,0,0,1,18.632,3.752A63.829,63.829,0,0,1,85.255,26.745L96,16V128H88A48,48,0,0,1,40,80h0a8,8,0,0,1,8-8Z" fill="#4b873c"/><circle cx="96" cy="176" r="32" fill="#aa2823"/><circle cx="96" cy="272" r="32" fill="#aa2823"/><circle cx="149.333" cy="176" r="32" fill="#aa2823"/><circle cx="42.667" cy="176" r="32" fill="#aa2823"/><circle cx="122.667" cy="224" r="32" fill="#aa2823"/><circle cx="69.333" cy="224" r="32" fill="#aa2823"/><circle cx="122.667" cy="128" r="32" fill="#aa2823"/><circle cx="69.333" cy="128" r="32" fill="#aa2823"/><circle cx="88" cy="168" r="16" fill="#e13741"/><circle cx="88" cy="264" r="16" fill="#e13741"/><circle cx="141.333" cy="168" r="16" fill="#e13741"/><circle cx="34.667" cy="168" r="16" fill="#e13741"/><circle cx="114.667" cy="216" r="16" fill="#e13741"/><circle cx="61.333" cy="216" r="16" fill="#e13741"/><circle cx="114.667" cy="120" r="16" fill="#e13741"/><circle cx="61.333" cy="120" r="16" fill="#e13741"/><path d="M264,384H195.882a48,48,0,0,0-33.941,14.059L144,416l40,40,19.314-19.314A16,16,0,0,1,214.627,432H264a24,24,0,0,0,24-24h0A24,24,0,0,0,264,384Z" fill="#fab991"/><path d="M379.313,372.686a16,16,0,0,0-22.626,0L297.373,432H214.627a16,16,0,0,0-11.313,4.686L184,456l24,24,16-16h76.687a23.843,23.843,0,0,0,16.97-7.03l61.656-61.656A16,16,0,0,0,379.313,372.686Z" fill="#f0915a"/><path d="M258.667,394.667H264A13.333,13.333,0,0,1,277.333,408v0A13.333,13.333,0,0,1,264,421.333h-5.333a8,8,0,0,1-8-8V402.667A8,8,0,0,1,258.667,394.667Z" fill="#f0915a"/><path d="M141.657,413.657,184,456l-40,40H48l82.343-82.343A8,8,0,0,1,141.657,413.657Z" fill="#55525b"/><path d="M184,456l26.343,26.343a8,8,0,0,1,0,11.314L208,496H144Z" fill="#353744"/></svg>