<svg xmlns="http://www.w3.org/2000/svg" viewBox="0 0 512 512"><title>80 Winery Icons - Expanded</title><path d="M256,16h98.745a32,32,0,0,1,22.628,9.373l35.48,35.48A120,120,0,0,1,448,145.706V366.294a120,120,0,0,1-35.147,84.853l-35.48,35.48A32,32,0,0,1,354.745,496H256Z" fill="#faa01e"/><path d="M256,16H157.255a32,32,0,0,0-22.628,9.373l-35.48,35.48A120,120,0,0,0,64,145.706V366.294a120,120,0,0,0,35.147,84.853l35.48,35.48A32,32,0,0,0,157.255,496H256Z" fill="#facc0a"/><path d="M192,16,171.444,67.391A159.991,159.991,0,0,0,160,126.813V385.187a159.991,159.991,0,0,0,11.444,59.422L192,496H157.255a32,32,0,0,1-22.628-9.373l-35.48-35.48A120,120,0,0,1,64,366.294V145.706A120,120,0,0,1,99.147,60.853l35.48-35.48A32,32,0,0,1,157.255,16Z" fill="#faa01e"/><path d="M412.853,60.853l-35.48-35.48A32,32,0,0,0,354.745,16H320l16,40H104l-4.853,4.853c-1.03,1.03-2.033,2.083-3.022,3.147H339.2l1.356,3.391A159.991,159.991,0,0,1,352,126.813V200H64v16H352V352H64v14.294c0,.57.013,1.138.021,1.706H352v17.187a159.991,159.991,0,0,1-11.444,59.422L320,496h34.745a32,32,0,0,0,22.628-9.373l35.48-35.48A119.991,119.991,0,0,0,447.979,368h0c.008-.568.021-1.136.021-1.706V145.706A120,120,0,0,0,412.853,60.853Z" fill="#dc6e1e"/><path d="M149.255,16h213.49a32,32,0,0,1,22.628,9.373l23.8,23.8A4,4,0,0,1,406.343,56H105.657a4,4,0,0,1-2.829-6.828l23.8-23.8A32,32,0,0,1,149.255,16Z" fill="#3c413c"/><rect x="56" y="160" width="400" height="40" rx="8" ry="8" fill="#3c413c"/><rect x="56" y="312" width="400" height="40" rx="8" ry="8" fill="#3c413c"/><path d="M256,16H149.255a32,32,0,0,0-22.628,9.373l-23.8,23.8A4,4,0,0,0,105.657,56H256Z" fill="#736969"/><path d="M256,160H64a8,8,0,0,0-8,8v24a8,8,0,0,0,8,8H256Z" fill="#736969"/><path d="M256,312H64a8,8,0,0,0-8,8v24a8,8,0,0,0,8,8H256Z" fill="#736969"/><polygon points="168 16 144 56 160 56 184 16 168 16" fill="#918787"/><path d="M149.255,496h213.49a32,32,0,0,0,22.628-9.373l23.8-23.8A4,4,0,0,0,406.343,456H105.657a4,4,0,0,0-2.829,6.828l23.8,23.8A32,32,0,0,0,149.255,496Z" fill="#3c413c"/><path d="M256,496H149.255a32,32,0,0,1-22.628-9.373l-23.8-23.8A4,4,0,0,1,105.657,456H256Z" fill="#736969"/><polygon points="168 496 144 456 160 456 184 496 168 496" fill="#918787"/><rect x="120" y="312" width="16" height="40" fill="#918787"/><rect x="120" y="160" width="16" height="40" fill="#918787"/><path d="M340.853,171.147A120,120,0,1,0,376,256,119.215,119.215,0,0,0,340.853,171.147Z" fill="#fff"/><path d="M256,112A144,144,0,1,0,400,256,144,144,0,0,0,256,112Zm0,264a120,120,0,1,1,84.853-35.147A119.215,119.215,0,0,1,256,376Z" fill="#e13741"/><path d="M304,208h0a47.834,47.834,0,0,0-18.632,3.752,63.829,63.829,0,0,0-18.623-49.007L256,152l-10.745,10.745a63.829,63.829,0,0,0-18.623,49.007A47.834,47.834,0,0,0,208,208h0a8,8,0,0,0-8,8h0a48,48,0,0,0,48,48h16a48,48,0,0,0,48-48h0A8,8,0,0,0,304,208Z" fill="#73a041"/><path d="M304,208a47.834,47.834,0,0,0-18.632,3.752,63.829,63.829,0,0,0-18.623-49.007L256,152V264h8a48,48,0,0,0,48-48h0a8,8,0,0,0-8-8Z" fill="#506932"/><circle cx="256" cy="336" r="24" fill="#aa2823"/><circle cx="240" cy="240" r="24" fill="#aa2823"/><circle cx="232" cy="232" r="8" fill="#e13741"/><circle cx="272" cy="240" r="24" fill="#aa2823"/><circle cx="264" cy="232" r="8" fill="#e13741"/><circle cx="240" cy="304" r="24" fill="#aa2823"/><circle cx="272" cy="304" r="24" fill="#aa2823"/><circle cx="224" cy="272" r="24" fill="#aa2823"/><circle cx="216" cy="264" r="8" fill="#e13741"/><circle cx="288" cy="272" r="24" fill="#aa2823"/><circle cx="256" cy="272" r="24" fill="#aa2823"/><circle cx="248" cy="264" r="8" fill="#e13741"/><circle cx="280" cy="264" r="8" fill="#e13741"/><circle cx="232" cy="296" r="8" fill="#e13741"/><circle cx="264" cy="296" r="8" fill="#e13741"/><circle cx="248" cy="328" r="8" fill="#e13741"/></svg>