<svg xmlns="http://www.w3.org/2000/svg" viewBox="0 0 512 512"><title>80 Winery Icons - Expanded</title><path d="M16,252H48a0,0,0,0,1,0,0v40a32,32,0,0,1-32,32h0a0,0,0,0,1,0,0V252A0,0,0,0,1,16,252Z" fill="#73a041"/><path d="M32,268a16,16,0,0,1-16-16V212a88.1,88.1,0,0,1,88-88,16,16,0,0,1,0,32,56.063,56.063,0,0,0-56,56v40A16,16,0,0,1,32,268Z" fill="#73a041"/><path d="M264,348h-8a16,16,0,0,1,0-32h8a56.063,56.063,0,0,0,56-56V212a88,88,0,0,1,176,0v40a16,16,0,0,1-32,0V212a56,56,0,0,0-112,0v48A88.1,88.1,0,0,1,264,348Z" fill="#73a041"/><circle cx="256" cy="476" r="24" fill="#aa2823"/><rect x="16" y="220" width="448" height="32" fill="#3c413c"/><rect x="16" y="220" width="448" height="16" fill="#736969"/><path d="M256,348h-8a88.1,88.1,0,0,1-88-88V212a56.063,56.063,0,0,0-56-56,16,16,0,0,1,0-32,88.1,88.1,0,0,1,88,88v48a56.063,56.063,0,0,0,56,56h8a16,16,0,0,1,0,32Z" fill="#73a041"/><rect x="248" y="332" width="16" height="32" fill="#4b873c"/><circle cx="240" cy="380" r="24" fill="#aa2823"/><circle cx="232" cy="372" r="8" fill="#e13741"/><circle cx="272" cy="380" r="24" fill="#aa2823"/><circle cx="264" cy="372" r="8" fill="#e13741"/><circle cx="240" cy="444" r="24" fill="#aa2823"/><circle cx="272" cy="444" r="24" fill="#aa2823"/><circle cx="224" cy="412" r="24" fill="#aa2823"/><circle cx="216" cy="404" r="8" fill="#e13741"/><circle cx="288" cy="412" r="24" fill="#aa2823"/><circle cx="256" cy="412" r="24" fill="#aa2823"/><circle cx="248" cy="404" r="8" fill="#e13741"/><path d="M176,220H160v-8a56,56,0,0,0-112,0v8H32v-8a72,72,0,0,1,144,0Z" fill="#4b873c"/><path d="M264,348H248a88.1,88.1,0,0,1-88-88V220h16v40a72.081,72.081,0,0,0,72,72h16a72.081,72.081,0,0,0,72-72v-8h16v8A88.1,88.1,0,0,1,264,348Z" fill="#4b873c"/><path d="M480,220H464v-8a56,56,0,0,0-112,0v8H336v-8a72,72,0,0,1,144,0Z" fill="#4b873c"/><path d="M16,324h0V308h0a16,16,0,0,0,16-16V252H48v40A32,32,0,0,1,16,324Z" fill="#4b873c"/><path d="M464,252h0a32,32,0,0,1,32,32v40a0,0,0,0,1,0,0H464a0,0,0,0,1,0,0V252A0,0,0,0,1,464,252Z" transform="translate(960 576) rotate(180)" fill="#73a041"/><path d="M496,324h0V308h0a16,16,0,0,1-16-16V220H464v72A32,32,0,0,0,496,324Z" fill="#4b873c"/><path d="M152,68h0a47.834,47.834,0,0,0-18.632,3.752,63.829,63.829,0,0,0-18.623-49.007L104,12,93.255,22.745A63.829,63.829,0,0,0,74.632,71.752,47.834,47.834,0,0,0,56,68h0a8,8,0,0,0-8,8h0a48,48,0,0,0,48,48h16a48,48,0,0,0,48-48h0A8,8,0,0,0,152,68Z" fill="#73a041"/><path d="M152,68a47.834,47.834,0,0,0-18.632,3.752,63.829,63.829,0,0,0-18.623-49.007L104,12V124h8a48,48,0,0,0,48-48h0a8,8,0,0,0-8-8Z" fill="#4b873c"/><path d="M464,68a47.834,47.834,0,0,0-18.632,3.752,63.829,63.829,0,0,0-18.623-49.007L416,12V124h8a48,48,0,0,0,48-48h0a8,8,0,0,0-8-8Z" fill="#4b873c"/><path d="M464,68h0a47.834,47.834,0,0,0-18.632,3.752,63.829,63.829,0,0,0-18.623-49.007L416,12,405.255,22.745a63.829,63.829,0,0,0-18.623,49.007A47.834,47.834,0,0,0,368,68h0a8,8,0,0,0-8,8h0a48,48,0,0,0,48,48h16a48,48,0,0,0,48-48h0A8,8,0,0,0,464,68Z" fill="#73a041"/><path d="M464,68a47.834,47.834,0,0,0-18.632,3.752,63.829,63.829,0,0,0-18.623-49.007L416,12V124h8a48,48,0,0,0,48-48h0a8,8,0,0,0-8-8Z" fill="#4b873c"/><circle cx="280" cy="404" r="8" fill="#e13741"/><circle cx="232" cy="436" r="8" fill="#e13741"/><circle cx="264" cy="436" r="8" fill="#e13741"/><circle cx="248" cy="468" r="8" fill="#e13741"/></svg>