<svg xmlns="http://www.w3.org/2000/svg" viewBox="0 0 512 512"><title>80 Winery Icons - Expanded</title><path d="M16,224H496a0,0,0,0,1,0,0V456a8,8,0,0,1-8,8H24a8,8,0,0,1-8-8V224a0,0,0,0,1,0,0Z" fill="#4b873c"/><rect x="16" y="272" width="480" height="192" rx="8" ry="8" fill="#734119"/><polygon points="248 272 224 464 288 464 264 272 248 272" fill="#73a041"/><polygon points="256 272 256 464 288 464 264 272 256 272" fill="#4b873c"/><polygon points="277.333 272 352 464 416 464 293.333 272 277.333 272" fill="#4b873c"/><path d="M328,272H312L480,464h8a8,8,0,0,0,8-8V421.333Z" fill="#4b873c"/><polygon points="496 355.692 360 272 344 272 496 382.545 496 355.692" fill="#4b873c"/><polygon points="496 320.941 392 272 376 272 496 336 496 320.941" fill="#4b873c"/><polygon points="496 299.429 424 272 408 272 496 309.053 496 299.429" fill="#4b873c"/><polygon points="496 284.8 456 272 440 272 496 291.478 496 284.8" fill="#4b873c"/><path d="M488,272H472l24,8h0A8,8,0,0,0,488,272Z" fill="#4b873c"/><polygon points="216 272 93.333 464 157.333 464 232 272 216 272" fill="#73a041"/><path d="M181.333,272,16,418.963V456a8,8,0,0,0,8,8h5.333l168-192Z" fill="#73a041"/><polygon points="16 380.606 165.333 272 149.333 272 16 354.051 16 380.606" fill="#73a041"/><polygon points="16 334.578 133.333 272 117.333 272 16 319.686 16 334.578" fill="#73a041"/><polygon points="16 307.93 101.333 272 85.333 272 16 298.413 16 307.93" fill="#73a041"/><polygon points="16 290.551 69.333 272 53.333 272 16 283.947 16 290.551" fill="#73a041"/><path d="M16,280l21.333-8H24a8,8,0,0,0-8,8Z" fill="#73a041"/><rect x="160" y="208" width="96" height="64" fill="#d7e6f0"/><path d="M208,224h0a16,16,0,0,1,16,16v32a0,0,0,0,1,0,0H192a0,0,0,0,1,0,0V240A16,16,0,0,1,208,224Z" fill="#3c413c"/><polygon points="256 208 304 160 352 208 352 272 256 272 256 208" fill="#a5c3dc"/><polygon points="160 208 208 160 304 160 256 208 160 208" fill="#736969"/><rect x="208" y="96" width="48" height="64" fill="#d7e6f0"/><rect x="256" y="96" width="48" height="64" fill="#a5c3dc"/><polygon points="208 96 256 48 304 96 208 96" fill="#3c413c"/><polygon points="208 96 256 48 256 96 208 96" fill="#736969"/><circle cx="232" cy="128" r="13.333" fill="#3c413c"/><circle cx="304" cy="208" r="13.333" fill="#3c413c"/><path d="M464,248V213.3a63.955,63.955,0,0,1,.871-10.522l8.919-53.514A6.3,6.3,0,0,1,480,144h0a6.3,6.3,0,0,1,6.21,5.261l8.919,53.514A63.955,63.955,0,0,1,496,213.3V248a8,8,0,0,1-8,8H472A8,8,0,0,1,464,248Z" fill="#73a041"/><rect x="474.667" y="256" width="10.667" height="16" fill="#734119"/><path d="M392,248V213.3a63.955,63.955,0,0,1,.871-10.522l8.919-53.514A6.3,6.3,0,0,1,408,144h0a6.3,6.3,0,0,1,6.21,5.261l8.919,53.514A63.955,63.955,0,0,1,424,213.3V248a8,8,0,0,1-8,8H400A8,8,0,0,1,392,248Z" fill="#73a041"/><rect x="402.667" y="256" width="10.667" height="16" fill="#734119"/><path d="M16,248V213.3a63.955,63.955,0,0,1,.871-10.522l8.919-53.514A6.3,6.3,0,0,1,32,144h0a6.3,6.3,0,0,1,6.21,5.261l8.919,53.514A63.955,63.955,0,0,1,48,213.3V248a8,8,0,0,1-8,8H24A8,8,0,0,1,16,248Z" fill="#73a041"/><rect x="26.667" y="256" width="10.667" height="16" fill="#734119"/><path d="M88,248V213.3a63.955,63.955,0,0,1,.871-10.522l8.919-53.514A6.3,6.3,0,0,1,104,144h0a6.3,6.3,0,0,1,6.21,5.261l8.919,53.514A63.955,63.955,0,0,1,120,213.3V248a8,8,0,0,1-8,8H96A8,8,0,0,1,88,248Z" fill="#73a041"/><rect x="98.667" y="256" width="10.667" height="16" fill="#734119"/></svg>