<svg xmlns="http://www.w3.org/2000/svg" viewBox="0 0 512 512"><title>80 Winery Icons - Expanded</title><circle cx="52" cy="252" r="28" fill="#73a041"/><circle cx="108" cy="252" r="28" fill="#ff555f"/><circle cx="404" cy="252" r="28" fill="#dc6e1e"/><circle cx="460" cy="252" r="28" fill="#facc0a"/><rect x="80" y="36" width="352" height="32" fill="#dc6e1e"/><path d="M130.661,260a8,8,0,0,1-7.749-6.037L80,84.576,37.088,253.965a8,8,0,1,1-15.51-3.93l50.667-200a8,8,0,0,1,15.51,0l50.667,200A8.007,8.007,0,0,1,130.661,260Z" fill="#a5c3dc"/><path d="M24,252H136a8,8,0,0,1,8,8v8a48,48,0,0,1-48,48H64a48,48,0,0,1-48-48v-8A8,8,0,0,1,24,252Z" fill="#faa01e"/><path d="M144,260H88a8,8,0,0,0-8,8v32a16,16,0,0,1-16,16H96a48,48,0,0,0,48-48Z" fill="#dc6e1e"/><rect x="240" y="52" width="32" height="72" fill="#dc6e1e"/><path d="M240,100h8a8,8,0,0,1,8,8v16a0,0,0,0,1,0,0H240a0,0,0,0,1,0,0V100A0,0,0,0,1,240,100Z" fill="#faa01e"/><path d="M482.661,260a8,8,0,0,1-7.749-6.037L432,84.576,389.088,253.965a8,8,0,1,1-15.51-3.93l50.667-200a8,8,0,0,1,15.51,0l50.667,200A8.007,8.007,0,0,1,482.661,260Z" fill="#a5c3dc"/><rect x="80" y="36" width="352" height="16" fill="#faa01e"/><circle cx="256" cy="52" r="32" fill="#faa01e"/><circle cx="256" cy="52" r="16" fill="#dc6e1e"/><circle cx="432" cy="52" r="24" fill="#faa01e"/><circle cx="432" cy="52" r="10.667" fill="#dc6e1e"/><circle cx="80" cy="52" r="24" fill="#faa01e"/><circle cx="80" cy="52" r="10.667" fill="#dc6e1e"/><path d="M376,252H488a8,8,0,0,1,8,8v8a48,48,0,0,1-48,48H416a48,48,0,0,1-48-48v-8A8,8,0,0,1,376,252Z" fill="#faa01e"/><path d="M496,260H440a8,8,0,0,0-8,8v32a16,16,0,0,1-16,16h32a48,48,0,0,0,48-48Z" fill="#dc6e1e"/><path d="M336,124H176a8,8,0,0,0-8,8v96a88.023,88.023,0,0,0,72,86.544V468h-8a24,24,0,0,0-24,24h96a24,24,0,0,0-24-24h-8V314.544A88.023,88.023,0,0,0,344,228V132A8,8,0,0,0,336,124Z" fill="#a5c3dc"/><path d="M176,124h80a0,0,0,0,1,0,0V228a44,44,0,0,1-44,44h0a44,44,0,0,1-44-44V132A8,8,0,0,1,176,124Z" fill="#d7e6f0"/><path d="M256,292a64.072,64.072,0,0,1-64-64V204H320v24A64.072,64.072,0,0,1,256,292Z" fill="#aa2823"/><path d="M256,204H192v24a63.751,63.751,0,0,0,17.52,43.926c.821.046,1.647.074,2.48.074h0a44,44,0,0,0,44-44Z" fill="#e13741"/><rect x="240" y="332" width="16" height="136" fill="#d7e6f0"/><path d="M184,236a8,8,0,0,1-8-8V148a8,8,0,0,1,16,0v80A8,8,0,0,1,184,236Z" fill="#fff"/></svg>