<svg xmlns="http://www.w3.org/2000/svg" viewBox="0 0 512 512"><title>80 Winery Icons - Expanded</title><path d="M116,416H396a4,4,0,0,1,4,4v12a16,16,0,0,1-16,16H128a16,16,0,0,1-16-16V420A4,4,0,0,1,116,416Z" fill="#aa2823"/><path d="M116,416H256a0,0,0,0,1,0,0v32a0,0,0,0,1,0,0H128a16,16,0,0,1-16-16V420A4,4,0,0,1,116,416Z" fill="#e13741"/><path d="M144,160h48a0,0,0,0,1,0,0V416a0,0,0,0,1,0,0H128a0,0,0,0,1,0,0V176A16,16,0,0,1,144,160Z" fill="#faa01e"/><rect x="256" y="160" width="64" height="256" fill="#faa01e"/><path d="M320,160h48a16,16,0,0,1,16,16V416a0,0,0,0,1,0,0H320a0,0,0,0,1,0,0V160A0,0,0,0,1,320,160Z" fill="#dc6e1e"/><rect x="192" y="160" width="64" height="256" fill="#facc0a"/><path d="M128,448v16a16,16,0,0,0-16,16h0a16,16,0,0,0,16,16h0a32,32,0,0,0,32-32V448Z" fill="#aa2823"/><path d="M384,464V448H352v16a32,32,0,0,0,32,32h0a16,16,0,0,0,16-16h0A16,16,0,0,0,384,464Z" fill="#aa2823"/><rect x="112" y="341.333" width="288" height="42.667" rx="8" ry="8" fill="#3c413c"/><rect x="112" y="192" width="288" height="42.667" rx="8" ry="8" fill="#3c413c"/><path d="M120,192H256a0,0,0,0,1,0,0v42.667a0,0,0,0,1,0,0H120a8,8,0,0,1-8-8V200A8,8,0,0,1,120,192Z" fill="#736969"/><path d="M120,341.333H256a0,0,0,0,1,0,0V384a0,0,0,0,1,0,0H120a8,8,0,0,1-8-8V349.333A8,8,0,0,1,120,341.333Z" fill="#736969"/><circle cx="224" cy="213.333" r="10.667" fill="#a5c3dc"/><circle cx="160" cy="213.333" r="10.667" fill="#a5c3dc"/><circle cx="288" cy="213.333" r="10.667" fill="#87a5be"/><circle cx="352" cy="213.333" r="10.667" fill="#87a5be"/><circle cx="224" cy="362.667" r="10.667" fill="#a5c3dc"/><circle cx="160" cy="362.667" r="10.667" fill="#a5c3dc"/><circle cx="288" cy="362.667" r="10.667" fill="#87a5be"/><circle cx="352" cy="362.667" r="10.667" fill="#87a5be"/><path d="M248,16h16a8,8,0,0,1,8,8V160a0,0,0,0,1,0,0H240a0,0,0,0,1,0,0V24A8,8,0,0,1,248,16Z" fill="#aa2823"/><rect x="224" y="64" width="64" height="64" rx="8" ry="8" fill="#aa2823"/><path d="M232,64h24a0,0,0,0,1,0,0v64a0,0,0,0,1,0,0H232a8,8,0,0,1-8-8V72A8,8,0,0,1,232,64Z" fill="#e13741"/><rect x="288" y="80" width="80" height="32" fill="#e13741"/><rect x="288" y="96" width="80" height="16" fill="#aa2823"/><circle cx="368" cy="96" r="32" fill="#aa2823"/><rect x="144" y="80" width="80" height="32" transform="translate(368 192) rotate(180)" fill="#e13741"/><rect x="144" y="96" width="80" height="16" transform="translate(368 208) rotate(180)" fill="#aa2823"/><circle cx="144" cy="96" r="32" fill="#aa2823"/><circle cx="144" cy="84" r="12" fill="#e13741"/><circle cx="368" cy="84" r="12" fill="#e13741"/></svg>