<svg xmlns="http://www.w3.org/2000/svg" viewBox="0 0 512 512"><title>80 Winery Icons - Expanded</title><path d="M194.626,193.75l-19.5-13A16,16,0,0,1,168,167.437V144H104v23.437a16,16,0,0,1-7.125,13.313l-19.5,13A48,48,0,0,0,56,233.689V480a16,16,0,0,0,16,16H200a16,16,0,0,0,16-16V233.689A48,48,0,0,0,194.626,193.75Z" fill="#e13741"/><path d="M78,480H66V233.689a37.926,37.926,0,0,1,16.921-31.618l19.5-13A25.947,25.947,0,0,0,114,167.437V144h12v23.437a37.926,37.926,0,0,1-16.921,31.618l-19.5,13A25.947,25.947,0,0,0,78,233.689Z" fill="#ff555f"/><rect x="96" y="16" width="80" height="32" rx="8" ry="8" fill="#736969"/><path d="M168,16H128a8,8,0,0,1,8,8V40a8,8,0,0,1-8,8h40a8,8,0,0,0,8-8V24A8,8,0,0,0,168,16Z" fill="#3c413c"/><path d="M194.626,193.75l-19.5-13A16,16,0,0,1,168,167.437V144H136V480H56a16,16,0,0,0,16,16H200a16,16,0,0,0,16-16V233.689A48,48,0,0,0,194.626,193.75Z" fill="#aa2823"/><rect x="104" y="48" width="32" height="96" fill="#736969"/><rect x="136" y="48" width="32" height="96" fill="#3c413c"/><rect x="104" y="48" width="32" height="8" fill="#3c413c"/><rect x="56" y="269.333" width="80" height="133.333" fill="#d7e6f0"/><rect x="136" y="269.333" width="80" height="133.333" fill="#a5c3dc"/><rect x="66" y="269.333" width="12" height="133.333" fill="#fff"/><path d="M396.853,251.147A120,120,0,1,0,432,336,119.215,119.215,0,0,0,396.853,251.147Z" fill="#fff"/><path d="M312,192A144,144,0,1,0,456,336,144,144,0,0,0,312,192Zm0,264a120,120,0,1,1,84.853-35.147A119.215,119.215,0,0,1,312,456Z" fill="#ff555f"/><path d="M260,296a20.023,20.023,0,0,0-20,20v60a8,8,0,0,0,16,0V344h8v32a8,8,0,0,0,16,0V316A20.023,20.023,0,0,0,260,296Zm-4,32V316a4,4,0,0,1,8,0v12Z" fill="#aa2823"/><path d="M325.333,368h-12a4,4,0,0,1-4-4V304a8,8,0,0,0-16,0v60a20.023,20.023,0,0,0,20,20h12a8,8,0,1,0,0-16Z" fill="#aa2823"/><path d="M373.333,368h-12a4,4,0,0,1-4-4V316a4,4,0,0,1,4-4h12a8,8,0,1,0,0-16h-12a20.023,20.023,0,0,0-20,20v48a20.023,20.023,0,0,0,20,20h12a8,8,0,1,0,0-16Z" fill="#aa2823"/><path d="M360,104h0a47.852,47.852,0,0,0-18.632,3.751,63.828,63.828,0,0,0-18.623-49.006L312,48,301.255,58.745a63.828,63.828,0,0,0-18.623,49.006A47.852,47.852,0,0,0,264,104h0a8,8,0,0,0-8,8h0a48,48,0,0,0,48,48h16a48,48,0,0,0,48-48h0A8,8,0,0,0,360,104Z" fill="#73a041"/><path d="M360,104a47.834,47.834,0,0,0-18.632,3.752,63.829,63.829,0,0,0-18.623-49.007L312,48V160h8a48,48,0,0,0,48-48h0a8,8,0,0,0-8-8Z" fill="#506932"/><circle cx="312" cy="232" r="24" fill="#aa2823"/><circle cx="296" cy="136" r="24" fill="#aa2823"/><circle cx="288" cy="128" r="8" fill="#e13741"/><circle cx="328" cy="136" r="24" fill="#aa2823"/><circle cx="320" cy="128" r="8" fill="#e13741"/><circle cx="296" cy="200" r="24" fill="#aa2823"/><circle cx="328" cy="200" r="24" fill="#aa2823"/><circle cx="280" cy="168" r="24" fill="#aa2823"/><circle cx="272" cy="160" r="8" fill="#e13741"/><circle cx="344" cy="168" r="24" fill="#aa2823"/><circle cx="312" cy="168" r="24" fill="#aa2823"/><circle cx="304" cy="160" r="8" fill="#e13741"/><circle cx="336" cy="160" r="8" fill="#e13741"/><circle cx="288" cy="192" r="8" fill="#e13741"/><circle cx="320" cy="192" r="8" fill="#e13741"/><circle cx="304" cy="224" r="8" fill="#e13741"/></svg>