<svg xmlns="http://www.w3.org/2000/svg" viewBox="0 0 512 512"><title>80 Winery Icons - Expanded</title><path d="M288,16H96A16,16,0,0,0,80,32V192a112.018,112.018,0,0,0,96,110.857V448h0a32,32,0,0,1-32,32H120a8,8,0,0,0-8,8v8H272v-8a8,8,0,0,0-8-8H240a32,32,0,0,1-32-32h0V302.857A112.018,112.018,0,0,0,304,192V32A16,16,0,0,0,288,16Z" fill="#d7e6f0"/><path d="M184,496h88v-8H192A8,8,0,0,0,184,496Z" fill="#a5c3dc"/><path d="M288,16H192V192a56,56,0,0,1-56,56h0a56,56,0,0,1-56-56h0a112.018,112.018,0,0,0,96,110.857V320a16,16,0,0,1,16,16V480h48a32,32,0,0,1-32-32h0V302.857A112.018,112.018,0,0,0,304,192V32A16,16,0,0,0,288,16Z" fill="#a5c3dc"/><path d="M192,288a96.108,96.108,0,0,1-96-96V64H288V192A96.108,96.108,0,0,1,192,288Z" fill="#8c0a05"/><path d="M109.758,241.472A55.736,55.736,0,0,0,136,248h0a56,56,0,0,0,56-56V64H96V192A95.419,95.419,0,0,0,109.758,241.472Z" fill="#aa2823"/><rect x="112" y="32" width="16" height="168" rx="8" ry="8" fill="#fff"/><path d="M372.853,171.147A120,120,0,1,0,408,256,119.215,119.215,0,0,0,372.853,171.147Z" fill="#fff"/><path d="M320,115.574V88h10.343a5.657,5.657,0,0,0,4-9.657L301.657,45.657a19.314,19.314,0,0,0-27.314,0L241.657,78.343a5.657,5.657,0,0,0,4,9.657H256v27.574a144,144,0,1,0,64,0ZM288,376a120,120,0,1,1,84.853-35.147A119.215,119.215,0,0,1,288,376Z" fill="#ff555f"/><path d="M248,304a8,8,0,0,1-8-8V236a4,4,0,0,0-8,0v60a8,8,0,0,1-16,0V236a20,20,0,0,1,40,0v60A8,8,0,0,1,248,304Z" fill="#aa2823"/><path d="M248,264H224a8,8,0,0,1,0-16h24a8,8,0,0,1,0,16Z" fill="#aa2823"/><path d="M301.333,304h-12a20.023,20.023,0,0,1-20-20V224a8,8,0,0,1,16,0v60a4,4,0,0,0,4,4h12a8,8,0,1,1,0,16Z" fill="#aa2823"/><path d="M349.333,304h-12a20.023,20.023,0,0,1-20-20V236a20.023,20.023,0,0,1,20-20h12a8,8,0,1,1,0,16h-12a4,4,0,0,0-4,4v48a4,4,0,0,0,4,4h12a8,8,0,1,1,0,16Z" fill="#aa2823"/></svg>