<svg xmlns="http://www.w3.org/2000/svg" viewBox="0 0 512 512"><title>80 Winery Icons - Expanded</title><path d="M314.626,185.75l-19.5-13A16,16,0,0,1,288,159.437V136H224v23.437a16,16,0,0,1-7.125,13.313l-19.5,13A48,48,0,0,0,176,225.689V488a16,16,0,0,0,16,16H320a16,16,0,0,0,16-16V225.689A48,48,0,0,0,314.626,185.75Z" fill="#e13741"/><path d="M198,488H186V225.689a37.926,37.926,0,0,1,16.921-31.618l19.5-13A25.947,25.947,0,0,0,234,159.437V136h12v23.437a37.926,37.926,0,0,1-16.921,31.618l-19.5,13A25.947,25.947,0,0,0,198,225.689Z" fill="#ff555f"/><rect x="216" y="8" width="80" height="32" rx="8" ry="8" fill="#736969"/><path d="M288,8H248a8,8,0,0,1,8,8V32a8,8,0,0,1-8,8h40a8,8,0,0,0,8-8V16A8,8,0,0,0,288,8Z" fill="#3c413c"/><path d="M314.626,185.75l-19.5-13A16,16,0,0,1,288,159.437V136H256V488H176a16,16,0,0,0,16,16H320a16,16,0,0,0,16-16V225.689A48,48,0,0,0,314.626,185.75Z" fill="#aa2823"/><rect x="224" y="40" width="32" height="96" fill="#736969"/><rect x="256" y="40" width="32" height="96" fill="#3c413c"/><rect x="224" y="40" width="32" height="8" fill="#3c413c"/><rect x="176" y="261.333" width="80" height="149.333" fill="#d7e6f0"/><rect x="256" y="261.333" width="80" height="149.333" fill="#a5c3dc"/><rect x="186" y="261.333" width="12" height="149.333" fill="#fff"/></svg>