<svg xmlns="http://www.w3.org/2000/svg" viewBox="0 0 512 512"><title>80 Winery Icons - Expanded</title><circle cx="248" cy="240" r="24" fill="#aa2823"/><circle cx="240" cy="232" r="8" fill="#e13741"/><circle cx="296" cy="240" r="24" fill="#aa2823"/><circle cx="288" cy="232" r="8" fill="#e13741"/><circle cx="344" cy="240" r="24" fill="#aa2823"/><circle cx="336" cy="232" r="8" fill="#e13741"/><circle cx="392" cy="240" r="24" fill="#aa2823"/><circle cx="384" cy="232" r="8" fill="#e13741"/><path d="M200,120h0a47.852,47.852,0,0,0-3.751-18.632,63.828,63.828,0,0,0,49.006-18.623L256,72,245.255,61.255a63.828,63.828,0,0,0-49.006-18.623A47.852,47.852,0,0,0,200,24h0a8,8,0,0,0-8-8h0a48,48,0,0,0-48,48V80a48,48,0,0,0,48,48h0A8,8,0,0,0,200,120Z" fill="#73a041"/><path d="M200,120a47.834,47.834,0,0,0-3.752-18.632,63.829,63.829,0,0,0,49.007-18.623L256,72H144v8a48,48,0,0,0,48,48h0a8,8,0,0,0,8-8Z" fill="#506932"/><circle cx="144" cy="184" r="24" fill="#aa2823"/><circle cx="128" cy="88" r="24" fill="#aa2823"/><circle cx="120" cy="80" r="8" fill="#e13741"/><circle cx="160" cy="88" r="24" fill="#aa2823"/><circle cx="152" cy="80" r="8" fill="#e13741"/><circle cx="128" cy="152" r="24" fill="#aa2823"/><circle cx="160" cy="152" r="24" fill="#aa2823"/><circle cx="112" cy="120" r="24" fill="#aa2823"/><circle cx="104" cy="112" r="8" fill="#e13741"/><circle cx="176" cy="120" r="24" fill="#aa2823"/><circle cx="144" cy="120" r="24" fill="#aa2823"/><circle cx="136" cy="112" r="8" fill="#e13741"/><circle cx="168" cy="112" r="8" fill="#e13741"/><circle cx="120" cy="144" r="8" fill="#e13741"/><circle cx="152" cy="144" r="8" fill="#e13741"/><circle cx="136" cy="176" r="8" fill="#e13741"/><polygon points="208 240 208 336 144 336 80 240 208 240" fill="#87a5be"/><rect x="64" y="224" width="160" height="16" rx="8" ry="8" fill="#a5c3dc"/><path d="M208,240H416a16,16,0,0,1,16,16v80a0,0,0,0,1,0,0H208a0,0,0,0,1,0,0V240A0,0,0,0,1,208,240Z" fill="#d7e6f0"/><rect x="144" y="336" width="288" height="32" fill="#a5c3dc"/><path d="M90.216,496h0a10.216,10.216,0,0,0,8.76-4.96L144,416V336H96a16,16,0,0,0-16,16V485.784A10.216,10.216,0,0,0,90.216,496Z" fill="#a5c3dc"/><path d="M421.784,496h0a10.216,10.216,0,0,1-8.76-4.96L368,416V336h64V485.784A10.216,10.216,0,0,1,421.784,496Z" fill="#a5c3dc"/><rect x="144" y="368" width="224" height="48" fill="#87a5be"/><rect x="240" y="304" width="48" height="16" rx="8" ry="8" fill="#87a5be"/><rect x="352" y="304" width="48" height="16" rx="8" ry="8" fill="#87a5be"/><rect x="432" y="336" width="16" height="32" fill="#a5c3dc"/><rect x="432" y="336" width="16" height="16" fill="#d7e6f0"/><path d="M260.92,385.761A7.739,7.739,0,0,0,256,384h0a7.754,7.754,0,0,0-4.925,1.765c-7.969,6.544-34.331,31-35.06,68.642-.428,22.152,17.248,41.274,39.4,41.589A40,40,0,0,0,296,456C296,417.443,268.993,392.389,260.92,385.761Z" fill="#aa2823"/><path d="M251.074,385.766c-7.968,6.543-34.33,31-35.059,68.64-.007.387,0,.77.007,1.153,0,.148-.022.293-.022.441a20,20,0,0,0,40,0V384A7.749,7.749,0,0,0,251.074,385.766Z" fill="#e13741"/><path d="M228.015,458.648h-.079a4,4,0,0,1-3.922-4.076c.313-16.185,6.118-32.249,16.788-46.454a4,4,0,1,1,6.4,4.805c-9.792,13.037-14.9,27.1-15.186,41.8A4,4,0,0,1,228.015,458.648Z" fill="#ff555f"/></svg>