<svg xmlns="http://www.w3.org/2000/svg" viewBox="0 0 512 512"><title>80 Winery Icons - Expanded</title><path d="M250.626,193.75l-19.5-13A16,16,0,0,1,224,167.437V144H160v23.437a16,16,0,0,1-7.125,13.313l-19.5,13A48,48,0,0,0,112,233.689V480a16,16,0,0,0,16,16H256a16,16,0,0,0,16-16V233.689A48,48,0,0,0,250.626,193.75Z" fill="#e13741"/><path d="M134,480H122V233.689a37.926,37.926,0,0,1,16.921-31.618l19.5-13A25.947,25.947,0,0,0,170,167.437V144h12v23.437a37.926,37.926,0,0,1-16.921,31.618l-19.5,13A25.947,25.947,0,0,0,134,233.689Z" fill="#ff555f"/><rect x="152" y="16" width="80" height="32" rx="8" ry="8" fill="#736969"/><path d="M224,16H184a8,8,0,0,1,8,8V40a8,8,0,0,1-8,8h40a8,8,0,0,0,8-8V24A8,8,0,0,0,224,16Z" fill="#3c413c"/><path d="M250.626,193.75l-19.5-13A16,16,0,0,1,224,167.437V144H192V480H112a16,16,0,0,0,16,16H256a16,16,0,0,0,16-16V233.689A48,48,0,0,0,250.626,193.75Z" fill="#aa2823"/><rect x="160" y="48" width="32" height="96" fill="#736969"/><rect x="192" y="48" width="32" height="96" fill="#3c413c"/><rect x="160" y="48" width="32" height="8" fill="#3c413c"/><rect x="112" y="269.333" width="80" height="133.333" fill="#d7e6f0"/><rect x="192" y="269.333" width="80" height="133.333" fill="#a5c3dc"/><rect x="122" y="269.333" width="12" height="133.333" fill="#fff"/><path d="M336,318.676V136a32,32,0,0,0-32-32h0a32,32,0,0,0-32,32V318.676a80,80,0,1,0,64,0Z" fill="#d7e6f0"/><path d="M304,296a16,16,0,0,1,16,16V136a16,16,0,0,0-32,0V312A16,16,0,0,1,304,296Z" fill="#87a5be"/><path d="M320,338.332V312a16,16,0,0,0-32,0v26.332a56,56,0,1,0,32,0Z" fill="#e13741"/><path d="M279.62,341.574a56.107,56.107,0,0,0-30.014,37.111,28,28,0,1,0,30.014-37.111Z" fill="#ff555f"/><rect x="352" y="296" width="48" height="16" rx="8" ry="8" fill="#e13741"/><rect x="352" y="256" width="32" height="16" rx="8" ry="8" fill="#e13741"/><rect x="352" y="216" width="48" height="16" rx="8" ry="8" fill="#e13741"/><rect x="352" y="176" width="32" height="16" rx="8" ry="8" fill="#e13741"/><rect x="352" y="136" width="48" height="16" rx="8" ry="8" fill="#e13741"/></svg>