<svg xmlns="http://www.w3.org/2000/svg" viewBox="0 0 512 512"><title>80 Winery Icons - Expanded</title><rect x="64" y="16" width="384" height="480" rx="192" ry="192" fill="#e13741"/><path d="M256,476c-94.841,0-172-77.159-172-172a12,12,0,0,1,24,0c0,81.607,66.393,148,148,148s148-66.393,148-148a12,12,0,0,1,24,0C428,398.841,350.841,476,256,476Z" fill="#faa01e"/><path d="M416,220a12,12,0,0,1-12-12c0-81.607-66.393-148-148-148S108,126.393,108,208a12,12,0,0,1-24,0c0-94.841,77.159-172,172-172s172,77.159,172,172A12,12,0,0,1,416,220Z" fill="#faa01e"/><rect x="128" y="80" width="256" height="352" rx="128" ry="128" fill="#aa2823"/><path d="M192,272h0V400h96a48,48,0,0,0,48-48V240H224A32,32,0,0,1,192,272Zm114.667-10.667A10.667,10.667,0,1,1,296,272,10.666,10.666,0,0,1,306.667,261.333Zm-24,24a32,32,0,0,1,32,32V320a16,16,0,0,1-16,16h0a16,16,0,0,1-16-16ZM304,352a16,16,0,0,1-32,0Zm-45.333-90.667A10.667,10.667,0,1,1,248,272,10.666,10.666,0,0,1,258.667,261.333Z" fill="#fab991"/><path d="M189.159,413.177A127.252,127.252,0,0,0,224,427.967V400H192A31.862,31.862,0,0,1,189.159,413.177Z" fill="#f0915a"/><path d="M256,128H208a111.487,111.487,0,0,0-65.811,21.375A127.446,127.446,0,0,0,128,208v96a127.92,127.92,0,0,0,61.159,109.177A31.862,31.862,0,0,0,192,400V352a40,40,0,0,1,0-80h0a32,32,0,0,0,32-32H336a16,16,0,0,0,16-16h0A96,96,0,0,0,256,128Z" fill="#dc6e1e"/><circle cx="258.667" cy="272" r="10.667" transform="translate(-5.848 5.683) rotate(-1.245)" fill="#3c413c"/><circle cx="306.667" cy="272" r="10.667" transform="translate(-5.837 6.726) rotate(-1.245)" fill="#3c413c"/><path d="M288,368a16,16,0,0,0,16-16H272A16,16,0,0,0,288,368Z" fill="#3c413c"/><path d="M298.667,336h0a16,16,0,0,0,16-16v-2.667a32,32,0,0,0-32-32V320A16,16,0,0,0,298.667,336Z" fill="#f0915a"/><path d="M152,312a40,40,0,0,0,40,40V272A40,40,0,0,0,152,312Z" fill="#f0915a"/><path d="M232,264h0a47.852,47.852,0,0,0-3.751-18.632,63.828,63.828,0,0,0,49.006-18.623L288,216l-10.745-10.745a63.828,63.828,0,0,0-49.006-18.623A47.852,47.852,0,0,0,232,168h0a8,8,0,0,0-8-8h0a48,48,0,0,0-48,48v16a48,48,0,0,0,48,48h0A8,8,0,0,0,232,264Z" fill="#73a041"/><path d="M232,264a47.834,47.834,0,0,0-3.752-18.632,63.829,63.829,0,0,0,49.007-18.623L288,216H176v8a48,48,0,0,0,48,48h0a8,8,0,0,0,8-8Z" fill="#506932"/><circle cx="176" cy="328" r="24" fill="#aa2823"/><circle cx="160" cy="232" r="24" fill="#aa2823"/><circle cx="152" cy="224" r="8" fill="#e13741"/><circle cx="192" cy="232" r="24" fill="#aa2823"/><circle cx="184" cy="224" r="8" fill="#e13741"/><circle cx="160" cy="296" r="24" fill="#aa2823"/><circle cx="192" cy="296" r="24" fill="#aa2823"/><circle cx="144" cy="264" r="24" fill="#aa2823"/><circle cx="136" cy="256" r="8" fill="#e13741"/><circle cx="208" cy="264" r="24" fill="#aa2823"/><circle cx="176" cy="264" r="24" fill="#aa2823"/><circle cx="168" cy="256" r="8" fill="#e13741"/><circle cx="200" cy="256" r="8" fill="#e13741"/><circle cx="152" cy="288" r="8" fill="#e13741"/><circle cx="184" cy="288" r="8" fill="#e13741"/><circle cx="168" cy="320" r="8" fill="#e13741"/></svg>