<svg xmlns="http://www.w3.org/2000/svg" viewBox="0 0 512 512"><title>80 Winery Icons - Expanded</title><path d="M194.626,193.75l-19.5-13A16,16,0,0,1,168,167.437V144H104v23.437a16,16,0,0,1-7.125,13.313l-19.5,13A48,48,0,0,0,56,233.689V480a16,16,0,0,0,16,16H200a16,16,0,0,0,16-16V233.689A48,48,0,0,0,194.626,193.75Z" fill="#e13741"/><path d="M78,480H66V233.689a37.924,37.924,0,0,1,16.922-31.618l19.5-13A25.947,25.947,0,0,0,114,167.437V144h12v23.437a37.924,37.924,0,0,1-16.922,31.618l-19.5,13A25.947,25.947,0,0,0,78,233.689Z" fill="#ff555f"/><rect x="96" y="16" width="80" height="32" rx="8" ry="8" fill="#736969"/><path d="M168,16H128a8,8,0,0,1,8,8V40a8,8,0,0,1-8,8h40a8,8,0,0,0,8-8V24A8,8,0,0,0,168,16Z" fill="#3c413c"/><path d="M194.626,193.75l-19.5-13A16,16,0,0,1,168,167.437V144H136V480H56a16,16,0,0,0,16,16H200a16,16,0,0,0,16-16V233.689A48,48,0,0,0,194.626,193.75Z" fill="#aa2823"/><rect x="104" y="48" width="32" height="96" fill="#736969"/><rect x="136" y="48" width="32" height="96" fill="#3c413c"/><rect x="104" y="48" width="32" height="8" fill="#3c413c"/><rect x="56" y="269.333" width="80" height="133.333" fill="#d7e6f0"/><rect x="136" y="269.333" width="80" height="133.333" fill="#a5c3dc"/><rect x="66" y="269.333" width="12" height="133.333" fill="#fff"/><path d="M396.853,251.147A120,120,0,1,0,432,336,119.215,119.215,0,0,0,396.853,251.147Z" fill="#fff"/><path d="M312,192A144,144,0,1,0,456,336,144,144,0,0,0,312,192Zm0,264a120,120,0,1,1,84.853-35.147A119.215,119.215,0,0,1,312,456Z" fill="#73a041"/><path d="M289.333,312h-28a8,8,0,0,0-8,8v72a8,8,0,1,0,16,0V360h20a20.023,20.023,0,0,0,20-20v-8A20.023,20.023,0,0,0,289.333,312Zm4,28a4,4,0,0,1-4,4h-20V328h20a4,4,0,0,1,4,4Z" fill="#4b873c"/><path d="M365.333,272a8,8,0,0,0-8,8v24h-24V280a8,8,0,0,0-16,0v72a8,8,0,0,0,16,0V320h24v32a8,8,0,0,0,16,0V280A8,8,0,0,0,365.333,272Z" fill="#4b873c"/><path d="M312,117.333a8,8,0,0,1-8-8V104a24.028,24.028,0,0,0-24-24,8,8,0,0,1,0-16,40.045,40.045,0,0,1,40,40v5.333A8,8,0,0,1,312,117.333Z" fill="#3c413c"/><path d="M344,96a47.815,47.815,0,0,0-32,12.232A47.993,47.993,0,0,0,232,144c0,45.333,32,80,56,80h48c24,0,56-34.667,56-80A48,48,0,0,0,344,96Z" fill="#afd237"/><circle cx="272" cy="128" r="16" fill="#cdf055"/><path d="M352,32h0a8,8,0,0,1,8,8v0a40,40,0,0,1-40,40h-8a0,0,0,0,1,0,0V72A40,40,0,0,1,352,32Z" fill="#4b873c"/></svg>