<svg xmlns="http://www.w3.org/2000/svg" viewBox="0 0 512 512"><title>80 Winery Icons - Expanded</title><path d="M212,128H52a8,8,0,0,0-8,8v96a88.023,88.023,0,0,0,72,86.544V472h-8a24,24,0,0,0-24,24h96a24,24,0,0,0-24-24h-8V318.544A88.023,88.023,0,0,0,220,232V136A8,8,0,0,0,212,128Z" fill="#a5c3dc"/><path d="M52,128h80a0,0,0,0,1,0,0V232a44,44,0,0,1-44,44h0a44,44,0,0,1-44-44V136a8,8,0,0,1,8-8Z" fill="#d7e6f0"/><path d="M132,296a64.072,64.072,0,0,1-64-64V208H196v24A64.072,64.072,0,0,1,132,296Z" fill="#aa2823"/><path d="M132,208H68v24a63.751,63.751,0,0,0,17.52,43.926c.821.046,1.647.074,2.48.074h0a44,44,0,0,0,44-44Z" fill="#e13741"/><rect x="116" y="336" width="16" height="136" fill="#d7e6f0"/><path d="M60,240a8,8,0,0,1-8-8V152a8,8,0,0,1,16,0v80A8,8,0,0,1,60,240Z" fill="#fff"/><circle cx="332" cy="152" r="136" fill="#fff"/><path d="M332,16c-2.686,0-5.352.087-8,.24V88.934a75,75,0,0,1-21.967,53.033l-35.406,35.406a22.628,22.628,0,0,0-6.627,16h0A22.628,22.628,0,0,0,282.627,216H324v71.76c2.648.153,5.314.24,8,.24a136,136,0,0,0,0-272Z" fill="#fab991"/><path d="M332,40a112,112,0,1,1-79.2,32.8A111.267,111.267,0,0,1,332,40m0-24A136,136,0,1,0,468,152,136,136,0,0,0,332,16Z" fill="#73a041"/><path d="M317.01,315.676l-25.791-25.79a6.438,6.438,0,0,0-9.105,0l-25.791,25.79a5.658,5.658,0,0,0,4,9.657h14.344V336a36.04,36.04,0,0,1-36,36H236a36.04,36.04,0,0,1-36-36,12,12,0,0,0-24,0,60.068,60.068,0,0,0,60,60h2.667a60.068,60.068,0,0,0,60-60V325.333H313.01a5.657,5.657,0,0,0,4-9.657Z" fill="#ff555f"/><path d="M372,106.667c-8.6,0-16.908-4.508-24.687-13.4a8,8,0,1,1,12.041-10.536C363.961,88,368.216,90.667,372,90.667s8.039-2.67,12.646-7.935a8,8,0,0,1,12.042,10.536C388.908,102.159,380.6,106.667,372,106.667Z" fill="#3c413c"/></svg>