<svg xmlns="http://www.w3.org/2000/svg" viewBox="0 0 512 512"><title>80 Winery Icons - Expanded</title><path d="M260,320H84a48,48,0,0,1,48,48V496H308V368A48,48,0,0,0,260,320Z" fill="#3c413c"/><path d="M84,320h0a48,48,0,0,1,48,48V496a0,0,0,0,1,0,0H36a0,0,0,0,1,0,0V368A48,48,0,0,1,84,320Z" fill="#d7e6f0"/><path d="M148,320h0a48,48,0,0,1,48,48v24a24,24,0,0,0,24,24h0a24,24,0,0,0,24-24V368a48,48,0,0,0-48-48Z" fill="#d7e6f0"/><path d="M372,192h64a8,8,0,0,1,8,8v72a32,32,0,0,1-32,32H396a32,32,0,0,1-32-32V200A8,8,0,0,1,372,192Z" fill="#a5c3dc"/><path d="M364,226.667h80a0,0,0,0,1,0,0V272a32,32,0,0,1-32,32H396a32,32,0,0,1-32-32V226.667A0,0,0,0,1,364,226.667Z" fill="#aa2823"/><rect x="396" y="304" width="16" height="64" fill="#a5c3dc"/><rect x="396" y="304" width="16" height="16" fill="#87a5be"/><path d="M388,368h32a16,16,0,0,1,16,16v0a0,0,0,0,1,0,0H372a0,0,0,0,1,0,0v0A16,16,0,0,1,388,368Z" fill="#87a5be"/><path d="M364,226.667h32a0,0,0,0,1,0,0V272a16,16,0,0,1-16,16h0a16,16,0,0,1-16-16V226.667a0,0,0,0,1,0,0Z" fill="#e13741"/><rect x="374.667" y="202.667" width="10.667" height="69.333" rx="5.333" ry="5.333" fill="#d7e6f0"/><path d="M180,32a96,96,0,0,0-96,96V320H196V288h64a48,48,0,0,0,48-48V128a96,96,0,0,0-96-96Z" fill="#fab991"/><path d="M228,16H180A112,112,0,0,0,68,128v4.292a32,32,0,1,0,0,55.416V256a16,16,0,0,0,16,16h48a32,32,0,0,0,32-32V160h0a32,32,0,0,0,32-32H308a16,16,0,0,0,16-16h0A96,96,0,0,0,228,16Z" fill="#e13741"/><path d="M116,288h80a0,0,0,0,1,0,0v32a0,0,0,0,1,0,0H84a0,0,0,0,1,0,0v0A32,32,0,0,1,116,288Z" fill="#f0915a"/><path d="M164,160v80a40,40,0,0,1,0-80Z" fill="#f0915a"/><circle cx="234.667" cy="160" r="12" fill="#3c413c"/><circle cx="274.667" cy="160" r="12" fill="#3c413c"/><path d="M254.667,173.333h0a32,32,0,0,1,32,32V208a16,16,0,0,1-16,16h0a16,16,0,0,1-16-16V173.333a0,0,0,0,1,0,0Z" fill="#f0915a"/><path d="M252,240h32a0,0,0,0,1,0,0v0a16,16,0,0,1-16,16h0a16,16,0,0,1-16-16v0a0,0,0,0,1,0,0Z" fill="#3c413c"/><path d="M487.313,388.687a16,16,0,0,0-22.627,0l-38.627,38.626A15.894,15.894,0,0,1,414.745,432H372a8,8,0,0,0-8,8v40h32a16,16,0,0,1,16-16h2.745a47.683,47.683,0,0,0,33.941-14.06l38.627-38.627A16,16,0,0,0,487.313,388.687Z" fill="#f0915a"/><path d="M400,392H364a32,32,0,0,0-32,32v56h32V440a8,8,0,0,1,8-8h28a20,20,0,0,0,20-20h0A20,20,0,0,0,400,392Z" fill="#fab991"/><path d="M332,480h64a8,8,0,0,1,8,8v8a0,0,0,0,1,0,0H324a0,0,0,0,1,0,0v-8A8,8,0,0,1,332,480Z" fill="#a5c3dc"/><circle cx="220" cy="456" r="16" fill="#736969"/><path d="M228,368a48,48,0,0,0-48-48H164a48,48,0,0,1,48,48v46.629a24.026,24.026,0,0,0,16,0Z" fill="#e13741"/></svg>