<svg xmlns="http://www.w3.org/2000/svg" viewBox="0 0 512 512"><title>80 Winery Icons - Expanded</title><circle cx="279.987" cy="44" r="24" fill="#f0915a"/><path d="M231.987,76h0a18.667,18.667,0,0,1,18.667,18.667v42.667A18.667,18.667,0,0,1,231.987,156h0a0,0,0,0,1,0,0V76A0,0,0,0,1,231.987,76Z" transform="translate(482.641 232) rotate(180)" fill="#f0915a"/><path d="M309.32,76h0a18.667,18.667,0,0,1,18.667,18.667v42.667A18.667,18.667,0,0,1,309.32,156h0a0,0,0,0,1,0,0V76A0,0,0,0,1,309.32,76Z" fill="#f0915a"/><path d="M250.654,108V76h0a18.667,18.667,0,0,0-18.667,18.667V108Z" fill="#aa2823"/><path d="M327.987,108V94.667A18.666,18.666,0,0,0,309.32,76h0v32Z" fill="#aa2823"/><path d="M250.654,76V216a12,12,0,0,0,12,12h0a12,12,0,0,0,12-12V161.333A5.333,5.333,0,0,1,279.987,156h0a5.333,5.333,0,0,1,5.333,5.333V216a12,12,0,0,0,12,12h0a12,12,0,0,0,12-12V76Z" fill="#e13741"/><circle cx="423.987" cy="44" r="24" fill="#f0915a"/><path d="M375.987,76h0a18.667,18.667,0,0,1,18.667,18.667v42.667A18.667,18.667,0,0,1,375.987,156h0a0,0,0,0,1,0,0V76A0,0,0,0,1,375.987,76Z" transform="translate(770.641 232) rotate(180)" fill="#f0915a"/><path d="M453.32,76h0a18.667,18.667,0,0,1,18.667,18.667v42.667A18.667,18.667,0,0,1,453.32,156h0a0,0,0,0,1,0,0V76A0,0,0,0,1,453.32,76Z" fill="#f0915a"/><path d="M394.654,108V76h0a18.667,18.667,0,0,0-18.667,18.667V108Z" fill="#aa2823"/><path d="M471.987,108V94.667A18.666,18.666,0,0,0,453.32,76h0v32Z" fill="#aa2823"/><path d="M394.654,76V216a12,12,0,0,0,12,12h0a12,12,0,0,0,12-12V161.333A5.333,5.333,0,0,1,423.987,156h0a5.333,5.333,0,0,1,5.333,5.333V216a12,12,0,0,0,12,12h0a12,12,0,0,0,12-12V76Z" fill="#e13741"/><circle cx="351.987" cy="148" r="64" fill="#fff"/><path d="M351.987,68a80,80,0,1,0,80,80A80,80,0,0,0,351.987,68Zm0,144a64,64,0,1,1,64-64A64.073,64.073,0,0,1,351.987,212Z" fill="#ff555f"/><path d="M391.987,140h-32V108a8,8,0,0,0-16,0v32h-32a8,8,0,0,0,0,16h32v32a8,8,0,1,0,16,0V156h32a8,8,0,1,0,0-16Z" fill="#aa2823"/><path d="M359.987,486h-176a66,66,0,1,1,0-132H277.32a30,30,0,0,0,0-60H119.987V258H277.32a66,66,0,0,1,0,132H183.987a30,30,0,1,0,0,60h176Z" fill="#faa01e"/><path d="M399.987,244h64a8,8,0,0,1,8,8v88a32,32,0,0,1-32,32h-16a32,32,0,0,1-32-32V252A8,8,0,0,1,399.987,244Z" fill="#a5c3dc"/><path d="M399.987,244h24a0,0,0,0,1,0,0v96a16,16,0,0,1-16,16h0a16,16,0,0,1-16-16V252A8,8,0,0,1,399.987,244Z" fill="#d7e6f0"/><path d="M391.987,278.667h80a0,0,0,0,1,0,0V340a32,32,0,0,1-32,32h-16a32,32,0,0,1-32-32V278.667A0,0,0,0,1,391.987,278.667Z" fill="#aa2823"/><rect x="423.987" y="372" width="16" height="96" fill="#a5c3dc"/><rect x="423.987" y="372" width="16" height="16" fill="#87a5be"/><path d="M415.987,468h32a16,16,0,0,1,16,16v0a0,0,0,0,1,0,0h-64a0,0,0,0,1,0,0v0A16,16,0,0,1,415.987,468Z" fill="#87a5be"/><path d="M391.987,278.667h32a0,0,0,0,1,0,0V340a16,16,0,0,1-16,16h0a16,16,0,0,1-16-16V278.667A0,0,0,0,1,391.987,278.667Z" fill="#e13741"/><rect x="402.654" y="254.667" width="10.667" height="85.333" rx="5.333" ry="5.333" fill="#fff"/><circle cx="119.987" cy="276" r="24" fill="#e13741"/><circle cx="359.987" cy="468" r="24" fill="#e13741"/><path d="M120.961,20.006c-46.03-.549-82.391,38.328-80.9,84.337,2.062,63.739,48.833,116.607,65.828,133.774a19.837,19.837,0,0,0,14.1,5.883h0a19.844,19.844,0,0,0,14.107-5.888c17.384-17.561,65.893-72.447,65.893-138.112A80,80,0,0,0,120.961,20.006Z" fill="#e13741"/><path d="M119.987,20V244a19.857,19.857,0,0,1-14.1-5.88c-17-17.17-63.77-70.04-65.83-133.78C38.577,58.66,74.417,20.01,119.987,20Z" fill="#ff555f"/><circle cx="119.987" cy="100" r="56" fill="#a5c3dc"/><path d="M119.987,44V156a56,56,0,1,1,0-112Z" fill="#d7e6f0"/></svg>