<svg xmlns="http://www.w3.org/2000/svg" viewBox="0 0 512 512"><title>80 Winery Icons - Expanded</title><path d="M416,338H402.79A98.79,98.79,0,0,1,304,239.21h0a180,180,0,0,1,9.237-56.921L332.49,124.53A8,8,0,0,0,324.9,114H187.1a8,8,0,0,0-7.589,10.53l19.253,57.759A180,180,0,0,1,208,239.21h0A98.79,98.79,0,0,1,109.21,338H96a64,64,0,0,0,0,128h32a32,32,0,0,0,32,32H352a32,32,0,0,0,32-32h32a64,64,0,0,0,0-128Z" fill="#a5c3dc"/><path d="M48,402H464a0,0,0,0,1,0,0v0a48,48,0,0,1-48,48H96a48,48,0,0,1-48-48v0a0,0,0,0,1,0,0Z" fill="#aa2823"/><path d="M256,114H187.1a8,8,0,0,0-7.589,10.53l19.253,57.759A180,180,0,0,1,208,239.21h0A98.79,98.79,0,0,1,109.21,338H96a64,64,0,0,0-64,64H224a32,32,0,0,0,32-32Z" fill="#d7e6f0"/><path d="M109.211,368H96a6,6,0,0,1,0-12h13.211A116.922,116.922,0,0,0,226,239.21,197.628,197.628,0,0,0,215.839,176.6l-12.233-36.7a6,6,0,0,1,11.385-3.794l12.233,36.7A209.621,209.621,0,0,1,238,239.21,128.935,128.935,0,0,1,109.211,368Z" fill="#fff"/><path d="M368,14H336a52.059,52.059,0,0,0-52,52H269.657a5.657,5.657,0,0,0-4,9.657l25.791,25.791a6.439,6.439,0,0,0,9.1,0l25.791-25.791a5.657,5.657,0,0,0-4-9.657H308a28.032,28.032,0,0,1,28-28h32a28.032,28.032,0,0,1,28,28v96a12,12,0,0,0,24,0V66A52.059,52.059,0,0,0,368,14Z" fill="#73a041"/><path d="M242.343,66H228a52.059,52.059,0,0,0-52-52H144A52.059,52.059,0,0,0,92,66v96a12,12,0,0,0,24,0V66a28.032,28.032,0,0,1,28-28h32a28.032,28.032,0,0,1,28,28H189.657a5.657,5.657,0,0,0-4,9.657l25.791,25.791a6.439,6.439,0,0,0,9.1,0l25.791-25.791a5.657,5.657,0,0,0-4-9.657Z" fill="#73a041"/><path d="M392,266a32.036,32.036,0,0,1-32-32V218a32,32,0,0,1,64,0v16A32.036,32.036,0,0,1,392,266Zm0-64a16.019,16.019,0,0,0-16,16v16a16,16,0,0,0,32,0V218A16.019,16.019,0,0,0,392,202Z" fill="#73a041"/><path d="M464,282H440a8,8,0,0,1-5.657-13.657l20.686-20.686A3.314,3.314,0,0,0,452.687,242H440a8,8,0,0,1,0-16h12.687a19.314,19.314,0,0,1,13.657,32.97L459.313,266H464a8,8,0,0,1,0,16Z" fill="#73a041"/><path d="M72,266a32.036,32.036,0,0,1-32-32V218a32,32,0,0,1,64,0v16A32.036,32.036,0,0,1,72,266Zm0-64a16.019,16.019,0,0,0-16,16v16a16,16,0,0,0,32,0V218A16.019,16.019,0,0,0,72,202Z" fill="#73a041"/><path d="M144,282H120a8,8,0,0,1-5.657-13.657l20.686-20.686A3.314,3.314,0,0,0,132.687,242H120a8,8,0,0,1,0-16h12.687a19.314,19.314,0,0,1,13.657,32.97L139.313,266H144a8,8,0,0,1,0,16Z" fill="#73a041"/></svg>