<svg xmlns="http://www.w3.org/2000/svg" viewBox="0 0 512 512"><title>80 Winery Icons - Expanded</title><circle cx="216" cy="368" r="56" fill="#3c413c"/><circle cx="200" cy="352" r="24" fill="#736969"/><path d="M96,176a47.834,47.834,0,0,1,3.752-18.632,63.829,63.829,0,0,1-49.007-18.623L40,128H152v8a48,48,0,0,1-48,48h0a8,8,0,0,1-8-8Z" fill="#4b873c"/><path d="M96,176h0a47.834,47.834,0,0,1,3.752-18.632,63.829,63.829,0,0,1-49.007-18.623L40,128l10.745-10.745A63.829,63.829,0,0,1,99.752,98.632,47.834,47.834,0,0,1,96,80h0a8,8,0,0,1,8-8h0a48,48,0,0,1,48,48v16a48,48,0,0,1-48,48h0A8,8,0,0,1,96,176Z" fill="#73a041"/><path d="M96,176a47.834,47.834,0,0,1,3.752-18.632,63.829,63.829,0,0,1-49.007-18.623L40,128H152v8a48,48,0,0,1-48,48h0a8,8,0,0,1-8-8Z" fill="#4b873c"/><path d="M168,208a16,16,0,0,1-16-16V128A112.127,112.127,0,0,1,264,16a16,16,0,0,1,0,32,80.091,80.091,0,0,0-80,80v64A16,16,0,0,1,168,208Z" fill="#73a041"/><path d="M264,32a96,96,0,0,0-96,96v80a16,16,0,0,0,16-16V128a80.091,80.091,0,0,1,80-80,16,16,0,0,0,16-16Z" fill="#4b873c"/><circle cx="168" cy="440" r="56" fill="#aa2823"/><circle cx="120" cy="368" r="56" fill="#aa2823"/><circle cx="216" cy="224" r="56" fill="#aa2823"/><circle cx="120" cy="224" r="56" fill="#3c413c"/><circle cx="168" cy="296" r="56" fill="#aa2823"/><circle cx="72" cy="296" r="56" fill="#aa2823"/><circle cx="264" cy="296" r="56" fill="#aa2823"/><circle cx="152" cy="424" r="24" fill="#e13741"/><circle cx="104" cy="352" r="24" fill="#e13741"/><circle cx="200" cy="208" r="24" fill="#e13741"/><circle cx="104" cy="208" r="24" fill="#736969"/><circle cx="152" cy="280" r="24" fill="#e13741"/><circle cx="56" cy="280" r="24" fill="#e13741"/><circle cx="248" cy="280" r="24" fill="#e13741"/><circle cx="352" cy="256" r="132" fill="#fff"/><path d="M352,136a120,120,0,1,1-84.853,35.147A119.215,119.215,0,0,1,352,136m0-24A144,144,0,1,0,496,256,144,144,0,0,0,352,112Z" fill="#a5c3dc"/><circle cx="136" cy="144" r="8" fill="#73a041"/><circle cx="101.333" cy="141.333" r="5.333" fill="#73a041"/><circle cx="122.667" cy="101.333" r="5.333" fill="#afd237"/><circle cx="90.667" cy="114.667" r="5.333" fill="#afd237"/><path d="M368,206a6,6,0,0,1-4.242-10.242l16-16a6,6,0,0,1,8.484,8.484l-16,16A5.979,5.979,0,0,1,368,206Z" fill="#734119"/><path d="M336,206a5.979,5.979,0,0,1-4.242-1.758l-16-16a6,6,0,0,1,8.484-8.484l16,16A6,6,0,0,1,336,206Z" fill="#734119"/><path d="M341.333,342a6,6,0,0,1-6-6V320a6,6,0,0,1,12,0v16A6,6,0,0,1,341.333,342Z" fill="#734119"/><path d="M360,342a6,6,0,0,1-6-6V320a6,6,0,0,1,12,0v16A6,6,0,0,1,360,342Z" fill="#734119"/><path d="M408,230H389.333a6,6,0,0,1,0-12H402V202.667a6,6,0,0,1,12,0V224A6,6,0,0,1,408,230Z" fill="#734119"/><path d="M402.667,326a6,6,0,0,1-6-6V304.667H384a6,6,0,0,1,0-12h18.667a6,6,0,0,1,6,6V320A6,6,0,0,1,402.667,326Z" fill="#734119"/><path d="M418.667,283.333a6,6,0,0,1-6-6V262H400a6,6,0,0,1,0-12h18.667a6,6,0,0,1,6,6v21.333A6,6,0,0,1,418.667,283.333Z" fill="#734119"/><path d="M317.333,230H298.667a6,6,0,0,1-6-6V202.667a6,6,0,1,1,12,0V218h12.666a6,6,0,1,1,0,12Z" fill="#734119"/><path d="M304,326a6,6,0,0,1-6-6V298.667a6,6,0,0,1,6-6h18.667a6,6,0,0,1,0,12H310V320A6,6,0,0,1,304,326Z" fill="#734119"/><path d="M288,283.333a6,6,0,0,1-6-6V256a6,6,0,0,1,6-6h18.667a6,6,0,0,1,0,12H294v15.333A6,6,0,0,1,288,283.333Z" fill="#734119"/><rect x="304" y="184" width="96" height="144" rx="48" ry="48" fill="#faa01e"/><rect x="304" y="232" width="96" height="48" fill="#dc6e1e"/></svg>