<svg xmlns="http://www.w3.org/2000/svg" viewBox="0 0 512 512"><title>80 Winery Icons - Expanded</title><path d="M432,100a3.991,3.991,0,0,1-2.828-1.171L414.16,83.816A53.652,53.652,0,0,0,375.976,68H312a4,4,0,0,1,0-8h63.976a61.6,61.6,0,0,1,43.84,18.159l15.012,15.012A4,4,0,0,1,432,100Z" fill="#dc6e1e"/><path d="M376,176a8,8,0,0,1-5.657-13.657L412.284,120.4A39.734,39.734,0,0,0,424,92.118V64a8,8,0,0,1,16,0V92.118a55.637,55.637,0,0,1-16.4,39.6l-41.942,41.941A7.976,7.976,0,0,1,376,176Z" fill="#734119"/><path d="M194.626,193.75l-19.5-13A16,16,0,0,1,168,167.437V144H104v23.437a16,16,0,0,1-7.125,13.313l-19.5,13A48,48,0,0,0,56,233.689V480a16,16,0,0,0,16,16H200a16,16,0,0,0,16-16V233.689A48,48,0,0,0,194.626,193.75Z" fill="#e13741"/><path d="M78,480H66V233.689a37.924,37.924,0,0,1,16.922-31.618l19.5-13A25.947,25.947,0,0,0,114,167.437V144h12v23.437a37.924,37.924,0,0,1-16.922,31.618l-19.5,13A25.947,25.947,0,0,0,78,233.689Z" fill="#ff555f"/><rect x="96" y="16" width="80" height="32" rx="8" ry="8" fill="#736969"/><path d="M168,16H128a8,8,0,0,1,8,8V40a8,8,0,0,1-8,8h40a8,8,0,0,0,8-8V24A8,8,0,0,0,168,16Z" fill="#3c413c"/><path d="M194.626,193.75l-19.5-13A16,16,0,0,1,168,167.437V144H136V480H56a16,16,0,0,0,16,16H200a16,16,0,0,0,16-16V233.689A48,48,0,0,0,194.626,193.75Z" fill="#aa2823"/><rect x="104" y="48" width="32" height="96" fill="#736969"/><rect x="136" y="48" width="32" height="96" fill="#3c413c"/><rect x="104" y="48" width="32" height="8" fill="#3c413c"/><rect x="56" y="269.333" width="80" height="133.333" fill="#d7e6f0"/><rect x="136" y="269.333" width="80" height="133.333" fill="#a5c3dc"/><rect x="66" y="269.333" width="12" height="133.333" fill="#fff"/><path d="M396.853,251.147A120,120,0,1,0,432,336,119.215,119.215,0,0,0,396.853,251.147Z" fill="#fff"/><path d="M312,192A144,144,0,1,0,456,336,144,144,0,0,0,312,192Zm0,264a120,120,0,1,1,84.853-35.147A119.215,119.215,0,0,1,312,456Z" fill="#faa01e"/><path d="M289.333,312h-28a8,8,0,0,0-8,8v72a8,8,0,1,0,16,0V360h20a20.023,20.023,0,0,0,20-20v-8A20.023,20.023,0,0,0,289.333,312Zm4,28a4,4,0,0,1-4,4h-20V328h20a4,4,0,0,1,4,4Z" fill="#dc6e1e"/><path d="M365.333,272a8,8,0,0,0-8,8v24h-24V280a8,8,0,0,0-16,0v72a8,8,0,0,0,16,0V320h24v32a8,8,0,0,0,16,0V280A8,8,0,0,0,365.333,272Z" fill="#dc6e1e"/><rect x="280" y="56" width="32" height="16" rx="8" ry="8" fill="#73a041"/><rect x="296" y="40" width="32" height="16" rx="8" ry="8" transform="translate(360 -264) rotate(90)" fill="#73a041"/><rect x="296" y="72" width="32" height="16" rx="8" ry="8" transform="translate(392 -232) rotate(90)" fill="#73a041"/><rect x="320" y="40" width="32" height="16" rx="8" ry="8" transform="translate(384 -288) rotate(90)" fill="#73a041"/><rect x="320" y="72" width="32" height="16" rx="8" ry="8" transform="translate(416 -256) rotate(90)" fill="#73a041"/><rect x="344" y="40" width="32" height="16" rx="8" ry="8" transform="translate(408 -312) rotate(90)" fill="#73a041"/><rect x="344" y="72" width="32" height="16" rx="8" ry="8" transform="translate(440 -280) rotate(90)" fill="#73a041"/><rect x="368" y="40" width="32" height="16" rx="8" ry="8" transform="translate(432 -336) rotate(90)" fill="#73a041"/><rect x="368" y="72" width="32" height="16" rx="8" ry="8" transform="translate(464 -304) rotate(90)" fill="#73a041"/><path d="M379.225,128.127a39.925,39.925,0,0,0-33.815,14.1,16.167,16.167,0,0,1-18.452,4.663,40.09,40.09,0,0,0-29.916,0,16.167,16.167,0,0,1-18.452-4.663,39.989,39.989,0,1,0-15.85,62.96,16.247,16.247,0,0,1,18.53,4.41,39.993,39.993,0,0,0,61.46,0,16.247,16.247,0,0,1,18.53-4.41,40,40,0,1,0,17.965-77.065Z" fill="#dc6e1e"/><circle cx="312" cy="168" r="16" fill="#faa01e"/><circle cx="376" cy="152" r="16" fill="#faa01e"/><circle cx="248" cy="152" r="16" fill="#faa01e"/></svg>