<svg xmlns="http://www.w3.org/2000/svg" viewBox="0 0 512 512"><title>80 Winery Icons - Expanded</title><path d="M367.987,20h-24a104,104,0,0,0,0,208h24a104,104,0,0,0,0-208Z" fill="#4b873c"/><circle cx="343.987" cy="124" r="104" fill="#73a041"/><circle cx="343.987" cy="124" r="80" fill="#d7e6f0"/><path d="M343.987,68V180a56,56,0,0,0,0-112Z" fill="#ff555f"/><path d="M399.987,116H366.611a24.111,24.111,0,0,0-14.624-14.624V68a8,8,0,0,0-16,0v33.376A24,24,0,1,0,366.611,132h33.376a8,8,0,1,0,0-16Z" fill="#3c413c"/><circle cx="343.987" cy="124" r="8" fill="#facc0a"/><path d="M343.987,188a8,8,0,0,1-8-8v-8a8,8,0,0,1,16,0v8A8,8,0,0,1,343.987,188Z" fill="#3c413c"/><path d="M295.987,132h-8a8,8,0,0,1,0-16h8a8,8,0,0,1,0,16Z" fill="#3c413c"/><path d="M359.987,486h-176a66,66,0,1,1,0-132h93.334a30,30,0,0,0,0-60H119.987V258H277.321a66,66,0,0,1,0,132H183.987a30,30,0,1,0,0,60h176Z" fill="#faa01e"/><path d="M399.987,244h64a8,8,0,0,1,8,8v88a32,32,0,0,1-32,32h-16a32,32,0,0,1-32-32V252A8,8,0,0,1,399.987,244Z" fill="#a5c3dc"/><path d="M399.987,244h24a0,0,0,0,1,0,0v96a16,16,0,0,1-16,16h0a16,16,0,0,1-16-16V252A8,8,0,0,1,399.987,244Z" fill="#d7e6f0"/><path d="M391.987,278.667h80a0,0,0,0,1,0,0V340a32,32,0,0,1-32,32h-16a32,32,0,0,1-32-32V278.667A0,0,0,0,1,391.987,278.667Z" fill="#aa2823"/><rect x="423.987" y="372" width="16" height="96" fill="#a5c3dc"/><rect x="423.987" y="372" width="16" height="16" fill="#87a5be"/><path d="M415.987,468h32a16,16,0,0,1,16,16v0a0,0,0,0,1,0,0h-64a0,0,0,0,1,0,0v0A16,16,0,0,1,415.987,468Z" fill="#87a5be"/><path d="M391.987,278.667h32a0,0,0,0,1,0,0V340a16,16,0,0,1-16,16h0a16,16,0,0,1-16-16V278.667A0,0,0,0,1,391.987,278.667Z" fill="#e13741"/><rect x="402.654" y="254.667" width="10.667" height="85.333" rx="5.333" ry="5.333" fill="#fff"/><circle cx="119.987" cy="276" r="24" fill="#e13741"/><circle cx="359.987" cy="468" r="24" fill="#e13741"/><path d="M120.961,20.006c-46.03-.549-82.391,38.328-80.9,84.337,2.062,63.739,48.833,116.607,65.828,133.774a19.837,19.837,0,0,0,14.1,5.883h0a19.844,19.844,0,0,0,14.107-5.888c17.384-17.561,65.893-72.447,65.893-138.112A80,80,0,0,0,120.961,20.006Z" fill="#e13741"/><path d="M119.987,20V244a19.857,19.857,0,0,1-14.1-5.88c-17-17.17-63.77-70.04-65.83-133.78C38.577,58.66,74.417,20.01,119.987,20Z" fill="#ff555f"/><circle cx="119.987" cy="100" r="56" fill="#a5c3dc"/><path d="M119.987,44V156a56,56,0,1,1,0-112Z" fill="#d7e6f0"/></svg>