<svg xmlns="http://www.w3.org/2000/svg" viewBox="0 0 512 512"><title>80 Winery Icons - Expanded</title><rect x="128" y="64" width="304" height="432" rx="32" ry="32" fill="#aa2823"/><path d="M352,16H112A32,32,0,0,0,80,48V416a32,32,0,0,0,32,32H304l80-72V48A32,32,0,0,0,352,16Z" fill="#d7e6f0"/><path d="M304,448V408a32,32,0,0,1,32-32h48Z" fill="#87a5be"/><path d="M184,64h96a8,8,0,0,1,8,8V208a48,48,0,0,1-48,48H224a48,48,0,0,1-48-48V72A8,8,0,0,1,184,64Z" fill="#a5c3dc"/><path d="M176,144v64a48,48,0,0,0,48,48h16a48,48,0,0,0,48-48V144Z" fill="#aa2823"/><path d="M176,144h56a0,0,0,0,1,0,0v60a28,28,0,0,1-28,28h0a28,28,0,0,1-28-28V144A0,0,0,0,1,176,144Z" fill="#e13741"/><rect x="224" y="256" width="16" height="128" fill="#a5c3dc"/><rect x="224" y="256" width="16" height="18.667" fill="#87a5be"/><path d="M208,384h48a16,16,0,0,1,16,16v0a0,0,0,0,1,0,0H192a0,0,0,0,1,0,0v0A16,16,0,0,1,208,384Z" fill="#87a5be"/><rect x="192" y="72" width="16" height="144" rx="8" ry="8" fill="#d7e6f0"/></svg>