<svg xmlns="http://www.w3.org/2000/svg" viewBox="0 0 512 512"><title>80 Winery Icons - Expanded</title><path d="M244.829,138.48,86.386,116.212a8,8,0,0,0-9.035,6.809L63.99,218.086a88.024,88.024,0,0,0,59.255,95.723L101.888,465.771l-7.922-1.113a24,24,0,0,0-27.107,20.426h0l95.066,13.361h0A24,24,0,0,0,141.5,471.338L117.732,468l15.845,2.226,21.357-151.962a88.024,88.024,0,0,0,83.343-75.682l13.361-95.066A8,8,0,0,0,244.829,138.48Z" fill="#a5c3dc"/><path d="M75.737,120.5h80a0,0,0,0,1,0,0v104a44,44,0,0,1-44,44h0a44,44,0,0,1-44-44v-96a8,8,0,0,1,8-8Z" transform="translate(28.157 -13.658) rotate(8)" fill="#d7e6f0"/><path d="M87.757,221.426a64,64,0,0,0,126.754,17.815l3.34-23.767H88.593Z" fill="#aa2823"/><path d="M88.593,215.474l-.836,5.952a63.753,63.753,0,0,0,11.236,45.938c.807.159,1.621.3,2.445.418a44,44,0,0,0,49.7-37.449l2.088-14.859Z" fill="#e13741"/><rect x="111.274" y="331.546" width="16" height="136" transform="translate(56.767 -12.711) rotate(8)" fill="#d7e6f0"/><path d="M79.845,228.314a8.008,8.008,0,0,1-7.932-9.114l11.134-79.221a8,8,0,1,1,15.844,2.227l-11.134,79.22A8,8,0,0,1,79.845,228.314Z" fill="#fff"/><path d="M418.034,464.658l-7.922,1.113L388.755,313.809a88.024,88.024,0,0,0,59.255-95.723l-13.361-95.065a8,8,0,0,0-9.035-6.809L267.171,138.48a8,8,0,0,0-6.809,9.035l13.361,95.066a88.024,88.024,0,0,0,83.343,75.682l21.357,151.962L394.268,468,370.5,471.338a24,24,0,0,0-20.426,27.107h0l95.066-13.361h0A24,24,0,0,0,418.034,464.658Z" fill="#a5c3dc"/><path d="M277.119,132.749h80a0,0,0,0,1,0,0v104a44,44,0,0,1-44,44h0a44,44,0,0,1-44-44v-96a8,8,0,0,1,8-8Z" transform="translate(-25.727 45.59) rotate(-8)" fill="#d7e6f0"/><path d="M423.407,215.474H294.149l3.34,23.767a64,64,0,0,0,126.754-17.815Z" fill="#aa2823"/><path d="M358.778,215.474H294.149l3.34,23.767a63.75,63.75,0,0,0,23.463,41.06c.819-.069,1.641-.156,2.466-.272a44,44,0,0,0,37.448-49.7Z" fill="#e13741"/><rect x="368.882" y="333.773" width="16" height="136" transform="translate(-52.248 56.362) rotate(-8)" fill="#d7e6f0"/><path d="M289.557,248.355a8,8,0,0,1-7.912-6.888l-11.134-79.221a8,8,0,1,1,15.843-2.227l11.134,79.222a8.007,8.007,0,0,1-7.931,9.114Z" fill="#fff"/><path d="M396,74.889H380V64.222a8,8,0,0,1,8-8h0a8,8,0,0,1,8,8Z" fill="#faa01e"/><path d="M388,109.555h0a8,8,0,0,1-8-8V90.889h16v10.666A8,8,0,0,1,388,109.555Z" fill="#faa01e"/><path d="M380,90.889H369.333a8,8,0,0,1-8-8h0a8,8,0,0,1,8-8H380Z" fill="#faa01e"/><path d="M406.667,90.889H396v-16h10.667a8,8,0,0,1,8,8h0A8,8,0,0,1,406.667,90.889Z" fill="#faa01e"/><path d="M260,32.222H244V21.555a8,8,0,0,1,8-8h0a8,8,0,0,1,8,8Z" fill="#faa01e"/><path d="M252,66.888h0a8,8,0,0,1-8-8V48.222h16V58.889A8,8,0,0,1,252,66.888Z" fill="#faa01e"/><path d="M244,48.222H233.333a8,8,0,0,1-8-8h0a8,8,0,0,1,8-8H244Z" fill="#faa01e"/><path d="M270.667,48.222H260v-16h10.667a8,8,0,0,1,8,8h0A8,8,0,0,1,270.667,48.222Z" fill="#faa01e"/><path d="M252,118.888a4,4,0,0,1-4-4v-32a4,4,0,0,1,8,0v32A4,4,0,0,1,252,118.888Z" fill="#faa01e"/><path d="M284,118.888a4,4,0,0,1-2.828-6.828l9.373-9.372A80.716,80.716,0,0,1,348,78.888a4,4,0,0,1,0,8,72.776,72.776,0,0,0-51.8,21.456l-9.373,9.372A3.984,3.984,0,0,1,284,118.888Z" fill="#faa01e"/><path d="M108,74.889h16V64.222a8,8,0,0,0-8-8h0a8,8,0,0,0-8,8Z" fill="#faa01e"/><path d="M116,109.555h0a8,8,0,0,0,8-8V90.889H108v10.666A8,8,0,0,0,116,109.555Z" fill="#faa01e"/><path d="M124,90.889h10.667a8,8,0,0,0,8-8h0a8,8,0,0,0-8-8H124Z" fill="#faa01e"/><path d="M97.333,90.889H108v-16H97.333a8,8,0,0,0-8,8h0A8,8,0,0,0,97.333,90.889Z" fill="#faa01e"/><path d="M220,118.888a3.984,3.984,0,0,1-2.828-1.172l-9.373-9.372A72.776,72.776,0,0,0,156,86.888a4,4,0,0,1,0-8,80.716,80.716,0,0,1,57.455,23.8l9.373,9.372A4,4,0,0,1,220,118.888Z" fill="#faa01e"/></svg>