<svg xmlns="http://www.w3.org/2000/svg" viewBox="0 0 512 512"><title>80 Winery Icons - Expanded</title><path d="M480,256c0,14.424-17.262,26.966-19.958,40.6-2.779,14.048,8.318,32.222,2.959,45.146-5.453,13.15-26.2,18.13-34.031,29.818-7.885,11.778-4.593,32.845-14.579,42.83s-31.052,6.694-42.83,14.579c-11.688,7.825-16.668,28.577-29.818,34.03-12.924,5.359-31.1-5.738-45.145-2.959C282.965,462.738,270.424,480,256,480s-26.966-17.262-40.6-19.958c-14.048-2.779-32.222,8.318-45.146,2.959-13.15-5.453-18.13-26.2-29.818-34.031-11.778-7.885-32.845-4.593-42.83-14.579s-6.694-31.052-14.579-42.83C75.2,359.873,54.452,354.893,49,341.743c-5.359-12.924,5.738-31.1,2.959-45.145C49.262,282.965,32,270.424,32,256s17.262-26.966,19.958-40.6C54.737,201.354,43.64,183.18,49,170.256c5.453-13.15,26.2-18.13,34.03-29.818,7.886-11.778,4.594-32.845,14.58-42.83s31.052-6.694,42.83-14.579C152.127,75.2,157.107,54.452,170.257,49c12.924-5.359,31.1,5.738,45.145,2.959C229.035,49.262,241.576,32,256,32s26.966,17.262,40.6,19.958C310.646,54.737,328.82,43.64,341.744,49c13.15,5.453,18.13,26.2,29.818,34.03,11.778,7.886,32.845,4.594,42.83,14.58s6.694,31.052,14.579,42.83c7.825,11.688,28.577,16.668,34.03,29.818,5.359,12.924-5.738,31.1-2.959,45.145C462.738,229.035,480,241.576,480,256Z" fill="#dc6e1e"/><path d="M256,128a127.947,127.947,0,0,1,110.872,64H437.06a192.058,192.058,0,0,0-362.12,0h70.188A127.947,127.947,0,0,1,256,128Z" fill="#faa01e"/><path d="M366.872,320a128.036,128.036,0,0,1-221.744,0H74.94a192.058,192.058,0,0,0,362.12,0Z" fill="#faa01e"/><path d="M369.137,150.863a7.981,7.981,0,0,1-5.658-2.342,151.994,151.994,0,0,0-214.958,0,8,8,0,0,1-11.315-11.315,168,168,0,0,1,237.588,0,8,8,0,0,1-5.657,13.657Z" fill="#d7e6f0"/><path d="M256,424a166.907,166.907,0,0,1-118.794-49.206,8,8,0,1,1,11.315-11.315,151.994,151.994,0,0,0,214.958,0,8,8,0,0,1,11.315,11.315A166.905,166.905,0,0,1,256,424Z" fill="#d7e6f0"/><rect x="64" y="240" width="48" height="32" rx="16" ry="16" fill="#3c413c"/><rect x="400" y="240" width="48" height="32" rx="16" ry="16" fill="#3c413c"/><circle cx="256" cy="256" r="128" fill="#3c413c"/><path d="M296,192V168a8,8,0,0,0-8-8H224a8,8,0,0,0-8,8v24Z" fill="#a5c3dc"/><path d="M248,192V160H224a8,8,0,0,0-8,8v24Z" fill="#d7e6f0"/><path d="M216,192h80a0,0,0,0,1,0,0v48a32,32,0,0,1-32,32H248a32,32,0,0,1-32-32V192A0,0,0,0,1,216,192Z" fill="#aa2823"/><rect x="248" y="272" width="16" height="72" fill="#a5c3dc"/><rect x="248" y="272" width="16" height="16" fill="#d7e6f0"/><path d="M240,344h32a16,16,0,0,1,16,16v0a0,0,0,0,1,0,0H224a0,0,0,0,1,0,0v0A16,16,0,0,1,240,344Z" fill="#87a5be"/><path d="M216,192h32a0,0,0,0,1,0,0v48a16,16,0,0,1-16,16h0a16,16,0,0,1-16-16V192A0,0,0,0,1,216,192Z" fill="#e13741"/><rect x="226.667" y="170.667" width="10.667" height="69.333" rx="5.333" ry="5.333" fill="#fff"/></svg>