<svg xmlns="http://www.w3.org/2000/svg" viewBox="0 0 512 512"><title>80 Winery Icons - Expanded</title><path d="M252,320H76a48,48,0,0,1,48,48V496H300V368A48,48,0,0,0,252,320Z" fill="#3c413c"/><path d="M76,320h0a48,48,0,0,1,48,48V496a0,0,0,0,1,0,0H28a0,0,0,0,1,0,0V368A48,48,0,0,1,76,320Z" fill="#d7e6f0"/><path d="M140,320h0a48,48,0,0,1,48,48v24a24,24,0,0,0,24,24h0a24,24,0,0,0,24-24V368a48,48,0,0,0-48-48Z" fill="#d7e6f0"/><path d="M220,368a48,48,0,0,0-48-48H156a48,48,0,0,1,48,48v46.629a24.026,24.026,0,0,0,16,0Z" fill="#e13741"/><path d="M364,192h64a8,8,0,0,1,8,8v72a32,32,0,0,1-32,32H388a32,32,0,0,1-32-32V200A8,8,0,0,1,364,192Z" fill="#a5c3dc"/><path d="M356,226.667h80a0,0,0,0,1,0,0V272a32,32,0,0,1-32,32H388a32,32,0,0,1-32-32V226.667A0,0,0,0,1,356,226.667Z" fill="#aa2823"/><rect x="388" y="304" width="16" height="64" fill="#a5c3dc"/><rect x="388" y="304" width="16" height="16" fill="#87a5be"/><path d="M380,368h32a16,16,0,0,1,16,16v0a0,0,0,0,1,0,0H364a0,0,0,0,1,0,0v0A16,16,0,0,1,380,368Z" fill="#87a5be"/><path d="M356,226.667h32a0,0,0,0,1,0,0V272a16,16,0,0,1-16,16h0a16,16,0,0,1-16-16V226.667A0,0,0,0,1,356,226.667Z" fill="#e13741"/><rect x="366.667" y="202.667" width="10.667" height="69.333" rx="5.333" ry="5.333" fill="#d7e6f0"/><path d="M172,32a96,96,0,0,0-96,96V320H188V288h64a48,48,0,0,0,48-48V128a96,96,0,0,0-96-96Z" fill="#fab991"/><path d="M260,16H172A112,112,0,0,0,60,128V240a32,32,0,0,0,32,32h32a32,32,0,0,0,32-32V192h0a32,32,0,0,0,32-32h0a32,32,0,0,1,32-32h80a16,16,0,0,0,16-16V72A56,56,0,0,0,260,16Z" fill="#3c413c"/><path d="M108,288h80a0,0,0,0,1,0,0v32a0,0,0,0,1,0,0H76a0,0,0,0,1,0,0v0A32,32,0,0,1,108,288Z" fill="#f0915a"/><path d="M156,160v80a40,40,0,0,1,0-80Z" fill="#f0915a"/><circle cx="226.667" cy="160" r="12" fill="#3c413c"/><circle cx="266.667" cy="160" r="12" fill="#3c413c"/><path d="M246.667,173.333h0a32,32,0,0,1,32,32V208a16,16,0,0,1-16,16h0a16,16,0,0,1-16-16V173.333A0,0,0,0,1,246.667,173.333Z" fill="#f0915a"/><path d="M244,240h32a0,0,0,0,1,0,0v0a16,16,0,0,1-16,16h0a16,16,0,0,1-16-16v0a0,0,0,0,1,0,0Z" fill="#3c413c"/><path d="M479.313,388.687a16,16,0,0,0-22.627,0l-38.627,38.626A15.894,15.894,0,0,1,406.745,432H364a8,8,0,0,0-8,8v40h32a16,16,0,0,1,16-16h2.745a47.683,47.683,0,0,0,33.941-14.06l38.627-38.627A16,16,0,0,0,479.313,388.687Z" fill="#f0915a"/><path d="M392,392H356a32,32,0,0,0-32,32v56h32V440a8,8,0,0,1,8-8h28a20,20,0,0,0,20-20h0A20,20,0,0,0,392,392Z" fill="#fab991"/><path d="M324,480h64a8,8,0,0,1,8,8v8a0,0,0,0,1,0,0H316a0,0,0,0,1,0,0v-8A8,8,0,0,1,324,480Z" fill="#a5c3dc"/><circle cx="212" cy="456" r="16" fill="#736969"/></svg>