<svg xmlns="http://www.w3.org/2000/svg" viewBox="0 0 512 512"><title>80 Winery Icons - Expanded</title><path d="M247.987,228a56,56,0,1,1,56-56A56.063,56.063,0,0,1,247.987,228Zm0-96a40,40,0,1,0,40,40A40.045,40.045,0,0,0,247.987,132Z" fill="#3c413c"/><path d="M431.987,228a56,56,0,1,1,56-56A56.063,56.063,0,0,1,431.987,228Zm0-96a40,40,0,1,0,40,40A40.045,40.045,0,0,0,431.987,132Z" fill="#3c413c"/><path d="M380.931,52h35.056a8,8,0,0,1,0,16,8,8,0,0,0,0,16,24,24,0,0,0,0-48h-48a8,8,0,0,0-7.155,11.578L379.043,84H292.931L279.142,56.422a8,8,0,0,0-14.31,7.156L279.043,92l-38.211,76.422A8,8,0,0,0,247.987,180h80a8,8,0,0,0,6.247-3l56.19-70.237,34.408,68.817a8,8,0,1,0,14.31-7.156Zm-92.944,57.889L315.043,164H260.931Zm41.564,47.35L300.931,100h74.411Z" fill="#6ea5d7"/><circle cx="327.987" cy="172" r="21.333" fill="#4664a5"/><path d="M269.32,46.667h16a18.667,18.667,0,0,1,18.667,18.667v0a8,8,0,0,1-8,8H269.32A13.333,13.333,0,0,1,255.987,60v0A13.333,13.333,0,0,1,269.32,46.667Z" fill="#3c413c"/><path d="M343.987,486h-176a66,66,0,1,1,0-132H261.32a30,30,0,0,0,0-60H103.987V258H261.32a66,66,0,0,1,0,132H167.987a30,30,0,1,0,0,60h176Z" fill="#faa01e"/><path d="M383.987,244h64a8,8,0,0,1,8,8v88a32,32,0,0,1-32,32h-16a32,32,0,0,1-32-32V252a8,8,0,0,1,8-8Z" fill="#a5c3dc"/><path d="M383.987,244h24a0,0,0,0,1,0,0v96a16,16,0,0,1-16,16h0a16,16,0,0,1-16-16V252A8,8,0,0,1,383.987,244Z" fill="#d7e6f0"/><path d="M375.987,278.667h80a0,0,0,0,1,0,0V340a32,32,0,0,1-32,32h-16a32,32,0,0,1-32-32V278.667A0,0,0,0,1,375.987,278.667Z" fill="#aa2823"/><rect x="407.987" y="372" width="16" height="96" fill="#a5c3dc"/><rect x="407.987" y="372" width="16" height="16" fill="#87a5be"/><path d="M399.987,468h32a16,16,0,0,1,16,16v0a0,0,0,0,1,0,0h-64a0,0,0,0,1,0,0v0A16,16,0,0,1,399.987,468Z" fill="#87a5be"/><path d="M375.987,278.667h32a0,0,0,0,1,0,0V340a16,16,0,0,1-16,16h0a16,16,0,0,1-16-16V278.667A0,0,0,0,1,375.987,278.667Z" fill="#e13741"/><rect x="386.654" y="254.667" width="10.667" height="85.333" rx="5.333" ry="5.333" fill="#fff"/><circle cx="103.987" cy="276" r="24" fill="#e13741"/><circle cx="343.987" cy="468" r="24" fill="#e13741"/><path d="M104.961,20.006c-46.03-.549-82.391,38.328-80.9,84.337C26.119,168.082,72.89,220.95,89.885,238.117a19.837,19.837,0,0,0,14.1,5.883h0a19.844,19.844,0,0,0,14.107-5.888c17.384-17.561,65.893-72.447,65.893-138.112A80,80,0,0,0,104.961,20.006Z" fill="#e13741"/><path d="M103.987,20V244a19.857,19.857,0,0,1-14.1-5.88c-17-17.17-63.77-70.04-65.83-133.78C22.577,58.66,58.417,20.01,103.987,20Z" fill="#ff555f"/><circle cx="103.987" cy="100" r="56" fill="#a5c3dc"/><path d="M103.987,44V156a56,56,0,1,1,0-112Z" fill="#d7e6f0"/></svg>