<svg xmlns="http://www.w3.org/2000/svg" viewBox="0 0 512 512"><title>80 Winery Icons - Expanded</title><path d="M212,128H52a8,8,0,0,0-8,8v96a88.024,88.024,0,0,0,72,86.545V472h-8a24,24,0,0,0-24,24h96a24,24,0,0,0-24-24h-8V318.545A88.024,88.024,0,0,0,220,232V136A8,8,0,0,0,212,128Z" fill="#a5c3dc"/><path d="M52,128h80a0,0,0,0,1,0,0V232a44,44,0,0,1-44,44h0a44,44,0,0,1-44-44V136a8,8,0,0,1,8-8Z" fill="#d7e6f0"/><path d="M132,296a64.072,64.072,0,0,1-64-64V208H196v24A64.072,64.072,0,0,1,132,296Z" fill="#aa2823"/><path d="M132,208H68v24a63.751,63.751,0,0,0,17.52,43.926c.821.046,1.647.074,2.48.074h0a44,44,0,0,0,44-44Z" fill="#e13741"/><rect x="116" y="336" width="16" height="136" fill="#d7e6f0"/><path d="M60,240a8,8,0,0,1-8-8V152a8,8,0,0,1,16,0v80A8,8,0,0,1,60,240Z" fill="#fff"/><path d="M411.2,72.8A112,112,0,1,0,444,152,111.267,111.267,0,0,0,411.2,72.8Z" fill="#fff"/><path d="M332,16c-2.686,0-5.352.087-8,.24V88.934a75,75,0,0,1-21.967,53.033l-35.406,35.406a22.627,22.627,0,0,0-6.627,16h0A22.628,22.628,0,0,0,282.627,216H324v71.76c2.648.153,5.314.24,8,.24a136,136,0,0,0,0-272Zm64.687,77.268c-7.779,8.891-16.085,13.4-24.687,13.4s-16.908-4.508-24.687-13.4a8,8,0,1,1,12.041-10.536C363.961,88,368.216,90.667,372,90.667s8.039-2.67,12.646-7.935a8,8,0,1,1,12.041,10.536Z" fill="#fab991"/><path d="M395.935,81.979a8,8,0,0,0-11.289.753C380.039,88,375.784,90.667,372,90.667s-8.039-2.67-12.646-7.935a8,8,0,1,0-12.041,10.536c7.779,8.891,16.085,13.4,24.687,13.4s16.908-4.508,24.687-13.4A8,8,0,0,0,395.935,81.979Z" fill="#3c413c"/><path d="M332,16A136,136,0,1,0,468,152,136,136,0,0,0,332,16Zm0,248a112,112,0,1,1,79.2-32.8A111.267,111.267,0,0,1,332,264Z" fill="#a5c3dc"/><circle cx="332" cy="304" r="48" fill="#fff"/><path d="M332,240a64,64,0,1,0,64,64A64,64,0,0,0,332,240Zm0,112a48,48,0,1,1,48-48A48.055,48.055,0,0,1,332,352Z" fill="#ff555f"/><path d="M343.314,304l13.2-13.2A8,8,0,0,0,345.2,279.486l-13.2,13.2-13.2-13.2A8,8,0,0,0,307.487,290.8l13.2,13.2-13.2,13.2A8,8,0,0,0,318.8,328.514l13.2-13.2,13.2,13.2A8,8,0,0,0,356.513,317.2Z" fill="#aa2823"/></svg>