<svg xmlns="http://www.w3.org/2000/svg" viewBox="0 0 512 512"><title>80 Winery Icons - Expanded</title><polygon points="304 344 16 344 16 264 264 264 304 344" fill="#d7e6f0"/><rect x="352" y="392" width="128" height="96" rx="48" ry="48" fill="#3c413c"/><circle cx="400" cy="440" r="48" fill="#736969"/><circle cx="400" cy="440" r="16" fill="#e6e6eb"/><rect x="224" y="392" width="128" height="96" rx="48" ry="48" fill="#3c413c"/><rect x="64" y="392" width="128" height="96" rx="48" ry="48" fill="#3c413c"/><path d="M424,232H264a16,16,0,0,1,16,16h0a16,16,0,0,1-16,16H424a16,16,0,0,0,16-16h0A16,16,0,0,0,424,232Z" fill="#a5c3dc"/><path d="M32,232H264a16,16,0,0,1,16,16v0a16,16,0,0,1-16,16H16a0,0,0,0,1,0,0V248A16,16,0,0,1,32,232Z" fill="#d7e6f0"/><polygon points="464 344 304 344 264 264 424 264 464 344" fill="#3c413c"/><path d="M304,344H216a8,8,0,0,1-8-8V272a8,8,0,0,1,8-8h48Z" fill="#736969"/><path d="M464,344H304a32,32,0,0,1,32,32v48a16,16,0,0,1-16,16H480a16,16,0,0,0,16-16V376A32,32,0,0,0,464,344Z" fill="#a5c3dc"/><path d="M16,344H304a32,32,0,0,1,32,32v48a16,16,0,0,1-16,16H32a16,16,0,0,1-16-16V344a0,0,0,0,1,0,0Z" fill="#d7e6f0"/><path d="M16,408H336a0,0,0,0,1,0,0v16a16,16,0,0,1-16,16H32a16,16,0,0,1-16-16V408A0,0,0,0,1,16,408Z" fill="#a5c3dc"/><rect x="352" y="376" width="128" height="45.333" rx="22.667" ry="22.667" fill="#3c413c"/><circle cx="374.667" cy="398.667" r="12" fill="#faa01e"/><circle cx="457.333" cy="398.667" r="12" fill="#faa01e"/><circle cx="272" cy="440" r="48" fill="#736969"/><circle cx="272" cy="440" r="16" fill="#e6e6eb"/><circle cx="112" cy="440" r="48" fill="#736969"/><circle cx="112" cy="440" r="16" fill="#e6e6eb"/><rect x="48" y="264" width="128" height="80" rx="8" ry="8" fill="#736969"/><path d="M276.853,83.147A120,120,0,1,0,312,168,119.215,119.215,0,0,0,276.853,83.147Z" fill="#fff"/><path d="M192,24A144,144,0,1,0,336,168,144,144,0,0,0,192,24Zm0,264a120,120,0,1,1,84.853-35.147A119.219,119.219,0,0,1,192,288Z" fill="#a5c3dc"/><path d="M224,72H160a8,8,0,0,0-8,8v72a32,32,0,0,0,32,32v64h16V184a32,32,0,0,0,32-32V80A8,8,0,0,0,224,72Z" fill="#a5c3dc"/><path d="M152,106.667h80a0,0,0,0,1,0,0V152a32,32,0,0,1-32,32H184a32,32,0,0,1-32-32V106.667A0,0,0,0,1,152,106.667Z" fill="#aa2823"/><rect x="184" y="184" width="16" height="16" fill="#87a5be"/><path d="M176,248h32a16,16,0,0,1,16,16v0a0,0,0,0,1,0,0H160a0,0,0,0,1,0,0v0a16,16,0,0,1,16-16Z" fill="#87a5be"/><path d="M152,106.667h32a0,0,0,0,1,0,0V152a16,16,0,0,1-16,16h0a16,16,0,0,1-16-16V106.667A0,0,0,0,1,152,106.667Z" fill="#e13741"/><rect x="162.667" y="82.667" width="10.667" height="69.333" rx="5.333" ry="5.333" fill="#d7e6f0"/></svg>