<svg xmlns="http://www.w3.org/2000/svg" viewBox="0 0 512 512"><title>80 Winery Icons - Expanded</title><path d="M194.626,193.75l-19.5-13A16,16,0,0,1,168,167.437V144H104v23.437a16,16,0,0,1-7.125,13.313l-19.5,13A48,48,0,0,0,56,233.689V480a16,16,0,0,0,16,16H200a16,16,0,0,0,16-16V233.689A48,48,0,0,0,194.626,193.75Z" fill="#e13741"/><path d="M78,480H66V233.689a37.926,37.926,0,0,1,16.921-31.618l19.5-13A25.947,25.947,0,0,0,114,167.437V144h12v23.437a37.926,37.926,0,0,1-16.921,31.618l-19.5,13A25.947,25.947,0,0,0,78,233.689Z" fill="#ff555f"/><rect x="96" y="16" width="80" height="32" rx="8" ry="8" fill="#736969"/><path d="M168,16H128a8,8,0,0,1,8,8V40a8,8,0,0,1-8,8h40a8,8,0,0,0,8-8V24A8,8,0,0,0,168,16Z" fill="#3c413c"/><path d="M194.626,193.75l-19.5-13A16,16,0,0,1,168,167.437V144H136V480H56a16,16,0,0,0,16,16H200a16,16,0,0,0,16-16V233.689A48,48,0,0,0,194.626,193.75Z" fill="#aa2823"/><rect x="104" y="48" width="32" height="96" fill="#736969"/><rect x="136" y="48" width="32" height="96" fill="#3c413c"/><rect x="104" y="48" width="32" height="8" fill="#3c413c"/><rect x="56" y="269.333" width="80" height="133.333" fill="#d7e6f0"/><rect x="136" y="269.333" width="80" height="133.333" fill="#a5c3dc"/><rect x="66" y="269.333" width="12" height="133.333" fill="#fff"/><path d="M396.853,251.147A120,120,0,1,0,432,336,119.215,119.215,0,0,0,396.853,251.147Z" fill="#fff"/><path d="M312,192A144,144,0,1,0,456,336,144,144,0,0,0,312,192Zm0,264a120,120,0,1,1,84.853-35.147A119.215,119.215,0,0,1,312,456Z" fill="#facc0a"/><path d="M289.333,312h-28a8,8,0,0,0-8,8v72a8,8,0,1,0,16,0V360h20a20.023,20.023,0,0,0,20-20v-8A20.023,20.023,0,0,0,289.333,312Zm4,28a4,4,0,0,1-4,4h-20V328h20a4,4,0,0,1,4,4Z" fill="#faa01e"/><path d="M365.333,272a8,8,0,0,0-8,8v24h-24V280a8,8,0,0,0-16,0v72a8,8,0,0,0,16,0V320h24v32a8,8,0,0,0,16,0V280A8,8,0,0,0,365.333,272Z" fill="#faa01e"/><path d="M400.4,128h-176a8,8,0,0,0-8,8,96,96,0,0,0,192,0A8,8,0,0,0,400.4,128Z" fill="#dc6e1e"/><path d="M235.063,128v8a77.333,77.333,0,1,0,154.666,0v-8Z" fill="#facc0a"/><path d="M283.426,144H256.348a4.011,4.011,0,0,0-3.917,4.851,60.964,60.964,0,0,0,8.484,20.475,4.007,4.007,0,0,0,6.192.649l19.147-19.146A4,4,0,0,0,283.426,144Z" fill="#faa01e"/><path d="M297.568,162.141l-19.147,19.147a4.007,4.007,0,0,0,.649,6.192,60.942,60.942,0,0,0,20.476,8.485,4.012,4.012,0,0,0,4.85-3.917V164.97A4,4,0,0,0,297.568,162.141Z" fill="#faa01e"/><path d="M320.4,164.97v27.078a4.012,4.012,0,0,0,4.851,3.917,60.945,60.945,0,0,0,20.475-8.485,4.007,4.007,0,0,0,.649-6.192l-19.146-19.147A4,4,0,0,0,320.4,164.97Z" fill="#faa01e"/><path d="M338.538,150.828l19.147,19.146a4.007,4.007,0,0,0,6.192-.649,60.945,60.945,0,0,0,8.485-20.475A4.012,4.012,0,0,0,368.445,144H341.367A4,4,0,0,0,338.538,150.828Z" fill="#faa01e"/></svg>