<svg xmlns="http://www.w3.org/2000/svg" viewBox="0 0 512 512"><title>80 Winery Icons - Expanded</title><rect x="16" y="192" width="64" height="224" rx="16" ry="16" fill="#dc6e1e"/><path d="M152,138.459V128H104v10.459A31.817,31.817,0,0,1,84,168h0a31.817,31.817,0,0,0-20,29.541V416H192V197.541A31.817,31.817,0,0,0,172,168h0A31.817,31.817,0,0,1,152,138.459Z" fill="#e13741"/><path d="M172,168a31.817,31.817,0,0,1-20-29.541V128H128V416h64V197.541A31.817,31.817,0,0,0,172,168Z" fill="#aa2823"/><rect x="104" y="72" width="48" height="56" fill="#3c413c"/><path d="M104,80h16a8,8,0,0,1,8,8v40a0,0,0,0,1,0,0H104a0,0,0,0,1,0,0V80A0,0,0,0,1,104,80Z" fill="#736969"/><rect x="96" y="48" width="64" height="24" rx="8" ry="8" fill="#3c413c"/><rect x="96" y="48" width="32" height="24" rx="8" ry="8" fill="#736969"/><path d="M280,138.459V128H232v10.459A31.817,31.817,0,0,1,212,168h0a31.817,31.817,0,0,0-20,29.541V416H320V197.541A31.817,31.817,0,0,0,300,168h0A31.817,31.817,0,0,1,280,138.459Z" fill="#e13741"/><path d="M300,168a31.817,31.817,0,0,1-20-29.541V128H256V416h64V197.541A31.817,31.817,0,0,0,300,168Z" fill="#aa2823"/><rect x="232" y="72" width="48" height="56" fill="#3c413c"/><path d="M232,80h16a8,8,0,0,1,8,8v40a0,0,0,0,1,0,0H232a0,0,0,0,1,0,0V80A0,0,0,0,1,232,80Z" fill="#736969"/><rect x="224" y="48" width="64" height="24" rx="8" ry="8" fill="#3c413c"/><rect x="224" y="48" width="32" height="24" rx="8" ry="8" fill="#736969"/><rect x="48" y="368" width="128" height="96" rx="48" ry="48" fill="#3c413c"/><rect x="16" y="352" width="208" height="64" rx="16" ry="16" fill="#dc6e1e"/><rect x="16" y="352" width="192" height="64" rx="16" ry="16" fill="#faa01e"/><rect x="16" y="272" width="208" height="64" rx="16" ry="16" fill="#dc6e1e"/><rect x="16" y="272" width="192" height="64" rx="16" ry="16" fill="#faa01e"/><rect x="16" y="192" width="352" height="64" rx="16" ry="16" fill="#dc6e1e"/><rect x="16" y="192" width="192" height="64" rx="16" ry="16" fill="#faa01e"/><rect x="352" y="368" width="128" height="96" rx="48" ry="48" fill="#3c413c"/><circle cx="400" cy="416" r="48" fill="#736969"/><circle cx="400" cy="416" r="16" fill="#e6e6eb"/><rect x="224" y="368" width="128" height="96" rx="48" ry="48" fill="#3c413c"/><path d="M224,208H464a16,16,0,0,1,16,16v0a16,16,0,0,1-16,16H208a0,0,0,0,1,0,0V224A16,16,0,0,1,224,208Z" fill="#a5c3dc"/><path d="M224,208h80a16,16,0,0,1,16,16v0a16,16,0,0,1-16,16H208a0,0,0,0,1,0,0V224a16,16,0,0,1,16-16Z" fill="#d7e6f0"/><rect x="208" y="240" width="256" height="80" fill="#3c413c"/><rect x="208" y="240" width="96" height="80" fill="#736969"/><path d="M208,320H464a32,32,0,0,1,32,32v48a16,16,0,0,1-16,16H224a16,16,0,0,1-16-16V320A0,0,0,0,1,208,320Z" fill="#a5c3dc"/><path d="M208,320h96a32,32,0,0,1,32,32v48a16,16,0,0,1-16,16H224a16,16,0,0,1-16-16V320A0,0,0,0,1,208,320Z" fill="#d7e6f0"/><rect x="352" y="352" width="128" height="45.333" rx="22.667" ry="22.667" fill="#3c413c"/><circle cx="374.667" cy="374.667" r="12" fill="#faa01e"/><circle cx="457.333" cy="374.667" r="12" fill="#faa01e"/><circle cx="272" cy="416" r="48" fill="#736969"/><circle cx="272" cy="416" r="16" fill="#e6e6eb"/><circle cx="96" cy="416" r="48" fill="#736969"/><circle cx="96" cy="416" r="16" fill="#e6e6eb"/><circle cx="40" cy="224" r="8" fill="#736969"/><circle cx="184" cy="224" r="8" fill="#736969"/><circle cx="40" cy="304" r="8" fill="#736969"/><circle cx="184" cy="304" r="8" fill="#736969"/><circle cx="40" cy="384" r="8" fill="#736969"/><circle cx="184" cy="384" r="8" fill="#736969"/></svg>