<svg xmlns="http://www.w3.org/2000/svg" viewBox="0 0 512 512"><title>80 Winery Icons - Expanded</title><circle cx="256" cy="256" r="224" fill="#d7e6f0"/><path d="M256,32C132.288,32,32,132.288,32,256H480C480,132.288,379.712,32,256,32Z" fill="#a5c3dc"/><circle cx="256" cy="256" r="144" fill="#d7e6f0"/><path d="M376.739,299.8c-1.478-4-3.123-8.077-3.735-11.8.612-3.722,2.258-7.8,3.736-11.8C382.354,269.64,392,263.4,392,256c0-9.793-16.9-17.555-18.983-26.717-2.151-9.461,9.657-23.772,5.54-32.307-4.186-8.676-22.778-8.34-28.729-15.792-5.98-7.489-1.539-25.535-9.027-31.514-7.453-5.951-24.052,2.37-32.728-1.816-8.536-4.118-12.349-22.323-21.809-24.473C277.1,121.3,265.792,136,256,136s-21.1-14.7-30.264-12.619c-9.46,2.15-13.273,20.355-21.808,24.473-8.676,4.185-25.275-4.135-32.728,1.815-7.489,5.979-3.048,24.025-9.027,31.515-5.951,7.452-24.544,7.115-28.729,15.792-4.118,8.535,7.69,22.846,5.539,32.307C136.9,238.445,120,246.207,120,256c0,7.4,9.646,13.64,15.261,20.2,1.478,4,3.123,8.077,3.735,11.8-.612,3.722-2.258,7.8-3.736,11.8C129.646,306.36,120,312.6,120,320c0,9.793,16.9,17.555,18.983,26.717,2.151,9.461-9.657,23.772-5.54,32.307,4.186,8.676,22.778,8.34,28.729,15.792,5.98,7.489,1.539,25.535,9.027,31.514,7.453,5.951,24.052-2.37,32.728,1.816,8.536,4.118,12.349,22.323,21.809,24.473C234.9,454.7,246.208,440,256,440s21.1,14.7,30.264,12.619c9.46-2.15,13.273-20.355,21.808-24.473,8.676-4.185,25.275,4.135,32.728-1.815,7.489-5.979,3.048-24.025,9.027-31.515,5.951-7.452,24.544-7.115,28.729-15.792,4.118-8.535-7.69-22.846-5.539-32.307C375.1,337.555,392,329.793,392,320,392,312.6,382.354,306.36,376.739,299.8Z" fill="#73a041"/><path d="M416,128h32a0,0,0,0,1,0,0V240a32,32,0,0,1-32,32H384a0,0,0,0,1,0,0V160A32,32,0,0,1,416,128Z" transform="translate(832 400) rotate(-180)" fill="#aa2823"/><path d="M448,128H344V96a16,16,0,0,0-16-16H272a48,48,0,0,1,48-48h32A96,96,0,0,1,448,128Z" fill="#ff555f"/><path d="M304,96h8a32,32,0,0,1,32,32v0a0,0,0,0,1,0,0H304a0,0,0,0,1,0,0V96A0,0,0,0,1,304,96Z" transform="translate(648 224) rotate(180)" fill="#aa2823"/><path d="M64,128H96a32,32,0,0,1,32,32V272a0,0,0,0,1,0,0H96a32,32,0,0,1-32-32V128A0,0,0,0,1,64,128Z" fill="#aa2823"/><path d="M96,288v32h64v32H96a32,32,0,0,1-32-32h0a32,32,0,0,1,32-32Z" fill="#e13741"/><path d="M256,384v32H160v32h0a32,32,0,0,1-32-32h0a32,32,0,0,1,32-32Z" fill="#e13741"/><path d="M256,352v32H112v32h0a32,32,0,0,1-32-32h0a32,32,0,0,1,32-32Z" fill="#aa2823"/><path d="M416,288v32H352v32h64a32,32,0,0,0,32-32h0a32,32,0,0,0-32-32Z" fill="#e13741"/><path d="M256,384v32h96v32h0a32,32,0,0,0,32-32h0a32,32,0,0,0-32-32Z" fill="#e13741"/><path d="M256,352v32H400v32h0a32,32,0,0,0,32-32h0a32,32,0,0,0-32-32Z" fill="#aa2823"/><path d="M176,176H336a64,64,0,0,1,64,64v56a24,24,0,0,1-24,24H352v40a56,56,0,0,1-56,56H216a56,56,0,0,1-56-56V320H136a24,24,0,0,1-24-24V240A64,64,0,0,1,176,176Z" fill="#ff555f"/><circle cx="224" cy="176" r="16" fill="#32283c"/><circle cx="288" cy="176" r="16" fill="#32283c"/><rect x="288" y="224" width="32" height="160" rx="16" ry="16" fill="#e13741"/><rect x="192" y="224" width="32" height="160" rx="16" ry="16" fill="#e13741"/><path d="M64,128H168V96a16,16,0,0,1,16-16h56a48,48,0,0,0-48-48H160A96,96,0,0,0,64,128Z" fill="#ff555f"/><path d="M168,96h40a0,0,0,0,1,0,0v0a32,32,0,0,1-32,32h-8a0,0,0,0,1,0,0V96A0,0,0,0,1,168,96Z" fill="#aa2823"/></svg>