<svg xmlns="http://www.w3.org/2000/svg" viewBox="0 0 512 512"><title>80 Winery Icons - Expanded</title><path d="M288,16H96A16,16,0,0,0,80,32V192a112.018,112.018,0,0,0,96,110.857V448h0a32,32,0,0,1-32,32H120a8,8,0,0,0-8,8v8H272v-8a8,8,0,0,0-8-8H240a32,32,0,0,1-32-32h0V302.857A112.018,112.018,0,0,0,304,192V32A16,16,0,0,0,288,16Z" fill="#d7e6f0"/><path d="M184,496h88v-8H192A8,8,0,0,0,184,496Z" fill="#a5c3dc"/><path d="M288,16H192V192a56,56,0,0,1-56,56h0a56,56,0,0,1-56-56h0a112.018,112.018,0,0,0,96,110.857V320a16,16,0,0,1,16,16V480h48a32,32,0,0,1-32-32h0V302.857A112.018,112.018,0,0,0,304,192V32A16,16,0,0,0,288,16Z" fill="#a5c3dc"/><path d="M192,288a96.108,96.108,0,0,1-96-96V64H288V192A96.108,96.108,0,0,1,192,288Z" fill="#aa2823"/><path d="M109.758,241.472A55.736,55.736,0,0,0,136,248h0a56,56,0,0,0,56-56V64H96V192A95.419,95.419,0,0,0,109.758,241.472Z" fill="#e13741"/><rect x="112" y="32" width="16" height="168" rx="8" ry="8" fill="#fff"/><path d="M372.853,171.147A120,120,0,1,0,408,256,119.215,119.215,0,0,0,372.853,171.147Z" fill="#fff"/><path d="M288,112A144,144,0,1,0,432,256,144,144,0,0,0,288,112Zm0,264a120,120,0,1,1,84.853-35.147A119.215,119.215,0,0,1,288,376Z" fill="#e13741"/><path d="M320,205.333h0V240a13.333,13.333,0,0,1-13.333,13.333h0A13.333,13.333,0,0,1,293.333,240V218.667A53.333,53.333,0,0,0,240,165.333h0v44a12,12,0,0,1-12,12,12,12,0,0,0-12,12v52a72,72,0,1,0,144,0v-40A40,40,0,0,0,320,205.333Z" fill="#e13741"/><path d="M304,157.333h4a20,20,0,0,1,20,20v0a12,12,0,0,1-12,12h0a12,12,0,0,1-12-12v-20A0,0,0,0,1,304,157.333Z" fill="#e13741"/><path d="M304,269.333v12a12,12,0,1,1-24,0v-36h0a32,32,0,0,0-32,32v24a40,40,0,1,0,80,0v-8A24,24,0,0,0,304,269.333Z" fill="#faa01e"/></svg>