<svg xmlns="http://www.w3.org/2000/svg" viewBox="0 0 512 512"><title>80 Winery Icons - Expanded</title><path d="M392,208V32a16,16,0,0,0-16-16H136a16,16,0,0,0-16,16V208Z" fill="#506932"/><path d="M376,208V32a16,16,0,0,0-16-16H136a16,16,0,0,0-16,16V208Z" fill="#73a041"/><path d="M328,208V32a16,16,0,0,0-16-16H136a16,16,0,0,0-16,16V208Z" fill="#506932"/><path d="M312,208V32a16,16,0,0,0-16-16H136a16,16,0,0,0-16,16V208Z" fill="#73a041"/><path d="M360,208V40a8,8,0,0,0-8-8H328V208Z" fill="#d7e6f0"/><path d="M184,64h64a8,8,0,0,1,8,8v88a32,32,0,0,1-32,32H208a32,32,0,0,1-32-32V72A8,8,0,0,1,184,64Z" fill="#a5c3dc"/><path d="M184,64h24a0,0,0,0,1,0,0v96a16,16,0,0,1-16,16h0a16,16,0,0,1-16-16V72A8,8,0,0,1,184,64Z" fill="#d7e6f0"/><path d="M176,98.667h80a0,0,0,0,1,0,0V160a32,32,0,0,1-32,32H208a32,32,0,0,1-32-32V98.667A0,0,0,0,1,176,98.667Z" fill="#aa2823"/><rect x="208" y="192" width="16" height="16" fill="#a5c3dc"/><rect x="208" y="192" width="16" height="16" fill="#d7e6f0"/><path d="M176,98.667h32a0,0,0,0,1,0,0V160a16,16,0,0,1-16,16h0a16,16,0,0,1-16-16V98.667A0,0,0,0,1,176,98.667Z" fill="#e13741"/><rect x="186.667" y="74.667" width="10.667" height="85.333" rx="5.333" ry="5.333" fill="#fff"/><path d="M416,208H112V496H272V448h96a64,64,0,0,0,64-64V224A16,16,0,0,0,416,208Z" fill="#fab991"/><path d="M96,208a16,16,0,0,0-16,16V384a32,32,0,0,0,32,32h80a32,32,0,0,0,32-32V304a48,48,0,0,0,48-48V208Z" fill="#3c413c"/><path d="M224,256a48,48,0,0,0,0,96Z" fill="#f0915a"/><path d="M160,448H272a0,0,0,0,1,0,0v48a0,0,0,0,1,0,0H112a0,0,0,0,1,0,0v0A48,48,0,0,1,160,448Z" fill="#f0915a"/><path d="M360,272h0a48,48,0,0,1,48,48v8a24,24,0,0,1-24,24h0a24,24,0,0,1-24-24V272A0,0,0,0,1,360,272Z" fill="#f0915a"/><circle cx="400" cy="256" r="16" fill="#3c413c"/><circle cx="320" cy="256" r="16" fill="#3c413c"/><path d="M336,376h64a0,0,0,0,1,0,0v0a24,24,0,0,1-24,24H360a24,24,0,0,1-24-24v0A0,0,0,0,1,336,376Z" fill="#3c413c"/></svg>