<svg xmlns="http://www.w3.org/2000/svg" viewBox="0 0 512 512"><title>80 Winery Icons - Expanded</title><path d="M242.626,193.75l-19.5-13A16,16,0,0,1,216,167.437V144H152v23.437a16,16,0,0,1-7.125,13.313l-19.5,13A48,48,0,0,0,104,233.689V480a16,16,0,0,0,16,16H248a16,16,0,0,0,16-16V233.689A48,48,0,0,0,242.626,193.75Z" fill="#e13741"/><path d="M126,480H114V233.688a37.923,37.923,0,0,1,16.922-31.617l19.5-13A25.947,25.947,0,0,0,162,167.437V144h12v23.437a37.923,37.923,0,0,1-16.922,31.618l-19.5,13A25.946,25.946,0,0,0,126,233.688Z" fill="#ff555f"/><rect x="144" y="16" width="80" height="32" rx="8" ry="8" fill="#736969"/><path d="M216,16H176a8,8,0,0,1,8,8V40a8,8,0,0,1-8,8h40a8,8,0,0,0,8-8V24A8,8,0,0,0,216,16Z" fill="#3c413c"/><path d="M242.626,193.75l-19.5-13A16,16,0,0,1,216,167.437V144H184V480H104a16,16,0,0,0,16,16H248a16,16,0,0,0,16-16V233.689A48,48,0,0,0,242.626,193.75Z" fill="#aa2823"/><rect x="152" y="48" width="32" height="96" fill="#736969"/><rect x="184" y="48" width="32" height="96" fill="#3c413c"/><rect x="152" y="48" width="32" height="8" fill="#3c413c"/><rect x="104" y="269.333" width="80" height="133.333" fill="#d7e6f0"/><rect x="184" y="269.333" width="80" height="133.333" fill="#a5c3dc"/><rect x="114" y="269.333" width="12" height="133.334" fill="#fff"/><path d="M400,160H304a8,8,0,0,0-8,8V304a48,48,0,0,0,48,48V480h16V352a48,48,0,0,0,48-48V168A8,8,0,0,0,400,160Z" fill="#a5c3dc"/><path d="M304,160h48a0,0,0,0,1,0,0V300a28,28,0,0,1-28,28h0a28,28,0,0,1-28-28V168A8,8,0,0,1,304,160Z" fill="#d7e6f0"/><path d="M296,240v64a48,48,0,0,0,48,48h16a48,48,0,0,0,48-48V240Z" fill="#aa2823"/><path d="M296,240h56a0,0,0,0,1,0,0v60a28,28,0,0,1-28,28h0a28,28,0,0,1-28-28V240a0,0,0,0,1,0,0Z" fill="#e13741"/><rect x="344" y="352" width="16" height="18.667" fill="#87a5be"/><path d="M328,480h48a16,16,0,0,1,16,16v0a0,0,0,0,1,0,0H312a0,0,0,0,1,0,0v0A16,16,0,0,1,328,480Z" fill="#87a5be"/><rect x="312" y="168" width="16" height="144" rx="8" ry="8" fill="#fff"/></svg>