<svg xmlns="http://www.w3.org/2000/svg" viewBox="0 0 512 512"><title>80 Winery Icons - Expanded</title><path d="M288,16H96A16,16,0,0,0,80,32V192a112.018,112.018,0,0,0,96,110.857V448h0a32,32,0,0,1-32,32H120a8,8,0,0,0-8,8v8H272v-8a8,8,0,0,0-8-8H240a32,32,0,0,1-32-32h0V302.857A112.018,112.018,0,0,0,304,192V32A16,16,0,0,0,288,16Z" fill="#d7e6f0"/><path d="M184,496h88v-8H192A8,8,0,0,0,184,496Z" fill="#a5c3dc"/><path d="M288,16H192V192a56,56,0,0,1-56,56h0a56,56,0,0,1-56-56h0a112.018,112.018,0,0,0,96,110.857V320a16,16,0,0,1,16,16V480h48a32,32,0,0,1-32-32h0V302.857A112.018,112.018,0,0,0,304,192V32A16,16,0,0,0,288,16Z" fill="#a5c3dc"/><path d="M192,288a96.108,96.108,0,0,1-96-96V64H288V192A96.108,96.108,0,0,1,192,288Z" fill="#aa2823"/><path d="M109.758,241.472A55.736,55.736,0,0,0,136,248h0a56,56,0,0,0,56-56V64H96V192A95.419,95.419,0,0,0,109.758,241.472Z" fill="#e13741"/><rect x="112" y="32" width="16" height="168" rx="8" ry="8" fill="#fff"/><path d="M203.147,340.853A120,120,0,1,0,168,256,119.215,119.215,0,0,0,203.147,340.853Z" fill="#fff"/><path d="M202.667,273.358v29.284a16,16,0,0,0,8.155,13.946l26.667,15a16,16,0,0,0,15.688,0l26.667-15A16,16,0,0,0,288,302.642V273.358a16,16,0,0,0-8.156-13.946l-26.666-15a16,16,0,0,0-15.689,0l-26.667,15A16,16,0,0,0,202.667,273.358Z" fill="#d7e6f0"/><path d="M204.878,265.244a15.987,15.987,0,0,0-2.211,8.114v29.285a16,16,0,0,0,8.155,13.945l26.667,15a15.988,15.988,0,0,0,7.844,2.054V288Z" fill="#a5c3dc"/><path d="M288,273.356a15.992,15.992,0,0,0-2.211-8.112L245.333,288v45.642a15.992,15.992,0,0,0,7.845-2.054l26.666-15A16,16,0,0,0,288,302.642V273.356Z" fill="#87a5be"/><path d="M245.333,201.358v29.284a16,16,0,0,0,8.156,13.946l26.667,15a16,16,0,0,0,15.688,0l26.667-15a16,16,0,0,0,8.156-13.946V201.358a16,16,0,0,0-8.156-13.946l-26.667-15a16,16,0,0,0-15.688,0l-26.667,15A16,16,0,0,0,245.333,201.358Z" fill="#d7e6f0"/><path d="M247.545,193.244a15.988,15.988,0,0,0-2.212,8.114v29.285a16,16,0,0,0,8.156,13.945l26.667,15A15.988,15.988,0,0,0,288,261.642V216Z" fill="#a5c3dc"/><path d="M330.667,201.356a15.993,15.993,0,0,0-2.212-8.112L288,216v45.642a15.988,15.988,0,0,0,7.844-2.054l26.667-15a16,16,0,0,0,8.156-13.946V201.356Z" fill="#87a5be"/><path d="M288,273.358v29.284a16,16,0,0,0,8.156,13.946l26.666,15a16,16,0,0,0,15.689,0l26.666-15a16,16,0,0,0,8.156-13.946V273.358a16,16,0,0,0-8.155-13.946l-26.667-15a16,16,0,0,0-15.689,0l-26.666,15A16,16,0,0,0,288,273.358Z" fill="#d7e6f0"/><path d="M290.211,265.244A16,16,0,0,0,288,273.358v29.285a16,16,0,0,0,8.156,13.945l26.666,15a15.992,15.992,0,0,0,7.845,2.054V288Z" fill="#a5c3dc"/><path d="M373.333,273.356a15.982,15.982,0,0,0-2.211-8.112L330.667,288v45.642a15.988,15.988,0,0,0,7.844-2.054l26.666-15a16,16,0,0,0,8.156-13.946V273.356Z" fill="#87a5be"/><rect x="301.333" y="221.333" width="10.667" height="10.667" rx="5.333" ry="5.333" fill="#a5c3dc"/><rect x="349.333" y="304" width="10.667" height="10.667" rx="5.333" ry="5.333" fill="#a5c3dc"/><rect x="256" y="288" width="10.667" height="10.667" rx="5.333" ry="5.333" fill="#a5c3dc"/><rect x="266.667" y="234.667" width="10.667" height="10.667" rx="5.333" ry="5.333" fill="#d7e6f0"/><rect x="296" y="290.667" width="10.667" height="10.667" rx="5.333" ry="5.333" fill="#d7e6f0"/><rect x="208" y="285.333" width="10.667" height="10.667" rx="5.333" ry="5.333" fill="#d7e6f0"/><rect x="280" y="181.333" width="10.667" height="10.667" rx="5.333" ry="5.333" fill="#a5c3dc"/><rect x="224" y="258.667" width="10.667" height="10.667" rx="5.333" ry="5.333" fill="#a5c3dc"/><rect x="338.667" y="258.667" width="10.667" height="10.667" rx="5.333" ry="5.333" fill="#a5c3dc"/><path d="M432,256A144,144,0,1,0,256,396.426V424H245.657a5.657,5.657,0,0,0-4,9.657l32.686,32.686a19.314,19.314,0,0,0,27.314,0l32.686-32.686a5.657,5.657,0,0,0-4-9.657H320V396.426A144.051,144.051,0,0,0,432,256ZM288,136a120,120,0,1,1-84.853,35.147A119.215,119.215,0,0,1,288,136Z" fill="#73a041"/></svg>