<svg xmlns="http://www.w3.org/2000/svg" viewBox="0 0 512 512"><title>80 Winery Icons - Expanded</title><path d="M194.626,193.75l-19.5-13A16,16,0,0,1,168,167.437V144H104v23.437a16,16,0,0,1-7.125,13.313l-19.5,13A48,48,0,0,0,56,233.689V480a16,16,0,0,0,16,16H200a16,16,0,0,0,16-16V233.689A48,48,0,0,0,194.626,193.75Z" fill="#e13741"/><path d="M78,480H66V233.689a37.926,37.926,0,0,1,16.921-31.618l19.5-13A25.947,25.947,0,0,0,114,167.437V144h12v23.437a37.926,37.926,0,0,1-16.921,31.618l-19.5,13A25.947,25.947,0,0,0,78,233.689Z" fill="#ff555f"/><rect x="96" y="16" width="80" height="32" rx="8" ry="8" fill="#736969"/><path d="M168,16H128a8,8,0,0,1,8,8V40a8,8,0,0,1-8,8h40a8,8,0,0,0,8-8V24A8,8,0,0,0,168,16Z" fill="#3c413c"/><path d="M194.626,193.75l-19.5-13A16,16,0,0,1,168,167.437V144H136V480H56a16,16,0,0,0,16,16H200a16,16,0,0,0,16-16V233.689A48,48,0,0,0,194.626,193.75Z" fill="#aa2823"/><rect x="104" y="48" width="32" height="96" fill="#736969"/><rect x="136" y="48" width="32" height="96" fill="#3c413c"/><rect x="104" y="48" width="32" height="8" fill="#3c413c"/><rect x="56" y="269.333" width="80" height="133.333" fill="#d7e6f0"/><rect x="136" y="269.333" width="80" height="133.333" fill="#a5c3dc"/><rect x="66" y="269.333" width="12" height="133.333" fill="#fff"/><path d="M227.147,364.853A120,120,0,1,0,192,280,119.215,119.215,0,0,0,227.147,364.853Z" fill="#fff"/><path d="M456,280A144,144,0,1,0,280,420.426V448H269.657a5.657,5.657,0,0,0-4,9.657l32.686,32.686a19.314,19.314,0,0,0,27.314,0l32.686-32.686a5.657,5.657,0,0,0-4-9.657H344V420.426A144.051,144.051,0,0,0,456,280ZM312,160a120,120,0,1,1-84.853,35.147A119.215,119.215,0,0,1,312,160Z" fill="#e13741"/><path d="M289.333,256h-28a8,8,0,0,0-8,8v72a8,8,0,1,0,16,0V304h20a20.023,20.023,0,0,0,20-20v-8A20.023,20.023,0,0,0,289.333,256Zm4,28a4,4,0,0,1-4,4h-20V272h20a4,4,0,0,1,4,4Z" fill="#faa01e"/><path d="M365.333,216a8,8,0,0,0-8,8v24h-24V224a8,8,0,0,0-16,0v72a8,8,0,0,0,16,0V264h24v32a8,8,0,0,0,16,0V224A8,8,0,0,0,365.333,216Z" fill="#faa01e"/></svg>