<svg xmlns="http://www.w3.org/2000/svg" viewBox="0 0 512 512"><title>80 Winery Icons - Expanded</title><path d="M256,16h98.745a32,32,0,0,1,22.628,9.373l35.48,35.48A120,120,0,0,1,448,145.706V366.294a120,120,0,0,1-35.147,84.853l-35.48,35.48A32,32,0,0,1,354.745,496H256Z" fill="#faa01e"/><path d="M256,16H157.255a32,32,0,0,0-22.628,9.373l-35.48,35.48A120,120,0,0,0,64,145.706V366.294a120,120,0,0,0,35.147,84.853l35.48,35.48A32,32,0,0,0,157.255,496H256Z" fill="#facc0a"/><path d="M192,16,171.444,67.391A159.991,159.991,0,0,0,160,126.813V385.187a159.991,159.991,0,0,0,11.444,59.422L192,496H157.255a32,32,0,0,1-22.628-9.373l-35.48-35.48A120,120,0,0,1,64,366.294V145.706A120,120,0,0,1,99.147,60.853l35.48-35.48A32,32,0,0,1,157.255,16Z" fill="#faa01e"/><path d="M412.853,60.853l-35.48-35.48A32,32,0,0,0,354.745,16H320l16,40H104l-4.853,4.853c-1.03,1.03-2.033,2.083-3.022,3.147H339.2l1.356,3.391A159.991,159.991,0,0,1,352,126.813V200H64v16H352V352H64v14.294c0,.57.013,1.138.021,1.706H352v17.187a159.991,159.991,0,0,1-11.444,59.422L320,496h34.745a32,32,0,0,0,22.628-9.373l35.48-35.48A119.991,119.991,0,0,0,447.979,368h0c.008-.568.021-1.136.021-1.706V145.706A120,120,0,0,0,412.853,60.853Z" fill="#dc6e1e"/><path d="M149.255,16h213.49a32,32,0,0,1,22.628,9.373l23.8,23.8A4,4,0,0,1,406.343,56H105.657a4,4,0,0,1-2.829-6.828l23.8-23.8A32,32,0,0,1,149.255,16Z" fill="#3c413c"/><rect x="56" y="160" width="400" height="40" rx="8" ry="8" fill="#3c413c"/><rect x="56" y="312" width="400" height="40" rx="8" ry="8" fill="#3c413c"/><path d="M256,16H149.255a32,32,0,0,0-22.628,9.373l-23.8,23.8A4,4,0,0,0,105.657,56H256Z" fill="#736969"/><path d="M256,160H64a8,8,0,0,0-8,8v24a8,8,0,0,0,8,8H256Z" fill="#736969"/><path d="M256,312H64a8,8,0,0,0-8,8v24a8,8,0,0,0,8,8H256Z" fill="#736969"/><polygon points="168 16 144 56 160 56 184 16 168 16" fill="#918787"/><path d="M149.255,496h213.49a32,32,0,0,0,22.628-9.373l23.8-23.8A4,4,0,0,0,406.343,456H105.657a4,4,0,0,0-2.829,6.828l23.8,23.8A32,32,0,0,0,149.255,496Z" fill="#3c413c"/><path d="M256,496H149.255a32,32,0,0,1-22.628-9.373l-23.8-23.8A4,4,0,0,1,105.657,456H256Z" fill="#736969"/><polygon points="168 496 144 456 160 456 184 496 168 496" fill="#918787"/><rect x="120" y="312" width="16" height="40" fill="#918787"/><rect x="120" y="160" width="16" height="40" fill="#918787"/><path d="M352.167,159.833A136,136,0,1,0,392,256,135.112,135.112,0,0,0,352.167,159.833Z" fill="#fff"/><path d="M256,96A160,160,0,1,0,416,256,160,160,0,0,0,256,96Zm0,296a136,136,0,1,1,96.167-39.833A135.112,135.112,0,0,1,256,392Z" fill="#73a041"/><path d="M192,304H160a8,8,0,0,1-8-8V282.667A26.7,26.7,0,0,1,178.667,256,5.34,5.34,0,0,0,184,250.667V229.333A5.34,5.34,0,0,0,178.667,224h-5.334A5.34,5.34,0,0,0,168,229.333a8,8,0,0,1-16,0A21.357,21.357,0,0,1,173.333,208h5.334A21.357,21.357,0,0,1,200,229.333v21.334A21.357,21.357,0,0,1,178.667,272,10.679,10.679,0,0,0,168,282.667V288h24a8,8,0,0,1,0,16Z" fill="#ff555f"/><path d="M248,304H216a8,8,0,0,1-8-8V282.667A26.7,26.7,0,0,1,234.667,256,5.34,5.34,0,0,0,240,250.667V229.333A5.34,5.34,0,0,0,234.667,224h-5.334A5.34,5.34,0,0,0,224,229.333a8,8,0,0,1-16,0A21.357,21.357,0,0,1,229.333,208h5.334A21.357,21.357,0,0,1,256,229.333v21.334A21.357,21.357,0,0,1,234.667,272,10.679,10.679,0,0,0,224,282.667V288h24a8,8,0,0,1,0,16Z" fill="#ff555f"/><path d="M288,304a24.027,24.027,0,0,1-24-24,8,8,0,0,1,16,0,8,8,0,0,0,16,0V264a8.009,8.009,0,0,0-8-8H272a8,8,0,0,1-8-8V216a8,8,0,0,1,8-8h32a8,8,0,0,1,0,16H280v16h8a24.027,24.027,0,0,1,24,24v16A24.027,24.027,0,0,1,288,304Z" fill="#ff555f"/><path d="M357.333,304h-24a8,8,0,0,1-8-8V216a8,8,0,0,1,16,0v72h16a8,8,0,1,1,0,16Z" fill="#73a041"/></svg>