<svg xmlns="http://www.w3.org/2000/svg" viewBox="0 0 512 512"><title>80 Winery Icons - Expanded</title><path d="M186.626,193.75l-19.5-13A16,16,0,0,1,160,167.437V144H96v23.437a16,16,0,0,1-7.125,13.313l-19.5,13A48,48,0,0,0,48,233.689V480a16,16,0,0,0,16,16H192a16,16,0,0,0,16-16V233.689A48,48,0,0,0,186.626,193.75Z" fill="#e13741"/><path d="M70,480H58V233.689a37.924,37.924,0,0,1,16.922-31.618l19.5-13A25.947,25.947,0,0,0,106,167.437V144h12v23.437a37.924,37.924,0,0,1-16.922,31.618l-19.5,13A25.947,25.947,0,0,0,70,233.689Z" fill="#ff555f"/><rect x="88" y="16" width="80" height="32" rx="8" ry="8" fill="#736969"/><path d="M160,16H120a8,8,0,0,1,8,8V40a8,8,0,0,1-8,8h40a8,8,0,0,0,8-8V24A8,8,0,0,0,160,16Z" fill="#3c413c"/><path d="M186.626,193.75l-19.5-13A16,16,0,0,1,160,167.437V144H128V480H48a16,16,0,0,0,16,16H192a16,16,0,0,0,16-16V233.689A48,48,0,0,0,186.626,193.75Z" fill="#aa2823"/><rect x="96" y="56" width="32" height="88" fill="#736969"/><polygon points="128 48 96 48 96 56 128 56 128 144 160 144 160 48 128 48" fill="#3c413c"/><rect x="48" y="269.333" width="80" height="133.333" fill="#d7e6f0"/><rect x="128" y="269.333" width="80" height="133.333" fill="#a5c3dc"/><rect x="58" y="269.333" width="12" height="133.333" fill="#fff"/><path d="M404.853,251.147A120,120,0,1,0,440,336,119.215,119.215,0,0,0,404.853,251.147Z" fill="#fff"/><path d="M352,195.574V160a64,64,0,0,0-64-64H256V85.657a5.657,5.657,0,0,0-9.657-4l-32.686,32.686a19.314,19.314,0,0,0,0,27.314l32.686,32.686a5.657,5.657,0,0,0,9.657-4V160h32v35.574a144,144,0,1,0,64,0Zm52.853,225.279A120,120,0,1,1,440,336,119.215,119.215,0,0,1,404.853,420.853Z" fill="#73a041"/><path d="M234.667,353.358v29.284a16,16,0,0,0,8.155,13.946l26.667,15a16,16,0,0,0,15.688,0l26.667-15A16,16,0,0,0,320,382.642V353.358a16,16,0,0,0-8.156-13.946l-26.666-15a16,16,0,0,0-15.689,0l-26.667,15A16,16,0,0,0,234.667,353.358Z" fill="#d7e6f0"/><path d="M236.878,345.244a15.987,15.987,0,0,0-2.211,8.114v29.285a16,16,0,0,0,8.155,13.945l26.667,15a15.988,15.988,0,0,0,7.844,2.054V368Z" fill="#a5c3dc"/><path d="M320,353.356a15.99,15.99,0,0,0-2.211-8.112L277.333,368v45.642a15.992,15.992,0,0,0,7.845-2.054l26.666-15A16,16,0,0,0,320,382.642V353.356Z" fill="#87a5be"/><path d="M277.333,281.358v29.284a16,16,0,0,0,8.156,13.946l26.667,15a16,16,0,0,0,15.688,0l26.667-15a16,16,0,0,0,8.156-13.946V281.358a16,16,0,0,0-8.156-13.946l-26.667-15a16,16,0,0,0-15.688,0l-26.667,15A16,16,0,0,0,277.333,281.358Z" fill="#d7e6f0"/><path d="M279.545,273.244a15.988,15.988,0,0,0-2.212,8.114v29.285a16,16,0,0,0,8.156,13.945l26.667,15A15.988,15.988,0,0,0,320,341.642V296Z" fill="#a5c3dc"/><path d="M362.667,281.356a15.99,15.99,0,0,0-2.212-8.112L320,296v45.642a15.988,15.988,0,0,0,7.844-2.054l26.667-15a16,16,0,0,0,8.156-13.946V281.356Z" fill="#87a5be"/><path d="M320,353.358v29.284a16,16,0,0,0,8.156,13.946l26.666,15a16,16,0,0,0,15.689,0l26.666-15a16,16,0,0,0,8.156-13.946V353.358a16,16,0,0,0-8.155-13.946l-26.667-15a16,16,0,0,0-15.689,0l-26.666,15A16,16,0,0,0,320,353.358Z" fill="#d7e6f0"/><path d="M322.211,345.244A16,16,0,0,0,320,353.358v29.285a16,16,0,0,0,8.156,13.945l26.666,15a15.992,15.992,0,0,0,7.845,2.054V368Z" fill="#a5c3dc"/><path d="M405.333,353.356a15.98,15.98,0,0,0-2.211-8.112L362.667,368v45.642a15.988,15.988,0,0,0,7.844-2.054l26.666-15a16,16,0,0,0,8.156-13.946V353.356Z" fill="#87a5be"/><rect x="333.333" y="301.333" width="10.667" height="10.667" rx="5.333" ry="5.333" fill="#a5c3dc"/><rect x="381.333" y="384" width="10.667" height="10.667" rx="5.333" ry="5.333" fill="#a5c3dc"/><rect x="288" y="368" width="10.667" height="10.667" rx="5.333" ry="5.333" fill="#a5c3dc"/><rect x="298.667" y="314.667" width="10.667" height="10.667" rx="5.333" ry="5.333" fill="#d7e6f0"/><rect x="328" y="370.667" width="10.667" height="10.667" rx="5.333" ry="5.333" fill="#d7e6f0"/><rect x="240" y="365.333" width="10.667" height="10.667" rx="5.333" ry="5.333" fill="#d7e6f0"/><rect x="312" y="261.333" width="10.667" height="10.667" rx="5.333" ry="5.333" fill="#a5c3dc"/><rect x="256" y="338.667" width="10.667" height="10.667" rx="5.333" ry="5.333" fill="#a5c3dc"/><rect x="370.667" y="338.667" width="10.667" height="10.667" rx="5.333" ry="5.333" fill="#a5c3dc"/><circle cx="352" cy="96" r="48" fill="#fff"/><path d="M352,32a64,64,0,1,0,64,64A64,64,0,0,0,352,32Zm0,112a48,48,0,1,1,48-48A48.055,48.055,0,0,1,352,144Z" fill="#73a041"/><path d="M378.667,88H360V69.333a8,8,0,1,0-16,0V88H325.333a8,8,0,0,0,0,16H344v18.667a8,8,0,1,0,16,0V104h18.667a8,8,0,0,0,0-16Z" fill="#aa2823"/></svg>