<svg xmlns="http://www.w3.org/2000/svg" viewBox="0 0 512 512"><title>80 Winery Icons - Expanded</title><path d="M489.333,374.018A65.334,65.334,0,0,1,424,308.685h0a65.334,65.334,0,0,1,65.333-65.333h0A6.667,6.667,0,0,0,496,236.684V221.417a32,32,0,0,0-22.3-30.494L161.2,91.489A32,32,0,0,0,130.42,97.9L26.928,188.456A32,32,0,0,0,16,212.538v177.48a32,32,0,0,0,32,32H464a32,32,0,0,0,32-32v-9.333a6.667,6.667,0,0,0-6.667-6.667Z" fill="#facc0a"/><path d="M489.333,374.018A65.334,65.334,0,0,1,424,308.685h0a65.334,65.334,0,0,1,65.333-65.333h0A6.667,6.667,0,0,0,496,236.684V222.018a24,24,0,0,0-24-24H40a24,24,0,0,0-24,24v168a32,32,0,0,0,32,32H464a32,32,0,0,0,32-32v-9.333a6.667,6.667,0,0,0-6.667-6.667Z" fill="#faa01e"/><circle cx="144" cy="326.018" r="48" fill="#dc6e1e"/><circle cx="320" cy="246.018" r="32" fill="#dc6e1e"/><circle cx="256" cy="382.018" r="24" fill="#dc6e1e"/></svg>