<svg xmlns="http://www.w3.org/2000/svg" viewBox="0 0 512 512"><title>80 Winery Icons - Expanded</title><path d="M81.431,64h224a0,0,0,0,1,0,0V416a16,16,0,0,1-16,16h-192a16,16,0,0,1-16-16V64A0,0,0,0,1,81.431,64Z" transform="translate(386.863 496) rotate(180)" fill="#a5c3dc"/><path d="M193.431,80h112a0,0,0,0,1,0,0V424a8,8,0,0,1-8,8h-104a0,0,0,0,1,0,0V80A0,0,0,0,1,193.431,80Z" transform="translate(498.863 512) rotate(180)" fill="#87a5be"/><path d="M145.431,16h96a0,0,0,0,1,0,0V48a16,16,0,0,1-16,16h-64a16,16,0,0,1-16-16V16A0,0,0,0,1,145.431,16Z" transform="translate(386.863 80) rotate(180)" fill="#a5c3dc"/><path d="M193.431,32h48a0,0,0,0,1,0,0V56a8,8,0,0,1-8,8h-40a0,0,0,0,1,0,0V32A0,0,0,0,1,193.431,32Z" transform="translate(434.863 96) rotate(180)" fill="#87a5be"/><path d="M81.431,432v52.686A11.314,11.314,0,0,0,92.745,496h0a11.313,11.313,0,0,0,8-3.314L161.431,432Z" fill="#87a5be"/><path d="M305.431,432v52.686A11.313,11.313,0,0,1,294.118,496h0a11.311,11.311,0,0,1-8-3.314L225.431,432Z" fill="#87a5be"/><path d="M161.431,432h64a0,0,0,0,1,0,0v16a16,16,0,0,1-16,16h-32a16,16,0,0,1-16-16V432A0,0,0,0,1,161.431,432Z" fill="#657c8f"/><path d="M81.431,360h-24a8,8,0,0,1-8-8V40a8,8,0,0,1,8-8h88V48h-80V344h16Z" fill="#a5c3dc"/><path d="M49.431,352h32a0,0,0,0,1,0,0v8a0,0,0,0,1,0,0h-24a8,8,0,0,1-8-8v0A0,0,0,0,1,49.431,352Z" fill="#87a5be"/><path d="M145.431,40h-84a4,4,0,0,0-4,4V344h8V48h80Z" fill="#87a5be"/><rect x="97.431" y="80" width="16" height="336" rx="8" ry="8" fill="#d7e6f0"/><rect x="81.431" y="248" width="224" height="16" fill="#87a5be"/><rect x="193.431" y="248" width="112" height="16" fill="#657c8f"/><rect x="81.431" y="320" width="224" height="16" fill="#87a5be"/><rect x="193.431" y="320" width="112" height="16" fill="#657c8f"/><rect x="81.431" y="176" width="224" height="16" fill="#87a5be"/><rect x="97.431" y="176" width="16" height="16" fill="#a5c3dc"/><rect x="97.431" y="248" width="16" height="16" fill="#a5c3dc"/><rect x="97.431" y="320" width="16" height="16" fill="#a5c3dc"/><rect x="193.431" y="176" width="112" height="16" fill="#657c8f"/><rect x="185.431" y="136" width="272" height="240" rx="120" ry="120" fill="#dc6e1e"/><circle cx="305.431" cy="256" r="120" fill="#faa01e"/><path d="M201.431,260a4,4,0,0,1-4-4,108.122,108.122,0,0,1,108-108,4,4,0,0,1,0,8,100.113,100.113,0,0,0-100,100A4,4,0,0,1,201.431,260Z" fill="#facc0a"/><circle cx="305.431" cy="256" r="88" fill="#d7e6f0"/><path d="M305.431,250.667a8,8,0,0,1-8-8V192a8,8,0,0,1,16,0v50.667A8,8,0,0,1,305.431,250.667Z" fill="#f04b37"/><circle cx="305.431" cy="256" r="24" fill="#353744"/><circle cx="305.431" cy="256" r="8" fill="#faa51e"/><path d="M305.431,328a8,8,0,0,1-8-8v-8a8,8,0,0,1,16,0v8A8,8,0,0,1,305.431,328Z" fill="#353744"/><path d="M369.431,264h-8a8,8,0,0,1,0-16h8a8,8,0,1,1,0,16Z" fill="#353744"/><path d="M249.431,264h-8a8,8,0,0,1,0-16h8a8,8,0,0,1,0,16Z" fill="#353744"/><path d="M340.879,91.448,315.088,65.657a5.657,5.657,0,0,0-9.657,4V84a170.875,170.875,0,0,0-121.622,50.378,12,12,0,0,0,16.971,16.971A147.028,147.028,0,0,1,305.431,108v14.343a5.657,5.657,0,0,0,9.657,4l25.791-25.791a6.436,6.436,0,0,0,0-9.1Z" fill="#e13741"/><path d="M459.054,360.651a12,12,0,0,0-16.971,0A147.028,147.028,0,0,1,337.431,404V389.657a5.656,5.656,0,0,0-9.656-4l-25.791,25.791a6.436,6.436,0,0,0,0,9.1l25.791,25.791a5.656,5.656,0,0,0,9.656-4V428a170.875,170.875,0,0,0,121.623-50.378A12,12,0,0,0,459.054,360.651Z" fill="#e13741"/></svg>