<svg xmlns="http://www.w3.org/2000/svg" viewBox="0 0 512 512"><title>80 Winery Icons - Expanded</title><path d="M287.987,400a15.924,15.924,0,0,1-9.587-3.2l-64-48a16,16,0,1,1,19.2-25.6l64,48a16,16,0,0,1-9.613,28.8Z" fill="#3c413c"/><rect x="48" y="16" width="64" height="160" rx="32" ry="32" fill="#faa01e"/><rect x="400" y="16" width="64" height="160" rx="32" ry="32" fill="#faa01e"/><rect x="112" y="47.999" width="288" height="93.333" fill="#faa01e"/><rect x="112" y="96" width="288" height="45.333" fill="#dc6e1e"/><path d="M112,48H96A16,16,0,0,0,80,64v64a16,16,0,0,1-16,16H48a32,32,0,0,0,32,32h0a32,32,0,0,0,32-32Z" fill="#dc6e1e"/><path d="M464,48H448a16,16,0,0,0-16,16v64a16,16,0,0,1-16,16H400a32,32,0,0,0,32,32h0a32,32,0,0,0,32-32Z" fill="#dc6e1e"/><circle cx="256" cy="96" r="24" fill="#3c413c"/><path d="M256,72a24,24,0,0,0-24,24h48A24,24,0,0,0,256,72Z" fill="#736969"/><path d="M299.313,276.686,278.627,256A22.478,22.478,0,0,1,272,240V141.333H240V240a54.266,54.266,0,0,0,16,38.626l20.687,20.687a16,16,0,1,0,22.626-22.627Z" fill="#3c413c"/><path d="M240,165.333h16a0,0,0,0,1,0,0V224a16,16,0,0,1-16,16h0a0,0,0,0,1,0,0V165.333a0,0,0,0,1,0,0Z" fill="#736969"/><path d="M224.013,352a16,16,0,0,1-9.613-28.8l64-48a16,16,0,1,1,19.2,25.6l-64,48A15.926,15.926,0,0,1,224.013,352Z" fill="#736969"/><path d="M287.987,496a15.924,15.924,0,0,1-9.587-3.2l-64-48a16,16,0,1,1,19.2-25.6l64,48a16,16,0,0,1-9.613,28.8Z" fill="#3c413c"/><path d="M224.013,448a16,16,0,0,1-9.613-28.8l64-48a16,16,0,1,1,19.2,25.6l-64,48A15.926,15.926,0,0,1,224.013,448Z" fill="#736969"/></svg>