<svg xmlns="http://www.w3.org/2000/svg" viewBox="0 0 512 512"><title>80 Winery Icons - Expanded</title><path d="M56,400v72a8,8,0,0,0,8,8h40a16,16,0,0,1,16-16h48a16,16,0,0,1,16,16h40a8,8,0,0,0,8-8V400Z" fill="#734119"/><path d="M280,400v72a8,8,0,0,0,8,8h40a16,16,0,0,1,16-16h48a16,16,0,0,1,16,16h40a8,8,0,0,0,8-8V400Z" fill="#734119"/><circle cx="144" cy="336" r="112" fill="#fab991"/><circle cx="144" cy="336" r="96" fill="#faa01e"/><path d="M120,428.963a96.349,96.349,0,0,0,48,0V243.037a96.349,96.349,0,0,0-48,0Z" fill="#dc6e1e"/><path d="M72,272.577a95.8,95.8,0,0,0,0,126.846Z" fill="#dc6e1e"/><path d="M216,399.423a95.8,95.8,0,0,0,0-126.846Z" fill="#dc6e1e"/><circle cx="368" cy="336" r="112" fill="#fab991"/><circle cx="368" cy="336" r="96" fill="#faa01e"/><circle cx="256" cy="144" r="112" fill="#fab991"/><circle cx="256" cy="144" r="96" fill="#faa01e"/><path d="M344,428.963a96.349,96.349,0,0,0,48,0V243.037a96.349,96.349,0,0,0-48,0Z" fill="#dc6e1e"/><path d="M296,272.577a95.8,95.8,0,0,0,0,126.846Z" fill="#dc6e1e"/><path d="M440,399.423a95.8,95.8,0,0,0,0-126.846Z" fill="#dc6e1e"/><path d="M280,51.037a96.349,96.349,0,0,0-48,0V236.963a96.349,96.349,0,0,0,48,0Z" fill="#dc6e1e"/><path d="M328,207.423a95.8,95.8,0,0,0,0-126.846Z" fill="#dc6e1e"/><path d="M184,80.577a95.8,95.8,0,0,0,0,126.846Z" fill="#dc6e1e"/><circle cx="144" cy="384" r="16" fill="#734119"/><circle cx="368" cy="384" r="16" fill="#734119"/><circle cx="256" cy="192" r="16" fill="#734119"/></svg>