<svg xmlns="http://www.w3.org/2000/svg" viewBox="0 0 512 512"><title>80 Winery Icons - Expanded</title><path d="M308,304H148a8,8,0,0,0-8,8v96a88.023,88.023,0,0,0,72,86.544V512h32V494.544A88.023,88.023,0,0,0,316,408V312A8,8,0,0,0,308,304Z" fill="#a5c3dc"/><path d="M148,304h80a0,0,0,0,1,0,0V408a44,44,0,0,1-44,44h0a44,44,0,0,1-44-44V312A8,8,0,0,1,148,304Z" fill="#d7e6f0"/><path d="M228,472a64.072,64.072,0,0,1-64-64V384H292v24A64.072,64.072,0,0,1,228,472Z" fill="#aa2823"/><path d="M228,384H164v24a63.745,63.745,0,0,0,17.5,43.93c.821.045,1.668.07,2.5.07h0a44,44,0,0,0,44-44Z" fill="#e13741"/><path d="M156,416a8,8,0,0,1-8-8V328a8,8,0,0,1,16,0v80A8,8,0,0,1,156,416Z" fill="#fff"/><rect x="220" y="24" width="80" height="32" rx="8" ry="8" transform="translate(300 -220) rotate(90)" fill="#736969"/><path d="M244,72V32a8,8,0,0,0,8,8h16a8,8,0,0,0,8-8V72a8,8,0,0,1-8,8H252A8,8,0,0,1,244,72Z" fill="#3c413c"/><rect x="312" y="-20" width="32" height="88" transform="translate(352 -304) rotate(90)" fill="#736969"/><polygon points="284 40 284 8 276 8 276 40 276 72 372 72 372 40 284 40" fill="#3c413c"/><path d="M191.36,267.776l10.29,16.464a8,8,0,0,0,6.784,3.76h39.132a8,8,0,0,0,6.784-3.76l10.29-16.464a180,180,0,0,0,27.36-95.4V112a16,16,0,0,0-16-16H180a16,16,0,0,0-16,16v60.377A180,180,0,0,0,191.36,267.776Z" fill="#a5c3dc"/><path d="M228,96H180a16,16,0,0,0-16,16v60.376a180,180,0,0,0,27.36,95.4l10.29,16.464a8,8,0,0,0,6.784,3.76H228Z" fill="#d7e6f0"/><rect x="228" y="96" width="16" height="288" fill="#aa2823"/><rect x="212" y="96" width="16" height="288" fill="#e13741"/><path d="M184.6,256H271.4a179.962,179.962,0,0,0,19.531-64H165.073A179.962,179.962,0,0,0,184.6,256Z" fill="#3c413c"/><path d="M228,176h0a48,48,0,0,1-48-48v-8h96v8A48,48,0,0,1,228,176Z" fill="#aa2823"/><path d="M180,120v8a48,48,0,0,0,48,48h0V120Z" fill="#e13741"/><path d="M184.6,256H228V192H165.073A179.962,179.962,0,0,0,184.6,256Z" fill="#736969"/><rect x="212" y="288" width="16" height="16" transform="translate(440 592) rotate(180)" fill="#ff555f"/><rect x="228" y="288" width="16" height="16" transform="translate(472 592) rotate(180)" fill="#e13741"/><path d="M212,32h32a0,0,0,0,1,0,0V64a32,32,0,0,1-32,32h0a0,0,0,0,1,0,0V32A0,0,0,0,1,212,32Z" transform="translate(456 128) rotate(180)" fill="#ff555f"/><path d="M228,48h16a0,0,0,0,1,0,0V80a16,16,0,0,1-16,16h0a0,0,0,0,1,0,0V48A0,0,0,0,1,228,48Z" transform="translate(472 144) rotate(180)" fill="#e13741"/></svg>