<svg xmlns="http://www.w3.org/2000/svg" viewBox="0 0 512 512"><title>80 Winery Icons - Expanded</title><path d="M188,16h0A112,112,0,0,0,76,128V320H188V288h64a48,48,0,0,0,48-48V128A112,112,0,0,0,188,16Z" fill="#fab991"/><path d="M108,288h80a0,0,0,0,1,0,0v32a0,0,0,0,1,0,0H76a0,0,0,0,1,0,0v0A32,32,0,0,1,108,288Z" fill="#f0915a"/><path d="M220,16H172A112,112,0,0,0,60,128V256a32,32,0,0,0,0,64h64a32,32,0,0,0,32-32V160h0a32,32,0,0,0,32-32H300a16,16,0,0,0,16-16h0A96,96,0,0,0,220,16Z" fill="#e13741"/><path d="M76,320H252a48,48,0,0,1,48,48V496a0,0,0,0,1,0,0H28a0,0,0,0,1,0,0V368A48,48,0,0,1,76,320Z" fill="#3c413c"/><circle cx="222.667" cy="160" r="10.667" fill="#3c413c"/><circle cx="270.667" cy="160" r="10.667" fill="#3c413c"/><path d="M140,320h0a48,48,0,0,1,48,48v24a24,24,0,0,0,24,24h0a24,24,0,0,0,24-24V368a48,48,0,0,0-48-48Z" fill="#f0915a"/><path d="M236,240h32a0,0,0,0,1,0,0v0a16,16,0,0,1-16,16h0a16,16,0,0,1-16-16v0A0,0,0,0,1,236,240Z" fill="#3c413c"/><path d="M76,320h0a48,48,0,0,1,48,48V496a0,0,0,0,1,0,0H28a0,0,0,0,1,0,0V368A48,48,0,0,1,76,320Z" fill="#736969"/><path d="M273.333,190.667A30.667,30.667,0,1,1,304,160,30.7,30.7,0,0,1,273.333,190.667Zm0-53.334A22.667,22.667,0,1,0,296,160,22.692,22.692,0,0,0,273.333,137.333Z" fill="#ff555f"/><path d="M246.667,173.333h0a32,32,0,0,1,32,32V208a16,16,0,0,1-16,16h0a16,16,0,0,1-16-16V173.333A0,0,0,0,1,246.667,173.333Z" fill="#f0915a"/><path d="M220,190.667A30.667,30.667,0,1,1,250.667,160,30.7,30.7,0,0,1,220,190.667Zm0-53.334A22.667,22.667,0,1,0,242.667,160,22.692,22.692,0,0,0,220,137.333Z" fill="#ff555f"/><path d="M156,152a24,24,0,0,0-24,24h8a16,16,0,0,1,16-16h37.333v-8Z" fill="#ff555f"/><path d="M156,160v80a40,40,0,0,1,0-80Z" fill="#f0915a"/><path d="M188,288h64a0,0,0,0,1,0,0v0a32,32,0,0,1-32,32H188a0,0,0,0,1,0,0V288A0,0,0,0,1,188,288Z" fill="#aa2823"/><path d="M479.313,388.687a16,16,0,0,0-22.627,0l-38.627,38.626A15.894,15.894,0,0,1,406.745,432H364a8,8,0,0,0-8,8v56h32V480a16,16,0,0,1,16-16h2.745a47.683,47.683,0,0,0,33.941-14.06l38.627-38.627A16,16,0,0,0,479.313,388.687Z" fill="#f0915a"/><path d="M392,392H356a32,32,0,0,0-32,32v72h32V440a8,8,0,0,1,8-8h28a20,20,0,0,0,20-20h0A20,20,0,0,0,392,392Z" fill="#fab991"/><path d="M364,192h64a8,8,0,0,1,8,8v72a32,32,0,0,1-32,32H388a32,32,0,0,1-32-32V200A8,8,0,0,1,364,192Z" fill="#a5c3dc"/><path d="M356,226.667h80a0,0,0,0,1,0,0V272a32,32,0,0,1-32,32H388a32,32,0,0,1-32-32V226.667A0,0,0,0,1,356,226.667Z" fill="#aa2823"/><rect x="388" y="304" width="16" height="64" fill="#a5c3dc"/><rect x="388" y="304" width="16" height="16" fill="#87a5be"/><path d="M380,368h32a16,16,0,0,1,16,16v0a0,0,0,0,1,0,0H364a0,0,0,0,1,0,0v0A16,16,0,0,1,380,368Z" fill="#87a5be"/><path d="M356,226.667h32a0,0,0,0,1,0,0V272a16,16,0,0,1-16,16h0a16,16,0,0,1-16-16V226.667a0,0,0,0,1,0,0Z" fill="#e13741"/><rect x="366.667" y="202.667" width="10.667" height="69.333" rx="5.333" ry="5.333" fill="#d7e6f0"/><path d="M420.318,80A31.915,31.915,0,0,0,396,90.845,31.916,31.916,0,0,0,371.682,80c-18.984.184-33.212,17.14-31.5,36.047,2.934,32.378,40.3,53.479,50.557,58.689A11.6,11.6,0,0,0,396,176h0a11.6,11.6,0,0,0,5.259-1.262c10.263-5.21,47.624-26.311,50.558-58.689C453.53,97.142,439.3,80.186,420.318,80Z" fill="#e13741"/><circle cx="372" cy="112" r="16" fill="#ff555f"/></svg>