<svg xmlns="http://www.w3.org/2000/svg" viewBox="0 0 512 512"><title>80 Winery Icons - Expanded</title><rect x="16" y="120" width="448" height="272" rx="136" ry="136" fill="#aa2823"/><path d="M224,152H368a16,16,0,0,1,16,16v0a16,16,0,0,1-16,16H224a0,0,0,0,1,0,0V152a0,0,0,0,1,0,0Z" fill="#e13741"/><circle cx="152" cy="256" r="136" fill="#ff555f"/><rect x="448" y="208" width="48" height="96" rx="24" ry="24" fill="#aa2823"/><circle cx="176" cy="188" r="28" fill="#e13741"/><circle cx="92" cy="305.333" r="28" fill="#e13741"/><circle cx="84" cy="212" r="12" fill="#e13741"/><circle cx="236" cy="212" r="12" fill="#e13741"/><circle cx="172" cy="340" r="12" fill="#e13741"/><circle cx="192" cy="272" r="16" fill="#e13741"/></svg>