<svg xmlns="http://www.w3.org/2000/svg" viewBox="0 0 512 512"><title>80 Winery Icons - Expanded</title><path d="M288,134.311V128H224v6.311A107.792,107.792,0,0,1,176,224h0a107.792,107.792,0,0,0-48,89.689V472a24,24,0,0,0,24,24H360a24,24,0,0,0,24-24V313.689A107.792,107.792,0,0,0,336,224h0A107.792,107.792,0,0,1,288,134.311Z" fill="#dc6e1e"/><rect x="216" y="16" width="80" height="32" rx="8" ry="8" fill="#736969"/><path d="M288,16H248a8,8,0,0,1,8,8V40a8,8,0,0,1-8,8h40a8,8,0,0,0,8-8V24A8,8,0,0,0,288,16Z" fill="#3c413c"/><rect x="224" y="48" width="32" height="80" fill="#736969"/><rect x="256" y="48" width="32" height="80" fill="#3c413c"/><rect x="224" y="48" width="32" height="8" fill="#3c413c"/><path d="M256,128H224v6.312A107.792,107.792,0,0,1,176,224h0a107.792,107.792,0,0,0-48,89.688V472H256Z" fill="#faa01e"/><rect x="208" y="288" width="96" height="144" rx="48" ry="48" fill="#736969"/><path d="M150,472H138V313.688a97.6,97.6,0,0,1,43.547-81.368A117.554,117.554,0,0,0,234,134.312V128h12v6.312a129.532,129.532,0,0,1-57.8,107.993A85.62,85.62,0,0,0,150,313.688Z" fill="#facc0a"/><path d="M256,288h0a48,48,0,0,1,48,48v48a48,48,0,0,1-48,48h0a0,0,0,0,1,0,0V288A0,0,0,0,1,256,288Z" fill="#3c413c"/></svg>