<svg xmlns="http://www.w3.org/2000/svg" viewBox="0 0 512 512"><title>80 Winery Icons - Expanded</title><path d="M256,32h0A208,208,0,0,1,464,240V464a16,16,0,0,1-16,16H64a16,16,0,0,1-16-16V240A208,208,0,0,1,256,32Z" fill="#faa01e"/><path d="M256,112h0A128,128,0,0,1,384,240V480a0,0,0,0,1,0,0H128a0,0,0,0,1,0,0V240A128,128,0,0,1,256,112Z" fill="#734119"/><path d="M112,240c0-79.4,64.6-144,144-144s144,64.6,144,144h48c0-105.869-86.131-192-192-192S64,134.131,64,240Z" fill="#dc6e1e"/><path d="M48,240V464a16,16,0,0,0,16,16h64V240Z" fill="#faa01e"/><path d="M384,240V480h64a16,16,0,0,0,16-16V240Z" fill="#faa01e"/><rect x="128" y="464" width="256" height="16" fill="#dc6e1e"/><rect x="128" y="320" width="256" height="16" fill="#dc6e1e"/><circle cx="352" cy="432" r="32" fill="#e13741"/><path d="M342.572,422.572a13.333,13.333,0,0,0,0,18.856L363.141,462A32,32,0,0,0,382,443.141l-20.569-20.569A13.333,13.333,0,0,0,342.572,422.572Z" fill="#aa2823"/><circle cx="352" cy="432" r="13.333" fill="#3c413c"/><circle cx="288" cy="432" r="32" fill="#e13741"/><path d="M278.572,422.572a13.333,13.333,0,0,0,0,18.856L299.141,462A32,32,0,0,0,318,443.141l-20.569-20.569A13.333,13.333,0,0,0,278.572,422.572Z" fill="#aa2823"/><circle cx="288" cy="432" r="13.333" fill="#3c413c"/><circle cx="224" cy="432" r="32" fill="#e13741"/><path d="M214.572,422.572a13.333,13.333,0,0,0,0,18.856L235.141,462A32,32,0,0,0,254,443.141l-20.569-20.569A13.333,13.333,0,0,0,214.572,422.572Z" fill="#aa2823"/><circle cx="224" cy="432" r="13.333" fill="#3c413c"/><circle cx="160" cy="432" r="32" fill="#e13741"/><path d="M150.572,422.572a13.333,13.333,0,0,0,0,18.856L171.141,462A32,32,0,0,0,190,443.141l-20.569-20.569A13.333,13.333,0,0,0,150.572,422.572Z" fill="#aa2823"/><circle cx="160" cy="432" r="13.333" fill="#3c413c"/><circle cx="192" cy="376" r="32" fill="#e13741"/><path d="M182.572,366.572a13.333,13.333,0,0,0,0,18.856L203.141,406A32,32,0,0,0,222,387.141l-20.569-20.569A13.333,13.333,0,0,0,182.572,366.572Z" fill="#aa2823"/><circle cx="192" cy="376" r="13.333" fill="#3c413c"/><circle cx="160" cy="288" r="32" fill="#e13741"/><path d="M150.572,278.572a13.333,13.333,0,0,0,0,18.856L171.141,318A32,32,0,0,0,190,299.141l-20.569-20.569A13.333,13.333,0,0,0,150.572,278.572Z" fill="#aa2823"/><circle cx="160" cy="288" r="13.333" fill="#3c413c"/><circle cx="352" cy="288" r="32" fill="#e13741"/><path d="M342.572,278.572a13.333,13.333,0,0,0,0,18.856L363.141,318A32,32,0,0,0,382,299.141l-20.569-20.569A13.333,13.333,0,0,0,342.572,278.572Z" fill="#aa2823"/><circle cx="352" cy="288" r="13.333" fill="#3c413c"/><circle cx="256" cy="376" r="32" fill="#e13741"/><path d="M246.572,366.572a13.333,13.333,0,0,0,0,18.856L267.141,406A32,32,0,0,0,286,387.141l-20.569-20.569A13.333,13.333,0,0,0,246.572,366.572Z" fill="#aa2823"/><circle cx="256" cy="376" r="13.333" fill="#3c413c"/><circle cx="320" cy="376" r="32" fill="#e13741"/><path d="M310.572,366.572a13.333,13.333,0,0,0,0,18.856L331.141,406A32,32,0,0,0,350,387.141l-20.569-20.569A13.333,13.333,0,0,0,310.572,366.572Z" fill="#aa2823"/><circle cx="320" cy="376" r="13.333" fill="#3c413c"/><path d="M32,240h96a0,0,0,0,1,0,0v48a0,0,0,0,1,0,0H32a8,8,0,0,1-8-8V248A8,8,0,0,1,32,240Z" fill="#faa01e"/><path d="M384,240h96a8,8,0,0,1,8,8v32a8,8,0,0,1-8,8H384a0,0,0,0,1,0,0V240A0,0,0,0,1,384,240Z" fill="#faa01e"/><path d="M128,248v-8H32a8,8,0,0,0-8,8H128Z" fill="#facc0a"/><path d="M488,248h0a8,8,0,0,0-8-8H384v8Z" fill="#facc0a"/><rect x="48" y="288" width="80" height="24" fill="#dc6e1e"/><rect x="384" y="288" width="80" height="24" fill="#dc6e1e"/><rect x="64" y="360" width="48" height="24" rx="8" ry="8" fill="#dc6e1e"/><path d="M72,424H64V400h8a8,8,0,0,1,8,8v8A8,8,0,0,1,72,424Z" fill="#dc6e1e"/><path d="M104,424h8V400h-8a8,8,0,0,0-8,8v8A8,8,0,0,0,104,424Z" fill="#dc6e1e"/><path d="M72,344H64V320h8a8,8,0,0,1,8,8v8A8,8,0,0,1,72,344Z" fill="#dc6e1e"/><path d="M104,344h8V320h-8a8,8,0,0,0-8,8v8A8,8,0,0,0,104,344Z" fill="#dc6e1e"/><rect x="64" y="440" width="48" height="24" rx="8" ry="8" fill="#dc6e1e"/><rect x="400" y="360" width="48" height="24" rx="8" ry="8" fill="#dc6e1e"/><path d="M408,424h-8V400h8a8,8,0,0,1,8,8v8A8,8,0,0,1,408,424Z" fill="#dc6e1e"/><path d="M440,424h8V400h-8a8,8,0,0,0-8,8v8A8,8,0,0,0,440,424Z" fill="#dc6e1e"/><path d="M408,344h-8V320h8a8,8,0,0,1,8,8v8A8,8,0,0,1,408,344Z" fill="#dc6e1e"/><path d="M440,344h8V320h-8a8,8,0,0,0-8,8v8A8,8,0,0,0,440,344Z" fill="#dc6e1e"/><rect x="400" y="440" width="48" height="24" rx="8" ry="8" fill="#dc6e1e"/><path d="M213.333,200v-8h21.334v8a16,16,0,0,0,6.4,12.8l8.533,6.4A16,16,0,0,1,256,232v80a8,8,0,0,1-8,8H200a8,8,0,0,1-8-8V232a16,16,0,0,1,6.4-12.8l8.533-6.4A16,16,0,0,0,213.333,200Z" fill="#aa2823"/><path d="M198.4,219.2l8.533-6.4a16,16,0,0,0,6.4-12.8v-8H224V320H200a8,8,0,0,1-8-8V232A16,16,0,0,1,198.4,219.2Z" fill="#e13741"/><rect x="213.333" y="160" width="21.333" height="32" fill="#3c413c"/><rect x="213.333" y="160" width="10.667" height="32" fill="#736969"/><rect x="208" y="152" width="32" height="8" rx="4" ry="4" fill="#3c413c"/><rect x="192" y="248" width="64" height="48" fill="#a5c3dc"/><rect x="192" y="248" width="32" height="48" fill="#d7e6f0"/><rect x="200" y="248" width="8" height="48" fill="#fff"/><path d="M204,224h0a4,4,0,0,1,4,4v20a0,0,0,0,1,0,0h-8a0,0,0,0,1,0,0V228A4,4,0,0,1,204,224Z" fill="#ff555f"/><rect x="200" y="296" width="8" height="24" fill="#ff555f"/><path d="M277.333,200v-8h21.334v8a16,16,0,0,0,6.4,12.8l8.533,6.4A16,16,0,0,1,320,232v80a8,8,0,0,1-8,8H264a8,8,0,0,1-8-8V232a16,16,0,0,1,6.4-12.8l8.533-6.4A16,16,0,0,0,277.333,200Z" fill="#aa2823"/><path d="M262.4,219.2l8.533-6.4a16,16,0,0,0,6.4-12.8v-8H288V320H264a8,8,0,0,1-8-8V232A16,16,0,0,1,262.4,219.2Z" fill="#e13741"/><rect x="277.333" y="160" width="21.333" height="32" fill="#3c413c"/><rect x="277.333" y="160" width="10.667" height="32" fill="#736969"/><rect x="272" y="152" width="32" height="8" rx="4" ry="4" fill="#3c413c"/><rect x="256" y="248" width="64" height="48" fill="#a5c3dc"/><rect x="256" y="248" width="32" height="48" fill="#d7e6f0"/><rect x="264" y="248" width="8" height="48" fill="#fff"/><path d="M268,224h0a4,4,0,0,1,4,4v20a0,0,0,0,1,0,0h-8a0,0,0,0,1,0,0V228A4,4,0,0,1,268,224Z" fill="#ff555f"/><rect x="264" y="296" width="8" height="24" fill="#ff555f"/></svg>