<svg xmlns="http://www.w3.org/2000/svg" viewBox="0 0 512 512"><title>80 Winery Icons - Expanded</title><rect x="88" y="56" width="336" height="400" rx="8" ry="8" fill="#4b873c"/><path d="M410.211,18.894,387.578,30.211a8,8,0,0,1-7.156,0L355.578,17.789a8,8,0,0,0-7.156,0L323.578,30.211a8,8,0,0,1-7.156,0L291.578,17.789a8,8,0,0,0-7.156,0L259.578,30.211a8,8,0,0,1-7.156,0L227.578,17.789a8,8,0,0,0-7.156,0L195.578,30.211a8,8,0,0,1-7.156,0L163.578,17.789a8,8,0,0,0-7.156,0L131.578,30.211a8,8,0,0,1-7.156,0L101.789,18.894A4,4,0,0,0,96,22.472V56H416V22.472A4,4,0,0,0,410.211,18.894Z" fill="#73a041"/><path d="M410.211,493.106l-22.633-11.317a8,8,0,0,0-7.156,0l-24.844,12.422a8,8,0,0,1-7.156,0l-24.844-12.422a8,8,0,0,0-7.156,0l-24.844,12.422a8,8,0,0,1-7.156,0l-24.844-12.422a8,8,0,0,0-7.156,0l-24.844,12.422a8,8,0,0,1-7.156,0l-24.844-12.422a8,8,0,0,0-7.156,0l-24.844,12.422a8,8,0,0,1-7.156,0l-24.844-12.422a8,8,0,0,0-7.156,0l-22.633,11.317A4,4,0,0,1,96,489.528V456H416v33.528A4,4,0,0,1,410.211,493.106Z" fill="#73a041"/><path d="M224,192h64a8,8,0,0,1,8,8v88a32,32,0,0,1-32,32H248a32,32,0,0,1-32-32V200A8,8,0,0,1,224,192Z" fill="#a5c3dc"/><path d="M224,192h24a0,0,0,0,1,0,0v96a16,16,0,0,1-16,16h0a16,16,0,0,1-16-16V200a8,8,0,0,1,8-8Z" fill="#d7e6f0"/><path d="M216,226.667h80a0,0,0,0,1,0,0V288a32,32,0,0,1-32,32H248a32,32,0,0,1-32-32V226.667A0,0,0,0,1,216,226.667Z" fill="#aa2823"/><rect x="248" y="320" width="16" height="96" fill="#a5c3dc"/><rect x="248" y="320" width="16" height="16" fill="#87a5be"/><path d="M240,416h32a16,16,0,0,1,16,16v0a0,0,0,0,1,0,0H224a0,0,0,0,1,0,0v0A16,16,0,0,1,240,416Z" fill="#87a5be"/><path d="M216,226.667h32a0,0,0,0,1,0,0V288a16,16,0,0,1-16,16h0a16,16,0,0,1-16-16V226.667A0,0,0,0,1,216,226.667Z" fill="#e13741"/><rect x="226.667" y="202.667" width="10.667" height="85.333" rx="5.333" ry="5.333" fill="#fff"/><rect x="128" y="336" width="80" height="32" rx="16" ry="16" fill="#73a041"/><rect x="304" y="336" width="80" height="32" rx="16" ry="16" fill="#73a041"/><path d="M165.333,91.433a6,6,0,0,0-6,6v16a10,10,0,1,1-20,0v-16a6,6,0,0,0-12,0v16a22.036,22.036,0,0,0,16,21.161v26.839a6,6,0,0,0,12,0V134.594a22.034,22.034,0,0,0,16-21.161v-16A6,6,0,0,0,165.333,91.433Z" fill="#facc0a"/><path d="M205.333,103.433h16a6,6,0,0,0,0-12h-16a22.025,22.025,0,0,0-22,22v32a22.026,22.026,0,0,0,22,22h16a6,6,0,0,0,0-12h-16a10.012,10.012,0,0,1-10-10v-10h10a6,6,0,1,0,0-12h-10v-10A10.011,10.011,0,0,1,205.333,103.433Z" fill="#facc0a"/><path d="M256.2,91.433a22.025,22.025,0,0,0-22,22v48a6,6,0,0,0,12,0v-26h20v26a6,6,0,0,0,12,0v-48A22.025,22.025,0,0,0,256.2,91.433Zm-10,32v-10a10,10,0,1,1,20,0v10Z" fill="#facc0a"/><path d="M313.367,91.433h-2.335a20.832,20.832,0,0,0-9.316,39.465l15.6,7.8a8.833,8.833,0,0,1-3.949,16.734h-2.335A8.843,8.843,0,0,1,302.2,146.6v-1.168a6,6,0,0,0-12,0V146.6a20.856,20.856,0,0,0,20.833,20.832h2.335a20.833,20.833,0,0,0,9.317-39.466l-15.6-7.8a8.832,8.832,0,0,1,3.95-16.732h2.335a8.843,8.843,0,0,1,8.832,8.833v1.167a6,6,0,0,0,12,0v-1.167A20.856,20.856,0,0,0,313.367,91.433Z" fill="#facc0a"/><path d="M376,91.433H344a6,6,0,0,0,0,12h10v58a6,6,0,0,0,12,0v-58h10a6,6,0,0,0,0-12Z" fill="#facc0a"/></svg>