<svg xmlns="http://www.w3.org/2000/svg" viewBox="0 0 512 512"><title>80 Winery Icons - Expanded</title><path d="M400,44,349.657,94.343h-48L376,20a8,8,0,0,1,11.314,0L400,32.686A8,8,0,0,1,400,44Z" fill="#faa01e"/><path d="M393.657,26.343l-68,68h-24L376,20a8,8,0,0,1,11.314,0Z" fill="#facc0a"/><polygon points="373.657 22.343 373.657 70.343 349.657 94.343 349.657 46.343 373.657 22.343" fill="#a5c3dc"/><polygon points="373.657 22.343 373.657 46.343 349.657 70.343 349.657 46.343 373.657 22.343" fill="#d7e6f0"/><polygon points="325.657 70.343 325.657 94.343 301.657 94.343 325.657 70.343" fill="#d7e6f0"/><path d="M181.657,478.343h144a8,8,0,0,1,8,8v8a0,0,0,0,1,0,0h-160a0,0,0,0,1,0,0v-8A8,8,0,0,1,181.657,478.343Z" fill="#d7e6f0"/><path d="M253.657,486.343h80a0,0,0,0,1,0,0v8a0,0,0,0,1,0,0h-88a0,0,0,0,1,0,0v0A8,8,0,0,1,253.657,486.343Z" fill="#a5c3dc"/><path d="M375.662,161.835a64.576,64.576,0,0,1-10-34.349V110.343a16,16,0,0,0-16-16h-192a16,16,0,0,0-16,16v17.141a64.2,64.2,0,0,1-9.92,34.216,143.337,143.337,0,0,0-22.061,79.011c.911,56.65,34.931,105.532,83.389,128.18a63.768,63.768,0,0,1,36.592,57.827v19.625h0a32,32,0,0,1-32,32h112a32,32,0,0,1-32-32h0V426.837a63.584,63.584,0,0,1,36.509-57.793,144.052,144.052,0,0,0,61.5-207.209Z" fill="#a5c3dc"/><path d="M397.657,238.343a144,144,0,0,1-145.02,144c-77.88-.54-141.71-63.75-142.96-141.63a143.352,143.352,0,0,1,21.94-78.83,65.406,65.406,0,0,0,8.26-19.54h227.55a65.484,65.484,0,0,0,8.24,19.49A143.336,143.336,0,0,1,397.657,238.343Z" fill="#e13741"/><path d="M367.427,142.343H253.657v96h0A143.938,143.938,0,0,1,181.78,363,143.954,143.954,0,0,0,375.667,161.833,65.484,65.484,0,0,1,367.427,142.343Z" fill="#aa2823"/><path d="M367.427,142.343H139.877a63.2,63.2,0,0,0,1.78-14.86v-17.14a16,16,0,0,1,16-16h192a16,16,0,0,1,16,16v17.14A63.258,63.258,0,0,0,367.427,142.343Z" fill="#d7e6f0"/><path d="M367.427,142.343H253.657v-48h96a16,16,0,0,1,16,16v17.14A63.258,63.258,0,0,0,367.427,142.343Z" fill="#a5c3dc"/><path d="M157.657,110.343v21.864a63.068,63.068,0,0,1-10.476,35.084,127.379,127.379,0,0,0-21.524,71.052,8,8,0,1,0,16,0,127.379,127.379,0,0,1,21.524-71.052,63.068,63.068,0,0,0,10.476-35.084V110.343Z" fill="#fff"/><path d="M165.657,214.343h176a8,8,0,0,1,8,8,96,96,0,1,1-192,0A8,8,0,0,1,165.657,214.343Z" fill="#dc6e1e"/><path d="M330.99,214.343v8a77.333,77.333,0,1,1-154.666,0v-8Z" fill="#facc0a"/><path d="M282.627,230.343h27.078a4.011,4.011,0,0,1,3.917,4.851,60.964,60.964,0,0,1-8.484,20.475,4.007,4.007,0,0,1-6.192.649L279.8,237.172A4,4,0,0,1,282.627,230.343Z" fill="#faa01e"/><path d="M268.485,248.485l19.147,19.147a4.007,4.007,0,0,1-.649,6.192,60.983,60.983,0,0,1-20.476,8.485,4.012,4.012,0,0,1-4.85-3.917V251.313A4,4,0,0,1,268.485,248.485Z" fill="#faa01e"/><path d="M245.657,251.313v27.079a4.012,4.012,0,0,1-4.851,3.917,60.986,60.986,0,0,1-20.475-8.485,4.007,4.007,0,0,1-.649-6.192l19.146-19.147A4,4,0,0,1,245.657,251.313Z" fill="#faa01e"/><path d="M227.515,237.172l-19.147,19.146a4.007,4.007,0,0,1-6.192-.649,60.966,60.966,0,0,1-8.485-20.475,4.012,4.012,0,0,1,3.917-4.851h27.078A4,4,0,0,1,227.515,237.172Z" fill="#faa01e"/><path d="M237.657,430.343h-8v16a32,32,0,0,1-32,32h56v-32A16,16,0,0,0,237.657,430.343Z" fill="#d7e6f0"/></svg>