<svg xmlns="http://www.w3.org/2000/svg" viewBox="0 0 512 512"><title>80 Winery Icons - Expanded</title><path d="M287.987,72a8,8,0,0,1,0-16,16,16,0,0,0,0-32,8,8,0,0,1,0-16,32,32,0,0,1,0,64Z" fill="#a5c3dc"/><path d="M383.987,72a8,8,0,0,1,0-16,16,16,0,0,0,0-32,8,8,0,0,1,0-16,32,32,0,0,1,0,64Z" fill="#a5c3dc"/><path d="M239.987,88h224a0,0,0,0,1,0,0V200a24,24,0,0,1-24,24h-176a24,24,0,0,1-24-24V88A0,0,0,0,1,239.987,88Z" fill="#a5c3dc"/><path d="M239.987,88h192a0,0,0,0,1,0,0V200a24,24,0,0,1-24,24h-144a24,24,0,0,1-24-24V88A0,0,0,0,1,239.987,88Z" fill="#d7e6f0"/><path d="M263.987,40h176a24,24,0,0,1,24,24V88a0,0,0,0,1,0,0h-224a0,0,0,0,1,0,0V64A24,24,0,0,1,263.987,40Z" fill="#4664a5"/><path d="M263.987,40h144a24,24,0,0,1,24,24V88a0,0,0,0,1,0,0h-192a0,0,0,0,1,0,0V64A24,24,0,0,1,263.987,40Z" fill="#6ea5d7"/><path d="M383.987,72a32,32,0,0,1,0-64,8,8,0,0,1,0,16,16,16,0,0,0,0,32,8,8,0,0,1,0,16Z" fill="#d7e6f0"/><path d="M287.987,72a32,32,0,0,1,0-64,8,8,0,0,1,0,16,16,16,0,0,0,0,32,8,8,0,0,1,0,16Z" fill="#d7e6f0"/><rect x="263.987" y="112" width="32" height="32" rx="8" ry="8" fill="#a5c3dc"/><rect x="319.987" y="112" width="32" height="32" rx="8" ry="8" fill="#a5c3dc"/><rect x="375.987" y="112" width="32" height="32" rx="8" ry="8" fill="#a5c3dc"/><rect x="263.987" y="168" width="32" height="32" rx="8" ry="8" fill="#a5c3dc"/><rect x="319.987" y="168" width="32" height="32" rx="8" ry="8" fill="#a5c3dc"/><path d="M359.987,498h-176a66,66,0,1,1,0-132H277.32a30,30,0,0,0,0-60H119.987V270H277.32a66,66,0,0,1,0,132H183.987a30,30,0,1,0,0,60h176Z" fill="#faa01e"/><path d="M399.987,256h64a8,8,0,0,1,8,8v88a32,32,0,0,1-32,32h-16a32,32,0,0,1-32-32V264A8,8,0,0,1,399.987,256Z" fill="#a5c3dc"/><path d="M399.987,256h24a0,0,0,0,1,0,0v96a16,16,0,0,1-16,16h0a16,16,0,0,1-16-16V264A8,8,0,0,1,399.987,256Z" fill="#d7e6f0"/><path d="M391.987,290.667h80a0,0,0,0,1,0,0V352a32,32,0,0,1-32,32h-16a32,32,0,0,1-32-32V290.667A0,0,0,0,1,391.987,290.667Z" fill="#aa2823"/><rect x="423.987" y="384" width="16" height="96" fill="#a5c3dc"/><rect x="423.987" y="384" width="16" height="16" fill="#87a5be"/><path d="M415.987,480h32a16,16,0,0,1,16,16v0a0,0,0,0,1,0,0h-64a0,0,0,0,1,0,0v0A16,16,0,0,1,415.987,480Z" fill="#87a5be"/><path d="M391.987,290.667h32a0,0,0,0,1,0,0V352a16,16,0,0,1-16,16h0a16,16,0,0,1-16-16V290.667A0,0,0,0,1,391.987,290.667Z" fill="#e13741"/><rect x="402.654" y="266.667" width="10.667" height="85.333" rx="5.333" ry="5.333" fill="#fff"/><circle cx="119.987" cy="288" r="24" fill="#e13741"/><circle cx="359.987" cy="480" r="24" fill="#e13741"/><path d="M120.961,32.006c-46.03-.549-82.391,38.328-80.9,84.337,2.062,63.739,48.833,116.607,65.828,133.774a19.837,19.837,0,0,0,14.1,5.883h0a19.844,19.844,0,0,0,14.107-5.888c17.384-17.561,65.893-72.447,65.893-138.112A80,80,0,0,0,120.961,32.006Z" fill="#e13741"/><path d="M119.987,32V256a19.857,19.857,0,0,1-14.1-5.88c-17-17.17-63.77-70.04-65.83-133.78C38.577,70.66,74.417,32.01,119.987,32Z" fill="#ff555f"/><circle cx="119.987" cy="112" r="56" fill="#a5c3dc"/><path d="M119.987,56V168a56,56,0,1,1,0-112Z" fill="#d7e6f0"/></svg>