<svg xmlns="http://www.w3.org/2000/svg" viewBox="0 0 512 512"><title>80 Winery Icons - Expanded</title><path d="M288,16H96A16,16,0,0,0,80,32V192a112.018,112.018,0,0,0,96,110.857V448h0a32,32,0,0,1-32,32H120a8,8,0,0,0-8,8v8H272v-8a8,8,0,0,0-8-8H240a32,32,0,0,1-32-32h0V302.857A112.018,112.018,0,0,0,304,192V32A16,16,0,0,0,288,16Z" fill="#d7e6f0"/><path d="M184,496h88v-8H192A8,8,0,0,0,184,496Z" fill="#a5c3dc"/><path d="M288,16H192V192a56,56,0,0,1-56,56h0a56,56,0,0,1-56-56h0a112.018,112.018,0,0,0,96,110.857V320a16,16,0,0,1,16,16V480h48a32,32,0,0,1-32-32h0V302.857A112.018,112.018,0,0,0,304,192V32A16,16,0,0,0,288,16Z" fill="#a5c3dc"/><path d="M192,288a96.108,96.108,0,0,1-96-96V64H288V192A96.108,96.108,0,0,1,192,288Z" fill="#aa2823"/><path d="M109.758,241.472A55.736,55.736,0,0,0,136,248h0a56,56,0,0,0,56-56V64H96V192A95.419,95.419,0,0,0,109.758,241.472Z" fill="#e13741"/><rect x="112" y="32" width="16" height="168" rx="8" ry="8" fill="#fff"/><path d="M372.853,171.147A120,120,0,1,0,408,256,119.215,119.215,0,0,0,372.853,171.147Z" fill="#4b873c"/><path d="M288,112A144,144,0,1,0,432,256,144,144,0,0,0,288,112Zm0,264a120,120,0,1,1,84.853-35.147A119.215,119.215,0,0,1,288,376Z" fill="#73a041"/><rect x="216" y="216" width="48" height="112" rx="8" ry="8" fill="#e13741"/><path d="M344,224H328V184a16,16,0,0,0-32,0h0a19.315,19.315,0,0,1-5.657,13.657L264,224v96h80a16,16,0,0,0,16-16V240A16,16,0,0,0,344,224Z" fill="#fab991"/><circle cx="240" cy="304" r="10.667" fill="#d7e6f0"/></svg>