<svg xmlns="http://www.w3.org/2000/svg" viewBox="0 0 512 512"><title>80 Winery Icons - Expanded</title><path d="M288,304H272c0-15.582,8.755-30,24.65-40.6,14.9-9.932,34.556-15.4,55.35-15.4v16C317.309,264,288,282.318,288,304Z" fill="#f0915a"/><path d="M432,48H272a8,8,0,0,0-8,8V200a88.024,88.024,0,0,0,72,86.545V440h32V286.545A88.024,88.024,0,0,0,440,200V56A8,8,0,0,0,432,48Z" fill="#a5c3dc"/><path d="M272,48h80a0,0,0,0,1,0,0V200a44,44,0,0,1-44,44h0a44,44,0,0,1-44-44V56a8,8,0,0,1,8-8Z" fill="#d7e6f0"/><path d="M352,264a64.072,64.072,0,0,1-64-64V128H416v72A64.072,64.072,0,0,1,352,264Z" fill="#aa2823"/><path d="M352,128H288v72a63.751,63.751,0,0,0,17.52,43.926c.821.046,1.647.074,2.48.074h0a44,44,0,0,0,44-44Z" fill="#e13741"/><path d="M328,440h48a24,24,0,0,1,24,24v0a0,0,0,0,1,0,0H304a0,0,0,0,1,0,0v0A24,24,0,0,1,328,440Z" fill="#a5c3dc"/><rect x="336" y="304" width="16" height="136" fill="#d7e6f0"/><path d="M280,208a8,8,0,0,1-8-8V72a8,8,0,0,1,16,0V200A8,8,0,0,1,280,208Z" fill="#fff"/><circle cx="144" cy="96" r="72" fill="#fab991"/><path d="M144,24A72,72,0,1,1,72,96a72.081,72.081,0,0,1,72-72m0-16a88,88,0,1,0,88,88A88,88,0,0,0,144,8Z" fill="#f0915a"/><circle cx="144" cy="256" r="72" fill="#e13741"/><path d="M144,184a72,72,0,1,1-72,72,72.081,72.081,0,0,1,72-72m0-16a88,88,0,1,0,88,88,88,88,0,0,0-88-88Z" fill="#f0915a"/><circle cx="144" cy="416" r="72" fill="#fab991"/><path d="M144,344a72,72,0,1,1-72,72,72.081,72.081,0,0,1,72-72m0-16a88,88,0,1,0,88,88,88,88,0,0,0-88-88Z" fill="#f0915a"/><path d="M454.343,294.343l-25.791-25.791a6.436,6.436,0,0,0-9.1,0l-25.791,25.791a5.657,5.657,0,0,0,4,9.657H416c0,21.682-29.309,40-64,40s-64-18.318-64-40H272c0,15.582,8.755,30,24.65,40.6,14.9,9.932,34.556,15.4,55.35,15.4s40.451-5.47,55.35-15.4C423.245,334,432,319.582,432,304h18.343a5.657,5.657,0,0,0,4-9.657Z" fill="#f0915a"/><ellipse cx="144" cy="96" rx="55.417" ry="32" fill="#fff"/><circle cx="144" cy="96" r="24" fill="#736969"/><circle cx="144" cy="96" r="8" fill="#3c413c"/><circle cx="137.333" cy="89.333" r="4" fill="#d7e6f0"/><path d="M144,168v42.745a32,32,0,0,0,9.373,22.628l35.313,35.313a11.314,11.314,0,0,1,3.314,8h0A11.313,11.313,0,0,1,180.686,288H144v56h0a88,88,0,0,1-88-88h0a88,88,0,0,1,88-88Z" fill="#f0915a"/><path d="M112,227.934c-6.379,0-12.758-3.035-18.828-9.1a4,4,0,0,1,5.656-5.658c9.11,9.11,17.235,9.11,26.344,0a4,4,0,0,1,5.656,5.658C124.758,224.9,118.379,227.934,112,227.934Z" fill="#3c413c"/><path d="M208,416l-27.21-23.323A36.046,36.046,0,0,0,157.334,384h0a19.885,19.885,0,0,0-12,4.027,19.885,19.885,0,0,0-12-4.027h-.69a36.042,36.042,0,0,0-22.516,7.9L80,416Z" fill="#e13741"/><path d="M80,416H208l-14.4,19.2A32,32,0,0,1,168,448H120a32,32,0,0,1-25.6-12.8Z" fill="#ff555f"/></svg>