<svg xmlns="http://www.w3.org/2000/svg" viewBox="0 0 512 512"><title>80 Winery Icons - Expanded</title><path d="M357.9,192.569,300.2,134.863A160,160,0,0,0,187.059,88H160A144,144,0,0,0,16,232v48A144,144,0,0,0,160,424H416a80,80,0,0,0,80-80V296a80,80,0,0,0-80-80h-1.53A80,80,0,0,1,357.9,192.569Z" fill="#734119"/><path d="M357.9,192.569,300.2,134.863A160,160,0,0,0,187.059,88H160A144,144,0,0,0,16,232h0A144,144,0,0,0,160,376H416a80,80,0,0,0,80-80h0a80,80,0,0,0-80-80h-1.53A80,80,0,0,1,357.9,192.569Z" fill="#fab991"/><path d="M160,344a112,112,0,0,1,0-224h27.059a127.161,127.161,0,0,1,90.51,37.49l57.7,57.706a111.269,111.269,0,0,0,79.2,32.8H416a48,48,0,0,1,0,96Z" fill="#e13741"/><circle cx="160" cy="232" r="48" fill="#fab991"/><circle cx="160" cy="232" r="24" fill="#e13741"/></svg>