<svg xmlns="http://www.w3.org/2000/svg" viewBox="0 0 512 512"><title>80 Winery Icons - Expanded</title><path d="M152,72h0a47.852,47.852,0,0,0-18.632,3.751,63.828,63.828,0,0,0-18.623-49.006L104,16,93.255,26.745A63.828,63.828,0,0,0,74.632,75.751,47.852,47.852,0,0,0,56,72h0a8,8,0,0,0-8,8h0a48,48,0,0,0,48,48h16a48,48,0,0,0,48-48h0A8,8,0,0,0,152,72Z" fill="#73a041"/><path d="M152,72a47.834,47.834,0,0,0-18.632,3.752,63.829,63.829,0,0,0-18.623-49.007L104,16V128h8a48,48,0,0,0,48-48h0a8,8,0,0,0-8-8Z" fill="#506932"/><circle cx="104" cy="200" r="24" fill="#aa2823"/><circle cx="88" cy="104" r="24" fill="#aa2823"/><circle cx="80" cy="96" r="8" fill="#e13741"/><circle cx="120" cy="104" r="24" fill="#aa2823"/><circle cx="112" cy="96" r="8" fill="#e13741"/><circle cx="88" cy="168" r="24" fill="#aa2823"/><circle cx="120" cy="168" r="24" fill="#aa2823"/><circle cx="72" cy="136" r="24" fill="#aa2823"/><circle cx="64" cy="128" r="8" fill="#e13741"/><circle cx="136" cy="136" r="24" fill="#aa2823"/><circle cx="104" cy="136" r="24" fill="#aa2823"/><circle cx="96" cy="128" r="8" fill="#e13741"/><circle cx="128" cy="128" r="8" fill="#e13741"/><circle cx="80" cy="160" r="8" fill="#e13741"/><circle cx="112" cy="160" r="8" fill="#e13741"/><circle cx="96" cy="192" r="8" fill="#e13741"/><path d="M456,72h0a47.852,47.852,0,0,0-18.632,3.751,63.828,63.828,0,0,0-18.623-49.006L408,16,397.255,26.745a63.828,63.828,0,0,0-18.623,49.006A47.852,47.852,0,0,0,360,72h0a8,8,0,0,0-8,8h0a48,48,0,0,0,48,48h16a48,48,0,0,0,48-48h0A8,8,0,0,0,456,72Z" fill="#73a041"/><path d="M456,72a47.834,47.834,0,0,0-18.632,3.752,63.829,63.829,0,0,0-18.623-49.007L408,16V128h8a48,48,0,0,0,48-48h0a8,8,0,0,0-8-8Z" fill="#506932"/><circle cx="408" cy="200" r="24" fill="#afd237"/><circle cx="392" cy="104" r="24" fill="#afd237"/><circle cx="384" cy="96" r="8" fill="#cdf055"/><circle cx="424" cy="104" r="24" fill="#afd237"/><circle cx="416" cy="96" r="8" fill="#cdf055"/><circle cx="392" cy="168" r="24" fill="#afd237"/><circle cx="424" cy="168" r="24" fill="#afd237"/><circle cx="376" cy="136" r="24" fill="#afd237"/><circle cx="368" cy="128" r="8" fill="#cdf055"/><circle cx="440" cy="136" r="24" fill="#afd237"/><circle cx="408" cy="136" r="24" fill="#afd237"/><circle cx="400" cy="128" r="8" fill="#cdf055"/><circle cx="432" cy="128" r="8" fill="#cdf055"/><circle cx="384" cy="160" r="8" fill="#cdf055"/><circle cx="416" cy="160" r="8" fill="#cdf055"/><circle cx="400" cy="192" r="8" fill="#cdf055"/><path d="M166.114,331.448l-25.79-25.791a5.657,5.657,0,0,0-4-1.657h0a5.656,5.656,0,0,0-5.656,5.657V324H128a12.013,12.013,0,0,1-12-12V256a12,12,0,0,0-24,0v56a36.04,36.04,0,0,0,36,36h2.667v14.343A5.656,5.656,0,0,0,136.323,368h0a5.657,5.657,0,0,0,4-1.657l25.79-25.791a6.436,6.436,0,0,0,0-9.1Z" fill="#e13741"/><path d="M408,244a12,12,0,0,0-12,12v56a12.013,12.013,0,0,1-12,12h-2.667V309.657A5.656,5.656,0,0,0,375.677,304h0a5.654,5.654,0,0,0-4,1.657l-25.791,25.791a6.436,6.436,0,0,0,0,9.1l25.791,25.791a5.654,5.654,0,0,0,4,1.657h0a5.656,5.656,0,0,0,5.656-5.657V348H384a36.04,36.04,0,0,0,36-36V256A12,12,0,0,0,408,244Z" fill="#e13741"/><path d="M314.626,193.75l-19.5-13A16,16,0,0,1,288,167.437V144H224v23.437a16,16,0,0,1-7.125,13.313l-19.5,13A48,48,0,0,0,176,233.689V480a16,16,0,0,0,16,16H320a16,16,0,0,0,16-16V233.689A48,48,0,0,0,314.626,193.75Z" fill="#e13741"/><path d="M198,480H186V233.689a37.926,37.926,0,0,1,16.921-31.618l19.5-13A25.947,25.947,0,0,0,234,167.437V144h12v23.437a37.926,37.926,0,0,1-16.921,31.618l-19.5,13A25.947,25.947,0,0,0,198,233.689Z" fill="#ff555f"/><rect x="216" y="16" width="80" height="32" rx="8" ry="8" fill="#736969"/><path d="M288,16H248a8,8,0,0,1,8,8V40a8,8,0,0,1-8,8h40a8,8,0,0,0,8-8V24A8,8,0,0,0,288,16Z" fill="#3c413c"/><path d="M314.626,193.75l-19.5-13A16,16,0,0,1,288,167.437V144H256V480H176a16,16,0,0,0,16,16H320a16,16,0,0,0,16-16V233.689A48,48,0,0,0,314.626,193.75Z" fill="#aa2823"/><rect x="224" y="56" width="32" height="88" fill="#736969"/><polygon points="256 48 224 48 224 56 256 56 256 144 288 144 288 48 256 48" fill="#3c413c"/><rect x="176" y="269.333" width="80" height="133.333" fill="#d7e6f0"/><rect x="256" y="269.333" width="80" height="133.333" fill="#a5c3dc"/><rect x="186" y="269.333" width="12" height="133.333" fill="#fff"/></svg>