<svg xmlns="http://www.w3.org/2000/svg" viewBox="0 0 512 512"><title>80 Winery Icons - Expanded</title><path d="M256,448h0a32,32,0,0,1,32-32H464a32,32,0,0,0,32-32V96a32,32,0,0,0-32-32H288a32,32,0,0,0-32,32h0Z" fill="#faa01e"/><path d="M256,448h0a32,32,0,0,0-32-32H80L16,352V96A32,32,0,0,1,48,64H224a32,32,0,0,1,32,32h0Z" fill="#facc0a"/><path d="M296,92h0a4,4,0,0,1,4-4H452a4,4,0,0,1,4,4h0a12,12,0,0,0,12,12h0a4,4,0,0,1,4,4V372a4,4,0,0,1-4,4h0a12,12,0,0,0-12,12h0a4,4,0,0,1-4,4H300a4,4,0,0,1-4-4h0a12,12,0,0,0-12-12h0a4,4,0,0,1-4-4V108a4,4,0,0,1,4-4h0A12,12,0,0,0,296,92Z" fill="#d7e6f0"/><path d="M56,92h0a4,4,0,0,1,4-4H212a4,4,0,0,1,4,4h0a12,12,0,0,0,12,12h0a4,4,0,0,1,4,4V372a4,4,0,0,1-4,4h0a12,12,0,0,0-12,12h0a4,4,0,0,1-4,4H60a4,4,0,0,1-4-4h0a12,12,0,0,0-12-12h0a4,4,0,0,1-4-4V108a4,4,0,0,1,4-4h0A12,12,0,0,0,56,92Z" fill="#d7e6f0"/><path d="M80,416,16,352H48a32,32,0,0,1,32,32Z" fill="#faa01e"/><path d="M168,128H104a8,8,0,0,0-8,8v88a32,32,0,0,0,32,32v80h16V256a32,32,0,0,0,32-32V136A8,8,0,0,0,168,128Z" fill="#a5c3dc"/><path d="M96,162.667h80a0,0,0,0,1,0,0V224a32,32,0,0,1-32,32H128a32,32,0,0,1-32-32V162.667A0,0,0,0,1,96,162.667Z" fill="#aa2823"/><rect x="128" y="256" width="16" height="16" fill="#87a5be"/><path d="M120,336h32a16,16,0,0,1,16,16v0a0,0,0,0,1,0,0H104a0,0,0,0,1,0,0v0a16,16,0,0,1,16-16Z" fill="#87a5be"/><path d="M96,162.667h32a0,0,0,0,1,0,0V224a16,16,0,0,1-16,16h0a16,16,0,0,1-16-16V162.667A0,0,0,0,1,96,162.667Z" fill="#e13741"/><rect x="106.667" y="138.667" width="10.667" height="85.333" rx="5.333" ry="5.333" fill="#d7e6f0"/><rect x="320" y="128" width="112" height="80" rx="8" ry="8" fill="#87a5be"/><rect x="320" y="232" width="72" height="24" rx="12" ry="12" fill="#87a5be"/><rect x="408" y="232" width="24" height="24" rx="12" ry="12" fill="#87a5be"/><rect x="320" y="280" width="72" height="24" rx="12" ry="12" fill="#87a5be"/><rect x="408" y="280" width="24" height="24" rx="12" ry="12" fill="#87a5be"/><rect x="320" y="328" width="72" height="24" rx="12" ry="12" fill="#87a5be"/><rect x="408" y="328" width="24" height="24" rx="12" ry="12" fill="#87a5be"/></svg>