<svg xmlns="http://www.w3.org/2000/svg" viewBox="0 0 512 512"><title>80 Winery Icons - Expanded</title><path d="M216,206.667H198.627l12.285-12.285a8,8,0,0,0,0-11.313L199.6,171.755a8,8,0,0,0-11.314,0L176,184.04V166.667a8,8,0,0,0-8-8H152a8,8,0,0,0-8,8V184.04l-12.284-12.285a8,8,0,0,0-11.314,0l-11.314,11.314a8,8,0,0,0,0,11.313l12.285,12.285H104a8,8,0,0,0-8,8v16a8,8,0,0,0,8,8h17.373l-12.285,12.284a8,8,0,0,0,0,11.313L120.4,273.579a8,8,0,0,0,11.314,0L144,261.294v89.373a60.853,60.853,0,0,1-17.941,43.313l-16,16A47.691,47.691,0,0,0,96,443.922v34.745a16,16,0,0,0,32,0V443.922a15.9,15.9,0,0,1,4.686-11.315l16-16A92.64,92.64,0,0,0,176,350.667V261.294l12.284,12.285a8,8,0,0,0,11.314,0l11.314-11.315a8,8,0,0,0,0-11.313l-12.285-12.284H216a8,8,0,0,0,8-8v-16A8,8,0,0,0,216,206.667Z" fill="#a5c3dc"/><path d="M416,230.667v-16a8,8,0,0,0-8-8H390.627l12.285-12.285a8,8,0,0,0,0-11.313L391.6,171.755a8,8,0,0,0-11.314,0L368,184.04V166.667a8,8,0,0,0-8-8H344a8,8,0,0,0-8,8V184.04l-12.284-12.285a8,8,0,0,0-11.314,0l-11.314,11.314a8,8,0,0,0,0,11.313l12.285,12.285H296a8,8,0,0,0-8,8v16a8,8,0,0,0,8,8h17.373l-12.285,12.284a8,8,0,0,0,0,11.313L312.4,273.579a8,8,0,0,0,11.314,0L336,261.294v89.373a92.636,92.636,0,0,0,27.314,65.94l16,16A15.9,15.9,0,0,1,384,443.922v34.745a16,16,0,0,0,32,0V443.922a47.692,47.692,0,0,0-14.059-33.942l-16-16A60.849,60.849,0,0,1,368,350.667V261.294l12.284,12.285a8,8,0,0,0,11.314,0l11.314-11.315a8,8,0,0,0,0-11.313l-12.285-12.284H408A8,8,0,0,0,416,230.667Z" fill="#a5c3dc"/><path d="M256,442.667a12,12,0,0,1-8.957-19.987l-7.528-7.528a12,12,0,0,1,0-16.971l7.514-7.514-7.514-7.515a12,12,0,0,1,0-16.971l7.528-7.528A12,12,0,0,1,244,350.667v-48a12,12,0,1,1,24,0V345.7l4.485,4.485a12,12,0,0,1,0,16.971l-7.514,7.515,7.514,7.514a12,12,0,0,1,0,16.971l-7.514,7.515,7.514,7.514a12,12,0,0,1,0,16.971l-8,8A11.963,11.963,0,0,1,256,442.667Z" fill="#87a5be"/><path d="M288,14.667H224a48,48,0,0,0-48,48h0a48,48,0,0,0,48,48h8v48h48v-48h8a48,48,0,0,0,48-48h0A48,48,0,0,0,288,14.667Zm24,48a24,24,0,0,1-24,24H224a24,24,0,0,1-24-24h0a24,24,0,0,1,24-24h64a24,24,0,0,1,24,24Z" fill="#a5c3dc"/><rect x="256" y="86.667" width="24" height="72" fill="#87a5be"/><path d="M232,270.667h48a0,0,0,0,1,0,0v24a8,8,0,0,1-8,8H240a8,8,0,0,1-8-8v-24A0,0,0,0,1,232,270.667Z" fill="#87a5be"/><rect x="112" y="174.667" width="288" height="96" rx="48" ry="48" fill="#3c413c"/><path d="M229.333,158.667h53.333a16,16,0,0,1,16,16v96a0,0,0,0,1,0,0H213.333a0,0,0,0,1,0,0v-96A16,16,0,0,1,229.333,158.667Z" fill="#3c413c"/><path d="M229.333,158.667H256a0,0,0,0,1,0,0v112a0,0,0,0,1,0,0H213.333a0,0,0,0,1,0,0v-96A16,16,0,0,1,229.333,158.667Z" fill="#736969"/><rect x="176" y="270.667" width="24" height="160" fill="#3c413c"/><rect x="312" y="270.667" width="24" height="160" fill="#3c413c"/><rect x="160" y="430.667" width="192" height="66.667" rx="16" ry="16" fill="#736969"/><circle cx="160" cy="222.667" r="16" fill="#d7e6f0"/><circle cx="352" cy="222.667" r="16" fill="#d7e6f0"/><path d="M269.333,446.667H352a0,0,0,0,1,0,0v34.667a16,16,0,0,1-16,16H253.333a0,0,0,0,1,0,0V462.667A16,16,0,0,1,269.333,446.667Z" fill="#3c413c"/><rect x="232" y="110.667" width="48" height="16" fill="#87a5be"/><path d="M232,286.667h24a0,0,0,0,1,0,0v16a0,0,0,0,1,0,0H240a8,8,0,0,1-8-8v-8A0,0,0,0,1,232,286.667Z" fill="#a5c3dc"/></svg>