<svg xmlns="http://www.w3.org/2000/svg" viewBox="0 0 512 512"><title>80 Winery Icons - Expanded</title><path d="M204.057,193.75l-19.5-13a16,16,0,0,1-7.125-13.313V144h-64v23.437a16,16,0,0,1-7.124,13.313l-19.5,13a48,48,0,0,0-21.375,39.939V480a16,16,0,0,0,16,16h128a16,16,0,0,0,16-16V233.689A48,48,0,0,0,204.057,193.75Z" fill="#e13741"/><path d="M87.431,480h-12V233.689a37.924,37.924,0,0,1,16.922-31.618l19.5-13a25.948,25.948,0,0,0,11.577-21.633V144h12v23.437a37.924,37.924,0,0,1-16.921,31.618l-19.5,13a25.949,25.949,0,0,0-11.578,21.633Z" fill="#ff555f"/><rect x="105.431" y="16" width="80" height="32" rx="8" ry="8" fill="#736969"/><path d="M177.431,16h-40a8,8,0,0,1,8,8V40a8,8,0,0,1-8,8h40a8,8,0,0,0,8-8V24A8,8,0,0,0,177.431,16Z" fill="#3c413c"/><path d="M204.057,193.75l-19.5-13a16,16,0,0,1-7.125-13.313V144h-32V480h-80a16,16,0,0,0,16,16h128a16,16,0,0,0,16-16V233.689A48,48,0,0,0,204.057,193.75Z" fill="#aa2823"/><rect x="113.431" y="56" width="32" height="88" fill="#736969"/><polygon points="145.431 48 113.431 48 113.431 56 145.431 56 145.431 144 177.431 144 177.431 48 145.431 48" fill="#3c413c"/><rect x="65.431" y="269.333" width="80" height="133.333" fill="#d7e6f0"/><rect x="145.431" y="269.333" width="80" height="133.333" fill="#a5c3dc"/><rect x="75.431" y="269.333" width="12" height="133.333" fill="#fff"/><rect x="169.431" y="184" width="272" height="240" rx="120" ry="120" fill="#dc6e1e"/><circle cx="289.431" cy="304" r="120" fill="#faa01e"/><path d="M185.431,308a4,4,0,0,1-4-4,108.123,108.123,0,0,1,108-108,4,4,0,0,1,0,8,100.113,100.113,0,0,0-100,100A4,4,0,0,1,185.431,308Z" fill="#facc0a"/><circle cx="289.431" cy="304" r="88" fill="#d7e6f0"/><path d="M289.431,298.667a8,8,0,0,1-8-8V240a8,8,0,0,1,16,0v50.667A8,8,0,0,1,289.431,298.667Z" fill="#f04b37"/><circle cx="289.431" cy="304" r="24" fill="#353744"/><circle cx="289.431" cy="304" r="8" fill="#faa51e"/><path d="M289.431,376a8,8,0,0,1-8-8v-8a8,8,0,0,1,16,0v8A8,8,0,0,1,289.431,376Z" fill="#353744"/><path d="M353.431,312h-8a8,8,0,0,1,0-16h8a8,8,0,1,1,0,16Z" fill="#353744"/><path d="M233.431,312h-8a8,8,0,0,1,0-16h8a8,8,0,1,1,0,16Z" fill="#353744"/><path d="M324.879,139.448l-25.791-25.791a5.657,5.657,0,0,0-9.657,4V132a170.877,170.877,0,0,0-121.622,50.377,12,12,0,1,0,16.971,16.971A147.032,147.032,0,0,1,289.431,156v14.343a5.657,5.657,0,0,0,9.657,4l25.791-25.791a6.436,6.436,0,0,0,0-9.1Z" fill="#73a041"/><path d="M443.054,408.652a12,12,0,0,0-16.971,0A147.033,147.033,0,0,1,321.431,452V437.657a5.656,5.656,0,0,0-9.656-4l-25.791,25.791a6.436,6.436,0,0,0,0,9.1l25.791,25.791a5.656,5.656,0,0,0,9.656-4V476a170.878,170.878,0,0,0,121.623-50.377A12,12,0,0,0,443.054,408.652Z" fill="#73a041"/></svg>