<svg xmlns="http://www.w3.org/2000/svg" viewBox="0 0 512 512"><title>80 Winery Icons - Expanded</title><path d="M194.626,193.75l-19.5-13A16,16,0,0,1,168,167.437V144H104v23.437a16,16,0,0,1-7.125,13.313l-19.5,13A48,48,0,0,0,56,233.689V480a16,16,0,0,0,16,16H200a16,16,0,0,0,16-16V233.689A48,48,0,0,0,194.626,193.75Z" fill="#e13741"/><path d="M78,480H66V233.688a37.923,37.923,0,0,1,16.922-31.617l19.5-13A25.947,25.947,0,0,0,114,167.437V144h12v23.437a37.923,37.923,0,0,1-16.922,31.618l-19.5,13A25.946,25.946,0,0,0,78,233.688Z" fill="#ff555f"/><rect x="96" y="16" width="80" height="32" rx="8" ry="8" fill="#736969"/><path d="M168,16H128a8,8,0,0,1,8,8V40a8,8,0,0,1-8,8h40a8,8,0,0,0,8-8V24A8,8,0,0,0,168,16Z" fill="#3c413c"/><path d="M194.626,193.75l-19.5-13A16,16,0,0,1,168,167.437V144H136V480H56a16,16,0,0,0,16,16H200a16,16,0,0,0,16-16V233.689A48,48,0,0,0,194.626,193.75Z" fill="#aa2823"/><rect x="104" y="56" width="32" height="88" fill="#736969"/><polygon points="136 48 104 48 104 56 136 56 136 144 168 144 168 48 136 48" fill="#3c413c"/><rect x="56" y="269.333" width="80" height="133.333" fill="#d7e6f0"/><rect x="136" y="269.333" width="80" height="133.333" fill="#a5c3dc"/><rect x="66" y="269.333" width="12" height="133.334" fill="#fff"/><path d="M396.853,251.147A120,120,0,1,0,432,336,119.215,119.215,0,0,0,396.853,251.147Z" fill="#fff"/><path d="M312,192A144,144,0,1,0,456,336,144,144,0,0,0,312,192Zm0,264a120,120,0,1,1,84.853-35.147A119.215,119.215,0,0,1,312,456Z" fill="#a5c3dc"/><rect x="248" y="232" width="128" height="160" rx="48" ry="48" fill="#e13741"/><circle cx="312" cy="312" r="56" fill="#3c413c"/><path d="M312,256a55.805,55.805,0,0,0-39.176,16h78.352A55.805,55.805,0,0,0,312,256Z" fill="#d7e6f0"/><path d="M336,312a31.916,31.916,0,0,0-24,10.845A31.993,31.993,0,0,0,256,344v40a56,56,0,0,0,56,56h0a56,56,0,0,0,56-56V344A32,32,0,0,0,336,312Z" fill="#ff555f"/><path d="M312,352a24,24,0,0,0,24-24V312a31.916,31.916,0,0,0-24,10.845A31.916,31.916,0,0,0,288,312v16A24,24,0,0,0,312,352Z" fill="#73a041"/></svg>