<svg xmlns="http://www.w3.org/2000/svg" viewBox="0 0 512 512"><title>80 Winery Icons - Expanded</title><path d="M456,164.919V144H408v20.919a31.815,31.815,0,0,1-20,29.54h0A31.817,31.817,0,0,0,368,224V432a16,16,0,0,0,16,16h96a16,16,0,0,0,16-16V224a31.817,31.817,0,0,0-20-29.541h0A31.815,31.815,0,0,1,456,164.919Z" fill="#e13741"/><rect x="408" y="88" width="48" height="56" fill="#3c413c"/><path d="M408,96h16a8,8,0,0,1,8,8v40a0,0,0,0,1,0,0H408a0,0,0,0,1,0,0V96A0,0,0,0,1,408,96Z" fill="#736969"/><rect x="400" y="64" width="64" height="24" rx="8" ry="8" fill="#3c413c"/><rect x="400" y="64" width="32" height="24" rx="8" ry="8" fill="#736969"/><path d="M475.957,194.442C463.744,189.577,456,177.43,456,164.283V144H432V432H368a16,16,0,0,0,16,16h96a16,16,0,0,0,16-16V224A31.816,31.816,0,0,0,475.957,194.442Z" fill="#aa2823"/><path d="M392,208h0a8,8,0,0,1,8,8V432a0,0,0,0,1,0,0H384a0,0,0,0,1,0,0V216A8,8,0,0,1,392,208Z" fill="#ff555f"/><rect x="368" y="256" width="128" height="96" fill="#a5c3dc"/><rect x="368" y="256" width="64" height="96" fill="#d7e6f0"/><rect x="384" y="256" width="16" height="96" fill="#fff"/><path d="M120,192h0a47.834,47.834,0,0,0-18.632,3.752,63.827,63.827,0,0,0-18.623-49.007L72,136,61.255,146.745a63.827,63.827,0,0,0-18.623,49.007A47.834,47.834,0,0,0,24,192h0a8,8,0,0,0-8,8h0a48,48,0,0,0,48,48H80a48,48,0,0,0,48-48h0A8,8,0,0,0,120,192Z" fill="#73a041"/><path d="M120,192a47.834,47.834,0,0,0-18.632,3.752,63.829,63.829,0,0,0-18.623-49.007L72,136V248h8a48,48,0,0,0,48-48h0a8,8,0,0,0-8-8Z" fill="#506932"/><circle cx="72" cy="320" r="24" fill="#aa2823"/><circle cx="56" cy="224" r="24" fill="#aa2823"/><circle cx="48" cy="216" r="8" fill="#e13741"/><circle cx="88" cy="224" r="24" fill="#aa2823"/><circle cx="80" cy="216" r="8" fill="#e13741"/><circle cx="56" cy="288" r="24" fill="#aa2823"/><circle cx="88" cy="288" r="24" fill="#aa2823"/><circle cx="40" cy="256" r="24" fill="#aa2823"/><circle cx="32" cy="248" r="8" fill="#e13741"/><circle cx="104" cy="256" r="24" fill="#aa2823"/><circle cx="72" cy="256" r="24" fill="#aa2823"/><circle cx="64" cy="248" r="8" fill="#e13741"/><circle cx="96" cy="248" r="8" fill="#e13741"/><circle cx="48" cy="280" r="8" fill="#e13741"/><circle cx="80" cy="280" r="8" fill="#e13741"/><circle cx="64" cy="312" r="8" fill="#e13741"/><circle cx="248" cy="256" r="104" fill="#d7e6f0"/><path d="M328,261.578V250.422A10.422,10.422,0,0,0,317.578,240h0a10.417,10.417,0,0,1-9.732-6.718q-.675-1.77-1.45-3.489a10.431,10.431,0,0,1,2.113-11.675l0,0a10.421,10.421,0,0,0,0-14.738l-7.889-7.889a10.421,10.421,0,0,0-14.738,0l-.005,0a10.429,10.429,0,0,1-11.674,2.113q-1.717-.774-3.489-1.449A10.419,10.419,0,0,1,264,186.422h0A10.422,10.422,0,0,0,253.578,176H242.422A10.422,10.422,0,0,0,232,186.422h0a10.419,10.419,0,0,1-6.718,9.733q-1.77.674-3.489,1.449a10.429,10.429,0,0,1-11.674-2.113l0,0a10.421,10.421,0,0,0-14.738,0l-7.889,7.889a10.421,10.421,0,0,0,0,14.738l0,0a10.431,10.431,0,0,1,2.113,11.675q-.774,1.717-1.45,3.489A10.417,10.417,0,0,1,178.422,240h0A10.422,10.422,0,0,0,168,250.422v11.156A10.422,10.422,0,0,0,178.422,272h0a10.419,10.419,0,0,1,9.733,6.718q.674,1.77,1.449,3.489a10.431,10.431,0,0,1-2.113,11.675l0,0a10.421,10.421,0,0,0,0,14.738l7.889,7.889a10.421,10.421,0,0,0,14.738,0l0,0a10.429,10.429,0,0,1,11.674-2.113q1.717.774,3.489,1.449A10.419,10.419,0,0,1,232,325.578h0A10.422,10.422,0,0,0,242.422,336h11.156A10.422,10.422,0,0,0,264,325.578h0a10.419,10.419,0,0,1,6.718-9.733q1.77-.673,3.489-1.449a10.429,10.429,0,0,1,11.674,2.113l.005,0a10.421,10.421,0,0,0,14.738,0l7.889-7.889a10.421,10.421,0,0,0,0-14.738l0,0a10.431,10.431,0,0,1-2.113-11.675q.774-1.717,1.449-3.489A10.419,10.419,0,0,1,317.578,272h0A10.422,10.422,0,0,0,328,261.578Zm-56.077-7.526a24,24,0,1,1-21.976-21.975A24.006,24.006,0,0,1,271.923,254.052Z" fill="#87a5be"/><path d="M376.323,136.323h0a8,8,0,0,0-11.313,0l-9.937,9.937a153.313,153.313,0,0,0-215.5,1.317,12,12,0,0,0,16.97,16.971A129.319,129.319,0,0,1,338.1,163.23l-9.78,9.78a8,8,0,0,0,0,11.313h0a8,8,0,0,0,5.656,2.344h36.687a8,8,0,0,0,8-8V141.98A8,8,0,0,0,376.323,136.323Z" fill="#e13741"/><path d="M356.423,347.452a12,12,0,0,0-16.97,0A129.319,129.319,0,0,1,157.9,348.77l9.78-9.78a8,8,0,0,0,0-11.313h0a8,8,0,0,0-5.656-2.344H125.333a8,8,0,0,0-8,8V370.02a8,8,0,0,0,2.343,5.657h0a8,8,0,0,0,11.313,0l9.936-9.937a153.315,153.315,0,0,0,215.5-1.317A12,12,0,0,0,356.423,347.452Z" fill="#e13741"/></svg>