<svg xmlns="http://www.w3.org/2000/svg" viewBox="0 0 512 512"><title>80 Winery Icons - Expanded</title><path d="M372,192h64a8,8,0,0,1,8,8v72a32,32,0,0,1-32,32H396a32,32,0,0,1-32-32V200A8,8,0,0,1,372,192Z" fill="#a5c3dc"/><path d="M364,226.667h80a0,0,0,0,1,0,0V272a32,32,0,0,1-32,32H396a32,32,0,0,1-32-32V226.667A0,0,0,0,1,364,226.667Z" fill="#aa2823"/><rect x="396" y="304" width="16" height="64" fill="#a5c3dc"/><rect x="396" y="304" width="16" height="16" fill="#87a5be"/><path d="M388,368h32a16,16,0,0,1,16,16v0a0,0,0,0,1,0,0H372a0,0,0,0,1,0,0v0A16,16,0,0,1,388,368Z" fill="#87a5be"/><path d="M364,226.667h32a0,0,0,0,1,0,0V272a16,16,0,0,1-16,16h0a16,16,0,0,1-16-16V226.667A0,0,0,0,1,364,226.667Z" fill="#e13741"/><rect x="374.667" y="202.667" width="10.667" height="69.333" rx="5.333" ry="5.333" fill="#d7e6f0"/><path d="M180,32a96,96,0,0,0-96,96V320H196V288h64a48,48,0,0,0,48-48V128a96,96,0,0,0-96-96Z" fill="#fab991"/><path d="M281.334,190.667A30.667,30.667,0,1,1,312,160,30.7,30.7,0,0,1,281.334,190.667Zm0-53.334A22.667,22.667,0,1,0,304,160,22.692,22.692,0,0,0,281.334,137.333Z" fill="#dc6e1e"/><path d="M228,16H180A112,112,0,0,0,68,128h0v4.292a32,32,0,1,0,0,55.416V256a16,16,0,0,0,16,16h48a32,32,0,0,0,32-32V160h0a32,32,0,0,0,32-32H308a16,16,0,0,0,16-16h0A96,96,0,0,0,228,16Z" fill="#3c413c"/><path d="M116,288h80a0,0,0,0,1,0,0v32a0,0,0,0,1,0,0H84a0,0,0,0,1,0,0v0A32,32,0,0,1,116,288Z" fill="#f0915a"/><path d="M164,152a24,24,0,0,0-24,24h8a16,16,0,0,1,16-16h37.333v-8Z" fill="#dc6e1e"/><path d="M164,160v80a40,40,0,0,1,0-80Z" fill="#f0915a"/><path d="M254.667,173.333h0a32,32,0,0,1,32,32V208a16,16,0,0,1-16,16h0a16,16,0,0,1-16-16V173.333a0,0,0,0,1,0,0Z" fill="#f0915a"/><path d="M252,240h32a0,0,0,0,1,0,0v0a16,16,0,0,1-16,16h0a16,16,0,0,1-16-16v0A0,0,0,0,1,252,240Z" fill="#3c413c"/><path d="M487.314,388.687a16,16,0,0,0-22.627,0l-38.629,38.627A15.891,15.891,0,0,1,414.745,432H372a8,8,0,0,0-8,8v40h32a16,16,0,0,1,16-16h2.745a47.678,47.678,0,0,0,33.941-14.06l38.628-38.627A16,16,0,0,0,487.314,388.687Z" fill="#f0915a"/><path d="M400,392H364a32,32,0,0,0-32,32v56h32V440a8,8,0,0,1,8-8h28a20,20,0,0,0,20-20h0A20,20,0,0,0,400,392Z" fill="#fab991"/><path d="M332,480h64a8,8,0,0,1,8,8v8a0,0,0,0,1,0,0H324a0,0,0,0,1,0,0v-8A8,8,0,0,1,332,480Z" fill="#dc6e1e"/><path d="M452,96a48,48,0,1,0-81.321,34.534A29.88,29.88,0,0,1,380,152h48v-.006a29.3,29.3,0,0,1,9.083-21.232A47.831,47.831,0,0,0,452,96Z" fill="#faa01e"/><path d="M380,152h48a0,0,0,0,1,0,0v0a24,24,0,0,1-24,24h0a24,24,0,0,1-24-24v0A0,0,0,0,1,380,152Z" fill="#3c413c"/><circle cx="388" cy="80" r="16" fill="#facc0a"/><path d="M84,320H260a48,48,0,0,1,48,48V496a0,0,0,0,1,0,0H36a0,0,0,0,1,0,0V368A48,48,0,0,1,84,320Z" fill="#dc6e1e"/><path d="M148,320h0a48,48,0,0,1,48,48V496h48V368a48,48,0,0,0-48-48Z" fill="#d7e6f0"/><path d="M84,320h0a48,48,0,0,1,48,48V496a0,0,0,0,1,0,0H36a0,0,0,0,1,0,0V368A48,48,0,0,1,84,320Z" fill="#faa01e"/><path d="M148,320h0a48,48,0,0,1,48,48v24a24,24,0,0,0,24,24h0a24,24,0,0,0,24-24V368a48,48,0,0,0-48-48Z" fill="#f0915a"/><circle cx="230.667" cy="160" r="10.667" fill="#3c413c"/><circle cx="278.667" cy="160" r="10.667" fill="#3c413c"/><path d="M228,190.667A30.667,30.667,0,1,1,258.667,160,30.7,30.7,0,0,1,228,190.667Zm0-53.334A22.667,22.667,0,1,0,250.667,160,22.691,22.691,0,0,0,228,137.333Z" fill="#dc6e1e"/></svg>