<svg xmlns="http://www.w3.org/2000/svg" viewBox="0 0 512 512"><title>80 Winery Icons - Expanded</title><path d="M352,16H160a16,16,0,0,0-16,16V192a112.018,112.018,0,0,0,96,110.857V448h0a32,32,0,0,1-32,32H184a8,8,0,0,0-8,8v8H336v-8a8,8,0,0,0-8-8H304a32,32,0,0,1-32-32h0V302.857A112.018,112.018,0,0,0,368,192V32A16,16,0,0,0,352,16Z" fill="#d7e6f0"/><path d="M248,496h88v-8H256A8,8,0,0,0,248,496Z" fill="#a5c3dc"/><path d="M352,16H256V192a56,56,0,0,1-56,56h0a56,56,0,0,1-56-56h0a112.018,112.018,0,0,0,96,110.857V320a16,16,0,0,1,16,16V480h48a32,32,0,0,1-32-32h0V302.857A112.018,112.018,0,0,0,368,192V32A16,16,0,0,0,352,16Z" fill="#a5c3dc"/><path d="M256,288a96.108,96.108,0,0,1-96-96V64H352V192A96.108,96.108,0,0,1,256,288Z" fill="#aa2823"/><path d="M173.758,241.472A55.736,55.736,0,0,0,200,248h0a56,56,0,0,0,56-56V64H160V192A95.419,95.419,0,0,0,173.758,241.472Z" fill="#e13741"/><rect x="176" y="32" width="16" height="168" rx="8" ry="8" fill="#fff"/></svg>