<svg xmlns="http://www.w3.org/2000/svg" viewBox="0 0 512 512"><title>80 Winery Icons - Expanded</title><rect x="56" y="16" width="320" height="480" rx="16" ry="16" fill="#87a5be"/><rect x="104" y="64" width="224" height="368" rx="8" ry="8" fill="#3c413c"/><rect x="72" y="128" width="16" height="256" rx="8" ry="8" fill="#d7e6f0"/><rect x="104" y="336" width="224" height="16" fill="#736969"/><rect x="104" y="240" width="224" height="16" fill="#736969"/><rect x="104" y="144" width="224" height="16" fill="#736969"/><circle cx="288" cy="400" r="32" fill="#e13741"/><path d="M278.572,390.572a13.333,13.333,0,0,0,0,18.856L299.141,430A32,32,0,0,0,318,411.141l-20.569-20.569A13.333,13.333,0,0,0,278.572,390.572Z" fill="#aa2823"/><circle cx="288" cy="400" r="13.333" fill="#3c413c"/><circle cx="216" cy="400" r="32" fill="#e13741"/><path d="M206.572,390.572a13.333,13.333,0,0,0,0,18.856L227.141,430A32,32,0,0,0,246,411.141l-20.569-20.569A13.333,13.333,0,0,0,206.572,390.572Z" fill="#aa2823"/><circle cx="216" cy="400" r="13.333" fill="#3c413c"/><circle cx="144" cy="400" r="32" fill="#e13741"/><path d="M134.572,390.572a13.333,13.333,0,0,0,0,18.856L155.141,430A32,32,0,0,0,174,411.141l-20.569-20.569A13.333,13.333,0,0,0,134.572,390.572Z" fill="#aa2823"/><circle cx="144" cy="400" r="13.333" fill="#3c413c"/><circle cx="288" cy="304" r="32" fill="#e13741"/><path d="M278.572,294.572a13.333,13.333,0,0,0,0,18.856L299.141,334A32,32,0,0,0,318,315.141l-20.569-20.569A13.333,13.333,0,0,0,278.572,294.572Z" fill="#aa2823"/><circle cx="288" cy="304" r="13.333" fill="#3c413c"/><circle cx="216" cy="304" r="32" fill="#e13741"/><path d="M206.572,294.572a13.333,13.333,0,0,0,0,18.856L227.141,334A32,32,0,0,0,246,315.141l-20.569-20.569A13.333,13.333,0,0,0,206.572,294.572Z" fill="#aa2823"/><circle cx="216" cy="304" r="13.333" fill="#3c413c"/><circle cx="144" cy="304" r="32" fill="#e13741"/><path d="M134.572,294.572a13.333,13.333,0,0,0,0,18.856L155.141,334A32,32,0,0,0,174,315.141l-20.569-20.569A13.333,13.333,0,0,0,134.572,294.572Z" fill="#aa2823"/><circle cx="144" cy="304" r="13.333" fill="#3c413c"/><circle cx="288" cy="208" r="32" fill="#e13741"/><path d="M278.572,198.572a13.333,13.333,0,0,0,0,18.856L299.141,238A32,32,0,0,0,318,219.141l-20.569-20.569A13.333,13.333,0,0,0,278.572,198.572Z" fill="#aa2823"/><circle cx="288" cy="208" r="13.333" fill="#3c413c"/><circle cx="216" cy="208" r="32" fill="#e13741"/><path d="M206.572,198.572a13.333,13.333,0,0,0,0,18.856L227.141,238A32,32,0,0,0,246,219.141l-20.569-20.569A13.333,13.333,0,0,0,206.572,198.572Z" fill="#aa2823"/><circle cx="216" cy="208" r="13.333" fill="#3c413c"/><circle cx="144" cy="208" r="32" fill="#e13741"/><path d="M134.572,198.572a13.333,13.333,0,0,0,0,18.856L155.141,238A32,32,0,0,0,174,219.141l-20.569-20.569A13.333,13.333,0,0,0,134.572,198.572Z" fill="#aa2823"/><circle cx="144" cy="208" r="13.333" fill="#3c413c"/><circle cx="288" cy="112" r="32" fill="#e13741"/><path d="M278.572,102.572a13.333,13.333,0,0,0,0,18.856L299.141,142A32,32,0,0,0,318,123.141l-20.569-20.569A13.333,13.333,0,0,0,278.572,102.572Z" fill="#aa2823"/><circle cx="288" cy="112" r="13.333" fill="#3c413c"/><circle cx="216" cy="112" r="32" fill="#e13741"/><path d="M206.572,102.572a13.333,13.333,0,0,0,0,18.856L227.141,142A32,32,0,0,0,246,123.141l-20.569-20.569A13.333,13.333,0,0,0,206.572,102.572Z" fill="#aa2823"/><circle cx="216" cy="112" r="13.333" fill="#3c413c"/><circle cx="144" cy="112" r="32" fill="#e13741"/><path d="M134.572,102.572a13.333,13.333,0,0,0,0,18.856L155.141,142A32,32,0,0,0,174,123.141l-20.569-20.569A13.333,13.333,0,0,0,134.572,102.572Z" fill="#aa2823"/><circle cx="144" cy="112" r="13.333" fill="#3c413c"/><rect x="104" y="448" width="98.667" height="10.667" rx="5.333" ry="5.333" fill="#3c413c"/><rect x="104" y="469.333" width="98.667" height="10.667" rx="5.333" ry="5.333" fill="#3c413c"/><rect x="232" y="448" width="96" height="10.667" rx="5.333" ry="5.333" fill="#3c413c"/><rect x="232" y="469.333" width="96" height="10.667" rx="5.333" ry="5.333" fill="#3c413c"/><circle cx="352" cy="256" r="88" fill="#fff"/><path d="M352,168a88,88,0,1,1-88,88,88.1,88.1,0,0,1,88-88m0-16A104,104,0,1,0,456,256,104,104,0,0,0,352,152Z" fill="#a0dcfa"/><path d="M409.426,284.536l-19.35-11.171,12.528-3.358a4,4,0,1,0-2.07-7.727l-20.257,5.428L360,256l20.277-11.708,20.257,5.428a4,4,0,1,0,2.07-7.727l-12.528-3.358,19.35-11.171a4,4,0,1,0-4-6.928l-19.35,11.172,3.357-12.529a4,4,0,0,0-7.727-2.071l-5.428,20.257L356,249.072V225.657l14.828-14.828a4,4,0,0,0-5.656-5.658L356,214.343V192a4,4,0,0,0-8,0v22.343l-9.172-9.172a4,4,0,0,0-5.656,5.658L348,225.657v23.415l-20.278-11.707-5.428-20.257a4,4,0,0,0-7.727,2.071l3.357,12.529-19.35-11.172a4,4,0,0,0-4,6.928l19.35,11.171L301.4,241.993a4,4,0,1,0,2.07,7.727l20.257-5.428L344,256l-20.277,11.708-20.257-5.428a4,4,0,1,0-2.07,7.727l12.528,3.358-19.35,11.171a4,4,0,1,0,4,6.928l19.35-11.172-3.357,12.529a4,4,0,1,0,7.727,2.071l5.428-20.257L348,262.928v23.415l-14.828,14.828a4,4,0,0,0,5.656,5.658L348,297.657V320a4,4,0,0,0,8,0V297.657l9.172,9.172a4,4,0,0,0,5.656-5.658L356,286.343V262.928l20.278,11.707,5.428,20.257a4,4,0,0,0,7.727-2.071l-3.357-12.529,19.35,11.172a4,4,0,1,0,4-6.928Z" fill="#55bee6"/></svg>