<svg xmlns="http://www.w3.org/2000/svg" viewBox="0 0 512 512"><title>80 Winery Icons - Expanded</title><path d="M212,128H52a8,8,0,0,0-8,8v96a88.023,88.023,0,0,0,72,86.544V472h-8a24,24,0,0,0-24,24h96a24,24,0,0,0-24-24h-8V318.544A88.023,88.023,0,0,0,220,232V136A8,8,0,0,0,212,128Z" fill="#a5c3dc"/><path d="M52,128h80a0,0,0,0,1,0,0V232a44,44,0,0,1-44,44h0a44,44,0,0,1-44-44V136a8,8,0,0,1,8-8Z" fill="#d7e6f0"/><path d="M132,296a64.072,64.072,0,0,1-64-64V208H196v24A64.072,64.072,0,0,1,132,296Z" fill="#aa2823"/><path d="M132,208H68v24a63.751,63.751,0,0,0,17.52,43.926c.821.046,1.647.074,2.48.074h0a44,44,0,0,0,44-44Z" fill="#e13741"/><rect x="116" y="336" width="16" height="136" fill="#d7e6f0"/><path d="M60,240a8,8,0,0,1-8-8V152a8,8,0,0,1,16,0v80A8,8,0,0,1,60,240Z" fill="#fff"/><path d="M408.853,75.147A120,120,0,1,0,444,160,119.215,119.215,0,0,0,408.853,75.147Z" fill="#fff"/><path d="M324,16A144,144,0,1,0,468,160,144,144,0,0,0,324,16Zm0,264a120,120,0,1,1,84.853-35.147A119.215,119.215,0,0,1,324,280Z" fill="#a5c3dc"/><rect x="260" y="56" width="128" height="160" rx="48" ry="48" fill="#e13741"/><circle cx="324" cy="136" r="56" fill="#3c413c"/><path d="M324,80a55.805,55.805,0,0,0-39.176,16h78.352A55.805,55.805,0,0,0,324,80Z" fill="#d7e6f0"/><path d="M348,136a31.916,31.916,0,0,0-24,10.845A31.993,31.993,0,0,0,268,168v40a56,56,0,0,0,56,56h0a56,56,0,0,0,56-56V168A32,32,0,0,0,348,136Z" fill="#ff555f"/><path d="M324,176a24,24,0,0,0,24-24V136a31.916,31.916,0,0,0-24,10.845A31.916,31.916,0,0,0,300,136v16A24,24,0,0,0,324,176Z" fill="#73a041"/></svg>