<svg xmlns="http://www.w3.org/2000/svg" viewBox="0 0 512 512"><title>80 Winery Icons - Expanded</title><path d="M344,228a24,24,0,1,1,24-24A24.027,24.027,0,0,1,344,228Zm0-32a8,8,0,1,0,8,8A8.009,8.009,0,0,0,344,196Z" fill="#87a5be"/><path d="M144,60H48a8,8,0,0,0-8,8V204a48,48,0,0,0,48,48V380H72a16,16,0,0,0-16,16h80a16,16,0,0,0-16-16H104V252a48,48,0,0,0,48-48V68A8,8,0,0,0,144,60Z" fill="#a5c3dc"/><path d="M48,60H96a0,0,0,0,1,0,0V200a28,28,0,0,1-28,28h0a28,28,0,0,1-28-28V68a8,8,0,0,1,8-8Z" fill="#d7e6f0"/><path d="M40,140v64a48,48,0,0,0,48,48h16a48,48,0,0,0,48-48V140Z" fill="#aa2823"/><path d="M40,140H96a0,0,0,0,1,0,0v60a28,28,0,0,1-28,28h0a28,28,0,0,1-28-28V140A0,0,0,0,1,40,140Z" fill="#e13741"/><rect x="88" y="270.667" width="8" height="109.333" fill="#d7e6f0"/><path d="M56,68H72a0,0,0,0,1,0,0V204a8,8,0,0,1-8,8h0a8,8,0,0,1-8-8V68A0,0,0,0,1,56,68Z" fill="#fff"/><path d="M328,348H259.882a48,48,0,0,0-33.941,14.059L208,380l40,40,19.314-19.314A16,16,0,0,1,278.627,396H328a24,24,0,0,0,24-24h0A24,24,0,0,0,328,348Z" fill="#fab991"/><path d="M443.313,336.686a16,16,0,0,0-22.626,0L361.373,396H278.627a16,16,0,0,0-11.313,4.686L248,420l24,24,16-16h76.687a23.846,23.846,0,0,0,16.97-7.029l61.656-61.657A16,16,0,0,0,443.313,336.686Z" fill="#f0915a"/><path d="M322.667,358.667H328A13.333,13.333,0,0,1,341.333,372v0A13.333,13.333,0,0,1,328,385.333h-5.333a8,8,0,0,1-8-8V366.667a8,8,0,0,1,8-8Z" fill="#f0915a"/><path d="M205.657,377.657,248,420l-40,40H112l82.343-82.343A8,8,0,0,1,205.657,377.657Z" fill="#736969"/><path d="M248,420l26.343,26.343a8,8,0,0,1,0,11.314L272,460H208Z" fill="#3c413c"/><path d="M248,188H232V172a8,8,0,0,0-8-8H208a8,8,0,0,0-8,8v16H184a8,8,0,0,0-8,8v16a8,8,0,0,0,8,8h16v16a8,8,0,0,0,8,8h16a8,8,0,0,0,8-8V220h16a8,8,0,0,0,8-8V196A8,8,0,0,0,248,188Z" fill="#e13741"/><path d="M344,220A112,112,0,0,0,232,332H456A112,112,0,0,0,344,220Z" fill="#87a5be"/><rect x="216" y="332" width="256" height="16" rx="8" ry="8" fill="#a5c3dc"/><path d="M344,332H232A112,112,0,0,1,344,220Z" fill="#a5c3dc"/><path d="M259.33,316a8.007,8.007,0,0,1-7.7-10.186,96.71,96.71,0,0,1,66.185-66.186,8,8,0,0,1,4.37,15.392,80.6,80.6,0,0,0-55.163,55.162A8,8,0,0,1,259.33,316Z" fill="#d7e6f0"/><path d="M344,132a8,8,0,0,1-8-8V108a8,8,0,0,1,8-8,16,16,0,1,0-16-16,8,8,0,0,1-16,0,32,32,0,1,1,40,30.988V124A8,8,0,0,1,344,132Z" fill="#4b873c"/><circle cx="344" cy="152" r="12" fill="#4b873c"/></svg>