<svg xmlns="http://www.w3.org/2000/svg" viewBox="0 0 512 512"><title>80 Winery Icons - Expanded</title><path d="M120,176a47.834,47.834,0,0,1,3.752-18.632,63.829,63.829,0,0,1-49.007-18.623L64,128H176v8a48,48,0,0,1-48,48h0a8,8,0,0,1-8-8Z" fill="#4b873c"/><path d="M120,176h0a47.834,47.834,0,0,1,3.752-18.632,63.829,63.829,0,0,1-49.007-18.623L64,128l10.745-10.745a63.829,63.829,0,0,1,49.007-18.623A47.834,47.834,0,0,1,120,80h0a8,8,0,0,1,8-8h0a48,48,0,0,1,48,48v16a48,48,0,0,1-48,48h0A8,8,0,0,1,120,176Z" fill="#73a041"/><path d="M120,176a47.834,47.834,0,0,1,3.752-18.632,63.829,63.829,0,0,1-49.007-18.623L64,128H176v8a48,48,0,0,1-48,48h0a8,8,0,0,1-8-8Z" fill="#4b873c"/><path d="M192,208a16,16,0,0,1-16-16V128A112.127,112.127,0,0,1,288,16a16,16,0,0,1,0,32,80.091,80.091,0,0,0-80,80v64A16,16,0,0,1,192,208Z" fill="#73a041"/><path d="M288,32a96,96,0,0,0-96,96v80a16,16,0,0,0,16-16V128a80.091,80.091,0,0,1,80-80,16,16,0,0,0,16-16Z" fill="#4b873c"/><circle cx="192" cy="440" r="56" fill="#aa2823"/><circle cx="240" cy="368" r="56" fill="#aa2823"/><circle cx="144" cy="368" r="56" fill="#aa2823"/><circle cx="240" cy="224" r="56" fill="#aa2823"/><circle cx="144" cy="224" r="56" fill="#aa2823"/><circle cx="192" cy="296" r="56" fill="#aa2823"/><circle cx="96" cy="296" r="56" fill="#aa2823"/><circle cx="288" cy="296" r="56" fill="#aa2823"/><circle cx="176" cy="424" r="24" fill="#e13741"/><circle cx="224" cy="352" r="24" fill="#e13741"/><circle cx="128" cy="352" r="24" fill="#e13741"/><circle cx="224" cy="208" r="24" fill="#e13741"/><circle cx="416" cy="104" r="56" fill="#aa2823"/><circle cx="400" cy="88" r="24" fill="#e13741"/><circle cx="416" cy="408" r="56" fill="#3c413c"/><circle cx="400" cy="392" r="24" fill="#736969"/><circle cx="128" cy="208" r="24" fill="#e13741"/><circle cx="176" cy="280" r="24" fill="#e13741"/><circle cx="80" cy="280" r="24" fill="#e13741"/><circle cx="272" cy="280" r="24" fill="#e13741"/><path d="M446.343,195.677l-25.791-25.791a6.436,6.436,0,0,0-9.1,0l-25.791,25.791a5.656,5.656,0,0,0,4,9.656H404V208a12.013,12.013,0,0,1-12,12H344a12,12,0,0,0,0,24h48a36.04,36.04,0,0,0,36-36v-2.667h14.343a5.656,5.656,0,0,0,4-9.656Z" fill="#e13741"/><path d="M442.343,306.667H428V304a36.04,36.04,0,0,0-36-36H376a12,12,0,0,0,0,24h16a12.013,12.013,0,0,1,12,12v2.667H389.657a5.656,5.656,0,0,0-4,9.656l25.791,25.791a6.436,6.436,0,0,0,9.1,0l25.791-25.791a5.656,5.656,0,0,0-4-9.656Z" fill="#e13741"/></svg>