<svg xmlns="http://www.w3.org/2000/svg" viewBox="0 0 512 512"><title>80 Winery Icons - Expanded</title><path d="M206.343,177.657,148,119.314A8,8,0,0,1,148,108l24.4-24.4a48,48,0,0,1,67.882,0l28.726,28.726Z" fill="#d7e6f0"/><path d="M334.343,305.657,392.686,364A8,8,0,0,0,404,364l24.4-24.4a48,48,0,0,0,0-67.882L399.676,242.99Z" fill="#a5c3dc"/><path d="M208.343,369.657h-2l-64-64v-2c0-140.28,113.72-254,254-254h11.373a54.624,54.624,0,0,1,38.627,16h0a54.624,54.624,0,0,1,16,38.627v11.373C462.343,255.937,348.623,369.657,208.343,369.657Z" fill="#a5c3dc"/><path d="M206.343,369.657h2c140.28,0,254-113.72,254-254V104.284a54.624,54.624,0,0,0-16-38.627l-272,272Z" fill="#87a5be"/><path d="M142.343,305.657H111.48a80,80,0,0,0-56.568,23.431L52,332a8,8,0,0,0,0,11.314L80.284,371.6a48,48,0,0,0,33.941,14.059h12.118v12.118A48,48,0,0,0,140.4,431.716L168.686,460A8,8,0,0,0,180,460l2.912-2.912a80,80,0,0,0,23.431-56.568V369.657Z" fill="#d7e6f0"/><path d="M444.763,208.691a253.324,253.324,0,0,0,17.58-93.034V104.284a54.624,54.624,0,0,0-16-38.627h0a54.624,54.624,0,0,0-38.627-16H396.343a253.324,253.324,0,0,0-93.034,17.58A160.049,160.049,0,0,0,444.763,208.691Z" fill="#d7e6f0"/><path d="M126.343,397.775A48,48,0,0,0,140.4,431.716L168.686,460A8,8,0,0,0,180,460l2.912-2.912a80,80,0,0,0,23.431-56.568V369.657l-32-32-48,48Z" fill="#a5c3dc"/><path d="M444.763,208.691a253.324,253.324,0,0,0,17.58-93.034V104.284a54.624,54.624,0,0,0-16-38.627l-97.13,97.13A159.5,159.5,0,0,0,444.763,208.691Z" fill="#a5c3dc"/><path d="M369.657,97.657,380,87.314A8,8,0,0,0,368.686,76L358.343,86.343,348,76a8,8,0,1,0-11.314,11.314l10.343,10.343L336.686,108A8,8,0,0,0,348,119.314l10.343-10.343,10.343,10.343A8,8,0,0,0,380,108Z" fill="#3c413c"/><path d="M382.742,249.826a7.97,7.97,0,0,1-3.059-.611,214.586,214.586,0,0,1-116.9-116.9,8,8,0,0,1,14.782-6.124,198.7,198.7,0,0,0,108.239,108.24,8,8,0,0,1-3.064,15.393Z" fill="#d7e6f0"/><path d="M390.135,244.885a8,8,0,0,0-4.329-10.452,198.83,198.83,0,0,1-64.92-43.314l0,0L309.57,202.43a214.751,214.751,0,0,0,70.113,46.785,7.993,7.993,0,0,0,10.452-4.33Z" fill="#a5c3dc"/></svg>