<svg xmlns="http://www.w3.org/2000/svg" viewBox="0 0 48 48"><defs><style>.cls-1{fill:#7c7d7d;}.cls-2{fill:#747575;}.cls-3{fill:#919191;}.cls-4{fill:#c6c3d8;}.cls-5{fill:#dad7e5;}.cls-6{fill:#db5669;}.cls-7{fill:#f26674;}.cls-8{fill:#c4455e;}</style></defs><title>Chainsaw</title><g id="Chainsaw"><path class="cls-1" d="M15.19,41.29c-4,4.05-4.66,5-6.64,5.5a6,6,0,0,1-7.34-7.34c.5-2,1.43-2.57,5.5-6.64l2.82,2.83c-1.25,1.26-.48.49-3.53,3.53A2,2,0,0,0,8.82,42l3.54-3.54Z"/><path class="cls-2" d="M6.59,42.4a2,2,0,0,0,3.23.6l3.54-3.54-1-1C9.06,41.76,8.26,43.14,6.59,42.4Z"/><path class="cls-3" d="M2.21,40.45a6,6,0,0,0,1.08,5.26,6,6,0,0,1-.53-9l3-2.95,1,1C3.93,37.59,2.71,38.48,2.21,40.45Z"/><path class="cls-4" d="M40.54,11.54,25.8,26.44l-7.07-7.07L33.46,4.46a5,5,0,0,1,7.08,7.08Z"/><path class="cls-5" d="M41,7c0,2.64-.7,2.78-10.91,13.09a6.07,6.07,0,0,1-8.62,0l-1.75-1.75L33.46,4.46A5,5,0,0,1,40,4,5,5,0,0,1,41,7Z"/><path class="cls-6" d="M26.5,30,15.19,41.29,6,32.1c4.7-9.4,4.16-8.4,4.43-8.67L12.5,25.5a2.12,2.12,0,0,0,3-3l-2.07-2.07,1.76-1.77a2,2,0,0,1,2.83,0l8.48,8.49A2,2,0,0,1,26.5,30Z"/><rect class="cls-1" x="6" y="33.1" width="1.41" height="1.41" transform="translate(-21.94 14.65) rotate(-45)"/><rect class="cls-2" x="7.42" y="33.93" width="1.41" height="2.58" transform="translate(-22.62 16.21) rotate(-45.29)"/><rect class="cls-2" x="12.57" y="38.37" width="1.41" height="4" transform="translate(-24.66 21.21) rotate(-45)"/><path class="cls-7" d="M25.91,26.56,23,29.43a11.11,11.11,0,0,1-15.71,0L9.7,24.7l1.8,1.8a2.11,2.11,0,0,0,3.4-.58A2.12,2.12,0,0,0,16.12,24c0-1.19-.8-1.68-2.69-3.57l1.76-1.77a2,2,0,0,1,2.83,0Z"/><path class="cls-1" d="M37.71,8.7,23,23.61,21.56,22.2,36.29,7.3A1,1,0,0,1,37.71,8.7Z"/><path class="cls-8" d="M22.67,25.56h4a0,0,0,0,1,0,0v2a4,4,0,0,1-4,4h-2a0,0,0,0,1,0,0v-4a2,2,0,0,1,2-2Z" transform="translate(60.61 32.02) rotate(135)"/><path class="cls-8" d="M10.65,32.69A1,1,0,0,1,10,31l1.41-1.41A1,1,0,1,1,12.77,31C11.24,32.52,11.18,32.69,10.65,32.69Z"/><path class="cls-8" d="M13.48,35.51a1,1,0,0,1-.71-1.7l1.42-1.42a1,1,0,0,1,1.41,1.42C14.06,35.35,14,35.51,13.48,35.51Z"/><path class="cls-1" d="M16.12,24a2.12,2.12,0,0,1-3.62,1.5l-8-8a2.12,2.12,0,0,1,3-3C16.28,23.28,16.12,22.82,16.12,24Z"/><path class="cls-3" d="M16.12,24a2,2,0,0,1-.22.92,2.11,2.11,0,0,1-2.4-.42C4.68,15.68,4.88,16.18,4.88,15a2.1,2.1,0,0,1,.21-.92,2.13,2.13,0,0,1,2.41.42C16.28,23.28,16.12,22.82,16.12,24Z"/><path class="cls-5" d="M40,6a1,1,0,0,1-.71-1.71l2-2A1,1,0,0,1,42.7,3.71C40.53,5.89,40.54,6,40,6Z"/><path class="cls-5" d="M36,4V2a1,1,0,0,1,2,0V4A1,1,0,0,1,36,4Z"/><path class="cls-4" d="M43,9c-3.59,0-2,.37-2-2h2A1,1,0,0,1,43,9Z"/><path class="cls-4" d="M40.79,13.21C38.24,10.66,38.86,11.55,40,10c.57,0,.67.25,2.21,1.79A1,1,0,0,1,40.79,13.21Z"/><path class="cls-4" d="M37.79,16.21c-1.53-1.53-1.74-1.62-1.74-2.14,1.4-1.43,1-1.48,3.16.72A1,1,0,0,1,37.79,16.21Z"/><path class="cls-4" d="M34.79,19.21c-1.54-1.54-1.72-1.6-1.72-2.13,1.38-1.39.92-1.51,3.14.71A1,1,0,0,1,34.79,19.21Z"/><path class="cls-4" d="M31.79,22.21c-1.55-1.55-1.7-1.59-1.7-2.12,1.35-1.37.92-1.5,3.12.7A1,1,0,0,1,31.79,22.21Z"/><path class="cls-4" d="M28.79,25.21C26.6,23,26.74,23.48,28.1,22.1c.6,0,.82.4,2.11,1.69A1,1,0,0,1,28.79,25.21Z"/><path class="cls-5" d="M34,6c-.58,0-.76-.34-2.21-1.79a1,1,0,0,1,1.42-1.42l1.5,1.5A1,1,0,0,1,34,6Z"/><path class="cls-5" d="M31,9c-.58,0-.76-.34-2.21-1.79a1,1,0,0,1,1.42-1.42l1.5,1.5A1,1,0,0,1,31,9Z"/><path class="cls-5" d="M28,12c-.58,0-.76-.34-2.21-1.79a1,1,0,0,1,1.42-1.42l1.5,1.5A1,1,0,0,1,28,12Z"/><path class="cls-5" d="M25,15c-.58,0-.76-.34-2.21-1.79a1,1,0,0,1,1.42-1.42l1.5,1.5A1,1,0,0,1,25,15Z"/><path class="cls-5" d="M22,18c-.58,0-.76-.34-2.21-1.79a1,1,0,0,1,1.42-1.42l1.5,1.5A1,1,0,0,1,22,18Z"/></g></svg>