<svg xmlns="http://www.w3.org/2000/svg" viewBox="0 0 48 48"><defs><style>.cls-1{fill:#fc6;}.cls-2{fill:#ffde76;}.cls-3{fill:#df8761;}.cls-4{fill:#f29b75;}.cls-5{fill:#edb996;}.cls-6{fill:#f6ccaf;}.cls-7{fill:#7c7d7d;}.cls-8{fill:#ffdec7;}.cls-9{fill:#747575;}</style></defs><title>Farmer woman</title><g id="Farmer_woman" data-name="Farmer woman"><path class="cls-1" d="M47,44.08V47H1V44.08a10,10,0,0,1,6.67-9.43L18,31l1.44,1.69a6,6,0,0,0,9.12,0L30,31l10.33,3.65A10,10,0,0,1,47,44.08Z"/><path class="cls-2" d="M10,33.83v5.3A4,4,0,0,0,7,43v2c-4.43,0-3.46-6.36-.32-9.72C7.9,34.5,7.26,34.8,10,33.83Z"/><path class="cls-2" d="M28.56,32.69,30,31v8H14V32.41L18,31l1.44,1.69A6,6,0,0,0,28.56,32.69Z"/><path class="cls-2" d="M47,44.08V45H37V43a4,4,0,0,0-3-3.87V32.41l6.33,2.24A10,10,0,0,1,47,44.08Z"/><path class="cls-3" d="M39,43v4H9V43a4,4,0,0,1,3-3.87v-6l4-1.41V39H32V31.71l4,1.41v6A4,4,0,0,1,39,43Z"/><path class="cls-4" d="M36,39.13v-6l-4-1.41V39H16V31.71l-3,1.06V41a4,4,0,0,0,4,4H39V43A4,4,0,0,0,36,39.13Z"/><path class="cls-5" d="M30,27.29V31l-1.44,1.69a6,6,0,0,1-9.12,0L18,31V27.29A8,8,0,0,0,30,27.29Z"/><path class="cls-6" d="M28.56,32.69a6,6,0,0,1-7.93,1.05L20,33a2.11,2.11,0,0,1,3-1.89A7.51,7.51,0,0,0,26,32C29.77,32,31.48,29.26,28.56,32.69Z"/><path class="cls-7" d="M18,27.29V31c-6.57,2.33-6,2.16-6.05,2.06a7.14,7.14,0,0,1-.75-8.86l2.2-3.29A9.51,9.51,0,0,0,16,21C16,23.1,16.1,25.13,18,27.29Z"/><path class="cls-6" d="M32,17c0,4.69.48,7.47-2,10.29a8,8,0,0,1-12,0c-2.5-2.84-2-5.61-2-10.29Z"/><path class="cls-8" d="M32,19c0,3.1.53,7.34-4,9.94C19.77,30,16.52,19,21,19Z"/><path class="cls-6" d="M36,19a2,2,0,0,1-2,2H32V17h2A2,2,0,0,1,36,19Z"/><path class="cls-6" d="M16,17v4c-1.7,0-2.68.18-3.41-.59A2,2,0,0,1,14,17Z"/><path class="cls-9" d="M16,21H14c-.84,0-.35-.46-1.33,1a1.58,1.58,0,0,1,1.56,1.28C15,26.89,16,28.19,16,31.55c0,.22-.3.27,2-.55V27.29C16.19,25.23,16,23.32,16,21Z"/><path class="cls-3" d="M38,17H10a4,4,0,0,1,4-4H34A4,4,0,0,1,38,17Z"/><path class="cls-4" d="M37.46,15H14.38a1.13,1.13,0,0,1-1.06-1.55c.27-.65-1-.45,20.68-.45A4,4,0,0,1,37.46,15Z"/><path class="cls-3" d="M34,11v2H14V11a10,10,0,0,1,20,0Z"/><path class="cls-4" d="M34,11H19.25a2,2,0,0,1-2-2.4,10,10,0,0,1,8.19-7.48h0A10,10,0,0,1,34,11Z"/></g></svg>