<svg xmlns="http://www.w3.org/2000/svg" viewBox="0 0 48 48"><defs><style>.cls-1{fill:#cc734c;}.cls-2{fill:#df8761;}.cls-3{fill:#9dcc6b;}.cls-4{fill:#b5e08c;}.cls-5{fill:#a87e6b;}.cls-6{fill:#fc6;}.cls-7{fill:#ffde76;}.cls-8{fill:#db5669;}.cls-9{fill:#f26674;}.cls-10{fill:#f29b75;}</style></defs><title>Fruit basket</title><g id="Fruit_basket" data-name="Fruit basket"><rect class="cls-1" x="1" y="23" width="46" height="6" rx="1"/><path class="cls-2" d="M47,24v2H7a3,3,0,0,1-3-3H46A1,1,0,0,1,47,24Z"/><path class="cls-3" d="M20.08,17.25A8.94,8.94,0,0,0,18,23H2.41c1.43-5.1,4.9-4.82,4.6-9.63A6,6,0,1,1,19,13,7.17,7.17,0,0,0,20.08,17.25Z"/><path class="cls-4" d="M19.43,15.93A9,9,0,0,0,16.23,21h-7a1.57,1.57,0,0,1-1.17-2.64A6.43,6.43,0,0,0,10,13.43a6,6,0,0,1,4.48-6.24A6,6,0,0,1,19,13.24,6.79,6.79,0,0,0,19.43,15.93Z"/><path class="cls-5" d="M12,7V5.41c0-1.75,1.48-4.35,2.71-3.12a1,1,0,0,1,0,1.42c-.91.9-.71,2-.71,3.29A1,1,0,0,1,12,7Z"/><path class="cls-6" d="M29.94,23H18a9,9,0,0,1,12.17-8.42A9,9,0,0,0,29.94,23Z"/><path class="cls-7" d="M27.22,21h-4a2,2,0,0,1-1.68-3.1c1.89-2.72,5.27-4.08,6.87-3.78A9,9,0,0,0,27.22,21Z"/><path class="cls-5" d="M26,16c0-2.29.07-4.48,2.29-6.71a1,1,0,0,1,1.42,1.42C27.91,12.5,28,14.36,28,16A1,1,0,0,1,26,16Z"/><path class="cls-8" d="M46.06,23H29.94a9,9,0,1,1,16.12,0Z"/><path class="cls-9" d="M46.78,21H34c-4.07,0-1.86-9.66,5.51-10.87A9,9,0,0,1,46.78,21Z"/><path class="cls-5" d="M37,12c0-2.29.07-4.48,2.29-6.71a1,1,0,0,1,1.42,1.42C38.91,8.5,39,10.36,39,12A1,1,0,0,1,37,12Z"/><path class="cls-1" d="M46,29c-4.43,14.18-4.16,13.46-4.46,14a4,4,0,0,1-3.48,2H9.94a4,4,0,0,1-3.82-2.81L2,29Z"/><path class="cls-2" d="M46,29c-4.43,14.18-4.16,13.46-4.46,14-.37.05-9.61,0-28.6,0a4,4,0,0,1-3.82-2.81L5.62,29Z"/><path class="cls-10" d="M12,35H8a1,1,0,0,1,0-2h4A1,1,0,0,1,12,35Z"/><path class="cls-10" d="M15,35V33a1,1,0,0,1,2,0v2A1,1,0,0,1,15,35Z"/><path class="cls-10" d="M11,41V39a1,1,0,0,1,2,0v2A1,1,0,0,1,11,41Z"/><path class="cls-10" d="M28,35H20a1,1,0,0,1,0-2h8A1,1,0,0,1,28,35Z"/><path class="cls-10" d="M31,35V33a1,1,0,0,1,2,0v2A1,1,0,0,1,31,35Z"/><path class="cls-10" d="M40,35H36a1,1,0,0,1,0-2h4A1,1,0,0,1,40,35Z"/><path class="cls-10" d="M36,41H32a1,1,0,0,1,0-2h4A1,1,0,0,1,36,41Z"/><path class="cls-10" d="M24,41H16a1,1,0,0,1,0-2h8A1,1,0,0,1,24,41Z"/><path class="cls-10" d="M27,41V39a1,1,0,0,1,2,0v2A1,1,0,0,1,27,41Z"/></g></svg>