<svg xmlns="http://www.w3.org/2000/svg" viewBox="0 0 48 48"><defs><style>.cls-1{fill:#fc6;}.cls-2{fill:#edebf2;}.cls-3{fill:#dad7e5;}.cls-4{fill:#db5669;}.cls-5{fill:#f26674;}.cls-6{fill:#ffde76;}</style></defs><title>Cock</title><g id="Cock"><path class="cls-1" d="M27,46V41a1,1,0,0,1,2,0v5A1,1,0,0,1,27,46Z"/><path class="cls-2" d="M42,9V19H34V9a4,4,0,0,1,8,0Z"/><path class="cls-3" d="M42,19v4a14,14,0,1,1-28,0V19Z"/><path class="cls-2" d="M42,19v4a14,14,0,0,1-4.81,10.56A13.3,13.3,0,0,1,33,34.86,14,14,0,0,1,17,21V19Z"/><path class="cls-4" d="M14,19a5,5,0,0,0-3.54,1.46c-2.67,2.7-.14,5.52-3.8,9.2A8,8,0,0,1,1,32V18.5a6.51,6.51,0,0,1,1.9-4.6C6.85,10,14,12.29,14,19Z"/><path class="cls-5" d="M14,19a5,5,0,0,0-3.54,1.46c-2.67,2.7-.14,5.52-3.8,9.2A8.12,8.12,0,0,1,4,31.42V18.5a6.48,6.48,0,0,1,5-6.32C11.8,12.83,14,15.19,14,19Z"/><path class="cls-3" d="M34,19v5a8,8,0,0,1-16,0V23a1,1,0,0,1,1-1h6a1,1,0,0,1,0,2H20a6,6,0,0,0,.35,2H25a1,1,0,0,1,0,2H21.54A6,6,0,0,0,32,24V19Z"/><path class="cls-1" d="M30,36.86V41H26V36.86A14.48,14.48,0,0,0,30,36.86Z"/><path class="cls-6" d="M30,36.86V40a2,2,0,0,1-2-2V37A14.6,14.6,0,0,0,30,36.86Z"/><path class="cls-4" d="M41.74,7.6a4,4,0,0,0-7.48,0A5.87,5.87,0,0,0,34,10a5,5,0,1,1,7.74-2.4Z"/><polygon class="cls-6" points="47 12 42 15 42 9 47 12"/><rect class="cls-3" x="34" y="17" width="8" height="2"/><path class="cls-5" d="M41.74,7.6a4,4,0,0,0-7.48,0C33.1,4.2,36,1.1,38,1.1A5,5,0,0,1,41.74,7.6Z"/></g></svg>