<svg xmlns="http://www.w3.org/2000/svg" viewBox="0 0 48 48"><defs><style>.cls-1{fill:#fc6;}.cls-2{fill:#ffde76;}</style></defs><title>Wheat cultivation</title><g id="Wheat_cultivation" data-name="Wheat cultivation"><path class="cls-1" d="M2,47a1,1,0,0,1-.71-1.71l28-28a1,1,0,0,1,1.42,1.42C.82,48.59,2.61,47,2,47Z"/><path class="cls-2" d="M27.9,37.07a10,10,0,0,1-14.14,0l-1.42-1.41a10,10,0,0,1,7.08-2.93C23.77,32.73,25.91,35.08,27.9,37.07Z"/><path class="cls-2" d="M15.27,28.58a10,10,0,0,1-2.93,7.08l-1.41-1.42a10,10,0,0,1,0-14.14C12.83,22,15.27,24.1,15.27,28.58Z"/><path class="cls-2" d="M32.14,32.83a10,10,0,0,1-5.65,2.83,10,10,0,0,0-14.15,0,10,10,0,0,0,0-14.15,10,10,0,0,1,2.83-5.65l1.42,1.41h0a10,10,0,0,1,0,14.13,10,10,0,0,1,14.13,0h0Z"/><path class="cls-2" d="M36.5,15.76a10,10,0,0,0-7.19,2.93,10,10,0,0,0,2.93-7.19A8,8,0,0,1,42,6,8,8,0,0,1,36.5,15.76Z"/><path class="cls-1" d="M27.89,34.24A12,12,0,0,0,17.07,31h0a.06.06,0,0,0,0,0,12,12,0,0,0-3.28-10.82l-.83-.83a10.19,10.19,0,0,0-.59,2.23,10,10,0,0,1,0,14.15,10,10,0,0,1,14.15,0,10.19,10.19,0,0,0,2.23-.59Z"/><path class="cls-2" d="M36.38,28.59a9.91,9.91,0,0,1-5.65,2.82,10,10,0,0,0-14.14,0,10,10,0,0,0,2.92-7.07,9.75,9.75,0,0,0-2.92-7.07,9.91,9.91,0,0,1,2.82-5.65c1.73,1.72,5,4.54,4.24,9.89a9.59,9.59,0,0,1-2.37,5.18c-.58.66-.63.61,0,0A10,10,0,0,1,35,27.16Z"/><path class="cls-2" d="M40.63,24.34A10.07,10.07,0,0,1,35,27.17a10,10,0,0,0-14.14,0,10,10,0,0,0,0-14.14,10.07,10.07,0,0,1,2.83-5.66l1.41,1.42h0a10,10,0,0,1,.45,13.65c-.59.67-.64.62,0,0a10,10,0,0,1,13.65.45h0Z"/><path class="cls-1" d="M33,30.82a10.09,10.09,0,0,1-2.25.59,10,10,0,0,0-14.13,0,10,10,0,0,0,0-14.13A9.62,9.62,0,0,1,17.18,15l.95,1A12,12,0,0,1,21.4,26c0,.1-.13.71-.13.75s.63-.13.76-.13a12,12,0,0,1,10,3.27Z"/><path class="cls-1" d="M37.2,26.58a9.08,9.08,0,0,1-2.24.58,10,10,0,0,0-14.13,0,10,10,0,0,0,0-14.13,9.25,9.25,0,0,1,.58-2.24c3.19,3.15,4.87,6.44,4.22,11-.08.6-.12.58-.12.68a2.9,2.9,0,0,1,.68-.12C30.8,21.7,34,23.4,37.2,26.58Z"/><path class="cls-1" d="M39.47,14.16a7,7,0,0,1-3.09,1.6,10,10,0,0,0-7.07,2.93,10,10,0,0,0,2.93-7.07,7.14,7.14,0,0,1,1.6-3.09,12.08,12.08,0,0,1,.4,3.09,2,2,0,0,0,2.06,2.14A12.24,12.24,0,0,1,39.47,14.16Z"/><path class="cls-2" d="M44.87,20.1a10.07,10.07,0,0,1-5.66,2.83c0-.26-2.88-2.93-7.07-2.93a10,10,0,0,0-7.07,2.93A10,10,0,0,0,28,15.86a10.11,10.11,0,0,0-2.93-7.07A10.07,10.07,0,0,1,27.9,3.13C29.75,5,32.19,7.07,32.24,11.5a10,10,0,0,1-2.47,6.71c-.61.65-.63.63,0,0a10,10,0,0,1,6.71-2.47C40.8,15.81,42.91,18.14,44.87,20.1Z"/><path class="cls-1" d="M39.21,22.93c0-.26-2.88-2.93-7.07-2.93a10,10,0,0,0-7.07,2.93A10,10,0,0,0,28,15.86a10.11,10.11,0,0,0-2.93-7.07,9.76,9.76,0,0,1,.6-2.24c.87.88.82.82.83.83A11.94,11.94,0,0,1,30,15.86c0,3.4-1.28,2.14,2.14,2.14,3.58,0,7.12,1.78,8.6,3.63l.71.7A9.76,9.76,0,0,1,39.21,22.93Z"/><path class="cls-2" d="M28.76,4.62A1,1,0,0,1,28,2.92l1.59-1.61A1,1,0,0,1,31.06,2.7C29.37,4.43,29.3,4.62,28.76,4.62Z"/><path class="cls-2" d="M44.18,20.37a1,1,0,0,1-.7-1.71l1.82-1.79a1,1,0,0,1,1.4,1.43C44.74,20.23,44.72,20.37,44.18,20.37Z"/><path class="cls-2" d="M41,8a1,1,0,0,1-.71-1.71l5-5a1,1,0,0,1,1.42,1.42C41.42,8,41.63,8,41,8Z"/></g></svg>