<svg xmlns="http://www.w3.org/2000/svg" viewBox="0 0 48 48"><defs><style>.cls-1{fill:#7c7d7d;}.cls-2{fill:#f16f39;}.cls-3{fill:#f8834b;}.cls-4{fill:#ef6833;}.cls-5{fill:#747575;}.cls-6{fill:#ffba55;}.cls-7{fill:#dad7e5;}.cls-8{fill:#edebf2;}.cls-9{fill:#fc6;}</style></defs><title>Honeycomb</title><g id="Honeycomb"><path class="cls-1" d="M32,7V4a1,1,0,0,0-1-1,1,1,0,0,1-1-1c0-1.91,4-1,4,2V7A1,1,0,0,1,32,7Z"/><path class="cls-1" d="M36,7V4c0-3,4-3.92,4-2a1,1,0,0,1-1,1,1,1,0,0,0-1,1V7A1,1,0,0,1,36,7Z"/><polygon class="cls-2" points="16 16 13 22 5 22 2 16 5 10 13 10 16 16"/><polygon class="cls-3" points="14 19 12.5 22 5 22 2 16 3.5 13 11 13 14 19"/><polygon class="cls-2" points="27 10 24 16 16 16 13 10 16 4 24 4 27 10"/><polygon class="cls-3" points="25 13 23.5 16 16 16 13 10 14.5 7 22 7 25 13"/><polygon class="cls-2" points="16 28 13 34 5 34 2 28 5 22 13 22 16 28"/><polygon class="cls-3" points="14 31 12.5 34 5 34 2 28 3.5 25 11 25 14 31"/><polygon class="cls-4" points="16 40 13 46 5 46 2 40 5 34 13 34 16 40"/><polygon class="cls-3" points="14 43 12.5 46 5 46 2 40 3.5 37 11 37 14 43"/><path class="cls-3" d="M27,16a3.43,3.43,0,0,1-2.28-.44L25,15A3.43,3.43,0,0,0,27,16Z"/><path class="cls-3" d="M31.51,13.49A10.09,10.09,0,0,0,31.16,15C29.82,15,29.7,15.3,31.51,13.49Z"/><polygon class="cls-2" points="27 22 24 28 16 28 13 22 16 16 24 16 27 22"/><polygon class="cls-3" points="25 25 23.5 28 16 28 13 22 14.5 19 22 19 25 25"/><polygon class="cls-4" points="27 34 24 40 16 40 13 34 16 28 24 28 27 34"/><polygon class="cls-3" points="25 37 23.5 40 16 40 13 34 14.5 31 22 31 25 37"/><polygon class="cls-4" points="38 28 35 34 27 34 24 28 27 22 35 22 38 28"/><path class="cls-3" d="M36,31l-1.5,3H27l-3-6,1.5-3H33v2a1,1,0,0,0,1.45.89Z"/><path class="cls-3" d="M31.69,22H27l-3-6c1.27-2.53.13-1,2.5-1,1.86,0,2.61-1.11,4-2.51A11.59,11.59,0,0,0,31.69,22Z"/><path class="cls-4" d="M36.11,29.55,34.38,33H27.62l-2.5-5,2.5-5h5.07a1,1,0,0,0,0-2H27.62l-2.5-5,.79-1.59a1,1,0,0,0-1.78-.9L23.38,15H16.62l-2.5-5,2.5-5h6.76l1.87,3.73A1,1,0,0,0,27,7.83L24.89,3.55C24.52,2.81,24.74,3,16,3c-.83,0-.69.14-3.62,6-8,0-7.9-.2-8.27.55-3.18,6.34-3.32,6.28-3,6.9L3.88,22,1.11,27.55c-.3.6-.27.37,2.77,6.45-3,6-3.08,5.84-2.77,6.45C4.34,46.91,4.17,47,5,47c8.62,0,8.52.2,8.89-.55L16.62,41H24c.83,0,.69-.14,3.62-6,8,0,7.9.2,8.27-.55l2-4A1,1,0,0,0,36.11,29.55ZM25.88,22l-2.5,5H16.62l-2.5-5,2.5-5h6.76ZM5.62,11h6.76l2.5,5-2.5,5H5.62l-2.5-5Zm0,12h6.76l2.5,5-2.5,5H5.62l-2.5-5Zm6.76,22H5.62l-2.5-5,2.5-5h6.76l2.5,5Zm11-6H16.62l-2.5-5,2.5-5h6.76l2.5,5Z"/><path class="cls-5" d="M37.23,9H32.77a3,3,0,1,1,4.46,0Z"/><path class="cls-1" d="M37.83,8H36.11c-2,0-2.87-2.26-1.35-4h0A3,3,0,0,1,37.83,8Z"/><path class="cls-6" d="M39.84,15c-10.6,0-9.74.09-9.64-.2a9,9,0,0,1,.31-1.31L35,9l4.49,4.49A10.09,10.09,0,0,1,39.84,15Z"/><path class="cls-5" d="M39.84,19H30.16a12.78,12.78,0,0,1,0-4h9.68A12.78,12.78,0,0,1,39.84,19Z"/><path class="cls-4" d="M35.81,24.62c-2.74,3-6.74,1-7.65-4.62a12.22,12.22,0,0,1,.09-4.44,11.24,11.24,0,0,0,2.26-2.07A11.61,11.61,0,0,0,31.69,23H35Z"/><path class="cls-6" d="M39.84,19c-1.29,8.11-8.43,7.87-9.68,0Z"/><path class="cls-7" d="M35,9c-6.2,6.2-6.53,7-8.45,7a3.5,3.5,0,0,1-1.41-6.72C26.08,8.88,25.87,9,35,9Z"/><path class="cls-8" d="M35,9c-6.58,6.58-6.22,6.32-7,6.67a3.27,3.27,0,0,1-1-.7A3.5,3.5,0,0,1,29.5,9Z"/><path class="cls-8" d="M47,12.5A3.54,3.54,0,0,1,41,15L35,9h8.5A3.5,3.5,0,0,1,47,12.5Z"/><path class="cls-5" d="M36,25v2a1,1,0,0,1-2,0V25c0-.35,0,0,1,0S36,24.65,36,25Z"/><path class="cls-9" d="M39,15H32a11.86,11.86,0,0,1,.51-3.51L34,10Z"/><path class="cls-9" d="M39.84,19a10,10,0,0,1-1.27,3.6c-2.58,1.34-4.9-.82-5.9-3.6Z"/><path class="cls-1" d="M40,17a11.83,11.83,0,0,1-.16,2H32.67A11.73,11.73,0,0,1,32,15h7C40,16,40,15,40,17Z"/></g></svg>