<svg xmlns="http://www.w3.org/2000/svg" viewBox="0 0 48 48"><defs><style>.cls-1{fill:#dad7e5;}.cls-2{fill:#edebf2;}.cls-3{fill:#919191;}.cls-4{fill:#db5669;}.cls-5{fill:#f26674;}.cls-6{fill:#9dcc6b;}.cls-7{fill:#b5e08c;}.cls-8{fill:#a87e6b;}</style></defs><title>Apple and ruler</title><g id="Apple_and_ruler" data-name="Apple and ruler"><polygon class="cls-1" points="47 37 47 47 1 47 1 1 11 1 11 37 47 37"/><path class="cls-2" d="M47,37v8H12a8,8,0,0,1-8-8V1h7V37Z"/><path class="cls-1" d="M8.71,40.71,2.42,47H1V45.58l6.29-6.29A1,1,0,0,1,8.71,40.71Z"/><path class="cls-3" d="M11,5V7H7A1,1,0,0,1,7,5Z"/><path class="cls-3" d="M11,12H7a1,1,0,0,1,0-2h4Z"/><path class="cls-3" d="M11,17H7a1,1,0,0,1,0-2h4Z"/><path class="cls-3" d="M11,20v2H7a1,1,0,0,1,0-2Z"/><path class="cls-3" d="M11,25v2H7a1,1,0,0,1,0-2Z"/><path class="cls-3" d="M11,30v2H7a1,1,0,0,1,0-2Z"/><path class="cls-3" d="M43,37v4a1,1,0,0,1-2,0V37Z"/><path class="cls-3" d="M38,37v4a1,1,0,0,1-2,0V37Z"/><path class="cls-3" d="M33,37v4a1,1,0,0,1-2,0V37Z"/><path class="cls-3" d="M28,37v4a1,1,0,0,1-2,0V37Z"/><path class="cls-3" d="M23,37v4a1,1,0,0,1-2,0V37Z"/><path class="cls-3" d="M18,37v4a1,1,0,0,1-2,0V37Z"/><path class="cls-4" d="M40,20a13.43,13.43,0,0,1-8.46,12.38c-1.61.57-2.3-.18-3.54-.18-1.05,0-1.26.38-2.35.38C22.3,32.58,16,27.34,16,20a10.51,10.51,0,0,1,6.1-9.7,5,5,0,0,1,4-.07c2.07.83,1.92-.11,1.92.77,2,0,3.32.21,4.72-1.07C35.41,10.37,40,14,40,20Z"/><path class="cls-5" d="M35.49,30c-2.73,1.23-2.81.21-4.49.21-1.05,0-1.26.38-2.35.38C25.3,30.58,19,25.34,19,18a10.38,10.38,0,0,1,3.3-7.78c2.54-1.1,3.61.39,5.7.39V13h2a4,4,0,0,0,3.79-2.74l.17.07C41.83,14.19,41.66,24.41,35.49,30Z"/><path class="cls-6" d="M34,5c0,2,.24,3.53-1.28,4.93S30,11,28,11V9a4,4,0,0,1,4-4Z"/><path class="cls-7" d="M34,5c0,1.32.11,2.65-1.28,3.93S30,10,28,10V9a4,4,0,0,1,4-4Z"/><path class="cls-8" d="M27,14C27,5.65,26.4,3.19,29.29.29a1,1,0,0,1,1.42,1.42C28.55,3.86,29,5.32,29,14A1,1,0,0,1,27,14Z"/><path class="cls-4" d="M30,15H26a1,1,0,0,1,0-2h4A1,1,0,0,1,30,15Z"/></g></svg>