<svg xmlns="http://www.w3.org/2000/svg" viewBox="0 0 48 48"><defs><style>.cls-1{fill:#f6ccaf;}.cls-2{fill:#ffdec7;}.cls-3{fill:#9dcc6b;}.cls-4{fill:#b5e08c;}.cls-5{fill:#df8761;}.cls-6{fill:#be927c;}.cls-7{fill:#a07765;}</style></defs><title>Growing Tree</title><g id="Growing_Tree" data-name="Growing Tree"><path class="cls-1" d="M47,28.74c0,1.68.24,1-12.68,13.92A8,8,0,0,1,28.67,45H11V33.48A14.41,14.41,0,0,1,19.1,31c12,0,12.19-.31,13.37.88a3,3,0,0,1,.78,2.88l8.53-8A3,3,0,0,1,47,28.74Z"/><path class="cls-2" d="M46.59,27.24c-.26.48.55-.4-12.27,12.42A8,8,0,0,1,28.67,42H11V33.48a14.11,14.11,0,0,1,6.24-2.35C18.66,30.9,30.55,31,30.75,31a3,3,0,0,1,2.5,3.72c4.45-4.18-6.51,6.13,8.53-8A3,3,0,0,1,46.59,27.24Z"/><path class="cls-2" d="M43.84,25.77c-1.48.1-1.67.59-7.06,5.66A5.78,5.78,0,0,0,35,28.52c3.85-3.85,4.26-4.59,5.76-4.74a2.79,2.79,0,0,1,1.91.45A3,3,0,0,1,43.84,25.77Z"/><path class="cls-2" d="M40.74,23.78c-1.5.15-1.84.82-5.76,4.74a6,6,0,0,0-3.06-1.44c-.05-.33-.44.18,3.86-4.12A3,3,0,0,1,40.74,23.78Z"/><path class="cls-1" d="M43.84,25.77c-1.48.1-1.67.59-7.06,5.66a5.56,5.56,0,0,0-.57-1.4c4.71-4.44,5.24-5.39,7-5.26A2.82,2.82,0,0,1,43.84,25.77Z"/><path class="cls-1" d="M40.74,23.78c-1.5.15-1.84.82-5.76,4.74-.5-.44-.71-.49-1-.78,3.37-3.37,4.47-5,6.26-4.75A2.77,2.77,0,0,1,40.74,23.78Z"/><rect class="cls-3" x="1" y="30" width="10" height="17" rx="2"/><path class="cls-4" d="M11,32c0,13.72-.1,13,0,13a7,7,0,0,1-7-7V30H9A2,2,0,0,1,11,32Z"/><path class="cls-3" d="M41,1V3a8,8,0,0,1-8,8H29V9a8,8,0,0,1,8-8Z"/><path class="cls-4" d="M41,1a8,8,0,0,1-8,8H29a8,8,0,0,1,8-8Z"/><path class="cls-3" d="M23,12v2H19a8,8,0,0,1-8-8V4h4A8,8,0,0,1,23,12Z"/><path class="cls-4" d="M23,12H19a8,8,0,0,1-8-8h4A8,8,0,0,1,23,12Z"/><path class="cls-5" d="M34.45,6.17l-7.45,5V2a1,1,0,0,0-2,0V14.13l-7.45-5a1,1,0,0,0-1.1,1.66L25,16.54V22a1,1,0,0,0,2,0V13.54l8.55-5.71A1,1,0,0,0,34.45,6.17Z"/><path class="cls-6" d="M33.25,34.76a3,3,0,0,0-.78-2.88C31.31,30.72,31.31,31,19.1,31a14.27,14.27,0,0,0-3.92.54,6,6,0,0,1,4.9-4.46,6,6,0,0,1,11.84,0,6,6,0,0,1,4.86,4.35Z"/><path class="cls-7" d="M33.25,34.76a3,3,0,0,0-.78-2.88C31.31,30.72,31.31,31,19.1,31a14.27,14.27,0,0,0-3.92.54,5.91,5.91,0,0,1,1.13-2.27c1.85-.36,1.87-.27,14-.27a3,3,0,0,1,2.9,3.76L36.19,30a5.52,5.52,0,0,1,.59,1.44Z"/><path class="cls-1" d="M34.22,34a0,0,0,0,1,0,0s0,0,0,0A4,4,0,0,1,30.35,37H21.6a1,1,0,0,1,0-2h8.75a2,2,0,0,0,1.93-1.49h0A2,2,0,0,0,30.75,31a3,3,0,0,1,2.5,3.72C34.59,33.5,34.22,33.79,34.22,34Z"/></g></svg>