<svg xmlns="http://www.w3.org/2000/svg" viewBox="0 0 48 48"><defs><style>.cls-1{fill:#374f68;}.cls-2{fill:#b2e5fb;}.cls-3{fill:#9fdbf3;}.cls-4{fill:#9dcc6b;}.cls-5{fill:#b5e08c;}.cls-6{fill:#a87e6b;}.cls-7{fill:#fc6;}.cls-8{fill:#ffde76;}.cls-9{fill:#f26674;}.cls-10{fill:#db5669;}.cls-11{fill:#6fabe6;}.cls-12{fill:#82bcf4;}.cls-13{fill:#8bd1ea;}.cls-14{fill:#425b72;}</style></defs><title>Greenhouse with flowers</title><g id="Greenhouse_with_flowers" data-name="Greenhouse with flowers"><path class="cls-1" d="M8,10c-1,0-.83-.32-2.95-6.68A1,1,0,0,1,7,2.68l2,6A1,1,0,0,1,8,10Z"/><path class="cls-2" d="M19,4H4A1,1,0,0,1,4,2H19A1,1,0,0,1,19,4Z"/><path class="cls-3" d="M41,43H7c0-24.22-.07-21.89.12-23a16.66,16.66,0,0,1,9-13.08C28,1.21,39.62,9.14,40.88,20,41.05,21,41,18.18,41,43Z"/><path class="cls-2" d="M41,41c-9.27,0-10.78.18-14.19-.7A6,6,0,0,0,30,35c-2.46,0-5.05-.25-7,2.72V31h.51A2.5,2.5,0,0,0,26,28.51a5.41,5.41,0,0,0-.92-2.43,5.42,5.42,0,0,0,2.43.92A2.48,2.48,0,0,0,30,24.51v-3A2.5,2.5,0,0,0,27.51,19a5.41,5.41,0,0,0-2.43.92A5.42,5.42,0,0,0,26,17.49,2.48,2.48,0,0,0,23.51,15h-3A2.5,2.5,0,0,0,18,17.49a5.41,5.41,0,0,0,.92,2.43A5.42,5.42,0,0,0,16.49,19,2.48,2.48,0,0,0,14,21.49v3A2.5,2.5,0,0,0,16.49,27a5.41,5.41,0,0,0,2.43-.92A5.42,5.42,0,0,0,18,28.51,2.48,2.48,0,0,0,20.49,31H21v6.89c-8.59-5.08-14-16.59-8.95-26A16.75,16.75,0,0,1,24,7,17,17,0,0,1,40.9,22.17C41,23.31,41,19.32,41,41Z"/><path class="cls-4" d="M32,33a6,6,0,0,1-6,6H24a6,6,0,0,1,6-6Z"/><path class="cls-5" d="M31.65,33A6,6,0,0,1,26,37H24.35A6,6,0,0,1,30,33Z"/><path class="cls-6" d="M23,43V29a1,1,0,0,1,2,0V43A1,1,0,0,1,23,43Z"/><path class="cls-7" d="M26,21a2,2,0,1,1-3.71-1A2,2,0,0,1,26,21Z"/><path class="cls-8" d="M24.52,22.93a1.54,1.54,0,0,1-.56-.22,2,2,0,0,1,.54-3.64A2,2,0,0,1,24.52,22.93Z"/><path class="cls-9" d="M28,15.49c0,1.16-1.53,3.61-2.29,4.47a2,2,0,0,0-3.42,0c-.76-.87-2.29-3.32-2.29-4.47A2.5,2.5,0,0,1,22.49,13h3A2.48,2.48,0,0,1,28,15.49Z"/><path class="cls-10" d="M22,15.49A2.5,2.5,0,0,1,24.49,13c-1.85,0-2.84-.19-3.76.73a2.5,2.5,0,0,0-.52,2.77A14.8,14.8,0,0,0,22.29,20a2.06,2.06,0,0,1,1.31-.91C23.1,18.3,22,16.47,22,15.49Z"/><path class="cls-9" d="M28,26.51A2.5,2.5,0,0,1,25.51,29h-3A2.48,2.48,0,0,1,20,26.51c0-1.16,1.53-3.61,2.29-4.47a2,2,0,0,0,3.42,0C26.47,22.9,28,25.36,28,26.51Z"/><path class="cls-10" d="M22,26.51a5.41,5.41,0,0,1,.92-2.43c.89-1.66.88-.87,0-1.37a2.14,2.14,0,0,1-.67-.67c-.76.87-2.29,3.32-2.29,4.47A2.48,2.48,0,0,0,22.49,29h2A2.48,2.48,0,0,1,22,26.51Z"/><path class="cls-9" d="M22.29,22a11.2,11.2,0,0,0-1.37,2,5.42,5.42,0,0,1-2.43.92A2.5,2.5,0,0,1,16,22.51v-3A2.48,2.48,0,0,1,18.49,17a5.41,5.41,0,0,1,2.43.92,11.2,11.2,0,0,0,1.37,2A2,2,0,0,0,22.29,22Z"/><path class="cls-10" d="M18,19.49a2.47,2.47,0,0,1,1.49-2.28A2.49,2.49,0,0,0,16,19.49v3a2.5,2.5,0,0,0,3.5,2.28C17.62,24,18,22.24,18,19.49Z"/><path class="cls-9" d="M32,19.49v3A2.48,2.48,0,0,1,29.51,25a5.41,5.41,0,0,1-2.43-.92,11.2,11.2,0,0,0-1.37-2,2,2,0,0,0,0-2.08,11.2,11.2,0,0,0,1.37-2A5.42,5.42,0,0,1,29.51,17,2.5,2.5,0,0,1,32,19.49Z"/><path class="cls-11" d="M44.89,19.83a2,2,0,0,1-4,.34,17,17,0,0,0-33.8,0c-.35,2.78-4.34,2.12-4-.34a21,21,0,0,1,41.78,0Z"/><path class="cls-12" d="M8.45,7.9C21.08-3.49,41.62,4.15,43.39,21.33a1.84,1.84,0,0,1,0,.62,2,2,0,0,0,1.55-2.12C43,1.85,20.64-5.55,8.45,7.9Z"/><path class="cls-13" d="M12,22H7V20.62c.3-.84-.74-.62,5-.62A1,1,0,0,1,12,22Z"/><path class="cls-1" d="M44,45a2,2,0,0,1-2,2H6a2,2,0,0,1-1.41-3.41C5.42,42.74,3,43,42,43A2,2,0,0,1,44,45Z"/><path class="cls-14" d="M44,45H9a2,2,0,0,1-2-2H42A2,2,0,0,1,44,45Z"/><path class="cls-13" d="M17,6.5V13a1,1,0,0,1-2,0V7.58A16.75,16.75,0,0,1,17,6.5Z"/><path class="cls-13" d="M33,7.58V13a1,1,0,0,1-2,0V6.5A16.75,16.75,0,0,1,33,7.58Z"/><path class="cls-13" d="M41,20.62V22H36a1,1,0,0,1,0-2C41.74,20,40.7,19.78,41,20.62Z"/></g></svg>