<svg xmlns="http://www.w3.org/2000/svg" viewBox="0 0 48 48"><defs><style>.cls-1{fill:#7c7d7d;}.cls-2{fill:#919191;}.cls-3{fill:#df8761;}.cls-4{fill:#f29b75;}.cls-5{fill:#fc6;}.cls-6{fill:#ffde76;}.cls-7{fill:#374f68;}.cls-8{fill:#dad7e5;}.cls-9{fill:#edebf2;}</style></defs><title>Wind mill</title><g id="Wind_mill" data-name="Wind mill"><path class="cls-1" d="M39,34.6A2.44,2.44,0,0,1,36.53,37H24V27H20V37H11.47a2.33,2.33,0,0,1-2.08-3.58A39.32,39.32,0,0,0,15.15,21H18V17H16q.09-.53.15-1.05A7.94,7.94,0,0,1,24,9v6h4V10.08C32.32,12.63,31.52,16,32.85,21H30v3a1,1,0,0,0,1,1h3.14C36.62,31.54,38.93,33,39,34.6Z"/><path class="cls-2" d="M38.64,35.92l-.15.2Z"/><path class="cls-2" d="M38.79,35.62a2.1,2.1,0,0,1-.15.3A2.1,2.1,0,0,0,38.79,35.62Z"/><path class="cls-2" d="M37.9,36.66a1.86,1.86,0,0,0,.41-.33A1.86,1.86,0,0,1,37.9,36.66Z"/><path class="cls-2" d="M38.31,36.33a1.81,1.81,0,0,0,.18-.21A1.81,1.81,0,0,1,38.31,36.33Z"/><path class="cls-2" d="M21,27a1,1,0,0,0-1,1H19a1,1,0,0,0-1,1v6H14.47a2.33,2.33,0,0,1-2.08-3.58A39,39,0,0,0,16.85,23h3.42C21.15,24.46,21,22.18,21,27Z"/><path class="cls-2" d="M21,9.74c0,13.37.24,9.64-.73,11.26H18c0-2.77.36-1.84,1-6C19.35,12.85,19.28,12,21,9.74Z"/><path class="cls-2" d="M32.85,21c-11.76,0-8.23.24-9.85-.73V9.07A6.63,6.63,0,0,1,24,9v6h4V10.08C32.32,12.63,31.52,16,32.85,21Z"/><path class="cls-2" d="M39,34.7c0,.43,1.42.3-15,.3V27H23c0-4.79-.14-2.54.73-4H28v2a1,1,0,0,0,1,1h5.53C37.07,32.09,39,33.07,39,34.7Z"/><path class="cls-2" d="M39,35s0,0,0,.08,0,0,0-.08Z"/><path class="cls-2" d="M39,35.08a2.22,2.22,0,0,1-.09.37A2.22,2.22,0,0,0,39,35.08Z"/><path class="cls-2" d="M38.86,35.45c0,.06,0,.12-.07.17S38.84,35.51,38.86,35.45Z"/><path class="cls-3" d="M37,37V47H11V37h9v3a1,1,0,0,0,1,1h3V37Z"/><path class="cls-4" d="M37,37v7H21a7,7,0,0,1-7-7h4v4a1,1,0,0,0,1,1h3a1,1,0,0,0,1-1h1V37Z"/><rect class="cls-5" x="4" y="17" width="14" height="4"/><path class="cls-6" d="M18,17v3H7a3,3,0,0,1-3-3Z"/><path class="cls-5" d="M23,22H5a1,1,0,0,1,0-2H23A1,1,0,0,1,23,22Z"/><rect class="cls-5" x="24" y="1" width="4" height="14"/><path class="cls-5" d="M23,19V2a1,1,0,0,1,2,0V19A1,1,0,0,1,23,19Z"/><path class="cls-5" d="M44,21v3a1,1,0,0,1-1,1H31a1,1,0,0,1-1-1V21Z"/><path class="cls-5" d="M43,22H26a1,1,0,0,1,0-2H43A1,1,0,0,1,43,22Z"/><path class="cls-5" d="M24,27V41H21a1,1,0,0,1-1-1V28a1,1,0,0,1,1-1Z"/><path class="cls-5" d="M25,23V40a1,1,0,0,1-2,0V23A1,1,0,0,1,25,23Z"/><path class="cls-6" d="M25,23c0,16.82-.1,16,0,16a3,3,0,0,1-3-3V27h1V23A1,1,0,0,1,25,23Z"/><path class="cls-6" d="M26,20H43a1,1,0,0,1,1,1v2H30V22H26A1,1,0,0,1,26,20Z"/><path class="cls-7" d="M46,47H2a1,1,0,0,1,0-2H46A1,1,0,0,1,46,47Z"/><path class="cls-8" d="M26,21a2,2,0,1,1-2.82-1.82A2,2,0,0,1,26,21Z"/><path class="cls-9" d="M25.82,21.82a2,2,0,0,1-2.64-2.64A2,2,0,0,1,25.82,21.82Z"/><path class="cls-6" d="M28,1c0,14.74-.1,14,0,14a3,3,0,0,1-3-3V1Z"/></g></svg>