<svg xmlns="http://www.w3.org/2000/svg" viewBox="0 0 48 48"><defs><style>.cls-1{fill:#374f68;}.cls-2{fill:#9fdbf3;}.cls-3{fill:#b2e5fb;}.cls-4{fill:#84b749;}.cls-5{fill:#9dcc6b;}.cls-6{fill:#919191;}.cls-7{fill:#747575;}.cls-8{fill:#b5e08c;}.cls-9{fill:#ffde76;}.cls-10{fill:#ffba55;}.cls-11{fill:#fc6;}</style></defs><title>Tractor</title><g id="Tractor"><path class="cls-1" d="M38,12c-2.28,0-.65-6,4-6a1,1,0,0,1,0,2,3,3,0,0,0-3,3A1,1,0,0,1,38,12Z"/><path class="cls-2" d="M28,24H11V7H22C23,9.78,21.9,6.71,28,24Z"/><path class="cls-3" d="M26.94,21c-11.26,0-7.26.32-10.63-1A2,2,0,0,1,15,18.13V11a2,2,0,0,1,2-2h5.71Z"/><rect class="cls-4" x="4" y="7" width="7" height="17"/><path class="cls-5" d="M11,9V19a11.69,11.69,0,0,0-1.69.12,2,2,0,0,1-2.31-2V11A2,2,0,0,1,9,9Z"/><path class="cls-6" d="M21,35A10,10,0,1,1,3,29C8.77,21.31,21,25.47,21,35Z"/><path class="cls-7" d="M19,37a9.85,9.85,0,0,1-2,6A10,10,0,0,1,3,29,10,10,0,0,1,19,37Z"/><path class="cls-6" d="M44,39a6,6,0,1,1-6-6A6,6,0,0,1,44,39Z"/><path class="cls-7" d="M42.77,42.63c-4,5.23-12.36,1.07-10.54-5.26C36.18,32.15,44.61,36.26,42.77,42.63Z"/><path class="cls-5" d="M47,27V37a2,2,0,0,1-2,2c-1.81,0-.49.31-1.35-2A6,6,0,0,0,32,39H24.54a14,14,0,0,0-6.21-16H43A4,4,0,0,1,47,27Z"/><path class="cls-8" d="M43,23H18.33A14,14,0,0,1,25,37h7.38a6,6,0,0,1,11.3,0H47V27A4,4,0,0,0,43,23Z"/><path class="cls-5" d="M25,5a2,2,0,0,1-2,2H3A2,2,0,0,1,3,3H23A2,2,0,0,1,25,5Z"/><path class="cls-8" d="M25,5a2,2,0,0,1-2,2H7A2,2,0,0,1,7,3H23A2,2,0,0,1,25,5Z"/><rect class="cls-7" x="36" y="11" width="4" height="12"/><path class="cls-6" d="M40,11c0,10.61-.1,10,0,10a2,2,0,0,1-2-2V11Z"/><path class="cls-9" d="M47,27v1H42a2,2,0,0,1-2-2V23h3A4,4,0,0,1,47,27Z"/><path class="cls-5" d="M34,28H32a1,1,0,0,1,0-2h2A1,1,0,0,1,34,28Z"/><path class="cls-5" d="M34,32H32a1,1,0,0,1,0-2h2A1,1,0,0,1,34,32Z"/><path class="cls-10" d="M40,39a2,2,0,1,1-3.82-.82A2,2,0,0,1,40,39Z"/><path class="cls-11" d="M38.82,40.82a2,2,0,0,1-2.64-2.64A2,2,0,0,1,38.82,40.82Z"/><path class="cls-10" d="M14,35a3,3,0,1,1-5.56-1.56A3,3,0,0,1,14,35Z"/><path class="cls-11" d="M12.56,37.56a3,3,0,0,1-4.12-4.12A3,3,0,0,1,12.56,37.56Z"/><path class="cls-4" d="M24.54,39H20.16A10,10,0,0,0,2.9,29.14C3,24.27,3,25.47,3,23.6,13.65,16,28.39,26.14,24.54,39Z"/><path class="cls-4" d="M24.54,39H20.16A10,10,0,0,0,2.9,29.14C3,24.27,3,25.47,3,23.6,13.65,16,28.39,26.14,24.54,39Z"/><path class="cls-5" d="M23.58,38.71A13,13,0,0,0,11.12,22c-3.58,0-5.92,1.43-8.4,4a1,1,0,0,1-1.44-1.38C12.43,13,29.69,25.27,25.5,39.29A1,1,0,0,1,23.58,38.71Z"/></g></svg>