<svg xmlns="http://www.w3.org/2000/svg" viewBox="0 0 48 48"><defs><style>.cls-1{fill:#7c7d7d;}.cls-2{fill:#919191;}.cls-3{fill:#dad7e5;}.cls-4{fill:#edebf2;}.cls-5{fill:#a87e6b;}.cls-6{fill:#be927c;}.cls-7{fill:#f6ccaf;}.cls-8{fill:#ffdec7;}.cls-9{fill:#edb996;}.cls-10{fill:#c6c3d8;}</style></defs><title>Egg Conveyor</title><g id="Egg_Conveyor" data-name="Egg Conveyor"><path class="cls-1" d="M47,21a6,6,0,0,1-6,6H7A6,6,0,0,1,7,15H41A6,6,0,0,1,47,21Z"/><path class="cls-2" d="M45.67,24.76C44.53,25.1,47.1,25,10,25a6,6,0,0,1-4.67-9.76C6.47,14.9,3.9,15,41,15A6,6,0,0,1,45.67,24.76Z"/><path class="cls-3" d="M9,21a2,2,0,1,1-2.82-1.82A2,2,0,0,1,9,21Z"/><path class="cls-4" d="M8.82,21.82a2,2,0,0,1-2.64-2.64A2,2,0,0,1,8.82,21.82Z"/><path class="cls-3" d="M26,21a2,2,0,1,1-2.82-1.82A2,2,0,0,1,26,21Z"/><path class="cls-4" d="M25.82,21.82a2,2,0,0,1-2.64-2.64A2,2,0,0,1,25.82,21.82Z"/><path class="cls-3" d="M43,21a2,2,0,1,1-2.82-1.82A2,2,0,0,1,43,21Z"/><path class="cls-4" d="M42.82,21.82a2,2,0,0,1-2.64-2.64A2,2,0,0,1,42.82,21.82Z"/><path class="cls-5" d="M39,9c-.71,4.26-.65,3.88-.72,4.33a2,2,0,0,1-2,1.67H11.69a2,2,0,0,1-2-1.67L9,9Z"/><path class="cls-6" d="M39,9l-.67,4H17.06a4.79,4.79,0,0,1-4.73-4Z"/><path class="cls-7" d="M28.9,9H19.1C18.47,6.13,21,1,24,1S29.53,6.12,28.9,9Z"/><path class="cls-8" d="M28.91,7h-5.6a2,2,0,0,1-2-2.33A7.11,7.11,0,0,1,22.5,1.42C25.51-.31,28.38,3.68,28.91,7Z"/><path class="cls-7" d="M19.1,9h-8C10.13,4.58,16-3.58,20,4.28A7.62,7.62,0,0,0,19.1,9Z"/><path class="cls-9" d="M20,4.28A7.62,7.62,0,0,0,19.1,9h-2c-.4-2.11.55-4.72,1.67-6.57A8.7,8.7,0,0,1,20,4.28Z"/><path class="cls-7" d="M36.9,9h-8A7.62,7.62,0,0,0,28,4.28C32-3.58,37.86,4.59,36.9,9Z"/><path class="cls-9" d="M30.92,9h-2A7.62,7.62,0,0,0,28,4.28a8.7,8.7,0,0,1,1.25-1.85A10.11,10.11,0,0,1,30.92,9Z"/><path class="cls-8" d="M36.91,7c-6,0-5.76,0-6,0a11.22,11.22,0,0,0-1.25-3.79,5.44,5.44,0,0,1,.83-1.75C33.51-.31,36.38,3.67,36.91,7Z"/><path class="cls-7" d="M30.92,7a2,2,0,0,1-1.58-2.29c.09-.51.2-1,.33-1.5A11.2,11.2,0,0,1,30.92,7Z"/><rect class="cls-10" x="7" y="27" width="10" height="4"/><path class="cls-3" d="M17,29v2H9a2,2,0,0,1,2-2Z"/><rect class="cls-10" x="31" y="27" width="10" height="4"/><path class="cls-3" d="M41,29v2H33a2,2,0,0,1,2-2Z"/><rect class="cls-10" x="8" y="31" width="8" height="12"/><path class="cls-3" d="M16,33V43H10V38.88A5.88,5.88,0,0,1,16,33Z"/><rect class="cls-10" x="32" y="31" width="8" height="12"/><path class="cls-3" d="M40,33V43H34V39A6,6,0,0,1,40,33Z"/><path class="cls-1" d="M47,45a2,2,0,0,1-2,2H3a2,2,0,0,1-1.41-3.41C2.41,42.75-.85,43,45,43A2,2,0,0,1,47,45Z"/><path class="cls-2" d="M47,45H6a2,2,0,0,1-2-2H45A2,2,0,0,1,47,45Z"/></g></svg>