<svg xmlns="http://www.w3.org/2000/svg" viewBox="0 0 48 48"><defs><style>.cls-1{fill:#f16f39;}.cls-2{fill:#f8834b;}.cls-3{fill:#fc6;}.cls-4{fill:#9dcc6b;}.cls-5{fill:#ffde76;}.cls-6{fill:#b5e08c;}.cls-7{fill:#a87e6b;}</style></defs><title>Field of sunflower</title><g id="Field_of_sunflower" data-name="Field of sunflower"><path class="cls-1" d="M40.13,13.83A5,5,0,1,1,34.8,6.16h0A5,5,0,0,1,40.13,13.83Z"/><path class="cls-2" d="M40.13,13.83a5.24,5.24,0,0,1-.94,1,5,5,0,0,1-4.38-8.7A5,5,0,0,1,40.13,13.83Z"/><path class="cls-3" d="M38,4a2.41,2.41,0,0,1-.71,1.71l-.38.38a4.65,4.65,0,0,0-1.82,0l-.38-.38A2.41,2.41,0,0,1,34,4c0-1.26.8-1.8,2-3C37.22,2.22,38,2.75,38,4Z"/><path class="cls-3" d="M33.17,6.34v.53a5.35,5.35,0,0,0-1.3,1.3h-.53a2.37,2.37,0,0,1-1.7-.71c-.92-.9-.71-1.91-.71-3.53,1.73,0,2.66-.17,3.53.71A2.37,2.37,0,0,1,33.17,6.34Z"/><path class="cls-3" d="M31,11c0,1.2.32.68-.29,1.29a2.41,2.41,0,0,1-3.42,0L26,11l1.29-1.29a2.41,2.41,0,0,1,3.42,0C31.31,10.31,31,9.82,31,11Z"/><path class="cls-3" d="M33.17,15.13v.53a2.37,2.37,0,0,1-.71,1.7c-.9.92-1.91.71-3.53.71,0-1.73-.17-2.66.71-3.53a2.37,2.37,0,0,1,1.7-.71h.53A5.35,5.35,0,0,0,33.17,15.13Z"/><path class="cls-4" d="M35,45V19a1,1,0,0,1,2,0V45A1,1,0,0,1,35,45Z"/><path class="cls-3" d="M38,18c0,1.26-.8,1.8-2,3-1.22-1.22-2-1.75-2-3a2.41,2.41,0,0,1,.71-1.71l.38-.38a4.65,4.65,0,0,0,1.82,0l.38.38A2.41,2.41,0,0,1,38,18Z"/><path class="cls-3" d="M43.07,16.24v1.83H41.24a2.41,2.41,0,0,1-2.41-2.41v-.53a5.35,5.35,0,0,0,1.3-1.3h.53A2.41,2.41,0,0,1,43.07,16.24Z"/><path class="cls-3" d="M40.91,11.91l.38.38A2.41,2.41,0,0,0,43,13c1.26,0,1.8-.8,3-2-1.22-1.22-1.75-2-3-2a2.41,2.41,0,0,0-1.71.71l-.38.38"/><path class="cls-3" d="M43.07,3.93c0,1.73.17,2.66-.71,3.53a2.37,2.37,0,0,1-1.7.71h-.53a5.35,5.35,0,0,0-1.3-1.3V6.34a2.41,2.41,0,0,1,2.41-2.41Z"/><path class="cls-5" d="M38,4a2.43,2.43,0,0,1-.34,1.24,6,6,0,0,0-3.09-.06,0,0,0,0,0,0,0,1.66,1.66,0,0,0-.21.06C33.17,3.31,35.11,1.89,36,1,37.22,2.22,38,2.75,38,4Z"/><path class="cls-5" d="M33.09,5.75a6,6,0,0,0-2.35,2.34,2.35,2.35,0,0,1-1.1-.63c-.92-.9-.71-1.91-.71-3.53,1.73,0,2.66-.17,3.53.71A2.26,2.26,0,0,1,33.09,5.75Z"/><path class="cls-5" d="M30.24,12.66C28.29,13.82,26.88,11.88,26,11c1.22-1.22,1.75-2,3-2a2.43,2.43,0,0,1,1.24.34A5.94,5.94,0,0,0,30.24,12.66Z"/><path class="cls-5" d="M33.09,16.26a2.42,2.42,0,0,1-2.33,1.81H28.93V16.24a2.42,2.42,0,0,1,1.81-2.33A6.09,6.09,0,0,0,33.09,16.26Z"/><path class="cls-5" d="M36,21c-1.22-1.22-2-1.75-2-3a2.43,2.43,0,0,1,.34-1.24,6,6,0,0,0,3.32,0C38.82,18.71,36.88,20.12,36,21Z"/><path class="cls-5" d="M43.07,16.24v1.83H41.24a2.42,2.42,0,0,1-2.33-1.81,6.23,6.23,0,0,0,2.35-2.35A2.42,2.42,0,0,1,43.07,16.24Z"/><path class="cls-5" d="M46,11c-1.22,1.22-1.75,2-3,2a2.43,2.43,0,0,1-1.24-.34,5.94,5.94,0,0,0,0-3.32C43.71,8.18,45.12,10.12,46,11Z"/><path class="cls-5" d="M43.07,3.93c0,1.73.17,2.66-.71,3.53a2.35,2.35,0,0,1-1.1.63,6,6,0,0,0-2.35-2.35,2.42,2.42,0,0,1,2.33-1.81Z"/><path class="cls-4" d="M44,32a16.37,16.37,0,0,1-.07,2.72A4,4,0,0,1,40,38H36c0-2-.21-3.32,1.07-4.72C38.6,31.62,40.28,32,44,32Z"/><path class="cls-6" d="M44,32a16.37,16.37,0,0,1-.07,2.72C42.4,36.38,40.72,36,37,36a16.37,16.37,0,0,1,.07-2.72C38.6,31.62,40.28,32,44,32Z"/><path class="cls-4" d="M36,30v2H32a4,4,0,0,1-4-4V26h4A4,4,0,0,1,36,30Z"/><path class="cls-6" d="M35,30c-3.62,0-5.41.36-6.93-1.28A14,14,0,0,1,28,26c3.62,0,5.41-.36,6.93,1.28A14,14,0,0,1,35,30Z"/><path class="cls-4" d="M11,46V23a1,1,0,0,1,2,0V46A1,1,0,0,1,11,46Z"/><path class="cls-4" d="M20,29a16.37,16.37,0,0,1-.07,2.72A4,4,0,0,1,16,35H12c0-2-.21-3.32,1.07-4.72C14.6,28.62,16.28,29,20,29Z"/><path class="cls-6" d="M20,29a16.37,16.37,0,0,1-.07,2.72C18.4,33.38,16.72,33,13,33a16.37,16.37,0,0,1,.07-2.72C14.6,28.62,16.28,29,20,29Z"/><path class="cls-4" d="M12,39v2H8a4,4,0,0,1-4-4V35H8A4,4,0,0,1,12,39Z"/><path class="cls-6" d="M11,39c-3.62,0-5.41.36-6.93-1.28A14,14,0,0,1,4,35c3.62,0,5.41-.36,6.93,1.28A14,14,0,0,1,11,39Z"/><path class="cls-7" d="M46,47H2a1,1,0,0,1,0-2H46A1,1,0,0,1,46,47Z"/><path class="cls-1" d="M16.13,18.83a5,5,0,1,1-5.33-7.67h0A5,5,0,0,1,16.13,18.83Z"/><path class="cls-2" d="M16.13,18.83a5.24,5.24,0,0,1-.94,1,5,5,0,0,1-4.38-8.7A5,5,0,0,1,16.13,18.83Z"/><path class="cls-3" d="M14,9a2.41,2.41,0,0,1-.71,1.71l-.38.38a4.65,4.65,0,0,0-1.82,0l-.38-.38A2.41,2.41,0,0,1,10,9c0-1.26.8-1.8,2-3C13.22,7.22,14,7.75,14,9Z"/><path class="cls-3" d="M9.17,11.34v.53a5.35,5.35,0,0,0-1.3,1.3H7.34a2.37,2.37,0,0,1-1.7-.71c-.92-.9-.71-1.91-.71-3.53,1.73,0,2.66-.17,3.53.71A2.37,2.37,0,0,1,9.17,11.34Z"/><path class="cls-3" d="M7,16c0,1.2.32.68-.29,1.29a2.41,2.41,0,0,1-3.42,0L2,16l1.29-1.29a2.41,2.41,0,0,1,3.42,0C7.31,15.31,7,14.82,7,16Z"/><path class="cls-3" d="M9.17,20.13v.53a2.37,2.37,0,0,1-.71,1.7c-.9.92-1.91.71-3.53.71,0-1.73-.17-2.66.71-3.53a2.37,2.37,0,0,1,1.7-.71h.53A5.35,5.35,0,0,0,9.17,20.13Z"/><path class="cls-3" d="M14,23c0,1.26-.8,1.8-2,3-1.22-1.22-2-1.75-2-3a2.41,2.41,0,0,1,.71-1.71l.38-.38a4.65,4.65,0,0,0,1.82,0l.38.38A2.41,2.41,0,0,1,14,23Z"/><path class="cls-3" d="M19.07,21.24v1.83H17.24a2.41,2.41,0,0,1-2.41-2.41v-.53a5.35,5.35,0,0,0,1.3-1.3h.53A2.41,2.41,0,0,1,19.07,21.24Z"/><path class="cls-3" d="M16.91,16.91l.38.38A2.41,2.41,0,0,0,19,18c1.26,0,1.8-.8,3-2-1.22-1.22-1.75-2-3-2a2.41,2.41,0,0,0-1.71.71l-.38.38"/><path class="cls-3" d="M19.07,8.93c0,1.73.17,2.66-.71,3.53a2.37,2.37,0,0,1-1.7.71h-.53a5.35,5.35,0,0,0-1.3-1.3v-.53a2.41,2.41,0,0,1,2.41-2.41Z"/><path class="cls-5" d="M14,9a2.43,2.43,0,0,1-.34,1.24,6,6,0,0,0-3.09-.06h0l-.21.06C9.17,8.31,11.11,6.89,12,6,13.22,7.22,14,7.75,14,9Z"/><path class="cls-5" d="M9.09,10.75a6,6,0,0,0-2.35,2.34,2.35,2.35,0,0,1-1.1-.63c-.92-.9-.71-1.91-.71-3.53,1.73,0,2.66-.17,3.53.71A2.26,2.26,0,0,1,9.09,10.75Z"/><path class="cls-5" d="M6.24,17.66C4.29,18.82,2.88,16.88,2,16c1.22-1.22,1.75-2,3-2a2.43,2.43,0,0,1,1.24.34A5.94,5.94,0,0,0,6.24,17.66Z"/><path class="cls-5" d="M9.09,21.26a2.42,2.42,0,0,1-2.33,1.81H4.93V21.24a2.42,2.42,0,0,1,1.81-2.33A6.09,6.09,0,0,0,9.09,21.26Z"/><path class="cls-5" d="M12,26c-1.22-1.22-2-1.75-2-3a2.43,2.43,0,0,1,.34-1.24,6,6,0,0,0,3.32,0C14.82,23.71,12.88,25.12,12,26Z"/><path class="cls-5" d="M19.07,21.24v1.83H17.24a2.42,2.42,0,0,1-2.33-1.81,6.23,6.23,0,0,0,2.35-2.35A2.42,2.42,0,0,1,19.07,21.24Z"/><path class="cls-5" d="M22,16c-1.22,1.22-1.75,2-3,2a2.43,2.43,0,0,1-1.24-.34,5.94,5.94,0,0,0,0-3.32C19.71,13.18,21.12,15.12,22,16Z"/><path class="cls-5" d="M19.07,8.93c0,1.73.17,2.66-.71,3.53a2.35,2.35,0,0,1-1.1.63,6,6,0,0,0-2.35-2.35,2.42,2.42,0,0,1,2.33-1.81Z"/></g></svg>