<svg xmlns="http://www.w3.org/2000/svg" viewBox="0 0 48 48"><defs><style>.cls-1{fill:#747575;}.cls-2{fill:#dad7e5;}.cls-3{fill:#7c7d7d;}.cls-4{fill:#db5669;}.cls-5{fill:#edebf2;}.cls-6{fill:#f26674;}.cls-7{fill:#c6c3d8;}.cls-8{fill:#9dcc6b;}.cls-9{fill:#ffde76;}</style></defs><title>Plowing land</title><g id="Plowing_land" data-name="Plowing land"><path class="cls-1" d="M31.8,19.4l-2.48-3.31,1.39-1.38a1,1,0,0,0-1.42-1.42l-4,4a1,1,0,0,0,1.42,1.42l1.18-1.19L30.2,20.6A1,1,0,0,0,31.8,19.4Z"/><path class="cls-2" d="M14,30H2a1,1,0,0,1,0-2H14A1,1,0,0,1,14,30Z"/><path class="cls-2" d="M5,35c-.43,0-.57-.17-1.34-.82A8.61,8.61,0,0,1,1,29.2a1,1,0,0,1,2-.4,6.5,6.5,0,0,0,2.66,4.43A1,1,0,0,1,5,35Z"/><path class="cls-2" d="M11,35c-.43,0-.57-.17-1.34-.82A8.61,8.61,0,0,1,7,29.2a1,1,0,0,1,2-.4,6.5,6.5,0,0,0,2.66,4.43A1,1,0,0,1,11,35Z"/><path class="cls-3" d="M44,31a4,4,0,1,1-4-4A4,4,0,0,1,44,31Z"/><path class="cls-1" d="M42.93,33.72c-2.73,3-7.69.37-6.86-3.44C38.81,27.31,43.76,29.92,42.93,33.72Z"/><path class="cls-3" d="M23.13,34.11A6,6,0,1,1,20.62,23,6,6,0,0,1,23.13,34.11Z"/><path class="cls-1" d="M23.13,34.11c-5.28,3.31-11.53-2.89-8.25-8.23C20.2,22.6,26.39,28.85,23.13,34.11Z"/><path class="cls-4" d="M30,30h-4a6,6,0,0,0-5.29-7l7.62.38C28.53,23.41,30.27,26.48,30,30Z"/><path class="cls-2" d="M40,27a4,4,0,0,0-3.87,3H30a10,10,0,0,0-1.66-6.59l8.71.44A3.15,3.15,0,0,1,40,27Z"/><path class="cls-5" d="M40,27a3.92,3.92,0,0,0-2.71,1.07,4,4,0,0,0-1.94.93H32.78a2,2,0,0,1-2-1.74,14.17,14.17,0,0,0-.87-3.77l7.08.36A3.15,3.15,0,0,1,40,27Z"/><path class="cls-2" d="M36.55,29c0,.08-.09.16-.13.24a1.34,1.34,0,0,1,.12-.24Z"/><path class="cls-4" d="M47,23v8H44a4,4,0,0,0-4-4,3.15,3.15,0,0,0-3-3.15c-9.34-.47-8.64-.38-8.74-.48s0,.08,1.74-4.37H43A4,4,0,0,1,47,23Z"/><path class="cls-6" d="M47,23v6H43.46A4,4,0,0,0,40,27a3.15,3.15,0,0,0-3-3.15c-7.75-.39-6.74-.28-6.74-.48s0,.08,1.74-4.37H43A4,4,0,0,1,47,23Z"/><path class="cls-4" d="M28.26,23.36h0l0,0c-8.51-.43-9.38-.75-11.36.47L14,21A10,10,0,0,1,28.26,23.36Z"/><path class="cls-6" d="M29,29.91c.83-9.1-10.72-13.54-16.15-6.31a1,1,0,0,1-1.6-1.2C17.83,13.56,31.94,19,31,30.09A1,1,0,0,1,29,29.91Z"/><path class="cls-7" d="M22,29a2,2,0,1,1-3.82-.82A2,2,0,0,1,22,29Z"/><path class="cls-2" d="M20.82,30.82a2,2,0,0,1-2.64-2.64A2,2,0,0,1,20.82,30.82Z"/><path class="cls-2" d="M41,31a1,1,0,0,0-2,0A1,1,0,0,0,41,31Z"/><path class="cls-8" d="M47,37H2a1,1,0,0,1,0-2H47A1,1,0,0,1,47,37Z"/><path class="cls-9" d="M47,24H44a1,1,0,0,1,0-2h2.87A7,7,0,0,1,47,24Z"/></g></svg>