<svg xmlns="http://www.w3.org/2000/svg" viewBox="0 0 48 48"><defs><style>.cls-1{fill:#f6ccaf;}.cls-2{fill:#edb996;}.cls-3{fill:#ffdec7;}.cls-4{fill:#7c7d7d;}.cls-5{fill:#919191;}.cls-6{fill:#dad7e5;}.cls-7{fill:#edebf2;}</style></defs><title>Cow udder</title><g id="Cow_udder" data-name="Cow udder"><path class="cls-1" d="M21,15.62V17a2,2,0,0,1-4,0c0-2.78-.12-2.16.47-2.93A11.65,11.65,0,0,0,21,15.62Z"/><path class="cls-1" d="M31,17a2,2,0,0,1-4,0V15.62a11.65,11.65,0,0,0,3.53-1.55C31.16,14.88,31,14.22,31,17Z"/><path class="cls-1" d="M36.22,15.58a2,2,0,0,1-3.58,1.23l-2.11-2.74a12,12,0,0,1-13.06,0l-2.11,2.74a2,2,0,0,1-3.58-1.23c0-.92.31-1.1,2.73-4.22A12,12,0,0,1,12,4C17.22.1,30.6,0,36,4a12,12,0,0,1-2.51,7.36C36,14.66,36.22,14.69,36.22,15.58Z"/><path class="cls-2" d="M17.47,14.07A11.65,11.65,0,0,0,21,15.62v1a11.65,11.65,0,0,1-3.53-1.55l-.47.61C17,14.48,16.88,14.84,17.47,14.07Z"/><path class="cls-2" d="M31,15.68l-.47-.61A11.65,11.65,0,0,1,27,16.62v-1a11.65,11.65,0,0,0,3.53-1.55C31.12,14.84,31,14.48,31,15.68Z"/><path class="cls-3" d="M36.22,15.58a2,2,0,0,1-3.58,1.23l-2.11-2.74a11.73,11.73,0,0,1-5,1.83A12,12,0,0,1,15.1,2.46C22.49-.24,32.15,1.11,36,4a12,12,0,0,1-2.51,7.36C35.85,14.43,36.22,14.65,36.22,15.58Z"/><rect class="cls-4" x="12" y="27" width="24" height="4"/><path class="cls-5" d="M36,27v2H17a2,2,0,0,1-2-2Z"/><polygon class="cls-6" points="34 31 32 47 16 47 14 31 34 31"/><path class="cls-7" d="M33.75,33l-1.5,12H28.83a11.13,11.13,0,0,1-11-9.75h0a2,2,0,0,1,2-2.25Z"/><path class="cls-4" d="M34,41c-.63,0,.22.72-11.74-12.32a1,1,0,0,1,1.48-1.36l11,12A1,1,0,0,1,34,41Z"/></g></svg>