<svg xmlns="http://www.w3.org/2000/svg" viewBox="0 0 48 48"><defs><style>.cls-1{fill:#9fdbf3;}.cls-2{fill:#b2e5fb;}.cls-3{fill:#374f68;}.cls-4{fill:#6fabe6;}.cls-5{fill:#425b72;}.cls-6{fill:#8bd1ea;}.cls-7{fill:#f16f39;}.cls-8{fill:#f8834b;}.cls-9{fill:#9dcc6b;}.cls-10{fill:#84b749;}.cls-11{fill:#b5e08c;}.cls-12{fill:#f6ccaf;}.cls-13{fill:#ffdec7;}.cls-14{fill:#dad7e5;}.cls-15{fill:#edebf2;}.cls-16{fill:#82bcf4;}</style></defs><title>Greenhouse with Vagetable</title><g id="Greenhouse_with_Vagetable" data-name="Greenhouse with Vagetable"><path class="cls-1" d="M41,43H7c0-24.22-.07-21.89.12-23a17,17,0,0,1,33.76,0C41.05,21,41,18.18,41,43Z"/><path class="cls-2" d="M41,41H33.22a6.44,6.44,0,0,0-2.3-8.52A6.4,6.4,0,0,1,28,27H24a6.21,6.21,0,0,1-2.75,5.37A6.86,6.86,0,0,0,19.7,33.7c.56-3.77.61-4,.61-4.4a4.28,4.28,0,0,0-2.39-3.84,9.88,9.88,0,0,0,2.31-2.79c2.76-4.78.82-7.5-2.38-3.56-.68-4.13-3-4.16-3.7,0-3.22-4-5.13-1.21-2.38,3.56a9.88,9.88,0,0,0,2.31,2.79A4.26,4.26,0,0,0,12,27.79C7.72,18.41,11,11,17.36,8.35A17,17,0,0,1,40.9,22.17C41,23.31,41,19.32,41,41Z"/><path class="cls-3" d="M8,10c-1,0-.83-.32-2.95-6.68A1,1,0,0,1,7,2.68l2,6A1,1,0,0,1,8,10Z"/><path class="cls-1" d="M19,4H4A1,1,0,0,1,4,2H19A1,1,0,0,1,19,4Z"/><path class="cls-4" d="M44.89,19.83a2,2,0,0,1-4,.34,17,17,0,0,0-33.8,0c-.35,2.78-4.34,2.12-4-.34a21,21,0,0,1,41.78,0Z"/><path class="cls-3" d="M44,45a2,2,0,0,1-2,2H6a2,2,0,0,1-1.41-3.41C5.42,42.74,3,43,42,43A2,2,0,0,1,44,45Z"/><path class="cls-5" d="M44,45H9a2,2,0,0,1-2-2H42A2,2,0,0,1,44,45Z"/><path class="cls-6" d="M10,22H7V20.62c.29-.82-.59-.62,3-.62A1,1,0,0,1,10,22Z"/><path class="cls-6" d="M17,6.51V11a1,1,0,0,1-2,0V7.58A16,16,0,0,1,17,6.51Z"/><path class="cls-6" d="M41,20.62V22H27a1,1,0,0,1,0-2h4V6.51a16,16,0,0,1,2,1.07V20C42.08,20,40.7,19.78,41,20.62Z"/><path class="cls-7" d="M22.31,27.3a43.72,43.72,0,0,1-.61,4.4,6.28,6.28,0,0,0-1.06,7.05c-.33,2.25-.32,2.19-.34,2.27a2.33,2.33,0,0,1-4.6,0l-2-13.08a4.31,4.31,0,1,1,8.57-.64Z"/><path class="cls-8" d="M22.31,27.3A20,20,0,0,1,22,29.75,19.13,19.13,0,0,0,19.7,31.7a6.28,6.28,0,0,0-1.06,7.05c.87,1.78,1.71,2,1.67,2.22A2.3,2.3,0,0,1,17.7,39c-2.15-14.35-2.35-14-1.58-15.58A4.31,4.31,0,0,1,22.31,27.3Z"/><path class="cls-9" d="M20,19a8.94,8.94,0,0,1-.88,4.15,4.26,4.26,0,0,0-2.24,0,10.2,10.2,0,0,1-.73-6C17,12.08,20,13.49,20,19Z"/><path class="cls-10" d="M16.88,23.15a3.24,3.24,0,0,0-.8.31,9.88,9.88,0,0,1-2.31-2.79c-2.76-4.78-.82-7.5,2.38-3.56A10.27,10.27,0,0,0,16.88,23.15Z"/><path class="cls-11" d="M22.23,20.67a9.88,9.88,0,0,1-2.31,2.79,3.24,3.24,0,0,0-.8-.31,10.24,10.24,0,0,0,.73-6C23.07,13.14,25,15.9,22.23,20.67Z"/><path class="cls-9" d="M19.89,20.62l0-3.51A12.08,12.08,0,0,1,19.89,20.62Z"/><path class="cls-12" d="M28,43c-7.7,0-10.84-8.54-4.92-12.52A6.4,6.4,0,0,0,26,25c4.59,0,4-.09,4,.21a6.41,6.41,0,0,0,2.92,5.27C38.89,34.57,35.6,43,28,43Z"/><path class="cls-13" d="M34.2,40.42A9,9,0,0,1,31,41c-7.7,0-10.84-8.54-4.92-12.52A6.64,6.64,0,0,0,28.72,25H30a6.42,6.42,0,0,0,2.92,5.48A6.43,6.43,0,0,1,34.2,40.42Z"/><path class="cls-14" d="M28,39c-3.88,0-5.42-3.7-2.43-5.38A3,3,0,0,0,27,31h2a3,3,0,0,0,1.43,2.62C33.43,35.31,31.87,39,28,39Z"/><path class="cls-15" d="M29,38.9c-1.73-.33-3-1.5-3-2.9,0-2.48,3-2,3-5a3,3,0,0,0,1.43,2.62C33.05,35.09,32.27,38.28,29,38.9Z"/><path class="cls-16" d="M8.45,7.9C21.08-3.49,41.62,4.15,43.39,21.33a1.84,1.84,0,0,1,0,.62,2,2,0,0,0,1.55-2.12C43,1.85,20.64-5.55,8.45,7.9Z"/></g></svg>