<svg xmlns="http://www.w3.org/2000/svg" viewBox="0 0 48 48"><defs><style>.cls-1{fill:#cc734c;}.cls-2{fill:#df8761;}.cls-3{fill:#dad7e5;}.cls-4{fill:#edebf2;}.cls-5{fill:#c6c3d8;}.cls-6{fill:#f29b75;}</style></defs><title>Egg with basket</title><g id="Egg_with_basket" data-name="Egg with basket"><rect class="cls-1" x="1" y="21" width="46" height="6"/><path class="cls-2" d="M47,21v4H8a4,4,0,0,1-4-4Z"/><path class="cls-1" d="M46,27c-4.43,14.18-4.16,13.46-4.46,14a4,4,0,0,1-3.48,2H9.94a4,4,0,0,1-3.82-2.81L2,27Z"/><path class="cls-2" d="M46,27c-4.43,14.18-4.16,13.46-4.46,14-.37.05-9.61,0-28.6,0a4,4,0,0,1-3.82-2.81L5.62,27Z"/><path class="cls-3" d="M35,21H13.05c-.62-6.84,5.53-17.51,12.44-15.82C28.91,5.18,35.64,13.41,35,21Z"/><path class="cls-4" d="M35,19H18.41a2,2,0,0,1-2-2.47C17.56,12,21,6.3,25.49,5.18,28.46,5.18,34.37,11.66,35,19Z"/><path class="cls-3" d="M13.05,21H2.16C3.33,13.3,10,4.81,16.92,9.25,14.51,12.37,12.7,17.1,13.05,21Z"/><path class="cls-5" d="M35,21c.35-3.9-1.46-8.63-3.87-11.75C38,4.75,44.7,13.48,45.84,21Z"/><path class="cls-3" d="M37,21c.38-4.17-1.72-9.32-4.47-12.48C38.9,5.83,44.79,14.12,45.84,21Z"/><path class="cls-5" d="M13.05,21h-2c-.31-3.44,1.07-8.41,4.47-12.49a9,9,0,0,1,1.4.74C14.51,12.37,12.7,17.1,13.05,21Z"/><path class="cls-6" d="M12,31H8a1,1,0,0,0,0,2h4A1,1,0,0,0,12,31Z"/><path class="cls-6" d="M17,33V31a1,1,0,0,0-2,0v2A1,1,0,0,0,17,33Z"/><path class="cls-6" d="M11,37v2a1,1,0,0,0,2,0V37A1,1,0,0,0,11,37Z"/><path class="cls-6" d="M28,31H20a1,1,0,0,0,0,2h8A1,1,0,0,0,28,31Z"/><path class="cls-6" d="M33,33V31a1,1,0,0,0-2,0v2A1,1,0,0,0,33,33Z"/><path class="cls-6" d="M40,31H36a1,1,0,0,0,0,2h4A1,1,0,0,0,40,31Z"/><path class="cls-6" d="M36,37H32a1,1,0,0,0,0,2h4A1,1,0,0,0,36,37Z"/><path class="cls-6" d="M24,37H16a1,1,0,0,0,0,2h8A1,1,0,0,0,24,37Z"/><path class="cls-6" d="M27,37v2a1,1,0,0,0,2,0V37A1,1,0,0,0,27,37Z"/></g></svg>