<svg xmlns="http://www.w3.org/2000/svg" viewBox="0 0 48 48"><defs><style>.cls-1{fill:#9dcc6b;}.cls-2{fill:#b5e08c;}.cls-3{fill:#84b749;}.cls-4{fill:#a87e6b;}.cls-5{fill:#a07765;}</style></defs><title>Vine</title><g id="Vine"><path class="cls-1" d="M33,1V18A13,13,0,1,1,7,18V1h4V18c0,8.22,10,11.87,15.36,6.36A9,9,0,0,0,29,18V1Z"/><path class="cls-2" d="M9,1V17a9,9,0,0,0,6,8.47A9,9,0,0,1,11,18V1Z"/><path class="cls-2" d="M31,1V17A13,13,0,0,1,13.26,29.1,13,13,0,0,0,33,18V1Z"/><path class="cls-2" d="M37.32,4H39a0,0,0,0,1,0,0V5.68A4.32,4.32,0,0,1,34.68,10H33a0,0,0,0,1,0,0V8.32A4.32,4.32,0,0,1,37.32,4Z"/><path class="cls-1" d="M37,18h1.68A4.32,4.32,0,0,1,43,22.32V24a0,0,0,0,1,0,0H41.32A4.32,4.32,0,0,1,37,19.68V18a0,0,0,0,1,0,0Z" transform="translate(80 42) rotate(-180)"/><path class="cls-2" d="M15.32,6H17a0,0,0,0,1,0,0V7.68A4.32,4.32,0,0,1,12.68,12H11a0,0,0,0,1,0,0V10.32A4.32,4.32,0,0,1,15.32,6Z"/><path class="cls-1" d="M1,2H2.68A4.32,4.32,0,0,1,7,6.32V8A0,0,0,0,1,7,8H5.32A4.32,4.32,0,0,1,1,3.68V2A0,0,0,0,1,1,2Z" transform="translate(8 10) rotate(-180)"/><path class="cls-3" d="M11,27.37V47H7V18A13,13,0,0,0,11,27.37Z"/><path class="cls-1" d="M11,29.37V45a2,2,0,0,1-1.41-.59c-.82-.8-.59-.26-.59-17.48A13,13,0,0,0,11,29.37Z"/><path class="cls-3" d="M25,1V25.48a9.07,9.07,0,0,1-4,1.46V1Z"/><path class="cls-3" d="M37.09,34.27a6.77,6.77,0,0,0,1.14-.71c.79-.57.35-.49.67-.22.11.1,1.23,1.06,1.31,1.16a8.66,8.66,0,0,1-1.62,1.23A7.91,7.91,0,0,1,37.09,34.27Z"/><path class="cls-3" d="M31,40.65V42.7l-.43-.1c-.59-.12-1.39-.42-1.49-.42s-.08.2-.08-1.81a.84.84,0,0,1,.07-.35A11.72,11.72,0,0,0,31,40.65Z"/><path class="cls-3" d="M47,1c0,28.67.72,30.08-2.32,34.4-6.16,9.24-20.79,6.53-23.35-4.47a13.37,13.37,0,0,0,3.87-1A9,9,0,0,0,43,28V1Z"/><path class="cls-1" d="M25,1c0,23.55,0,21.86-.07,22A6.58,6.58,0,0,1,23,24.32V1Z"/><path class="cls-1" d="M29,35.48a8.8,8.8,0,0,1-2.49-1.33,8.67,8.67,0,0,1-1.86-1.91c1.39-.43,1.08-.59,1.28-.18A8.61,8.61,0,0,0,29,35.48Z"/><path class="cls-1" d="M45,1c0,27.11.61,28.49-1.78,32.55a13,13,0,0,1-16,5.51,13,13,0,0,0,18-4.51C47.59,30.52,47,30.15,47,1Z"/><path class="cls-4" d="M44.64,40c-.13,3.22-4.23,4.19-5.81,2.08l-6-6.71a1.09,1.09,0,0,0-1.87.71v.42a8.45,8.45,0,0,1-1.95-1,3.06,3.06,0,0,1,3-2.51c1.6,0,2.31,1,3.08,1.91,5.64,6.38,5.34,6.2,6.06,6.25a1.29,1.29,0,0,0,1.41-1.45c0-.55-.33-.76-.77-1.14-.22-.18-.14,0,.66-.75a9.47,9.47,0,0,0,.73-.69A3.49,3.49,0,0,1,44.64,40Z"/><path class="cls-4" d="M31,40.65V46a1,1,0,0,1-2,0V40A12.8,12.8,0,0,0,31,40.65Z"/><path class="cls-4" d="M45.5,35.87c-6.62-3.79-6.24-3.71-6.62-3.33a.57.57,0,0,0-.13.59,17.05,17.05,0,0,0,1.46,1.37,8.66,8.66,0,0,1-1.62,1.23l-1-.89c-2.21-2,.23-5.62,2.89-4.15.1.1,5.93,3.38,6,3.44A1,1,0,0,1,45.5,35.87Z"/><path class="cls-5" d="M44.44,38.76a14.67,14.67,0,0,1-1.89,1.56c.33-.85-.24-1.34-.7-1.75-.22-.18-.14,0,.66-.75a9.47,9.47,0,0,0,.73-.69A3.4,3.4,0,0,1,44.44,38.76Z"/><path class="cls-5" d="M31,40.65v2A15.63,15.63,0,0,1,29,42V40.37C29,39.73,29,40.18,31,40.65Z"/></g></svg>