<svg xmlns="http://www.w3.org/2000/svg" viewBox="0 0 48 48"><defs><style>.cls-1{fill:#a87e6b;}.cls-2{fill:#a07765;}.cls-3{fill:#f6ccaf;}.cls-4{fill:#ffdec7;}.cls-5{fill:#edb996;}.cls-6{fill:#fc6;}.cls-7{fill:#6fabe6;}.cls-8{fill:#df8761;}.cls-9{fill:#f29b75;}.cls-10{fill:#ffde76;}.cls-11{fill:#82bcf4;}</style></defs><title>Farmer Girl</title><g id="Farmer_Girl" data-name="Farmer Girl"><path class="cls-1" d="M36,15V25H29.28C32.22,22.62,32,19.08,32,17h2A2,2,0,0,0,36,15Z"/><path class="cls-1" d="M18.72,25H12V15a2,2,0,0,0,2,2h2c0,2.57-.2,5.13,2.34,7.66A4,4,0,0,0,18.72,25Z"/><rect class="cls-2" x="32" y="13" width="4" height="4"/><rect class="cls-2" x="12" y="13" width="4" height="4"/><path class="cls-3" d="M32,13c0,5.72.51,8.44-2,11.29a8,8,0,0,1-12,0c-2.58-2.93-2-5.75-2-11.29Z"/><path class="cls-4" d="M32,16c0,3.22.31,5.67-2,8.29A7.8,7.8,0,0,1,27.86,26c-7.57-.12-10-10-5.86-10Z"/><path class="cls-5" d="M30,24.29V28l-1.44,1.69a6,6,0,0,1-9.12,0L18,28V24.29A8,8,0,0,0,30,24.29Z"/><path class="cls-3" d="M28.56,29.69a6,6,0,0,1-7.93,1L20,30a2.11,2.11,0,0,1,3-1.89A7.51,7.51,0,0,0,26,29C29.77,29,31.48,26.26,28.56,29.69Z"/><path class="cls-6" d="M45,40.77V47H3V40.77a10,10,0,0,1,6.29-9.28L18,28l1.44,1.69a6,6,0,0,0,9.12,0L30,28l8.71,3.49A10,10,0,0,1,45,40.77Z"/><polygon class="cls-7" points="37 42 37 47 11 47 11 42 14 38 14 29.6 18 28 18 38 30 38 30 28 34 29.6 34 38 37 42"/><path class="cls-3" d="M36,15a2,2,0,0,1-2,2H32V13h2A2,2,0,0,1,36,15Z"/><path class="cls-3" d="M16,13v4H14a2,2,0,0,1,0-4Z"/><path class="cls-2" d="M18.34,24.66C15.74,22.07,16,19.25,16,17H14a2,2,0,0,1-2-2v2a1,1,0,0,0,1,1c2.08,0-.28,3.23,2.77,7h2.95A4,4,0,0,1,18.34,24.66Z"/><path class="cls-8" d="M38,13H10a4,4,0,0,1,4-4H34A4,4,0,0,1,38,13Z"/><path class="cls-9" d="M37.46,11H14.38a1.13,1.13,0,0,1-1.06-1.55C13.59,8.8,12.3,9,34,9A4,4,0,0,1,37.46,11Z"/><path class="cls-8" d="M33,9H15V3.22A2.21,2.21,0,0,1,17.22,1c2.49,0,5.5,2.43,8,1.58l4-1.33c2.28-.76,3.74.39,3.74,2Z"/><path class="cls-9" d="M33,7H20a2,2,0,0,1-2-2c0-1.53-.25-2.84,1-3.65l3.7,1.23c3.24,1.07,7.4-3.14,9.61-.93C33.21,2.51,33,3.2,33,7Z"/><path class="cls-10" d="M12,30.4V38L9,42v2.1c-4.37-2.64-3.64-8.83,0-12.5Z"/><path class="cls-10" d="M28,30.25V38H16V28.8l2-.8,1.44,1.69A6,6,0,0,0,28,30.25Z"/><path class="cls-10" d="M45,40.77V45H35V42l-3-4V28.8l6.71,2.69A10,10,0,0,1,45,40.77Z"/><path class="cls-11" d="M37,42v3H16.3a2.3,2.3,0,0,1-1.91-3.58c2.12-3.19,1.61-1,1.61-12.62l2-.8V38H30V28l4,1.6V38Z"/></g></svg>