<svg xmlns="http://www.w3.org/2000/svg" viewBox="0 0 48 48"><defs><style>.cls-1{fill:#9dcc6b;}.cls-2{fill:#b5e08c;}.cls-3{fill:#cc734c;}.cls-4{fill:#a87e6b;}.cls-5{fill:#db5669;}.cls-6{fill:#f26674;}.cls-7{fill:#ffde76;}.cls-8{fill:#fc6;}.cls-9{fill:#be927c;}</style></defs><title>Growing Flower</title><g id="Growing_Flower" data-name="Growing Flower"><path class="cls-1" d="M7,31v2H5a4,4,0,0,1-4-4V27H3A4,4,0,0,1,7,31Z"/><path class="cls-2" d="M7,31H5a4,4,0,0,1-4-4H3A4,4,0,0,1,7,31Z"/><path class="cls-1" d="M23,29v2H21a4,4,0,0,1-4-4V25h2A4,4,0,0,1,23,29Z"/><path class="cls-2" d="M23,29H21a4,4,0,0,1-4-4h2A4,4,0,0,1,23,29Z"/><path class="cls-1" d="M29,21v2a4,4,0,0,1-4,4H23V25a4,4,0,0,1,4-4Z"/><path class="cls-2" d="M29,21a4,4,0,0,1-4,4H23a4,4,0,0,1,4-4Z"/><path class="cls-1" d="M39,28v2H37a4,4,0,0,1-4-4V24h2A4,4,0,0,1,39,28Z"/><path class="cls-2" d="M39,28H37a4,4,0,0,1-4-4h2A4,4,0,0,1,39,28Z"/><path class="cls-1" d="M45,20v2a4,4,0,0,1-4,4H39V24a4,4,0,0,1,4-4Z"/><path class="cls-2" d="M45,20a4,4,0,0,1-4,4H39a4,4,0,0,1,4-4Z"/><path class="cls-3" d="M38,37V17a1,1,0,0,1,2,0V37A1,1,0,0,1,38,37Z"/><path class="cls-4" d="M47,42v5H1V42c2.59-3.24,3.47-5,6-5s3.29,1.62,4.75,3.44a4.17,4.17,0,0,0,6.5,0C19.71,38.6,20.61,37,23,37s3.29,1.62,4.75,3.44a4.17,4.17,0,0,0,6.5,0C35.71,38.6,36.61,37,39,37,43.16,37,42.83,42,47,42Z"/><path class="cls-3" d="M6,37c0-4.92-.54-8.87,3.29-12.71a1,1,0,0,1,1.42,1.42C7.47,29,8,32.25,8,37A1,1,0,0,1,6,37Z"/><path class="cls-3" d="M22,37V20a1,1,0,0,1,2,0V37A1,1,0,0,1,22,37Z"/><path class="cls-5" d="M41,9a2,2,0,1,1-3.71-1A2,2,0,0,1,41,9Z"/><path class="cls-6" d="M39.52,10.93a1.54,1.54,0,0,1-.56-.22,2,2,0,0,1,.54-3.64A2,2,0,0,1,39.52,10.93Z"/><path class="cls-7" d="M43,3.49C43,4.65,41.47,7.1,40.71,8a2,2,0,0,0-3.42,0C36.53,7.09,35,4.64,35,3.49A2.5,2.5,0,0,1,37.49,1h3A2.48,2.48,0,0,1,43,3.49Z"/><path class="cls-8" d="M37,3.49A2.5,2.5,0,0,1,39.49,1c-1.86,0-2.84-.19-3.76.73a2.5,2.5,0,0,0-.52,2.77A14.6,14.6,0,0,0,37.29,8a2.06,2.06,0,0,1,1.31-.91C38.1,6.3,37,4.47,37,3.49Z"/><path class="cls-7" d="M43,14.51A2.5,2.5,0,0,1,40.51,17h-3A2.48,2.48,0,0,1,35,14.51c0-1.16,1.53-3.61,2.29-4.47a2,2,0,0,0,3.42,0C41.47,10.9,43,13.36,43,14.51Z"/><path class="cls-8" d="M37,14.51a5.41,5.41,0,0,1,.92-2.43c.89-1.66.88-.87,0-1.37a2.14,2.14,0,0,1-.67-.67c-.76.87-2.29,3.32-2.29,4.47A2.48,2.48,0,0,0,37.49,17h2A2.48,2.48,0,0,1,37,14.51Z"/><path class="cls-7" d="M37.29,10a11.2,11.2,0,0,0-1.37,2c-1.49.82-2.88,1.5-4.19.19-.92-.92-.73-1.63-.73-4.78a2.49,2.49,0,0,1,3.5-2.28c.42.2.9.42,1.42.71a11.2,11.2,0,0,0,1.37,2A2,2,0,0,0,37.29,10Z"/><path class="cls-8" d="M33,7.49a2.47,2.47,0,0,1,1.49-2.28A2.49,2.49,0,0,0,31,7.49v3a2.5,2.5,0,0,0,3.5,2.28C32.62,12,33,10.24,33,7.49Z"/><path class="cls-7" d="M47,7.49v3A2.48,2.48,0,0,1,44.51,13a5.41,5.41,0,0,1-2.43-.92,11.2,11.2,0,0,0-1.37-2,2,2,0,0,0,0-2.08,11.2,11.2,0,0,0,1.37-2A5.42,5.42,0,0,1,44.51,5,2.5,2.5,0,0,1,47,7.49Z"/><path class="cls-9" d="M47,42v3H10.72A6.72,6.72,0,0,1,4,38.28a4.17,4.17,0,0,1,6.25.28C11.71,40.4,12.61,42,15,42s3.29-1.62,4.75-3.44a4.17,4.17,0,0,1,6.5,0C27.71,40.4,28.61,42,31,42s3.29-1.62,4.75-3.44a4.17,4.17,0,0,1,6.5,0C43.71,40.4,44.61,42,47,42Z"/></g></svg>