<svg xmlns="http://www.w3.org/2000/svg" viewBox="0 0 48 48"><defs><style>.cls-1{fill:#dad7e5;}.cls-2{fill:#edebf2;}.cls-3{fill:#be927c;}.cls-4{fill:#a87e6b;}</style></defs><title>Ram goat</title><g id="Ram_goat" data-name="Ram goat"><path class="cls-1" d="M47,14c0,2.33.13,1.92-.38,2.23a10.87,10.87,0,0,1-7.77,1.32l-2.53,9.18a10.43,10.43,0,0,1-4.82,6A6.86,6.86,0,0,1,30,35v9l1.1.37A2.77,2.77,0,0,1,33,47H26l-.76-13c-3.56,0-6.87.13-11.52-1.72L10,36v8l1.1.37A2.77,2.77,0,0,1,13,47H6L5,34l2-2a9.4,9.4,0,0,1-2-5.73,9.1,9.1,0,0,1,2.71-6.46c2.82-2.75,4.63-2.45,14.65-3.32A15.54,15.54,0,0,0,29,14.33a7,7,0,0,0,6.24-.13c2.27-1.19.43-4.64-2-3.49a3,3,0,0,1-2.15.16L35,7C42.11,7,40.16,6,47,14Z"/><path class="cls-2" d="M47,14c0,2.33.13,1.92-.38,2.23a11,11,0,0,1-6.15,1.54c-.35-.29-.77-.16-2.1-.7a1,1,0,0,0-.74,1.86c.25.1.51.19.76.27l-2.07,7.53a10.43,10.43,0,0,1-4.82,6A6.86,6.86,0,0,1,30,35v9a4.9,4.9,0,0,1,2.14,1,4.47,4.47,0,0,1-3.06-1.21C27.4,42.2,27.72,41.08,27.24,33H25.18L25,29.94a1,1,0,0,0-2,.12L23.17,33a23.93,23.93,0,0,1-6.53-1.33A8.36,8.36,0,0,0,18,24.76a1,1,0,0,0-1.94.48,6.31,6.31,0,0,1-1.66,6c-.41.41-.65.58-.65,1.07L10,36v8a4.9,4.9,0,0,1,2.14,1A4.55,4.55,0,0,1,7.6,40.79L7,33l2-2a11.69,11.69,0,0,1-1.39-2.45,9.06,9.06,0,0,1,2.1-9.74,4.67,4.67,0,0,1,3.53-1.53c9.5-.82,10.92-.72,13.78-2,2.86,1.36,6,.33,6.78-.57a6.78,6.78,0,0,0,1.46-.56c2.26-1.2.34-4.66-1.91-3.52a2.94,2.94,0,0,1-2.21.19L35,7C42.14,7,40.23,6.1,47,14Z"/><path class="cls-1" d="M7.71,19.81a9.28,9.28,0,0,0-2,3L3.16,21.3a4.46,4.46,0,0,1-1.22-6.56A4.86,4.86,0,0,1,5,13C5,15,4.73,17.82,7.71,19.81Z"/><path class="cls-3" d="M29,8.52a3,3,0,0,0,4.25,2.19c2.43-1.17,4.16,2.34,2,3.49A7,7,0,1,1,38.92,7h-4.1A3,3,0,0,0,29,8.52Z"/><path class="cls-4" d="M27,8.52a3,3,0,0,0,4,2.3,2.8,2.8,0,0,0,2.21-.08c1.39.77,2,3.55-2.22,4.19a7,7,0,0,1-5.94-7.87,7.09,7.09,0,0,1,5.9-6,7,7,0,0,1,6,5.93h-2.1A3,3,0,0,0,31,5.17,3,3,0,0,0,27,8.52Z"/><path class="cls-1" d="M45.9,16.62,45,22l-3.39-4.24A10.82,10.82,0,0,0,45.9,16.62Z"/></g></svg>