<svg xmlns="http://www.w3.org/2000/svg" viewBox="0 0 48 48"><defs><style>.cls-1{fill:#edb996;}.cls-2{fill:#f6ccaf;}.cls-3{fill:#dad7e5;}.cls-4{fill:#edebf2;}.cls-5{fill:#df8761;}.cls-6{fill:#ffdec7;}.cls-7{fill:#f29b75;}.cls-8{fill:#7c7d7d;}</style></defs><title>Farmer man</title><g id="Farmer_man" data-name="Farmer man"><path class="cls-1" d="M30,27.29V31l-1.44,1.69a6,6,0,0,1-9.12,0L18,31V27.29A8,8,0,0,0,30,27.29Z"/><path class="cls-2" d="M28.56,32.69a6,6,0,0,1-7.93,1.05L20,33a2.11,2.11,0,0,1,3-1.89A7.51,7.51,0,0,0,26,32C29.77,32,31.48,29.26,28.56,32.69Z"/><path class="cls-3" d="M47,44.08V47H1V44.08a10,10,0,0,1,6.67-9.43L18,31l1.44,1.69a6,6,0,0,0,9.12,0L30,31l10.33,3.65A10,10,0,0,1,47,44.08Z"/><path class="cls-4" d="M10,33.83v5.3A4,4,0,0,0,7,43v2c-4.43,0-3.46-6.36-.32-9.72C7.9,34.5,7.26,34.8,10,33.83Z"/><path class="cls-4" d="M28.56,32.69,30,31v8H14V32.41L18,31l1.44,1.69A6,6,0,0,0,28.56,32.69Z"/><path class="cls-4" d="M47,44.08V45H37V43a4,4,0,0,0-3-3.87V32.41l6.33,2.24A10,10,0,0,1,47,44.08Z"/><path class="cls-5" d="M39,43v4H9V43a4,4,0,0,1,3-3.87v-6l4-1.41V39H32V31.71l4,1.41v6A4,4,0,0,1,39,43Z"/><path class="cls-2" d="M32,17c0,4.69.48,7.47-2,10.29a8,8,0,0,1-12,0c-2.5-2.84-2-5.61-2-10.29Z"/><path class="cls-6" d="M32,19c0,3.1.53,7.34-4,9.94a8,8,0,0,1-6.64-2.28l0,0C23.06,26,23,26,23.16,26.11c2.71.9,2.61.89,2.84.89a1,1,0,0,0,.89-1.45l-.33-.66a2.49,2.49,0,0,0-3.34-1.12.49.49,0,0,1-.44,0,2.49,2.49,0,0,0-3,.63c-.62-1.3-1.26-3.75-.17-4.81C20.42,18.74,20.25,19,32,19Z"/><path class="cls-2" d="M34,21H32V17h2a2,2,0,0,1,0,4Z"/><path class="cls-2" d="M14,21h2V17H14a2,2,0,0,0-2,2h0A2,2,0,0,0,14,21Z"/><path class="cls-5" d="M38,17H10a4,4,0,0,1,4-4H34A4,4,0,0,1,38,17Z"/><path class="cls-7" d="M37.46,15H14.38a1.13,1.13,0,0,1-1.06-1.55c.27-.65-1-.45,20.68-.45A4,4,0,0,1,37.46,15Z"/><path class="cls-5" d="M34,11v2H14V11a10,10,0,0,1,20,0Z"/><path class="cls-7" d="M34,11H19.25a2,2,0,0,1-2-2.4,10,10,0,0,1,8.19-7.48h0A10,10,0,0,1,34,11Z"/><path class="cls-8" d="M24.16,25.11c-.23-.08-.2,0-2.84.84a1,1,0,0,1-1.21-1.4l.33-.66a2.48,2.48,0,0,1,3.34-1.12.49.49,0,0,0,.44,0,2.48,2.48,0,0,1,3.34,1.12c.3.59.72,1.17.19,1.77S26.63,25.93,24.16,25.11Z"/><path class="cls-7" d="M36,39.13v-6l-4-1.41V39H16V31.71l-3,1.06V41a4,4,0,0,0,4,4H39V43A4,4,0,0,0,36,39.13Z"/></g></svg>