<svg xmlns="http://www.w3.org/2000/svg" viewBox="0 0 48 48"><defs><style>.cls-1{fill:#fc6;}.cls-2{fill:#ffde76;}.cls-3{fill:#f16f39;}.cls-4{fill:#f8834b;}.cls-5{fill:#dad7e5;}.cls-6{fill:#edebf2;}.cls-7{fill:#df8761;}</style></defs><title>Jar of jam</title><g id="Jar_of_jam" data-name="Jar of jam"><path class="cls-1" d="M37,5V9H11V5a2,2,0,0,1,2-2H35A2,2,0,0,1,37,5Z"/><path class="cls-2" d="M37,5V9H14V5a2,2,0,0,1,2-2H35A2,2,0,0,1,37,5Z"/><path class="cls-1" d="M23.83,21a38.26,38.26,0,0,1-18.5-.67A1.81,1.81,0,0,1,4,18.62c0-.84-.34-.18,7-9.62H24C21.16,16.08,24.53,20.91,23.83,21Z"/><path class="cls-2" d="M23,21.18c-3.85.73-7,1-13.67-.82A1.81,1.81,0,0,1,8,18.62C8,17.79,8,18,12.67,12h8.46c-.72,3.87.15,6.48.87,9C22,21,22.72,21.14,23,21.18Z"/><path class="cls-1" d="M44,18.62a1.81,1.81,0,0,1-1.33,1.74,38.2,38.2,0,0,1-18.5.67c-.24,0-.09.24-.69-1.85A15.73,15.73,0,0,1,24,9H37C44.12,18.16,44,17.76,44,18.62Z"/><path class="cls-2" d="M44,18.62a1.81,1.81,0,0,1-1.33,1.74,38.2,38.2,0,0,1-18.5.67c-.24,0-.09.24-.69-1.85A15.73,15.73,0,0,1,23.13,12h16.2C44,18,44,17.78,44,18.62Z"/><path class="cls-3" d="M34.84,44a5.56,5.56,0,0,1-5,3H18.1a5.56,5.56,0,0,1-4.72-2.63c-5-8.43-5.65-15.35-4.55-23.2A37.81,37.81,0,0,0,24,21a38,38,0,0,0,15.17.17C40.32,29.35,39.31,36.74,34.84,44Z"/><path class="cls-4" d="M38.21,36.58a32.87,32.87,0,0,1-3.91,8.24c-1.14,0,4.07.18-13.2.18a5.59,5.59,0,0,1-4.94-3,32.58,32.58,0,0,1-4.79-18.43A38.18,38.18,0,0,0,24,23c5.13.91,10,1.32,15.43.12A32.59,32.59,0,0,1,38.21,36.58Z"/><path class="cls-5" d="M39.6,29a32.14,32.14,0,0,1-2.25,10H30.24a8,8,0,0,1-12.48,0H10.65A32.14,32.14,0,0,1,8.4,29h9.36a8,8,0,0,1,12.48,0Z"/><path class="cls-6" d="M39.6,29a32.4,32.4,0,0,1-2.25,10H30.24a8,8,0,0,1-12.48,0H14.53a32.33,32.33,0,0,1-2.94-10h6.17a8,8,0,0,1,12.48,0Z"/><path class="cls-7" d="M45,3.9a2.9,2.9,0,0,0-5.42-1.44L36.42,8H11a1,1,0,0,0,0,2H37.72l4.77,2.86a1,1,0,0,0,1-1.72l-4-2.41,4-2.32A2.89,2.89,0,0,0,45,3.9ZM39.69,6.31l1.63-2.86A.9.9,0,0,1,43,3.9C43,4.59,42.65,4.62,39.69,6.31Z"/></g></svg>