<svg xmlns="http://www.w3.org/2000/svg" viewBox="0 0 48 48"><defs><style>.cls-1{fill:#db5669;}.cls-2{fill:#f26674;}.cls-3{fill:#919191;}.cls-4{fill:#7c7d7d;}.cls-5{fill:#dad7e5;}.cls-6{fill:#edebf2;}.cls-7{fill:#747575;}</style></defs><title>Lawn Mower</title><g id="Lawn_Mower" data-name="Lawn Mower"><path class="cls-1" d="M43,37v6H18c-1.33-1.75-1-2.58-1-12H27l3,4Z"/><path class="cls-2" d="M43,37v4H30A10,10,0,0,1,20,31h7l3,4Z"/><circle class="cls-3" cx="43" cy="41" r="4"/><path class="cls-4" d="M45.28,44.28a4,4,0,0,1-5.56-5.56A4,4,0,0,1,45.28,44.28Z"/><path class="cls-3" d="M27,40a4.92,4.92,0,0,1-1.14,3.16A5,5,0,1,1,27,40Z"/><path class="cls-4" d="M25.86,43.16c-3.31,4.11-9.94.82-8.72-4.34A5,5,0,0,1,25.86,43.16Z"/><path class="cls-4" d="M39,33v3.38L30,35l-3-4H37A2,2,0,0,1,39,33Z"/><path class="cls-3" d="M39,33v2.23c-4.27-.66-7.58-.67-10.25-4.23H37A2,2,0,0,1,39,33Z"/><path class="cls-1" d="M36,28.64V31H26V27.44a2,2,0,0,1,2.25-2c.1,0,.23,0,6.14,1.22A2,2,0,0,1,36,28.64Z"/><path class="cls-2" d="M36,28.64V30H30a2,2,0,0,1-2-2c0-1.33-.09-1.92.25-2.54.1,0,.23,0,6.14,1.22A2,2,0,0,1,36,28.64Z"/><path class="cls-5" d="M22,31H17L1,9c0-4.13-.19-4.65.59-5.41A2,2,0,0,1,4,3.27C5.26,4,5,5,5,8Z"/><path class="cls-6" d="M22,31H19L3,9c0-3.93-.3-4.95,1-5.73C5.26,4,5,5,5,8Z"/><path class="cls-7" d="M17,31v9L9.42,36.21A8,8,0,0,1,5,29.06V14.5Z"/><path class="cls-4" d="M15,32.3V39L9.42,36.21A8,8,0,0,1,5,29.06V17.25C14.79,30.71,15,30.52,15,32.3Z"/><path class="cls-5" d="M42,41a1,1,0,0,1,2,0A1,1,0,0,1,42,41Z"/><path class="cls-5" d="M21,40a1,1,0,0,1,2,0A1,1,0,0,1,21,40Z"/></g></svg>