<svg xmlns="http://www.w3.org/2000/svg" viewBox="0 0 48 48"><defs><style>.cls-1{fill:#fc6;}.cls-2{fill:#ffde76;}.cls-3{fill:#6fabe6;}.cls-4{fill:#b2e5fb;}.cls-5{fill:#374f68;}.cls-6{fill:#a87e6b;}</style></defs><title>Top watering system</title><g id="Top_watering_system" data-name="Top watering system"><path class="cls-1" d="M34,27V25a1,1,0,0,1,2,0v2A1,1,0,0,1,34,27Z"/><path class="cls-2" d="M39,23V21a1,1,0,0,1,2,0v2A1,1,0,0,1,39,23Z"/><path class="cls-2" d="M44,27V25a1,1,0,0,1,2,0v2A1,1,0,0,1,44,27Z"/><path class="cls-1" d="M39,45V30a1,1,0,0,1,2,0V45A1,1,0,0,1,39,45Z"/><path class="cls-2" d="M44.47,37H46a0,0,0,0,1,0,0v.53A4.47,4.47,0,0,1,41.53,42H40a0,0,0,0,1,0,0v-.53A4.47,4.47,0,0,1,44.47,37Z"/><path class="cls-1" d="M40,41.47V42H38.47A4.47,4.47,0,0,1,34,37.53V37c1.87,0,1.59,0,2,0A4.48,4.48,0,0,1,40,41.47Z"/><path class="cls-2" d="M40,41.47V42a4.48,4.48,0,0,1-4-4.45V37A4.48,4.48,0,0,1,40,41.47Z"/><path class="cls-2" d="M44.47,32H46a0,0,0,0,1,0,0v.53A4.47,4.47,0,0,1,41.53,37H40a0,0,0,0,1,0,0v-.53A4.47,4.47,0,0,1,44.47,32Z"/><path class="cls-1" d="M40,36.47V37H38.47A4.47,4.47,0,0,1,34,32.53V32c1.87,0,1.59,0,2,0A4.48,4.48,0,0,1,40,36.47Z"/><path class="cls-2" d="M40,36.47V37a4.48,4.48,0,0,1-4-4.45V32A4.48,4.48,0,0,1,40,36.47Z"/><path class="cls-2" d="M46,27v.53A4.47,4.47,0,0,1,41.53,32H40v-.53A4.47,4.47,0,0,1,44.47,27Z"/><path class="cls-1" d="M40,31.47V32H38.47A4.47,4.47,0,0,1,34,27.53V27c1.87,0,1.59,0,2,0A4.48,4.48,0,0,1,40,31.47Z"/><path class="cls-2" d="M40,31.47V32a4.48,4.48,0,0,1-4-4.45V27A4.48,4.48,0,0,1,40,31.47Z"/><path class="cls-2" d="M41.42,28.21A4.41,4.41,0,0,0,40,31.47c0-3-2-2.5-2-5.47a4.94,4.94,0,0,1,2-4A4.89,4.89,0,0,1,41.42,28.21Z"/><path class="cls-1" d="M18,27V25a1,1,0,0,1,2,0v2A1,1,0,0,1,18,27Z"/><path class="cls-2" d="M23,23V21a1,1,0,0,1,2,0v2A1,1,0,0,1,23,23Z"/><path class="cls-2" d="M28,27V25a1,1,0,0,1,2,0v2A1,1,0,0,1,28,27Z"/><path class="cls-1" d="M23,45V30a1,1,0,0,1,2,0V45A1,1,0,0,1,23,45Z"/><path class="cls-2" d="M28.47,37H30a0,0,0,0,1,0,0v.53A4.47,4.47,0,0,1,25.53,42H24a0,0,0,0,1,0,0v-.53A4.47,4.47,0,0,1,28.47,37Z"/><path class="cls-1" d="M24,41.47V42H22.47A4.47,4.47,0,0,1,18,37.53V37c1.87,0,1.59,0,2,0A4.48,4.48,0,0,1,24,41.47Z"/><path class="cls-2" d="M24,41.47V42a4.48,4.48,0,0,1-4-4.45V37A4.48,4.48,0,0,1,24,41.47Z"/><path class="cls-2" d="M28.47,32H30a0,0,0,0,1,0,0v.53A4.47,4.47,0,0,1,25.53,37H24a0,0,0,0,1,0,0v-.53A4.47,4.47,0,0,1,28.47,32Z"/><path class="cls-1" d="M24,36.47V37H22.47A4.47,4.47,0,0,1,18,32.53V32c1.87,0,1.59,0,2,0A4.48,4.48,0,0,1,24,36.47Z"/><path class="cls-2" d="M24,36.47V37a4.48,4.48,0,0,1-4-4.45V32A4.48,4.48,0,0,1,24,36.47Z"/><path class="cls-2" d="M30,27v.53A4.47,4.47,0,0,1,25.53,32H24v-.53A4.47,4.47,0,0,1,28.47,27Z"/><path class="cls-1" d="M24,31.47V32H22.47A4.47,4.47,0,0,1,18,27.53V27c1.87,0,1.59,0,2,0A4.48,4.48,0,0,1,24,31.47Z"/><path class="cls-2" d="M24,31.47V32a4.48,4.48,0,0,1-4-4.45V27A4.48,4.48,0,0,1,24,31.47Z"/><path class="cls-2" d="M25.42,28.21A4.41,4.41,0,0,0,24,31.47c0-3-2-2.5-2-5.47a4.94,4.94,0,0,1,2-4A4.89,4.89,0,0,1,25.42,28.21Z"/><path class="cls-1" d="M2,27V25a1,1,0,0,1,2,0v2A1,1,0,0,1,2,27Z"/><path class="cls-2" d="M7,23V21a1,1,0,0,1,2,0v2A1,1,0,0,1,7,23Z"/><path class="cls-2" d="M12,27V25a1,1,0,0,1,2,0v2A1,1,0,0,1,12,27Z"/><path class="cls-1" d="M7,45V30a1,1,0,0,1,2,0V45A1,1,0,0,1,7,45Z"/><path class="cls-2" d="M12.47,37H14a0,0,0,0,1,0,0v.53A4.47,4.47,0,0,1,9.53,42H8a0,0,0,0,1,0,0v-.53A4.47,4.47,0,0,1,12.47,37Z"/><path class="cls-1" d="M8,41.47V42H6.47A4.47,4.47,0,0,1,2,37.53V37c1.87,0,1.59,0,2,0A4.48,4.48,0,0,1,8,41.47Z"/><path class="cls-2" d="M8,41.47V42a4.48,4.48,0,0,1-4-4.45V37A4.48,4.48,0,0,1,8,41.47Z"/><path class="cls-2" d="M12.47,32H14a0,0,0,0,1,0,0v.53A4.47,4.47,0,0,1,9.53,37H8a0,0,0,0,1,0,0v-.53A4.47,4.47,0,0,1,12.47,32Z"/><path class="cls-1" d="M8,36.47V37H6.47A4.47,4.47,0,0,1,2,32.53V32c1.87,0,1.59,0,2,0A4.48,4.48,0,0,1,8,36.47Z"/><path class="cls-2" d="M8,36.47V37a4.48,4.48,0,0,1-4-4.45V32A4.48,4.48,0,0,1,8,36.47Z"/><path class="cls-2" d="M14,27v.53A4.47,4.47,0,0,1,9.53,32H8v-.53A4.47,4.47,0,0,1,12.47,27Z"/><path class="cls-1" d="M8,31.47V32H6.47A4.47,4.47,0,0,1,2,27.53V27c1.87,0,1.59,0,2,0A4.48,4.48,0,0,1,8,31.47Z"/><path class="cls-2" d="M8,31.47V32a4.48,4.48,0,0,1-4-4.45V27A4.48,4.48,0,0,1,8,31.47Z"/><path class="cls-2" d="M9.42,28.21A4.41,4.41,0,0,0,8,31.47c0-3-2-2.5-2-5.47a4.94,4.94,0,0,1,2-4A4.89,4.89,0,0,1,9.42,28.21Z"/><path class="cls-3" d="M22,3V1h4V3A2,2,0,0,1,22,3Z"/><path class="cls-4" d="M23,10V8a1,1,0,0,1,2,0v2A1,1,0,0,1,23,10Z"/><path class="cls-5" d="M46,2H1A1,1,0,0,1,1,0H46A1,1,0,0,1,46,2Z"/><path class="cls-4" d="M23,15V13a1,1,0,0,1,2,0v2A1,1,0,0,1,23,15Z"/><path class="cls-4" d="M18,9a1,1,0,0,1-.71-1.71l2-2a1,1,0,0,1,1.42,1.42C18.53,8.89,18.54,9,18,9Z"/><path class="cls-4" d="M14,13a1,1,0,0,1-.71-1.71l2-2a1,1,0,0,1,1.42,1.42C14.53,12.89,14.54,13,14,13Z"/><path class="cls-4" d="M10,17a1,1,0,0,1-.71-1.71l2-2a1,1,0,0,1,1.42,1.42C10.53,16.89,10.54,17,10,17Z"/><path class="cls-4" d="M30,9c-.54,0-.57-.15-2.71-2.29a1,1,0,0,1,1.42-1.42l2,2A1,1,0,0,1,30,9Z"/><path class="cls-4" d="M34,13c-.54,0-.57-.15-2.71-2.29a1,1,0,0,1,1.42-1.42l2,2A1,1,0,0,1,34,13Z"/><path class="cls-4" d="M38,17c-.54,0-.57-.15-2.71-2.29a1,1,0,0,1,1.42-1.42l2,2A1,1,0,0,1,38,17Z"/><path class="cls-6" d="M46,46H2a1,1,0,0,1,0-2H46A1,1,0,0,1,46,46Z"/></g></svg>