<svg xmlns="http://www.w3.org/2000/svg" viewBox="0 0 48 48"><defs><style>.cls-1{fill:#b5e08c;}.cls-2{fill:#9dcc6b;}.cls-3{fill:#fc6;}.cls-4{fill:#ffde76;}.cls-5{fill:#a87e6b;}</style></defs><title>Corn field</title><g id="Corn_field" data-name="Corn field"><path class="cls-1" d="M40,33v6c-2.16-2.69-3.68-4.79-7-7A8.23,8.23,0,0,1,40,33Z"/><path class="cls-2" d="M40,35v4a33.22,33.22,0,0,0-4.84-5.36A8.11,8.11,0,0,1,40,35Z"/><path class="cls-1" d="M47,20c-3.29,2.19-4.82,4.28-7,7V21A8.23,8.23,0,0,1,47,20Z"/><path class="cls-2" d="M44.84,21.64A33.22,33.22,0,0,0,40,27V23A8.11,8.11,0,0,1,44.84,21.64Z"/><path class="cls-2" d="M39,46V16a1,1,0,0,1,2,0V46A1,1,0,0,1,39,46Z"/><path class="cls-1" d="M46,9v2a6,6,0,0,1-6,6V15A6,6,0,0,1,46,9Z"/><path class="cls-1" d="M40,15v2a6,6,0,0,1-6-6V9A6,6,0,0,1,40,15Z"/><path class="cls-2" d="M36,10V9.35A6,6,0,0,0,34,9v2a6,6,0,0,0,9.63,4.77A6,6,0,0,1,36,10Z"/><path class="cls-3" d="M44,8a12,12,0,0,1-.08,1.38A6,6,0,0,0,40,15a6,6,0,0,0-3.92-5.61C35.67,5.78,37.1,1,40,1,42.7,1,44,5.1,44,8Z"/><path class="cls-4" d="M43.94,9.1a6,6,0,0,0-4.44,3.51,5.85,5.85,0,0,0-1.32-1.9c-.55-3.2.2-8.24,2.84-9.47C43.36,2.3,44.25,6.32,43.94,9.1Z"/><path class="cls-1" d="M24,33v6c-2.16-2.69-3.68-4.79-7-7A8.23,8.23,0,0,1,24,33Z"/><path class="cls-2" d="M24,35v4a33.22,33.22,0,0,0-4.84-5.36A8.11,8.11,0,0,1,24,35Z"/><path class="cls-1" d="M31,20c-3.29,2.19-4.82,4.28-7,7V21A8.23,8.23,0,0,1,31,20Z"/><path class="cls-2" d="M28.84,21.64A33.22,33.22,0,0,0,24,27V23A8.11,8.11,0,0,1,28.84,21.64Z"/><path class="cls-2" d="M23,46V16a1,1,0,0,1,2,0V46A1,1,0,0,1,23,46Z"/><path class="cls-1" d="M30,9v2a6,6,0,0,1-6,6V15A6,6,0,0,1,30,9Z"/><path class="cls-1" d="M24,15v2a6,6,0,0,1-6-6V9A6,6,0,0,1,24,15Z"/><path class="cls-2" d="M20,10V9.35A6,6,0,0,0,18,9v2a6,6,0,0,0,9.63,4.77A6,6,0,0,1,20,10Z"/><path class="cls-3" d="M28,8a12,12,0,0,1-.08,1.38A6,6,0,0,0,24,15a6,6,0,0,0-3.92-5.61C19.67,5.78,21.1,1,24,1,26.7,1,28,5.1,28,8Z"/><path class="cls-4" d="M27.94,9.1a6,6,0,0,0-4.44,3.51,5.85,5.85,0,0,0-1.32-1.9c-.55-3.2.2-8.24,2.84-9.47C27.36,2.3,28.25,6.32,27.94,9.1Z"/><path class="cls-1" d="M8,33v6c-2.16-2.69-3.68-4.79-7-7A8.23,8.23,0,0,1,8,33Z"/><path class="cls-2" d="M8,35v4a33.22,33.22,0,0,0-4.84-5.36A8.11,8.11,0,0,1,8,35Z"/><path class="cls-1" d="M15,20c-3.29,2.19-4.82,4.28-7,7V21A8.23,8.23,0,0,1,15,20Z"/><path class="cls-2" d="M12.84,21.64A33.22,33.22,0,0,0,8,27V23A8.11,8.11,0,0,1,12.84,21.64Z"/><path class="cls-2" d="M7,46V16a1,1,0,0,1,2,0V46A1,1,0,0,1,7,46Z"/><path class="cls-1" d="M14,9v2a6,6,0,0,1-6,6V15A6,6,0,0,1,14,9Z"/><path class="cls-1" d="M8,15v2a6,6,0,0,1-6-6V9A6,6,0,0,1,8,15Z"/><path class="cls-2" d="M4,10V9.35A6,6,0,0,0,2,9v2a6,6,0,0,0,9.63,4.77A6,6,0,0,1,4,10Z"/><path class="cls-3" d="M12,8a12,12,0,0,1-.08,1.38A6,6,0,0,0,8,15,6,6,0,0,0,4.08,9.37C3.67,5.78,5.1,1,8,1,10.7,1,12,5.1,12,8Z"/><path class="cls-4" d="M11.94,9.1A6,6,0,0,0,7.5,12.61a5.85,5.85,0,0,0-1.32-1.9c-.55-3.2.2-8.24,2.84-9.47C11.36,2.3,12.25,6.32,11.94,9.1Z"/><path class="cls-5" d="M46,47H2a1,1,0,0,1,0-2H46A1,1,0,0,1,46,47Z"/></g></svg>