<svg xmlns="http://www.w3.org/2000/svg" viewBox="0 0 48 48"><defs><style>.cls-1{fill:#dad7e5;}.cls-2{fill:#edebf2;}.cls-3{fill:#a87e6b;}.cls-4{fill:#be927c;}</style></defs><title>Nanny goat</title><g id="Nanny_goat" data-name="Nanny goat"><path class="cls-1" d="M47,14c0,2.33.13,1.92-.38,2.23a10.87,10.87,0,0,1-7.77,1.32l-2.53,9.18a10.43,10.43,0,0,1-4.82,6A6.86,6.86,0,0,1,30,35v9l1.1.37A2.77,2.77,0,0,1,33,47H26l-.76-13c-3.56,0-6.87.13-11.52-1.72L10,36v8l1.1.37A2.77,2.77,0,0,1,13,47H6L5,34l2-2a9.4,9.4,0,0,1-2-5.73,9.1,9.1,0,0,1,2.71-6.46c2.82-2.75,4.63-2.45,14.65-3.32,3.4-.3,7.49-2.58,10.12-5a8.91,8.91,0,0,1-3-1L33,7h8Z"/><path class="cls-2" d="M47,14c0,2.33.13,1.92-.38,2.23a11,11,0,0,1-6.15,1.54c-.35-.29-.77-.16-2.1-.7a1,1,0,0,0-.74,1.86c.25.1.51.19.76.27l-2.07,7.53a10.43,10.43,0,0,1-4.82,6A6.86,6.86,0,0,1,30,35v9a4.9,4.9,0,0,1,2.14,1,4.47,4.47,0,0,1-3.06-1.21C27.4,42.2,27.72,41.08,27.24,33H25.18L25,29.94A1,1,0,0,0,23.94,29,1,1,0,0,0,23,30.06L23.17,33a23.93,23.93,0,0,1-6.53-1.33A8.36,8.36,0,0,0,18,24.76a1,1,0,0,0-1.94.48,6.31,6.31,0,0,1-1.66,6c-.41.41-.65.58-.65,1.07L10,36v8a4.9,4.9,0,0,1,2.14,1A4.55,4.55,0,0,1,7.6,40.79L7,33l2-2a11.69,11.69,0,0,1-1.39-2.45,9.06,9.06,0,0,1,2.1-9.74,4.67,4.67,0,0,1,3.53-1.53c9.17-.79,11-.48,15.36-3a23.27,23.27,0,0,0,3.45-1.91c.92.42,4.67-.2,3.84-1.85a1,1,0,0,0-1.34-.44c-.88.44-.81.35-3-.61L34,7h7Z"/><path class="cls-1" d="M28.46,14.37c.37-.21.74-.43,1.1-.66A9.42,9.42,0,0,1,28.46,14.37Z"/><path class="cls-1" d="M12.82,46a.05.05,0,0,0,0,0h0A.06.06,0,0,1,12.82,46Z"/><path class="cls-1" d="M32.81,46c.06.17,0,.06,0,0Z"/><path class="cls-3" d="M39,7H34L27,1C31.92,1,35.77,3.15,39,7Z"/><path class="cls-4" d="M39,7c-3.87,0-5.66-2.28-9.81-5.84A15.19,15.19,0,0,1,39,7Z"/><path class="cls-1" d="M7.71,19.81a9.28,9.28,0,0,0-2,3L3.16,21.3a4.46,4.46,0,0,1-1.22-6.56A4.86,4.86,0,0,1,5,13C5,15,4.73,17.82,7.71,19.81Z"/><path class="cls-1" d="M45.9,16.62C45.33,20,45.39,19.7,45,22l-3.39-4.24A10.82,10.82,0,0,0,45.9,16.62Z"/></g></svg>