<svg xmlns="http://www.w3.org/2000/svg" viewBox="0 0 48 48"><defs><style>.cls-1{fill:#919191;}.cls-2{fill:#7c7d7d;}.cls-3{fill:#f6ccaf;}.cls-4{fill:#ffdec7;}.cls-5{fill:#edb996;}</style></defs><title>Ostrich farm</title><g id="Ostrich_farm" data-name="Ostrich farm"><path class="cls-1" d="M37,18v6c0,9-11.92,12.32-15.28,5a6.27,6.27,0,0,0-5.13,2.67A10.89,10.89,0,0,1,13,24l6.87-4a11,11,0,0,1,10.45-.34A1.85,1.85,0,0,0,33,18Z"/><path class="cls-2" d="M16,22.25,13,24a10.85,10.85,0,0,0,3.59,7.67,6.3,6.3,0,0,1,2.79-2.21A10.83,10.83,0,0,1,16,22.25Z"/><path class="cls-2" d="M34.38,30.34C30.6,34.16,24.05,34,21.72,29a6.28,6.28,0,0,0-1.82.28A4.15,4.15,0,0,1,26.16,29,7.49,7.49,0,0,0,34.38,30.34Z"/><path class="cls-2" d="M13.53,27C10.25,27,7,24.57,7,20a6,6,0,0,1,5.66,3.32L13,24A9.35,9.35,0,0,0,13.53,27Z"/><path class="cls-3" d="M19,37l1,7,3,3H17.83a1,1,0,0,1-1-.82L15,36.23c-.07-.37.05-.53.66-2.69a6.27,6.27,0,0,1,6-4.54A6.94,6.94,0,0,0,28,33H24Z"/><path class="cls-3" d="M19,37l1,7,3,3H17.83a1,1,0,0,1-1-.82L15,36.23c-.07-.37.05-.53.66-2.69a6.27,6.27,0,0,1,6-4.54A7.05,7.05,0,0,0,28,33H24Z"/><path class="cls-4" d="M19,37l1,7,1,1a2.41,2.41,0,0,1-2.37-2c-.73-4-2.27-9.43,1.36-12.5a6.76,6.76,0,0,0,3.41,3Z"/><path class="cls-5" d="M30,33l-4,4,1,7,3,3H24.83a1,1,0,0,1-1-.82c-2.16-11.88-2-9.58-1.33-12L24,33h4C30.25,33,30.67,32.33,30,33Z"/><path class="cls-3" d="M27,44l1,1a2.78,2.78,0,0,1-1.81-.66c-1-.84-.89-1.24-2.07-7.69a3.47,3.47,0,0,1,.79-2.74,8.56,8.56,0,0,0,5-.8L26,37Z"/><path class="cls-3" d="M41,7H37V18H33V4a3,3,0,0,1,6,0Z"/><path class="cls-4" d="M41,7H37V18H35V4a3,3,0,0,1,2-2.82A3,3,0,0,1,39,4Z"/><path class="cls-2" d="M28,28H23.39a3.94,3.94,0,0,0,.22.55,1,1,0,0,1-1.41,1.31c-.6-.9-.36-.86-.58-.86-.07-.17-.09-.24-.31-.89-.29-.88-.47-1.21-.12-1.69S21.46,26,28,26A1,1,0,0,1,28,28Z"/></g></svg>