<svg xmlns="http://www.w3.org/2000/svg" viewBox="0 0 48 48"><defs><style>.cls-1{fill:#9fdbf3;}.cls-2{fill:#b2e5fb;}.cls-3{fill:#fc6;}.cls-4{fill:#8bd1ea;}.cls-5{fill:#7c7d7d;}.cls-6{fill:#919191;}.cls-7{fill:#c6c3d8;}.cls-8{fill:#dad7e5;}</style></defs><title>Solar panel</title><g id="Solar_panel" data-name="Solar panel"><path class="cls-1" d="M13,31c-.41,3.45-.3,2.48-.84,7H1c1.27-7,1-5.63,1.27-7Z"/><path class="cls-2" d="M13,31l-.6,5H9.08a4.25,4.25,0,0,1-4.17-5Z"/><path class="cls-1" d="M24,31v7H12.12c.57-4.75.39-3.28.84-7Z"/><path class="cls-2" d="M24,31v5H17.4A4.47,4.47,0,0,1,13,31Z"/><path class="cls-1" d="M35.88,38H24V31H35C35.26,32.79,35.66,36.2,35.88,38Z"/><path class="cls-2" d="M35.64,36H29a5,5,0,0,1-5-5c0-.1-.57,0,11,0Z"/><path class="cls-1" d="M47,38H35.88c-.22-1.8-.62-5.21-.84-7H45.73C46.27,34,46.19,33.53,47,38Z"/><path class="cls-2" d="M46.64,36H40.92a5.68,5.68,0,0,1-5.64-5c0-.1-.52,0,10.45,0Z"/><path class="cls-1" d="M45.73,31H35l-1-8H44.27C44.72,25.5,45.27,28.44,45.73,31Z"/><path class="cls-2" d="M45.73,31H43.1a9.09,9.09,0,0,1-9-8c0-.1-.51,0,10.19,0Z"/><path class="cls-1" d="M44.27,23H34.08c-.22-1.79-.62-5.2-.84-7H43C44.27,23,44,21.63,44.27,23Z"/><path class="cls-2" d="M44.27,23H41.13a8,8,0,0,1-7.89-7c0-.1-.49,0,9.76,0Z"/><path class="cls-1" d="M34.08,23H24V16h9.24C33.46,17.8,33.86,21.21,34.08,23Z"/><path class="cls-2" d="M34.08,23H31a7,7,0,0,1-7-7c0-.1-.58,0,9.24,0Z"/><path class="cls-1" d="M24,16v7H13.92c.22-1.79.62-5.2.84-7Z"/><path class="cls-2" d="M24,16v7H21a6.25,6.25,0,0,1-6.21-7Z"/><path class="cls-1" d="M14.76,16c-.22,1.8-.62,5.21-.84,7H3.73c.24-1.33,0-.09,1.27-7Z"/><path class="cls-2" d="M14.76,16l-.84,7A5.94,5.94,0,0,1,8,16Z"/><path class="cls-1" d="M13.92,23l-1,8H2.27c.46-2.54,1-5.52,1.46-8Z"/><path class="cls-2" d="M13.92,23c-1,8.45-1.06,8-1,8-3.71,0-7.11-3.18-6.23-8Z"/><polygon class="cls-1" points="24 23 24 31 12.96 31 13.92 23 24 23"/><path class="cls-2" d="M24,23v8H21a7.15,7.15,0,0,1-7.1-8Z"/><polygon class="cls-1" points="35.04 31 24 31 24 23 34.08 23 35.04 31"/><path class="cls-2" d="M35,31H32a8,8,0,0,1-8-8c0-.1-.62,0,10.08,0Z"/><path class="cls-3" d="M33,16H15a9,9,0,0,1,18,0Z"/><path class="cls-3" d="M23,4V2a1,1,0,0,1,2,0V4A1,1,0,0,1,23,4Z"/><path class="cls-3" d="M32.19,8.81a1,1,0,0,1-.7-1.71L32.9,5.69A1,1,0,0,1,34.31,7.1C32.78,8.64,32.72,8.81,32.19,8.81Z"/><path class="cls-3" d="M15.81,8.81c-.6,0-.83-.42-2.12-1.71A1,1,0,0,1,15.1,5.69L16.51,7.1A1,1,0,0,1,15.81,8.81Z"/><path class="cls-4" d="M45.91,32l-.36-2H35.92l-.72-6h9.25l-.36-2H35l-.72-6h-2L33,22H25V16H23v6H15l.72-6h-2L13,22H3.91l-.36,2H12.8l-.72,6H2.45l-.36,2h9.75l-.72,6h2l.72-6H23v6h2V32h9.16l.72,6h2l-.72-6ZM14.08,30l.72-6H23v6ZM25,30V24h8.2l.72,6Z"/><rect class="cls-5" x="1" y="38" width="46" height="4"/><path class="cls-6" d="M47,38v2H6a2,2,0,0,1-2-2Z"/><rect class="cls-7" x="4" y="42" width="8" height="5"/><path class="cls-8" d="M12,44v3H6a3,3,0,0,1,3-3Z"/><rect class="cls-7" x="36" y="42" width="8" height="5"/><path class="cls-8" d="M44,44v3H38a3,3,0,0,1,3-3Z"/></g></svg>