<svg xmlns="http://www.w3.org/2000/svg" viewBox="0 0 48 48"><defs><style>.cls-1{fill:#dad7e5;}.cls-2{fill:#6fabe6;}.cls-3{fill:#7c7d7d;}.cls-4{fill:#919191;}.cls-5{fill:#c6c3d8;}.cls-6{fill:#9dcc6b;}.cls-7{fill:#84b749;}.cls-8{fill:#b5e08c;}.cls-9{fill:#a87e6b;}</style></defs><title>Watering system from below</title><g id="Watering_system_from_below" data-name="Watering system from below"><path class="cls-1" d="M29,15H19a1,1,0,0,0,0,2h2.59C19.13,19.46,19,19.45,19,20v5a1,1,0,0,0,2,0V20.41l3-3,3,3V25a1,1,0,0,0,2,0V20c0-.55-.13-.54-2.59-3H29A1,1,0,0,0,29,15Z"/><path class="cls-2" d="M23,25V21a1,1,0,0,1,2,0v4A1,1,0,0,1,23,25Z"/><rect class="cls-3" x="19" y="35" width="10" height="12"/><path class="cls-4" d="M29,35c0,8.55-.1,8,0,8a8,8,0,0,1-8-8Z"/><rect class="cls-5" x="21" y="29" width="6" height="6"/><path class="cls-1" d="M27,31v2H24a1,1,0,0,1,0-2Z"/><rect class="cls-5" x="19" y="25" width="10" height="4"/><path class="cls-1" d="M29,25v4H25a4,4,0,0,1-4-4Z"/><path class="cls-6" d="M40,46.86c-1.32,0-2.4-2.68-2.4-6,0-1.95.62-6,2.4-6C43.12,34.89,43.21,46.86,40,46.86Z"/><path class="cls-7" d="M40,46.86c-1.15.66-3.41-1.12-5.07-4-3.3-5.72-1-9,2.85-4.26C37.25,41.72,38,46.86,40,46.86Z"/><path class="cls-8" d="M45.07,42.87c-1.66,2.87-3.92,4.65-5.07,4,2.08,0,2.73-5.27,2.22-8.25C46.08,33.86,48.36,37.16,45.07,42.87Z"/><path class="cls-6" d="M8,46.86c-1.32,0-2.4-2.68-2.4-6,0-1.95.62-6,2.4-6C11.12,34.89,11.21,46.86,8,46.86Z"/><path class="cls-7" d="M8,46.86c-1.15.66-3.41-1.12-5.07-4-3.3-5.72-1-9,2.85-4.26C5.25,41.72,6,46.86,8,46.86Z"/><path class="cls-8" d="M13.07,42.87c-1.66,2.87-3.92,4.65-5.07,4,2.08,0,2.73-5.27,2.22-8.25C14.08,33.86,16.36,37.16,13.07,42.87Z"/><path class="cls-2" d="M34.5,1A9.51,9.51,0,0,0,25,10.5V12a1,1,0,0,0,2,0V10.5a7.5,7.5,0,0,1,15,0V18a1,1,0,0,0,2,0V10.5A9.51,9.51,0,0,0,34.5,1Z"/><path class="cls-2" d="M34.5,5A5.51,5.51,0,0,0,29,10.5V12a1,1,0,0,0,2,0V10.5a3.5,3.5,0,0,1,7,0V18a1,1,0,0,0,2,0V10.5A5.51,5.51,0,0,0,34.5,5Z"/><path class="cls-2" d="M38,22v2a1,1,0,0,0,2,0V22A1,1,0,0,0,38,22Z"/><path class="cls-2" d="M42,24v2a1,1,0,0,0,2,0V24A1,1,0,0,0,42,24Z"/><path class="cls-2" d="M13.5,1A9.51,9.51,0,0,0,4,10.5V18a1,1,0,0,0,2,0V10.5a7.5,7.5,0,0,1,15,0V12a1,1,0,0,0,2,0V10.5A9.51,9.51,0,0,0,13.5,1Z"/><path class="cls-2" d="M13.5,5A5.51,5.51,0,0,0,8,10.5V18a1,1,0,0,0,2,0V10.5a3.5,3.5,0,0,1,7,0V12a1,1,0,0,0,2,0V10.5A5.51,5.51,0,0,0,13.5,5Z"/><path class="cls-2" d="M8,22v2a1,1,0,0,0,2,0V22A1,1,0,0,0,8,22Z"/><path class="cls-2" d="M4,24v2a1,1,0,0,0,2,0V24A1,1,0,0,0,4,24Z"/><path class="cls-9" d="M46,47H2a1,1,0,0,1,0-2H46A1,1,0,0,1,46,47Z"/></g></svg>