<svg xmlns="http://www.w3.org/2000/svg" viewBox="0 0 48 48"><defs><style>.cls-1{fill:#df8761;}.cls-2{fill:#f29b75;}.cls-3{fill:#fc6;}.cls-4{fill:#ffde76;}.cls-5{fill:#db5669;}.cls-6{fill:#f26674;}.cls-7{fill:#6fabe6;}.cls-8{fill:#82bcf4;}.cls-9{fill:#7c7d7d;}</style></defs><title>Scarecrow</title><g id="Scarecrow"><path class="cls-1" d="M33,10v2H15V10a2,2,0,0,1,2-2H31A2,2,0,0,1,33,10Z"/><path class="cls-2" d="M33,10H20a2,2,0,0,1-2-2c0-.1-.66,0,13,0A2,2,0,0,1,33,10Z"/><path class="cls-1" d="M30,3V8H18V3a2,2,0,0,1,2-2h8A2,2,0,0,1,30,3Z"/><path class="cls-2" d="M30,3V6H26a5,5,0,0,1-5-5h7A2,2,0,0,1,30,3Z"/><path class="cls-3" d="M29,12c0,3,.16,4-.6,5.37A5,5,0,0,1,20,18c-1.26-1.66-1-3.15-1-6Z"/><path class="cls-4" d="M29,14a6,6,0,0,1-.6,3.37A4.93,4.93,0,0,1,25,19.89C21.09,19.12,19.91,14,22,14Z"/><path class="cls-5" d="M15,18.67c0,8.54.13,6.68-.39,9.29L5,27V20Z"/><path class="cls-6" d="M13,18.94V25.6l-.76-.08A5.82,5.82,0,0,1,7,19.73Z"/><polygon class="cls-7" points="19 18.13 19 26 15 26 15 18.67 19 18.13"/><path class="cls-7" d="M33,47H15c-1.15-18.47-1.33-14.31,0-21H33C34.3,32.52,34.19,28.73,33,47Z"/><path class="cls-8" d="M33.13,45H31c-8.24,0-15.76-7.07-13.37-19H33C34.33,32.69,34.13,28.83,33.13,45Z"/><path class="cls-3" d="M3,25H5V21H3A2,2,0,0,0,3,25Z"/><path class="cls-5" d="M29,18.13V26H19V18.13L20,18a5,5,0,0,0,8,0Z"/><path class="cls-6" d="M27,19v7H19V20a5,5,0,0,0,6.18-.12A5,5,0,0,0,27,19Z"/><path class="cls-6" d="M43,20v7l-9.61,1c-.52-2.61-.39-.77-.39-9.29Z"/><polygon class="cls-8" points="33 18.67 33 26 29 26 29 18.13 33 18.67"/><path class="cls-4" d="M45,25H43V21h2A2,2,0,0,1,45,25Z"/><polygon class="cls-3" points="21 35 21 41 14.63 41 14.25 35 21 35"/><path class="cls-9" d="M17,35V33a1,1,0,0,1,2,0v2A1,1,0,0,1,17,35Z"/><path class="cls-9" d="M23,39H21a1,1,0,0,1,0-2h2A1,1,0,0,1,23,39Z"/><path class="cls-9" d="M17,43V41a1,1,0,0,1,2,0v2A1,1,0,0,1,17,43Z"/></g></svg>