<svg xmlns="http://www.w3.org/2000/svg" viewBox="0 0 48 48"><defs><style>.cls-1{fill:#db5669;}.cls-2{fill:#f26674;}.cls-3{fill:#6fabe6;}.cls-4{fill:#edb996;}.cls-5{fill:#f6ccaf;}.cls-6{fill:#df8761;}.cls-7{fill:#f29b75;}.cls-8{fill:#ffdec7;}.cls-9{fill:#82bcf4;}</style></defs><title>Farmer Boy</title><g id="Farmer_Boy" data-name="Farmer Boy"><path class="cls-1" d="M45,40.77V47H3V40.77a10,10,0,0,1,6.29-9.28L18,28l1.44,1.69a6,6,0,0,0,9.12,0L30,28l8.71,3.49A10,10,0,0,1,45,40.77Z"/><path class="cls-1" d="M3.11,39.26a10.32,10.32,0,0,1,.31-1.36A12.2,12.2,0,0,0,3.11,39.26Z"/><path class="cls-1" d="M3.45,37.8A8.58,8.58,0,0,1,4,36.53,10.81,10.81,0,0,0,3.45,37.8Z"/><path class="cls-2" d="M12,30.4V38L9,42v2.1c-4.37-2.64-3.64-8.83,0-12.5Z"/><path class="cls-2" d="M28,30.25V38H16V28.8l2-.8,1.44,1.69A6,6,0,0,0,28,30.25Z"/><path class="cls-2" d="M45,40.77V45H35V42l-3-4V28.8l6.71,2.69A10,10,0,0,1,45,40.77Z"/><polygon class="cls-3" points="37 42 37 47 11 47 11 42 14 38 14 29.6 18 28 18 38 30 38 30 28 34 29.6 34 38 37 42"/><path class="cls-4" d="M30,24.7c0,3.67,0,3.26-.09,3.4l-1.35,1.59a6,6,0,0,1-7.93,1A12.84,12.84,0,0,1,18,28V24.7A9,9,0,0,0,30,24.7Z"/><path class="cls-5" d="M28.56,29.69a6,6,0,0,1-7.93,1L20,30h0a1.83,1.83,0,0,1,2.5-1.71C28.51,30.83,32,25.66,28.56,29.69Z"/><path class="cls-5" d="M35,17H33V13h2a2,2,0,0,1,0,4Z"/><path class="cls-5" d="M13,17h2V13H13a2,2,0,0,0-2,2h0A2,2,0,0,0,13,17Z"/><path class="cls-6" d="M38,13H10a4,4,0,0,1,4-4H34A4,4,0,0,1,38,13Z"/><path class="cls-7" d="M37.46,11H14.38a1.13,1.13,0,0,1-1.06-1.55C13.59,8.8,12.3,9,34,9A4,4,0,0,1,37.46,11Z"/><path class="cls-6" d="M33,9H15V3.22A2.21,2.21,0,0,1,17.22,1c2.49,0,5.5,2.43,8,1.58l4-1.33c2.28-.76,3.74.39,3.74,2Z"/><path class="cls-7" d="M33,7H20a2,2,0,0,1-2-2c0-1.53-.25-2.84,1-3.65l3.7,1.23c3.24,1.07,7.4-3.14,9.61-.93C33.21,2.51,33,3.2,33,7Z"/><path class="cls-5" d="M33,13c0,4.86.6,8.49-3,11.7A9,9,0,0,1,15,18V13Z"/><path class="cls-8" d="M33,15c0,2.89.6,8.07-4.73,10.91C19.14,27.25,15.27,15,20,15Z"/><path class="cls-9" d="M37,42v3H16.3a2.3,2.3,0,0,1-1.91-3.58c2.12-3.19,1.61-1,1.61-12.62l2-.8V38H30V28l4,1.6V38Z"/></g></svg>