<svg xmlns="http://www.w3.org/2000/svg" viewBox="0 0 48 48"><defs><style>.cls-1{fill:#a87e6b;}.cls-2{fill:#be927c;}.cls-3{fill:#a07765;}</style></defs><title>Cow</title><g id="Cow"><path class="cls-1" d="M1,33V22a9,9,0,0,1,7.19-8.82,1,1,0,0,1,.4,2A7,7,0,0,0,3,22V33A1,1,0,0,1,1,33Z"/><path class="cls-1" d="M47,15.77c0,2.22-3.12,3.2-5.3,2.65L40,18a34.49,34.49,0,0,1-6.66,12.59c-.47.57-.34-.8-.34,8.41a6.14,6.14,0,0,1,2.34,2.36A5.67,5.67,0,0,1,36,44H32l-3-3c0-8.9.08-8.8-.24-9.94a32,32,0,0,1-16,.13c-1,1.25-1.6,1.55-4.76,3.81v4a6.14,6.14,0,0,1,2.34,2.36A5.67,5.67,0,0,1,11,44H7L4,41V33a3.41,3.41,0,0,0,.84-4.88C3.72,26.64,4,26,4,17.59A4.57,4.57,0,0,1,8.73,13c1.31,0,9.7,2.25,21.89.22L33,13a4.39,4.39,0,0,1-3-4.16V7c1.95,0,3.5-.21,5,1.34L37,7h4C46.94,14.92,47,14.73,47,15.77Z"/><path class="cls-2" d="M47,15.77c0,2.19-3,3.16-5.15,2.68L40,18a34.48,34.48,0,0,1-6.66,12.59c-.47.57-.34-.8-.34,8.41a6.06,6.06,0,0,1,2.39,2.45l-.32.55H32.71A1.7,1.7,0,0,1,31,40.29c0-7.26.11-8-.24-9.23-.92.23-.94.24-1.9.43-.29-2-2.23-5.54-3.57-4.2a1,1,0,0,0,0,1.42,6,6,0,0,1,1.57,2.78,31.49,31.49,0,0,1-12.16.12A10.7,10.7,0,0,0,17,25a1,1,0,0,0-2,0c0,3.92-2.24,5.31-2.24,6.19-1,1.25-1.6,1.55-4.76,3.81v4a6.06,6.06,0,0,1,2.39,2.45l-.32.55H7.71A1.7,1.7,0,0,1,6,40.29V33a3.42,3.42,0,0,0,1.52-2.84C7.52,28.1,6,28,6,25.61c0-8.14-.43-9.5,1.34-11.27a4.48,4.48,0,0,1,2.34-1.23c10.89,2,17.91.41,23.32-.11a4.39,4.39,0,0,1-3-4.16V7c1.95,0,3.5-.21,5,1.34L37,7h4C46.94,14.92,47,14.73,47,15.77Z"/><path class="cls-1" d="M29,32.16c0-.23-.06-.45-.11-.67h0A5.16,5.16,0,0,1,29,32.16Z"/><path class="cls-1" d="M41.85,18.45,40,18c-.1.37-.22.73-.33,1.09l-1.38-1.38a1,1,0,0,1,1.42-1.42C42.1,18.68,41.83,18.43,41.85,18.45Z"/><path class="cls-3" d="M34,10a1,1,0,0,1-.58-1.81l7-5a1,1,0,0,1,1.16,1.62C34.06,10.19,34.46,10,34,10Z"/></g></svg>