<svg xmlns="http://www.w3.org/2000/svg" viewBox="0 0 48 48"><defs><style>.cls-1{fill:#7c7d7d;}.cls-2{fill:#919191;}.cls-3{fill:#dad7e5;}.cls-4{fill:#edebf2;}.cls-5{fill:#a87e6b;}.cls-6{fill:#df8761;}.cls-7{fill:#f29b75;}.cls-8{fill:#6fabe6;}.cls-9{fill:#82bcf4;}.cls-10{fill:#8bd1ea;}.cls-11{fill:#9fdbf3;}.cls-12{fill:#be927c;}</style></defs><title>Water mill</title><g id="Water_mill" data-name="Water mill"><rect class="cls-1" x="1" y="32" width="46" height="15"/><path class="cls-2" d="M6.13,35a15.87,15.87,0,0,0,2,5.91l-.38.38a2.41,2.41,0,0,1-3.42,0C3.88,40.88,4,41.85,4,35Z"/><path class="cls-2" d="M47,32V47H45c0-6.6.24-4.76-.71-5.71l-.58-.58A2.41,2.41,0,0,0,42,40a3.09,3.09,0,0,0-2.29,1.29,2.41,2.41,0,0,1-3.42,0,8.93,8.93,0,0,0-.76-.74A2.41,2.41,0,0,0,33,40.2a4.23,4.23,0,0,0-1.32,1.09,2.41,2.41,0,0,1-3.42,0l-.58-.58A2.41,2.41,0,0,0,26,40a3.09,3.09,0,0,0-2.29,1.29,2.41,2.41,0,0,1-3.42,0l-.58-.58A2.41,2.41,0,0,0,18,40a3.09,3.09,0,0,0-2.29,1.29,2.41,2.41,0,0,1-3.42,0,6,6,0,0,0-.72-.69L17.18,35H18a17.42,17.42,0,0,1,.08-2.77C18.17,31.89,15.94,32,47,32Z"/><rect class="cls-3" x="1" y="1" width="46" height="31"/><path class="cls-4" d="M47,1V32c-28,0-29,.11-28.86,0a0,0,0,0,1,0,0,4.25,4.25,0,0,1,.39-.94,4.19,4.19,0,0,1,.73-.91A4.26,4.26,0,0,1,21,29.14a3.77,3.77,0,0,1,2,0c.1,0,0,.06,1-1V17a4,4,0,0,0-4-4v4.13a15.87,15.87,0,0,0-7.81,3.23,4,4,0,0,0-5.75-.09l2.92,2.92A15.87,15.87,0,0,0,6.13,31,4,4,0,0,0,4,31.54V1Z"/><path class="cls-5" d="M39.88,34a15.9,15.9,0,0,1-2.35,6.55A2.41,2.41,0,0,0,35,40.2L28.82,34Z"/><path class="cls-5" d="M39.88,30H28.82l7.82-7.81A16,16,0,0,1,39.88,30Z"/><path class="cls-5" d="M22,16.13V27.18l-7.81-7.82A15.87,15.87,0,0,1,22,16.13Z"/><path class="cls-5" d="M19.18,34,13,40.2a2.41,2.41,0,0,0-2.5.35A15.89,15.89,0,0,1,8.13,34Z"/><path class="cls-6" d="M26,16V27.18l-.93.94c-.15.15-.59-.35-2.08,0a3.47,3.47,0,0,0-1,.4c-.1,0,0,.2,0-16.54A4,4,0,0,1,26,16Z"/><path class="cls-7" d="M26,16V27.18c-2.61,2.64-2,1.4-2-14.64A4,4,0,0,1,26,16Z"/><path class="cls-5" d="M33.81,19.36,26,27.18v-11A15.87,15.87,0,0,1,33.81,19.36Z"/><path class="cls-7" d="M36.73,22.1,28.82,30c-1.91,0-1,.19-1.9-.73a4.16,4.16,0,0,0-1.87-1.13c1.86-1.88,9.77-9.79,11.68-11.7A4,4,0,0,1,36.73,22.1Z"/><path class="cls-6" d="M36.73,22.1,28.82,30c-1.91,0-1,.19-1.9-.73C28.18,28,37.7,18.47,37.8,18.37A4,4,0,0,1,36.73,22.1Z"/><path class="cls-7" d="M44,30a4,4,0,0,1-4,4H28.82L28,33.18A5.41,5.41,0,0,0,27.46,30C27.46,29.91,27.26,30,44,30Z"/><path class="cls-6" d="M43.46,32A4,4,0,0,1,40,34H28.82L28,33.18V32Z"/><path class="cls-7" d="M35,40.2c-1.18.53-1.35,1.8-3,1.8-2,0-2-2-4-2V33.18Z"/><path class="cls-6" d="M33.39,41.56a2.41,2.41,0,0,1-3.1-.27l-.58-.58A2.41,2.41,0,0,0,28,40V36.18Z"/><path class="cls-6" d="M20.08,31.23A17.59,17.59,0,0,0,20,34H4a4,4,0,0,1,4-4H19.18C20.32,31.14,20.17,30.87,20.08,31.23Z"/><path class="cls-5" d="M19.18,30h-11a15.87,15.87,0,0,1,3.23-7.81Z"/><path class="cls-6" d="M22,27.18v1.36a4.07,4.07,0,0,0-1.85,2.4c-.1.1.7.74-11.71-11.67a4,4,0,0,1,5.75.09Z"/><path class="cls-7" d="M22,27.18c0,2.15.14,1-.73,1.91L10.37,18.2a4,4,0,0,1,3.73,1.07Z"/><path class="cls-1" d="M28,32a4,4,0,0,1-7.46,2h0a4,4,0,0,1,0-4,3.83,3.83,0,0,1,1.05-1.2s.4-.26.41-.27a4,4,0,0,1,3-.4h0A4,4,0,0,1,27.46,30,4.17,4.17,0,0,1,28,32Z"/><path class="cls-2" d="M26.72,34.93A4,4,0,0,1,22.54,29c.1-.1.47-.79.75-.93a4,4,0,0,1,1.76.07h0A4,4,0,0,1,26.72,34.93Z"/><path class="cls-1" d="M28,32v8a3.09,3.09,0,0,0-2.29,1.29,2.41,2.41,0,0,1-3.42,0L22,41a2.51,2.51,0,0,0-2-1c0-10.67-.05-7.74.08-7.23A3.88,3.88,0,0,0,20.54,34,4,4,0,0,0,28,32Z"/><path class="cls-6" d="M20,34v6c-2,0-2,2-4,2-1.68,0-1.85-1.28-3-1.8L19.18,34Z"/><path class="cls-7" d="M18,35.18v3l-3.39,3.38c-.61-.45-.89-1-1.64-1.36Z"/><path class="cls-8" d="M47,41.78V47H1V42l1.29-1.29a2.41,2.41,0,0,1,3.42,0l.58.58A2.41,2.41,0,0,0,8,42a3.09,3.09,0,0,0,2.29-1.29,2.41,2.41,0,0,1,3.42,0l.58.58A2.41,2.41,0,0,0,16,42a3.09,3.09,0,0,0,2.29-1.29,2.41,2.41,0,0,1,3.42,0l.58.58A2.41,2.41,0,0,0,24,42a3.09,3.09,0,0,0,2.29-1.29,2.41,2.41,0,0,1,3.42,0l.58.58A2.41,2.41,0,0,0,32,42c2,0,2-2,4-2s2,2,4,2a3.09,3.09,0,0,0,2.29-1.29,2.41,2.41,0,0,1,3.42,0A4.21,4.21,0,0,0,47,41.78Z"/><path class="cls-9" d="M47,41.78V45H9a5,5,0,0,1-5-5,3.09,3.09,0,0,1,2.29,1.29,2.41,2.41,0,0,0,3.42,0,8.93,8.93,0,0,1,.76-.74A2.41,2.41,0,0,1,13,40.2a4.23,4.23,0,0,1,1.32,1.09,2.41,2.41,0,0,0,3.42,0l.58-.58A2.41,2.41,0,0,1,20,40a3.09,3.09,0,0,1,2.29,1.29,2.41,2.41,0,0,0,3.42,0l.58-.58A2.41,2.41,0,0,1,28,40a3.09,3.09,0,0,1,2.29,1.29,2.41,2.41,0,0,0,3.42,0A4.17,4.17,0,0,1,35,40.2c1.65-.72,2.66.49,3.26,1.09a2.41,2.41,0,0,0,3.42,0l.58-.58A2.41,2.41,0,0,1,44,40C45.64,40,45.91,41.28,47,41.78Z"/><path class="cls-3" d="M25,32a1,1,0,0,0-2,0A1,1,0,0,0,25,32Z"/><rect class="cls-10" x="3" y="5" width="6" height="8"/><rect class="cls-10" x="39" y="5" width="6" height="8"/><path class="cls-11" d="M45,5c0,8.55-.1,8,0,8a4,4,0,0,1-4-4V5Z"/><path class="cls-11" d="M9,5c0,8.55-.1,8,0,8A4,4,0,0,1,5,9V5Z"/><path class="cls-2" d="M28,32v8a3.09,3.09,0,0,0-2.29,1.29,2.41,2.41,0,0,1-3.42,0c-.41-.41-.29.52-.29-5.83A4,4,0,0,0,28,32Z"/><path class="cls-12" d="M17.18,36l-3.82,3.81A15.48,15.48,0,0,1,11.17,36Z"/><path class="cls-12" d="M16.18,30H10a15.9,15.9,0,0,1,.89-5.28Z"/><path class="cls-12" d="M20,16.51v8.67l-5.81-5.82A15.86,15.86,0,0,1,20,16.51Z"/><path class="cls-12" d="M33.81,19.36,26,27.18v-11A15.87,15.87,0,0,1,33.81,19.36Z"/><path class="cls-12" d="M39.49,36a15.63,15.63,0,0,1-2,4.55A2.41,2.41,0,0,0,35,40.2L30.82,36Z"/><path class="cls-12" d="M39.88,30H31.82l6-6A15.88,15.88,0,0,1,39.88,30Z"/><path class="cls-7" d="M19.27,30.09a4.13,4.13,0,0,0-1.12,1.85c-.13.13,1.43.06-13.61.06,1.48-2.62,3.4-2,14.64-2Z"/></g></svg>