<svg xmlns="http://www.w3.org/2000/svg" viewBox="0 0 48 48"><defs><style>.cls-1{fill:#fc6;}.cls-2{fill:#ffde76;}.cls-3{fill:#ffba55;}</style></defs><title>Hay</title><g id="Hay"><circle class="cls-1" cx="34" cy="31" r="13"/><path class="cls-2" d="M47,31a12.93,12.93,0,0,1-4.39,9.73A13,13,0,0,1,37,42c-12,0-17.52-14.88-8.61-22.73A13,13,0,0,1,47,31Z"/><path class="cls-3" d="M21,31a13,13,0,0,0,6.08,11H3.89A2.88,2.88,0,0,1,1,39.11c0-4.46,2.6-19.82,7.48-28.5s18.1-8.89,23.12.16A44.83,44.83,0,0,1,34.76,18,13,13,0,0,0,21,31Z"/><path class="cls-1" d="M34.76,18a9.56,9.56,0,0,0-1.78,0A8.79,8.79,0,0,0,32,18,13,13,0,0,0,21.33,38.43,1,1,0,0,1,20.52,40c-15,0-14.54.28-15.68-.84A2.89,2.89,0,0,1,4,36.89C4.67,28.63,8,10.79,14.18,5.32A13.11,13.11,0,0,1,20,4,13.26,13.26,0,0,1,31.6,10.77,44.83,44.83,0,0,1,34.76,18Z"/><path class="cls-3" d="M32.29,8.29l-3,3A1,1,0,0,0,30,13c.55,0,.43,0,3.71-3.29A1,1,0,0,0,32.29,8.29Z"/><path class="cls-3" d="M18.29,16.29l-2,2a1,1,0,0,0,1.42,1.42l2-2A1,1,0,0,0,18.29,16.29Z"/><path class="cls-3" d="M10.21,5.79A1,1,0,0,0,8.79,7.21C11.49,9.91,11.45,10,12,10a1,1,0,0,0,.71-1.71Z"/><path class="cls-3" d="M5,23H2a1,1,0,0,0,0,2H5A1,1,0,0,0,5,23Z"/><path class="cls-3" d="M10.29,33.29l-2,2a1,1,0,0,0,1.42,1.42l2-2A1,1,0,0,0,10.29,33.29Z"/><path class="cls-3" d="M17.71,40.29a1,1,0,0,0-1.42,1.42C18.47,43.89,18.46,44,19,44a1,1,0,0,0,.71-1.71Z"/><path class="cls-3" d="M19,3V6a1,1,0,0,0,2,0V3A1,1,0,0,0,19,3Z"/><path class="cls-1" d="M34,24a4,4,0,0,0,0,8,1,1,0,0,0,0-2,2,2,0,0,1-2-2c0-3.6,7-2.12,7,3a5,5,0,0,1-10,0,1,1,0,0,0-1-1c-2.56,0-.34,8,6,8a7,7,0,0,0,0-14Z"/><path class="cls-1" d="M43.29,19.29l-2.5,2.5a1,1,0,0,0,.71,1.71c.56,0,.54-.13,3.21-2.79A1,1,0,0,0,43.29,19.29Z"/><path class="cls-1" d="M23,28H20a1,1,0,0,0,0,2h3A1,1,0,0,0,23,28Z"/><path class="cls-1" d="M35.71,41.29a1,1,0,0,0-1.42,1.42C37.41,45.82,37.42,46,38,46a1,1,0,0,0,.71-1.71Z"/><path class="cls-1" d="M29,21a1,1,0,0,0,.71-1.71l-2-2a1,1,0,0,0-1.42,1.42C28.47,20.89,28.46,21,29,21Z"/></g></svg>