<svg xmlns="http://www.w3.org/2000/svg" viewBox="0 0 48 48"><defs><style>.cls-1{fill:#374f68;}.cls-2{fill:#b2e5fb;}.cls-3{fill:#6fabe6;}.cls-4{fill:#9fdbf3;}.cls-5{fill:#425b72;}.cls-6{fill:#8bd1ea;}.cls-7{fill:#fc6;}.cls-8{fill:#ffde76;}.cls-9{fill:#db5669;}.cls-10{fill:#f26674;}.cls-11{fill:#82bcf4;}</style></defs><title>Greenhouse termometer</title><g id="Greenhouse_termometer" data-name="Greenhouse termometer"><path class="cls-1" d="M6,10c-1,0-.83-.32-2.95-6.68A1,1,0,0,1,5,2.68l2,6A1,1,0,0,1,6,10Z"/><path class="cls-2" d="M16,4H2A1,1,0,0,1,2,2H16A1,1,0,0,1,16,4Z"/><path class="cls-3" d="M34.57,5.18a6,6,0,0,0-3.52,2.43A17,17,0,0,0,5.1,20.17a2,2,0,0,1-4-.34A21,21,0,0,1,34.57,5.18Z"/><path class="cls-4" d="M31.05,7.61C29.64,9.72,30,9.68,30,26.78A11,11,0,0,0,27.53,43H5c0-24.22-.07-21.89.12-23A17,17,0,0,1,30,7C30.78,7.43,31,7.56,31.05,7.61Z"/><path class="cls-1" d="M36,47H4a2,2,0,0,1,0-4H27.53A10.92,10.92,0,0,0,36,47Z"/><path class="cls-5" d="M27.69,45H7a2,2,0,0,1-2-2H25.53A11.38,11.38,0,0,0,27.69,45Z"/><path class="cls-2" d="M28.62,8.35C27.75,10.09,28,9.91,28,26.78a11,11,0,0,0-3.85,14.1c-9.53-1.06-17.7-9.47-16-22.71C9.85,7.71,20.69,5,28.62,8.35Z"/><path class="cls-6" d="M31,7.58A7.24,7.24,0,0,0,30,11V26.78a10.33,10.33,0,0,0-1,.74V22H15V43H13V22H5V20.62c.3-.84-1.08-.62,8-.62V7.58a16,16,0,0,1,2-1.07V20H29V6.5A18.31,18.31,0,0,1,31,7.58Z"/><path class="cls-7" d="M47,36a11,11,0,1,1-17-9.22c0-17-.35-17.13,1.05-19.17A6,6,0,0,1,42,11V26.78A11,11,0,0,1,47,36Z"/><path class="cls-8" d="M43.51,44A11,11,0,0,1,39,45c-10,0-14.92-12.5-7.28-19.24A3.9,3.9,0,0,0,33,22.82c0-14.67-.43-15.44,1.32-17.57C37.6,4,42,6.72,42,11V26.78A11,11,0,0,1,43.51,44Z"/><path class="cls-9" d="M43,36a7,7,0,1,1-9-6.71V12a2,2,0,0,1,3.41-1.41c.84.82.59.19.59,18.7A7,7,0,0,1,43,36Z"/><path class="cls-10" d="M37,42.92a7,7,0,0,1-2.11-13.19A1.94,1.94,0,0,0,36,28V12a2,2,0,0,1,1-1.73A2,2,0,0,1,38,12V29.29C45.18,31.43,44.38,41.9,37,42.92Z"/><path class="cls-11" d="M34.34,5a5.74,5.74,0,0,0-2.89.56,21,21,0,0,0-25,2.32A21,21,0,0,1,34.34,5Z"/></g></svg>