<svg xmlns="http://www.w3.org/2000/svg" viewBox="0 0 48 48"><defs><style>.cls-1{fill:#f6ccaf;}.cls-2{fill:#df8761;}.cls-3{fill:#edb996;}.cls-4{fill:#f29b75;}</style></defs><title>Horse</title><g id="Horse"><path class="cls-1" d="M6,28a2,2,0,0,0-2,2c0,2.79.25,4-.88,5.15A3,3,0,0,1,1,36V25.06A7.07,7.07,0,0,1,8.06,18,7.86,7.86,0,0,0,6,28Z"/><path class="cls-2" d="M47,14.89a2.75,2.75,0,0,1-3.63,2.57c-5-1.68-4.27-1.31-4.62-1.83C33.48,29.13,34,27.64,34,28.17A6.84,6.84,0,0,1,32,33v8a3,3,0,0,1,3,3v1H28c0-14.25.4-9.62-1.21-12.64a26.61,26.61,0,0,1-11.34.06C13.85,35.66,12,35.49,12,41a3,3,0,0,1,2.82,2A5.19,5.19,0,0,1,15,45H8V35a4,4,0,0,0,1-2.4C9,30.48,7.34,30.51,6,28A7.87,7.87,0,0,1,9.38,17.17c1.63-.88,2.86-.83,14-1.77a11,11,0,0,0,7.56-4L37,4l7-1L41,6C47,14,47,13.72,47,14.89Z"/><path class="cls-3" d="M6,28a1.92,1.92,0,0,0-1.56.78,7.84,7.84,0,0,1,1-10.25A6.75,6.75,0,0,1,8.06,18,7.86,7.86,0,0,0,6,28Z"/><path class="cls-4" d="M47,14.89a2.75,2.75,0,0,1-3.63,2.57c-5-1.68-4.29-1.34-4.62-1.83C33.75,28.58,34,27.5,34,28.17A6.84,6.84,0,0,1,32,33v8a3,3,0,0,1,2.82,2A6.82,6.82,0,0,1,28,36.18V34a6.89,6.89,0,0,1-1.21-1.64c0-.6-.79-1.29-.79-3.19V27a1,1,0,0,0-2,0c0,2.23-.16,3.74.85,5.72a26.8,26.8,0,0,1-9.4-.3C13.85,35.66,12,35.49,12,41a3,3,0,0,1,2.82,2A3.83,3.83,0,0,1,11,39.18c0-6-.18-4.91.55-6a2.86,2.86,0,0,0-.6-3.82A7.86,7.86,0,0,1,11.06,17c.88-.69,1.26-.67.33-.51.52-.12.08-.06,11-1,6.76-.57,7.65-3,14.57-11.48l7-1L41,6C47,14,47,13.72,47,14.89Z"/><path class="cls-2" d="M40.11,16.37c-1.33-.44-1-.25-1.36-.74l-.56,1.45-1-1.53a1,1,0,0,1,1.66-1.1Z"/><path class="cls-3" d="M37,4c-6.71,8.2-7.76,10.91-14.57,11.48L28.8,7.84A10.68,10.68,0,0,1,37,4Z"/><path class="cls-1" d="M34.81,4.23c-5.82,7.12-7.35,10-12.16,11C28.65,8,30.16,5.21,34.81,4.23Z"/><path class="cls-2" d="M17.4,32.75q-1-.12-1.95-.33c0-.48,2.08-3.78.6-8.1a1,1,0,0,1,1.9-.64A12.24,12.24,0,0,1,17.4,32.75Z"/></g></svg>