<svg xmlns="http://www.w3.org/2000/svg" viewBox="0 0 48 48"><defs><style>.cls-1{fill:#7c7d7d;}.cls-2{fill:#747575;}.cls-3{fill:#c6c3d8;}.cls-4{fill:#9dcc6b;}.cls-5{fill:#b5e08c;}.cls-6{fill:#fc6;}.cls-7{fill:#8bd1ea;}.cls-8{fill:#9fdbf3;}.cls-9{fill:#84b749;}.cls-10{fill:#a87e6b;}.cls-11{fill:#dad7e5;}</style></defs><title>Combine</title><g id="Combine"><path class="cls-1" d="M31.84,36.85A7,7,0,1,1,28,24,7,7,0,0,1,31.84,36.85Z"/><path class="cls-2" d="M33,33a6.91,6.91,0,0,1-1.16,3.85,7,7,0,0,1-9.68-9.7A7,7,0,0,1,33,33Z"/><path class="cls-1" d="M15,33a5,5,0,1,1-5-5A5,5,0,0,1,15,33Z"/><path class="cls-2" d="M13.86,36.18a5,5,0,0,1-8.72-4.34A5,5,0,0,1,13.86,36.18Z"/><path class="cls-3" d="M7,29a5.07,5.07,0,0,0-2,4H1V29Z"/><path class="cls-4" d="M29.74,24.22A7,7,0,0,0,21.29,29H13a5,5,0,0,0-6,0H1V24l5.6-8H19a2,2,0,0,0,0-4H15.67L19,8H29l-2,8C29.29,22.86,27.73,18.16,29.74,24.22Z"/><path class="cls-5" d="M29.74,24.22a7,7,0,0,0-5.83,1.1A6.85,6.85,0,0,0,21.11,27H6.28a2.29,2.29,0,0,1-1.87-3.59L8.9,17H17a2,2,0,0,0,1.73-1c3,0,3.12-4-.06-4L22,8h7l-2,8Z"/><path class="cls-6" d="M29.51,24.18c.29.06.24.06.2-.05Z"/><path class="cls-4" d="M44,10a2,2,0,0,1-2,2H28l1-4H42A2,2,0,0,1,44,10Z"/><path class="cls-7" d="M41,12c-2,12.77-1.59,10.36-2,13H31.6a6.66,6.66,0,0,0-1.86-.78L27,16l1-4Z"/><path class="cls-8" d="M40.69,14l-1.38,9c-5.92,0-5.26.13-6.5-.41A2.66,2.66,0,0,1,31.34,21l-1.46-4.38A2,2,0,0,1,31.77,14Z"/><path class="cls-3" d="M21.29,33H15a5,5,0,0,0-2-4h8.29A7,7,0,0,0,21.29,33Z"/><path class="cls-4" d="M47,36a2,2,0,0,1-2,2H39V29C46.34,34.5,47,34.64,47,36Z"/><path class="cls-5" d="M46.73,35A2,2,0,0,1,45,36H43a4,4,0,0,1-4-4V29C46.76,34.82,46.46,34.51,46.73,35Z"/><path class="cls-2" d="M21,14a2,2,0,0,1-2,2H3a2,2,0,0,1,0-4H19A2,2,0,0,1,21,14Z"/><path class="cls-1" d="M21,14c-16,0-15.61.23-16.41-.59A2,2,0,0,1,4,12H19A2,2,0,0,1,21,14Z"/><path class="cls-3" d="M39,29v4H34.71a7,7,0,0,0,0-4Z"/><path class="cls-4" d="M28.67,21H13a1,1,0,0,1,0-2H28Z"/><path class="cls-9" d="M31,31a3,3,0,1,1-5.56-1.56A3,3,0,0,1,31,31Z"/><path class="cls-4" d="M29.56,33.56a3,3,0,0,1-4.12-4.12A3,3,0,0,1,29.56,33.56Z"/><path class="cls-9" d="M9,33a1,1,0,0,1,2,0A1,1,0,0,1,9,33Z"/><path class="cls-10" d="M46,40H2a1,1,0,0,1,0-2H46A1,1,0,0,1,46,40Z"/><path class="cls-11" d="M4.39,30.54a1.39,1.39,0,0,1-.39-1V29C9.37,29,6.27,28.66,4.39,30.54Z"/><path class="cls-11" d="M19.68,29a6.71,6.71,0,0,0-.61,2h-4.5A4.91,4.91,0,0,0,13,29Z"/><path class="cls-11" d="M39,29v2H37.25a2.72,2.72,0,0,1-2.54-2Z"/></g></svg>