<svg xmlns="http://www.w3.org/2000/svg" viewBox="0 0 48 48"><defs><style>.cls-1{fill:#db5669;}.cls-2{fill:#f26674;}.cls-3{fill:#c4455e;}.cls-4{fill:#a87e6b;}.cls-5{fill:#be927c;}.cls-6{fill:#9fdbf3;}.cls-7{fill:#b2e5fb;}.cls-8{fill:#a07765;}.cls-9{fill:#2c435e;}.cls-10{fill:#374f68;}.cls-11{fill:#fc6;}.cls-12{fill:#dad7e5;}</style></defs><title>Farm Pickup</title><g id="Farm_Pickup" data-name="Farm Pickup"><path class="cls-1" d="M47,28.44V35H41a4,4,0,0,0-8,0H27V18a2,2,0,0,1,2-2h5.82a2,2,0,0,1,1.75,1L41,25l4.63,1.54A2,2,0,0,1,47,28.44Z"/><path class="cls-2" d="M47,28.44V33H40.46a4,4,0,0,0-6.92,0A3.55,3.55,0,0,1,30,29.46V16c4.79,0,5.83-.32,6.57,1L41,25l4.63,1.54A2,2,0,0,1,47,28.44Z"/><path class="cls-3" d="M27,27v8H17a4,4,0,0,0-8,0H1V27Z"/><path class="cls-1" d="M25,27v4a2,2,0,0,1-2,2H16.46a4,4,0,0,0-6.92,0H7a6,6,0,0,1-6-6Z"/><rect class="cls-4" x="1" y="18" width="26" height="5"/><path class="cls-5" d="M25,18v1a2,2,0,0,1-2,2H4a3,3,0,0,1-3-3C1,17.9-.09,18,25,18Z"/><path class="cls-6" d="M41,25H31V16c3.58,0,4.82-.33,5.57,1Z"/><path class="cls-7" d="M41,25H37a4,4,0,0,1-4-4V16c1.53,0,2.87-.26,3.57,1Z"/><rect class="cls-8" x="19" y="23" width="4" height="4"/><path class="cls-4" d="M23,24v3H20A3,3,0,0,1,23,24Z"/><rect class="cls-8" x="1" y="23" width="4" height="4"/><path class="cls-4" d="M5,24v3H2A3,3,0,0,1,5,24Z"/><path class="cls-9" d="M41,35a4,4,0,1,1-7.28-2.28A4,4,0,0,1,41,35Z"/><path class="cls-10" d="M39.28,38.28a4,4,0,0,1-5.56-5.56A4,4,0,0,1,39.28,38.28Z"/><path class="cls-9" d="M17,35a4,4,0,1,1-7.28-2.28A4,4,0,0,1,17,35Z"/><path class="cls-10" d="M15.28,38.28a4,4,0,0,1-5.56-5.56A4,4,0,0,1,15.28,38.28Z"/><path class="cls-11" d="M3,32H1V30H3A1,1,0,0,1,3,32Z"/><path class="cls-11" d="M47,29v2H44a1,1,0,0,1,0-2Z"/><path class="cls-12" d="M36,35a1,1,0,0,1,2,0A1,1,0,0,1,36,35Z"/><path class="cls-12" d="M12,35a1,1,0,0,1,2,0A1,1,0,0,1,12,35Z"/></g></svg>