<svg xmlns="http://www.w3.org/2000/svg" viewBox="0 0 48 48"><defs><style>.cls-1{fill:#b5e08c;}.cls-2{fill:#9dcc6b;}.cls-3{fill:#df8761;}.cls-4{fill:#db5669;}.cls-5{fill:#f26674;}.cls-6{fill:#dad7e5;}.cls-7{fill:#edebf2;}.cls-8{fill:#edb996;}.cls-9{fill:#f6ccaf;}</style></defs><title>Stable, treee, fence</title><g id="Stable_treee_fence" data-name="Stable, treee, fence"><path class="cls-1" d="M47,11.5c0,7.38-5,12.62-9.7,9.69-3.79-6-3.15-5.13-3.67-5.34C31.62,9.39,34.62,1,40,1,43.87,1,47,5.7,47,11.5Z"/><path class="cls-2" d="M38.74,1.18C35.48,2.07,33,6.35,33,11.5c0,8.57,6.61,13.68,11.26,8.32C37,21.79,33,7.84,38.74,1.18Z"/><path class="cls-3" d="M41.29,14.29c-.39.4-.29,1.22-.29-4.29a1,1,0,0,0-2,0v2.59l-.79-.8a1,1,0,0,0-1.42,1.42L39,15.41V39a1,1,0,0,0,2,0V17.41l1.71-1.7A1,1,0,0,0,41.29,14.29Z"/><path class="cls-4" d="M41,27H36v9l-1,1V47H9V37L8,36V27H3l7-11,12-5,11.63,4.85C34.19,16.08,33.16,14.69,41,27Z"/><path class="cls-5" d="M41,27H36v9l-1,1V47H8V27H3l7-11,12-5,11.63,4.85C34.19,16.08,33.16,14.69,41,27Z"/><path class="cls-4" d="M11,31V26.77A1.77,1.77,0,0,0,9.23,25a1.77,1.77,0,0,1-1.5-2.72L12.35,15,10,16,3,27H8V47H35V45H25A14,14,0,0,1,11,31Z"/><path class="cls-6" d="M25,20a3,3,0,1,1-4.56-2.56A3,3,0,0,1,25,20Z"/><path class="cls-7" d="M24.56,21.56a3,3,0,0,1-4.12-4.12A3,3,0,0,1,24.56,21.56Z"/><path class="cls-7" d="M32,46.14c0-.24.08-17.19,0-17.51a1.09,1.09,0,0,0-.53-.55C31.08,28,11.67,28,13,28a1.14,1.14,0,0,0-.71.31c-.4.41-.28-.45-.28,17.69a1,1,0,0,0,1,1c19.8,0,18.37.17,18.8-.42A.66.66,0,0,0,32,46.14ZM14,31.32l6.54,6.17L14,43.65ZM15.52,30h13L22,36.12ZM22,38.87,28.48,45h-13Zm1.46-1.38L30,31.32V43.68Z"/><polygon class="cls-8" points="5 37 5 47 1 47 1 37 3 35 5 37"/><polygon class="cls-8" points="9 37 9 47 5 47 5 37 7 35 9 37"/><polygon class="cls-8" points="39 37 39 47 35 47 35 37 37 35 39 37"/><polygon class="cls-8" points="43 47 39 47 39 37 41 35 43 37 43 47"/><polygon class="cls-8" points="47 37 47 47 43 47 43 37 45 35 47 37"/><path class="cls-9" d="M47,37c0,8.55-.1,8,0,8a2,2,0,0,1-2-2V35Z"/><path class="cls-9" d="M43,37c0,8.55-.1,8,0,8a2,2,0,0,1-2-2V35Z"/><path class="cls-9" d="M39,37c0,8.55-.1,8,0,8a2,2,0,0,1-2-2V35Z"/><path class="cls-9" d="M9,37c0,8.55-.1,8,0,8a2,2,0,0,1-2-2V35Z"/><path class="cls-9" d="M5,37c0,8.55-.1,8,0,8a2,2,0,0,1-2-2V35Z"/></g></svg>