<svg xmlns="http://www.w3.org/2000/svg" viewBox="0 0 48 48"><defs><style>.cls-1{fill:#a87e6b;}.cls-2{fill:#df8761;}.cls-3{fill:#9dcc6b;}.cls-4{fill:#84b749;}.cls-5{fill:#b5e08c;}.cls-6{fill:#ffde76;}.cls-7{fill:#fc6;}.cls-8{fill:#f29b75;}.cls-9{fill:#be927c;}.cls-10{fill:#cc734c;}</style></defs><title>Sow Grain</title><g id="Sow_Grain" data-name="Sow Grain"><path class="cls-1" d="M47,31V41H1V31H8a1,1,0,0,1,1,1,1,1,0,0,0,1,1,1,1,0,0,1,1,1,2,2,0,0,0,.59,1.41c.75.77,1.4.59,4.41.59a3,3,0,0,0,3-3,2,2,0,0,1,.59-1.41c.78-.8.95-.59,8.41-.59a1,1,0,0,1,1,1,1,1,0,0,0,1,1,1,1,0,0,1,1,1,2,2,0,0,0,.59,1.41c.69.71,1.14.59,3.91.59A3.5,3.5,0,0,0,39,32.5,1.5,1.5,0,0,1,40.5,31Z"/><rect class="cls-2" x="1" y="41" width="46" height="6"/><path class="cls-3" d="M35.82,17l-3,.33c-.29-2.55,0-.1-1.77-15.87L34,1.11a1,1,0,0,1,1.1.88c.76,6.55,1.61,14,1.6,13.86A1,1,0,0,1,35.82,17Z"/><path class="cls-4" d="M32.85,17.29,21.91,18.5l-5.52-4.41L15.18,3.15l15.9-1.73C32.87,17.49,32.57,14.79,32.85,17.29Z"/><path class="cls-3" d="M32.65,15.53c-4.86.54-8.1,1.48-11.5-1.23S18,8.62,17.37,2.91L31.08,1.42Z"/><path class="cls-5" d="M36.62,15.09l-4,.44L31.08,1.42,34,1.11a1,1,0,0,1,1.1.88Z"/><path class="cls-6" d="M25.56,6c-1.1.13-3.88,1.34-3.76,2.43S24.9,10.12,26,10a2,2,0,1,0-.44-4Z"/><path class="cls-6" d="M26.77,9.74a2,2,0,0,1,.3,3.62c-1,.54-3.93,1.15-4.47.19S23.94,10.64,25,10"/><path class="cls-7" d="M13.4,21.54c.38-.41,1-1.78.61-2.15s-1.71.4-2.09.81A1,1,0,0,0,13.4,21.54Z"/><path class="cls-7" d="M16,32c0-.55-.45-2-1-2s-1,1.45-1,2A1,1,0,0,0,16,32Z"/><path class="cls-7" d="M19.78,23.3c.18-.52.24-2-.28-2.21s-1.43,1-1.61,1.55A1,1,0,0,0,19.78,23.3Z"/><path class="cls-7" d="M13.78,27.3c.18-.52.24-2-.28-2.21s-1.43,1-1.61,1.55A1,1,0,0,0,13.78,27.3Z"/><path class="cls-8" d="M47,41v4H8a4,4,0,0,1-4-4Z"/><path class="cls-9" d="M47,31V41H4V31H8a1,1,0,0,1,1,1,1,1,0,0,0,1,1,1,1,0,0,1,1,1,2,2,0,0,0,.59,1.41c.75.77,1.4.59,4.41.59a3,3,0,0,0,3-3,2,2,0,0,1,.59-1.41c.78-.8.95-.59,8.41-.59a1,1,0,0,1,1,1,1,1,0,0,0,1,1,1,1,0,0,1,1,1,2,2,0,0,0,.59,1.41c.69.71,1.14.59,3.91.59A3.5,3.5,0,0,0,39,32.5,1.5,1.5,0,0,1,40.5,31Z"/><path class="cls-10" d="M5,46H3a1,1,0,0,1,0-2H5A1,1,0,0,1,5,46Z"/><path class="cls-10" d="M19,46H17a1,1,0,0,1,0-2h2A1,1,0,0,1,19,46Z"/><path class="cls-10" d="M31,46H29a1,1,0,0,1,0-2h2A1,1,0,0,1,31,46Z"/><path class="cls-10" d="M45,46H43a1,1,0,0,1,0-2h2A1,1,0,0,1,45,46Z"/></g></svg>