<svg xmlns="http://www.w3.org/2000/svg" viewBox="0 0 48 48"><defs><style>.cls-1{fill:#7c7d7d;}.cls-2{fill:#919191;}.cls-3{fill:#df8761;}.cls-4{fill:#dad7e5;}.cls-5{fill:#c6c3d8;}.cls-6{fill:#cc734c;}.cls-7{fill:#374f68;}</style></defs><title>Villas &amp;amp; Shovel</title><g id="Villas_Shovel" data-name="Villas &amp; Shovel"><path class="cls-1" d="M47,42c0,3.61-3.55,6.59-9.62,4.08-2.92-1.24-4-2.76-8.39-7.18a2,2,0,0,1,0-2.82L36.08,29a2,2,0,0,1,2.82,0C43.34,33.37,47,36,47,42Z"/><path class="cls-2" d="M47,42a4.93,4.93,0,0,1-.61,2.39A4.93,4.93,0,0,1,44,45c-6,0-8.61-3.64-13-8.1a2,2,0,0,1-.15-2.65c.14-.17-.39.37,5.24-5.26a2,2,0,0,1,2.82,0C43.34,33.37,47,36,47,42Z"/><path class="cls-3" d="M38.81,10.6,19.71,29.71a1,1,0,0,1-1.42-1.42L37.4,9.19A1,1,0,0,1,38.81,10.6Z"/><path class="cls-4" d="M19.4,40C12,47.39,12.59,47,12,47a1,1,0,0,1-.71-1.71L18,38.6A1,1,0,0,1,19.4,40Z"/><path class="cls-4" d="M9.69,30.06l-7,6.66a1,1,0,0,1-1.38-1.44c6-5.72,4.33-4.14,7-6.67A1,1,0,0,1,9.69,30.06Z"/><path class="cls-4" d="M13.71,35.71C7.11,42.31,7.58,42,7,42a1,1,0,0,1-.71-1.71l6-6A1,1,0,0,1,13.71,35.71Z"/><path class="cls-5" d="M9.69,30.06l-2,1.87L6.31,30.51l2-1.9A1,1,0,0,1,9.69,30.06Z"/><path class="cls-5" d="M13.71,35.71,12.6,36.82l-1.41-1.43,1.1-1.1A1,1,0,0,1,13.71,35.71Z"/><path class="cls-5" d="M19.4,40l-1.8,1.8L16.18,40.4,18,38.6A1,1,0,0,1,19.4,40Z"/><path class="cls-2" d="M20.47,39l-1.42,1.42L7.74,29.12l1.41-1.41a2,2,0,0,1,2.83,0l2.12,2.12.71-.71a3,3,0,0,1,4.24,4.24l-.71.71,2.13,2.13A2,2,0,0,1,20.47,39Z"/><path class="cls-1" d="M20.38,36.11a1.89,1.89,0,0,1-2.66,0c-9.25-9.26-8.31-8.4-8.57-8.4L7.74,29.12,19.05,40.44,20.47,39A2,2,0,0,0,20.38,36.11Z"/><path class="cls-3" d="M37.53,3.53l6.94,6.94a7,7,0,0,0,1.17-1.06,2,2,0,0,0,0-2.8L41.39,2.39a2,2,0,0,0-2.8,0A6.17,6.17,0,0,0,37.53,3.53Z"/><rect class="cls-6" x="22" y="24" width="1.99" height="1.99" transform="translate(-10.94 23.59) rotate(-45)"/><path class="cls-1" d="M35.78,39.19c-5.44-5.44-5-4.88-4.79-5.11l1.25-1.25,4.95,5A1,1,0,0,1,35.78,39.19Z"/><path class="cls-3" d="M37.49,38.49c-.62,0,1.24,1.65-28.3-27.89A1,1,0,0,1,10.6,9.19L38.19,36.78A1,1,0,0,1,37.49,38.49Z"/><path class="cls-7" d="M37.18,3.43A1,1,0,0,1,37.91,3c.65-.06.43-.08,6.8,6.29a1,1,0,0,1-.14,1.53C39.08,14.67,33.33,8.92,37.18,3.43Zm1,2.21a3.09,3.09,0,0,0,4.14,4.14Z"/><path class="cls-3" d="M10.47,3.53,3.53,10.47A7,7,0,0,1,2.36,9.41a2,2,0,0,1,0-2.8L6.61,2.39a2,2,0,0,1,2.8,0A6.17,6.17,0,0,1,10.47,3.53Z"/><path class="cls-7" d="M3.43,10.82A1,1,0,0,1,3,10.09c0-.67-.06-.44,6.29-6.8a1,1,0,0,1,1.53.14C14.61,8.84,9,14.73,3.43,10.82Zm2.21-1A3.09,3.09,0,0,0,9.78,5.64Z"/></g></svg>