<svg xmlns="http://www.w3.org/2000/svg" viewBox="0 0 48 48"><defs><style>.cls-1{fill:#db5669;}.cls-2{fill:#f26674;}.cls-3{fill:#dad7e5;}.cls-4{fill:#c6c3d8;}.cls-5{fill:#edebf2;}.cls-6{fill:#df8761;}.cls-7{fill:#f29b75;}.cls-8{fill:#374f68;}</style></defs><title>Barn</title><g id="Barn"><path class="cls-1" d="M41,24V46H7V24l4-12L24,4l13,8Z"/><path class="cls-2" d="M41,27V44H20A10,10,0,0,1,10,34c0-14.24-.59-10.24,2.68-20L24,7l13,8Z"/><polygon class="cls-3" points="47 24 45 27 41 25 37 13 24 5 11 13 7 25 3 27 1 24 4 22 8 10 24 1 40 10 44 22 47 24"/><path class="cls-4" d="M22,6,9,14,5,26l2-1,4-12C23.44,5.35,22.27,6.17,22,6Z"/><polygon class="cls-5" points="44 22 40 10 24 1 22.11 2.06 38 11 42 23 45 25 44 26.5 45 27 47 24 44 22"/><rect class="cls-6" x="13" y="26" width="22" height="20"/><path class="cls-7" d="M35,26V44c-12.06,0-19-8.86-19-18Z"/><rect class="cls-6" x="20" y="13" width="8" height="8"/><path class="cls-5" d="M36,46.14c0-.25.08-20.18,0-20.5a3.54,3.54,0,0,0-.19-.31C35.28,24.82,12.31,25,13,25a1.08,1.08,0,0,0-.69.3c-.09.1,0,0-.09.14a.64.64,0,0,0-.16.41c0,.25-.08,20.18,0,20.5A1,1,0,0,0,13,47C35.87,47,35.8,47.33,36,46.14ZM14,28.26,22.51,36,14,43.74ZM15.59,27H32.41L24,34.65ZM24,37.35,32.41,45H15.59ZM25.49,36,34,28.26V43.74Z"/><path class="cls-5" d="M29,13a1,1,0,0,0-1-1H20a1,1,0,0,0-1,1c0,8.36-.24,8.57.62,8.92.27.11-.35.08,8.38.08a1,1,0,0,0,.92-.62C29,21.12,29,21.73,29,13Zm-2,5.59-2-2V14h2Zm-3-.18L25.59,20H22.41ZM23,14v2.59l-2,2V14Z"/><path class="cls-8" d="M46,47H2a1,1,0,0,1,0-2H46A1,1,0,0,1,46,47Z"/></g></svg>