<svg xmlns="http://www.w3.org/2000/svg" viewBox="0 0 48 48"><defs><style>.cls-1{fill:#a87e6b;}.cls-2{fill:#be927c;}.cls-3{fill:#9dcc6b;}.cls-4{fill:#84b749;}.cls-5{fill:#b5e08c;}.cls-6{fill:#f16f39;}.cls-7{fill:#f8834b;}.cls-8{fill:#ef6833;}.cls-9{fill:#a07765;}</style></defs><title>Growing Carrot</title><g id="Growing_Carrot" data-name="Growing Carrot"><rect class="cls-1" x="1" y="11" width="46" height="36"/><path class="cls-2" d="M47,11c0,3.38.46,1.84-1.67,0Z"/><path class="cls-2" d="M47,25.6V45H38C17.07,45,7.65,27,8,27a4.66,4.66,0,0,0,4.52-3.53c1.87-6.58,2-6.76,2-8A6.43,6.43,0,0,0,12.7,11h6.42a7,7,0,0,0-2,6.29c2,10.83,1.43,7.84,2.56,14.1a4.4,4.4,0,0,0,8.66,0C31.12,16.06,31,16.91,31,16a7,7,0,0,0-2.11-5h5.77a8.12,8.12,0,0,0-2.77,6c0,1-.1-.2,2.71,20.31a5.44,5.44,0,0,0,10.78,0C45.89,33.69,45.74,34.7,47,25.6Z"/><path class="cls-3" d="M8,11C5.32,11,5.42,1,8,1S10.67,11,8,11Z"/><path class="cls-4" d="M8,11c-1,.55-2.85-.94-4.23-3.33C1,2.89,3,.17,6.15,4.11,5.72,6.67,6.33,11,8,11Z"/><path class="cls-5" d="M12.23,7.67C10.85,10.06,9,11.55,8,11c1.73,0,2.28-4.37,1.85-6.89C13.07.14,15,2.9,12.23,7.67Z"/><path class="cls-3" d="M24,11c-2.68,0-2.58-10,0-10S26.67,11,24,11Z"/><path class="cls-4" d="M24,11c-1,.55-2.85-.94-4.23-3.33C17,2.89,19,.17,22.15,4.11,21.72,6.67,22.33,11,24,11Z"/><path class="cls-5" d="M28.23,7.67C26.85,10.06,25,11.55,24,11c1.73,0,2.28-4.37,1.85-6.89C29.07.14,31,2.9,28.23,7.67Z"/><path class="cls-6" d="M12.53,15.51c0,1-.18,1.27-1.93,7.41a2.66,2.66,0,0,1-5.15.16c-2-7-1.89-6.54-1.95-7.08a4.53,4.53,0,1,1,9-.49Z"/><path class="cls-7" d="M12.53,15.51c0,1-.18,1.27-1.93,7.41a2.63,2.63,0,0,1-3.15-1.84C5.53,14.35,5,13.47,6,11.49A4.53,4.53,0,0,1,12.53,15.51Z"/><path class="cls-6" d="M29,16c0,.68.2-.65-2.63,14.91a2.4,2.4,0,0,1-4.74.12c-1.74-9.61.43,2.3-2.55-14A5,5,0,1,1,29,16Z"/><path class="cls-7" d="M29,16c0,.68.2-.65-2.63,14.91A2.38,2.38,0,0,1,24.64,29C22,14.41,21.29,13.45,22.91,11.12A5,5,0,0,1,29,16Z"/><path class="cls-6" d="M46.1,17.08c0,.6-2.68,19.85-2.69,20a3.45,3.45,0,0,1-6.82,0c-2.8-20.4-3.06-20-2.31-22C36.59,8.64,46.1,10.31,46.1,17.08Z"/><path class="cls-7" d="M46.1,17.08c0,.46-2.61,20.13-3,20.92a3.45,3.45,0,0,1-3.53-3c-2.73-19.86,0,.06-2.63-19.1a6.11,6.11,0,0,1,1.31-4.68A6.1,6.1,0,0,1,46.1,17.08Z"/><path class="cls-8" d="M7,18H4a12.22,12.22,0,0,1-.5-2H7A1,1,0,0,1,7,18Z"/><path class="cls-8" d="M21,17H19.09a5,5,0,0,1,0-2H21A1,1,0,0,1,21,17Z"/><path class="cls-8" d="M23,28H21.09l-.36-2H23A1,1,0,0,1,23,28Z"/><path class="cls-8" d="M28.37,20,28,22H26a1,1,0,0,1,0-2Z"/><path class="cls-3" d="M40,11c-2.68,0-2.58-10,0-10S42.67,11,40,11Z"/><path class="cls-4" d="M40,11c-1,.55-2.85-.94-4.23-3.33C33,2.89,35,.17,38.15,4.11,37.72,6.67,38.33,11,40,11Z"/><path class="cls-5" d="M44.23,7.67C42.85,10.06,41,11.55,40,11c1.73,0,2.28-4.37,1.85-6.89C45.07.14,47,2.9,44.23,7.67Z"/><path class="cls-8" d="M37,17H33.9a5.82,5.82,0,0,1,.38-2H37A1,1,0,0,1,37,17Z"/><path class="cls-8" d="M38,28H35.35l-.28-2H38A1,1,0,0,1,38,28Z"/><path class="cls-8" d="M45.75,20l-.27,2H43a1,1,0,0,1,0-2Z"/><path class="cls-8" d="M44.1,32l-.27,2H41a1,1,0,0,1,0-2Z"/><path class="cls-9" d="M13,32H11a1,1,0,0,1,0-2h2A1,1,0,0,1,13,32Z"/><path class="cls-9" d="M7,40H5a1,1,0,0,1,0-2H7A1,1,0,0,1,7,40Z"/><path class="cls-9" d="M28,38H26a1,1,0,0,1,0-2h2A1,1,0,0,1,28,38Z"/><path class="cls-9" d="M33,46H31a1,1,0,0,1,0-2h2A1,1,0,0,1,33,46Z"/><path class="cls-9" d="M17,43H15a1,1,0,0,1,0-2h2A1,1,0,0,1,17,43Z"/></g></svg>