<svg xmlns="http://www.w3.org/2000/svg" viewBox="0 0 48 48"><defs><style>.cls-1{fill:#df8761;}.cls-2{fill:#cc734c;}.cls-3{fill:#c6c3d8;}.cls-4{fill:#dad7e5;}.cls-5{fill:#5b9ad8;}.cls-6{fill:#6fabe6;}.cls-7{fill:#edebf2;}.cls-8{fill:#82bcf4;}.cls-9{fill:#a07765;}.cls-10{fill:#a87e6b;}.cls-11{fill:#f29b75;}</style></defs><title>Milk Products</title><g id="Milk_Products" data-name="Milk Products"><rect class="cls-1" x="1" y="20" width="46" height="10"/><rect class="cls-2" x="1" y="20" width="46" height="10"/><path class="cls-1" d="M47,20v8H12a8,8,0,0,1-8-8Z"/><rect class="cls-2" x="1" y="36" width="46" height="10"/><path class="cls-1" d="M47,36v8H12a8,8,0,0,1-8-8Z"/><rect class="cls-3" x="23" y="12" width="16" height="8"/><path class="cls-4" d="M39,12v6H32a6,6,0,0,1-6-6Z"/><polygon class="cls-5" points="45 12 45 20 39 20 39 12 42 8 45 12"/><polygon class="cls-6" points="45 12 45 18 39 18 39 12 42 8 45 12"/><polygon class="cls-4" points="42 8 39 12 23 12 26 8 42 8"/><polygon class="cls-7" points="42 8 39 12 26 12 29 8 42 8"/><rect class="cls-6" x="26" y="4" width="16" height="4"/><rect class="cls-8" x="29" y="4" width="13" height="4"/><path class="cls-4" d="M23,15.61V20H13c0-4.23-.57-7.61,3-10V6h4v4A6.76,6.76,0,0,1,23,15.61Z"/><path class="cls-7" d="M21,10.82V18H17.39c-3.49,0-3-5.63.61-8V8h2C20,10.83,19.74,9.52,21,10.82Z"/><rect class="cls-6" x="15" y="2" width="6" height="4"/><rect class="cls-8" x="17" y="2" width="4" height="4"/><path class="cls-4" d="M13,20H3c0-4.26-.56-7.62,3-10V6h4v4C13.57,12.38,13,15.8,13,20Z"/><path class="cls-7" d="M12,12.09C10.81,14,11,15.53,11,18H7.39c-3.49,0-3-5.63.61-8V8h2v2A6.54,6.54,0,0,1,12,12.09Z"/><rect class="cls-6" x="5" y="2" width="6" height="4"/><rect class="cls-9" x="2" y="30" width="44" height="6"/><path class="cls-10" d="M46,32v4H4a4,4,0,0,1,4-4Z"/><path class="cls-7" d="M44,25a1,1,0,0,0-2,0A1,1,0,0,0,44,25Z"/><path class="cls-7" d="M44,41a1,1,0,0,0-2,0A1,1,0,0,0,44,41Z"/><path class="cls-7" d="M6,25a1,1,0,0,0-2,0A1,1,0,0,0,6,25Z"/><path class="cls-7" d="M6,41a1,1,0,0,0-2,0A1,1,0,0,0,6,41Z"/><path class="cls-11" d="M37,26H31a1,1,0,0,1,0-2h6A1,1,0,0,1,37,26Z"/><path class="cls-11" d="M27,26H25a1,1,0,0,1,0-2h2A1,1,0,0,1,27,26Z"/></g></svg>