<svg xmlns="http://www.w3.org/2000/svg" viewBox="0 0 48 48"><defs><style>.cls-1{fill:#edb996;}.cls-2{fill:#f6ccaf;}.cls-3{fill:#ffdec7;}.cls-4{fill:#a87e6b;}.cls-5{fill:#be927c;}</style></defs><title>Potato tubers</title><g id="Potato_tubers" data-name="Potato tubers"><path class="cls-1" d="M40,32.85A11.85,11.85,0,0,0,31,29c-5.27,0-5.63,2.31-9.35,2a8,8,0,0,0-8.46,9.72C6.24,39.52,1,33.84,1,27c0-9.65,10.14-16.21,19.58-13.33,5.15,1.53,6.75-1.1,11.62-.61a5.36,5.36,0,0,1-1.27,2,2,2,0,1,0,3,2.48,15.54,15.54,0,0,0,2-3.46,12,12,0,0,1,4.24,3.26L37,20.11A2.21,2.21,0,0,0,38.48,24c1.07,0,3.18-1.4,4.09-2.17A11.86,11.86,0,0,1,40,32.85Z"/><path class="cls-2" d="M40.12,32.72c-2.76-5.24-10.45-7-16-4.08a7.6,7.6,0,0,1-4.13.61A8,8,0,0,0,12.19,39h0a5,5,0,0,0,.14.52c-13.44-6.21-9.77-25,5.12-26.45a15.24,15.24,0,0,1,3.12.6C25,15,27.14,13.15,30.47,13a5.54,5.54,0,0,1-1.54,3.05,2,2,0,1,0,3.12,2.34A2,2,0,0,0,34,17.55a15.54,15.54,0,0,0,2-3.46,12,12,0,0,1,4.24,3.26c-3,2.54-4.07,3.08-4,4.56-2.4,2.09,0,5,2.2,3.86a13,13,0,0,0,4.3-3.09A11.8,11.8,0,0,1,40.12,32.72Z"/><path class="cls-2" d="M38.79,44.35c-2,2-7,3.46-11.47,2.13-3-.89-4,.88-7.38.45a8,8,0,0,1-6.74-6.18h0A8,8,0,0,1,21.65,31c3.72.28,4.06-2,9.35-2C40.77,29,45.67,38.72,38.79,44.35Z"/><path class="cls-3" d="M38.79,44.35c-.38.38-4.51,1.55-8.47.38-3-.89-4,.88-7.38.45a8,8,0,0,1-4.37-13.8A7.77,7.77,0,0,1,21.65,31c3.72.28,4.06-2,9.35-2C40.77,29,45.67,38.72,38.79,44.35Z"/><path class="cls-4" d="M33,11c-.27,0,.09.11-5.37-2.07a1,1,0,0,1,.74-1.86l5,2A1,1,0,0,1,33,11Z"/><path class="cls-5" d="M43,6a1,1,0,0,1-.71-1.71l3-3a1,1,0,0,1,1.42,1.42C43.59,5.82,43.58,6,43,6Z"/><path class="cls-5" d="M38,11H36a1,1,0,0,1,0-2h2A1,1,0,0,1,38,11Z"/><path class="cls-1" d="M13,20a1,1,0,0,0-2,0A1,1,0,0,0,13,20Z"/><path class="cls-1" d="M9,30a1,1,0,0,0-2,0A1,1,0,0,0,9,30Z"/><path class="cls-2" d="M20,39a1,1,0,0,0-2,0A1,1,0,0,0,20,39Z"/><path class="cls-1" d="M22,23a1,1,0,0,0-2,0A1,1,0,0,0,22,23Z"/><path class="cls-1" d="M32,23a1,1,0,0,0-2,0A1,1,0,0,0,32,23Z"/><path class="cls-2" d="M31,35a1,1,0,0,0-2,0A1,1,0,0,0,31,35Z"/><path class="cls-2" d="M37,40a1,1,0,0,0-2,0A1,1,0,0,0,37,40Z"/><path class="cls-5" d="M40.17,23.42a3.39,3.39,0,0,1-1.69.58A2.21,2.21,0,0,1,37,20.11c3.48-3,6-4.44,6-8.06,0-2.6-1.37-4-3.36-6.75A3.34,3.34,0,0,1,40,1l1.82,1.3A12.37,12.37,0,0,1,40.17,23.42Z"/><path class="cls-4" d="M38.17,22.42a3.61,3.61,0,0,1-1.55.57A2.2,2.2,0,0,1,37,20.11c4.21-3.62,3.06-2.64,3.72-3.19a6.42,6.42,0,0,0,1.05-8.59C39.57,5.21,39,4.72,39,3.36a3.38,3.38,0,0,1,.74-2.1C47.09,6.14,46.86,18,38.17,22.42Z"/><path class="cls-5" d="M36,14.09a15.48,15.48,0,0,1-2,3.46,2,2,0,0,1-3.61-1.09c0-1.38,1.16-1.43,1.85-3.4C33.46,9.62,30.9,6.54,29,4c2.33,0,3.75-.25,5.07,1.07A8.48,8.48,0,0,1,36,14.09Z"/><path class="cls-4" d="M34,14.09a15.48,15.48,0,0,1-2,3.46,1.83,1.83,0,0,1-.64.6,1.94,1.94,0,0,1-1-1.69c0-1.38,1.16-1.43,1.85-3.4C33.46,9.62,30.9,6.54,29,4a3.77,3.77,0,0,1,3.07,1.07A8.48,8.48,0,0,1,34,14.09Z"/></g></svg>