<svg xmlns="http://www.w3.org/2000/svg" viewBox="0 0 48 48"><defs><style>.cls-1{fill:#9dcc6b;}.cls-2{fill:#b5e08c;}.cls-3{fill:#84b749;}</style></defs><title>Grass Braid</title><g id="Grass_Braid" data-name="Grass Braid"><path class="cls-1" d="M40.44,14.64a10.89,10.89,0,0,1-.1,2.54,4,4,0,0,1-3.9,3.11H27.71V14.64Z"/><path class="cls-1" d="M33.36,7.56v7.08H27.71V11.56a4,4,0,0,1,3.11-3.9A10.58,10.58,0,0,1,33.36,7.56Z"/><path class="cls-2" d="M40.44,14.64a10.89,10.89,0,0,1-.1,2.54c-.79.19-7.73.11-7.63.11a2,2,0,0,1-2-2v-.65Z"/><path class="cls-2" d="M33.36,7.56v7.08H30.71c0-6.74,0-6.36.11-7A10.58,10.58,0,0,1,33.36,7.56Z"/><path class="cls-1" d="M46.09,9v1.66a4,4,0,0,1-4,4H33.36V9Z"/><path class="cls-1" d="M39,1.91V9H33.36V5.91a4,4,0,0,1,2.72-3.79A8.77,8.77,0,0,1,39,1.91Z"/><path class="cls-2" d="M46.09,9a8.78,8.78,0,0,1-.21,2.94,3.93,3.93,0,0,1-1.29.22H37.86a2,2,0,0,1-2-2V9Z"/><path class="cls-2" d="M39,1.91V9H35.86c0-7.21-.23-6.94,1.09-7C37.34,1.9,37.16,1.91,39,1.91Z"/><path class="cls-1" d="M34.78,20.29V22a4,4,0,0,1-4,4H22.05V20.29Z"/><path class="cls-1" d="M27.71,13.22v7.07H22.05V17.22a4,4,0,0,1,4-4Z"/><path class="cls-1" d="M29.12,26v1.66a4,4,0,0,1-4,4H16.39V26Z"/><path class="cls-1" d="M22.05,18.88V26H16.39V22.88a4,4,0,0,1,4-4Z"/><path class="cls-1" d="M23.46,31.61v1.65a4,4,0,0,1-4,4H10.74V31.61Z"/><path class="cls-1" d="M16.39,24.54v7.07H10.74V28.54a4,4,0,0,1,4-4Z"/><path class="cls-1" d="M17.81,37.26v1.66a4,4,0,0,1-4,4H5.08V37.26Z"/><path class="cls-1" d="M10.74,30.19v7.07H5.08V34.19a4,4,0,0,1,4-4Z"/><path class="cls-1" d="M12.13,42.92C9.59,45.44,10.54,44.5,8,47H1V40c2.5-2.54,1.56-1.59,4.08-4.13v7.05Z"/><path class="cls-2" d="M10.11,44.92,8,47H1V40l2.08-2.11v5a2,2,0,0,0,2,2Z"/><path class="cls-2" d="M34.94,20.14a10.89,10.89,0,0,1-.1,2.54c-.79.19-7.73.11-7.63.11a2,2,0,0,1-2-2v-.65Z"/><path class="cls-2" d="M27.86,13.06v7.08H25.21c0-6.74,0-6.36.11-7A10.58,10.58,0,0,1,27.86,13.06Z"/><path class="cls-2" d="M28.94,26.14a10.89,10.89,0,0,1-.1,2.54c-.79.19-7.73.11-7.63.11a2,2,0,0,1-2-2v-.65Z"/><path class="cls-2" d="M21.86,19.06v7.08H19.21c0-6.74,0-6.36.11-7A10.58,10.58,0,0,1,21.86,19.06Z"/><path class="cls-2" d="M23.44,31.64a10.89,10.89,0,0,1-.1,2.54c-.79.19-7.73.11-7.63.11a2,2,0,0,1-2-2v-.65Z"/><path class="cls-2" d="M16.36,24.56v7.08H13.71c0-6.74,0-6.36.11-7A10.58,10.58,0,0,1,16.36,24.56Z"/><path class="cls-2" d="M17.94,37.14a10.89,10.89,0,0,1-.1,2.54c-.79.19-7.73.11-7.63.11a2,2,0,0,1-2-2v-.65Z"/><path class="cls-2" d="M10.86,30.06v7.08H8.21c0-6.74,0-6.36.11-7A10.58,10.58,0,0,1,10.86,30.06Z"/><polygon class="cls-1" points="47 1 47 8 46.02 8.98 39.02 8.98 39.02 1.98 40 1 47 1"/><path class="cls-2" d="M47,1V6H43a2,2,0,0,1-2-2V1Z"/><path class="cls-3" d="M36.44,21.29H27.71a1,1,0,0,1-1-1V14.64a1,1,0,0,1,1-1H40.44a1,1,0,0,1,1,1v1.65A5,5,0,0,1,36.44,21.29Zm-7.73-2h7.73a3,3,0,0,0,3-3v-.65H28.71Z"/><path class="cls-3" d="M33.36,15.64H27.71a1,1,0,0,1-1-1V11.56a5,5,0,0,1,5-5h1.65a1,1,0,0,1,1,1v7.08A1,1,0,0,1,33.36,15.64Zm-4.65-2h3.65V8.56h-.65a3,3,0,0,0-3,3Z"/><path class="cls-3" d="M42.09,15.64H33.36a1,1,0,0,1-1-1V9a1,1,0,0,1,1-1H46.09a1,1,0,0,1,1,1v1.66A5,5,0,0,1,42.09,15.64Zm-7.73-2h7.73a3,3,0,0,0,3-3V10H34.36Z"/><path class="cls-3" d="M39,10H33.36a1,1,0,0,1-1-1V5.91a5,5,0,0,1,5-5H39a1,1,0,0,1,1,1V9A1,1,0,0,1,39,10ZM34.36,8H38V2.91h-.66a3,3,0,0,0-3,3Z"/><path class="cls-3" d="M30.78,27H22.05a1,1,0,0,1-1-1V20.29a1,1,0,0,1,1-1H34.78a1,1,0,0,1,1,1V22A5,5,0,0,1,30.78,27Zm-7.73-2h7.73a3,3,0,0,0,3-3v-.66H23.05Z"/><path class="cls-3" d="M27.71,21.29H22.05a1,1,0,0,1-1-1V17.22a5,5,0,0,1,5-5h1.66a1,1,0,0,1,1,1v7.07A1,1,0,0,1,27.71,21.29Zm-4.66-2h3.66V14.22h-.66a3,3,0,0,0-3,3Z"/><path class="cls-3" d="M25.12,32.61H16.39a1,1,0,0,1-1-1V26a1,1,0,0,1,1-1H29.12a1,1,0,0,1,1,1v1.66A5,5,0,0,1,25.12,32.61Zm-7.73-2h7.73a3,3,0,0,0,3-3V27H17.39Z"/><path class="cls-3" d="M22.05,27H16.39a1,1,0,0,1-1-1V22.88a5,5,0,0,1,5-5h1.66a1,1,0,0,1,1,1V26A1,1,0,0,1,22.05,27Zm-4.66-2h3.66V19.88h-.66a3,3,0,0,0-3,3Z"/><path class="cls-3" d="M19.46,38.26H10.74a1,1,0,0,1-1-1V31.61a1,1,0,0,1,1-1H23.46a1,1,0,0,1,1,1v1.65A5,5,0,0,1,19.46,38.26Zm-7.72-2h7.72a3,3,0,0,0,3-3v-.65H11.74Z"/><path class="cls-3" d="M16.39,32.61H10.74a1,1,0,0,1-1-1V28.54a5,5,0,0,1,5-5h1.65a1,1,0,0,1,1,1v7.07A1,1,0,0,1,16.39,32.61Zm-4.65-2h3.65V25.54h-.65a3,3,0,0,0-3,3Z"/><path class="cls-3" d="M13.81,43.92H5.08a1,1,0,0,1-1-1V37.26a1,1,0,0,1,1-1H17.81a1,1,0,0,1,1,1v1.66A5,5,0,0,1,13.81,43.92Zm-7.73-2h7.73a3,3,0,0,0,3-3v-.66H6.08Z"/><path class="cls-3" d="M10.74,38.26H5.08a1,1,0,0,1-1-1V34.19a5,5,0,0,1,5-5h1.66a1,1,0,0,1,1,1v7.07A1,1,0,0,1,10.74,38.26Zm-4.66-2H9.74V31.19H9.08a3,3,0,0,0-3,3Z"/></g></svg>