<svg xmlns="http://www.w3.org/2000/svg" viewBox="0 0 48 48"><defs><style>.cls-1{fill:#48bdff;}.cls-2{fill:#e8f0fb;}.cls-3{fill:#2d98f6;}</style></defs><title>update</title><g id="update"><path class="cls-1" d="M42,23.5A8.51,8.51,0,0,1,34,32a10,10,0,0,0-20,0c-5.07,0-8-3.63-8-7.5A7.48,7.48,0,0,1,13,17a11,11,0,0,1,21.83-1.92A8.5,8.5,0,0,1,42,23.5Z"/><path class="cls-2" d="M30,40a10,10,0,1,1-3.85-17.76A10,10,0,0,1,30,40Z"/><path class="cls-3" d="M30.71,30.29l-1-1a1,1,0,0,0-1.42,0c-1,1.05-1.52,1.35-1.21,2.09A1,1,0,0,0,28,32a4,4,0,0,1-6.18,3.34c-1.2-.87-3.21,1.49.69,2.47A6,6,0,0,0,30,32,1,1,0,0,0,30.71,30.29Z"/><path class="cls-3" d="M20,32a4,4,0,0,1,6.21-3.32,1,1,0,0,0,1.39-.27c.86-1.28-1.44-2.2-2.87-2.36A6,6,0,0,0,18,32a1,1,0,0,0-.71,1.71C18.35,34.77,18.48,35,19,35s.67-.26,1.71-1.29A1,1,0,0,0,20,32Z"/></g></svg>