<svg xmlns="http://www.w3.org/2000/svg" viewBox="0 0 48 48"><defs><style>.cls-1{fill:#2d98f6;}.cls-2{fill:#48bdff;}.cls-3{fill:#ebf3fe;}.cls-4{fill:#b9d5ea;}</style></defs><title>router</title><g id="router"><path class="cls-1" d="M12,17V8a1,1,0,0,1,2,0v9A1,1,0,0,1,12,17Z"/><path class="cls-1" d="M34,17V8a1,1,0,0,1,2,0v9A1,1,0,0,1,34,17Z"/><rect class="cls-2" x="4" y="27" width="40" height="13" rx="4"/><circle class="cls-3" cx="37.5" cy="33.5" r="2.5"/><rect class="cls-3" x="8" y="31" width="11" height="5"/><path class="cls-1" d="M26,35V32a1,1,0,0,1,2,0v3A1,1,0,0,1,26,35Z"/><path class="cls-1" d="M22,35V32a1,1,0,0,1,2,0v3A1,1,0,0,1,22,35Z"/><path class="cls-1" d="M30,35V32a1,1,0,0,1,2,0v3A1,1,0,0,1,30,35Z"/><path class="cls-4" d="M15,27H11V19a2,2,0,0,1,4,0Z"/><path class="cls-4" d="M37,27H33V19a2,2,0,0,1,4,0Z"/></g></svg>