<svg xmlns="http://www.w3.org/2000/svg" viewBox="0 0 48 48"><defs><style>.cls-1{fill:#48bdff;}.cls-2{fill:#ebf3fe;}.cls-3{fill:#b9d5ea;}</style></defs><title>computer connection</title><g id="computer_connection" data-name="computer connection"><path class="cls-1" d="M6,38H24a0,0,0,0,1,0,0v2a2,2,0,0,1-2,2H8a2,2,0,0,1-2-2V38A0,0,0,0,1,6,38Z"/><path class="cls-2" d="M9,27H21a2,2,0,0,1,2,2v9a0,0,0,0,1,0,0H7a0,0,0,0,1,0,0V29A2,2,0,0,1,9,27Z"/><path class="cls-1" d="M24,17H42a0,0,0,0,1,0,0v2a2,2,0,0,1-2,2H26a2,2,0,0,1-2-2V17A0,0,0,0,1,24,17Z"/><path class="cls-2" d="M27,6H39a2,2,0,0,1,2,2v9a0,0,0,0,1,0,0H25a0,0,0,0,1,0,0V8A2,2,0,0,1,27,6Z"/><polygon class="cls-3" points="8 21 14 21 11 24 8 21"/><path class="cls-3" d="M11,25c-.55,0-.43,0-3.71-3.29A1,1,0,0,1,8,20c6.39,0,6.58-.21,6.92.62s-.31,1.19-3.21,4.09A1,1,0,0,1,11,25Zm-.59-3,.59.59.59-.59Z"/><polygon class="cls-3" points="40 27 34 27 37 24 40 27"/><path class="cls-3" d="M40,28c-6.39,0-6.58.21-6.92-.62s.31-1.19,3.21-4.09a1,1,0,0,1,1.42,0l3,3A1,1,0,0,1,40,28Zm-3.59-2h1.18L37,25.41Z"/><path class="cls-3" d="M10,20A11,11,0,0,1,21,9a1,1,0,0,1,0,2,9,9,0,0,0-9,9A1,1,0,0,1,10,20Z"/><path class="cls-3" d="M27,39a1,1,0,0,1,0-2,9,9,0,0,0,9-9,1,1,0,0,1,2,0A11,11,0,0,1,27,39Z"/></g></svg>