<svg xmlns="http://www.w3.org/2000/svg" viewBox="0 0 48 48"><defs><style>.cls-1{fill:#48bdff;}.cls-2{fill:#e8f0fb;}.cls-3{fill:#2d98f6;}</style></defs><title>laptop</title><g id="laptop"><path class="cls-1" d="M44,32v4a4,4,0,0,1-4,4H8a4,4,0,0,1-4-4V32H18l2,2h8l2-2Z"/><path class="cls-2" d="M41,11V32H30l-2,2H20l-2-2H7V11a3,3,0,0,1,3-3H38A3,3,0,0,1,41,11Z"/><circle class="cls-3" cx="24" cy="25" r="2"/><path class="cls-3" d="M27.54,22.46a5,5,0,0,0-7.08,0,1,1,0,0,1-1.41-1.41c4.53-4.53,11.68-.36,9.9,1.41A1,1,0,0,1,27.54,22.46Z"/><path class="cls-3" d="M30.36,19.64a9,9,0,0,0-12.72,0,1,1,0,0,1-1.42-1.42,11,11,0,0,1,15.56,0A1,1,0,0,1,30.36,19.64Z"/></g></svg>