<svg xmlns="http://www.w3.org/2000/svg" viewBox="0 0 48 48"><defs><style>.cls-1{fill:#2d98f6;}.cls-2{fill:#48bdff;}.cls-3{fill:#ebf3fe;}.cls-4{fill:#b9d5ea;}</style></defs><title>online server</title><g id="online_server" data-name="online server"><path class="cls-1" d="M23,38V35a1,1,0,0,1,2,0v3A1,1,0,0,1,23,38Z"/><path class="cls-1" d="M42,41H26a1,1,0,0,1,0-2H42A1,1,0,0,1,42,41Z"/><path class="cls-1" d="M22,41H6a1,1,0,0,1,0-2H22A1,1,0,0,1,22,41Z"/><path class="cls-1" d="M23,23V19a1,1,0,0,1,2,0v4A1,1,0,0,1,23,23Z"/><rect class="cls-2" x="6" y="7" width="36" height="12" rx="1"/><circle class="cls-3" cx="36" cy="13" r="2"/><path class="cls-3" d="M36,16a3,3,0,1,1,3-3A3,3,0,0,1,36,16Zm0-4a1,1,0,0,0,0,2A1,1,0,0,0,36,12Z"/><path class="cls-3" d="M17,15.4V10.6a1,1,0,0,1,2,0v4.8A1,1,0,0,1,17,15.4Z"/><path class="cls-3" d="M13,15.4V10.6a1,1,0,0,1,2,0v4.8A1,1,0,0,1,13,15.4Z"/><path class="cls-3" d="M34,14H30a1,1,0,0,1,0-2h4A1,1,0,0,1,34,14Z"/><rect class="cls-2" x="6" y="23" width="36" height="12" rx="1"/><circle class="cls-3" cx="36" cy="29" r="2"/><path class="cls-3" d="M36,32a3,3,0,1,1,3-3A3,3,0,0,1,36,32Zm0-4a1,1,0,0,0,0,2A1,1,0,0,0,36,28Z"/><path class="cls-3" d="M17,31.4V26.6a1,1,0,0,1,2,0v4.8A1,1,0,0,1,17,31.4Z"/><path class="cls-3" d="M13,31.4V26.6a1,1,0,0,1,2,0v4.8A1,1,0,0,1,13,31.4Z"/><path class="cls-3" d="M9,15.4V10.6a1,1,0,0,1,2,0v4.8A1,1,0,0,1,9,15.4Z"/><path class="cls-3" d="M9,31.4V26.6a1,1,0,0,1,2,0v4.8A1,1,0,0,1,9,31.4Z"/><path class="cls-3" d="M34,30H30a1,1,0,0,1,0-2h4A1,1,0,0,1,34,30Z"/><rect class="cls-4" x="22" y="38" width="4" height="4"/></g></svg>