<svg xmlns="http://www.w3.org/2000/svg" viewBox="0 0 48 48"><defs><style>.cls-1{fill:#b9d5ea;}.cls-2{fill:#48bdff;}.cls-3{fill:#2d98f6;}.cls-4{fill:#e8f0fb;}</style></defs><title>hub port</title><g id="hub_port" data-name="hub port"><path class="cls-1" d="M24,20a1,1,0,0,1-1-1,4,4,0,0,0-4-4H10.5a3.5,3.5,0,0,1,0-7H30a1,1,0,0,1,0,2H10.5a1.5,1.5,0,0,0,0,3H19C24.52,13,26.41,20,24,20Z"/><rect class="cls-2" x="4" y="23" width="40" height="17" rx="4"/><polygon class="cls-3" points="8 28 8 33 10 33 10 35 14 35 14 33 16 33 16 28 8 28"/><polygon class="cls-3" points="20 28 20 33 22 33 22 35 26 35 26 33 28 33 28 28 20 28"/><polygon class="cls-3" points="32 28 32 33 34 33 34 35 38 35 38 33 40 33 40 28 32 28"/><path class="cls-1" d="M22,19h4a1,1,0,0,1,1,1v3a0,0,0,0,1,0,0H21a0,0,0,0,1,0,0V20A1,1,0,0,1,22,19Z"/><path class="cls-1" d="M36,6v6H33a3,3,0,0,1,0-6Z"/><rect class="cls-4" x="36" y="7" width="4" height="4" transform="translate(29 47) rotate(-90)"/></g></svg>