<svg xmlns="http://www.w3.org/2000/svg" viewBox="0 0 48 48"><defs><style>.cls-1{fill:#48bdff;}.cls-2{fill:#e8f0fb;}.cls-3{fill:#2d98f6;}.cls-4{fill:#b9d5ea;}</style></defs><title>pairing</title><g id="pairing"><path class="cls-1" d="M42,28v2a4,4,0,0,1-4,4H20V28Z"/><path class="cls-2" d="M42,10V28H20V22a2,2,0,0,0-2-2H8a2,2,0,0,0-2,2V10a4,4,0,0,1,4-4H38A4,4,0,0,1,42,10Z"/><path class="cls-3" d="M30,42H18a2,2,0,0,0,2-2V34h8Z"/><path class="cls-1" d="M20,22v1H16.71c-1.23,0-1.19,1-2.42,1-2.78,0-3.16.13-3.79-.5S9.59,23,6,23V22a2,2,0,0,1,2-2H18A2,2,0,0,1,20,22Z"/><path class="cls-2" d="M20,23V40H6V23H9.29c1.23,0,1.19,1.06,2.42,1.06,2.84,0,3.17.13,3.79-.53S16.46,23,20,23Z"/><path class="cls-3" d="M12,34c-.54,0-.57-.15-2.71-2.29a1,1,0,0,1,1.42-1.42l2,2A1,1,0,0,1,12,34Z"/><path class="cls-3" d="M12,34a1,1,0,0,1-.71-1.71l4-4a1,1,0,0,1,1.42,1.42C12.34,34.08,12.56,34,12,34Z"/><path class="cls-3" d="M36,16c-12.69,0-12.57.25-12.92-.62s.31-1.19,3.21-4.09a1,1,0,0,1,1.42,1.42L26.41,14H36A1,1,0,0,1,36,16Z"/><path class="cls-3" d="M32.29,21.29,33.59,20H24a1,1,0,0,1,0-2c12.69,0,12.57-.25,12.92.62s-.31,1.19-3.21,4.09A1,1,0,0,1,32.29,21.29Z"/><path class="cls-4" d="M37,32H36a1,1,0,0,1,0-2h1A1,1,0,0,1,37,32Z"/><path class="cls-3" d="M33,43H15a1,1,0,0,1,0-2H33A1,1,0,0,1,33,43Z"/><path class="cls-1" d="M20,40v1a2,2,0,0,1-2,2H8a2,2,0,0,1-2-2V40Z"/></g></svg>