<svg xmlns="http://www.w3.org/2000/svg" viewBox="0 0 48 48"><defs><style>.cls-1{fill:#2d98f6;}.cls-2{fill:#b9d5ea;}.cls-3{fill:#48bdff;}.cls-4{fill:#e8f0fb;}</style></defs><title>hub terminal</title><g id="hub_terminal" data-name="hub terminal"><path class="cls-1" d="M10,42c-.55,0,0-.45,0-1V38a1,1,0,0,1,2,0v3C12,41.55,10.55,42,10,42Z"/><path class="cls-1" d="M12,42c-5.77,0-4,.22-4-1a1,1,0,0,1,1-1h4a1,1,0,0,1,1,1C14,41.55,12.55,42,12,42Z"/><path class="cls-1" d="M23,41V38a1,1,0,0,1,2,0v3A1,1,0,0,1,23,41Z"/><path class="cls-1" d="M26,42H22a1,1,0,0,1,0-2h4A1,1,0,0,1,26,42Z"/><path class="cls-1" d="M36,41V38a1,1,0,0,1,2,0v3A1,1,0,0,1,36,41Z"/><path class="cls-1" d="M39,42H35a1,1,0,0,1,0-2h4A1,1,0,0,1,39,42Z"/><path class="cls-1" d="M10,15V12a1,1,0,0,1,2,0v3A1,1,0,0,1,10,15Z"/><path class="cls-1" d="M13,16H9a1,1,0,0,1,0-2h4A1,1,0,0,1,13,16Z"/><path class="cls-1" d="M23,15V12a1,1,0,0,1,2,0v3A1,1,0,0,1,23,15Z"/><path class="cls-1" d="M26,16H22a1,1,0,0,1,0-2h4A1,1,0,0,1,26,16Z"/><path class="cls-1" d="M36,15V12a1,1,0,0,1,2,0v3A1,1,0,0,1,36,15Z"/><path class="cls-1" d="M39,16H35a1,1,0,0,1,0-2h4A1,1,0,0,1,39,16Z"/><path class="cls-2" d="M23,30V27a1,1,0,0,1,2,0v3A1,1,0,0,1,23,30Z"/><path class="cls-2" d="M23,21V18a1,1,0,0,1,2,0v3A1,1,0,0,1,23,21Z"/><path class="cls-2" d="M16,21V20H11a1,1,0,0,1-1-1V18a1,1,0,0,1,2,0h5a1,1,0,0,1,1,1v2A1,1,0,0,1,16,21Z"/><path class="cls-2" d="M36,30H31a1,1,0,0,1-1-1V27a1,1,0,0,1,2,0v1h5a1,1,0,0,1,1,1v1A1,1,0,0,1,36,30Z"/><path class="cls-2" d="M30,21V19a1,1,0,0,1,1-1h5a1,1,0,0,1,2,0v1a1,1,0,0,1-1,1H32v1A1,1,0,0,1,30,21Z"/><path class="cls-2" d="M10,30V29a1,1,0,0,1,1-1h5V27a1,1,0,0,1,2,0v2a1,1,0,0,1-1,1H12A1,1,0,0,1,10,30Z"/><rect class="cls-3" x="6" y="32" width="10" height="7" rx="1"/><rect class="cls-3" x="19" y="32" width="10" height="7" rx="1"/><rect class="cls-3" x="32" y="32" width="10" height="7" rx="1"/><rect class="cls-3" x="6" y="6" width="10" height="7" rx="1"/><rect class="cls-3" x="19" y="6" width="10" height="7" rx="1"/><rect class="cls-3" x="32" y="6" width="10" height="7" rx="1"/><path class="cls-1" d="M32,27H16a3,3,0,0,1,0-6H32a3,3,0,0,1,0,6Z"/><path class="cls-4" d="M19,25H17a1,1,0,0,1,0-2h2A1,1,0,0,1,19,25Z"/><path class="cls-4" d="M25,25H23a1,1,0,0,1,0-2h2A1,1,0,0,1,25,25Z"/><path class="cls-4" d="M31,25H29a1,1,0,0,1,0-2h2A1,1,0,0,1,31,25Z"/></g></svg>