<svg xmlns="http://www.w3.org/2000/svg" viewBox="0 0 48 48"><defs><style>.cls-1{fill:#48bdff;}.cls-2{fill:#e8f0fb;}</style></defs><title>transfer cloud</title><g id="transfer_cloud" data-name="transfer cloud"><path class="cls-1" d="M16,32H13.5A7.49,7.49,0,0,1,13,17a11,11,0,0,1,21.83-1.92A8.5,8.5,0,0,1,33.5,32H32"/><path class="cls-2" d="M23,42c-3.48-4.64-3-8.72-3-14h2l-4-4-4,4h2c0,5.51.46,9.38-3,14Z"/><path class="cls-2" d="M25,24H35c-3.48,4.64-3,8.72-3,14h2l-4,4-4-4h2C28,32.49,28.46,28.62,25,24Z"/></g></svg>