<svg xmlns="http://www.w3.org/2000/svg" viewBox="0 0 48 48"><defs><style>.cls-1{fill:#48bdff;}.cls-2{fill:#ebf3fe;}.cls-3{fill:#b9d5ea;}</style></defs><title>backup</title><g id="backup"><path class="cls-1" d="M42,23.5A8.51,8.51,0,0,1,33.5,32H32V24c0-1.66-3.58-3-8-3s-8,1.34-8,3v8H13.5A7.49,7.49,0,0,1,13,17a11,11,0,0,1,21.83-1.92A8.5,8.5,0,0,1,42,23.5Z"/><path class="cls-2" d="M32,29v5c0,1-1.42,2-3.57,2.5a19.78,19.78,0,0,1-8.86,0C17.42,36,16,35,16,34V29c0,1,1.42,2,3.57,2.5a19.78,19.78,0,0,0,8.86,0C30.58,31,32,30,32,29Z"/><path class="cls-2" d="M28.43,26.5a19.78,19.78,0,0,1-8.86,0C12.9,24.82,16.25,21,24,21S35.07,24.83,28.43,26.5Z"/><path class="cls-3" d="M32,24v5c0,1-1.42,2-3.57,2.5a19.78,19.78,0,0,1-8.86,0C17.42,31,16,30,16,29V24c0,1,1.42,2,3.57,2.5a19.78,19.78,0,0,0,8.86,0C30.58,26,32,25,32,24Z"/><path class="cls-3" d="M32,34v5c0,1.66-3.58,3-8,3s-8-1.34-8-3V34c0,1,1.42,2,3.57,2.5a19.78,19.78,0,0,0,8.86,0C30.58,36,32,35,32,34Z"/></g></svg>