<svg xmlns="http://www.w3.org/2000/svg" viewBox="0 0 48 48"><defs><style>.cls-1{fill:#48bdff;}.cls-2{fill:#2d98f6;}.cls-3{fill:#b9d5ea;}</style></defs><title>virtual reality</title><g id="virtual_reality" data-name="virtual reality"><path class="cls-1" d="M40,22V38a2,2,0,0,1-2,2H29.51a2,2,0,0,1-1.92-1.45L27.43,38H20.57l-.16.55A2,2,0,0,1,18.49,40H10a2,2,0,0,1-2-2V22a2,2,0,0,1,2-2c9.05,0,7.51-.49,10,2h8c1.26-1.26,1.73-2,2.83-2H38A2,2,0,0,1,40,22Z"/><path class="cls-2" d="M27.43,38H20.57l.88-3.08a2.66,2.66,0,0,1,5.1,0Z"/><path class="cls-2" d="M11,35V25a1,1,0,0,1,2,0V35A1,1,0,0,1,11,35Z"/><path class="cls-2" d="M36,35V25a1,1,0,0,1,2,0V35A1,1,0,0,1,36,35Z"/><rect class="cls-3" x="40" y="23" width="4" height="14"/><rect class="cls-3" x="4" y="23" width="4" height="14"/><circle class="cls-2" cx="24" cy="17" r="2"/><path class="cls-2" d="M28.24,14.76c-1,0-1.42-1.76-4.24-1.76a5,5,0,0,0-3.54,1.46,1,1,0,0,1-1.41-1.41,7,7,0,0,1,9.9,0A1,1,0,0,1,28.24,14.76Z"/><path class="cls-2" d="M30.36,11.64a9,9,0,0,0-12.72,0,1,1,0,0,1-1.42-1.42,11,11,0,0,1,15.56,0A1,1,0,0,1,30.36,11.64Z"/></g></svg>