<svg xmlns="http://www.w3.org/2000/svg" viewBox="0 0 48 48"><defs><style>.cls-1{fill:#48bdff;}.cls-2{fill:#b9d5ea;}.cls-3{fill:#e8f0fa;}</style></defs><title>email</title><g id="email"><path class="cls-1" d="M42,23.5A8.51,8.51,0,0,1,34,32V26H14v6c-5.07,0-8-3.63-8-7.5A7.48,7.48,0,0,1,13,17a11,11,0,0,1,21.83-1.92A8.5,8.5,0,0,1,42,23.5Z"/><polygon class="cls-2" points="22 34 14 42 14 26 22 34"/><polygon class="cls-3" points="34 42 14 42 22 34 24 36 26 34 34 42"/><polygon class="cls-2" points="34 26 34 42 26 34 34 26"/><polygon class="cls-3" points="34 26 24 36 14 26 34 26"/><rect class="cls-2" x="18.07" y="33.84" width="6.95" height="1.41" transform="translate(30.74 -5.12) rotate(45)"/><rect class="cls-2" x="22.62" y="34.61" width="6.3" height="1.41" transform="translate(-17.42 28.57) rotate(-45)"/></g></svg>