<svg xmlns="http://www.w3.org/2000/svg" viewBox="0 0 48 48"><defs><style>.cls-1{fill:#48bdff;}.cls-2{fill:#e8f0fb;}</style></defs><title>cloud wifi</title><g id="cloud_wifi" data-name="cloud wifi"><path class="cls-1" d="M36,20.2A12,12,0,1,0,12,20v2.06A9,9,0,0,0,13,40H34a10,10,0,0,0,2-19.8Z"/><path class="cls-2" d="M24,35a2,2,0,1,1,2-2A2,2,0,0,1,24,35Zm0-2h0Zm0,0h0Zm0,0h0Zm0,0h0Zm0,0h0Zm0,0h0Zm0,0h0Zm0,0h0Z"/><path class="cls-2" d="M19.05,29.05a7,7,0,0,1,9.9,0,1,1,0,0,1-1.41,1.41,5,5,0,0,0-7.08,0A1,1,0,0,1,19.05,29.05Z"/><path class="cls-2" d="M30.36,27.64a9,9,0,0,0-12.72,0,1,1,0,0,1-1.42-1.42,11,11,0,0,1,15.56,0A1,1,0,0,1,30.36,27.64Z"/></g></svg>