<svg xmlns="http://www.w3.org/2000/svg" viewBox="0 0 48 48"><defs><style>.cls-1{fill:#2d98f6;}.cls-2{fill:#b9d5ea;}.cls-3{fill:#48bdff;}.cls-4{fill:#e8f0fb;}</style></defs><title>folder</title><g id="folder"><path class="cls-1" d="M42,41H26a1,1,0,0,1,0-2H42A1,1,0,0,1,42,41Z"/><path class="cls-1" d="M22,41H6a1,1,0,0,1,0-2H22A1,1,0,0,1,22,41Z"/><path class="cls-1" d="M23,38V35a1,1,0,0,1,2,0v3A1,1,0,0,1,23,38Z"/><rect class="cls-2" x="22" y="38" width="4" height="4"/><path class="cls-1" d="M42,8V32a3,3,0,0,1-6,0V12H24L22,8Z"/><path class="cls-3" d="M39,35H9a3,3,0,0,1-3-3V6H21l3,6H36V32A3,3,0,0,0,39,35Z"/><path class="cls-4" d="M25,23H17a1,1,0,0,1-1-1V20a5,5,0,0,1,10,0v2A1,1,0,0,1,25,23Zm-7-2h6V20a3,3,0,0,0-6,0Z"/><rect class="cls-2" x="14" y="21" width="14" height="10" rx="1"/><circle class="cls-4" cx="21" cy="25" r="2"/><path class="cls-4" d="M20,28V26h2v2A1,1,0,0,1,20,28Z"/></g></svg>