<svg xmlns="http://www.w3.org/2000/svg" viewBox="0 0 48 48"><defs><style>.cls-1{fill:#48bdff;}.cls-2{fill:#e8f0fb;}.cls-3{fill:#2d98f6;}.cls-4{fill:#b9d5ea;}</style></defs><title>speed</title><g id="speed"><path class="cls-1" d="M36,20.2A12,12,0,1,0,12,20v2.06A9,9,0,0,0,13,40H34a10,10,0,0,0,2-19.8Z"/><path class="cls-2" d="M29.64,36H18.36C11.75,30.74,15.54,20,24,20S36.23,30.76,29.64,36Z"/><path class="cls-3" d="M33,37H15a1,1,0,0,1,0-2H33A1,1,0,0,1,33,37Z"/><path class="cls-3" d="M24,34a2,2,0,1,1,2-2A2,2,0,0,1,24,34Zm0-2Z"/><path class="cls-3" d="M23,31V27a1,1,0,0,1,2,0v4A1,1,0,0,1,23,31Z"/><path class="cls-4" d="M17,30H15.06a8.36,8.36,0,0,1,0-2H17A1,1,0,0,1,17,30Z"/><path class="cls-4" d="M32.94,30H31a1,1,0,0,1,0-2h1.94A8.36,8.36,0,0,1,32.94,30Z"/><path class="cls-4" d="M25,20.06V22a1,1,0,0,1-2,0V20.06A8.36,8.36,0,0,1,25,20.06Z"/><path class="cls-4" d="M31,23.39c-1.45,1.46-1.53,1.66-2.07,1.66a1,1,0,0,1-.71-1.71L29.61,22A7.24,7.24,0,0,1,31,23.39Z"/><path class="cls-4" d="M18.34,24.76,17,23.39A7.24,7.24,0,0,1,18.39,22l1.37,1.36A1,1,0,0,1,18.34,24.76Z"/></g></svg>