<svg xmlns="http://www.w3.org/2000/svg" viewBox="0 0 48 48"><defs><style>.cls-1{fill:#48bdff;}.cls-2{fill:#e8f0fb;}.cls-3{fill:#2d98f6;}</style></defs><title>smartphone</title><g id="smartphone"><path class="cls-1" d="M37,40v2a2,2,0,0,1-2,2H13a2,2,0,0,1-2-2V40Z"/><path class="cls-2" d="M37,8V40H11V8h7.29c1.23,0,1.19,1,2.42,1,7.14,0,7.12.17,7.79-.5S29.1,8,37,8Z"/><path class="cls-1" d="M37,6V8H29.71c-1.23,0-1.19,1-2.42,1-7.14,0-7.12.17-7.79-.5S18.9,8,11,8V6a2,2,0,0,1,2-2H35A2,2,0,0,1,37,6Z"/><circle class="cls-3" cx="24" cy="29" r="2"/><path class="cls-3" d="M28.24,26.76c-1,0-1.42-1.76-4.24-1.76a5,5,0,0,0-3.54,1.46,1,1,0,0,1-1.41-1.41,7,7,0,0,1,9.9,0A1,1,0,0,1,28.24,26.76Z"/><path class="cls-3" d="M30.36,23.64a9,9,0,0,0-12.72,0,1,1,0,0,1-1.42-1.42,11,11,0,0,1,15.56,0A1,1,0,0,1,30.36,23.64Z"/></g></svg>