<svg xmlns="http://www.w3.org/2000/svg" viewBox="0 0 48 48"><defs><style>.cls-1{fill:#b9d5ea;}.cls-2{fill:#48bdff;}</style></defs><title>connection</title><g id="connection"><path class="cls-1" d="M18,39V32a1,1,0,0,1,2,0v7A1,1,0,0,1,18,39Z"/><path class="cls-1" d="M28,40c-.56,0-.3.12-4.71-4.29C22.9,35.32,23,35.19,23,32a1,1,0,0,1,2,0v2.59l3.71,3.7A1,1,0,0,1,28,40Z"/><path class="cls-1" d="M38,40c-.56,0-.42,0-4.41-4H29a1,1,0,0,1-1-1V32a1,1,0,0,1,2,0v2c4.34,0,4.32-.1,4.71.29l4,4A1,1,0,0,1,38,40Z"/><path class="cls-1" d="M8,39V35a1,1,0,0,1,1-1h5V32a1,1,0,0,1,2,0v3a1,1,0,0,1-1,1H10v3A1,1,0,0,1,8,39Z"/><path class="cls-2" d="M34.83,15.11A11,11,0,0,0,13,17a7.49,7.49,0,0,0,.5,15h20a8.5,8.5,0,0,0,1.33-16.89Z"/><circle class="cls-2" cx="9" cy="40" r="2"/><circle class="cls-2" cx="39" cy="40" r="2"/><circle class="cls-2" cx="29" cy="40" r="2"/><circle class="cls-2" cx="19" cy="40" r="2"/></g></svg>