<svg xmlns="http://www.w3.org/2000/svg" viewBox="0 0 48 48"><defs><style>.cls-1{fill:#48bdff;}.cls-2{fill:#e8f0fb;}.cls-3{fill:#2d98f6;}.cls-4{fill:#b9d5ea;}</style></defs><title>computer</title><g id="computer"><path class="cls-1" d="M42,28v2a4,4,0,0,1-4,4H10a4,4,0,0,1-4-4V28Z"/><path class="cls-2" d="M42,10V28H6V10a4,4,0,0,1,4-4H38A4,4,0,0,1,42,10Z"/><polygon class="cls-3" points="30 42 18 42 20 34 28 34 30 42"/><path class="cls-3" d="M33,43H15a1,1,0,0,1,0-2H33A1,1,0,0,1,33,43Z"/><path class="cls-4" d="M37,32H36a1,1,0,0,1,0-2h1A1,1,0,0,1,37,32Z"/><circle class="cls-3" cx="24" cy="22" r="2"/><path class="cls-3" d="M19.05,18.05a7,7,0,0,1,9.9,0,1,1,0,0,1-1.41,1.41,5,5,0,0,0-7.08,0A1,1,0,0,1,19.05,18.05Z"/><path class="cls-3" d="M30.36,16.64a9,9,0,0,0-12.72,0,1,1,0,0,1-1.42-1.42,11,11,0,0,1,15.56,0A1,1,0,0,1,30.36,16.64Z"/></g></svg>