<svg xmlns="http://www.w3.org/2000/svg" viewBox="0 0 48 48"><defs><style>.cls-1{fill:#e8f0fb;}.cls-2{fill:#b9d5ea;}.cls-3{fill:#48bdff;}.cls-4{fill:#2d98f6;}</style></defs><title>world</title><g id="world"><path class="cls-1" d="M23,14V10a1,1,0,0,1,2,0v4A1,1,0,0,1,23,14Z"/><path class="cls-1" d="M38,25H34a1,1,0,0,1,0-2h4A1,1,0,0,1,38,25Z"/><path class="cls-1" d="M23,38V34a1,1,0,0,1,2,0v4A1,1,0,0,1,23,38Z"/><path class="cls-1" d="M14,25H10a1,1,0,0,1,0-2h4A1,1,0,0,1,14,25Z"/><path class="cls-2" d="M8.09,22.17l-2-.33C7.69,12.64,13.7,7.53,21.83,6.11l.35,2A16.07,16.07,0,0,0,8.09,22.17Z"/><path class="cls-2" d="M26.17,41.89l-.35-2A16.07,16.07,0,0,0,39.91,25.83l2,.33C40.31,35.36,34.3,40.47,26.17,41.89Z"/><path class="cls-2" d="M21.83,41.89c-8.09-1.41-14.14-6.5-15.71-15.73l2-.33A16.05,16.05,0,0,0,11.5,34c3.23,3.86,6.51,5.2,10.68,5.93Z"/><path class="cls-2" d="M39.91,22.17A16.05,16.05,0,0,0,36.5,14C33.27,10.15,30,8.81,25.82,8.08l.35-2c8.09,1.41,14.14,6.5,15.71,15.73Z"/><path class="cls-3" d="M34,24a10,10,0,1,1-16.91-7.22A10,10,0,0,1,34,24Z"/><path class="cls-4" d="M32.22,29.69a8.72,8.72,0,0,1-1.31,1.53,9,9,0,0,0-13.75-.07.23.23,0,0,1-.07.07,9.11,9.11,0,0,1-1.31-1.53A11,11,0,0,1,32.22,29.69Z"/><path class="cls-4" d="M32.22,18.31a11,11,0,0,1-16.44,0,8.72,8.72,0,0,1,1.31-1.53,9,9,0,0,0,9.49,2.84,9.31,9.31,0,0,0,4.33-2.84A9.11,9.11,0,0,1,32.22,18.31Z"/><path class="cls-4" d="M26.48,14.32a9.7,9.7,0,0,0-5,0c-3.4,3.93-3.3,15.5,0,19.36a9.7,9.7,0,0,0,5,0C29.83,29.81,29.84,18.25,26.48,14.32ZM21.42,28.38a23,23,0,0,1,0-8.76C21.72,18.24,22.68,15,24,15s2.26,3.17,2.58,4.62C28.43,28.6,23.8,39.3,21.42,28.38Z"/><circle class="cls-4" cx="24" cy="7" r="3"/><circle class="cls-4" cx="24" cy="41" r="3"/><circle class="cls-4" cx="41" cy="24" r="3"/><circle class="cls-4" cx="7" cy="24" r="3"/></g></svg>