<svg id="antena" xmlns="http://www.w3.org/2000/svg" viewBox="0 0 48 48"><defs><style>.cls-1{fill:#b7d2e7;}.cls-2{fill:#48bbfb;}.cls-3{fill:#2d98f6;}</style></defs><title>antena</title><path class="cls-1" d="M7.15,43.48,18,25.79a1,1,0,0,1,1.28-.38C24.9,28.06,25,27.91,25,28.74s.08.6-7.59,4.23C25,36.3,25,36.08,25,37s.55.41-16.6,8A1,1,0,0,1,7.15,43.48Zm8.06-9.29-4.68,7.6,11-4.83Zm4.05-6.59-2,3.21,4.38-2.07Z"/><path class="cls-1" d="M18.45,27.21A1,1,0,0,1,18,25.79l5.12-8.31a1,1,0,0,1,1.7,0c5.5,8.92,5.41,8.51,5.23,9.11s0,.39-5.65,3.05C23.81,29.94,23.69,29.7,18.45,27.21Zm1.87-1.33L24,27.63l3.68-1.75-3.68-6Z"/><path class="cls-1" d="M14.6,33.92a1,1,0,0,1,0-1.82c9.68-4.58,9.26-4.55,9.86-4.26C34.05,32.39,34,32.13,34,33s-.2.73-9.6,4.87C23.82,38.13,24.13,38.11,14.6,33.92Zm2.81-1L24,35.87,30.59,33,24,29.85Z"/><path class="cls-1" d="M40,45c-.32,0,.64.37-16.4-7.12a1,1,0,0,1,0-1.84l7-3.07-7-3.33a1,1,0,0,1,0-1.8l5.12-2.43a1,1,0,0,1,1.28.38L40.85,43.48A1,1,0,0,1,40,45ZM26.48,37l11,4.83-4.68-7.6Zm-.15-8.22,4.38,2.07-2-3.21Z"/><path class="cls-1" d="M23,18V16a1,1,0,0,1,2,0v2A1,1,0,0,1,23,18Z"/><path class="cls-2" d="M29,19a1,1,0,0,1-.71-1.71,6,6,0,0,0,0-8.48,1,1,0,0,1,1.42-1.42C34.31,12,30.81,19,29,19Z"/><path class="cls-2" d="M18.34,18.66a8,8,0,0,1,0-11.32,1,1,0,0,1,1.42,1.42,6,6,0,0,0,0,8.48A1,1,0,0,1,18.34,18.66Z"/><path class="cls-2" d="M31.07,20.07a10,10,0,0,0,0-14.14,1,1,0,0,1,1.42-1.42,12,12,0,0,1,0,17A1,1,0,0,1,31.07,20.07Z"/><path class="cls-2" d="M15.51,21.49a12,12,0,0,1,0-17,1,1,0,0,1,1.42,1.42,10,10,0,0,0,0,14.14A1,1,0,0,1,15.51,21.49Z"/><circle class="cls-3" cx="24" cy="13" r="3"/></svg>