<svg xmlns="http://www.w3.org/2000/svg" viewBox="0 0 48 48"><defs><style>.cls-1{fill:#48bdff;}.cls-2{fill:#e8f0fb;}.cls-3{fill:#2d98f6;}.cls-4{fill:#b9d5ea;}</style></defs><title>home network</title><g id="home_network" data-name="home network"><polygon class="cls-1" points="24 6 6 17 12 17 12 35 36 35 36 17 42 17 24 6"/><circle class="cls-2" cx="24" cy="27" r="2"/><path class="cls-2" d="M28.24,24.76c-1,0-1.42-1.76-4.24-1.76a5,5,0,0,0-3.54,1.46,1,1,0,0,1-1.41-1.41,7,7,0,0,1,9.9,0A1,1,0,0,1,28.24,24.76Z"/><path class="cls-2" d="M30.36,21.64a9,9,0,0,0-12.72,0,1,1,0,0,1-1.42-1.42,11,11,0,0,1,15.56,0A1,1,0,0,1,30.36,21.64Z"/><path class="cls-3" d="M42,41H26a1,1,0,0,1,0-2H42A1,1,0,0,1,42,41Z"/><path class="cls-3" d="M22,41H6a1,1,0,0,1,0-2H22A1,1,0,0,1,22,41Z"/><path class="cls-3" d="M23,38V35a1,1,0,0,1,2,0v3A1,1,0,0,1,23,38Z"/><rect class="cls-4" x="22" y="38" width="4" height="4"/></g></svg>