<svg xmlns="http://www.w3.org/2000/svg" viewBox="0 0 48 48"><defs><style>.cls-1{fill:#48bdff;}.cls-2{fill:#b9d5ea;}</style></defs><title>configuration</title><g id="configuration"><path class="cls-1" d="M42,23.5A8.51,8.51,0,0,1,33.5,32h-.86l-.72-.89c.43-3.16-1-1,1.74-4.38l-2-3.46c-4.28.67-1.68.55-4.66-.68L26,20H22c-1.28,3.33-.68,2.31-2,3.07s-.09.76-3.66.2l-2,3.46,1.74,2.16c-.39,2.87.62,1.46-.72,3.11H13.5A7.49,7.49,0,0,1,13,17a11,11,0,0,1,21.83-1.92A8.5,8.5,0,0,1,42,23.5Z"/><path class="cls-2" d="M31.92,31.11c.43-3.16-1-1,1.74-4.38l-2-3.46-2.74.43C26.42,21.75,27.56,24,26,20H22l-1,2.59c-2.9,1.2-.44,1.34-4.66.68l-2,3.46c2.72,3.38,1.31,1.18,1.74,4.38l-1.74,2.16,2,3.46,2.74-.43c2.5,2,1.36-.33,2.92,3.7h4l1-2.59c2.9-1.2.44-1.34,4.66-.68l2-3.46ZM24,33a3,3,0,1,1,3-3A3,3,0,0,1,24,33Z"/></g></svg>