<svg xmlns="http://www.w3.org/2000/svg" viewBox="0 0 48 48"><defs><style>.cls-1{fill:#48bdff;}.cls-2{fill:#e8f0fa;}.cls-3{fill:#b9d5ea;}</style></defs><title>cloud internet</title><g id="cloud_internet" data-name="cloud internet"><path class="cls-1" d="M42,23.5A8.51,8.51,0,0,1,34,32a10,10,0,0,0-20,0c-5.07,0-8-3.63-8-7.5A7.48,7.48,0,0,1,13,17a11,11,0,0,1,21.83-1.92A8.5,8.5,0,0,1,42,23.5Z"/><path class="cls-2" d="M31.6,38.5A10,10,0,1,1,24,22,10,10,0,0,1,31.6,38.5Z"/><path class="cls-3" d="M32.58,26.87a11,11,0,0,1-17.16,0,8.76,8.76,0,0,1,1.24-1.63,10.14,10.14,0,0,0,2.71,2.46,9,9,0,0,0,11.82-2.3c.18-.25.14-.2.4.09A7.77,7.77,0,0,1,32.58,26.87Z"/><path class="cls-3" d="M32.58,37.11a9.28,9.28,0,0,1-1.22,1.65,10.32,10.32,0,0,0-2.74-2.46,8.92,8.92,0,0,0-10,.51,11.32,11.32,0,0,0-2,2,9.06,9.06,0,0,1-1.22-1.65A11,11,0,0,1,32.58,37.11Z"/><path class="cls-3" d="M26.46,22.31a10.06,10.06,0,0,0-4.93,0c-3.28,3.82-3.46,15.21,0,19.37a10.14,10.14,0,0,0,4.93,0C29.88,37.53,29.8,26.21,26.46,22.31Zm.12,14.06c-2.24,9.72-6,2.05-5.55-5.45C21,28.81,22.14,23,24,23S27.92,29.66,26.58,36.37Z"/></g></svg>