<svg xmlns="http://www.w3.org/2000/svg" viewBox="0 0 48 48"><defs><style>.cls-1{fill:#48bdff;}.cls-2{fill:#e8f0fb;}.cls-3{fill:#2d98f6;}.cls-4{fill:#b9d5ea;}</style></defs><title>smartwatch</title><g id="smartwatch"><path class="cls-1" d="M32,14H16c0-1.61-.17-2.83,1-4,1.33-1.33,1-2.82,1-6H30c0,3.42-.27,4.73,1,6S32,12.38,32,14Z"/><path class="cls-1" d="M16,34H32c0,1.61.17,2.83-1,4-1.33,1.33-1,2.82-1,6H18c0-3.42.27-4.73-1-6S16,35.62,16,34Z"/><rect class="cls-2" x="13" y="14" width="22" height="20" rx="3"/><path class="cls-1" d="M32,35H16a4,4,0,0,1-4-4V17a4,4,0,0,1,4-4H32a4,4,0,0,1,4,4V31A4,4,0,0,1,32,35ZM16,15a2,2,0,0,0-2,2V31a2,2,0,0,0,2,2H32a2,2,0,0,0,2-2V17a2,2,0,0,0-2-2Z"/><circle class="cls-3" cx="24" cy="28" r="2"/><path class="cls-3" d="M19.05,24.05a7,7,0,0,1,9.9,0,1,1,0,0,1-1.41,1.41,5,5,0,0,0-7.08,0A1,1,0,0,1,19.05,24.05Z"/><path class="cls-3" d="M30.36,22.64a9,9,0,0,0-12.72,0,1,1,0,0,1-1.42-1.42,11,11,0,0,1,15.56,0A1,1,0,0,1,30.36,22.64Z"/><path class="cls-3" d="M35,22V20a1,1,0,0,1,2,0v2A1,1,0,0,1,35,22Z"/><path class="cls-3" d="M35,28V26a1,1,0,0,1,2,0v2A1,1,0,0,1,35,28Z"/><path class="cls-4" d="M27,11H21a1,1,0,0,1,0-2h6A1,1,0,0,1,27,11Z"/><path class="cls-4" d="M27,39H21a1,1,0,0,1,0-2h6A1,1,0,0,1,27,39Z"/></g></svg>