<svg xmlns="http://www.w3.org/2000/svg" viewBox="0 0 64 64"><g id="_24-solar" data-name="24-solar"><polygon points="38 53 40 63 24 63 26 53 38 53" style="fill:#b5b1a4"/><path d="M63,49v2a2.006,2.006,0,0,1-2,2H3a2.006,2.006,0,0,1-2-2V49H63Z" style="fill:#0fa286"/><path d="M20,15l-.62,7H5.77l.94-5.35A2.005,2.005,0,0,1,8.68,15Z" style="fill:#79e78e"/><polygon points="19.38 22 18.59 31 4.18 31 5.77 22 19.38 22" style="fill:#94f27a"/><polygon points="32 15 32 22 19.38 22 20 15 32 15" style="fill:#94f27a"/><polygon points="18.59 31 17.79 40 2.59 40 4.18 31 18.59 31" style="fill:#bdf474"/><polygon points="32 22 32 31 18.59 31 19.38 22 32 22" style="fill:#bdf474"/><polygon points="44 15 44.62 22 32 22 32 15 39 15 44 15" style="fill:#bdf474"/><polygon points="61.41 40 63 49 47 49 46.21 40 61.41 40" style="fill:#79e78e"/><polygon points="46.21 40 47 49 32 49 32 48 32 40 46.21 40" style="fill:#94f27a"/><polygon points="59.82 31 61.41 40 46.21 40 45.41 31 59.82 31" style="fill:#94f27a"/><polygon points="32 48 32 49 17 49 17.79 40 32 40 32 48" style="fill:#bdf474"/><polygon points="45.41 31 46.21 40 32 40 32 31 45.41 31" style="fill:#bdf474"/><polygon points="58.23 22 59.82 31 45.41 31 44.62 22 58.23 22" style="fill:#bdf474"/><polygon points="17.79 40 17 49 1 49 2.59 40 17.79 40" style="fill:#ffce54"/><polygon points="32 31 32 40 17.79 40 18.59 31 32 31" style="fill:#ffdf64"/><polygon points="44.62 22 45.41 31 32 31 32 22 44.62 22" style="fill:#ffdf64"/><path d="M57.83,19.69l.4,2.31H44.62L44,15H55.32a2.005,2.005,0,0,1,1.97,1.65Z" style="fill:#ffdf64"/><path d="M59,15a9.908,9.908,0,0,1-1.17,4.69l-.54-3.04A2.005,2.005,0,0,0,55.32,15H39a10,10,0,0,1,20,0Z" style="fill:#fff978"/><path d="M63,49H1v2a1.975,1.975,0,0,0,.279,1A2,2,0,0,1,3,51H61a2,2,0,0,1,1.721,1A1.975,1.975,0,0,0,63,51Z" style="fill:#0e825b"/><path d="M28.761,55.987A1.056,1.056,0,0,1,29.752,55H38.4L38,53H26L24,63H40l-.2-1C29.3,61.946,28.533,57.9,28.761,55.987Z" style="fill:#8f8b81"/><rect x="20" y="62" width="24" height="2" style="fill:#6e6b63"/><path d="M49,4a1,1,0,0,1-1-1V2a1,1,0,0,1,2,0V3A1,1,0,0,1,49,4Z" style="fill:#ffb844"/><path d="M62,16H61a1,1,0,0,1,0-2h1a1,1,0,0,1,0,2Z" style="fill:#ffb844"/><path d="M57.57,7.43a1,1,0,0,1-.707-1.707l1.43-1.43a1,1,0,1,1,1.414,1.414l-1.43,1.43A1,1,0,0,1,57.57,7.43Z" style="fill:#ffb844"/><path d="M40.43,7.43a1,1,0,0,1-.707-.293l-1.43-1.43a1,1,0,0,1,1.414-1.414l1.43,1.43A1,1,0,0,1,40.43,7.43Z" style="fill:#ffb844"/><path d="M10.243,15H8.68a2.005,2.005,0,0,0-1.97,1.65L5.77,22H12.7A21.2,21.2,0,0,1,10.243,15Z" style="fill:#28be77"/><path d="M18.727,29.445A29.478,29.478,0,0,1,12.7,22H5.77L4.18,31H18.59Z" style="fill:#61db58"/><polygon points="18.59 31 4.18 31 2.59 40 17.79 40 18.59 31" style="fill:#75e66c"/><path d="M18.727,29.445,18.59,31h1.948C19.907,30.494,19.307,29.974,18.727,29.445Z" style="fill:#bdf474"/><path d="M46.408,42.257,47,49H63l-.888-5.028A87.715,87.715,0,0,1,46.408,42.257Z" style="fill:#28be77"/><path d="M37.836,40H32v9H47l-.592-6.743A76.285,76.285,0,0,1,37.836,40Z" style="fill:#61db58"/><polygon points="32 40 17.79 40 17 49 32 49 32 48 32 40" style="fill:#75e66c"/><path d="M32,40h5.836Q34.793,39,32,37.782Z" style="fill:#bdf474"/><polygon points="2.59 40 1 49 17 49 17.79 40 2.59 40" style="fill:#ffb844"/><path d="M20.538,31H18.59l-.8,9H32V37.782A50.776,50.776,0,0,1,20.538,31Z" style="fill:#ffb844"/><path d="M47.493,49c0-.015.006-.029,0-.044L46.752,40.5H61.5L61.41,40l-.088-.5H46.664l-.706-8h13.95L59.82,31l-.088-.5H45.87l-.706-8H58.318L58.23,22l-.087-.5H45.075L44.5,15h-1c0,.015-.006.029,0,.044l.57,6.456H32.5V15h-1v6.5H19.928l.57-6.456c0-.015-.005-.029-.005-.044H19.5l-.573,6.5H5.858L5.77,22l-.088.5H18.836l-.706,8H4.268L4.18,31l-.088.5h13.95l-.706,8H2.678L2.59,40l-.088.5H17.248L16.5,48.956c0,.015.005.029.005.044H17.5l.75-8.5H31.5V49h1V40.5H45.748L46.5,49h1ZM31.5,39.5H18.34l.706-8H31.5Zm0-9H19.134l.706-8H31.5Zm1-8H44.16l.706,8H32.5Zm0,17v-8H44.954l.706,8Z" style="fill:#75726a"/></g></svg>