<svg xmlns="http://www.w3.org/2000/svg" viewBox="0 0 64 64"><g id="_16-reuse_bag" data-name="16-reuse bag"><polygon points="28 5 26 6 26 17 22 17 22 5 28 5" style="fill:#ffb844"/><polygon points="52 5 52 17 50.12 17 50 17 48 17 48 7 46 5 44 5 40 1 48 1 52 5" style="fill:#ffb844"/><polygon points="44 17 44 21 40 21 40 17 40 7 38 5 29 5 28 5 22 5 20 5 18 6 18 17 18 21 14 21 14 17 14 4 18 1 29 1 40 1 44 5 44 17" style="fill:#ffce54"/><path d="M50,17V63H10L6,59V17h8v4h4V17H40v4h4V17h6Z" style="fill:#aaf66f"/><path d="M54,58l3,4-1,1H50Z" style="fill:#fea740"/><polygon points="54 17 54 58 50 63 50 17 50.12 17 52 17 54 17" style="fill:#ffdf64"/><path d="M58,17V61l-1,1-3-4V17Z" style="fill:#ffce54"/><path d="M56.143,62.857,57,62l-3-4-4,5h1.6L54,60Z" style="fill:#ff942c"/><path d="M26,7V6l2-1H22V17h2V9A2,2,0,0,1,26,7Z" style="fill:#ff942c"/><polygon points="50 6 46 2 43 2 42.333 1 40 1 44 5 46 5 48 7 48 17 50 17 50.12 17 52 17 52 15 50 15 50 6" style="fill:#ff942c"/><polygon points="39 3 19 3 16 5 16 21 18 21 18 17 18 6 20 5 22 5 28 5 29 5 38 5 40 7 40 17 40 21 42 21 42 6 39 3" style="fill:#ffb844"/><polygon points="52 58 52 17 50.12 17 50 17 50 63 54 58 54 55 52 58" style="fill:#ffce54"/><path d="M6,59l4,4H50V59Z" style="fill:#4edfa6"/><path d="M38,52A24,24,0,0,1,14,28V17H6V59H50V52Z" style="fill:#85ee89"/><polygon points="42 21 40 21 40 17 18 17 18 19 37 19 37 23 42 23 42 21" style="fill:#61db58"/><polyline points="12 17 12 23 16 23 16 21 14 21 14 17 12 17" style="fill:#61db58"/><path d="M31.107,32.119,34.853,37H33a1,1,0,0,0,0,2h4a1,1,0,0,0,.97-.758l1-4a1,1,0,0,0-1.94-.484L36.5,35.866,32.7,30.9a4.539,4.539,0,0,0-7.39,0l-4.2,5.49a1,1,0,1,0,1.587,1.216L26.9,32.115a2.543,2.543,0,0,1,4.211,0Z" style="fill:#129c78"/><path d="M43,44.362l-3.21-4.2a1,1,0,0,0-1.588,1.215l3.213,4.2A2.978,2.978,0,0,1,42,47.37a2.921,2.921,0,0,1-.681,1.91,2,2,0,0,1-1.5.72H32.633l1.411-1.252a1,1,0,1,0-1.328-1.5l-3.38,3a1,1,0,0,0,0,1.5l3.38,3a1,1,0,0,0,1.328-1.5L32.633,52H39.82a4.023,4.023,0,0,0,3.007-1.406A5.028,5.028,0,0,0,43,44.362Z" style="fill:#129c78"/><path d="M26,50H18.18a1.99,1.99,0,0,1-1.493-.713A2.926,2.926,0,0,1,16,47.37a2.976,2.976,0,0,1,.584-1.792l1.733-2.263-.3,1.489A1,1,0,0,0,18.8,45.98.948.948,0,0,0,19,46a1,1,0,0,0,.979-.8l1-5A1,1,0,0,0,19.8,39.02l-5,1a1,1,0,1,0,.392,1.96l1.917-.383L15,44.358a5.028,5.028,0,0,0,.18,6.243,4.018,4.018,0,0,0,3,1.4H26a1,1,0,0,0,0-2Z" style="fill:#129c78"/></g></svg>