<svg xmlns="http://www.w3.org/2000/svg" viewBox="0 0 64 64"><g id="_08-light_bulb" data-name="08-light bulb"><path d="M38,60v1a2.006,2.006,0,0,1-2,2H28a2.006,2.006,0,0,1-2-2V60l.03-.15a4.776,4.776,0,0,0,1.21.15h9.52a4.776,4.776,0,0,0,1.21-.15Z" style="fill:#ffdf64"/><path d="M32,57c4.97,0,9,0,9-2v1.44a3.693,3.693,0,0,1-3.03,3.41,4.776,4.776,0,0,1-1.21.15H27.24a4.776,4.776,0,0,1-1.21-.15A3.693,3.693,0,0,1,23,56.44V55C23,57,27.03,57,32,57Z" style="fill:#a9a599"/><path d="M23.03,51.91C24.2,52.44,26.69,53,32,53c5,0,7.5-.5,8.75-1H41v3c0,2-4.03,2-9,2s-9,0-9-2V52Z" style="fill:#d8d4c9"/><path d="M42.72,46,42,51s0,.5-1.25,1S37,53,32,53c-5.31,0-7.8-.56-8.97-1.09C22,51.44,22,51,22,51l-.72-5H42.72Z" style="fill:#ffdf64"/><path d="M23.98,8.06c-.15.75-1.69,8.93,2.78,14.64a15.077,15.077,0,0,0-5.65,10.31L21,33c-4.38-3.5-5.69-10.83-5.95-12.61a23.888,23.888,0,0,1,4.01-7.35A33.626,33.626,0,0,1,23.98,8.06Z" style="fill:#aaf66f"/><path d="M28.06,5.1a43.422,43.422,0,0,0-4.08,2.96,33.626,33.626,0,0,0-4.92,4.98L19,13c-3.46.86-8.41,5.47-9.69,6.7A21.836,21.836,0,0,1,13.87,8.89L14,9A83.282,83.282,0,0,1,28,5Z" style="fill:#85ee89"/><path d="M21.24,45.7a3.952,3.952,0,0,0-1.53-2.61A25.663,25.663,0,0,1,9,24a28.25,28.25,0,0,1,.31-4.3c1.28-1.23,6.23-5.84,9.69-6.7l.06.04a23.888,23.888,0,0,0-4.01,7.35A20.956,20.956,0,0,0,14,27c0,18.25,13,19,13,19H21.28Z" style="fill:#4edfa6"/><path d="M13.87,8.89C18.07,3.69,24.63,1,32,1a28.078,28.078,0,0,1,3.46.21,44.618,44.618,0,0,0-4.49,2.15c-.91.5-1.89,1.08-2.91,1.74L28,5A83.282,83.282,0,0,0,14,9Z" style="fill:#4edfa6"/><path d="M23.94,42.42A15.286,15.286,0,0,0,29,46H27s-13-.75-13-19a20.956,20.956,0,0,1,1.05-6.61C15.31,22.17,16.62,29.5,21,33l.11.01A18.093,18.093,0,0,0,21,35,10.635,10.635,0,0,0,23.94,42.42Z" style="fill:#85ee89"/><path d="M30.97,3.36a18.137,18.137,0,0,0,4.87,13.48,90.844,90.844,0,0,0-7.82,4.85c-.43.32-.85.66-1.26,1.01-4.47-5.71-2.93-13.89-2.78-14.64A43.422,43.422,0,0,1,28.06,5.1C29.08,4.44,30.06,3.86,30.97,3.36Z" style="fill:#85ee89"/><path d="M43,7v.36a8.6,8.6,0,0,1-2.95,6.6c-.02.01-.03.03-.05.04a32.231,32.231,0,0,1-4.16,2.84A18.137,18.137,0,0,1,30.97,3.36a44.618,44.618,0,0,1,4.49-2.15h.01a24.794,24.794,0,0,1,6.57,1.7L42,3A16.841,16.841,0,0,1,43,7Z" style="fill:#aaf66f"/><path d="M35.84,16.84A32.231,32.231,0,0,0,40,14c.02-.01.03-.03.05-.04A8.6,8.6,0,0,0,43,7.36V7a16.841,16.841,0,0,0-1-4l.04-.09C49.71,6.1,55,13.25,55,24A25.663,25.663,0,0,1,44.29,43.09a3.952,3.952,0,0,0-1.53,2.61l-.04.3H29a15.286,15.286,0,0,1-5.06-3.58A10.635,10.635,0,0,1,21,35a18.093,18.093,0,0,1,.11-1.99A15.077,15.077,0,0,1,26.76,22.7c.41-.35.83-.69,1.26-1.01A90.844,90.844,0,0,1,35.84,16.84Z" style="fill:#01cadb"/><path d="M38,60l-.03-.15a4.776,4.776,0,0,1-1.21.15H27.24a4.776,4.776,0,0,1-1.21-.15L26,60v1a1.975,1.975,0,0,0,.279,1A2,2,0,0,1,28,61h8a2,2,0,0,1,1.721,1A1.975,1.975,0,0,0,38,61Z" style="fill:#ffb844"/><path d="M23.25,50C24.5,49.5,27,49,32,49c5.31,0,7.8.56,8.97,1.09C42,50.56,42,51,42,51l.72-5H21.28L22,51S22,50.5,23.25,50Z" style="fill:#ffb844"/><path d="M28,38C22.058,23.144,46,19,46,11c0-4.451-1.857-6.731-3.505-7.882-.153-.068-.3-.144-.455-.208L42,3a16.841,16.841,0,0,1,1,4v.36a8.6,8.6,0,0,1-2.95,6.6c-.02.01-.03.03-.05.04a32.231,32.231,0,0,1-4.16,2.84,90.844,90.844,0,0,0-7.82,4.85c-.43.32-.85.66-1.26,1.01a15.077,15.077,0,0,0-5.65,10.31A18.093,18.093,0,0,0,21,35a10.635,10.635,0,0,0,2.94,7.42A15.286,15.286,0,0,0,29,46H42.72l.04-.3a3.952,3.952,0,0,1,1.53-2.61c.2-.148.387-.3.579-.45C36,43,30,43,28,38Z" style="fill:#01a2b0"/><path d="M16.522,26.158A15.648,15.648,0,0,0,21,33l.11.01A15.077,15.077,0,0,1,26.76,22.7a14.866,14.866,0,0,1-2.805-6.539A14.351,14.351,0,0,0,16.522,26.158Z" style="fill:#4edfa6"/><path d="M14.516,32.81A4.5,4.5,0,0,1,12,32a6.272,6.272,0,0,1-1.591-1.255,26.6,26.6,0,0,0,9.3,12.345,3.952,3.952,0,0,1,1.53,2.61l.04.3H27S16.923,45.412,14.516,32.81Z" style="fill:#37cdc2"/><path d="M16.522,26.158c-.767,3.561-.4,6.435-2.006,6.652C16.923,45.412,27,46,27,46h2a15.286,15.286,0,0,1-5.06-3.58A10.635,10.635,0,0,1,21,35a18.093,18.093,0,0,1,.11-1.99L21,33A15.648,15.648,0,0,1,16.522,26.158Z" style="fill:#35c4ba"/><path d="M33,13a30.026,30.026,0,0,0-9.045,3.161A14.866,14.866,0,0,0,26.76,22.7c.41-.35.83-.69,1.26-1.01a90.844,90.844,0,0,1,7.82-4.85,16.525,16.525,0,0,1-2.794-3.85Z" style="fill:#35c4ba"/><path d="M42,3l.04-.09c-.081-.034-.167-.06-.249-.093.2,4.831-1.982,8.8-8.745,10.173a16.525,16.525,0,0,0,2.794,3.85A32.231,32.231,0,0,0,40,14c.02-.01.03-.03.05-.04A8.6,8.6,0,0,0,43,7.36V7A16.841,16.841,0,0,0,42,3Z" style="fill:#4edfa6"/><path d="M28.06,5.1,28,5A83.282,83.282,0,0,0,14,9l-.13-.11A20.028,20.028,0,0,0,12,11.659a23.162,23.162,0,0,1,14.7-5.629C27.152,5.712,27.611,5.387,28.06,5.1Z" style="fill:#85ee89"/><path d="M28,5l.06.1c1.02-.66,2-1.24,2.91-1.74a44.618,44.618,0,0,1,4.49-2.15A28.078,28.078,0,0,0,32,1C24.63,1,18.07,3.69,13.87,8.89L14,9A83.282,83.282,0,0,1,28,5Z" style="fill:#c6ff79"/><path d="M31.029,6.17a17.218,17.218,0,0,1-.059-2.81c-.91.5-1.89,1.08-2.91,1.74-.449.287-.908.612-1.366.93C27.126,6.011,27.562,6,28,6A28.16,28.16,0,0,1,31.029,6.17Z" style="fill:#aaf66f"/><path d="M31.029,6.17c.143.016.289.022.431.04h.01a24.794,24.794,0,0,1,6.57,1.7A22.054,22.054,0,0,1,40.2,8.962a9.624,9.624,0,0,0,1.594-6.145c.082.033.168.059.249.093a24.794,24.794,0,0,0-6.57-1.7h-.01a44.618,44.618,0,0,0-4.49,2.15A17.218,17.218,0,0,0,31.029,6.17Z" style="fill:#c6ff79"/><path d="M55,24C55,13.467,49.915,6.4,42.5,3.118,44.143,4.269,46,6.549,46,11a5.751,5.751,0,0,1-.452,2.2C48.947,17.01,51,22.306,51,29a24.216,24.216,0,0,1-3.731,11.537A25.262,25.262,0,0,0,55,24Z" style="fill:#89f2ff"/><path d="M43,7v.36a9.111,9.111,0,0,1-.532,3.05,19.767,19.767,0,0,1,3.08,2.785A5.751,5.751,0,0,0,46,11c0-4.451-1.857-6.731-3.505-7.882-.153-.067-.3-.144-.455-.208L42,3A16.841,16.841,0,0,1,43,7Z" style="fill:#01cadb"/><path d="M40.2,8.962a20.9,20.9,0,0,1,2.271,1.448A9.111,9.111,0,0,0,43,7.36V7a16.841,16.841,0,0,0-1-4l.04-.09c-.081-.034-.167-.06-.249-.093A9.624,9.624,0,0,1,40.2,8.962Z" style="fill:#aaf66f"/><path d="M38,56.8V58a2,2,0,0,1-2,2h.76a4.776,4.776,0,0,0,1.21-.15A3.693,3.693,0,0,0,41,56.44V55C41,56.071,39.837,56.566,38,56.8Z" style="fill:#c9c6bc"/><path d="M26,58V56.8c-1.837-.231-3-.726-3-1.8v1.44a3.693,3.693,0,0,0,3.03,3.41,4.776,4.776,0,0,0,1.21.15H28A2,2,0,0,1,26,58Z" style="fill:#8f8b81"/><path d="M26,56.8V52.659a11.2,11.2,0,0,1-2.97-.749L23,52v3C23,56.071,24.163,56.566,26,56.8Z" style="fill:#c9c6bc"/><path d="M40.75,52a12.216,12.216,0,0,1-2.75.656V56.8c1.837-.231,3-.726,3-1.8V52Z" style="fill:#e8e4d8"/><path d="M7,25H2a1,1,0,0,1,0-2H7a1,1,0,0,1,0,2Z" style="fill:#ffdf64"/><path d="M62,25H57a1,1,0,0,1,0-2h5a1,1,0,0,1,0,2Z" style="fill:#ffdf64"/><path d="M12.26,7.26a1,1,0,0,1-.707-.293l-4.26-4.26A1,1,0,0,1,8.707,1.293l4.26,4.26A1,1,0,0,1,12.26,7.26Z" style="fill:#ffdf64"/><path d="M54,47a1,1,0,0,1-.707-.293l-4.26-4.26a1,1,0,0,1,1.414-1.414l4.26,4.26A1,1,0,0,1,54,47Z" style="fill:#ffdf64"/><path d="M51.74,7.26a1,1,0,0,1-.707-1.707l4.26-4.26a1,1,0,0,1,1.414,1.414l-4.26,4.26A1,1,0,0,1,51.74,7.26Z" style="fill:#ffdf64"/><path d="M10,47a1,1,0,0,1-.707-1.707l4.26-4.26a1,1,0,1,1,1.414,1.414l-4.26,4.26A1,1,0,0,1,10,47Z" style="fill:#ffdf64"/><ellipse cx="30.684" cy="36.695" rx="1.642" ry="2.286" transform="translate(-16.961 32.461) rotate(-45.02)" style="fill:#f6fafd"/><ellipse cx="29.682" cy="32.708" rx="0.825" ry="1.148" transform="translate(-14.435 30.583) rotate(-45.02)" style="fill:#f6fafd"/><path d="M31.333,3.593a44.364,44.364,0,0,1,4.228-2.019l.052-.017c.328-.136.512-.2.516-.2a.262.262,0,0,0,.053-.033c-.238-.035-.472-.08-.712-.109h-.01c-.261-.032-.528-.048-.791-.073-.992.426-2.323,1.043-3.879,1.894-.9.495-1.807,1.038-2.7,1.608a.378.378,0,0,0-.154-.009A84.427,84.427,0,0,0,14.174,8.537c-.1.119-.206.232-.3.353-.07.086-.133.179-.2.266A.372.372,0,0,0,14,9.375a.384.384,0,0,0,.132-.024A89.614,89.614,0,0,1,26.564,5.666c-.914.633-1.817,1.3-2.691,2a.347.347,0,0,0-.168.134,34.268,34.268,0,0,0-4.8,4.833c-3.24.806-7.718,4.777-9.489,6.443-.036.208-.079.41-.11.621-.029.186-.039.384-.064.573.006,0,.014,0,.019-.008s.11-.109.3-.294c1.266-1.217,5.338-4.974,8.556-6.28a23.949,23.949,0,0,0-3.432,6.581l-.006.021v0A21.424,21.424,0,0,0,13.625,27c0,8.278,2.679,13.021,5.637,15.742.15.116.294.233.448.348a3.849,3.849,0,0,1,.469.432A14.412,14.412,0,0,0,25.082,46h2.289a.374.374,0,0,0-.349-.375C26.506,45.6,14.375,44.663,14.375,27a20.851,20.851,0,0,1,.589-4.947c.619,3.008,2.183,8.348,5.8,11.24a.373.373,0,0,0,.234.082.379.379,0,0,0,.081-.018c.01-.115.016-.235.029-.347s.041-.239.057-.363c-4.186-3.413-5.487-10.591-5.732-12.217a23.647,23.647,0,0,1,3.919-7.158,32.422,32.422,0,0,1,4.092-4.248C23.1,11.6,22.7,18.117,26.467,22.935l.015.018c.094-.083.182-.172.278-.253s.2-.154.293-.234c-4.162-5.321-2.977-12.88-2.731-14.2a43.1,43.1,0,0,1,3.942-2.855c.761-.492,1.534-.954,2.3-1.393A18.586,18.586,0,0,0,35.51,17.033c.109-.064.222-.128.33-.193l.329-.2-.061-.061A17.843,17.843,0,0,1,31.333,3.593Z" style="fill:#daffa8"/><path d="M47.128,16.481a6.9,6.9,0,0,0,.456,3.726,17.772,17.772,0,0,1,.648,4.589,10.124,10.124,0,0,0,.182,2.562,2.484,2.484,0,0,0,1.063,1.519,1.588,1.588,0,0,0,1.668-.374,4.159,4.159,0,0,0,.789-.836,7.586,7.586,0,0,0,1.022-3.649,11.5,11.5,0,0,0-.315-3.861c-.519-2.007-1.991-5.448-4.315-5.137C47.688,15.105,47.316,15.846,47.128,16.481Z" style="fill:#fff"/><path d="M44.041,35.142c.318,1.341,2.122.825,3.021.354A6.348,6.348,0,0,0,49.5,33.029a3.19,3.19,0,0,0,.5-1.477,1.494,1.494,0,0,0-.779-1.485,2.887,2.887,0,0,0-2.1.514,7.549,7.549,0,0,0-1.609,1.394,6.208,6.208,0,0,0-1.344,1.984A2.074,2.074,0,0,0,44.041,35.142Z" style="fill:#fff"/></g></svg>