<svg xmlns="http://www.w3.org/2000/svg" viewBox="0 0 64 64"><g id="_19-bicycle" data-name="19-bicycle"><rect x="1" y="52" width="57" height="2" rx="1" ry="1" style="fill:#595751"/><rect x="60" y="52" width="3" height="2" rx="1" ry="1" style="fill:#595751"/><rect x="48" y="23" width="10" height="3" style="fill:#4edfa6"/><circle cx="51" cy="41" r="2" style="fill:#75726a"/><path d="M55.84,30.01a12.152,12.152,0,0,0-7.1-.8,11.879,11.879,0,0,0-4.72,2.02A12.014,12.014,0,0,0,39.17,39H51a2,2,0,0,1,0,4L39.82,45.35A12,12,0,1,0,55.84,30.01Z" style="fill:#fff"/><path d="M47,20.19a1.2,1.2,0,0,1-.75,1.11L42,23H40l-2.42-1.61A1.311,1.311,0,0,1,37,20.3,1.3,1.3,0,0,1,38.3,19h7.51A1.186,1.186,0,0,1,47,20.19Z" style="fill:#4edfa6"/><path d="M49,41a2.006,2.006,0,0,1,2-2H32a4,4,0,0,1,1.58,7.67l6.24-1.32L51,43A2.006,2.006,0,0,1,49,41Z" style="fill:#8f8b81"/><path d="M32,47a4.014,4.014,0,1,1,1.58-.33Z" style="fill:#d8d4c9"/><path d="M27.5,11a1.5,1.5,0,0,1,0,3H20V11Z" style="fill:#b5b1a4"/><path d="M14.15,39.36A2,2,0,1,0,15,41,2.035,2.035,0,0,0,14.15,39.36Zm5.73-8.19A12,12,0,1,1,13,29,11.953,11.953,0,0,1,19.88,31.17Z" style="fill:#fff"/><path d="M20,18v2l-.72,4.33A2.006,2.006,0,0,1,17.31,26H12.69a2.006,2.006,0,0,1-1.97-1.67L10,20V17H20Z" style="fill:#4edfa6"/><path d="M14.15,39.36A2.035,2.035,0,0,1,15,41a1.992,1.992,0,1,1-.85-1.64Z" style="fill:#75726a"/><circle cx="32" cy="43" r="2" style="fill:#8f8b81"/><path d="M50,23H48v3H58V25H52A2,2,0,0,1,50,23Z" style="fill:#18ae88"/><path d="M45,21H39a2,2,0,0,1-1.857-1.268A1.281,1.281,0,0,0,37,20.3a1.311,1.311,0,0,0,.58,1.09L40,23h2l4.25-1.7A1.2,1.2,0,0,0,47,20.19a1.167,1.167,0,0,0-.126-.513A1.993,1.993,0,0,1,45,21Z" style="fill:#18ae88"/><path d="M18.941,17a8.993,8.993,0,0,1-8,7.951A2,2,0,0,0,12.69,26h4.62a2.006,2.006,0,0,0,1.97-1.67L20,20V17Z" style="fill:#18ae88"/><path d="M36,43a3.978,3.978,0,0,1-2.42,3.67l6.24-1.32L51,43a2.006,2.006,0,0,1-2-2L35.963,42.63C35.974,42.753,36,42.873,36,43Z" style="fill:#858178"/><path d="M28,13H23a1,1,0,0,1-1-1V11H20v3h7.5A1.5,1.5,0,0,0,29,12.5a1.469,1.469,0,0,0-.036-.321A.987.987,0,0,1,28,13Z" style="fill:#8f8b81"/><path d="M55.84,30.01a12.152,12.152,0,0,0-7.1-.8,11.879,11.879,0,0,0-4.72,2.02A12.014,12.014,0,0,0,39.17,39H41.2a10,10,0,1,1,.6,5.933l-1.985.417A12,12,0,1,0,55.84,30.01Z" style="fill:#75726a"/><path d="M19.88,31.17A12,12,0,1,0,25,41,11.9,11.9,0,0,0,19.88,31.17ZM13,51A10,10,0,1,1,23,41,10,10,0,0,1,13,51Z" style="fill:#75726a"/><polygon points="20 18.5 23.933 18.5 24.29 17.5 20 17.5 20 18 20 18.5" style="fill:#0fa286"/><polygon points="19.917 20.5 19.751 21.5 22.862 21.5 22.979 21.172 23.219 20.5 19.917 20.5" style="fill:#0fa286"/><path d="M32.5,39a.5.5,0,0,0-.146-.354L28.707,35l1.309-1.309a11.6,11.6,0,0,0,6.258,2.758l.3-.968a10.789,10.789,0,0,1-6.186-2.8l-6.7-10.529-.139.39-.288.8,6.1,9.583L28,34.293l-6.37-6.37L21.6,28l-.343.961,10.1,10.1A3.991,3.991,0,0,1,32,39Z" style="fill:#18ae88"/><path d="M33,43a1,1,0,0,0-2,0,.985.985,0,0,0,.5.847V48.5H29a.5.5,0,0,0,0,1h3a.5.5,0,0,0,.5-.5V43.847A.985.985,0,0,0,33,43Z" style="fill:#75726a"/><rect x="28" y="48" width="3" height="2" rx="1" ry="1" style="fill:#18ae88"/><path d="M14,40.07a.5.5,0,0,1-.407-.79l.15-.21,5.809-8.3,4.839-13.55-4.648-2.789A.5.5,0,0,1,19.5,14V11a.5.5,0,0,1,1,0v2.717l4.757,2.854a.5.5,0,0,1,.214.6l-5,14a.481.481,0,0,1-.063.121l-6,8.572A.5.5,0,0,1,14,40.07Z" style="fill:#129c78"/><path d="M13,39a1.956,1.956,0,0,1,.5.077V31.025c-.167-.008-.331-.025-.5-.025s-.333.017-.5.025v8.047A1.923,1.923,0,0,1,13,39Z" style="fill:#8f8b81"/><path d="M14.15,39.36a2.1,2.1,0,0,1,.565.632L20.408,34.3q-.336-.37-.707-.707l-5.7,5.7C14.052,39.315,14.105,39.329,14.15,39.36Z" style="fill:#8f8b81"/><path d="M11.284,42.009,5.592,47.7q.336.37.707.707l5.692-5.692A2.012,2.012,0,0,1,11.284,42.009Z" style="fill:#8f8b81"/><path d="M14.009,42.716,19.7,48.408q.37-.336.707-.707l-5.692-5.692A2.012,2.012,0,0,1,14.009,42.716Z" style="fill:#8f8b81"/><path d="M13,43a1.923,1.923,0,0,1-.5-.072v8.047c.167.008.331.025.5.025s.333-.017.5-.025V42.928A1.923,1.923,0,0,1,13,43Z" style="fill:#8f8b81"/><path d="M22.975,40.5H14.934A1.97,1.97,0,0,1,15,41a1.923,1.923,0,0,1-.072.5h8.047c.008-.167.025-.331.025-.5S22.983,40.667,22.975,40.5Z" style="fill:#8f8b81"/><path d="M11.991,39.284,6.3,33.592q-.371.336-.707.707l5.692,5.692A2.012,2.012,0,0,1,11.991,39.284Z" style="fill:#8f8b81"/><path d="M11,41a1.966,1.966,0,0,1,.071-.5H3.025c-.008.167-.025.331-.025.5s.017.333.025.5h8.047A1.923,1.923,0,0,1,11,41Z" style="fill:#8f8b81"/><path d="M44.292,48.415l5.071-5.071-1.79.376L43.59,47.7C43.814,47.951,44.045,48.191,44.292,48.415Z" style="fill:#8f8b81"/><path d="M51,43l-.5.1v7.876c.166.008.332.019.5.019s.333-.017.5-.025V42.928A1.923,1.923,0,0,1,51,43Z" style="fill:#8f8b81"/><path d="M52.009,42.716,57.7,48.408q.37-.336.707-.707l-5.692-5.692A2.012,2.012,0,0,1,52.009,42.716Z" style="fill:#8f8b81"/><path d="M60.975,40.5H52.929A1.966,1.966,0,0,1,53,41a1.923,1.923,0,0,1-.072.5h8.047c.008-.167.025-.331.025-.5S60.983,40.667,60.975,40.5Z" style="fill:#8f8b81"/><path d="M57.7,33.592l-5.692,5.692a2.012,2.012,0,0,1,.707.707L58.408,34.3Q58.072,33.929,57.7,33.592Z" style="fill:#8f8b81"/><path d="M51,31c-.169,0-.333.014-.5.022V39H51a1.923,1.923,0,0,1,.5.072V31.025C51.333,31.017,51.169,31,51,31Z" style="fill:#8f8b81"/><path d="M44.3,33.591a9.838,9.838,0,0,0-.709.706l4.7,4.7h1.414Z" style="fill:#8f8b81"/><path d="M58.429,25.743A.5.5,0,0,0,58,25.5H48a12.047,12.047,0,0,0-6.575,2.326A11.264,11.264,0,0,0,39.431,29.7l-1.16,3.712a.488.488,0,0,0,.188-.214,10.8,10.8,0,0,1,3.558-4.563,11.369,11.369,0,0,1,5.591-2.109l.647,2.806,2.18,9.444a.492.492,0,0,1,.057.226H51a1.978,1.978,0,0,1,.525.079l4.766-8.85,2.149-3.992A.5.5,0,0,0,58.429,25.743Zm-3.06,4.088L51.189,37.6,49.238,29.14l-.61-2.64h8.535Z" style="fill:#0fa286"/><path d="M35.507,39h1.017l4.953-15.851A.47.47,0,0,0,41.493,23H40.476l-3.9,12.481-1.053,3.37A.47.47,0,0,0,35.507,39Z" style="fill:#129c78"/><path d="M50.435,38.774A.579.579,0,0,0,50.4,38.7L44.442,30.96l-3.845-5-.364,1.165,3.4,4.411L49.37,39h1.117Z" style="fill:#18ae88"/></g></svg>