<svg xmlns="http://www.w3.org/2000/svg" viewBox="0 0 64 64"><g id="_27-global_warming" data-name="27-global warming"><path d="M15.2,23.18c-.69-.45-1.38.01-1.83.56a1.156,1.156,0,0,0-.36.87,1.242,1.242,0,0,0,.28.59,6.112,6.112,0,0,0,.69.85,3.8,3.8,0,0,0,1.84.9.992.992,0,0,0,.74-.04.686.686,0,0,0,.32-.39,2.1,2.1,0,0,0-.13-1.66A3.979,3.979,0,0,0,15.2,23.18ZM26.37,4.15c-1.86-.33-4.29-.17-5.65,1.02a4.852,4.852,0,0,0-1.66,2.61,2.958,2.958,0,0,0,.9,2.78,6.377,6.377,0,0,0,1.57.97,3.541,3.541,0,0,0,2.2.42,2.349,2.349,0,0,0,1.14-.73c.28-.33.49-.69.75-1.03a29.077,29.077,0,0,1,2.72-2.58,1.846,1.846,0,0,0,.64-.97,1.511,1.511,0,0,0-.29-1.07,2.813,2.813,0,0,0-.89-.93A4.4,4.4,0,0,0,26.37,4.15ZM2,20c0,2,1.05,5.47,2.26,6.71a3.759,3.759,0,0,0,1.14.83c.75.34,1.62.33,2.38.66a4.1,4.1,0,0,1,1.15.81,8.239,8.239,0,0,1,.94,1.08,3.365,3.365,0,0,1,.74,2.05,3.808,3.808,0,0,1-.2,1.1,4.336,4.336,0,0,0-.35.97C10,35,9.99,35.9,10,37c0,.69.49.84.95,1.32.52.54,1.05,1.08,1.57,1.62.4.42.88.62,1.28,1.02a11.491,11.491,0,0,1,2.06,3.25,11.326,11.326,0,0,0,1.58,2.55,7.685,7.685,0,0,0,1.37,1.1A7.8,7.8,0,0,0,21,48c0-2,.04-3.99,0-6a12.364,12.364,0,0,0,1.12-1.28,9.1,9.1,0,0,0,.62-1.89c.36-.83,1.24-1.47,1.26-2.37a2,2,0,0,0-1.16-1.67A18.648,18.648,0,0,0,20.83,34a13.489,13.489,0,0,1-2.34-1.39,55.843,55.843,0,0,0-5.25-3.17,12.041,12.041,0,0,1-1.55-1,16.172,16.172,0,0,1-1.39-1.22,4.034,4.034,0,0,0-.94-.81c-.34-.16-.67-.11-.93-.43a.838.838,0,0,1-.13-.88c.17-.37.6-.52.96-.71a3.6,3.6,0,0,0,1.23-1.06c.29-.41.49-.88.74-1.31a21.684,21.684,0,0,1,2.22-2.73,4.22,4.22,0,0,1,2.9-1.04,4.812,4.812,0,0,0,3.08-1.06,2.189,2.189,0,0,0,.56-1.6,3.541,3.541,0,0,0-1.24-2.43,3.777,3.777,0,0,0-1.63-1.11,4.85,4.85,0,0,0-2.76.54,13.241,13.241,0,0,1-2.31.66c-.66.13-1.02-.61-1.05-1.25a1.486,1.486,0,0,1,.55-1.28A4.687,4.687,0,0,1,13,10h1V8c-.01-.66-.25-.64-.75-1.09A5.213,5.213,0,0,0,11.8,6l-.04-.05A25.939,25.939,0,0,1,40.84,5H37a3.016,3.016,0,0,0-2.63,1.83,2.861,2.861,0,0,0-.12,1.45.8.8,0,0,0,.11.34.75.75,0,0,0,.35.22c.82.3,1.76.12,2.59.39a.673.673,0,0,1,.3.16c.67.64-.3,1.61-.88,1.82a4.2,4.2,0,0,1-1.87.13,2.554,2.554,0,0,0-1.23.1,2.051,2.051,0,0,0-.95,1.13,8.491,8.491,0,0,1-.58,1.39,10.538,10.538,0,0,1-1,1.12,1.8,1.8,0,0,0-.52,1.35,1.5,1.5,0,0,0,1.61,1.11,3.864,3.864,0,0,0,1.93-.85,3.2,3.2,0,0,1,1.46-.7,2.573,2.573,0,0,1,.68.06,11.665,11.665,0,0,1,2.72.87,17.97,17.97,0,0,0,2.05.91,1.453,1.453,0,0,1,.12,2.7,4.5,4.5,0,0,1-2.5.29c-1.05-.24-1.92-.99-2.96-1.28-2.1-.58-4.3.87-5.51,2.7a6.307,6.307,0,0,0-1.16,3.85,3.742,3.742,0,0,0,2.18,3.21c1.41.54,3.14-.02,4.4.8a4.4,4.4,0,0,1,1.4,1.86,7.329,7.329,0,0,1,.85,2.76c.14,2.35-1.65,4.53-1.37,6.87a1.777,1.777,0,0,0,.23.75,1.962,1.962,0,0,0,2.51.4c2.36-1.1,3.3-3.9,4.76-6.08,1-1.5,2.33-2.77,3.24-4.33s1.36-3.59.46-5.15c-.49-.85-1.3-1.46-1.76-2.31s-.33-2.2.59-2.49a1.756,1.756,0,0,1,1.31.24C49.85,23.75,50.75,26.41,53,27A26,26,0,0,1,1,27a25.362,25.362,0,0,1,.97-7.01Z" style="fill:#01cadb"/><path d="M22.84,34.79A2,2,0,0,1,24,36.46c-.02.9-.9,1.54-1.26,2.37a9.1,9.1,0,0,1-.62,1.89A12.364,12.364,0,0,1,21,42c.04,2.01,0,4,0,6a7.8,7.8,0,0,1-2.19-.14,7.685,7.685,0,0,1-1.37-1.1,11.326,11.326,0,0,1-1.58-2.55,11.491,11.491,0,0,0-2.06-3.25c-.4-.4-.88-.6-1.28-1.02-.52-.54-1.05-1.08-1.57-1.62-.46-.48-.95-.63-.95-1.32-.01-1.1,0-2,.06-2.79a4.336,4.336,0,0,1,.35-.97,3.808,3.808,0,0,0,.2-1.1,3.365,3.365,0,0,0-.74-2.05,8.239,8.239,0,0,0-.94-1.08l2.76-.57a12.041,12.041,0,0,0,1.55,1,55.843,55.843,0,0,1,5.25,3.17A13.489,13.489,0,0,0,20.83,34,18.648,18.648,0,0,1,22.84,34.79Z" style="fill:#ffdf64"/><path d="M16.88,26.52a.686.686,0,0,1-.32.39.992.992,0,0,1-.74.04,3.8,3.8,0,0,1-1.84-.9,6.112,6.112,0,0,1-.69-.85,1.242,1.242,0,0,1-.28-.59,1.156,1.156,0,0,1,.36-.87c.45-.55,1.14-1.01,1.83-.56a3.979,3.979,0,0,1,1.55,1.68A2.1,2.1,0,0,1,16.88,26.52Z" style="fill:#ffdf64"/><path d="M28.34,7.61a29.077,29.077,0,0,0-2.72,2.58c-.26.34-.47.7-.75,1.03a2.349,2.349,0,0,1-1.14.73,3.541,3.541,0,0,1-2.2-.42,6.377,6.377,0,0,1-1.57-.97,2.958,2.958,0,0,1-.9-2.78,4.852,4.852,0,0,1,1.66-2.61c1.36-1.19,3.79-1.35,5.65-1.02a4.4,4.4,0,0,1,1.43.49,2.813,2.813,0,0,1,.89.93,1.511,1.511,0,0,1,.29,1.07A1.846,1.846,0,0,1,28.34,7.61Z" style="fill:#ffdf64"/><path d="M7.78,28.2c-.76-.33-1.63-.32-2.38-.66a3.759,3.759,0,0,1-1.14-.83C3.05,25.47,2,22,2,20l-.03-.01A25.836,25.836,0,0,1,11.76,5.95L11.8,6a5.213,5.213,0,0,1,1.45.91c.5.45.74.43.75,1.09v2H13a4.687,4.687,0,0,0-1.45.72A1.486,1.486,0,0,0,11,12c.03.64.39,1.38,1.05,1.25a13.241,13.241,0,0,0,2.31-.66,4.85,4.85,0,0,1,2.76-.54,3.777,3.777,0,0,1,1.63,1.11,3.541,3.541,0,0,1,1.24,2.43,2.189,2.189,0,0,1-.56,1.6,4.812,4.812,0,0,1-3.08,1.06,4.22,4.22,0,0,0-2.9,1.04,21.684,21.684,0,0,0-2.22,2.73c-.25.43-.45.9-.74,1.31a3.6,3.6,0,0,1-1.23,1.06c-.36.19-.79.34-.96.71a.838.838,0,0,0,.13.88c.26.32.59.27.93.43a4.034,4.034,0,0,1,.94.81,16.172,16.172,0,0,0,1.39,1.22l-2.76.57A4.1,4.1,0,0,0,7.78,28.2Z" style="fill:#ffdf64"/><path d="M53,27c-2.25-.59-3.15-3.25-5.19-4.38a1.756,1.756,0,0,0-1.31-.24c-.92.29-1.05,1.63-.59,2.49s1.27,1.46,1.76,2.31c.9,1.56.45,3.6-.46,5.15s-2.24,2.83-3.24,4.33c-1.46,2.18-2.4,4.98-4.76,6.08a1.962,1.962,0,0,1-2.51-.4,1.777,1.777,0,0,1-.23-.75c-.28-2.34,1.51-4.52,1.37-6.87a7.329,7.329,0,0,0-.85-2.76,4.4,4.4,0,0,0-1.4-1.86c-1.26-.82-2.99-.26-4.4-.8a3.742,3.742,0,0,1-2.18-3.21,6.307,6.307,0,0,1,1.16-3.85c1.21-1.83,3.41-3.28,5.51-2.7,1.04.29,1.91,1.04,2.96,1.28a4.5,4.5,0,0,0,2.5-.29,1.453,1.453,0,0,0-.12-2.7,17.97,17.97,0,0,1-2.05-.91,11.665,11.665,0,0,0-2.72-.87,2.573,2.573,0,0,0-.68-.06,3.2,3.2,0,0,0-1.46.7,3.864,3.864,0,0,1-1.93.85,1.5,1.5,0,0,1-1.61-1.11,1.8,1.8,0,0,1,.52-1.35,10.538,10.538,0,0,0,1-1.12,8.491,8.491,0,0,0,.58-1.39,2.051,2.051,0,0,1,.95-1.13,2.554,2.554,0,0,1,1.23-.1,4.2,4.2,0,0,0,1.87-.13c.58-.21,1.55-1.18.88-1.82a.673.673,0,0,0-.3-.16c-.83-.27-1.77-.09-2.59-.39a.75.75,0,0,1-.35-.22.8.8,0,0,1-.11-.34,2.861,2.861,0,0,1,.12-1.45A3.016,3.016,0,0,1,37,5h3.84A25.935,25.935,0,0,1,53,27Z" style="fill:#ffdf64"/><path d="M41.432,40.816A5.938,5.938,0,0,1,39.21,42.74a1.974,1.974,0,0,1-2.493-.378,25.974,25.974,0,0,1-15.045-1.093c-.218.255-.445.5-.672.731.04,2.01,0,4,0,6a7.8,7.8,0,0,1-2.19-.14,7.685,7.685,0,0,1-1.37-1.1,11.326,11.326,0,0,1-1.58-2.55,11.491,11.491,0,0,0-2.06-3.25c-.4-.4-.88-.6-1.28-1.02-.52-.54-1.05-1.08-1.57-1.62-.46-.48-.95-.63-.95-1.32-.01-1.1,0-2,.06-2.79a4.336,4.336,0,0,1,.35-.97c.028-.092.048-.187.072-.28A26.015,26.015,0,0,1,7.488,28.1,19.683,19.683,0,0,1,5.4,27.54a3.759,3.759,0,0,1-1.14-.83C3.05,25.47,2,22,2,20l-.03-.01A25.362,25.362,0,0,0,1,27a26,26,0,0,0,51.612,4.455A26.093,26.093,0,0,1,41.432,40.816Z" style="fill:#01a2b0"/><path d="M10.482,32.96c-.024.093-.044.188-.072.28a4.336,4.336,0,0,0-.35.97C10,35,9.99,35.9,10,37c0,.69.49.84.95,1.32.52.54,1.05,1.08,1.57,1.62.4.42.88.62,1.28,1.02a11.491,11.491,0,0,1,2.06,3.25,11.326,11.326,0,0,0,1.58,2.55,7.685,7.685,0,0,0,1.37,1.1A7.8,7.8,0,0,0,21,48c0-2,.04-3.99,0-6,.227-.227.454-.476.672-.731A26.059,26.059,0,0,1,10.482,32.96Z" style="fill:#ff942c"/><path d="M4.26,26.71a3.759,3.759,0,0,0,1.14.83,19.683,19.683,0,0,0,2.088.563A25.881,25.881,0,0,1,5,17a26.146,26.146,0,0,1,.38-4.409,25.7,25.7,0,0,0-3.41,7.4L2,20C2,22,3.05,25.47,4.26,26.71Z" style="fill:#ff942c"/><path d="M39.21,42.74a5.938,5.938,0,0,0,2.222-1.924,25.794,25.794,0,0,1-4.715,1.546A1.974,1.974,0,0,0,39.21,42.74Z" style="fill:#ff942c"/><path d="M37.6,9.39a.673.673,0,0,0-.3-.16c-.769-.25-1.628-.129-2.4-.346a25.8,25.8,0,0,1,2.709,1.606A.792.792,0,0,0,37.6,9.39Z" style="fill:#89f2ff"/><path d="M52.6,31.47A26.027,26.027,0,0,0,53,27c-2.25-.59-3.15-3.25-5.19-4.38a2.379,2.379,0,0,0-.661-.253A25.912,25.912,0,0,1,49,32a26.174,26.174,0,0,1-.313,4.034A26.061,26.061,0,0,0,52.6,31.47Z" style="fill:#89f2ff"/><path d="M13.25,6.91c.377.34.606.412.7.711a25.871,25.871,0,0,1,5.836-1.416A6.185,6.185,0,0,1,20.72,5.17c1.36-1.19,3.79-1.35,5.65-1.02a4.4,4.4,0,0,1,1.43.49,2.813,2.813,0,0,1,.89.93,1.511,1.511,0,0,1,.29,1.07c0,.019-.013.036-.017.055a25.788,25.788,0,0,1,5.39,1.911.853.853,0,0,1-.1-.326,2.861,2.861,0,0,1,.12-1.45A3.016,3.016,0,0,1,37,5h3.84a25.939,25.939,0,0,0-29.08.95L11.8,6A5.213,5.213,0,0,1,13.25,6.91Z" style="fill:#89f2ff"/><path d="M28.963,6.7c0-.019.014-.036.017-.055a1.511,1.511,0,0,0-.29-1.07,2.813,2.813,0,0,0-.89-.93,4.4,4.4,0,0,0-1.43-.49c-1.86-.33-4.29-.17-5.65,1.02a6.185,6.185,0,0,0-.934,1.035,25.705,25.705,0,0,1,9.177.49Z" style="fill:#fffcbd"/><path d="M13.95,7.621c-.094-.3-.323-.371-.7-.711A5.213,5.213,0,0,0,11.8,6l-.04-.05a25.879,25.879,0,0,0-6.38,6.641c-.019.111-.026.225-.044.337A26.007,26.007,0,0,1,13.95,7.621Z" style="fill:#fffcbd"/><path d="M34.37,6.83a2.861,2.861,0,0,0-.12,1.45.853.853,0,0,0,.1.326c.184.089.363.185.544.278.775.217,1.634.1,2.4.346a.673.673,0,0,1,.3.16.792.792,0,0,1,.006,1.1,26.076,26.076,0,0,1,9.543,11.877,2.379,2.379,0,0,1,.661.253C49.85,23.75,50.75,26.41,53,27A25.935,25.935,0,0,0,40.84,5H37A3.016,3.016,0,0,0,34.37,6.83Z" style="fill:#fffcbd"/><ellipse cx="40.684" cy="8.695" rx="1.642" ry="2.286" transform="translate(5.776 31.327) rotate(-45.02)" style="fill:#f6fafd"/><ellipse cx="43.682" cy="11.708" rx="0.825" ry="1.148" transform="translate(4.523 34.33) rotate(-45.02)" style="fill:#f6fafd"/><ellipse cx="31.682" cy="4.708" rx="0.825" ry="1.148" transform="translate(5.957 23.79) rotate(-45.02)" style="fill:#f6fafd"/><path d="M59,43.515V24a7,7,0,0,0-7-7h0a7,7,0,0,0-7,7V43.515a11,11,0,1,0,14,0Z" style="fill:#e8e4d8"/><path d="M56,45.079V24a4,4,0,0,0-8,0V45.079a8,8,0,1,0,8,0Z" style="fill:#cdd2e1"/><path d="M52,57a8,8,0,0,1-7.849-6.464,8,8,0,1,0,15.7,0A8,8,0,0,1,52,57Z" style="fill:#9da3b5"/><path d="M63,52a10.975,10.975,0,0,0-4-8.485V24a7,7,0,0,0-7-7v3a4,4,0,0,1,4,4V45.079a7.99,7.99,0,0,1,3.943,6.081A6.849,6.849,0,0,1,60,52a8,8,0,0,1-8,8v3A11,11,0,0,0,63,52Z" style="fill:#fffbed"/><path d="M59.849,50.536c.038.206.068.414.094.624A7.99,7.99,0,0,0,56,45.079V24a4,4,0,0,0-4-4V57A8,8,0,0,0,59.849,50.536Z" style="fill:#dce1eb"/><path d="M52,57v3a7.888,7.888,0,0,0,7.943-8.84c-.026-.21-.056-.418-.094-.624A8,8,0,0,1,52,57Z" style="fill:#afb4c8"/><path d="M52,57v3a7.888,7.888,0,0,0,7.943-8.84c-.026-.21-.056-.418-.094-.624A8,8,0,0,1,52,57Z" style="fill:#fe792c"/><path d="M56,45.079V29H52V57a8,8,0,0,0,7.843-6.439A7.983,7.983,0,0,0,56,45.079Z" style="fill:#ffb844"/><path d="M52,57v3a7.888,7.888,0,0,1-7.943-8.84c.026-.21.056-.418.094-.624A8,8,0,0,0,52,57Z" style="fill:#d96117"/><path d="M48,45.079V29h4V57a8,8,0,0,1-7.843-6.439A7.983,7.983,0,0,1,48,45.079Z" style="fill:#fe792c"/><rect x="53" y="24" width="6" height="2" style="fill:#75726a"/><rect x="53" y="28" width="6" height="2" style="fill:#75726a"/><rect x="53" y="32" width="6" height="2" style="fill:#75726a"/><rect x="53" y="36" width="6" height="2" style="fill:#75726a"/><rect x="53" y="40" width="6" height="2" style="fill:#75726a"/><rect x="56" y="40" width="3" height="2" style="fill:#b5b1a4"/><rect x="56" y="36" width="3" height="2" style="fill:#b5b1a4"/><rect x="56" y="32" width="3" height="2" style="fill:#b5b1a4"/><rect x="56" y="28" width="3" height="2" style="fill:#b5b1a4"/><rect x="56" y="24" width="3" height="2" style="fill:#b5b1a4"/><ellipse cx="55.684" cy="51.695" rx="1.642" ry="2.286" transform="translate(-20.243 54.542) rotate(-45.02)" style="fill:#f6fafd"/><ellipse cx="56.682" cy="48.708" rx="0.825" ry="1.148" transform="translate(-17.838 54.372) rotate(-45.02)" style="fill:#f6fafd"/><path d="M42,19.2c0-.028-.011-.053-.013-.081a7.021,7.021,0,0,0-1.115,1.5c.089-.03.183-.054.268-.089A1.425,1.425,0,0,0,42,19.2Z" style="fill:#01a2b0"/><path d="M43.97,36.66c-.892,1.331-1.592,2.891-2.538,4.156h0A25.967,25.967,0,0,0,45,38.9V35.287C44.64,35.733,44.287,36.184,43.97,36.66Z" style="fill:#01a2b0"/><path d="M41.987,19.119c0,.028.013.053.013.081a1.425,1.425,0,0,1-.86,1.33c-.085.035-.179.059-.268.089A6.958,6.958,0,0,0,40,24V42.263c.066-.048.129-.1.193-.151a5.374,5.374,0,0,0,.411-.358c.089-.085.177-.171.262-.263.107-.115.209-.236.309-.359.086-.1.175-.206.257-.316.946-1.265,1.646-2.825,2.538-4.156.317-.476.67-.927,1.03-1.373V24a6.936,6.936,0,0,1,1.146-3.81,26.039,26.039,0,0,0-1.609-2.736A7.014,7.014,0,0,0,41.987,19.119Z" style="fill:#ff942c"/><path d="M45,43.515V38.9a25.967,25.967,0,0,1-3.568,1.921h0c-.082.11-.171.211-.257.316-.1.123-.2.244-.309.359-.085.091-.173.178-.262.263-.131.127-.269.245-.411.358-.065.052-.125.11-.193.159v1.244a10.968,10.968,0,0,0-3.959,7.865l.029-.009.164-.065c.664-.252,1.316-.527,1.951-.83l.025-.012c.637-.3,1.258-.639,1.865-.994.059-.034.119-.067.178-.1.459-.273.9-.571,1.34-.871A11,11,0,0,1,45,43.515Z" style="fill:#016d94"/><path d="M49.5,17.468a6.91,6.91,0,0,0-4.963-.014,26.039,26.039,0,0,1,1.609,2.736A7.024,7.024,0,0,1,49.5,17.468Z" style="fill:#ffdf64"/></g></svg>