<svg xmlns="http://www.w3.org/2000/svg" viewBox="0 0 64 64"><g id="_14-eco_fuel" data-name="14-eco fuel"><polygon points="42 15 42 21 39 21 39 11 42 11 42 15" style="fill:#8f8b81"/><polygon points="61 13 61 16 59 16 56.33 18.67 55 16 58 13 61 13" style="fill:#b5b1a4"/><polygon points="56.33 18.67 57 20 51 26 49 24 47 22 53 16 55 16 56.33 18.67" style="fill:#79e78e"/><path d="M63,61v2H1V61a2.006,2.006,0,0,1,2-2H61A2.006,2.006,0,0,1,63,61Z" style="fill:#b5b1a4"/><path d="M39,21v6H3V5A4,4,0,0,1,7,1H35a4,4,0,0,1,4,4V21Zm-5,2V5H8V23Z" style="fill:#d8d4c9"/><path d="M30.81,40.9A7.447,7.447,0,0,0,31,39.2V35a15.529,15.529,0,0,0-5.08.76,8.952,8.952,0,0,0-2.86,1.56A5.512,5.512,0,0,0,21,41.6a5.512,5.512,0,0,0-2.06-4.28,8.952,8.952,0,0,0-2.86-1.56A15.529,15.529,0,0,0,11,35v4.2a7.447,7.447,0,0,0,.19,1.7,6.771,6.771,0,0,0,1.21,2.66,6.234,6.234,0,0,0,1.65,1.41A14.139,14.139,0,0,0,21,47a14.139,14.139,0,0,0,6.95-2.03,6.234,6.234,0,0,0,1.65-1.41A6.771,6.771,0,0,0,30.81,40.9ZM39,27V59H3V27Z" style="fill:#79e78e"/><rect x="8" y="5" width="26" height="18" style="fill:#eef2f5"/><path d="M63,28c0,2.21-1.34,4-3,4s-3-1.79-3-4,2-6,3-6S63,25.79,63,28Z" style="fill:#94f27a"/><path d="M17.98,42.02l-3.93,2.95a6.234,6.234,0,0,1-1.65-1.41,6.771,6.771,0,0,1-1.21-2.66L15,39l.09-.28A36.354,36.354,0,0,1,17.98,42.02Z" style="fill:#4edfa6"/><path d="M27,39l3.81,1.9a6.771,6.771,0,0,1-1.21,2.66,6.234,6.234,0,0,1-1.65,1.41l-3.93-2.95a36.354,36.354,0,0,1,2.89-3.3Z" style="fill:#4edfa6"/><path d="M15,39l-3.81,1.9A7.447,7.447,0,0,1,11,39.2V35a47.638,47.638,0,0,1,4.09,3.72Z" style="fill:#85ee89"/><path d="M17.98,42.02A20.119,20.119,0,0,1,21,47a14.139,14.139,0,0,1-6.95-2.03Z" style="fill:#85ee89"/><path d="M24.02,42.02l3.93,2.95A14.139,14.139,0,0,1,21,47,19.717,19.717,0,0,1,24.02,42.02Z" style="fill:#85ee89"/><path d="M31,35v4.2a7.447,7.447,0,0,1-.19,1.7L27,39l-.09-.28A47.638,47.638,0,0,1,31,35Z" style="fill:#85ee89"/><path d="M18.94,37.32,18,42l-.02.02a36.354,36.354,0,0,0-2.89-3.3l.99-2.96A8.952,8.952,0,0,1,18.94,37.32Z" style="fill:#85ee89"/><path d="M25.92,35.76l.99,2.96a36.354,36.354,0,0,0-2.89,3.3L24,42l-.94-4.68A8.952,8.952,0,0,1,25.92,35.76Z" style="fill:#85ee89"/><path d="M16.08,35.76l-.99,2.96A47.638,47.638,0,0,0,11,35,15.529,15.529,0,0,1,16.08,35.76Z" style="fill:#aaf66f"/><path d="M21,41.6V47a20.119,20.119,0,0,0-3.02-4.98L18,42l.94-4.68A5.512,5.512,0,0,1,21,41.6Z" style="fill:#aaf66f"/><path d="M23.06,37.32,24,42l.02.02A19.717,19.717,0,0,0,21,47V41.6A5.512,5.512,0,0,1,23.06,37.32Z" style="fill:#aaf66f"/><path d="M31,35a47.638,47.638,0,0,0-4.09,3.72l-.99-2.96A15.529,15.529,0,0,1,31,35Z" style="fill:#aaf66f"/><path d="M61,61H3a2,2,0,0,1-1.721-1A1.975,1.975,0,0,0,1,61v2H63V61a1.975,1.975,0,0,0-.279-1A2,2,0,0,1,61,61Z" style="fill:#858178"/><path d="M12.62,40.187l-1.43.713a6.771,6.771,0,0,0,1.21,2.66,6.234,6.234,0,0,0,1.65,1.41l1.585-1.19A8.469,8.469,0,0,1,12.62,40.187Z" style="fill:#35c4ba"/><path d="M26.365,43.78l1.585,1.19a6.234,6.234,0,0,0,1.65-1.41,6.771,6.771,0,0,0,1.21-2.66l-1.43-.713A8.469,8.469,0,0,1,26.365,43.78Z" style="fill:#35c4ba"/><path d="M11,35v4.2a7.447,7.447,0,0,0,.19,1.7l1.43-.713A19.643,19.643,0,0,1,11,35Z" style="fill:#4edfa6"/><path d="M16,44c-.128-.064-.244-.146-.365-.22L14.05,44.97A14.139,14.139,0,0,0,21,47a17.89,17.89,0,0,0-2.125-3.76A1.977,1.977,0,0,1,16,44Z" style="fill:#4edfa6"/><path d="M26,44a1.977,1.977,0,0,1-2.876-.763A17.52,17.52,0,0,0,21,47a14.139,14.139,0,0,0,6.95-2.03l-1.585-1.19C26.244,43.854,26.128,43.936,26,44Z" style="fill:#4edfa6"/><path d="M30.81,40.9A7.447,7.447,0,0,0,31,39.2V35a19.643,19.643,0,0,1-1.62,5.187Z" style="fill:#4edfa6"/><path d="M19.987,38.461a11.256,11.256,0,0,1-1.112,4.779A17.89,17.89,0,0,1,21,47V41.6A5.347,5.347,0,0,0,19.987,38.461Z" style="fill:#4edfa6"/><path d="M22.013,38.461A5.347,5.347,0,0,0,21,41.6V47a17.52,17.52,0,0,1,2.124-3.763A11.238,11.238,0,0,1,22.013,38.461Z" style="fill:#79e78e"/><polygon points="53 16 47 22 48 23 55 16 53 16" style="fill:#94f27a"/><polygon points="58 15 57 16 56.2 14.8 55 16 56.33 18.67 59 16 61 16 61 15 58 15" style="fill:#8f8b81"/><path d="M60,22c-1,0-3,3.79-3,6s1.34,4,3,4a2.971,2.971,0,0,0,2.59-2.013C55.187,29.709,60,22,60,22Z" style="fill:#4edfa6"/><rect x="13" y="61" width="30" height="2" rx="1" ry="1" style="fill:#6e6b63"/><rect x="45" y="61" width="6" height="2" rx="0.977" ry="0.977" style="fill:#6e6b63"/><path d="M8,5V23H34V5ZM32,21H10V7H32Z" style="fill:#c9c6bc"/><path d="M27,55A20,20,0,0,1,7,35V27H3V59H39V55Z" style="fill:#1fd8b9"/><path d="M35,1H7A4,4,0,0,0,3,5V27H5V5A2,2,0,0,1,7,3H35a2,2,0,0,1,2,2V27h2V5A4,4,0,0,0,35,1Z" style="fill:#a9a599"/><rect x="3" y="27" width="2" height="32" style="fill:#28be77"/><rect x="37" y="27" width="2" height="32" style="fill:#28be77"/><polyline points="5 29 5 27 37 27 37 29" style="fill:#bdf474"/><polygon points="40 11 40 19 42 19 42 21 39 21 39 11 40 11" style="fill:#63615a"/><path d="M31,34a16.5,16.5,0,0,0-5.405.814,9.974,9.974,0,0,0-3.18,1.743A7.077,7.077,0,0,0,21,38.167a7.09,7.09,0,0,0-1.422-1.616,9.97,9.97,0,0,0-3.169-1.736A16.525,16.525,0,0,0,11,34a1,1,0,0,0-1,1v4.2a8.389,8.389,0,0,0,.213,1.914A7.718,7.718,0,0,0,11.6,44.162a7.128,7.128,0,0,0,1.917,1.655A15.114,15.114,0,0,0,21,48a15.111,15.111,0,0,0,7.482-2.184A7.107,7.107,0,0,0,30.4,44.164a7.687,7.687,0,0,0,1.387-3.034A8.406,8.406,0,0,0,32,39.2V35A1,1,0,0,0,31,34Zm0,5.2a7.447,7.447,0,0,1-.19,1.7,6.771,6.771,0,0,1-1.21,2.66,6.234,6.234,0,0,1-1.65,1.41A14.139,14.139,0,0,1,21,47a14.139,14.139,0,0,1-6.95-2.03,6.234,6.234,0,0,1-1.65-1.41,6.771,6.771,0,0,1-1.21-2.66A7.447,7.447,0,0,1,11,39.2V35a15.529,15.529,0,0,1,5.08.76,8.952,8.952,0,0,1,2.86,1.56A5.512,5.512,0,0,1,21,41.6a5.512,5.512,0,0,1,2.06-4.28,8.952,8.952,0,0,1,2.86-1.56A15.529,15.529,0,0,1,31,35Z" style="fill:#fffbed"/><path d="M48.3,23.3a.973.973,0,0,0-.2.251l-1,2A1,1,0,0,0,47,26V45a1,1,0,0,1-2,0V15a1,1,0,0,0-1-1H42v2h1V45a3,3,0,0,0,6,0V26.236l.745-1.491L49,24Z" style="fill:#bdf474"/><path d="M30.853,40.647l-3.648-1.825-.012-.035A47.69,47.69,0,0,1,31,35.326V35c-.141,0-.27.012-.408.014-1.365,1.123-2.552,2.208-3.579,3.235l-.763-2.29v-.3c-.108.034-.225.061-.33.1-.059.02-.112.045-.17.066V36a.234.234,0,0,0,.013.079l.857,2.573c-.965.992-1.791,1.93-2.478,2.787l-.861-4.285c-.073.056-.152.109-.221.166s-.14.132-.211.2l.889,4.445A23.087,23.087,0,0,0,21,46.347a23.087,23.087,0,0,0-2.738-4.385l.886-4.448c-.07-.064-.134-.132-.208-.194s-.151-.112-.225-.169l-.858,4.288c-.686-.858-1.513-1.8-2.477-2.787l.857-2.573A.234.234,0,0,0,16.25,36v-.174c-.058-.021-.111-.046-.17-.066-.1-.036-.222-.063-.33-.1v.3l-.763,2.29c-1.027-1.027-2.214-2.112-3.579-3.235-.138,0-.267-.014-.408-.014v.326a47.69,47.69,0,0,1,3.807,3.461l-.012.035-3.648,1.825c.016.084.023.17.043.253s.047.167.068.25l3.854-1.926c.025-.013.034-.042.054-.062.963,1,1.778,1.948,2.455,2.81L13.85,44.8c-.008.006-.006.019-.013.027.071.047.139.1.213.143s.155.087.23.132l3.645-2.733a21.183,21.183,0,0,1,2.8,4.619c.091,0,.184.012.273.012s.182-.01.273-.012a21.183,21.183,0,0,1,2.8-4.619L27.72,45.1c.075-.045.157-.086.23-.132s.142-.1.213-.143c-.007-.008,0-.021-.013-.027l-3.771-2.828c.677-.862,1.492-1.806,2.455-2.81.02.02.029.049.054.062l3.854,1.926c.021-.083.049-.165.068-.25S30.837,40.731,30.853,40.647Z" style="fill:#daffa8"/><path d="M53.707,21.707a1,1,0,0,0-1.414,0l-.586.586a1,1,0,0,0,0,1.414l.793.793,2-2Z" style="fill:#daffa8"/><ellipse cx="28.684" cy="10.695" rx="1.642" ry="2.286" transform="translate(0.844 23.425) rotate(-45.02)" style="fill:#f6fafd"/><ellipse cx="61.682" cy="28.708" rx="0.825" ry="1.148" transform="translate(-2.226 52.046) rotate(-45.02)" style="fill:#f6fafd"/><ellipse cx="25.682" cy="12.708" rx="0.825" ry="1.148" transform="translate(-1.461 21.891) rotate(-45.02)" style="fill:#f6fafd"/><rect x="25" y="16" width="6" height="2" style="fill:#63615a"/><rect x="11" y="16" width="6" height="2" style="fill:#63615a"/></g></svg>