<svg xmlns="http://www.w3.org/2000/svg" viewBox="0 0 64 64"><g id="_13-eco_factory" data-name="13-eco factory"><rect x="32" y="47" width="10" height="16" style="fill:#01cadb"/><rect x="22" y="47" width="10" height="16" style="fill:#01cadb"/><rect x="5" y="35" width="12" height="8" style="fill:#01cadb"/><rect x="26" y="35" width="12" height="8" style="fill:#01cadb"/><rect x="47" y="35" width="12" height="8" style="fill:#01cadb"/><path d="M10,52c0-2.76-1.34-5-3-5s-3,2.24-3,5,1.34,5,3,5S10,54.76,10,52Zm5,5c1.66,0,3-2.24,3-5s-1.34-5-3-5-3,2.24-3,5S13.34,57,15,57Zm37-5c0-2.76-1.34-5-3-5s-3,2.24-3,5,1.34,5,3,5S52,54.76,52,52Zm8,0c0-2.76-1.34-5-3-5s-3,2.24-3,5,1.34,5,3,5S60,54.76,60,52Zm3-23V63H42V47H22V63H1V29L19,19,16,29,34,19,31,29H63ZM59,43V35H47v8ZM38,43V35H26v8ZM17,43V35H5v8Z" style="fill:#e8e4d8"/><rect x="53" y="21" width="8" height="4" style="fill:#e8e4d8"/><rect x="42" y="21" width="8" height="4" style="fill:#e8e4d8"/><polygon points="50 11 50 17 42 17 42 14 50 11" style="fill:#e8e4d8"/><polygon points="61 11 61 17 53 17 53 14 61 11" style="fill:#e8e4d8"/><rect x="53" y="25" width="8" height="4" style="fill:#85ee89"/><rect x="42" y="25" width="8" height="4" style="fill:#85ee89"/><rect x="53" y="17" width="8" height="4" style="fill:#85ee89"/><rect x="42" y="17" width="8" height="4" style="fill:#85ee89"/><path d="M52,1c-6.5,4.4-8,8-8,8V5.4C44,2.97,46.82,1,52,1Z" style="fill:#aaf66f"/><path d="M63,1c-6.5,4.4-8,8-8,8V5.4C55,2.97,57.82,1,63,1Z" style="fill:#aaf66f"/><path d="M52,1V3.8a4.263,4.263,0,0,1-1.12,2.9C49.79,7.9,46.6,9,44,9,44,9,45.5,5.4,52,1Z" style="fill:#79e78e"/><path d="M63,1V3.8a4.263,4.263,0,0,1-1.12,2.9C60.79,7.9,57.6,9,55,9,55,9,56.5,5.4,63,1Z" style="fill:#79e78e"/><ellipse cx="7" cy="52" rx="3" ry="5" style="fill:#79e78e"/><ellipse cx="15" cy="52" rx="3" ry="5" style="fill:#79e78e"/><ellipse cx="49" cy="52" rx="3" ry="5" style="fill:#79e78e"/><ellipse cx="57" cy="52" rx="3" ry="5" style="fill:#79e78e"/><polygon points="22 47 32 57 32 63 29 63 22 56 22 47" style="fill:#6bdfed"/><polygon points="22 47 32 47 32 57 22 47" style="fill:#89f2ff"/><polygon points="22 56 29 63 22 63 22 56" style="fill:#01cadb"/><polygon points="42 47 42 57 32 47 42 47" style="fill:#abf5ff"/><polygon points="38 63 32 63 32 57 38 63" style="fill:#6bdfed"/><polygon points="32 47 42 57 42 63 38 63 32 57 32 47" style="fill:#89f2ff"/><path d="M59,34H47a1,1,0,0,0-1,1v8a1,1,0,0,0,1,1H59a1,1,0,0,0,1-1V35A1,1,0,0,0,59,34Zm0,9H47V35H59Z" style="fill:#75726a"/><polygon points="47 43 53 43 47 37 47 43" style="fill:#6bdfed"/><polygon points="51 35 47 35 47 37 53 43 59 43 51 35" style="fill:#89f2ff"/><polygon points="59 35 51 35 59 43 59 35" style="fill:#abf5ff"/><path d="M38,34H26a1,1,0,0,0-1,1v8a1,1,0,0,0,1,1H38a1,1,0,0,0,1-1V35A1,1,0,0,0,38,34Zm0,9H26V35H38Z" style="fill:#75726a"/><polygon points="26 43 32 43 26 37 26 43" style="fill:#6bdfed"/><polygon points="30 35 26 35 26 37 32 43 38 43 30 35" style="fill:#89f2ff"/><polygon points="38 35 30 35 38 43 38 35" style="fill:#abf5ff"/><path d="M56.912,6.24A11.948,11.948,0,0,0,55,9a12.4,12.4,0,0,0,6.179-1.73C58.9,7.476,57.6,7.005,56.912,6.24Z" style="fill:#4edfa6"/><path d="M56.386,2.76A3.377,3.377,0,0,0,55,5.4V9a11.948,11.948,0,0,1,1.912-2.76A3.855,3.855,0,0,1,56.386,2.76Z" style="fill:#85ee89"/><path d="M45.912,6.24A11.948,11.948,0,0,0,44,9a12.4,12.4,0,0,0,6.179-1.73C47.9,7.476,46.6,7.005,45.912,6.24Z" style="fill:#4edfa6"/><path d="M45.386,2.76A3.377,3.377,0,0,0,44,5.4V9a11.948,11.948,0,0,1,1.912-2.76A3.855,3.855,0,0,1,45.386,2.76Z" style="fill:#85ee89"/><polygon points="42 59 42 63 49 63 57 63 63 63 63 59 42 59" style="fill:#d8d4c9"/><path d="M15,57c-1.66,0-3-2.24-3-5a7,7,0,0,1,.871-3.522A28.052,28.052,0,0,1,9.448,43H5V35H7.036a28.194,28.194,0,0,1-.28-4.737l.119-4.527L1,29V63H22V55.929a27.957,27.957,0,0,1-4.124-2.584C17.523,55.448,16.378,57,15,57ZM7,57c-1.66,0-3-2.24-3-5s1.34-5,3-5,3,2.24,3,5S8.66,57,7,57Z" style="fill:#d8d4c9"/><path d="M58,54c-1.66,0-3-2.24-3-5,0-.263.023-.515.046-.767A6.709,6.709,0,0,0,54,52c0,2.76,1.34,5,3,5,1.5,0,2.731-1.839,2.954-4.233A2.471,2.471,0,0,1,58,54Z" style="fill:#1fd8b9"/><path d="M50,54c-1.66,0-3-2.24-3-5,0-.263.023-.515.046-.767A6.709,6.709,0,0,0,46,52c0,2.76,1.34,5,3,5,1.5,0,2.731-1.839,2.954-4.233A2.471,2.471,0,0,1,50,54Z" style="fill:#1fd8b9"/><path d="M56,56.694V63h2V56.694a1.787,1.787,0,0,1-2,0Z" style="fill:#75726a"/><path d="M48,56.694V63h2V56.694a1.787,1.787,0,0,1-2,0Z" style="fill:#75726a"/><path d="M16,54c-1.66,0-3-2.24-3-5,0-.263.023-.515.046-.767A6.709,6.709,0,0,0,12,52c0,2.76,1.34,5,3,5,1.5,0,2.731-1.839,2.954-4.233A2.471,2.471,0,0,1,16,54Z" style="fill:#1fd8b9"/><path d="M8,54c-1.66,0-3-2.24-3-5,0-.263.023-.515.046-.767A6.709,6.709,0,0,0,4,52c0,2.76,1.34,5,3,5,1.5,0,2.731-1.839,2.954-4.233A2.471,2.471,0,0,1,8,54Z" style="fill:#1fd8b9"/><path d="M14,56.694V63h2V56.694a1.787,1.787,0,0,1-2,0Z" style="fill:#75726a"/><path d="M6,56.694V63H8V56.694A1.961,1.961,0,0,1,7,57,1.961,1.961,0,0,1,6,56.694Z" style="fill:#75726a"/><path d="M17,34H5a1,1,0,0,0-1,1v8a1,1,0,0,0,1,1H17a1,1,0,0,0,1-1V35A1,1,0,0,0,17,34Zm0,9H5V35H17Z" style="fill:#75726a"/><polygon points="5 43 11 43 5 37 5 43" style="fill:#6bdfed"/><polygon points="9 35 5 35 5 37 11 43 17 43 9 35" style="fill:#89f2ff"/><polygon points="17 35 9 35 17 43 17 35" style="fill:#abf5ff"/><path d="M42,46H22a1,1,0,0,0-1,1V63h1V47h9.5V63h1V47H42V63h1V47A1,1,0,0,0,42,46Z" style="fill:#75726a"/><path d="M55,23V21H53v4h2.555A3.955,3.955,0,0,1,55,23Z" style="fill:#c9c6bc"/><polygon points="55 13.25 53 14 53 17 55 17 55 13.25" style="fill:#c9c6bc"/><path d="M59,27a3.982,3.982,0,0,1-3.445-2H53v4h8V27Z" style="fill:#1fd8b9"/><rect x="53" y="17" width="2" height="4" style="fill:#1fd8b9"/><path d="M44,23V21H42v4h2.555A3.955,3.955,0,0,1,44,23Z" style="fill:#c9c6bc"/><polygon points="44 13.25 42 14 42 17 44 17 44 13.25" style="fill:#c9c6bc"/><path d="M48,27a3.982,3.982,0,0,1-3.445-2H42v4h8V27Z" style="fill:#1fd8b9"/><rect x="42" y="17" width="2" height="4" style="fill:#1fd8b9"/><polygon points="31 29 33.25 21.5 22 29 31 29" style="fill:#d8d4c9"/><polygon points="16 29 18.25 21.5 7 29 16 29" style="fill:#d8d4c9"/></g></svg>