<svg xmlns="http://www.w3.org/2000/svg" viewBox="0 0 64 64"><g id="_02-eco_earth" data-name="02-eco earth"><polygon points="63 6 63 8 62 10 52 10 51 8 51 6 54 6 60 6 63 6" style="fill:#ffdf64"/><path d="M54,16.46A3.987,3.987,0,0,1,52,13V10H62v3a4.01,4.01,0,0,1-4,4H56A3.989,3.989,0,0,1,54,16.46Z" style="fill:#ffb844"/><path d="M60,16.46V18a2.006,2.006,0,0,1-2,2H56a2.006,2.006,0,0,1-2-2V16.46A3.989,3.989,0,0,0,56,17h2A3.989,3.989,0,0,0,60,16.46Z" style="fill:#29b479"/><path d="M37.21,37.85a19.186,19.186,0,0,0,8.05-3.15A29.217,29.217,0,0,0,53,27a25.362,25.362,0,0,1-.97,7.01L52,34C45,44,32,48,26,48a33.008,33.008,0,0,0-11,2l-.03.05a24.99,24.99,0,0,1-3.08-1.9L12,48a10.776,10.776,0,0,1,2.06-2.94,18.946,18.946,0,0,1,5.93-4.19C23.44,39.25,28.28,38,35,38A15.977,15.977,0,0,0,37.21,37.85Z" style="fill:#85ee89"/><path d="M17.8,51.32a23.952,23.952,0,0,1-2.83-1.27L15,50a33.008,33.008,0,0,1,11-2c6,0,19-4,26-14l.03.01A26,26,0,0,1,17.8,51.32Z" style="fill:#4edfa6"/><path d="M9.7,52.4,6.96,50.57a2.15,2.15,0,0,1-.53-3.08l2.18-2.12a24.227,24.227,0,0,0,3.28,2.78,24.99,24.99,0,0,0,3.08,1.9,23.952,23.952,0,0,0,2.83,1.27l-1.81,2.82a2.166,2.166,0,0,1-2.92.5Z" style="fill:#29b479"/><path d="M50.44,15.73A25.924,25.924,0,0,1,53,27c-2.25-.59-3.15-3.25-5.19-4.38a1.756,1.756,0,0,0-1.31-.24c-.92.29-1.05,1.63-.59,2.49s1.27,1.46,1.76,2.31c.9,1.56.45,3.6-.46,5.15a29.649,29.649,0,0,1-1.95,2.37,19.186,19.186,0,0,1-8.05,3.15,7.992,7.992,0,0,0,.63-3.13,7.329,7.329,0,0,0-.85-2.76,4.4,4.4,0,0,0-1.4-1.86c-1.26-.82-2.99-.26-4.4-.8a3.742,3.742,0,0,1-2.18-3.21,6.307,6.307,0,0,1,1.16-3.85c1.21-1.83,3.41-3.28,5.51-2.7,1.04.29,1.91,1.04,2.96,1.28a4.5,4.5,0,0,0,2.5-.29,1.453,1.453,0,0,0-.12-2.7,17.97,17.97,0,0,1-2.05-.91,11.665,11.665,0,0,0-2.72-.87,2.573,2.573,0,0,0-.68-.06,3.2,3.2,0,0,0-1.46.7,3.864,3.864,0,0,1-1.93.85,1.5,1.5,0,0,1-1.61-1.11,1.8,1.8,0,0,1,.52-1.35,10.538,10.538,0,0,0,1-1.12,8.491,8.491,0,0,0,.58-1.39,2.051,2.051,0,0,1,.95-1.13,2.554,2.554,0,0,1,1.23-.1,4.2,4.2,0,0,0,1.87-.13c.58-.21,1.55-1.18.88-1.82a.673.673,0,0,0-.3-.16c-.83-.27-1.77-.09-2.59-.39a.75.75,0,0,1-.35-.22.8.8,0,0,1-.11-.34,2.861,2.861,0,0,1,.12-1.45A3.016,3.016,0,0,1,37,5h3.84A26,26,0,0,1,50.44,15.73Z" style="fill:#ffdf64"/><path d="M47.81,22.62C49.85,23.75,50.75,26.41,53,27a29.217,29.217,0,0,1-7.74,7.7,29.649,29.649,0,0,0,1.95-2.37c.91-1.55,1.36-3.59.46-5.15-.49-.85-1.3-1.46-1.76-2.31s-.33-2.2.59-2.49A1.756,1.756,0,0,1,47.81,22.62Z" style="fill:#01cadb"/><path d="M42,19.2a1.425,1.425,0,0,1-.86,1.33,4.5,4.5,0,0,1-2.5.29c-1.05-.24-1.92-.99-2.96-1.28-2.1-.58-4.3.87-5.51,2.7a6.307,6.307,0,0,0-1.16,3.85,3.742,3.742,0,0,0,2.18,3.21c1.41.54,3.14-.02,4.4.8a4.4,4.4,0,0,1,1.4,1.86,7.329,7.329,0,0,1,.85,2.76,7.992,7.992,0,0,1-.63,3.13A15.977,15.977,0,0,1,35,38c-6.72,0-11.56,1.25-15.01,2.87a14.886,14.886,0,0,0-.7-3.87c-.04-.13-.08-.27-.13-.4s-.09-.27-.14-.41-.11-.3-.18-.45c-.08-.22-.17-.44-.28-.67s-.22-.47-.34-.71c-.11-.22-.22-.43-.35-.65a15.543,15.543,0,0,0-1.68-2.39c-.13-.14-.26-.29-.41-.44-.16-.18-.34-.36-.53-.54a11.028,11.028,0,0,0-1.08-.94q-.2-.165-.39-.3a14.827,14.827,0,0,0-2.02-1.28c-.17-.09-.35-.19-.54-.27a.8.8,0,0,0-.16-.08c-.16-.08-.32-.15-.48-.22-.19-.09-.38-.17-.58-.25a7.762,7.762,0,0,1-1.9-1.13v-.01a6.663,6.663,0,0,1,1.16-1.47,3.6,3.6,0,0,0,1.23-1.06c.29-.41.49-.88.74-1.31a21.684,21.684,0,0,1,2.22-2.73,4.22,4.22,0,0,1,2.9-1.04,4.812,4.812,0,0,0,3.08-1.06,2.189,2.189,0,0,0,.56-1.6,3.541,3.541,0,0,0-1.24-2.43,3.777,3.777,0,0,0-1.63-1.11,4.85,4.85,0,0,0-2.76.54,13.241,13.241,0,0,1-2.31.66c-.66.13-1.02-.61-1.05-1.25a1.486,1.486,0,0,1,.55-1.28A4.687,4.687,0,0,1,13,10h1V8c-.01-.66-.25-.64-.75-1.09A5.213,5.213,0,0,0,11.8,6l-.04-.05A25.939,25.939,0,0,1,40.84,5H37a3.016,3.016,0,0,0-2.63,1.83,2.861,2.861,0,0,0-.12,1.45.8.8,0,0,0,.11.34.75.75,0,0,0,.35.22c.82.3,1.76.12,2.59.39a.673.673,0,0,1,.3.16c.67.64-.3,1.61-.88,1.82a4.2,4.2,0,0,1-1.87.13,2.554,2.554,0,0,0-1.23.1,2.051,2.051,0,0,0-.95,1.13,8.491,8.491,0,0,1-.58,1.39,10.538,10.538,0,0,1-1,1.12,1.8,1.8,0,0,0-.52,1.35,1.5,1.5,0,0,0,1.61,1.11,3.864,3.864,0,0,0,1.93-.85,3.2,3.2,0,0,1,1.46-.7,2.573,2.573,0,0,1,.68.06,11.665,11.665,0,0,1,2.72.87,17.97,17.97,0,0,0,2.05.91A1.432,1.432,0,0,1,42,19.2ZM28.98,6.64a1.511,1.511,0,0,0-.29-1.07,2.813,2.813,0,0,0-.89-.93,4.4,4.4,0,0,0-1.43-.49c-1.86-.33-4.29-.17-5.65,1.02a4.852,4.852,0,0,0-1.66,2.61,2.958,2.958,0,0,0,.9,2.78,6.377,6.377,0,0,0,1.57.97,3.541,3.541,0,0,0,2.2.42,2.349,2.349,0,0,0,1.14-.73c.28-.33.49-.69.75-1.03a29.077,29.077,0,0,1,2.72-2.58A1.846,1.846,0,0,0,28.98,6.64ZM16.88,26.52a2.1,2.1,0,0,0-.13-1.66,3.979,3.979,0,0,0-1.55-1.68c-.69-.45-1.38.01-1.83.56a1.156,1.156,0,0,0-.36.87,1.242,1.242,0,0,0,.28.59,6.112,6.112,0,0,0,.69.85,3.8,3.8,0,0,0,1.84.9.992.992,0,0,0,.74-.04A.686.686,0,0,0,16.88,26.52Z" style="fill:#01cadb"/><path d="M28.69,5.57a1.511,1.511,0,0,1,.29,1.07,1.846,1.846,0,0,1-.64.97,29.077,29.077,0,0,0-2.72,2.58c-.26.34-.47.7-.75,1.03a2.349,2.349,0,0,1-1.14.73,3.541,3.541,0,0,1-2.2-.42,6.377,6.377,0,0,1-1.57-.97,2.958,2.958,0,0,1-.9-2.78,4.852,4.852,0,0,1,1.66-2.61c1.36-1.19,3.79-1.35,5.65-1.02a4.4,4.4,0,0,1,1.43.49A2.813,2.813,0,0,1,28.69,5.57Z" style="fill:#9ae344"/><path d="M19.99,15.59a2.189,2.189,0,0,1-.56,1.6,4.812,4.812,0,0,1-3.08,1.06,4.22,4.22,0,0,0-2.9,1.04,21.684,21.684,0,0,0-2.22,2.73c-.25.43-.45.9-.74,1.31a3.6,3.6,0,0,1-1.23,1.06A6.663,6.663,0,0,0,8.1,25.86C4.49,22.95,3,17,3,17A25.859,25.859,0,0,1,11.76,5.95L11.8,6a5.213,5.213,0,0,1,1.45.91c.5.45.74.43.75,1.09v2H13a4.687,4.687,0,0,0-1.45.72A1.486,1.486,0,0,0,11,12c.03.64.39,1.38,1.05,1.25a13.241,13.241,0,0,0,2.31-.66,4.85,4.85,0,0,1,2.76-.54,3.777,3.777,0,0,1,1.63,1.11A3.541,3.541,0,0,1,19.99,15.59Z" style="fill:#ffdf64"/><path d="M16.75,24.86a2.1,2.1,0,0,1,.13,1.66.686.686,0,0,1-.32.39.992.992,0,0,1-.74.04,3.8,3.8,0,0,1-1.84-.9,6.112,6.112,0,0,1-.69-.85,1.242,1.242,0,0,1-.28-.59,1.156,1.156,0,0,1,.36-.87c.45-.55,1.14-1.01,1.83-.56A3.979,3.979,0,0,1,16.75,24.86Z" style="fill:#ffdf64"/><path d="M8.1,25.87A7.762,7.762,0,0,0,10,27c.2.08.39.16.58.25.16.07.32.14.48.22a.8.8,0,0,1,.16.08q.27.12.54.27a14.827,14.827,0,0,1,2.02,1.28q.21.15.39.3a11.028,11.028,0,0,1,1.08.94c.19.18.36.35.53.54.14.14.27.29.41.44a15.543,15.543,0,0,1,1.68,2.39c.12.22.24.43.35.65.12.24.24.48.34.71s.2.45.28.67c.07.15.12.3.18.45s.1.27.14.41.09.27.13.4a14.886,14.886,0,0,1,.7,3.87,18.946,18.946,0,0,0-5.93,4.19L14,45s1-6-7-13C2.18,27.78,2,20,2,20l-.03-.01A21.974,21.974,0,0,1,3,17s1.49,5.95,5.1,8.86Z" style="fill:#79e78e"/><path d="M8.61,45.37A25.891,25.891,0,0,1,1,27a25.362,25.362,0,0,1,.97-7.01L2,20s.18,7.78,5,12c8,7,7,13,7,13l.06.06A10.776,10.776,0,0,0,12,48l-.11.15A24.227,24.227,0,0,1,8.61,45.37Z" style="fill:#1fd8b9"/><path d="M60,16.46A3.989,3.989,0,0,1,58,17H56a3.989,3.989,0,0,1-2-.54V18a1.975,1.975,0,0,0,.279,1A2,2,0,0,1,56,18h2a2,2,0,0,1,1.721,1A1.975,1.975,0,0,0,60,18Z" style="fill:#129c78"/><polygon points="52 10 62 10 63 8 51 8 52 10" style="fill:#ffb844"/><path d="M54,14a2,2,0,0,1,2-2h6V10H52v3a4.01,4.01,0,0,0,4,4h1A3,3,0,0,1,54,14Z" style="fill:#fea740"/><rect x="52" y="6" width="10" height="2" rx="1" ry="1" style="fill:#fffcbd"/><path d="M10.484,49.927l5.859,3.663L17.8,51.32a23.952,23.952,0,0,1-2.83-1.27,24.99,24.99,0,0,1-3.08-1.9,24.227,24.227,0,0,1-3.28-2.78L6.43,47.49a2.15,2.15,0,0,0,.53,3.08l.8.536a1.8,1.8,0,0,1,2.721-1.179Z" style="fill:#129c78"/><path d="M26,48a20.741,20.741,0,0,0,3.293-.314c-6.067-.861-9.362-3.369-11.154-5.844A18,18,0,0,0,14.06,45.06,10.776,10.776,0,0,0,12,48l-.11.15a24.99,24.99,0,0,0,3.08,1.9L15,50A33.008,33.008,0,0,1,26,48Z" style="fill:#4edfa6"/><path d="M47.141,39.317A29.049,29.049,0,0,0,52,34l.03.01A25.362,25.362,0,0,0,53,27a25.63,25.63,0,0,1-2.2,2.826A39.6,39.6,0,0,1,47.141,39.317Z" style="fill:#4edfa6"/><path d="M47.141,39.317C44.327,44.3,40.17,48,34,48a33.431,33.431,0,0,1-4.707-.314A20.741,20.741,0,0,1,26,48a33.008,33.008,0,0,0-11,2l-.03.05a23.952,23.952,0,0,0,2.83,1.27A26,26,0,0,0,52.03,34.01L52,34A29.049,29.049,0,0,1,47.141,39.317Z" style="fill:#35c4ba"/><path d="M14,45l.06.06a18.946,18.946,0,0,1,5.93-4.19,14.886,14.886,0,0,0-.7-3.87c-.027-.087-.057-.178-.087-.268a20.165,20.165,0,0,0-5.875,3.91A9.714,9.714,0,0,1,14,45Z" style="fill:#1fd8b9"/><path d="M2.642,24.208a15.024,15.024,0,0,1,1.227-4.644A21.993,21.993,0,0,1,3,17a21.974,21.974,0,0,0-1.03,2.99L2,20A21.429,21.429,0,0,0,2.642,24.208Z" style="fill:#1fd8b9"/><path d="M13.328,40.642c-.3.273-.594.539-.9.843A2.013,2.013,0,0,1,9.486,41.4c-2.6-2.966-7.573-9.709-6.844-17.193A21.429,21.429,0,0,1,2,20l-.03-.01A25.362,25.362,0,0,0,1,27,25.891,25.891,0,0,0,8.61,45.37a24.227,24.227,0,0,0,3.28,2.78L12,48a10.776,10.776,0,0,1,2.06-2.94L14,45A9.714,9.714,0,0,0,13.328,40.642Z" style="fill:#35c4ba"/><path d="M47.907,27.7C45.491,30.836,42.545,33,39,33c-.54,0-1.041.017-1.551.03a5.649,5.649,0,0,1,.391,1.69,7.992,7.992,0,0,1-.63,3.13,19.186,19.186,0,0,0,8.05-3.15,29.649,29.649,0,0,0,1.95-2.37A5.613,5.613,0,0,0,47.907,27.7Z" style="fill:#ff942c"/><path d="M49.968,24.594A6.375,6.375,0,0,0,53,27a26.04,26.04,0,0,0-.88-6.7A42.977,42.977,0,0,1,49.968,24.594Z" style="fill:#ffb844"/><path d="M49.968,24.594A28.294,28.294,0,0,1,47.907,27.7a5.613,5.613,0,0,1-.7,4.631,29.649,29.649,0,0,1-1.95,2.37A29.217,29.217,0,0,0,53,27,6.375,6.375,0,0,1,49.968,24.594Z" style="fill:#01a2b0"/><path d="M37.449,33.03C25.7,33.335,22,37,22,37c.5-5.02-2.02-8.023-5.162-10.4a.638.638,0,0,1-.278.313.992.992,0,0,1-.74.04,3.8,3.8,0,0,1-1.84-.9,6.112,6.112,0,0,1-.69-.85,1.242,1.242,0,0,1-.28-.59.82.82,0,0,1,.12-.525c-.764-.492-1.512-.98-2.214-1.479a6.327,6.327,0,0,1-.426.724,3.6,3.6,0,0,1-1.23,1.06A6.663,6.663,0,0,0,8.1,25.86v.01A7.762,7.762,0,0,0,10,27c.2.08.39.16.58.25.16.07.32.14.48.22a.8.8,0,0,1,.16.08c.19.08.37.18.54.27a14.827,14.827,0,0,1,2.02,1.28q.2.135.39.3a11.028,11.028,0,0,1,1.08.94c.19.18.37.36.53.54.15.15.28.3.41.44a15.543,15.543,0,0,1,1.68,2.39c.13.22.24.43.35.65.12.24.24.48.34.71s.2.45.28.67c.07.15.12.3.18.45s.1.28.14.41.09.27.13.4a14.886,14.886,0,0,1,.7,3.87C23.44,39.25,28.28,38,35,38a15.977,15.977,0,0,0,2.21-.15,7.992,7.992,0,0,0,.63-3.13A5.649,5.649,0,0,0,37.449,33.03Z" style="fill:#01a2b0"/><path d="M21.53,11.53a3.541,3.541,0,0,0,2.2.42,2.349,2.349,0,0,0,1.14-.73c.28-.33.49-.69.75-1.03a29.077,29.077,0,0,1,2.72-2.58,1.846,1.846,0,0,0,.64-.97,1.511,1.511,0,0,0-.29-1.07,2.813,2.813,0,0,0-.89-.93,4.4,4.4,0,0,0-1.43-.49c-1.86-.33-4.29-.17-5.65,1.02a4.852,4.852,0,0,0-1.66,2.61,2.958,2.958,0,0,0,.9,2.78A6.377,6.377,0,0,0,21.53,11.53Z" style="fill:#ffdf64"/><path d="M9.26,24.39a3.6,3.6,0,0,0,1.23-1.06,6.327,6.327,0,0,0,.426-.724A14.382,14.382,0,0,1,8,20c-1.926-2.408-1.764-6.2-1.079-9.5A25.813,25.813,0,0,0,3,17s1.49,5.95,5.1,8.86A6.663,6.663,0,0,1,9.26,24.39Z" style="fill:#ff942c"/><path d="M13.01,24.61a1.242,1.242,0,0,0,.28.59,6.112,6.112,0,0,0,.69.85,3.8,3.8,0,0,0,1.84.9.992.992,0,0,0,.74-.04.638.638,0,0,0,.278-.313c-1.191-.9-2.47-1.714-3.708-2.512A.82.82,0,0,0,13.01,24.61Z" style="fill:#ff942c"/><path d="M34.37,6.83a2.857,2.857,0,0,0-.12,1.449q.789.351,1.55.75a6.184,6.184,0,0,1,1.5.2.673.673,0,0,1,.3.16.693.693,0,0,1,.172.787,26.581,26.581,0,0,1,10.42,12.7,9.693,9.693,0,0,1,1.776,1.714h0A42.977,42.977,0,0,0,52.12,20.3,25.772,25.772,0,0,0,40.84,5H37A3.016,3.016,0,0,0,34.37,6.83Z" style="fill:#fffcbd"/><path d="M49.968,24.594a9.693,9.693,0,0,0-1.776-1.714,26.2,26.2,0,0,1,.976,3.008C49.44,25.465,49.711,25.039,49.968,24.594Z" style="fill:#89f2ff"/><path d="M13.25,6.91c.432.389.669.428.732.858a26.3,26.3,0,0,1,5.753-1.5,6.109,6.109,0,0,1,.985-1.1c1.36-1.19,3.79-1.35,5.65-1.02a4.4,4.4,0,0,1,1.43.49,2.813,2.813,0,0,1,.89.93,1.562,1.562,0,0,1,.293,1A26.305,26.305,0,0,1,34.25,8.279a2.857,2.857,0,0,1,.12-1.449A3.016,3.016,0,0,1,37,5h3.84a25.939,25.939,0,0,0-29.08.95L11.8,6A5.213,5.213,0,0,1,13.25,6.91Z" style="fill:#89f2ff"/><path d="M37.6,9.39a.673.673,0,0,0-.3-.16,6.184,6.184,0,0,0-1.5-.2q1.014.531,1.972,1.148A.693.693,0,0,0,37.6,9.39Z" style="fill:#89f2ff"/><path d="M13.982,7.768c-.063-.43-.3-.469-.732-.858A5.213,5.213,0,0,0,11.8,6l-.04-.05A25.794,25.794,0,0,0,6.921,10.5c-.105.5-.191,1.019-.266,1.539A26.5,26.5,0,0,1,13.982,7.768Z" style="fill:#fffcbd"/><path d="M28.983,6.571a1.562,1.562,0,0,0-.293-1,2.813,2.813,0,0,0-.89-.93,4.4,4.4,0,0,0-1.43-.49c-1.86-.33-4.29-.17-5.65,1.02a6.109,6.109,0,0,0-.985,1.1,26.479,26.479,0,0,1,9.248.3Z" style="fill:#fffcbd"/><path d="M6.655,12.042c.075-.52.161-1.036.266-1.539h0a26.221,26.221,0,0,0-2.146,3.02c-.018.029-.037.057-.055.087-.093.153-.172.314-.261.469A26.8,26.8,0,0,1,6.655,12.042Z" style="fill:#ffb844"/><rect x="59" y="1" width="2" height="5" style="fill:#85ee89"/><rect x="53" y="1" width="2" height="5" style="fill:#85ee89"/><path d="M56,20V61a1,1,0,0,1-1,1H9a1,1,0,0,1-1-1V56.67a.972.972,0,0,1,.2-.6l2.334-3.115L9.7,52.4l-.833-.556L6.605,54.863A2.993,2.993,0,0,0,6,56.67V61a3,3,0,0,0,3,3H55a3,3,0,0,0,3-3V20Z" style="fill:#35c4ba"/><polygon points="60 1 60 5 61 5 61 6 59 6 59 1 60 1" style="fill:#18ae88"/><polygon points="54 1 54 5 55 5 55 6 53 6 53 1 54 1" style="fill:#18ae88"/><path d="M52.149,33.53a.494.494,0,0,0-.559.183C45.007,43.118,32.428,47.5,26,47.5a33.187,33.187,0,0,0-11.186,2.036.494.494,0,0,0-.274.27c.145.079.284.167.43.244.188.1.384.186.576.281A32.974,32.974,0,0,1,26,48.5c5.186,0,17.956-3.26,25.6-13.152.15-.444.306-.884.432-1.338C52.075,33.852,52.107,33.689,52.149,33.53Z" style="fill:#daffa8"/><path d="M6.671,32.376c7.662,6.7,6.845,12.486,6.835,12.544a.5.5,0,0,0,.232.5c.105-.121.205-.239.322-.364.148-.159.308-.323.476-.488.068-1.618-.311-6.915-7.206-12.948C2.736,27.6,2.5,20.064,2.5,19.988a.5.5,0,0,0-.384-.478c-.046.161-.1.317-.146.48-.136.472-.25.953-.357,1.435C1.9,23.917,2.948,29.116,6.671,32.376Z" style="fill:#c6ff79"/></g></svg>