<svg xmlns="http://www.w3.org/2000/svg" viewBox="0 0 64 64"><g id="_25-wastewater" data-name="25-wastewater"><rect x="4" y="20" width="4" height="4" style="fill:#ffdf64"/><rect x="12" y="20" width="4" height="4" style="fill:#ffdf64"/><rect x="12" y="13" width="4" height="4" style="fill:#ffdf64"/><rect x="4" y="13" width="4" height="4" style="fill:#ffdf64"/><rect x="4" y="6" width="4" height="4" style="fill:#ffdf64"/><rect x="12" y="6" width="4" height="4" style="fill:#ffdf64"/><polygon points="38 28 38 29 35 29 35 19 38 19 38 20 38 28" style="fill:#79e78e"/><polygon points="35 19 35 29 28 29 28 20 28 19 35 19" style="fill:#1fd8b9"/><polygon points="19 29 19 8 28 8 28 19 28 20 28 29 19 29" style="fill:#8f8b81"/><path d="M4,20v4H8V20Zm4-3V13H4v4Zm0-7V6H4v4Zm4,10v4h4V20Zm4-10V6H12v4Zm0,7V13H12v4ZM19,1V29H1V1Z" style="fill:#e8e4d8"/><path d="M57,39v7.92C55.21,46.55,54.94,45,52.67,45c-2.41,0-2.58,1.73-4.67,1.97V38A10,10,0,0,0,38,28V20A19,19,0,0,1,57,39Z" style="fill:#b5b1a4"/><path d="M63,53v8c-2.58,0-2.58,2-5.17,2s-2.58-2-5.16-2-2.59,2-5.17,2-2.58-2-5.17-2-2.58,2-5.16,2S34.58,61,32,61s-2.58,2-5.17,2-2.58-2-5.16-2-2.59,2-5.17,2-2.58-2-5.17-2-2.58,2-5.16,2S3.58,61,1,61V53c2.58,0,2.58,2,5.17,2s2.58-2,5.16-2,2.59,2,5.17,2,2.58-2,5.17-2,2.58,2,5.16,2,2.59-2,5.17-2,2.58,2,5.17,2,2.58-2,5.16-2,2.59,2,5.17,2,2.58-2,5.17-2,2.58,2,5.16,2S60.42,53,63,53Z" style="fill:#01cadb"/><path d="M48,46.97c2.09-.24,2.26-1.97,4.67-1.97,2.27,0,2.54,1.55,4.33,1.92a4.174,4.174,0,0,0,.83.08c2.59,0,2.59-2,5.17-2v8c-2.58,0-2.58,2-5.17,2s-2.58-2-5.16-2-2.59,2-5.17,2-2.58-2-5.17-2-2.58,2-5.16,2S34.58,53,32,53s-2.58,2-5.17,2-2.58-2-5.16-2-2.59,2-5.17,2-2.58-2-5.17-2-2.58,2-5.16,2S3.58,53,1,53V45c2.58,0,2.58,2,5.17,2s2.58-2,5.16-2,2.59,2,5.17,2,2.58-2,5.17-2,2.58,2,5.16,2,2.59-2,5.17-2a4.117,4.117,0,0,1,2.85,1.21,3.566,3.566,0,0,0,2.32.79c2.58,0,2.58-2,5.16-2s2.59,2,5.17,2A3.953,3.953,0,0,0,48,46.97Z" style="fill:#53d5e3"/><path d="M63,61v2H57.83C60.42,63,60.42,61,63,61Z" style="fill:#01abba"/><path d="M57.83,63H47.5c2.58,0,2.58-2,5.17-2S55.25,63,57.83,63Z" style="fill:#01abba"/><path d="M47.5,63H37.17c2.58,0,2.58-2,5.16-2S44.92,63,47.5,63Z" style="fill:#01abba"/><path d="M37.17,63H26.83c2.59,0,2.59-2,5.17-2S34.58,63,37.17,63Z" style="fill:#01abba"/><path d="M35,32V46l-.15.21A4.117,4.117,0,0,0,32,45c-2.58,0-2.58,2-5.17,2s-2.58-2-5.16-2-2.59,2-5.17,2-2.58-2-5.17-2-2.58,2-5.16,2S3.58,45,1,45V32Z" style="fill:#c9c6bc"/><polygon points="35 29 35 32 1 32 1 29 19 29 28 29 35 29" style="fill:#79e78e"/><path d="M26.83,63H16.5c2.58,0,2.58-2,5.17-2S24.25,63,26.83,63Z" style="fill:#01abba"/><path d="M16.5,63H6.17c2.58,0,2.58-2,5.16-2S13.92,63,16.5,63Z" style="fill:#01abba"/><path d="M6.17,63H1V61C3.58,61,3.58,63,6.17,63Z" style="fill:#01abba"/><path d="M8,21.174V24H4V20H7.02a14.984,14.984,0,0,1-1.764-3H4V13h.149A14.99,14.99,0,0,1,4,11V1H1V29H19V26A14.942,14.942,0,0,1,8,21.174Z" style="fill:#d8d4c9"/><rect x="12" y="6" width="4" height="2" style="fill:#ffb844"/><rect x="4" y="6" width="4" height="2" style="fill:#ffb844"/><rect x="12" y="13" width="4" height="2" style="fill:#ffb844"/><rect x="4" y="13" width="4" height="2" style="fill:#ffb844"/><rect x="12" y="20" width="4" height="2" style="fill:#ffb844"/><rect x="4" y="20" width="4" height="2" style="fill:#ffb844"/><path d="M22,20V8H19V29h9V26A6,6,0,0,1,22,20Z" style="fill:#75726a"/><path d="M31,22V19H28V29h7V26A4,4,0,0,1,31,22Z" style="fill:#1f9e65"/><rect x="35" y="26" width="3" height="3" style="fill:#27cc83"/><path d="M6,36.5C6,35.672,6.9,35,8,35H35V32H1V45c2.58,0,2.58,2,5.17,2s2.58-2,5.16-2,2.59,2,5.17,2,2.58-2,5.17-2,2.58,2,5.16,2,2.59-2,5.17-2a4.117,4.117,0,0,1,2.85,1.21L35,46V44H16C10.477,44,6,40.642,6,36.5Z" style="fill:#b5b1a4"/><rect x="1" y="32" width="34" height="1" style="fill:#8f8b81"/><path d="M4,29H4a2,2,0,0,0,2,2H35v1H1V29Z" style="fill:#23b574"/><path d="M41.417,26.376A2.012,2.012,0,0,1,40,24.469V20.107A19.152,19.152,0,0,0,38,20v8A10,10,0,0,1,48,38v8.97a4.366,4.366,0,0,0,2.325-1.153C50.861,40.964,51.049,29.462,41.417,26.376Z" style="fill:#8f8b81"/><path d="M57,39A19.006,19.006,0,0,0,40,20.107v2.354A18,18,0,0,1,54,40v5.233c1.152.445,1.638,1.406,3,1.687Z" style="fill:#c9c6bc"/><path d="M40,22.461v2.008a2.012,2.012,0,0,0,1.417,1.907c9.632,3.086,9.444,14.588,8.908,19.441A3.543,3.543,0,0,1,52.67,45a3.579,3.579,0,0,1,1.33.233V40A18,18,0,0,0,40,22.461Z" style="fill:#b5b1a4"/><path d="M57.83,47c-2.58,0-2.58-2-5.16-2s-2.59,2-5.17,2-2.58-2-5.17-2-2.58,2-5.16,2S34.58,45,32,45s-2.58,2-5.17,2-2.58-2-5.16-2-2.59,2-5.17,2-2.58-2-5.17-2-2.58,2-5.16,2S3.58,45,1,45v3c2.58,0,2.58,2,5.17,2s2.58-2,5.16-2,2.59,2,5.17,2,2.58-2,5.17-2,2.58,2,5.16,2,2.59-2,5.17-2,2.58,2,5.17,2,2.58-2,5.16-2,2.59,2,5.17,2,2.58-2,5.17-2,2.58,2,5.16,2,2.59-2,5.17-2V45C60.42,45,60.42,47,57.83,47Z" style="fill:#89f2ff"/><path d="M57.83,55c-2.58,0-2.58-2-5.16-2s-2.59,2-5.17,2-2.58-2-5.17-2-2.58,2-5.16,2S34.58,53,32,53s-2.58,2-5.17,2-2.58-2-5.16-2-2.59,2-5.17,2-2.58-2-5.17-2-2.58,2-5.16,2S3.58,53,1,53v3c2.58,0,2.58,2,5.17,2s2.58-2,5.16-2,2.59,2,5.17,2,2.58-2,5.17-2,2.58,2,5.16,2,2.59-2,5.17-2,2.58,2,5.17,2,2.58-2,5.16-2,2.59,2,5.17,2,2.58-2,5.17-2,2.58,2,5.16,2,2.59-2,5.17-2V53C60.42,53,60.42,55,57.83,55Z" style="fill:#89f2ff"/><path d="M8,5H4A1,1,0,0,0,3,6v4a1,1,0,0,0,1,1H8a1,1,0,0,0,1-1V6A1,1,0,0,0,8,5Zm0,5H4V6H8Z" style="fill:#8f8b81"/><path d="M16,5H12a1,1,0,0,0-1,1v4a1,1,0,0,0,1,1h4a1,1,0,0,0,1-1V6A1,1,0,0,0,16,5Zm0,5H12V6h4Z" style="fill:#8f8b81"/><path d="M8,12H4a1,1,0,0,0-1,1v4a1,1,0,0,0,1,1H8a1,1,0,0,0,1-1V13A1,1,0,0,0,8,12Zm0,5H4V13H8Z" style="fill:#8f8b81"/><path d="M16,12H12a1,1,0,0,0-1,1v4a1,1,0,0,0,1,1h4a1,1,0,0,0,1-1V13A1,1,0,0,0,16,12Zm0,5H12V13h4Z" style="fill:#8f8b81"/><path d="M8,19H4a1,1,0,0,0-1,1v4a1,1,0,0,0,1,1H8a1,1,0,0,0,1-1V20A1,1,0,0,0,8,19Zm0,5H4V20H8Z" style="fill:#8f8b81"/><path d="M16,19H12a1,1,0,0,0-1,1v4a1,1,0,0,0,1,1h4a1,1,0,0,0,1-1V20A1,1,0,0,0,16,19Zm0,5H12V20h4Z" style="fill:#8f8b81"/><rect x="21" y="11" width="2" height="2" style="fill:#ffb844"/><rect x="24" y="11" width="2" height="2" style="fill:#ffb844"/><rect x="21" y="15" width="2" height="2" style="fill:#ffb844"/><rect x="24" y="15" width="2" height="2" style="fill:#ffb844"/><rect x="21" y="19" width="2" height="2" style="fill:#ffb844"/><rect x="24" y="19" width="2" height="2" style="fill:#ffb844"/><rect x="21" y="23" width="2" height="2" style="fill:#ffb844"/><rect x="24" y="23" width="2" height="2" style="fill:#ffb844"/><circle cx="44" cy="23" r="1" style="fill:#8f8b81"/><circle cx="50" cy="31" r="1" style="fill:#8f8b81"/><circle cx="52.5" cy="34.5" r="0.5" style="fill:#8f8b81"/><circle cx="51.5" cy="38.5" r="0.5" style="fill:#8f8b81"/><circle cx="49.5" cy="26.5" r="0.5" style="fill:#8f8b81"/><circle cx="44.5" cy="25.5" r="0.5" style="fill:#8f8b81"/><circle cx="55.5" cy="41.5" r="0.5" style="fill:#8f8b81"/><circle cx="53.5" cy="31.5" r="0.5" style="fill:#8f8b81"/></g></svg>