<svg xmlns="http://www.w3.org/2000/svg" viewBox="0 0 64 64"><g id="_10-bag" data-name="10-bag"><path d="M14.11,17.68,20,1h2L17,18v4a1,1,0,0,0,1,1H46a1,1,0,0,0,1-1V18L42,1h2l5.89,16.68a2.124,2.124,0,0,1,.11.66V24a2.006,2.006,0,0,1-2,2H16a2.006,2.006,0,0,1-2-2V18.34A2.124,2.124,0,0,1,14.11,17.68Z" style="fill:#79e78e"/><path d="M18,1,11,19v5a1,1,0,0,1-1,1H8a1,1,0,0,1-1-1V19L16,1Z" style="fill:#aaf66f"/><path d="M57,19v5a1,1,0,0,1-1,1H54a1,1,0,0,1-1-1V19L46,1h2Z" style="fill:#aaf66f"/><path d="M41,34.67a15.3,15.3,0,0,0-3.97,1.57A9.81,9.81,0,0,0,32,45a9.81,9.81,0,0,0-5.03-8.76A15.3,15.3,0,0,0,23,34.67,24.994,24.994,0,0,0,17,34s-1,2-1,7q0,.495.03.99a12.1,12.1,0,0,0,2.02,5.98,2.4,2.4,0,0,0,.19.29,12.348,12.348,0,0,0,4.34,3.33A21.863,21.863,0,0,0,32,54a21.863,21.863,0,0,0,9.42-2.41,12.348,12.348,0,0,0,4.34-3.33,2.4,2.4,0,0,0,.19-.29,12.1,12.1,0,0,0,2.02-5.98q.03-.5.03-.99c0-5-1-7-1-7A24.994,24.994,0,0,0,41,34.67ZM20,1,14.11,17.68a2.124,2.124,0,0,0-.11.66V24a2.006,2.006,0,0,0,2,2H48a2.006,2.006,0,0,0,2-2V18.34a2.124,2.124,0,0,0-.11-.66L44,1h2l7,18v5a1,1,0,0,0,1,1h2a1,1,0,0,0,1-1V19L48,1h2l8.9,15.12A8.033,8.033,0,0,1,60,20.18V55a8,8,0,0,1-8,8H12a8,8,0,0,1-8-8V20.18a8.033,8.033,0,0,1,1.1-4.06L14,1h2L7,19v5a1,1,0,0,0,1,1h2a1,1,0,0,0,1-1V19L18,1Z" style="fill:#c6ff79"/><path d="M25.89,43.07l-7.84,4.9a12.1,12.1,0,0,1-2.02-5.98l6.5-2.79C23.82,40.56,24.93,41.85,25.89,43.07Z" style="fill:#4edfa6"/><path d="M28.79,47.15A24.677,24.677,0,0,1,32,54a21.863,21.863,0,0,1-9.42-2.41Z" style="fill:#4edfa6"/><path d="M35.21,47.15l6.21,4.44A21.863,21.863,0,0,1,32,54,24.677,24.677,0,0,1,35.21,47.15Z" style="fill:#4edfa6"/><path d="M41.47,39.2l6.5,2.79a12.1,12.1,0,0,1-2.02,5.98l-7.84-4.9C39.07,41.85,40.18,40.56,41.47,39.2Z" style="fill:#4edfa6"/><path d="M17,34a68.084,68.084,0,0,1,5.53,5.2l-6.5,2.79Q16,41.495,16,41C16,36,17,34,17,34Z" style="fill:#85ee89"/><path d="M28.79,47.15l-6.21,4.44a12.348,12.348,0,0,1-4.34-3.33,2.4,2.4,0,0,1-.19-.29l7.84-4.9A45.933,45.933,0,0,1,28.79,47.15Z" style="fill:#85ee89"/><path d="M45.95,47.97a2.4,2.4,0,0,1-.19.29,12.348,12.348,0,0,1-4.34,3.33l-6.21-4.44a45.933,45.933,0,0,1,2.9-4.08Z" style="fill:#85ee89"/><path d="M48,41q0,.495-.03.99l-6.5-2.79A68.084,68.084,0,0,1,47,34S48,36,48,41Z" style="fill:#85ee89"/><path d="M35.21,47.15A24.677,24.677,0,0,0,32,54V45a10.057,10.057,0,0,1,1.09-4.69L35,47Z" style="fill:#85ee89"/><path d="M41,39l.47.2c-1.29,1.36-2.4,2.65-3.36,3.87L38,43l-.97-6.76A15.3,15.3,0,0,1,41,34.67Z" style="fill:#85ee89"/><path d="M30.91,40.31,29,47l-.21.15a45.933,45.933,0,0,0-2.9-4.08L26,43l.97-6.76A9.966,9.966,0,0,1,30.91,40.31Z" style="fill:#aaf66f"/><path d="M26.97,36.24,26,43l-.11.07c-.96-1.22-2.07-2.51-3.36-3.87L23,39V34.67A15.3,15.3,0,0,1,26.97,36.24Z" style="fill:#85ee89"/><path d="M32,45v9a24.677,24.677,0,0,0-3.21-6.85L29,47l1.91-6.69A10.057,10.057,0,0,1,32,45Z" style="fill:#85ee89"/><path d="M23,34.67V39l-.47.2A68.084,68.084,0,0,0,17,34,24.994,24.994,0,0,1,23,34.67Z" style="fill:#aaf66f"/><path d="M38,43l.11.07a45.933,45.933,0,0,0-2.9,4.08L35,47l-1.91-6.69a9.966,9.966,0,0,1,3.94-4.07Z" style="fill:#aaf66f"/><path d="M47,34a68.084,68.084,0,0,0-5.53,5.2L41,39V34.67A24.994,24.994,0,0,1,47,34Z" style="fill:#aaf66f"/><path d="M18.334,41l-2.3.989a12.1,12.1,0,0,0,2.02,5.98l3.166-1.979A12.889,12.889,0,0,1,18.334,41Z" style="fill:#35c4ba"/><path d="M27,49c-.192-.048-.387-.1-.583-.153L22.58,51.59A21.863,21.863,0,0,0,32,54a21.824,21.824,0,0,0-2.226-5.182A4.017,4.017,0,0,1,27,49Z" style="fill:#35c4ba"/><path d="M37,49a4.017,4.017,0,0,1-2.774-.182A21.824,21.824,0,0,0,32,54a21.863,21.863,0,0,0,9.42-2.41l-3.837-2.743C37.387,48.9,37.192,48.952,37,49Z" style="fill:#35c4ba"/><path d="M42.784,45.991,45.95,47.97a12.1,12.1,0,0,0,2.02-5.98L45.666,41A12.889,12.889,0,0,1,42.784,45.991Z" style="fill:#35c4ba"/><path d="M17,34s-1,2-1,7q0,.495.03.99l2.3-.989A29.443,29.443,0,0,1,17,34Z" style="fill:#4edfa6"/><path d="M21.216,45.991,18.05,47.97a2.4,2.4,0,0,0,.19.29,12.348,12.348,0,0,0,4.34,3.33l3.837-2.743A10.91,10.91,0,0,1,21.216,45.991Z" style="fill:#4edfa6"/><path d="M37.583,48.847,41.42,51.59a12.348,12.348,0,0,0,4.34-3.33,2.4,2.4,0,0,0,.19-.29l-3.166-1.979A10.919,10.919,0,0,1,37.583,48.847Z" style="fill:#4edfa6"/><path d="M45.666,41l2.3.989q.03-.5.03-.99c0-5-1-7-1-7A29.443,29.443,0,0,1,45.666,41Z" style="fill:#4edfa6"/><path d="M32,46v8a21.824,21.824,0,0,1,2.226-5.182A4.657,4.657,0,0,1,32,46Z" style="fill:#4edfa6"/><path d="M29.774,48.818A21.824,21.824,0,0,1,32,54V46A4.657,4.657,0,0,1,29.774,48.818Z" style="fill:#1fd8b9"/><path d="M10,20H8a1,1,0,0,1-1-1v5a1,1,0,0,0,1,1h2a1,1,0,0,0,1-1V19A1,1,0,0,1,10,20Z" style="fill:#94f27a"/><path d="M56,20H54a1,1,0,0,1-1-1v5a1,1,0,0,0,1,1h2a1,1,0,0,0,1-1V19A1,1,0,0,1,56,20Z" style="fill:#94f27a"/><path d="M47.9,33.553A1,1,0,0,0,47,33a26.119,26.119,0,0,0-6.242.7,16.283,16.283,0,0,0-4.235,1.678,10.959,10.959,0,0,0-4.32,4.47c-.07.135-.139.273-.2.412-.063-.136-.13-.271-.2-.4a10.971,10.971,0,0,0-4.329-4.481A16.294,16.294,0,0,0,23.239,33.7,26.128,26.128,0,0,0,17,33a1,1,0,0,0-.895.553C16.061,33.643,15,35.823,15,41c0,.351.011.7.033,1.064a13.116,13.116,0,0,0,2.161,6.427,4.035,4.035,0,0,0,.24.36,13.134,13.134,0,0,0,4.691,3.629A22.891,22.891,0,0,0,32,55a22.885,22.885,0,0,0,9.871-2.518,13.133,13.133,0,0,0,4.741-3.7,2.781,2.781,0,0,0,.194-.3,13.113,13.113,0,0,0,2.162-6.438Q49,41.527,49,41C49,35.823,47.939,33.643,47.9,33.553Zm.075,8.437a12.1,12.1,0,0,1-2.02,5.98,2.4,2.4,0,0,1-.19.29,12.348,12.348,0,0,1-4.34,3.33A21.863,21.863,0,0,1,32,54a21.863,21.863,0,0,1-9.42-2.41,12.348,12.348,0,0,1-4.34-3.33,2.4,2.4,0,0,1-.19-.29,12.1,12.1,0,0,1-2.02-5.98Q16,41.495,16,41c0-5,1-7,1-7a24.994,24.994,0,0,1,6,.67,15.3,15.3,0,0,1,3.97,1.57A9.81,9.81,0,0,1,32,45a9.81,9.81,0,0,1,5.03-8.76A15.3,15.3,0,0,1,41,34.67,24.994,24.994,0,0,1,47,34s1,2,1,7Q48,41.5,47.97,41.99Z" style="fill:#f8fcff"/><path d="M47.978,41.718l-6.076-2.6a69,69,0,0,1,5.2-4.872C47.039,34.08,47,34,47,34c-.135,0-.26.009-.393.01a69.208,69.208,0,0,0-5.192,4.9l-.165-.071V34.617c-.081.019-.17.033-.25.053s-.165.049-.25.071V39a.252.252,0,0,0,.151.23l.15.064q-1.6,1.707-2.858,3.287l-.925-6.467c-.077.043-.162.082-.238.126s-.147.1-.226.153l.949,6.642c0,.024.027.036.036.057-1.024,1.311-1.882,2.539-2.6,3.664L33.266,40.02c-.055.1-.125.19-.176.29-.061.117-.1.241-.158.36l1.828,6.4a.257.257,0,0,0,.094.135l.037.026A29.455,29.455,0,0,0,32,53.134a29.455,29.455,0,0,0-2.891-5.9l.037-.026a.257.257,0,0,0,.094-.135l1.828-6.4c-.055-.119-.1-.243-.158-.36-.051-.1-.121-.191-.176-.29l-1.925,6.736c-.716-1.125-1.574-2.353-2.6-3.664.009-.021.033-.033.036-.057l.949-6.642c-.079-.049-.145-.105-.226-.153s-.161-.083-.238-.126l-.925,6.467q-1.263-1.575-2.858-3.287l.15-.064A.252.252,0,0,0,23.25,39V34.741c-.085-.022-.164-.05-.25-.071s-.169-.034-.25-.053v4.218l-.165.071a69.208,69.208,0,0,0-5.192-4.9c-.133,0-.258-.01-.393-.01,0,0-.039.08-.1.243a68.785,68.785,0,0,1,5.2,4.872l-6.075,2.6c0,.091,0,.181.008.272s.026.164.033.247a.229.229,0,0,0,.036-.007L22.462,39.5c1.148,1.219,2.16,2.392,3.05,3.507l-7.589,4.743c.046.07.079.148.127.217a1.552,1.552,0,0,0,.137.208l7.637-4.773c1.035,1.324,1.9,2.561,2.612,3.69L22.33,51.457c.084.044.165.09.25.133s.171.08.255.121L28.7,47.52a25.513,25.513,0,0,1,3.037,6.47c.086,0,.175.01.26.01s.174-.008.26-.01A25.383,25.383,0,0,1,35.3,47.518l5.87,4.193c.084-.041.172-.079.255-.121s.166-.089.25-.133l-6.108-4.363c.716-1.13,1.577-2.366,2.612-3.69l7.639,4.774a1.552,1.552,0,0,0,.137-.208c.048-.069.081-.147.127-.217l-7.59-4.744c.889-1.115,1.9-2.288,3.051-3.506L47.9,42.23a.229.229,0,0,0,.036.007c.007-.083.027-.164.033-.247S47.974,41.809,47.978,41.718Z" style="fill:#daffa8"/><path d="M52,58H34A25,25,0,0,1,9,33V25H8a1,1,0,0,1-1-1V19H6a1.992,1.992,0,0,1-1.7-.968A8.038,8.038,0,0,0,4,20.18V55a8,8,0,0,0,8,8H52a8,8,0,0,0,8-8V50A8,8,0,0,1,52,58Z" style="fill:#aaf66f"/><path d="M18,1,15,8.714,11,19h2a1.987,1.987,0,0,0,1-.277V18.34a2.124,2.124,0,0,1,.11-.66L15,15.16,20,1Z" style="fill:#daffa8"/><path d="M46,1H44l5,14.16.89,2.52a2.124,2.124,0,0,1,.11.66v.383A1.987,1.987,0,0,0,51,19h2L49,8.714Z" style="fill:#daffa8"/><path d="M58.9,16.12,50,1H48l9,18h1a1.992,1.992,0,0,0,1.7-.968A8.042,8.042,0,0,0,58.9,16.12Z" style="fill:#daffa8"/><path d="M14,1,9,9.494,5.1,16.12a8.042,8.042,0,0,0-.8,1.912A1.992,1.992,0,0,0,6,19H7l2-4L16,1Z" style="fill:#daffa8"/><path d="M52.128,36.481a6.9,6.9,0,0,0,.456,3.726,17.772,17.772,0,0,1,.648,4.589,10.124,10.124,0,0,0,.182,2.562,2.484,2.484,0,0,0,1.063,1.519,1.588,1.588,0,0,0,1.668-.374,5,5,0,0,0,.98-1.1,11.48,11.48,0,0,0,.516-7.249c-.519-2.007-1.991-5.448-4.315-5.137C52.688,35.1,52.316,35.846,52.128,36.481Z" style="fill:#fff"/><path d="M49.041,55.142c.318,1.341,2.122.825,3.021.354A6.348,6.348,0,0,0,54.5,53.029a3.19,3.19,0,0,0,.5-1.477,1.494,1.494,0,0,0-.779-1.485,2.887,2.887,0,0,0-2.1.514,7.549,7.549,0,0,0-1.609,1.394,6.208,6.208,0,0,0-1.344,1.984A2.074,2.074,0,0,0,49.041,55.142Z" style="fill:#fff"/><rect x="17" y="24" width="30" height="2" rx="1" ry="1" style="fill:#1fd8b9"/></g></svg>