<svg xmlns="http://www.w3.org/2000/svg" viewBox="0 0 64 64"><g id="_11-nuclear" data-name="11-nuclear"><path d="M63,63H45s-6-18-7-27c-.3-2.67-.51-5.44-.66-8H55.05c.09,3.08.33,8.05.95,12.7C57,48.13,63,63,63,63Z" style="fill:#d8d4c9"/><path d="M55.05,28H37.34c-.05-1.04-.1-2.05-.14-3H55S55,26.16,55.05,28Z" style="fill:#4edfa6"/><path d="M37.34,28c.15,2.56.36,5.33.66,8,1,9,7,27,7,27H1S8,45,9,36c.66-5.96.89-12.36.96-16H37.04c.03,1.35.07,3.07.16,5C37.24,25.95,37.29,26.96,37.34,28Z" style="fill:#e8e4d8"/><path d="M37,17s0,1.14.04,3H9.96c.04-1.86.04-3,.04-3H37Z" style="fill:#94f27a"/><path d="M22,9v2.8a4.263,4.263,0,0,1-1.12,2.9C19.79,15.9,16.6,17,14,17,14,17,15.5,13.4,22,9Z" style="fill:#4edfa6"/><path d="M22,9c-6.5,4.4-8,8-8,8V13.4C14,10.97,16.82,9,22,9Z" style="fill:#85ee89"/><path d="M51,14v2.8a4.263,4.263,0,0,1-1.12,2.9C48.79,20.9,45.6,22,43,22,43,22,44.5,18.4,51,14Z" style="fill:#85ee89"/><path d="M51,14c-6.5,4.4-8,8-8,8V18.4C43,15.97,45.82,14,51,14Z" style="fill:#aaf66f"/><path d="M35,1V5.2a7.205,7.205,0,0,1-1.4,4.36C32.24,11.34,28.25,13,25,13,25,13,26.88,7.6,35,1Z" style="fill:#85ee89"/><path d="M35,1C26.88,7.6,25,13,25,13V7.6C25,3.95,28.53,1,35,1Z" style="fill:#aaf66f"/><path d="M58.359,56.319c-7.626-1.86-10.342-7.574-13.059-12.687C43.018,39.337,42.314,32.073,42.1,28H37.34c.15,2.56.36,5.33.66,8,1,9,7,27,7,27H63s-1.136-2.815-2.5-6.607A5.283,5.283,0,0,1,58.359,56.319Z" style="fill:#b5b1a4"/><path d="M42,25H37.2c.04.95.09,1.96.14,3H42.1C42,26.184,42,25,42,25Z" style="fill:#18ae88"/><path d="M24.69,56a9.99,9.99,0,0,1-9.943-11.064c.881-8,1.462-17.649,1.813-24.936H9.96c-.07,3.64-.3,10.04-.96,16C8,45,1,63,1,63H45s-.974-2.923-2.2-7Z" style="fill:#d8d4c9"/><path d="M16.56,20q.077-1.584.138-3H10s0,1.14-.04,3h6.6Z" style="fill:#4edfa6"/><path d="M36,47a2,2,0,0,1-1.959-1.607,144.08,144.08,0,0,1-1.777-15.254,2,2,0,1,1,3.99-.277,139.646,139.646,0,0,0,1.709,14.745,2,2,0,0,1-1.568,2.354A2.058,2.058,0,0,1,36,47Z" style="fill:#f2eee0"/><path d="M34.011,27a2,2,0,0,1-2-1.956C32,24.674,32,24.325,32,24a2,2,0,0,1,4,0c0,.3,0,.617.011.956A2,2,0,0,1,34.056,27Z" style="fill:#f2eee0"/><path d="M54,47a2,2,0,0,1-1.938-1.515A73.933,73.933,0,0,1,50.8,37.226a2,2,0,1,1,3.974-.452,67.937,67.937,0,0,0,1.163,7.741A2,2,0,0,1,54,47Z" style="fill:#e8e4d8"/><path d="M52.27,34a2,2,0,0,1-1.99-1.81l-.093-1.006a2,2,0,1,1,3.982-.368l.094.994a2,2,0,0,1-1.8,2.181Q52.364,34,52.27,34Z" style="fill:#e8e4d8"/><path d="M28.03,8.007A20.344,20.344,0,0,0,25,13c3.25,0,7.24-1.66,8.6-3.44a6.927,6.927,0,0,0,1.258-2.949C33.213,7.425,30.141,8.69,28.03,8.007Z" style="fill:#4edfa6"/><path d="M28,8c-1.76-.586-1.453-2.889-.9-4.7A5.518,5.518,0,0,0,25,7.6V13a20.344,20.344,0,0,1,3.03-4.993Z" style="fill:#85ee89"/><path d="M44.912,19.24A11.948,11.948,0,0,0,43,22a12.4,12.4,0,0,0,6.179-1.73C46.9,20.476,45.6,20.005,44.912,19.24Z" style="fill:#4edfa6"/><path d="M44.386,15.76A3.377,3.377,0,0,0,43,18.4V22a11.948,11.948,0,0,1,1.912-2.76A3.855,3.855,0,0,1,44.386,15.76Z" style="fill:#85ee89"/><path d="M15.912,14.24A11.948,11.948,0,0,0,14,17a12.4,12.4,0,0,0,6.179-1.73C17.9,15.476,16.6,15.005,15.912,14.24Z" style="fill:#37cdc2"/><path d="M15.386,10.76A3.377,3.377,0,0,0,14,13.4V17a11.948,11.948,0,0,1,1.912-2.76A3.855,3.855,0,0,1,15.386,10.76Z" style="fill:#4edfa6"/><ellipse cx="37.684" cy="50.695" rx="1.642" ry="2.286" transform="translate(-24.812 41.516) rotate(-45.02)" style="fill:#f6fafd"/><ellipse cx="33.682" cy="48.708" rx="0.825" ry="1.148" transform="translate(-24.58 38.103) rotate(-45.02)" style="fill:#f6fafd"/></g></svg>