<svg xmlns="http://www.w3.org/2000/svg" viewBox="0 0 64 64"><g id="_26-paper_reuse" data-name="26-paper reuse"><path d="M16,1V9H8Z" style="fill:#fffbed"/><polygon points="50 7 50 57 14 57 8 57 8 9 16 9 16 1 50 1 50 7" style="fill:#fffbed"/><polygon points="56 7 56 63 14 63 14 57 50 57 50 7 56 7" style="fill:#85ee89"/><polygon points="53 7 50 7 50 57 14 57 14 60 53 60 53 7" style="fill:#27cc83"/><path d="M48,51A32,32,0,0,1,16,19V11h2V2H16V9H8V57H50V51Z" style="fill:#e8e4d8"/><path d="M19.382,29.923a1,1,0,0,0,.326-.217l3-3a1,1,0,0,0-1.414-1.414l-.8.8A9,9,0,0,1,37.254,25.4a1,1,0,1,0,1.831-.8,11,11,0,0,0-20.864,2.209l-1.514-1.514a1,1,0,0,0-1.414,1.414l3,3a1,1,0,0,0,1.09.217Z" style="fill:#29b479"/><path d="M42.707,31.293l-3-3a1,1,0,0,0-1.416,0l-3,3a1,1,0,0,0,1.414,1.414l.8-.8a8.994,8.994,0,0,1-16.61,1.02,1,1,0,0,0-1.8.873,11,11,0,0,0,20.679-2.6l1.514,1.514a1,1,0,0,0,1.414-1.414Z" style="fill:#29b479"/></g></svg>