<svg xmlns="http://www.w3.org/2000/svg" viewBox="0 0 64 64"><g id="_17-electric_car" data-name="17-electric car"><circle cx="9" cy="57" r="2" style="fill:#595751"/><circle cx="53" cy="57" r="2" style="fill:#595751"/><path d="M9,51a6,6,0,0,1,6,6,5.361,5.361,0,0,1-.09.99,5.991,5.991,0,0,1-11.82,0A5.361,5.361,0,0,1,3,57,6,6,0,0,1,9,51Zm2,6a2,2,0,1,0-2,2A2.006,2.006,0,0,0,11,57Z" style="fill:#75726a"/><path d="M53,51a6,6,0,0,1,6,6,5.361,5.361,0,0,1-.09.99,5.991,5.991,0,0,1-11.82,0A5.361,5.361,0,0,1,47,57,6,6,0,0,1,53,51Zm2,6a2,2,0,1,0-2,2A2.006,2.006,0,0,0,55,57Z" style="fill:#75726a"/><path d="M45,56a8,8,0,0,1,16,0v2H59l-.09-.01A5.361,5.361,0,0,0,59,57a6,6,0,0,0-12,0,5.361,5.361,0,0,0,.09.99L47,58H45V56Z" style="fill:#b5b1a4"/><path d="M17,56v2H15l-.09-.01A5.361,5.361,0,0,0,15,57,6,6,0,0,0,3,57a5.361,5.361,0,0,0,.09.99L3,58H1V56a8,8,0,0,1,16,0Z" style="fill:#b5b1a4"/><path d="M61,41H57V39l3.61-2.7A28.171,28.171,0,0,1,61,41Z" style="fill:#ff942c"/><path d="M36,26v9L16,38S18,27,36,26Z" style="fill:#89f2ff"/><path d="M54,35H36V26H47S54,28,54,35Z" style="fill:#89f2ff"/><path d="M4,44S14.98,23,36,23H58l-2,3s3.43,3.43,4.61,10.3L57,39v2h4V56a8,8,0,0,0-16,0v1H17V56A8,8,0,0,0,1,56V49.43a5.98,5.98,0,0,1,3.1-5.27Zm30-6-6,7h3l-2,7,7-10-3,1ZM16,38l20-3H54c0-7-7-9-7-9H36C18,27,16,38,16,38Z" style="fill:#aaf66f"/><polygon points="36 42 29 52 31 45 28 45 34 38 33 43 36 42" style="fill:#ffdf64"/><path d="M17,56v1H45V56a7.992,7.992,0,0,1,.262-2H16.738A7.992,7.992,0,0,1,17,56Z" style="fill:#79e78e"/><path d="M10,43a15.758,15.758,0,0,0-5.04.79,6.02,6.02,0,0,0-.86.37A5.98,5.98,0,0,0,1,49.43V56a8,8,0,0,1,16,0v1h5S24,43,10,43Z" style="fill:#61db58"/><path d="M51,44A10,10,0,0,0,41,54v3h4V56a8,8,0,0,1,16,0V54A10,10,0,0,0,51,44Z" style="fill:#61db58"/><path d="M18,52s-1-6-9-6c-4.613,0-6.892,1.993-8,3.682V56a8,8,0,0,1,16,0v1h5a16.674,16.674,0,0,0-.367-5.725A2.667,2.667,0,0,1,18,52Z" style="fill:#28be77"/><path d="M52,46c-6,0-7,4-8,6-.6,1.2-1.926.957-2.886.571A10.054,10.054,0,0,0,41,54v3h4V56a8,8,0,0,1,16,0V54a9.938,9.938,0,0,0-.954-4.242A10.75,10.75,0,0,0,52,46Z" style="fill:#28be77"/><path d="M47,26s5.216,1.5,6.638,6.42A10.536,10.536,0,0,0,56,26Z" style="fill:#c6ff79"/><path d="M29.389,43.379,34,38l-.956,4.779q.84-.164,1.66-.347L36,42l-.109.156C42.3,40.579,47.621,38.078,51.18,35H36L16,38s2-11,20-12H34.5a1.5,1.5,0,0,1-.393-2.941C14.321,24.262,4,44,4,44H20A70.478,70.478,0,0,0,29.389,43.379Z" style="fill:#c6ff79"/><path d="M22.048,30.048l6.126,6.126L36,35l-7.751-7.751A22.035,22.035,0,0,0,22.048,30.048Z" style="fill:#89f2ff"/><path d="M16,38l12.174-1.826-6.126-6.126C16.818,33.545,16,38,16,38Z" style="fill:#6bdfed"/><path d="M28.249,27.249,36,35V26A34.8,34.8,0,0,0,28.249,27.249Z" style="fill:#abf5ff"/><path d="M47,26H45l9,9C54,28,47,26,47,26Z" style="fill:#abf5ff"/><polygon points="45 26 36 26 45 35 54 35 45 26" style="fill:#89f2ff"/><polygon points="36 35 45 35 36 26 36 35" style="fill:#6bdfed"/><path d="M40,23H36c-.641,0-1.271.021-1.893.059A1.5,1.5,0,0,0,34.5,26H56l2-3Z" style="fill:#bdf474"/><polygon points="24.737 1 26.632 1 28.526 2 28.526 12 26.632 13 24.737 13 24.737 10 24.737 4 24.737 1" style="fill:#ffdf64"/><path d="M34.646,10a3.887,3.887,0,0,1-1.478,1.52,3.654,3.654,0,0,1-1.8.48H28.526V2h2.842a3.739,3.739,0,0,1,3.278,2,4.162,4.162,0,0,1,.512,2V8A4.162,4.162,0,0,1,34.646,10Z" style="fill:#ffb844"/><path d="M34.646,4H36.1A1.956,1.956,0,0,1,38,6V8a1.956,1.956,0,0,1-1.9,2H34.646a4.162,4.162,0,0,0,.512-2V6A4.162,4.162,0,0,0,34.646,4Z" style="fill:#29b479"/><path d="M34.646,4a4.162,4.162,0,0,1,.512,2V8a4.162,4.162,0,0,1-.512,2H36.1a1.8,1.8,0,0,0,.948-.279A2.019,2.019,0,0,1,36.1,8V6a2.019,2.019,0,0,1,.948-1.721A1.8,1.8,0,0,0,36.1,4Z" style="fill:#129c78"/><polygon points="28.526 12 28.526 2 26.632 1 26.632 13 28.526 12" style="fill:#ffb844"/><path d="M32.316,10a1.949,1.949,0,0,1-1.9-2V2H28.526V12h2.842a3.654,3.654,0,0,0,1.8-.48A3.887,3.887,0,0,0,34.646,10a4.162,4.162,0,0,0,.512-2V7A2.925,2.925,0,0,1,32.316,10Z" style="fill:#fea740"/><rect x="20.684" y="6.053" width="10" height="1.895" rx="0.947" ry="0.947" transform="translate(18.684 32.684) rotate(-90)" style="fill:#fffcbd"/><rect x="20" y="3" width="4.737" height="2" style="fill:#85ee89"/><rect x="20" y="9" width="4.737" height="2" style="fill:#85ee89"/><polygon points="20 4 23.789 4 23.789 3 24.737 3 24.737 5 20 5 20 4" style="fill:#18ae88"/><polygon points="20 10 23.789 10 23.789 9 24.737 9 24.737 11 20 11 20 10" style="fill:#18ae88"/><path d="M63,49H61V47h1V17a9.01,9.01,0,0,0-9-9H38V6H53A11.013,11.013,0,0,1,64,17V48A1,1,0,0,1,63,49Z" style="fill:#61db58"/><path d="M16,56a6,6,0,0,0-6-6H8a6,6,0,0,0-6,6H1v2H3l.09-.01A5.361,5.361,0,0,1,3,57a6,6,0,0,1,12,0,5.361,5.361,0,0,1-.09.99L15,58h2V56Z" style="fill:#8f8b81"/><path d="M60,56a6,6,0,0,0-6-6H52a6,6,0,0,0-6,6H45v2h2l.09-.01A5.361,5.361,0,0,1,47,57a6,6,0,0,1,12,0,5.361,5.361,0,0,1-.09.99L59,58h2V56Z" style="fill:#8f8b81"/><path d="M36.8,41.4a1,1,0,0,0-1.118-.35l-1.366.455L34.98,38.2a1,1,0,0,0-1.739-.846l-6,7A1,1,0,0,0,28,46h1.674l-1.636,5.726A1,1,0,0,0,28.57,52.9.978.978,0,0,0,29,53a1,1,0,0,0,.82-.427l7-10A1,1,0,0,0,36.8,41.4ZM29,52l2-7H28l6-7-1,5,3-1Z" style="fill:#fff"/><path d="M47.274,25.038A1.007,1.007,0,0,0,47,25H36c-.01,0-.019.006-.029.006a.251.251,0,0,0-.027,0C17.371,26.033,15.1,37.34,15.017,37.821A1,1,0,0,0,16,39a1.053,1.053,0,0,0,.148-.011L36.077,36H54a1,1,0,0,0,1-1C55,27.334,47.352,25.061,47.274,25.038ZM16,38s1.936-10.578,19-11.925l.5-.038v9.038l-.471.071Zm21-3h-.5V26H47s7,2,7,9Z" style="fill:#8f8b81"/><ellipse cx="47.684" cy="29.695" rx="1.642" ry="2.286" transform="translate(-7.026 42.434) rotate(-45.02)" style="fill:#f6fafd"/><ellipse cx="44.682" cy="32.708" rx="0.825" ry="1.148" transform="translate(-10.038 41.193) rotate(-45.02)" style="fill:#f6fafd"/><path d="M53,54a3,3,0,1,0,3,3A3,3,0,0,0,53,54Zm0,5a2,2,0,1,1,2-2A2.006,2.006,0,0,1,53,59Z" style="fill:#63615a"/><path d="M9,54a3,3,0,1,0,3,3A3,3,0,0,0,9,54Zm0,5a2,2,0,1,1,2-2A2.006,2.006,0,0,1,9,59Z" style="fill:#63615a"/></g></svg>