<svg xmlns="http://www.w3.org/2000/svg" viewBox="0 0 64 64"><g id="_03-eco_earth" data-name="03-eco earth"><path d="M30.9,20.12a6.053,6.053,0,0,0-4.52.76,3.555,3.555,0,0,0-1.33,1.95,2.129,2.129,0,0,0,.72,2.09,4.988,4.988,0,0,0,1.26.72,2.885,2.885,0,0,0,1.75.32,1.8,1.8,0,0,0,.91-.55c.23-.24.4-.51.61-.77a22.585,22.585,0,0,1,2.17-1.93,1.554,1.554,0,0,0,.52-.73,1.124,1.124,0,0,0-.24-.81,2.135,2.135,0,0,0-.71-.69A3.244,3.244,0,0,0,30.9,20.12ZM39.46,20a2.014,2.014,0,0,0-2.08,1.94,2.58,2.58,0,0,0,.38,1.44A1.425,1.425,0,0,0,39,24h.5a1.5,1.5,0,0,1,0,3H37a2.006,2.006,0,0,0-2,2v.38A1.613,1.613,0,0,0,36.62,31a1.5,1.5,0,0,0,.62-.13,6.84,6.84,0,0,1,1.78-.45,2.237,2.237,0,0,1,.63.05c.86.15.7.4,1.49.74a14.5,14.5,0,0,0,1.86.53,1.324,1.324,0,0,1,1,1.28,3.138,3.138,0,0,1-.28,1.16A1.359,1.359,0,0,1,43,35H42c-.96-.21-1.93-1.28-2.88-1.53-1.92-.51-3.93.74-5.05,2.32a5.218,5.218,0,0,0-1.06,3.31,3.212,3.212,0,0,0,2,2.75c1.29.46,2.87-.01,4.03.69a3.789,3.789,0,0,1,1.28,1.6,6.028,6.028,0,0,1,.78,2.37c.08,1.3-.72,3.19-1.24,4.91A2.055,2.055,0,0,0,41.95,54a2.123,2.123,0,0,0,1.32-.42c1.63-1.22,2.27-3.75,3.45-5.4.92-1.29,2.13-2.38,2.97-3.72a4.3,4.3,0,0,0,.42-4.43,10.626,10.626,0,0,0-1.69-1.53A1.4,1.4,0,0,1,48,37.47,1.472,1.472,0,0,1,49.47,36h.14a1.421,1.421,0,0,1,.73.19c1.66.96,2.71,2.32,4.63,2.8.02.33.03.67.03,1.01A23,23,0,0,1,9,40c0-.29.01-.57.02-.85a9.683,9.683,0,0,0,2.3,2.02,10.146,10.146,0,0,0,1.74,1.09c1.09.49,2.33.6,3.44,1.04a1.261,1.261,0,0,1,.72.55,1.48,1.48,0,0,1,.15,1.14c-.1.3-1.37.7-1.37,1.01,0,1-.01,1.03,0,2,0,.61,1.44,1.05,1.9,1.47.52.48,1.04.95,1.56,1.43.4.37.88.55,1.28.9a9.989,9.989,0,0,1,2.04,2.86,9.9,9.9,0,0,0,1.57,2.25,10.041,10.041,0,0,0,.9.8,1.533,1.533,0,0,0,.93.29,1.775,1.775,0,0,0,1.24-.69A2.172,2.172,0,0,0,28,56V53a9.124,9.124,0,0,0,1.05-1.19c.41-.49.38-1.16.65-1.72.36-.77,1.3-.97,1.3-2.01a1.7,1.7,0,0,0-1.2-1.7c-.65-.32-1.39-.47-2.08-.73a14.335,14.335,0,0,1-2.42-1.28,61.394,61.394,0,0,0-5.44-2.9,13.049,13.049,0,0,1-3.04-2.04A2.466,2.466,0,0,0,16,39V37a2.378,2.378,0,0,0,.91-.87,11.465,11.465,0,0,0,.71-1.1,19.048,19.048,0,0,1,2.11-2.3,4.337,4.337,0,0,1,2.74-.87c.47-.04,1.03-.06,1.57-.13C25.02,31.61,26,30.96,26,30V29c-.07-.87-.54-1.1-1.24-1.73a3.727,3.727,0,0,0-1.55-.93,5,5,0,0,0-2.62.45,14.962,14.962,0,0,1-2.19.56c-.63.1-.97-.51-1-1.05a1.173,1.173,0,0,1,.52-1.08,4.791,4.791,0,0,1,1.38-.61L21,24V23c0-.32-.77-.76-1-1H18l-.12-.15a22.989,22.989,0,0,1,25.21-2L43,20ZM25.88,39.52a2.1,2.1,0,0,0-.13-1.66,3.979,3.979,0,0,0-1.55-1.68c-.69-.45-1.38.01-1.83.56a1.156,1.156,0,0,0-.36.87,1.242,1.242,0,0,0,.28.59,6.112,6.112,0,0,0,.69.85,3.8,3.8,0,0,0,1.84.9.992.992,0,0,0,.74-.04A.686.686,0,0,0,25.88,39.52Z" style="fill:#01cadb"/><path d="M32.04,20.48a2.135,2.135,0,0,1,.71.69,1.124,1.124,0,0,1,.24.81,1.554,1.554,0,0,1-.52.73,22.585,22.585,0,0,0-2.17,1.93c-.21.26-.38.53-.61.77a1.8,1.8,0,0,1-.91.55,2.885,2.885,0,0,1-1.75-.32,4.988,4.988,0,0,1-1.26-.72,2.129,2.129,0,0,1-.72-2.09,3.555,3.555,0,0,1,1.33-1.95,6.053,6.053,0,0,1,4.52-.76A3.244,3.244,0,0,1,32.04,20.48Z" style="fill:#85ee89"/><path d="M18,22h2c.23.24,1,.68,1,1v1l-1.7.61a4.791,4.791,0,0,0-1.38.61,1.173,1.173,0,0,0-.52,1.08c.03.54.37,1.15,1,1.05a14.962,14.962,0,0,0,2.19-.56,5,5,0,0,1,2.62-.45,3.727,3.727,0,0,1,1.55.93c.7.63,1.17.86,1.24,1.73v1c0,.96-.98,1.61-1.96,1.73-.54.07-1.1.09-1.57.13a4.337,4.337,0,0,0-2.74.87,19.048,19.048,0,0,0-2.11,2.3,11.465,11.465,0,0,1-.71,1.1A2.378,2.378,0,0,1,16,37v2a2.466,2.466,0,0,1,.82.43,13.049,13.049,0,0,0,3.04,2.04,61.394,61.394,0,0,1,5.44,2.9,14.335,14.335,0,0,0,2.42,1.28c.69.26,1.43.41,2.08.73a1.7,1.7,0,0,1,1.2,1.7c0,1.04-.94,1.24-1.3,2.01-.27.56-.24,1.23-.65,1.72A9.124,9.124,0,0,1,28,53v3a2.172,2.172,0,0,1-.58,1.31,1.775,1.775,0,0,1-1.24.69,1.533,1.533,0,0,1-.93-.29,10.041,10.041,0,0,1-.9-.8,9.9,9.9,0,0,1-1.57-2.25,9.989,9.989,0,0,0-2.04-2.86c-.4-.35-.88-.53-1.28-.9-.52-.48-1.04-.95-1.56-1.43-.46-.42-1.9-.86-1.9-1.47-.01-.97,0-1,0-2,0-.31,1.27-.71,1.37-1.01a1.48,1.48,0,0,0-.15-1.14,1.261,1.261,0,0,0-.72-.55c-1.11-.44-2.35-.55-3.44-1.04a10.146,10.146,0,0,1-1.74-1.09,9.683,9.683,0,0,1-2.3-2.02,22.906,22.906,0,0,1,8.86-17.3Z" style="fill:#85ee89"/><path d="M25.75,37.86a2.1,2.1,0,0,1,.13,1.66.686.686,0,0,1-.32.39.992.992,0,0,1-.74.04,3.8,3.8,0,0,1-1.84-.9,6.112,6.112,0,0,1-.69-.85,1.242,1.242,0,0,1-.28-.59,1.156,1.156,0,0,1,.36-.87c.45-.55,1.14-1.01,1.83-.56A3.979,3.979,0,0,1,25.75,37.86Z" style="fill:#85ee89"/><path d="M54.97,38.99c-1.92-.48-2.97-1.84-4.63-2.8a1.421,1.421,0,0,0-.73-.19h-.14A1.472,1.472,0,0,0,48,37.47a1.4,1.4,0,0,0,.42,1.03,10.626,10.626,0,0,1,1.69,1.53,4.3,4.3,0,0,1-.42,4.43c-.84,1.34-2.05,2.43-2.97,3.72-1.18,1.65-1.82,4.18-3.45,5.4a2.123,2.123,0,0,1-1.32.42,2.055,2.055,0,0,1-2.09-2.58c.52-1.72,1.32-3.61,1.24-4.91a6.028,6.028,0,0,0-.78-2.37,3.789,3.789,0,0,0-1.28-1.6c-1.16-.7-2.74-.23-4.03-.69a3.212,3.212,0,0,1-2-2.75,5.218,5.218,0,0,1,1.06-3.31c1.12-1.58,3.13-2.83,5.05-2.32.95.25,1.92,1.32,2.88,1.53h1a1.359,1.359,0,0,0,.72-.82A3.138,3.138,0,0,0,44,33.02a1.324,1.324,0,0,0-1-1.28,14.5,14.5,0,0,1-1.86-.53c-.79-.34-.63-.59-1.49-.74a2.237,2.237,0,0,0-.63-.05,6.84,6.84,0,0,0-1.78.45,1.5,1.5,0,0,1-.62.13A1.613,1.613,0,0,1,35,29.38V29a2.006,2.006,0,0,1,2-2h2.5a1.5,1.5,0,0,0,0-3H39a1.425,1.425,0,0,1-1.24-.62,2.58,2.58,0,0,1-.38-1.44A2.014,2.014,0,0,1,39.46,20H43l.09-.15A22.979,22.979,0,0,1,54.97,38.99Z" style="fill:#85ee89"/><path d="M33,13a21.816,21.816,0,0,1-6.99.99L29,10l-.01-.06A25.054,25.054,0,0,1,33,13Z" style="fill:#4edfa6"/><path d="M23.98,7.91,24,8l-2.78,5.57a9.445,9.445,0,0,1-4.01-1.92l2.66-4.43A27.433,27.433,0,0,1,23.98,7.91Z" style="fill:#4edfa6"/><path d="M28.99,9.94,29,10l-2.99,3.99H26c-.32.01-.65.01-1,.01a15.592,15.592,0,0,1-3.78-.43L24,8l-.02-.09A18.472,18.472,0,0,1,28.99,9.94Z" style="fill:#85ee89"/><path d="M19.87,7.22l-2.66,4.43A6.032,6.032,0,0,1,15,7,47.585,47.585,0,0,1,19.87,7.22Z" style="fill:#85ee89"/><path d="M28.07,5.37A8.911,8.911,0,0,1,33,13a25.054,25.054,0,0,0-4.01-3.06Z" style="fill:#85ee89"/><path d="M23,4.01l.98,3.9a27.433,27.433,0,0,0-4.11-.69L20,7,18.41,4.61A12.913,12.913,0,0,1,22.62,4C22.75,4,22.88,4,23,4.01Z" style="fill:#85ee89"/><path d="M28.07,5.37l.92,4.57a18.472,18.472,0,0,0-5.01-2.03L23,4.01A11.31,11.31,0,0,1,28.07,5.37Z" style="fill:#aaf66f"/><path d="M15,7a6.8,6.8,0,0,1,3.41-2.39L20,7l-.13.22A47.585,47.585,0,0,0,15,7Z" style="fill:#aaf66f"/><path d="M48,14l.07.32A26.744,26.744,0,0,1,42,15c-7.75,0-8.93-1.88-9-1.99V13a18.771,18.771,0,0,1,6.12-4.92Z" style="fill:#4edfa6"/><path d="M54,12v.01a20.9,20.9,0,0,1-5.93,2.31L48,14,39.12,8.08a24.553,24.553,0,0,1,6-2Z" style="fill:#85ee89"/><path d="M59,5a6.5,6.5,0,0,1-1.34,3.81L51.42,5.24C53.68,5.08,56.19,5,59,5Z" style="fill:#85ee89"/><path d="M54,12,45.12,6.08a49,49,0,0,1,6.3-.84l6.24,3.57A12.074,12.074,0,0,1,54,12.01Z" style="fill:#4edfa6"/><path d="M40.48,2.59,39,8l.12.08A18.771,18.771,0,0,0,33,13C33,8.47,36.01,4.63,40.48,2.59Z" style="fill:#85ee89"/><path d="M52.78,1.44,51,5l.42.24a49,49,0,0,0-6.3.84L45,6l.98-4.89A19.231,19.231,0,0,1,48,1,23.442,23.442,0,0,1,52.78,1.44Z" style="fill:#85ee89"/><path d="M45.98,1.11,45,6l.12.08a24.553,24.553,0,0,0-6,2L39,8l1.48-5.41A17.441,17.441,0,0,1,45.98,1.11Z" style="fill:#aaf66f"/><path d="M59,5c-2.81,0-5.32.08-7.58.24L51,5l1.78-3.56A9.976,9.976,0,0,1,59,5Z" style="fill:#aaf66f"/><path d="M28.181,11.093l-2.171,2.9A21.816,21.816,0,0,0,33,13a28.544,28.544,0,0,0-2.77-2.247C29.523,10.9,28.839,11.016,28.181,11.093Z" style="fill:#35c4ba"/><path d="M18.483,9.53,17.21,11.65a9.445,9.445,0,0,0,4.01,1.92l1.325-2.656A15.553,15.553,0,0,1,18.483,9.53Z" style="fill:#35c4ba"/><path d="M22.545,10.914,21.22,13.57A15.592,15.592,0,0,0,25,14c.35,0,.68,0,1-.01h.01l2.171-2.9A18.2,18.2,0,0,1,22.545,10.914Z" style="fill:#4edfa6"/><path d="M15,7a6.032,6.032,0,0,0,2.21,4.65l1.273-2.12A12.089,12.089,0,0,1,15,7Z" style="fill:#4edfa6"/><path d="M30.23,10.753A28.544,28.544,0,0,1,33,13a7.688,7.688,0,0,0-.564-2.825Q31.3,10.528,30.23,10.753Z" style="fill:#4edfa6"/><path d="M43.924,11.283c-3.666.327-5.989-.476-7.457-1.55A19.639,19.639,0,0,0,33,13v.01c.07.11,1.25,1.99,9,1.99a26.744,26.744,0,0,0,6.07-.68L48,14Z" style="fill:#35c4ba"/><path d="M50.78,9.853A41.891,41.891,0,0,1,46,11c-.737.134-1.426.225-2.076.283L48,14l.07.32A20.9,20.9,0,0,0,54,12.01V12Z" style="fill:#4edfa6"/><path d="M55.812,7.753,57.66,8.81A6.5,6.5,0,0,0,59,5,8.114,8.114,0,0,1,55.812,7.753Z" style="fill:#4edfa6"/><path d="M50.78,9.853,54,12v.01a12.074,12.074,0,0,0,3.66-3.2L55.812,7.753A24.187,24.187,0,0,1,50.78,9.853Z" style="fill:#35c4ba"/><path d="M36.467,9.733A6.451,6.451,0,0,1,34.578,7.58,10.156,10.156,0,0,0,33,13,19.639,19.639,0,0,1,36.467,9.733Z" style="fill:#4edfa6"/><path d="M44.718,51.846A5.8,5.8,0,0,1,43.27,53.58a2.123,2.123,0,0,1-1.32.42,2.223,2.223,0,0,1-1.569-.639,23.033,23.033,0,0,1-12.317-.428c-.023.022-.04.046-.064.067v3a2.172,2.172,0,0,1-.58,1.31,1.775,1.775,0,0,1-1.24.69,1.533,1.533,0,0,1-.93-.29,10.041,10.041,0,0,1-.9-.8,9.9,9.9,0,0,1-1.57-2.25,9.989,9.989,0,0,0-2.04-2.86c-.4-.35-.88-.53-1.28-.9-.52-.48-1.04-.95-1.56-1.43-.46-.42-1.9-.86-1.9-1.47-.01-.97,0-1,0-2,0-.211.586-.464.993-.7a23.34,23.34,0,0,1-1.653-2.358,14.007,14.007,0,0,1-2.28-.683,10.146,10.146,0,0,1-1.74-1.09,9.683,9.683,0,0,1-2.3-2.02c-.01.28-.02.56-.02.85a23,23,0,0,0,45.847,2.618A23.078,23.078,0,0,1,44.718,51.846Z" style="fill:#01a2b0"/><path d="M16.993,45.3c-.407.235-.993.488-.993.7,0,1-.01,1.03,0,2,0,.61,1.44,1.05,1.9,1.47.52.48,1.04.95,1.56,1.43.4.37.88.55,1.28.9a9.989,9.989,0,0,1,2.04,2.86,9.9,9.9,0,0,0,1.57,2.25,10.041,10.041,0,0,0,.9.8,1.533,1.533,0,0,0,.93.29,1.775,1.775,0,0,0,1.24-.69A2.172,2.172,0,0,0,28,56V53c.024-.021.041-.045.064-.067A23.028,23.028,0,0,1,16.993,45.3Z" style="fill:#1fd8b9"/><path d="M11.32,41.17a10.146,10.146,0,0,0,1.74,1.09,14.007,14.007,0,0,0,2.28.683A22.893,22.893,0,0,1,12,31a23.269,23.269,0,0,1,.154-2.628A22.829,22.829,0,0,0,9.02,39.15,9.683,9.683,0,0,0,11.32,41.17Z" style="fill:#1fd8b9"/><path d="M41.95,54a2.123,2.123,0,0,0,1.32-.42,5.8,5.8,0,0,0,1.448-1.734,22.838,22.838,0,0,1-4.337,1.515A2.223,2.223,0,0,0,41.95,54Z" style="fill:#1fd8b9"/><path d="M19.3,24.61a4.791,4.791,0,0,0-1.38.61,1.4,1.4,0,0,0-.406.469,22.815,22.815,0,0,1,1.99-1.152Z" style="fill:#89f2ff"/><path d="M20,22c.23.24,1,.68,1,1v.829a22.864,22.864,0,0,1,4.153-1.313A3.789,3.789,0,0,1,26.38,20.88a6.053,6.053,0,0,1,4.52-.76,3.244,3.244,0,0,1,1.14.36,2.135,2.135,0,0,1,.71.69,1.124,1.124,0,0,1,.24.81.844.844,0,0,1-.081.21,22.76,22.76,0,0,1,4.833,1.15,2.611,2.611,0,0,1-.362-1.4A2.014,2.014,0,0,1,39.46,20H43l.09-.15a22.989,22.989,0,0,0-25.21,2L18,22Z" style="fill:#89f2ff"/><path d="M52.992,45.309a23.074,23.074,0,0,0,1.854-2.689A23.113,23.113,0,0,0,55,40c0-.34-.01-.68-.03-1.01a9.283,9.283,0,0,1-3.39-1.959A22.932,22.932,0,0,1,53,45C53,45.1,52.994,45.206,52.992,45.309Z" style="fill:#89f2ff"/><path d="M39.5,24h-.121c.464.208.92.428,1.368.665A1.5,1.5,0,0,0,39.5,24Z" style="fill:#89f2ff"/><path d="M32.909,22.19a.844.844,0,0,0,.081-.21,1.124,1.124,0,0,0-.24-.81,2.135,2.135,0,0,0-.71-.69,3.244,3.244,0,0,0-1.14-.36,6.053,6.053,0,0,0-4.52.76,3.789,3.789,0,0,0-1.227,1.636,22.772,22.772,0,0,1,7.756-.326Z" style="fill:#bdf474"/><path d="M12.01,30.678a23.115,23.115,0,0,1,5.5-4.989,1.4,1.4,0,0,1,.406-.469,4.791,4.791,0,0,1,1.38-.61l.2-.073c.489-.252.987-.491,1.5-.708V23c0-.32-.77-.76-1-1H18l-.12-.15a23.018,23.018,0,0,0-6.361,7.682q.3-.59.635-1.16Q12.025,29.509,12.01,30.678Z" style="fill:#bdf474"/><path d="M39.46,20a2.014,2.014,0,0,0-2.08,1.94,2.611,2.611,0,0,0,.362,1.4c.557.2,1.1.42,1.637.66H39.5a1.5,1.5,0,0,1,1.247.665A23.072,23.072,0,0,1,51.58,37.031a9.283,9.283,0,0,0,3.39,1.959A22.979,22.979,0,0,0,43.09,19.85L43,20Z" style="fill:#bdf474"/><path d="M33,13.01V13a8.261,8.261,0,0,1-1,.3V17c.668,0,1.327.039,1.981.094A.919.919,0,0,0,34,17V13.771A2.47,2.47,0,0,1,33,13.01Z" style="fill:#35c4ba"/><ellipse cx="43.684" cy="23.695" rx="1.642" ry="2.286" transform="translate(-3.955 37.846) rotate(-45.02)" style="fill:#f6fafd"/><ellipse cx="46.682" cy="26.708" rx="0.825" ry="1.148" transform="translate(-5.208 40.849) rotate(-45.02)" style="fill:#f6fafd"/><ellipse cx="34.682" cy="19.708" rx="0.825" ry="1.148" transform="translate(-3.774 30.309) rotate(-45.02)" style="fill:#f6fafd"/><path d="M33.016,12.607c-.012.014-.026.026-.038.041l-.006,0c.006.119.028.236.028.357C33,12.868,33.011,12.738,33.016,12.607Z" style="fill:#e1ffbd"/><path d="M32.972,12.643A25.4,25.4,0,0,0,29.215,9.8l-.849-4.247c-.1-.059-.193-.129-.3-.185s-.187-.085-.277-.131l.846,4.229a18.594,18.594,0,0,0-4.455-1.763l-.918-3.671c-.089,0-.176-.021-.266-.024-.074-.006-.155,0-.234-.006,0,.02-.014.036-.009.057l.877,3.506a28.46,28.46,0,0,0-3.388-.56.24.24,0,0,0-.038-.146L18.659,4.538c-.081.025-.17.045-.249.072s-.156.068-.238.1l1.492,2.238c-1.341-.124-2.813-.189-4.449-.2-.069.084-.15.16-.215.248,0,.084.01.167.013.25,1.636,0,3.1.064,4.436.182l-2.425,4.042c.063.058.12.119.186.176s.137.1.2.15L20,7.484a27.9,27.9,0,0,1,3.674.606l-2.7,5.408c.086.022.162.052.249.072s.171.027.252.045l2.7-5.392a18.206,18.206,0,0,1,4.483,1.825L25.8,13.85a.231.231,0,0,0-.036.142c.077,0,.16,0,.236,0h.01l.318-.011,2.752-3.668A25.186,25.186,0,0,1,32.728,13.1c.18-.058.272-.1.272-.1C33,12.879,32.978,12.762,32.972,12.643Z" style="fill:#daffa8"/><path d="M58.789,4.752c-2.695,0-5.116.079-7.3.238l-.156-.09,1.7-3.4c-.084-.019-.163-.042-.249-.06s-.173-.029-.257-.046L50.776,4.888a.251.251,0,0,0-.014.164,48.136,48.136,0,0,0-5.465.74l.94-4.7c-.085.008-.172.012-.257.021s-.175.027-.264.038l-.952,4.759a24.885,24.885,0,0,0-5.42,1.783l1.4-5.124c.008-.028-.008-.052-.01-.079-.082.036-.17.066-.251.1-.1.047-.2.1-.3.15L38.759,7.934a.253.253,0,0,0,0,.055,18.857,18.857,0,0,0-5.745,4.618c0,.131-.016.261-.016.393v.01a1.235,1.235,0,0,0,.145.175c.012-.009.03-.006.041-.018v0l.005,0a18.459,18.459,0,0,1,5.921-4.784l8.748,5.832A.254.254,0,0,0,48,14.25a.25.25,0,0,0,.139-.458L39.624,8.115a24.711,24.711,0,0,1,5.455-1.762l8.68,5.787c.078-.045.164-.085.241-.13s.13-.087.2-.129c-.018-.031-.027-.068-.059-.089L45.76,6.206a50.138,50.138,0,0,1,5.614-.7L57.5,9c.05-.065.111-.127.159-.193s.087-.144.135-.215L52.276,5.441c2.03-.127,4.243-.191,6.7-.191,0-.084.022-.166.022-.25C58.934,4.914,58.859,4.835,58.789,4.752Z" style="fill:#daffa8"/></g></svg>