<svg xmlns="http://www.w3.org/2000/svg" viewBox="0 0 64 64"><g id="_12-save_energy" data-name="12-save energy"><path d="M52,9V59a4,4,0,0,1-4,4H16a4,4,0,0,1-4-4V9a4,4,0,0,1,4-4H48A4,4,0,0,1,52,9ZM48,58V10a1,1,0,0,0-1-1H17a1,1,0,0,0-1,1V58a1,1,0,0,0,1,1H47A1,1,0,0,0,48,58Z" style="fill:#e8e4d8"/><path d="M42,3V5H22V3a2.006,2.006,0,0,1,2-2H40A2.006,2.006,0,0,1,42,3Z" style="fill:#ffce54"/><path d="M48,49v9a1,1,0,0,1-1,1H17a1,1,0,0,1-1-1V49Z" style="fill:#49c263"/><path d="M48,39V49H16V39h8l.07-.13c.25.14.52.28.8.41A17.31,17.31,0,0,0,32,41a17.31,17.31,0,0,0,7.13-1.72c.28-.13.55-.27.8-.41L40,39Z" style="fill:#61db58"/><path d="M42.97,35.99A8.421,8.421,0,0,0,44,31.9a17.794,17.794,0,0,0-.21-2.87L44,29h4V39H40l-.07-.13a8.175,8.175,0,0,0,2.39-1.89A6.5,6.5,0,0,0,42.97,35.99Z" style="fill:#7eeb57"/><path d="M29.01,29.06C27.17,27.78,24.45,27,20.75,27a6.772,6.772,0,0,0-.54,2.03L20,29H16V19H48V29H44l-.21.03A6.772,6.772,0,0,0,43.25,27c-3.7,0-6.42.78-8.26,2.06A6.63,6.63,0,0,0,32,34.7,6.63,6.63,0,0,0,29.01,29.06Z" style="fill:#aaf66f"/><path d="M48,10v9H16V10a1,1,0,0,1,1-1H47A1,1,0,0,1,48,10Z" style="fill:#ccff87"/><path d="M21.03,35.99a6.5,6.5,0,0,0,.65.99,8.175,8.175,0,0,0,2.39,1.89L24,39H16V29h4l.21.03A17.794,17.794,0,0,0,20,31.9,8.421,8.421,0,0,0,21.03,35.99Z" style="fill:#7eeb57"/><path d="M25,39l-.13.28c-.28-.13-.55-.27-.8-.41a8.175,8.175,0,0,1-2.39-1.89,6.5,6.5,0,0,1-.65-.99L27,33l-.03-.17a32.244,32.244,0,0,1,3.01,3.97L30,37Z" style="fill:#4edfa6"/><path d="M39.93,38.87c-.25.14-.52.28-.8.41L39,39l-5-2,.02-.2a32.244,32.244,0,0,1,3.01-3.97L37,33l5.97,2.99a6.5,6.5,0,0,1-.65.99A8.175,8.175,0,0,1,39.93,38.87Z" style="fill:#4edfa6"/><path d="M29.98,36.8A15.59,15.59,0,0,1,32,41a17.31,17.31,0,0,1-7.13-1.72L25,39l5-2Z" style="fill:#85ee89"/><path d="M20.75,27a46.98,46.98,0,0,1,6.22,5.83L27,33l-5.97,2.99A8.421,8.421,0,0,1,20,31.9a17.794,17.794,0,0,1,.21-2.87A6.772,6.772,0,0,1,20.75,27Z" style="fill:#4edfa6"/><path d="M39.13,39.28A17.31,17.31,0,0,1,32,41a15.59,15.59,0,0,1,2.02-4.2L34,37l5,2Z" style="fill:#85ee89"/><path d="M43.79,29.03A17.794,17.794,0,0,1,44,31.9a8.421,8.421,0,0,1-1.03,4.09L37,33l.03-.17A46.98,46.98,0,0,1,43.25,27,6.772,6.772,0,0,1,43.79,29.03Z" style="fill:#85ee89"/><path d="M32,34.7V41a15.59,15.59,0,0,0-2.02-4.2l-.97-7.74A6.63,6.63,0,0,1,32,34.7Z" style="fill:#aaf66f"/><path d="M25.93,27.65l1.04,5.18A46.98,46.98,0,0,0,20.75,27,18.67,18.67,0,0,1,25.93,27.65Z" style="fill:#aaf66f"/><path d="M29.01,29.06l.97,7.74a32.244,32.244,0,0,0-3.01-3.97l-1.04-5.18A10.451,10.451,0,0,1,29.01,29.06Z" style="fill:#85ee89"/><path d="M34.02,36.8l.97-7.74a10.451,10.451,0,0,1,3.08-1.41l-1.04,5.18A32.244,32.244,0,0,0,34.02,36.8Z" style="fill:#85ee89"/><path d="M34.02,36.8A15.59,15.59,0,0,0,32,41V34.7a6.63,6.63,0,0,1,2.99-5.64Z" style="fill:#aaf66f"/><path d="M38.07,27.65A18.67,18.67,0,0,1,43.25,27a46.98,46.98,0,0,0-6.22,5.83Z" style="fill:#aaf66f"/><path d="M28.374,37.65A7.358,7.358,0,0,1,24,36a6.831,6.831,0,0,1-1.047-.973l-1.923.963a6.5,6.5,0,0,0,.65.99,8.175,8.175,0,0,0,2.39,1.89c.25.14.52.28.8.41L25,39Z" style="fill:#35c4ba"/><path d="M40,36a7.358,7.358,0,0,1-4.374,1.65L39,39l.13.28c.28-.13.55-.27.8-.41a8.175,8.175,0,0,0,2.39-1.89,6.5,6.5,0,0,0,.65-.99l-1.923-.963A6.831,6.831,0,0,1,40,36Z" style="fill:#35c4ba"/><path d="M28.374,37.65,25,39l-.13.28A17.31,17.31,0,0,0,32,41a15,15,0,0,0-1.7-3.67A5.44,5.44,0,0,1,28.374,37.65Z" style="fill:#4edfa6"/><path d="M26.97,32.83a46.959,46.959,0,0,0-6.124-5.751.984.984,0,0,1,.088.493c-.117,1.379-.169,4.953,2.019,7.455L27,33Z" style="fill:#85ee89"/><path d="M35.626,37.65a5.44,5.44,0,0,1-1.926-.32A15,15,0,0,0,32,41a17.31,17.31,0,0,0,7.13-1.72L39,39Z" style="fill:#4edfa6"/><path d="M43.25,27c-.034.027-.062.053-.1.079a.984.984,0,0,0-.088.493c.117,1.379.169,4.953-2.019,7.455l1.923.963A8.421,8.421,0,0,0,44,31.9a17.794,17.794,0,0,0-.21-2.87A6.772,6.772,0,0,0,43.25,27Z" style="fill:#4edfa6"/><path d="M31,31.125v5.25a.988.988,0,0,1-.62.926l-.08.029A15,15,0,0,1,32,41V34.7A6.677,6.677,0,0,0,31,31.125Z" style="fill:#79e78e"/><path d="M33.62,37.3a.988.988,0,0,1-.62-.926v-5.25A6.677,6.677,0,0,0,32,34.7V41a15,15,0,0,1,1.7-3.67Z" style="fill:#85ee89"/><path d="M40,3H24a2,2,0,0,1-1.721-1A1.975,1.975,0,0,0,22,3V5H42V3a1.975,1.975,0,0,0-.279-1A2,2,0,0,1,40,3Z" style="fill:#ffb844"/><path d="M46,56a1,1,0,0,1-1,1H19a1,1,0,0,1-1-1V49H16v9a1,1,0,0,0,1,1H47a1,1,0,0,0,1-1V49H46Z" style="fill:#1f9e65"/><rect x="46" y="39" width="2" height="10" style="fill:#37ad6a"/><rect x="16" y="39" width="2" height="10" style="fill:#37ad6a"/><rect x="46" y="29" width="2" height="10" style="fill:#49c263"/><rect x="16" y="19" width="2" height="10" style="fill:#61db58"/><rect x="46" y="19" width="2" height="10" style="fill:#61db58"/><path d="M47,9H17a1,1,0,0,0-1,1v9h2V12a1,1,0,0,1,1-1H45a1,1,0,0,1,1,1v7h2V10A1,1,0,0,0,47,9Z" style="fill:#75e66c"/><rect x="16" y="29" width="2" height="10" style="fill:#49c263"/><path d="M47,7H17a3,3,0,0,0-3,3V58a3,3,0,0,0,3,3H47a3,3,0,0,0,3-3V10A3,3,0,0,0,47,7Zm1,12V58a1,1,0,0,1-1,1H17a1,1,0,0,1-1-1V10a1,1,0,0,1,1-1H47a1,1,0,0,1,1,1Z" style="fill:#d8d4c9"/><path d="M44.778,28.875a7.535,7.535,0,0,0-.648-2.351A1,1,0,0,0,43.25,26a19.761,19.761,0,0,0-5.455.688,11.511,11.511,0,0,0-3.372,1.549A7.954,7.954,0,0,0,32,30.835a7.972,7.972,0,0,0-2.422-2.6,11.519,11.519,0,0,0-3.37-1.548A19.759,19.759,0,0,0,20.75,26a1,1,0,0,0-.88.524,7.508,7.508,0,0,0-.646,2.343A18.769,18.769,0,0,0,19,31.9a9.412,9.412,0,0,0,1.151,4.567A7.472,7.472,0,0,0,20.9,37.6a9,9,0,0,0,2.688,2.144c.271.152.563.3.852.437A18.326,18.326,0,0,0,32,42a18.311,18.311,0,0,0,7.551-1.813c.3-.141.595-.292.869-.445A9.009,9.009,0,0,0,43.1,37.607a7.522,7.522,0,0,0,.745-1.13A9.427,9.427,0,0,0,45,31.9,18.793,18.793,0,0,0,44.778,28.875ZM42.97,35.99a6.5,6.5,0,0,1-.65.99,8.175,8.175,0,0,1-2.39,1.89c-.25.14-.52.28-.8.41A17.31,17.31,0,0,1,32,41a17.31,17.31,0,0,1-7.13-1.72c-.28-.13-.55-.27-.8-.41a8.175,8.175,0,0,1-2.39-1.89,6.5,6.5,0,0,1-.65-.99A8.421,8.421,0,0,1,20,31.9a17.794,17.794,0,0,1,.21-2.87A6.772,6.772,0,0,1,20.75,27a18.67,18.67,0,0,1,5.18.65,10.451,10.451,0,0,1,3.08,1.41A6.63,6.63,0,0,1,32,34.7a6.63,6.63,0,0,1,2.99-5.64,10.451,10.451,0,0,1,3.08-1.41A18.67,18.67,0,0,1,43.25,27a6.772,6.772,0,0,1,.54,2.03A17.794,17.794,0,0,1,44,31.9,8.421,8.421,0,0,1,42.97,35.99Z" style="fill:#fffbed"/><path d="M43.078,35.76l-5.75-2.875a46.635,46.635,0,0,1,6.026-5.646c-.062-.159-.1-.239-.1-.239-.141,0-.27.01-.409.012a48.714,48.714,0,0,0-5.383,4.965L38.25,28v-.394c-.058.016-.123.027-.18.044-.11.031-.21.07-.316.1v.2L36.8,32.708a33.862,33.862,0,0,0-2.394,3.042l.839-6.719a.237.237,0,0,0-.031-.113c-.074.048-.155.092-.227.142-.1.068-.183.144-.276.215l-.927,7.412A19.041,19.041,0,0,0,32,40.184a19.041,19.041,0,0,0-1.787-3.5l-.927-7.412c-.093-.071-.177-.147-.276-.215-.072-.05-.153-.094-.227-.142a.237.237,0,0,0-.031.113l.839,6.719A33.568,33.568,0,0,0,27.2,32.708L26.25,28v-.246c-.108-.034-.209-.072-.32-.1-.056-.016-.12-.028-.177-.043l0,.442.786,3.927a48.787,48.787,0,0,0-5.382-4.964c-.139,0-.268-.012-.409-.012,0,0-.042.08-.1.239a46.463,46.463,0,0,1,6.024,5.647L20.922,35.76c.039.075.067.156.108.23s.084.141.126.212l5.852-2.927a31.953,31.953,0,0,1,2.69,3.576l-4.791,1.917A.25.25,0,0,0,24.75,39v.218c.042.02.078.042.12.062.123.059.254.114.38.171v-.282l4.715-1.886a16.3,16.3,0,0,1,1.773,3.708c.087,0,.176.009.262.009s.175-.008.262-.009a16.178,16.178,0,0,1,1.771-3.709l4.717,1.887v.282c.126-.057.257-.112.38-.171.042-.02.078-.042.12-.062V39a.251.251,0,0,0-.157-.232L34.3,36.85a31.943,31.943,0,0,1,2.691-3.576L42.845,36.2c.041-.071.086-.139.125-.212S43.039,35.835,43.078,35.76Z" style="fill:#daffa8"/><rect x="19" y="59" width="20" height="2" rx="1" ry="1" style="fill:#c9c6bc"/><rect x="41" y="59" width="4" height="2" rx="1" ry="1" style="fill:#c9c6bc"/><rect x="19" y="5" width="20" height="2" rx="1" ry="1" style="fill:#fffbed"/><rect x="41" y="5" width="4" height="2" rx="1" ry="1" style="fill:#fffbed"/><circle cx="39" cy="16" r="1" style="fill:#daffa8"/><circle cx="23" cy="23" r="1" style="fill:#c6ff79"/><circle cx="25" cy="44" r="1" style="fill:#7eeb57"/><circle cx="36" cy="47" r="1" style="fill:#7eeb57"/><circle cx="22" cy="14" r="1" style="fill:#daffa8"/><circle cx="42" cy="53" r="1" style="fill:#61db58"/><circle cx="26.5" cy="25.5" r="0.5" style="fill:#c6ff79"/><circle cx="33" cy="21" r="1" style="fill:#c6ff79"/><circle cx="30.5" cy="13.5" r="0.5" style="fill:#daffa8"/><circle cx="33.5" cy="53.5" r="0.5" style="fill:#61db58"/><circle cx="24.5" cy="15.5" r="0.5" style="fill:#daffa8"/><circle cx="38.5" cy="44.5" r="0.5" style="fill:#7eeb57"/><circle cx="41.5" cy="21.5" r="0.5" style="fill:#c6ff79"/><circle cx="20.5" cy="41.5" r="0.5" style="fill:#7eeb57"/><circle cx="39.5" cy="22.5" r="0.5" style="fill:#c6ff79"/><circle cx="37.5" cy="24.5" r="0.5" style="fill:#c6ff79"/><circle cx="26.5" cy="46.5" r="0.5" style="fill:#7eeb57"/><circle cx="22.5" cy="52.5" r="1.5" style="fill:#61db58"/><circle cx="42" cy="14" r="2" style="fill:#daffa8"/></g></svg>