<svg id="_01-ecology" data-name="01-ecology" xmlns="http://www.w3.org/2000/svg" viewBox="0 0 64 64"><path d="M42,15l-1.66,2.5A1.965,1.965,0,0,0,40,18.61V25a6,6,0,0,1-6,6H30a6,6,0,0,1-6-6V18.61a1.965,1.965,0,0,0-.34-1.11L22,15Z" style="fill:#ffb844"/><path d="M39,3v8H35V3a2.006,2.006,0,0,1,2-2,1.955,1.955,0,0,1,1.41.59A1.955,1.955,0,0,1,39,3Z" style="fill:#49c263"/><polygon points="34 52 34 63 30 63 30 52 30 31 34 31 34 52" style="fill:#49c263"/><path d="M29,3v8H25V3a2.006,2.006,0,0,1,2-2,1.955,1.955,0,0,1,1.41.59A1.955,1.955,0,0,1,29,3Z" style="fill:#49c263"/><path d="M63,34a19.653,19.653,0,0,0-5.11,3.85l-2.77-3.69A19.042,19.042,0,0,1,63,34Z" style="fill:#85ee89"/><path d="M63,34a19.042,19.042,0,0,0-7.88.16L55,34V31.07C58.94,31.32,63,32.29,63,34Z" style="fill:#aaf66f"/><path d="M55.12,34.16l2.77,3.69A12.184,12.184,0,0,0,57,39a35.157,35.157,0,0,0-1.89,4.05L55,43l-4.95-6.94A21.382,21.382,0,0,1,55.12,34.16Z" style="fill:#4edfa6"/><path d="M55,34l.12.16a21.382,21.382,0,0,0-5.07,1.9h-.01L50,36V31.23A19.408,19.408,0,0,1,53,31c.65,0,1.32.02,2,.07Z" style="fill:#85ee89"/><path d="M55,43l.11.05a24.191,24.191,0,0,1-2.92,5.1L52,48l-6.77-8.7a28.492,28.492,0,0,1,4.81-3.24h.01Z" style="fill:#85ee89"/><path d="M52,48l.19.15a9.3,9.3,0,0,1-5.33,3.64l-5.68-8.52a35.615,35.615,0,0,1,4.05-3.97Z" style="fill:#4edfa6"/><path d="M50,36l.04.06a28.492,28.492,0,0,0-4.81,3.24L45,39V32.89a15.115,15.115,0,0,1,5-1.66Z" style="fill:#aaf66f"/><path d="M41.18,43.27l5.68,8.52A7.909,7.909,0,0,1,45,52c-8,0-8-3-8-3A37.1,37.1,0,0,1,41.18,43.27Z" style="fill:#85ee89"/><path d="M45,39l.23.3a35.615,35.615,0,0,0-4.05,3.97L41,43V36.18a13.255,13.255,0,0,1,4-3.29Z" style="fill:#85ee89"/><path d="M41,43l.18.27A37.1,37.1,0,0,0,37,49c0-5.33,1.41-9.72,4-12.82Z" style="fill:#aaf66f"/><path d="M27,46v2a8.212,8.212,0,0,0-4.02-3.99L23,44l-.99-7.92A12.037,12.037,0,0,1,27,46Z" style="fill:#85ee89"/><path d="M27,48c-2,3-6,4-9,4a12.517,12.517,0,0,1-6.05-1.92L12,50l10.98-5.99A8.212,8.212,0,0,1,27,48Z" style="fill:#4edfa6"/><path d="M22.01,36.08,23,44l-.02.01c-1.66-.85-3.92-1.66-7.2-2.92L16,41l-.97-7.75A19.564,19.564,0,0,1,18,34,13.9,13.9,0,0,1,22.01,36.08Z" style="fill:#aaf66f"/><path d="M22.98,44.01,12,50l-.05.08A25.569,25.569,0,0,1,5.9,45.09L6,45l9.78-3.91C19.06,42.35,21.32,43.16,22.98,44.01Z" style="fill:#85ee89"/><path d="M15.03,33.25,16,41l-.22.09C14.93,40.76,14,40.4,13,40c-.76-.31-1.48-.64-2.14-.98L11,39,9,33l.03-.18A11.18,11.18,0,0,0,11,33,23.208,23.208,0,0,1,15.03,33.25Z" style="fill:#85ee89"/><path d="M15.78,41.09,6,45l-.1.09a22.783,22.783,0,0,1-3.56-5.13l8.52-.94c.66.34,1.38.67,2.14.98C14,40.4,14.93,40.76,15.78,41.09Z" style="fill:#4edfa6"/><path d="M9,33l2,6-.14.02C2.85,34.82,2,28,2,28a11.318,11.318,0,0,0,7.03,4.82Z" style="fill:#aaf66f"/><path d="M10.86,39.02l-8.52.94A11.41,11.41,0,0,1,1,35a35.483,35.483,0,0,1,1-7S2.85,34.82,10.86,39.02Z" style="fill:#85ee89"/><path d="M34,34V31H30V63h2V36A2,2,0,0,1,34,34Z" style="fill:#129c78"/><path d="M57.89,37.85A19.653,19.653,0,0,1,63,34a19.985,19.985,0,0,0-6.458,2.054Z" style="fill:#4edfa6"/><path d="M52.62,39.664,55,43l.11.05A35.157,35.157,0,0,1,57,39a12.184,12.184,0,0,1,.89-1.15l-1.348-1.8A9.847,9.847,0,0,0,52.62,39.664Z" style="fill:#35c4ba"/><path d="M52.62,39.664A7.184,7.184,0,0,0,52,41a8.247,8.247,0,0,1-2.571,3.7L52,48l.19.15a24.191,24.191,0,0,0,2.92-5.1L55,43Z" style="fill:#4edfa6"/><path d="M49.429,44.7a8.731,8.731,0,0,1-5.889,2.115l3.32,4.979a9.3,9.3,0,0,0,5.33-3.64L52,48Z" style="fill:#35c4ba"/><path d="M40.157,44.485A35.4,35.4,0,0,0,37,49s0,3,8,3a7.909,7.909,0,0,0,1.86-.21l-3.32-4.979A3.551,3.551,0,0,1,40.157,44.485Z" style="fill:#4edfa6"/><path d="M42.27,34.854A13.614,13.614,0,0,0,41,36.18v1.392A26.911,26.911,0,0,1,42.27,34.854Z" style="fill:#4edfa6"/><path d="M40,44a11.912,11.912,0,0,1,1-6.428V36.18c-2.59,3.1-4,7.49-4,12.82a35.4,35.4,0,0,1,3.157-4.515A3.574,3.574,0,0,1,40,44Z" style="fill:#4edfa6"/><path d="M24.086,44.655A7.937,7.937,0,0,1,27,48V46a11.977,11.977,0,0,0-3.484-8.594C24.35,39.693,25.04,42.639,24.086,44.655Z" style="fill:#4edfa6"/><path d="M24.086,44.655A3.544,3.544,0,0,1,23,46c-.993.745-2.975,1.119-5.391.94L12,50l-.05.08A12.517,12.517,0,0,0,18,52c3,0,7-1,9-4A7.937,7.937,0,0,0,24.086,44.655Z" style="fill:#35c4ba"/><path d="M17.609,46.94a20.5,20.5,0,0,1-9.023-2.974L6,45l-.1.09a25.569,25.569,0,0,0,6.05,4.99L12,50Z" style="fill:#4edfa6"/><path d="M8.586,43.966A19.336,19.336,0,0,1,3.779,39.8L2.34,39.96A22.783,22.783,0,0,0,5.9,45.09L6,45Z" style="fill:#35c4ba"/><path d="M1.024,35.318A11.709,11.709,0,0,0,2.34,39.96L3.779,39.8A19.5,19.5,0,0,1,1.024,35.318Z" style="fill:#4edfa6"/><polygon points="42 11 42 15 22 15 22 11 25 11 29 11 35 11 39 11 42 11" style="fill:#fffcbd"/><path d="M37,7V2a.994.994,0,0,1,.584-.9A1.953,1.953,0,0,0,37,1a2.006,2.006,0,0,0-2,2v8h4V9A2,2,0,0,1,37,7Z" style="fill:#129c78"/><path d="M27,7V2a.994.994,0,0,1,.584-.9A1.953,1.953,0,0,0,27,1a2.006,2.006,0,0,0-2,2v8h4V9A2,2,0,0,1,27,7Z" style="fill:#129c78"/><path d="M27,21V20a2,2,0,0,1,2-2H40.1a1.891,1.891,0,0,1,.24-.5L42,15H22l1.66,2.5A1.965,1.965,0,0,1,24,18.61V25a6,6,0,0,0,6,6h4a5.949,5.949,0,0,0,1.323-.152A9.994,9.994,0,0,1,27,21Z" style="fill:#fea740"/><path d="M40,11a2,2,0,0,1-2,2H26a2,2,0,0,1-2-2H22v4H42V11Z" style="fill:#ffdf64"/><path d="M38,19a2,2,0,0,0-2,2v4a2,2,0,0,1-2,2,1.99,1.99,0,0,0-1.859,2.726,9.947,9.947,0,0,0,3.181,1.122A6.006,6.006,0,0,0,40,25V21A2,2,0,0,0,38,19Z" style="fill:#ffdf64"/><path d="M30,50.333l-2.147-2.862A10.7,10.7,0,0,0,27,46.061V48a7.136,7.136,0,0,1-.649.8L29.2,52.6a1,1,0,0,0,.8.4V50.333Z" style="fill:#129c78"/><path d="M37.069,47.013c-.445.666-.741,1.154-.869,1.373l-2.2,2.2V53a1,1,0,0,0,.707-.293l2.735-2.735A1.722,1.722,0,0,1,37,49Q37,47.983,37.069,47.013Z" style="fill:#129c78"/><rect x="32" y="42" width="2" height="20" rx="1" ry="1" style="fill:#61db58"/><rect x="32" y="37" width="2" height="4" rx="1" ry="1" style="fill:#61db58"/><path d="M62.992,33.743a19.347,19.347,0,0,0-7.712.14V31.089c-.083-.006-.166-.014-.25-.019s-.165,0-.25-.009V34h0a21.762,21.762,0,0,0-4.5,1.685V31.2c-.082.012-.168.016-.25.029s-.165.035-.25.049v4.658a28.731,28.731,0,0,0-4.475,3.01l-.025-.032V32.768c-.082.042-.169.078-.25.122s-.165.1-.25.15V39a.247.247,0,0,0,.052.152l.09.117a35.892,35.892,0,0,0-3.642,3.562V36c0-.026-.02-.043-.027-.066-.073.084-.152.16-.223.246-.088.106-.164.225-.25.334V43a.255.255,0,0,0,.042.139l.076.113a39.43,39.43,0,0,0-3.85,5.229c0,.175-.018.342-.018.519a1.148,1.148,0,0,0,.059.294l.118-.117a.219.219,0,0,0,.041-.055,37.142,37.142,0,0,1,3.937-5.439l5.436,8.154c.089-.018.183-.026.269-.047s.168-.048.254-.07L41.528,43.3a35.347,35.347,0,0,1,3.7-3.633l6.6,8.489a.248.248,0,0,0,.2.1.24.24,0,0,0,.15-.052l.009-.01a.247.247,0,0,0,.038-.341L45.61,39.342A28.322,28.322,0,0,1,50,36.384l4.823,6.761a.25.25,0,0,0,.2.1c.007,0,.013-.006.02-.006.029-.064.062-.131.09-.194s.059-.134.089-.2l-4.774-6.692a21.215,21.215,0,0,1,4.6-1.711L57.719,38l.042.058c.056-.067.1-.14.159-.206s.115-.122.173-.183l-2.5-3.332a18.839,18.839,0,0,1,7.061-.134c.234-.129.375-.2.375-.2A1.057,1.057,0,0,0,62.992,33.743Z" style="fill:#daffa8"/><path d="M27.03,47.473a8.308,8.308,0,0,0-3.765-3.608l-.944-7.554c-.1-.075-.183-.159-.281-.231-.074-.055-.153-.1-.228-.157a.224.224,0,0,0-.03.107l.945,7.562c-1.3-.627-2.92-1.246-5.089-2.072L16.272,41c0-.011.008-.019.006-.029L15.319,33.3c-.084-.015-.177-.04-.259-.054s-.168-.021-.254-.034l.947,7.583-.12-.046c-.776-.3-1.615-.627-2.509-.984-.654-.268-1.273-.552-1.857-.844v0l-2-6c-.013-.037-.046-.056-.072-.082-.044-.008-.092-.011-.136-.019s-.09-.023-.137-.033a.244.244,0,0,0-.13.292l1.834,5.5a16.137,16.137,0,0,1-8.235-10.06C2.155,28.2,2.03,28,2.03,28s-.054.219-.136.582A16.585,16.585,0,0,0,10.1,38.856l-7.762.856-.077.009c.038.08.067.159.106.239s.09.16.13.239l8.346-.923c.651.333,1.352.654,2.091.956.778.311,1.5.594,2.191.861L5.937,44.768a.237.237,0,0,0-.137.169c.045.05.085.1.13.153s.1.1.146.151a.244.244,0,0,0,.047-.009l9.691-3.875,1.645.63c2.135.813,3.736,1.423,5.008,2.034l-10.556,5.76a.235.235,0,0,0-.117.179c.062.038.124.084.186.12s.141.077.212.116L23.01,44.3a7.988,7.988,0,0,1,3.82,3.855l.038.05c.051-.07.114-.127.162-.2Z" style="fill:#daffa8"/></svg>