<svg xmlns="http://www.w3.org/2000/svg" viewBox="0 0 64 64"><g id="_09-water" data-name="09-water"><rect x="55" y="11" width="4" height="8" style="fill:#01cadb"/><path d="M36,11v6H24a2.006,2.006,0,0,0-2,2v3H16V17a6,6,0,0,1,6-6Z" style="fill:#d8d4c9"/><rect x="48" y="11" width="7" height="8" style="fill:#d8d4c9"/><rect x="40" y="5" width="4" height="3" style="fill:#b5b1a4"/><path d="M48,19v1a2.006,2.006,0,0,1-2,2H38a2.006,2.006,0,0,1-2-2V10a2.006,2.006,0,0,1,2-2h8a2.006,2.006,0,0,1,2,2v9Z" style="fill:#4edfa6"/><polygon points="24 22 24 26 14 26 14 22 16 22 22 22 24 22" style="fill:#01cadb"/><path d="M49,1a2.006,2.006,0,0,1,2,2,1.955,1.955,0,0,1-.59,1.41A1.955,1.955,0,0,1,49,5H35a2.006,2.006,0,0,1-2-2,1.955,1.955,0,0,1,.59-1.41A1.955,1.955,0,0,1,35,1Z" style="fill:#85ee89"/><path d="M18,55H12.1a6.269,6.269,0,0,1-1.7-1.44,6.75,6.75,0,0,1-1.18-2.53l6.74.96A25.134,25.134,0,0,1,18,55Z" style="fill:#85ee89"/><path d="M19,57a14.2,14.2,0,0,1-6.9-2H18A12.919,12.919,0,0,1,19,57Z" style="fill:#4edfa6"/><path d="M15.96,51.99l-6.74-.96A7.454,7.454,0,0,1,9,49.2V45A43.369,43.369,0,0,1,15.96,51.99Z" style="fill:#4edfa6"/><path d="M22.04,51.99l6.74-.96a6.75,6.75,0,0,1-1.18,2.53A6.269,6.269,0,0,1,25.9,55H20A25.134,25.134,0,0,1,22.04,51.99Z" style="fill:#4edfa6"/><path d="M20,55h5.9A14.2,14.2,0,0,1,19,57,12.919,12.919,0,0,1,20,55Z" style="fill:#85ee89"/><path d="M29,45v4.2a7.454,7.454,0,0,1-.22,1.83l-6.74.96A43.369,43.369,0,0,1,29,45Z" style="fill:#85ee89"/><path d="M16,52l-2.79-6.5a9.245,9.245,0,0,1,3.84,1.92L18,55a25.134,25.134,0,0,0-2.04-3.01Z" style="fill:#aaf66f"/><path d="M19,51.6V57a12.919,12.919,0,0,0-1-2l-.95-7.58A5.5,5.5,0,0,1,19,51.6Z" style="fill:#85ee89"/><path d="M13.21,45.5,16,52l-.04-.01A43.369,43.369,0,0,0,9,45,16.647,16.647,0,0,1,13.21,45.5Z" style="fill:#85ee89"/><path d="M22,52l.04-.01A25.134,25.134,0,0,0,20,55l.95-7.58a9.245,9.245,0,0,1,3.84-1.92Z" style="fill:#85ee89"/><path d="M20.95,47.42,20,55a12.919,12.919,0,0,0-1,2V51.6A5.5,5.5,0,0,1,20.95,47.42Z" style="fill:#aaf66f"/><path d="M29,45a43.369,43.369,0,0,0-6.96,6.99L22,52l2.79-6.5A16.647,16.647,0,0,1,29,45Z" style="fill:#aaf66f"/><path d="M19,29c2,0,14,11.44,14,20S26.73,63,19,63,5,57.56,5,49,17,29,19,29ZM17.05,47.42a9.245,9.245,0,0,0-3.84-1.92A16.647,16.647,0,0,0,9,45v4.2a7.454,7.454,0,0,0,.22,1.83,6.75,6.75,0,0,0,1.18,2.53A6.269,6.269,0,0,0,12.1,55,14.2,14.2,0,0,0,19,57a14.2,14.2,0,0,0,6.9-2,6.269,6.269,0,0,0,1.7-1.44,6.75,6.75,0,0,0,1.18-2.53A7.454,7.454,0,0,0,29,49.2V45a16.647,16.647,0,0,0-4.21.5,9.245,9.245,0,0,0-3.84,1.92A5.5,5.5,0,0,0,19,51.6,5.5,5.5,0,0,0,17.05,47.42Z" style="fill:#89f2ff"/><path d="M46,19H38a2.006,2.006,0,0,1-2-2v3a2.006,2.006,0,0,0,2,2h8a2.006,2.006,0,0,0,2-2V17A2.006,2.006,0,0,1,46,19Z" style="fill:#35c4ba"/><path d="M46,8H38a2.006,2.006,0,0,0-2,2v3a2.006,2.006,0,0,1,2-2h8a2.006,2.006,0,0,1,2,2V10A2.006,2.006,0,0,0,46,8Z" style="fill:#94f27a"/><path d="M50.41,2.41A1.955,1.955,0,0,1,49,3H35a2,2,0,0,1-1.721-1A1.963,1.963,0,0,0,33,3a2.006,2.006,0,0,0,2,2H49a1.955,1.955,0,0,0,1.41-.59A1.959,1.959,0,0,0,50.721,2,1.938,1.938,0,0,1,50.41,2.41Z" style="fill:#4edfa6"/><path d="M17.185,53.685A16.826,16.826,0,0,0,15,53a5.67,5.67,0,0,1-2.559-1.511L9.22,51.03a6.75,6.75,0,0,0,1.18,2.53A6.269,6.269,0,0,0,12.1,55H18C17.778,54.609,17.507,54.168,17.185,53.685Z" style="fill:#4edfa6"/><path d="M12.1,55A14.2,14.2,0,0,0,19,57a12.919,12.919,0,0,0-1-2Z" style="fill:#35c4ba"/><path d="M9,45v4.2a7.454,7.454,0,0,0,.22,1.83l3.221.459C10,49.11,9,45,9,45Z" style="fill:#35c4ba"/><path d="M23,53a16.877,16.877,0,0,0-2.185.685c-.322.483-.593.924-.815,1.315h5.9a6.269,6.269,0,0,0,1.7-1.44,6.75,6.75,0,0,0,1.18-2.53l-3.221.459A5.67,5.67,0,0,1,23,53Z" style="fill:#35c4ba"/><path d="M19,57a14.2,14.2,0,0,0,6.9-2H20A12.919,12.919,0,0,0,19,57Z" style="fill:#4edfa6"/><path d="M25.559,51.489l3.221-.459A7.454,7.454,0,0,0,29,49.2V45S28,49.11,25.559,51.489Z" style="fill:#4edfa6"/><path d="M18,55l-.126-1c-.194-.1-.421-.2-.689-.311C17.507,54.168,17.778,54.609,18,55Z" style="fill:#35c4ba"/><path d="M17.874,54,18,55a12.919,12.919,0,0,1,1,2V55S18.992,54.571,17.874,54Z" style="fill:#35c4ba"/><path d="M20,55c.222-.391.493-.832.815-1.315-.268.107-.5.211-.689.311Z" style="fill:#35c4ba"/><path d="M20.126,54C19.008,54.571,19,55,19,55v2a12.919,12.919,0,0,1,1-2Z" style="fill:#4edfa6"/><path d="M20.533,56.881A11.087,11.087,0,0,1,19,57a14.2,14.2,0,0,1-6.9-2,6.269,6.269,0,0,1-1.7-1.44,6.75,6.75,0,0,1-1.18-2.53A7.454,7.454,0,0,1,9,49.2V45a18.2,18.2,0,0,1,2.644.192C12.3,37.381,19,29,19,29,17,29,5,40.44,5,49s6.27,14,14,14,14-5.44,14-14a11.115,11.115,0,0,0-.3-2.487C30.7,52.533,27.066,58.366,20.533,56.881Z" style="fill:#01cadb"/><rect x="55" y="17" width="4" height="2" style="fill:#0189ab"/><path d="M51,13V11H48v8h7V17A4,4,0,0,1,51,13Z" style="fill:#b5b1a4"/><rect x="40" y="5" width="4" height="2" style="fill:#858178"/><rect x="36" y="1" width="12" height="2" rx="1" ry="1" style="fill:#aaf66f"/><path d="M16,22v1a1,1,0,0,0,1,1h4a1,1,0,0,0,1-1V22h2v4H14V22Z" style="fill:#01a2b0"/><path d="M32,11a3,3,0,0,1-3,3H22a3,3,0,0,0-3,3,3,3,0,0,1-3,3v2h6V19a2.006,2.006,0,0,1,2-2H36V11Z" style="fill:#b5b1a4"/><path d="M28.8,50.9l-6.462.92A43.693,43.693,0,0,1,29,45.164V45c-.068,0-.132.005-.2.006a44.25,44.25,0,0,0-6.38,6.33l2.484-5.788.035-.082c-.049.013-.1.021-.15.034s-.106.035-.162.05l-2.784,6.5a25.733,25.733,0,0,0-1.649,2.4l.879-7.017.015-.121c-.044.037-.1.069-.139.106s-.1.095-.146.142l-.925,7.4a15.6,15.6,0,0,0-.879,1.7,15.505,15.505,0,0,0-.879-1.7l-.928-7.4c-.049-.046-.092-.094-.143-.139s-.093-.068-.136-.1l.892,7.137a26.026,26.026,0,0,0-1.65-2.406l-2.789-6.5c-.054-.015-.1-.035-.157-.049s-.1-.021-.146-.033l2.516,5.87A44.264,44.264,0,0,0,9.2,45.006c-.067,0-.131-.006-.2-.006v.164a43.635,43.635,0,0,1,6.657,6.657l-6.42-.915L9.2,50.9c.01.043.013.088.024.13s.027.088.039.133l6.631.943a25.279,25.279,0,0,1,1.884,2.769H12a.116.116,0,0,0-.055.023c.053.034.1.069.155.1.07.043.149.083.221.125h5.606a13.76,13.76,0,0,1,.937,1.869c.045,0,.091.006.136.006s.091-.005.136-.006a13.689,13.689,0,0,1,.937-1.869h5.606c.072-.042.151-.082.221-.125.054-.033.1-.068.155-.1A.116.116,0,0,0,26,54.875H20.225a25.165,25.165,0,0,1,1.882-2.764l6.635-.949c.011-.045.027-.087.038-.132S28.794,50.944,28.8,50.9Z" style="fill:#daffa8"/><path d="M29,44a17.659,17.659,0,0,0-4.461.532,10.222,10.222,0,0,0-4.25,2.138A7,7,0,0,0,19,48.171a7.059,7.059,0,0,0-1.292-1.5,10.2,10.2,0,0,0-4.245-2.134A17.623,17.623,0,0,0,9,44a1,1,0,0,0-1,1v4.2a8.414,8.414,0,0,0,.247,2.063,7.735,7.735,0,0,0,1.357,2.9,7.216,7.216,0,0,0,1.972,1.686A15.218,15.218,0,0,0,19,58a15.215,15.215,0,0,0,7.425-2.149A7.191,7.191,0,0,0,28.4,54.165a7.708,7.708,0,0,0,1.354-2.889A8.451,8.451,0,0,0,30,49.2V45A1,1,0,0,0,29,44Zm0,5.2a7.454,7.454,0,0,1-.22,1.83,6.75,6.75,0,0,1-1.18,2.53A6.269,6.269,0,0,1,25.9,55,14.2,14.2,0,0,1,19,57a14.2,14.2,0,0,1-6.9-2,6.269,6.269,0,0,1-1.7-1.44,6.75,6.75,0,0,1-1.18-2.53A7.454,7.454,0,0,1,9,49.2V45a16.647,16.647,0,0,1,4.21.5,9.245,9.245,0,0,1,3.84,1.92A5.5,5.5,0,0,1,19,51.6a5.5,5.5,0,0,1,1.95-4.18,9.245,9.245,0,0,1,3.84-1.92A16.647,16.647,0,0,1,29,45Z" style="fill:#fff"/><path d="M19.123,33.38a3.79,3.79,0,0,0,1.45,1.468,9.761,9.761,0,0,1,1.824,1.78,5.524,5.524,0,0,0,.939,1.053,1.4,1.4,0,0,0,.98.311c.346-.047.522-.4.614-.71a2.21,2.21,0,0,0,.07-.621,4.082,4.082,0,0,0-.768-1.92A6.312,6.312,0,0,0,22.8,33.169c-.9-.7-2.707-1.713-3.634-.816C18.911,32.6,18.994,33.043,19.123,33.38Z" style="fill:#fff"/><path d="M27.494,42.988c.894.134,1.049-.915,1-1.485a3.322,3.322,0,0,0-.86-1.809,2.028,2.028,0,0,0-.764-.586,1.118,1.118,0,0,0-1.1.074,1.429,1.429,0,0,0-.235,1.2,3.848,3.848,0,0,0,.426,1.143,3.5,3.5,0,0,0,.852,1.136A1.428,1.428,0,0,0,27.494,42.988Z" style="fill:#fff"/><rect x="39" y="12" width="6" height="6" rx="1" ry="1" style="fill:#ffce54"/><path d="M44,17H40a1,1,0,0,1-1-1v1a1,1,0,0,0,1,1h4a1,1,0,0,0,1-1V16A1,1,0,0,1,44,17Z" style="fill:#fea740"/><path d="M44,12H40a1,1,0,0,0-1,1v1a1,1,0,0,1,1-1h4a1,1,0,0,1,1,1V13A1,1,0,0,0,44,12Z" style="fill:#fff978"/><path d="M44.5,11.5h-5a1,1,0,0,0-1,1v5a1,1,0,0,0,1,1h5a1,1,0,0,0,1-1v-5A1,1,0,0,0,44.5,11.5ZM45,17a1,1,0,0,1-1,1H40a1,1,0,0,1-1-1V13a1,1,0,0,1,1-1h4a1,1,0,0,1,1,1Z" style="fill:#35c4ba"/></g></svg>