<svg xmlns="http://www.w3.org/2000/svg" viewBox="0 0 64 64"><g id="_18-hybrid_car" data-name="18-hybrid car"><path d="M38,9c-2.6,0-5.79-1.1-6.88-2.3A4.113,4.113,0,0,1,30.17,5h4.76A14.316,14.316,0,0,1,38,9Z" style="fill:#4edfa6"/><path d="M34.06,13.31l.88,4.37a5.42,5.42,0,0,1-2.95,1.29L31,16l-.03-.01A36.317,36.317,0,0,0,34.06,13.31Z" style="fill:#4edfa6"/><path d="M38,9c0,4.16-1.22,7.11-3.06,8.68l-.88-4.37A48.442,48.442,0,0,0,38,9Z" style="fill:#85ee89"/><path d="M31,16l.99,2.97a5.683,5.683,0,0,1-.59.03H26a19.9,19.9,0,0,0,4.97-3.01Z" style="fill:#85ee89"/><path d="M30,1a33.142,33.142,0,0,1,4.93,4H30.17A4.4,4.4,0,0,1,30,3.8Z" style="fill:#85ee89"/><path d="M38,5.4V9a14.316,14.316,0,0,0-3.07-4H35l.91-2.73A3.658,3.658,0,0,1,38,5.4Z" style="fill:#85ee89"/><path d="M34,13l.06.31a36.317,36.317,0,0,1-3.09,2.68l-3.93-1.97a8.779,8.779,0,0,1,2.4-3.62c.19-.14.38-.27.58-.39Z" style="fill:#85ee89"/><path d="M27.04,14.02l3.93,1.97A19.9,19.9,0,0,1,26,19,13.877,13.877,0,0,1,27.04,14.02Z" style="fill:#aaf66f"/><path d="M33.8,9H38a48.442,48.442,0,0,1-3.94,4.31L34,13l-3.98-2.99A7.334,7.334,0,0,1,33.8,9Z" style="fill:#aaf66f"/><path d="M35.91,2.27,35,5h-.07A33.142,33.142,0,0,0,30,1,11.848,11.848,0,0,1,35.91,2.27Z" style="fill:#aaf66f"/><path d="M57,38.5A2.5,2.5,0,0,1,59.5,36H60l.13-.07A5.983,5.983,0,0,1,61,39.04V41H59.5A2.492,2.492,0,0,1,57,38.5Z" style="fill:#ff942c"/><path d="M9,36s-1,4-3,5a12.627,12.627,0,0,1-4.75.99A8.006,8.006,0,0,1,9,36Z" style="fill:#ff942c"/><path d="M26.85,24.3,21,36H16l6.6-8.8A7.975,7.975,0,0,1,26.85,24.3Z" style="fill:#abf5ff"/><polygon points="36 27 36 36 25 36 29 27 36 27" style="fill:#89f2ff"/><polygon points="49 27 52 36 39 36 39 27 49 27" style="fill:#89f2ff"/><circle cx="46" cy="56" r="3" style="fill:#595751"/><circle cx="14" cy="56" r="3" style="fill:#595751"/><path d="M14,49a7,7,0,1,1-7,7A6.995,6.995,0,0,1,14,49Zm3,7a3,3,0,1,0-3,3A3,3,0,0,0,17,56Z" style="fill:#75726a"/><path d="M46,49a7,7,0,1,1-7,7A6.995,6.995,0,0,1,46,49Zm3,7a3,3,0,1,0-3,3A3,3,0,0,0,49,56Z" style="fill:#75726a"/><path d="M36,27H29l-4,9H36Zm13,0H39v9H52Zm10.5,9a2.5,2.5,0,1,0,0,5H61V54a2.006,2.006,0,0,1-2,2H55c0-5.52-4.03-10-9-10s-9,4.48-9,10H23c0-5.52-4.03-10-9-10S5,50.48,5,56H3a2.006,2.006,0,0,1-2-2V44a8.321,8.321,0,0,1,.25-2.01A12.627,12.627,0,0,0,6,41c2-1,3-5,3-5H21l5.85-11.7A7.7,7.7,0,0,1,29,24H47.06a7.991,7.991,0,0,1,6.34,3.12l6.36,8.26a6.609,6.609,0,0,1,.37.55L60,36Z" style="fill:#4edfa6"/><path d="M55,56H53a7,7,0,0,0-14,0H37c0-5.52,4.03-10,9-10S55,50.48,55,56Z" style="fill:#28be77"/><path d="M23,56H21A7,7,0,0,0,7,56H5c0-5.52,4.03-10,9-10S23,50.48,23,56Z" style="fill:#28be77"/><polygon points="30 27 36 33 36 27 30 27" style="fill:#abf5ff"/><polygon points="29 27 27.462 30.462 33 36 36 36 36 33 30 27 29 27" style="fill:#89f2ff"/><polygon points="25 36 33 36 27.462 30.462 25 36" style="fill:#6bdfed"/><polygon points="39 36 47 36 39 28 39 36" style="fill:#6bdfed"/><polygon points="51.5 34.5 44 27 39 27 39 28 47 36 52 36 51.5 34.5" style="fill:#89f2ff"/><polygon points="49 27 44 27 51.5 34.5 49 27" style="fill:#abf5ff"/><path d="M39,36V27h9.93a13.155,13.155,0,0,0,.815-2.536A8.011,8.011,0,0,0,47.06,24H29a7.7,7.7,0,0,0-2.15.3L21,36H9s-1,4-3,5a12.627,12.627,0,0,1-4.75.99A8.321,8.321,0,0,0,1,44v2c16.409,0,30.91-3.944,39.8-10Zm-3,0H25l4-9h7Z" style="fill:#75f0bf"/><path d="M63,48H61V46h1V19a9.01,9.01,0,0,0-9-9H38V8H53A11.013,11.013,0,0,1,64,19V47A1,1,0,0,1,63,48Z" style="fill:#85ee89"/><path d="M38,8.456a16.821,16.821,0,0,0-2.733-3.465l.86-2.581c-.073-.046-.14-.1-.217-.14s-.15-.078-.224-.118L34.87,4.6a33.634,33.634,0,0,0-4.421-3.588C30.3,1.007,30.154,1,30,1v.3A33.75,33.75,0,0,1,34.3,4.75H30.117c.018.083.03.168.053.25s.073.165.1.25h4.551a15.342,15.342,0,0,1,2.882,3.713l-.018.021c.1,0,.211.016.313.016Z" style="fill:#daffa8"/><path d="M37.674,9a48.681,48.681,0,0,1-3.5,3.842c-.011-.013-.012-.032-.026-.042L30.269,9.884c-.082.045-.169.078-.249.126s-.136.092-.2.137c.019.021.026.049.053.062l3.9,2.933.016.077a35.678,35.678,0,0,1-2.851,2.475l-3.8-1.9c-.032.077-.067.152-.1.23s-.054.16-.084.238l3.538,1.773a20.838,20.838,0,0,1-4.478,2.7c0,.09-.016.185-.016.274h.64a22.942,22.942,0,0,0,4.223-2.62l.868,2.6c.086,0,.176,0,.259-.013.041,0,.079-.017.119-.022l.119-.057-.945-2.834c.853-.663,1.732-1.426,2.62-2.265l.791,3.934.022.118c.074-.057.152-.1.224-.164s.138-.141.209-.207l-.818-4.08a48.464,48.464,0,0,0,3.654-3.986c0-.138.015-.266.015-.407Z" style="fill:#daffa8"/><path d="M14,52a4,4,0,1,0,4,4A4,4,0,0,0,14,52Zm0,7a3,3,0,1,1,3-3A3,3,0,0,1,14,59Z" style="fill:#63615a"/><path d="M46,52a4,4,0,1,0,4,4A4,4,0,0,0,46,52Zm0,7a3,3,0,1,1,3-3A3,3,0,0,1,46,59Z" style="fill:#63615a"/><path d="M36,26H29a1,1,0,0,0-.914.594l-4,9A1,1,0,0,0,25,37H36a1,1,0,0,0,1-1V27A1,1,0,0,0,36,26Zm0,10H25l4-9h7Z" style="fill:#8f8b81"/><path d="M52.948,35.684l-3-9A1,1,0,0,0,49,26H39a1,1,0,0,0-1,1v9a1,1,0,0,0,1,1H52a1,1,0,0,0,.948-1.316ZM39,36V27H49l3,9Z" style="fill:#8f8b81"/><ellipse cx="46.684" cy="29.695" rx="1.642" ry="2.286" transform="translate(-7.32 41.727) rotate(-45.02)" style="fill:#f6fafd"/><ellipse cx="43.682" cy="32.708" rx="0.825" ry="1.148" transform="translate(-10.331 40.486) rotate(-45.02)" style="fill:#f6fafd"/></g></svg>