<svg xmlns="http://www.w3.org/2000/svg" viewBox="0 0 64 64"><g id="_22-eco_fuel" data-name="22-eco fuel"><path d="M56,12V55a8,8,0,0,1-8,8H16a8,8,0,0,1-8-8V14.3A4.3,4.3,0,0,1,12.3,10H28a2.015,2.015,0,0,0,2-2,7,7,0,0,1,7-7h8A10.994,10.994,0,0,1,56,12ZM49,53V25a2.006,2.006,0,0,0-2-2H17a2.006,2.006,0,0,0-2,2V53a2.006,2.006,0,0,0,2,2H47A2.006,2.006,0,0,0,49,53Zm0-43a4,4,0,0,0-4-4H39a4,4,0,0,0,0,8h6a3.995,3.995,0,0,0,4-4Z" style="fill:#85ee89"/><path d="M22.19,38.9a6.771,6.771,0,0,0,1.21,2.66,6.234,6.234,0,0,0,1.65,1.41A14.139,14.139,0,0,0,32,45a14.139,14.139,0,0,0,6.95-2.03,6.234,6.234,0,0,0,1.65-1.41,6.771,6.771,0,0,0,1.21-2.66A7.447,7.447,0,0,0,42,37.2V33c-3.58,0-6.25.9-7.94,2.32A5.512,5.512,0,0,0,32,39.6a5.512,5.512,0,0,0-2.06-4.28C28.25,33.9,25.58,33,22,33v4.2A7.447,7.447,0,0,0,22.19,38.9ZM49,25V53a2.006,2.006,0,0,1-2,2H17a2.006,2.006,0,0,1-2-2V25a2.006,2.006,0,0,1,2-2H47A2.006,2.006,0,0,1,49,25Z" style="fill:#e8e4d8"/><path d="M27,3V5a2.006,2.006,0,0,1-2,2H24V1h1A2.006,2.006,0,0,1,27,3Z" style="fill:#85ee89"/><polygon points="25 7 25 10 15 10 15 7 16 7 20 7 24 7 25 7" style="fill:#adb2b8"/><rect x="20" y="1" width="4" height="6" style="fill:#1fd8b9"/><rect x="16" y="1" width="4" height="6" style="fill:#85ee89"/><path d="M16,1V7H15a2.006,2.006,0,0,1-2-2V3a2.006,2.006,0,0,1,2-2Z" style="fill:#1fd8b9"/><path d="M48,60H16a8,8,0,0,1-8-8v3a8,8,0,0,0,8,8H48a8,8,0,0,0,8-8V52A8,8,0,0,1,48,60Z" style="fill:#27cc83"/><path d="M25,4H24V7h1a2.006,2.006,0,0,0,2-2V3a1.966,1.966,0,0,0-.071-.5A2,2,0,0,1,25,4Z" style="fill:#4edfa6"/><rect x="20" y="4" width="4" height="3" style="fill:#35c4ba"/><rect x="16" y="4" width="4" height="3" style="fill:#4edfa6"/><path d="M15,4a2,2,0,0,1-1.929-1.5A1.966,1.966,0,0,0,13,3V5a2.006,2.006,0,0,0,2,2h1V4Z" style="fill:#35c4ba"/><path d="M28.98,40.02l-3.93,2.95a6.234,6.234,0,0,1-1.65-1.41,6.771,6.771,0,0,1-1.21-2.66L26,37l.09-.28A36.354,36.354,0,0,1,28.98,40.02Z" style="fill:#4edfa6"/><path d="M38,37l3.81,1.9a6.771,6.771,0,0,1-1.21,2.66,6.234,6.234,0,0,1-1.65,1.41l-3.93-2.95a36.354,36.354,0,0,1,2.89-3.3Z" style="fill:#4edfa6"/><path d="M26,37l-3.81,1.9A7.447,7.447,0,0,1,22,37.2V33a47.638,47.638,0,0,1,4.09,3.72Z" style="fill:#85ee89"/><path d="M28.98,40.02A20.119,20.119,0,0,1,32,45a14.139,14.139,0,0,1-6.95-2.03Z" style="fill:#85ee89"/><path d="M35.02,40.02l3.93,2.95A14.139,14.139,0,0,1,32,45,19.717,19.717,0,0,1,35.02,40.02Z" style="fill:#85ee89"/><path d="M42,33v4.2a7.447,7.447,0,0,1-.19,1.7L38,37l-.09-.28A47.638,47.638,0,0,1,42,33Z" style="fill:#85ee89"/><path d="M29.94,35.32,29,40l-.02.02a36.354,36.354,0,0,0-2.89-3.3l.99-2.96A8.952,8.952,0,0,1,29.94,35.32Z" style="fill:#85ee89"/><path d="M36.92,33.76l.99,2.96a36.354,36.354,0,0,0-2.89,3.3L35,40l-.94-4.68A8.952,8.952,0,0,1,36.92,33.76Z" style="fill:#85ee89"/><path d="M27.08,33.76l-.99,2.96A47.638,47.638,0,0,0,22,33,15.529,15.529,0,0,1,27.08,33.76Z" style="fill:#aaf66f"/><path d="M32,39.6V45a20.119,20.119,0,0,0-3.02-4.98L29,40l.94-4.68A5.512,5.512,0,0,1,32,39.6Z" style="fill:#aaf66f"/><path d="M34.06,35.32,35,40l.02.02A19.717,19.717,0,0,0,32,45V39.6A5.512,5.512,0,0,1,34.06,35.32Z" style="fill:#aaf66f"/><path d="M42,33a47.638,47.638,0,0,0-4.09,3.72l-.99-2.96A15.529,15.529,0,0,1,42,33Z" style="fill:#aaf66f"/><path d="M23.62,38.187l-1.43.713a6.771,6.771,0,0,0,1.21,2.66,6.234,6.234,0,0,0,1.65,1.41l1.585-1.19A8.469,8.469,0,0,1,23.62,38.187Z" style="fill:#35c4ba"/><path d="M37.365,41.78l1.585,1.19a6.234,6.234,0,0,0,1.65-1.41,6.771,6.771,0,0,0,1.21-2.66l-1.43-.713A8.469,8.469,0,0,1,37.365,41.78Z" style="fill:#35c4ba"/><path d="M22,33v4.2a7.447,7.447,0,0,0,.19,1.7l1.43-.713A19.643,19.643,0,0,1,22,33Z" style="fill:#4edfa6"/><path d="M27,42c-.128-.064-.244-.146-.365-.22L25.05,42.97A14.139,14.139,0,0,0,32,45a17.89,17.89,0,0,0-2.125-3.76A1.977,1.977,0,0,1,27,42Z" style="fill:#4edfa6"/><path d="M37,42a1.977,1.977,0,0,1-2.876-.763A17.52,17.52,0,0,0,32,45a14.139,14.139,0,0,0,6.95-2.03l-1.585-1.19C37.244,41.854,37.128,41.936,37,42Z" style="fill:#4edfa6"/><path d="M41.81,38.9A7.447,7.447,0,0,0,42,37.2V33a19.643,19.643,0,0,1-1.62,5.187Z" style="fill:#4edfa6"/><path d="M30.987,36.461a11.256,11.256,0,0,1-1.112,4.779A17.89,17.89,0,0,1,32,45V39.6A5.347,5.347,0,0,0,30.987,36.461Z" style="fill:#4edfa6"/><path d="M33.013,36.461A5.347,5.347,0,0,0,32,39.6V45a17.52,17.52,0,0,1,2.124-3.763A11.238,11.238,0,0,1,33.013,36.461Z" style="fill:#79e78e"/><path d="M42,32a16.5,16.5,0,0,0-5.405.814,9.974,9.974,0,0,0-3.18,1.743A7.077,7.077,0,0,0,32,36.167a7.09,7.09,0,0,0-1.422-1.616,9.97,9.97,0,0,0-3.169-1.736A16.525,16.525,0,0,0,22,32a1,1,0,0,0-1,1v4.2a8.389,8.389,0,0,0,.213,1.914A7.718,7.718,0,0,0,22.6,42.162a7.128,7.128,0,0,0,1.917,1.655A15.114,15.114,0,0,0,32,46a15.111,15.111,0,0,0,7.482-2.184A7.107,7.107,0,0,0,41.4,42.164a7.687,7.687,0,0,0,1.387-3.034A8.406,8.406,0,0,0,43,37.2V33A1,1,0,0,0,42,32Zm0,5.2a7.447,7.447,0,0,1-.19,1.7,6.771,6.771,0,0,1-1.21,2.66,6.234,6.234,0,0,1-1.65,1.41A14.139,14.139,0,0,1,32,45a14.139,14.139,0,0,1-6.95-2.03,6.234,6.234,0,0,1-1.65-1.41,6.771,6.771,0,0,1-1.21-2.66A7.447,7.447,0,0,1,22,37.2V33a15.529,15.529,0,0,1,5.08.76,8.952,8.952,0,0,1,2.86,1.56A5.512,5.512,0,0,1,32,39.6a5.512,5.512,0,0,1,2.06-4.28,8.952,8.952,0,0,1,2.86-1.56A15.529,15.529,0,0,1,42,33Z" style="fill:#fffbed"/><path d="M41.853,38.647l-3.648-1.825-.012-.035A47.69,47.69,0,0,1,42,33.326V33c-.141,0-.27.012-.408.014-1.365,1.123-2.552,2.208-3.579,3.235l-.763-2.29v-.3c-.108.034-.225.061-.33.1-.059.02-.112.045-.17.066V34a.234.234,0,0,0,.013.079l.857,2.573c-.965.992-1.791,1.93-2.478,2.787l-.861-4.285c-.073.056-.152.109-.221.166s-.14.132-.211.2l.889,4.445A23.087,23.087,0,0,0,32,44.347a23.087,23.087,0,0,0-2.738-4.385l.886-4.448c-.07-.064-.134-.132-.208-.194s-.151-.112-.225-.169l-.858,4.288c-.686-.858-1.513-1.8-2.477-2.787l.857-2.573A.234.234,0,0,0,27.25,34v-.174c-.058-.021-.111-.046-.17-.066-.1-.036-.222-.063-.33-.1v.3l-.763,2.29c-1.027-1.027-2.214-2.112-3.579-3.235-.138,0-.267-.014-.408-.014v.326a47.69,47.69,0,0,1,3.807,3.461l-.012.035-3.648,1.825c.016.084.023.17.043.253s.047.167.068.25l3.854-1.926c.025-.013.034-.042.054-.062.963,1,1.778,1.948,2.455,2.81L24.85,42.8c-.008.006-.006.019-.013.027.071.047.139.1.213.143s.155.087.23.132l3.645-2.733a21.183,21.183,0,0,1,2.8,4.619c.091,0,.184.012.273.012s.182-.01.273-.012a21.183,21.183,0,0,1,2.8-4.619L38.72,43.1c.075-.045.157-.086.23-.132s.142-.1.213-.143c-.007-.008,0-.021-.013-.027l-3.771-2.828c.677-.862,1.492-1.806,2.455-2.81.02.02.029.049.054.062l3.854,1.926c.021-.083.049-.165.068-.25S41.837,38.731,41.853,38.647Z" style="fill:#daffa8"/><path d="M47,3.5A2.5,2.5,0,0,1,44.5,6H45a4,4,0,0,1,2.83,6.83,4.111,4.111,0,0,1-1.141.782,17.085,17.085,0,0,0,3.224-1.027A6.911,6.911,0,0,0,54,6.219V5.684A10.975,10.975,0,0,0,45,1h-.5A2.5,2.5,0,0,1,47,3.5Z" style="fill:#79e78e"/><path d="M32.087,12.585A17.292,17.292,0,0,0,39,14a4,4,0,1,1,0-8h-.5a2.5,2.5,0,0,1,0-5H37a7,7,0,0,0-7,7,1.955,1.955,0,0,1-.59,1.41,1.916,1.916,0,0,1-.457.337A6.706,6.706,0,0,0,32.087,12.585Z" style="fill:#79e78e"/><path d="M36,3.5A2.5,2.5,0,0,0,38.5,6h6a2.5,2.5,0,0,0,0-5h-6A2.5,2.5,0,0,0,36,3.5Z" style="fill:#94f27a"/><path d="M52,53H49a2.006,2.006,0,0,1-2,2H17a2.006,2.006,0,0,1-2-2V25a2.006,2.006,0,0,1,2-2V10H12.3A4.3,4.3,0,0,0,8,14.3V52a8,8,0,0,0,8,8H48a8,8,0,0,0,8-8V49A4,4,0,0,1,52,53Z" style="fill:#4edfa6"/><path d="M15,25V53a2.006,2.006,0,0,0,2,2H47a2.006,2.006,0,0,0,2-2H43A26,26,0,0,1,17,27V23A2.006,2.006,0,0,0,15,25Z" style="fill:#d8d4c9"/><path d="M47,23H17a2.006,2.006,0,0,0-2,2V53a2.006,2.006,0,0,0,2,2H47a2.006,2.006,0,0,0,2-2V25A2.006,2.006,0,0,0,47,23Zm1,30a1,1,0,0,1-1,1H17a1,1,0,0,1-1-1V25a1,1,0,0,1,1-1H47a1,1,0,0,1,1,1Z" style="fill:#18ae88"/><ellipse cx="42.684" cy="27.695" rx="1.642" ry="2.286" transform="translate(-7.077 38.311) rotate(-45.02)" style="fill:#f6fafd"/><ellipse cx="33.682" cy="30.708" rx="0.825" ry="1.148" transform="translate(-11.848 32.826) rotate(-45.02)" style="fill:#f6fafd"/><ellipse cx="31.427" cy="28.208" rx="0.413" ry="0.574" transform="translate(-10.741 30.499) rotate(-45.02)" style="fill:#f6fafd"/><rect x="15" y="7" width="10" height="2" style="fill:#8f8b81"/></g></svg>