<svg xmlns="http://www.w3.org/2000/svg" viewBox="0 0 64 64"><g id="_23-garbage_truck" data-name="23-garbage truck"><rect x="1" y="49" width="57" height="2" rx="1" ry="1" style="fill:#595751"/><rect x="60" y="49" width="3" height="2" rx="1" ry="1" style="fill:#595751"/><circle cx="13" cy="45" r="2" style="fill:#595751"/><circle cx="44" cy="45" r="2" style="fill:#595751"/><path d="M17.59,43A5.106,5.106,0,0,1,18,45,5,5,0,0,1,8,45a5.064,5.064,0,0,1,.39-1.95,5.01,5.01,0,0,1,9.2-.05ZM15,45a2,2,0,1,0-2,2A2.006,2.006,0,0,0,15,45Z" style="fill:#75726a"/><path d="M48.61,43.05A5.064,5.064,0,0,1,49,45a4.983,4.983,0,1,1-.39-1.95ZM46,45a2,2,0,1,0-2,2A2.006,2.006,0,0,0,46,45Z" style="fill:#75726a"/><polygon points="37 43 37 46 23 46 23 43 29 43 37 43" style="fill:#63615a"/><polygon points="29 39 29 43 23 43 21 43 21 39 29 39" style="fill:#109459"/><path d="M37,39v4H29V39H21v4H17.59a5.01,5.01,0,0,0-9.2.05L8,43H6l.73-2.9A4.007,4.007,0,0,1,7.8,38.2,4.088,4.088,0,0,1,10.69,37H19V36H37Z" style="fill:#858178"/><polygon points="63 32 63 44 57 44 56 43 53 40 63 32" style="fill:#23b574"/><polygon points="50.95 36 50.2 33.86 63 25 63 32 53 40 52 39 50.95 36" style="fill:#27cc83"/><polygon points="57.62 18.28 63 25 50.2 33.86 47.36 25.74 57.62 18.28" style="fill:#23b574"/><polygon points="55 15 57.62 18.28 47.36 25.74 46.04 21.98 45 19 45 16 45 14 55 15" style="fill:#27cc83"/><polygon points="50.2 33.86 50.95 36 46 36 46 22 46.04 21.98 47.36 25.74 50.2 33.86" style="fill:#096653"/><polygon points="45 19 46.04 21.98 46 22 46 36 39 36 39 16 45 16 45 19" style="fill:#0e825b"/><polygon points="39 16 39 36 37 36 30 36 30 16 39 16" style="fill:#0e825b"/><polygon points="30 16 30 36 23 36 23 21 23 20 23 16 30 16" style="fill:#0e825b"/><polygon points="23 21 23 36 19 36 19 25 22 20 23 20 23 21" style="fill:#005951"/><path d="M19,36v1H10.69A4.088,4.088,0,0,0,7.8,38.2a4.007,4.007,0,0,0-1.07,1.9L6,43H1V40a1.955,1.955,0,0,1,.59-1.41A1.955,1.955,0,0,1,3,38V37H6V34H8l3-4h5V23h1a2.006,2.006,0,0,1,2,2Z" style="fill:#1f9e65"/><path d="M16,23v7H11L8,34H3l4.43-9.95A2,2,0,0,1,9.19,23Z" style="fill:#89f2ff"/><rect x="3" y="34" width="3" height="3" style="fill:#ffb844"/><path d="M46,36h4.95L52,39H49a7.25,7.25,0,0,0-10,0H37V36h9Z" style="fill:#005951"/><path d="M53,40l3,3H48.59a5.011,5.011,0,0,0-9.18,0H37V39h2a7.25,7.25,0,0,1,10,0h3Z" style="fill:#63615a"/><rect x="19" y="36" width="18" height="1" style="fill:#b5b1a4"/><polygon points="57 37 56.934 36.852 53 40 56 43 57 44 63 44 63 37 57 37" style="fill:#1f9e65"/><polygon points="54.333 30.999 50.2 33.86 50.95 36 52 39 53 40 56.934 36.852 54.333 30.999" style="fill:#23b574"/><polygon points="50.863 23.193 47.36 25.74 50.2 33.86 54.333 30.999 50.863 23.193" style="fill:#1f9e65"/><polygon points="49 19 49 14.4 45 14 45 16 45 19 46.04 21.98 47.36 25.74 50.863 23.193 49 19" style="fill:#23b574"/><polygon points="58.246 19.061 57.62 18.28 56.993 17.496 47.014 24.755 47.36 25.74 47.704 26.725 58.214 19.085 58.246 19.061" style="fill:#109459"/><path d="M62.373,24.217,49.858,32.881l.342.979.342.975a.28.28,0,0,0,.03-.015L63,26.216V25Z" style="fill:#109459"/><path d="M52.375,39.219a.82.82,0,0,0-.071.085l.7.7.712.712L63,33.281V31.014a.982.982,0,0,0-.625.205Z" style="fill:#109459"/><polygon points="25 16 25 34 28 34 28 16 30 16 30 36 23 36 23 16 25 16" style="fill:#096653"/><polygon points="45 16 44 16 44 34 41 34 41 16 39 16 39 36 46 36 46 21.865 45 19 45 16" style="fill:#096653"/><polygon points="30 16 32 16 32 34 37 34 37 16 39 16 39 36 30 36 30 16" style="fill:#096653"/><path d="M53,40l-1-1H50l2,2H49.191a5.991,5.991,0,0,0-10.382,0H37v2h2.41a5.063,5.063,0,0,1,1.612-2,5.022,5.022,0,0,1,7.568,2H56Z" style="fill:#595751"/><path d="M44,42a3,3,0,1,0,3,3A3,3,0,0,0,44,42Zm0,5a2,2,0,1,1,2-2A2.006,2.006,0,0,1,44,47Z" style="fill:#63615a"/><path d="M13,42a3,3,0,1,0,3,3A3,3,0,0,0,13,42Zm0,5a2,2,0,1,1,2-2A2.006,2.006,0,0,1,13,47Z" style="fill:#63615a"/><path d="M25,46h0a2,2,0,0,1,2-2H37V43H23v3Z" style="fill:#474640"/><rect x="21" y="39" width="8" height="2" style="fill:#23b574"/><path d="M30,40V38H20v2H17.463a5.98,5.98,0,0,0-8.926,0H6.761c-.009.034-.023.066-.031.1L6,43H8l.39.05a5.01,5.01,0,0,1,9.2-.05H21V39h8v4h8V40Z" style="fill:#63615a"/><path d="M17,23H16V35H11c-6,0-7,6-7,6H1v2H6l.73-2.9A4.007,4.007,0,0,1,7.8,38.2,4.088,4.088,0,0,1,10.69,37H19V25A2.006,2.006,0,0,0,17,23Z" style="fill:#0e825b"/><polygon points="3 34 6 34 8 34 8.429 33.429 4.848 29.848 3 34" style="fill:#89f2ff"/><polygon points="4.848 29.848 8.429 33.429 11 30 6.697 25.697 4.848 29.848" style="fill:#6bdfed"/><path d="M9.023,23.023A1.99,1.99,0,0,0,7.43,24.05L6.7,25.7,11,30h5Z" style="fill:#89f2ff"/><path d="M16,23H9.19c-.057,0-.111.018-.167.023L16,30Z" style="fill:#abf5ff"/><polygon points="50.863 23.193 50.448 22.257 47.014 24.755 47.36 25.74 47.704 26.725 51.279 24.127 50.863 23.193" style="fill:#0a705b"/><path d="M54.333,31l-.413-.93-4.062,2.812.342.979.342.975a.28.28,0,0,0,.03-.015l4.175-2.89Z" style="fill:#0a705b"/><path d="M57,37l-.066-.148-.42-.945-4.139,3.312a.82.82,0,0,0-.071.085l.7.7.712.712L58.352,37Z" style="fill:#0a705b"/><rect x="22" y="14" width="2" height="22" style="fill:#109459"/><rect x="29" y="14" width="2" height="22" style="fill:#109459"/><rect x="38" y="14" width="2" height="22" style="fill:#109459"/><polygon points="45 19 45 36 47 36 47 24.715 46.04 21.98 45 19" style="fill:#109459"/><rect x="22" y="34" width="2" height="2" style="fill:#0e825b"/><rect x="29" y="34" width="2" height="2" transform="translate(60 70) rotate(180)" style="fill:#0e825b"/><rect x="38" y="34" width="2" height="2" transform="translate(78 70) rotate(180)" style="fill:#0e825b"/><rect x="45" y="34" width="2" height="2" transform="translate(92 70) rotate(180)" style="fill:#0e825b"/><rect x="23" y="14" width="1" height="20" style="fill:#23b574"/><rect x="30" y="14" width="1" height="20" style="fill:#23b574"/><rect x="39" y="14" width="1" height="20" style="fill:#23b574"/><ellipse cx="57.684" cy="22.695" rx="1.642" ry="2.286" transform="translate(0.856 47.455) rotate(-45.02)" style="fill:#f6fafd"/><ellipse cx="13.682" cy="24.708" rx="0.825" ry="1.148" transform="translate(-13.467 16.92) rotate(-45.02)" style="fill:#f6fafd"/><ellipse cx="55.682" cy="25.708" rx="0.825" ry="1.148" transform="translate(-1.862 46.922) rotate(-45.02)" style="fill:#f6fafd"/><ellipse cx="11.427" cy="26.208" rx="0.413" ry="0.574" transform="translate(-15.189 15.766) rotate(-45.02)" style="fill:#f6fafd"/><path d="M36.054,21.054,37.928,23.5H37a.5.5,0,0,0,0,1h2a.5.5,0,0,0,.354-.146l1-1a.5.5,0,0,0-.708-.708l-.63.631L36.851,20.45a2.278,2.278,0,0,0-3.695-.009l-2.55,3.25a.5.5,0,1,0,.788.618L33.95,21.05A1.313,1.313,0,0,1,36.054,21.054Z" style="fill:#97e691"/><path d="M42,27.676l-1.61-1.99a.5.5,0,0,0-.778.628l1.6,1.978a1.481,1.481,0,0,1,.288.888,1.224,1.224,0,0,1-1.09,1.32H36.934l.815-1.223a.5.5,0,1,0-.832-.554l-1.333,2c-.006.009,0,.02-.009.029A.494.494,0,0,0,35.5,31v0a.494.494,0,0,0,.075.246c0,.009,0,.02.009.029l1.334,2a.5.5,0,0,0,.416.223.494.494,0,0,0,.277-.084.5.5,0,0,0,.139-.693L36.934,31.5H40.41a2.217,2.217,0,0,0,2.09-2.32A2.491,2.491,0,0,0,42,27.676Z" style="fill:#97e691"/><path d="M34,30.5H29.59a1.224,1.224,0,0,1-1.09-1.32,1.472,1.472,0,0,1,.278-.875l1.036-1.281.378,1.135a.5.5,0,0,0,.475.342.511.511,0,0,0,.158-.025.5.5,0,0,0,.317-.633l-.667-2c0-.009-.013-.014-.017-.023a.493.493,0,0,0-.144-.208s-.01,0-.015-.008-.023-.01-.034-.017a.48.48,0,0,0-.234-.076c-.011,0-.02-.01-.031-.01H27a.45.45,0,0,0-.073.015.37.37,0,0,0-.048.009.5.5,0,0,0-.34.284A.488.488,0,0,0,26.5,26a.5.5,0,0,0,.279.443A.474.474,0,0,0,27,26.5h1.953l-.962,1.188A2.485,2.485,0,0,0,27.5,29.18a2.216,2.216,0,0,0,2.09,2.32H34a.5.5,0,0,0,0-1Z" style="fill:#97e691"/></g></svg>