<svg xmlns="http://www.w3.org/2000/svg" viewBox="0 0 64 64"><g id="_06-eco_hourglass" data-name="06-eco hourglass"><path d="M52,61v2H12V61a2.006,2.006,0,0,1,2-2H50A2.006,2.006,0,0,1,52,61Z" style="fill:#79e78e"/><path d="M52,1V3a2.006,2.006,0,0,1-2,2H14a2.006,2.006,0,0,1-2-2V1Z" style="fill:#79e78e"/><path d="M38.56,29.75A17.93,17.93,0,0,0,50,13V5H14v8a18.424,18.424,0,0,0,.48,4.16A18.035,18.035,0,0,0,25.44,29.75a2.4,2.4,0,0,1,0,4.5A17.988,17.988,0,0,0,14,51v8h3V51h4V45h4V55h3V50h5v3h3V47h5v4h6v8h3V51A17.988,17.988,0,0,0,38.56,34.25a2.4,2.4,0,0,1,0-4.5ZM45,8c1.1,0,2,1.34,2,3s-.9,3-2,3-2-1.34-2-3S43.9,8,45,8ZM39,8c1.1,0,2,1.34,2,3s-.9,3-2,3-2-1.34-2-3S37.9,8,39,8ZM34,31l.25,2.03a16.2,16.2,0,0,0,1.14,4.04A7.729,7.729,0,0,1,36,40a3.689,3.689,0,0,1-4,4,3.689,3.689,0,0,1-4-4,7.729,7.729,0,0,1,.61-2.93,16.2,16.2,0,0,0,1.14-4.04L30,31a4.17,4.17,0,0,0-3-4c-4.77-1.44-8-5-10-10l2.47-6.58a2.186,2.186,0,0,1,4.08-.04l1.29,3.21,1.2-1.44a3.206,3.206,0,0,1,4.92,0L35,17H47c-2,5-5.23,8.56-10,10A4.329,4.329,0,0,0,34,31Z" style="fill:#d5d8db"/><polygon points="41 51 47 51 47 59 17 59 17 51 21 51 21 45 25 45 25 55 28 55 28 50 33 50 33 53 36 53 36 47 41 47 41 51" style="fill:#c9c6bc"/><path d="M45,17h2c-2,5-5.23,8.56-10,10a4.329,4.329,0,0,0-3,4l.25,2.03a16.2,16.2,0,0,0,1.14,4.04A7.729,7.729,0,0,1,36,40a3.689,3.689,0,0,1-4,4,3.689,3.689,0,0,1-4-4,7.729,7.729,0,0,1,.61-2.93,16.2,16.2,0,0,0,1.14-4.04L30,31a4.17,4.17,0,0,0-3-4c-4.77-1.44-8-5-10-10H45ZM32,25c3.87,0,7-1.68,7-5-3.87,0-7,1.68-7,5,0-3.32-3.13-5-7-5C25,23.32,28.13,25,32,25Z" style="fill:#1fd8b9"/><ellipse cx="45" cy="11" rx="2" ry="3" style="fill:#79e78e"/><ellipse cx="39" cy="11" rx="2" ry="3" style="fill:#79e78e"/><path d="M39,20c0,3.32-3.13,5-7,5C32,21.68,35.13,20,39,20Z" style="fill:#c6ff79"/><path d="M24.84,13.59l1.2-1.44a3.206,3.206,0,0,1,4.92,0L35,17H22Z" style="fill:#79e78e"/><path d="M25,20c3.87,0,7,1.68,7,5C28.13,25,25,23.32,25,20Z" style="fill:#c6ff79"/><path d="M24.84,13.59,22,17H17l2.47-6.58a2.186,2.186,0,0,1,4.08-.04Z" style="fill:#35c4ba"/><path d="M36.542,37.124a2.735,2.735,0,0,1-.985-.455,2.775,2.775,0,0,1-.516-.511q.165.459.349.912A7.729,7.729,0,0,1,36,40a3.689,3.689,0,0,1-4,4,3.689,3.689,0,0,1-4-4,7.729,7.729,0,0,1,.61-2.93q.184-.453.349-.912a2.775,2.775,0,0,1-.516.511,2.735,2.735,0,0,1-.985.455C20.982,38.718,17,43.974,17,51h4V45h4V55h3V50h5v3h3V47h5v4h6C47,43.974,43.018,38.718,36.542,37.124Z" style="fill:#eef2f5"/><path d="M19.47,10.42a2.186,2.186,0,0,1,4.08-.04l1.29,3.21,1.2-1.44a3.206,3.206,0,0,1,4.92,0L35,17H47V11c0,1.66-.9,3-2,3s-2-1.34-2-3,.9-3,2-3,2,1.34,2,3V5H17V17ZM39,8c1.1,0,2,1.34,2,3s-.9,3-2,3-2-1.34-2-3S37.9,8,39,8Z" style="fill:#eef2f5"/><path d="M15.5,55a1.962,1.962,0,0,1-1.5-.92V59h3V54.08A1.962,1.962,0,0,1,15.5,55Z" style="fill:#bec1c4"/><path d="M48.5,55a1.962,1.962,0,0,1-1.5-.92V59h3V54.08A1.962,1.962,0,0,1,48.5,55Z" style="fill:#bec1c4"/><rect x="17" y="57" width="30" height="2" style="fill:#a9a599"/><path d="M50,61H14a2.006,2.006,0,0,0-2,2H52A2.006,2.006,0,0,0,50,61Z" style="fill:#1fd8b9"/><path d="M50,3H14a2,2,0,0,0-1.721,1A2,2,0,0,0,14,5H50a2,2,0,0,0,1.721-1A2,2,0,0,0,50,3Z" style="fill:#1fd8b9"/><rect x="19.5" y="3" width="18" height="2" rx="1" ry="1" style="fill:#35c4ba"/><rect x="40.5" y="3" width="4" height="2" rx="0.977" ry="0.977" style="fill:#35c4ba"/><rect x="20" y="61" width="18" height="2" rx="1" ry="1" style="fill:#35c4ba"/><rect x="41" y="61" width="4" height="2" rx="0.977" ry="0.977" style="fill:#35c4ba"/><path d="M26.32,26.747C21.93,25.181,18.9,21.752,17,17a3.665,3.665,0,0,0-2.354.773,18.031,18.031,0,0,0,10.7,11.938C26.178,29.355,26.964,28.554,26.32,26.747Z" style="fill:#eef2f5"/><path d="M46.95,17.112c-1.976,4.872-5.136,8.353-9.764,9.819-.576,1.839.389,2.58,1.262,2.873.038-.017.073-.039.112-.054a18.052,18.052,0,0,0,10.432-10.8C48.959,18.089,48.115,17.372,46.95,17.112Z" style="fill:#eef2f5"/><rect x="17" y="5" width="30" height="3" style="fill:#e6eaed"/><path d="M43.184,9.76A4.23,4.23,0,0,0,43,11c0,1.66.9,3,2,3a1.872,1.872,0,0,0,1.563-1.151A4.149,4.149,0,0,1,43.184,9.76Z" style="fill:#4edfa6"/><path d="M37.184,9.76A4.23,4.23,0,0,0,37,11c0,1.66.9,3,2,3a1.872,1.872,0,0,0,1.563-1.151A4.149,4.149,0,0,1,37.184,9.76Z" style="fill:#4edfa6"/><path d="M44.5,13.893V17h1V13.893a1.222,1.222,0,0,1-1,0Z" style="fill:#858178"/><path d="M38.5,13.893V17h1V13.893a1.222,1.222,0,0,1-1,0Z" style="fill:#858178"/><path d="M32,27A14.992,14.992,0,0,1,17.872,17H17c2,5,5.23,8.56,10,10a4.17,4.17,0,0,1,3,4l-.25,2.03a16.2,16.2,0,0,1-1.14,4.04A7.729,7.729,0,0,0,28,40a3.689,3.689,0,0,0,4,4,3.689,3.689,0,0,0,4-4,7.729,7.729,0,0,0-.61-2.93,16.2,16.2,0,0,1-1.14-4.04L34,31a4.329,4.329,0,0,1,3-4c4.77-1.44,8-5,10-10h-.872A14.992,14.992,0,0,1,32,27Z" style="fill:#35c4ba"/><path d="M32,41a3.985,3.985,0,0,1-3.776-2.732A7.356,7.356,0,0,0,28,40a3.689,3.689,0,0,0,4,4,3.689,3.689,0,0,0,4-4,7.356,7.356,0,0,0-.224-1.732A3.985,3.985,0,0,1,32,41Z" style="fill:#01a2b0"/><ellipse cx="33.682" cy="37.708" rx="0.825" ry="1.148" transform="translate(-16.799 34.878) rotate(-45.02)" style="fill:#f6fafd"/><ellipse cx="21.684" cy="20.695" rx="1.642" ry="2.286" transform="translate(-8.282 21.405) rotate(-45.02)" style="fill:#f6fafd"/><ellipse cx="24.682" cy="23.708" rx="0.825" ry="1.148" transform="translate(-9.535 24.408) rotate(-45.02)" style="fill:#f6fafd"/><rect x="47" y="5" width="3" height="3" style="fill:#bec1c4"/><rect x="14" y="5" width="3" height="3" style="fill:#bec1c4"/></g></svg>