<svg xmlns="http://www.w3.org/2000/svg" viewBox="0 0 64 64"><g id="_07-eco_light" data-name="07-eco light"><path d="M13,43v3a2.006,2.006,0,0,1-2,2H7a2.006,2.006,0,0,1-2-2V43Z" style="fill:#35c4ba"/><path d="M15,40v1a2.006,2.006,0,0,1-2,2H5a2.006,2.006,0,0,1-2-2V40Z" style="fill:#a9a599"/><path d="M17,34v4a2.006,2.006,0,0,1-2,2H3a2.006,2.006,0,0,1-2-2V34H17Z" style="fill:#4edfa6"/><path d="M17,34H1v4a1.966,1.966,0,0,0,.071.5A2,2,0,0,1,3,37H15a2,2,0,0,1,1.929,1.5A1.966,1.966,0,0,0,17,38Z" style="fill:#85ee89"/><path d="M7,14V34H3V14c0-1.1.6-2,1.33-2H5.67C6.4,12,7,12.9,7,14Z" style="fill:#ffdf64"/><path d="M15,14V34H11V14c0-1.1.6-2,1.33-2h1.34C14.4,12,15,12.9,15,14Z" style="fill:#ffdf64"/><path d="M36.69,18.15A59.261,59.261,0,0,1,41,27s-4.21-2.74-9.87-6.06Z" style="fill:#4edfa6"/><path d="M33.11,12.79,33,13l-7,5c-.31-.17-.6-.35-.89-.53a13.06,13.06,0,0,1-5.06-5.49L29,8l.03-.07A58.766,58.766,0,0,1,33.11,12.79Z" style="fill:#4edfa6"/><path d="M36.69,18.15l-5.56,2.79C29.52,19.99,27.79,18.99,26,18l7-5,.11-.21A58.676,58.676,0,0,1,36.69,18.15Z" style="fill:#85ee89"/><path d="M29.03,7.93,29,8l-8.95,3.98A11.587,11.587,0,0,1,19,7V6a7.651,7.651,0,0,1,2-5A43.983,43.983,0,0,1,29.03,7.93Z" style="fill:#85ee89"/><path d="M35.91,7.19l-2.8,5.6a58.766,58.766,0,0,0-4.08-4.86l1.93-4.82A15.053,15.053,0,0,1,35.91,7.19Z" style="fill:#85ee89"/><path d="M39.02,12.99,39,13l-2,5-.31.15a58.676,58.676,0,0,0-3.58-5.36l2.8-5.6A19.458,19.458,0,0,1,39.02,12.99Z" style="fill:#aaf66f"/><path d="M30.96,3.11,29.03,7.93A43.983,43.983,0,0,0,21,1,21.508,21.508,0,0,1,30.96,3.11Z" style="fill:#aaf66f"/><path d="M39.02,12.99A42.292,42.292,0,0,1,41,27a59.261,59.261,0,0,0-4.31-8.85L37,18l2-5Z" style="fill:#85ee89"/><path d="M45.31,18.15l5.56,2.79C45.21,24.26,41,27,41,27A59.261,59.261,0,0,1,45.31,18.15Z" style="fill:#4edfa6"/><path d="M53,8l8.95,3.98a13.06,13.06,0,0,1-5.06,5.49c-.29.18-.58.36-.89.53l-7-5-.11-.21a58.766,58.766,0,0,1,4.08-4.86Z" style="fill:#4edfa6"/><path d="M49,13l7,5c-1.79.99-3.52,1.99-5.13,2.94l-5.56-2.79a58.676,58.676,0,0,1,3.58-5.36Z" style="fill:#85ee89"/><path d="M61,1a7.651,7.651,0,0,1,2,5V7a11.587,11.587,0,0,1-1.05,4.98L53,8l-.03-.07A43.983,43.983,0,0,1,61,1Z" style="fill:#85ee89"/><path d="M41,27a42.292,42.292,0,0,1,1.98-14.01L43,13l2,5,.31.15A59.261,59.261,0,0,0,41,27Z" style="fill:#85ee89"/><path d="M51.04,3.11l1.93,4.82a58.766,58.766,0,0,0-4.08,4.86l-2.8-5.6A15.053,15.053,0,0,1,51.04,3.11Z" style="fill:#85ee89"/><path d="M46.09,7.19l2.8,5.6a58.676,58.676,0,0,0-3.58,5.36L45,18l-2-5-.02-.01A19.458,19.458,0,0,1,46.09,7.19Z" style="fill:#aaf66f"/><path d="M61,1a43.983,43.983,0,0,0-8.03,6.93L51.04,3.11A21.508,21.508,0,0,1,61,1Z" style="fill:#aaf66f"/><path d="M31.13,20.94C36.79,24.26,41,27,41,27a59.261,59.261,0,0,0-4.31-8.85Z" style="fill:#35c4ba"/><path d="M25,13a13.012,13.012,0,0,1-1.874-2.388L20.05,11.98a13.06,13.06,0,0,0,5.06,5.49c.29.18.58.36.89.53l3.707-2.648A9.849,9.849,0,0,1,25,13Z" style="fill:#35c4ba"/><path d="M36.034,17.076a39.393,39.393,0,0,0-6.327-1.724L26,18c1.79.99,3.52,1.99,5.13,2.94l5.56-2.79C36.473,17.784,36.253,17.43,36.034,17.076Z" style="fill:#4edfa6"/><path d="M21,1a7.651,7.651,0,0,0-2,5V7a11.587,11.587,0,0,0,1.05,4.98l3.076-1.368A15.915,15.915,0,0,1,21,1Z" style="fill:#4edfa6"/><path d="M36.69,18.15,37,18l.134-.336a8.925,8.925,0,0,0-1.1-.588C36.253,17.43,36.473,17.784,36.69,18.15Z" style="fill:#4edfa6"/><path d="M37.134,17.664,37,18l-.31.15A59.261,59.261,0,0,1,41,27C41,21.656,39.4,19.084,37.134,17.664Z" style="fill:#4edfa6"/><path d="M41,27s4.21-2.74,9.87-6.06l-5.56-2.79A59.261,59.261,0,0,0,41,27Z" style="fill:#35c4ba"/><path d="M57,13a9.849,9.849,0,0,1-4.707,2.352L56,18c.31-.17.6-.35.89-.53a13.06,13.06,0,0,0,5.06-5.49l-3.076-1.368A13.012,13.012,0,0,1,57,13Z" style="fill:#35c4ba"/><path d="M45.966,17.076c-.219.354-.439.708-.656,1.074l5.56,2.79c1.61-.95,3.34-1.95,5.13-2.94l-3.707-2.648A39.393,39.393,0,0,0,45.966,17.076Z" style="fill:#4edfa6"/><path d="M61,1a15.915,15.915,0,0,1-2.126,9.612L61.95,11.98A11.587,11.587,0,0,0,63,7V6A7.651,7.651,0,0,0,61,1Z" style="fill:#4edfa6"/><path d="M45,18l-.134-.336C42.605,19.084,41,21.656,41,27a59.261,59.261,0,0,1,4.31-8.85Z" style="fill:#4edfa6"/><path d="M45,18l.31.15c.217-.366.437-.72.656-1.074a8.925,8.925,0,0,0-1.1.588Z" style="fill:#4edfa6"/><path d="M13,43H5v3a1.966,1.966,0,0,0,.071.5A2,2,0,0,1,7,45h4a2,2,0,0,1,1.929,1.5A1.966,1.966,0,0,0,13,46Z" style="fill:#01a2b0"/><path d="M15,40H3v1a1.975,1.975,0,0,0,.279,1A2,2,0,0,1,5,41h8a2,2,0,0,1,1.721,1A1.975,1.975,0,0,0,15,41Z" style="fill:#8f8b81"/><path d="M13,30V13a.988.988,0,0,1,.858-.971A.856.856,0,0,0,13.67,12H12.33c-.73,0-1.33.9-1.33,2V34h4V32A2,2,0,0,1,13,30Z" style="fill:#ffb844"/><path d="M5,30V13a.988.988,0,0,1,.858-.971A.856.856,0,0,0,5.67,12H4.33C3.6,12,3,12.9,3,14V34H7V32A2,2,0,0,1,5,30Z" style="fill:#ffb844"/><rect x="3" y="34" width="12" height="3" rx="1.5" ry="1.5" style="fill:#aaf66f"/><path d="M16.682,60.858a1,1,0,0,0-1.413.05A3.15,3.15,0,0,1,13,62H12a3,3,0,0,1-3-3V48H7V59a5.006,5.006,0,0,0,5,5h1a5.117,5.117,0,0,0,3.731-1.728A1,1,0,0,0,16.682,60.858Z" style="fill:#35c4ba"/><path d="M19,64a5.117,5.117,0,0,1-3.731-1.728,1,1,0,1,1,1.462-1.364A3.15,3.15,0,0,0,19,62a3.15,3.15,0,0,0,2.269-1.092,1,1,0,1,1,1.462,1.364A5.117,5.117,0,0,1,19,64Z" style="fill:#35c4ba"/><path d="M25,64a5.117,5.117,0,0,1-3.731-1.728,1,1,0,1,1,1.462-1.364,2.9,2.9,0,0,0,4.538,0,1,1,0,1,1,1.462,1.364A5.117,5.117,0,0,1,25,64Z" style="fill:#35c4ba"/><path d="M40.174,26.469A.969.969,0,0,0,40,27V57a5.006,5.006,0,0,1-5,5H31a3.15,3.15,0,0,1-2.269-1.092,1,1,0,1,0-1.462,1.364A5.117,5.117,0,0,0,31,64h4a7.008,7.008,0,0,0,7-7V27a.969.969,0,0,0-.174-.531C41.3,26.807,41,27,41,27S40.7,26.807,40.174,26.469Z" style="fill:#35c4ba"/><path d="M9,9A1,1,0,0,1,8,8V4a1,1,0,0,1,2,0V8A1,1,0,0,1,9,9Z" style="fill:#fff978"/><path d="M4.5,10.5a1,1,0,0,1-.707-.293l-3-3A1,1,0,0,1,2.207,5.793l3,3A1,1,0,0,1,4.5,10.5Z" style="fill:#fff978"/><path d="M14.5,10.5a1,1,0,0,1-.707-1.707l3-3a1,1,0,1,1,1.414,1.414l-3,3A1,1,0,0,1,14.5,10.5Z" style="fill:#fff978"/><path d="M16,62.59a1,1,0,0,1-.724-.31A9.123,9.123,0,0,1,13,56c0-2.89.939-6,3-6s3,3.11,3,6a9.123,9.123,0,0,1-2.276,6.28A1,1,0,0,1,16,62.59Zm0-10.564c-.329.264-1,1.636-1,3.974a7.746,7.746,0,0,0,1,3.939A7.746,7.746,0,0,0,17,56C17,53.662,16.329,52.29,16,52.026Z" style="fill:#4edfa6"/><path d="M22,62.59a1,1,0,0,1-.724-.31A9.123,9.123,0,0,1,19,56c0-2.89.939-6,3-6s3,3.11,3,6a9.123,9.123,0,0,1-2.276,6.28A1,1,0,0,1,22,62.59Zm0-10.564c-.329.264-1,1.636-1,3.974a7.746,7.746,0,0,0,1,3.939A7.746,7.746,0,0,0,23,56C23,53.662,22.329,52.29,22,52.026Z" style="fill:#4edfa6"/><path d="M28,62.59a1,1,0,0,1-.724-.31A9.123,9.123,0,0,1,25,56c0-2.89.939-6,3-6s3,3.11,3,6a9.123,9.123,0,0,1-2.276,6.28A1,1,0,0,1,28,62.59Zm0-10.564c-.329.264-1,1.636-1,3.974a7.746,7.746,0,0,0,1,3.939A7.746,7.746,0,0,0,29,56C29,53.662,28.329,52.29,28,52.026Z" style="fill:#4edfa6"/><path d="M40.99,26.32a59.917,59.917,0,0,0-3.951-8.061l.07-.034a.248.248,0,0,0,.123-.132l1.9-4.753c-.039-.115-.073-.237-.113-.35-.026-.076-.059-.145-.086-.22a.239.239,0,0,0-.166.137L36.8,17.817l-.021.011A59.4,59.4,0,0,0,33.4,12.764l2.677-5.345c-.057-.074-.107-.156-.165-.229s-.123-.135-.181-.206l-2.668,5.344c-1.169-1.535-2.423-3.031-3.743-4.449l1.86-4.641c-.075-.041-.142-.089-.218-.128s-.154-.071-.23-.108L28.942,7.477a46.888,46.888,0,0,0-7.469-6.466C21.315,1.008,21.161,1,21,1c0,0-.067.072-.157.176.011.011.012.028.026.037a43.913,43.913,0,0,1,7.772,6.673l-8.685,3.86c.034.077.059.158.094.234s.077.148.114.223L29,8.274a58.77,58.77,0,0,1,3.813,4.544l-.007.013L25.854,17.8c-.029.022-.035.056-.053.086.068.039.13.08.2.118s.159.09.241.136l6.872-4.909c1.139,1.534,2.22,3.153,3.221,4.825l-5.309,2.661-.13.06c-.009,0-.01.015-.018.02l.253.147.252.148L36.59,18.48a59.306,59.306,0,0,1,4.042,8.283L41,27C41,26.769,40.992,26.548,40.99,26.32Z" style="fill:#daffa8"/><path d="M61.131,1.213c.014-.009.015-.026.026-.037C61.067,1.072,61,1,61,1c-.161,0-.315.008-.473.011a46.888,46.888,0,0,0-7.469,6.466L51.275,3.024,51.267,3c-.074.037-.153.069-.227.107s-.141.086-.215.126L52.681,7.88c-1.319,1.417-2.572,2.912-3.741,4.445L46.316,7.083l-.046-.1c-.058.071-.123.133-.18.205s-.106.152-.162.225L48.6,12.768a58.971,58.971,0,0,0-3.382,5.059l-.022-.01-1.964-4.91a.236.236,0,0,0-.166-.137c-.027.075-.06.144-.086.22-.04.113-.074.235-.113.35l1.9,4.753a.248.248,0,0,0,.123.132l.07.035a59.728,59.728,0,0,0-3.951,8.06c0,.228-.01.449-.01.68l.368-.237a59.36,59.36,0,0,1,4.04-8.279l5.206,2.607.256-.151.253-.147c-.008,0-.009-.016-.018-.02L45.669,18.05c1-1.672,2.08-3.29,3.218-4.823l6.872,4.909c.082-.046.159-.091.241-.136s.131-.079.2-.118c-.018-.03-.024-.064-.053-.086l-6.952-4.965-.007-.013A58.974,58.974,0,0,1,53,8.273l8.836,3.93c.037-.075.079-.147.114-.223s.059-.156.093-.232L53.358,7.886A44.04,44.04,0,0,1,61.131,1.213Z" style="fill:#daffa8"/><rect x="7" y="48" width="2" height="4" style="fill:#01a2b0"/><rect x="7.5" y="23.5" width="13" height="2" rx="1" ry="1" transform="translate(-10.5 38.5) rotate(-90)" style="fill:#ffefb3"/><rect x="12.5" y="14.5" width="3" height="2" rx="0.977" ry="0.977" transform="translate(-1.5 29.5) rotate(-90)" style="fill:#ffefb3"/><rect x="-0.5" y="23.5" width="13" height="2" rx="1" ry="1" transform="translate(-18.5 30.5) rotate(-90)" style="fill:#ffefb3"/><rect x="4.5" y="14.5" width="3" height="2" rx="0.977" ry="0.977" transform="translate(-9.5 21.5) rotate(-90)" style="fill:#ffefb3"/></g></svg>