<svg xmlns="http://www.w3.org/2000/svg" viewBox="0 0 64 64"><g id="_04-eco_light" data-name="04-eco light"><path d="M26,61V60l.03-.15a4.776,4.776,0,0,0,1.21.15h9.52a4.776,4.776,0,0,0,1.21-.15L38,60v1a2.006,2.006,0,0,1-2,2H28A2.006,2.006,0,0,1,26,61Z" style="fill:#01cadb"/><path d="M32,57c4.97,0,9,0,9-2v1.44a3.693,3.693,0,0,1-3.03,3.41,4.776,4.776,0,0,1-1.21.15H27.24a4.776,4.776,0,0,1-1.21-.15A3.693,3.693,0,0,1,23,56.44V55C23,57,27.03,57,32,57Z" style="fill:#ffdf64"/><path d="M23,55V52l.03-.09C24.2,52.44,26.69,53,32,53c5,0,7.5-.5,8.75-1H41v3c0,2-4.03,2-9,2S23,57,23,55Z" style="fill:#ffce54"/><path d="M20,43H44l.16.2a3.908,3.908,0,0,0-1.4,2.5L42,51s0,.5-1.25,1S37,53,32,53c-5.31,0-7.8-.56-8.97-1.09C22,51.44,22,51,22,51l-.76-5.3a3.908,3.908,0,0,0-1.4-2.5Z" style="fill:#129c78"/><path d="M44,30a2.006,2.006,0,0,0-2,2,2,2,0,0,0,0,4h4a2,2,0,0,0,0-4A2.006,2.006,0,0,0,44,30ZM30,9a2.006,2.006,0,0,0,2,2h4a2,2,0,0,0,0-4,2,2,0,0,0-4,0A2.006,2.006,0,0,0,30,9Zm-3.28,6.56a3.992,3.992,0,1,0-6.77,4.01A3.986,3.986,0,0,0,18.54,25l.02.17A8.5,8.5,0,0,0,14,27a11.579,11.579,0,0,0,4.09,5.88,11.029,11.029,0,0,0,5.93,2.09c.32.02.64.03.98.03,3,0,7-.79,7-3a8.115,8.115,0,0,0-.58-1.35l.43-.26A8.188,8.188,0,0,0,33,32a12.5,12.5,0,0,0,9.42-4.13,15.241,15.241,0,0,0,1.34-1.61,10.328,10.328,0,0,0,1.25-2.25A12.724,12.724,0,0,0,46,19c0-5-1-7-1-7a22.127,22.127,0,0,0-7.89,1.27,11.8,11.8,0,0,0-4.23,2.61c-.17.16-.32.33-.48.5l-.4-.37A4.949,4.949,0,0,0,29,15,4.868,4.868,0,0,0,26.72,15.56ZM32,43H20l-.16.2a.689.689,0,0,0-.13-.11A25.663,25.663,0,0,1,9,24C9,9,19.3,1,32,1S55,9,55,24A25.663,25.663,0,0,1,44.29,43.09a.689.689,0,0,0-.13.11L44,43Z" style="fill:#89f2ff"/><path d="M26.72,15.56A4.941,4.941,0,0,0,24.1,19H22a3.971,3.971,0,0,0-2.05.57A3.948,3.948,0,0,1,19,17a3.993,3.993,0,0,1,7.72-1.44Z" style="fill:#ffce54"/><path d="M46,32a2,2,0,0,1,0,4H42a2,2,0,0,1,0-4,2,2,0,0,1,4,0Z" style="fill:#01cadb"/><path d="M36,11H32a2,2,0,0,1,0-4,2,2,0,0,1,4,0,2,2,0,0,1,0,4Z" style="fill:#6bdfed"/><path d="M36,7a2,2,0,0,1,0,4H32a2,2,0,0,1,0-4,2,2,0,0,1,4,0Z" style="fill:#01cadb"/><path d="M31.42,30.65a10.438,10.438,0,0,0-5.38-4.75A13.4,13.4,0,0,0,21,25a17.505,17.505,0,0,0-2.44.17L18.54,25A4,4,0,0,1,22,19h2.1a4.941,4.941,0,0,1,2.62-3.44A4.868,4.868,0,0,1,29,15a4.949,4.949,0,0,1,3,1.01l.4.37a9.47,9.47,0,0,0-2.1,4.06A10.807,10.807,0,0,0,30,23a14.594,14.594,0,0,0,1.85,7.39Z" style="fill:#01cadb"/><path d="M26.89,30.18l-2.87,4.79a11.029,11.029,0,0,1-5.93-2.09L21,29v-.49C23.29,29.08,25.27,29.66,26.89,30.18Z" style="fill:#85ee89"/><path d="M21,28.51V29l-2.91,3.88A11.579,11.579,0,0,1,14,27C16.56,27.47,18.91,27.99,21,28.51Z" style="fill:#4edfa6"/><path d="M26.89,30.18C30.17,31.21,32,32,32,32c0,2.21-4,3-7,3-.34,0-.66-.01-.98-.03Z" style="fill:#4edfa6"/><path d="M26,26l1,4-.11.18c-1.62-.52-3.6-1.1-5.89-1.67V25a13.4,13.4,0,0,1,5.04.9Z" style="fill:#aaf66f"/><path d="M14,27a8.5,8.5,0,0,1,4.56-1.83A17.505,17.505,0,0,1,21,25v3.51C18.91,27.99,16.56,27.47,14,27Z" style="fill:#85ee89"/><path d="M31.42,30.65A8.115,8.115,0,0,1,32,32s-1.83-.79-5.11-1.82L27,30l-1-4,.04-.1A10.438,10.438,0,0,1,31.42,30.65Z" style="fill:#85ee89"/><path d="M42.42,27.87A12.5,12.5,0,0,1,33,32a14.1,14.1,0,0,1,1.16-5.96Z" style="fill:#4edfa6"/><path d="M39,18l7,1a12.724,12.724,0,0,1-.99,5.01L45,24l-8.86-1.97A33.611,33.611,0,0,1,39,18Z" style="fill:#4edfa6"/><path d="M36.14,22.03,45,24l.01.01a10.328,10.328,0,0,1-1.25,2.25,15.241,15.241,0,0,1-1.34,1.61l-8.26-1.83A23.79,23.79,0,0,1,36.14,22.03Z" style="fill:#85ee89"/><path d="M45,12s1,2,1,7l-7-1A47.678,47.678,0,0,1,45,12Z" style="fill:#85ee89"/><path d="M34.16,26.04A14.1,14.1,0,0,0,33,32a8.188,8.188,0,0,1-1.15-1.61A14.594,14.594,0,0,1,30,23a10.807,10.807,0,0,1,.3-2.56L34,26Z" style="fill:#85ee89"/><path d="M37.11,13.27,39,18a33.611,33.611,0,0,0-2.86,4.03L36,22l-3-6-.12-.12A11.8,11.8,0,0,1,37.11,13.27Z" style="fill:#85ee89"/><path d="M33,16l3,6,.14.03a23.79,23.79,0,0,0-1.98,4.01L34,26l-3.7-5.56a9.47,9.47,0,0,1,2.1-4.06c.16-.17.31-.34.48-.5Z" style="fill:#aaf66f"/><path d="M45,12a47.678,47.678,0,0,0-6,6l-1.89-4.73A22.127,22.127,0,0,1,45,12Z" style="fill:#aaf66f"/><path d="M23,11a1,1,0,0,1-1-1V9a1,1,0,0,1,2,0v1A1,1,0,0,1,23,11Z" style="fill:#ffce54"/><path d="M16,19H15a1,1,0,0,1,0-2h1a1,1,0,0,1,0,2Z" style="fill:#ffce54"/><path d="M18,14a1,1,0,0,1-.707-.293l-1-1a1,1,0,0,1,1.414-1.414l1,1A1,1,0,0,1,18,14Z" style="fill:#ffce54"/><path d="M28,14a1,1,0,0,1-.707-1.707l1-1a1,1,0,0,1,1.414,1.414l-1,1A1,1,0,0,1,28,14Z" style="fill:#ffce54"/><path d="M38.861,46.331a40.671,40.671,0,0,0-6.007.076,32.358,32.358,0,0,1-5.633.719,32.542,32.542,0,0,1-3.874-.677,9.011,9.011,0,0,0-2.02-.143L22,51s0,.44,1.03.91C24.2,52.44,26.69,53,32,53c5,0,7.5-.5,8.75-1S42,51,42,51l.683-4.761A36.368,36.368,0,0,1,38.861,46.331Z" style="fill:#a9a599"/><path d="M32,31a1,1,0,0,0-.372.075A7.9,7.9,0,0,1,32,32a2.024,2.024,0,0,1-1,1.66V43h2V32a7.115,7.115,0,0,1-.738-.947A.953.953,0,0,0,32,31Z" style="fill:#129c78"/><path d="M19.536,30.952,18.09,32.88a11.029,11.029,0,0,0,5.93,2.09l1.424-2.377A17.823,17.823,0,0,1,19.536,30.952Z" style="fill:#4edfa6"/><path d="M14,27a11.579,11.579,0,0,0,4.09,5.88l1.446-1.928A18.358,18.358,0,0,1,14,27Z" style="fill:#35c4ba"/><path d="M25.444,32.593,24.02,34.97c.32.02.64.03.98.03,3,0,7-.79,7-3A18.172,18.172,0,0,1,25.444,32.593Z" style="fill:#35c4ba"/><path d="M33.651,27.551A12.7,12.7,0,0,0,33,32a12.5,12.5,0,0,0,9.42-4.13l-4.982-1.1A9.019,9.019,0,0,1,33.651,27.551Z" style="fill:#35c4ba"/><path d="M41.486,23.219,45,24l.01.01A12.724,12.724,0,0,0,46,19l-2.326-.332A18.2,18.2,0,0,1,41.486,23.219Z" style="fill:#35c4ba"/><path d="M41.486,23.219a9.982,9.982,0,0,1-4.048,3.547l4.982,1.1a15.241,15.241,0,0,0,1.34-1.61,10.328,10.328,0,0,0,1.25-2.25L45,24Z" style="fill:#4edfa6"/><path d="M46,19c0-5-1-7-1-7a28.513,28.513,0,0,1-1.326,6.668Z" style="fill:#4edfa6"/><path d="M33.651,27.551a13.014,13.014,0,0,1-3.125-.423A13.321,13.321,0,0,0,31.85,30.39,8.188,8.188,0,0,0,33,32,12.7,12.7,0,0,1,33.651,27.551Z" style="fill:#4edfa6"/><path d="M38,56.8V58a2,2,0,0,1-2,2h.76a4.776,4.776,0,0,0,1.21-.15A3.693,3.693,0,0,0,41,56.44V55C41,56.071,39.837,56.566,38,56.8Z" style="fill:#fff978"/><path d="M26,58V56.8c-1.837-.231-3-.726-3-1.8v1.44a3.693,3.693,0,0,0,3.03,3.41,4.776,4.776,0,0,0,1.21.15H28A2,2,0,0,1,26,58Z" style="fill:#ffce54"/><path d="M26,56.8V52.659a11.2,11.2,0,0,1-2.97-.749L23,52v3C23,56.071,24.163,56.566,26,56.8Z" style="fill:#ffb844"/><path d="M40.75,52a12.216,12.216,0,0,1-2.75.656V56.8c1.837-.231,3-.726,3-1.8V52Z" style="fill:#ffdf64"/><path d="M38,60l-.03-.15a4.776,4.776,0,0,1-1.21.15H27.24a4.776,4.776,0,0,1-1.21-.15L26,60v1a1.975,1.975,0,0,0,.279,1A2,2,0,0,1,28,61h8a2,2,0,0,1,1.721,1A1.975,1.975,0,0,0,38,61Z" style="fill:#01bccc"/><path d="M31.878,31.654c-.671-.27-2.221-.867-4.489-1.587,0-.03.021-.058.013-.088l-.975-3.9c-.131-.058-.25-.124-.387-.178-.017-.007-.037-.012-.054-.019a.234.234,0,0,0-.068.22l.951,3.8c-1.749-.556-3.581-1.076-5.459-1.547V25.04c0-.009-.008-.014-.009-.022-.136,0-.261-.018-.4-.018-.026,0-.048,0-.074,0,0,.014-.016.022-.016.037v3.2c-2.185-.537-4.425-1.021-6.672-1.434A2.867,2.867,0,0,0,14,27s.026.1.078.262c.014.006.021.021.037.024,2.289.42,4.572.913,6.8,1.463v.208l-2.9,3.862c.027.02.05.041.077.061.106.079.22.153.331.229L21.36,29.19a.246.246,0,0,0,.05-.15v-.165c1.809.457,3.574.957,5.262,1.492L23.95,34.9l.1.067c.142.009.29.009.434.013l2.675-4.465c2.718.861,4.417,1.55,4.811,1.714A1.613,1.613,0,0,0,32,32S31.961,31.869,31.878,31.654Z" style="fill:#daffa8"/><path d="M46,18.764l-6.347-.907a48.108,48.108,0,0,1,5.5-5.477A3.83,3.83,0,0,0,45,12c-.063,0-.118.006-.18.007a48.449,48.449,0,0,0-5.58,5.56l-1.766-4.414c-.117.042-.249.073-.364.117-.038.014-.071.032-.108.046L38.874,18a34.388,34.388,0,0,0-2.609,3.654l-2.881-5.725a.25.25,0,1,0-.447.224l3,6c0,.007.014.007.018.014a24.057,24.057,0,0,0-1.739,3.506l-3.549-5.333L30.434,20c-.043.148-.1.291-.134.442-.016.067-.022.138-.037.206l3.689,5.533c.013.019.038.024.056.039A14.957,14.957,0,0,0,32.9,31.893c.063.07.1.107.1.107.141,0,.269-.018.407-.022a14.133,14.133,0,0,1,1.078-5.61L42.2,28.084c.071-.073.148-.141.217-.214s.122-.14.186-.209L34.663,25.9a23.527,23.527,0,0,1,1.761-3.545L44.9,24.239c.033-.078.078-.15.109-.229s.056-.161.088-.24L36.7,21.9a33.8,33.8,0,0,1,2.568-3.594l6.72.96c0-.09.013-.178.013-.268S46,18.844,46,18.764Z" style="fill:#daffa8"/><path d="M41.341,43a6.011,6.011,0,0,0-.856,2.327l-.67,4.687c-.653.289-2.675.9-8.107.9s-7.454-.607-8.107-.9l-.67-4.687A6.011,6.011,0,0,0,22.075,43H20l-.16.2a3.908,3.908,0,0,1,1.4,2.5L22,51s0,.44,1.03.91C24.2,52.44,26.69,53,32,53c5,0,7.5-.5,8.75-1S42,51,42,51l.76-5.3a3.908,3.908,0,0,1,1.4-2.5L44,43ZM23.708,50.91v0Zm0,0v0Zm0-.005h0Zm16,.01v0Zm0,0v0Zm0-.005h0Z" style="fill:#ffb844"/><path d="M32,1C19.3,1,9,9,9,24A25.663,25.663,0,0,0,19.71,43.09a.689.689,0,0,1,.13.11L20,43h2.075a5.839,5.839,0,0,0-1.465-1.6c-9.716-7.23-9.9-17.077-9.9-17.486,0-12.757,8.243-21,21-21s21,8.243,21,20.993c0,.416-.186,10.263-9.9,17.493A5.827,5.827,0,0,0,41.341,43H44l.16.2a.689.689,0,0,1,.13-.11A25.663,25.663,0,0,0,55,24C55,9,44.7,1,32,1Z" style="fill:#ffdf64"/><rect x="36" y="47" width="3" height="1" rx="0.5" ry="0.5" style="fill:#8f8b81"/><rect x="32.5" y="49" width="2" height="1" rx="0.5" ry="0.5" style="fill:#8f8b81"/><rect x="34" y="48" width="2" height="1" rx="0.5" ry="0.5" style="fill:#8f8b81"/><rect x="25.5" y="48" width="2" height="1" rx="0.5" ry="0.5" style="fill:#8f8b81"/><path d="M46,19a12.775,12.775,0,0,1-.911,4.794c-.017.388-.046.675-.065.823a3,3,0,0,0,5.95.779C51.8,19.233,49.421,6.839,34.553,4.051a2.96,2.96,0,0,0-3.528,3.215A1.974,1.974,0,0,1,32,7a2,2,0,0,1,4,0,2,2,0,0,1,.732,3.856A14.291,14.291,0,0,1,39.881,12.5,25.3,25.3,0,0,1,45,12S46,14,46,19Z" style="fill:#fff"/><path d="M38,9a2.006,2.006,0,0,0-2-2,2,2,0,0,0-4,0,1.974,1.974,0,0,0-.975.266,2.99,2.99,0,0,0,2.422,2.683,19.338,19.338,0,0,1,3.285.907A2,2,0,0,0,38,9Z" style="fill:#89f2ff"/><path d="M46,19c0-5-1-7-1-7a25.3,25.3,0,0,0-5.119.5,11.854,11.854,0,0,1,2.288,2.085,12.054,12.054,0,0,1,2.275,4.194,14.919,14.919,0,0,1,.645,5.016A12.775,12.775,0,0,0,46,19Z" style="fill:#c6ff79"/><path d="M29.933,6.7a3.006,3.006,0,0,0-3.566-2.3,11.532,11.532,0,0,0-2.709.915,2.993,2.993,0,0,0-1.582,3.306A1,1,0,0,1,24,9v1a1,1,0,0,1-.29.7,2.975,2.975,0,0,0,2.632-.02,5.537,5.537,0,0,1,1.291-.416A3,3,0,0,0,29.933,6.7Z" style="fill:#fff"/><path d="M24,9a1,1,0,0,0-1.924-.377A2.891,2.891,0,0,0,23.71,10.7,1,1,0,0,0,24,10Z" style="fill:#fff978"/></g></svg>