<svg xmlns="http://www.w3.org/2000/svg" viewBox="0 0 64 64"><g id="_29-wind" data-name="29-wind"><circle cx="19" cy="19" r="14" style="fill:#53d5e3"/><circle cx="49" cy="28" r="14" style="fill:#53d5e3"/><circle cx="19" cy="19" r="9" style="fill:#01abba"/><circle cx="49" cy="28" r="10" style="fill:#01abba"/><circle cx="19" cy="19" r="3" style="fill:#1fd8b9"/><circle cx="49" cy="28" r="3" style="fill:#1fd8b9"/><path d="M25,12.793a.5.5,0,0,1-.333-.127,8.445,8.445,0,0,0-2.828-1.68.5.5,0,1,1,.334-.943,9.46,9.46,0,0,1,3.16,1.877.5.5,0,0,1-.333.873Z" style="fill:#abf5ff"/><path d="M10.513,22.5a.5.5,0,0,1-.472-.333,9.567,9.567,0,0,1-.306-5.279.5.5,0,0,1,.975.22A8.561,8.561,0,0,0,10.5,19a8.475,8.475,0,0,0,.484,2.835.5.5,0,0,1-.3.639A.518.518,0,0,1,10.513,22.5Z" style="fill:#abf5ff"/><path d="M23.127,27.5a.5.5,0,0,1-.23-.944,8.581,8.581,0,0,0,3.719-3.779.5.5,0,0,1,.9.446,9.6,9.6,0,0,1-4.157,4.221A.493.493,0,0,1,23.127,27.5Z" style="fill:#abf5ff"/><path d="M6,24.709a.5.5,0,0,1-.464-.313A14.518,14.518,0,0,1,10.029,7.607a.5.5,0,0,1,.619.786,13.517,13.517,0,0,0-4.183,15.63.5.5,0,0,1-.278.65A.508.508,0,0,1,6,24.709Z" style="fill:#0189ab"/><path d="M17,33.358c-.024,0-.048,0-.072,0a14.38,14.38,0,0,1-5.181-1.795.5.5,0,1,1,.5-.866,13.333,13.333,0,0,0,4.821,1.67.5.5,0,0,1-.07.995Z" style="fill:#0189ab"/><path d="M24,32.581a.5.5,0,0,1-.179-.967,13.554,13.554,0,0,0,7.715-7.593.5.5,0,1,1,.928.371,14.556,14.556,0,0,1-8.285,8.156A.51.51,0,0,1,24,32.581Z" style="fill:#0189ab"/><path d="M32.676,16.49a.5.5,0,0,1-.489-.392A13.539,13.539,0,0,0,20.93,5.637a.5.5,0,0,1-.425-.566.508.508,0,0,1,.565-.425A14.545,14.545,0,0,1,33.164,15.883a.5.5,0,0,1-.381.6A.563.563,0,0,1,32.676,16.49Z" style="fill:#0189ab"/><path d="M57.66,23.5a.5.5,0,0,1-.432-.249,9.522,9.522,0,0,0-7.277-4.7A.5.5,0,0,1,49.5,18a.491.491,0,0,1,.547-.447,10.523,10.523,0,0,1,8.042,5.192.5.5,0,0,1-.182.684A.5.5,0,0,1,57.66,23.5Z" style="fill:#abf5ff"/><path d="M40,32.862a.5.5,0,0,1-.45-.282,10.517,10.517,0,0,1,.356-9.83.5.5,0,1,1,.866.5,9.516,9.516,0,0,0-.322,8.894.5.5,0,0,1-.231.668A.493.493,0,0,1,40,32.862Z" style="fill:#abf5ff"/><path d="M55,36.5a.5.5,0,0,1-.3-.9,9.553,9.553,0,0,0,3.01-3.8.5.5,0,0,1,.916.4A10.538,10.538,0,0,1,55.3,36.4.491.491,0,0,1,55,36.5Z" style="fill:#abf5ff"/><path d="M36.348,34.5a.5.5,0,0,1-.452-.285,14.37,14.37,0,0,1-1.36-5.181A.5.5,0,0,1,35,28.5a.509.509,0,0,1,.534.464A13.358,13.358,0,0,0,36.8,33.785a.5.5,0,0,1-.451.715Z" style="fill:#0189ab"/><path d="M47,42.358c-.023,0-.048,0-.071,0A14.52,14.52,0,0,1,40.717,39.9a.5.5,0,1,1,.572-.82,13.5,13.5,0,0,0,5.781,2.281.5.5,0,0,1-.069.995Z" style="fill:#0189ab"/><path d="M54,41.581a.5.5,0,0,1-.179-.967,13.529,13.529,0,0,0,7.793-7.793.5.5,0,0,1,.934.358,14.532,14.532,0,0,1-8.369,8.369A.51.51,0,0,1,54,41.581Z" style="fill:#0189ab"/><path d="M62.42,24.5a.5.5,0,0,1-.48-.357,13.521,13.521,0,0,0-11.011-9.5.5.5,0,0,1,.142-.991A14.528,14.528,0,0,1,62.9,23.856a.5.5,0,0,1-.337.623A.535.535,0,0,1,62.42,24.5Z" style="fill:#0189ab"/><path d="M51,30.229V63H47V36l1.87-5.011A.57.57,0,0,0,49,31,2.965,2.965,0,0,0,51,30.229Z" style="fill:#c9c6bc"/><path d="M21,21.228V63H17V25l1.06-3.16A2.653,2.653,0,0,0,19,22,2.965,2.965,0,0,0,21,21.228Z" style="fill:#c9c6bc"/><path d="M19,16a2.946,2.946,0,0,1,.366.037L20.993,2.872a1.771,1.771,0,0,0-1.7-1.865,1.9,1.9,0,0,0-1.9,1.06L11,14l5.463,3.414A2.99,2.99,0,0,1,19,16Z" style="fill:#85ee89"/><path d="M36.363,23.048,25,14l-3.706,3.088A2.956,2.956,0,0,1,21.75,20.2l13.122,5.7a1.558,1.558,0,0,0,2.036-.97A1.7,1.7,0,0,0,36.363,23.048Z" style="fill:#85ee89"/><path d="M16.214,20.1,2.091,25.654A1.734,1.734,0,0,0,2.825,29L16,28l2.055-6.167A2.989,2.989,0,0,1,16.214,20.1Z" style="fill:#85ee89"/><circle cx="19" cy="19" r="2" style="fill:#18ae88"/><circle cx="49" cy="28" r="2" style="fill:#18ae88"/><path d="M49,25a2.956,2.956,0,0,1,.775.114L50.994,14.6a1.477,1.477,0,0,0-1.363-1.591,1.5,1.5,0,0,0-1.519.9L43,24l3.47,2.4A2.992,2.992,0,0,1,49,25Z" style="fill:#85ee89"/><path d="M62.432,30.54,54,24l-2.577,2.244a2.938,2.938,0,0,1,.279,3.038l9.4,3.631a1.415,1.415,0,0,0,1.814-.808A1.361,1.361,0,0,0,62.432,30.54Z" style="fill:#85ee89"/><path d="M46.4,29.469,35.9,33.994a1.561,1.561,0,0,0-.9,1.45A1.473,1.473,0,0,0,36.5,37L47,36l1.87-5.013A2.982,2.982,0,0,1,46.4,29.469Z" style="fill:#85ee89"/><path d="M42,7.5H40a.5.5,0,0,1,0-1h2a.5.5,0,0,1,0,1Z" style="fill:#53d5e3"/><path d="M37,7.5H33A3.5,3.5,0,1,1,36.5,4a.5.5,0,0,1-1,0A2.5,2.5,0,1,0,33,6.5h4a.5.5,0,0,1,0,1Z" style="fill:#53d5e3"/><path d="M41,16.5a3.5,3.5,0,0,1,0-7H57a.5.5,0,0,1,0,1H41A2.5,2.5,0,1,0,43.5,13a.5.5,0,0,1,1,0A3.5,3.5,0,0,1,41,16.5Z" style="fill:#53d5e3"/><path d="M62,7.5H45a.5.5,0,0,1,0-1H62a.5.5,0,0,1,0,1Z" style="fill:#53d5e3"/><path d="M62,10.5H60a.5.5,0,0,1,0-1h2a.5.5,0,0,1,0,1Z" style="fill:#53d5e3"/><path d="M21,24V21.228A2.965,2.965,0,0,1,19,22a2.653,2.653,0,0,1-.94-.16L17,25V63h2V26A2,2,0,0,1,21,24Z" style="fill:#b5b1a4"/><path d="M51,33V30.228A2.965,2.965,0,0,1,49,31a.57.57,0,0,1-.13-.01L47,36V63h2V35A2,2,0,0,1,51,33Z" style="fill:#b5b1a4"/><path d="M19.958,1.183,17,14H11l5.463,3.414A2.99,2.99,0,0,1,19,16a2.946,2.946,0,0,1,.366.037L20.993,2.872A1.7,1.7,0,0,0,19.958,1.183Z" style="fill:#4edfa6"/><path d="M25,14l-3.706,3.088A2.956,2.956,0,0,1,21.75,20.2l13.122,5.7a1.558,1.558,0,0,0,2.029-.954L25,18Z" style="fill:#4edfa6"/><path d="M16.214,20.1,2.091,25.654a1.737,1.737,0,0,0-.951,2.3L15,23l1,5,2.055-6.167A2.989,2.989,0,0,1,16.214,20.1Z" style="fill:#4edfa6"/><path d="M49.985,13.083,48,24H43l3.47,2.4A2.992,2.992,0,0,1,49,25a2.956,2.956,0,0,1,.775.114L50.994,14.6A1.466,1.466,0,0,0,49.985,13.083Z" style="fill:#4edfa6"/><path d="M54,24l-2.577,2.244a2.938,2.938,0,0,1,.279,3.038l9.4,3.631a1.421,1.421,0,0,0,1.721-.618L54,27Z" style="fill:#4edfa6"/><path d="M46.4,29.469,35.9,33.994a1.561,1.561,0,0,0-.9,1.45,1.684,1.684,0,0,0,.088.521L45,32l2,4,1.87-5.013A2.982,2.982,0,0,1,46.4,29.469Z" style="fill:#4edfa6"/><ellipse cx="49.427" cy="27.208" rx="0.413" ry="0.574" transform="translate(-4.757 42.938) rotate(-45.02)" style="fill:#f6fafd"/><ellipse cx="19.427" cy="18.208" rx="0.413" ry="0.574" transform="translate(-7.185 19.08) rotate(-45.02)" style="fill:#f6fafd"/></g></svg>