<svg xmlns="http://www.w3.org/2000/svg" viewBox="0 0 64 64"><g id="_15-eco_fuel" data-name="15-eco fuel"><polygon points="42 15 42 21 39 21 39 11 42 11 42 15" style="fill:#8f8b81"/><path d="M63,61v2H1V61a2.006,2.006,0,0,1,2-2H61A2.006,2.006,0,0,1,63,61Z" style="fill:#b5b1a4"/><path d="M39,21v6H3V5A4,4,0,0,1,7,1H35a4,4,0,0,1,4,4V21Zm-5,2V5H8V23Z" style="fill:#d8d4c9"/><path d="M39,27V59H3V27Z" style="fill:#79e78e"/><rect x="8" y="5" width="26" height="18" style="fill:#eef2f5"/><path d="M61,61H3a2,2,0,0,1-1.721-1A1.975,1.975,0,0,0,1,61v2H63V61a1.975,1.975,0,0,0-.279-1A2,2,0,0,1,61,61Z" style="fill:#858178"/><polygon points="63 11 63 13 62 15 52 15 51 13 51 11 54 11 60 11 63 11" style="fill:#ffdf64"/><path d="M54,21.46A3.987,3.987,0,0,1,52,18V15H62v3a4.01,4.01,0,0,1-4,4H56A3.989,3.989,0,0,1,54,21.46Z" style="fill:#ffb844"/><path d="M60,21.46V23a2.006,2.006,0,0,1-2,2H56a2.006,2.006,0,0,1-2-2V21.46A3.989,3.989,0,0,0,56,22h2A3.989,3.989,0,0,0,60,21.46Z" style="fill:#29b479"/><polygon points="29 38 15 55 21 43 13 44 26 31 22 39 29 38" style="fill:#ffdf64"/><rect x="13" y="61" width="30" height="2" rx="1" ry="1" style="fill:#6e6b63"/><rect x="45" y="61" width="6" height="2" rx="0.977" ry="0.977" style="fill:#6e6b63"/><path d="M8,5V23H34V5ZM32,21H10V7H32Z" style="fill:#c9c6bc"/><path d="M27,55A20,20,0,0,1,7,35V27H3V59H39V55Z" style="fill:#1fd8b9"/><path d="M35,1H7A4,4,0,0,0,3,5V27H5V5A2,2,0,0,1,7,3H35a2,2,0,0,1,2,2V27h2V5A4,4,0,0,0,35,1Z" style="fill:#a9a599"/><rect x="3" y="27" width="2" height="32" style="fill:#28be77"/><rect x="37" y="27" width="2" height="32" style="fill:#28be77"/><polyline points="5 29 5 27 37 27 37 29" style="fill:#bdf474"/><polygon points="40 11 40 19 42 19 42 21 39 21 39 11 40 11" style="fill:#63615a"/><ellipse cx="28.684" cy="10.695" rx="1.642" ry="2.286" transform="translate(0.844 23.425) rotate(-45.02)" style="fill:#f6fafd"/><ellipse cx="25.682" cy="12.708" rx="0.825" ry="1.148" transform="translate(-1.461 21.891) rotate(-45.02)" style="fill:#f6fafd"/><rect x="25" y="16" width="6" height="2" style="fill:#63615a"/><rect x="11" y="16" width="6" height="2" style="fill:#63615a"/><path d="M60,21.46A3.989,3.989,0,0,1,58,22H56a3.989,3.989,0,0,1-2-.54V23a1.975,1.975,0,0,0,.279,1A2,2,0,0,1,56,23h2a2,2,0,0,1,1.721,1A1.975,1.975,0,0,0,60,23Z" style="fill:#129c78"/><polygon points="52 15 62 15 63 13 51 13 52 15" style="fill:#ffb844"/><path d="M54,19a2,2,0,0,1,2-2h6V15H52v3a4.01,4.01,0,0,0,4,4h1A3,3,0,0,1,54,19Z" style="fill:#fea740"/><rect x="52" y="11" width="10" height="2" rx="1" ry="1" style="fill:#fffcbd"/><rect x="59" y="6" width="2" height="5" style="fill:#85ee89"/><rect x="53" y="6" width="2" height="5" style="fill:#85ee89"/><polygon points="60 6 60 10 61 10 61 11 59 11 59 6 60 6" style="fill:#18ae88"/><polygon points="54 6 54 10 55 10 55 11 53 11 53 6 54 6" style="fill:#18ae88"/><path d="M29.872,37.51a1,1,0,0,0-1.014-.5l-5.11.73L26.9,31.447a1,1,0,0,0-1.6-1.154l-13,13a1,1,0,0,0,.831,1.7l6.146-.768L14.105,54.553a1,1,0,0,0,1.667,1.083l14-17A1,1,0,0,0,29.872,37.51ZM15,55l6-12-8,1L26,31l-4,8,7-1Z" style="fill:#fffbed"/><path d="M56,25V45a1,1,0,0,1-1,1,.978.978,0,0,1-.712-.306A.957.957,0,0,1,54,45V29.5a3.5,3.5,0,1,0-7,0V45a1,1,0,0,1-1,1,.978.978,0,0,1-.712-.306A.957.957,0,0,1,45,45V18a3,3,0,0,0-3-3v2a1,1,0,0,1,1,1V45a3.017,3.017,0,0,0,3,3,3,3,0,0,0,3-3V29.5a1.5,1.5,0,0,1,3,0V45a3.017,3.017,0,0,0,3,3,3,3,0,0,0,3-3V25Z" style="fill:#79e78e"/><rect x="56" y="25" width="2" height="3" style="fill:#27cc83"/></g></svg>