<svg xmlns="http://www.w3.org/2000/svg" viewBox="0 0 64 64"><g id="_20-reuse" data-name="20-reuse"><path d="M25,45V30.83A6.835,6.835,0,0,1,27,26a6.835,6.835,0,0,0,2-4.83V20h6v1.17A6.835,6.835,0,0,0,37,26a6.835,6.835,0,0,1,2,4.83V45a2.006,2.006,0,0,1-2,2H27A2.006,2.006,0,0,1,25,45ZM36,35c-4,0-4,4-4,4s0-4-4-4c0,0,0,4,4,4S36,35,36,35Z" style="fill:#e8e4d8"/><rect x="29" y="17" width="6" height="3" style="fill:#79e78e"/><path d="M28,35c4,0,4,4,4,4C28,39,28,35,28,35Z" style="fill:#79e78e"/><path d="M36,35s0,4-4,4C32,39,32,35,36,35Z" style="fill:#79e78e"/><path d="M38,7l-4.11,3.08L30,13V10.1A22.008,22.008,0,0,0,10.87,25.87L8,23,4.79,25.41A27.985,27.985,0,0,1,30,4.09V1l4.12,3.09Z" style="fill:#79e78e"/><path d="M10.22,35A22.008,22.008,0,0,0,25.83,53.12L23,55l2,4v.12A28.013,28.013,0,0,1,4.18,35H1l3.03-4.04L7,27l3.03,4.05L13,35Z" style="fill:#79e78e"/><path d="M56,41l2.88-1.15A28.025,28.025,0,0,1,35,59.82V63l-4.04-3.03L27,57l4.05-3.03L35,51v2.78A22.026,22.026,0,0,0,53.13,38.13Z" style="fill:#79e78e"/><path d="M63,30l-3.08,4.11L57,38l-3.09-4.12L51,30h2.9A22.014,22.014,0,0,0,39,11.14V11l3-2-.87-3.47A28.011,28.011,0,0,1,59.92,30Z" style="fill:#79e78e"/><path d="M30,10.1V13l3.89-2.92L38,7H32C21.182,7,11.482,13.384,8,23l2.87,2.87A22.008,22.008,0,0,1,30,10.1Z" style="fill:#1fd8b9"/><path d="M25.83,53.12A22.008,22.008,0,0,1,10.22,35H13l-2.97-3.95L7,27v5A24.3,24.3,0,0,0,23,55h0Z" style="fill:#1fd8b9"/><path d="M35,53.78V51l-3.95,2.97L27,57h5c10.818,0,20.518-6.384,24-16l-2.87-2.87A22.026,22.026,0,0,1,35,53.78Z" style="fill:#1fd8b9"/><path d="M39,11.14A22.014,22.014,0,0,1,53.9,30H51l2.91,3.88L57,38V32A25,25,0,0,0,41.923,9.051L39,11Z" style="fill:#1fd8b9"/><path d="M37,44a8.994,8.994,0,0,1-8.99-8.808C28,35.072,28,35,28,35V30.121A5.122,5.122,0,0,1,29.5,26.5,5.122,5.122,0,0,0,31,22.879V20H29v1.17A6.835,6.835,0,0,1,27,26a6.835,6.835,0,0,0-2,4.83V45a2.006,2.006,0,0,0,2,2H37a2.006,2.006,0,0,0,2-2V42A2,2,0,0,1,37,44Z" style="fill:#d8d4c9"/><rect x="29" y="17" width="2" height="3" style="fill:#1fd8b9"/><ellipse cx="34.684" cy="28.695" rx="1.642" ry="2.286" transform="translate(-10.13 32.945) rotate(-45.02)" style="fill:#f6fafd"/><ellipse cx="35.682" cy="32.708" rx="0.825" ry="1.148" transform="translate(-12.676 34.827) rotate(-45.02)" style="fill:#f6fafd"/></g></svg>