<svg xmlns="http://www.w3.org/2000/svg" viewBox="0 0 64 64"><g id="_30-teat_tube" data-name="30-teat tube"><path d="M41,42a15.39,15.39,0,0,1,3,9.08A8.878,8.878,0,0,1,38,60H26a8.878,8.878,0,0,1-6-8.92A15.39,15.39,0,0,1,23,42H41Z" style="fill:#94f27a"/><path d="M37.22,34.45A1.983,1.983,0,0,1,36,32.62V17H28V32.62a1.983,1.983,0,0,1-1.22,1.83A18.465,18.465,0,0,0,16,51c0,5.61,3.63,9.73,8,12H40c4.37-2.27,8-6.39,8-12A18.465,18.465,0,0,0,37.22,34.45ZM38,60H26a8.878,8.878,0,0,1-6-8.92A15.39,15.39,0,0,1,23,42H41a15.39,15.39,0,0,1,3,9.08A8.878,8.878,0,0,1,38,60Z" style="fill:#fffbed"/><path d="M28,9.93A14.316,14.316,0,0,0,32,13H28.4a3.658,3.658,0,0,1-3.13-2.09L28,10Z" style="fill:#4edfa6"/><path d="M28,9.93V10l-2.73.91A11.848,11.848,0,0,1,24,5,33.142,33.142,0,0,0,28,9.93Z" style="fill:#85ee89"/><path d="M29.7,6.12C30.9,7.21,32,10.4,32,13a14.316,14.316,0,0,1-4-3.07V5.17A4.113,4.113,0,0,1,29.7,6.12Z" style="fill:#85ee89"/><path d="M26.8,5a4.4,4.4,0,0,1,1.2.17V9.93A33.142,33.142,0,0,1,24,5Z" style="fill:#aaf66f"/><path d="M39,6l2.97.99a5.42,5.42,0,0,1-1.29,2.95l-4.37-.88a36.317,36.317,0,0,0,2.68-3.09Z" style="fill:#4edfa6"/><path d="M37.02,2.04l1.97,3.93a36.317,36.317,0,0,1-2.68,3.09L36,9,33.01,5.02c.12-.2.25-.39.39-.58A8.779,8.779,0,0,1,37.02,2.04Z" style="fill:#85ee89"/><path d="M36.31,9.06l4.37.88C39.11,11.78,36.16,13,32,13A47.081,47.081,0,0,0,36.31,9.06Z" style="fill:#85ee89"/><path d="M42,1V6.4a5.683,5.683,0,0,1-.03.59L39,6l-.01-.03A19.9,19.9,0,0,0,42,1Z" style="fill:#85ee89"/><path d="M36.31,9.06A47.081,47.081,0,0,1,32,13V8.8a7.334,7.334,0,0,1,1.01-3.78L36,9Z" style="fill:#aaf66f"/><path d="M42,1a19.9,19.9,0,0,1-3.01,4.97L37.02,2.04A13.877,13.877,0,0,1,42,1Z" style="fill:#aaf66f"/><path d="M29,11a3.617,3.617,0,0,1-2.069-.644l-1.661.554A3.658,3.658,0,0,0,28.4,13H32a12.352,12.352,0,0,1-2.867-2.011C29.086,10.99,29.049,11,29,11Z" style="fill:#35c4ba"/><path d="M24,5a11.848,11.848,0,0,0,1.27,5.91l1.661-.554C24.642,8.812,24,5,24,5Z" style="fill:#4edfa6"/><path d="M29.133,10.989A12.352,12.352,0,0,0,32,13a12.844,12.844,0,0,0-.6-3.655A2.111,2.111,0,0,1,29.133,10.989Z" style="fill:#4edfa6"/><path d="M37.985,9.4l2.7.543a5.42,5.42,0,0,0,1.29-2.95l-1.9-.633A9.721,9.721,0,0,1,37.985,9.4Z" style="fill:#35c4ba"/><path d="M37,10a4.918,4.918,0,0,1-1.878.243C34.2,11.13,33.171,12.05,32,13c4.16,0,7.11-1.22,8.68-3.06L37.985,9.4A2.977,2.977,0,0,1,37,10Z" style="fill:#4edfa6"/><path d="M41.97,6.99A5.683,5.683,0,0,0,42,6.4V1a32.265,32.265,0,0,1-1.929,5.357Z" style="fill:#4edfa6"/><path d="M32.005,8.723c0,.026-.005.051-.005.077V13c1.171-.95,2.2-1.87,3.122-2.757A4.468,4.468,0,0,1,32.005,8.723Z" style="fill:#85ee89"/><path d="M31.5,42v2.862l-2.929,4.881a.5.5,0,0,0,.172.686A.489.489,0,0,0,29,50.5a.5.5,0,0,0,.429-.243L31.5,46.805v3.114l-1.975,5.923a.5.5,0,0,0,.317.633A.511.511,0,0,0,30,56.5a.5.5,0,0,0,.475-.342l1.676-5.03,1.433,2.149A.5.5,0,0,0,34,53.5a.494.494,0,0,0,.277-.084.5.5,0,0,0,.139-.693L32.5,49.849V48.694l2.342.781A.511.511,0,0,0,35,49.5a.5.5,0,0,0,.158-.975L32.5,47.639V42h-1Z" style="fill:#18ae88"/><path d="M32.5,17V13a.1.1,0,0,0,0-.018c-.167,0-.324.018-.5.018h-.5v4h1Z" style="fill:#35c4ba"/><polygon points="32 42 32.5 42 32.5 17 32 17 31.5 17 31.5 42 32 42" style="fill:#4edfa6"/><path d="M38,60H26s1,2-2,3H40C37,62,38,60,38,60Z" style="fill:#d8d4c9"/><path d="M26,60a8.948,8.948,0,0,1-5.167-4.64,2.964,2.964,0,0,1-4.241-.586A14.617,14.617,0,0,0,24,63C27,62,26,60,26,60Z" style="fill:#e8e4d8"/><path d="M19,46a2.986,2.986,0,0,1,1.708.537A15,15,0,0,1,23,42a2.874,2.874,0,0,0-4.04-.781,18.847,18.847,0,0,0-2.6,6.388A2.989,2.989,0,0,1,19,46Z" style="fill:#f2eee2"/><path d="M45,56a2.976,2.976,0,0,1-1.833-.64A8.948,8.948,0,0,1,38,60s-1,2,2,3a14.617,14.617,0,0,0,7.408-8.226A2.986,2.986,0,0,1,45,56Z" style="fill:#e8e4d8"/><path d="M41,42a15,15,0,0,1,2.292,4.537,2.979,2.979,0,0,1,4.35,1.07,18.847,18.847,0,0,0-2.6-6.388A2.874,2.874,0,0,0,41,42Z" style="fill:#f2eee2"/><path d="M45,46a2.986,2.986,0,0,0-1.708.537A15.363,15.363,0,0,1,44,51.08a10.409,10.409,0,0,1-.833,4.28,2.964,2.964,0,0,0,4.241-.586A12.209,12.209,0,0,0,48,51a17.041,17.041,0,0,0-.358-3.393A2.989,2.989,0,0,0,45,46Z" style="fill:#fffbed"/><path d="M19,56a2.976,2.976,0,0,0,1.833-.64A10.409,10.409,0,0,1,20,51.08a15.363,15.363,0,0,1,.708-4.543,2.979,2.979,0,0,0-4.35,1.07A17.041,17.041,0,0,0,16,51a12.209,12.209,0,0,0,.592,3.774A2.986,2.986,0,0,0,19,56Z" style="fill:#fffbed"/><path d="M28,56c-4.523-2.584-1.6-11.081-.424-14H23a15.39,15.39,0,0,0-3,9.08A8.878,8.878,0,0,0,26,60H38a8.878,8.878,0,0,0,6-8.92c0-.025,0-.05,0-.075C41,56,35,60,28,56Z" style="fill:#4edfa6"/><path d="M31.963,12.705A15.321,15.321,0,0,1,28.25,9.823V5.272c-.085-.029-.163-.078-.25-.1s-.167-.035-.25-.053V9.3A33.629,33.629,0,0,1,24.305,5H24c0,.154.007.3.011.449A33.59,33.59,0,0,0,27.6,9.87l-2.447.816c.04.074.077.153.118.224s.094.144.14.217l2.581-.86A16.794,16.794,0,0,0,31.456,13H32c0-.1-.012-.209-.016-.313Z" style="fill:#daffa8"/><path d="M42,1c-.089,0-.184.014-.275.016a20.763,20.763,0,0,1-2.694,4.478L37.257,1.956c-.078.03-.161.053-.237.084-.059.024-.114.05-.172.074l-.052.038,1.9,3.787a36.346,36.346,0,0,1-2.474,2.849l-.077-.016L33.224,4.889c-.017-.034-.052-.047-.08-.069-.043.067-.093.131-.134.2s-.081.167-.126.249L35.8,9.15c.01.014.029.015.042.026A47.062,47.062,0,0,1,32,12.673V13c.141,0,.27-.012.408-.015A47.258,47.258,0,0,0,36.39,9.333l4.079.82c.068-.072.148-.139.211-.213s.109-.152.166-.226L36.792,8.9c.837-.886,1.6-1.765,2.265-2.62l2.866.955h0c.013-.083.037-.164.046-.248s.008-.173.013-.259l-2.6-.868A22.908,22.908,0,0,0,42,1.64Z" style="fill:#daffa8"/><rect x="28" y="17" width="8" height="3" style="fill:#e8e4d8"/><circle cx="36" cy="44" r="1" style="fill:#c6ff79"/><circle cx="28" cy="46" r="1" style="fill:#c6ff79"/><circle cx="23" cy="51" r="1" style="fill:#94f27a"/><circle cx="34" cy="56" r="1" style="fill:#c6ff79"/><circle cx="37.5" cy="47.5" r="0.5" style="fill:#c6ff79"/><circle cx="24.5" cy="53.5" r="0.5" style="fill:#94f27a"/><circle cx="39.5" cy="48.5" r="0.5" style="fill:#c6ff79"/><circle cx="28.5" cy="57.5" r="0.5" style="fill:#94f27a"/><path d="M34.062,38.157c.227,1.217,1.292,2.145,2.194,3.066a17.378,17.378,0,0,1,2.785,3.738,9.665,9.665,0,0,0,1.383,2.166A2.733,2.733,0,0,0,42.159,48a1.673,1.673,0,0,0,1.421-1.047,3.718,3.718,0,0,0,.362-1.072,6.842,6.842,0,0,0-.74-3.635A11.079,11.079,0,0,0,41.079,39c-1.444-1.533-4.478-3.912-6.559-2.638C33.949,36.711,33.942,37.52,34.062,38.157Z" style="fill:#fff"/><path d="M37.121,57.353c.549,1.189,2.412.479,3.309-.071A6.05,6.05,0,0,0,42.675,54.7a2.577,2.577,0,0,0,.311-1.419,1.421,1.421,0,0,0-1.067-1.26,3.462,3.462,0,0,0-2.189.747,7.48,7.48,0,0,0-1.518,1.49,5.448,5.448,0,0,0-1.143,1.994A1.65,1.65,0,0,0,37.121,57.353Z" style="fill:#fff"/></g></svg>