<svg xmlns="http://www.w3.org/2000/svg" viewBox="0 0 64 64"><g id="_05-water_hourglass" data-name="05-water hourglass"><polygon points="41 51 47 51 47 59 17 59 17 51 21 51 21 45 25 45 25 55 28 55 28 50 33 50 33 53 36 53 36 47 41 47 41 51" style="fill:#c9c6bc"/><path d="M52,61v2H12V61a2.006,2.006,0,0,1,2-2H50A2.006,2.006,0,0,1,52,61Z" style="fill:#79e78e"/><path d="M52,1V3a2.006,2.006,0,0,1-2,2H14a2.006,2.006,0,0,1-2-2V1Z" style="fill:#79e78e"/><path d="M38.56,29.75A17.97,17.97,0,0,0,50,13V5H14v8A17.983,17.983,0,0,0,25.44,29.75a2.4,2.4,0,0,1,0,4.5A17.988,17.988,0,0,0,14,51v8h3V51h4V45h4V55h3V50h5v3h3V47h5v4h6v8h3V51A17.988,17.988,0,0,0,38.56,34.25a2.4,2.4,0,0,1,0-4.5ZM32,45a3.689,3.689,0,0,1-4-4c0-2.76,3-6,4-6s4,3.24,4,6A3.689,3.689,0,0,1,32,45Zm2.14-13.86V30.9A2.121,2.121,0,0,1,32,33a2.157,2.157,0,0,1-1.51-.62,2.054,2.054,0,0,1-.63-1.48v.24a4.2,4.2,0,0,0-3.03-4,13.846,13.846,0,0,1-9.09-8.65A13.307,13.307,0,0,1,17,14.1V12h2.14c3.4,0,2.68,2.1,6.07,2.1S28.61,12,32,12s3.39,2.1,6.79,2.1S41.46,12,44.86,12H47v2.1a13.42,13.42,0,0,1-.57,3.87,13.815,13.815,0,0,1-9.26,9.17A4.2,4.2,0,0,0,34.14,31.14Z" style="fill:#d5d8db"/><path d="M36,41a3.689,3.689,0,0,1-4,4,3.689,3.689,0,0,1-4-4c0-2.76,3-6,4-6S36,38.24,36,41Z" style="fill:#01cadb"/><path d="M47,12v2.1a13.42,13.42,0,0,1-.57,3.87,13.815,13.815,0,0,1-9.26,9.17,4.2,4.2,0,0,0-3.03,4V30.9A2.121,2.121,0,0,1,32,33a2.157,2.157,0,0,1-1.51-.62,2.054,2.054,0,0,1-.63-1.48v.24a4.2,4.2,0,0,0-3.03-4,13.846,13.846,0,0,1-9.09-8.65A13.307,13.307,0,0,1,17,14.1V12h2.14c3.4,0,2.68,2.1,6.07,2.1S28.61,12,32,12s3.39,2.1,6.79,2.1S41.46,12,44.86,12Z" style="fill:#01cadb"/><path d="M14,5v7.511a2.457,2.457,0,0,1,3,0V12h2.14c3.4,0,2.68,2.1,6.07,2.1S28.61,12,32,12s3.39,2.1,6.79,2.1S41.46,12,44.86,12H47v.511a2.457,2.457,0,0,1,3,0V5Z" style="fill:#d5d8db"/><path d="M47,51c0-7.026-3.982-12.282-10.458-13.876a2.735,2.735,0,0,1-.985-.455h0a2.729,2.729,0,0,1-.84-1.018A8.51,8.51,0,0,1,34,32c0-.141.007-.27.01-.406A2.131,2.131,0,0,1,32,33a2.157,2.157,0,0,1-1.51-.62,2.082,2.082,0,0,1-.5-.788c0,.136.011.266.011.408a8.51,8.51,0,0,1-.717,3.651,2.729,2.729,0,0,1-.84,1.018h0a2.735,2.735,0,0,1-.985.455C20.982,38.718,17,43.974,17,51h4V45h4V55h3V50h5v3h3V47h5v4ZM32,45a3.689,3.689,0,0,1-4-4,7.946,7.946,0,0,1,2.374-4.908A3.145,3.145,0,0,1,32,35a3.145,3.145,0,0,1,1.626,1.092A7.946,7.946,0,0,1,36,41,3.689,3.689,0,0,1,32,45Z" style="fill:#eef2f5"/><path d="M50,61H14a2.006,2.006,0,0,0-2,2H52A2.006,2.006,0,0,0,50,61Z" style="fill:#1fd8b9"/><path d="M50,3H14a2,2,0,0,0-1.721,1A2,2,0,0,0,14,5H50a2,2,0,0,0,1.721-1A2,2,0,0,0,50,3Z" style="fill:#1fd8b9"/><path d="M47,12H44.86c-3.4,0-2.68,2.1-6.07,2.1S35.39,12,32,12s-3.39,2.1-6.79,2.1S22.54,12,19.14,12H17v2.1c0,.3.018.6.038.9h2.1c3.4,0,2.68,2.1,6.07,2.1S28.61,15,32,15s3.39,2.1,6.79,2.1S41.46,15,44.86,15h2.107c.02-.3.033-.6.033-.9Z" style="fill:#6bdfed"/><path d="M32.014,41.517a4.468,4.468,0,0,1-.149-6.493C30.758,35.269,28,38.351,28,41a3.689,3.689,0,0,0,4,4,3.711,3.711,0,0,0,3.618-2.084A6.818,6.818,0,0,1,32.014,41.517Z" style="fill:#01a2b0"/><ellipse cx="23.684" cy="20.695" rx="1.642" ry="2.286" transform="translate(-7.696 22.819) rotate(-45.02)" style="fill:#f6fafd"/><ellipse cx="26.682" cy="23.708" rx="0.825" ry="1.148" transform="translate(-8.949 25.823) rotate(-45.02)" style="fill:#f6fafd"/><ellipse cx="33.682" cy="38.708" rx="0.825" ry="1.148" transform="translate(-17.507 35.171) rotate(-45.02)" style="fill:#f6fafd"/><path d="M15.5,55a1.962,1.962,0,0,1-1.5-.92V59h3V54.08A1.962,1.962,0,0,1,15.5,55Z" style="fill:#bec1c4"/><path d="M26.145,28.92h0a2.485,2.485,0,0,0,.13-1.984A13.819,13.819,0,0,1,17.74,18.49,13.307,13.307,0,0,1,17,14.1V12.511a2.457,2.457,0,0,0-3,0V13A17.983,17.983,0,0,0,25.44,29.75,2.479,2.479,0,0,0,26.145,28.92Z" style="fill:#eef2f5"/><path d="M47,12.511V14.1a13.42,13.42,0,0,1-.57,3.87,13.791,13.791,0,0,1-8.86,9.022,2.5,2.5,0,0,0,.154,1.928h0a2.477,2.477,0,0,0,.76.867c.026-.012.049-.027.076-.037A17.97,17.97,0,0,0,50,13v-.489a2.457,2.457,0,0,0-3,0Z" style="fill:#eef2f5"/><path d="M48.5,55a1.962,1.962,0,0,1-1.5-.92V59h3V54.08A1.962,1.962,0,0,1,48.5,55Z" style="fill:#bec1c4"/><rect x="17" y="5" width="30" height="3" style="fill:#e6eaed"/><rect x="47" y="5" width="3" height="3" style="fill:#bec1c4"/><rect x="14" y="5" width="3" height="3" style="fill:#bec1c4"/><path d="M32,27A15,15,0,0,1,17,12v2.1a13.307,13.307,0,0,0,.74,4.39,13.846,13.846,0,0,0,9.09,8.65,4.2,4.2,0,0,1,3.03,4V30.9a2.054,2.054,0,0,0,.63,1.48A2.157,2.157,0,0,0,32,33a2.121,2.121,0,0,0,2.14-2.1v.24a4.2,4.2,0,0,1,3.03-4,13.815,13.815,0,0,0,9.26-9.17A13.42,13.42,0,0,0,47,14.1V12A15,15,0,0,1,32,27Z" style="fill:#01a2b0"/><rect x="17" y="57" width="30" height="2" style="fill:#a9a599"/><rect x="19.5" y="3" width="18" height="2" rx="1" ry="1" style="fill:#35c4ba"/><rect x="40.5" y="3" width="4" height="2" rx="0.977" ry="0.977" style="fill:#35c4ba"/><rect x="20" y="61" width="18" height="2" rx="1" ry="1" style="fill:#35c4ba"/><rect x="41" y="61" width="4" height="2" rx="0.977" ry="0.977" style="fill:#35c4ba"/><path d="M47,12V8H17v4h2.14c2.955,0,2.8,1.585,4.935,2h2.308c2.283-.415,2.671-2,5.617-2s3.334,1.585,5.617,2h2.308c2.134-.415,1.98-2,4.935-2Z" style="fill:#eef2f5"/><path d="M45.546,15a1.99,1.99,0,0,0-3.428.58c-.04.112-.086.227-.131.341C40.881,18.774,38.612,22,34,22a2,2,0,0,0,0,4c5.474,0,9.805-3.3,11.882-9.063A2,2,0,0,0,45.546,15Z" style="fill:#f6fafd"/><path d="M45.1,9.007a2,2,0,0,0-2.153,1.834c-.022.273-.054.56-.1.859a2.03,2.03,0,0,0,1.677,2.278,2.079,2.079,0,0,0,.3.022A2,2,0,0,0,46.8,12.3c.015-.105.021-.2.034-.3.038-.286.077-.573.1-.84A2,2,0,0,0,45.1,9.007Z" style="fill:#f6fafd"/></g></svg>