<svg xmlns="http://www.w3.org/2000/svg" viewBox="0 0 48 48"><defs><style>.cls-1{fill:#fc6;}.cls-2{fill:#ffde76;}.cls-3{fill:#dad7e5;}.cls-4{fill:#edebf2;}.cls-5{fill:#c6c3d8;}.cls-6{fill:#374f68;}.cls-7{fill:#425b72;}</style></defs><title>Idea</title><g id="Idea_gear_in_bulb_" data-name="Idea (gear in bulb)"><path class="cls-1" d="M39,15.44c.29,7.8-3.94,8.81-7.07,17.12-.23.59-.05.12-.92,2.44H17l-.91-2.43C13.17,24.85,9,23.34,9,16a15,15,0,0,1,30-.56Z"/><path class="cls-2" d="M14.26,19c.72,2.75,1.43,1.48,0,2.91A13.9,13.9,0,0,1,12.87,19Z"/><circle class="cls-2" cx="22" cy="17" r="3"/><path class="cls-2" d="M39,15.44c.29,7.76-3.66,8.3-7.24,17.56H27.59a12,12,0,0,1-10.71-6.59c-.17-.33-.33-.65-.5-1l1.56-1.56a8.28,8.28,0,0,0,2.06.85V27h4V24.74a8.28,8.28,0,0,0,2.06-.85l1.6,1.6,2.83-2.83-1.6-1.6A8.28,8.28,0,0,0,29.74,19H32V15H29.74a8.28,8.28,0,0,0-.85-2.06l1.6-1.6L27.66,8.51l-1.6,1.6A8.28,8.28,0,0,0,24,9.26V7H20V9.26a8.28,8.28,0,0,0-2.06.85l-1.6-1.6-2.83,2.83,1.6,1.6A8.28,8.28,0,0,0,14.26,15H12A14.87,14.87,0,0,1,17.27,2.6,15,15,0,0,1,39,15.44Z"/><path class="cls-3" d="M32.12,40.12C30.94,41.3,31,41,18,41a3,3,0,0,1-2.12-5.12C17.06,34.7,17,35,30,35A3,3,0,0,1,32.12,40.12Z"/><path class="cls-4" d="M32.82,39H21.2a3,3,0,0,1-3-4H29.84A3,3,0,0,1,32.82,39Z"/><path class="cls-5" d="M30,41a6,6,0,0,1-12,0Z"/><path class="cls-3" d="M29.65,43a6,6,0,0,1-7.32,3.76A5.9,5.9,0,0,1,21,43Z"/><path class="cls-6" d="M34,18V14H31.74a8.28,8.28,0,0,0-.85-2.06l1.6-1.6L29.66,7.51l-1.6,1.6A8.28,8.28,0,0,0,26,8.26V6H22V8.26a8.28,8.28,0,0,0-2.06.85l-1.6-1.6-2.83,2.83,1.6,1.6A8.28,8.28,0,0,0,16.26,14H14v4h2.26a8.28,8.28,0,0,0,.85,2.06l-1.6,1.6,2.83,2.83,1.6-1.6a8.28,8.28,0,0,0,2.06.85V26h4V23.74a8.28,8.28,0,0,0,2.06-.85l1.6,1.6,2.83-2.83-1.6-1.6A8.28,8.28,0,0,0,31.74,18ZM24,19a3,3,0,1,1,3-3A3,3,0,0,1,24,19Z"/><path class="cls-7" d="M34,18V14H31.74a8.28,8.28,0,0,0-.85-2.06l1.6-1.6L29.66,7.51l-1.6,1.6A8.28,8.28,0,0,0,26,8.26V6H22V8.26c-2.77.72-1.43,1.48-3.07-.16A10,10,0,0,0,26,24c0-.56-.06.17,2.06-1.06l.92.92a10.15,10.15,0,0,0,2-.64l1.51-1.51-1.6-1.6A8.28,8.28,0,0,0,31.74,18ZM24,19a3,3,0,1,1,3-3A3,3,0,0,1,24,19Z"/></g></svg>