<svg xmlns="http://www.w3.org/2000/svg" viewBox="0 0 48 48"><defs><style>.cls-1{fill:#9fdbf3;}.cls-2{fill:#b2e5fb;}.cls-3{fill:#8bd1ea;}.cls-4{fill:#fc6;}.cls-5{fill:#ffde76;}.cls-6{fill:#374f68;}</style></defs><title>branding stationery</title><g id="branding_stationery" data-name="branding stationery"><polygon class="cls-1" points="29 1 29 31 21 31 21 39 1 39 1 1 29 1"/><path class="cls-2" d="M29,1V31H21v6A17,17,0,0,1,4,20V1Z"/><path class="cls-3" d="M47,31V47H21V31L34,41Z"/><path class="cls-4" d="M47,31,34,41,21,31Z"/><rect class="cls-1" x="33" y="3" width="14" height="10"/><rect class="cls-1" x="33" y="17" width="14" height="10"/><rect class="cls-4" x="5" y="5" width="6" height="6"/><path class="cls-5" d="M11,5v5A5,5,0,0,1,6,5Z"/><path class="cls-6" d="M25,16H5a1,1,0,0,1,0-2H25A1,1,0,0,1,25,16Z"/><path class="cls-6" d="M25,20H5a1,1,0,0,1,0-2H25A1,1,0,0,1,25,20Z"/><path class="cls-6" d="M25,24H5a1,1,0,0,1,0-2H25A1,1,0,0,1,25,24Z"/><path class="cls-6" d="M25,28H5a1,1,0,0,1,0-2H25A1,1,0,0,1,25,28Z"/><path class="cls-6" d="M13,32H5a1,1,0,0,1,0-2h8A1,1,0,0,1,13,32Z"/><path class="cls-6" d="M41,7H37a1,1,0,0,1,0-2h4A1,1,0,0,1,41,7Z"/><path class="cls-6" d="M39,10H37a1,1,0,0,1,0-2h2A1,1,0,0,1,39,10Z"/><path class="cls-6" d="M41,21H37a1,1,0,0,1,0-2h4A1,1,0,0,1,41,21Z"/><path class="cls-6" d="M39,24H37a1,1,0,0,1,0-2h2A1,1,0,0,1,39,24Z"/><path class="cls-1" d="M34,42,47,32V45H30a6,6,0,0,1-6-6V34.31Z"/><path class="cls-5" d="M47,31,34,41l-8.17-6.28A4.7,4.7,0,0,1,24,31Z"/></g></svg>