<svg xmlns="http://www.w3.org/2000/svg" viewBox="0 0 48 48"><defs><style>.cls-1{fill:#fc6;}.cls-2{fill:#ffde76;}.cls-3{fill:#ffba55;}.cls-4{fill:#edebf2;}.cls-5{fill:#dad7e5;}.cls-6{fill:#6fabe6;}.cls-7{fill:#9dcc6b;}</style></defs><title>Upload and download data cloud</title><g id="Upload_and_download_data_cloud" data-name="Upload and download data cloud"><path class="cls-1" d="M41,11V26.26a7,7,0,0,0-9.35,1.23A3,3,0,0,0,27.18,31a5,5,0,0,0-5.08,4H3a2,2,0,0,1-2-2V7A2,2,0,0,1,3,5H15.93c1.38,0,1.41.52,5.07,6Z"/><path class="cls-2" d="M41,11V26.26a7,7,0,0,0-9.35,1.23A3,3,0,0,0,27.18,31,5,5,0,0,0,23,33,19,19,0,0,1,4,14V5H15.93c1.3,0,1.31.37,5.07,6Z"/><path class="cls-3" d="M41,9v2H21L18.33,7H39A2,2,0,0,1,41,9Z"/><path class="cls-1" d="M41,9v1H25.61A6.73,6.73,0,0,1,20,7H39A2,2,0,0,1,41,9Z"/><path class="cls-4" d="M42,41H27a5,5,0,0,1-4.9-6c.53-2.64,3.25-4.3,5.08-4a3,3,0,0,1,4.47-3.52A7,7,0,0,1,44,31.4,5,5,0,0,1,42,41Z"/><path class="cls-5" d="M29,39a5,5,0,0,1-4.38-7.39A5,5,0,0,0,27,41H42a5,5,0,0,0,4.37-2.63C44.8,39.23,45.06,39,29,39Z"/><path class="cls-6" d="M31,37V34.41l-.29.3a1,1,0,0,1-1.42-1.42c3.08-3.07,2.33-3.09,5.42,0a1,1,0,0,1-1.42,1.42l-.29-.3V37A1,1,0,0,1,31,37Z"/><path class="cls-7" d="M39,38c-.63,0-.83-.42-2.71-2.29a1,1,0,0,1,1.42-1.42l.29.3V32a1,1,0,0,1,2,0v2.59l.29-.3A1,1,0,0,1,42,35c0,.54-.15.57-2.29,2.71A1,1,0,0,1,39,38Z"/></g></svg>