<svg xmlns="http://www.w3.org/2000/svg" viewBox="0 0 48 48"><defs><style>.cls-1{fill:#f6ccaf;}.cls-2{fill:#ffdec7;}.cls-3{fill:#9fdbf3;}.cls-4{fill:#b2e5fb;}.cls-5{fill:#8bd1ea;}</style></defs><title>Globe In Hand</title><g id="Globe_In_Hand" data-name="Globe In Hand"><path class="cls-1" d="M47,32.84a8,8,0,0,1-2.34,5.65L36,47H24c0-9.63,2-9.84,13.49-21.35a2.81,2.81,0,0,1,3.5-.39V16.15A3,3,0,0,1,46.11,14C47.3,15.22,47,14.49,47,32.84Z"/><path class="cls-2" d="M47,32.84a8,8,0,0,1-2.34,5.65L36,47H24c0-9.63,2-9.84,13.49-21.35a2.81,2.81,0,0,1,3.5-.39V16.15A3,3,0,0,1,46.11,14C47.3,15.22,47,14.49,47,32.84Z"/><path class="cls-1" d="M38,45H28.36A2.36,2.36,0,0,1,26,42.64a13.59,13.59,0,0,1,4-9.49C24.16,39,24,40.88,24,47H36C46.45,36.72,48.5,34.67,38,45Z"/><path class="cls-1" d="M42.2,29.36C34,37.52,34.59,37.15,34,37.15a1,1,0,0,1-.71-1.71l7.5-7.5a1.84,1.84,0,0,0,0-2.59c-.29-.26-.38-.24-.53-.42a2.58,2.58,0,0,1,.74.33v-2C42.52,23.26,44.62,26.93,42.2,29.36Z"/><path class="cls-1" d="M1,32.84a8,8,0,0,0,2.34,5.65L12,47H24c0-9.63-2-9.84-13.49-21.35A2.81,2.81,0,0,0,7,25.26V16.15A3,3,0,0,0,1.89,14C.7,15.22,1,14.49,1,32.84Z"/><path class="cls-2" d="M1,32.84a8,8,0,0,0,2.34,5.65L12,47H24c0-9.63-2-9.84-13.49-21.35A2.81,2.81,0,0,0,7,25.26V16.15A3,3,0,0,0,1.89,14C.7,15.22,1,14.49,1,32.84Z"/><path class="cls-1" d="M24,44.64V47H12L3.35,38.49A8,8,0,0,1,1,32.84C1,15.19.67,15.25,1.89,14A3,3,0,0,1,7,16.15v9.11a2.78,2.78,0,0,1,1.5-.44c1.58,0,1.22.05,11.5,10.33A13.58,13.58,0,0,1,24,44.64Z"/><path class="cls-2" d="M24,45A24.46,24.46,0,0,1,6.87,38C5.08,36.23,3,34.52,3,30.84c0-18.22,0-16.94.13-17.56A3,3,0,0,1,7,16.15v9.11a2.78,2.78,0,0,1,1.5-.44c1.58,0,1.22.05,11.5,10.33A13.61,13.61,0,0,1,24,45Z"/><path class="cls-1" d="M5.8,29.36C14,37.52,13.41,37.15,14,37.15a1,1,0,0,0,.71-1.71l-7.5-7.5a1.84,1.84,0,0,1,0-2.59c.29-.26.38-.24.53-.42a2.58,2.58,0,0,0-.74.33v-2C5.48,23.26,3.38,26.93,5.8,29.36Z"/><path class="cls-3" d="M38,15c0,11.84-13.95,18.41-23,10.68s-4.91-23,7.24-24.57A14,14,0,0,1,38,15Z"/><path class="cls-4" d="M34.84,23.84A14,14,0,0,1,15,4.36c.89-1.25,5.63-3.94,10.8-3.24A14,14,0,0,1,34.84,23.84Z"/><path class="cls-5" d="M38,16a13.35,13.35,0,0,0,0-2H33a17.1,17.1,0,0,0-1.5-6,15.59,15.59,0,0,0,3-2.26A12,12,0,0,0,33,4.32a12.55,12.55,0,0,1-2.5,1.89A16.92,16.92,0,0,0,25.8,1.12a14.41,14.41,0,0,0-3.6,0,16.86,16.86,0,0,0-4.74,5.11A12.94,12.94,0,0,1,15,4.36c-.14-.07-1.35,1.23-1.48,1.37a16,16,0,0,0,3,2.26A17.1,17.1,0,0,0,15,14H10a13.35,13.35,0,0,0,0,2h5a17.1,17.1,0,0,0,1.5,6,15.9,15.9,0,0,0-3,2.26A12,12,0,0,0,15,25.68a12.28,12.28,0,0,1,2.5-1.89,17.2,17.2,0,0,0,4.74,5.09,13.56,13.56,0,0,0,3.6,0,16.64,16.64,0,0,0,4.74-5.1,13.19,13.19,0,0,1,2.5,1.9,14.65,14.65,0,0,0,1.43-1.41,15.75,15.75,0,0,0-3-2.26A17.1,17.1,0,0,0,33,16ZM24,2.32A15,15,0,0,1,28.74,7.1a12.91,12.91,0,0,1-9.47,0A15,15,0,0,1,24,2.32Zm0,25.36a15,15,0,0,1-4.74-4.78,12.91,12.91,0,0,1,9.47,0A15,15,0,0,1,24,27.68Zm5.68-6.56a15,15,0,0,0-11.36,0A14.91,14.91,0,0,1,17,16H31A15,15,0,0,1,29.68,21.12ZM17,14a15,15,0,0,1,1.29-5.12,14.94,14.94,0,0,0,11.36,0A14.91,14.91,0,0,1,31,14Z"/></g></svg>