<svg xmlns="http://www.w3.org/2000/svg" viewBox="0 0 48 48"><defs><style>.cls-1{fill:#dad7e5;}.cls-2{fill:#edebf2;}.cls-3{fill:#6fabe6;}.cls-4{fill:#82bcf4;}.cls-5{fill:#374f68;}.cls-6{fill:#425b72;}.cls-7{fill:#db5669;}</style></defs><title>Eye Scan</title><g id="Eye_Scan" data-name="Eye Scan"><path class="cls-1" d="M42,24c-3.28,6.09-10.95,10-18,10C16.77,34,9.2,30,6,24a18.45,18.45,0,0,1,7.44-7.2C24.85,10.48,37.66,15.92,42,24Z"/><path class="cls-2" d="M39.89,27a18,18,0,0,1-2.33,2.2A22.1,22.1,0,0,1,27,32c-6.16,0-12.29-3.31-13.79-5Z"/><path class="cls-2" d="M42,24c-.18.34-.38.67-.59,1H11.67a6.61,6.61,0,0,1,1.77-8.2A21.94,21.94,0,0,1,24.51,14C31.58,14.19,38.88,18.19,42,24Z"/><path class="cls-3" d="M34,24a10,10,0,0,1-2,6c-5.76,7.67-18,3.54-18-6a10,10,0,0,1,4-8l0,0A10,10,0,0,1,34,24Z"/><path class="cls-4" d="M33.53,27A9.37,9.37,0,0,1,32,30a10,10,0,0,1-14.64-3Z"/><path class="cls-4" d="M34,25H16.46A10,10,0,0,1,18,16a9.89,9.89,0,0,1,6-2A10,10,0,0,1,34,25Z"/><path class="cls-5" d="M11,3A2,2,0,0,0,9,1H1V9A2,2,0,0,0,5,9V5H9A2,2,0,0,0,11,3Z"/><path class="cls-6" d="M9,1H1V3H7A2,2,0,0,1,9,5,2,2,0,0,0,9,1Z"/><path class="cls-6" d="M47,1V9a2,2,0,0,1-4,0V5H39a2,2,0,0,1,0-4Z"/><path class="cls-5" d="M43,3a2,2,0,0,1,2,2v6a2,2,0,0,1-2-2V5H39a2,2,0,0,1-2-2Z"/><path class="cls-5" d="M11,45a2,2,0,0,1-2,2H1V39a2,2,0,0,1,4,0v4H9A2,2,0,0,1,11,45Z"/><path class="cls-6" d="M11,45H5a2,2,0,0,1-2-2V37a2,2,0,0,1,1.41.59c.84.82.59,1.7.59,5.41H9A2,2,0,0,1,11,45Z"/><path class="cls-5" d="M47,39v8H39a2,2,0,0,1,0-4h4V39a2,2,0,0,1,4,0Z"/><path class="cls-6" d="M45,37v6a2,2,0,0,1-2,2H37a2,2,0,0,1,2-2h4V39A2,2,0,0,1,45,37Z"/><path class="cls-5" d="M28,24a4,4,0,1,1-6.28-3.28A4,4,0,0,1,28,24Z"/><path class="cls-6" d="M27.87,25H21.54a4,4,0,0,1,.18-4.28A4,4,0,0,1,27.87,25Z"/><path class="cls-7" d="M46,25H2a1,1,0,0,1,0-2H46A1,1,0,0,1,46,25Z"/></g></svg>