<svg xmlns="http://www.w3.org/2000/svg" viewBox="0 0 48 48"><defs><style>.cls-1{fill:#dad7e5;}.cls-2{fill:#edebf2;}.cls-3{fill:#9fdbf3;}.cls-4{fill:#b2e5fb;}.cls-5{fill:#ffba55;}.cls-6{fill:#fc6;}.cls-7{fill:#374f68;}.cls-8{fill:#425b72;}</style></defs><title>Money Transfer</title><g id="Money_Transfer" data-name="Money Transfer"><path class="cls-1" d="M47,20c0,26.28.06,24.24-.13,24.87A3,3,0,0,1,44,47H32a3,3,0,0,1-3-3V20a3,3,0,0,1,3-3H44A3,3,0,0,1,47,20Z"/><path class="cls-2" d="M47,20c0,26.28.06,24.24-.13,24.87-.63.19.13.13-12.87.13a3,3,0,0,1-3-3c0-26.31-.06-24.24.13-24.87C31.76,16.94,31,17,44,17A3,3,0,0,1,47,20Z"/><rect class="cls-3" x="31" y="19" width="14" height="26" rx="1"/><path class="cls-4" d="M45,20c0,23.58-.1,23,0,23A12,12,0,0,1,33,31V19H44A1,1,0,0,1,45,20Z"/><path class="cls-1" d="M43,17c0,2,.06,2.32-.18,2.82A2,2,0,0,1,41,21H35a2,2,0,0,1-2-2V17Z"/><path class="cls-2" d="M43,17c0,2.59.18,3-1,3H37a3,3,0,0,1-3-3Z"/><path class="cls-5" d="M31,8A7,7,0,1,1,20.15,2.15,7,7,0,0,1,31,8Z"/><path class="cls-6" d="M31,8a6.92,6.92,0,0,1-1.15,3.85A6.92,6.92,0,0,1,26,13,7,7,0,0,1,20.15,2.15,7,7,0,0,1,31,8Z"/><path class="cls-7" d="M24,7a1,1,0,1,1,1-1,1,1,0,0,0,1,1c1.91,0,1-4-2-4a3,3,0,0,0,0,6,1,1,0,1,1-1,1,1,1,0,0,0-1-1c-1.91,0-1,4,2,4a3,3,0,0,0,0-6Z"/><path class="cls-7" d="M8,14V10a3,3,0,0,1,3-3h3a1,1,0,0,1,0,2H11a1,1,0,0,0-1,1v4A1,1,0,0,1,8,14Z"/><path class="cls-7" d="M38,14V10a1,1,0,0,0-1-1H34a1,1,0,0,1,0-2h3a3,3,0,0,1,3,3v4A1,1,0,0,1,38,14Z"/><path class="cls-2" d="M42.17,44H33.83c-1.1,0-1.1-2,0-2h8.34C43.27,42,43.27,44,42.17,44Z"/><path class="cls-7" d="M19,20c0,26.28.06,24.24-.13,24.87A3,3,0,0,1,16,47H4a3,3,0,0,1-3-3V20a3,3,0,0,1,3-3H16A3,3,0,0,1,19,20Z"/><path class="cls-8" d="M19,20c0,26.28.06,24.24-.13,24.87C18.24,45.06,19,45,6,45a3,3,0,0,1-3-3c0-26.31-.06-24.24.13-24.87C3.76,16.94,3,17,16,17A3,3,0,0,1,19,20Z"/><rect class="cls-3" x="3" y="19" width="14" height="26" rx="1"/><path class="cls-4" d="M17,20c0,23.58-.1,23,0,23A12,12,0,0,1,5,31V19H16A1,1,0,0,1,17,20Z"/><path class="cls-7" d="M15,17c0,2,.06,2.32-.18,2.82A2,2,0,0,1,13,21H7a2,2,0,0,1-2-2V17Z"/><path class="cls-8" d="M15,17c0,2.59.18,3-1,3H9a3,3,0,0,1-3-3Z"/><path class="cls-2" d="M14.17,44H5.83c-1.1,0-1.1-2,0-2h8.34C15.27,42,15.27,44,14.17,44Z"/></g></svg>