<svg xmlns="http://www.w3.org/2000/svg" viewBox="0 0 48 48"><defs><style>.cls-1{fill:#dad7e5;}.cls-2{fill:#edebf2;}.cls-3{fill:#8bd1ea;}.cls-4{fill:#c6c3d8;}.cls-5{fill:#374f68;}.cls-6{fill:#425b72;}.cls-7{fill:#db5669;}.cls-8{fill:#6fabe6;}.cls-9{fill:#9dcc6b;}.cls-10{fill:#9fdbf3;}.cls-11{fill:#b2e5fb;}.cls-12{fill:#fc6;}</style></defs><title>Website Blog</title><g id="Website_Blog" data-name="Website Blog"><path class="cls-1" d="M45,9V33H3V9A2,2,0,0,1,5,7H43A2,2,0,0,1,45,9Z"/><path class="cls-2" d="M45,9V31H30A24,24,0,0,1,6,7H43A2,2,0,0,1,45,9Z"/><rect class="cls-3" x="5" y="9" width="38" height="24"/><path class="cls-1" d="M45,33v4a2,2,0,0,1-2,2H5a2,2,0,0,1-2-2V33Z"/><path class="cls-2" d="M45,33v4H10a4,4,0,0,1-4-4Z"/><rect class="cls-4" x="19" y="39" width="10" height="8"/><path class="cls-1" d="M27,47H19V41h2A6,6,0,0,1,27,47Z"/><path class="cls-5" d="M39,3V7H9V3a2,2,0,0,1,2-2H37A2,2,0,0,1,39,3Z"/><path class="cls-6" d="M39,3V7H12V3a2,2,0,0,1,2-2H37A2,2,0,0,1,39,3Z"/><path class="cls-5" d="M25,36a1,1,0,0,0-2,0A1,1,0,0,0,25,36Z"/><path class="cls-7" d="M14,4a1,1,0,0,0-2,0A1,1,0,0,0,14,4Z"/><path class="cls-8" d="M18,4a1,1,0,0,0-2,0A1,1,0,0,0,18,4Z"/><path class="cls-9" d="M22,4a1,1,0,0,0-2,0A1,1,0,0,0,22,4Z"/><path class="cls-1" d="M33,47H15a1,1,0,0,1,0-2H33A1,1,0,0,1,33,47Z"/><rect class="cls-10" x="9" y="7" width="30" height="26"/><path class="cls-11" d="M39,7V31H36A24,24,0,0,1,12,7Z"/><path class="cls-12" d="M30,19H28V17a4,4,0,0,0-4-4H21a4,4,0,0,0-4,4v6a4,4,0,0,0,4,4h6a4,4,0,0,0,4-4V20A1,1,0,0,0,30,19ZM19,17a2,2,0,0,1,2-2h3a2,2,0,0,1,2,2v2H19Zm10,6a2,2,0,0,1-2,2H21a2,2,0,0,1-2-2V21H29Z"/></g></svg>