<svg xmlns="http://www.w3.org/2000/svg" viewBox="0 0 48 48"><defs><style>.cls-1{fill:#fc6;}.cls-2{fill:#ffde76;}.cls-3{fill:#ffba55;}.cls-4{fill:#dad7e5;}.cls-5{fill:#edebf2;}.cls-6{fill:#374f68;}.cls-7{fill:#425b72;}.cls-8{fill:#2c435e;}</style></defs><title>Data Password</title><g id="Data_Password" data-name="Data Password"><path class="cls-1" d="M41,11V33a2,2,0,0,1-2,2H3a2,2,0,0,1-2-2V7A2,2,0,0,1,3,5H15.93c1.35,0,1.43.54,5.07,6Z"/><path class="cls-2" d="M41,11V33H32A28.08,28.08,0,0,1,4,5H15.93a2,2,0,0,1,1.66.89L21,11Z"/><path class="cls-3" d="M41,9v2H21L18.33,7H39A2,2,0,0,1,41,9Z"/><path class="cls-1" d="M41,9v1H25.61A6.73,6.73,0,0,1,20,7H39A2,2,0,0,1,41,9Z"/><rect class="cls-4" x="6" y="16" width="30" height="12" rx="2"/><path class="cls-5" d="M36,18v8H18A10,10,0,0,1,8,16H34A2,2,0,0,1,36,18Z"/><path class="cls-6" d="M13.55,20.11l-.55.27V20a1,1,0,0,0-2,0v.38l-.55-.27c-1.1-.55-2.26,1.1-.69,1.89-1.54.77-.43,2.46.69,1.89l.55-.27V24a1,1,0,0,0,2,0v-.38l.55.27c1.1.55,2.26-1.1.69-1.89C15.78,21.23,14.67,19.54,13.55,20.11Z"/><path class="cls-6" d="M22.55,20.11l-.55.27V20a1,1,0,0,0-2,0v.38l-.55-.27c-1.1-.55-2.26,1.1-.69,1.89-1.54.77-.43,2.46.69,1.89l.55-.27V24a1,1,0,0,0,2,0v-.38l.55.27c1.1.55,2.26-1.1.69-1.89C24.78,21.23,23.68,19.54,22.55,20.11Z"/><path class="cls-6" d="M32.45,22.11c-.27-.14-.28-.08,0-.22a1,1,0,0,0-.9-1.78l-.55.27V20a1,1,0,0,0-2,0v.38l-.55-.27a1,1,0,0,0-.9,1.78c.27.14.28.08,0,.22A1,1,0,0,0,28,24a2.21,2.21,0,0,0,1-.38V24a1,1,0,0,0,2,0v-.38A2.56,2.56,0,0,0,32,24,1,1,0,0,0,32.45,22.11Z"/><path class="cls-6" d="M44,31V30a4,4,0,0,0-8,0v1a1,1,0,0,1-2,0V30a6,6,0,0,1,12,0v1A1,1,0,0,1,44,31Z"/><rect class="cls-6" x="33" y="31" width="14" height="12" rx="2"/><path class="cls-7" d="M47,33v8H45A10,10,0,0,1,35,31H45A2,2,0,0,1,47,33Z"/><path class="cls-8" d="M40,38a2,2,0,1,1,2-2A2,2,0,0,1,40,38Zm0-2Z"/><path class="cls-8" d="M39,39V37a1,1,0,0,1,2,0v2A1,1,0,0,1,39,39Z"/></g></svg>