<svg xmlns="http://www.w3.org/2000/svg" viewBox="0 0 48 48"><defs><style>.cls-1{fill:#dad7e5;}.cls-2{fill:#edebf2;}.cls-3{fill:#747575;}.cls-4{fill:#7c7d7d;}.cls-5{fill:#919191;}</style></defs><title>Virtual Reality</title><g id="Virtual_Reality" data-name="Virtual Reality"><path class="cls-1" d="M43,25c0,13.24.18,12.75-.54,14A4,4,0,0,1,39,41H29.66c-2.29,0-2.62-1.38-4.05-2a4,4,0,0,0-3.22,0c-1.45.63-1.78,2-4.05,2H9a4,4,0,0,1-4-4V25a4,4,0,0,1,3-3.87c.66-.19-1.94-.13,31-.13A4,4,0,0,1,43,25Z"/><path class="cls-2" d="M43,25c0,13.24.18,12.75-.54,14H25.61a4,4,0,0,0-3.22,0A14,14,0,0,1,8,25V21.13c.73-.2,31.1-.13,31-.13A4,4,0,0,1,43,25Z"/><rect class="cls-3" x="1" y="25" width="4" height="12"/><path class="cls-4" d="M4,25v8a3,3,0,0,1-3,3c-.1,0,0,.61,0-11Z"/><rect class="cls-4" x="43" y="25" width="4" height="12"/><path class="cls-5" d="M47,25c0,11.62-.1,11,0,11a3,3,0,0,1-3-3V25Z"/><rect class="cls-4" x="17" y="17" width="14" height="4"/><path class="cls-5" d="M31,17v3H21a3,3,0,0,1-3-3Z"/><rect class="cls-1" x="18" y="7" width="12" height="10"/><path class="cls-2" d="M30,7v8H28a8,8,0,0,1-8-8Z"/><path class="cls-5" d="M27,26H21a1,1,0,0,1,0-2h6A1,1,0,0,1,27,26Z"/></g></svg>