<svg xmlns="http://www.w3.org/2000/svg" viewBox="0 0 48 48"><defs><style>.cls-1{fill:#dad7e5;}.cls-2{fill:#edebf2;}.cls-3{fill:#9fdbf3;}.cls-4{fill:#b2e5fb;}.cls-5{fill:#ffdec7;}.cls-6{fill:#f6ccaf;}</style></defs><title>Delivery Food Order</title><g id="Delivery_Food_Order" data-name="Delivery Food Order"><path class="cls-1" d="M37,5V34.27A2,2,0,0,0,36,36V35a2,2,0,0,0-.59-1.41A2,2,0,0,0,32,35V34a2,2,0,0,0-.59-1.41A2,2,0,0,0,28,34V27a2,2,0,0,0-4,0V40l-4.2-1.4a1.9,1.9,0,0,0-2.5,1.81c0,1.16.48,1.28,4.36,4.59H15a4,4,0,0,1-4-4V5a4,4,0,0,1,4-4H33A4,4,0,0,1,37,5Z"/><path class="cls-2" d="M37,5V34.27A2,2,0,0,0,36,36V35a2,2,0,0,0-.59-1.41A2,2,0,0,0,32,35V34a2,2,0,0,0-.59-1.41A2,2,0,0,0,28,34V27.11A2.08,2.08,0,0,0,26.18,25,2,2,0,0,0,24,27V40l-4.09-1.36a1.9,1.9,0,0,0-2,3.19L19.32,43A5.32,5.32,0,0,1,14,37.68V1.13C14.76.92,33.1,1,33,1A4,4,0,0,1,37,5Z"/><rect class="cls-3" x="13" y="3" width="22" height="40" rx="2"/><path class="cls-4" d="M35,5V35.27A2,2,0,0,0,34,37V36a2,2,0,0,0-.59-1.41A2,2,0,0,0,30,36V35a2,2,0,0,0-.59-1.41A2,2,0,0,0,26,35c0-7.72.09-7.38-.27-8a2,2,0,0,0-3.14-.41c-.81.75-.59,1-.59,9.23A19,19,0,0,1,16.43,26C15.86,23.39,16,23.91,16,3H33A2,2,0,0,1,35,5Z"/><path class="cls-1" d="M30,1c0,2,.06,2.32-.18,2.82A2,2,0,0,1,28,5H20a2,2,0,0,1-2-2V1Z"/><path class="cls-2" d="M30,1c0,2.59.18,3-1,3H22a3,3,0,0,1-3-3Z"/><path class="cls-1" d="M32,25v2H16c0-2.52-.27-6,3.43-8.57A8,8,0,0,1,32,25Z"/><path class="cls-2" d="M32,25H20c-2.89,0-2.23-4.19-.57-6.57A8,8,0,0,1,32,25Z"/><path class="cls-2" d="M25,15c0,.87,0,2,0,2.06a8.19,8.19,0,0,0-2,0C23,17,23,15.86,23,15A1,1,0,0,1,25,15Z"/><path class="cls-1" d="M32.1,28H15.9c-1.19,0-1.19-2,0-2H32.1C33.29,26,33.29,28,32.1,28Z"/><path class="cls-2" d="M24,26a2,2,0,0,0-1.73,1c-5.79,0-5.47,0-5.6,0A1,1,0,0,1,16,26Z"/><path class="cls-2" d="M33,27H25.73A2,2,0,0,0,24,26h8.1A1,1,0,0,1,33,27Z"/><path class="cls-5" d="M40,36V47H24L18,41.83A1.9,1.9,0,0,1,19.8,38.6L24,40c0-13.77-.24-13.6.59-14.41A2,2,0,0,1,28,27v7a2,2,0,0,1,4,0v1a2,2,0,0,1,4,0v1a2,2,0,0,1,4,0Z"/><path class="cls-6" d="M29.08,45a8.37,8.37,0,0,1-5.42-2c-3.85-3.29-4.29-3.42-4.35-4.49a1.9,1.9,0,0,0-2,1.9c0,1.23.41,1.21,6.7,6.59H40V45Z"/></g></svg>