<svg xmlns="http://www.w3.org/2000/svg" viewBox="0 0 48 48"><defs><style>.cls-1{fill:#dad7e5;}.cls-2{fill:#edebf2;}.cls-3{fill:#fc6;}.cls-4{fill:#ffde76;}.cls-5{fill:#374f68;}.cls-6{fill:#425b72;}</style></defs><title>file sharing</title><g id="file_sharing" data-name="file sharing"><path class="cls-1" d="M37,29.06C28.17,28,23.33,39.36,30.36,45H7a4,4,0,0,1-4-4V5A4,4,0,0,1,7,1C28.41,1,27.63.82,29,1.46V9h7.55C37.18,10.4,37,9.85,37,29.06Z"/><path class="cls-2" d="M37,11.07c0,18.74,0,18,0,18a8.85,8.85,0,0,0-6,1.49,9,9,0,0,0-5.11,12.29A22.51,22.51,0,0,1,6,20.47V1.13A3.66,3.66,0,0,1,7,1C28.41,1,27.63.82,29,1.46V9h7.55A5,5,0,0,1,37,11.07Z"/><circle class="cls-3" cx="36" cy="38" r="9"/><path class="cls-4" d="M45,38a8.94,8.94,0,0,1-1.72,5.28A9,9,0,0,1,30.72,30.72,9,9,0,0,1,45,38Z"/><path class="cls-5" d="M39,40c-1.87,0,.77,1.29-5-2,5.75-3.29,3.11-2,5-2a2,2,0,1,0-2-2l-4,2.29a2,2,0,1,0,0,3.44L37,42a2,2,0,1,0,2-2Z"/><path class="cls-1" d="M36.55,9H29V1.46C30.1,2,30,2,35.54,7.54A5.09,5.09,0,0,1,36.55,9Z"/><path class="cls-6" d="M28,24H8a1,1,0,0,1,0-2H28A1,1,0,0,1,28,24Z"/><path class="cls-6" d="M24,16H8a1,1,0,0,1,0-2H24A1,1,0,0,1,24,16Z"/><path class="cls-6" d="M20,32H8a1,1,0,0,1,0-2H20A1,1,0,0,1,20,32Z"/></g></svg>