<svg xmlns="http://www.w3.org/2000/svg" viewBox="0 0 48 48"><defs><style>.cls-1{fill:#dad7e5;}.cls-2{fill:#edebf2;}.cls-3{fill:#9fdbf3;}.cls-4{fill:#b2e5fb;}.cls-5{fill:#374f68;}.cls-6{fill:#425b72;}.cls-7{fill:#2c435e;}</style></defs><title>UX</title><g id="UX"><path class="cls-1" d="M37,5V29H36v2.29a7,7,0,0,0-1.33.55l-1.62-1.62-2.83,2.83,1.62,1.62A7,7,0,0,0,31.29,36H29v4h2.29a7,7,0,0,0,.55,1.33C30.07,43.1,30.17,42.9,30.27,43l2,2H15a4,4,0,0,1-4-4V5a4,4,0,0,1,4-4H33A4,4,0,0,1,37,5Z"/><path class="cls-2" d="M37,5V29H36v2.29a7,7,0,0,0-1.33.55l-1.62-1.62-2.83,2.83,1.62,1.62A7,7,0,0,0,31.29,36H29v4h2.29a7,7,0,0,0,.55,1.33C30.07,43.1,30.17,42.9,30.27,43A16.27,16.27,0,0,1,14,26.73V1.13C14.76.92,33.1,1,33,1A4,4,0,0,1,37,5Z"/><rect class="cls-3" x="13" y="3" width="22" height="40" rx="2"/><path class="cls-4" d="M35,5V30H34v2.29a7,7,0,0,0-1.33.55l-1.62-1.62-2.83,2.83,1.62,1.62A7,7,0,0,0,29.29,37H27v2.31A20,20,0,0,1,15,21V3H33A2,2,0,0,1,35,5Z"/><path class="cls-5" d="M44.71,40a7,7,0,0,1-.55,1.33L45.78,43,43,45.78l-1.62-1.62a7,7,0,0,1-1.33.55V47H36V44.71a7,7,0,0,1-1.33-.55l-1.62,1.62L30.22,43l1.62-1.62A7,7,0,0,1,31.29,40H29V36h2.29a7,7,0,0,1,.55-1.33l-1.62-1.62,2.83-2.83,1.62,1.62A7,7,0,0,1,36,31.29V29h4v2.29a7,7,0,0,1,1.33.55L43,30.22l2.83,2.83-1.62,1.62A7,7,0,0,1,44.71,36H47v4Z"/><path class="cls-6" d="M44.71,40a7,7,0,0,1-.55,1.33l1.59,1.59A9,9,0,0,1,42,44.79l-.63-.63C39.85,45,40,44.41,40,45a9,9,0,0,1-9-9h.29c.53-1.75.86-1-.08-2a9,9,0,0,1,1.87-3.79l1.59,1.59A7,7,0,0,1,36,31.29V29h4v2.29a7,7,0,0,1,1.33.55L43,30.22l2.83,2.83-1.62,1.62A7,7,0,0,1,44.71,36H47v4Z"/><circle class="cls-7" cx="38" cy="38" r="3"/><path class="cls-1" d="M30,1c0,2,.06,2.32-.18,2.82A2,2,0,0,1,28,5H20a2,2,0,0,1-2-2V1Z"/><path class="cls-2" d="M30,1c0,2.59.18,3-1,3H22a3,3,0,0,1-3-3Z"/><path class="cls-5" d="M19,27c-.56,0-.3.12-4.71-4.29a1,1,0,0,1,0-1.42l4-4a1,1,0,0,1,1.42,1.42L16.41,22l3.3,3.29A1,1,0,0,1,19,27Z"/><path class="cls-5" d="M29,27a1,1,0,0,1-.71-1.71L31.59,22l-3.3-3.29a1,1,0,0,1,1.42-1.42l4,4a1,1,0,0,1,0,1.42C29.34,27.08,29.56,27,29,27Z"/><path class="cls-5" d="M22,26.8l2-10a1,1,0,0,1,2,.4l-2,10A1,1,0,0,1,22,26.8Z"/></g></svg>