<svg xmlns="http://www.w3.org/2000/svg" viewBox="0 0 48 48"><defs><style>.cls-1{fill:#7c7d7d;}.cls-2{fill:#dad7e5;}.cls-3{fill:#edebf2;}.cls-4{fill:#fc6;}.cls-5{fill:#ffde76;}.cls-6{fill:#9dcc6b;}</style></defs><title>Server </title><g id="Server"><path class="cls-1" d="M23,44V33a1,1,0,0,1,2,0V44A1,1,0,0,1,23,44Z"/><path class="cls-1" d="M23,46H4a1,1,0,0,1,0-2H23A1,1,0,0,1,23,46Z"/><path class="cls-1" d="M44,46H25a1,1,0,0,1,0-2H44A1,1,0,0,1,44,46Z"/><rect class="cls-2" x="12" y="1" width="24" height="8"/><path class="cls-3" d="M36,1V7H20a6,6,0,0,1-6-6Z"/><path class="cls-4" d="M26,45a2,2,0,1,1-2.82-1.82A2,2,0,0,1,26,45Z"/><path class="cls-5" d="M25.82,45.82a2,2,0,0,1-2.64-2.64A2,2,0,0,1,25.82,45.82Z"/><path class="cls-4" d="M5,45a2,2,0,1,1-2.82-1.82A2,2,0,0,1,5,45Z"/><path class="cls-5" d="M4.82,45.82a2,2,0,0,1-2.64-2.64A2,2,0,0,1,4.82,45.82Z"/><path class="cls-4" d="M47,45a2,2,0,1,1-2.82-1.82A2,2,0,0,1,47,45Z"/><path class="cls-5" d="M46.82,45.82a2,2,0,0,1-2.64-2.64A2,2,0,0,1,46.82,45.82Z"/><path class="cls-1" d="M32,6H27a1,1,0,0,1,0-2h5A1,1,0,0,1,32,6Z"/><path class="cls-6" d="M17,5a1,1,0,0,0-2,0A1,1,0,0,0,17,5Z"/><path class="cls-6" d="M20,5a1,1,0,0,0-2,0A1,1,0,0,0,20,5Z"/><path class="cls-6" d="M23,5a1,1,0,0,0-2,0A1,1,0,0,0,23,5Z"/><rect class="cls-2" x="12" y="9" width="24" height="8"/><path class="cls-3" d="M36,9v6H20a6,6,0,0,1-6-6Z"/><path class="cls-1" d="M32,14H27a1,1,0,0,1,0-2h5A1,1,0,0,1,32,14Z"/><path class="cls-6" d="M17,13a1,1,0,0,0-2,0A1,1,0,0,0,17,13Z"/><path class="cls-6" d="M20,13a1,1,0,0,0-2,0A1,1,0,0,0,20,13Z"/><path class="cls-6" d="M23,13a1,1,0,0,0-2,0A1,1,0,0,0,23,13Z"/><rect class="cls-2" x="12" y="17" width="24" height="8"/><path class="cls-3" d="M36,17v6H20a6,6,0,0,1-6-6Z"/><path class="cls-1" d="M32,22H27a1,1,0,0,1,0-2h5A1,1,0,0,1,32,22Z"/><path class="cls-6" d="M17,21a1,1,0,0,0-2,0A1,1,0,0,0,17,21Z"/><path class="cls-6" d="M20,21a1,1,0,0,0-2,0A1,1,0,0,0,20,21Z"/><path class="cls-6" d="M23,21a1,1,0,0,0-2,0A1,1,0,0,0,23,21Z"/><rect class="cls-2" x="12" y="25" width="24" height="8"/><path class="cls-3" d="M36,25v6H20a6,6,0,0,1-6-6Z"/><path class="cls-1" d="M32,30H27a1,1,0,0,1,0-2h5A1,1,0,0,1,32,30Z"/><path class="cls-6" d="M17,29a1,1,0,0,0-2,0A1,1,0,0,0,17,29Z"/><path class="cls-6" d="M20,29a1,1,0,0,0-2,0A1,1,0,0,0,20,29Z"/><path class="cls-6" d="M23,29a1,1,0,0,0-2,0A1,1,0,0,0,23,29Z"/></g></svg>