<svg xmlns="http://www.w3.org/2000/svg" viewBox="0 0 48 48"><defs><style>.cls-1{fill:#9fdbf3;}.cls-2{fill:#b2e5fb;}.cls-3{fill:#374f68;}.cls-4{fill:#425b72;}.cls-5{fill:#db5669;}.cls-6{fill:#6fabe6;}.cls-7{fill:#9dcc6b;}.cls-8{fill:#dad7e5;}.cls-9{fill:#edebf2;}.cls-10{fill:#f26674;}.cls-11{fill:#c6c3d8;}</style></defs><title>Video Ads</title><g id="Video_Ads" data-name="Video Ads"><rect class="cls-1" x="1" y="7" width="42" height="32"/><path class="cls-2" d="M43,7V37c-10.15,0-17.84.88-27-6l10-6L16,19V31A29.93,29.93,0,0,1,4,7Z"/><path class="cls-3" d="M43,4V7H1V4A3,3,0,0,1,4,1H40A3,3,0,0,1,43,4Z"/><path class="cls-4" d="M43,4V7H4V4A3,3,0,0,1,7,1H40A3,3,0,0,1,43,4Z"/><path class="cls-5" d="M6,4A1,1,0,0,0,4,4,1,1,0,0,0,6,4Z"/><path class="cls-6" d="M10,4A1,1,0,0,0,8,4,1,1,0,0,0,10,4Z"/><path class="cls-7" d="M14,4a1,1,0,0,0-2,0A1,1,0,0,0,14,4Z"/><path class="cls-8" d="M43,27V43L33,39V31Z"/><path class="cls-9" d="M43,27V40.2l-1.69-.67A10.07,10.07,0,0,1,35,30.2Z"/><rect class="cls-8" x="25" y="31" width="8" height="8"/><path class="cls-9" d="M33,31v6a6,6,0,0,1-6-6Z"/><path class="cls-8" d="M46,36H45a1,1,0,0,1,0-2h1A1,1,0,0,1,46,36Z"/><path class="cls-8" d="M45,30a1,1,0,0,1-.71-1.71l1-1a1,1,0,0,1,1.42,1.42C45.65,29.77,45.52,30,45,30Z"/><path class="cls-8" d="M46,43c-.53,0-.67-.26-1.71-1.29a1,1,0,0,1,1.42-1.42l1,1A1,1,0,0,1,46,43Z"/><path class="cls-5" d="M25,31v8a4,4,0,1,1,0-8Z"/><path class="cls-10" d="M25,31v5.87a4,4,0,0,1-2.93-4.59A4,4,0,0,1,25,31Z"/><path class="cls-11" d="M30,47H26c-1-8.06-.82-6.62-1-8h4Z"/><path class="cls-8" d="M28.88,47H26l-.87-7a3.26,3.26,0,0,1,3.23,2.85Z"/><path class="cls-5" d="M28,23,18,29V17Z"/><path class="cls-10" d="M26.5,22.1l-5,3A1,1,0,0,1,20,24.23v-6Z"/></g></svg>