<svg xmlns="http://www.w3.org/2000/svg" viewBox="0 0 48 48"><defs><style>.cls-1{fill:#9fdbf3;}.cls-2{fill:#b2e5fb;}.cls-3{fill:#9dcc6b;}.cls-4{fill:#b5e08c;}.cls-5{fill:#dad7e5;}.cls-6{fill:#edebf2;}</style></defs><title>World Database</title><g id="World_Database" data-name="World Database"><path class="cls-1" d="M47,24A23,23,0,1,1,12.81,3.91,23,23,0,0,1,47,24Z"/><path class="cls-2" d="M45,33.39V33c0-3.22-12.29-4.25-15.48-1.06-.75.72-.52.09-.52,13a6.32,6.32,0,0,1-.76.06,23,23,0,0,1-15.46-41l0,0A23,23,0,0,1,45,33.39Z"/><path class="cls-3" d="M12.78,3.94A22.89,22.89,0,0,0,4,22V12.66C7.16,7.07,12.65,3.81,12.78,3.94Z"/><path class="cls-3" d="M32,44.46v1.1a22.94,22.94,0,0,1-12.57,1l-.72-3.09A23.06,23.06,0,0,0,32,44.46Z"/><path class="cls-3" d="M32,34V44.46a21.26,21.26,0,0,1-3,.44c0-12.86-.2-12.26.52-13Z"/><path class="cls-4" d="M29.52,31.94c-.75.72-.52.09-.52,13a22.72,22.72,0,0,1-10.29-1.45l-.48-2.09A1.62,1.62,0,0,0,16.62,40,1.63,1.63,0,0,1,15,38.38c0-3,.13-3.25-.48-3.86-11-11-10.29-10.18-10.44-10.71A5.74,5.74,0,0,1,4,22,22.89,22.89,0,0,1,12.78,3.94l.93,1.12a3.51,3.51,0,0,1,0,3.88,1.55,1.55,0,0,0,2.39,2l1.2-1.2a2.41,2.41,0,0,1,4.11,1.7c0,.91-.26,1.09-2.8,5.54-.72,1.26-1.82,1.37-3.09,1.68a2.83,2.83,0,0,0-2.16,2.76c0,1.26.46,1.6,2.59,4.16s5.11,1.86,6.12,1.86C24.52,27.4,25.31,28.43,29.52,31.94Z"/><path class="cls-5" d="M47,32c0,.83-.9,1.58-2.34,2.12h0C40.21,35.78,31,34.9,31,32c0-2.34,6.3-3.21,8.62-3C39.85,28.79,47,29.54,47,32Z"/><path class="cls-6" d="M47,32c0,.83-.9,1.58-2.34,2.12h0a13.58,13.58,0,0,1-3.31.74c-8.83-.26-10-4.9-1.72-5.84C39.85,28.79,47,29.54,47,32Z"/><path class="cls-4" d="M47,24c-4.53,0-6.64.44-8.3-1.58-5.47-6.69-6.2-7.07-6.2-9.13,0-2.57,1.78-2.89,1.78-4.29A1.75,1.75,0,0,0,32,7.34c-1.09.36-1.9.74-2.74-.1a1.76,1.76,0,0,1-.33-2.45c2.31-3.1,1.94-2.72,2-2.72A23,23,0,0,1,47,24Z"/><path class="cls-6" d="M47,32v6c0,1.66-3.58,3-8,3s-8-1.34-8-3V32c0,2.69,8.63,4,13.65,2.12C44.75,34.12,47,33.3,47,32Z"/><path class="cls-5" d="M34,37.88V34.34C32.17,33.79,31,33,31,32v6c0,1.66,3.58,3,8,3a21.91,21.91,0,0,0,2.35-.13C37.24,40.74,34,39.46,34,37.88Z"/><path class="cls-6" d="M47,38v6c0,1.66-3.58,3-8,3s-8-1.34-8-3V38c0,1.66,3.58,3,8,3S47,39.66,47,38Z"/><path class="cls-5" d="M34,44V40.34C32.17,39.79,31,39,31,38v6c0,1.66,3.58,3,8,3C44.25,47,34,47.13,34,44Z"/></g></svg>