<svg xmlns="http://www.w3.org/2000/svg" viewBox="0 0 48 48"><defs><style>.cls-1{fill:#7c7d7d;}.cls-2{fill:#919191;}.cls-3{fill:#dad7e5;}.cls-4{fill:#edebf2;}.cls-5{fill:#db5669;}.cls-6{fill:#f26674;}</style></defs><title>video production</title><g id="video_production" data-name="video production"><path class="cls-1" d="M33,19V41H1V19H2.68a7,7,0,0,0,12.64,0h1.76a8,8,0,0,0,13.84,0Z"/><path class="cls-2" d="M33,19V39H22.11A18.11,18.11,0,0,1,4.18,23.41a7,7,0,0,0,6.9-.72,0,0,0,0,0,0,0,7,7,0,0,0,3.84-3c1.44,3.59,7.18,5.91,11.58,2.89A8,8,0,0,0,30.92,19Z"/><rect class="cls-1" x="33" y="26" width="4" height="10"/><path class="cls-2" d="M37,26c0,8.55-.1,8,0,8a2,2,0,0,1-2-2V26Z"/><polygon class="cls-1" points="47 21 47 41 37 36 37 26 47 21"/><path class="cls-2" d="M47,21c0,18.25-.1,17,0,17a14.47,14.47,0,0,1-8-13Z"/><path class="cls-3" d="M32,15c0,8.09-10.85,11.1-14.92,4A8,8,0,1,1,32,15Z"/><path class="cls-4" d="M32,15a7.78,7.78,0,0,1-1.45,4.57A8,8,0,0,1,19.44,8.44,8,8,0,0,1,32,15Z"/><path class="cls-3" d="M16,16A7,7,0,1,1,9,9,7,7,0,0,1,16,16Z"/><path class="cls-4" d="M16,16a7,7,0,0,1-1.16,3.85A6.89,6.89,0,0,1,11,21,7,7,0,0,1,5.15,10.15,7,7,0,0,1,16,16Z"/><circle class="cls-1" cx="24" cy="15" r="2"/><circle class="cls-1" cx="9" cy="16" r="2"/><path class="cls-5" d="M22,31l-8,5V26C16,27.28,19.4,29.37,22,31Z"/><path class="cls-6" d="M20.9,30.31,16.53,33A1,1,0,0,1,15,32.2V26.63Z"/></g></svg>