<svg xmlns="http://www.w3.org/2000/svg" viewBox="0 0 48 48"><defs><style>.cls-1{fill:#7c7d7d;}.cls-2{fill:#dad7e5;}.cls-3{fill:#edebf2;}.cls-4{fill:#fc6;}.cls-5{fill:#ffde76;}</style></defs><title>Cloud Data Collection</title><g id="Cloud_Data_Collection" data-name="Cloud Data Collection"><path class="cls-1" d="M23,44V35a1,1,0,0,1,2,0v9A1,1,0,0,1,23,44Z"/><path class="cls-2" d="M38,33H36V21H26l-2-4H12V33H9C.65,33-2.09,21.73,5.31,17.91a6,6,0,0,1,7.21-7.71A16,16,0,0,1,43,16.51C50.36,21.41,46.9,33,38,33Z"/><path class="cls-3" d="M38,33H9C.65,33-2.09,21.73,5.31,17.91a6,6,0,0,1,7.21-7.71A16,16,0,0,1,43,16.51C50.36,21.41,46.9,33,38,33Z"/><path class="cls-2" d="M12,31C3.65,31,.91,19.73,8.31,15.91a6,6,0,0,1,1-5.67,6,6,0,0,0-4,7.67C-2.08,21.72.64,33,9,33H38a9,9,0,0,0,6.39-2.67C42.14,31.25,43.26,31,12,31Z"/><rect class="cls-4" x="12" y="21" width="24" height="14"/><path class="cls-5" d="M36,21V33H25.46A10.47,10.47,0,0,1,15,22.54V21Z"/><path class="cls-1" d="M23,46H4a1,1,0,0,1,0-2H23A1,1,0,0,1,23,46Z"/><path class="cls-1" d="M44,46H25a1,1,0,0,1,0-2H44A1,1,0,0,1,44,46Z"/><polygon class="cls-4" points="26 21 12 21 12 17 24 17 26 21"/><path class="cls-5" d="M25.5,20H18a3,3,0,0,1-3-3c0-.1-.57,0,9,0Z"/><path class="cls-4" d="M26,45a2,2,0,1,1-2.82-1.82A2,2,0,0,1,26,45Z"/><path class="cls-5" d="M25.82,45.82a2,2,0,0,1-2.64-2.64A2,2,0,0,1,25.82,45.82Z"/><path class="cls-4" d="M5,45a2,2,0,1,1-2.82-1.82A2,2,0,0,1,5,45Z"/><path class="cls-5" d="M4.82,45.82a2,2,0,0,1-2.64-2.64A2,2,0,0,1,4.82,45.82Z"/><path class="cls-4" d="M47,45a2,2,0,1,1-2.82-1.82A2,2,0,0,1,47,45Z"/><path class="cls-5" d="M46.82,45.82a2,2,0,0,1-2.64-2.64A2,2,0,0,1,46.82,45.82Z"/></g></svg>