<svg xmlns="http://www.w3.org/2000/svg" viewBox="0 0 48 48"><defs><style>.cls-1{fill:#dad7e5;}.cls-2{fill:#edebf2;}.cls-3{fill:#b2e5fb;}.cls-4{fill:#9fdbf3;}</style></defs><title>Cloud Database</title><g id="Cloud_Database" data-name="Cloud Database"><path class="cls-1" d="M38,36H33V23c0-1.66-4.58-3-9-3s-9,1.34-9,3V36H9C.65,36-2.09,24.73,5.31,20.91a6,6,0,0,1,7.21-7.71A16,16,0,0,1,43,19.51C50.36,24.41,46.9,36,38,36Z"/><path class="cls-2" d="M38,36H9C.65,36-2.09,24.73,5.31,20.91a6,6,0,0,1,7.21-7.71A16,16,0,0,1,43,19.51C50.36,24.41,46.9,36,38,36Z"/><path class="cls-3" d="M23,21c-3.61-.22-10,.9-10,3V36H31V24C31,22.46,27.08,21.2,23,21Z"/><path class="cls-1" d="M31,24V36H13V24c0-1.66,4.58-3,9-3C24.65,21,31,21.84,31,24Z"/><path class="cls-1" d="M12,34C3.65,34,.91,22.73,8.31,18.91a6,6,0,0,1,1-5.67,6,6,0,0,0-4,7.67C-2.08,24.72.64,36,9,36H38a9,9,0,0,0,6.39-2.67C42.14,34.25,43.26,34,12,34Z"/><ellipse class="cls-4" cx="24" cy="23" rx="9" ry="3"/><ellipse class="cls-3" cx="25" cy="23" rx="8" ry="2.97"/><path class="cls-3" d="M33,23v6c0,1.66-4.58,3-9,3s-9-1.34-9-3V23c0,1.66,4.58,3,9,3S33,24.66,33,23Z"/><path class="cls-4" d="M17,29V24.81c-1.22-.5-2-1.13-2-1.81v6c0,1.66,4.58,3,9,3l1,0C20.92,31.79,17,30.53,17,29Z"/><path class="cls-3" d="M33,29v6c0,1.66-4.58,3-9,3s-9-1.34-9-3V29c0,1.66,4.58,3,9,3S33,30.66,33,29Z"/><path class="cls-4" d="M17,35V30.81c-1.22-.5-2-1.13-2-1.81v6c0,1.66,4.58,3,9,3l1,0C20.92,37.79,17,36.53,17,35Z"/><path class="cls-3" d="M33,35v6c0,1.66-4.58,3-9,3s-9-1.34-9-3V35c0,1.66,4.58,3,9,3S33,36.66,33,35Z"/><path class="cls-4" d="M17,41V36.81c-1.22-.5-2-1.13-2-1.81v6c0,1.66,4.58,3,9,3l1,0C20.92,43.79,17,42.53,17,41Z"/></g></svg>