<svg xmlns="http://www.w3.org/2000/svg" viewBox="0 0 48 48"><defs><style>.cls-1{fill:#9fdbf3;}.cls-2{fill:#b2e5fb;}.cls-3{fill:#374f68;}.cls-4{fill:#425b72;}.cls-5{fill:#db5669;}.cls-6{fill:#6fabe6;}.cls-7{fill:#9dcc6b;}.cls-8{fill:#dad7e5;}.cls-9{fill:#edebf2;}.cls-10{fill:#c6c3d8;}</style></defs><title>Wireframe</title><g id="Wireframe"><rect class="cls-1" x="1" y="8" width="46" height="38"/><path class="cls-2" d="M47,8V44H40A36,36,0,0,1,4,8Z"/><path class="cls-3" d="M47,4V8H1V4A2,2,0,0,1,3,2H45A2,2,0,0,1,47,4Z"/><path class="cls-4" d="M47,4V8H4V4A2,2,0,0,1,6,2H45A2,2,0,0,1,47,4Z"/><path class="cls-5" d="M6,5A1,1,0,0,0,4,5,1,1,0,0,0,6,5Z"/><path class="cls-6" d="M10,5A1,1,0,0,0,8,5,1,1,0,0,0,10,5Z"/><path class="cls-7" d="M14,5a1,1,0,0,0-2,0A1,1,0,0,0,14,5Z"/><rect class="cls-8" x="5" y="12" width="38" height="14"/><path class="cls-9" d="M43,12V24H20A12,12,0,0,1,8,12Z"/><rect class="cls-8" x="5" y="30" width="12" height="12"/><path class="cls-9" d="M17,30c0,10.61-.1,10,0,10a9,9,0,0,1-9-9V30Z"/><path class="cls-10" d="M43,12c-3.87,0-.29-1-19,5.93C5.28,11,8.87,12,5,12v1.07L21.1,19,5,24.93V26c3.87,0,.29,1,19-5.93C42.72,27,39.13,26,43,26V24.93L26.9,19,43,13.07Z"/><polygon class="cls-10" points="17 30 15.58 30 11 34.58 6.42 30 5 30 5 31.42 9.58 36 5 40.58 5 42 6.42 42 11 37.42 15.58 42 17 42 17 40.58 12.42 36 17 31.42 17 30"/><path class="cls-10" d="M43,33H21a1,1,0,0,1,0-2H43A1,1,0,0,1,43,33Z"/><path class="cls-10" d="M38,37H21a1,1,0,0,1,0-2H38A1,1,0,0,1,38,37Z"/><path class="cls-10" d="M33,41H21a1,1,0,0,1,0-2H33A1,1,0,0,1,33,41Z"/></g></svg>