<svg xmlns="http://www.w3.org/2000/svg" viewBox="0 0 48 48"><defs><style>.cls-1{fill:#9fdbf3;}.cls-2{fill:#b2e5fb;}.cls-3{fill:#374f68;}.cls-4{fill:#425b72;}.cls-5{fill:#db5669;}.cls-6{fill:#6fabe6;}.cls-7{fill:#9dcc6b;}.cls-8{fill:#b5e08c;}.cls-9{fill:#ffde76;}.cls-10{fill:#f26674;}</style></defs><title>Website Speedometer</title><g id="Website_Speedometer" data-name="Website Speedometer"><rect class="cls-1" x="1" y="8" width="46" height="38"/><path class="cls-2" d="M47,8V44H40A36,36,0,0,1,4,8Z"/><path class="cls-3" d="M47,4V8H1V4A2,2,0,0,1,3,2H45A2,2,0,0,1,47,4Z"/><path class="cls-4" d="M47,4V8H4V4A2,2,0,0,1,6,2H45A2,2,0,0,1,47,4Z"/><path class="cls-5" d="M6,5A1,1,0,0,0,4,5,1,1,0,0,0,6,5Z"/><path class="cls-6" d="M10,5A1,1,0,0,0,8,5,1,1,0,0,0,10,5Z"/><path class="cls-7" d="M14,5a1,1,0,0,0-2,0A1,1,0,0,0,14,5Z"/><path class="cls-8" d="M19.56,25.35A8,8,0,0,0,16,32H10a14,14,0,0,1,6.24-11.65Z"/><path class="cls-9" d="M31.76,20.35l-3.32,5a8,8,0,0,0-8.88,0l-3.32-5A14,14,0,0,1,31.76,20.35Z"/><path class="cls-10" d="M38,32H32a8,8,0,0,0-3.56-6.65l3.32-5A14,14,0,0,1,38,32Z"/><path class="cls-7" d="M12.82,25.28a14.14,14.14,0,0,1,2.31-4.1A14,14,0,0,0,10,32h6a8.24,8.24,0,0,1,.25-2A3.58,3.58,0,0,1,12.82,25.28Z"/><path class="cls-3" d="M27,33a3,3,0,0,1-6,0c0-1.37,2.12-4,3-5C24,28,27,31.34,27,33Z"/><path class="cls-4" d="M27,33.24c-2.22,2-5.6-.23-4.9-2.75A23.9,23.9,0,0,1,24,28C24.69,28.77,27.31,31.93,27,33.24Z"/></g></svg>