<svg xmlns="http://www.w3.org/2000/svg" viewBox="0 0 48 48"><defs><style>.cls-1{fill:#dad7e5;}.cls-2{fill:#edebf2;}.cls-3{fill:#9fdbf3;}.cls-4{fill:#b2e5fb;}.cls-5{fill:#fc6;}</style></defs><title>Smartphone Rating </title><g id="Smartphone_Rating" data-name="Smartphone Rating"><path class="cls-1" d="M37,30c0,13.89.19,13.73-.54,15A4,4,0,0,1,33,47H15a4,4,0,0,1-4-4V30c8.35,0,8.81-.3,9.59.89l1.75,2.61a2,2,0,0,0,3.32,0c1.69-2.53,2-3.5,3.41-3.5Z"/><path class="cls-1" d="M37,5V16H11V5a4,4,0,0,1,3-3.87C14.66,1,13.38,1,33,1A4,4,0,0,1,37,5Z"/><path class="cls-2" d="M37,5V16H14V1.13C14.66,1,13.38,1,33,1A4,4,0,0,1,37,5Z"/><path class="cls-2" d="M37,31.87c0,12.18.18,11.88-.54,13.13H29A15,15,0,0,1,14,30c6.91,0,5.53-.7,8.34,3.5a2,2,0,0,0,3.32,0c1.05-1.56.87-1.5,1.41-1.5C36.68,32,36.35,32.05,37,31.87Z"/><rect class="cls-3" x="13" y="3" width="22" height="42" rx="2"/><path class="cls-4" d="M35,5V18H16V3H33A2,2,0,0,1,35,5Z"/><path class="cls-4" d="M27.07,32H35V43A19.05,19.05,0,0,1,17.9,32.26c.57.29.7.64,2.44,3.24a2,2,0,0,0,3.32,0C25.35,33,25.69,32,27.07,32Z"/><path class="cls-2" d="M42,20v6a4,4,0,0,1-4,4c-9.52,0-9.81-.3-10.59.89L25.66,33.5a2,2,0,0,1-3.32,0c-1.69-2.53-2-3.5-3.41-3.5H10a4,4,0,0,1-4-4V20a4,4,0,0,1,4-4H38A4,4,0,0,1,42,20Z"/><path class="cls-1" d="M25.34,31.5c-1.69-2.53-2-3.5-3.41-3.5H13a4,4,0,0,1-4-4c0-6.41-.17-6.72.53-7.95A4,4,0,0,0,6,20v6a4,4,0,0,0,4,4h8.93c1.34,0,1.6.8,3.41,3.5a2,2,0,0,0,3.32,0C27,31.44,26.29,32.93,25.34,31.5Z"/><path class="cls-1" d="M30,1c0,2,.06,2.32-.18,2.82A2,2,0,0,1,28,5H20a2,2,0,0,1-2-2V1Z"/><path class="cls-2" d="M30,1c0,2,.06,2.32-.18,2.82C29.24,4.1,29.37,4,21,4a2,2,0,0,1-2-2V1Z"/><path class="cls-5" d="M27,21H25.39L25,19.68a1,1,0,0,0-1.9,0L22.61,21H21a1,1,0,0,0-.62,1.78l1.29,1-.62,1.86A1,1,0,0,0,21.88,27c.57.07.74-.19,2.12-1.29A9.06,9.06,0,0,0,25.68,27a1,1,0,0,0,1.24-.59c.17-.45,0-.62-.59-2.54l1.3-1A1,1,0,0,0,27,21Z"/><path class="cls-5" d="M16,21H14.39L14,19.68a1,1,0,0,0-1.9,0L11.61,21H10a1,1,0,0,0-.62,1.78l1.29,1-.62,1.86A1,1,0,0,0,10.88,27c.56.07.71-.16,2.12-1.29A9.06,9.06,0,0,0,14.68,27a1,1,0,0,0,1.24-.59c.17-.45.05-.62-.59-2.54l1.3-1A1,1,0,0,0,16,21Z"/><path class="cls-5" d="M38.94,21.67c-.28-.8-.9-.67-2.55-.67-.33-1-.45-2-1.39-2s-.91.57-1.39,2c-1.37,0-2.25-.2-2.55.67s.37,1.15,1.61,2.15c-.82,2.47-.58,1.72-.63,2A1,1,0,0,0,32.88,27c.59.08.74-.19,2.12-1.29,1.18.94,1.53,1.32,2,1.32a1,1,0,0,0,1-1.22c-.05-.23.18.47-.63-2l1.3-1A1,1,0,0,0,38.94,21.67Z"/><path class="cls-2" d="M30,43H18a1,1,0,0,1,0-2H30A1,1,0,0,1,30,43Z"/></g></svg>