<svg xmlns="http://www.w3.org/2000/svg" viewBox="0 0 48 48"><defs><style>.cls-1{fill:#dad7e5;}.cls-2{fill:#edebf2;}.cls-3{fill:#9fdbf3;}.cls-4{fill:#b2e5fb;}.cls-5{fill:#374f68;}</style></defs><title>A B Comparison</title><g id="A_B_Comparison" data-name="A B Comparison"><path class="cls-1" d="M47,12c0,26.28.06,24.24-.13,24.87A3,3,0,0,1,44,39H32a3,3,0,0,1-3-3V12a3,3,0,0,1,3-3H44A3,3,0,0,1,47,12Z"/><path class="cls-2" d="M47,12c0,26.28.06,24.24-.13,24.87A3.23,3.23,0,0,1,46,37,15,15,0,0,1,31,22C31,9,31,9.75,31.13,9.13A3.1,3.1,0,0,1,32,9H44A3,3,0,0,1,47,12Z"/><rect class="cls-3" x="31" y="11" width="14" height="26" rx="1"/><path class="cls-4" d="M45,12c0,23.58-.1,23,0,23A12,12,0,0,1,33,23V11H44A1,1,0,0,1,45,12Z"/><path class="cls-1" d="M43,9c0,2,.06,2.32-.18,2.82A2,2,0,0,1,41,13H35a2,2,0,0,1-2-2V9Z"/><path class="cls-2" d="M43,9c0,2.59.18,3-1,3H37a3,3,0,0,1-3-3Z"/><path class="cls-2" d="M42,36H34a1,1,0,0,1,0-2h8A1,1,0,0,1,42,36Z"/><path class="cls-1" d="M19,12c0,26.28.06,24.24-.13,24.87A3,3,0,0,1,16,39H4a3,3,0,0,1-3-3V12A3,3,0,0,1,4,9H16A3,3,0,0,1,19,12Z"/><path class="cls-2" d="M19,12c0,26.28.06,24.24-.13,24.87A3.23,3.23,0,0,1,18,37,15,15,0,0,1,3,22C3,9,3,9.75,3.13,9.13A3.1,3.1,0,0,1,4,9H16A3,3,0,0,1,19,12Z"/><rect class="cls-3" x="3" y="11" width="14" height="26" rx="1"/><path class="cls-4" d="M17,12c0,23.58-.1,23,0,23A12,12,0,0,1,5,23V11H16A1,1,0,0,1,17,12Z"/><path class="cls-1" d="M15,9c0,2,.06,2.32-.18,2.82A2,2,0,0,1,13,13H7a2,2,0,0,1-2-2V9Z"/><path class="cls-2" d="M15,9c0,2.59.18,3-1,3H9A3,3,0,0,1,6,9Z"/><path class="cls-2" d="M14,36H6a1,1,0,0,1,0-2h8A1,1,0,0,1,14,36Z"/><path class="cls-5" d="M13,24.68C10.82,18.29,11,18,10,18s-.83.32-2.95,6.68a1,1,0,0,0,1.9.64c.14-.43-.2-.32,2-.32.08.26.24,1,1.05,1A1,1,0,0,0,13,24.68ZM9.72,23l.28-.84.28.84Z"/><path class="cls-5" d="M38.5,18H36a1,1,0,0,0-1,1v6a1,1,0,0,0,1,1h2.5a2.5,2.5,0,0,0,2-4A2.5,2.5,0,0,0,38.5,18Zm0,6H37V23h1.5A.5.5,0,0,1,38.5,24Zm0-3H37V20h1.5A.5.5,0,0,1,38.5,21Z"/><path class="cls-5" d="M10.48,42.83a1,1,0,0,1,1.12-1.66,22,22,0,0,0,24.8,0,1,1,0,0,1,1.12,1.66A24,24,0,0,1,10.48,42.83Z"/><path class="cls-5" d="M37,7C36,7,32.05,3,24,3A21.88,21.88,0,0,0,11.6,6.83a1,1,0,0,1-1.12-1.66,24,24,0,0,1,27,0A1,1,0,0,1,37,7Z"/></g></svg>