<svg xmlns="http://www.w3.org/2000/svg" viewBox="0 0 48 48"><defs><style>.cls-1{fill:#dad7e5;}.cls-2{fill:#edebf2;}.cls-3{fill:#8bd1ea;}.cls-4{fill:#9fdbf3;}.cls-5{fill:#b2e5fb;}.cls-6{fill:#c6c3d8;}.cls-7{fill:#374f68;}.cls-8{fill:#425b72;}.cls-9{fill:#db5669;}.cls-10{fill:#6fabe6;}.cls-11{fill:#9dcc6b;}</style></defs><title>Computer Web Coding </title><g id="Computer_Web_Coding" data-name="Computer Web Coding"><path class="cls-1" d="M45,9V33H3V9A2,2,0,0,1,5,7H43A2,2,0,0,1,45,9Z"/><path class="cls-2" d="M45,9V31H30A24,24,0,0,1,6,7H43A2,2,0,0,1,45,9Z"/><rect class="cls-3" x="5" y="9" width="38" height="24"/><path class="cls-1" d="M45,33v4a2,2,0,0,1-2,2H5a2,2,0,0,1-2-2V33Z"/><path class="cls-2" d="M45,33v4H10a4,4,0,0,1-4-4Z"/><rect class="cls-4" x="9" y="7" width="30" height="26"/><path class="cls-5" d="M39,7V31H36A24,24,0,0,1,12,7Z"/><rect class="cls-6" x="19" y="39" width="10" height="8"/><path class="cls-1" d="M27,47H19V41h2A6,6,0,0,1,27,47Z"/><path class="cls-1" d="M33,47H15a1,1,0,0,1,0-2H33A1,1,0,0,1,33,47Z"/><path class="cls-7" d="M39,3V7H9V3a2,2,0,0,1,2-2H37A2,2,0,0,1,39,3Z"/><path class="cls-8" d="M39,3V7H12V3a2,2,0,0,1,2-2H37A2,2,0,0,1,39,3Z"/><path class="cls-7" d="M25,36a1,1,0,0,0-2,0A1,1,0,0,0,25,36Z"/><path class="cls-9" d="M14,4a1,1,0,0,0-2,0A1,1,0,0,0,14,4Z"/><path class="cls-10" d="M18,4a1,1,0,0,0-2,0A1,1,0,0,0,18,4Z"/><path class="cls-11" d="M22,4a1,1,0,0,0-2,0A1,1,0,0,0,22,4Z"/><path class="cls-7" d="M20,24c-.56,0-.3.12-4.71-4.29a1,1,0,0,1,0-1.42l4-4a1,1,0,0,1,1.42,1.42L17.41,19l3.3,3.29A1,1,0,0,1,20,24Z"/><path class="cls-7" d="M28,24a1,1,0,0,1-.71-1.71L30.59,19l-3.3-3.29a1,1,0,0,1,1.42-1.42l4,4a1,1,0,0,1,0,1.42C28.34,24.08,28.56,24,28,24Z"/><path class="cls-7" d="M22,23.8l2-10a1,1,0,0,1,2,.4l-2,10A1,1,0,0,1,22,23.8Z"/></g></svg>