<svg xmlns="http://www.w3.org/2000/svg" viewBox="0 0 48 48"><defs><style>.cls-1{fill:#9fdbf3;}.cls-2{fill:#b2e5fb;}.cls-3{fill:#374f68;}.cls-4{fill:#425b72;}.cls-5{fill:#db5669;}.cls-6{fill:#6fabe6;}.cls-7{fill:#9dcc6b;}.cls-8{fill:#2c435e;}</style></defs><title>website coding and gear</title><g id="website_coding_and_gear" data-name="website coding and gear"><path class="cls-1" d="M43,7c0,25,0,23.32,0,23.22l-1.62,1.62A7,7,0,0,0,40,31.29V29H36v2.29a7,7,0,0,0-1.33.55l-1.62-1.62-2.83,2.83,1.62,1.62A7,7,0,0,0,31.29,36H29v3H1V7Z"/><path class="cls-2" d="M43,7c0,25,0,23.32,0,23.22l-1.62,1.62A7,7,0,0,0,40,31.29V29H36v1H34v1.17l-1-1-1.5,1.5-.5-.5-2.83,2.83,1.62,1.62c-.23.42,0,.33-.84.33v1A25,25,0,0,1,4,12V7Z"/><path class="cls-3" d="M43,4V7H1V4A3,3,0,0,1,4,1H40A3,3,0,0,1,43,4Z"/><path class="cls-4" d="M43,4V7H4V4A3,3,0,0,1,7,1H40A3,3,0,0,1,43,4Z"/><path class="cls-5" d="M6,4A1,1,0,0,0,4,4,1,1,0,0,0,6,4Z"/><path class="cls-6" d="M10,4A1,1,0,0,0,8,4,1,1,0,0,0,10,4Z"/><path class="cls-7" d="M14,4a1,1,0,0,0-2,0A1,1,0,0,0,14,4Z"/><path class="cls-3" d="M44.71,40a7,7,0,0,1-.55,1.33L45.78,43,43,45.78l-1.62-1.62a7,7,0,0,1-1.33.55V47H36V44.71a7,7,0,0,1-1.33-.55l-1.62,1.62L30.22,43l1.62-1.62A7,7,0,0,1,31.29,40H29V36h2.29c.53-1.75.86-1-.08-2l-1-1,2.83-2.83,1.62,1.62A7,7,0,0,1,36,31.29V29h4v2.29a7,7,0,0,1,1.33.55L43,30.22l2.83,2.83-1.62,1.62A7,7,0,0,1,44.71,36H47v4Z"/><path class="cls-4" d="M44.71,40a7,7,0,0,1-.55,1.33l1.59,1.59A9,9,0,0,1,42,44.79l-.63-.63C39.85,45,40,44.41,40,45a9,9,0,0,1-9-9h.29c.53-1.75.86-1-.08-2a9,9,0,0,1,1.87-3.79l1.59,1.59A7,7,0,0,1,36,31.29V29h4v2.29a7,7,0,0,1,1.33.55L43,30.22l2.83,2.83-1.62,1.62A7,7,0,0,1,44.71,36H47v4Z"/><circle class="cls-8" cx="38" cy="38" r="3"/><path class="cls-3" d="M17,28c-.56,0-.3.12-4.71-4.29a1,1,0,0,1,0-1.42l4-4a1,1,0,0,1,1.42,1.42L14.41,23l3.3,3.29A1,1,0,0,1,17,28Z"/><path class="cls-3" d="M27,28a1,1,0,0,1-.71-1.71L29.59,23l-3.3-3.29a1,1,0,0,1,1.42-1.42l4,4a1,1,0,0,1,0,1.42C27.34,28.08,27.56,28,27,28Z"/><path class="cls-3" d="M20,27.8l2-10a1,1,0,0,1,2,.4l-2,10A1,1,0,0,1,20,27.8Z"/></g></svg>