<svg xmlns="http://www.w3.org/2000/svg" viewBox="0 0 48 48"><defs><style>.cls-1{fill:#dad7e5;}.cls-2{fill:#edebf2;}.cls-3{fill:#9fdbf3;}.cls-4{fill:#b2e5fb;}.cls-5{fill:#c6c3d8;}.cls-6{fill:#db5669;}.cls-7{fill:#f26674;}</style></defs><title>Startup rocket lunch</title><g id="Startup_rocket_lunch" data-name="Startup rocket lunch"><path class="cls-1" d="M47,37c0,1.9.13,2.83-.52,4A4,4,0,0,1,43,43H5a4,4,0,0,1-4-4V37Z"/><path class="cls-2" d="M47,37c0,1.9.13,2.83-.52,4C46.11,41,48.63,41,8,41a4,4,0,0,1-4-4Z"/><path class="cls-1" d="M45,13V37H3V13A4,4,0,0,1,6,9.13C6.66,8.94,6,9,18.55,9c-.36,1.77-.14,2.08,1.45,14h8c1.6-11.95,1.8-12.31,1.45-14H41A4,4,0,0,1,45,13Z"/><path class="cls-2" d="M45,13V35H31.87A25.87,25.87,0,0,1,6,9.13C6.66,8.94,6,9,18.55,9c-.36,1.77-.14,2.08,1.45,14h8c1.6-11.95,1.8-12.31,1.45-14H41A4,4,0,0,1,45,13Z"/><rect class="cls-3" x="5" y="11" width="38" height="24" rx="2"/><path class="cls-4" d="M43,13V33H30A22.06,22.06,0,0,1,8,11H41A2,2,0,0,1,43,13Z"/><path class="cls-5" d="M30,37c0,.56-.34.76-1.29,1.71-.44.41-.16.29-8.71.29-.53,0-.69-.27-1.71-1.29A1,1,0,0,1,18,37Z"/><path class="cls-6" d="M19.73,21H14c1.5-2.39,3-4.81,4.62-7.38C18.75,13.4,18.6,12.33,19.73,21Z"/><path class="cls-7" d="M16.71,20H14.63L18,14.59c.16,1.16.47,3.51.46,3.41A1.77,1.77,0,0,1,16.71,20Z"/><path class="cls-1" d="M28.53,19H19.47l-.75-5.55c0-.93-1.34-4.74,1.61-8.17C24.56.35,23.94.93,24.14,1.17,30.64,8.74,30.13,7.15,28.53,19Z"/><path class="cls-2" d="M28.8,17H27.07a6.41,6.41,0,0,1-6.35-5.55c0-.93-1.34-4.74,1.61-8.17l1.81-2.11C30.47,8.53,30.07,7.6,28.8,17Z"/><path class="cls-6" d="M28.53,19c-.31,2.4-.19,1.48-.53,4H20c-.32-2.4-.2-1.48-.53-4Z"/><path class="cls-7" d="M28.53,19l-.26,2H24a2.32,2.32,0,0,1-2.29-2Z"/><path class="cls-6" d="M34,21H28.27c1.13-8.72,1-7.59,1.11-7.38C31.06,16.29,32.48,18.59,34,21Z"/><path class="cls-7" d="M33.37,20H31.29a1.77,1.77,0,0,1-1.76-2s0,.27.46-3.41Z"/><path class="cls-2" d="M38,35a3,3,0,0,1-.77,2H10.77A3,3,0,0,1,15,32.78,3,3,0,0,1,18,30c1.15,0,1,.42,1,0a2,2,0,0,1,2-2V26h6v2a2,2,0,0,1,2,2.18,3,3,0,0,1,4,2.6A3,3,0,0,1,38,35Z"/><path class="cls-1" d="M14.11,36c-2,0-2.87-2.26-1.35-4a3,3,0,0,0-2,5H37.23a3,3,0,0,0,.59-1Z"/><path class="cls-3" d="M26,10a2,2,0,1,1-3.82-.82A2,2,0,0,1,26,10Z"/><path class="cls-4" d="M24.82,11.82a2,2,0,0,1-2.64-2.64A2,2,0,0,1,24.82,11.82Z"/></g></svg>