<svg xmlns="http://www.w3.org/2000/svg" viewBox="0 0 48 48"><defs><style>.cls-1{fill:#374f68;}.cls-2{fill:#dad7e5;}.cls-3{fill:#edebf2;}.cls-4{fill:#ffde76;}.cls-5{fill:#fc6;}.cls-6{fill:#ffba55;}.cls-7{fill:#82bcf4;}.cls-8{fill:#6fabe6;}.cls-9{fill:#5b9ad8;}</style></defs><title>blockchain</title><g id="blockchain"><path class="cls-1" d="M34,17a1,1,0,0,1-.64-1.77l6-5a1,1,0,0,1,1.28,1.54C34.06,17.25,34.5,17,34,17Z"/><path class="cls-1" d="M8,38a1,1,0,0,1-.64-1.77L12.43,32a1,1,0,0,1,1.28,1.54C8.12,38.2,8.5,38,8,38Z"/><path class="cls-1" d="M41,39c-.53,0-.21.14-6.72-5.5A1,1,0,0,1,35.58,32l6.07,5.26A1,1,0,0,1,41,39Z"/><path class="cls-1" d="M13.07,16.26c-.5,0-.27.08-5.71-4.49a1,1,0,0,1,1.28-1.54l5.07,4.26A1,1,0,0,1,13.07,16.26Z"/><path class="cls-2" d="M38,24A14,14,0,0,1,24,38C10.82,38,5,21.41,15.16,13.16A14,14,0,0,1,38,24Z"/><path class="cls-3" d="M38,24a13.88,13.88,0,0,1-3.16,8.84A14,14,0,0,1,15.16,13.16,14,14,0,0,1,38,24Z"/><polygon class="cls-4" points="47 4 42 7 37 4 42 1 47 4"/><polygon class="cls-5" points="47 4 47 10 42 13 42 7 47 4"/><polygon class="cls-6" points="42 7 42 13 37 10 37 4 42 7"/><polygon class="cls-7" points="11 4 6 7 1 4 6 1 11 4"/><polygon class="cls-8" points="11 4 11 10 6 13 6 7 11 4"/><polygon class="cls-9" points="6 7 6 13 1 10 1 4 6 7"/><polygon class="cls-7" points="47 38 42 41 37 38 42 35 47 38"/><polygon class="cls-8" points="47 38 47 44 42 47 42 41 47 38"/><polygon class="cls-9" points="42 41 42 47 37 44 37 38 42 41"/><polygon class="cls-4" points="11 38 6 41 1 38 6 35 11 38"/><polygon class="cls-6" points="6 41 6 47 1 44 1 38 6 41"/><polygon class="cls-5" points="11 38 11 44 6 47 6 41 11 38"/><polygon class="cls-4" points="31 20 24 24 17 20 24 16 31 20"/><polygon class="cls-5" points="31 20 31 28 24 32 24 24 31 20"/><polygon class="cls-6" points="24 24 24 32 17 28 17 20 24 24"/></g></svg>