<svg xmlns="http://www.w3.org/2000/svg" viewBox="0 0 48 48"><defs><style>.cls-1{fill:#dad7e5;}.cls-2{fill:#edebf2;}.cls-3{fill:#9fdbf3;}.cls-4{fill:#b2e5fb;}.cls-5{fill:#c6c3d8;}.cls-6{fill:#fc6;}.cls-7{fill:#ffde76;}.cls-8{fill:#374f68;}.cls-9{fill:#7c7d7d;}.cls-10{fill:#919191;}</style></defs><title>Accounting</title><g id="Accounting"><path class="cls-1" d="M43,3V23H29a2,2,0,0,0-2,2H1V3A2,2,0,0,1,3,1H41A2,2,0,0,1,43,3Z"/><path class="cls-2" d="M43,3V23H26A22,22,0,0,1,4,1H41A2,2,0,0,1,43,3Z"/><rect class="cls-3" x="3" y="3" width="38" height="20" rx="1"/><path class="cls-4" d="M41,4V21H24A18.05,18.05,0,0,1,6,3H40A1,1,0,0,1,41,4Z"/><path class="cls-1" d="M27,25v6H3a2,2,0,0,1-2-2V25Z"/><path class="cls-2" d="M25,25v4H8a4,4,0,0,1-4-4Z"/><rect class="cls-5" x="14" y="31" width="13" height="10"/><path class="cls-1" d="M25,41c0,.1.61,0-11,0V33h3A8,8,0,0,1,25,41Z"/><path class="cls-1" d="M27,41H13a1,1,0,0,1,0-2H27A1,1,0,0,1,27,41Z"/><path class="cls-6" d="M30,13A8,8,0,1,1,17.44,6.44,8,8,0,0,1,30,13Z"/><path class="cls-7" d="M30,13a7.87,7.87,0,0,1-1.44,4.56A7.87,7.87,0,0,1,24,19,8,8,0,0,1,17.44,6.44,8,8,0,0,1,30,13Z"/><path class="cls-8" d="M23,28a1,1,0,0,0-2,0A1,1,0,0,0,23,28Z"/><path class="cls-8" d="M22,12a1,1,0,1,1,1-1,1,1,0,0,0,1,1c1.66,0,1.21-3-1-3.82a1,1,0,1,0-2,0A3,3,0,0,0,22,14a1,1,0,1,1-1,1,1,1,0,0,0-1-1c-1.66,0-1.21,3,1,3.82a1,1,0,1,0,2,0A3,3,0,0,0,22,12Z"/><rect class="cls-9" x="27" y="23" width="20" height="24" rx="2"/><path class="cls-10" d="M47,25c0,20.82-.1,20,0,20A18.05,18.05,0,0,1,29,27V23H45A2,2,0,0,1,47,25Z"/><rect class="cls-3" x="30" y="27" width="14" height="4"/><path class="cls-4" d="M44,27v3H34a3,3,0,0,1-3-3Z"/><path class="cls-1" d="M33,36H31a1,1,0,0,1,0-2h2A1,1,0,0,1,33,36Z"/><path class="cls-1" d="M38,36H36a1,1,0,0,1,0-2h2A1,1,0,0,1,38,36Z"/><path class="cls-1" d="M43,36H41a1,1,0,0,1,0-2h2A1,1,0,0,1,43,36Z"/><path class="cls-1" d="M33,40H31a1,1,0,0,1,0-2h2A1,1,0,0,1,33,40Z"/><path class="cls-1" d="M38,40H36a1,1,0,0,1,0-2h2A1,1,0,0,1,38,40Z"/><path class="cls-1" d="M33,44H31a1,1,0,0,1,0-2h2A1,1,0,0,1,33,44Z"/><path class="cls-1" d="M38,44H36a1,1,0,0,1,0-2h2A1,1,0,0,1,38,44Z"/><rect class="cls-1" x="40" y="38" width="4" height="6" rx="1"/><path class="cls-2" d="M44,39v4a3,3,0,0,1-3-3V38h2A1,1,0,0,1,44,39Z"/></g></svg>