<svg xmlns="http://www.w3.org/2000/svg" viewBox="0 0 48 48"><defs><style>.cls-1{fill:#fc6;}.cls-2{fill:#ffde76;}.cls-3{fill:#6fabe6;}.cls-4{fill:#82bcf4;}.cls-5{fill:#ffba55;}.cls-6{fill:#374f68;}</style></defs><title>data protection</title><g id="data_protection" data-name="data protection"><path class="cls-1" d="M41,11V26l-2-1-8,4a28.44,28.44,0,0,0,.82,6H3a2,2,0,0,1-2-2V7A2,2,0,0,1,3,5H15.93c1.35,0,1.43.54,5.07,6Z"/><path class="cls-2" d="M41,11V26l-2-1L29,30l.26,2.91C15.89,31.91,4,21,4,5H15.93c1.38,0,1.41.52,5.07,6Z"/><path class="cls-3" d="M47,29c-.33,3.61-.28,9.21-6.07,13A12.69,12.69,0,0,1,39,43a12.8,12.8,0,0,1-7.18-8c-.47-1.52-.48-2.22-.82-6l8-4Z"/><path class="cls-4" d="M47,29c-.33,3.61-.28,9.21-6.07,13a12.78,12.78,0,0,1-7.62-10.55L33,28l6-3Z"/><path class="cls-5" d="M41,9v2H21L18.33,7H39A2,2,0,0,1,41,9Z"/><path class="cls-1" d="M41,9v1H25.61A6.73,6.73,0,0,1,20,7H39A2,2,0,0,1,41,9Z"/><path class="cls-6" d="M35.29,34.71a1,1,0,0,1,1.42-1.42L38,34.59l3.29-3.3a1,1,0,0,1,1.42,1.42C37.26,38.15,38.54,38,35.29,34.71Z"/></g></svg>