<svg xmlns="http://www.w3.org/2000/svg" viewBox="0 0 48 48"><defs><style>.cls-1{fill:#374f68;}.cls-2{fill:#425b72;}.cls-3{fill:#dad7e5;}.cls-4{fill:#db5669;}</style></defs><title>Fingerprint Scanner</title><g id="Fingerprint_Scanner" data-name="Fingerprint Scanner"><path class="cls-1" d="M36,20v8a12,12,0,0,1-24,0V20A11.88,11.88,0,0,1,18.93,9.11,12,12,0,0,1,36,20Z"/><path class="cls-2" d="M15.24,28H36a12,12,0,0,1-3.92,8.88A11.94,11.94,0,0,1,15.24,28Z"/><path class="cls-2" d="M36,20v6H15c0-.23,0-1.51,0-8a12,12,0,0,1,3.93-8.89A12,12,0,0,1,36,20Z"/><path class="cls-3" d="M25.83,38.84A11,11,0,0,0,35,28.92a1,1,0,0,1,2,.16A13,13,0,0,1,26.17,40.82,1,1,0,0,1,25.83,38.84Z"/><path class="cls-3" d="M21.83,40.82A13,13,0,0,1,11,28V23a1,1,0,0,1,2,0v5a10.94,10.94,0,0,0,9.17,10.84A1,1,0,0,1,21.83,40.82Z"/><path class="cls-3" d="M35,25V20a11,11,0,0,0-22-.92,1,1,0,0,1-2-.16A13,13,0,0,1,37,20v5A1,1,0,0,1,35,25Z"/><path class="cls-3" d="M15,24V20a9,9,0,0,1,6.75-8.72,1,1,0,0,1,.5,1.94A7,7,0,0,0,17,20v4A1,1,0,0,1,15,24Z"/><path class="cls-3" d="M24,37a9,9,0,0,1-8.72-6.75,1,1,0,0,1,1.94-.5A7,7,0,0,0,31,28V20a7,7,0,0,0-5.25-6.78,1,1,0,0,1,.5-1.94A9,9,0,0,1,33,20v8A9,9,0,0,1,24,37Z"/><path class="cls-3" d="M27,21V20a3,3,0,0,0-6,0,1,1,0,0,1-1,1c-2.28,0-.65-6,4-6a5,5,0,0,1,5,5v1A1,1,0,0,1,27,21Z"/><path class="cls-3" d="M24,33a5,5,0,0,1-5-5V24a1,1,0,0,1,2,0v4a3,3,0,0,0,6,0V27a1,1,0,0,1,2,0v1A5,5,0,0,1,24,33Z"/><path class="cls-3" d="M23,28V20a1,1,0,0,1,2,0v8A1,1,0,0,1,23,28Z"/><path class="cls-4" d="M46,26H2a1,1,0,0,1,0-2H46A1,1,0,0,1,46,26Z"/><path class="cls-1" d="M11,3A2,2,0,0,0,9,1H1V9A2,2,0,0,0,5,9V5H9A2,2,0,0,0,11,3Z"/><path class="cls-2" d="M9,1H1V3H7A2,2,0,0,1,9,5,2,2,0,0,0,9,1Z"/><path class="cls-2" d="M47,1V9a2,2,0,0,1-4,0V5H39a2,2,0,0,1,0-4Z"/><path class="cls-1" d="M43,3a2,2,0,0,1,2,2v6a2,2,0,0,1-2-2V5H39a2,2,0,0,1-2-2Z"/><path class="cls-1" d="M11,45a2,2,0,0,1-2,2H1V39a2,2,0,0,1,4,0v4H9A2,2,0,0,1,11,45Z"/><path class="cls-2" d="M11,45H5a2,2,0,0,1-2-2V37a2,2,0,0,1,1.41.59c.84.82.59,1.7.59,5.41H9A2,2,0,0,1,11,45Z"/><path class="cls-1" d="M47,39v8H39a2,2,0,0,1,0-4h4V39a2,2,0,0,1,4,0Z"/><path class="cls-2" d="M45,37v6a2,2,0,0,1-2,2H37a2,2,0,0,1,2-2h4V39A2,2,0,0,1,45,37Z"/></g></svg>