<svg xmlns="http://www.w3.org/2000/svg" viewBox="0 0 48 48"><defs><style>.cls-1{fill:#9fdbf3;}.cls-2{fill:#b2e5fb;}.cls-3{fill:#374f68;}.cls-4{fill:#425b72;}.cls-5{fill:#db5669;}.cls-6{fill:#6fabe6;}.cls-7{fill:#9dcc6b;}.cls-8{fill:#edebf2;}.cls-9{fill:#dad7e5;}.cls-10{fill:#fc6;}</style></defs><title>Website Rating</title><g id="Website_Rating" data-name="Website Rating"><rect class="cls-1" x="1" y="8" width="46" height="38"/><path class="cls-2" d="M47,8V44H40A36,36,0,0,1,12.3,31c6.55,0,5.23-.69,8,3.5a2,2,0,0,0,3.32,0l1.75-2.61C26.2,30.69,26.51,31,36,31a4,4,0,0,0,4-4V21a4,4,0,0,0-4-4C5.87,17,7,16.63,5.4,18A35.93,35.93,0,0,1,4,8Z"/><path class="cls-3" d="M47,4V8H1V4A2,2,0,0,1,3,2H45A2,2,0,0,1,47,4Z"/><path class="cls-4" d="M47,4V8H4V4A2,2,0,0,1,6,2H45A2,2,0,0,1,47,4Z"/><path class="cls-5" d="M6,5A1,1,0,0,0,4,5,1,1,0,0,0,6,5Z"/><path class="cls-6" d="M10,5A1,1,0,0,0,8,5,1,1,0,0,0,10,5Z"/><path class="cls-7" d="M14,5a1,1,0,0,0-2,0A1,1,0,0,0,14,5Z"/><path class="cls-8" d="M42,20v6a4,4,0,0,1-4,4c-9.54,0-9.79-.31-10.59.89L25.66,33.5a2,2,0,0,1-3.32,0c-1.64-2.44-2-3.5-3.41-3.5H10a4,4,0,0,1-4-4V20a4,4,0,0,1,4-4H38A4,4,0,0,1,42,20Z"/><path class="cls-9" d="M25.34,31.5A7.9,7.9,0,0,0,18.79,28c-7.52,0-11.4-8.16-9.26-11.95A4,4,0,0,0,6,20v6a4,4,0,0,0,4,4c9.54,0,9.79-.31,10.59.89l1.75,2.61a2,2,0,0,0,3.32,0C27,31.45,26.29,32.94,25.34,31.5Z"/><path class="cls-10" d="M27,21H25.39L25,19.68a1,1,0,0,0-1.9,0L22.61,21H21a1,1,0,0,0-.62,1.78l1.29,1-.62,1.86A1,1,0,0,0,21.88,27c.56.07.74-.18,2.12-1.29,1.39,1.12,1.47,1.2,1.68,1.27a1,1,0,0,0,1.24-.6c.17-.44,0-.63-.59-2.53l1.29-1A1,1,0,0,0,27,21Z"/><path class="cls-10" d="M16,21H14.39L14,19.68a1,1,0,0,0-1.9,0L11.61,21H10a1,1,0,0,0-.62,1.78l1.29,1-.62,1.86A1,1,0,0,0,10.88,27c.57.07.75-.19,2.12-1.29,1.39,1.12,1.47,1.2,1.68,1.27a1,1,0,0,0,1.24-.6c.17-.44,0-.63-.59-2.53l1.29-1A1,1,0,0,0,16,21Z"/><path class="cls-10" d="M38.94,21.67c-.28-.82-1-.67-2.55-.67-.33-1-.45-2-1.39-2s-.91.57-1.39,2c-1.37,0-2.25-.2-2.55.67s.37,1.15,1.61,2.15c-.79,2.37-.59,1.79-.63,2A1,1,0,0,0,32.88,27c.59.08.74-.19,2.12-1.29,1.2,1,1.53,1.32,2,1.32a1,1,0,0,0,1-1.22c-.07-.3.2.54-.63-2l1.29-1A1,1,0,0,0,38.94,21.67Z"/></g></svg>