<svg xmlns="http://www.w3.org/2000/svg" viewBox="0 0 48 48"><defs><style>.cls-1{fill:#dad7e5;}.cls-2{fill:#edebf2;}.cls-3{fill:#db5669;}.cls-4{fill:#f26674;}.cls-5{fill:#edb996;}.cls-6{fill:#f6ccaf;}.cls-7{fill:#ffdec7;}.cls-8{fill:#be927c;}.cls-9{fill:#a87e6b;}.cls-10{fill:#425b72;}.cls-11{fill:#374f68;}</style></defs><title>Cutomer Service</title><g id="Customer_Service" data-name="Customer Service"><path class="cls-1" d="M47,41.08V47H27c-.45-2.27-.31-1.55-1-5l2-5,2,2,3.86-9.64,6.47,2.29A10,10,0,0,1,47,41.08Z"/><path class="cls-1" d="M33.86,29.36,30,39l-6-6c2.19-1.81.77-.63,6-5Z"/><path class="cls-2" d="M32.81,29l-2.25,5.6a1,1,0,0,1-1.63.34l-3.29-3.29L30,28Z"/><path class="cls-2" d="M47,41.08V45H26.6L26,42l2-5,2,2,3.86-9.64,6.47,2.29A10,10,0,0,1,47,41.08Z"/><path class="cls-1" d="M22,42c-.69,3.45-.55,2.73-1,5H1V41.08a10,10,0,0,1,6.67-9.43l6.47-2.29L18,39l2-2Z"/><path class="cls-2" d="M20,37l2,5-.6,3H15.06A11.06,11.06,0,0,1,4,33.94a9.89,9.89,0,0,1,3.67-2.29l6.47-2.29L18,39Z"/><path class="cls-1" d="M24,33l-6,6-3.86-9.64L18,28C23.23,32.37,21.81,31.19,24,33Z"/><path class="cls-2" d="M22.36,31.64l-3.29,3.29a1,1,0,0,1-1.63-.34L15.19,29,18,28Z"/><path class="cls-3" d="M27,47H21l1-5-2-5,4-4,4,4-2,5C26.2,43,26.65,45.26,27,47Z"/><path class="cls-4" d="M26,42l.8,4A3.94,3.94,0,0,1,23,41l-2-5,3-3,4,4Z"/><path class="cls-5" d="M30,24.29V28l-6,5-6-5V24.29A8,8,0,0,0,30,24.29Z"/><path class="cls-6" d="M30,27.93c0,.1.48-.33-6,5.07l-4-3.33V28.15a1,1,0,0,1,1.52-.85C24.44,29,26.8,29.79,30,27.93Z"/><path class="cls-6" d="M32,12c0,7,.4,8.94-1.44,11.57A8,8,0,0,1,18,24.29c-2.51-2.85-2-5.18-2-12.29A14.61,14.61,0,0,0,27,7,5,5,0,0,0,32,12Z"/><path class="cls-7" d="M32,12c0,7,.4,8.94-1.44,11.57a8,8,0,0,1-10.22-.91C17.54,19.86,18,17.11,18,11.85A14.33,14.33,0,0,0,27,7,5,5,0,0,0,32,12Z"/><path class="cls-8" d="M34,12H32a5,5,0,0,1-5-5,14.55,14.55,0,0,1-11,5H14V11A10,10,0,0,1,31.07,3.93C33.49,6.35,34,8.88,34,12Z"/><path class="cls-9" d="M19,10a1.62,1.62,0,0,1-1.56-2c.51-2,1.42-5,2.62-6.2A10,10,0,0,0,14,11v1h2a15,15,0,0,0,9.65-3.61A15.25,15.25,0,0,1,19,10Z"/><path class="cls-10" d="M33,13V12a9,9,0,0,0-18,0v1a1,1,0,0,1-2,0V12a11,11,0,0,1,22,0v1A1,1,0,0,1,33,13Z"/><path class="cls-11" d="M35,25H26a1,1,0,0,1,0-2h8V19a1,1,0,0,1,2,0v5A1,1,0,0,1,35,25Z"/><path class="cls-11" d="M36.83,18.83C35.41,20.23,34,20,32,20V12h2A4,4,0,0,1,36.83,18.83Z"/><path class="cls-10" d="M37.64,17.64C35.6,18.58,34,17.55,34,16V12A4,4,0,0,1,37.64,17.64Z"/><path class="cls-11" d="M16,12v8c-1.69,0-4.46.36-5.64-2.36A4,4,0,0,1,14,12Z"/><path class="cls-10" d="M14,12v4c0,1.57-1.61,2.58-3.64,1.64A4,4,0,0,1,14,12Z"/></g></svg>