<svg xmlns="http://www.w3.org/2000/svg" viewBox="0 0 48 48"><defs><style>.cls-1{fill:#dad7e5;}.cls-2{fill:#edebf2;}.cls-3{fill:#9fdbf3;}.cls-4{fill:#b2e5fb;}.cls-5{fill:#8bd1ea;}.cls-6{fill:#9dcc6b;}.cls-7{fill:#b5e08c;}.cls-8{fill:#fc6;}.cls-9{fill:#ffde76;}.cls-10{fill:#84b749;}</style></defs><title>Online Payment</title><g id="Online_Payment" data-name="Online Payment"><path class="cls-1" d="M17,14V34H30c0,9.63.18,9.75-.54,11A4,4,0,0,1,26,47H8a4,4,0,0,1-4-4V5A4,4,0,0,1,8,1H26a4,4,0,0,1,4,4v9Z"/><path class="cls-2" d="M17,14V34h1v2H30c0,7.55.17,7.77-.54,9A22.47,22.47,0,0,1,7,22.54V1.13C7.66,1,6.38,1,26,1a4,4,0,0,1,4,4v9Z"/><rect class="cls-3" x="6" y="3" width="22" height="42" rx="2"/><path class="cls-4" d="M28,5V34H18v2H28v7A19.06,19.06,0,0,1,9,24V3H26A2,2,0,0,1,28,5Z"/><path class="cls-1" d="M23,1V3a2,2,0,0,1-2,2H13a2,2,0,0,1-2-2V1Z"/><path class="cls-2" d="M23,1V3H15a2,2,0,0,1-2-2Z"/><path class="cls-1" d="M23,43H11a1,1,0,0,1,0-2H23A1,1,0,0,1,23,43Z"/><path class="cls-5" d="M16,37V11a1,1,0,0,1,2,0V37A1,1,0,0,1,16,37Z"/><path class="cls-6" d="M44,20v8a6,6,0,0,0-6,6H17V14H38A6,6,0,0,0,44,20Z"/><path class="cls-7" d="M44,20v8a6,6,0,0,0-5.65,4H37A18,18,0,0,1,19,14c0-.1-.93,0,19,0A6,6,0,0,0,44,20Z"/><path class="cls-8" d="M31,24a4,4,0,1,1-6.28-3.28A4,4,0,0,1,31,24Z"/><path class="cls-9" d="M30.28,26.28a4,4,0,0,1-5.56-5.56A4,4,0,0,1,30.28,26.28Z"/><path class="cls-10" d="M44,16v4a6,6,0,0,1-6-6h4A2,2,0,0,1,44,16Z"/><path class="cls-10" d="M44,28v4a2,2,0,0,1-2,2H38A6,6,0,0,1,44,28Z"/><path class="cls-1" d="M19,25H17V23h2A1,1,0,0,1,19,25Z"/><path class="cls-2" d="M39,25H35a1,1,0,0,1,0-2h4A1,1,0,0,1,39,25Z"/><path class="cls-6" d="M44,16v4a6,6,0,0,1-6-6h4A2,2,0,0,1,44,16Z"/><path class="cls-6" d="M44,28v4H38.35A6,6,0,0,1,44,28Z"/></g></svg>