<svg xmlns="http://www.w3.org/2000/svg" viewBox="0 0 48 48"><defs><style>.cls-1{fill:#fc6;}.cls-2{fill:#ffde76;}.cls-3{fill:#7c7d7d;}</style></defs><title>File Network</title><g id="File_Network" data-name="File Network"><rect class="cls-1" x="14" y="5" width="20" height="12"/><path class="cls-2" d="M34,5V15H27A10,10,0,0,1,17,5Z"/><polygon class="cls-1" points="26 5 14 5 14 1 24 1 26 5"/><path class="cls-2" d="M25.5,4H20a3,3,0,0,1-3-3h7Z"/><rect class="cls-1" x="1" y="35" width="20" height="12"/><path class="cls-2" d="M21,35V45H14A10,10,0,0,1,4,35Z"/><polygon class="cls-1" points="13 35 1 35 1 31 11 31 13 35"/><path class="cls-2" d="M12.5,34H7a3,3,0,0,1-3-3h7Z"/><rect class="cls-1" x="27" y="35" width="20" height="12"/><path class="cls-2" d="M47,35V45H40A10,10,0,0,1,30,35Z"/><polygon class="cls-1" points="39 35 27 35 27 31 37 31 39 35"/><path class="cls-2" d="M38.5,34H33a3,3,0,0,1-3-3h7Z"/><path class="cls-3" d="M35,23H25V21a1,1,0,0,0-2,0v2H13a3,3,0,0,0-3,3v1a1,1,0,0,0,2,0V26a1,1,0,0,1,1-1H35a1,1,0,0,1,1,1v1a1,1,0,0,0,2,0V26A3,3,0,0,0,35,23Z"/></g></svg>