<svg xmlns="http://www.w3.org/2000/svg" viewBox="0 0 48 48"><defs><style>.cls-1{fill:#ffdec7;}.cls-2{fill:#f6ccaf;}.cls-3{fill:#be927c;}.cls-4{fill:#a87e6b;}.cls-5{fill:#dad7e5;}.cls-6{fill:#edebf2;}.cls-7{fill:#db5669;}.cls-8{fill:#f26674;}.cls-9{fill:#c6c3d8;}.cls-10{fill:#374f68;}.cls-11{fill:#425b72;}</style></defs><title>Telemarketer</title><g id="Telemarketer"><path class="cls-1" d="M21.35,21H21v3a2,2,0,0,1-2,2H14v6.38L4,31.13V24l2-4a5.84,5.84,0,0,1-1-2.88A4,4,0,0,0,13,17c0-2.8.43-5.11-2.1-6.52,2.54-3.16,6.67.31,11.1-3.24,0,8.11-.33,5.61,1.27,11.21A2,2,0,0,1,21.35,21Z"/><path class="cls-2" d="M6.82,20.35A4,4,0,0,1,5,17.12,5.77,5.77,0,0,0,6,20L4,24v7.13l10,1.25V30.13l-2.42-.3A6.38,6.38,0,0,1,6.82,20.35Z"/><path class="cls-2" d="M14,26v2c-2.31,0-3.09-.67-4.71-2.29a1,1,0,0,1,1.42-1.42C12,25.55,12.28,26,14,26Z"/><path class="cls-3" d="M25,1a8,8,0,0,1-3,6.24c-4.48,3.6-8.51,0-11.1,3.24A4,4,0,0,0,5,14c0,4.37-.19,3.63,1,6L4,24C.54,19.39,1,15.19,1,11A10,10,0,0,1,8,1.46C10,.85,9.65,1,25,1Z"/><path class="cls-4" d="M3,13C3,8.93,2.62,6.19,5,3,.4,6.48,1,11,1,15a15,15,0,0,0,3,9l1.42-2.84A15,15,0,0,1,3,13Z"/><path class="cls-5" d="M19,33v6L2,34l1-3Z"/><path class="cls-6" d="M19,33v4.12L6.7,33.5a1.73,1.73,0,0,1-1.14-2.18Z"/><path class="cls-5" d="M46,19V35L36,31V23Z"/><path class="cls-6" d="M46,19V32.2l-1.69-.67A10.07,10.07,0,0,1,38,22.2Z"/><rect class="cls-5" x="28" y="23" width="8" height="8"/><path class="cls-6" d="M36,23v6a6,6,0,0,1-6-6Z"/><path class="cls-7" d="M28,23v8a4,4,0,1,1,0-8Z"/><path class="cls-8" d="M28,23v5.87a4,4,0,0,1-2.93-4.59A4,4,0,0,1,28,23Z"/><path class="cls-9" d="M33,40H29c-1-9.13-.84-7.58-1-9h4Z"/><path class="cls-5" d="M31.89,40H29l-.89-8a3.23,3.23,0,0,1,3.21,2.87Z"/><path class="cls-10" d="M13,14c0,3.25.09,3.65-.36,4.64A4,4,0,0,1,5,17.12V14a4,4,0,0,1,8,0Z"/><path class="cls-11" d="M13,14c0,3.25.09,3.65-.36,4.64A4,4,0,0,1,7,15.12c0-3.37-.09-3.77.36-4.76A4,4,0,0,1,13,14Z"/><path class="cls-10" d="M10,1.05c0,8.94,0,9,0,9.08a1,1,0,0,1-2,0c0-.1,0-.22,0-8.67A10.14,10.14,0,0,1,10,1.05Z"/><path class="cls-5" d="M20,47H15c0-8.76-12.76-9.4-13.92-1L2,34l14.51,4.27Z"/><path class="cls-9" d="M15,47H1l.07-1a0,0,0,0,1,0,0A7,7,0,0,1,15,47Z"/><path class="cls-5" d="M14.71,45H8.07a2.87,2.87,0,0,1-2.31-4.63A7,7,0,0,1,14.71,45Z"/><path class="cls-6" d="M19.2,45H14.71A7,7,0,0,0,4.33,41l.52-6.19,11.66,3.43Z"/></g></svg>