<svg xmlns="http://www.w3.org/2000/svg" viewBox="0 0 48 48"><defs><style>.cls-1{fill:#dad7e5;}.cls-2{fill:#c6c3d8;}.cls-3{fill:#9fdbf3;}.cls-4{fill:#b2e5fb;}.cls-5{fill:#374f68;}.cls-6{fill:#425b72;}.cls-7{fill:#db5669;}.cls-8{fill:#6fabe6;}.cls-9{fill:#9dcc6b;}.cls-10{fill:#edebf2;}</style></defs><title>Email Massage</title><g id="Email_Massage" data-name="Email Massage"><path class="cls-1" d="M47,19V47H42L28.75,30.91Z"/><polygon class="cls-2" points="9 12 9 24.22 1 19 9 12"/><polygon class="cls-2" points="47 19 39 24.22 39 12 47 19"/><path class="cls-1" d="M19.25,30.91,6,47H1V19Z"/><path class="cls-1" d="M42,47H6c3.41-4.13,9.35-11.35,13.25-16.09L24,34l4.75-3.09C42,47,39.65,44.16,42,47Z"/><path class="cls-3" d="M39,7V24.22C15,39.87,43.14,21.52,24,34c-6.06-3.94-2.71-1.76-15-9.78V7Z"/><path class="cls-4" d="M39,7V21.57L24.23,31.2c-3.57-2.32-6.79-4.45-9.5-9.45C11.66,16.09,12,11.64,12,7Z"/><path class="cls-5" d="M39,3V7H9V3a2,2,0,0,1,2-2H37A2,2,0,0,1,39,3Z"/><path class="cls-6" d="M39,3V7H12V3a2,2,0,0,1,2-2H37A2,2,0,0,1,39,3Z"/><path class="cls-7" d="M14,4a1,1,0,0,0-2,0A1,1,0,0,0,14,4Z"/><path class="cls-8" d="M18,4a1,1,0,0,0-2,0A1,1,0,0,0,18,4Z"/><path class="cls-9" d="M22,4a1,1,0,0,0-2,0A1,1,0,0,0,22,4Z"/><path class="cls-5" d="M21,12H13a1,1,0,0,1,0-2h8A1,1,0,0,1,21,12Z"/><path class="cls-5" d="M27,16H13a1,1,0,0,1,0-2H27A1,1,0,0,1,27,16Z"/><path class="cls-5" d="M35,20H13a1,1,0,0,1,0-2H35A1,1,0,0,1,35,20Z"/><path class="cls-5" d="M25,24H13a1,1,0,0,1,0-2H25A1,1,0,0,1,25,24Z"/><path class="cls-10" d="M47,19V45H42.94L30.44,29.81Z"/><path class="cls-10" d="M40.35,45H28a23.89,23.89,0,0,1-15.63-5.78l6.84-8.31L24,34l4.75-3.09Z"/><path class="cls-10" d="M17.56,29.81l-6.61,8A23.87,23.87,0,0,1,4,21Z"/></g></svg>