<svg xmlns="http://www.w3.org/2000/svg" viewBox="0 0 48 48"><defs><style>.cls-1{fill:#f6ccaf;}.cls-2{fill:#ffdec7;}.cls-3{fill:#db5669;}.cls-4{fill:#f26674;}.cls-5{fill:#6fabe6;}.cls-6{fill:#82bcf4;}.cls-7{fill:#edebf2;}.cls-8{fill:#dad7e5;}.cls-9{fill:#fc6;}.cls-10{fill:#5b9ad8;}.cls-11{fill:#c4455e;}</style></defs><title>feedback from customer</title><g id="feedback_from_customer" data-name="feedback from customer"><path class="cls-1" d="M28,34a5,5,0,1,1-6.37-7.4C26.22,24,31.22,29.71,28,34Z"/><path class="cls-2" d="M28.4,33.37c-4.27,2.46-9.25-2.47-6.77-6.77A5,5,0,0,1,28.4,33.37Z"/><path class="cls-3" d="M21.42,36.31A11,11,0,0,0,14.2,42H1C1,30.91,15.65,26.8,21.42,36.31Z"/><path class="cls-1" d="M17,26a5,5,0,1,1-7.39-4.39A5,5,0,0,1,17,26Z"/><path class="cls-2" d="M16.39,28.39a5,5,0,0,1-6.78-6.78A5,5,0,0,1,16.39,28.39Z"/><path class="cls-3" d="M47,42H33.8a11,11,0,0,0-7.22-5.69C32.35,26.81,47,30.9,47,42Z"/><path class="cls-4" d="M20.13,34.59A12.81,12.81,0,0,0,13.06,40H7.34a3.46,3.46,0,0,1-3.16-5A10.3,10.3,0,0,1,5.3,33.27,11,11,0,0,1,20.13,34.59Z"/><path class="cls-4" d="M46.82,40H35a12.93,12.93,0,0,0-6.63-5.25,11.08,11.08,0,0,1,1-1.48A11,11,0,0,1,46.82,40Z"/><path class="cls-1" d="M41,26a5,5,0,1,1-7.39-4.39A5,5,0,0,1,41,26Z"/><path class="cls-2" d="M40.39,28.39a5,5,0,0,1-6.78-6.78A5,5,0,0,1,40.39,28.39Z"/><path class="cls-5" d="M35,47H13a10.92,10.92,0,0,1,1.2-5C19.49,31.7,35,35.53,35,47Z"/><path class="cls-6" d="M34.82,45H19.34a3.46,3.46,0,0,1-3.16-5,10.18,10.18,0,0,1,1.12-1.78A11,11,0,0,1,34.82,45Z"/><path class="cls-7" d="M43,5v6a4,4,0,0,1-4,4H29.07a2,2,0,0,0-1.66.89L25.66,18.5a2,2,0,0,1-3.32,0c-1.64-2.44-2-3.5-3.41-3.5H9a4,4,0,0,1-4-4V5A4,4,0,0,1,9,1H39A4,4,0,0,1,43,5Z"/><path class="cls-8" d="M25.34,16.5A7.9,7.9,0,0,0,18.79,13H12A4,4,0,0,1,8,9c0-6.41-.17-6.71.53-7.95A4,4,0,0,0,5,5v6a4,4,0,0,0,4,4h9.93a2,2,0,0,1,1.66.89l1.75,2.61a2,2,0,0,0,3.32,0C27,16.45,26.29,17.94,25.34,16.5Z"/><path class="cls-9" d="M27,6H25.39L25,4.68a1,1,0,0,0-1.9,0L22.61,6H21a1,1,0,0,0-.62,1.78l1.29,1-.62,1.86A1,1,0,0,0,21.87,12c.59.08.82-.24,2.13-1.29,1.39,1.11,1.69,1.51,2.37,1.24,1.15-.47.38-1.84,0-3.1l1.29-1A1,1,0,0,0,27,6Z"/><path class="cls-9" d="M16,6H14.39L14,4.68a1,1,0,0,0-1.9,0L11.61,6H10a1,1,0,0,0-.62,1.78l1.29,1-.62,1.86A1,1,0,0,0,10.87,12c.58.08.79-.21,2.13-1.29,1.39,1.11,1.69,1.51,2.37,1.24,1.15-.47.38-1.84,0-3.1l1.29-1A1,1,0,0,0,16,6Z"/><path class="cls-9" d="M38.94,6.67C38.65,5.85,38,6,36.39,6c-.33-1-.45-2-1.39-2s-.91.57-1.39,2c-1.37,0-2.25-.2-2.55.67s.37,1.15,1.61,2.15c-.79,2.36-.59,1.79-.63,2A1,1,0,0,0,32.87,12c.6.08.77-.2,2.13-1.29,1.22,1,1.53,1.31,2,1.32a1,1,0,0,0,.93-.65c.18-.46,0-.66-.59-2.53l1.29-1A1,1,0,0,0,38.94,6.67Z"/><path class="cls-10" d="M31,45v2H29V45A1,1,0,0,1,31,45Z"/><path class="cls-10" d="M19,45v2H17V45A1,1,0,0,1,19,45Z"/><path class="cls-11" d="M7,40v2H5V40A1,1,0,0,1,7,40Z"/><path class="cls-11" d="M43,40v2H41V40A1,1,0,0,1,43,40Z"/></g></svg>