<svg xmlns="http://www.w3.org/2000/svg" viewBox="0 0 48 48"><defs><style>.cls-1{fill:#9fdbf3;}.cls-2{fill:#b2e5fb;}.cls-3{fill:#7c7d7d;}.cls-4{fill:#8bd1ea;}</style></defs><title>Network Connection</title><g id="Network_Connection" data-name="Network Connection"><path class="cls-1" d="M36,24A12,12,0,1,1,21.76,12.21,12,12,0,0,1,36,24Z"/><path class="cls-2" d="M33.44,31.41a11.69,11.69,0,0,1-5.2,2.38C17.4,35.9,9.7,23.24,16.56,14.59c1.57-1.57,5.67-3.16,9.68-2.38A12,12,0,0,1,33.44,31.41Z"/><path class="cls-3" d="M23,9V3a1,1,0,0,1,2,0V9A1,1,0,0,1,23,9Z"/><path class="cls-3" d="M23,43V39a1,1,0,0,1,2,0v4A1,1,0,0,1,23,43Z"/><path class="cls-4" d="M36,25a13.35,13.35,0,0,0,0-2H31a16.79,16.79,0,0,0-1.2-5.34,12.42,12.42,0,0,0,2.91-2,13.65,13.65,0,0,0-1.51-1.34,10.76,10.76,0,0,1-2.25,1.5,17.17,17.17,0,0,0-2.66-3.64,12.05,12.05,0,0,0-4.48,0,17.17,17.17,0,0,0-2.66,3.64,10.76,10.76,0,0,1-2.25-1.5,13.65,13.65,0,0,0-1.51,1.34,12.39,12.39,0,0,0,2.91,2A16.79,16.79,0,0,0,17.05,23H12a13.35,13.35,0,0,0,0,2h5a16.79,16.79,0,0,0,1.2,5.34,12.42,12.42,0,0,0-2.91,2,13.65,13.65,0,0,0,1.51,1.34,10.76,10.76,0,0,1,2.25-1.5,17.17,17.17,0,0,0,2.66,3.64,12.05,12.05,0,0,0,4.48,0,17.17,17.17,0,0,0,2.66-3.64,10.76,10.76,0,0,1,2.25,1.5,13.65,13.65,0,0,0,1.51-1.34,12.17,12.17,0,0,0-2.91-2A16.79,16.79,0,0,0,31,25ZM24,12.81a15,15,0,0,1,3,3.77,11.07,11.07,0,0,1-6,0A14.59,14.59,0,0,1,24,12.81Zm0,22.38a15,15,0,0,1-3-3.77,11.16,11.16,0,0,1,6,0A14.59,14.59,0,0,1,24,35.19Zm3.89-5.58a12.68,12.68,0,0,0-7.78,0A14.82,14.82,0,0,1,19.05,25H29A14.82,14.82,0,0,1,27.89,29.61ZM19.05,23a14.82,14.82,0,0,1,1.06-4.61,12.76,12.76,0,0,0,7.78,0A14.82,14.82,0,0,1,29,23Z"/><path class="cls-3" d="M43,25H39a1,1,0,0,1,0-2h4A1,1,0,0,1,43,25Z"/><path class="cls-3" d="M9,25H3a1,1,0,0,1,0-2H9A1,1,0,0,1,9,25Z"/><path class="cls-3" d="M13.77,14.05c-.54,0,0,.32-8.44-7.31A1,1,0,0,1,6.67,5.26l7.77,7.05A1,1,0,0,1,13.77,14.05Z"/><path class="cls-1" d="M5,24a2,2,0,1,1-2.82-1.82A2,2,0,0,1,5,24Z"/><path class="cls-2" d="M4.82,24.82a2,2,0,0,1-2.64-2.64A2,2,0,0,1,4.82,24.82Z"/><path class="cls-1" d="M47,24a2,2,0,1,1-2.82-1.82A2,2,0,0,1,47,24Z"/><path class="cls-2" d="M46.82,24.82a2,2,0,0,1-2.64-2.64A2,2,0,0,1,46.82,24.82Z"/><path class="cls-1" d="M26,3a2,2,0,1,1-2.82-1.82A2,2,0,0,1,26,3Z"/><path class="cls-2" d="M25.82,3.82a2,2,0,0,1-2.64-2.64A2,2,0,0,1,25.82,3.82Z"/><path class="cls-1" d="M26,45a2,2,0,1,1-2.82-1.82A2,2,0,0,1,26,45Z"/><path class="cls-2" d="M25.82,45.82a2,2,0,0,1-2.64-2.64A2,2,0,0,1,25.82,45.82Z"/><path class="cls-1" d="M8,6A2,2,0,1,1,5.18,4.18,2,2,0,0,1,8,6Z"/><path class="cls-2" d="M7.82,6.82A2,2,0,0,1,5.18,4.18,2,2,0,0,1,7.82,6.82Z"/><path class="cls-3" d="M6,43a1,1,0,0,1-.67-1.74l7.77-7a1,1,0,0,1,1.34,1.48C6,43.32,6.55,43,6,43Z"/><path class="cls-1" d="M8,42a2,2,0,1,1-2.82-1.82A2,2,0,0,1,8,42Z"/><path class="cls-2" d="M7.82,42.82a2,2,0,0,1-2.64-2.64A2,2,0,0,1,7.82,42.82Z"/><path class="cls-3" d="M34.23,14.05a1,1,0,0,1-.67-1.74l7.77-7a1,1,0,0,1,1.34,1.48C34.27,14.37,34.78,14.05,34.23,14.05Z"/><path class="cls-1" d="M44,6a2,2,0,1,1-2.82-1.82A2,2,0,0,1,44,6Z"/><path class="cls-2" d="M43.82,6.82a2,2,0,0,1-2.64-2.64A2,2,0,0,1,43.82,6.82Z"/><path class="cls-3" d="M42,43c-.54,0,0,.32-8.44-7.31a1,1,0,0,1,1.34-1.48l7.77,7A1,1,0,0,1,42,43Z"/><path class="cls-1" d="M44,42a2,2,0,1,1-2.82-1.82A2,2,0,0,1,44,42Z"/><path class="cls-2" d="M43.82,42.82a2,2,0,0,1-2.64-2.64A2,2,0,0,1,43.82,42.82Z"/></g></svg>