<svg xmlns="http://www.w3.org/2000/svg" viewBox="0 0 48 48"><defs><style>.cls-1{fill:#9fdbf3;}.cls-2{fill:#b2e5fb;}.cls-3{fill:#374f68;}.cls-4{fill:#425b72;}.cls-5{fill:#db5669;}.cls-6{fill:#6fabe6;}.cls-7{fill:#9dcc6b;}.cls-8{fill:#edb996;}.cls-9{fill:#f6ccaf;}</style></defs><title>money bag and website</title><g id="money_bag_and_website" data-name="money bag and website"><rect class="cls-1" x="1" y="8" width="46" height="38"/><path class="cls-2" d="M47,8V44c-6.84,0-10.41.24-15.69-1A3.24,3.24,0,0,0,34,39.76c0-1.09.23-.31-8-16.76a2,2,0,0,0,0-4l1.56-4.68A1,1,0,0,0,26.61,13H17.39a1,1,0,0,0-.95,1.32L18,19a2,2,0,0,0,0,4l-4.62,9.24A35.88,35.88,0,0,1,4,8Z"/><path class="cls-3" d="M47,4V8H1V4A2,2,0,0,1,3,2H45A2,2,0,0,1,47,4Z"/><path class="cls-4" d="M47,4V8H4V4A2,2,0,0,1,6,2H45A2,2,0,0,1,47,4Z"/><path class="cls-5" d="M6,5A1,1,0,0,0,4,5,1,1,0,0,0,6,5Z"/><path class="cls-6" d="M10,5A1,1,0,0,0,8,5,1,1,0,0,0,10,5Z"/><path class="cls-7" d="M14,5a1,1,0,0,0-2,0A1,1,0,0,0,14,5Z"/><path class="cls-3" d="M29.41,21.41c-.77.79-.74.59-9.41.59a2,2,0,0,1-1.41-3.41c.77-.79.74-.59,9.41-.59A2,2,0,0,1,29.41,21.41Z"/><path class="cls-4" d="M29.73,21H22a2,2,0,0,1-1.73-3H28A2,2,0,0,1,29.73,21Z"/><path class="cls-8" d="M36,38.76a3.2,3.2,0,0,1-1,2.29c-1.3,1.3-.63,1-19.81,1a3.24,3.24,0,0,1-2.9-4.68L20,22h8C36.25,38.5,36,37.69,36,38.76Z"/><path class="cls-9" d="M35.76,40H18.24a3.24,3.24,0,0,1-2.9-4.68L21,24h8C36,38,36.49,38.14,35.76,40Z"/><path class="cls-8" d="M29.56,13.32,28,18H20l-1.56-4.68A1,1,0,0,1,19.39,12h9.22A1,1,0,0,1,29.56,13.32Z"/><path class="cls-9" d="M29.56,13.32,28.67,16H26.22a5.84,5.84,0,0,1-5.55-4h7.94A1,1,0,0,1,29.56,13.32Z"/><path class="cls-8" d="M25,12v2a1,1,0,0,1-2,0V12Z"/><path class="cls-8" d="M24,31a1,1,0,1,1,1-1,1,1,0,0,0,1,1c1.66,0,1.21-3-1-3.82a1,1,0,1,0-2,0A3,3,0,0,0,24,33a1,1,0,1,1-1,1,1,1,0,0,0-1-1c-1.66,0-1.21,3,1,3.82a1,1,0,1,0,2,0A3,3,0,0,0,24,31Z"/></g></svg>