<svg xmlns="http://www.w3.org/2000/svg" viewBox="0 0 48 48"><defs><style>.cls-1{fill:#9fdbf3;}.cls-2{fill:#b2e5fb;}.cls-3{fill:#dad7e5;}.cls-4{fill:#edebf2;}.cls-5{fill:#374f68;}.cls-6{fill:#425b72;}.cls-7{fill:#db5669;}.cls-8{fill:#6fabe6;}.cls-9{fill:#9dcc6b;}</style></defs><title>Website Design</title><g id="Website_Design" data-name="Website Design"><rect class="cls-1" x="1" y="8" width="46" height="38"/><path class="cls-2" d="M47,8V44H40A36,36,0,0,1,4,8Z"/><rect class="cls-3" x="30.95" y="13.05" width="6" height="8" transform="translate(-2.11 29) rotate(-45)"/><path class="cls-4" d="M37.9,16.76a4.59,4.59,0,0,1-6.48,0L30,15.34l3.24-3.24Z"/><path class="cls-5" d="M47,4V8H1V4A2,2,0,0,1,3,2H45A2,2,0,0,1,47,4Z"/><path class="cls-6" d="M47,4V8H4V4A2,2,0,0,1,6,2H45A2,2,0,0,1,47,4Z"/><path class="cls-7" d="M6,5A1,1,0,0,0,4,5,1,1,0,0,0,6,5Z"/><path class="cls-8" d="M10,5A1,1,0,0,0,8,5,1,1,0,0,0,10,5Z"/><path class="cls-9" d="M14,5a1,1,0,0,0-2,0A1,1,0,0,0,14,5Z"/><path class="cls-3" d="M34.66,22l-1.42,4.24L21.93,29.07l2.83-11.31L29,16.34Z"/><path class="cls-4" d="M33.66,21c-1.7,5.09-1,4.14-11.4,6.74.19-.77-.33,1.33,2.5-10L29,16.34Z"/><path class="cls-4" d="M31.11,32.91a2,2,0,0,0-2.83,0,2.05,2.05,0,0,0-.56,1.74c-3,2-7.19,1.46-8.78-.12a2,2,0,0,0-2.18-2.18c-1.54-1.54-2.18-5.65-.12-8.78a2,2,0,1,0-1.09-3.38,2,2,0,0,0-.45,2.11A10,10,0,0,0,13.39,29l-2.68-2.68a1,1,0,0,0-1.42,1.42c6.27,6.26,5.43,5.37,5.81,5.92a2,2,0,0,0,2.56,2.57l.35.23C24.63,43,24.41,43,25,43a1,1,0,0,0,.71-1.71l-3.39-3.38A10,10,0,0,0,29,36.2,2,2,0,0,0,31.11,32.91Z"/><path class="cls-3" d="M30,23a2,2,0,0,1-2.51,1.93L23.82,28.6l-1.89.47.47-1.89,3.67-3.67A2,2,0,1,1,30,23Z"/></g></svg>