<svg xmlns="http://www.w3.org/2000/svg" viewBox="0 0 48 48"><defs><style>.cls-1{fill:#9fdbf3;}.cls-2{fill:#b2e5fb;}.cls-3{fill:#374f68;}.cls-4{fill:#425b72;}.cls-5{fill:#db5669;}.cls-6{fill:#6fabe6;}.cls-7{fill:#9dcc6b;}.cls-8{fill:#dad7e5;}.cls-9{fill:#edebf2;}</style></defs><title>web analytic magnify</title><g id="web_analytic_magnify" data-name="web analytic magnify"><rect class="cls-1" x="1" y="8" width="46" height="38"/><path class="cls-2" d="M47,8V44H40A36,36,0,0,1,4,8Z"/><path class="cls-3" d="M47,4V8H1V4A2,2,0,0,1,3,2H45A2,2,0,0,1,47,4Z"/><path class="cls-4" d="M47,4V8H4V4A2,2,0,0,1,6,2H45A2,2,0,0,1,47,4Z"/><path class="cls-5" d="M6,5A1,1,0,0,0,4,5,1,1,0,0,0,6,5Z"/><path class="cls-6" d="M10,5A1,1,0,0,0,8,5,1,1,0,0,0,10,5Z"/><path class="cls-7" d="M14,5a1,1,0,0,0-2,0A1,1,0,0,0,14,5Z"/><path class="cls-1" d="M36,26a10,10,0,0,1-4,8s0,0,0,0A10,10,0,0,1,18,20C23.78,12.32,36,16.45,36,26Z"/><path class="cls-2" d="M34,28a10.07,10.07,0,0,1-2,6A10,10,0,0,1,18,20,10,10,0,0,1,34,28Z"/><path class="cls-3" d="M27,30c-.81,0-.76-.28-3.08-4.92C21.71,28.76,21.74,29,21,29H16a1,1,0,0,1,0-2h4.43c2.88-4.8,2.86-5.09,3.61-5s.7.25,2.89,4.62C29.22,21.29,29.12,21,30,21h6a1,1,0,0,1,0,2H30.66C27.73,29.84,27.89,30,27,30Z"/><path class="cls-3" d="M46.81,44.17A2.8,2.8,0,0,1,44,46.82c-1.68,0-1.61-.43-10.31-9.13a13.62,13.62,0,0,0,4-4C46.35,42.35,46.94,42.46,46.81,44.17Z"/><path class="cls-4" d="M46.81,44.17A2.85,2.85,0,0,1,43,44l-7.61-7.61a13.82,13.82,0,0,0,2.3-2.7C46.35,42.35,46.94,42.46,46.81,44.17Z"/><path class="cls-3" d="M13.14,29H5a1,1,0,0,1,0-2h8.14A1,1,0,0,1,13.14,29Z"/><path class="cls-3" d="M43,23H39a1,1,0,0,1,0-2h4A1,1,0,0,1,43,23Z"/><path class="cls-8" d="M26,12A14,14,0,0,0,12,26c0,13.18,16.59,19,24.84,8.84A14,14,0,0,0,26,12Zm0,4A10,10,0,1,1,16,26,10,10,0,0,1,26,16Z"/><path class="cls-9" d="M26,12a13.88,13.88,0,0,0-8.84,3.16A14,14,0,0,0,36.84,34.84,14,14,0,0,0,26,12Zm0,24A10,10,0,1,1,36,26,10,10,0,0,1,26,36Z"/></g></svg>