<svg xmlns="http://www.w3.org/2000/svg" viewBox="0 0 48 48"><defs><style>.cls-1{fill:#9fdbf3;}.cls-2{fill:#b2e5fb;}.cls-3{fill:#374f68;}.cls-4{fill:#425b72;}.cls-5{fill:#db5669;}.cls-6{fill:#6fabe6;}.cls-7{fill:#9dcc6b;}.cls-8{fill:#fc6;}.cls-9{fill:#ffde76;}</style></defs><title>Website warning sign</title><g id="Website_warning_sign" data-name="Website warning sign"><rect class="cls-1" x="1" y="8" width="46" height="38"/><path class="cls-2" d="M47,8V44c-7.9,0-18.56,1-29.63-8H31c-4.89-7.82-8.24-13.2-10-16L13.36,32.22A35.93,35.93,0,0,1,4,8Z"/><path class="cls-3" d="M47,4V8H1V4A2,2,0,0,1,3,2H45A2,2,0,0,1,47,4Z"/><path class="cls-4" d="M47,4V8H4V4A2,2,0,0,1,6,2H45A2,2,0,0,1,47,4Z"/><path class="cls-5" d="M6,5A1,1,0,0,0,4,5,1,1,0,0,0,6,5Z"/><path class="cls-6" d="M10,5A1,1,0,0,0,8,5,1,1,0,0,0,10,5Z"/><path class="cls-7" d="M14,5a1,1,0,0,0-2,0A1,1,0,0,0,14,5Z"/><path class="cls-8" d="M34,35H14L24,19C25.7,21.7,28.65,26.44,34,35Z"/><path class="cls-9" d="M32.75,33H20.61a2,2,0,0,1-1.7-3.06l6-9.54Z"/><path class="cls-3" d="M23,29V25a1,1,0,0,1,2,0v4A1,1,0,0,1,23,29Z"/><path class="cls-3" d="M25,32a1,1,0,0,0-2,0A1,1,0,0,0,25,32Z"/></g></svg>