<svg xmlns="http://www.w3.org/2000/svg" viewBox="0 0 48 48"><defs><style>.cls-1{fill:#dad7e5;}.cls-2{fill:#edebf2;}.cls-3{fill:#c6c3d8;}.cls-4{fill:#9fdbf3;}.cls-5{fill:#b2e5fb;}.cls-6{fill:#fc6;}.cls-7{fill:#f16f39;}.cls-8{fill:#ffde76;}.cls-9{fill:#f8834b;}</style></defs><title>laptop with diagram pie</title><g id="laptop_with_diagram_pie" data-name="laptop with diagram pie"><path class="cls-1" d="M47,35c0,1.9.13,2.83-.52,4A4,4,0,0,1,43,41H5a4,4,0,0,1-4-4V35Z"/><path class="cls-2" d="M47,35c0,1.9.13,2.83-.52,4C46.11,39,48.63,39,8,39a4,4,0,0,1-4-4Z"/><path class="cls-1" d="M45,11V35H3V11A4,4,0,0,1,6.1,7.1C6.8,7,3.89,7,41,7A4,4,0,0,1,45,11Z"/><path class="cls-2" d="M45,11V32H30A24,24,0,0,1,6,8a4.43,4.43,0,0,1,.1-.9C6.85,6.94,41.1,7,41,7A4,4,0,0,1,45,11Z"/><rect class="cls-3" x="20" y="35" width="8" height="2"/><rect class="cls-4" x="5" y="9" width="38" height="24" rx="2"/><path class="cls-5" d="M43,11V31c-14.84,0-15.4.14-18.28-.42a9,9,0,1,0-11.4-6.18A22,22,0,0,1,7,9H41A2,2,0,0,1,43,11Z"/><path class="cls-6" d="M33,21a9,9,0,1,1-9-9v9Z"/><path class="cls-7" d="M33,21H24V12A9,9,0,0,1,33,21Z"/><path class="cls-8" d="M33,21a8.94,8.94,0,0,1-1.72,5.28A9,9,0,0,1,18.72,13.72,8.94,8.94,0,0,1,24,12v9Z"/><path class="cls-9" d="M33,21H24V12A9,9,0,0,1,33,21Z"/></g></svg>