<svg xmlns="http://www.w3.org/2000/svg" viewBox="0 0 48 48"><defs><style>.cls-1{fill:#dad7e5;}.cls-2{fill:#edebf2;}.cls-3{fill:#9fdbf3;}.cls-4{fill:#b2e5fb;}.cls-5{fill:#f6ccaf;}.cls-6{fill:#db5669;}.cls-7{fill:#f26674;}.cls-8{fill:#c6c3d8;}.cls-9{fill:#ffdec7;}</style></defs><title>ecommerce smartphone</title><g id="ecommerce_smartphone" data-name="ecommerce smartphone"><path class="cls-1" d="M37,5V34.27A2,2,0,0,0,36,36V35a2,2,0,0,0-.59-1.41A2,2,0,0,0,32,35V34a2,2,0,0,0-.59-1.41A2,2,0,0,0,28,34V27a2,2,0,0,0-4,0V40l-4.2-1.4a1.9,1.9,0,0,0-2.5,1.81c0,1.16.48,1.28,4.36,4.59H15a4,4,0,0,1-4-4V5a4,4,0,0,1,4-4H33A4,4,0,0,1,37,5Z"/><path class="cls-2" d="M37,5V34.27A2,2,0,0,0,36,36V35a2,2,0,0,0-.59-1.41A2,2,0,0,0,32,35V34a2,2,0,0,0-.59-1.41A2,2,0,0,0,28,34V27.11A2.08,2.08,0,0,0,26.18,25,2,2,0,0,0,24,27V40l-4.09-1.36a1.9,1.9,0,0,0-2,3.19L19.32,43A5.32,5.32,0,0,1,14,37.68V1.13C14.76.92,33.1,1,33,1A4,4,0,0,1,37,5Z"/><rect class="cls-3" x="13" y="3" width="22" height="40" rx="2"/><path class="cls-4" d="M35,5V35.27A2,2,0,0,0,34,37V36a2,2,0,0,0-.59-1.41A2,2,0,0,0,30,36V35a2,2,0,0,0-.59-1.41A2,2,0,0,0,26,35c0-7.72.09-7.38-.27-8a2,2,0,0,0-3.14-.41c-.81.75-.59,1-.59,9.23A19,19,0,0,1,16.43,26C15.86,23.39,16,23.91,16,3H33A2,2,0,0,1,35,5Z"/><path class="cls-5" d="M29.08,45a8.37,8.37,0,0,1-5.42-2c-3.85-3.29-4.29-3.42-4.35-4.49a1.9,1.9,0,0,0-2,1.9c0,1.23.41,1.21,6.7,6.59H40V45Z"/><polygon class="cls-6" points="31 19 30 27 18 27 17 19 31 19"/><path class="cls-7" d="M31,19l-.75,6h-4.2a6.86,6.86,0,0,1-6.8-6Z"/><path class="cls-8" d="M19,20a1,1,0,0,1-.8-1.6l3-4a1,1,0,0,1,1.6,1.2C19.55,19.93,19.66,20,19,20Z"/><path class="cls-8" d="M29,20c-.67,0-.54-.06-3.8-4.4a1,1,0,0,1,1.6-1.2l3,4A1,1,0,0,1,29,20Z"/><path class="cls-2" d="M31.11,20H16.89c-1.18,0-1.18-2,0-2H31.11C32.29,18,32.29,20,31.11,20Z"/><path class="cls-9" d="M40,36V47H24L18,41.83A1.9,1.9,0,0,1,19.8,38.6L24,40c0-13.77-.24-13.6.59-14.41A2,2,0,0,1,28,27v7a2,2,0,0,1,4,0v1a2,2,0,0,1,4,0v1a2,2,0,0,1,4,0Z"/><path class="cls-1" d="M30,1c0,2,.06,2.32-.18,2.82A2,2,0,0,1,28,5H20a2,2,0,0,1-2-2V1Z"/><path class="cls-2" d="M30,1c0,2.59.18,3-1,3H22a3,3,0,0,1-3-3Z"/><path class="cls-5" d="M29.08,45a8.37,8.37,0,0,1-5.42-2c-3.85-3.29-4.29-3.42-4.35-4.49a1.9,1.9,0,0,0-2,1.9c0,1.23.41,1.21,6.7,6.59H40V45Z"/></g></svg>