<svg xmlns="http://www.w3.org/2000/svg" viewBox="0 0 48 48"><defs><style>.cls-1{fill:#dad7e5;}.cls-2{fill:#edebf2;}.cls-3{fill:#db5669;}.cls-4{fill:#f26674;}.cls-5{fill:#c6c3d8;}.cls-6{fill:#fc6;}.cls-7{fill:#ffde76;}.cls-8{fill:#374f68;}</style></defs><title>Promotion</title><g id="Promotion"><rect class="cls-1" x="9" y="11" width="12" height="16"/><path class="cls-2" d="M21,11c0,13.72-.1,13,0,13a9,9,0,0,1-9-9V11Z"/><path class="cls-2" d="M36,5V27.22a9,9,0,0,0-8.37,2.43L21,27V11Z"/><path class="cls-1" d="M23,19.41V10.2L21,11V27l6.63,2.65a9,9,0,0,1,1.49-1.2A9.73,9.73,0,0,1,23,19.41Z"/><path class="cls-3" d="M9,11V27A8,8,0,1,1,9,11Z"/><path class="cls-4" d="M9,11V23.94A8,8,0,0,1,2.06,15,8,8,0,0,1,9,11Z"/><path class="cls-5" d="M17,39H11C9.05,27.3,9.44,29.65,9,27h6Z"/><path class="cls-1" d="M14.67,39H11L9.33,29a4.32,4.32,0,0,1,4.27,3.62Z"/><path class="cls-3" d="M40,29.3a9.17,9.17,0,0,0-4-2.08V5a2,2,0,0,1,3.41-1.41C40.24,4.4,40,3,40,29.3Z"/><path class="cls-6" d="M43,36a9,9,0,1,1-15.37-6.35A9,9,0,0,1,43,36Z"/><path class="cls-7" d="M43,36a8.94,8.94,0,0,1-1.72,5.28A9,9,0,0,1,28.74,28.71,9,9,0,0,1,43,36Z"/><path class="cls-8" d="M31,41a1,1,0,0,1-.8-1.6l6-8a1,1,0,0,1,1.6,1.2C31.36,41.18,31.7,41,31,41Z"/><path class="cls-8" d="M31,34a2,2,0,1,1,2-2A2,2,0,0,1,31,34Zm0-2Z"/><path class="cls-8" d="M37,42a2,2,0,1,1,2-2A2,2,0,0,1,37,42Zm0-2Z"/><path class="cls-1" d="M46,20H43a1,1,0,0,1,0-2h3A1,1,0,0,1,46,20Z"/><path class="cls-1" d="M43,12a1,1,0,0,1-.71-1.71l3-3a1,1,0,0,1,1.42,1.42C43.59,11.82,43.58,12,43,12Z"/><path class="cls-1" d="M46,31c-.55,0-.43,0-3.71-3.29a1,1,0,0,1,1.42-1.42l3,3A1,1,0,0,1,46,31Z"/><path class="cls-4" d="M40,5V27.3A8.47,8.47,0,0,0,38,26V3A2,2,0,0,1,40,5Z"/></g></svg>