<svg xmlns="http://www.w3.org/2000/svg" viewBox="0 0 48 48"><defs><style>.cls-1{fill:#dad7e5;}.cls-2{fill:#edebf2;}.cls-3{fill:#9fdbf3;}.cls-4{fill:#b2e5fb;}.cls-5{fill:#c6c3d8;}.cls-6{fill:#6fabe6;}</style></defs><title>Videotron</title><g id="Videotron"><rect class="cls-1" x="1" y="1" width="46" height="28" rx="2"/><path class="cls-2" d="M47,3V27H30A26.08,26.08,0,0,1,4,1H45A2,2,0,0,1,47,3Z"/><rect class="cls-3" x="5" y="5" width="38" height="20"/><path class="cls-4" d="M43,5V23H26A18,18,0,0,1,8,5Z"/><path class="cls-5" d="M16,29v2a2,2,0,0,1-2,2H6a2,2,0,0,1-2-2V29Z"/><path class="cls-1" d="M16,30v1a2,2,0,0,1-2,2H6.27A2,2,0,0,1,8,30Z"/><rect class="cls-5" x="7" y="33" width="6" height="14"/><path class="cls-1" d="M13,35V47H9V39A4,4,0,0,1,13,35Z"/><path class="cls-5" d="M44,29v2a2,2,0,0,1-2,2H34a2,2,0,0,1-2-2V29Z"/><path class="cls-1" d="M44,30v1a2,2,0,0,1-2,2H34.27A2,2,0,0,1,36,30Z"/><rect class="cls-5" x="35" y="33" width="6" height="14"/><path class="cls-1" d="M41,35V47H37V39A4,4,0,0,1,41,35Z"/><path class="cls-6" d="M23,11H22a1,1,0,0,0-1,1v6a1,1,0,0,0,1,1h1a4,4,0,0,0,0-8Zm0,6V13a2,2,0,0,1,0,4Z"/><path class="cls-6" d="M17,11.68a1,1,0,0,0-1.9,0l-2,6a1,1,0,0,0,1.9.64l.1-.32c2.2,0,1.86-.1,2,.32a1,1,0,0,0,1.9-.64ZM15.72,16l.28-.84.28.84Z"/><path class="cls-6" d="M32.5,14c-.66,0-1.5.16-1.5-.5a.5.5,0,0,1,.5-.5H34a1,1,0,0,0,0-2H31.5a2.5,2.5,0,0,0,0,5h1a.5.5,0,0,1,0,1H30a1,1,0,0,0,0,2h2.5a2.5,2.5,0,0,0,0-5Z"/></g></svg>