<svg xmlns="http://www.w3.org/2000/svg" viewBox="0 0 48 48"><defs><style>.cls-1{fill:#dad7e5;}.cls-2{fill:#edebf2;}.cls-3{fill:#fc6;}.cls-4{fill:#ffde76;}.cls-5{fill:#f8834b;}.cls-6{fill:#9dcc6b;}.cls-7{fill:#b5e08c;}</style></defs><title>Basket Shopping Money</title><g id="Basket_Shopping_Money" data-name="Basket Shopping Money"><path class="cls-1" d="M45.81,10.16,41,23H36L41.43,8.52a2.34,2.34,0,0,1,4.38,1.64Z"/><path class="cls-2" d="M45.81,10.16C41.62,21.34,41.65,21,41.75,21a1.65,1.65,0,0,1-1.54-2.22c4.69-12.51,4-11.19,4.65-11.43A2.33,2.33,0,0,1,45.81,10.16Z"/><path class="cls-3" d="M33,10A9,9,0,1,1,18.72,2.72,9,9,0,0,1,33,10Z"/><path class="cls-4" d="M31.67,14.69c-8,4.86-17.26-4.33-12.36-12.36C27.34-2.59,36.57,6.69,31.67,14.69Z"/><path class="cls-5" d="M24,9a1,1,0,1,1,1-1,1,1,0,0,0,1,1c1.66,0,1.21-3-1-3.82a1,1,0,1,0-2,0A3,3,0,0,0,24,11a1,1,0,1,1-1,1,1,1,0,0,0-1-1c-1.66,0-1.21,3,1,3.82a1,1,0,1,0,2,0A3,3,0,0,0,24,9Z"/><path class="cls-6" d="M47,26a3,3,0,0,1-3,3H4a3,3,0,0,1-.87-5.87C3.77,22.94,1,23,44,23A3,3,0,0,1,47,26Z"/><path class="cls-7" d="M47,26H7a3,3,0,0,1-3-3H44A3,3,0,0,1,47,26Z"/><path class="cls-6" d="M44,29c0,.3-2.59,15.63-2.67,15.87A3,3,0,0,1,38.46,47H9.54a3,3,0,0,1-3-2.51C5.86,40.09,5.29,36.77,4,29Z"/><path class="cls-7" d="M44,29c0,.3-2.59,15.63-2.67,15.87s2.06.13-28.79.13a3,3,0,0,1-3-2.51C9,38.68,8.68,37.09,7.33,29Z"/><path class="cls-1" d="M12,23H7L2.19,10.16A2.34,2.34,0,0,1,6.57,8.52Z"/><path class="cls-2" d="M11.25,21a3.25,3.25,0,0,1-3-2.11C3.86,7.27,4,7.83,4.06,7A2.33,2.33,0,0,1,6.57,8.52Z"/><path class="cls-6" d="M42.83,36l.34-2H37.45L38,29H36l-.56,5H30.72L31,29H29l-.28,5H25V29H23v5H19.28L19,29H17l.28,5H12.56L12,29H10l.55,5H4.83l.34,2h5.6l.45,4H5.83l.34,2h5.27L12,47h2l-.55-5h4.27L18,47h2l-.28-5H23v5h2V42h3.28L28,47h2l.28-5h4.27L34,47h2l.56-5h5.27l.34-2H36.78l.45-4Zm-29.6,4-.45-4h4.61l.22,4ZM23,40H19.61l-.22-4H23Zm5.39,0H25V36h3.61Zm6.38,0H30.39l.22-4h4.61Z"/></g></svg>