<svg xmlns="http://www.w3.org/2000/svg" viewBox="0 0 48 48"><defs><style>.cls-1{fill:#de4a8c;}.cls-2{fill:#f26da6;}.cls-3{fill:#dad7e5;}.cls-4{fill:#edebf2;}.cls-5{fill:#fc6;}.cls-6{fill:#ffde76;}.cls-7{fill:#f8834b;}.cls-8{fill:#ffba55;}</style></defs><title>Piggy Bank</title><g id="Piggy_Bank" data-name="Piggy Bank"><path class="cls-1" d="M45,29H42a1,1,0,0,1,0-2h3a1,1,0,0,0,1-1,1,1,0,0,1,1-1C48.91,25,48,29,45,29Z"/><path class="cls-1" d="M33.62,14.78a14,14,0,0,1,3.11,24.89l-.55,5.53a2,2,0,0,1-2,1.8H31.81a2,2,0,0,1-2-1.8L29.5,42c-.26,0-10.7,0-11,0l-.32,3.21a2,2,0,0,1-2,1.8H13.81a2,2,0,0,1-2-1.8l-.55-5.53A14,14,0,0,1,5.59,32H3a2,2,0,0,1-2-2V26a2,2,0,0,1,2-2H5.58a14.13,14.13,0,0,1,2.84-5.17L7.21,12.18c-.32-1.8,2.69-1.21,4.34-.34a7.69,7.69,0,0,1,2.95,2.91C17.47,13.73,17.37,14,33.62,14.78Z"/><path class="cls-2" d="M36.73,39.67,36.2,45H29.8l-.3-3c-.31,0-10.74,0-11,0l-.3,3H16.81a2,2,0,0,1-2-1.8l-.55-5.53A14,14,0,0,1,8.59,30H6a2,2,0,0,1-2-2V24H5.58a14.4,14.4,0,0,1,2.84-5.17L7.21,12.18A1,1,0,0,1,8.2,11c3,0,4.87,1.58,6.3,3.75,3-1,2.87-.74,19.12,0A14,14,0,0,1,36.73,39.67Z"/><path class="cls-2" d="M39.83,36.87a13.89,13.89,0,0,1-1.14,1.23C38.75,37.43,38.51,37.93,39.83,36.87Z"/><path class="cls-3" d="M15,23a2,2,0,1,1-2.82-1.82A2,2,0,0,1,15,23Z"/><path class="cls-4" d="M14.82,23.82a2,2,0,0,1-2.64-2.64A2,2,0,0,1,14.82,23.82Z"/><path class="cls-5" d="M35,10A9,9,0,1,1,20.72,2.72,9,9,0,0,1,35,10Z"/><path class="cls-6" d="M33.67,14.69c-8,4.86-17.26-4.33-12.36-12.36C29.34-2.59,38.57,6.69,33.67,14.69Z"/><path class="cls-7" d="M26,9a1,1,0,1,1,1-1,1,1,0,0,0,1,1c1.66,0,1.21-3-1-3.82a1,1,0,1,0-2,0A3,3,0,0,0,26,11a1,1,0,1,1-1,1,1,1,0,0,0-1-1c-1.66,0-1.21,3,1,3.82a1,1,0,1,0,2,0A3,3,0,0,0,26,9Z"/><path class="cls-8" d="M33,20H19a1,1,0,0,1,0-2H33A1,1,0,0,1,33,20Z"/></g></svg>