<svg xmlns="http://www.w3.org/2000/svg" viewBox="0 0 48 48"><defs><style>.cls-1{fill:#374f68;}.cls-2{fill:#425b72;}.cls-3{fill:#9fdbf3;}.cls-4{fill:#b2e5fb;}.cls-5{fill:#edebf2;}.cls-6{fill:#9dcc6b;}.cls-7{fill:#b5e08c;}.cls-8{fill:#84b749;}.cls-9{fill:#fc6;}.cls-10{fill:#ffde76;}.cls-11{fill:#f8834b;}</style></defs><title>Banking</title><g id="Banking"><path class="cls-1" d="M33,4c0,42.69.06,40.22-.13,40.87A3,3,0,0,1,30,47H8a3,3,0,0,1-3-3V4A3,3,0,0,1,8,1H30A3,3,0,0,1,33,4Z"/><path class="cls-2" d="M33,4V44H11a3,3,0,0,1-3-3V1H30A3,3,0,0,1,33,4Z"/><polygon class="cls-3" points="29 6 29 41 9 41 9 6 14.25 6 15 7 23 7 23.75 6 29 6"/><path class="cls-4" d="M29,6V38H15a3,3,0,0,1-3-3V6h2.25L15,7h8l.75-1Z"/><path class="cls-5" d="M20,5H18a1,1,0,0,1,0-2h2A1,1,0,0,1,20,5Z"/><rect class="cls-6" x="9" y="15" width="38" height="18"/><path class="cls-7" d="M47,15V30H15a3,3,0,0,1-3-3V15Z"/><path class="cls-8" d="M15,15a6,6,0,0,1-6,6V19a4,4,0,0,0,4-4Z"/><path class="cls-8" d="M47,27v2a4,4,0,0,0-4,4H41A6,6,0,0,1,47,27Z"/><path class="cls-8" d="M32.35,15h-8.7a10,10,0,0,0,0,18h8.7A10,10,0,0,0,32.35,15ZM28,32a8,8,0,1,1,8-8A8,8,0,0,1,28,32Z"/><path class="cls-8" d="M28,21a1,1,0,0,1,1,1,1,1,0,0,0,1,1c1.66,0,1.21-3-1-3.82a1,1,0,1,0-2,0A3,3,0,0,0,28,25a1,1,0,1,1-1,1,1,1,0,0,0-1-1c-1.66,0-1.21,3,1,3.82a1,1,0,1,0,2,0A3,3,0,0,0,28,23,1,1,0,0,1,28,21Z"/><path class="cls-8" d="M14.71,23.29a1,1,0,1,0,0,1.42A1,1,0,0,0,14.71,23.29Z"/><path class="cls-8" d="M42.71,23.29a1,1,0,0,0-1.54,1.27A1,1,0,1,0,42.71,23.29Z"/><path class="cls-8" d="M47,19v2a6,6,0,0,1-6-6h2A4,4,0,0,0,47,19Z"/><path class="cls-8" d="M15,33H13a4,4,0,0,0-4-4V27A6,6,0,0,1,15,33Z"/><path class="cls-9" d="M19,38A9,9,0,1,1,4.72,30.72,9,9,0,0,1,19,38Z"/><path class="cls-10" d="M17.67,42.69C9.71,47.55.41,38.36,5.31,30.33,13.34,25.41,22.57,34.69,17.67,42.69Z"/><path class="cls-11" d="M10,37a1,1,0,1,1,1-1,1,1,0,0,0,1,1c1.66,0,1.21-3-1-3.82a1,1,0,1,0-2,0A3,3,0,0,0,10,39a1,1,0,1,1-1,1,1,1,0,0,0-1-1c-1.66,0-1.21,3,1,3.82a1,1,0,1,0,2,0A3,3,0,0,0,10,37Z"/></g></svg>