<svg xmlns="http://www.w3.org/2000/svg" viewBox="0 0 48 48"><defs><style>.cls-1{fill:#f16f39;}.cls-2{fill:#f8834b;}.cls-3{fill:#425b72;}.cls-4{fill:#fc6;}.cls-5{fill:#ffde76;}</style></defs><title>Cash Back</title><g id="Cash_Back" data-name="Cash Back"><path class="cls-1" d="M37,24A13,13,0,0,1,24,37C11.5,37,6.14,20.88,16.41,13.46v0A13,13,0,0,1,37,24Z"/><path class="cls-2" d="M37,24c0,3.35-1.54,6.67-2.46,7.59A13,13,0,0,1,14,21a12.63,12.63,0,0,1,2.42-7.56A13,13,0,0,1,37,24Z"/><path class="cls-3" d="M41,7.08l5.13,1.19a1,1,0,0,0,.45-1.95C37.21,4.15,37,3.89,36.46,4.46s-.38.44,1.86,10.13a1,1,0,0,0,2-.45L38.79,7.72C53.6,21.18,44.09,46,24,46A22,22,0,0,1,24,2a1,1,0,0,0,0-2,24,24,0,0,0,0,48C45.32,48,56,22.15,41,7.08Z"/><path class="cls-4" d="M33,24a9,9,0,1,1-14.28-7.28A9,9,0,0,1,33,24Z"/><path class="cls-5" d="M31.67,28.69c-8,4.86-17.26-4.33-12.36-12.36C27.34,11.41,36.57,20.69,31.67,28.69Z"/><path class="cls-2" d="M24,23a1,1,0,1,1,1-1,1,1,0,0,0,1,1c1.66,0,1.21-3-1-3.82a1,1,0,1,0-2,0A3,3,0,0,0,24,25a1,1,0,1,1-1,1,1,1,0,0,0-1-1c-1.66,0-1.21,3,1,3.82a1,1,0,1,0,2,0A3,3,0,0,0,24,23Z"/></g></svg>