<svg xmlns="http://www.w3.org/2000/svg" viewBox="0 0 48 48"><defs><style>.cls-1{fill:#6fabe6;}.cls-2{fill:#82bcf4;}.cls-3{fill:#f6ccaf;}.cls-4{fill:#ffdec7;}.cls-5{fill:#edb996;}.cls-6{fill:#9dcc6b;}.cls-7{fill:#b5e08c;}.cls-8{fill:#84b749;}</style></defs><title>Payment Loan</title><g id="Payment_Loan" data-name="Payment Loan"><rect class="cls-1" x="1" y="27" width="6" height="17"/><path class="cls-2" d="M7,27c0,14.74-.1,14,0,14a3,3,0,0,1-3-3V27Z"/><path class="cls-3" d="M47,35a3,3,0,0,1-1.63,2.67C27.74,46.68,28.11,47,24.17,47c-2.86,0-4-.83-12-4.46C10.7,41.86,9.68,42,7,42V29c9.46-1.17,6.36-1.73,21.28,5.28a3,3,0,0,1,.48,5.14c15-7.64,13.92-7.13,14.24-7.24A3,3,0,0,1,47,35Z"/><path class="cls-4" d="M46.59,33.5c-.6,1.07,0,.54-17.32,9.4C21.74,46.77,14.5,39.19,10,39V28.63c6-.76,4.69-.74,18.28,5.65a3,3,0,0,1,.48,5.14c15-7.64,13.92-7.13,14.24-7.24A3,3,0,0,1,46.59,33.5Z"/><path class="cls-5" d="M25.29,40.61,17.4,36.9a1,1,0,0,1,.86-1.8l7.89,3.71c1.69.79,2.29-1.11,3.3-.1-.45.71-1.38,1.07.2.25C30.43,40.48,27.26,41.56,25.29,40.61Z"/><rect class="cls-6" x="9" y="5" width="38" height="18"/><path class="cls-7" d="M47,5V20H15a3,3,0,0,1-3-3V5Z"/><path class="cls-8" d="M15,5a6,6,0,0,1-6,6V9a4,4,0,0,0,4-4Z"/><path class="cls-8" d="M47,17v2a4,4,0,0,0-4,4H41A6,6,0,0,1,47,17Z"/><path class="cls-8" d="M32.35,5h-8.7a10,10,0,0,0,0,18h8.7A10,10,0,0,0,32.35,5ZM28,22a8,8,0,1,1,8-8A8,8,0,0,1,28,22Z"/><path class="cls-8" d="M28,11a1,1,0,0,1,1,1,1,1,0,0,0,1,1c1.66,0,1.21-3-1-3.82a1,1,0,1,0-2,0A3,3,0,0,0,28,15a1,1,0,1,1-1,1,1,1,0,0,0-1-1c-1.66,0-1.21,3,1,3.82a1,1,0,1,0,2,0A3,3,0,0,0,28,13,1,1,0,0,1,28,11Z"/><path class="cls-8" d="M14.71,13.29a1,1,0,1,0,0,1.42A1,1,0,0,0,14.71,13.29Z"/><path class="cls-8" d="M42.71,13.29a1,1,0,0,0-1.54,1.27A1,1,0,1,0,42.71,13.29Z"/><rect class="cls-6" x="11" y="1" width="34" height="4"/><path class="cls-7" d="M45,1V3H16a2,2,0,0,1-2-2Z"/><path class="cls-8" d="M47,9v2a6,6,0,0,1-6-6h2A4,4,0,0,0,47,9Z"/><path class="cls-8" d="M15,23H13a4,4,0,0,0-4-4V17A6,6,0,0,1,15,23Z"/></g></svg>