<svg id="Money_Fly" data-name="Money Fly" xmlns="http://www.w3.org/2000/svg" viewBox="0 0 48 48"><defs><style>.cls-1{fill:#dad7e5;}.cls-2{fill:#edebf2;}.cls-3{fill:#c6c3d8;}.cls-4{fill:#fc6;}.cls-5{fill:#ffde76;}.cls-6{fill:#f8834b;}</style></defs><title>Money Fly</title><path class="cls-1" d="M47,27.53c0,3.9-.93,6.24-2,9.47a4.85,4.85,0,0,1-3.19-1.64A3.86,3.86,0,0,1,41,33a4.13,4.13,0,0,1-4.41-1.2A5.24,5.24,0,0,1,36,31a5.88,5.88,0,0,1-6.79,1.1l-1.67-.83,2.6-14.84c1.41-.71,2.81-1.21,3.3-3.2A3,3,0,0,1,36.3,11c1.82,0,6.65,2.91,8.86,7.86A21.39,21.39,0,0,1,47,27.53Z"/><path class="cls-1" d="M20.46,31.27c-1.9.94-4.55,2.6-7.7.37-1-.68-.62-.84-1-.27A4.12,4.12,0,0,1,8,33.2c-1.45-.13-.75-.64-1.11.79a3.86,3.86,0,0,1-2.78,2.74L3,37l-.9-2.71a21.32,21.32,0,0,1,.74-15.43C5.05,13.91,9.9,11,11.7,11a2.94,2.94,0,0,1,2.86,2.23c.5,2,2,2.56,3.3,3.2C20.22,29.9,19.82,27.57,20.46,31.27Z"/><path class="cls-2" d="M20,28.51l-1.19.59a5.86,5.86,0,0,1-6-.46c-1-.68-.62-.84-1-.27A4.12,4.12,0,0,1,8,30.2c-1.45-.13-.75-.64-1.11.79a3.83,3.83,0,0,1-1.76,2.32A21.22,21.22,0,0,1,4,26.53C4,20.31,6.53,14.16,12,11a2.93,2.93,0,0,1,2.54,2.21c.5,2,2,2.56,3.3,3.2Z"/><path class="cls-2" d="M20,28.51l-1.19.59a5.86,5.86,0,0,1-6-.46c-1-.68-.62-.84-1-.27A4.12,4.12,0,0,1,8,30.2c-1.45-.13-.75-.64-1.11.79a3.83,3.83,0,0,1-1.76,2.32A21.22,21.22,0,0,1,4,26.53C4,20.31,6.53,14.16,12,11a2.93,2.93,0,0,1,2.54,2.21c.5,2,2,2.56,3.3,3.2Z"/><path class="cls-2" d="M28,28.51l1.19.59a5.86,5.86,0,0,0,6-.46c1-.68.62-.84,1-.27A4.12,4.12,0,0,0,40,30.2c1.45-.13.75-.64,1.11.79a3.83,3.83,0,0,0,1.76,2.32A21.22,21.22,0,0,0,44,26.53c0-6.22-2.53-12.37-8-15.51a2.93,2.93,0,0,0-2.54,2.21c-.5,2-2,2.56-3.3,3.2Z"/><path class="cls-3" d="M8,33.2c-1.45-.13-.75-.64-1.11.79a1,1,0,0,1-.8-.62,14.45,14.45,0,0,1,0-10.74,1,1,0,0,1,1.86.74C5.78,28.73,8.14,32.49,8,33.2Z"/><path class="cls-3" d="M12.76,31.64c-1.26-.89-.38-.81-1.35.16a.86.86,0,0,1-.3-.35A11,11,0,0,1,10,26a1,1,0,0,1,2,0C12,30.63,13.64,30.61,12.76,31.64Z"/><path class="cls-3" d="M41.93,33.37a1,1,0,0,1-.8.62c-.36-1.43.35-.92-1.11-.79-.16-.72,2.2-4.47,0-9.83a1,1,0,0,1,1.86-.74A14.45,14.45,0,0,1,41.93,33.37Z"/><path class="cls-3" d="M38,26a10.9,10.9,0,0,1-1.11,5.45.86.86,0,0,1-.3.35c-1-1-.07-1.06-1.35-.16-.84-1,.76-1.25.76-5.64A1,1,0,0,1,38,26Z"/><path class="cls-4" d="M33,23a9,9,0,1,1-14.28-7.28A9,9,0,0,1,33,23Z"/><path class="cls-5" d="M31.67,27.69c-8,4.86-17.26-4.33-12.36-12.36C27.34,10.41,36.57,19.69,31.67,27.69Z"/><path class="cls-6" d="M24,22a1,1,0,1,1,1-1,1,1,0,0,0,1,1c1.66,0,1.21-3-1-3.82a1,1,0,1,0-2,0A3,3,0,0,0,24,24a1,1,0,1,1-1,1,1,1,0,0,0-1-1c-1.66,0-1.21,3,1,3.82a1,1,0,1,0,2,0A3,3,0,0,0,24,22Z"/></svg>