<svg xmlns="http://www.w3.org/2000/svg" viewBox="0 0 48 48"><defs><style>.cls-1{fill:#fc6;}.cls-2{fill:#ffde76;}.cls-3{fill:#db5669;}.cls-4{fill:#f26674;}.cls-5{fill:#edebf2;}</style></defs><title>Discount</title><g id="Discount"><rect class="cls-1" x="1" y="11" width="44" height="8"/><path class="cls-2" d="M45,11v5H7a3,3,0,0,1-3-3V11Z"/><rect class="cls-1" x="3" y="19" width="40" height="28"/><path class="cls-2" d="M43,19V44H9a3,3,0,0,1-3-3V19Z"/><path class="cls-3" d="M46.46,34.72c-.89.81-.38,1.71-.38,2.21,0,2-2.15,1.09-2.55,2.86a1.63,1.63,0,0,1-1.6,1.29c-.38,0-.55-.15-1-.15-1.26,0-1.2,1.07-2.44,1.07s-1.18-1.07-2.44-1.07c-.43,0-.6.15-1,.15a1.63,1.63,0,0,1-1.6-1.29,1.66,1.66,0,0,0-1.26-1.26A1.64,1.64,0,0,1,31,36.43a1.68,1.68,0,0,0-.46-1.71,1.65,1.65,0,0,1,0-2.44A1.68,1.68,0,0,0,31,30.57a1.63,1.63,0,0,1,1.21-2.1,1.68,1.68,0,0,0,1.26-1.26A1.64,1.64,0,0,1,35.57,26a1.68,1.68,0,0,0,1.71-.46,1.65,1.65,0,0,1,2.44,0c.82.9,1.73.38,2.21.38a1.63,1.63,0,0,1,1.6,1.29,1.66,1.66,0,0,0,1.26,1.26A1.64,1.64,0,0,1,46,30.57a1.68,1.68,0,0,0,.46,1.71A1.65,1.65,0,0,1,46.46,34.72Z"/><path class="cls-4" d="M46.46,34.72c-.89.81-.38,1.71-.38,2.21,0,1.4-1.34,1.58-1.67,1.74A9,9,0,0,1,33,30a8.7,8.7,0,0,1,.33-2.4c.16-.33.33-1.68,1.74-1.68.38,0,.55.15,1,.15,1.26,0,1.2-1.07,2.44-1.07s1.4,1.48,2.93,1a1.63,1.63,0,0,1,2.1,1.21,1.66,1.66,0,0,0,1.26,1.26,1.63,1.63,0,0,1,1.29,1.6c0,.38-.15.55-.15,1,0,1.26,1.07,1.2,1.07,2.44A1.66,1.66,0,0,1,46.46,34.72Z"/><rect class="cls-3" x="20" y="19" width="6" height="28"/><path class="cls-4" d="M26,19c0,26.24-.1,25,0,25a3,3,0,0,1-3-3V19Z"/><rect class="cls-3" x="18" y="11" width="10" height="8"/><path class="cls-4" d="M28,11v5H26a5,5,0,0,1-5-5Z"/><path class="cls-3" d="M23,9v2H17c-4.92,0-7.65-5.75-4.93-8.72C14.47-.92,23,1.84,23,9Z"/><path class="cls-4" d="M23,9H20c-4.6,0-7.19-5-5.48-8C18.52.53,23,4,23,9Z"/><path class="cls-3" d="M35,5a6,6,0,0,1-6,6H23V9a8,8,0,0,1,8-8A4,4,0,0,1,35,5Z"/><path class="cls-4" d="M33.67,8.76A5.76,5.76,0,0,1,32,9H28c-3.15,0-2.19-5,.17-7.48A8.08,8.08,0,0,1,31,1C34.71,1,36.37,5.45,33.67,8.76Z"/><path class="cls-5" d="M40.29,30.29l-5,5A1,1,0,0,0,36,37c.57,0,.35.06,5.71-5.29A1,1,0,0,0,40.29,30.29Z"/><path class="cls-5" d="M36.5,32a1.5,1.5,0,0,0,0-3A1.5,1.5,0,0,0,36.5,32Z"/><path class="cls-5" d="M40.5,35a1.5,1.5,0,0,0,0,3A1.5,1.5,0,0,0,40.5,35Z"/></g></svg>