<svg xmlns="http://www.w3.org/2000/svg" viewBox="0 0 48 48"><defs><style>.cls-1{fill:#425b72;}.cls-2{fill:#9dcc6b;}.cls-3{fill:#b5e08c;}.cls-4{fill:#84b749;}</style></defs><title>Exchange</title><g id="Exchange"><path class="cls-1" d="M44,5H39l1.6-1.2a1,1,0,0,0-1.2-1.6C34.31,6,35.6,5,35.36,5.25a1,1,0,0,0-.26,1.17c.15.32.24.33,4.3,3.38a1,1,0,0,0,1.2-1.6L39,7h5a2,2,0,0,1,2,2v3a1,1,0,0,0,2,0V9A4,4,0,0,0,44,5Z"/><path class="cls-1" d="M8.6,38.2a1,1,0,0,0-1.2,1.6L9,41H4a2,2,0,0,1-2-2V36a1,1,0,0,0-2,0v3a4,4,0,0,0,4,4H9L7.4,44.2a1,1,0,0,0,1.2,1.6C14.5,41.37,14.48,42.61,8.6,38.2Z"/><rect class="cls-2" x="5" y="17" width="38" height="18"/><path class="cls-3" d="M43,17V32H11a3,3,0,0,1-3-3V17Z"/><path class="cls-4" d="M11,17a6,6,0,0,1-6,6V21a4,4,0,0,0,4-4Z"/><path class="cls-4" d="M43,29v2a4,4,0,0,0-4,4H37A6,6,0,0,1,43,29Z"/><path class="cls-4" d="M28.35,17h-8.7a10,10,0,0,0,0,18h8.7A10,10,0,0,0,28.35,17ZM24,34a8,8,0,1,1,8-8A8,8,0,0,1,24,34Z"/><path class="cls-4" d="M24,23a1,1,0,0,1,1,1,1,1,0,0,0,1,1c1.66,0,1.21-3-1-3.82a1,1,0,1,0-2,0A3,3,0,0,0,24,27a1,1,0,1,1-1,1,1,1,0,0,0-1-1c-1.66,0-1.21,3,1,3.82a1,1,0,1,0,2,0A3,3,0,0,0,24,25,1,1,0,0,1,24,23Z"/><path class="cls-4" d="M10.71,25.29a1,1,0,1,0,0,1.42A1,1,0,0,0,10.71,25.29Z"/><path class="cls-4" d="M38.71,25.29a1,1,0,0,0-1.54,1.27A1,1,0,1,0,38.71,25.29Z"/><rect class="cls-2" x="7" y="13" width="34" height="4"/><path class="cls-3" d="M41,13v2H12a2,2,0,0,1-2-2Z"/><path class="cls-4" d="M43,21v2a6,6,0,0,1-6-6h2A4,4,0,0,0,43,21Z"/><path class="cls-4" d="M11,35H9a4,4,0,0,0-4-4V29A6,6,0,0,1,11,35Z"/></g></svg>