<svg xmlns="http://www.w3.org/2000/svg" viewBox="0 0 48 48"><defs><style>.cls-1{fill:#374f68;}.cls-2{fill:#425b72;}.cls-3{fill:#9fdbf3;}.cls-4{fill:#b2e5fb;}.cls-5{fill:#edebf2;}.cls-6{fill:#6fabe6;}.cls-7{fill:#82bcf4;}</style></defs><title>Mobile Card</title><g id="Mobile_Card" data-name="Mobile Card"><path class="cls-1" d="M32,4c0,42.69.06,40.22-.13,40.87A3,3,0,0,1,29,47H7a3,3,0,0,1-3-3V4A3,3,0,0,1,7,1H29A3,3,0,0,1,32,4Z"/><path class="cls-2" d="M32,4V44H10a3,3,0,0,1-3-3V1H29A3,3,0,0,1,32,4Z"/><polygon class="cls-3" points="28 6 28 41 8 41 8 6 13.25 6 14 7 22 7 22.75 6 28 6"/><path class="cls-4" d="M28,6V38H14a3,3,0,0,1-3-3V6h2.25L14,7h8l.75-1Z"/><path class="cls-5" d="M19,5H17a1,1,0,0,1,0-2h2A1,1,0,0,1,19,5Z"/><rect class="cls-6" x="18" y="17" width="26" height="18" rx="2"/><path class="cls-7" d="M44,19V32H24a3,3,0,0,1-3-3V17H42A2,2,0,0,1,44,19Z"/><rect class="cls-1" x="18" y="22" width="26" height="4"/><path class="cls-2" d="M44,22v2H23a2,2,0,0,1-2-2Z"/><path class="cls-5" d="M31,32H22a1,1,0,0,1,0-2h9A1,1,0,0,1,31,32Z"/></g></svg>