<svg xmlns="http://www.w3.org/2000/svg" viewBox="0 0 48 48"><defs><style>.cls-1{fill:#425b72;}.cls-2{fill:#374f68;}.cls-3{fill:#fc6;}.cls-4{fill:#ffde76;}.cls-5{fill:#f8834b;}</style></defs><title>QR Code</title><g id="QR_Code" data-name="QR Code"><path class="cls-1" d="M1,9V1A1,1,0,0,1,2,0h8a1,1,0,0,1,0,2H3V9A1,1,0,0,1,1,9Z"/><path class="cls-1" d="M10,44H2a1,1,0,0,1-1-1V35a1,1,0,0,1,2,0v7h7A1,1,0,0,1,10,44Z"/><path class="cls-1" d="M43,9V2H36a1,1,0,0,1,0-2h8a1,1,0,0,1,1,1V9A1,1,0,0,1,43,9Z"/><rect class="cls-2" x="27" y="5" width="13" height="14"/><path class="cls-1" d="M40,5c0,11.62-.1,11,0,11A10,10,0,0,1,30,6V5Z"/><path class="cls-1" d="M39,23H24a1,1,0,0,1-1-1V6a1,1,0,0,1,2,0V21H39A1,1,0,0,1,39,23Z"/><path class="cls-1" d="M20,19H7a1,1,0,0,1,0-2H19V6a1,1,0,0,1,2,0V18A1,1,0,0,1,20,19Z"/><rect class="cls-2" x="6" y="5" width="11" height="10"/><path class="cls-1" d="M17,5v7H16A7,7,0,0,1,9,5Z"/><path class="cls-1" d="M6,30V26a1,1,0,0,1,1-1H20a1,1,0,0,1,0,2H8v3A1,1,0,0,1,6,30Z"/><path class="cls-1" d="M20,39H11a1,1,0,0,1,0-2h8V30a1,1,0,0,1,2,0v8A1,1,0,0,1,20,39Z"/><path class="cls-1" d="M20,23H7a1,1,0,0,1,0-2H20A1,1,0,0,1,20,23Z"/><path class="cls-1" d="M16,31H11a1,1,0,0,1,0-2h5A1,1,0,0,1,16,31Z"/><path class="cls-1" d="M6,38V34a1,1,0,0,1,1-1h9a1,1,0,0,1,0,2H8v3A1,1,0,0,1,6,38Z"/><path class="cls-3" d="M46,38a9,9,0,1,1-13.69-7.67A9,9,0,0,1,46,38Z"/><path class="cls-4" d="M44.67,42.69c-8,4.86-17.26-4.33-12.36-12.36C40.34,25.41,49.57,34.69,44.67,42.69Z"/><path class="cls-5" d="M37,37a1,1,0,1,1,1-1,1,1,0,0,0,1,1c1.66,0,1.21-3-1-3.82a1,1,0,1,0-2,0A3,3,0,0,0,37,39a1,1,0,1,1-1,1,1,1,0,0,0-1-1c-1.66,0-1.21,3,1,3.82a1,1,0,1,0,2,0A3,3,0,0,0,37,37Z"/><path class="cls-1" d="M31,27H24a1,1,0,0,1,0-2h7A1,1,0,0,1,31,27Z"/><path class="cls-1" d="M23,32V30a1,1,0,0,1,2,0v2A1,1,0,0,1,23,32Z"/><path class="cls-1" d="M23,38V36a1,1,0,0,1,2,0v2A1,1,0,0,1,23,38Z"/></g></svg>