<svg xmlns="http://www.w3.org/2000/svg" viewBox="0 0 48 48"><defs><style>.cls-1{fill:#9dcc6b;}.cls-2{fill:#b5e08c;}.cls-3{fill:#84b749;}.cls-4{fill:#f6ccaf;}.cls-5{fill:#ffdec7;}.cls-6{fill:#edb996;}</style></defs><title>Hold Cash</title><g id="Hold_Cash" data-name="Hold Cash"><rect class="cls-1" x="1" y="1" width="18" height="38"/><path class="cls-2" d="M19,1V36H7a3,3,0,0,1-3-3V1Z"/><path class="cls-3" d="M14.82,19A3,3,0,0,0,9,20a1,1,0,1,1-1-1,1,1,0,0,0,0-2,3,3,0,0,0-2.82,2,1,1,0,1,0,0,2A3,3,0,0,0,11,20a1,1,0,1,1,1,1,1,1,0,0,0,0,2,3,3,0,0,0,2.82-2A1,1,0,1,0,14.82,19Z"/><path class="cls-3" d="M19,33v2a4,4,0,0,0-4,4H13A6,6,0,0,1,19,33Z"/><path class="cls-3" d="M7,39H5a4,4,0,0,0-4-4V33A6,6,0,0,1,7,39Z"/><path class="cls-3" d="M9.29,5.29a1,1,0,0,1,1.42,1.42A1,1,0,0,1,9.29,5.29Z"/><path class="cls-3" d="M10,35a1,1,0,0,1-1-1,1,1,0,1,1,1,1Z"/><path class="cls-3" d="M1,15.65v8.7a10,10,0,0,0,18,0v-8.7A10,10,0,0,0,1,15.65ZM10,28a8,8,0,1,1,8-8A8,8,0,0,1,10,28Z"/><path class="cls-4" d="M47,32V47L35,41.55c-3.47-.72-6.89-3.78-8.93-6.61-2.2-3.1-4.86-4.24-8.49-6.34A3,3,0,0,1,19,23V15.72c7.92,1.44,14.13,2.75,20.58,11.39C41.41,29.53,43.29,30.15,47,32Z"/><path class="cls-5" d="M47,32V43.55l-11-5c-3.47-.72-6.89-3.78-8.93-6.61-3.61-5.09-9.21-5.29-9.9-8.24A3,3,0,0,1,19,23V15.72c7.92,1.44,14.13,2.75,20.58,11.39C41.41,29.53,43.29,30.15,47,32Z"/><path class="cls-6" d="M27.79,28.73C19.36,23.86,19.9,24.1,19.37,24s-1.12.08-1.35-.82A2.71,2.71,0,0,1,19,23c0-1.12,0-1,.08-1,1.44,0,1.38.18,9.71,5A1,1,0,0,1,27.79,28.73Z"/><path class="cls-4" d="M24.94,33.58l-.36.44a3.13,3.13,0,0,1-3.85.85c-2.1-1-1.73-3.11-1.73-5.45C21.41,30.81,23.19,31.68,24.94,33.58Z"/><path class="cls-5" d="M23.43,32.19a3.12,3.12,0,0,1-4.41.19c0-.24,0,0,0-3A29.21,29.21,0,0,1,23.43,32.19Z"/><path class="cls-3" d="M7,1A6,6,0,0,1,1,7V5A4,4,0,0,0,5,1Z"/><path class="cls-3" d="M19,5V7a6,6,0,0,1-6-6h2A4,4,0,0,0,19,5Z"/></g></svg>