<svg xmlns="http://www.w3.org/2000/svg" viewBox="0 0 48 48"><defs><style>.cls-1{fill:#6fabe6;}.cls-2{fill:#82bcf4;}.cls-3{fill:#374f68;}.cls-4{fill:#425b72;}.cls-5{fill:#edebf2;}.cls-6{fill:#9fdbf3;}.cls-7{fill:#b2e5fb;}.cls-8{fill:#f26674;}</style></defs><title>mobile payment</title><g id="mobile_payment" data-name="mobile payment"><rect class="cls-1" x="1" y="15" width="22" height="18" rx="2"/><path class="cls-2" d="M23,17V30H7a3,3,0,0,1-3-3V15H21A2,2,0,0,1,23,17Z"/><rect class="cls-3" x="1" y="20" width="22" height="4"/><path class="cls-4" d="M23,20v2H6a2,2,0,0,1-2-2Z"/><path class="cls-5" d="M14,30H5a1,1,0,0,1,0-2h9A1,1,0,0,1,14,30Z"/><path class="cls-3" d="M47,4c0,42.69.06,40.22-.13,40.87A3,3,0,0,1,44,47H22a3,3,0,0,1-3-3V4a3,3,0,0,1,3-3H44A3,3,0,0,1,47,4Z"/><path class="cls-4" d="M47,4V44H25a3,3,0,0,1-3-3V1H44A3,3,0,0,1,47,4Z"/><polygon class="cls-6" points="43 6 43 41 23 41 23 6 28.25 6 29 7 37 7 37.75 6 43 6"/><path class="cls-7" d="M43,6V38H29a3,3,0,0,1-3-3V6h2.25L29,7h8l.75-1Z"/><path class="cls-5" d="M34,5H32a1,1,0,0,1,0-2h2A1,1,0,0,1,34,5Z"/><path class="cls-8" d="M31.33,29c-.56,0-.41,0-4-3.63A1,1,0,0,1,28.71,24l2.64,2.64,7-6.66a1,1,0,0,1,1.38,1.45C31.41,29.31,31.9,29,31.33,29Z"/></g></svg>