<svg xmlns="http://www.w3.org/2000/svg" viewBox="0 0 48 48"><defs><style>.cls-1{fill:#374f68;}.cls-2{fill:#425b72;}.cls-3{fill:#dad7e5;}.cls-4{fill:#edebf2;}.cls-5{fill:#f26674;}.cls-6{fill:#ffde76;}.cls-7{fill:#b5e08c;}.cls-8{fill:#fc6;}.cls-9{fill:#f8834b;}</style></defs><title>Found</title><g id="Found"><path class="cls-1" d="M47,4V9H1V4A3,3,0,0,1,3.13,1.13C3.77.94,1,1,44,1A3,3,0,0,1,47,4Z"/><path class="cls-2" d="M47,4V7H7A3,3,0,0,1,4,4V1H44A3,3,0,0,1,47,4Z"/><path class="cls-3" d="M47,9c0,28.21.06,26.24-.13,26.87A3,3,0,0,1,44,38H4a3,3,0,0,1-3-3V9Z"/><path class="cls-4" d="M47,9V35H7a3,3,0,0,1-3-3V9Z"/><path class="cls-5" d="M5,6A1,1,0,0,1,5,4,1,1,0,1,1,5,6Z"/><path class="cls-6" d="M9,6A1,1,0,0,1,9,4,1,1,0,1,1,9,6Z"/><path class="cls-7" d="M13,6a1,1,0,0,1,0-2A1,1,0,1,1,13,6Z"/><path class="cls-5" d="M17,15v3H15V15a1,1,0,0,0-2,0v4a1,1,0,0,0,1,1h3v3a1,1,0,0,0,2,0V15A1,1,0,0,0,17,15Z"/><path class="cls-5" d="M33,15v3H31V15a1,1,0,0,0-2,0v4a1,1,0,0,0,1,1h3v3a1,1,0,0,0,2,0V15A1,1,0,0,0,33,15Z"/><path class="cls-5" d="M24,14a3,3,0,0,0-3,3v4a3,3,0,0,0,6,0V17A3,3,0,0,0,24,14Zm1,7a1,1,0,0,1-2,0V17a1,1,0,0,1,2,0Z"/><path class="cls-4" d="M43,6H27a1,1,0,0,1,0-2H43A1,1,0,0,1,43,6Z"/><path class="cls-8" d="M33,38a9,9,0,1,1-14.28-7.28A9,9,0,0,1,33,38Z"/><path class="cls-6" d="M31.67,42.69c-8,4.86-17.26-4.33-12.36-12.36C27.34,25.41,36.57,34.69,31.67,42.69Z"/><path class="cls-9" d="M24,37a1,1,0,1,1,1-1,1,1,0,0,0,1,1c1.66,0,1.21-3-1-3.82a1,1,0,1,0-2,0A3,3,0,0,0,24,39a1,1,0,1,1-1,1,1,1,0,0,0-1-1c-1.66,0-1.21,3,1,3.82a1,1,0,1,0,2,0A3,3,0,0,0,24,37Z"/></g></svg>