<svg xmlns="http://www.w3.org/2000/svg" viewBox="0 0 48 48"><defs><style>.cls-1{fill:#374f68;}.cls-2{fill:#425b72;}.cls-3{fill:#9fdbf3;}.cls-4{fill:#b2e5fb;}.cls-5{fill:#9dcc6b;}.cls-6{fill:#b5e08c;}.cls-7{fill:#edebf2;}.cls-8{fill:#f8834b;}</style></defs><title>Transfer</title><g id="Transfer"><path class="cls-1" d="M21,28v3a2,2,0,0,1-2,2H3a2,2,0,0,1-2-2V28Z"/><path class="cls-2" d="M21,28v3H7a3,3,0,0,1-3-3Z"/><path class="cls-1" d="M21,3V6H1V3A2,2,0,0,1,3,1H19A2,2,0,0,1,21,3Z"/><path class="cls-2" d="M21,3V4H7A3,3,0,0,1,4,1H19A2,2,0,0,1,21,3Z"/><rect class="cls-3" x="1" y="6" width="20" height="22"/><path class="cls-4" d="M21,6V26H7a3,3,0,0,1-3-3V6Z"/><path class="cls-1" d="M47,42v3a2,2,0,0,1-2,2H29a2,2,0,0,1-2-2V42Z"/><path class="cls-2" d="M47,42v3H33a3,3,0,0,1-3-3Z"/><path class="cls-1" d="M47,17v3H27V17a2,2,0,0,1,2-2H45A2,2,0,0,1,47,17Z"/><path class="cls-2" d="M47,17v1H33a3,3,0,0,1-3-3H45A2,2,0,0,1,47,17Z"/><rect class="cls-3" x="27" y="20" width="20" height="22"/><path class="cls-4" d="M47,20V40H33a3,3,0,0,1-3-3V20Z"/><path class="cls-2" d="M38,4H33l1.6-1.2a1,1,0,0,0-1.2-1.6c-5,3.78-3.8,2.84-4,3.05a1,1,0,0,0-.26,1.17c.15.32.24.33,4.3,3.38a1,1,0,0,0,1.2-1.6L33,6h5a2,2,0,0,1,2,2v3a1,1,0,0,0,2,0V8A4,4,0,0,0,38,4Z"/><path class="cls-2" d="M14.6,39.2a1,1,0,0,0-1.2,1.6L15,42H10a2,2,0,0,1-2-2V37a1,1,0,0,0-2,0v3a4,4,0,0,0,4,4h5l-1.6,1.2a1,1,0,0,0,1.2,1.6C20.5,42.38,20.49,43.62,14.6,39.2Z"/><path class="cls-5" d="M16.12,20.12a6,6,0,1,1-8.24-8.24C13.22,8.6,19.41,14.84,16.12,20.12Z"/><path class="cls-6" d="M16.76,18.67a6,6,0,0,1-9.52-6.35A6,6,0,0,1,16.76,18.67Z"/><path class="cls-7" d="M8.29,17.71a1,1,0,0,1,1.42-1.42l.62.63,2-2a1,1,0,0,1,1.42,1.41C10,20.1,10.66,20.07,8.29,17.71Z"/><path class="cls-8" d="M37,30a1,1,0,1,1,1-1,1,1,0,0,0,1,1c1.66,0,1.21-3-1-3.82a1,1,0,1,0-2,0A3,3,0,0,0,37,32a1,1,0,1,1-1,1,1,1,0,0,0-1-1c-1.66,0-1.21,3,1,3.82a1,1,0,1,0,2,0A3,3,0,0,0,37,30Z"/></g></svg>