<svg xmlns="http://www.w3.org/2000/svg" viewBox="0 0 48 48"><defs><style>.cls-1{fill:#db5669;}.cls-2{fill:#f26674;}.cls-3{fill:#c4455e;}.cls-4{fill:#a87e6b;}.cls-5{fill:#be927c;}.cls-6{fill:#fc6;}.cls-7{fill:#ffde76;}.cls-8{fill:#f8834b;}.cls-9{fill:#425b72;}.cls-10{fill:#edebf2;}.cls-11{fill:#dad7e5;}</style></defs><title>Mail Money</title><g id="Mail_Money" data-name="Mail Money"><path class="cls-1" d="M14,9H38a9,9,0,0,1,9,9V35H14Z"/><path class="cls-2" d="M47,18V32H29a3,3,0,0,1-3-3V18a12,12,0,0,0-4.08-9H38A9,9,0,0,1,47,18Z"/><path class="cls-3" d="M23,35H5V18a9,9,0,0,1,18,0Z"/><rect class="cls-1" x="31" y="1" width="6" height="4"/><path class="cls-2" d="M37,1V3H35a2,2,0,0,1-2-2Z"/><rect class="cls-4" x="25" y="35" width="6" height="12"/><path class="cls-5" d="M31,35c0,10.61-.1,10,0,10a3,3,0,0,1-3-3V35Z"/><path class="cls-6" d="M19,23A9,9,0,1,1,4.72,15.72,9,9,0,0,1,19,23Z"/><path class="cls-7" d="M17.67,27.69C9.71,32.55.41,23.36,5.31,15.33,13.34,10.41,22.57,19.69,17.67,27.69Z"/><path class="cls-8" d="M10,22a1,1,0,1,1,1-1,1,1,0,0,0,1,1c1.66,0,1.21-3-1-3.82a1,1,0,1,0-2,0A3,3,0,0,0,10,24a1,1,0,1,1-1,1,1,1,0,0,0-1-1c-1.66,0-1.21,3,1,3.82a1,1,0,1,0,2,0A3,3,0,0,0,10,22Z"/><path class="cls-9" d="M47,36H1a1,1,0,0,1,0-2H47A1,1,0,0,1,47,36Z"/><path class="cls-10" d="M30,23V1a1,1,0,0,1,2,0V23A1,1,0,0,1,30,23Z"/><path class="cls-11" d="M33,24a2,2,0,1,1-2.82-1.82A2,2,0,0,1,33,24Z"/><path class="cls-10" d="M32.82,24.82a2,2,0,0,1-2.64-2.64A2,2,0,0,1,32.82,24.82Z"/></g></svg>