<svg xmlns="http://www.w3.org/2000/svg" viewBox="0 0 48 48"><defs><style>.cls-1{fill:#84b749;}.cls-2{fill:#ffba55;}.cls-3{fill:#fc6;}.cls-4{fill:#ffde76;}.cls-5{fill:#f8834b;}.cls-6{fill:#9dcc6b;}.cls-7{fill:#b5e08c;}</style></defs><title>Send Money</title><g id="Send_Money" data-name="Send Money"><path class="cls-1" d="M10,31H5a1,1,0,0,1,0-2h5A1,1,0,0,1,10,31Z"/><path class="cls-1" d="M10,35H3a1,1,0,0,1,0-2h7A1,1,0,0,1,10,35Z"/><path class="cls-1" d="M10,39H1a1,1,0,0,1,0-2h9A1,1,0,0,1,10,39Z"/><path class="cls-1" d="M10,43H4a1,1,0,0,1,0-2h6A1,1,0,0,1,10,43Z"/><path class="cls-2" d="M24.3,7H17a1,1,0,0,1,0-2h7.3A1,1,0,0,1,24.3,7Z"/><path class="cls-2" d="M22.22,11H15a1,1,0,0,1,0-2h7.22A1,1,0,0,1,22.22,11Z"/><path class="cls-2" d="M22.22,15H13a1,1,0,0,1,0-2h9.22A1,1,0,0,1,22.22,15Z"/><path class="cls-2" d="M24.3,19H16a1,1,0,0,1,0-2h8.3A1,1,0,0,1,24.3,19Z"/><path class="cls-3" d="M39,12A9,9,0,1,1,24.72,4.72,9,9,0,0,1,39,12Z"/><path class="cls-4" d="M37.67,16.69c-8,4.86-17.26-4.33-12.36-12.36C33.34-.59,42.57,8.69,37.67,16.69Z"/><path class="cls-5" d="M30,11a1,1,0,1,1,1-1,1,1,0,0,0,1,1c1.66,0,1.21-3-1-3.82a1,1,0,1,0-2,0A3,3,0,0,0,30,13a1,1,0,1,1-1,1,1,1,0,0,0-1-1c-1.66,0-1.21,3,1,3.82a1,1,0,1,0,2,0A3,3,0,0,0,30,11Z"/><rect class="cls-6" x="9" y="27" width="38" height="18"/><path class="cls-7" d="M47,27V42H15a3,3,0,0,1-3-3V27Z"/><path class="cls-1" d="M15,27a6,6,0,0,1-6,6V31a4,4,0,0,0,4-4Z"/><path class="cls-1" d="M47,39v2a4,4,0,0,0-4,4H41A6,6,0,0,1,47,39Z"/><path class="cls-1" d="M32.35,27h-8.7a10,10,0,0,0,0,18h8.7A10,10,0,0,0,32.35,27ZM28,44a8,8,0,1,1,8-8A8,8,0,0,1,28,44Z"/><path class="cls-1" d="M28,33a1,1,0,0,1,1,1,1,1,0,0,0,1,1c1.66,0,1.21-3-1-3.82a1,1,0,1,0-2,0A3,3,0,0,0,28,37a1,1,0,1,1-1,1,1,1,0,0,0-1-1c-1.66,0-1.21,3,1,3.82a1,1,0,1,0,2,0A3,3,0,0,0,28,35,1,1,0,0,1,28,33Z"/><path class="cls-1" d="M14.71,35.29a1,1,0,1,0,0,1.42A1,1,0,0,0,14.71,35.29Z"/><path class="cls-1" d="M42.71,35.29a1,1,0,0,0-1.54,1.27A1,1,0,1,0,42.71,35.29Z"/><path class="cls-1" d="M47,31v2a6,6,0,0,1-6-6h2A4,4,0,0,0,47,31Z"/><path class="cls-1" d="M15,45H13a4,4,0,0,0-4-4V39A6,6,0,0,1,15,45Z"/></g></svg>