<svg xmlns="http://www.w3.org/2000/svg" viewBox="0 0 48 48"><defs><style>.cls-1{fill:#ffba55;}.cls-2{fill:#fc6;}.cls-3{fill:#ffde76;}</style></defs><title>Gold Bar</title><g id="Gold_Bar" data-name="Gold Bar"><path class="cls-1" d="M25.11,28a2,2,0,0,0-1.9,1.37L21,36l-2.21-6.63A2,2,0,0,0,16.89,28Z"/><path class="cls-2" d="M14.33,44H1l2.21-6.63A2,2,0,0,1,5.11,36h5.12a2,2,0,0,1,1.89,1.37Z"/><path class="cls-3" d="M13.66,42H7.44a2,2,0,0,1-1.89-2.63C6.11,37.68,6.33,36,8.11,36,12.35,36,11.54,35.63,13.66,42Z"/><path class="cls-2" d="M27.67,44H14.33l2.22-6.63A2,2,0,0,1,18.44,36h5.12a2,2,0,0,1,1.89,1.37C27.3,42.93,26.82,41.48,27.67,44Z"/><path class="cls-3" d="M27,42H20.77a2,2,0,0,1-1.89-2.63c.56-1.69.78-3.37,2.56-3.37C25.68,36,24.88,35.63,27,42Z"/><path class="cls-2" d="M41,44H27.67l2.21-6.63A2,2,0,0,1,31.78,36H36.9a2,2,0,0,1,1.89,1.37Z"/><path class="cls-3" d="M40.33,42H34.11a2,2,0,0,1-1.89-2.63C32.78,37.68,33,36,34.78,36,39,36,38.21,35.63,40.33,42Z"/><path class="cls-2" d="M34.34,36H21l2.21-6.63A2,2,0,0,1,25.11,28h5.12a2,2,0,0,1,1.9,1.37C34,34.93,33.49,33.48,34.34,36Z"/><path class="cls-3" d="M33.66,34H27.45a2,2,0,0,1-1.9-2.63c.56-1.69.78-3.37,2.56-3.37C32.35,28,31.55,27.63,33.66,34Z"/><path class="cls-2" d="M21,36H7.67l2.21-6.63A2,2,0,0,1,11.78,28H16.9a2,2,0,0,1,1.89,1.37Z"/><path class="cls-3" d="M20.33,34H14.11a2,2,0,0,1-1.89-2.63C12.78,29.68,13,28,14.78,28,19,28,18.21,27.63,20.33,34Z"/><path class="cls-2" d="M27.67,28H14.33l2.22-6.63A2,2,0,0,1,18.44,20h5.12a2,2,0,0,1,1.89,1.37C27.3,26.93,26.82,25.48,27.67,28Z"/><path class="cls-3" d="M27,26H20.77a2,2,0,0,1-1.89-2.63c.56-1.69.78-3.37,2.56-3.37C25.68,20,24.88,19.63,27,26Z"/><path class="cls-1" d="M47,44H41l-2.21-6.63A2,2,0,0,0,36.89,36h6a2,2,0,0,1,1.9,1.37Z"/><path class="cls-1" d="M40.33,36h-6l-2.21-6.63A2,2,0,0,0,30.23,28h6a2,2,0,0,1,1.89,1.37Z"/><path class="cls-1" d="M33.67,28h-6l-2.21-6.63A2,2,0,0,0,23.56,20h6a2,2,0,0,1,1.9,1.37Z"/><path class="cls-2" d="M33,26H30.1c-1.82-5.45-1.78-5.48-2.08-6C31.54,20,30.94,19.81,33,26Z"/><path class="cls-1" d="M18.44,36a2,2,0,0,0-1.9,1.37L14.33,44l-2.21-6.63A2,2,0,0,0,10.23,36Z"/><path class="cls-1" d="M31.78,36a2,2,0,0,0-1.9,1.37L27.67,44l-2.21-6.63A2,2,0,0,0,23.56,36Z"/><path class="cls-3" d="M5,17V15a1,1,0,0,1,2,0v2A1,1,0,0,1,5,17Z"/><path class="cls-3" d="M4,20H2a1,1,0,0,1,0-2H4A1,1,0,0,1,4,20Z"/><path class="cls-3" d="M5,23V21a1,1,0,0,1,2,0v2A1,1,0,0,1,5,23Z"/><path class="cls-3" d="M10,20H8a1,1,0,0,1,0-2h2A1,1,0,0,1,10,20Z"/><path class="cls-3" d="M40,14V12a1,1,0,0,1,2,0v2A1,1,0,0,1,40,14Z"/><path class="cls-3" d="M39,17H37a1,1,0,0,1,0-2h2A1,1,0,0,1,39,17Z"/><path class="cls-3" d="M40,20V18a1,1,0,0,1,2,0v2A1,1,0,0,1,40,20Z"/><path class="cls-3" d="M45,17H43a1,1,0,0,1,0-2h2A1,1,0,0,1,45,17Z"/><path class="cls-3" d="M22,6V4a1,1,0,0,1,2,0V6A1,1,0,0,1,22,6Z"/><path class="cls-3" d="M21,9H19a1,1,0,0,1,0-2h2A1,1,0,0,1,21,9Z"/><path class="cls-3" d="M22,12V10a1,1,0,0,1,2,0v2A1,1,0,0,1,22,12Z"/><path class="cls-3" d="M27,9H25a1,1,0,0,1,0-2h2A1,1,0,0,1,27,9Z"/><path class="cls-2" d="M46.33,42H43.44c-1.86-5.58-1.79-5.48-2.08-6C45,36,44.31,35.91,46.33,42Z"/><path class="cls-2" d="M39.66,34H36.77c-1.87-5.6-1.78-5.5-2.08-6C38.28,28,37.63,27.91,39.66,34Z"/></g></svg>