<svg xmlns="http://www.w3.org/2000/svg" viewBox="0 0 48 48"><defs><style>.cls-1{fill:#425b72;}.cls-2{fill:#9dcc6b;}.cls-3{fill:#b5e08c;}.cls-4{fill:#a87e6b;}.cls-5{fill:#be927c;}.cls-6{fill:#84b749;}.cls-7{fill:#f6ccaf;}.cls-8{fill:#ffdec7;}</style></defs><title>Receive Money</title><g id="Receive_Money" data-name="Receive Money"><path class="cls-1" d="M26.29,19.29,25,20.59V14a1,1,0,0,0-2,0v6.59l-1.29-1.3a1,1,0,0,0-1.42,1.42l3,3a1,1,0,0,0,1.42,0l3-3A1,1,0,0,0,26.29,19.29Z"/><rect class="cls-2" x="11" y="1" width="26" height="14"/><path class="cls-3" d="M37,1V12H17a3,3,0,0,1-3-3V1Z"/><rect class="cls-4" x="1" y="27" width="23" height="20"/><path class="cls-5" d="M24,27V44H7a3,3,0,0,1-3-3V27Z"/><rect class="cls-4" x="24" y="35" width="23" height="12"/><path class="cls-5" d="M47,35v9H30a3,3,0,0,1-3-3V35Z"/><rect class="cls-4" x="24" y="31" width="23" height="4"/><path class="cls-5" d="M47,31v2H29a2,2,0,0,1-2-2Z"/><rect class="cls-4" x="24" y="27" width="23" height="4"/><path class="cls-6" d="M24,12a4,4,0,1,1,4-4A4,4,0,0,1,24,12Zm0-6a2,2,0,1,0,2,2A2,2,0,0,0,24,6Z"/><path class="cls-6" d="M16,9a1,1,0,1,1,.92-1.38A1,1,0,0,1,16,9Z"/><path class="cls-6" d="M37,10v2a3,3,0,0,0-3,3H32A5,5,0,0,1,37,10Z"/><path class="cls-6" d="M32,9a1,1,0,1,1,.38-1.92A1,1,0,0,1,32,9Z"/><rect class="cls-7" x="5" y="31" width="15" height="12" rx="2"/><path class="cls-8" d="M20,33v7H10a2,2,0,0,1-2-2V31H18A2,2,0,0,1,20,33Z"/><path class="cls-5" d="M47,27v2H29a2,2,0,0,1-2-2Z"/><path class="cls-6" d="M16,15H14a3,3,0,0,0-3-3V10A5,5,0,0,1,16,15Z"/><path class="cls-6" d="M16,1a5,5,0,0,1-5,5V4a3,3,0,0,0,3-3Z"/><path class="cls-6" d="M37,4V6a5,5,0,0,1-5-5h2A3,3,0,0,0,37,4Z"/></g></svg>