<svg xmlns="http://www.w3.org/2000/svg" viewBox="0 0 48 48"><defs><style>.cls-1{fill:#6fabe6;}.cls-2{fill:#82bcf4;}.cls-3{fill:#374f68;}.cls-4{fill:#425b72;}.cls-5{fill:#edebf2;}.cls-6{fill:#9dcc6b;}.cls-7{fill:#b5e08c;}.cls-8{fill:#dad7e5;}</style></defs><title>Shopping Credit Card</title><g id="Shopping_Credit_Card" data-name="Shopping Credit Card"><rect class="cls-1" x="1" y="1" width="26" height="18" rx="2"/><path class="cls-2" d="M27,3V16H7a3,3,0,0,1-3-3V1H25A2,2,0,0,1,27,3Z"/><rect class="cls-3" x="1" y="6" width="26" height="4"/><path class="cls-4" d="M27,6V8H6A2,2,0,0,1,4,6Z"/><path class="cls-5" d="M14,16H5a1,1,0,0,1,0-2h9A1,1,0,0,1,14,16Z"/><path class="cls-6" d="M47,26a3,3,0,0,1-3,3H4a3,3,0,0,1-.87-5.87C3.77,22.94,1,23,44,23A3,3,0,0,1,47,26Z"/><path class="cls-7" d="M47,26H7a3,3,0,0,1-3-3H44A3,3,0,0,1,47,26Z"/><path class="cls-6" d="M44,29c0,.3-2.59,15.63-2.67,15.87A3,3,0,0,1,38.46,47H9.54a3,3,0,0,1-3-2.51C5.86,40.09,5.29,36.77,4,29Z"/><path class="cls-7" d="M44,29c0,.3-2.59,15.63-2.67,15.87s2.06.13-28.79.13a3,3,0,0,1-3-2.51C9,38.68,8.68,37.09,7.33,29Z"/><path class="cls-8" d="M41,23H36L31.19,10.16a2.34,2.34,0,0,1,4.38-1.64Z"/><path class="cls-5" d="M40.25,21a3.25,3.25,0,0,1-3-2.11C32.86,7.27,33,7.83,33.06,7a2.33,2.33,0,0,1,2.51,1.49Z"/><polygon class="cls-8" points="13.5 19 12 23 7 23 8.5 19 13.5 19"/><path class="cls-5" d="M13.5,19l-.75,2H12a1.79,1.79,0,0,1-1.77-2Z"/><path class="cls-6" d="M42.83,36l.34-2H37.45L38,29H36l-.56,5H30.72L31,29H29l-.28,5H25V29H23v5H19.28L19,29H17l.28,5H12.56L12,29H10l.55,5H4.83l.34,2h5.6l.45,4H5.83l.34,2h5.27L12,47h2l-.55-5h4.27L18,47h2l-.28-5H23v5h2V42h3.28L28,47h2l.28-5h4.27L34,47h2l.56-5h5.27l.34-2H36.78l.45-4Zm-29.6,4-.45-4h4.61l.22,4ZM23,40H19.61l-.22-4H23Zm5.39,0H25V36h3.61Zm6.38,0H30.39l.22-4h4.61Z"/></g></svg>