<svg xmlns="http://www.w3.org/2000/svg" viewBox="0 0 48 48"><defs><style>.cls-1{fill:#6fabe6;}.cls-2{fill:#82bcf4;}.cls-3{fill:#f6ccaf;}.cls-4{fill:#ffdec7;}.cls-5{fill:#edb996;}.cls-6{fill:#374f68;}.cls-7{fill:#425b72;}.cls-8{fill:#edebf2;}</style></defs><title>hold credit card</title><g id="hold_credit_card" data-name="hold credit card"><rect class="cls-1" x="1" y="7" width="26" height="18" rx="2"/><path class="cls-2" d="M27,9V22H7a3,3,0,0,1-3-3V7H25A2,2,0,0,1,27,9Z"/><path class="cls-3" d="M47,28V41l-4-2c-2.92-.33-4.9-.27-7.16-1.68-4.18-2.6-5.37-5.1-6.9-6.74-1.82-2-3.16-2.54-7.37-5a3,3,0,0,1-.49-4.84c2.32-1.55,3.23-.52,5.92,1V13.45a26,26,0,0,1,16,10A26.28,26.28,0,0,0,47,28Z"/><path class="cls-4" d="M47,28v9.5L44,36c-2.92-.33-4.9-.27-7.16-1.68-4.18-2.6-5.37-5.1-6.9-6.74-3.62-3.93-8.08-4.08-8.78-6.88A3,3,0,0,1,23.53,20c.65.11.72.17,3.47,1.77V13.45a26,26,0,0,1,16,10A26.28,26.28,0,0,0,47,28Z"/><path class="cls-5" d="M31.79,25.73,26.5,22.66a1,1,0,0,1-.36-1.36l.86.5v-1c.37,0,0-.14,5.79,3.19A1,1,0,0,1,31.79,25.73Z"/><path class="cls-3" d="M24.93,27.53l-1.21,2.08a2.5,2.5,0,0,1-4.66-1.27c0-.93.37-1.3,1.65-3.34.3,0,.14.19.86.6Z"/><path class="cls-4" d="M23.2,26.78l-.48.83a2.51,2.51,0,0,1-3.66.74c0-1,.38-1.33,1.65-3.35.3,0,.14.19.86.6C23.41,26.67,23.42,26.56,23.2,26.78Z"/><line class="cls-3" x1="20.77" y1="24.91" x2="20.71" y2="25"/><path class="cls-3" d="M28.94,30.58l-.4.69A2.5,2.5,0,0,1,23.88,30c0-.85.4-1.34,1.05-2.47A15.31,15.31,0,0,1,28.94,30.58Z"/><path class="cls-4" d="M27.54,29.27a2.51,2.51,0,0,1-3.66.74c0-.88.39-1.34,1.05-2.48A16.44,16.44,0,0,1,27.54,29.27Z"/><rect class="cls-6" x="1" y="12" width="26" height="4"/><path class="cls-7" d="M27,12v2H6a2,2,0,0,1-2-2Z"/><path class="cls-8" d="M14,22H5a1,1,0,0,1,0-2h9A1,1,0,0,1,14,22Z"/></g></svg>