<svg xmlns="http://www.w3.org/2000/svg" viewBox="0 0 48 48"><defs><style>.cls-1{fill:#c6c3d8;}.cls-2{fill:#dad7e5;}.cls-3{fill:#edebf2;}.cls-4{fill:#f8834b;}.cls-5{fill:#6fabe6;}.cls-6{fill:#82bcf4;}.cls-7{fill:#374f68;}.cls-8{fill:#425b72;}</style></defs><title>bill</title><g id="bill"><path class="cls-1" d="M7,12v9H1V12a3,3,0,0,1,6,0Z"/><path class="cls-2" d="M35,12V47l-3.5-2L28,47l-3.49-2L21,47l-3.5-2L14,47l-3.5-2L7,47V12A3,3,0,0,0,4,9H32A3,3,0,0,1,35,12Z"/><path class="cls-3" d="M35,12V44l-3.5-2L28,44l-3.49-2L21,44l-3.5-2L14,44l-3.5-2-.51.29C10,9.66,10.31,10.91,9.19,9H32A3,3,0,0,1,35,12Z"/><path class="cls-4" d="M21,33a1,1,0,1,1,1-1,1,1,0,0,0,1,1c1.66,0,1.21-3-1-3.82a1,1,0,1,0-2,0A3,3,0,0,0,21,35a1,1,0,1,1-1,1,1,1,0,0,0-1-1c-1.66,0-1.21,3,1,3.82a1,1,0,1,0,2,0A3,3,0,0,0,21,33Z"/><rect class="cls-5" x="15" y="1" width="32" height="22" rx="2"/><path class="cls-6" d="M47,3V20H21a3,3,0,0,1-3-3V1H45A2,2,0,0,1,47,3Z"/><rect class="cls-7" x="15" y="6" width="32" height="5"/><path class="cls-8" d="M47,6V9H21a3,3,0,0,1-3-3Z"/><path class="cls-3" d="M32,19H19a1,1,0,0,1,0-2H32A1,1,0,0,1,32,19Z"/></g></svg>