<svg xmlns="http://www.w3.org/2000/svg" viewBox="0 0 48 48"><defs><style>.cls-1{fill:#df8761;}.cls-2{fill:#f29b75;}.cls-3{fill:#a87e6b;}.cls-4{fill:#be927c;}.cls-5{fill:#f6ccaf;}.cls-6{fill:#ffdec7;}</style></defs><title>Treasure box</title><g id="Treasure_box" data-name="Treasure box"><rect class="cls-1" x="9" y="27" width="30" height="6"/><rect class="cls-1" x="9" y="33" width="30" height="6"/><rect class="cls-1" x="9" y="39" width="30" height="6"/><path class="cls-2" d="M39,39v3H15a3,3,0,0,1-3-3Z"/><path class="cls-2" d="M39,33v3H15a3,3,0,0,1-3-3Z"/><path class="cls-2" d="M39,27v3H15a3,3,0,0,1-3-3Z"/><rect class="cls-3" x="1" y="21" width="46" height="6" rx="1"/><path class="cls-4" d="M47,21v3H7a3,3,0,0,1-3-3Z"/><path class="cls-3" d="M9,27V46a1,1,0,0,1-1,1H4a1,1,0,0,1-1-1V27Z"/><path class="cls-4" d="M9,27c0,17.84-.1,17,0,17a3,3,0,0,1-3-3V27Z"/><path class="cls-3" d="M40,27h4a1,1,0,0,1,1,1V47a0,0,0,0,1,0,0H39a0,0,0,0,1,0,0V28A1,1,0,0,1,40,27Z" transform="translate(84 74) rotate(-180)"/><path class="cls-5" d="M30,21c0,5.95.39,7.65-1.34,9.77A6,6,0,0,1,18,27V21Z"/><path class="cls-6" d="M30,21c0,5.95.39,7.65-1.34,9.77A6,6,0,0,1,21,25V21Z"/><path class="cls-3" d="M45,11V21H3V11A10,10,0,0,1,13,1H35A10,10,0,0,1,45,11Z"/><path class="cls-4" d="M45,11v7H9a3,3,0,0,1-3-3V11A10,10,0,0,1,16,1H35A10,10,0,0,1,45,11Z"/><path class="cls-1" d="M37.66,6H10.34A10,10,0,0,1,19,1H29A10,10,0,0,1,37.66,6Z"/><path class="cls-2" d="M36.14,4H14.86A10,10,0,0,1,22,1C28.48,1,32.47.27,36.14,4Z"/><path class="cls-1" d="M39,11H9a10,10,0,0,1,1.34-5H37.66A9.92,9.92,0,0,1,39,11Z"/><path class="cls-2" d="M38.8,9H14.71a2.32,2.32,0,0,1-2.26-3c0-.1-1,0,25.21,0A10,10,0,0,1,38.8,9Z"/><rect class="cls-1" x="9" y="11" width="30" height="5"/><path class="cls-2" d="M39,11v3H15a3,3,0,0,1-3-3Z"/><path class="cls-4" d="M24,24a2,2,0,0,0-1,3.72V29a1,1,0,0,0,2,0V27.72A2,2,0,0,0,24,24Z"/><path class="cls-4" d="M45,27c0,17.84-.1,17,0,17a3,3,0,0,1-3-3V27Z"/></g></svg>