<svg xmlns="http://www.w3.org/2000/svg" viewBox="0 0 48 48"><defs><style>.cls-1{fill:#6fabe6;}.cls-2{fill:#82bcf4;}.cls-3{fill:#374f68;}.cls-4{fill:#425b72;}.cls-5{fill:#edebf2;}</style></defs><title>Barcode</title><g id="Barcode"><rect class="cls-1" x="15" y="25" width="32" height="22" rx="2"/><path class="cls-2" d="M47,27V44H21a3,3,0,0,1-3-3V25H45A2,2,0,0,1,47,27Z"/><rect class="cls-3" x="15" y="30" width="32" height="5"/><path class="cls-4" d="M47,30v3H21a3,3,0,0,1-3-3Z"/><path class="cls-5" d="M31,40H19a1,1,0,0,1,0-2H31A1,1,0,0,1,31,40Z"/><path class="cls-5" d="M37,44H19a1,1,0,0,1,0-2H37A1,1,0,0,1,37,44Z"/><path class="cls-4" d="M0,9V1A1,1,0,0,1,1,0H9A1,1,0,0,1,9,2H2V9A1,1,0,0,1,0,9Z"/><path class="cls-4" d="M9,42H1a1,1,0,0,1-1-1V33a1,1,0,0,1,2,0v7H9A1,1,0,0,1,9,42Z"/><path class="cls-4" d="M46,9V2H39a1,1,0,0,1,0-2h8a1,1,0,0,1,1,1V9A1,1,0,0,1,46,9Z"/><path class="cls-4" d="M44,22H4a1,1,0,0,1,0-2H44A1,1,0,0,1,44,22Z"/><path class="cls-4" d="M5,17V6A1,1,0,0,1,7,6V17A1,1,0,0,1,5,17Z"/><path class="cls-4" d="M9,17V6a1,1,0,0,1,2,0V17A1,1,0,0,1,9,17Z"/><path class="cls-4" d="M5,36V25a1,1,0,0,1,2,0V36A1,1,0,0,1,5,36Z"/><path class="cls-4" d="M9,36V25a1,1,0,0,1,2,0V36A1,1,0,0,1,9,36Z"/><path class="cls-4" d="M21,17V6a1,1,0,0,1,2,0V17A1,1,0,0,1,21,17Z"/><path class="cls-4" d="M33,17V6a1,1,0,0,1,2,0V17A1,1,0,0,1,33,17Z"/><rect class="cls-3" x="14" y="5" width="4" height="13"/><path class="cls-4" d="M18,5c0,10.61-.1,10,0,10a2,2,0,0,1-2-2V5Z"/><rect class="cls-3" x="26" y="5" width="4" height="13"/><rect class="cls-3" x="38" y="5" width="4" height="13"/><path class="cls-4" d="M30,5c0,10.61-.1,10,0,10a2,2,0,0,1-2-2V5Z"/><path class="cls-4" d="M42,5c0,10.61-.1,10,0,10a2,2,0,0,1-2-2V5Z"/></g></svg>