<svg xmlns="http://www.w3.org/2000/svg" viewBox="0 0 48 48"><defs><style>.cls-1{fill:#7c7d7d;}.cls-2{fill:#919191;}.cls-3{fill:#dad7e5;}.cls-4{fill:#edebf2;}.cls-5{fill:#fc6;}.cls-6{fill:#ffde76;}.cls-7{fill:#f8834b;}</style></defs><title>Money and Hourglass</title><g id="Money_and_Hourglass" data-name="Money and Hourglass"><path class="cls-1" d="M35,1V3a2,2,0,0,1-2,2H7A2,2,0,0,1,5,3V1Z"/><path class="cls-2" d="M35,1V3H10A2,2,0,0,1,8,1Z"/><path class="cls-1" d="M35,45v2H5V45a2,2,0,0,1,2-2H33A2,2,0,0,1,35,45Z"/><path class="cls-2" d="M35,45H10a2,2,0,0,1-2-2c0-.1-1.26,0,25,0A2,2,0,0,1,35,45Z"/><path class="cls-3" d="M32,43H8l.46-7A15,15,0,0,1,16,24,15,15,0,0,1,8.46,12L8,5H32l-.46,7A15,15,0,0,1,24,24a15,15,0,0,1,7.54,12C31.94,42,31.84,40.48,32,43Z"/><path class="cls-4" d="M31.54,36l.33,5H14.34a3,3,0,0,1-3-3.2L11.46,36A15,15,0,0,1,19,24a15,15,0,0,1-7.54-12L11,5H32l-.46,7A15,15,0,0,1,24,24,15,15,0,0,1,31.54,36Z"/><path class="cls-5" d="M27.54,43H12.46a11,11,0,0,1,4.29-8c1.54-1.23,3.16-2,4.74-1.13C25.38,36.06,27.32,39.3,27.54,43Z"/><path class="cls-6" d="M27.23,41H20a3,3,0,0,1-2.39-4.82,11.54,11.54,0,0,1,2.84-2.68C22.31,33.75,26.11,36.65,27.23,41Z"/><path class="cls-5" d="M26.94,13.94a10.94,10.94,0,0,1-4.38,5.56c-1.32.88-2.57,1.48-4,.64A11.11,11.11,0,0,1,12.78,13c2,.18,2.15,1,4.55,1C20,14,20,13,22.67,13,24.92,13,25.27,13.72,26.94,13.94Z"/><path class="cls-6" d="M26.94,13.94a10.94,10.94,0,0,1-4.38,5.56C21.19,19.31,18,17.25,16.48,14c3,.36,3.39-1,6.19-1C24.92,13,25.27,13.72,26.94,13.94Z"/><path class="cls-6" d="M19.29,28.29a1,1,0,0,1,1.42,1.42A1,1,0,0,1,19.29,28.29Z"/><path class="cls-6" d="M19.08,24.62a1,1,0,0,1,1.84.76A1,1,0,0,1,19.08,24.62Z"/><path class="cls-5" d="M43,38a9,9,0,1,1-14.28-7.28A9,9,0,0,1,43,38Z"/><path class="cls-6" d="M41.67,42.69c-8,4.86-17.26-4.33-12.36-12.36C37.34,25.41,46.57,34.69,41.67,42.69Z"/><path class="cls-7" d="M34,37a1,1,0,1,1,1-1,1,1,0,0,0,1,1c1.66,0,1.21-3-1-3.82a1,1,0,1,0-2,0A3,3,0,0,0,34,39a1,1,0,1,1-1,1,1,1,0,0,0-1-1c-1.66,0-1.21,3,1,3.82a1,1,0,1,0,2,0A3,3,0,0,0,34,37Z"/></g></svg>