<svg xmlns="http://www.w3.org/2000/svg" viewBox="0 0 48 48"><defs><style>.cls-1{fill:#9dcc6b;}.cls-2{fill:#b5e08c;}.cls-3{fill:#84b749;}.cls-4{fill:#f6ccaf;}.cls-5{fill:#ffdec7;}.cls-6{fill:#a87e6b;}.cls-7{fill:#be927c;}</style></defs><title>Wallet</title><g id="Wallet"><rect class="cls-1" x="14" y="1" width="18" height="16"/><path class="cls-2" d="M32,1V14H20a3,3,0,0,1-3-3V1Z"/><path class="cls-3" d="M28,18a1,1,0,0,1-1-1,4,4,0,0,0-8,0,1,1,0,0,1-1,1c-2.42,0-.5-7,5-7S30.41,18,28,18Z"/><path class="cls-3" d="M27,10V7.83A3,3,0,0,1,25.17,6H20.83A3,3,0,0,1,19,7.83V10a1,1,0,0,1-2,0V7a1,1,0,0,1,1-1,1,1,0,0,0,1-1,1,1,0,0,1,1-1h6a1,1,0,0,1,1,1,1,1,0,0,0,1,1,1,1,0,0,1,1,1v3A1,1,0,0,1,27,10Z"/><rect class="cls-1" x="32" y="1" width="4" height="16"/><path class="cls-2" d="M36,1c0,13.72-.1,13,0,13a2,2,0,0,1-2-2V1Z"/><path class="cls-4" d="M44,42a9.88,9.88,0,0,1-.13,2.87A3,3,0,0,1,41,47H9a3,3,0,0,1-3-3V42Z"/><path class="cls-5" d="M44,42a9.88,9.88,0,0,1-.13,2.87c-.64.19,1.79.13-31.87.13a3,3,0,0,1-3-3Z"/><rect class="cls-6" x="6" y="22" width="38" height="20"/><path class="cls-7" d="M44,22V39H12a3,3,0,0,1-3-3V22Z"/><path class="cls-4" d="M44,20v2H6V20a3,3,0,0,1,2.13-2.87C8.77,16.94,6.2,17,41,17A3,3,0,0,1,44,20Z"/><path class="cls-5" d="M44,20H11a2.08,2.08,0,0,1-1.83-3H41A3,3,0,0,1,44,20Z"/><path class="cls-4" d="M15.83,34.83C14.25,36.38,13.11,36,6,36a2,2,0,0,1-2-2V30a2,2,0,0,1,2-2h7A4,4,0,0,1,15.83,34.83Z"/><path class="cls-5" d="M16.64,33.64c-1.05.48-1.23.36-7.64.36a2,2,0,0,1-2-2V28h6A4,4,0,0,1,16.64,33.64Z"/><path class="cls-7" d="M13,33a1,1,0,1,1,.92-1.38A1,1,0,0,1,13,33Z"/></g></svg>