<svg xmlns="http://www.w3.org/2000/svg" viewBox="0 0 48 48"><defs><style>.cls-1{fill:#dad7e5;}.cls-2{fill:#edebf2;}.cls-3{fill:#7c7d7d;}.cls-4{fill:#919191;}.cls-5{fill:#9fdbf3;}.cls-6{fill:#b2e5fb;}.cls-7{fill:#c6c3d8;}</style></defs><title>Cash Register</title><g id="Cash_Register" data-name="Cash Register"><rect class="cls-1" x="1" y="37" width="46" height="10"/><path class="cls-2" d="M47,37v8H7a3,3,0,0,1-3-3V37Z"/><polygon class="cls-3" points="45 37 3 37 6 25 42 25 45 37"/><path class="cls-4" d="M44.25,34H10.59a3,3,0,0,1-2.91-3.73L9,25H42Z"/><path class="cls-2" d="M22,34H20a1,1,0,0,1,0-2h2A1,1,0,0,1,22,34Z"/><path class="cls-2" d="M25,30H23a1,1,0,0,1,0-2h2A1,1,0,0,1,25,30Z"/><path class="cls-2" d="M28,34H26a1,1,0,0,1,0-2h2A1,1,0,0,1,28,34Z"/><path class="cls-2" d="M31,30H29a1,1,0,0,1,0-2h2A1,1,0,0,1,31,30Z"/><path class="cls-2" d="M34,34H32a1,1,0,0,1,0-2h2A1,1,0,0,1,34,34Z"/><path class="cls-2" d="M37,30H35a1,1,0,0,1,0-2h2A1,1,0,0,1,37,30Z"/><path class="cls-2" d="M16,34H14a1,1,0,0,1,0-2h2A1,1,0,0,1,16,34Z"/><path class="cls-2" d="M19,30H17a1,1,0,0,1,0-2h2A1,1,0,0,1,19,30Z"/><path class="cls-2" d="M10,34H8a1,1,0,0,1,0-2h2A1,1,0,0,1,10,34Z"/><path class="cls-2" d="M40,34H38a1,1,0,0,1,0-2h2A1,1,0,0,1,40,34Z"/><path class="cls-2" d="M13,30H11a1,1,0,0,1,0-2h2A1,1,0,0,1,13,30Z"/><rect class="cls-3" x="6" y="13" width="36" height="12"/><path class="cls-4" d="M42,13v9H12a3,3,0,0,1-3-3V13Z"/><rect class="cls-5" x="26" y="17" width="12" height="4"/><path class="cls-6" d="M38,17v2H31a2,2,0,0,1-2-2Z"/><rect class="cls-5" x="26" y="1" width="12" height="6"/><path class="cls-6" d="M38,1V5H33a4,4,0,0,1-4-4Z"/><rect class="cls-1" x="30" y="7" width="4" height="6"/><path class="cls-2" d="M34,7v4a2,2,0,0,1-2-2V7Z"/><path class="cls-1" d="M21,8V20H11V8l2,.8c.67.27.09.36,3-.8l2.5,1Z"/><rect class="cls-3" x="14" y="43" width="20" height="4"/><path class="cls-4" d="M34,43v2H19a2,2,0,0,1-2-2Z"/><path class="cls-2" d="M21,8v9H17a3,3,0,0,1-3-3V8.8L16,8l2.5,1Z"/><path class="cls-7" d="M22,21H10a1,1,0,0,1,0-2H22A1,1,0,0,1,22,21Z"/></g></svg>