<svg xmlns="http://www.w3.org/2000/svg" viewBox="0 0 48 48"><defs><style>.cls-1{fill:#dad7e5;}.cls-2{fill:#edebf2;}.cls-3{fill:#6fabe6;}.cls-4{fill:#9dcc6b;}.cls-5{fill:#b5e08c;}.cls-6{fill:#84b749;}.cls-7{fill:#82bcf4;}.cls-8{fill:#c6c3d8;}</style></defs><title>Cut Money</title><g id="Cut_Money" data-name="Cut Money"><path class="cls-1" d="M32.58,27.6l-5.06,5.69c-4-4.16-5.5-5.75-11.77-12.29,5.72-3.9,4.11-2.86,4.39-3Z"/><path class="cls-2" d="M20.12,18l-2,1.38L29.4,31.17l3.18-3.57Z"/><path class="cls-3" d="M35.47,29.82,32.58,27.6l-5.06,5.69L31,36.92a8,8,0,1,0,4.47-7.1ZM39,41a4,4,0,1,1,4-4A4,4,0,0,1,39,41Z"/><rect class="cls-4" x="5" y="3" width="38" height="18"/><path class="cls-5" d="M43,3V18H11a3,3,0,0,1-3-3V3Z"/><path class="cls-6" d="M11,3A6,6,0,0,1,5,9V7A4,4,0,0,0,9,3Z"/><path class="cls-6" d="M43,15v2a4,4,0,0,0-4,4H37A6,6,0,0,1,43,15Z"/><path class="cls-6" d="M28.35,3h-8.7a10,10,0,0,0,0,18h8.7A10,10,0,0,0,28.35,3ZM24,20a8,8,0,1,1,8-8A8,8,0,0,1,24,20Z"/><path class="cls-6" d="M24,9a1,1,0,0,1,1,1,1,1,0,0,0,1,1c1.66,0,1.21-3-1-3.82a1,1,0,1,0-2,0A3,3,0,0,0,24,13a1,1,0,1,1-1,1,1,1,0,0,0-1-1c-1.66,0-1.21,3,1,3.82a1,1,0,1,0,2,0A3,3,0,0,0,24,11,1,1,0,0,1,24,9Z"/><path class="cls-6" d="M10.71,11.29a1,1,0,1,0,0,1.42A1,1,0,0,0,10.71,11.29Z"/><path class="cls-6" d="M43,7V9a6,6,0,0,1-6-6h2A4,4,0,0,0,43,7Z"/><path class="cls-6" d="M11,21H9a4,4,0,0,0-4-4V15A6,6,0,0,1,11,21Z"/><path class="cls-1" d="M35.15,18,20.48,33.29c-1.9-2.15-.84-.95-5.06-5.69L37,11A7.49,7.49,0,0,1,35.15,18Z"/><path class="cls-2" d="M15.42,27.6l3.18,3.57C34.45,14.63,34.41,15.17,35,12.53Z"/><path class="cls-3" d="M15.42,27.6l-2.89,2.22A8,8,0,1,0,17,36.92l3.48-3.63C18.55,31.11,19.6,32.29,15.42,27.6ZM13,37a4,4,0,1,1-4-4A4,4,0,0,1,13,37Z"/><path class="cls-7" d="M15.42,27.6l-2.89,2.22A8,8,0,0,0,2.42,41.56,8,8,0,0,0,15,34.92l3.6-3.75ZM9,41a4,4,0,1,1,1.64-7.64A4,4,0,0,1,9,41Z"/><path class="cls-7" d="M29.4,31.17,33,34.92a8,8,0,0,0,12.58,6.64c4.72-7-2.88-15.29-10.11-11.74L32.58,27.6ZM35,37a4,4,0,1,1,7.64,1.64A4,4,0,0,1,35,37Z"/><path class="cls-8" d="M24,26a1,1,0,1,1,.38-1.92A1,1,0,0,1,24,26Z"/></g></svg>