<svg xmlns="http://www.w3.org/2000/svg" viewBox="0 0 48 48"><defs><style>.cls-1{fill:#6fabe6;}.cls-2{fill:#82bcf4;}.cls-3{fill:#fc6;}.cls-4{fill:#ffde76;}.cls-5{fill:#f8834b;}.cls-6{fill:#ffba55;}.cls-7{fill:#374f68;}</style></defs><title>Price Tag</title><g id="Price_Tag" data-name="Price Tag"><path class="cls-1" d="M28.26,16,22,19.43a2,2,0,0,0-1,1.75c0,25.53,0,24,0,24.22s1,.44-10.11-2.54a2,2,0,0,1-1.41-2.45l6.17-23A2,2,0,0,1,17.13,16C27,13.47,25.42,13.21,28.26,16Z"/><path class="cls-2" d="M28.26,16,22,19.43a2,2,0,0,0-1,1.75V42.49l-6.07-1.63a2,2,0,0,1-1.41-2.45l6.17-23c0-.12-.43,0,5.21-1.37C26.26,13.68,26.93,14.67,28.26,16Z"/><path class="cls-3" d="M39,21.18V45a2,2,0,0,1-2,2H23a2,2,0,0,1-2-1.6c-.06-.27,0,1.21,0-24.22,0-1.37,1.07-1.77,2-2.3,6.41-3.57,6.71-4,7.94-3.34l7,3.89A2,2,0,0,1,39,21.18Z"/><path class="cls-4" d="M39,21.18V44H26a2,2,0,0,1-2-2V18.34c5.41-3,5.76-3.48,7-2.8l7,3.89A2,2,0,0,1,39,21.18Z"/><path class="cls-5" d="M30,34a2,2,0,1,1,2-2,1,1,0,0,0,1,1c1.89,0,1.06-4.06-2-4.86V27a1,1,0,0,0-2,0v1.14A4,4,0,0,0,30,36a2,2,0,1,1-2,2,1,1,0,0,0-1-1c-1.89,0-1.06,4.06,2,4.86V43a1,1,0,0,0,2,0V41.86A4,4,0,0,0,30,34Z"/><circle class="cls-6" cx="30" cy="21" r="2"/><path class="cls-7" d="M37.27,15.74c-2,3.17-5.42,5.78-6.4,5.78a1,1,0,0,1-.47-1.88c7-3.71,9.83-14.28,5.58-17S23.39,6.88,22.82,14.55l-2,.5c-.2-.59.28-4.44,2.68-8.18C26.62,2,32.72-1.89,37.06.93,40.92,3.42,41,9.92,37.27,15.74Z"/></g></svg>