<svg xmlns="http://www.w3.org/2000/svg" viewBox="0 0 48 48"><defs><style>.cls-1{fill:#dad7e5;}.cls-2{fill:#edebf2;}.cls-3{fill:#7c7d7d;}.cls-4{fill:#919191;}.cls-5{fill:#374f68;}.cls-6{fill:#425b72;}.cls-7{fill:#9fdbf3;}.cls-8{fill:#b2e5fb;}.cls-9{fill:#f8834b;}</style></defs><title>Online Banking</title><g id="Online_Banking" data-name="Online Banking"><rect class="cls-1" x="27" y="16" width="6" height="14"/><path class="cls-2" d="M33,16c0,12.64-.1,12,0,12a3,3,0,0,1-3-3V16Z"/><path class="cls-1" d="M37,8v4H1V8L19,1Z"/><path class="cls-2" d="M37,8v2H6A2,2,0,0,1,4,8L20.5,1.58Z"/><path class="cls-3" d="M21,7a2,2,0,1,1-2.82-1.82A2,2,0,0,1,21,7Z"/><path class="cls-4" d="M20.82,7.82a2,2,0,0,1-2.64-2.64A2,2,0,0,1,20.82,7.82Z"/><path class="cls-5" d="M47,43v2a2,2,0,0,1-2,2H33a2,2,0,0,1-2-2V43Z"/><path class="cls-6" d="M47,43v2H36a2,2,0,0,1-2-2Z"/><path class="cls-5" d="M47,23v2H31V23a2,2,0,0,1,2-2H45A2,2,0,0,1,47,23Z"/><path class="cls-6" d="M47,23H36a2,2,0,0,1-2-2c0-.1-.61,0,11,0A2,2,0,0,1,47,23Z"/><rect class="cls-7" x="31" y="25" width="16" height="18"/><path class="cls-8" d="M47,25V41H37a3,3,0,0,1-3-3V25Z"/><path class="cls-9" d="M39,33a1,1,0,1,1,1-1,1,1,0,0,0,1,1c1.66,0,1.21-3-1-3.82a1,1,0,1,0-2,0A3,3,0,0,0,39,35a1,1,0,1,1-1,1,1,1,0,0,0-1-1c-1.66,0-1.21,3,1,3.82a1,1,0,1,0,2,0A3,3,0,0,0,39,33Z"/><rect class="cls-3" x="3" y="12" width="32" height="4"/><rect class="cls-3" x="3" y="30" width="28" height="4"/><path class="cls-4" d="M31,30v2H8a2,2,0,0,1-2-2Z"/><path class="cls-4" d="M35,12v2H8a2,2,0,0,1-2-2Z"/><rect class="cls-1" x="1" y="34" width="30" height="4"/><path class="cls-2" d="M31,34v2H6a2,2,0,0,1-2-2Z"/><rect class="cls-1" x="16" y="16" width="6" height="14"/><rect class="cls-1" x="5" y="16" width="6" height="14"/><path class="cls-2" d="M11,16c0,12.64-.1,12,0,12a3,3,0,0,1-3-3V16Z"/><path class="cls-2" d="M22,16c0,12.64-.1,12,0,12a3,3,0,0,1-3-3V16Z"/></g></svg>