<svg xmlns="http://www.w3.org/2000/svg" viewBox="0 0 48 48"><defs><style>.cls-1{fill:#c6c3d8;}.cls-2{fill:#dad7e5;}.cls-3{fill:#edebf2;}.cls-4{fill:#374f68;}.cls-5{fill:#425b72;}.cls-6{fill:#9fdbf3;}.cls-7{fill:#b2e5fb;}</style></defs><title>Calculator</title><g id="Calculator"><path class="cls-1" d="M7,4v9H1V4A3,3,0,0,1,7,4Z"/><path class="cls-2" d="M35,4V39l-3.5-2L28,39l-3.49-2L21,39l-3.5-2L14,39l-3.5-2L7,39V4A3,3,0,0,0,4,1H32A3,3,0,0,1,35,4Z"/><path class="cls-3" d="M35,4V36l-3.5-2L28,36l-3.49-2L21,36l-3.5-2L14,36l-3.5-2-.51.29C10,1.66,10.31,2.91,9.19,1H32A3,3,0,0,1,35,4Z"/><path class="cls-1" d="M27,8H11a1,1,0,0,1,0-2H27A1,1,0,0,1,27,8Z"/><path class="cls-1" d="M19,12H11a1,1,0,0,1,0-2h8A1,1,0,0,1,19,12Z"/><path class="cls-1" d="M19,20H11a1,1,0,0,1,0-2h8A1,1,0,0,1,19,20Z"/><path class="cls-1" d="M19,24H11a1,1,0,0,1,0-2h8A1,1,0,0,1,19,24Z"/><rect class="cls-4" x="23" y="17" width="24" height="30" rx="2"/><path class="cls-5" d="M47,19V44H29a3,3,0,0,1-3-3V17H45A2,2,0,0,1,47,19Z"/><rect class="cls-6" x="27" y="21" width="16" height="6"/><path class="cls-7" d="M43,21v4H34a4,4,0,0,1-4-4Z"/><path class="cls-3" d="M36,43H34a1,1,0,0,1,0-2h2A1,1,0,0,1,36,43Z"/><path class="cls-3" d="M43,43H41a1,1,0,0,1,0-2h2A1,1,0,0,1,43,43Z"/><path class="cls-3" d="M29,43H27a1,1,0,0,1,0-2h2A1,1,0,0,1,29,43Z"/><path class="cls-3" d="M36,38H34a1,1,0,0,1,0-2h2A1,1,0,0,1,36,38Z"/><path class="cls-3" d="M43,38H41a1,1,0,0,1,0-2h2A1,1,0,0,1,43,38Z"/><path class="cls-3" d="M29,38H27a1,1,0,0,1,0-2h2A1,1,0,0,1,29,38Z"/><path class="cls-3" d="M36,33H34a1,1,0,0,1,0-2h2A1,1,0,0,1,36,33Z"/><path class="cls-3" d="M43,33H41a1,1,0,0,1,0-2h2A1,1,0,0,1,43,33Z"/><path class="cls-3" d="M29,33H27a1,1,0,0,1,0-2h2A1,1,0,0,1,29,33Z"/></g></svg>