<svg xmlns="http://www.w3.org/2000/svg" viewBox="0 0 48 48"><defs><style>.cls-1{fill:#6fabe6;}.cls-2{fill:#82bcf4;}.cls-3{fill:#374f68;}.cls-4{fill:#425b72;}.cls-5{fill:#dad7e5;}.cls-6{fill:#edebf2;}.cls-7{fill:#fc6;}.cls-8{fill:#ffde76;}.cls-9{fill:#f8834b;}</style></defs><title>Money and Card</title><g id="Money_and_Card" data-name="Money and Card"><path class="cls-1" d="M43,7c0,26.28.06,24.24-.13,24.87A3,3,0,0,1,40,34H4a3,3,0,0,1-3-3V7A3,3,0,0,1,4,4H40A3,3,0,0,1,43,7Z"/><path class="cls-2" d="M43,7c0,25.11.06,23.24-.13,23.87C42.23,31.06,45,31,7,31a3,3,0,0,1-3-3C4,2.89,3.94,4.76,4.13,4.13,4.77,3.94,2,4,40,4A3,3,0,0,1,43,7Z"/><rect class="cls-3" x="1" y="10" width="42" height="5"/><path class="cls-4" d="M43,10v3H7a3,3,0,0,1-3-3Z"/><rect class="cls-5" x="5" y="20" width="20" height="4"/><path class="cls-6" d="M25,20v2H10a2,2,0,0,1-2-2Z"/><path class="cls-6" d="M9,31H5a1,1,0,0,1,0-2H9A1,1,0,0,1,9,31Z"/><path class="cls-6" d="M17,31H13a1,1,0,0,1,0-2h4A1,1,0,0,1,17,31Z"/><path class="cls-6" d="M25,31H21a1,1,0,0,1,0-2h4A1,1,0,0,1,25,31Z"/><path class="cls-7" d="M47,35a9,9,0,1,1-14.28-7.28A9,9,0,0,1,47,35Z"/><path class="cls-8" d="M45.67,39.69c-8,4.86-17.26-4.33-12.36-12.36C41.34,22.41,50.57,31.69,45.67,39.69Z"/><path class="cls-9" d="M38,34a1,1,0,1,1,1-1,1,1,0,0,0,1,1c1.66,0,1.21-3-1-3.82a1,1,0,1,0-2,0A3,3,0,0,0,38,36a1,1,0,1,1-1,1,1,1,0,0,0-1-1c-1.66,0-1.21,3,1,3.82a1,1,0,1,0,2,0A3,3,0,0,0,38,34Z"/></g></svg>