<svg xmlns="http://www.w3.org/2000/svg" viewBox="0 0 48 48"><defs><style>.cls-1{fill:#dad7e5;}.cls-2{fill:#edebf2;}.cls-3{fill:#df8761;}.cls-4{fill:#f29b75;}.cls-5{fill:#f6ccaf;}.cls-6{fill:#ffdec7;}</style></defs><title>Shipping</title><g id="Shipping"><path class="cls-1" d="M37.29,6.65C11.48,22.31,12.61,22,10.39,22,7.27,22,6.24,20.24,1,15l3-2,5,2L29.12,3.11c2.28-1.36,4-.75,7.45-.18A2,2,0,0,1,37.29,6.65Z"/><path class="cls-2" d="M37.59,3.42c-.18.18,1.35-.77-24.21,14.74a5.77,5.77,0,0,1-7.07-.85L2.8,13.8,4,13l5,2L29.12,3.11c2.28-1.36,4-.75,7.45-.18A2,2,0,0,1,37.59,3.42Z"/><path class="cls-1" d="M24.84,5.64l-9,5.32L7,3l3-2Z"/><path class="cls-2" d="M21.52,4.6,17.74,6.84a3,3,0,0,1-3.54-.35L8.91,1.72,10,1Z"/><rect class="cls-3" x="21" y="23" width="26" height="24"/><path class="cls-4" d="M47,23V44H27a3,3,0,0,1-3-3V23Z"/><polygon class="cls-5" points="38 23 38 29 34 27.8 30 29 30 23 38 23"/><rect class="cls-5" x="25" y="39" width="8" height="4"/><path class="cls-6" d="M33,39v2H30a2,2,0,0,1-2-2Z"/><path class="cls-6" d="M38,23v3H36a3,3,0,0,1-3-3Z"/></g></svg>