<svg xmlns="http://www.w3.org/2000/svg" viewBox="0 0 48 48"><defs><style>.cls-1{fill:#6fabe6;}.cls-2{fill:#82bcf4;}.cls-3{fill:#374f68;}.cls-4{fill:#425b72;}.cls-5{fill:#dad7e5;}.cls-6{fill:#edebf2;}.cls-7{fill:#7c7d7d;}.cls-8{fill:#919191;}</style></defs><title>Credit Card Locked</title><g id="Credit_Card_Locked" data-name="Credit Card Locked"><path class="cls-1" d="M43,8c0,26.28.06,24.24-.13,24.87A3,3,0,0,1,40,35H4a3,3,0,0,1-3-3V8A3,3,0,0,1,4,5H40A3,3,0,0,1,43,8Z"/><path class="cls-2" d="M43,8c0,25.11.06,23.24-.13,23.87C42.23,32.06,45,32,7,32a3,3,0,0,1-3-3C4,3.89,3.94,5.76,4.13,5.13,4.77,4.94,2,5,40,5A3,3,0,0,1,43,8Z"/><rect class="cls-3" x="1" y="11" width="42" height="5"/><path class="cls-4" d="M43,11v3H7a3,3,0,0,1-3-3Z"/><rect class="cls-5" x="5" y="21" width="20" height="4"/><path class="cls-6" d="M25,21v2H10a2,2,0,0,1-2-2Z"/><path class="cls-6" d="M9,32H5a1,1,0,0,1,0-2H9A1,1,0,0,1,9,32Z"/><path class="cls-6" d="M17,32H13a1,1,0,0,1,0-2h4A1,1,0,0,1,17,32Z"/><path class="cls-6" d="M25,32H21a1,1,0,0,1,0-2h4A1,1,0,0,1,25,32Z"/><path class="cls-6" d="M43,32V27a3,3,0,0,0-6,0v5a1,1,0,0,1-2,0V27a5,5,0,0,1,10,0v5A1,1,0,0,1,43,32Z"/><rect class="cls-7" x="33" y="31" width="14" height="12" rx="2"/><path class="cls-8" d="M47,33v7H39a3,3,0,0,1-3-3V31h9A2,2,0,0,1,47,33Z"/><path class="cls-6" d="M40,34a2,2,0,0,0-1,3.72V39a1,1,0,0,0,2,0V37.72A2,2,0,0,0,40,34Z"/></g></svg>