<svg xmlns="http://www.w3.org/2000/svg" viewBox="0 0 48 48"><defs><style>.cls-1{fill:#425b72;}.cls-2{fill:#fc6;}.cls-3{fill:#ffde76;}.cls-4{fill:#7c7d7d;}.cls-5{fill:#919191;}.cls-6{fill:#f8834b;}</style></defs><title>Balance</title><g id="Balance"><path class="cls-1" d="M8,21V10a1,1,0,0,1,2,0V21A1,1,0,0,1,8,21Z"/><path class="cls-1" d="M38,21V10a1,1,0,0,1,2,0V21A1,1,0,0,1,38,21Z"/><path class="cls-2" d="M17,28a7.86,7.86,0,0,1-1.44,4.56A8,8,0,1,1,17,28Z"/><path class="cls-3" d="M15.94,32c-7,4-14.89-3.89-10.9-10.9C12,17,20,25,15.94,32Z"/><path class="cls-4" d="M38,45v2H10V45a2,2,0,0,1,2-2H36A2,2,0,0,1,38,45Z"/><path class="cls-5" d="M38,45H15a2,2,0,0,1-2-2c0-.1-1.05,0,23,0A2,2,0,0,1,38,45Z"/><path class="cls-4" d="M33,41v2H15V41a2,2,0,0,1,2-2H31A2,2,0,0,1,33,41Z"/><path class="cls-5" d="M33,41H20a2,2,0,0,1-2-2c0-.1-.66,0,13,0A2,2,0,0,1,33,41Z"/><path class="cls-4" d="M21.83,11l-.12,4H6.09a2,2,0,0,1-1.5-3.41C5.39,10.77,4.86,11,21.83,11Z"/><path class="cls-5" d="M21.83,11l-.06,2H9.09A2,2,0,0,1,7,11Z"/><path class="cls-4" d="M41.91,15H26.29l-.12-4c16.91,0,16.43-.24,17.24.59A2,2,0,0,1,41.91,15Z"/><path class="cls-5" d="M44,13c-.1,0-12.81,0-12.71,0a2.06,2.06,0,0,1-2.06-2c14.17,0,13.41-.2,14.18.59A2,2,0,0,1,44,13Z"/><path class="cls-6" d="M8,25.5a1.5,1.5,0,0,0-3,0A1.5,1.5,0,0,0,8,25.5Z"/><path class="cls-6" d="M11.5,29a1.5,1.5,0,0,0,0,3A1.5,1.5,0,0,0,11.5,29Z"/><path class="cls-6" d="M10.79,24.79l-5,5A1,1,0,0,0,6.5,31.5c.57,0,.35.06,5.71-5.29A1,1,0,0,0,10.79,24.79Z"/><path class="cls-2" d="M47,28a8,8,0,1,1-12.56-6.56A8,8,0,0,1,47,28Z"/><path class="cls-4" d="M27,39H21l.91-30.59h4.18C27.05,40.83,26.92,36.18,27,39Z"/><path class="cls-5" d="M26.94,37a3.76,3.76,0,0,1-3.76-3.88l.73-24.71h2.18Z"/><path class="cls-4" d="M27.64,6.64a4,4,0,1,1-5.28-5.28A4,4,0,0,1,27.64,6.64Z"/><path class="cls-5" d="M28,5.48A4,4,0,0,1,22,1.54,4,4,0,0,1,28,5.48Z"/><path class="cls-3" d="M45.94,32c-7,4-14.89-3.89-10.9-10.9C42,17,50,25,45.94,32Z"/><path class="cls-6" d="M39,27a1,1,0,1,1,1-1,1,1,0,0,0,1,1c1.66,0,1.21-3-1-3.82a1,1,0,1,0-2,0A3,3,0,0,0,39,29a1,1,0,1,1-1,1,1,1,0,0,0-1-1c-1.66,0-1.21,3,1,3.82a1,1,0,1,0,2,0A3,3,0,0,0,39,27Z"/></g></svg>