<svg xmlns="http://www.w3.org/2000/svg" viewBox="0 0 48 48"><defs><style>.cls-1{fill:#374f68;}.cls-2{fill:#425b72;}.cls-3{fill:#dad7e5;}.cls-4{fill:#edebf2;}.cls-5{fill:#f8834b;}</style></defs><title>Magnify Dolar</title><g id="Magnify_Dolar" data-name="Magnify Dolar"><path class="cls-1" d="M36,31.75c0,.1,0,0-4.24,4.25h0a2,2,0,0,1-2.83,0l-3-3L33,26c3.34,3.32,3.12,3.08,3.29,3.39A2,2,0,0,1,36,31.75Z"/><path class="cls-2" d="M35.42,28.34C31.7,32.06,31.85,32,31.75,32a2,2,0,0,1-2.83,0l-1-1L33,26Z"/><path class="cls-1" d="M35,18A17,17,0,1,1,7.58,4.57h0C18.53-3.94,35,3.67,35,18Z"/><path class="cls-2" d="M35,18a16.79,16.79,0,0,1-3.6,10.43A16.81,16.81,0,0,1,21,32C6.78,32-1,15.61,7.58,4.57h0C18.53-3.94,35,3.67,35,18Z"/><path class="cls-3" d="M31,18A13,13,0,0,1,18,31C5.47,31,.16,14.86,10.41,7.46v0A13,13,0,0,1,31,18Z"/><path class="cls-4" d="M31,18c0,3.35-1.54,6.67-2.46,7.59A13,13,0,0,1,8,15a12.63,12.63,0,0,1,2.42-7.56A13,13,0,0,1,31,18Z"/><path class="cls-5" d="M18,17a2,2,0,1,1,2-2,1,1,0,0,0,1,1c1.89,0,1.06-4.06-2-4.86V10a1,1,0,0,0-2,0v1.14A4,4,0,0,0,18,19a2,2,0,1,1-2,2,1,1,0,0,0-1-1c-1.89,0-1.06,4.06,2,4.86V26a1,1,0,0,0,2,0V24.86A4,4,0,0,0,18,17Z"/><path class="cls-1" d="M44,47c-1.68,0-1.25,0-12.24-11L36,31.76,46.12,41.88A3,3,0,0,1,44,47Z"/><path class="cls-2" d="M46.23,42A3,3,0,0,1,44,43c-1.65,0-1.44-.2-10.24-9L36,31.76C46.21,42,46.15,41.9,46.23,42Z"/><path class="cls-5" d="M9.08,17.62a1,1,0,0,1,1.85.76A1,1,0,0,1,9.08,17.62Z"/><path class="cls-5" d="M25.29,17.29a1,1,0,0,1,1.42,1.42A1,1,0,0,1,25.29,17.29Z"/></g></svg>