<svg xmlns="http://www.w3.org/2000/svg" viewBox="0 0 48 48"><defs><style>.cls-1{fill:#dad7e5;}.cls-2{fill:#edebf2;}.cls-3{fill:#f8834b;}.cls-4{fill:#db5669;}.cls-5{fill:#f26674;}.cls-6{fill:#c6c3d8;}.cls-7{fill:#374f68;}.cls-8{fill:#425b72;}</style></defs><title>Cheque</title><g id="Cheque"><path class="cls-1" d="M40,3V7H36V3a2,2,0,0,1,4,0Z"/><path class="cls-2" d="M40,3V5a2,2,0,0,1-2-2V1A2,2,0,0,1,40,3Z"/><path class="cls-1" d="M44,17V12a1,1,0,0,0-1-1H40a1,1,0,0,1,0-2h3a3,3,0,0,1,3,3v5A1,1,0,0,1,44,17Z"/><rect class="cls-1" x="1" y="21" width="46" height="26"/><path class="cls-2" d="M47,21V44H7a3,3,0,0,1-3-3V21Z"/><path class="cls-3" d="M9,37a1,1,0,1,1,1-1,1,1,0,0,0,1,1c1.66,0,1.21-3-1-3.82a1,1,0,1,0-2,0A3,3,0,0,0,9,39a1,1,0,1,1-1,1,1,1,0,0,0-1-1c-1.66,0-1.21,3,1,3.82a1,1,0,1,0,2,0A3,3,0,0,0,9,37Z"/><rect class="cls-4" x="5" y="25" width="16" height="4"/><path class="cls-5" d="M21,25v2H10a2,2,0,0,1-2-2Z"/><path class="cls-6" d="M29,35H17a1,1,0,0,1,0-2H29A1,1,0,0,1,29,35Z"/><path class="cls-6" d="M29,39H17a1,1,0,0,1,0-2H29A1,1,0,0,1,29,39Z"/><path class="cls-6" d="M41,43H17a1,1,0,0,1,0-2H41A1,1,0,0,1,41,43Z"/><path class="cls-7" d="M41,8V32H35V8a2,2,0,0,1,2-2h2A2,2,0,0,1,41,8Z"/><path class="cls-8" d="M41,8c0,22-.1,21,0,21a3,3,0,0,1-3-3V6h1A2,2,0,0,1,41,8Z"/><polygon class="cls-7" points="41 32 38 38 35 32 41 32"/><polygon class="cls-8" points="41 32 39.5 35 38 32 41 32"/><rect class="cls-1" x="35" y="13" width="6" height="4"/><path class="cls-2" d="M41,13v2H40a2,2,0,0,1-2-2Z"/></g></svg>