<svg xmlns="http://www.w3.org/2000/svg" viewBox="0 0 48 48"><defs><style>.cls-1{fill:#6fabe6;}.cls-2{fill:#82bcf4;}.cls-3{fill:#374f68;}.cls-4{fill:#425b72;}.cls-5{fill:#dad7e5;}.cls-6{fill:#edebf2;}</style></defs><title>Credit Card Magnifiy</title><g id="Credit_Card_Magnifiy" data-name="Credit Card Magnifiy"><path class="cls-1" d="M43,6c0,26.28.06,24.24-.13,24.87A3,3,0,0,1,40,33H4a3,3,0,0,1-3-3V6A3,3,0,0,1,4,3H40A3,3,0,0,1,43,6Z"/><path class="cls-2" d="M43,6c0,25.11.06,23.24-.13,23.87C42.23,30.06,45,30,7,30a3,3,0,0,1-3-3C4,1.89,3.94,3.76,4.13,3.13,4.77,2.94,2,3,40,3A3,3,0,0,1,43,6Z"/><rect class="cls-3" x="1" y="9" width="42" height="5"/><path class="cls-4" d="M43,9v3H7A3,3,0,0,1,4,9Z"/><rect class="cls-5" x="5" y="19" width="20" height="4"/><path class="cls-6" d="M25,19v2H10a2,2,0,0,1-2-2Z"/><path class="cls-6" d="M9,30H5a1,1,0,0,1,0-2H9A1,1,0,0,1,9,30Z"/><path class="cls-6" d="M17,30H13a1,1,0,0,1,0-2h4A1,1,0,0,1,17,30Z"/><path class="cls-6" d="M25,30H21a1,1,0,0,1,0-2h4A1,1,0,0,1,25,30Z"/><path class="cls-3" d="M33.21,39.61l-4.8,4.8a2,2,0,0,1-2.82-2.82l4.8-4.8Z"/><path class="cls-4" d="M31.71,38.11l-4.3,4.3a2,2,0,0,1-2.39.32c.1-.86.21-.78,5.37-5.94Z"/><path class="cls-5" d="M47,32a9,9,0,1,1-13.69-7.67A9,9,0,0,1,47,32Z"/><path class="cls-6" d="M45.67,36.69c-8,4.86-17.26-4.33-12.36-12.36C41.34,19.41,50.57,28.69,45.67,36.69Z"/><path class="cls-4" d="M38,42A10,10,0,1,1,48,32,10,10,0,0,1,38,42Zm0-18a8,8,0,1,0,8,8A8,8,0,0,0,38,24Z"/></g></svg>