<svg xmlns="http://www.w3.org/2000/svg" viewBox="0 0 48 48"><defs><style>.cls-1{fill:#fc6;}.cls-2{fill:#ffde76;}.cls-3{fill:#f8834b;}.cls-4{fill:#374f68;}.cls-5{fill:#425b72;}.cls-6{fill:#9fdbf3;}.cls-7{fill:#b2e5fb;}.cls-8{fill:#edebf2;}.cls-9{fill:#9dcc6b;}.cls-10{fill:#b5e08c;}.cls-11{fill:#f26674;}</style></defs><title>Transaction</title><g id="Transaction"><path class="cls-1" d="M46,24a9,9,0,1,1-14.28-7.28A9,9,0,0,1,46,24Z"/><path class="cls-2" d="M44.67,28.69c-8,4.86-17.26-4.33-12.36-12.36C40.34,11.41,49.57,20.69,44.67,28.69Z"/><path class="cls-3" d="M37,23a1,1,0,1,1,1-1,1,1,0,0,0,1,1c1.66,0,1.21-3-1-3.82a1,1,0,1,0-2,0A3,3,0,0,0,37,25a1,1,0,1,1-1,1,1,1,0,0,0-1-1c-1.66,0-1.21,3,1,3.82a1,1,0,1,0,2,0A3,3,0,0,0,37,23Z"/><path class="cls-4" d="M30,4c0,42.69.06,40.22-.13,40.87A3,3,0,0,1,27,47H5a3,3,0,0,1-3-3V4A3,3,0,0,1,5,1H27A3,3,0,0,1,30,4Z"/><path class="cls-5" d="M30,4V44H8a3,3,0,0,1-3-3V1H27A3,3,0,0,1,30,4Z"/><polygon class="cls-6" points="26 6 26 41 6 41 6 6 11.25 6 12 7 20 7 20.75 6 26 6"/><path class="cls-7" d="M26,6V38H12a3,3,0,0,1-3-3V6h2.25L12,7h8l.75-1Z"/><path class="cls-8" d="M17,5H15a1,1,0,0,1,0-2h2A1,1,0,0,1,17,5Z"/><path class="cls-9" d="M21,35a2,2,0,0,1-2,2H13a2,2,0,0,1,0-4h6A2,2,0,0,1,21,35Z"/><path class="cls-10" d="M21,35H16a2,2,0,0,1-2-2h5A2,2,0,0,1,21,35Z"/><path class="cls-5" d="M36.29,11.71a1,1,0,0,0,1.42-1.42L36.41,9H42a1,1,0,0,0,0-2H36.41l1.3-1.29a1,1,0,0,0-1.42-1.42C31.87,8.71,31.91,7.32,36.29,11.71Z"/><path class="cls-5" d="M42.92,39.62c-.11-.27,0-.08-3.21-3.33a1,1,0,0,0-1.42,1.42L39.59,39H34a1,1,0,0,0,0,2h5.59l-1.3,1.29A1,1,0,0,0,39,44c.55,0,.45,0,3.71-3.29A1,1,0,0,0,42.92,39.62Z"/><path class="cls-11" d="M14.33,26c-.56,0-.41,0-4-3.63A1,1,0,0,1,11.71,21l2.64,2.64,7-6.66a1,1,0,0,1,1.38,1.45C14.29,26.43,14.89,26,14.33,26Z"/></g></svg>