<svg xmlns="http://www.w3.org/2000/svg" viewBox="0 0 48 48"><defs><style>.cls-1{fill:#f6ccaf;}.cls-2{fill:#ffdec7;}.cls-3{fill:#a87e6b;}.cls-4{fill:#be927c;}.cls-5{fill:#dad7e5;}.cls-6{fill:#edebf2;}.cls-7{fill:#82bcf4;}</style></defs><title>Pay later</title><g id="Pay_later" data-name="Pay later"><path class="cls-1" d="M41,31a9.88,9.88,0,0,1-.13,2.87A3,3,0,0,1,38,36H6a3,3,0,0,1-3-3V31Z"/><path class="cls-2" d="M41,31a9.88,9.88,0,0,1-.13,2.87c-.64.19,1.79.13-31.87.13a3,3,0,0,1-3-3Z"/><rect class="cls-3" x="3" y="11" width="38" height="20"/><path class="cls-4" d="M41,11V28H9a3,3,0,0,1-3-3V11Z"/><path class="cls-1" d="M41,9v2H3V9A3,3,0,0,1,5.13,6.13C5.77,5.94,3.2,6,38,6A3,3,0,0,1,41,9Z"/><path class="cls-2" d="M41,9H8A2.08,2.08,0,0,1,6.17,6H38A3,3,0,0,1,41,9Z"/><path class="cls-1" d="M12.83,23.83C11.25,25.38,10.11,25,3,25a2,2,0,0,1-2-2V19a2,2,0,0,1,2-2h7A4,4,0,0,1,12.83,23.83Z"/><path class="cls-2" d="M13.64,22.64c-1.05.48-1.23.36-7.64.36a2,2,0,0,1-2-2V17h6A4,4,0,0,1,13.64,22.64Z"/><path class="cls-4" d="M10,22a1,1,0,1,1,.92-1.38A1,1,0,0,1,10,22Z"/><path class="cls-5" d="M47,33a9,9,0,1,1-13.69-7.67A9,9,0,0,1,47,33Z"/><path class="cls-6" d="M45.67,37.69c-8,4.86-17.26-4.33-12.36-12.36C41.34,20.41,50.57,29.69,45.67,37.69Z"/><path class="cls-7" d="M40.5,36.5c-.56,0-.54-.13-3.21-2.79-.39-.4-.29-.23-.29-5.71a1,1,0,0,1,2,0v4.59l2.21,2.2A1,1,0,0,1,40.5,36.5Z"/><path class="cls-7" d="M38,43A10,10,0,1,1,48,33,10,10,0,0,1,38,43Zm0-18a8,8,0,1,0,8,8A8,8,0,0,0,38,25Z"/></g></svg>