<svg xmlns="http://www.w3.org/2000/svg" viewBox="0 0 48 48"><defs><style>.cls-1{fill:#dad7e5;}.cls-2{fill:#c6c3d8;}.cls-3{fill:#edebf2;}.cls-4{fill:#374f68;}.cls-5{fill:#425b72;}.cls-6{fill:#9fdbf3;}.cls-7{fill:#b2e5fb;}</style></defs><title>Pos Terminal</title><g id="Pos_Terminal" data-name="Pos Terminal"><path class="cls-1" d="M33,4v7H13c0-7.85.24-8.3-.73-9.27A2.5,2.5,0,0,0,10.5,1H30A3,3,0,0,1,33,4Z"/><path class="cls-2" d="M13,3.5V7H8V3.5a2.5,2.5,0,0,1,5,0Z"/><path class="cls-3" d="M33,4V8H18a2,2,0,0,1-2-2c0-2.39.15-3.53-.61-5H30A3,3,0,0,1,33,4Z"/><path class="cls-4" d="M36,14c0,32.53.06,30.23-.13,30.87A3,3,0,0,1,33,47H13a3,3,0,0,1-3-3V14a3,3,0,0,1,3-3H33A3,3,0,0,1,36,14Z"/><path class="cls-5" d="M36,14V44H16a3,3,0,0,1-3-3V11H33A3,3,0,0,1,36,14Z"/><rect class="cls-6" x="14" y="15" width="18" height="9"/><path class="cls-7" d="M32,15v6H23a6,6,0,0,1-6-6Z"/><rect class="cls-1" x="14" y="28" width="18" height="15"/><path class="cls-3" d="M32,28V41H20a3,3,0,0,1-3-3V28Z"/><path class="cls-5" d="M21,27V44H19V27A1,1,0,0,1,21,27Z"/><path class="cls-5" d="M27,27V44H25V27A1,1,0,0,1,27,27Z"/><path class="cls-5" d="M33,39H13V37H33A1,1,0,0,1,33,39Z"/><path class="cls-5" d="M33,34H13V32H33A1,1,0,0,1,33,34Z"/><rect class="cls-4" x="36" y="16" width="4" height="26"/><path class="cls-5" d="M40,16c0,23.58-.1,23,0,23a2,2,0,0,1-2-2V16Z"/><path class="cls-2" d="M29,7H17a1,1,0,0,1,0-2H29A1,1,0,0,1,29,7Z"/></g></svg>