<svg xmlns="http://www.w3.org/2000/svg" viewBox="0 0 48 48"><defs><style>.cls-1{fill:#c6c3d8;}.cls-2{fill:#dad7e5;}.cls-3{fill:#edebf2;}.cls-4{fill:#9dcc6b;}.cls-5{fill:#b5e08c;}.cls-6{fill:#374f68;}.cls-7{fill:#425b72;}.cls-8{fill:#9fdbf3;}.cls-9{fill:#b2e5fb;}</style></defs><title>Finance</title><g id="Finance"><path class="cls-1" d="M12,4V9H6V4a3,3,0,0,1,6,0Z"/><path class="cls-2" d="M40,4V35l-3.5-2L33,35l-3.49-2L26,35l-3.5-2L19,35l-3.5-2L12,35V4A3,3,0,0,0,9,1H37A3,3,0,0,1,40,4Z"/><path class="cls-3" d="M40,4V32l-3.5-2L33,32l-3.49-2L26,32l-3.5-2L19,32l-3.5-2-.51.29C15,2.16,15.32,2.91,14.19,1H37A3,3,0,0,1,40,4Z"/><path class="cls-4" d="M47,14c0,5.47.64,9.88-3.73,13.88A12.05,12.05,0,0,1,40,30a11.55,11.55,0,0,1-7-10.62V14l7-2Z"/><path class="cls-5" d="M47,14c0,5.47.64,9.88-3.73,13.88L43,28a11.55,11.55,0,0,1-7-10.62V13.14L40,12Z"/><path class="cls-3" d="M36.29,20.71a1,1,0,0,1,1.42-1.42L39,20.59l3.29-3.3a1,1,0,0,1,1.42,1.42C38.26,24.15,39.54,24,36.29,20.71Z"/><path class="cls-1" d="M30,9H16a1,1,0,0,1,0-2H30A1,1,0,0,1,30,9Z"/><rect class="cls-6" x="1" y="17" width="24" height="30" rx="2"/><path class="cls-7" d="M25,19V44H7a3,3,0,0,1-3-3V17H23A2,2,0,0,1,25,19Z"/><rect class="cls-8" x="5" y="21" width="16" height="6"/><path class="cls-3" d="M14,43H12a1,1,0,0,1,0-2h2A1,1,0,0,1,14,43Z"/><path class="cls-3" d="M21,43H19a1,1,0,0,1,0-2h2A1,1,0,0,1,21,43Z"/><path class="cls-3" d="M7,43H5a1,1,0,0,1,0-2H7A1,1,0,0,1,7,43Z"/><path class="cls-3" d="M14,38H12a1,1,0,0,1,0-2h2A1,1,0,0,1,14,38Z"/><path class="cls-3" d="M21,38H19a1,1,0,0,1,0-2h2A1,1,0,0,1,21,38Z"/><path class="cls-3" d="M7,38H5a1,1,0,0,1,0-2H7A1,1,0,0,1,7,38Z"/><path class="cls-3" d="M14,33H12a1,1,0,0,1,0-2h2A1,1,0,0,1,14,33Z"/><path class="cls-3" d="M21,33H19a1,1,0,0,1,0-2h2A1,1,0,0,1,21,33Z"/><path class="cls-3" d="M7,33H5a1,1,0,0,1,0-2H7A1,1,0,0,1,7,33Z"/><path class="cls-9" d="M21,21v4H12a4,4,0,0,1-4-4Z"/></g></svg>