<svg id="Layer_1" data-name="Layer 1" xmlns="http://www.w3.org/2000/svg" xmlns:xlink="http://www.w3.org/1999/xlink" viewBox="0 0 96 96"><defs><style>.cls-1{fill:#fdfcdc;}.cls-2{fill:url(#linear-gradient);}.cls-3{fill:url(#linear-gradient-2);}.cls-4{fill:url(#linear-gradient-3);}.cls-5{fill:#90e0ef;}.cls-6{fill:#caf0f8;}.cls-7{fill:#fed9b7;}.cls-8{fill:url(#linear-gradient-4);}.cls-9{fill:url(#linear-gradient-5);}.cls-10{fill:#0096c7;}.cls-11{fill:#00b4d8;}.cls-12{fill:url(#linear-gradient-6);}.cls-13{fill:url(#linear-gradient-7);}.cls-14{fill:url(#linear-gradient-8);}.cls-15{fill:url(#linear-gradient-9);}.cls-16{fill:url(#linear-gradient-10);}.cls-17{fill:url(#linear-gradient-11);}.cls-18{fill:url(#linear-gradient-12);}.cls-19{fill:url(#linear-gradient-13);}.cls-20{fill:url(#linear-gradient-14);}.cls-21{fill:url(#linear-gradient-15);}.cls-22{fill:url(#linear-gradient-16);}.cls-23{fill:url(#linear-gradient-17);}.cls-24{fill:url(#linear-gradient-18);}.cls-25{fill:url(#linear-gradient-19);}.cls-26{fill:url(#linear-gradient-20);}.cls-27{fill:url(#linear-gradient-21);}.cls-28{fill:url(#linear-gradient-22);}.cls-29{fill:url(#linear-gradient-23);}.cls-30{fill:url(#linear-gradient-24);}.cls-31{fill:url(#linear-gradient-25);}.cls-32{fill:url(#linear-gradient-26);}.cls-33{fill:url(#linear-gradient-27);}.cls-34{fill:url(#linear-gradient-28);}.cls-35{fill:url(#linear-gradient-29);}.cls-36{fill:url(#linear-gradient-30);}.cls-37{fill:url(#linear-gradient-31);}.cls-38{fill:url(#linear-gradient-32);}.cls-39{fill:url(#linear-gradient-33);}.cls-40{fill:url(#linear-gradient-34);}.cls-41{fill:url(#linear-gradient-35);}.cls-42{fill:url(#linear-gradient-36);}.cls-43{fill:url(#linear-gradient-37);}.cls-44{fill:url(#linear-gradient-38);}.cls-45{fill:url(#linear-gradient-39);}.cls-46{fill:url(#linear-gradient-40);}.cls-47{fill:url(#linear-gradient-41);}.cls-48{fill:url(#linear-gradient-42);}.cls-49{fill:url(#linear-gradient-43);}</style><linearGradient id="linear-gradient" x1="150.06" y1="55.93" x2="127.49" y2="55.93" gradientTransform="matrix(-1, 0, 0, 1, 156.01, 0)" gradientUnits="userSpaceOnUse"><stop offset="0" stop-color="#caf0f8"/><stop offset="1" stop-color="#90e0ef"/></linearGradient><linearGradient id="linear-gradient-2" x1="101.96" y1="55.93" x2="124.68" y2="55.93" xlink:href="#linear-gradient"/><linearGradient id="linear-gradient-3" x1="150.64" y1="45.3" x2="101.39" y2="45.3" xlink:href="#linear-gradient"/><linearGradient id="linear-gradient-4" x1="147.24" y1="48.24" x2="127.48" y2="48.24" gradientTransform="matrix(-1, 0, 0, 1, 156.01, 0)" gradientUnits="userSpaceOnUse"><stop offset="0" stop-color="#00b4d8"/><stop offset="1" stop-color="#0096c7"/></linearGradient><linearGradient id="linear-gradient-5" x1="104.78" y1="48.24" x2="124.67" y2="48.24" xlink:href="#linear-gradient-4"/><linearGradient id="linear-gradient-6" x1="150.06" y1="41.93" x2="127.49" y2="41.93" xlink:href="#linear-gradient"/><linearGradient id="linear-gradient-7" x1="101.96" y1="41.93" x2="124.68" y2="41.93" xlink:href="#linear-gradient"/><linearGradient id="linear-gradient-8" x1="150.64" y1="31.3" x2="101.39" y2="31.3" xlink:href="#linear-gradient"/><linearGradient id="linear-gradient-9" x1="147.24" y1="34.24" x2="127.48" y2="34.24" xlink:href="#linear-gradient-4"/><linearGradient id="linear-gradient-10" x1="104.78" y1="34.24" x2="124.67" y2="34.24" xlink:href="#linear-gradient-4"/><linearGradient id="linear-gradient-11" x1="150.06" y1="29.39" x2="127.49" y2="29.39" xlink:href="#linear-gradient"/><linearGradient id="linear-gradient-12" x1="101.96" y1="29.39" x2="124.68" y2="29.39" xlink:href="#linear-gradient"/><linearGradient id="linear-gradient-13" x1="150.64" y1="18.76" x2="101.39" y2="18.76" xlink:href="#linear-gradient"/><linearGradient id="linear-gradient-14" x1="7.45" y1="52.97" x2="15.96" y2="52.97" gradientUnits="userSpaceOnUse"><stop offset="0" stop-color="#ffd500"/><stop offset="1" stop-color="#fdc500"/></linearGradient><linearGradient id="linear-gradient-15" x1="23.72" y1="46.36" x2="26.55" y2="46.36" gradientTransform="translate(26.7 -6.35) rotate(30.16)" xlink:href="#linear-gradient-14"/><linearGradient id="linear-gradient-16" x1="23.72" y1="34.3" x2="26.55" y2="34.3" gradientTransform="translate(20.64 -7.98) rotate(30.16)" xlink:href="#linear-gradient-14"/><linearGradient id="linear-gradient-17" x1="10.85" y1="38.45" x2="12.27" y2="38.45" xlink:href="#linear-gradient-14"/><linearGradient id="linear-gradient-18" x1="7.72" y1="36.63" x2="9.14" y2="36.63" xlink:href="#linear-gradient-14"/><linearGradient id="linear-gradient-19" x1="10.85" y1="26.46" x2="12.27" y2="26.46" xlink:href="#linear-gradient-14"/><linearGradient id="linear-gradient-20" x1="7.72" y1="24.63" x2="9.14" y2="24.63" xlink:href="#linear-gradient-14"/><linearGradient id="linear-gradient-21" x1="9" y1="18.76" x2="51" y2="18.76" gradientTransform="matrix(1, 0, 0, 1, 0, 0)" xlink:href="#linear-gradient-4"/><linearGradient id="linear-gradient-22" x1="114.06" y1="79.93" x2="91.49" y2="79.93" xlink:href="#linear-gradient"/><linearGradient id="linear-gradient-23" x1="65.96" y1="79.93" x2="88.68" y2="79.93" xlink:href="#linear-gradient"/><linearGradient id="linear-gradient-24" x1="114.64" y1="69.3" x2="65.39" y2="69.3" xlink:href="#linear-gradient"/><linearGradient id="linear-gradient-25" x1="111.24" y1="72.24" x2="91.48" y2="72.24" xlink:href="#linear-gradient-4"/><linearGradient id="linear-gradient-26" x1="68.78" y1="72.24" x2="88.67" y2="72.24" xlink:href="#linear-gradient-4"/><linearGradient id="linear-gradient-27" x1="65.96" y1="65.93" x2="88.68" y2="65.93" xlink:href="#linear-gradient"/><linearGradient id="linear-gradient-28" x1="114.64" y1="55.3" x2="65.39" y2="55.3" xlink:href="#linear-gradient"/><linearGradient id="linear-gradient-29" x1="111.24" y1="58.24" x2="91.48" y2="58.24" xlink:href="#linear-gradient-4"/><linearGradient id="linear-gradient-30" x1="68.78" y1="58.24" x2="88.67" y2="58.24" xlink:href="#linear-gradient-4"/><linearGradient id="linear-gradient-31" x1="65.96" y1="53.39" x2="88.68" y2="53.39" xlink:href="#linear-gradient"/><linearGradient id="linear-gradient-32" x1="114.64" y1="42.76" x2="65.39" y2="42.76" xlink:href="#linear-gradient"/><linearGradient id="linear-gradient-33" x1="111.01" y1="42.76" x2="69.01" y2="42.76" xlink:href="#linear-gradient-4"/><linearGradient id="linear-gradient-34" x1="114.06" y1="65.93" x2="91.49" y2="65.93" xlink:href="#linear-gradient"/><linearGradient id="linear-gradient-35" x1="114.06" y1="53.39" x2="91.49" y2="53.39" xlink:href="#linear-gradient"/><linearGradient id="linear-gradient-36" x1="59.72" y1="70.36" x2="62.55" y2="70.36" gradientTransform="translate(43.63 -21.19) rotate(30.16)" xlink:href="#linear-gradient-14"/><linearGradient id="linear-gradient-37" x1="59.72" y1="58.3" x2="62.55" y2="58.3" gradientTransform="translate(37.57 -22.82) rotate(30.16)" xlink:href="#linear-gradient-14"/><linearGradient id="linear-gradient-38" x1="46.85" y1="50.46" x2="48.27" y2="50.46" xlink:href="#linear-gradient-14"/><linearGradient id="linear-gradient-39" x1="43.72" y1="48.63" x2="45.14" y2="48.63" xlink:href="#linear-gradient-14"/><linearGradient id="linear-gradient-40" x1="46.85" y1="62.45" x2="48.27" y2="62.45" xlink:href="#linear-gradient-14"/><linearGradient id="linear-gradient-41" x1="43.72" y1="60.63" x2="45.14" y2="60.63" xlink:href="#linear-gradient-14"/><linearGradient id="linear-gradient-42" x1="12.14" y1="76.6" x2="57.91" y2="76.6" xlink:href="#linear-gradient-14"/><linearGradient id="linear-gradient-43" x1="43.8" y1="77.13" x2="52.31" y2="77.13" xlink:href="#linear-gradient-14"/></defs><path class="cls-1" d="M54,46.12l0,6.52a1,1,0,0,0,.59-.83l0-6.52a1,1,0,0,1-.59.83"/><polygon class="cls-2" points="5.95 46.12 5.97 52.64 28.52 65.75 28.5 59.23 5.95 46.12"/><polygon class="cls-3" points="31.33 59.23 31.35 65.75 54.05 52.64 54.03 46.12 31.33 59.23"/><path class="cls-4" d="M6,44.48a.87.87,0,0,0,0,1.64L28.5,59.22a3.14,3.14,0,0,0,2.83,0L54,46.12a.87.87,0,0,0,0-1.64L31.49,31.37a3.14,3.14,0,0,0-2.83,0Z"/><path class="cls-5" d="M29.9,59.56a3,3,0,0,0,1.43-.34l0,6.53a3.14,3.14,0,0,1-1.4.33,3.86,3.86,0,0,1-1.43-.33l0-6.53A3,3,0,0,0,29.9,59.56Z"/><path class="cls-6" d="M5.52,45.74a1.64,1.64,0,0,0,.43.38l0,6.52a1.62,1.62,0,0,1-.43-.37.86.86,0,0,1-.15-.44l0-6.53A.73.73,0,0,0,5.52,45.74Z"/><path class="cls-7" d="M51.81,44.94V38.42a1,1,0,0,1-.59.82l0,6.52A1,1,0,0,0,51.81,44.94Z"/><polygon class="cls-8" points="8.77 39.24 8.79 45.76 28.53 57.24 28.51 50.71 8.77 39.24"/><polygon class="cls-9" points="31.34 50.71 31.36 57.24 51.23 45.76 51.21 39.24 31.34 50.71"/><path class="cls-10" d="M29.22,51a6.28,6.28,0,0,0,.72.08,3.45,3.45,0,0,0,.72-.08,4.39,4.39,0,0,0,.68-.26l0,6.53a3,3,0,0,1-1.43.33,4.43,4.43,0,0,1-1.4-.33l0-6.53A3.58,3.58,0,0,0,29.22,51Z"/><path class="cls-11" d="M8.35,38.87a1.73,1.73,0,0,0,.42.37l0,6.52a1.56,1.56,0,0,1-.4-.33A1,1,0,0,1,8.21,45V38.43A.89.89,0,0,0,8.35,38.87Z"/><path class="cls-6" d="M54,32.12l0,6.52a1,1,0,0,0,.59-.83l0-6.52a1,1,0,0,1-.59.83"/><polygon class="cls-12" points="5.95 32.12 5.97 38.64 28.52 51.75 28.5 45.23 5.95 32.12"/><polygon class="cls-13" points="31.33 45.23 31.35 51.75 54.05 38.64 54.03 32.12 31.33 45.23"/><path class="cls-14" d="M6,30.48a.87.87,0,0,0,0,1.64L28.5,45.22a3.14,3.14,0,0,0,2.83,0L54,32.12a.87.87,0,0,0,0-1.64L31.49,17.37a3.14,3.14,0,0,0-2.83,0Z"/><path class="cls-5" d="M29.9,45.56a3,3,0,0,0,1.43-.34l0,6.53a3.14,3.14,0,0,1-1.4.33,3.86,3.86,0,0,1-1.43-.33l0-6.53A3,3,0,0,0,29.9,45.56Z"/><path class="cls-6" d="M5.52,31.74a1.64,1.64,0,0,0,.43.38l0,6.52a1.62,1.62,0,0,1-.43-.37.86.86,0,0,1-.15-.44l0-6.53A.73.73,0,0,0,5.52,31.74Z"/><path class="cls-11" d="M51.21,25.24l0,6.52a1,1,0,0,0,.58-.82V24.42a1,1,0,0,1-.59.82"/><polygon class="cls-15" points="8.77 25.24 8.79 31.76 28.53 43.24 28.51 36.71 8.77 25.24"/><polygon class="cls-16" points="31.34 36.71 31.36 43.24 51.23 31.76 51.21 25.24 31.34 36.71"/><path class="cls-10" d="M29.22,37a6.28,6.28,0,0,0,.72.08,3.45,3.45,0,0,0,.72-.08,4.39,4.39,0,0,0,.68-.26l0,6.53a3,3,0,0,1-1.43.33,4.43,4.43,0,0,1-1.4-.33l0-6.53A3.58,3.58,0,0,0,29.22,37Z"/><path class="cls-11" d="M8.35,24.87a1.73,1.73,0,0,0,.42.37l0,6.52a1.56,1.56,0,0,1-.4-.33A1,1,0,0,1,8.21,31V24.43A.89.89,0,0,0,8.35,24.87Z"/><path class="cls-6" d="M54,19.58l0,6.52a1,1,0,0,0,.59-.82l0-6.53a1,1,0,0,1-.59.83"/><polygon class="cls-17" points="5.95 19.58 5.97 26.1 28.52 39.21 28.5 32.69 5.95 19.58"/><polygon class="cls-18" points="31.33 32.69 31.35 39.21 54.05 26.1 54.03 19.58 31.33 32.69"/><path class="cls-19" d="M6,17.94a.87.87,0,0,0,0,1.64L28.5,32.69a3.14,3.14,0,0,0,2.83,0L54,19.58a.87.87,0,0,0,0-1.64L31.49,4.83a3.14,3.14,0,0,0-2.83,0Z"/><path class="cls-5" d="M29.91,33a3.25,3.25,0,0,0,1.43-.33v6.52a3.24,3.24,0,0,1-1.4.34,4,4,0,0,1-1.42-.34l0-6.52A3.11,3.11,0,0,0,29.91,33Z"/><path class="cls-6" d="M5.52,19.2a1.64,1.64,0,0,0,.43.38L6,26.1a1.62,1.62,0,0,1-.43-.37.86.86,0,0,1-.15-.44l0-6.53A.73.73,0,0,0,5.52,19.2Z"/><path class="cls-20" d="M8.87,49.7c-.79-.45-1.42-.09-1.42.81A3.12,3.12,0,0,0,8.86,53l5.67,3.28c.78.44,1.42.08,1.43-.82A3.12,3.12,0,0,0,14.54,53Z"/><ellipse class="cls-21" cx="25.14" cy="46.36" rx="1.16" ry="2" transform="translate(-19.89 18.91) rotate(-30.16)"/><ellipse class="cls-22" cx="25.14" cy="34.31" rx="1.16" ry="2" transform="translate(-13.83 17.27) rotate(-30.16)"/><path class="cls-23" d="M11.57,36.82c-.4-.22-.72,0-.72.41v1.63a1.53,1.53,0,0,0,.71,1.22c.39.23.7,0,.7-.4V38.05A1.57,1.57,0,0,0,11.57,36.82Z"/><path class="cls-24" d="M8.44,35c-.4-.23-.72,0-.72.41V37a1.56,1.56,0,0,0,.71,1.22c.4.23.7,0,.7-.4V36.23A1.56,1.56,0,0,0,8.44,35Z"/><path class="cls-25" d="M11.57,24.83c-.4-.23-.72,0-.72.41v1.63a1.53,1.53,0,0,0,.71,1.22c.39.23.7,0,.7-.4V26.06A1.56,1.56,0,0,0,11.57,24.83Z"/><path class="cls-26" d="M8.44,23c-.4-.23-.72-.05-.72.41V25a1.54,1.54,0,0,0,.71,1.22c.4.23.7,0,.7-.4V24.23A1.56,1.56,0,0,0,8.44,23Z"/><path class="cls-6" d="M41.52,69.74a1.64,1.64,0,0,0,.43.38l0,6.52a1.62,1.62,0,0,1-.43-.37.86.86,0,0,1-.15-.44l0-6.53A.73.73,0,0,0,41.52,69.74Z"/><path class="cls-6" d="M41.52,55.74a1.64,1.64,0,0,0,.43.38l0,6.52a1.62,1.62,0,0,1-.43-.37.86.86,0,0,1-.15-.44l0-6.53A.73.73,0,0,0,41.52,55.74Z"/><path class="cls-6" d="M41.52,43.22a1.82,1.82,0,0,0,.43.37l0,6.52a1.62,1.62,0,0,1-.43-.37.86.86,0,0,1-.15-.44l0-6.52A.78.78,0,0,0,41.52,43.22Z"/><path class="cls-11" d="M24.65,61.34c-.78-.45-1.42-.08-1.42.81a2.64,2.64,0,0,0,.11.59L26,64.27a1.16,1.16,0,0,0,.11-.47A3.15,3.15,0,0,0,24.65,61.34Z"/><path class="cls-27" d="M9.5,18.07a.73.73,0,0,0,0,1.38l19.23,11a2.76,2.76,0,0,0,2.41,0l19.37-11a.73.73,0,0,0,0-1.38L31.27,7a2.76,2.76,0,0,0-2.41,0Z"/><path class="cls-5" d="M65.9,83.56a3,3,0,0,0,1.43-.34l0,6.53a3.14,3.14,0,0,1-1.4.33,3.86,3.86,0,0,1-1.43-.33l0-6.53A3,3,0,0,0,65.9,83.56Z"/><path class="cls-6" d="M90.62,69.29l0,6.52a1,1,0,0,1-.59.83l0-6.52A1,1,0,0,0,90.62,69.29Z"/><polygon class="cls-28" points="41.95 70.12 41.97 76.64 64.52 89.75 64.5 83.22 41.95 70.12"/><polygon class="cls-29" points="67.33 83.22 67.35 89.75 90.05 76.64 90.03 70.12 67.33 83.22"/><path class="cls-30" d="M42,68.48a.87.87,0,0,0,0,1.64L64.5,83.22a3.14,3.14,0,0,0,2.83,0L90,70.12a.87.87,0,0,0,0-1.64L67.49,55.37a3.14,3.14,0,0,0-2.83,0Z"/><path class="cls-11" d="M87.8,62.42v6.52a1,1,0,0,1-.58.82l0-6.52A1,1,0,0,0,87.8,62.42Z"/><polygon class="cls-31" points="44.77 63.24 44.79 69.76 64.53 81.24 64.51 74.71 44.77 63.24"/><polygon class="cls-32" points="67.34 74.71 67.36 81.24 87.23 69.76 87.21 63.24 67.34 74.71"/><path class="cls-10" d="M65.22,75a6.28,6.28,0,0,0,.72.08,3.45,3.45,0,0,0,.72-.08,4.39,4.39,0,0,0,.68-.26l0,6.53a3,3,0,0,1-1.43.33,4.43,4.43,0,0,1-1.4-.33l0-6.53A3.58,3.58,0,0,0,65.22,75Z"/><path class="cls-6" d="M90,56.12l0,6.52a1,1,0,0,0,.59-.83l0-6.52a1,1,0,0,1-.59.83"/><polygon class="cls-33" points="67.33 69.22 67.35 75.75 90.05 62.64 90.03 56.12 67.33 69.22"/><path class="cls-5" d="M65.9,69.56a3,3,0,0,0,1.43-.34l0,6.53a3.14,3.14,0,0,1-1.4.33,3.86,3.86,0,0,1-1.43-.33l0-6.53A3,3,0,0,0,65.9,69.56Z"/><path class="cls-34" d="M42,54.48a.87.87,0,0,0,0,1.64L64.5,69.22a3.14,3.14,0,0,0,2.83,0L90,56.12a.87.87,0,0,0,0-1.64L67.49,41.37a3.14,3.14,0,0,0-2.83,0Z"/><path class="cls-11" d="M87.21,49.24l0,6.52a1,1,0,0,0,.58-.82V48.42a1,1,0,0,1-.59.82"/><polygon class="cls-35" points="44.77 49.24 44.79 55.76 64.53 67.24 64.51 60.71 44.77 49.24"/><polygon class="cls-36" points="67.34 60.71 67.36 67.24 87.23 55.76 87.21 49.24 67.34 60.71"/><path class="cls-6" d="M90,43.58l0,6.52a1,1,0,0,0,.59-.82l0-6.53a1,1,0,0,1-.59.83"/><polygon class="cls-37" points="67.33 56.69 67.35 63.21 90.05 50.1 90.03 43.58 67.33 56.69"/><path class="cls-38" d="M42,41.94a.87.87,0,0,0,0,1.64L64.5,56.69a3.14,3.14,0,0,0,2.83,0L90,43.58a.87.87,0,0,0,0-1.64L67.49,28.83a3.14,3.14,0,0,0-2.83,0Z"/><path class="cls-39" d="M45.5,42.07a.73.73,0,0,0,0,1.38l19.23,11a2.76,2.76,0,0,0,2.41,0l19.37-11a.73.73,0,0,0,0-1.38L67.27,31a2.76,2.76,0,0,0-2.41,0Z"/><path class="cls-10" d="M65.94,61.05a2.54,2.54,0,0,0,1.4-.34l0,6.53a3,3,0,0,1-1.43.33,4.43,4.43,0,0,1-1.4-.33l0-6.53A3,3,0,0,0,65.94,61.05Z"/><path class="cls-5" d="M65.9,57a3,3,0,0,0,1.43-.34l0,6.52a3.14,3.14,0,0,1-1.4.34,3.85,3.85,0,0,1-1.43-.34l0-6.52A3,3,0,0,0,65.9,57Z"/><path class="cls-11" d="M44.35,48.87a1.73,1.73,0,0,0,.42.37l0,6.52a1.56,1.56,0,0,1-.4-.33,1,1,0,0,1-.18-.48V48.43A.89.89,0,0,0,44.35,48.87Z"/><path class="cls-11" d="M44.35,62.87a1.73,1.73,0,0,0,.42.37l0,6.52a1.56,1.56,0,0,1-.4-.33,1,1,0,0,1-.18-.48V62.43A.89.89,0,0,0,44.35,62.87Z"/><polygon class="cls-40" points="41.95 56.12 41.97 62.64 64.52 75.75 64.5 69.22 41.95 56.12"/><polygon class="cls-41" points="41.95 43.58 41.97 50.1 64.52 63.21 64.5 56.69 41.95 43.58"/><ellipse class="cls-42" cx="61.14" cy="70.36" rx="1.16" ry="2" transform="translate(-27.08 40.24) rotate(-30.16)"/><ellipse class="cls-43" cx="61.14" cy="58.31" rx="1.16" ry="2" transform="translate(-21.02 38.61) rotate(-30.16)"/><path class="cls-44" d="M47.57,48.83c-.4-.23-.72,0-.72.41v1.63a1.53,1.53,0,0,0,.71,1.22c.39.23.7,0,.7-.4V50.06A1.56,1.56,0,0,0,47.57,48.83Z"/><path class="cls-45" d="M44.44,47c-.4-.23-.72,0-.72.41V49a1.54,1.54,0,0,0,.71,1.22c.4.23.7,0,.7-.4V48.23A1.56,1.56,0,0,0,44.44,47Z"/><path class="cls-46" d="M47.57,60.82c-.4-.22-.72,0-.72.41v1.63a1.53,1.53,0,0,0,.71,1.22c.39.23.7,0,.7-.4V62.05A1.57,1.57,0,0,0,47.57,60.82Z"/><path class="cls-47" d="M44.44,59c-.4-.23-.72,0-.72.41V61a1.56,1.56,0,0,0,.71,1.22c.4.23.7,0,.7-.4V60.23A1.56,1.56,0,0,0,44.44,59Z"/><path class="cls-11" d="M56.49,82.91c-.78-.45-1.42-.08-1.42.81a2.6,2.6,0,0,0,.1.59l2.64,1.53a1.3,1.3,0,0,0,.1-.47A3.12,3.12,0,0,0,56.49,82.91Z"/><path class="cls-48" d="M13.64,68.44l11.55-6.67a3.22,3.22,0,0,1,.88,1.81L14.64,70.17a1,1,0,0,0,0,1.73L44.27,89a3,3,0,0,0,3,0l9.78-5.66a3.21,3.21,0,0,1,.86,1.83l-9.64,5.56a5,5,0,0,1-5,0L13.64,73.64a3,3,0,0,1,0-5.2Z"/><path class="cls-49" d="M45.22,73.87c-.79-.46-1.42-.1-1.42.81a3.08,3.08,0,0,0,1.42,2.44l5.66,3.28c.78.45,1.42.08,1.43-.81a3.12,3.12,0,0,0-1.42-2.45Z"/></svg>