<svg xmlns="http://www.w3.org/2000/svg" xmlns:xlink="http://www.w3.org/1999/xlink" viewBox="0 0 96 96"><defs><style>.cls-1{fill:url(#linear-gradient);}.cls-2{fill:url(#linear-gradient-2);}.cls-3{fill:url(#linear-gradient-3);}.cls-4{fill:url(#linear-gradient-4);}.cls-5{fill:url(#linear-gradient-5);}.cls-6{fill:url(#linear-gradient-6);}.cls-7{fill:url(#linear-gradient-7);}.cls-8{fill:#20b776;}.cls-9{fill:url(#linear-gradient-8);}.cls-10{fill:url(#linear-gradient-9);}.cls-11{fill:url(#linear-gradient-10);}.cls-12{fill:url(#linear-gradient-11);}.cls-13{fill:url(#linear-gradient-12);}.cls-14{fill:url(#linear-gradient-13);}.cls-15{fill:url(#linear-gradient-14);}.cls-16{fill:url(#linear-gradient-15);}.cls-17{fill:url(#linear-gradient-16);}.cls-18{fill:url(#linear-gradient-17);}.cls-19{fill:url(#linear-gradient-18);}.cls-20{fill:url(#linear-gradient-19);}.cls-21{fill:url(#linear-gradient-20);}.cls-22{fill:url(#linear-gradient-21);}.cls-23{fill:url(#linear-gradient-22);}.cls-24{fill:url(#linear-gradient-23);}.cls-25{fill:url(#linear-gradient-24);}.cls-26{fill:#28abc9;}.cls-27{fill:url(#linear-gradient-25);}.cls-28{fill:url(#linear-gradient-26);}.cls-29{fill:url(#linear-gradient-27);}.cls-30{fill:url(#linear-gradient-28);}.cls-31{fill:url(#linear-gradient-29);}.cls-32{fill:url(#linear-gradient-30);}</style><linearGradient id="linear-gradient" x1="8.01" y1="32.05" x2="11.05" y2="26.79" gradientUnits="userSpaceOnUse"><stop offset="0" stop-color="#00b4d8"/><stop offset="1" stop-color="#0096c7"/></linearGradient><linearGradient id="linear-gradient-2" x1="39.25" y1="73.66" x2="44.59" y2="76.75" xlink:href="#linear-gradient"/><linearGradient id="linear-gradient-3" x1="42.63" y1="61.37" x2="48.32" y2="61.37" xlink:href="#linear-gradient"/><linearGradient id="linear-gradient-4" x1="25.64" y1="41.75" x2="28.47" y2="36.85" xlink:href="#linear-gradient"/><linearGradient id="linear-gradient-5" x1="41.97" y1="51.99" x2="47.91" y2="48.56" xlink:href="#linear-gradient"/><linearGradient id="linear-gradient-6" x1="1.39" y1="35.8" x2="41.38" y2="75.79" xlink:href="#linear-gradient"/><linearGradient id="linear-gradient-7" x1="18.33" y1="53.23" x2="29.69" y2="53.23" gradientUnits="userSpaceOnUse"><stop offset="0" stop-color="#ffd500"/><stop offset="1" stop-color="#fdc500"/></linearGradient><linearGradient id="linear-gradient-8" x1="16.17" y1="62.98" x2="31.81" y2="62.98" xlink:href="#linear-gradient-7"/><linearGradient id="linear-gradient-9" x1="20.91" y1="61.21" x2="26.19" y2="64.25" xlink:href="#linear-gradient"/><linearGradient id="linear-gradient-10" x1="56.93" y1="57.53" x2="81.07" y2="71.47" gradientUnits="userSpaceOnUse"><stop offset="0" stop-color="#caf0f8"/><stop offset="1" stop-color="#90e0ef"/></linearGradient><linearGradient id="linear-gradient-11" x1="59.62" y1="58.77" x2="77.21" y2="68.93" gradientUnits="userSpaceOnUse"><stop offset="0" stop-color="#fdfcdc"/><stop offset="1" stop-color="#e5e2b7"/></linearGradient><linearGradient id="linear-gradient-12" x1="66.49" y1="61.98" x2="69.84" y2="61.98" gradientUnits="userSpaceOnUse"><stop offset="0" stop-color="#61e786"/><stop offset="1" stop-color="#4ac664"/></linearGradient><linearGradient id="linear-gradient-13" x1="61.44" y1="67.43" x2="76.54" y2="67.43" xlink:href="#linear-gradient-12"/><linearGradient id="linear-gradient-14" x1="24.67" y1="20.12" x2="43.41" y2="30.94" xlink:href="#linear-gradient-10"/><linearGradient id="linear-gradient-15" x1="29.68" y1="9.13" x2="49.59" y2="20.63" xlink:href="#linear-gradient-10"/><linearGradient id="linear-gradient-16" x1="33.48" y1="9.87" x2="40.57" y2="9.87" xlink:href="#linear-gradient-12"/><linearGradient id="linear-gradient-17" x1="33.43" y1="10.24" x2="42.74" y2="15.61" xlink:href="#linear-gradient-12"/><linearGradient id="linear-gradient-18" x1="33.42" y1="12.68" x2="38.47" y2="15.6" xlink:href="#linear-gradient-12"/><linearGradient id="linear-gradient-19" x1="28.44" y1="18.79" x2="34.9" y2="22.52" xlink:href="#linear-gradient-12"/><linearGradient id="linear-gradient-20" x1="28.43" y1="21.23" x2="38.44" y2="27.01" xlink:href="#linear-gradient-12"/><linearGradient id="linear-gradient-21" x1="28.47" y1="24.52" x2="31.3" y2="24.52" xlink:href="#linear-gradient-12"/><linearGradient id="linear-gradient-22" x1="48.93" y1="30.69" x2="69.07" y2="42.31" xlink:href="#linear-gradient-10"/><linearGradient id="linear-gradient-23" x1="56.17" y1="33.24" x2="61.84" y2="33.24" xlink:href="#linear-gradient-12"/><linearGradient id="linear-gradient-24" x1="54.73" y1="40.89" x2="63.24" y2="40.89" xlink:href="#linear-gradient-12"/><linearGradient id="linear-gradient-25" x1="61.64" y1="16.05" x2="94.36" y2="34.95" xlink:href="#linear-gradient-10"/><linearGradient id="linear-gradient-26" x1="68.05" y1="25.89" x2="72.31" y2="25.89" xlink:href="#linear-gradient-12"/><linearGradient id="linear-gradient-27" x1="73.73" y1="29.16" x2="77.99" y2="29.16" xlink:href="#linear-gradient-12"/><linearGradient id="linear-gradient-28" x1="79.4" y1="32.44" x2="83.66" y2="32.44" xlink:href="#linear-gradient-12"/><linearGradient id="linear-gradient-29" x1="68.06" y1="21.68" x2="73.74" y2="21.68" xlink:href="#linear-gradient-12"/><linearGradient id="linear-gradient-30" x1="65.24" y1="20.61" x2="90.79" y2="20.61" xlink:href="#linear-gradient-11"/></defs><g id="Layer_7" data-name="Layer 7"><path class="cls-1" d="M6.21,31l5.64-3.27a1,1,0,0,1,1,.09L7.22,31.11A1,1,0,0,0,6.21,31Z"/><path class="cls-2" d="M42.63,72.79l5.64-3.28c0,2.4-3.44,5.57-7.43,7.89L35.2,80.68c4-2.32,7.42-5.49,7.43-7.89"/><polygon class="cls-3" points="42.68 53.23 48.32 49.95 48.27 69.51 42.63 72.79 42.68 53.23"/><polygon class="cls-4" points="7.21 31.11 12.85 27.83 46.9 47.49 41.26 50.77 7.21 31.11"/><path class="cls-5" d="M41.26,50.77l5.64-3.28A3.14,3.14,0,0,1,48.32,50l-5.64,3.28a3.09,3.09,0,0,0-1.42-2.46"/><path class="cls-6" d="M41.26,50.77a3.09,3.09,0,0,1,1.42,2.46l0,19.56c0,4.89-14.26,13-18.51,10.54S5.72,56.38,5.74,51.49l0-19.56c0-.9.64-1.27,1.43-.82Z"/><path class="cls-7" d="M24,47.49c-3.13-1.8-5.68-.35-5.69,3.25v2.45l2.13,1.22V52c0-2.25,1.6-3.16,3.55-2a7.78,7.78,0,0,1,3.54,6.13v2.44l2.13,1.23V57.29A12.49,12.49,0,0,0,24,47.49"/><path class="cls-8" d="M24,67.06a1.57,1.57,0,0,1-.7-1.22V63.75a1.46,1.46,0,0,0-.34-.89,4.22,4.22,0,0,1-1-3.2,1.17,1.17,0,0,1,1.69-.94,3.52,3.52,0,0,1,.4.18,4.69,4.69,0,0,1,2.12,3.68c0,.91-.43,1.44-1.07,1.49-.22,0-.35.21-.35.5v2.09c0,.45-.32.63-.72.4"/><path class="cls-9" d="M30.39,60.14l-.71-.4-2.13-1.23-7.09-4.1-2.13-1.22-.71-.42c-.78-.45-1.42-.08-1.42.81l0,9.79a3.14,3.14,0,0,0,1.41,2.45l12.77,7.37c.79.45,1.43.09,1.43-.81l0-9.78A3.17,3.17,0,0,0,30.39,60.14Z"/><path class="cls-10" d="M24,58.9a3.52,3.52,0,0,0-.4-.18,1.17,1.17,0,0,0-1.69.94,4.22,4.22,0,0,0,1,3.2,1.46,1.46,0,0,1,.34.89v2.09a1.57,1.57,0,0,0,.7,1.22c.4.23.72,0,.72-.4V64.57c0-.29.13-.48.35-.5.64,0,1.07-.58,1.07-1.49A4.69,4.69,0,0,0,24,58.9"/><path class="cls-11" d="M76.57,60.7,61.48,52c-.93-.54-1.68-.05-1.68,1.07l0,12.23a3.76,3.76,0,0,0,1.67,3L76.52,77c.93.54,1.68.06,1.68-1.06l0-12.23A3.81,3.81,0,0,0,76.57,60.7Z"/><path class="cls-12" d="M74.88,61.77,63.15,55c-.93-.54-1.68-.06-1.69,1.07l0,7.33L63,61c.33-.49.89-.5,1.46-.18a3.62,3.62,0,0,1,1.44,1.86l2.6,7,3.6-5.46a1,1,0,0,1,1.46-.18A3.64,3.64,0,0,1,75,65.93l1.53,4.14,0-5.29A3.81,3.81,0,0,0,74.88,61.77Z"/><path class="cls-13" d="M68.18,59.94c-.93-.53-1.69-.06-1.69,1.07a3.81,3.81,0,0,0,1.67,3c.93.54,1.68.06,1.68-1.06a3.79,3.79,0,0,0-1.66-3"/><path class="cls-14" d="M73.56,64.07a1,1,0,0,0-1.46.18l-3.6,5.46-2.6-7a3.62,3.62,0,0,0-1.44-1.86c-.57-.32-1.13-.31-1.46.18L61.44,63.4v.82a3.82,3.82,0,0,0,1.68,3L74.85,74c.93.54,1.68.06,1.69-1.07V70.07L75,65.93a3.64,3.64,0,0,0-1.45-1.86"/><path class="cls-15" d="M40.54,22.51l-12-7c-.79-.45-1.43-.09-1.43.81l0,11.08a1.55,1.55,0,0,0,.71,1.22.51.51,0,0,0,.5.05l1.63-.93,10.64,6.14c.79.45,1.43.1,1.43-.81L42,25A3.11,3.11,0,0,0,40.54,22.51Z"/><path class="cls-16" d="M45.55,11.52l-12.06-7c-.78-.45-1.42-.09-1.42.81l0,8.15A3.14,3.14,0,0,0,33.46,16L44.1,22.11l1.62,2.81a1.43,1.43,0,0,0,.5.53c.36.21.71.09.71-.4L47,14A3.13,3.13,0,0,0,45.55,11.52Z"/><path class="cls-17" d="M40.22,11.3,33.84,7.62c-.2-.12-.36,0-.36.19a.78.78,0,0,0,.36.62l6.38,3.69c.2.11.35,0,.35-.21a.78.78,0,0,0-.35-.61"/><path class="cls-18" d="M42.34,15l-8.51-4.91c-.2-.11-.36,0-.36.21a.79.79,0,0,0,.36.61l8.51,4.91c.2.11.36,0,.36-.2a.79.79,0,0,0-.36-.62"/><path class="cls-19" d="M38.08,15,33.82,12.5c-.19-.11-.35,0-.35.21a.76.76,0,0,0,.35.62l4.26,2.45c.19.11.35,0,.35-.2a.79.79,0,0,0-.35-.62"/><path class="cls-20" d="M34.51,21.89l-5.68-3.28c-.2-.12-.35,0-.35.2a.75.75,0,0,0,.35.61l5.68,3.28c.19.11.35,0,.35-.2a.77.77,0,0,0-.35-.61"/><path class="cls-21" d="M38.05,26.38l-9.23-5.33c-.19-.11-.35,0-.35.21a.78.78,0,0,0,.35.61l9.23,5.32c.19.11.35,0,.35-.2a.78.78,0,0,0-.35-.61"/><path class="cls-22" d="M30.94,24.72l-2.12-1.23c-.2-.11-.35,0-.35.21a.74.74,0,0,0,.35.61l2.12,1.23c.2.11.36,0,.36-.2a.79.79,0,0,0-.36-.62"/><path class="cls-23" d="M64.7,31.62,53.35,25.07c-.79-.45-1.42-.09-1.42.82l0,13a3.14,3.14,0,0,0,1.41,2.46l11.35,6.55c.79.46,1.42.09,1.42-.82l0-13A3.14,3.14,0,0,0,64.7,31.62Z"/><path class="cls-24" d="M59,36.5c1.56.9,2.84.17,2.84-1.62A6.24,6.24,0,0,0,59,30c-1.57-.9-2.84-.17-2.85,1.62A6.28,6.28,0,0,0,59,36.5Z"/><path class="cls-25" d="M60.41,39l-2.83-1.64c-1.57-.9-2.85-.18-2.85,1.62a3.11,3.11,0,0,0,1.42,2.45l5.67,3.28c.78.45,1.42.09,1.42-.81A6.23,6.23,0,0,0,60.41,39Z"/><path class="cls-26" d="M68.41,25.68a.79.79,0,0,1-.36-.62v-.82c0-.22.16-.31.36-.19L72,26.1a.77.77,0,0,1,.35.6v.82c0,.23-.16.32-.35.21l-3.55-2.05"/><path class="cls-26" d="M74.08,29a.77.77,0,0,1-.35-.61v-.82c0-.22.16-.31.36-.2l3.54,2.05A.78.78,0,0,1,78,30v.81c0,.23-.16.32-.35.21L74.08,29"/><path class="cls-26" d="M79.76,32.23a.78.78,0,0,1-.36-.62V30.8a.22.22,0,0,1,.36-.2l3.55,2a.79.79,0,0,1,.35.61v.81c0,.23-.16.32-.36.21l-3.54-2.05"/><path class="cls-26" d="M68.77,22.63a1.59,1.59,0,0,1-.71-1.24V18.68c0-.45.32-.63.72-.4L73,20.73a1.55,1.55,0,0,1,.7,1.22v2.72c0,.45-.32.64-.71.41l-4.26-2.45"/><path class="cls-27" d="M90.79,27.16V24.72a1.54,1.54,0,0,0-.7-1.22L66,9.57c-.38-.23-.7,0-.71.4l0,16.31a1.54,1.54,0,0,0,.7,1.22L90,41.43c.38.22.7,0,.71-.41l0-12.22L65.24,14.05V12.42Z"/><path class="cls-28" d="M72,26.1l-3.55-2.05c-.2-.12-.36,0-.36.19v.82a.79.79,0,0,0,.36.62L72,27.73c.19.11.35,0,.35-.21V26.7a.77.77,0,0,0-.35-.6"/><path class="cls-29" d="M77.63,29.37l-3.54-2.05c-.2-.11-.36,0-.36.2v.82a.77.77,0,0,0,.35.61L77.63,31c.19.11.35,0,.35-.21V30a.78.78,0,0,0-.36-.61"/><path class="cls-30" d="M83.31,32.65l-3.55-2a.22.22,0,0,0-.36.2v.81a.78.78,0,0,0,.36.62l3.54,2.05c.2.11.36,0,.36-.21v-.81a.79.79,0,0,0-.35-.61"/><path class="cls-31" d="M73,20.73l-4.25-2.45c-.4-.23-.72-.05-.72.4v2.71a1.59,1.59,0,0,0,.71,1.24L73,25.08c.39.23.71,0,.71-.41V22a1.55,1.55,0,0,0-.7-1.22"/><polyline class="cls-32" points="90.78 27.16 65.25 12.42 65.24 14.05 90.78 28.8 90.78 27.16"/></g></svg>