<svg xmlns="http://www.w3.org/2000/svg" xmlns:xlink="http://www.w3.org/1999/xlink" viewBox="0 0 96 96"><defs><style>.cls-1{fill:url(#linear-gradient);}.cls-2{fill:url(#linear-gradient-2);}.cls-3{fill:url(#linear-gradient-3);}.cls-4{fill:#90e0ef;}.cls-5{fill:url(#linear-gradient-4);}.cls-6{fill:url(#linear-gradient-5);}.cls-7{fill:url(#linear-gradient-6);}.cls-8{fill:url(#linear-gradient-7);}.cls-9{fill:url(#linear-gradient-8);}.cls-10{fill:url(#linear-gradient-9);}.cls-11{fill:url(#linear-gradient-10);}.cls-12{fill:url(#linear-gradient-11);}.cls-13{fill:url(#linear-gradient-12);}.cls-14{fill:url(#linear-gradient-13);}.cls-15{fill:url(#linear-gradient-14);}.cls-16{fill:url(#linear-gradient-15);}.cls-17{fill:url(#linear-gradient-16);}.cls-18{fill:url(#linear-gradient-17);}.cls-19{fill:url(#linear-gradient-18);}.cls-20{fill:url(#linear-gradient-19);}.cls-21{fill:#fdc500;}.cls-22{fill:url(#linear-gradient-20);}.cls-23{fill:url(#linear-gradient-21);}.cls-24{fill:url(#linear-gradient-22);}.cls-25{fill:url(#linear-gradient-23);}.cls-26{fill:#6f6024;}.cls-27{fill:url(#linear-gradient-24);}.cls-28{fill:url(#linear-gradient-25);}.cls-29{fill:url(#linear-gradient-26);}.cls-30{fill:#787a32;}.cls-31{fill:url(#linear-gradient-27);}.cls-32{fill:url(#linear-gradient-28);}.cls-33{fill:url(#linear-gradient-29);}.cls-34{fill:url(#linear-gradient-30);}.cls-35{fill:url(#linear-gradient-31);}.cls-36{fill:url(#linear-gradient-32);}.cls-37{fill:url(#linear-gradient-33);}.cls-38{fill:url(#linear-gradient-34);}.cls-39{fill:url(#linear-gradient-35);}.cls-40{fill:url(#linear-gradient-36);}.cls-41{fill:url(#linear-gradient-37);}.cls-42{fill:url(#linear-gradient-38);}.cls-43{fill:url(#linear-gradient-39);}.cls-44{fill:url(#linear-gradient-40);}.cls-45{fill:#0096c7;}.cls-46{fill:url(#linear-gradient-41);}.cls-47{fill:#e5e2b7;}.cls-48{fill:url(#linear-gradient-42);}.cls-49{fill:url(#linear-gradient-43);}.cls-50{fill:url(#linear-gradient-44);}.cls-51{fill:url(#linear-gradient-45);}.cls-52{fill:url(#linear-gradient-46);}.cls-53{fill:url(#linear-gradient-47);}.cls-54{fill:url(#linear-gradient-48);}.cls-55{fill:url(#linear-gradient-49);}.cls-56{fill:url(#linear-gradient-50);}.cls-57{fill:url(#linear-gradient-51);}.cls-58{fill:url(#linear-gradient-52);}.cls-59{fill:url(#linear-gradient-53);}.cls-60{fill:url(#linear-gradient-54);}.cls-61{fill:url(#linear-gradient-55);}.cls-62{fill:url(#linear-gradient-56);}.cls-63{fill:url(#linear-gradient-57);}.cls-64{fill:url(#linear-gradient-58);}.cls-65{fill:url(#linear-gradient-59);}.cls-66{fill:#dcf7ff;}</style><linearGradient id="linear-gradient" x1="80.32" y1="56.89" x2="81.73" y2="54.44" gradientUnits="userSpaceOnUse"><stop offset="0" stop-color="#00b4d8"/><stop offset="1" stop-color="#0096c7"/></linearGradient><linearGradient id="linear-gradient-2" x1="71.09" y1="60.01" x2="88.12" y2="60.01" xlink:href="#linear-gradient"/><linearGradient id="linear-gradient-3" x1="5.56" y1="52.09" x2="56.73" y2="52.09" gradientUnits="userSpaceOnUse"><stop offset="0" stop-color="#caf0f8"/><stop offset="1" stop-color="#90e0ef"/></linearGradient><linearGradient id="linear-gradient-4" x1="6.07" y1="22.58" x2="12.72" y2="22.58" xlink:href="#linear-gradient"/><linearGradient id="linear-gradient-5" x1="56.22" y1="87.67" x2="62.28" y2="87.67" xlink:href="#linear-gradient"/><linearGradient id="linear-gradient-6" x1="14.56" y1="28.63" x2="27.13" y2="6.85" xlink:href="#linear-gradient"/><linearGradient id="linear-gradient-7" x1="29.34" y1="15.09" x2="36.54" y2="10.93" xlink:href="#linear-gradient"/><linearGradient id="linear-gradient-8" x1="33.62" y1="17.13" x2="36.85" y2="11.54" xlink:href="#linear-gradient"/><linearGradient id="linear-gradient-9" x1="43.85" y1="34.92" x2="50.59" y2="31.03" xlink:href="#linear-gradient"/><linearGradient id="linear-gradient-10" x1="56.64" y1="70.09" x2="62.37" y2="70.09" xlink:href="#linear-gradient"/><linearGradient id="linear-gradient-11" x1="55.96" y1="53.37" x2="61.94" y2="49.92" xlink:href="#linear-gradient"/><linearGradient id="linear-gradient-12" x1="10.28" y1="25.27" x2="51.76" y2="49.22" gradientUnits="userSpaceOnUse"><stop offset="0" stop-color="#fdfcdc"/><stop offset="1" stop-color="#e5e2b7"/></linearGradient><linearGradient id="linear-gradient-13" x1="24.16" y1="49.3" x2="37.44" y2="56.97" xlink:href="#linear-gradient-12"/><linearGradient id="linear-gradient-14" x1="19.3" y1="43.23" x2="42.32" y2="56.52" xlink:href="#linear-gradient-12"/><linearGradient id="linear-gradient-15" x1="17.32" y1="31.27" x2="26.54" y2="31.27" gradientUnits="userSpaceOnUse"><stop offset="0" stop-color="#ffd500"/><stop offset="1" stop-color="#fdc500"/></linearGradient><linearGradient id="linear-gradient-16" x1="28.68" y1="33.14" x2="37.19" y2="33.14" xlink:href="#linear-gradient-15"/><linearGradient id="linear-gradient-17" x1="28.67" y1="38.04" x2="42.86" y2="38.04" xlink:href="#linear-gradient-15"/><linearGradient id="linear-gradient-18" x1="17.53" y1="47.92" x2="44.74" y2="47.92" xlink:href="#linear-gradient-15"/><linearGradient id="linear-gradient-19" x1="22.09" y1="51.01" x2="40.23" y2="51.01" xlink:href="#linear-gradient-15"/><linearGradient id="linear-gradient-20" x1="-1.78" y1="37.97" x2="28.9" y2="55.68" xlink:href="#linear-gradient"/><linearGradient id="linear-gradient-21" x1="32.49" y1="57.63" x2="64" y2="75.83" xlink:href="#linear-gradient"/><linearGradient id="linear-gradient-22" x1="71.06" y1="59.29" x2="76.33" y2="59.29" xlink:href="#linear-gradient"/><linearGradient id="linear-gradient-23" x1="71.3" y1="51.11" x2="74.63" y2="51.11" xlink:href="#linear-gradient"/><linearGradient id="linear-gradient-24" x1="87.88" y1="74.66" x2="90.91" y2="74.66" xlink:href="#linear-gradient"/><linearGradient id="linear-gradient-25" x1="88.09" y1="74.03" x2="90.91" y2="74.03" xlink:href="#linear-gradient"/><linearGradient id="linear-gradient-26" x1="71.06" y1="69.44" x2="88.09" y2="69.44" xlink:href="#linear-gradient"/><linearGradient id="linear-gradient-27" x1="88.09" y1="68.3" x2="90.94" y2="68.3" xlink:href="#linear-gradient"/><linearGradient id="linear-gradient-28" x1="82.85" y1="69.12" x2="88.12" y2="69.12" xlink:href="#linear-gradient"/><linearGradient id="linear-gradient-29" x1="88.12" y1="62.19" x2="90.94" y2="62.19" xlink:href="#linear-gradient"/><linearGradient id="linear-gradient-30" x1="87.77" y1="61.6" x2="90.74" y2="59.88" xlink:href="#linear-gradient"/><linearGradient id="linear-gradient-31" x1="55.38" y1="8.36" x2="56.89" y2="5.73" xlink:href="#linear-gradient"/><linearGradient id="linear-gradient-32" x1="68.45" y1="25.86" x2="80.29" y2="32.69" xlink:href="#linear-gradient"/><linearGradient id="linear-gradient-33" x1="50.89" y1="15.72" x2="63.01" y2="22.71" xlink:href="#linear-gradient"/><linearGradient id="linear-gradient-34" x1="76.71" y1="38.75" x2="79.74" y2="38.75" xlink:href="#linear-gradient"/><linearGradient id="linear-gradient-35" x1="76.92" y1="38.12" x2="79.74" y2="38.12" xlink:href="#linear-gradient"/><linearGradient id="linear-gradient-36" x1="55.48" y1="23.24" x2="78.61" y2="36.59" xlink:href="#linear-gradient"/><linearGradient id="linear-gradient-37" x1="76.92" y1="29.94" x2="79.78" y2="29.94" xlink:href="#linear-gradient"/><linearGradient id="linear-gradient-38" x1="76.97" y1="21.38" x2="79.79" y2="21.38" xlink:href="#linear-gradient"/><linearGradient id="linear-gradient-39" x1="66.32" y1="14.44" x2="67.73" y2="11.99" xlink:href="#linear-gradient"/><linearGradient id="linear-gradient-40" x1="77.14" y1="21.5" x2="78.91" y2="18.44" xlink:href="#linear-gradient"/><linearGradient id="linear-gradient-41" x1="12.61" y1="52.05" x2="53.28" y2="92.72" xlink:href="#linear-gradient"/><linearGradient id="linear-gradient-42" x1="51.91" y1="12.18" x2="75.38" y2="25.73" xlink:href="#linear-gradient"/><linearGradient id="linear-gradient-43" x1="75.73" y1="14.09" x2="70.28" y2="14.09" xlink:href="#linear-gradient-15"/><linearGradient id="linear-gradient-44" x1="80.94" y1="65.62" x2="85.28" y2="65.62" xlink:href="#linear-gradient-15"/><linearGradient id="linear-gradient-45" x1="82.98" y1="63.35" x2="83.78" y2="63.35" xlink:href="#linear-gradient-15"/><linearGradient id="linear-gradient-46" x1="85.08" y1="67.42" x2="86.61" y2="67.42" xlink:href="#linear-gradient-15"/><linearGradient id="linear-gradient-47" x1="80.94" y1="59.77" x2="81.67" y2="59.77" xlink:href="#linear-gradient-15"/><linearGradient id="linear-gradient-48" x1="83.08" y1="61" x2="83.8" y2="61" xlink:href="#linear-gradient-15"/><linearGradient id="linear-gradient-49" x1="87.94" y1="66.22" x2="88.74" y2="66.22" xlink:href="#linear-gradient-15"/><linearGradient id="linear-gradient-50" x1="83.09" y1="58.42" x2="84.11" y2="58.42" xlink:href="#linear-gradient-15"/><linearGradient id="linear-gradient-51" x1="80.96" y1="54.87" x2="82.61" y2="54.87" xlink:href="#linear-gradient-15"/><linearGradient id="linear-gradient-52" x1="85.91" y1="63.45" x2="86.63" y2="63.45" xlink:href="#linear-gradient-15"/><linearGradient id="linear-gradient-53" x1="82.89" y1="58.74" x2="86.63" y2="58.74" xlink:href="#linear-gradient-15"/><linearGradient id="linear-gradient-54" x1="88.04" y1="63.05" x2="88.76" y2="63.05" xlink:href="#linear-gradient-15"/><linearGradient id="linear-gradient-55" x1="81.39" y1="52.99" x2="84.87" y2="52.99" xlink:href="#linear-gradient-15"/><linearGradient id="linear-gradient-56" x1="80.23" y1="60.82" x2="88.06" y2="60.82" xlink:href="#linear-gradient-15"/><linearGradient id="linear-gradient-57" x1="84.17" y1="56.62" x2="88.76" y2="56.62" xlink:href="#linear-gradient-15"/><linearGradient id="linear-gradient-58" x1="74.32" y1="21.19" x2="81.38" y2="21.19" xlink:href="#linear-gradient-15"/><linearGradient id="linear-gradient-59" x1="68.62" y1="21.41" x2="79.97" y2="21.41" gradientTransform="translate(20.82 -34.43) rotate(30.16)" xlink:href="#linear-gradient-15"/></defs><g id="Layer_9" data-name="Layer 9"><polygon class="cls-1" points="71.81 51.98 74.63 50.34 90.24 59.35 87.42 60.99 71.81 51.98"/><path class="cls-2" d="M87.42,61a1.53,1.53,0,0,1,.7,1.22V63.8l-5.27,3.08L81,68a1.31,1.31,0,0,1-1.38-.09,4,4,0,0,1-1.38-1.51l-1.87-3.26L71.09,54V52.38c0-.45.32-.63.71-.4Z"/><path class="cls-3" d="M31.27,14.85a6.82,6.82,0,0,1,2.29,2.25l21.68,35a3.1,3.1,0,0,1,1.49,2.49l-.09,34.24c0,.9-.64,1.27-1.43.81L7,61.81a3.13,3.13,0,0,1-1.41-2.45l.1-34.24c0-.9.64-1.26,1.42-.81L29,14.45A2.65,2.65,0,0,1,31.27,14.85Z"/><path class="cls-4" d="M43.11,32.52,19.32,18.79l-6.13,2.77,0,14.53,4.07,5.09.44-.19L43.74,56.05a.61.61,0,0,1,.14.16l.31.56,5-.47,0-13.87Z"/><path class="cls-5" d="M6.07,24.21l5.64-3.27a1,1,0,0,1,1,.1L7.08,24.31A1,1,0,0,0,6.07,24.21Z"/><path class="cls-6" d="M61.86,86.48l-5.64,3.28a1,1,0,0,0,.42-.91l5.64-3.28A1,1,0,0,1,61.86,86.48Z"/><polygon class="cls-7" points="7.08 24.31 12.72 21.04 34.6 11.17 28.96 14.45 7.08 24.31"/><path class="cls-8" d="M29,14.45l5.63-3.28a2.7,2.7,0,0,1,2.31.4l-5.64,3.28A2.65,2.65,0,0,0,29,14.45Z"/><path class="cls-9" d="M31.27,14.85l5.64-3.28a6.92,6.92,0,0,1,2.29,2.25L33.56,17.1A6.82,6.82,0,0,0,31.27,14.85Z"/><polygon class="cls-10" points="33.56 17.1 39.2 13.82 60.88 48.85 55.24 52.13 33.56 17.1"/><polygon class="cls-11" points="56.73 54.61 62.37 51.34 62.27 85.58 56.64 88.85 56.73 54.61"/><path class="cls-12" d="M55.24,52.12l5.64-3.27a3.12,3.12,0,0,1,1.49,2.49l-5.64,3.27A3.1,3.1,0,0,0,55.24,52.12Z"/><path class="cls-13" d="M46.55,35.67,15.91,18c-.95-.55-1.71-.12-1.71,1l0,16.79L17.53,40A.5.5,0,0,1,18,40L44.24,55.18a1.42,1.42,0,0,1,.5.53l3.46-.32,0-16.78A3.73,3.73,0,0,0,46.55,35.67Z"/><polygon class="cls-14" points="26.93 51.72 35.36 56.59 37.79 56.36 24.51 48.69 26.93 51.72"/><polygon class="cls-15" points="22.09 45.66 40.23 56.13 42.67 55.91 19.65 42.62 22.09 45.66"/><path class="cls-16" d="M21.94,26c-2.55-1.47-4.62-.29-4.62,2.63a10.1,10.1,0,0,0,4.59,8c2.55,1.47,4.62.29,4.63-2.63a10.14,10.14,0,0,0-4.6-8"/><path class="cls-17" d="M36.49,34.38l-7.1-4.1c-.39-.23-.71,0-.71.41a1.56,1.56,0,0,0,.71,1.22L36.48,36c.39.23.71,0,.71-.4a1.57,1.57,0,0,0-.7-1.22"/><path class="cls-18" d="M42.15,40.91,29.38,33.54c-.39-.23-.71,0-.71.41a1.54,1.54,0,0,0,.71,1.22l12.77,7.38c.39.22.71,0,.71-.41a1.57,1.57,0,0,0-.71-1.23"/><path class="cls-19" d="M44.24,55.18,18,40a.5.5,0,0,0-.46-.07l2.12,2.65,23,13.3,2.07-.2a1.42,1.42,0,0,0-.5-.53"/><polyline class="cls-20" points="40.23 56.13 22.09 45.66 24.51 48.69 37.79 56.36 40.23 56.13"/><path class="cls-21" d="M35.36,56.59l-8.43-4.87L29,54.36a2.8,2.8,0,0,1,.25.35l.24.14a3.23,3.23,0,0,1,1.61.48,6.23,6.23,0,0,1,1.62,1.39l.23.13a1,1,0,0,1,.25-.07l2.12-.19"/><path class="cls-22" d="M5.65,25.11l-.1,34.24v-.24l23.64-4.22a1.25,1.25,0,0,1,.19,0l-.09-.15a2.8,2.8,0,0,0-.25-.35L5.65,25.11"/><path class="cls-23" d="M56.73,54.6,33.24,56.78a1,1,0,0,0-.25.07l-.08,0,.19.24L56.63,88.6l.1-34"/><polygon class="cls-24" points="71.09 53.97 76.33 63.12 71.06 64.61 71.09 53.97"/><path class="cls-25" d="M71.3,51.93l2.82-1.64a.48.48,0,0,1,.51.05L71.81,52A.48.48,0,0,0,71.3,51.93Z"/><polygon class="cls-26" points="82.84 66.88 85.66 65.24 83.78 66.34 80.97 67.98 82.84 66.88"/><path class="cls-27" d="M90.7,74.07l-2.82,1.64a.48.48,0,0,0,.21-.45l2.82-1.64A.48.48,0,0,1,90.7,74.07Z"/><polygon class="cls-28" points="88.09 74.44 90.91 72.8 90.91 73.62 88.09 75.26 88.09 74.44"/><path class="cls-29" d="M76.33,63.12l1.87,3.26a4,4,0,0,0,1.38,1.51A1.31,1.31,0,0,0,81,68l1.89-1.1,5.24,7.56v.82c0,.44-.32.63-.71.4l-15.61-9a1.58,1.58,0,0,1-.71-1.22v-.82Z"/><polygon class="cls-30" points="82.84 66.88 85.66 65.24 90.91 72.8 88.09 74.44 82.84 66.88"/><polygon class="cls-26" points="88.12 63.8 90.94 62.16 85.66 65.24 82.84 66.88 88.12 63.8"/><polygon class="cls-31" points="88.12 63.8 90.94 62.16 90.91 72.8 88.09 74.44 88.12 63.8"/><polygon class="cls-32" points="82.84 66.88 88.12 63.8 88.09 74.44 82.84 66.88"/><polygon class="cls-33" points="88.12 62.21 90.94 60.57 90.94 62.16 88.12 63.8 88.12 62.21"/><path class="cls-34" d="M87.42,61l2.82-1.64a1.57,1.57,0,0,1,.7,1.22l-2.82,1.64A1.53,1.53,0,0,0,87.42,61Z"/><path class="cls-35" d="M54.47,7.84,57.29,6.2a.53.53,0,0,1,.51,0L55,7.89A.53.53,0,0,0,54.47,7.84Z"/><polygon class="cls-36" points="68.31 26.1 76.97 22.99 76.92 38.53 68.31 26.1"/><polygon class="cls-37" points="54.26 9.88 62.87 22.96 54.22 25.42 54.26 9.88"/><path class="cls-38" d="M79.53,38.16l-2.82,1.63a.48.48,0,0,0,.21-.45l2.82-1.64A.51.51,0,0,1,79.53,38.16Z"/><polygon class="cls-39" points="76.92 38.53 79.74 36.89 79.74 37.7 76.92 39.34 76.92 38.53"/><path class="cls-40" d="M68.31,26.1l8.61,12.43v.81c0,.45-.32.63-.72.4L54.92,27.46a1.55,1.55,0,0,1-.7-1.23v-.81L62.87,23l.92,1.4a5.67,5.67,0,0,0,1.79,1.77,2.21,2.21,0,0,0,1.8.31Z"/><polygon class="cls-41" points="76.97 22.99 79.78 21.35 79.74 36.89 76.92 38.53 76.97 22.99"/><polygon class="cls-42" points="76.97 21.4 79.79 19.77 79.78 21.35 76.97 22.99 76.97 21.4"/><polygon class="cls-43" points="54.98 7.89 57.8 6.25 79.08 18.54 76.26 20.18 54.98 7.89"/><path class="cls-44" d="M76.26,20.18l2.82-1.64a1.59,1.59,0,0,1,.71,1.23L77,21.4A1.58,1.58,0,0,0,76.26,20.18Z"/><path class="cls-45" d="M56.64,85.27,35.19,56.6l-1.95.18a1,1,0,0,0-.25.07l-.08,0,.19.24L56.63,88.6Z"/><path class="cls-45" d="M29.38,54.86l-.09-.15a2.8,2.8,0,0,0-.25-.35l-1-1.29-22.45,4v2l23.64-4.22A1.25,1.25,0,0,1,29.38,54.86Z"/><path class="cls-46" d="M31.14,55.33a3.23,3.23,0,0,0-1.61-.48h-.15a1.25,1.25,0,0,0-.19,0L5.55,59.11v.24A3.15,3.15,0,0,0,7,61.8L55.21,89.65c.78.45,1.42.09,1.42-.81V88.6L33.1,57.14l-.19-.24-.15-.18a6.23,6.23,0,0,0-1.62-1.39"/><path class="cls-47" d="M34.7,55.94l-.23-.29-.19-.23a8.2,8.2,0,0,0-2.14-1.82,5.08,5.08,0,0,0-2.56-.75l-.38,0-.23,0L35,56.4Z"/><path class="cls-47" d="M14.15,34.14v1.6L17.53,40A.5.5,0,0,1,18,40L19.6,41Z"/><polygon class="cls-47" points="22.03 43.99 19.65 42.62 22.09 45.66 24.46 47.03 22.03 43.99"/><polygon class="cls-47" points="26.89 50.06 24.51 48.69 26.93 51.72 29.31 53.1 26.89 50.06"/><path class="cls-21" d="M19.6,41,18,40a.5.5,0,0,0-.46-.07l2.12,2.65L22,44Z"/><polygon class="cls-21" points="24.46 47.03 22.09 45.66 24.51 48.69 26.89 50.06 24.46 47.03"/><path class="cls-47" d="M43.61,54.82l.63.36a1.42,1.42,0,0,1,.5.53l3.46-.32v-1Z"/><polygon class="cls-47" points="35.36 56.59 37.79 56.36 36.29 55.49 33.86 55.72 35.36 56.59"/><polygon class="cls-47" points="40.23 56.13 42.67 55.91 41.17 55.04 38.73 55.27 40.23 56.13"/><path class="cls-21" d="M42.67,55.91l2.07-.2a1.42,1.42,0,0,0-.5-.53l-.63-.36L41.17,55Z"/><polygon class="cls-21" points="37.79 56.36 40.23 56.13 38.73 55.27 36.29 55.49 37.79 56.36"/><path class="cls-48" d="M76.26,20.18A1.58,1.58,0,0,1,77,21.4V23L68.31,26.1l-.93.34a2.21,2.21,0,0,1-1.8-.31,5.67,5.67,0,0,1-1.79-1.77L62.87,23,54.26,9.88V8.3c0-.45.32-.63.71-.41Z"/><polygon class="cls-45" points="76.97 22.99 68.31 26.1 68.9 26.95 76.96 24.05 76.97 22.99"/><polygon class="cls-45" points="54.26 11.69 61.86 23.25 62.87 22.96 54.26 9.88 54.26 11.69"/><polygon class="cls-45" points="76.92 38.53 76.93 36.78 69.28 25.75 68.31 26.1 76.92 38.53"/><polygon class="cls-45" points="62.29 22.09 54.22 24.38 54.22 25.42 62.87 22.96 62.29 22.09"/><path class="cls-45" d="M68.31,26.1l-.93.34a2.21,2.21,0,0,1-1.8-.31,5.67,5.67,0,0,1-1.79-1.77L62.87,23l-1,.29L63,24.91A6.48,6.48,0,0,0,65.08,27a3.69,3.69,0,0,0,1.78.52,2.72,2.72,0,0,0,.86-.14L68.9,27Z"/><path class="cls-49" d="M70.28,14.49l1.41-.82c1-.6,2.46-.52,4,.4l-1.41.81C72.74,14,71.31,13.89,70.28,14.49Z"/><polygon class="cls-45" points="88.12 63.8 82.84 66.88 83.42 67.7 88.12 64.96 88.12 63.8"/><polygon class="cls-45" points="71.09 55.97 75.34 63.4 76.33 63.12 71.09 53.97 71.09 55.97"/><polygon class="cls-45" points="88.09 74.44 88.09 72.69 83.71 66.37 82.84 66.88 88.09 74.44"/><polygon class="cls-45" points="75.82 62.22 71.06 63.57 71.06 64.61 76.33 63.12 75.82 62.22"/><path class="cls-45" d="M82.85,66.88,81,68a1.31,1.31,0,0,1-1.38-.09,4,4,0,0,1-1.38-1.51l-1.87-3.26-1,.28,2,3.48a5,5,0,0,0,1.75,1.88,2.57,2.57,0,0,0,1.3.37,2.07,2.07,0,0,0,1.09-.29l2-1.14Z"/><path class="cls-50" d="M85.28,67.26l-.7.41a1.51,1.51,0,0,1-1.51-.15,4.65,4.65,0,0,1-2.13-3.67l.71-.41a4.67,4.67,0,0,0,2.12,3.67A1.51,1.51,0,0,0,85.28,67.26Z"/><path class="cls-51" d="M83.68,63.26l-.7.41a.25.25,0,0,0,.1-.22l.7-.41A.25.25,0,0,1,83.68,63.26Z"/><path class="cls-52" d="M85.79,68.12l-.71.41a2,2,0,0,0,.83-1.82l.7-.41A2,2,0,0,1,85.79,68.12Z"/><polygon class="cls-53" points="80.96 56.1 81.67 55.69 81.64 63.44 80.94 63.84 80.96 56.1"/><polygon class="cls-54" points="83.09 58.97 83.8 58.56 83.78 63.04 83.08 63.45 83.09 58.97"/><path class="cls-55" d="M88.64,66.13l-.7.41a.27.27,0,0,0,.1-.23l.7-.41A.27.27,0,0,1,88.64,66.13Z"/><path class="cls-56" d="M83.4,58.28l.71-.41a.73.73,0,0,0-.31.69l-.71.41A.75.75,0,0,1,83.4,58.28Z"/><path class="cls-57" d="M81.91,54.05l.7-.41a2.22,2.22,0,0,0-.94,2L81,56.1A2.24,2.24,0,0,1,81.91,54.05Z"/><polygon class="cls-58" points="85.92 60.6 86.63 60.19 86.61 66.3 85.91 66.71 85.92 60.6"/><path class="cls-59" d="M82.89,57.41,83.6,57a1.26,1.26,0,0,1,1.26.13,3.9,3.9,0,0,1,1.77,3.06l-.7.41a3.9,3.9,0,0,0-1.77-3.06A1.27,1.27,0,0,0,82.89,57.41Z"/><polygon class="cls-60" points="88.06 60.19 88.76 59.78 88.74 65.9 88.04 66.31 88.06 60.19"/><path class="cls-61" d="M81.39,53.19l.71-.41a2.74,2.74,0,0,1,2.77.27l-.7.41A2.75,2.75,0,0,0,81.39,53.19Z"/><path class="cls-62" d="M84.17,53.46a8.57,8.57,0,0,1,3.89,6.73l0,6.12c0,.22-.16.31-.35.2a.78.78,0,0,1-.36-.61l0-6.12a6.42,6.42,0,0,0-.93-3.12,6.5,6.5,0,0,0-2.25-2.39A2,2,0,0,0,81,56.1l0,7.75a4.65,4.65,0,0,0,2.13,3.67c1.17.68,2.13.13,2.13-1.22l0-6.11a2.36,2.36,0,0,0-1.07-1.84c-.58-.34-1.06-.06-1.06.62v4.48c0,.22-.16.31-.36.2a.79.79,0,0,1-.36-.61l0-4.49c0-1.13.8-1.58,1.78-1a3.9,3.9,0,0,1,1.77,3.06l0,6.11c0,1.8-1.28,2.53-2.85,1.62a6.23,6.23,0,0,1-2.83-4.89l0-7.75C80.26,53.22,82,52.22,84.17,53.46Z"/><path class="cls-63" d="M84.17,53.46l.7-.41a8.56,8.56,0,0,1,3.89,6.73l-.7.41A8.57,8.57,0,0,0,84.17,53.46Z"/><path class="cls-64" d="M79.73,27.51l-1.41.81A4,4,0,0,0,80,24.68a12.48,12.48,0,0,0-5.65-9.8l1.41-.81a12.46,12.46,0,0,1,5.65,9.79A4,4,0,0,1,79.73,27.51Z"/><ellipse class="cls-65" cx="74.3" cy="21.41" rx="4.63" ry="8" transform="translate(-0.7 40.23) rotate(-30.16)"/><path class="cls-66" d="M74.17,16.33c-1.57-.91-2.84-.18-2.85,1.62v3.66a2.36,2.36,0,0,0,1.07,1.85l.35.2a3.08,3.08,0,0,0,1.42,2.45c.78.45,1.42.09,1.42-.81l.35.2c.59.34,1.07.07,1.07-.61V21.22A6.21,6.21,0,0,0,74.17,16.33Zm0,9a1.53,1.53,0,0,1-.71-1.22l1.42.82C74.86,25.34,74.54,25.52,74.15,25.29Zm2.13-.81c0,.23-.16.32-.36.21l-3.54-2.05A.78.78,0,0,1,72,22V18.36c0-1.35,1-1.9,2.14-1.22a4.64,4.64,0,0,1,2.12,3.67Z"/></g></svg>