<svg xmlns="http://www.w3.org/2000/svg" xmlns:xlink="http://www.w3.org/1999/xlink" viewBox="0 0 96 96"><defs><style>.cls-1{fill:url(#linear-gradient);}.cls-2{fill:url(#linear-gradient-2);}.cls-3{fill:#0096c7;}.cls-4{fill:url(#linear-gradient-3);}.cls-5{fill:url(#linear-gradient-4);}.cls-6{fill:url(#linear-gradient-5);}.cls-7{fill:url(#linear-gradient-6);}.cls-8{fill:url(#linear-gradient-7);}.cls-9{fill:url(#linear-gradient-8);}.cls-10{fill:url(#linear-gradient-9);}.cls-11{fill:url(#linear-gradient-10);}.cls-12{fill:url(#linear-gradient-11);}.cls-13{fill:url(#linear-gradient-12);}.cls-14{fill:url(#linear-gradient-13);}.cls-15{fill:url(#linear-gradient-14);}.cls-16{fill:url(#linear-gradient-15);}.cls-17{fill:url(#linear-gradient-16);}.cls-18{fill:url(#linear-gradient-17);}.cls-19{fill:url(#linear-gradient-18);}.cls-20{fill:url(#linear-gradient-19);}.cls-21{fill:url(#linear-gradient-20);}.cls-22{fill:url(#linear-gradient-21);}.cls-23{fill:url(#linear-gradient-22);}.cls-24{fill:url(#linear-gradient-23);}.cls-25{fill:url(#linear-gradient-24);}.cls-26{fill:url(#linear-gradient-25);}.cls-27{fill:url(#linear-gradient-26);}.cls-28{fill:url(#linear-gradient-27);}.cls-29{fill:url(#linear-gradient-28);}.cls-30{fill:#e9feff;}.cls-31{fill:url(#linear-gradient-29);}.cls-32{fill:url(#linear-gradient-30);}.cls-33{fill:url(#linear-gradient-31);}.cls-34{fill:url(#linear-gradient-32);}.cls-35{fill:url(#linear-gradient-33);}.cls-36{fill:url(#linear-gradient-34);}.cls-37{fill:url(#linear-gradient-35);}.cls-38{fill:url(#linear-gradient-36);}.cls-39{fill:url(#linear-gradient-37);}</style><linearGradient id="linear-gradient" x1="50.98" y1="65.87" x2="74.75" y2="65.87" gradientTransform="matrix(-1, 0, 0, 1, 121.82, 0)" gradientUnits="userSpaceOnUse"><stop offset="0" stop-color="#00b4d8"/><stop offset="1" stop-color="#0096c7"/></linearGradient><linearGradient id="linear-gradient-2" x1="57.07" y1="63.35" x2="59.92" y2="63.35" xlink:href="#linear-gradient"/><linearGradient id="linear-gradient-3" x1="57.8" y1="65.38" x2="70.52" y2="58.04" xlink:href="#linear-gradient"/><linearGradient id="linear-gradient-4" x1="47.07" y1="65.05" x2="47.66" y2="65.05" gradientTransform="matrix(1, 0, 0, 1, 0, 0)" xlink:href="#linear-gradient"/><linearGradient id="linear-gradient-5" x1="70.24" y1="70.78" x2="70.84" y2="70.78" gradientTransform="matrix(1, 0, 0, 1, 0, 0)" xlink:href="#linear-gradient"/><linearGradient id="linear-gradient-6" x1="58.64" y1="74.44" x2="74.88" y2="65.07" xlink:href="#linear-gradient"/><linearGradient id="linear-gradient-7" x1="51.57" y1="72.62" x2="56.54" y2="72.62" xlink:href="#linear-gradient"/><linearGradient id="linear-gradient-8" x1="62.45" y1="74.22" x2="65.28" y2="74.22" gradientTransform="matrix(1, 0, 0, 1, 0, 0)" xlink:href="#linear-gradient"/><linearGradient id="linear-gradient-9" x1="57.07" y1="56" x2="68.4" y2="56" gradientTransform="matrix(-1, 0, 0, 1, 121.82, 0)" gradientUnits="userSpaceOnUse"><stop offset="0" stop-color="#3e5368"/><stop offset="1" stop-color="#4d6c84"/></linearGradient><linearGradient id="linear-gradient-10" x1="69.04" y1="23.65" x2="107.26" y2="45.72" gradientTransform="matrix(-1, 0, 0, 1, 121.82, 0)" gradientUnits="userSpaceOnUse"><stop offset="0" stop-color="#caf0f8"/><stop offset="1" stop-color="#90e0ef"/></linearGradient><linearGradient id="linear-gradient-11" x1="97.38" y1="33.46" x2="115.77" y2="44.08" xlink:href="#linear-gradient-10"/><linearGradient id="linear-gradient-12" x1="78.25" y1="7.71" x2="109.43" y2="25.71" xlink:href="#linear-gradient-10"/><linearGradient id="linear-gradient-13" x1="104.16" y1="33.64" x2="108.99" y2="36.44" xlink:href="#linear-gradient"/><linearGradient id="linear-gradient-14" x1="104.16" y1="28.37" x2="108.99" y2="31.16" xlink:href="#linear-gradient"/><linearGradient id="linear-gradient-15" x1="18.9" y1="24.47" x2="20.6" y2="24.47" gradientUnits="userSpaceOnUse"><stop offset="0" stop-color="#ffd500"/><stop offset="1" stop-color="#fdc500"/></linearGradient><linearGradient id="linear-gradient-16" x1="17.13" y1="23.44" x2="18.83" y2="23.44" xlink:href="#linear-gradient-15"/><linearGradient id="linear-gradient-17" x1="15.26" y1="22.15" x2="16.26" y2="22.15" xlink:href="#linear-gradient-15"/><linearGradient id="linear-gradient-18" x1="13.97" y1="21.41" x2="14.97" y2="21.41" xlink:href="#linear-gradient-15"/><linearGradient id="linear-gradient-19" x1="104.28" y1="45.5" x2="108.89" y2="48.15" xlink:href="#linear-gradient"/><linearGradient id="linear-gradient-20" x1="13.82" y1="44.95" x2="16.66" y2="44.95" gradientTransform="translate(24.65 -1.57) rotate(30.16)" xlink:href="#linear-gradient-15"/><linearGradient id="linear-gradient-21" x1="95.07" y1="40" x2="97.92" y2="40" xlink:href="#linear-gradient"/><linearGradient id="linear-gradient-22" x1="94.82" y1="60.96" x2="103.66" y2="66.07" xlink:href="#linear-gradient-10"/><linearGradient id="linear-gradient-23" x1="95.49" y1="65.22" x2="103.44" y2="60.63" xlink:href="#linear-gradient-10"/><linearGradient id="linear-gradient-24" x1="23.14" y1="61.5" x2="24.89" y2="61.5" xlink:href="#linear-gradient-15"/><linearGradient id="linear-gradient-25" x1="39.55" y1="59.76" x2="42.44" y2="59.76" xlink:href="#linear-gradient-10"/><linearGradient id="linear-gradient-26" x1="59.75" y1="33.01" x2="61.17" y2="35.46" xlink:href="#linear-gradient-10"/><linearGradient id="linear-gradient-27" x1="46.4" y1="76.18" x2="77.42" y2="22.46" xlink:href="#linear-gradient-10"/><linearGradient id="linear-gradient-28" x1="48.12" y1="41.36" x2="75.7" y2="57.28" gradientTransform="matrix(-1, 0, 0, 1, 121.82, 0)" gradientUnits="userSpaceOnUse"><stop offset="0" stop-color="#dcf7ff"/><stop offset="1" stop-color="#c3edfd"/></linearGradient><linearGradient id="linear-gradient-29" x1="77.14" y1="23.7" x2="80.97" y2="23.7" xlink:href="#linear-gradient-10"/><linearGradient id="linear-gradient-30" x1="39.62" y1="72.85" x2="42.85" y2="72.85" xlink:href="#linear-gradient-10"/><linearGradient id="linear-gradient-31" x1="39.96" y1="44.92" x2="43.07" y2="46.72" xlink:href="#linear-gradient-10"/><linearGradient id="linear-gradient-32" x1="26.64" y1="74.2" x2="27.23" y2="74.2" gradientTransform="matrix(1, 0, 0, 1, 0, 0)" xlink:href="#linear-gradient"/><linearGradient id="linear-gradient-33" x1="60.4" y1="83.62" x2="60.99" y2="83.62" gradientTransform="matrix(1, 0, 0, 1, 0, 0)" xlink:href="#linear-gradient"/><linearGradient id="linear-gradient-34" x1="71.33" y1="81.37" x2="94.6" y2="81.37" xlink:href="#linear-gradient"/><linearGradient id="linear-gradient-35" x1="61.41" y1="86.08" x2="68.51" y2="86.08" xlink:href="#linear-gradient"/><linearGradient id="linear-gradient-36" x1="50.48" y1="88.3" x2="53.31" y2="88.3" gradientTransform="matrix(1, 0, 0, 1, 0, 0)" xlink:href="#linear-gradient"/><linearGradient id="linear-gradient-37" x1="60.83" y1="77.28" x2="95.18" y2="77.28" xlink:href="#linear-gradient"/></defs><g id="Layer_2" data-name="Layer 2"><path class="cls-1" d="M47.65,62.18a.87.87,0,0,0,0,1.64l14.8,8.6a3.08,3.08,0,0,0,2.82,0l5-2.86c.79-.46.79-1.19,0-1.64l-14.8-8.6a3.1,3.1,0,0,0-2.83,0Z"/><polygon class="cls-2" points="61.9 69.06 64.72 67.42 64.75 57.63 61.93 59.27 61.9 69.06"/><polygon class="cls-3" points="61.93 59.27 64.75 57.63 64.72 66.91 61.91 66.92 61.93 59.27"/><polygon class="cls-4" points="53.42 54.36 53.39 64.15 61.9 69.06 61.93 59.27 53.42 54.36"/><polygon class="cls-3" points="53.42 54.36 61.93 59.27 61.91 65.92 53.4 61.01 53.42 54.36"/><path class="cls-5" d="M47.07,63v3.26a1,1,0,0,0,.58.82V63.82a1,1,0,0,1-.58-.81"/><path class="cls-6" d="M70.24,69.56v3.26a1,1,0,0,0,.59-.83V68.73a1,1,0,0,1-.59.83"/><polygon class="cls-7" points="47.65 63.83 47.66 67.08 62.46 75.69 62.45 72.42 47.65 63.83"/><polygon class="cls-8" points="65.27 72.42 65.28 75.69 70.25 72.82 70.24 69.56 65.27 72.42"/><path class="cls-9" d="M65.27,72.42v3.27a3.11,3.11,0,0,1-2.82,0V72.42A3.08,3.08,0,0,0,65.27,72.42Z"/><polygon class="cls-10" points="61.93 59.27 64.75 57.63 56.24 52.72 53.42 54.36 61.93 59.27"/><polygon class="cls-11" points="20.9 27.34 20.93 56.76 46.48 42.01 46.42 12.64 20.9 27.34"/><polygon class="cls-12" points="9.55 20.78 9.59 50.2 20.93 56.76 20.9 27.34 9.55 20.78"/><polygon class="cls-13" points="9.55 20.78 20.9 27.34 46.42 12.64 35.16 6.04 9.55 20.78"/><path class="cls-14" d="M12.41,31.77c-.78-.45-1.42-.08-1.42.81A3.13,3.13,0,0,0,12.4,35l5.67,3.27c.79.46,1.42.09,1.42-.81a3.07,3.07,0,0,0-1.41-2.44Z"/><path class="cls-15" d="M12.41,26.5c-.78-.45-1.42-.08-1.42.81a3.13,3.13,0,0,0,1.41,2.45L18.07,33c.79.46,1.42.09,1.42-.81a3.1,3.1,0,0,0-1.41-2.45Z"/><path class="cls-16" d="M19.05,24.06c-.19.11-.2.3,0,.41l.7.41a.77.77,0,0,0,.71,0,.22.22,0,0,0,0-.42l-.7-.4A.81.81,0,0,0,19.05,24.06Z"/><path class="cls-17" d="M17.27,23a.22.22,0,0,0,0,.41l.7.41a.77.77,0,0,0,.71,0c.19-.11.21-.3,0-.41L18,23A.83.83,0,0,0,17.27,23Z"/><path class="cls-18" d="M15.41,22c-.19.11-.21.29,0,.41a.75.75,0,0,0,.7,0c.19-.11.2-.29,0-.4A.77.77,0,0,0,15.41,22Z"/><path class="cls-19" d="M14.12,21.2c-.19.12-.2.3,0,.42a.78.78,0,0,0,.7,0,.22.22,0,0,0,0-.41A.8.8,0,0,0,14.12,21.2Z"/><path class="cls-20" d="M15.24,42.54c-1.17-.67-2.12-.12-2.13,1.23a4.38,4.38,0,0,0,.7,2.21v3a3.15,3.15,0,0,0,1.42,2.45c.79.45,1.43.09,1.43-.81v-3a1.46,1.46,0,0,0,.71-1.39A4.71,4.71,0,0,0,15.24,42.54Z"/><ellipse class="cls-21" cx="15.24" cy="44.95" rx="1.16" ry="2" transform="translate(-20.52 13.74) rotate(-30.16)"/><path class="cls-22" d="M25.32,36.87a3.16,3.16,0,0,0-1.42,2.46v3.25c0,.9.64,1.27,1.42.82l1.17-.67a.5.5,0,0,0,.25-.44V36.92a.5.5,0,0,0-.75-.44Z"/><path class="cls-23" d="M20,63c-.72.41-2.33-.36-2.93.15s.56,2.18,1.15,2.52L20.46,67a2.7,2.7,0,0,0,2.43,0,1,1,0,0,0,.23-.16,10.64,10.64,0,0,1,1.43-1A12.6,12.6,0,0,1,26.24,65a1.69,1.69,0,0,0,.27-.13c.66-.38,1.78-2.33,1.1-2.73l-3.39,0A2.78,2.78,0,0,0,22,62,15,15,0,0,0,20,63Z"/><path class="cls-24" d="M19.54,61.08a14.66,14.66,0,0,0-2.28,1.63c-.54.47-.48,1.09.21,1.49l2.67,1.56a3.12,3.12,0,0,0,2.84,0,1.85,1.85,0,0,0,.27-.19,12.57,12.57,0,0,1,1.66-1.16,15.1,15.1,0,0,1,2-.94,1.48,1.48,0,0,0,.31-.15c.77-.44.86-1.17.06-1.63l-2.73-1.59A3.25,3.25,0,0,0,22,59.93,17.68,17.68,0,0,0,19.54,61.08Z"/><path class="cls-25" d="M23.32,61.41c-.2.08-.24.26-.06.4a.79.79,0,0,0,.7.1l.76-.31c.21-.09.23-.26.06-.4a.75.75,0,0,0-.69-.1Z"/><polygon class="cls-26" points="79.38 73.22 82.2 71.58 82.27 46.31 79.45 47.95 79.38 73.22"/><polygon class="cls-27" points="78.04 45.5 80.86 43.86 44.68 22.97 41.86 24.61 78.04 45.5"/><path class="cls-28" d="M41.86,24.61c-.78-.45-1.42-.09-1.42.81l-.08,25.27a3.14,3.14,0,0,0,1.42,2.45L78,74c.78.46,1.42.09,1.42-.81L79.45,48A3.14,3.14,0,0,0,78,45.5Z"/><path class="cls-29" d="M43.63,27.64c-.78-.45-1.42-.08-1.43.81l-.06,21.26a3.13,3.13,0,0,0,1.41,2.45L76.19,71c.78.45,1.42.09,1.42-.81l.07-21.25a3.14,3.14,0,0,0-1.42-2.45Z"/><polygon class="cls-30" points="69.65 67.22 64.68 64.36 54.44 33.89 59.41 36.76 69.65 67.22"/><polygon class="cls-30" points="63.27 63.54 61.14 62.31 50.89 31.84 53.02 33.07 63.27 63.54"/><path class="cls-31" d="M41.86,24.61,44.68,23a1,1,0,0,0-1-.09l-2.82,1.63a1,1,0,0,1,1,.1"/><path class="cls-32" d="M79,74.13l2.82-1.64a1,1,0,0,0,.42-.91l-2.82,1.64A1,1,0,0,1,79,74.13Z"/><path class="cls-33" d="M79.45,48l2.82-1.64a3.14,3.14,0,0,0-1.41-2.45L78,45.5A3.14,3.14,0,0,1,79.45,48"/><path class="cls-34" d="M26.64,72.57V75a1,1,0,0,0,.59.81V73.39A1,1,0,0,1,26.64,72.57Z"/><path class="cls-35" d="M61,84.43V82a1,1,0,0,1-.59.82v2.44A1,1,0,0,0,61,84.43Z"/><polygon class="cls-36" points="27.22 73.39 27.23 75.83 50.49 89.35 50.48 86.9 27.22 73.39"/><polygon class="cls-37" points="53.3 86.91 53.31 89.35 60.41 85.25 60.4 82.81 53.3 86.91"/><path class="cls-38" d="M50.48,86.9v2.45a3.11,3.11,0,0,0,2.82,0V86.9a3.08,3.08,0,0,1-2.82,0"/><path class="cls-39" d="M27.23,71.75a.87.87,0,0,0,0,1.64L50.48,86.9a3.08,3.08,0,0,0,2.82,0l7.1-4.09a.87.87,0,0,0,0-1.64L37.15,67.66a3.07,3.07,0,0,0-2.83,0Z"/></g></svg>