<svg xmlns="http://www.w3.org/2000/svg" xmlns:xlink="http://www.w3.org/1999/xlink" viewBox="0 0 96 96"><defs><style>.cls-1{fill:url(#linear-gradient);}.cls-2{fill:#4ac664;}.cls-3{fill:url(#linear-gradient-2);}.cls-4{fill:url(#linear-gradient-3);}.cls-5{fill:url(#linear-gradient-4);}.cls-6{fill:url(#linear-gradient-5);}.cls-7{fill:url(#linear-gradient-6);}.cls-8{fill:url(#linear-gradient-7);}.cls-9{fill:url(#linear-gradient-8);}.cls-10{fill:url(#linear-gradient-9);}.cls-11{fill:url(#linear-gradient-10);}.cls-12{fill:url(#linear-gradient-11);}.cls-13{fill:url(#linear-gradient-12);}.cls-14{fill:url(#linear-gradient-13);}.cls-15{fill:url(#linear-gradient-14);}.cls-16{fill:url(#linear-gradient-15);}.cls-17{fill:url(#linear-gradient-16);}.cls-18{fill:#caf0f8;}.cls-19{fill:url(#linear-gradient-17);}.cls-20{fill:url(#linear-gradient-18);}.cls-21{fill:url(#linear-gradient-19);}.cls-22{fill:#90e0ef;}.cls-23{fill:#00b4d8;}.cls-24{fill:url(#linear-gradient-20);}.cls-25{fill:url(#linear-gradient-21);}.cls-26{fill:#0096c7;}.cls-27{fill:url(#linear-gradient-22);}.cls-28{fill:url(#linear-gradient-23);}.cls-29{fill:url(#linear-gradient-24);}.cls-30{fill:url(#linear-gradient-25);}.cls-31{fill:url(#linear-gradient-26);}.cls-32{fill:url(#linear-gradient-27);}.cls-33{fill:url(#linear-gradient-28);}.cls-34{fill:url(#linear-gradient-29);}.cls-35{fill:url(#linear-gradient-30);}.cls-36{fill:url(#linear-gradient-31);}.cls-37{fill:url(#linear-gradient-32);}.cls-38{fill:url(#linear-gradient-33);}.cls-39{fill:url(#linear-gradient-34);}.cls-40{fill:url(#linear-gradient-35);}.cls-41{fill:url(#linear-gradient-36);}.cls-42{fill:url(#linear-gradient-37);}.cls-43{fill:url(#linear-gradient-38);}.cls-44{fill:#ffd731;}.cls-45{fill:url(#linear-gradient-39);}.cls-46{fill:url(#linear-gradient-40);}.cls-47{fill:url(#linear-gradient-41);}.cls-48{fill:url(#linear-gradient-42);}.cls-49{fill:url(#linear-gradient-43);}.cls-50{fill:url(#linear-gradient-44);}.cls-51{fill:url(#linear-gradient-45);}.cls-52{fill:url(#linear-gradient-46);}.cls-53{fill:url(#linear-gradient-47);}.cls-54{fill:url(#linear-gradient-48);}.cls-55{fill:url(#linear-gradient-49);}</style><linearGradient id="linear-gradient" x1="47.54" y1="72.87" x2="86.63" y2="72.87" gradientUnits="userSpaceOnUse"><stop offset="0" stop-color="#61e786"/><stop offset="1" stop-color="#4ac664"/></linearGradient><linearGradient id="linear-gradient-2" x1="60.06" y1="64.35" x2="69.35" y2="64.35" gradientUnits="userSpaceOnUse"><stop offset="0" stop-color="#fdfcdc"/><stop offset="1" stop-color="#e5e2b7"/></linearGradient><linearGradient id="linear-gradient-3" x1="70.57" y1="67.42" x2="79.13" y2="67.42" xlink:href="#linear-gradient-2"/><linearGradient id="linear-gradient-4" x1="54.38" y1="68.92" x2="61.25" y2="68.92" xlink:href="#linear-gradient-2"/><linearGradient id="linear-gradient-5" x1="67.33" y1="66.95" x2="72.85" y2="66.95" xlink:href="#linear-gradient-2"/><linearGradient id="linear-gradient-6" x1="55.75" y1="75.94" x2="68.6" y2="75.94" xlink:href="#linear-gradient-2"/><linearGradient id="linear-gradient-7" x1="58.64" y1="68.8" x2="64.66" y2="68.8" xlink:href="#linear-gradient-2"/><linearGradient id="linear-gradient-8" x1="52.26" y1="71.66" x2="57.98" y2="71.66" xlink:href="#linear-gradient-2"/><linearGradient id="linear-gradient-9" x1="63.46" y1="72.75" x2="73.96" y2="72.75" xlink:href="#linear-gradient-2"/><linearGradient id="linear-gradient-10" x1="65.85" y1="76.88" x2="77.06" y2="76.88" xlink:href="#linear-gradient-2"/><linearGradient id="linear-gradient-11" x1="68.07" y1="82.54" x2="71.07" y2="82.54" xlink:href="#linear-gradient-2"/><linearGradient id="linear-gradient-12" x1="82.26" y1="73.54" x2="84.75" y2="73.54" xlink:href="#linear-gradient-2"/><linearGradient id="linear-gradient-13" x1="78.02" y1="72.89" x2="83.36" y2="72.89" xlink:href="#linear-gradient-2"/><linearGradient id="linear-gradient-14" x1="48.01" y1="74.63" x2="57.97" y2="74.63" xlink:href="#linear-gradient-2"/><linearGradient id="linear-gradient-15" x1="64.16" y1="72.89" x2="81.25" y2="72.89" xlink:href="#linear-gradient-2"/><linearGradient id="linear-gradient-16" x1="67.67" y1="78.93" x2="79.08" y2="78.93" xlink:href="#linear-gradient-2"/><linearGradient id="linear-gradient-17" x1="93.49" y1="57.93" x2="116.06" y2="57.93" gradientTransform="matrix(-1, 0, 0, 1, 126.59, 0)" gradientUnits="userSpaceOnUse"><stop offset="0" stop-color="#90e0ef"/><stop offset="1" stop-color="#caf0f8"/></linearGradient><linearGradient id="linear-gradient-18" x1="90.68" y1="57.93" x2="67.96" y2="57.93" xlink:href="#linear-gradient-17"/><linearGradient id="linear-gradient-19" x1="67.39" y1="47.3" x2="116.64" y2="47.3" xlink:href="#linear-gradient-17"/><linearGradient id="linear-gradient-20" x1="113.24" y1="50.24" x2="93.48" y2="50.24" gradientTransform="matrix(-1, 0, 0, 1, 126.59, 0)" gradientUnits="userSpaceOnUse"><stop offset="0" stop-color="#00b4d8"/><stop offset="1" stop-color="#0096c7"/></linearGradient><linearGradient id="linear-gradient-21" x1="70.78" y1="50.24" x2="90.67" y2="50.24" xlink:href="#linear-gradient-20"/><linearGradient id="linear-gradient-22" x1="93.49" y1="43.93" x2="116.06" y2="43.93" xlink:href="#linear-gradient-17"/><linearGradient id="linear-gradient-23" x1="90.68" y1="43.93" x2="67.96" y2="43.93" xlink:href="#linear-gradient-17"/><linearGradient id="linear-gradient-24" x1="67.39" y1="33.3" x2="116.64" y2="33.3" xlink:href="#linear-gradient-17"/><linearGradient id="linear-gradient-25" x1="113.24" y1="36.24" x2="93.48" y2="36.24" xlink:href="#linear-gradient-20"/><linearGradient id="linear-gradient-26" x1="70.78" y1="36.24" x2="90.67" y2="36.24" xlink:href="#linear-gradient-20"/><linearGradient id="linear-gradient-27" x1="93.49" y1="31.39" x2="116.06" y2="31.39" xlink:href="#linear-gradient-17"/><linearGradient id="linear-gradient-28" x1="90.68" y1="31.39" x2="67.96" y2="31.39" xlink:href="#linear-gradient-17"/><linearGradient id="linear-gradient-29" x1="67.39" y1="20.76" x2="116.64" y2="20.76" xlink:href="#linear-gradient-17"/><linearGradient id="linear-gradient-30" x1="12.03" y1="54.97" x2="20.54" y2="54.97" gradientUnits="userSpaceOnUse"><stop offset="0" stop-color="#ffd500"/><stop offset="1" stop-color="#fdc500"/></linearGradient><linearGradient id="linear-gradient-31" x1="28.3" y1="48.36" x2="31.13" y2="48.36" gradientTransform="translate(28.32 -8.38) rotate(30.16)" xlink:href="#linear-gradient-30"/><linearGradient id="linear-gradient-32" x1="28.3" y1="36.3" x2="31.13" y2="36.3" gradientTransform="translate(22.27 -10.02) rotate(30.16)" xlink:href="#linear-gradient-30"/><linearGradient id="linear-gradient-33" x1="15.43" y1="40.45" x2="16.85" y2="40.45" xlink:href="#linear-gradient-30"/><linearGradient id="linear-gradient-34" x1="12.3" y1="38.63" x2="13.72" y2="38.63" xlink:href="#linear-gradient-30"/><linearGradient id="linear-gradient-35" x1="15.43" y1="28.15" x2="16.85" y2="28.15" xlink:href="#linear-gradient-30"/><linearGradient id="linear-gradient-36" x1="12.3" y1="26.33" x2="13.72" y2="26.33" xlink:href="#linear-gradient-30"/><linearGradient id="linear-gradient-37" x1="107.83" y1="11.63" x2="76.2" y2="29.89" xlink:href="#linear-gradient-20"/><linearGradient id="linear-gradient-38" x1="65.43" y1="67.26" x2="53.58" y2="74.1" gradientTransform="matrix(-1, 0, 0, 1, 126.59, 0)" xlink:href="#linear-gradient-30"/><linearGradient id="linear-gradient-39" x1="51.99" y1="73.66" x2="67" y2="73.66" gradientTransform="matrix(-1, 0, 0, 1, 126.59, 0)" xlink:href="#linear-gradient-30"/><linearGradient id="linear-gradient-40" x1="64.43" y1="63.26" x2="52.58" y2="70.1" gradientTransform="matrix(-1, 0, 0, 1, 126.59, 0)" xlink:href="#linear-gradient-30"/><linearGradient id="linear-gradient-41" x1="50.99" y1="69.66" x2="66" y2="69.66" gradientTransform="matrix(-1, 0, 0, 1, 126.59, 0)" xlink:href="#linear-gradient-30"/><linearGradient id="linear-gradient-42" x1="66.43" y1="59.26" x2="54.58" y2="66.1" gradientTransform="matrix(-1, 0, 0, 1, 126.59, 0)" xlink:href="#linear-gradient-30"/><linearGradient id="linear-gradient-43" x1="48.23" y1="74.98" x2="47.54" y2="74.98" xlink:href="#linear-gradient"/><linearGradient id="linear-gradient-44" x1="86.64" y1="74.97" x2="85.94" y2="74.97" xlink:href="#linear-gradient"/><linearGradient id="linear-gradient-45" x1="68.47" y1="80.49" x2="85.95" y2="80.49" xlink:href="#linear-gradient"/><linearGradient id="linear-gradient-46" x1="48.22" y1="80.44" x2="65.4" y2="80.44" xlink:href="#linear-gradient"/><linearGradient id="linear-gradient-47" x1="68.47" y1="85.62" x2="65.39" y2="85.62" xlink:href="#linear-gradient"/><linearGradient id="linear-gradient-48" x1="23.29" y1="74.7" x2="58.11" y2="74.7" xlink:href="#linear-gradient"/><linearGradient id="linear-gradient-49" x1="52.99" y1="65.66" x2="68" y2="65.66" gradientTransform="matrix(-1, 0, 0, 1, 126.59, 0)" xlink:href="#linear-gradient-30"/></defs><g id="Layer_22" data-name="Layer 22"><path class="cls-1" d="M48.23,71.92l17.27-10a3.63,3.63,0,0,1,3.29,0L86,71.92c.9.52.89,1.37,0,1.9L68.46,83.9a3.65,3.65,0,0,1-3.07-.1l-17.17-10A1,1,0,0,1,48.23,71.92Z"/><path class="cls-2" d="M67.06,78.36a13.24,13.24,0,0,0,5.78-1.21c1.77-.88,2.75-2.12,2.75-3.47s-1-2.58-2.71-3.46a14.39,14.39,0,0,0-11.55,0c-1.76.88-2.74,2.11-2.74,3.47s1,2.58,2.71,3.46A13.12,13.12,0,0,0,67.06,78.36Z"/><path class="cls-3" d="M61.83,65.29a2.33,2.33,0,0,0,2.12,0l2.55-1.47c-.27-.32-.18-.72.28-1a2.35,2.35,0,0,1,2.13,0,.65.65,0,0,1,0,1.23,2.35,2.35,0,0,1-1.7.17L64.66,65.7a3.94,3.94,0,0,1-3.54,0l-1.06-.61.71-.41Zm6.37-1.64c.2-.11.2-.29,0-.41a.77.77,0,0,0-.71,0,.21.21,0,0,0,0,.4.75.75,0,0,0,.71,0"/><path class="cls-4" d="M73.14,66.11c.45.27.54.66.28,1l1.82,1.07a2.42,2.42,0,0,0,2.13,0l1.06-.62.7.41-1.06.61a3.86,3.86,0,0,1-3.53,0L72.71,67.5a2.35,2.35,0,0,1-1.7-.16.65.65,0,0,1,0-1.23A2.35,2.35,0,0,1,73.14,66.11Zm-.72.82c.2-.12.2-.3,0-.41a.77.77,0,0,0-.72,0c-.19.11-.19.29,0,.41a.78.78,0,0,0,.7,0"/><path class="cls-5" d="M54.38,68.36l1.34.78a3.26,3.26,0,0,0,1.28.39l2.94.34a.68.68,0,0,0,.45-.07l.71-.41c.19-.12.2-.3,0-.42a.77.77,0,0,0-.71,0l-.52.3L57.19,69a2.12,2.12,0,0,1-.76-.24L55.09,68Z"/><path class="cls-6" d="M68.05,68.09a1.23,1.23,0,0,1-.72-1v-.68a1.26,1.26,0,0,1,.74-1l3.31-1.91.71.41-3.32,1.91a.76.76,0,0,0-.44.62v.67a.73.73,0,0,0,.43.62l1.95,1.13a2.4,2.4,0,0,1,1.7.16.66.66,0,0,1,0,1.24,2.42,2.42,0,0,1-2.13,0c-.46-.27-.54-.67-.28-1ZM71.7,69.8a.22.22,0,0,0,0-.41.78.78,0,0,0-.7,0,.22.22,0,0,0,0,.41.81.81,0,0,0,.71,0"/><path class="cls-7" d="M55.75,78.19l4.18-2.41a.9.9,0,0,0,.41-.44L60.82,74a1.45,1.45,0,0,1,.68-.74l4.25-2.45c-.26-.32-.17-.72.29-1a2.33,2.33,0,0,1,2.12,0,.65.65,0,0,1,0,1.23,2.41,2.41,0,0,1-1.7.16l-4.25,2.45a.87.87,0,0,0-.41.45l-.48,1.36a1.47,1.47,0,0,1-.69.74l-.63.36,1.18.69a1.22,1.22,0,0,1,.72,1v.68a.74.74,0,0,0,.43.62l2,1.13a2.35,2.35,0,0,1,1.7.16.65.65,0,0,1,0,1.23,2.35,2.35,0,0,1-2.13,0c-.46-.26-.54-.66-.28-1l-2-1.13a1.23,1.23,0,0,1-.72-1v-.68a.75.75,0,0,0-.44-.61L59.28,77,56.45,78.6Zm11.7-7.57c.2-.12.2-.3,0-.41a.77.77,0,0,0-.72,0c-.19.11-.19.29,0,.4a.75.75,0,0,0,.7,0M64.57,81.26c-.2.12-.2.3,0,.41a.75.75,0,0,0,.71,0c.19-.11.19-.29,0-.41a.78.78,0,0,0-.7,0"/><path class="cls-8" d="M62.08,70.45l1.13-.65a.66.66,0,0,0,0-1.24L58.64,65.9l.71-.41,4.58,2.67c1,.56,1,1.48,0,2l-1.13.65c.26.32.16.72-.29,1a2.36,2.36,0,0,1-2.12,0,.66.66,0,0,1,0-1.24A2.41,2.41,0,0,1,62.08,70.45Zm-.29,1a.21.21,0,0,0,0-.4.75.75,0,0,0-.7,0c-.2.12-.2.3,0,.42a.77.77,0,0,0,.71,0"/><path class="cls-9" d="M54.7,71.22a.8.8,0,0,0-.4-.44l-2-1.19.7-.41,2,1.19a1.35,1.35,0,0,1,.67.74l.45,1.33a2.32,2.32,0,0,1,1.42.22.65.65,0,0,1,0,1.23,2.31,2.31,0,0,1-2.11,0c-.51-.3-.58-.76-.19-1.1Zm2.13,2.26a.22.22,0,0,0,0-.41.83.83,0,0,0-.72,0,.22.22,0,0,0,0,.41.78.78,0,0,0,.7,0"/><path class="cls-10" d="M65.61,73.32l1.5-.87a3.15,3.15,0,0,1,1-.35l3.35-.65a1.8,1.8,0,0,0,.59-.21l1.08-.63a.77.77,0,0,1,.71,0c.19.11.19.29,0,.4l-1.08.63a3.15,3.15,0,0,1-1,.35l-3.35.65a1.66,1.66,0,0,0-.58.21l-1.51.87c.26.32.17.71-.29,1a2.35,2.35,0,0,1-2.13,0c-.58-.34-.57-.89,0-1.23A2.35,2.35,0,0,1,65.61,73.32Zm-.3,1c.19-.11.2-.29,0-.41a.78.78,0,0,0-.7,0c-.2.12-.2.3,0,.41a.8.8,0,0,0,.71,0"/><path class="cls-11" d="M69.83,76.6a3.27,3.27,0,0,1,1.27-.4l2.8-.32.31-.18c-.27-.33-.17-.72.29-1a2.33,2.33,0,0,1,2.12,0,.65.65,0,0,1,0,1.23,2.35,2.35,0,0,1-1.7.17l-.42.24a.61.61,0,0,1-.25.08l-2.95.34a1.79,1.79,0,0,0-.76.24L66.7,79.22a.77.77,0,0,1-.71,0,.21.21,0,0,1,0-.4Zm6.08-1.07a.22.22,0,0,0,0-.41.8.8,0,0,0-.71,0,.22.22,0,0,0,0,.41.8.8,0,0,0,.71,0"/><path class="cls-12" d="M68.8,82.08c-.85.49-1,1.26-.34,1.82h0l.19-.11.55-.31c-.26-.33-.16-.72.3-1l1.41-.82a.22.22,0,0,0,0-.41.81.81,0,0,0-.71,0Z"/><path class="cls-13" d="M83,72.25a1.08,1.08,0,0,0,0,2l1.06.61.7-.41-1-.61a.65.65,0,0,1,0-1.23c.2-.11.2-.29,0-.41A.81.81,0,0,0,83,72.25Z"/><path class="cls-14" d="M78.74,74.3c-1-.56-1-1.48,0-2L82.66,70l.7.41-3.9,2.25c-.58.34-.59.9,0,1.23l.42.24a2.38,2.38,0,0,1,1.71.17.65.65,0,0,1,0,1.23,2.33,2.33,0,0,1-2.12,0c-.47-.27-.55-.67-.29-1Zm2.12.82a.22.22,0,0,0,0-.41.78.78,0,0,0-.7,0,.22.22,0,0,0,0,.41.78.78,0,0,0,.7,0"/><path class="cls-15" d="M49.05,73.07a3.94,3.94,0,0,1,3.54,0L55.82,75a2.37,2.37,0,0,1,1.71.17.65.65,0,0,1,0,1.23,2.35,2.35,0,0,1-2.13,0c-.46-.27-.55-.67-.29-1l-3.23-1.88a2.33,2.33,0,0,0-2.12,0l-1.06.62-.48-.28L48,73.67Zm7.76,2.87a.22.22,0,0,0,0-.41.8.8,0,0,0-.71,0,.22.22,0,0,0,0,.41.78.78,0,0,0,.7,0"/><path class="cls-16" d="M66.3,75.36l2.92-1.69a3.55,3.55,0,0,1,1-.35l3.36-.64a2.48,2.48,0,0,0,.58-.21l6.4-3.7.71.41-6.41,3.7a3.09,3.09,0,0,1-1,.35l-3.36.65a1.89,1.89,0,0,0-.58.2L67,75.77c.27.33.17.72-.29,1a2.36,2.36,0,0,1-2.12,0,.65.65,0,0,1,0-1.23A2.36,2.36,0,0,1,66.3,75.36Zm-.29,1a.22.22,0,0,0,0-.41.81.81,0,0,0-.71,0,.22.22,0,0,0,0,.41.8.8,0,0,0,.71,0"/><path class="cls-17" d="M69.82,79.05l.42-.24a.49.49,0,0,1,.25-.08l3-.35a2,2,0,0,0,.76-.23l1-.57a3.88,3.88,0,0,1,3.54,0l.35.2-.71.41L78,78a2.35,2.35,0,0,0-2.13,0l-1,.57a3.56,3.56,0,0,1-1.28.4l-2.8.32-.31.18c.27.32.17.72-.3,1a2.36,2.36,0,0,1-2.12,0,.65.65,0,0,1,0-1.22A2.33,2.33,0,0,1,69.82,79.05Zm-.3,1c.2-.12.2-.3,0-.42a.75.75,0,0,0-.7,0c-.2.11-.2.29,0,.4a.77.77,0,0,0,.71,0"/><path class="cls-18" d="M59.22,53.81l0-6.52a1,1,0,0,1-.59.83l0,6.52A1,1,0,0,0,59.22,53.81Z"/><polygon class="cls-19" points="10.53 48.12 10.55 54.64 33.1 67.75 33.08 61.23 10.53 48.12"/><polygon class="cls-20" points="35.91 61.23 35.93 67.75 58.63 54.64 58.61 48.12 35.91 61.23"/><path class="cls-21" d="M10.54,46.48a.87.87,0,0,0,0,1.64l22.55,13.1a3.14,3.14,0,0,0,2.83,0l22.7-13.1a.87.87,0,0,0,0-1.64L36.07,33.37a3.14,3.14,0,0,0-2.83,0Z"/><path class="cls-22" d="M34.48,61.56a3,3,0,0,0,1.43-.34l0,6.53a3.14,3.14,0,0,1-1.4.33,3.86,3.86,0,0,1-1.43-.33l0-6.53A3,3,0,0,0,34.48,61.56Z"/><path class="cls-18" d="M10.1,47.74a1.64,1.64,0,0,0,.43.38l0,6.52a1.62,1.62,0,0,1-.43-.37.86.86,0,0,1-.15-.44l0-6.53A.73.73,0,0,0,10.1,47.74Z"/><path class="cls-23" d="M56.39,46.94V40.42a1,1,0,0,1-.59.82l0,6.52A1,1,0,0,0,56.39,46.94Z"/><polygon class="cls-24" points="13.35 41.24 13.37 47.76 33.11 59.24 33.09 52.71 13.35 41.24"/><polygon class="cls-25" points="35.92 52.71 35.94 59.24 55.81 47.76 55.79 41.24 35.92 52.71"/><path class="cls-26" d="M33.8,53a6.28,6.28,0,0,0,.72.08,3.45,3.45,0,0,0,.72-.08,4.39,4.39,0,0,0,.68-.26l0,6.53a3,3,0,0,1-1.43.33,4.43,4.43,0,0,1-1.4-.33l0-6.53A3.58,3.58,0,0,0,33.8,53Z"/><path class="cls-23" d="M12.93,40.87a1.73,1.73,0,0,0,.42.37l0,6.52a1.56,1.56,0,0,1-.4-.33,1,1,0,0,1-.18-.48V40.43A.89.89,0,0,0,12.93,40.87Z"/><path class="cls-18" d="M59.22,39.81l0-6.52a1,1,0,0,1-.59.83l0,6.52A1,1,0,0,0,59.22,39.81Z"/><polygon class="cls-27" points="10.53 34.12 10.55 40.64 33.1 53.75 33.08 47.23 10.53 34.12"/><polygon class="cls-28" points="35.91 47.23 35.93 53.75 58.63 40.64 58.61 34.12 35.91 47.23"/><path class="cls-29" d="M10.54,32.48a.87.87,0,0,0,0,1.64l22.55,13.1a3.14,3.14,0,0,0,2.83,0l22.7-13.1a.87.87,0,0,0,0-1.64L36.07,19.37a3.14,3.14,0,0,0-2.83,0Z"/><path class="cls-22" d="M34.48,47.56a3,3,0,0,0,1.43-.34l0,6.53a3.14,3.14,0,0,1-1.4.33,3.86,3.86,0,0,1-1.43-.33l0-6.53A3,3,0,0,0,34.48,47.56Z"/><path class="cls-18" d="M10.1,33.74a1.64,1.64,0,0,0,.43.38l0,6.52a1.62,1.62,0,0,1-.43-.37.86.86,0,0,1-.15-.44l0-6.53A.73.73,0,0,0,10.1,33.74Z"/><path class="cls-23" d="M56.39,32.94V26.42a1,1,0,0,1-.59.82l0,6.52A1,1,0,0,0,56.39,32.94Z"/><polygon class="cls-30" points="13.35 27.24 13.37 33.76 33.11 45.24 33.09 38.71 13.35 27.24"/><polygon class="cls-31" points="35.92 38.71 35.94 45.24 55.81 33.76 55.79 27.24 35.92 38.71"/><path class="cls-26" d="M33.8,39a6.28,6.28,0,0,0,.72.08,3.45,3.45,0,0,0,.72-.08,4.39,4.39,0,0,0,.68-.26l0,6.53a3,3,0,0,1-1.43.33,4.43,4.43,0,0,1-1.4-.33l0-6.53A3.58,3.58,0,0,0,33.8,39Z"/><path class="cls-23" d="M12.93,26.87a1.73,1.73,0,0,0,.42.37l0,6.52a1.56,1.56,0,0,1-.4-.33,1,1,0,0,1-.18-.48V26.43A.89.89,0,0,0,12.93,26.87Z"/><path class="cls-18" d="M59.22,27.28l0-6.53a1,1,0,0,1-.59.83l0,6.52A1,1,0,0,0,59.22,27.28Z"/><polygon class="cls-32" points="10.53 21.58 10.55 28.1 33.1 41.21 33.08 34.69 10.53 21.58"/><polygon class="cls-33" points="35.91 34.69 35.93 41.21 58.63 28.1 58.61 21.58 35.91 34.69"/><path class="cls-34" d="M10.54,19.94a.87.87,0,0,0,0,1.64L33.08,34.69a3.14,3.14,0,0,0,2.83,0l22.7-13.11a.87.87,0,0,0,0-1.64L36.07,6.83a3.14,3.14,0,0,0-2.83,0Z"/><path class="cls-22" d="M34.49,35a3.25,3.25,0,0,0,1.43-.33v6.52a3.24,3.24,0,0,1-1.4.34,4,4,0,0,1-1.42-.34l0-6.52A3.11,3.11,0,0,0,34.49,35Z"/><path class="cls-18" d="M10.1,21.2a1.64,1.64,0,0,0,.43.38l0,6.52a1.62,1.62,0,0,1-.43-.37.86.86,0,0,1-.15-.44l0-6.53A.73.73,0,0,0,10.1,21.2Z"/><path class="cls-35" d="M13.45,51.7c-.79-.45-1.42-.09-1.42.81A3.12,3.12,0,0,0,13.44,55l5.67,3.28c.78.44,1.42.08,1.43-.82A3.12,3.12,0,0,0,19.12,55Z"/><ellipse class="cls-36" cx="29.72" cy="48.36" rx="1.16" ry="2" transform="matrix(0.86, -0.5, 0.5, 0.86, -20.28, 21.48)"/><ellipse class="cls-37" cx="29.72" cy="36.31" rx="1.16" ry="2" transform="translate(-14.22 19.85) rotate(-30.16)"/><path class="cls-38" d="M16.15,38.82c-.4-.22-.72,0-.72.41v1.63a1.53,1.53,0,0,0,.71,1.22c.39.23.7,0,.7-.4V40.05A1.57,1.57,0,0,0,16.15,38.82Z"/><path class="cls-39" d="M13,37c-.4-.23-.72,0-.72.41V39A1.56,1.56,0,0,0,13,40.26c.4.23.7,0,.7-.4V38.23A1.56,1.56,0,0,0,13,37Z"/><path class="cls-40" d="M16.15,26.53c-.4-.23-.72-.05-.72.41v1.62a1.52,1.52,0,0,0,.71,1.22c.39.23.7,0,.7-.4V27.75A1.54,1.54,0,0,0,16.15,26.53Z"/><path class="cls-41" d="M13,24.7c-.4-.23-.72,0-.72.41v1.63A1.56,1.56,0,0,0,13,28c.4.23.7,0,.7-.4V25.93A1.57,1.57,0,0,0,13,24.7Z"/><path class="cls-23" d="M29.23,63.34c-.78-.45-1.42-.08-1.42.81a2.64,2.64,0,0,0,.11.59l2.63,1.53a1.16,1.16,0,0,0,.11-.47A3.15,3.15,0,0,0,29.23,63.34Z"/><path class="cls-42" d="M14.08,20.07a.73.73,0,0,0,0,1.38l19.23,11a2.76,2.76,0,0,0,2.41,0l19.36-11a.73.73,0,0,0,0-1.38L35.85,9a2.76,2.76,0,0,0-2.41,0Z"/><path class="cls-43" d="M72.41,67.61c2.91,1.7,2.9,4.45,0,6.14a11.65,11.65,0,0,1-10.6,0c-2.92-1.69-2.9-4.44,0-6.14A11.74,11.74,0,0,1,72.41,67.61Zm-.85,5.67c2.48-1.43,2.5-3.76,0-5.19a9.85,9.85,0,0,0-9,0c-2.49,1.43-2.5,3.76,0,5.19a9.85,9.85,0,0,0,9,0"/><ellipse class="cls-44" cx="67.09" cy="70.68" rx="6.35" ry="3.68" transform="translate(-0.2 0.19) rotate(-0.16)"/><path class="cls-45" d="M59.59,70.71A3.14,3.14,0,0,0,61,73.22a7.06,7.06,0,0,0,.78.53A10.17,10.17,0,0,0,65.86,75a4.26,4.26,0,0,0,.63,0,10.51,10.51,0,0,0,5.88-1.26,5.71,5.71,0,0,0,1.36-1.06,3.83,3.83,0,0,0,.6-.91,2.63,2.63,0,0,0,.25-1.12h0s0,1.62,0,1.78a3.73,3.73,0,0,1-.08.49,2.62,2.62,0,0,1-.72,1.31A5.32,5.32,0,0,1,72,75.59a11.28,11.28,0,0,1-5.49,1c-.22,0-.53,0-.75,0a10.22,10.22,0,0,1-2.69-.6s-.7-.29-1-.45a5.5,5.5,0,0,1-.92-.57,4.34,4.34,0,0,1-1-1.09,1.9,1.9,0,0,1-.42-.93,2,2,0,0,1-.08-.61V70.71Z"/><path class="cls-46" d="M73.41,63.61c2.91,1.7,2.9,4.45,0,6.14a11.65,11.65,0,0,1-10.6,0c-2.92-1.69-2.9-4.44,0-6.14A11.74,11.74,0,0,1,73.41,63.61Zm-.85,5.67c2.48-1.43,2.5-3.76,0-5.19a9.85,9.85,0,0,0-9,0c-2.49,1.43-2.5,3.76,0,5.19a9.85,9.85,0,0,0,9,0"/><ellipse class="cls-44" cx="68.09" cy="66.68" rx="6.35" ry="3.68" transform="translate(-0.19 0.19) rotate(-0.16)"/><path class="cls-47" d="M60.59,66.71A3.14,3.14,0,0,0,62,69.22a7.06,7.06,0,0,0,.78.53A10.17,10.17,0,0,0,66.86,71a4.26,4.26,0,0,0,.63,0,10.51,10.51,0,0,0,5.88-1.26,5.71,5.71,0,0,0,1.36-1.06,3.83,3.83,0,0,0,.6-.91,2.63,2.63,0,0,0,.25-1.12h0s0,1.62,0,1.78a3.73,3.73,0,0,1-.08.49,2.62,2.62,0,0,1-.72,1.31A5.32,5.32,0,0,1,73,71.59a11.28,11.28,0,0,1-5.49,1c-.22,0-.53,0-.75,0a10.22,10.22,0,0,1-2.69-.6s-.7-.29-1-.45a5.5,5.5,0,0,1-.92-.57,4.34,4.34,0,0,1-1-1.09,1.9,1.9,0,0,1-.42-.93,2,2,0,0,1-.08-.61V66.71Z"/><path class="cls-48" d="M71.41,59.61c2.91,1.7,2.9,4.45,0,6.14a11.65,11.65,0,0,1-10.6,0c-2.92-1.69-2.9-4.44,0-6.14A11.74,11.74,0,0,1,71.41,59.61Zm-.85,5.67c2.48-1.43,2.5-3.76,0-5.19a9.85,9.85,0,0,0-9,0c-2.49,1.43-2.5,3.76,0,5.19a9.85,9.85,0,0,0,9,0"/><ellipse class="cls-44" cx="66.09" cy="62.68" rx="6.35" ry="3.68" transform="translate(-0.18 0.19) rotate(-0.16)"/><path class="cls-49" d="M47.54,72.87v3.26a1.15,1.15,0,0,0,.68,1V73.82A1.15,1.15,0,0,1,47.54,72.87Z"/><path class="cls-50" d="M86.64,76.12V72.86a1.18,1.18,0,0,1-.69,1v3.26A1.17,1.17,0,0,0,86.64,76.12Z"/><polygon class="cls-51" points="68.47 83.9 68.48 87.16 85.95 77.08 85.94 73.82 68.47 83.9"/><polygon class="cls-52" points="65.39 83.8 65.4 87.06 48.23 77.08 48.22 73.82 65.39 83.8"/><path class="cls-53" d="M65.39,83.8v3.26a3.65,3.65,0,0,0,3.07.1V83.9A3.65,3.65,0,0,1,65.39,83.8Z"/><path class="cls-54" d="M24.76,67l5.18-3a3.35,3.35,0,0,1,.64,1.26l-4.41,2.55a1.3,1.3,0,0,0,0,2.46L49.41,83.76a4.71,4.71,0,0,0,4.25,0L56.71,82l1.4.81-3,1.76a7.77,7.77,0,0,1-7.07,0L24.74,71.07C22.8,69.94,22.8,68.1,24.76,67Z"/><path class="cls-55" d="M58.59,62.71A3.14,3.14,0,0,0,60,65.22a7.06,7.06,0,0,0,.78.53A10.17,10.17,0,0,0,64.86,67a4.26,4.26,0,0,0,.63,0,10.51,10.51,0,0,0,5.88-1.26,5.71,5.71,0,0,0,1.36-1.06,3.83,3.83,0,0,0,.6-.91,2.63,2.63,0,0,0,.25-1.12h0s0,1.62,0,1.78a3.73,3.73,0,0,1-.08.49,2.62,2.62,0,0,1-.72,1.31A5.32,5.32,0,0,1,71,67.59a11.28,11.28,0,0,1-5.49,1c-.22,0-.53,0-.75,0a10.22,10.22,0,0,1-2.69-.6s-.7-.29-1-.45a5.5,5.5,0,0,1-.92-.57,4.34,4.34,0,0,1-1-1.09,1.9,1.9,0,0,1-.42-.93,2,2,0,0,1-.08-.61V62.71Z"/></g></svg>