<svg xmlns="http://www.w3.org/2000/svg" xmlns:xlink="http://www.w3.org/1999/xlink" viewBox="0 0 96 96"><defs><style>.cls-1{fill:url(#linear-gradient);}.cls-2{fill:#90e0ef;}.cls-3{fill:url(#linear-gradient-2);}.cls-4{fill:#0096c7;}.cls-5{fill:url(#linear-gradient-3);}.cls-6{fill:url(#linear-gradient-4);}.cls-7{fill:url(#linear-gradient-5);}.cls-8{fill:#e9feff;}.cls-9{fill:url(#linear-gradient-6);}.cls-10{fill:url(#linear-gradient-7);}.cls-11{fill:url(#linear-gradient-8);}.cls-12{fill:url(#linear-gradient-9);}.cls-13{fill:url(#linear-gradient-10);}.cls-14{fill:url(#linear-gradient-11);}</style><linearGradient id="linear-gradient" x1="22.39" y1="56.91" x2="76.35" y2="56.91" gradientUnits="userSpaceOnUse"><stop offset="0" stop-color="#caf0f8"/><stop offset="1" stop-color="#90e0ef"/></linearGradient><linearGradient id="linear-gradient-2" x1="61.85" y1="15.78" x2="84.05" y2="28.6" gradientUnits="userSpaceOnUse"><stop offset="0" stop-color="#00b4d8"/><stop offset="1" stop-color="#0096c7"/></linearGradient><linearGradient id="linear-gradient-3" x1="16.52" y1="78.89" x2="28.19" y2="58.68" xlink:href="#linear-gradient"/><linearGradient id="linear-gradient-4" x1="11.81" y1="62.33" x2="33.18" y2="74.67" gradientTransform="translate(37.46 -2.03) rotate(30.16)" gradientUnits="userSpaceOnUse"><stop offset="0" stop-color="#c3edfd"/><stop offset="1" stop-color="#dcf7ff"/></linearGradient><linearGradient id="linear-gradient-5" x1="14.98" y1="64.16" x2="30.02" y2="72.84" gradientUnits="userSpaceOnUse"><stop offset="0" stop-color="#dcf7ff"/><stop offset="1" stop-color="#c3edfd"/></linearGradient><linearGradient id="linear-gradient-6" x1="8.79" y1="41.53" x2="64.43" y2="41.53" gradientUnits="userSpaceOnUse"><stop offset="0" stop-color="#3e5368"/><stop offset="1" stop-color="#354c5b"/></linearGradient><linearGradient id="linear-gradient-7" x1="18.62" y1="52.57" x2="77.72" y2="52.57" xlink:href="#linear-gradient-6"/><linearGradient id="linear-gradient-8" x1="38.08" y1="44.55" x2="35.13" y2="39.44" xlink:href="#linear-gradient-2"/><linearGradient id="linear-gradient-9" x1="42.91" y1="41.59" x2="54.98" y2="62.48" xlink:href="#linear-gradient-2"/><linearGradient id="linear-gradient-10" x1="5.26" y1="64.97" x2="31.91" y2="64.97" xlink:href="#linear-gradient-2"/><linearGradient id="linear-gradient-11" x1="7.08" y1="59.08" x2="12.15" y2="59.08" xlink:href="#linear-gradient-2"/></defs><g id="Layer_18" data-name="Layer 18"><path class="cls-1" d="M72.93,58.48,30.64,83.06c2.11-1.23,3.41-3.82,3.42-7.52,0-7.42-5.2-16.47-11.67-20.2L64.68,30.76C71.14,34.49,76.37,43.54,76.35,51,76.34,54.66,75,57.26,72.93,58.48Z"/><path class="cls-2" d="M64.68,30.76,22.39,55.34c6.47,3.73,11.69,12.78,11.67,20.2A11.89,11.89,0,0,1,34,76.9L76.28,52.32c0-.43.07-.88.07-1.35C76.37,43.54,71.14,34.49,64.68,30.76Z"/><path class="cls-3" d="M88.5,5H69.64A2.6,2.6,0,0,0,67,7.24,2.5,2.5,0,0,0,69.5,10H74a1,1,0,0,1,1,1V25.22a2,2,0,0,1-.59,1.42L61.6,39.45l6.48,6.47L81.83,32.17A4,4,0,0,0,83,29.34V11a1,1,0,0,1,1-1h4.36A2.6,2.6,0,0,0,91,7.76,2.5,2.5,0,0,0,88.5,5Z"/><path class="cls-4" d="M69.37,31.68,61.6,39.45l6.48,6.47,7-7A33.19,33.19,0,0,0,69.37,31.68Z"/><path class="cls-5" d="M22.39,55.34c6.47,3.73,11.69,12.78,11.67,20.2S28.78,86,22.32,82.24,10.63,69.46,10.65,62,15.93,51.61,22.39,55.34Z"/><ellipse class="cls-6" cx="22.5" cy="68.5" rx="7.82" ry="13.5" transform="translate(-31.37 20.58) rotate(-30.16)"/><path class="cls-7" d="M22.52,60.75c-3.72-2.15-6.75-.42-6.76,3.86a14.8,14.8,0,0,0,6.71,11.63c3.73,2.15,6.76.43,6.77-3.85A14.84,14.84,0,0,0,22.52,60.75Z"/><path class="cls-8" d="M22.5,66.46c-1-.56-1.77-.11-1.77,1a3.87,3.87,0,0,0,1.76,3.06c1,.57,1.78.11,1.78-1a3.92,3.92,0,0,0-1.77-3.07"/><path class="cls-9" d="M8.79,54.82,54.6,28.2c2.51-1.46,6-1.25,9.83,1L18.62,55.79c-3.84-2.22-7.32-2.42-9.83-1"/><path class="cls-10" d="M18.62,55.79,64.43,29.16C70.74,32.81,76,40.74,77.68,48.33a.92.92,0,0,1-.27,1L31.6,76a.89.89,0,0,0,.26-1c-1.64-7.6-6.94-15.53-13.24-19.17"/><path class="cls-11" d="M8.79,54.82,54.6,28.2c2.51-1.46,6-1.25,9.83,1L18.62,55.79C14.78,53.57,11.3,53.37,8.79,54.82Z"/><path class="cls-12" d="M77.41,49.36,31.6,76a.89.89,0,0,0,.26-1c-1.64-7.6-6.94-15.53-13.24-19.17L64.43,29.16C70.74,32.81,76,40.74,77.68,48.33A.92.92,0,0,1,77.41,49.36Z"/><path class="cls-13" d="M18.62,55.79c6.3,3.64,11.6,11.57,13.24,19.17.2.88-.33,1.35-1,.94a2.28,2.28,0,0,1-1-1.44C28.44,68,24,61.32,18.61,58.24S8.75,56.67,7.33,61.48c-.13.44-.55.54-1,.27a2.18,2.18,0,0,1-1-2.13C7,53.94,12.3,52.14,18.62,55.79Z"/><path class="cls-14" d="M12.15,56.34l-1.86,1.08a6.71,6.71,0,0,0-3,4.06.63.63,0,0,1-.25.35l3.79-2.21A8.6,8.6,0,0,1,12.15,56.34Z"/></g></svg>