<svg xmlns="http://www.w3.org/2000/svg" xmlns:xlink="http://www.w3.org/1999/xlink" viewBox="0 0 96 96"><defs><style>.cls-1{fill:url(#linear-gradient);}.cls-2{fill:#c3edfd;}.cls-3{fill:url(#linear-gradient-2);}.cls-4{fill:#90e0ef;}.cls-5{fill:url(#linear-gradient-3);}.cls-6{fill:url(#linear-gradient-4);}.cls-7{fill:url(#linear-gradient-5);}.cls-8{fill:url(#linear-gradient-6);}.cls-9{fill:url(#linear-gradient-7);}.cls-10{fill:url(#linear-gradient-8);}.cls-11{fill:url(#linear-gradient-9);}.cls-12{fill:url(#linear-gradient-10);}.cls-13{fill:url(#linear-gradient-11);}.cls-14{fill:url(#linear-gradient-12);}.cls-15{fill:#caf0f8;}.cls-16{fill:url(#linear-gradient-13);}.cls-17{fill:url(#linear-gradient-14);}.cls-18{fill:url(#linear-gradient-15);}.cls-19{fill:url(#linear-gradient-16);}.cls-20{fill:url(#linear-gradient-17);}.cls-21{fill:url(#linear-gradient-18);}.cls-22{fill:url(#linear-gradient-19);}.cls-23{fill:url(#linear-gradient-20);}.cls-24{fill:url(#linear-gradient-21);}.cls-25{fill:url(#linear-gradient-22);}.cls-26{fill:url(#linear-gradient-23);}.cls-27{fill:url(#linear-gradient-24);}.cls-28{fill:url(#linear-gradient-25);}.cls-29{fill:url(#linear-gradient-26);}.cls-30{fill:url(#linear-gradient-27);}.cls-31{fill:url(#linear-gradient-28);}.cls-32{fill:url(#linear-gradient-29);}.cls-33{fill:url(#linear-gradient-30);}.cls-34{fill:url(#linear-gradient-31);}.cls-35{fill:url(#linear-gradient-32);}.cls-36{fill:url(#linear-gradient-33);}.cls-37{fill:url(#linear-gradient-34);}.cls-38{fill:url(#linear-gradient-35);}.cls-39{fill:url(#linear-gradient-36);}.cls-40{fill:url(#linear-gradient-37);}.cls-41{fill:url(#linear-gradient-38);}.cls-42{fill:url(#linear-gradient-39);}.cls-43{fill:url(#linear-gradient-40);}.cls-44{fill:url(#linear-gradient-41);}.cls-45{fill:url(#linear-gradient-42);}.cls-46{fill:url(#linear-gradient-43);}.cls-47{fill:url(#linear-gradient-44);}.cls-48{fill:url(#linear-gradient-45);}.cls-49{fill:url(#linear-gradient-46);}.cls-50{fill:url(#linear-gradient-47);}</style><linearGradient id="linear-gradient" x1="38.58" y1="63.5" x2="57.58" y2="63.5" gradientUnits="userSpaceOnUse"><stop offset="0" stop-color="#dcf7ff"/><stop offset="1" stop-color="#c3edfd"/></linearGradient><linearGradient id="linear-gradient-2" x1="17.44" y1="37.84" x2="21.49" y2="37.84" gradientUnits="userSpaceOnUse"><stop offset="0" stop-color="#90e0ef"/><stop offset="1" stop-color="#caf0f8"/></linearGradient><linearGradient id="linear-gradient-3" x1="75.41" y1="37.84" x2="79.46" y2="37.84" xlink:href="#linear-gradient-2"/><linearGradient id="linear-gradient-4" x1="70.66" y1="28.79" x2="83.92" y2="36.45" gradientUnits="userSpaceOnUse"><stop offset="0" stop-color="#00b4d8"/><stop offset="1" stop-color="#0096c7"/></linearGradient><linearGradient id="linear-gradient-5" x1="75.45" y1="69.84" x2="79.49" y2="69.84" xlink:href="#linear-gradient-2"/><linearGradient id="linear-gradient-6" x1="16.86" y1="69.84" x2="20.9" y2="69.84" xlink:href="#linear-gradient-2"/><linearGradient id="linear-gradient-7" x1="12.69" y1="28.79" x2="25.95" y2="36.45" xlink:href="#linear-gradient-4"/><linearGradient id="linear-gradient-8" x1="59.56" y1="41.7" x2="78.62" y2="41.7" xlink:href="#linear-gradient-2"/><linearGradient id="linear-gradient-9" x1="53.92" y1="35.99" x2="78.62" y2="35.99" xlink:href="#linear-gradient-2"/><linearGradient id="linear-gradient-10" x1="37.49" y1="41.8" x2="18.31" y2="41.8" xlink:href="#linear-gradient-2"/><linearGradient id="linear-gradient-11" x1="43.13" y1="36.09" x2="18.34" y2="36.09" xlink:href="#linear-gradient-2"/><linearGradient id="linear-gradient-12" x1="14.99" y1="24.82" x2="23.98" y2="24.82" gradientTransform="translate(44.25 5.27) rotate(89.84)" xlink:href="#linear-gradient-4"/><linearGradient id="linear-gradient-13" x1="49.78" y1="56.96" x2="70.35" y2="56.96" xlink:href="#linear-gradient-2"/><linearGradient id="linear-gradient-14" x1="25.67" y1="56.96" x2="46.38" y2="56.96" xlink:href="#linear-gradient-2"/><linearGradient id="linear-gradient-15" x1="49.81" y1="63.14" x2="46.34" y2="63.14" xlink:href="#linear-gradient-2"/><linearGradient id="linear-gradient-16" x1="30.64" y1="33.44" x2="65.4" y2="53.51" xlink:href="#linear-gradient-2"/><linearGradient id="linear-gradient-17" x1="73.57" y1="58.84" x2="57.23" y2="58.84" xlink:href="#linear-gradient-2"/><linearGradient id="linear-gradient-18" x1="80.39" y1="55.46" x2="57.26" y2="55.46" xlink:href="#linear-gradient-2"/><linearGradient id="linear-gradient-19" x1="23.01" y1="59.08" x2="39.24" y2="59.08" xlink:href="#linear-gradient-2"/><linearGradient id="linear-gradient-20" x1="16.2" y1="55.7" x2="39.24" y2="55.7" xlink:href="#linear-gradient-2"/><linearGradient id="linear-gradient-21" x1="14.4" y1="57.42" x2="23.4" y2="57.42" gradientTransform="translate(76.27 38.36) rotate(89.84)" xlink:href="#linear-gradient-4"/><linearGradient id="linear-gradient-22" x1="36.54" y1="36.87" x2="59.5" y2="50.13" xlink:href="#linear-gradient"/><linearGradient id="linear-gradient-23" x1="37.98" y1="33.7" x2="58.07" y2="45.3" xlink:href="#linear-gradient"/><linearGradient id="linear-gradient-24" x1="15.03" y1="53.81" x2="22.77" y2="53.81" xlink:href="#linear-gradient-2"/><linearGradient id="linear-gradient-25" x1="14.9" y1="57.26" x2="22.9" y2="57.26" xlink:href="#linear-gradient-2"/><linearGradient id="linear-gradient-26" x1="15.61" y1="21.21" x2="23.36" y2="21.21" xlink:href="#linear-gradient-2"/><linearGradient id="linear-gradient-27" x1="15.48" y1="24.65" x2="23.49" y2="24.65" xlink:href="#linear-gradient-2"/><linearGradient id="linear-gradient-28" x1="12.1" y1="61.39" x2="25.37" y2="69.05" xlink:href="#linear-gradient-4"/><linearGradient id="linear-gradient-29" x1="72.99" y1="57.42" x2="81.99" y2="57.42" gradientTransform="translate(134.69 -20.23) rotate(89.84)" xlink:href="#linear-gradient-4"/><linearGradient id="linear-gradient-30" x1="73.62" y1="53.75" x2="81.36" y2="53.75" xlink:href="#linear-gradient-2"/><linearGradient id="linear-gradient-31" x1="73.49" y1="57.2" x2="81.49" y2="57.2" xlink:href="#linear-gradient-2"/><linearGradient id="linear-gradient-32" x1="70.69" y1="61.39" x2="83.96" y2="69.05" xlink:href="#linear-gradient-4"/><linearGradient id="linear-gradient-33" x1="62.61" y1="55.83" x2="77.32" y2="55.83" xlink:href="#linear-gradient-4"/><linearGradient id="linear-gradient-34" x1="77.56" y1="48.5" x2="92.32" y2="48.5" xlink:href="#linear-gradient-4"/><linearGradient id="linear-gradient-35" x1="73.48" y1="52.18" x2="81.48" y2="52.18" gradientUnits="userSpaceOnUse"><stop offset="0" stop-color="#ffd500"/><stop offset="1" stop-color="#fdc500"/></linearGradient><linearGradient id="linear-gradient-36" x1="72.95" y1="24.82" x2="81.95" y2="24.82" gradientTransform="translate(102.06 -52.7) rotate(89.84)" xlink:href="#linear-gradient-4"/><linearGradient id="linear-gradient-37" x1="73.58" y1="21.21" x2="81.32" y2="21.21" xlink:href="#linear-gradient-2"/><linearGradient id="linear-gradient-38" x1="73.45" y1="24.65" x2="81.45" y2="24.65" xlink:href="#linear-gradient-2"/><linearGradient id="linear-gradient-39" x1="62.56" y1="23.31" x2="77.27" y2="23.31" xlink:href="#linear-gradient-4"/><linearGradient id="linear-gradient-40" x1="77.51" y1="15.97" x2="92.28" y2="15.97" xlink:href="#linear-gradient-4"/><linearGradient id="linear-gradient-41" x1="73.43" y1="19.66" x2="81.43" y2="19.66" xlink:href="#linear-gradient-35"/><linearGradient id="linear-gradient-42" x1="19.24" y1="24.02" x2="32.4" y2="24.02" xlink:href="#linear-gradient-4"/><linearGradient id="linear-gradient-43" x1="6.53" y1="15.31" x2="19.65" y2="15.31" xlink:href="#linear-gradient-4"/><linearGradient id="linear-gradient-44" x1="15.48" y1="19.65" x2="23.48" y2="19.65" xlink:href="#linear-gradient-35"/><linearGradient id="linear-gradient-45" x1="5.96" y1="47.89" x2="19.12" y2="47.89" xlink:href="#linear-gradient-4"/><linearGradient id="linear-gradient-46" x1="18.7" y1="56.59" x2="31.83" y2="56.59" xlink:href="#linear-gradient-4"/><linearGradient id="linear-gradient-47" x1="14.88" y1="52.26" x2="22.88" y2="52.26" xlink:href="#linear-gradient-35"/></defs><g id="Layer_21" data-name="Layer 21"><circle class="cls-1" cx="48.08" cy="63.5" r="9.5"/><path class="cls-2" d="M49.31,55.54a2.43,2.43,0,0,1-1.21.28,2.47,2.47,0,0,1-1.22-.28l-.74-.42-1.08-.62a9.52,9.52,0,0,0-6,11.88l6.82,3.94a4.83,4.83,0,0,0,4.44,0l6.87-4a9.39,9.39,0,0,0,.43-2.82,9.51,9.51,0,0,0-6.48-9l-.77.45Z"/><path class="cls-3" d="M21.49,29.94l0,14.67a1,1,0,0,1-.57.81,3.13,3.13,0,0,1-2.84,0,1,1,0,0,1-.59-.83l0-14.67a1,1,0,0,0,.59.83,3.16,3.16,0,0,0,2.84,0A1,1,0,0,0,21.49,29.94Z"/><path class="cls-4" d="M19.46,43.1a8.61,8.61,0,0,0,2-.23l0-12.93a1,1,0,0,1-.58.81,3.14,3.14,0,0,1-2.83,0,1,1,0,0,1-.6-.83l0,12.94A8.2,8.2,0,0,0,19.46,43.1Z"/><path class="cls-5" d="M79.46,29.94l0,14.67a1,1,0,0,1-.58.81,3.11,3.11,0,0,1-2.82,0,1,1,0,0,1-.6-.83l0-14.67a1,1,0,0,0,.6.83,3.11,3.11,0,0,0,2.82,0A1,1,0,0,0,79.46,29.94Z"/><path class="cls-4" d="M79.42,42.87l0-12.93a1,1,0,0,1-.59.81,3.11,3.11,0,0,1-2.82,0,1.47,1.47,0,0,1-.45-.39.75.75,0,0,1-.15-.44l0,12.94a8.2,8.2,0,0,0,2,.24A8.61,8.61,0,0,0,79.42,42.87Z"/><path class="cls-6" d="M82,24.84l0,14.67a2.23,2.23,0,0,1-1.31,1.83,7,7,0,0,1-6.36,0,2.24,2.24,0,0,1-1.33-1.86l0-14.67a2.28,2.28,0,0,0,1.33,1.86,7,7,0,0,0,6.37,0A2.23,2.23,0,0,0,82,24.84Z"/><path class="cls-7" d="M79.49,61.93l0,14.68a1,1,0,0,1-.58.81,3.16,3.16,0,0,1-2.84,0,1,1,0,0,1-.58-.82l0-14.68a1,1,0,0,0,.59.83,3.14,3.14,0,0,0,2.83,0A1,1,0,0,0,79.49,61.93Z"/><path class="cls-4" d="M78.91,62.75a3.14,3.14,0,0,1-2.83,0,1.34,1.34,0,0,1-.26-.19.84.84,0,0,1-.33-.64l0,13.54a8.2,8.2,0,0,0,2,.24,8.54,8.54,0,0,0,2-.23l0-13.54A1,1,0,0,1,78.91,62.75Z"/><path class="cls-8" d="M20.9,61.93l0,14.68a1,1,0,0,1-.58.81,3.14,3.14,0,0,1-2.83,0,1,1,0,0,1-.59-.83l0-14.67a1,1,0,0,0,.59.83,3.13,3.13,0,0,0,2.83,0A1,1,0,0,0,20.9,61.93Z"/><path class="cls-4" d="M18.87,75.7a8.54,8.54,0,0,0,2-.23l0-13.54a1,1,0,0,1-.58.82,3.13,3.13,0,0,1-2.83,0,1,1,0,0,1-.59-.83l0,13.54A8.2,8.2,0,0,0,18.87,75.7Z"/><path class="cls-9" d="M24,24.84l0,14.67a2.22,2.22,0,0,1-1.3,1.83,7,7,0,0,1-6.37,0,2.24,2.24,0,0,1-1.33-1.86L15,24.81a2.24,2.24,0,0,0,1.32,1.86,7,7,0,0,0,6.37,0A2.23,2.23,0,0,0,24,24.84Z"/><polygon class="cls-10" points="78.62 32.09 78.59 36.25 59.56 51.3 59.59 43.15 78.62 32.09"/><path class="cls-11" d="M78.62,32.09l-19,11.06-5.67-3.27L73,28.82a5.61,5.61,0,0,0,2.13,2.05A11.37,11.37,0,0,0,78.62,32.09Z"/><polygon class="cls-12" points="37.49 43.25 37.47 51.41 18.32 36.35 18.34 32.2 37.49 43.25"/><path class="cls-13" d="M43.13,40l-5.64,3.27L18.34,32.19A15.15,15.15,0,0,0,24,28.92Z"/><ellipse class="cls-14" cx="19.48" cy="24.82" rx="2.61" ry="4.5" transform="matrix(0, -1, 1, 0, -5.39, 44.24)"/><path class="cls-15" d="M71.06,43.48l0,13.05a1.22,1.22,0,0,1-.71,1l0-13.05a1.21,1.21,0,0,0,.71-1"/><path class="cls-4" d="M25.7,44.47l0,13.05a1.23,1.23,0,0,1-.72-1l0-13a1.18,1.18,0,0,0,.71,1"/><polygon class="cls-16" points="70.35 44.47 70.31 57.52 49.78 69.45 49.81 56.41 70.35 44.47"/><polygon class="cls-17" points="46.38 56.41 46.34 69.45 25.67 57.52 25.7 44.47 46.38 56.41"/><path class="cls-18" d="M49.81,56.41l0,13a3.79,3.79,0,0,1-3.44,0l0-13A3.77,3.77,0,0,0,49.81,56.41Z"/><path class="cls-19" d="M70.34,42.48a1.05,1.05,0,0,1,0,2L49.81,56.41a3.77,3.77,0,0,1-3.43,0L25.7,44.47a1.05,1.05,0,0,1,0-2L46.23,30.55a3.79,3.79,0,0,1,3.44,0Z"/><polygon class="cls-20" points="73.57 61.47 73.55 65.62 57.23 60.2 57.26 52.05 73.57 61.47"/><path class="cls-21" d="M79.2,58.2c1.57.9,1.59,2.37,0,3.27a6.21,6.21,0,0,1-5.66,0L57.26,52.05l5.63-3.27Z"/><polygon class="cls-22" points="39.24 52.29 39.22 60.44 23.01 65.86 23.04 61.71 39.24 52.29"/><path class="cls-23" d="M39.24,52.29,23,61.71a6.21,6.21,0,0,1-5.66,0c-1.57-.9-1.58-2.37,0-3.28L33.57,49Z"/><ellipse class="cls-24" cx="18.9" cy="57.42" rx="2.61" ry="4.5" transform="translate(-38.58 76.16) rotate(-89.84)"/><path class="cls-25" d="M58.24,37.56c-5.68-3.28-14.86-3.28-20.5,0s-5.62,8.6.06,11.88,14.86,3.28,20.51,0,5.61-8.6-.07-11.88"/><ellipse class="cls-26" cx="48.02" cy="39.5" rx="12.21" ry="9.5"/><path class="cls-27" d="M18,51,15,57.26h7.74L19.85,51A1,1,0,0,0,18,51Z"/><path class="cls-28" d="M21.72,55.62a6.25,6.25,0,0,0-5.65,0c-1.56.91-1.55,2.38,0,3.28a6.27,6.27,0,0,0,5.66,0c1.55-.91,1.54-2.37,0-3.28"/><path class="cls-29" d="M18.53,18.38l-2.92,6.28h7.75l-2.92-6.28A1.05,1.05,0,0,0,18.53,18.38Z"/><path class="cls-30" d="M22.3,23a6.24,6.24,0,0,0-5.66,0c-1.55.9-1.54,2.37,0,3.27a6.21,6.21,0,0,0,5.66,0c1.56-.9,1.55-2.37,0-3.28"/><path class="cls-31" d="M23.4,57.44l0,14.67a2.24,2.24,0,0,1-1.31,1.83,7,7,0,0,1-6.36,0,2.26,2.26,0,0,1-1.33-1.86l0-14.67a2.27,2.27,0,0,0,1.33,1.86,7.05,7.05,0,0,0,6.36,0A2.24,2.24,0,0,0,23.4,57.44Z"/><ellipse class="cls-32" cx="77.49" cy="57.42" rx="2.61" ry="4.5" transform="translate(19.85 134.75) rotate(-89.84)"/><path class="cls-33" d="M76.54,50.92,73.62,57.2h7.74l-2.92-6.28A1,1,0,0,0,76.54,50.92Z"/><path class="cls-34" d="M80.31,55.56a6.19,6.19,0,0,0-5.65,0c-1.56.9-1.56,2.37,0,3.27a6.21,6.21,0,0,0,5.66,0c1.56-.9,1.55-2.37,0-3.27"/><path class="cls-35" d="M82,57.43l0,14.68a2.24,2.24,0,0,1-1.31,1.83,7,7,0,0,1-6.36,0A2.26,2.26,0,0,1,73,72.08l0-14.67a2.24,2.24,0,0,0,1.33,1.85,7,7,0,0,0,6.36,0A2.22,2.22,0,0,0,82,57.43Z"/><path class="cls-4" d="M73.51,57.12l4-1.63a7,7,0,0,0,2.8-.56l-1.87-4a1,1,0,0,0-1.9,0l-2.29,4.93A1.8,1.8,0,0,0,73.51,57.12Z"/><path class="cls-36" d="M73.49,52,63.06,58.09a.67.67,0,0,0,0,1.28h0a2.4,2.4,0,0,0,2.11.05l12.14-4.93a5.61,5.61,0,0,1-2.66-.68A1.93,1.93,0,0,1,73.49,52"/><path class="cls-37" d="M91.86,45a2.44,2.44,0,0,0-2.11,0L77.56,49.86a5.82,5.82,0,0,1,2.74.68,2,2,0,0,1,1.18,1.75l10.39-6a.68.68,0,0,0,0-1.28"/><path class="cls-38" d="M80.3,50.54a5.82,5.82,0,0,0-2.74-.68,5.94,5.94,0,0,0-2.92.68A2.09,2.09,0,0,0,73.49,52a1.93,1.93,0,0,0,1.17,1.78,5.61,5.61,0,0,0,2.66.68,5.78,5.78,0,0,0,3-.67,2,2,0,0,0,1.16-1.53,2,2,0,0,0-1.18-1.75"/><ellipse class="cls-39" cx="77.45" cy="24.82" rx="2.61" ry="4.5" transform="translate(52.41 102.21) rotate(-89.84)"/><path class="cls-40" d="M76.5,18.38l-2.92,6.28h7.74l-2.91-6.28A1.05,1.05,0,0,0,76.5,18.38Z"/><path class="cls-41" d="M80.27,23a6.24,6.24,0,0,0-5.66,0c-1.55.9-1.54,2.37,0,3.27a6.21,6.21,0,0,0,5.66,0c1.56-.9,1.55-2.37,0-3.28"/><path class="cls-4" d="M73.48,24.59l4-1.62a6.89,6.89,0,0,0,2.82-.57l-1.87-4a1.05,1.05,0,0,0-1.91,0L74.21,23.3A1.77,1.77,0,0,0,73.48,24.59Z"/><path class="cls-42" d="M73.44,19.51,63,25.57a.68.68,0,0,0,0,1.28h0a2.47,2.47,0,0,0,2.11,0L77.27,22a5.61,5.61,0,0,1-2.66-.68,1.93,1.93,0,0,1-1.17-1.78"/><path class="cls-43" d="M91.81,12.44a2.47,2.47,0,0,0-2.11,0L77.51,17.34a5.67,5.67,0,0,1,2.74.68,2,2,0,0,1,1.18,1.74l10.4-6c.6-.35.6-.92,0-1.28"/><path class="cls-44" d="M80.25,18a5.67,5.67,0,0,0-2.74-.68A5.77,5.77,0,0,0,74.6,18a2.07,2.07,0,0,0-1.16,1.49,1.93,1.93,0,0,0,1.17,1.78,5.61,5.61,0,0,0,2.66.68,5.84,5.84,0,0,0,3-.68,2,2,0,0,0,1.15-1.53A2,2,0,0,0,80.25,18"/><path class="cls-4" d="M23.24,25.43a1.55,1.55,0,0,0-.51-2.11l-2.29-4.94a1.05,1.05,0,0,0-1.91,0l-1.87,4a7.06,7.06,0,0,0,2.27.54Z"/><path class="cls-45" d="M23.48,19.74a2.05,2.05,0,0,1-1.17,1.55,5.82,5.82,0,0,1-3.07.67L29.74,28a2.44,2.44,0,0,0,2.2,0h0c.57-.33.6-.86.08-1.22l-8.55-7.06"/><path class="cls-46" d="M19.65,17.33l-10.46-6a2.41,2.41,0,0,0-2.2,0H7c-.57.33-.6.86-.08,1.22l8.58,7.08A2,2,0,0,1,16.64,18a5.92,5.92,0,0,1,3-.68"/><path class="cls-47" d="M22.3,18a5.84,5.84,0,0,0-2.65-.68,5.92,5.92,0,0,0-3,.68,2,2,0,0,0-1.16,1.59,2,2,0,0,0,1.18,1.69,5.67,5.67,0,0,0,2.58.67,5.82,5.82,0,0,0,3.07-.67,2.05,2.05,0,0,0,1.17-1.55A2,2,0,0,0,22.3,18"/><path class="cls-4" d="M22.67,58a1.55,1.55,0,0,0-.52-2.08l-2.3-5A1,1,0,0,0,18,51l-1.88,4a7.17,7.17,0,0,0,2.33.54Z"/><path class="cls-48" d="M19.12,50,8.62,43.88a2.43,2.43,0,0,0-2.21,0c-.57.33-.6.86-.08,1.22l8.55,7A2.06,2.06,0,0,1,16,50.62,5.88,5.88,0,0,1,19.12,50"/><path class="cls-49" d="M22.88,52.31a2,2,0,0,1-1.17,1.59,5.89,5.89,0,0,1-3,.67l10.47,6a2.38,2.38,0,0,0,2.2,0h0c.57-.33.6-.86.07-1.22l-8.57-7.08"/><path class="cls-50" d="M21.7,50.62A5.55,5.55,0,0,0,19.12,50a5.88,5.88,0,0,0-3.08.67,2.06,2.06,0,0,0-1.16,1.54,2,2,0,0,0,1.18,1.74,5.64,5.64,0,0,0,2.64.67,5.89,5.89,0,0,0,3-.67,2,2,0,0,0,1.17-1.59,2,2,0,0,0-1.18-1.69"/></g></svg>