<svg xmlns="http://www.w3.org/2000/svg" xmlns:xlink="http://www.w3.org/1999/xlink" viewBox="0 0 96 96"><defs><style>.cls-1{fill:url(#linear-gradient);}.cls-2{fill:#caf0f8;}.cls-3{fill:url(#linear-gradient-2);}.cls-4{fill:url(#linear-gradient-3);}.cls-5{fill:url(#linear-gradient-4);}.cls-6{fill:url(#linear-gradient-5);}.cls-7{fill:#00b4d8;}.cls-8{fill:url(#linear-gradient-6);}.cls-9{fill:url(#linear-gradient-7);}.cls-10{fill:url(#linear-gradient-8);}.cls-11{fill:url(#linear-gradient-9);}.cls-12{fill:url(#linear-gradient-10);}.cls-13{fill:url(#linear-gradient-11);}.cls-14{fill:#90e0ef;}.cls-15{fill:url(#linear-gradient-12);}.cls-16{fill:url(#linear-gradient-13);}.cls-17{fill:url(#linear-gradient-14);}.cls-18{fill:url(#linear-gradient-15);}.cls-19{fill:url(#linear-gradient-16);}.cls-20{fill:url(#linear-gradient-17);}.cls-21{fill:url(#linear-gradient-18);}.cls-22{fill:url(#linear-gradient-19);}</style><linearGradient id="linear-gradient" x1="87.86" y1="31.38" x2="85.23" y2="31.38" gradientUnits="userSpaceOnUse"><stop offset="0" stop-color="#caf0f8"/><stop offset="1" stop-color="#90e0ef"/></linearGradient><linearGradient id="linear-gradient-2" x1="50.48" y1="67.85" x2="75.59" y2="24.37" xlink:href="#linear-gradient"/><linearGradient id="linear-gradient-3" x1="15.31" y1="53.28" x2="35.19" y2="53.28" xlink:href="#linear-gradient"/><linearGradient id="linear-gradient-4" x1="40.84" y1="59.35" x2="35.17" y2="59.35" xlink:href="#linear-gradient"/><linearGradient id="linear-gradient-5" x1="19.91" y1="53.01" x2="82.82" y2="16.69" xlink:href="#linear-gradient"/><linearGradient id="linear-gradient-6" x1="18.27" y1="66.07" x2="33.81" y2="57.1" gradientUnits="userSpaceOnUse"><stop offset="0" stop-color="#00b4d8"/><stop offset="1" stop-color="#0096c7"/></linearGradient><linearGradient id="linear-gradient-7" x1="5.15" y1="61.79" x2="17.94" y2="61.79" xlink:href="#linear-gradient-6"/><linearGradient id="linear-gradient-8" x1="19.35" y1="65.56" x2="17.92" y2="65.56" xlink:href="#linear-gradient-6"/><linearGradient id="linear-gradient-9" x1="8.26" y1="61.22" x2="29.2" y2="49.13" xlink:href="#linear-gradient-6"/><linearGradient id="linear-gradient-10" x1="9.32" y1="55.33" x2="14.57" y2="55.33" xlink:href="#linear-gradient"/><linearGradient id="linear-gradient-11" x1="15.69" y1="59" x2="20.94" y2="59" xlink:href="#linear-gradient"/><linearGradient id="linear-gradient-12" x1="49.79" y1="73.12" x2="47.11" y2="73.12" xlink:href="#linear-gradient"/><linearGradient id="linear-gradient-13" x1="75.27" y1="78.05" x2="90.08" y2="78.05" xlink:href="#linear-gradient"/><linearGradient id="linear-gradient-14" x1="49.77" y1="78.66" x2="62.56" y2="78.66" xlink:href="#linear-gradient"/><linearGradient id="linear-gradient-15" x1="75.28" y1="83.11" x2="62.54" y2="83.11" xlink:href="#linear-gradient"/><linearGradient id="linear-gradient-16" x1="47.13" y1="68.01" x2="90.67" y2="68.01" xlink:href="#linear-gradient"/><linearGradient id="linear-gradient-17" x1="35.02" y1="36.31" x2="65.22" y2="36.31" gradientUnits="userSpaceOnUse"><stop offset="0" stop-color="#ffd500"/><stop offset="1" stop-color="#fdc500"/></linearGradient><linearGradient id="linear-gradient-18" x1="69.45" y1="21" x2="80.55" y2="21" xlink:href="#linear-gradient-17"/><linearGradient id="linear-gradient-19" x1="6.23" y1="58.84" x2="8.36" y2="58.84" xlink:href="#linear-gradient"/></defs><g id="Layer_4" data-name="Layer 4"><path class="cls-1" d="M87.86,26.29l0,6.52c0,1.33-.87,2.65-2.61,3.66V30C87,28.94,87.86,27.62,87.86,26.29Z"/><path class="cls-2" d="M15.33,44.29l0,6.52a2,2,0,0,1-1.18-1.65V42.63a2,2,0,0,0,1.19,1.66"/><polygon class="cls-3" points="85.24 29.95 85.23 36.47 40.82 62.28 40.84 55.76 85.24 29.95"/><polygon class="cls-4" points="35.19 55.76 35.17 62.28 15.31 50.81 15.33 44.29 35.19 55.76"/><path class="cls-5" d="M40.84,55.76l0,6.52a6.25,6.25,0,0,1-5.65,0l0-6.52A6.25,6.25,0,0,0,40.84,55.76Z"/><path class="cls-6" d="M85.2,22.58c3.53,2,3.55,5.33,0,7.37L40.84,55.76a6.25,6.25,0,0,1-5.65,0L15.33,44.29c-1.57-.91-1.58-2.38,0-3.28l44.41-25.8a14,14,0,0,1,12.72,0Z"/><path class="cls-7" d="M4.86,60.14V55.25a.49.49,0,0,0,.3.41l0,4.89A.5.5,0,0,1,4.86,60.14Z"/><polygon class="cls-8" points="32.74 55.25 32.73 60.14 19.34 67.92 19.35 63.03 32.74 55.25"/><polygon class="cls-9" points="17.94 63.03 17.92 67.92 5.15 60.55 5.17 55.66 17.94 63.03"/><path class="cls-10" d="M19.35,63v4.89a1.55,1.55,0,0,1-1.42,0l0-4.89A1.53,1.53,0,0,0,19.35,63Z"/><path class="cls-11" d="M32.74,55.25,19.35,63a1.53,1.53,0,0,1-1.41,0L5.17,55.66a.44.44,0,0,1,0-.82l13.39-7.78Z"/><path class="cls-12" d="M14.42,55.12a.22.22,0,0,1,0,.41l-2.11,1.23a.81.81,0,0,1-.71,0L9.47,55.53a.22.22,0,0,1,0-.41l2.11-1.23a.8.8,0,0,1,.71,0Z"/><path class="cls-13" d="M20.79,58.79a.22.22,0,0,1,0,.41l-2.11,1.23a.8.8,0,0,1-.71,0L15.84,59.2c-.2-.11-.2-.29,0-.41L18,57.57a.77.77,0,0,1,.71,0Z"/><path class="cls-14" d="M90.44,70.2a2.47,2.47,0,0,1-.36.29l0,6.52a1.94,1.94,0,0,0,.36-.29,1.4,1.4,0,0,0,.23-.52l0-6.52A1.15,1.15,0,0,1,90.44,70.2Z"/><path class="cls-15" d="M47.11,74.52l0-6.52c0,1.35.88,2.69,2.66,3.72l0,6.52C48,77.21,47.11,75.87,47.11,74.52Z"/><polygon class="cls-16" points="90.08 70.49 90.06 77.01 75.27 85.61 75.28 79.09 90.08 70.49"/><polygon class="cls-17" points="62.56 79.09 62.54 85.61 49.77 78.24 49.79 71.72 62.56 79.09"/><path class="cls-18" d="M68.88,80.61a13,13,0,0,1-6.32-1.52l0,6.52a13.9,13.9,0,0,0,6.32,1.52,14.56,14.56,0,0,0,6.41-1.52V79.09A13.59,13.59,0,0,1,68.88,80.61Z"/><path class="cls-19" d="M90.07,68.85a.87.87,0,0,1,0,1.64l-14.8,8.6a14,14,0,0,1-12.72,0L49.79,71.72c-3.53-2-3.55-5.34,0-7.38l14.79-8.6a3.14,3.14,0,0,1,2.83,0Z"/><path class="cls-20" d="M65.1,27.62c.1.06.15.14.1.23l-2.52,4.88c-.08.17-.45.22-.66.1l-2.26-1.31-12,7,6.12.55,2.39-1.39-.71-.41c-.78-.45-.79-1.18,0-1.63L58.36,34a3.1,3.1,0,0,1,2.83,0L64,35.61c.79.46.79,1.19,0,1.64l-2.82,1.64a3.11,3.11,0,0,1-2.82,0l-.71-.41-2.75,1.6a1.53,1.53,0,0,1-.81.16L46,39.51l-1.82,1.06c1.3,1.13,1.09,2.65-.61,3.65a7.82,7.82,0,0,1-7.08,0c-2-1.14-2-3,0-4.1a7.9,7.9,0,0,1,6.28-.37l.36-.21c-.59-1.21-2.68-5.43-2.69-5.45-.07-.18,0-.38.25-.53l2.91-1.69c-.9-.89-.71-2,.6-2.81a6.25,6.25,0,0,1,5.65,0c1.57.91,1.58,2.38,0,3.28a6.36,6.36,0,0,1-4.86.35l-2.5,1.45,2.22,4.47L58.34,30.7l-2.21-1.28c-.22-.12-.12-.33.16-.38l8.41-1.48A.62.62,0,0,1,65.1,27.62Z"/><path class="cls-21" d="M80,22.23l-7.09-4.1a3.12,3.12,0,0,0-2.84,0,.86.86,0,0,0,0,1.63l7.1,4.1a3.11,3.11,0,0,0,2.82,0,.87.87,0,0,0,0-1.64"/><polyline class="cls-22" points="8.36 58.84 6.24 57.62 6.23 60.06 8.36 58.84"/><polyline class="cls-14" points="16.87 63.76 8.36 58.84 6.23 60.06 16.86 66.2 16.87 63.76"/></g></svg>