<svg xmlns="http://www.w3.org/2000/svg" xmlns:xlink="http://www.w3.org/1999/xlink" viewBox="0 0 96 96"><defs><style>.cls-1{fill:#0096c7;}.cls-2{fill:url(#linear-gradient);}.cls-3{fill:url(#linear-gradient-2);}.cls-4{fill:url(#linear-gradient-3);}.cls-5{fill:url(#linear-gradient-4);}.cls-6{fill:#00b4d8;}.cls-7{fill:#90e0ef;}.cls-8{fill:url(#linear-gradient-5);}.cls-9{fill:url(#linear-gradient-6);}.cls-10{fill:url(#linear-gradient-7);}.cls-11{fill:url(#linear-gradient-8);}.cls-12{fill:url(#linear-gradient-9);}.cls-13{fill:url(#linear-gradient-10);}.cls-14{fill:url(#linear-gradient-11);}.cls-15{fill:url(#linear-gradient-12);}.cls-16{fill:url(#linear-gradient-13);}.cls-17{fill:url(#linear-gradient-14);}.cls-18{fill:url(#linear-gradient-15);}.cls-19{fill:url(#linear-gradient-16);}.cls-20{fill:url(#linear-gradient-17);}.cls-21{fill:url(#linear-gradient-18);}.cls-22{fill:url(#linear-gradient-19);}.cls-23{fill:#fdfcdc;}.cls-24{fill:url(#linear-gradient-20);}.cls-25{fill:url(#linear-gradient-21);}.cls-26{fill:#e5e2b7;}.cls-27{fill:url(#linear-gradient-22);}.cls-28{fill:url(#linear-gradient-23);}.cls-29{fill:url(#linear-gradient-24);}.cls-30{fill:url(#linear-gradient-25);}.cls-31{fill:url(#linear-gradient-26);}.cls-32{fill:url(#linear-gradient-27);}.cls-33{fill:url(#linear-gradient-28);}.cls-34{fill:url(#linear-gradient-29);}.cls-35{fill:url(#linear-gradient-30);}.cls-36{fill:url(#linear-gradient-31);}.cls-37{fill:url(#linear-gradient-32);}.cls-38{fill:url(#linear-gradient-33);}.cls-39{fill:url(#linear-gradient-34);}.cls-40{fill:url(#linear-gradient-35);}.cls-41{fill:url(#linear-gradient-36);}.cls-42{fill:url(#linear-gradient-37);}.cls-43{fill:url(#linear-gradient-38);}.cls-44{fill:url(#linear-gradient-39);}.cls-45{fill:url(#linear-gradient-40);}.cls-46{fill:url(#linear-gradient-41);}.cls-47{fill:url(#linear-gradient-42);}.cls-48{fill:url(#linear-gradient-43);}.cls-49{fill:url(#linear-gradient-44);}.cls-50{fill:url(#linear-gradient-45);}.cls-51{fill:#e9feff;}.cls-52{fill:url(#linear-gradient-46);}.cls-53{fill:url(#linear-gradient-47);}.cls-54{fill:url(#linear-gradient-48);}</style><linearGradient id="linear-gradient" x1="51.05" y1="71.46" x2="58.97" y2="76.03" gradientUnits="userSpaceOnUse"><stop offset="0" stop-color="#3e5368"/><stop offset="1" stop-color="#354c5b"/></linearGradient><linearGradient id="linear-gradient-2" x1="82.05" y1="53.46" x2="89.97" y2="58.03" xlink:href="#linear-gradient"/><linearGradient id="linear-gradient-3" x1="6.05" y1="45.46" x2="13.97" y2="50.03" xlink:href="#linear-gradient"/><linearGradient id="linear-gradient-4" x1="43.33" y1="43.26" x2="68.98" y2="58.07" gradientUnits="userSpaceOnUse"><stop offset="0" stop-color="#00b4d8"/><stop offset="1" stop-color="#0096c7"/></linearGradient><linearGradient id="linear-gradient-5" x1="5.53" y1="49.84" x2="23.32" y2="49.84" xlink:href="#linear-gradient-4"/><linearGradient id="linear-gradient-6" x1="19.78" y1="52.93" x2="40.28" y2="64.77" gradientUnits="userSpaceOnUse"><stop offset="0" stop-color="#caf0f8"/><stop offset="1" stop-color="#90e0ef"/></linearGradient><linearGradient id="linear-gradient-7" x1="41.15" y1="57.05" x2="55.09" y2="57.05" gradientUnits="userSpaceOnUse"><stop offset="0" stop-color="#ffd500"/><stop offset="1" stop-color="#fdc500"/></linearGradient><linearGradient id="linear-gradient-8" x1="33.26" y1="60.72" x2="55.89" y2="73.78" xlink:href="#linear-gradient-4"/><linearGradient id="linear-gradient-9" x1="56.6" y1="62.74" x2="90.48" y2="62.74" xlink:href="#linear-gradient-6"/><linearGradient id="linear-gradient-10" x1="52.35" y1="72.16" x2="53.82" y2="72.16" xlink:href="#linear-gradient-6"/><linearGradient id="linear-gradient-11" x1="56.65" y1="72.74" x2="53.77" y2="72.74" xlink:href="#linear-gradient-6"/><linearGradient id="linear-gradient-12" x1="4.99" y1="30.87" x2="59.97" y2="30.87" xlink:href="#linear-gradient-4"/><linearGradient id="linear-gradient-13" x1="32.51" y1="30.89" x2="82.16" y2="59.55" xlink:href="#linear-gradient-6"/><linearGradient id="linear-gradient-14" x1="73.9" y1="54" x2="88.09" y2="54" xlink:href="#linear-gradient-7"/><linearGradient id="linear-gradient-15" x1="73.9" y1="57" x2="88.09" y2="57" xlink:href="#linear-gradient-7"/><linearGradient id="linear-gradient-16" x1="73.9" y1="60" x2="88.09" y2="60" xlink:href="#linear-gradient-7"/><linearGradient id="linear-gradient-17" x1="73.9" y1="63" x2="88.09" y2="63" xlink:href="#linear-gradient-7"/><linearGradient id="linear-gradient-18" x1="60.28" y1="70" x2="61.72" y2="70" xlink:href="#linear-gradient-7"/><linearGradient id="linear-gradient-19" x1="43.22" y1="20.52" x2="43.52" y2="20.52" gradientUnits="userSpaceOnUse"><stop offset="0" stop-color="#fdfcdc"/><stop offset="1" stop-color="#e5e2b7"/></linearGradient><linearGradient id="linear-gradient-20" x1="41.82" y1="21.14" x2="43.23" y2="21.14" gradientUnits="userSpaceOnUse"><stop offset="0" stop-color="#e5e2b7"/><stop offset="1" stop-color="#fdfcdc"/></linearGradient><linearGradient id="linear-gradient-21" x1="38.98" y1="21.13" x2="40.4" y2="21.13" xlink:href="#linear-gradient-19"/><linearGradient id="linear-gradient-22" x1="39.25" y1="18.84" x2="42.96" y2="20.98" xlink:href="#linear-gradient-19"/><linearGradient id="linear-gradient-23" x1="47.48" y1="22.98" x2="47.77" y2="22.98" xlink:href="#linear-gradient-19"/><linearGradient id="linear-gradient-24" x1="46.07" y1="23.59" x2="47.48" y2="23.59" xlink:href="#linear-gradient-20"/><linearGradient id="linear-gradient-25" x1="43.24" y1="23.59" x2="44.66" y2="23.59" xlink:href="#linear-gradient-19"/><linearGradient id="linear-gradient-26" x1="43.51" y1="21.3" x2="47.21" y2="23.43" xlink:href="#linear-gradient-19"/><linearGradient id="linear-gradient-27" x1="39" y1="22.98" x2="39.29" y2="22.98" xlink:href="#linear-gradient-19"/><linearGradient id="linear-gradient-28" x1="37.58" y1="23.59" x2="39" y2="23.59" xlink:href="#linear-gradient-20"/><linearGradient id="linear-gradient-29" x1="34.75" y1="23.59" x2="36.17" y2="23.59" xlink:href="#linear-gradient-19"/><linearGradient id="linear-gradient-30" x1="35.02" y1="21.29" x2="38.73" y2="23.44" xlink:href="#linear-gradient-19"/><linearGradient id="linear-gradient-31" x1="43.25" y1="25.43" x2="43.54" y2="25.43" xlink:href="#linear-gradient-19"/><linearGradient id="linear-gradient-32" x1="41.84" y1="26.05" x2="43.25" y2="26.05" xlink:href="#linear-gradient-20"/><linearGradient id="linear-gradient-33" x1="39.01" y1="26.05" x2="40.43" y2="26.05" xlink:href="#linear-gradient-19"/><linearGradient id="linear-gradient-34" x1="39.28" y1="23.75" x2="42.98" y2="25.89" xlink:href="#linear-gradient-19"/><linearGradient id="linear-gradient-35" x1="33.36" y1="26.05" x2="34.77" y2="26.05" xlink:href="#linear-gradient-20"/><linearGradient id="linear-gradient-36" x1="30.52" y1="26.05" x2="31.94" y2="26.05" xlink:href="#linear-gradient-19"/><linearGradient id="linear-gradient-37" x1="30.79" y1="23.75" x2="34.5" y2="25.89" xlink:href="#linear-gradient-19"/><linearGradient id="linear-gradient-38" x1="39.31" y1="27.89" x2="39.02" y2="27.89" xlink:href="#linear-gradient-7"/><linearGradient id="linear-gradient-39" x1="34.78" y1="27.89" x2="34.49" y2="27.89" xlink:href="#linear-gradient-7"/><linearGradient id="linear-gradient-40" x1="37.61" y1="28.51" x2="39.02" y2="28.51" xlink:href="#linear-gradient-7"/><linearGradient id="linear-gradient-41" x1="34.78" y1="28.51" x2="36.2" y2="28.51" xlink:href="#linear-gradient-7"/><linearGradient id="linear-gradient-42" x1="37.61" y1="29" x2="36.2" y2="29" xlink:href="#linear-gradient-7"/><linearGradient id="linear-gradient-43" x1="34.49" y1="27.28" x2="39.31" y2="27.28" xlink:href="#linear-gradient-7"/><linearGradient id="linear-gradient-44" x1="39.18" y1="67.5" x2="49.82" y2="67.5" gradientUnits="userSpaceOnUse"><stop offset="0" stop-color="#dcf7ff"/><stop offset="1" stop-color="#c3edfd"/></linearGradient><linearGradient id="linear-gradient-45" x1="40.6" y1="67.5" x2="48.4" y2="67.5" gradientUnits="userSpaceOnUse"><stop offset="0" stop-color="#c3edfd"/><stop offset="1" stop-color="#dcf7ff"/></linearGradient><linearGradient id="linear-gradient-46" x1="37.35" y1="49.88" x2="40.77" y2="49.88" xlink:href="#linear-gradient-7"/><linearGradient id="linear-gradient-47" x1="35.23" y1="51.11" x2="38.65" y2="51.11" xlink:href="#linear-gradient-7"/><linearGradient id="linear-gradient-48" x1="19.34" y1="31" x2="34.66" y2="31" xlink:href="#linear-gradient-44"/></defs><g id="Layer_15" data-name="Layer 15"><path class="cls-1" d="M60,73.76l0,6.52a2.47,2.47,0,0,1-1.45,2,7.82,7.82,0,0,1-7.08,0A2.52,2.52,0,0,1,50,80.25l0-6.52a2.52,2.52,0,0,0,1.47,2.06,7.82,7.82,0,0,0,7.08,0A2.47,2.47,0,0,0,60,73.76Z"/><path class="cls-2" d="M58.53,71.69c2,1.13,2,3,0,4.1a7.82,7.82,0,0,1-7.08,0c-1.95-1.13-2-3,0-4.1A7.78,7.78,0,0,1,58.53,71.69Z"/><path class="cls-1" d="M91,55.76l0,6.52a2.49,2.49,0,0,1-1.45,2,7.8,7.8,0,0,1-7.07,0A2.51,2.51,0,0,1,81,62.25l0-6.52a2.51,2.51,0,0,0,1.48,2.06,7.8,7.8,0,0,0,7.07,0A2.5,2.5,0,0,0,91,55.76Z"/><path class="cls-3" d="M89.53,53.69c2,1.14,2,3,0,4.1a7.8,7.8,0,0,1-7.07,0c-2-1.13-2-3,0-4.1A7.8,7.8,0,0,1,89.53,53.69Z"/><path class="cls-1" d="M15,47.76l0,6.52a2.49,2.49,0,0,1-1.45,2,7.82,7.82,0,0,1-7.08,0A2.52,2.52,0,0,1,5,54.25l0-6.52a2.52,2.52,0,0,0,1.47,2.06,7.82,7.82,0,0,0,7.08,0A2.49,2.49,0,0,0,15,47.76Z"/><path class="cls-4" d="M13.53,45.69c2,1.13,2,3,0,4.1a7.82,7.82,0,0,1-7.08,0c-1.95-1.13-2-3,0-4.1A7.78,7.78,0,0,1,13.53,45.69Z"/><path class="cls-5" d="M70.67,43.94c-4.31-2.49-11.27-2.49-15.55,0L36.79,54.59l15.61,9L70.72,53C75,50.46,75,46.43,70.67,43.94Z"/><path class="cls-6" d="M5.58,36.57l0,16.3a1,1,0,0,1-.59-.82l0-16.3a1,1,0,0,0,.59.82"/><path class="cls-7" d="M91.06,44l0,16.3a1,1,0,0,1-.57.81l0-16.3a1,1,0,0,0,.58-.81"/><polygon class="cls-8" points="23.32 46.81 23.27 63.11 5.53 52.87 5.58 36.57 23.32 46.81"/><polygon class="cls-9" points="36.79 54.59 36.75 70.9 23.27 63.11 23.32 46.81 36.79 54.59"/><path class="cls-10" d="M54.5,59.1a.86.86,0,0,1,0,1.63,3.1,3.1,0,0,1-2.83,0L41.74,55a.87.87,0,0,1,0-1.64,3.11,3.11,0,0,1,2.82,0Z"/><polygon class="cls-11" points="52.4 63.6 52.35 79.91 36.75 70.9 36.79 54.59 52.4 63.6"/><polygon class="cls-12" points="90.48 44.76 90.44 61.06 56.6 80.73 56.65 64.42 90.48 44.76"/><polygon class="cls-13" points="53.82 64.42 53.77 80.72 52.35 79.91 52.4 63.6 53.82 64.42"/><path class="cls-14" d="M56.65,64.42l0,16.31a3.1,3.1,0,0,1-2.83,0l0-16.3a3.1,3.1,0,0,0,2.83,0"/><path class="cls-15" d="M60,25.51,23.32,46.81,5.58,36.57a.87.87,0,0,1,0-1.64L39.4,15.27a3.13,3.13,0,0,1,2.83,0Z"/><path class="cls-16" d="M90.47,43.12a.87.87,0,0,1,0,1.64L56.65,64.42a3.1,3.1,0,0,1-2.83,0L52.4,63.6,70.72,53c4.29-2.49,4.26-6.52,0-9s-11.27-2.49-15.55,0L36.79,54.59,23.32,46.81,60,25.51Z"/><path class="cls-17" d="M87.38,49.5,74.61,56.87a1.57,1.57,0,0,0-.71,1.23.43.43,0,0,0,.71.4l12.77-7.37a1.56,1.56,0,0,0,.71-1.22c0-.46-.31-.64-.71-.41"/><path class="cls-18" d="M87.38,52.5,74.61,59.87a1.58,1.58,0,0,0-.71,1.22c0,.46.33.63.71.41l12.77-7.37a1.54,1.54,0,0,0,.71-1.23c0-.44-.31-.63-.71-.4"/><path class="cls-19" d="M87.38,55.5,74.61,62.87a1.55,1.55,0,0,0-.71,1.22c0,.46.33.64.71.41l12.77-7.37a1.54,1.54,0,0,0,.71-1.23c0-.45-.31-.63-.71-.4"/><path class="cls-20" d="M87.38,58.5,74.61,65.87a1.57,1.57,0,0,0-.71,1.23.43.43,0,0,0,.71.4l12.77-7.37a1.56,1.56,0,0,0,.71-1.22c0-.46-.31-.64-.71-.41"/><path class="cls-21" d="M61,64.3a1.53,1.53,0,0,0-.7,1.22l0,9.78c0,.45.33.63.72.4a1.57,1.57,0,0,0,.7-1.22l0-9.78c0-.45-.32-.63-.71-.4"/><path class="cls-22" d="M43.52,19.91v.82a.47.47,0,0,1-.29.4v-.81a.5.5,0,0,0,.29-.41"/><path class="cls-23" d="M39,20.32v.81a.48.48,0,0,1-.29-.41V19.9a.53.53,0,0,0,.29.42"/><polygon class="cls-24" points="43.23 20.32 43.22 21.14 41.81 21.95 41.82 21.14 43.23 20.32"/><polygon class="cls-25" points="40.4 21.13 40.4 21.95 38.98 21.13 38.98 20.32 40.4 21.13"/><path class="cls-26" d="M41.82,21.14V22a1.55,1.55,0,0,1-1.42,0v-.82a1.58,1.58,0,0,0,1.42,0"/><path class="cls-27" d="M43.21,19.5c.4.23.41.59,0,.82l-1.41.82a1.58,1.58,0,0,1-1.42,0L39,20.32a.43.43,0,0,1,0-.82l1.4-.82a1.55,1.55,0,0,1,1.42,0Z"/><path class="cls-28" d="M47.77,22.37v.81a.5.5,0,0,1-.29.41v-.82a.5.5,0,0,0,.29-.4"/><path class="cls-23" d="M43.24,22.77v.82a.49.49,0,0,1-.3-.41v-.82a.48.48,0,0,0,.29.41"/><polygon class="cls-29" points="47.48 22.77 47.48 23.59 46.07 24.41 46.07 23.59 47.48 22.77"/><polygon class="cls-30" points="44.66 23.59 44.66 24.41 43.24 23.59 43.24 22.77 44.66 23.59"/><path class="cls-26" d="M46.07,23.59v.82a1.61,1.61,0,0,1-1.42,0v-.82a1.53,1.53,0,0,0,1.41,0"/><path class="cls-31" d="M47.47,22c.39.22.4.59,0,.81l-1.41.82a1.53,1.53,0,0,1-1.41,0l-1.42-.82a.43.43,0,0,1,0-.81l1.4-.82a1.55,1.55,0,0,1,1.42,0Z"/><path class="cls-32" d="M39.29,22.37v.81a.5.5,0,0,1-.29.41v-.82a.49.49,0,0,0,.29-.4"/><path class="cls-23" d="M34.75,22.77v.82a.49.49,0,0,1-.3-.41v-.82a.48.48,0,0,0,.29.41"/><polygon class="cls-33" points="39 22.77 39 23.59 37.59 24.41 37.59 23.6 39 22.77"/><polygon class="cls-34" points="36.17 23.59 36.16 24.41 34.75 23.59 34.75 22.77 36.17 23.59"/><path class="cls-26" d="M37.59,23.6v.81a1.53,1.53,0,0,1-1.41,0v-.82a1.58,1.58,0,0,0,1.42,0"/><path class="cls-35" d="M39,22c.4.23.4.6,0,.82l-1.41.83a1.58,1.58,0,0,1-1.42,0l-1.42-.82a.43.43,0,0,1,0-.81l1.41-.83a1.59,1.59,0,0,1,1.41,0Z"/><path class="cls-36" d="M43.54,24.82v.82a.49.49,0,0,1-.29.4v-.81a.48.48,0,0,0,.29-.41"/><path class="cls-23" d="M39,25.23v.82a.49.49,0,0,1-.3-.41v-.82a.48.48,0,0,0,.29.41"/><polygon class="cls-37" points="43.25 25.23 43.25 26.05 41.84 26.87 41.84 26.05 43.25 25.23"/><polygon class="cls-38" points="40.43 26.05 40.42 26.87 39.01 26.05 39.01 25.23 40.43 26.05"/><path class="cls-26" d="M41.84,26.05v.82a1.61,1.61,0,0,1-1.42,0v-.82a1.53,1.53,0,0,0,1.41,0"/><path class="cls-39" d="M43.25,24.41a.43.43,0,0,1,0,.82l-1.41.82a1.53,1.53,0,0,1-1.41,0L39,25.23a.44.44,0,0,1,0-.82l1.42-.82a1.59,1.59,0,0,1,1.41,0Z"/><path class="cls-23" d="M35.06,24.83v.81a.5.5,0,0,1-.29.41v-.82a.49.49,0,0,0,.29-.4"/><path class="cls-23" d="M30.53,25.23V26a.5.5,0,0,1-.29-.41v-.81a.49.49,0,0,0,.3.41"/><polygon class="cls-40" points="34.77 25.23 34.77 26.05 33.36 26.87 33.36 26.05 34.77 25.23"/><polygon class="cls-41" points="31.94 26.05 31.94 26.86 30.52 26.05 30.53 25.23 31.94 26.05"/><path class="cls-26" d="M33.36,26.05v.82a1.55,1.55,0,0,1-1.42,0v-.81a1.55,1.55,0,0,0,1.42,0"/><path class="cls-42" d="M34.76,24.41c.4.23.4.6,0,.82l-1.41.82a1.55,1.55,0,0,1-1.42,0l-1.41-.82c-.39-.23-.4-.59,0-.82l1.41-.82a1.59,1.59,0,0,1,1.41,0Z"/><path class="cls-43" d="M39.31,27.28v.82a.5.5,0,0,1-.29.4v-.81a.5.5,0,0,0,.29-.41"/><path class="cls-44" d="M34.78,27.69v.81a.5.5,0,0,1-.29-.41v-.81a.51.51,0,0,0,.29.41"/><polygon class="cls-45" points="39.02 27.69 39.02 28.5 37.61 29.32 37.62 28.51 39.02 27.69"/><polygon class="cls-46" points="36.2 28.51 36.2 29.32 34.78 28.5 34.78 27.69 36.2 28.51"/><path class="cls-47" d="M37.61,28.51v.81a1.53,1.53,0,0,1-1.41,0v-.81a1.56,1.56,0,0,0,1.41,0"/><path class="cls-48" d="M39,26.87a.43.43,0,0,1,0,.82l-1.41.82a1.56,1.56,0,0,1-1.41,0l-1.42-.82a.43.43,0,0,1,0-.82l1.41-.82a1.59,1.59,0,0,1,1.41,0Z"/><path class="cls-49" d="M44.52,61.38c-2.94-1.69-5.33-.33-5.34,3.05a11.7,11.7,0,0,0,5.3,9.18c2.94,1.7,5.33.34,5.34-3A11.71,11.71,0,0,0,44.52,61.38Z"/><path class="cls-50" d="M44.51,63c-2.15-1.25-3.9-.25-3.91,2.23A8.58,8.58,0,0,0,44.49,72c2.15,1.24,3.9.24,3.91-2.23A8.55,8.55,0,0,0,44.51,63Z"/><path class="cls-51" d="M44.5,66.28c-.58-.34-1.06-.07-1.07.61a2.34,2.34,0,0,0,1.07,1.83c.58.34,1.06.07,1.06-.61a2.33,2.33,0,0,0-1.06-1.83"/><path class="cls-52" d="M40.47,49.88l-1.42-.81a1.53,1.53,0,0,0-1.41,0,.43.43,0,0,0,0,.82l1.42.82a1.58,1.58,0,0,0,1.42,0c.38-.22.38-.59,0-.82"/><path class="cls-53" d="M38.35,51.11l-1.41-.81a1.55,1.55,0,0,0-1.42,0,.43.43,0,0,0,0,.81l1.42.82a1.53,1.53,0,0,0,1.41,0c.39-.23.38-.59,0-.82"/><path class="cls-54" d="M34.07,31,27,26.91a3.07,3.07,0,0,0-2.83,0l-4.23,2.46a.86.86,0,0,0,0,1.63L27,35.1a3.13,3.13,0,0,0,2.83,0l4.23-2.46c.78-.45.78-1.18,0-1.64"/><polygon class="cls-51" points="23.43 33.02 33.31 30.56 31.18 29.33 21.3 31.79 23.43 33.02"/><path class="cls-51" d="M29.05,28.11,19.43,30.5a1.2,1.2,0,0,0,.5.5l.66.38,9.88-2.46Z"/></g></svg>