<svg xmlns="http://www.w3.org/2000/svg" xmlns:xlink="http://www.w3.org/1999/xlink" viewBox="0 0 96 96"><defs><style>.cls-1{fill:url(#linear-gradient);}.cls-2{fill:#90e0ef;}.cls-3{fill:url(#linear-gradient-2);}.cls-4{fill:url(#linear-gradient-3);}.cls-5{fill:url(#linear-gradient-4);}.cls-6{fill:url(#linear-gradient-5);}.cls-7{fill:url(#linear-gradient-6);}.cls-8{fill:url(#linear-gradient-7);}.cls-9{fill:#caf0f8;}.cls-10{fill:url(#linear-gradient-8);}.cls-11{fill:url(#linear-gradient-9);}.cls-12{fill:url(#linear-gradient-10);}.cls-13{fill:url(#linear-gradient-11);}.cls-14{fill:url(#linear-gradient-12);}.cls-15{fill:url(#linear-gradient-13);}.cls-16{fill:url(#linear-gradient-14);}.cls-17{fill:url(#linear-gradient-15);}.cls-18{fill:url(#linear-gradient-16);}.cls-19{fill:url(#linear-gradient-17);}.cls-20{fill:url(#linear-gradient-18);}.cls-21{fill:url(#linear-gradient-19);}.cls-22{fill:url(#linear-gradient-20);}.cls-23{fill:url(#linear-gradient-21);}.cls-24{fill:url(#linear-gradient-22);}.cls-25{fill:url(#linear-gradient-23);}.cls-26{fill:url(#linear-gradient-24);}.cls-27{fill:url(#linear-gradient-25);}.cls-28{fill:url(#linear-gradient-26);}.cls-29{fill:url(#linear-gradient-27);}.cls-30{fill:url(#linear-gradient-28);}.cls-31{fill:url(#linear-gradient-29);}.cls-32{fill:url(#linear-gradient-30);}.cls-33{fill:url(#linear-gradient-31);}.cls-34{fill:url(#linear-gradient-32);}.cls-35{fill:url(#linear-gradient-33);}.cls-36{fill:url(#linear-gradient-34);}.cls-37{fill:url(#linear-gradient-35);}.cls-38{fill:url(#linear-gradient-36);}.cls-39{fill:url(#linear-gradient-37);}.cls-40{fill:url(#linear-gradient-38);}.cls-41{fill:url(#linear-gradient-39);}.cls-42{fill:url(#linear-gradient-40);}.cls-43{fill:url(#linear-gradient-41);}.cls-44{fill:url(#linear-gradient-42);}.cls-45{fill:url(#linear-gradient-43);}.cls-46{fill:url(#linear-gradient-44);}.cls-47{fill:url(#linear-gradient-45);}.cls-48{fill:#efb600;}.cls-49{fill:url(#linear-gradient-46);}.cls-50{fill:url(#linear-gradient-47);}.cls-51{fill:url(#linear-gradient-48);}.cls-52{fill:url(#linear-gradient-49);}.cls-53{fill:url(#linear-gradient-50);}.cls-54{fill:url(#linear-gradient-51);}.cls-55{fill:url(#linear-gradient-52);}.cls-56{fill:url(#linear-gradient-53);}.cls-57{fill:#e9feff;}</style><linearGradient id="linear-gradient" x1="20.36" y1="21.34" x2="43.32" y2="21.34" gradientUnits="userSpaceOnUse"><stop offset="0" stop-color="#90e0ef"/><stop offset="1" stop-color="#caf0f8"/></linearGradient><linearGradient id="linear-gradient-2" x1="63.08" y1="38.53" x2="82.7" y2="49.86" xlink:href="#linear-gradient"/><linearGradient id="linear-gradient-3" x1="17.21" y1="50.66" x2="45.91" y2="21.96" xlink:href="#linear-gradient"/><linearGradient id="linear-gradient-4" x1="29.78" y1="43.24" x2="36.3" y2="43.24" xlink:href="#linear-gradient"/><linearGradient id="linear-gradient-5" x1="29.86" y1="25.1" x2="49.71" y2="25.1" xlink:href="#linear-gradient"/><linearGradient id="linear-gradient-6" x1="55.06" y1="75.55" x2="31.02" y2="33.91" xlink:href="#linear-gradient"/><linearGradient id="linear-gradient-7" x1="59.72" y1="60.05" x2="54.71" y2="60.05" xlink:href="#linear-gradient"/><linearGradient id="linear-gradient-8" x1="74.53" y1="62.51" x2="85.19" y2="62.51" xlink:href="#linear-gradient"/><linearGradient id="linear-gradient-9" x1="59.63" y1="62.1" x2="71.77" y2="62.1" xlink:href="#linear-gradient"/><linearGradient id="linear-gradient-10" x1="74.61" y1="65.75" x2="71.69" y2="65.75" xlink:href="#linear-gradient"/><linearGradient id="linear-gradient-11" x1="29" y1="24.51" x2="22" y2="24.51" gradientUnits="userSpaceOnUse"><stop offset="0" stop-color="#ffd500"/><stop offset="1" stop-color="#fdc500"/></linearGradient><linearGradient id="linear-gradient-12" x1="22" y1="22.69" x2="29" y2="22.69" gradientTransform="translate(48.12 -2.88) rotate(89.84)" xlink:href="#linear-gradient-11"/><linearGradient id="linear-gradient-13" x1="32" y1="19.93" x2="29" y2="19.93" xlink:href="#linear-gradient-11"/><linearGradient id="linear-gradient-14" x1="29" y1="19.09" x2="32" y2="19.09" xlink:href="#linear-gradient-11"/><linearGradient id="linear-gradient-15" x1="36" y1="21.93" x2="33" y2="21.93" xlink:href="#linear-gradient-11"/><linearGradient id="linear-gradient-16" x1="33" y1="21.09" x2="36" y2="21.09" xlink:href="#linear-gradient-11"/><linearGradient id="linear-gradient-17" x1="79.01" y1="45.08" x2="68" y2="45.08" xlink:href="#linear-gradient-11"/><linearGradient id="linear-gradient-18" x1="68" y1="42.28" x2="79.01" y2="42.28" xlink:href="#linear-gradient-11"/><linearGradient id="linear-gradient-19" x1="28.21" y1="50.86" x2="35.29" y2="38.58" gradientUnits="userSpaceOnUse"><stop offset="0" stop-color="#00b4d8"/><stop offset="1" stop-color="#0096c7"/></linearGradient><linearGradient id="linear-gradient-20" x1="32" y1="64.2" x2="51.08" y2="53.19" xlink:href="#linear-gradient-19"/><linearGradient id="linear-gradient-21" x1="17.25" y1="54.3" x2="44.18" y2="69.84" gradientTransform="translate(35.35 -7.03) rotate(30.16)" xlink:href="#linear-gradient-19"/><linearGradient id="linear-gradient-22" x1="30.45" y1="49.18" x2="19.55" y2="49.18" xlink:href="#linear-gradient-11"/><linearGradient id="linear-gradient-23" x1="27.63" y1="63.4" x2="41.76" y2="63.4" xlink:href="#linear-gradient-11"/><linearGradient id="linear-gradient-24" x1="12.18" y1="66.03" x2="36.3" y2="66.03" gradientTransform="translate(36.46 -3.24) rotate(30.16)" xlink:href="#linear-gradient-19"/><linearGradient id="linear-gradient-25" x1="50.88" y1="16.67" x2="53.21" y2="12.63" xlink:href="#linear-gradient-19"/><linearGradient id="linear-gradient-26" x1="69.67" y1="38.78" x2="74.79" y2="35.83" xlink:href="#linear-gradient-19"/><linearGradient id="linear-gradient-27" x1="59.52" y1="21.17" x2="61.64" y2="17.5" xlink:href="#linear-gradient-19"/><linearGradient id="linear-gradient-28" x1="67.85" y1="31.25" x2="74.52" y2="31.25" xlink:href="#linear-gradient-19"/><linearGradient id="linear-gradient-29" x1="67.47" y1="26.75" x2="71.15" y2="23.07" xlink:href="#linear-gradient-19"/><linearGradient id="linear-gradient-30" x1="46.84" y1="20.12" x2="72.52" y2="34.95" xlink:href="#linear-gradient-19"/><linearGradient id="linear-gradient-31" x1="49.81" y1="21.96" x2="34.7" y2="21.96" xlink:href="#linear-gradient"/><linearGradient id="linear-gradient-32" x1="64.59" y1="26.32" x2="35.71" y2="26.32" xlink:href="#linear-gradient"/><linearGradient id="linear-gradient-33" x1="52.51" y1="37.19" x2="63.95" y2="25.75" xlink:href="#linear-gradient"/><linearGradient id="linear-gradient-34" x1="42.07" y1="19.71" x2="47.03" y2="22.58" xlink:href="#linear-gradient-19"/><linearGradient id="linear-gradient-35" x1="42.52" y1="19.85" x2="48.5" y2="23.3" xlink:href="#linear-gradient-19"/><linearGradient id="linear-gradient-36" x1="43.58" y1="21.28" x2="50.27" y2="25.14" xlink:href="#linear-gradient-19"/><linearGradient id="linear-gradient-37" x1="45.35" y1="23.12" x2="54.17" y2="28.21" xlink:href="#linear-gradient-19"/><linearGradient id="linear-gradient-38" x1="49.66" y1="25.48" x2="54.62" y2="28.35" xlink:href="#linear-gradient-19"/><linearGradient id="linear-gradient-39" x1="53.03" y1="28.65" x2="57.68" y2="31.34" xlink:href="#linear-gradient-19"/><linearGradient id="linear-gradient-40" x1="50.58" y1="24.62" x2="55.55" y2="27.49" xlink:href="#linear-gradient-19"/><linearGradient id="linear-gradient-41" x1="52.8" y1="27.42" x2="58.07" y2="30.46" xlink:href="#linear-gradient-19"/><linearGradient id="linear-gradient-42" x1="51.03" y1="24.77" x2="57.02" y2="28.22" xlink:href="#linear-gradient-19"/><linearGradient id="linear-gradient-43" x1="39.5" y1="28.33" x2="50.86" y2="28.33" xlink:href="#linear-gradient-19"/><linearGradient id="linear-gradient-44" x1="52.27" y1="25.89" x2="57.9" y2="29.14" xlink:href="#linear-gradient-19"/><linearGradient id="linear-gradient-45" x1="62.31" y1="72" x2="68.7" y2="72" xlink:href="#linear-gradient-11"/><linearGradient id="linear-gradient-46" x1="65.73" y1="54.5" x2="69.28" y2="54.5" xlink:href="#linear-gradient-11"/><linearGradient id="linear-gradient-47" x1="13.94" y1="60.08" x2="34.53" y2="71.96" gradientUnits="userSpaceOnUse"><stop offset="0" stop-color="#dcf7ff"/><stop offset="1" stop-color="#c3edfd"/></linearGradient><linearGradient id="linear-gradient-48" x1="19.98" y1="53.8" x2="23.53" y2="47.65" xlink:href="#linear-gradient-19"/><linearGradient id="linear-gradient-49" x1="25.53" y1="68.17" x2="37.55" y2="61.23" xlink:href="#linear-gradient-19"/><linearGradient id="linear-gradient-50" x1="76" y1="42.22" x2="71" y2="42.22" gradientUnits="userSpaceOnUse"><stop offset="0" stop-color="#fdfcdc"/><stop offset="1" stop-color="#e5e2b7"/></linearGradient><linearGradient id="linear-gradient-51" x1="71.52" y1="39.95" x2="75.48" y2="42.23" xlink:href="#linear-gradient-50"/><linearGradient id="linear-gradient-52" x1="52.07" y1="42.56" x2="68.62" y2="33" xlink:href="#linear-gradient"/><linearGradient id="linear-gradient-53" x1="54.78" y1="36.6" x2="31.37" y2="36.6" xlink:href="#linear-gradient"/></defs><g id="Layer_23" data-name="Layer 23"><path class="cls-1" d="M43.32,19.36,30.63,26.74a6.12,6.12,0,0,1-.77.38,9.47,9.47,0,0,1-7.72-.38c-2.36-1.36-2.38-3.56,0-4.92l11.27-6.55a3.09,3.09,0,0,1,2.84,0Z"/><path class="cls-2" d="M31.78,19.52a.65.65,0,0,1,0,1.23,2.31,2.31,0,0,1-2.11,0,.65.65,0,0,1,0-1.23A2.36,2.36,0,0,1,31.78,19.52Z"/><path class="cls-2" d="M35.78,21.57a.65.65,0,0,1,0,1.23,2.35,2.35,0,0,1-2.13,0,.65.65,0,0,1,0-1.23A2.33,2.33,0,0,1,35.78,21.57Z"/><ellipse class="cls-2" cx="25.73" cy="24.87" rx="2.03" ry="3.69" transform="translate(0.8 50.53) rotate(-89.85)"/><path class="cls-3" d="M73.12,36.57l.09,0,12,6.91a.87.87,0,0,1,0,1.64L74.61,51.32a3.16,3.16,0,0,1-2.84,0l-12-7Z"/><path class="cls-2" d="M78.08,43.56c2.36,1.25,2.38,3.26,0,4.51a10.24,10.24,0,0,1-8.53,0c-2.37-1.25-2.38-3.27,0-4.51A10.27,10.27,0,0,1,78.08,43.56Z"/><path class="cls-4" d="M20.28,52.79l.08-28.53a3,3,0,0,0,1.78,2.48,9.47,9.47,0,0,0,7.72.38,6.12,6.12,0,0,0,.77-.38l12.69-7.38-.09,28.53L30.55,55.27a6.12,6.12,0,0,1-.77.38,9.47,9.47,0,0,1-7.72-.38A3,3,0,0,1,20.28,52.79Z"/><polygon class="cls-5" points="36.3 30.84 36.22 59.37 29.78 55.65 29.86 27.12 36.3 30.84"/><path class="cls-6" d="M49.71,23.05,36.3,30.84l-6.44-3.72a6.12,6.12,0,0,0,.77-.38l12.69-7.38L49.6,23Z"/><polygon class="cls-7" points="54.79 47.22 54.71 75.75 31.29 62.23 31.38 33.7 54.79 47.22"/><polygon class="cls-8" points="59.72 44.36 59.63 72.89 54.71 75.75 54.79 47.22 59.72 44.36"/><path class="cls-9" d="M85.77,44.36l-.09,28.53a1,1,0,0,1-.57.81l.08-28.53A1,1,0,0,0,85.77,44.36Z"/><polygon class="cls-10" points="85.19 45.17 85.11 73.7 74.53 79.85 74.61 51.32 85.19 45.17"/><polygon class="cls-11" points="71.77 51.32 71.69 79.85 59.63 72.89 59.72 44.36 71.77 51.32"/><path class="cls-12" d="M74.61,51.32l-.08,28.53a3.16,3.16,0,0,1-2.84,0l.08-28.53A3.16,3.16,0,0,0,74.61,51.32Z"/><path class="cls-13" d="M29,22.7v1.63a1.73,1.73,0,0,1-1,1.42,5.47,5.47,0,0,1-4.95,0,1.73,1.73,0,0,1-1-1.44V22.68a1.75,1.75,0,0,0,1,1.44,5.47,5.47,0,0,0,4.95,0A1.73,1.73,0,0,0,29,22.7Z"/><ellipse class="cls-14" cx="25.5" cy="22.69" rx="2.03" ry="3.5" transform="translate(2.74 48.12) rotate(-89.84)"/><path class="cls-15" d="M32,19.1v.81a.75.75,0,0,1-.44.61,2.36,2.36,0,0,1-2.12,0,.77.77,0,0,1-.44-.62v-.82a.75.75,0,0,0,.45.62,2.31,2.31,0,0,0,2.11,0A.75.75,0,0,0,32,19.1Z"/><path class="cls-16" d="M31.56,18.48a.65.65,0,0,1,0,1.23,2.31,2.31,0,0,1-2.11,0,.65.65,0,0,1,0-1.23A2.33,2.33,0,0,1,31.56,18.48Z"/><path class="cls-17" d="M36,21.1v.81a.74.74,0,0,1-.43.61,2.35,2.35,0,0,1-2.13,0,.75.75,0,0,1-.44-.61v-.82a.74.74,0,0,0,.44.61,2.35,2.35,0,0,0,2.13,0A.71.71,0,0,0,36,21.1Z"/><path class="cls-18" d="M35.56,20.48c.58.34.59.89,0,1.22a2.35,2.35,0,0,1-2.13,0,.65.65,0,0,1,0-1.22A2.33,2.33,0,0,1,35.56,20.48Z"/><path class="cls-19" d="M79,42.3v2.44A2.74,2.74,0,0,1,77.4,47a8.6,8.6,0,0,1-7.78,0A2.75,2.75,0,0,1,68,44.7V42.26a2.76,2.76,0,0,0,1.63,2.27,8.6,8.6,0,0,0,7.78,0A2.75,2.75,0,0,0,79,42.3Z"/><path class="cls-20" d="M77.38,40c2.15,1.24,2.17,3.26,0,4.5a8.6,8.6,0,0,1-7.78,0c-2.16-1.24-2.17-3.26,0-4.51A8.57,8.57,0,0,1,77.38,40Z"/><path class="cls-21" d="M22.17,47.37l10.58-6.14c2.19-1.28,5.23-1.1,8.58.84L30.75,48.21C27.4,46.28,24.37,46.1,22.17,47.37Z"/><path class="cls-22" d="M49.83,70.62,39.26,76.77c2.16-1.26,3.5-3.93,3.52-7.74,0-7.65-5.37-17-12-20.82l10.58-6.14c6.66,3.84,12,13.17,12,20.82C53.34,66.69,52,69.37,49.83,70.62Z"/><ellipse class="cls-23" cx="30.72" cy="62.07" rx="9.85" ry="17" transform="translate(-27.03 23.84) rotate(-30.16)"/><path class="cls-24" d="M19.55,50l2.82-1.64c2.06-1.2,4.92-1,8.08.79l-2.82,1.64C24.47,49,21.61,48.79,19.55,50Z"/><path class="cls-25" d="M38.45,76l-2.82,1.64c2-1.18,3.3-3.7,3.31-7.27,0-7.21-5-16-11.31-19.6l2.82-1.64c6.27,3.62,11.33,12.39,11.31,19.6C41.75,72.31,40.49,74.83,38.45,76Z"/><ellipse class="cls-26" cx="24.24" cy="66.03" rx="9.85" ry="17" transform="matrix(0.86, -0.5, 0.5, 0.86, -29.89, 21.12)"/><path class="cls-27" d="M49.43,15.83l4.23-2.46a1,1,0,0,1,1,.1l-4.23,2.46A1,1,0,0,0,49.43,15.83Z"/><path class="cls-28" d="M74.16,36.79l-4.23,2.46c.36-.21.52-.72.36-1.42l4.23-2.46C74.68,36.07,74.51,36.58,74.16,36.79Z"/><polygon class="cls-29" points="50.44 15.93 54.67 13.47 70.72 22.74 66.49 25.2 50.44 15.93"/><polygon class="cls-30" points="67.85 27.13 72.08 24.68 74.52 35.37 70.29 37.83 67.85 27.13"/><path class="cls-31" d="M66.49,25.2l4.23-2.46a3.19,3.19,0,0,1,1.36,1.94l-4.23,2.45A3.17,3.17,0,0,0,66.49,25.2Z"/><path class="cls-32" d="M66.49,25.2a3.17,3.17,0,0,1,1.36,1.93l2.44,10.7c.27,1.2-.41,1.87-1.36,1.32L47.93,27a2.9,2.9,0,0,1-1.34-2.89l2.49-7.84c.18-.58.73-.73,1.36-.37Z"/><path class="cls-33" d="M34.7,26.05l14.1-8.19a1,1,0,0,1,1,.1l-14.1,8.19A1,1,0,0,0,34.7,26.05Z"/><polygon class="cls-34" points="35.71 26.15 49.81 17.96 64.59 26.49 50.49 34.68 35.71 26.15"/><path class="cls-35" d="M50.49,34.68l14.1-8.19a3.14,3.14,0,0,1,1.32,1.82L51.82,36.5A3.19,3.19,0,0,0,50.49,34.68Z"/><path class="cls-36" d="M39.71,23.78l9.17-5.32a.48.48,0,0,1,.5,0l-9.16,5.33A.53.53,0,0,0,39.71,23.78Z"/><polygon class="cls-37" points="40.22 23.83 49.38 18.5 50.8 19.32 41.64 24.65 40.22 23.83"/><path class="cls-38" d="M41.64,24.65l9.16-5.33a1.59,1.59,0,0,1,.71,1.23,1.54,1.54,0,0,0,.71,1.22L43.05,27.1a1.57,1.57,0,0,1-.7-1.23A1.58,1.58,0,0,0,41.64,24.65Z"/><polygon class="cls-39" points="43.05 27.1 52.22 21.77 56.47 24.23 47.31 29.55 43.05 27.1"/><path class="cls-40" d="M57,24.28,47.81,29.6a.47.47,0,0,1-.5-.05l9.16-5.32A.51.51,0,0,0,57,24.28Z"/><path class="cls-41" d="M59.81,27.55l-9.16,5.32a.48.48,0,0,0,.2-.45L60,27.09A.5.5,0,0,1,59.81,27.55Z"/><path class="cls-42" d="M48.22,28.7l9.17-5.33a.53.53,0,0,1,.51.05l-9.16,5.33A.5.5,0,0,0,48.22,28.7Z"/><polygon class="cls-43" points="50.86 30.79 60.02 25.46 60.02 27.09 50.85 32.42 50.86 30.79"/><polygon class="cls-44" points="48.73 28.75 57.9 23.42 59.31 24.24 50.15 29.56 48.73 28.75"/><path class="cls-45" d="M50.15,29.56a1.59,1.59,0,0,1,.71,1.23v1.63c0,.45-.32.63-.71.4l-9.93-5.73a1.57,1.57,0,0,1-.71-1.23V24.23c0-.44.32-.63.71-.4l1.42.82a1.58,1.58,0,0,1,.71,1.22,1.57,1.57,0,0,0,.7,1.23l4.26,2.45c.39.23.71.05.71-.4s.32-.63.72-.4Z"/><path class="cls-46" d="M50.15,29.56l9.17-5.32a1.58,1.58,0,0,1,.7,1.22l-9.16,5.33A1.59,1.59,0,0,0,50.15,29.56Z"/><path class="cls-47" d="M67.28,71.39l-3.55-2c-.78-.45-1.42-.08-1.42.82a3.14,3.14,0,0,0,1.41,2.45l3.55,2c.78.46,1.42.09,1.43-.8a3.14,3.14,0,0,0-1.42-2.46"/><path class="cls-48" d="M75.37,41.4c1,.6,1,1.56,0,2.16a4.19,4.19,0,0,1-3.75,0c-1-.6-1-1.56,0-2.16A4.13,4.13,0,0,1,75.37,41.4Z"/><path class="cls-49" d="M67.51,52.46c-1-.57-1.78-.11-1.78,1a3.87,3.87,0,0,0,1.77,3.07c1,.56,1.77.11,1.78-1a3.93,3.93,0,0,0-1.77-3.06"/><path class="cls-50" d="M24.27,55.42c5.09,2.95,9.21,10.07,9.19,15.93s-4.16,8.21-9.25,5.27S15,66.55,15,60.7,19.18,52.48,24.27,55.42Z"/><path class="cls-51" d="M15.7,51.33l3.52-2c2.2-1.27,5.23-1.1,8.58.84l-3.52,2.05C20.93,50.23,17.89,50.05,15.7,51.33Z"/><path class="cls-52" d="M36.31,78.68l-3.53,2C35,79.47,36.29,76.79,36.3,73c0-7.65-5.36-17-12-20.82l3.52-2.05c6.66,3.84,12.05,13.17,12,20.82C39.81,74.74,38.47,77.42,36.31,78.68Z"/><path class="cls-53" d="M76,41.1v.81a1.25,1.25,0,0,1-.73,1,3.92,3.92,0,0,1-3.53,0,1.27,1.27,0,0,1-.74-1v-.82a1.27,1.27,0,0,0,.74,1,3.92,3.92,0,0,0,3.53,0A1.26,1.26,0,0,0,76,41.1Z"/><path class="cls-54" d="M75.26,40.07a1.08,1.08,0,0,1,0,2,3.92,3.92,0,0,1-3.53,0,1.08,1.08,0,0,1,0-2A3.86,3.86,0,0,1,75.26,40.07Z"/><polygon class="cls-55" points="51.82 36.5 65.91 28.31 68.88 39.06 54.78 47.26 51.82 36.5"/><path class="cls-56" d="M50.49,34.68a3.19,3.19,0,0,1,1.33,1.82l3,10.75L31.37,33.74l3-7.31c.2-.51.73-.62,1.32-.28Z"/><path class="cls-57" d="M25.72,56.41,18.58,71.15A20.92,20.92,0,0,0,20.86,74l7.37-15.2A17.21,17.21,0,0,0,25.72,56.41Z"/><path class="cls-57" d="M22.76,75.64,29.9,60.91a18.22,18.22,0,0,0-1.09-1.48L21.47,74.56A16,16,0,0,0,22.76,75.64Z"/></g></svg>