<svg xmlns="http://www.w3.org/2000/svg" xmlns:xlink="http://www.w3.org/1999/xlink" viewBox="0 0 96 96"><defs><style>.cls-1{fill:url(#linear-gradient);}.cls-2{fill:url(#linear-gradient-2);}.cls-3{fill:url(#linear-gradient-3);}.cls-4{fill:url(#linear-gradient-4);}.cls-5{fill:url(#linear-gradient-5);}.cls-6{fill:url(#linear-gradient-6);}.cls-7{fill:url(#linear-gradient-7);}.cls-8{fill:url(#linear-gradient-8);}.cls-9{fill:url(#linear-gradient-9);}.cls-10{fill:url(#linear-gradient-10);}.cls-11{fill:url(#linear-gradient-11);}.cls-12{fill:url(#linear-gradient-12);}.cls-13{fill:url(#linear-gradient-13);}.cls-14{fill:url(#linear-gradient-14);}.cls-15{fill:url(#linear-gradient-15);}.cls-16{fill:url(#linear-gradient-16);}.cls-17{fill:url(#linear-gradient-17);}.cls-18{fill:url(#linear-gradient-18);}</style><linearGradient id="linear-gradient" x1="50.11" y1="71.11" x2="71.29" y2="71.11" gradientUnits="userSpaceOnUse"><stop offset="0" stop-color="#caf0f8"/><stop offset="1" stop-color="#90e0ef"/></linearGradient><linearGradient id="linear-gradient-2" x1="47.3" y1="65.8" x2="69.66" y2="52.9" xlink:href="#linear-gradient"/><linearGradient id="linear-gradient-3" x1="77.51" y1="33.72" x2="88.06" y2="33.72" gradientUnits="userSpaceOnUse"><stop offset="0" stop-color="#ffd500"/><stop offset="1" stop-color="#fdc500"/></linearGradient><linearGradient id="linear-gradient-4" x1="88.06" y1="27.32" x2="77.54" y2="27.32" xlink:href="#linear-gradient-3"/><linearGradient id="linear-gradient-5" x1="22.52" y1="66.64" x2="44.61" y2="66.64" gradientUnits="userSpaceOnUse"><stop offset="0" stop-color="#90e0ef"/><stop offset="1" stop-color="#caf0f8"/></linearGradient><linearGradient id="linear-gradient-6" x1="13.27" y1="44.84" x2="24.71" y2="25.02" xlink:href="#linear-gradient"/><linearGradient id="linear-gradient-7" x1="54.42" y1="76.31" x2="65.62" y2="82.78" xlink:href="#linear-gradient"/><linearGradient id="linear-gradient-8" x1="7.55" y1="64.14" x2="47.31" y2="64.14" gradientUnits="userSpaceOnUse"><stop offset="0" stop-color="#00b4d8"/><stop offset="1" stop-color="#0096c7"/></linearGradient><linearGradient id="linear-gradient-9" x1="1.25" y1="49.03" x2="53.6" y2="79.26" xlink:href="#linear-gradient"/><linearGradient id="linear-gradient-10" x1="39.56" y1="37.77" x2="26.15" y2="37.77" xlink:href="#linear-gradient-8"/><linearGradient id="linear-gradient-11" x1="39.54" y1="37.35" x2="89.13" y2="37.35" xlink:href="#linear-gradient-8"/><linearGradient id="linear-gradient-12" x1="74.18" y1="52.72" x2="86.92" y2="60.08" xlink:href="#linear-gradient-8"/><linearGradient id="linear-gradient-13" x1="35.3" y1="56.04" x2="84.64" y2="27.55" xlink:href="#linear-gradient-8"/><linearGradient id="linear-gradient-14" x1="69.74" y1="66.24" x2="69.28" y2="66.24" xlink:href="#linear-gradient-3"/><linearGradient id="linear-gradient-15" x1="61.81" y1="69.26" x2="60.11" y2="69.26" xlink:href="#linear-gradient-3"/><linearGradient id="linear-gradient-16" x1="60.14" y1="62.24" x2="69.74" y2="62.24" xlink:href="#linear-gradient-3"/><linearGradient id="linear-gradient-17" x1="61.78" y1="67.99" x2="69.31" y2="67.99" xlink:href="#linear-gradient-3"/><linearGradient id="linear-gradient-18" x1="32.73" y1="54.14" x2="43.34" y2="35.77" xlink:href="#linear-gradient"/></defs><g id="Layer_25" data-name="Layer 25"><polygon class="cls-1" points="50.15 70.73 71.29 58.44 71.26 71.49 50.11 83.78 50.15 70.73"/><path class="cls-2" d="M44.49,60.93,65.64,48.65a12.45,12.45,0,0,1,5.65,9.79L50.15,70.73A12.46,12.46,0,0,0,44.49,60.93Z"/><path class="cls-3" d="M88.06,29.78,88,42c0,.19-.15.37-.44.49a1.58,1.58,0,0,1-1.25-.08l-.14-.09a23.48,23.48,0,0,0-3.7-2.62A32.35,32.35,0,0,0,78,37.57l-.17-.08a.5.5,0,0,1-.29-.41l0-12.23a.49.49,0,0,0,.3.41.8.8,0,0,0,.16.08,31.94,31.94,0,0,1,4.53,2.13,24.15,24.15,0,0,1,3.7,2.62.6.6,0,0,0,.13.09,1.56,1.56,0,0,0,1.26.08C87.9,30.15,88.06,30,88.06,29.78Z"/><path class="cls-4" d="M83.94,26.66a25.05,25.05,0,0,1,4,2.79c.31.27.18.63-.27.81a1.56,1.56,0,0,1-1.26-.08.6.6,0,0,1-.13-.09,24.15,24.15,0,0,0-3.7-2.62A31.94,31.94,0,0,0,78,25.34a.8.8,0,0,1-.16-.08c-.33-.19-.39-.49-.13-.72a1.49,1.49,0,0,1,1.38-.17A34.35,34.35,0,0,1,83.94,26.66Z"/><path class="cls-5" d="M23.46,71.74,44.61,59.45a1.17,1.17,0,0,0-.48,1,1.11,1.11,0,0,1-.47,1L22.52,73.82a1.14,1.14,0,0,0,.47-1A1.14,1.14,0,0,1,23.46,71.74Z"/><path class="cls-6" d="M6.4,40.87,27.54,28.59c1-.6,2.46-.52,4,.39L10.44,41.27A4,4,0,0,0,6.4,40.87Z"/><path class="cls-7" d="M69.6,75.13,48.46,87.42a4,4,0,0,0,1.65-3.64L71.26,71.49A4,4,0,0,1,69.6,75.13Z"/><path class="cls-8" d="M44.48,64.19a6.24,6.24,0,0,1,2.83,4.9l0,13c0,1.79-1.28,2.52-2.84,1.62L33.78,77.61a2.79,2.79,0,0,1-1.26-2.18,2.8,2.8,0,0,0-1.26-2.19l-7.7-4.45c-.7-.4-1.27-.08-1.27.73s-.57,1.12-1.27.72L10.37,64.09A6.21,6.21,0,0,1,7.55,59.2l0-13c0-1.81,1.28-2.54,2.85-1.63Z"/><path class="cls-9" d="M44.49,60.93a12.46,12.46,0,0,1,5.66,9.8l0,13c0,3.6-2.56,5-5.69,3.24l-11-6.35a3.57,3.57,0,0,1-1.62-2.8,3.58,3.58,0,0,0-1.61-2.8l-5.57-3.21c-.9-.52-1.63-.11-1.63.92s-.73,1.45-1.63.93l-11-6.35a12.48,12.48,0,0,1-5.65-9.8l0-13c0-3.61,2.56-5.06,5.7-3.25Zm2.78,21.21,0-13a6.24,6.24,0,0,0-2.83-4.9l-34-19.66c-1.57-.91-2.84-.18-2.85,1.63l0,13a6.21,6.21,0,0,0,2.82,4.89L21,70.24c.7.4,1.27.08,1.27-.72s.57-1.13,1.27-.73l7.7,4.45a2.8,2.8,0,0,1,1.26,2.19,2.79,2.79,0,0,0,1.26,2.18l10.65,6.15c1.56.9,2.84.17,2.84-1.62"/><polygon class="cls-10" points="39.56 29.8 39.54 37.95 26.15 45.73 26.17 37.58 39.56 29.8"/><path class="cls-11" d="M89.13,41.67l0,8.16c0-4.3-2.88-8.6-8.56-11.88S67.44,33,60,33,45.18,34.67,39.54,38l0-8.15c5.65-3.28,13-4.92,20.48-4.92s14.85,1.64,20.53,4.92S89.11,37.38,89.13,41.67Z"/><path class="cls-12" d="M82.12,54.37,68.73,62.16l0,8.15L82.1,62.53c6-3.49,9-8.05,9-12.62l0-8.15C91.12,46.33,88.12,50.89,82.12,54.37Z"/><path class="cls-13" d="M82,29c12.15,7,12.21,18.38.14,25.39L68.73,62.16a1.59,1.59,0,0,1-1.41,0c-.39-.23-.39-.6,0-.82L80.7,53.56c5.65-3.29,8.46-7.58,8.43-11.89s-2.88-8.59-8.56-11.87S67.46,24.88,60,24.88,45.21,26.52,39.56,29.8L26.17,37.58a1.53,1.53,0,0,1-1.41,0c-.4-.23-.4-.59,0-.82L38.14,29C50.21,22,69.84,22,82,29Z"/><path class="cls-14" d="M69.74,61.11l0,9.79c0,.18-.15.36-.43.47l0-9.78C69.59,61.48,69.74,61.3,69.74,61.11Z"/><path class="cls-15" d="M60.11,73.83l0-9.78a.5.5,0,0,0,.28.42,2,2,0,0,0,1.39.14l0,9.78a1.9,1.9,0,0,1-1.39-.14A.5.5,0,0,1,60.11,73.83Z"/><path class="cls-16" d="M69.44,60.7c.44.26.38.68-.13.89l-7.5,3a2,2,0,0,1-1.39-.14.44.44,0,0,1,0-.82L66.75,60a1.61,1.61,0,0,1,1.42,0Z"/><polygon class="cls-17" points="69.31 61.59 69.28 71.37 61.78 74.39 61.81 64.61 69.31 61.59"/><path class="cls-18" d="M40.67,43.3c-7-4-9.91-9.36-8.57-14l-.52-.3L10.44,41.27,44.49,60.93,65.64,48.65l-.77-.45C56.82,49,47.61,47.31,40.67,43.3Z"/></g></svg>