<svg xmlns="http://www.w3.org/2000/svg" xmlns:xlink="http://www.w3.org/1999/xlink" viewBox="0 0 96 96"><defs><style>.cls-1{fill:url(#linear-gradient);}.cls-2{fill:url(#linear-gradient-2);}.cls-3{fill:url(#linear-gradient-3);}.cls-4{fill:url(#linear-gradient-4);}.cls-5{fill:url(#linear-gradient-5);}.cls-6{fill:url(#linear-gradient-6);}.cls-7{fill:url(#linear-gradient-7);}.cls-8{fill:url(#linear-gradient-8);}.cls-9{fill:url(#linear-gradient-9);}.cls-10{fill:url(#linear-gradient-10);}.cls-11{fill:url(#linear-gradient-11);}.cls-12{fill:url(#linear-gradient-12);}.cls-13{fill:url(#linear-gradient-13);}.cls-14{fill:url(#linear-gradient-14);}.cls-15{fill:url(#linear-gradient-15);}.cls-16{fill:url(#linear-gradient-16);}.cls-17{fill:url(#linear-gradient-17);}.cls-18{fill:#fdfcdc;}.cls-19{fill:url(#linear-gradient-18);}.cls-20{fill:url(#linear-gradient-19);}.cls-21{fill:#e5e2b7;}.cls-22{fill:url(#linear-gradient-20);}.cls-23{fill:url(#linear-gradient-21);}.cls-24{fill:url(#linear-gradient-22);}.cls-25{fill:url(#linear-gradient-23);}.cls-26{fill:url(#linear-gradient-24);}.cls-27{fill:url(#linear-gradient-25);}.cls-28{fill:url(#linear-gradient-26);}.cls-29{fill:url(#linear-gradient-27);}.cls-30{fill:url(#linear-gradient-28);}.cls-31{fill:url(#linear-gradient-29);}.cls-32{fill:url(#linear-gradient-30);}.cls-33{fill:url(#linear-gradient-31);}.cls-34{fill:url(#linear-gradient-32);}.cls-35{fill:url(#linear-gradient-33);}.cls-36{fill:url(#linear-gradient-34);}.cls-37{fill:url(#linear-gradient-35);}.cls-38{fill:url(#linear-gradient-36);}.cls-39{fill:url(#linear-gradient-37);}.cls-40{fill:url(#linear-gradient-38);}.cls-41{fill:url(#linear-gradient-39);}.cls-42{fill:url(#linear-gradient-40);}.cls-43{fill:url(#linear-gradient-41);}.cls-44{fill:url(#linear-gradient-42);}.cls-45{fill:#e9feff;}.cls-46{fill:url(#linear-gradient-43);}</style><linearGradient id="linear-gradient" x1="52.77" y1="63.83" x2="72.42" y2="83.48" gradientUnits="userSpaceOnUse"><stop offset="0" stop-color="#fdfcdc"/><stop offset="1" stop-color="#e5e2b7"/></linearGradient><linearGradient id="linear-gradient-2" x1="37.9" y1="55.27" x2="56.11" y2="73.48" xlink:href="#linear-gradient"/><linearGradient id="linear-gradient-3" x1="21.61" y1="45.25" x2="41.26" y2="64.9" xlink:href="#linear-gradient"/><linearGradient id="linear-gradient-4" x1="12.91" y1="57.87" x2="16.83" y2="57.87" gradientUnits="userSpaceOnUse"><stop offset="0" stop-color="#00b4d8"/><stop offset="1" stop-color="#0096c7"/></linearGradient><linearGradient id="linear-gradient-5" x1="43.07" y1="73.31" x2="47.64" y2="73.31" xlink:href="#linear-gradient-4"/><linearGradient id="linear-gradient-6" x1="49.2" y1="75.37" x2="55.19" y2="75.37" xlink:href="#linear-gradient-4"/><linearGradient id="linear-gradient-7" x1="41.84" y1="69.06" x2="44.33" y2="69.06" xlink:href="#linear-gradient-4"/><linearGradient id="linear-gradient-8" x1="18.7" y1="56.73" x2="24.56" y2="56.73" xlink:href="#linear-gradient-4"/><linearGradient id="linear-gradient-9" x1="57.02" y1="74.34" x2="62.8" y2="74.34" xlink:href="#linear-gradient-4"/><linearGradient id="linear-gradient-10" x1="26.42" y1="55.43" x2="32.28" y2="55.43" xlink:href="#linear-gradient-4"/><linearGradient id="linear-gradient-11" x1="43.65" y1="64.61" x2="46.99" y2="64.61" xlink:href="#linear-gradient-4"/><linearGradient id="linear-gradient-12" x1="64.57" y1="72.73" x2="70.34" y2="72.73" xlink:href="#linear-gradient-4"/><linearGradient id="linear-gradient-13" x1="34.14" y1="54.37" x2="40.14" y2="54.37" xlink:href="#linear-gradient-4"/><linearGradient id="linear-gradient-14" x1="46.24" y1="60.14" x2="48.46" y2="60.14" xlink:href="#linear-gradient-4"/><linearGradient id="linear-gradient-15" x1="41.86" y1="56.03" x2="46.72" y2="56.03" xlink:href="#linear-gradient-4"/><linearGradient id="linear-gradient-16" x1="72.11" y1="71.11" x2="77.89" y2="71.11" xlink:href="#linear-gradient-4"/><linearGradient id="linear-gradient-17" x1="79.7" y1="69.7" x2="83.57" y2="69.7" xlink:href="#linear-gradient-4"/><linearGradient id="linear-gradient-18" x1="7.91" y1="66.2" x2="25.1" y2="66.2" xlink:href="#linear-gradient"/><linearGradient id="linear-gradient-19" x1="25.09" y1="75.01" x2="37.89" y2="75.01" xlink:href="#linear-gradient"/><linearGradient id="linear-gradient-20" x1="58.23" y1="79.24" x2="86.38" y2="79.24" xlink:href="#linear-gradient"/><linearGradient id="linear-gradient-21" x1="37.9" y1="83.93" x2="55.67" y2="83.93" xlink:href="#linear-gradient"/><linearGradient id="linear-gradient-22" x1="55.67" y1="87.59" x2="58.24" y2="87.59" gradientUnits="userSpaceOnUse"><stop offset="0" stop-color="#e5e2b7"/><stop offset="1" stop-color="#fdfcdc"/></linearGradient><linearGradient id="linear-gradient-23" x1="37.22" y1="26.12" x2="52.83" y2="26.12" gradientTransform="translate(19.22 -19.09) rotate(30.16)" gradientUnits="userSpaceOnUse"><stop offset="0" stop-color="#ffd500"/><stop offset="1" stop-color="#fdc500"/></linearGradient><linearGradient id="linear-gradient-24" x1="50.71" y1="8.1" x2="35.8" y2="8.1" xlink:href="#linear-gradient-4"/><linearGradient id="linear-gradient-25" x1="45.07" y1="30.87" x2="63.69" y2="30.87" xlink:href="#linear-gradient-4"/><linearGradient id="linear-gradient-26" x1="19.06" y1="24.17" x2="17.44" y2="21.35" xlink:href="#linear-gradient-4"/><linearGradient id="linear-gradient-27" x1="19.61" y1="32.27" x2="30.21" y2="32.27" xlink:href="#linear-gradient-4"/><linearGradient id="linear-gradient-28" x1="11.79" y1="32.82" x2="27.39" y2="32.82" xlink:href="#linear-gradient-4"/><linearGradient id="linear-gradient-29" x1="13.28" y1="32.8" x2="25.76" y2="32.8" gradientUnits="userSpaceOnUse"><stop offset="0" stop-color="#caf0f8"/><stop offset="1" stop-color="#90e0ef"/></linearGradient><linearGradient id="linear-gradient-30" x1="17.62" y1="35.61" x2="21.24" y2="35.61" xlink:href="#linear-gradient"/><linearGradient id="linear-gradient-31" x1="17.74" y1="30.83" x2="21.29" y2="30.83" xlink:href="#linear-gradient-4"/><linearGradient id="linear-gradient-32" x1="56.06" y1="63.17" x2="54.43" y2="60.35" xlink:href="#linear-gradient-4"/><linearGradient id="linear-gradient-33" x1="54.01" y1="67.36" x2="67.99" y2="75.44" xlink:href="#linear-gradient-4"/><linearGradient id="linear-gradient-34" x1="47.88" y1="66.79" x2="65.3" y2="76.85" xlink:href="#linear-gradient-4"/><linearGradient id="linear-gradient-35" x1="50.12" y1="71.8" x2="62.89" y2="71.8" xlink:href="#linear-gradient-29"/><linearGradient id="linear-gradient-36" x1="52.39" y1="72.42" x2="60.62" y2="72.42" xlink:href="#linear-gradient-4"/><linearGradient id="linear-gradient-37" x1="76.06" y1="31.17" x2="74.43" y2="28.35" xlink:href="#linear-gradient-4"/><linearGradient id="linear-gradient-38" x1="74.01" y1="35.37" x2="87.99" y2="43.44" xlink:href="#linear-gradient-4"/><linearGradient id="linear-gradient-39" x1="67.88" y1="34.79" x2="85.3" y2="44.85" xlink:href="#linear-gradient-4"/><linearGradient id="linear-gradient-40" x1="69.47" y1="35.69" x2="83.73" y2="43.92" xlink:href="#linear-gradient-29"/><linearGradient id="linear-gradient-41" x1="71.36" y1="37.91" x2="81.34" y2="43.67" xlink:href="#linear-gradient"/><linearGradient id="linear-gradient-42" x1="72.6" y1="35.57" x2="80.4" y2="35.57" xlink:href="#linear-gradient-4"/><linearGradient id="linear-gradient-43" x1="32" y1="31.88" x2="58.05" y2="31.88" xlink:href="#linear-gradient-4"/></defs><g id="Layer_11" data-name="Layer 11"><path class="cls-1" d="M86.38,67.8a.86.86,0,0,1,0,1.63L58.24,85.79a3.18,3.18,0,0,1-2.57.13L37.91,78.69l31-18,17.19,7A1.71,1.71,0,0,1,86.38,67.8Z"/><polygon class="cls-2" points="56.12 50.04 68.9 60.68 37.89 78.7 25.1 68.06 56.12 50.04"/><path class="cls-3" d="M56.12,50l-31,18-17.18-7a2.1,2.1,0,0,1-.26-.13c-.77-.44-.81-1.18,0-1.64L35.79,42.94a3.18,3.18,0,0,1,2.57-.13Z"/><path class="cls-4" d="M16.54,57.3a1.53,1.53,0,0,0-1-.15l-1.92.32c-.52.09-.83.41-.67.72a.6.6,0,0,0,.25.25,1.6,1.6,0,0,0,1,.14l1.91-.32c.54-.09.84-.41.68-.72a.58.58,0,0,0-.25-.24"/><path class="cls-5" d="M44.77,72a1.54,1.54,0,0,0-1.18-.1c-.49.16-.67.51-.4.79a8.42,8.42,0,0,0,1.92,1.48c.28.16.59.32.91.47a1.55,1.55,0,0,0,1.41-.09c.32-.23.27-.57-.09-.78l-.07,0c-.26-.12-.51-.25-.75-.38a7.12,7.12,0,0,1-1.58-1.22.59.59,0,0,0-.17-.13"/><path class="cls-6" d="M54.9,75a1.53,1.53,0,0,0-.85-.16,15.18,15.18,0,0,1-3.59-.15,1.2,1.2,0,0,0-1.22.41c-.1.21,0,.42.26.57a1.45,1.45,0,0,0,.43.14,18.25,18.25,0,0,0,4.4.18c.54,0,.92-.34.85-.66A.59.59,0,0,0,54.9,75"/><path class="cls-7" d="M44,67.49a1.38,1.38,0,0,0-.39-.14,1.28,1.28,0,0,0-1.27.38,3.89,3.89,0,0,0-.48,2.53.52.52,0,0,0,.29.35,1.42,1.42,0,0,0,.8.17c.55,0,1-.31.9-.62a3.18,3.18,0,0,1,.4-2.08c.12-.21,0-.44-.25-.59"/><path class="cls-8" d="M24.27,56a1.53,1.53,0,0,0-1-.15l-3.87.65c-.52.09-.83.41-.67.72a.64.64,0,0,0,.25.24,1.52,1.52,0,0,0,1,.15L23.84,57c.53-.09.83-.41.68-.72a.64.64,0,0,0-.25-.24"/><path class="cls-9" d="M62.5,73.53a1.58,1.58,0,0,0-1-.13l-3.77.8c-.52.11-.79.45-.59.74a.61.61,0,0,0,.23.22,1.61,1.61,0,0,0,1.06.13l3.77-.81c.51-.11.78-.44.58-.74a.67.67,0,0,0-.23-.21"/><path class="cls-10" d="M32,54.7a1.53,1.53,0,0,0-1-.15l-3.86.65c-.53.09-.83.41-.68.72a.61.61,0,0,0,.26.24,1.5,1.5,0,0,0,1,.15l3.87-.65c.53-.09.82-.41.68-.72A.61.61,0,0,0,32,54.7"/><path class="cls-11" d="M46.69,63.1a1.24,1.24,0,0,0-.37-.14,1.3,1.3,0,0,0-1.28.35l-1.33,2.21c-.13.21,0,.44.24.6a1.35,1.35,0,0,0,.37.13,1.28,1.28,0,0,0,1.28-.35l1.33-2.2c.13-.22,0-.45-.24-.6"/><path class="cls-12" d="M70.05,71.91a1.59,1.59,0,0,0-1-.13l-3.79.81c-.5.11-.77.44-.58.74a.67.67,0,0,0,.23.21,1.66,1.66,0,0,0,1,.14l3.78-.81c.52-.11.78-.44.59-.75a.67.67,0,0,0-.23-.21"/><path class="cls-13" d="M39.84,54a1.37,1.37,0,0,0-.54-.16,19.27,19.27,0,0,0-4.15.05h-.08l-.21,0c-.53.09-.83.41-.67.72a.53.53,0,0,0,.25.24,1.52,1.52,0,0,0,1,.15l.14,0a15.55,15.55,0,0,1,3.4-.05c.54.05,1.06-.16,1.15-.47s0-.38-.28-.51"/><path class="cls-14" d="M48,58.57a1.52,1.52,0,0,0-.9-.15c-.55,0-.89.36-.78.67a3,3,0,0,1,0,2.08c-.07.2,0,.4.28.54a1.35,1.35,0,0,0,.49.15c.54.07,1.07-.13,1.19-.44a3.67,3.67,0,0,0,0-2.55.52.52,0,0,0-.27-.3"/><path class="cls-15" d="M45.19,55.58a11.24,11.24,0,0,0-1.78-.84,1.48,1.48,0,0,0-1.39.17c-.27.23-.19.53.14.72l.15.08a9.63,9.63,0,0,1,1.48.69,7.53,7.53,0,0,1,1.11.77l.12.09a1.59,1.59,0,0,0,1.27.06c.45-.17.57-.53.26-.8a8.59,8.59,0,0,0-1.36-.94"/><path class="cls-16" d="M77.59,70.3a1.59,1.59,0,0,0-1-.13l-3.77.8c-.53.11-.79.45-.6.75a.93.93,0,0,0,.23.21,1.63,1.63,0,0,0,1.07.13l3.77-.81c.52-.11.78-.44.58-.74a.67.67,0,0,0-.23-.21"/><path class="cls-17" d="M83.27,69.08a1.58,1.58,0,0,0-1-.13l-1.88.4c-.51.12-.78.45-.58.75a.67.67,0,0,0,.23.21,1.58,1.58,0,0,0,1.05.13l1.88-.4c.52-.11.78-.45.59-.74a.73.73,0,0,0-.24-.22"/><path class="cls-18" d="M7.06,63.37V60.11a1,1,0,0,0,.6.83,2.1,2.1,0,0,0,.26.13v3.26a2.1,2.1,0,0,1-.26-.13A1,1,0,0,1,7.06,63.37Z"/><polygon class="cls-19" points="25.1 68.06 25.09 71.32 7.91 64.33 7.92 61.07 25.1 68.06"/><polygon class="cls-20" points="37.89 78.7 37.88 81.97 25.09 71.32 25.1 68.06 37.89 78.7"/><path class="cls-21" d="M87,68.62v3.26a1,1,0,0,1-.59.81V69.43A1,1,0,0,0,87,68.62Z"/><polygon class="cls-22" points="86.38 69.43 86.37 72.69 58.23 89.05 58.24 85.79 86.38 69.43"/><polygon class="cls-23" points="55.67 85.92 55.67 89.18 37.9 81.95 37.91 78.69 55.67 85.92"/><path class="cls-24" d="M58.24,85.79v3.26a3.16,3.16,0,0,1-2.56.13V85.92A3.18,3.18,0,0,0,58.24,85.79Z"/><ellipse class="cls-25" cx="45.03" cy="26.12" rx="6.37" ry="11" transform="translate(-7.03 26.16) rotate(-30.16)"/><path class="cls-26" d="M35.8,9.72l5.64-3.27c2.37-1.38,5.65-1.19,9.27.91l-5.64,3.27C41.45,8.54,38.17,8.35,35.8,9.72Z"/><path class="cls-27" d="M53.2,51.11l-5.64,3.28C52.05,51.78,58,39.92,58.05,33.12c0-8.27-5.78-18.33-13-22.49l5.64-3.27c7.19,4.15,13,14.21,13,22.48C63.67,36.64,57.69,48.5,53.2,51.11Z"/><path class="cls-28" d="M14.07,23.31l2.81-1.64c1.42-.82,3.39-.71,5.55.54l-2.82,1.64C17.45,22.6,15.48,22.48,14.07,23.31Z"/><path class="cls-29" d="M27.93,40.69l-2.82,1.64c1.41-.81,2.27-2.54,2.28-5a17.16,17.16,0,0,0-7.78-13.48l2.82-1.64a17.17,17.17,0,0,1,7.78,13.48C30.2,38.15,29.33,39.88,27.93,40.69Z"/><path class="cls-30" d="M19.61,23.85a17.16,17.16,0,0,1,7.78,13.48c0,5-3.52,7-7.83,4.46s-7.79-8.52-7.77-13.47S15.3,21.36,19.61,23.85Z"/><path class="cls-31" d="M19.54,25.63c-3.45-2-6.25-.39-6.26,3.57A13.71,13.71,0,0,0,19.5,40c3.45,2,6.25.39,6.26-3.57A13.7,13.7,0,0,0,19.54,25.63Z"/><path class="cls-32" d="M21.18,34.25c-.13.89-.87,1.21-1.75.7a3,3,0,0,1-.5-.36,4,4,0,0,1-1.19-2,2.33,2.33,0,0,1-.06-.35.83.83,0,0,0,0,.61l1.62,6a.31.31,0,0,0,.13.18c.06,0,.12,0,.14,0l1.65-4.07a1,1,0,0,0,0-.62"/><path class="cls-33" d="M19.54,26.49c-.07,0-.13,0-.15.05l-1.05,4.18c-.43.19-.67.72-.58,1.5l.06.35a4.06,4.06,0,0,0,1.2,2,2.9,2.9,0,0,0,.49.36c.89.51,1.62.19,1.76-.7a3,3,0,0,0,0-.31,3.66,3.66,0,0,0-.59-1.85l-1-5.39a.36.36,0,0,0-.14-.21"/><path class="cls-34" d="M51.06,62.31l2.82-1.64c1.42-.82,3.38-.71,5.55.54l-2.82,1.64C54.45,61.6,52.48,61.48,51.06,62.31Z"/><path class="cls-35" d="M64.94,79.69l-2.82,1.64c1.4-.82,2.27-2.55,2.28-5,0-5-3.48-11-7.79-13.48l2.82-1.64c4.31,2.49,7.8,8.53,7.79,13.48C67.21,77.15,66.34,78.88,64.94,79.69Z"/><path class="cls-36" d="M56.61,62.85c4.31,2.49,7.8,8.52,7.79,13.48s-3.53,6.94-7.84,4.45a17.09,17.09,0,0,1-7.77-13.47C48.8,62.36,52.3,60.37,56.61,62.85Z"/><path class="cls-37" d="M56.52,64.47c-3.53-2-6.39-.4-6.4,3.65a14,14,0,0,0,6.36,11c3.53,2,6.4.41,6.41-3.65A14,14,0,0,0,56.52,64.47Z"/><path class="cls-38" d="M56.52,65.7a.51.51,0,0,0-.54,0l-3.41,2.51c-.37.27-.13,1.14.38,1.55v4.92a1.58,1.58,0,0,0,.71,1.22l.7.41c.4.23.71,0,.72-.41V74.24c0-.45.32-.63.71-.4l1.42.82a1.57,1.57,0,0,1,.71,1.23v1.62a1.57,1.57,0,0,0,.7,1.23l.71.41c.39.22.71,0,.71-.41l0-4.91c.51.17.76-.41.39-1.11l-3.39-6.43a1.54,1.54,0,0,0-.53-.59"/><path class="cls-39" d="M71.06,30.31l2.82-1.64c1.42-.82,3.39-.71,5.56.55l-2.82,1.63C74.45,29.6,72.48,29.48,71.06,30.31Z"/><path class="cls-40" d="M84.94,47.7l-2.82,1.63c1.4-.81,2.27-2.54,2.28-5a17.16,17.16,0,0,0-7.78-13.47l2.82-1.63a17.09,17.09,0,0,1,7.77,13.47C87.21,45.15,86.34,46.88,84.94,47.7Z"/><path class="cls-41" d="M76.62,30.85A17.16,17.16,0,0,1,84.4,44.32c0,5-3.52,7-7.83,4.47s-7.8-8.53-7.79-13.48S72.31,28.37,76.62,30.85Z"/><path class="cls-42" d="M76.62,32.47c-3.52-2-6.39-.41-6.4,3.65a14,14,0,0,0,6.36,11c3.53,2,6.39.4,6.4-3.65A14,14,0,0,0,76.62,32.47Z"/><path class="cls-43" d="M73.3,34.54l0,8.15A1.59,1.59,0,0,0,74,43.92l5,2.87c.4.23.71,0,.71-.42l0-8.15Z"/><path class="cls-44" d="M79.69,36.59l-6.38-3.68c-.39-.23-.71,0-.71.4a1.53,1.53,0,0,0,.7,1.23l6.39,3.68c.39.23.71.05.71-.4a1.56,1.56,0,0,0-.71-1.23"/><path class="cls-45" d="M75.78,36.79l-.71-.41c-.19-.12-.35,0-.35.2v.82a.75.75,0,0,0,.35.61l.71.41c.2.12.36,0,.36-.2V37.4a.78.78,0,0,0-.36-.61"/><path class="cls-45" d="M77.92,38l-.72-.42c-.19-.11-.35,0-.35.21v.82a.77.77,0,0,0,.35.61l.71.41c.19.11.35,0,.35-.21v-.81a.78.78,0,0,0-.35-.61"/><path class="cls-45" d="M75.78,39.24l-.71-.41c-.2-.12-.35,0-.35.2v.81a.81.81,0,0,0,.35.62l.71.4c.2.12.36,0,.36-.2v-.81a.79.79,0,0,0-.35-.61"/><path class="cls-45" d="M77.91,40.47l-.72-.42c-.19-.11-.35,0-.35.21v.81a.78.78,0,0,0,.35.61l.71.42c.2.11.36,0,.36-.21v-.82a.77.77,0,0,0-.35-.6"/><path class="cls-45" d="M75.77,41.68l-.71-.41c-.2-.11-.35,0-.35.21v.81a.78.78,0,0,0,.35.61l.71.41c.19.11.35,0,.35-.2V42.3a.78.78,0,0,0-.36-.62"/><path class="cls-45" d="M77.9,42.91l-.71-.41c-.19-.11-.35,0-.36.21v.81a.79.79,0,0,0,.35.61l.72.41c.19.11.35,0,.35-.2v-.82a.79.79,0,0,0-.35-.61"/><path class="cls-46" d="M45.07,10.63c7.2,4.16,13,14.22,13,22.49S49.2,57.11,45,54.65,32,26.34,32,18.08,37.87,6.48,45.07,10.63ZM45,35.08c4.31,2.49,7.81.5,7.83-4.46a17.16,17.16,0,0,0-7.78-13.47c-4.31-2.48-7.81-.49-7.83,4.46A17.13,17.13,0,0,0,45,35.08"/></g></svg>