<svg xmlns="http://www.w3.org/2000/svg" xmlns:xlink="http://www.w3.org/1999/xlink" viewBox="0 0 96 96"><defs><style>.cls-1{fill:url(#linear-gradient);}.cls-2{fill:#90e0ef;}.cls-3{fill:url(#linear-gradient-2);}.cls-4{fill:#0096c7;}.cls-5{fill:url(#linear-gradient-3);}.cls-6{fill:url(#linear-gradient-4);}.cls-7{fill:url(#linear-gradient-5);}.cls-8{fill:url(#linear-gradient-6);}.cls-9{fill:url(#linear-gradient-7);}.cls-10{fill:url(#linear-gradient-8);}.cls-11{fill:url(#linear-gradient-9);}.cls-12{fill:url(#linear-gradient-10);}.cls-13{fill:url(#linear-gradient-11);}.cls-14{fill:url(#linear-gradient-12);}.cls-15{fill:url(#linear-gradient-13);}.cls-16{fill:url(#linear-gradient-14);}.cls-17{fill:#e9feff;}</style><linearGradient id="linear-gradient" x1="42.91" y1="64.74" x2="-6.87" y2="14.96" gradientTransform="matrix(-1, 0, 0, 1, 66.13, 0.05)" gradientUnits="userSpaceOnUse"><stop offset="0" stop-color="#caf0f8"/><stop offset="1" stop-color="#90e0ef"/></linearGradient><linearGradient id="linear-gradient-2" x1="51" y1="39.18" x2="-15" y2="39.18" gradientTransform="matrix(-1, 0, 0, 1, 66.13, 0.05)" gradientUnits="userSpaceOnUse"><stop offset="0" stop-color="#00b4d8"/><stop offset="1" stop-color="#0096c7"/></linearGradient><linearGradient id="linear-gradient-3" x1="-20.07" y1="31.22" x2="53.31" y2="73.59" gradientTransform="matrix(-1, 0, 0, 1, 66.02, 0)" xlink:href="#linear-gradient"/><linearGradient id="linear-gradient-4" x1="4.05" y1="36.5" x2="29.94" y2="36.5" gradientTransform="matrix(-1, 0, 0, 1, 66.02, 0)" gradientUnits="userSpaceOnUse"><stop offset="0" stop-color="#dcf7ff"/><stop offset="1" stop-color="#c3edfd"/></linearGradient><linearGradient id="linear-gradient-5" x1="44.02" y1="44.93" x2="47.02" y2="44.93" gradientUnits="userSpaceOnUse"><stop offset="0" stop-color="#ffd500"/><stop offset="1" stop-color="#fdc500"/></linearGradient><linearGradient id="linear-gradient-6" x1="44.02" y1="44.09" x2="47.02" y2="44.09" xlink:href="#linear-gradient-5"/><linearGradient id="linear-gradient-7" x1="39.02" y1="41.93" x2="42.02" y2="41.93" xlink:href="#linear-gradient-5"/><linearGradient id="linear-gradient-8" x1="39.02" y1="41.09" x2="42.02" y2="41.09" xlink:href="#linear-gradient-5"/><linearGradient id="linear-gradient-9" x1="34.02" y1="38.93" x2="37.02" y2="38.93" xlink:href="#linear-gradient-5"/><linearGradient id="linear-gradient-10" x1="34.02" y1="38.09" x2="37.02" y2="38.09" xlink:href="#linear-gradient-5"/><linearGradient id="linear-gradient-11" x1="56.33" y1="28.77" x2="63.97" y2="28.77" xlink:href="#linear-gradient-5"/><linearGradient id="linear-gradient-12" x1="55.61" y1="30" x2="60.43" y2="30" xlink:href="#linear-gradient-5"/><linearGradient id="linear-gradient-13" x1="54.19" y1="31.23" x2="57.6" y2="31.23" xlink:href="#linear-gradient-5"/><linearGradient id="linear-gradient-14" x1="11.71" y1="48.24" x2="52.17" y2="71.6" gradientTransform="matrix(-1, 0, 0, 1, 66.02, 0)" xlink:href="#linear-gradient-2"/></defs><g id="Layer_19" data-name="Layer 19"><ellipse class="cls-1" cx="48" cy="39.85" rx="43" ry="24.91" transform="translate(-0.11 0.14) rotate(-0.16)"/><ellipse class="cls-2" cx="48.02" cy="43.18" rx="34" ry="19.12" transform="matrix(1, 0, 0, 1, -0.12, 0.13)"/><ellipse class="cls-3" cx="48.02" cy="39.18" rx="33" ry="19.12" transform="translate(-0.11 0.14) rotate(-0.16)"/><path class="cls-4" d="M44.36,44.59c-.64.34-.64.89,0,1.23a2.74,2.74,0,0,0,2.31,0c.64-.34.64-.89,0-1.23A2.77,2.77,0,0,0,44.36,44.59Z"/><path class="cls-4" d="M39.38,41.59c-.64.34-.63.89,0,1.23a2.68,2.68,0,0,0,2.28,0c.63-.34.63-.89,0-1.23A2.7,2.7,0,0,0,39.38,41.59Z"/><path class="cls-4" d="M34.32,38.59c-.67.34-.68.89,0,1.23a3,3,0,0,0,2.42,0c.67-.34.67-.89,0-1.23A3,3,0,0,0,34.32,38.59Z"/><path class="cls-5" d="M5,40,5,56.28c0,6.33,4.18,12.65,12.5,17.49,16.74,9.72,44,9.72,60.81,0,8.48-4.9,12.71-11.32,12.7-17.74l0-16.3c0,6.41-4.22,12.84-12.7,17.73-16.84,9.73-44.07,9.73-60.81,0C9.18,52.63,5,46.31,5,40Z"/><path class="cls-4" d="M15,39.28v1.63c0,4.86,3.21,9.71,9.59,13.42,12.85,7.47,33.74,7.47,46.67,0C77.79,50.58,81,45.64,81,40.72V39.09C81,44,77.78,49,71.28,52.7c-12.93,7.47-33.83,7.47-46.67,0C18.22,49,15,44.14,15,39.28Z"/><path class="cls-6" d="M36.66,33.43l7.1-4.09a3.1,3.1,0,0,1,2.83,0l14.8,8.6a.87.87,0,0,1,0,1.64l-7.09,4.1a3.14,3.14,0,0,1-2.83,0l-14.8-8.6a.87.87,0,0,1,0-1.64"/><path class="cls-7" d="M44,44.1v.81a.74.74,0,0,0,.43.61,2.35,2.35,0,0,0,2.13,0A.75.75,0,0,0,47,44.9v-.81a.77.77,0,0,1-.44.62,2.35,2.35,0,0,1-2.13,0A.74.74,0,0,1,44,44.1"/><path class="cls-8" d="M44.46,43.48a.65.65,0,0,0,0,1.23,2.35,2.35,0,0,0,2.13,0,.65.65,0,0,0,0-1.23A2.33,2.33,0,0,0,44.46,43.48Z"/><path class="cls-9" d="M39,41.09v.82a.75.75,0,0,0,.44.61,2.33,2.33,0,0,0,2.12,0A.77.77,0,0,0,42,41.9v-.81a.75.75,0,0,1-.44.61,2.3,2.3,0,0,1-2.12,0,.75.75,0,0,1-.44-.62"/><path class="cls-10" d="M39.46,40.48a.65.65,0,0,0,0,1.23,2.3,2.3,0,0,0,2.12,0c.58-.34.59-.88,0-1.22A2.33,2.33,0,0,0,39.46,40.48Z"/><path class="cls-11" d="M34,38.1v.82a.71.71,0,0,0,.43.6,2.35,2.35,0,0,0,2.13,0A.75.75,0,0,0,37,38.9v-.81a.76.76,0,0,1-.45.62,2.33,2.33,0,0,1-2.12,0A.74.74,0,0,1,34,38.1"/><path class="cls-12" d="M34.46,37.48a.65.65,0,0,0,0,1.23,2.33,2.33,0,0,0,2.12,0,.65.65,0,0,0,0-1.23A2.33,2.33,0,0,0,34.46,37.48Z"/><path class="cls-13" d="M56.63,26.72a1.59,1.59,0,0,1,1.41,0L63.68,30c.38.22.38.59,0,.82a1.56,1.56,0,0,1-1.41,0l-5.64-3.28c-.39-.22-.39-.59,0-.82"/><path class="cls-14" d="M55.9,28.77a1.55,1.55,0,0,1,1.42,0l2.82,1.64c.39.22.39.59,0,.82a1.53,1.53,0,0,1-1.41,0L55.9,29.59a.43.43,0,0,1,0-.82"/><path class="cls-15" d="M54.48,30.41a1.53,1.53,0,0,1,1.41,0l1.42.82a.44.44,0,0,1,0,.82,1.59,1.59,0,0,1-1.41,0l-1.42-.82a.44.44,0,0,1,0-.82"/><path class="cls-16" d="M17.47,61.46c12.05,7,29.54,9,44.68,5.88a4,4,0,0,1,4.85,4h0a4.08,4.08,0,0,1-3.14,4C48.35,78.86,30,77,17.52,69.77,11.8,66.44,8,62.42,6.25,58.16A15.35,15.35,0,0,1,5,52.28L5,44C5,50.31,9.15,56.63,17.47,61.46Z"/><polygon class="cls-17" points="54.21 33.76 48.76 42.1 45.94 40.47 51.39 32.12 54.21 33.76"/><polygon class="cls-17" points="50.69 31.71 45.24 40.06 43.83 39.24 49.28 30.89 50.69 31.71"/></g></svg>