<svg xmlns="http://www.w3.org/2000/svg" xmlns:xlink="http://www.w3.org/1999/xlink" viewBox="0 0 96 96"><defs><style>.cls-1{fill:url(#linear-gradient);}.cls-2{fill:url(#linear-gradient-2);}.cls-3{fill:url(#linear-gradient-3);}.cls-4{fill:url(#linear-gradient-4);}.cls-5{fill:url(#linear-gradient-5);}.cls-6{fill:url(#linear-gradient-6);}.cls-7{fill:url(#linear-gradient-7);}.cls-8{fill:url(#linear-gradient-8);}.cls-9{fill:url(#linear-gradient-9);}.cls-10{fill:url(#linear-gradient-10);}.cls-11{fill:url(#linear-gradient-11);}.cls-12{fill:url(#linear-gradient-12);}.cls-13{fill:url(#linear-gradient-13);}.cls-14{fill:url(#linear-gradient-14);}.cls-15{fill:url(#linear-gradient-15);}.cls-16{fill:url(#linear-gradient-16);}.cls-17{fill:url(#linear-gradient-17);}.cls-18{fill:url(#linear-gradient-18);}.cls-19{fill:url(#linear-gradient-19);}.cls-20{fill:url(#linear-gradient-20);}.cls-21{fill:url(#linear-gradient-21);}.cls-22{fill:url(#linear-gradient-22);}.cls-23{fill:url(#linear-gradient-23);}.cls-24{fill:url(#linear-gradient-24);}.cls-25{fill:url(#linear-gradient-25);}.cls-26{fill:url(#linear-gradient-26);}.cls-27{fill:url(#linear-gradient-27);}.cls-28{fill:url(#linear-gradient-28);}.cls-29{fill:url(#linear-gradient-29);}.cls-30{fill:url(#linear-gradient-30);}.cls-31{fill:url(#linear-gradient-31);}.cls-32{fill:url(#linear-gradient-32);}.cls-33{fill:url(#linear-gradient-33);}.cls-34{fill:url(#linear-gradient-34);}.cls-35{fill:url(#linear-gradient-35);}.cls-36{fill:url(#linear-gradient-36);}.cls-37{fill:url(#linear-gradient-37);}.cls-38{fill:url(#linear-gradient-38);}.cls-39{fill:url(#linear-gradient-39);}.cls-40{fill:url(#linear-gradient-40);}.cls-41{fill:url(#linear-gradient-41);}.cls-42{fill:url(#linear-gradient-42);}.cls-43{fill:url(#linear-gradient-43);}.cls-44{fill:url(#linear-gradient-44);}.cls-45{fill:url(#linear-gradient-45);}.cls-46{fill:url(#linear-gradient-46);}.cls-47{fill:url(#linear-gradient-47);}.cls-48{fill:url(#linear-gradient-48);}.cls-49{fill:url(#linear-gradient-49);}.cls-50{fill:url(#linear-gradient-50);}.cls-51{fill:url(#linear-gradient-51);}.cls-52{fill:url(#linear-gradient-52);}.cls-53{fill:url(#linear-gradient-53);}.cls-54{fill:url(#linear-gradient-54);}.cls-55{fill:url(#linear-gradient-55);}.cls-56{fill:url(#linear-gradient-56);}.cls-57{fill:#90e0ef;}</style><linearGradient id="linear-gradient" x1="16.62" y1="52.53" x2="20.07" y2="46.54" gradientUnits="userSpaceOnUse"><stop offset="0" stop-color="#00b4d8"/><stop offset="1" stop-color="#0096c7"/></linearGradient><linearGradient id="linear-gradient-2" x1="53.35" y1="88.24" x2="60.23" y2="88.24" xlink:href="#linear-gradient"/><linearGradient id="linear-gradient-3" x1="54.59" y1="81.58" x2="60.26" y2="81.58" xlink:href="#linear-gradient"/><linearGradient id="linear-gradient-4" x1="35.12" y1="61.76" x2="37.94" y2="56.86" xlink:href="#linear-gradient"/><linearGradient id="linear-gradient-5" x1="52.49" y1="74.24" x2="59.02" y2="70.47" xlink:href="#linear-gradient"/><linearGradient id="linear-gradient-6" x1="9.98" y1="57.45" x2="57.38" y2="84.82" xlink:href="#linear-gradient"/><linearGradient id="linear-gradient-7" x1="19.12" y1="60.46" x2="26.21" y2="60.46" gradientUnits="userSpaceOnUse"><stop offset="0" stop-color="#ffd500"/><stop offset="1" stop-color="#fdc500"/></linearGradient><linearGradient id="linear-gradient-8" x1="16.95" y1="70.06" x2="28.31" y2="70.06" xlink:href="#linear-gradient-7"/><linearGradient id="linear-gradient-9" x1="47.61" y1="9.53" x2="51.07" y2="3.54" xlink:href="#linear-gradient"/><linearGradient id="linear-gradient-10" x1="86.26" y1="44.36" x2="89.56" y2="46.27" xlink:href="#linear-gradient"/><linearGradient id="linear-gradient-11" x1="85.59" y1="38.58" x2="91.26" y2="38.58" xlink:href="#linear-gradient"/><linearGradient id="linear-gradient-12" x1="66.11" y1="18.76" x2="68.94" y2="13.86" xlink:href="#linear-gradient"/><linearGradient id="linear-gradient-13" x1="83.5" y1="31.24" x2="90.03" y2="27.47" xlink:href="#linear-gradient"/><linearGradient id="linear-gradient-14" x1="40.97" y1="14.45" x2="88.38" y2="41.83" xlink:href="#linear-gradient"/><linearGradient id="linear-gradient-15" x1="48.95" y1="27.56" x2="60.31" y2="27.56" xlink:href="#linear-gradient-7"/><linearGradient id="linear-gradient-16" x1="51.1" y1="18.43" x2="58.21" y2="18.43" xlink:href="#linear-gradient-7"/><linearGradient id="linear-gradient-17" x1="16.43" y1="22.45" x2="22.26" y2="16.63" xlink:href="#linear-gradient"/><linearGradient id="linear-gradient-18" x1="53.91" y1="60.49" x2="61.68" y2="56.01" xlink:href="#linear-gradient"/><linearGradient id="linear-gradient-19" x1="55.6" y1="51.59" x2="61.27" y2="51.59" xlink:href="#linear-gradient"/><linearGradient id="linear-gradient-20" x1="36.12" y1="31.76" x2="38.95" y2="26.86" xlink:href="#linear-gradient"/><linearGradient id="linear-gradient-21" x1="53.5" y1="44.24" x2="60.03" y2="40.47" xlink:href="#linear-gradient"/><linearGradient id="linear-gradient-22" x1="10.98" y1="27.45" x2="58.39" y2="54.83" xlink:href="#linear-gradient"/><linearGradient id="linear-gradient-23" x1="31.89" y1="69.69" x2="51.04" y2="69.69" gradientUnits="userSpaceOnUse"><stop offset="0" stop-color="#fdfcdc"/><stop offset="1" stop-color="#e5e2b7"/></linearGradient><linearGradient id="linear-gradient-24" x1="31.88" y1="72.53" x2="43.94" y2="72.53" xlink:href="#linear-gradient-23"/><linearGradient id="linear-gradient-25" x1="44.65" y1="78.27" x2="51.03" y2="78.27" xlink:href="#linear-gradient-23"/><linearGradient id="linear-gradient-26" x1="31.88" y1="67.83" x2="36.14" y2="67.83" xlink:href="#linear-gradient-23"/><linearGradient id="linear-gradient-27" x1="36.85" y1="73.16" x2="49.62" y2="73.16" xlink:href="#linear-gradient-23"/><linearGradient id="linear-gradient-28" x1="31.87" y1="73.13" x2="37.55" y2="73.13" xlink:href="#linear-gradient-23"/><linearGradient id="linear-gradient-29" x1="38.96" y1="78.66" x2="49.61" y2="78.66" xlink:href="#linear-gradient-23"/><linearGradient id="linear-gradient-30" x1="31.86" y1="78.24" x2="46.76" y2="78.24" xlink:href="#linear-gradient-23"/><linearGradient id="linear-gradient-31" x1="31.86" y1="79.46" x2="42.49" y2="79.46" xlink:href="#linear-gradient-23"/><linearGradient id="linear-gradient-32" x1="63.89" y1="27.19" x2="83.04" y2="27.19" xlink:href="#linear-gradient-23"/><linearGradient id="linear-gradient-33" x1="63.87" y1="30.03" x2="75.93" y2="30.03" xlink:href="#linear-gradient-23"/><linearGradient id="linear-gradient-34" x1="76.64" y1="35.77" x2="83.03" y2="35.77" xlink:href="#linear-gradient-23"/><linearGradient id="linear-gradient-35" x1="63.88" y1="25.33" x2="68.14" y2="25.33" xlink:href="#linear-gradient-23"/><linearGradient id="linear-gradient-36" x1="68.85" y1="30.66" x2="81.62" y2="30.66" xlink:href="#linear-gradient-23"/><linearGradient id="linear-gradient-37" x1="63.86" y1="30.63" x2="69.54" y2="30.63" xlink:href="#linear-gradient-23"/><linearGradient id="linear-gradient-38" x1="70.96" y1="36.16" x2="81.6" y2="36.16" xlink:href="#linear-gradient-23"/><linearGradient id="linear-gradient-39" x1="63.86" y1="35.74" x2="78.76" y2="35.74" xlink:href="#linear-gradient-23"/><linearGradient id="linear-gradient-40" x1="63.85" y1="36.96" x2="74.49" y2="36.96" xlink:href="#linear-gradient-23"/><linearGradient id="linear-gradient-41" x1="32.6" y1="39.1" x2="51.75" y2="39.1" xlink:href="#linear-gradient-23"/><linearGradient id="linear-gradient-42" x1="32.59" y1="41.94" x2="44.65" y2="41.94" xlink:href="#linear-gradient-23"/><linearGradient id="linear-gradient-43" x1="45.35" y1="47.67" x2="51.74" y2="47.67" xlink:href="#linear-gradient-23"/><linearGradient id="linear-gradient-44" x1="32.59" y1="37.24" x2="36.85" y2="37.24" xlink:href="#linear-gradient-23"/><linearGradient id="linear-gradient-45" x1="37.56" y1="42.57" x2="50.33" y2="42.57" xlink:href="#linear-gradient-23"/><linearGradient id="linear-gradient-46" x1="32.58" y1="42.54" x2="38.25" y2="42.54" xlink:href="#linear-gradient-23"/><linearGradient id="linear-gradient-47" x1="39.67" y1="48.07" x2="50.31" y2="48.07" xlink:href="#linear-gradient-23"/><linearGradient id="linear-gradient-48" x1="32.57" y1="47.65" x2="47.47" y2="47.65" xlink:href="#linear-gradient-23"/><linearGradient id="linear-gradient-49" x1="32.56" y1="48.87" x2="43.21" y2="48.87" xlink:href="#linear-gradient-23"/><linearGradient id="linear-gradient-50" x1="16.25" y1="35.58" x2="30.46" y2="35.58" xlink:href="#linear-gradient-7"/><linearGradient id="linear-gradient-51" x1="76.16" y1="59.92" x2="81.84" y2="56.64" gradientUnits="userSpaceOnUse"><stop offset="0" stop-color="#caf0f8"/><stop offset="1" stop-color="#90e0ef"/></linearGradient><linearGradient id="linear-gradient-52" x1="80.2" y1="66.82" x2="87.01" y2="62.89" xlink:href="#linear-gradient-51"/><linearGradient id="linear-gradient-53" x1="73.25" y1="62.16" x2="85.92" y2="69.47" gradientTransform="translate(43.85 -31.08) rotate(30.16)" xlink:href="#linear-gradient-51"/><linearGradient id="linear-gradient-54" x1="76.79" y1="62.83" x2="78.92" y2="62.83" xlink:href="#linear-gradient-7"/><linearGradient id="linear-gradient-55" x1="80.34" y1="64.88" x2="82.46" y2="64.88" xlink:href="#linear-gradient-7"/><linearGradient id="linear-gradient-56" x1="75.43" y1="67.58" x2="83.81" y2="67.58" xlink:href="#linear-gradient-7"/></defs><g id="Layer_10" data-name="Layer 10"><path class="cls-1" d="M14,51l5.64-3.28a3,3,0,0,1,3,.3L17,51.32A3,3,0,0,0,14,51Z"/><path class="cls-2" d="M59,88l-5.64,3.28a3,3,0,0,0,1.24-2.74l5.64-3.27A3,3,0,0,1,59,88Z"/><polygon class="cls-3" points="54.62 77.92 60.26 74.64 60.23 85.24 54.59 88.52 54.62 77.92"/><polygon class="cls-4" points="17.04 51.32 22.68 48.05 56.02 67.3 50.38 70.57 17.04 51.32"/><path class="cls-5" d="M50.38,70.57,56,67.3a9.32,9.32,0,0,1,4.24,7.34l-5.64,3.28A9.35,9.35,0,0,0,50.38,70.57Z"/><path class="cls-6" d="M50.38,70.57a9.35,9.35,0,0,1,4.24,7.35l0,10.59c0,2.71-1.92,3.8-4.27,2.44L17,71.7a9.34,9.34,0,0,1-4.24-7.35l0-10.59c0-2.7,1.92-3.8,4.27-2.44Z"/><path class="cls-7" d="M22.67,56.39c-2-1.13-3.55-.22-3.55,2a7.77,7.77,0,0,0,3.53,6.13c2,1.13,3.55.22,3.56-2a7.78,7.78,0,0,0-3.54-6.12"/><path class="cls-8" d="M24.07,66.18l-2.84-1.64C18.88,63.18,17,64.27,17,67V68.6a3.14,3.14,0,0,0,1.42,2.45L26.88,76c.79.46,1.42.1,1.42-.81V73.52a9.32,9.32,0,0,0-4.24-7.34"/><path class="cls-9" d="M45,8l5.64-3.28a3,3,0,0,1,3,.3L48,8.32A3,3,0,0,0,45,8Z"/><path class="cls-10" d="M90,45l-5.64,3.28a3,3,0,0,0,1.24-2.73l5.64-3.28A3,3,0,0,1,90,45Z"/><polygon class="cls-11" points="85.62 34.93 91.26 31.65 91.23 42.24 85.59 45.52 85.62 34.93"/><polygon class="cls-12" points="48.04 8.32 53.68 5.05 87.02 24.3 81.38 27.57 48.04 8.32"/><path class="cls-13" d="M81.38,27.57,87,24.3a9.34,9.34,0,0,1,4.24,7.35l-5.64,3.28A9.37,9.37,0,0,0,81.38,27.57Z"/><path class="cls-14" d="M81.38,27.57a9.37,9.37,0,0,1,4.24,7.36l0,10.59c0,2.7-1.92,3.79-4.27,2.43L48,28.71a9.37,9.37,0,0,1-4.24-7.36l0-10.59c0-2.7,1.92-3.79,4.27-2.44Z"/><path class="cls-15" d="M56.06,23.67,53.23,22C50.88,20.68,49,21.77,49,24.47V26.1a3.14,3.14,0,0,0,1.42,2.45l8.51,4.92c.78.45,1.42.09,1.43-.81V31a9.38,9.38,0,0,0-4.25-7.36"/><path class="cls-16" d="M54.67,13.89c-2-1.13-3.55-.22-3.56,2v2.45a3.14,3.14,0,0,0,1.42,2.45l4.26,2.46c.78.45,1.42.09,1.42-.81V20a7.79,7.79,0,0,0-3.54-6.12"/><path class="cls-17" d="M15,21l5.64-3.28a3,3,0,0,1,3,.3L18,21.33A3,3,0,0,0,15,21Z"/><path class="cls-18" d="M60,58l-5.64,3.28a3,3,0,0,0,1.25-2.73l5.64-3.28A3,3,0,0,1,60,58Z"/><polygon class="cls-19" points="55.63 47.93 61.27 44.65 61.23 55.24 55.6 58.52 55.63 47.93"/><polygon class="cls-20" points="18.04 21.32 23.68 18.05 57.02 37.3 51.38 40.58 18.04 21.32"/><path class="cls-21" d="M51.38,40.57,57,37.3a9.36,9.36,0,0,1,4.25,7.35l-5.64,3.28A9.39,9.39,0,0,0,51.38,40.57Z"/><path class="cls-22" d="M51.38,40.57a9.39,9.39,0,0,1,4.25,7.36l0,10.59c0,2.7-1.93,3.79-4.28,2.44L18,41.71a9.37,9.37,0,0,1-4.24-7.36l0-10.59c0-2.71,1.92-3.79,4.27-2.43Z"/><path class="cls-23" d="M50.34,74,32.6,63.75c-.39-.23-.71,0-.71.41a1.54,1.54,0,0,0,.71,1.22L50.33,75.62c.39.23.71,0,.71-.4a1.55,1.55,0,0,0-.7-1.23"/><path class="cls-24" d="M43.23,74.79,32.59,68.65c-.4-.23-.71-.05-.71.4a1.54,1.54,0,0,0,.7,1.22l10.65,6.15c.39.22.71,0,.71-.41a1.57,1.57,0,0,0-.71-1.22"/><path class="cls-25" d="M50.32,78.89l-5-2.87c-.4-.23-.71,0-.71.4a1.55,1.55,0,0,0,.7,1.23l5,2.87c.39.22.71,0,.71-.41a1.55,1.55,0,0,0-.71-1.22"/><path class="cls-26" d="M35.43,67.83,32.59,66.2c-.39-.23-.71,0-.71.4a1.54,1.54,0,0,0,.71,1.23l2.83,1.64c.4.23.71,0,.72-.41a1.59,1.59,0,0,0-.71-1.23"/><path class="cls-27" d="M48.91,75.61,37.56,69.06c-.39-.22-.71,0-.71.41a1.56,1.56,0,0,0,.71,1.23L48.9,77.25c.4.23.72,0,.72-.41a1.59,1.59,0,0,0-.71-1.23"/><path class="cls-28" d="M36.84,73.55l-4.26-2.46c-.4-.23-.71,0-.71.4a1.56,1.56,0,0,0,.71,1.23l4.25,2.46c.39.22.71,0,.72-.41a1.55,1.55,0,0,0-.71-1.22"/><path class="cls-29" d="M48.89,80.51l-9.22-5.33c-.39-.22-.71,0-.71.41a1.55,1.55,0,0,0,.71,1.22l9.22,5.33c.39.22.71,0,.72-.41a1.57,1.57,0,0,0-.72-1.22"/><path class="cls-30" d="M46.05,81.31,32.57,73.53c-.39-.23-.71,0-.71.41a1.56,1.56,0,0,0,.71,1.23L46.05,83c.39.22.71,0,.71-.41a1.59,1.59,0,0,0-.71-1.23"/><path class="cls-31" d="M41.79,81.31,32.57,76c-.4-.23-.71,0-.71.41a1.53,1.53,0,0,0,.7,1.22l9.22,5.32c.4.23.71,0,.71-.4a1.53,1.53,0,0,0-.7-1.22"/><path class="cls-32" d="M82.33,31.49,64.6,21.26c-.39-.23-.71-.05-.71.4a1.5,1.5,0,0,0,.71,1.22L82.33,33.12c.39.23.71.05.71-.4a1.56,1.56,0,0,0-.71-1.23"/><path class="cls-33" d="M75.23,32.29,64.59,26.15c-.4-.23-.72,0-.72.4a1.59,1.59,0,0,0,.71,1.23l10.64,6.14c.4.23.71,0,.71-.41a1.56,1.56,0,0,0-.7-1.22"/><path class="cls-34" d="M82.32,36.39l-5-2.87c-.4-.23-.72-.05-.72.4a1.59,1.59,0,0,0,.71,1.23l5,2.86c.4.23.71.05.72-.4a1.51,1.51,0,0,0-.71-1.22"/><path class="cls-35" d="M67.43,25.34,64.6,23.7c-.4-.23-.72-.05-.72.4a1.55,1.55,0,0,0,.71,1.23L67.43,27c.39.23.71,0,.71-.41a1.55,1.55,0,0,0-.71-1.22"/><path class="cls-36" d="M80.91,33.12,69.56,26.56c-.39-.22-.71,0-.71.41a1.55,1.55,0,0,0,.7,1.23L80.9,34.75c.4.23.71,0,.72-.41a1.57,1.57,0,0,0-.71-1.22"/><path class="cls-37" d="M68.83,31.05l-4.25-2.46a.44.44,0,0,0-.72.4,1.55,1.55,0,0,0,.72,1.23l4.25,2.46c.4.22.71,0,.71-.41a1.54,1.54,0,0,0-.71-1.22"/><path class="cls-38" d="M80.89,38l-9.21-5.32c-.4-.23-.71,0-.72.4a1.57,1.57,0,0,0,.71,1.23l9.22,5.32c.4.23.71,0,.71-.41A1.56,1.56,0,0,0,80.89,38"/><path class="cls-39" d="M78.05,38.82,64.58,31c-.4-.23-.72-.05-.72.4a1.56,1.56,0,0,0,.71,1.23l13.48,7.78c.39.23.71,0,.71-.41a1.55,1.55,0,0,0-.71-1.22"/><path class="cls-40" d="M73.79,38.81l-9.22-5.32c-.4-.23-.72-.06-.72.4a1.57,1.57,0,0,0,.71,1.22l9.22,5.33c.39.22.71,0,.71-.41a1.52,1.52,0,0,0-.7-1.22"/><path class="cls-41" d="M51.05,43.4,33.31,33.16c-.39-.23-.71,0-.71.4a1.59,1.59,0,0,0,.71,1.24L51,45c.39.22.71,0,.71-.42a1.56,1.56,0,0,0-.7-1.22"/><path class="cls-42" d="M43.94,44.2,33.3,38.05c-.39-.22-.71,0-.71.41a1.52,1.52,0,0,0,.7,1.22l10.64,6.15c.39.22.71,0,.72-.41a1.55,1.55,0,0,0-.71-1.22"/><path class="cls-43" d="M51,48.29l-5-2.87c-.39-.22-.71,0-.72.41a1.55,1.55,0,0,0,.71,1.22l5,2.87c.39.23.71,0,.71-.4A1.59,1.59,0,0,0,51,48.29"/><path class="cls-44" d="M36.14,37.25,33.3,35.61c-.39-.23-.71,0-.71.4a1.59,1.59,0,0,0,.71,1.23l2.83,1.63c.4.23.72.05.72-.4a1.55,1.55,0,0,0-.71-1.22"/><path class="cls-45" d="M49.62,45,38.27,38.48c-.4-.23-.71,0-.71.4a1.56,1.56,0,0,0,.71,1.23l11.35,6.55c.39.22.71,0,.71-.41A1.57,1.57,0,0,0,49.62,45"/><path class="cls-46" d="M37.55,43,33.29,40.5c-.39-.23-.71,0-.71.4a1.57,1.57,0,0,0,.7,1.23l4.26,2.46c.39.23.71,0,.71-.41a1.55,1.55,0,0,0-.7-1.23"/><path class="cls-47" d="M49.61,49.92l-9.23-5.33c-.39-.22-.71,0-.71.41a1.59,1.59,0,0,0,.71,1.23l9.22,5.32c.39.23.71.05.71-.41a1.52,1.52,0,0,0-.7-1.22"/><path class="cls-48" d="M46.76,50.73,33.28,43c-.39-.23-.71-.05-.71.4a1.55,1.55,0,0,0,.71,1.22l13.48,7.79c.39.22.71,0,.71-.41a1.54,1.54,0,0,0-.71-1.22"/><path class="cls-49" d="M42.49,50.71l-9.21-5.32a.44.44,0,0,0-.72.4A1.59,1.59,0,0,0,33.27,47l9.22,5.32c.4.23.72,0,.72-.4a1.57,1.57,0,0,0-.72-1.23"/><path class="cls-50" d="M23.38,25.79c-.78-.45-1.42-.08-1.42.82a3.09,3.09,0,0,0,.7,1.81v1.86l-3.55-2.05c-.78-.45-1.42-.09-1.42.81v.82L17,29.44a.44.44,0,0,0-.71.41v3.26A1.59,1.59,0,0,0,17,34.34l.72.41V38a3.09,3.09,0,0,0,1.41,2.45l8.51,4.91c.79.45,1.42.09,1.42-.81V41.3l.71.41c.4.23.72,0,.72-.4V38a1.57,1.57,0,0,0-.72-1.22l-.7-.41v-.82a3.09,3.09,0,0,0-1.42-2.44l-3.54-2V29.24c.42,0,.71-.39.71-1a3.14,3.14,0,0,0-1.42-2.46"/><path class="cls-51" d="M75.57,58.9l2.82-1.64c1-.6,2.46-.51,4,.4L79.61,59.3C78,58.38,76.6,58.3,75.57,58.9Z"/><path class="cls-52" d="M86.43,71.1l-2.82,1.63a4,4,0,0,0,1.66-3.64,12.46,12.46,0,0,0-5.66-9.79l2.82-1.64a12.46,12.46,0,0,1,5.65,9.8A4,4,0,0,1,86.43,71.1Z"/><ellipse class="cls-53" cx="79.59" cy="65.82" rx="4.63" ry="8" transform="translate(-22.29 48.9) rotate(-30.16)"/><path class="cls-54" d="M77.86,61.61c-.59-.34-1.07-.06-1.07.61a2.3,2.3,0,0,0,1.06,1.83c.59.34,1.07.08,1.07-.6a2.35,2.35,0,0,0-1.06-1.84"/><path class="cls-55" d="M81.41,63.66c-.59-.34-1.07-.06-1.07.61A2.32,2.32,0,0,0,81.4,66.1c.59.34,1.06.07,1.06-.6a2.3,2.3,0,0,0-1-1.84"/><path class="cls-56" d="M83.1,67.9l-6.95-4c-.44-.26-.79,0-.71.53a9.52,9.52,0,0,0,4.17,6.37c2.07,1.19,3.8.49,4.19-1.55a1.52,1.52,0,0,0-.7-1.34"/><path class="cls-57" d="M31,11.37c-.79-.45-1.43-.09-1.43.81A3.11,3.11,0,0,0,31,14.63c.78.45,1.42.09,1.42-.81A3.13,3.13,0,0,0,31,11.37"/><path class="cls-57" d="M8,42.56c-1.18-.68-2.13-.14-2.14,1.21A4.69,4.69,0,0,0,8,47.44c1.18.68,2.13.14,2.14-1.21A4.69,4.69,0,0,0,8,42.56"/></g></svg>