<svg xmlns="http://www.w3.org/2000/svg" xmlns:xlink="http://www.w3.org/1999/xlink" viewBox="0 0 96 96"><defs><style>.cls-1{fill:url(#linear-gradient);}.cls-2{fill:#90e0ef;}.cls-3{fill:#caf0f8;}.cls-4{fill:url(#linear-gradient-2);}.cls-5{fill:url(#linear-gradient-3);}.cls-6{clip-path:url(#clip-path);}.cls-7{fill:url(#linear-gradient-6);}.cls-8{fill:url(#linear-gradient-7);}.cls-9{fill:url(#linear-gradient-8);}.cls-10{fill:url(#linear-gradient-9);}.cls-11{fill:url(#linear-gradient-10);}.cls-12{fill:url(#linear-gradient-11);}.cls-13{fill:url(#linear-gradient-12);}.cls-14{fill:url(#linear-gradient-13);}.cls-15{fill:url(#linear-gradient-14);}.cls-16{fill:url(#linear-gradient-15);}.cls-17{fill:url(#linear-gradient-16);}.cls-18{fill:url(#linear-gradient-17);}.cls-19{fill:#fdfcdc;}.cls-20{fill:url(#linear-gradient-18);}.cls-21{fill:url(#linear-gradient-19);}.cls-22{fill:url(#linear-gradient-20);}.cls-23{fill:url(#linear-gradient-21);}.cls-24{fill:url(#linear-gradient-22);}.cls-25{fill:url(#linear-gradient-23);}.cls-26{fill:url(#linear-gradient-24);}.cls-27{fill:url(#linear-gradient-25);}.cls-28{fill:url(#linear-gradient-26);}.cls-29{fill:url(#linear-gradient-27);}.cls-30{fill:url(#linear-gradient-28);}.cls-31{fill:#82296f;}.cls-32{fill:url(#linear-gradient-29);}.cls-33{fill:url(#linear-gradient-30);}.cls-34{fill:url(#linear-gradient-31);}.cls-35{fill:url(#linear-gradient-32);}.cls-36{fill:#e5e2b7;}.cls-37{fill:url(#linear-gradient-33);}.cls-38{fill:url(#linear-gradient-34);}.cls-39{fill:url(#linear-gradient-35);}.cls-40{fill:url(#linear-gradient-36);}.cls-41{fill:url(#linear-gradient-37);}.cls-42{fill:url(#linear-gradient-38);}</style><linearGradient id="linear-gradient" x1="82.37" y1="60.75" x2="85.22" y2="60.75" gradientTransform="matrix(-1, 0, 0, 1, 126, 0)" gradientUnits="userSpaceOnUse"><stop offset="0" stop-color="#caf0f8"/><stop offset="1" stop-color="#90e0ef"/></linearGradient><linearGradient id="linear-gradient-2" x1="120.46" y1="50.34" x2="85.2" y2="50.34" xlink:href="#linear-gradient"/><linearGradient id="linear-gradient-3" x1="82.39" y1="47.06" x2="35.55" y2="47.06" xlink:href="#linear-gradient"/><clipPath id="clip-path"><path class="cls-1" d="M40.78,56.5l0,8.15a3.08,3.08,0,0,0,2.82,0l0-8.15A3.1,3.1,0,0,1,40.78,56.5Z"/></clipPath><linearGradient id="linear-gradient-6" x1="121.04" y1="31.93" x2="34.98" y2="31.93" xlink:href="#linear-gradient"/><linearGradient id="linear-gradient-7" x1="10.03" y1="45.5" x2="19.97" y2="45.5" gradientUnits="userSpaceOnUse"><stop offset="0" stop-color="#ffd500"/><stop offset="1" stop-color="#fdc500"/></linearGradient><linearGradient id="linear-gradient-8" x1="35.29" y1="58" x2="36.71" y2="58" xlink:href="#linear-gradient-7"/><linearGradient id="linear-gradient-9" x1="113.73" y1="31.93" x2="42.3" y2="31.93" gradientTransform="matrix(-1, 0, 0, 1, 126, 0)" gradientUnits="userSpaceOnUse"><stop offset="0" stop-color="#00b4d8"/><stop offset="1" stop-color="#0096c7"/></linearGradient><linearGradient id="linear-gradient-10" x1="86.34" y1="28.64" x2="88.34" y2="28.64" xlink:href="#linear-gradient-7"/><linearGradient id="linear-gradient-11" x1="53" y1="9" x2="55" y2="9" xlink:href="#linear-gradient-7"/><linearGradient id="linear-gradient-12" x1="7" y1="35" x2="9" y2="35" xlink:href="#linear-gradient-7"/><linearGradient id="linear-gradient-13" x1="41" y1="55" x2="43" y2="55" xlink:href="#linear-gradient-7"/><linearGradient id="linear-gradient-14" x1="52.7" y1="46.92" x2="54.7" y2="46.92" xlink:href="#linear-gradient-7"/><linearGradient id="linear-gradient-15" x1="70.59" y1="37.32" x2="72.59" y2="37.32" xlink:href="#linear-gradient-7"/><linearGradient id="linear-gradient-16" x1="38" y1="18" x2="40" y2="18" xlink:href="#linear-gradient-7"/><linearGradient id="linear-gradient-17" x1="22" y1="28" x2="24" y2="28" xlink:href="#linear-gradient-7"/><linearGradient id="linear-gradient-18" x1="44.01" y1="58.14" x2="47.55" y2="58.14" gradientTransform="matrix(-1, 0, 0, 1, 126, 0)" gradientUnits="userSpaceOnUse"><stop offset="0" stop-color="#fdfcdc"/><stop offset="1" stop-color="#e5e2b7"/></linearGradient><linearGradient id="linear-gradient-19" x1="43.72" y1="55.81" x2="52.49" y2="55.81" xlink:href="#linear-gradient-18"/><linearGradient id="linear-gradient-20" x1="60.4" y1="56.84" x2="52.35" y2="56.84" xlink:href="#linear-gradient-9"/><linearGradient id="linear-gradient-21" x1="54.43" y1="61.48" x2="45.97" y2="61.48" xlink:href="#linear-gradient-9"/><linearGradient id="linear-gradient-22" x1="60.82" y1="62.05" x2="53.02" y2="62.05" xlink:href="#linear-gradient-9"/><linearGradient id="linear-gradient-23" x1="60.12" y1="61.2" x2="57.25" y2="61.2" xlink:href="#linear-gradient-9"/><linearGradient id="linear-gradient-24" x1="59.25" y1="63.3" x2="56.39" y2="61.64" xlink:href="#linear-gradient-9"/><linearGradient id="linear-gradient-25" x1="60.43" y1="63.11" x2="58.3" y2="63.11" xlink:href="#linear-gradient-9"/><linearGradient id="linear-gradient-26" x1="62.26" y1="71.33" x2="84.85" y2="71.33" xlink:href="#linear-gradient-7"/><linearGradient id="linear-gradient-27" x1="64.02" y1="79.21" x2="59.74" y2="79.21" xlink:href="#linear-gradient-9"/><linearGradient id="linear-gradient-28" x1="63.26" y1="80.54" x2="58.67" y2="80.54" xlink:href="#linear-gradient-9"/><linearGradient id="linear-gradient-29" x1="72.78" y1="78.23" x2="66.78" y2="78.23" xlink:href="#linear-gradient-9"/><linearGradient id="linear-gradient-30" x1="66.05" y1="82.49" x2="63.93" y2="78.81" xlink:href="#linear-gradient-9"/><linearGradient id="linear-gradient-31" x1="62.95" y1="87.42" x2="56.97" y2="83.96" xlink:href="#linear-gradient-9"/><linearGradient id="linear-gradient-32" x1="73.5" y1="84.73" x2="60.73" y2="84.73" xlink:href="#linear-gradient-9"/><linearGradient id="linear-gradient-33" x1="62.62" y1="89" x2="65.65" y2="89" gradientTransform="matrix(-1, 0, 0, 1, 126, 0)" gradientUnits="userSpaceOnUse"><stop offset="0" stop-color="#e5e2b7"/><stop offset="1" stop-color="#fdfcdc"/></linearGradient><linearGradient id="linear-gradient-34" x1="62.62" y1="88.37" x2="65.44" y2="88.37" xlink:href="#linear-gradient-33"/><linearGradient id="linear-gradient-35" x1="63.33" y1="84.28" x2="74.66" y2="84.28" xlink:href="#linear-gradient-18"/><linearGradient id="linear-gradient-36" x1="62.83" y1="86.45" x2="65.8" y2="88.16" xlink:href="#linear-gradient-33"/><linearGradient id="linear-gradient-37" x1="65.44" y1="86.32" x2="75.38" y2="86.32" xlink:href="#linear-gradient-18"/><linearGradient id="linear-gradient-38" x1="56.7" y1="61.68" x2="50.08" y2="55.06" xlink:href="#linear-gradient-9"/></defs><g id="Layer_17" data-name="Layer 17"><path class="cls-2" d="M91,36.79l0-8.15a1,1,0,0,1-.59.83l0,8.15A1,1,0,0,0,91,36.79Z"/><path class="cls-3" d="M5,35.21l0,8.15a1,1,0,0,0,.58.81l0-8.15A1,1,0,0,1,5,35.21Z"/><polygon class="cls-4" points="5.54 36.02 5.56 44.17 40.81 64.65 40.78 56.5 5.54 36.02"/><polygon class="cls-5" points="43.61 56.5 43.63 64.65 90.45 37.62 90.43 29.47 43.61 56.5"/><path class="cls-1" d="M40.78,56.5l0,8.15a3.08,3.08,0,0,0,2.82,0l0-8.15A3.1,3.1,0,0,1,40.78,56.5Z"/><g class="cls-6"><path class="cls-1" d="M40.78,56.5l0,8.15a3.08,3.08,0,0,0,2.82,0l0-8.15a3.1,3.1,0,0,1-2.83,0"/></g><path class="cls-7" d="M5.55,34.38c-.79.46-.79,1.19,0,1.64L40.78,56.5a3.1,3.1,0,0,0,2.83,0l46.82-27a.87.87,0,0,0,0-1.64L55.2,7.35a3.14,3.14,0,0,0-2.83,0Z"/><path class="cls-8" d="M10.75,41.82,15,44.28l.71.41,1.42.81.72.42,1.41.82A1.55,1.55,0,0,1,20,48v.81c0,.46-.32.63-.71.41l-1.13-.65a1.35,1.35,0,0,1-.5-.53l-.5-.87-1.42-.82-.5.3a.54.54,0,0,1-.51-.06l-4-2.29A1.55,1.55,0,0,1,10,43v-.82a.44.44,0,0,1,.72-.4"/><path class="cls-9" d="M36,57.18a1.53,1.53,0,0,1,.71,1.23c0,.45-.32.63-.71.41a1.59,1.59,0,0,1-.71-1.23c0-.45.32-.64.71-.41"/><path class="cls-10" d="M14,32.74l.85-.48a3.12,3.12,0,0,1,2.51-.15,14.23,14.23,0,0,0,11.5-.59C32,29.7,32.4,26.89,30,24.86c-.54-.45-.42-1.07.26-1.46l3.13-1.81a3.14,3.14,0,0,1,2.47-.15,11.17,11.17,0,0,0,8.69-.57c2.36-1.37,2.7-3.46,1-5-.5-.45-.38-1.05.28-1.43l3.71-2.14a9.34,9.34,0,0,1,8.49,0L82,26.19c2.34,1.36,2.33,3.56,0,4.92l-3.71,2.14a3.17,3.17,0,0,1-2.48.16,11.07,11.07,0,0,0-8.67.56c-2.37,1.37-2.7,3.46-1,5,.49.46.38,1-.28,1.43l-3.13,1.81a3.15,3.15,0,0,1-2.52.15,14.23,14.23,0,0,0-11.5.59c-3.13,1.81-3.49,4.63-1.07,6.66.54.46.42,1.07-.25,1.46l-.85.48a9.35,9.35,0,0,1-8.48,0L14,37.66c-2.34-1.35-2.33-3.56,0-4.92"/><path class="cls-11" d="M86.63,28.23a1.58,1.58,0,0,1,1.42,0c.39.23.39.59,0,.82a1.53,1.53,0,0,1-1.41,0,.43.43,0,0,1,0-.82"/><path class="cls-12" d="M53.29,8.59a1.55,1.55,0,0,1,1.42,0c.39.22.39.59,0,.82a1.59,1.59,0,0,1-1.41,0c-.39-.22-.38-.59,0-.82"/><path class="cls-13" d="M7.29,34.59a1.58,1.58,0,0,1,1.42,0,.43.43,0,0,1,0,.82,1.59,1.59,0,0,1-1.41,0,.43.43,0,0,1,0-.82"/><path class="cls-14" d="M41.3,54.59a1.53,1.53,0,0,1,1.41,0c.39.23.39.59,0,.82a1.56,1.56,0,0,1-1.41,0,.43.43,0,0,1,0-.82"/><path class="cls-15" d="M53,46.51a1.55,1.55,0,0,1,1.42,0c.39.23.38.59,0,.82a1.53,1.53,0,0,1-1.41,0,.43.43,0,0,1,0-.82"/><path class="cls-16" d="M70.88,36.91a1.56,1.56,0,0,1,1.41,0c.4.23.39.59,0,.82a1.58,1.58,0,0,1-1.42,0c-.38-.22-.38-.59,0-.82"/><path class="cls-17" d="M38.3,17.59a1.53,1.53,0,0,1,1.41,0,.43.43,0,0,1,0,.82,1.58,1.58,0,0,1-1.42,0,.43.43,0,0,1,0-.82"/><path class="cls-18" d="M22.3,27.59a1.53,1.53,0,0,1,1.41,0,.43.43,0,0,1,0,.82,1.58,1.58,0,0,1-1.42,0,.44.44,0,0,1,0-.82"/><path class="cls-19" d="M82,56.3v1.63a.5.5,0,0,0,.29-.41V55.89a.48.48,0,0,1-.29.41"/><polygon class="cls-20" points="78.45 58.35 78.45 59.98 82 57.94 81.99 56.3 78.45 58.35"/><path class="cls-21" d="M73.51,55.48l4.94,2.87L82,56.3a.43.43,0,0,0,0-.82l-3.52-2a1.53,1.53,0,0,0-1.41,0Z"/><path class="cls-22" d="M72.65,54.79,65.6,58.88a1,1,0,0,1,1,.1l7.05-4.09A1,1,0,0,0,72.65,54.79Z"/><path class="cls-23" d="M72.57,65.21l7.05-4.09a1,1,0,0,0,.41-.91,3.11,3.11,0,0,0-1.41-2.46l-7.05,4.1A3.07,3.07,0,0,1,73,64.3,1,1,0,0,1,72.57,65.21Z"/><path class="cls-24" d="M66.6,59c-.78-.45-1.41-.08-1.42.82a3.14,3.14,0,0,0,1.42,2.45l5,2.86c.79.46,1.42.09,1.42-.81a3.07,3.07,0,0,0-1.41-2.45Z"/><path class="cls-25" d="M68,60.59l-2.12,1.23a.76.76,0,0,1,.76.07l2.11-1.23A.74.74,0,0,0,68,60.59Z"/><path class="cls-26" d="M67.39,64.41l2.11-1.23a.75.75,0,0,0,.31-.68,2.31,2.31,0,0,0-1.06-1.84l-2.11,1.23a2.36,2.36,0,0,1,1.06,1.84A.75.75,0,0,1,67.39,64.41Z"/><path class="cls-27" d="M66.64,61.89c-.59-.34-1.06-.07-1.07.61a2.35,2.35,0,0,0,1.06,1.84c.59.33,1.07.06,1.07-.61A2.36,2.36,0,0,0,66.64,61.89Z"/><path class="cls-28" d="M64.18,63.75l1.42-.82a1.56,1.56,0,0,1,1.41,0,.43.43,0,0,1,0,.82l-1.42.82a2.25,2.25,0,0,0-1.33,1.84,2.2,2.2,0,0,0,1.31,1.84,7,7,0,0,0,6.36,0l3.55-2a8.52,8.52,0,0,1,7.77,0c2.14,1.24,2.14,3.26,0,4.5l-15.61,9a1.53,1.53,0,0,1-1.41,0c-.39-.22-.39-.59,0-.82l15.6-9c1.37-.8,1.38-2.08,0-2.87a5.43,5.43,0,0,0-5,0l-3.54,2a10.13,10.13,0,0,1-9.19,0c-2.54-1.47-2.52-3.86,0-5.33"/><path class="cls-29" d="M65.5,78.18l-3.52,2a.76.76,0,0,1,.76.07l3.53-2A.79.79,0,0,0,65.5,78.18Z"/><path class="cls-30" d="M63.49,82.82l3.53-2a.73.73,0,0,0,.31-.68,2.36,2.36,0,0,0-1.06-1.83l-3.53,2a2.31,2.31,0,0,1,1.06,1.84A.75.75,0,0,1,63.49,82.82Z"/><path class="cls-31" d="M62.74,80.3c-.59-.33-1.07-.07-1.07.61a2.36,2.36,0,0,0,1.07,1.84c.58.34,1.06.06,1.06-.61A2.31,2.31,0,0,0,62.74,80.3Z"/><path class="cls-32" d="M57.45,77l-4.23,2.46a1.76,1.76,0,0,1,1.77.18l4.23-2.46A1.76,1.76,0,0,0,57.45,77Z"/><polygon class="cls-33" points="62.79 84.13 67.02 81.67 59.22 77.17 54.99 79.63 62.79 84.13"/><path class="cls-34" d="M64.55,90l4.23-2.45A1.74,1.74,0,0,0,69.5,86,5.46,5.46,0,0,0,67,81.67l-4.23,2.46a5.45,5.45,0,0,1,2.48,4.29A1.71,1.71,0,0,1,64.55,90Z"/><path class="cls-35" d="M55,79.63c-1.37-.8-2.49-.16-2.49,1.42A5.46,5.46,0,0,0,55,85.33l7.8,4.5c1.37.79,2.49.16,2.49-1.41a5.45,5.45,0,0,0-2.48-4.29Z"/><path class="cls-36" d="M53.65,81l-2.82,1.64a.48.48,0,0,1,.51,0L54.16,81A.48.48,0,0,0,53.65,81Z"/><path class="cls-37" d="M60.35,90.05l2.82-1.64a.49.49,0,0,0,.21-.46l-2.82,1.64A.5.5,0,0,1,60.35,90.05Z"/><polygon class="cls-38" points="60.56 89.59 63.38 87.95 63.38 87.14 60.56 88.78 60.56 89.59"/><polygon class="cls-39" points="54.16 81 62.67 85.92 59.85 87.55 51.34 82.64 54.16 81"/><path class="cls-40" d="M60.56,88.78l2.82-1.64a1.55,1.55,0,0,0-.71-1.22l-2.82,1.63A1.59,1.59,0,0,1,60.56,88.78Z"/><path class="cls-41" d="M51.34,82.64c-.39-.23-.71,0-.71.4v.82a1.57,1.57,0,0,0,.71,1.22l4,2.29a.47.47,0,0,0,.49,0l.51-.29,1.42.82.5.87a1.32,1.32,0,0,0,.5.52l1.13.66c.39.22.71,0,.71-.41v-.81a1.59,1.59,0,0,0-.71-1.23l-1.42-.82-.71-.41-1.41-.82-.71-.4Z"/><polygon class="cls-42" points="71.57 61.85 78.62 57.75 73.65 54.88 66.61 58.98 71.57 61.85"/></g></svg>