<svg xmlns="http://www.w3.org/2000/svg" xmlns:xlink="http://www.w3.org/1999/xlink" viewBox="0 0 96 96"><defs><style>.cls-1{fill:url(#linear-gradient);}.cls-2{fill:url(#linear-gradient-2);}.cls-3{fill:url(#linear-gradient-3);}.cls-4{fill:url(#linear-gradient-4);}.cls-5{fill:url(#linear-gradient-5);}.cls-6{fill:url(#linear-gradient-6);}.cls-7{fill:url(#linear-gradient-7);}.cls-8{fill:url(#linear-gradient-8);}.cls-9{fill:url(#linear-gradient-9);}.cls-10{fill:url(#linear-gradient-10);}.cls-11{fill:url(#linear-gradient-11);}.cls-12{fill:url(#linear-gradient-12);}.cls-13{fill:url(#linear-gradient-13);}.cls-14{fill:url(#linear-gradient-14);}.cls-15{fill:url(#linear-gradient-15);}.cls-16{fill:url(#linear-gradient-16);}.cls-17{fill:url(#linear-gradient-17);}.cls-18{fill:url(#linear-gradient-18);}.cls-19{fill:url(#linear-gradient-19);}.cls-20{fill:url(#linear-gradient-20);}.cls-21{fill:url(#linear-gradient-21);}.cls-22{fill:#0096c7;}.cls-23{fill:url(#linear-gradient-22);}.cls-24{fill:url(#linear-gradient-23);}.cls-25{fill:url(#linear-gradient-24);}.cls-26{fill:url(#linear-gradient-25);}.cls-27{fill:url(#linear-gradient-26);}.cls-28{fill:url(#linear-gradient-27);}.cls-29{fill:url(#linear-gradient-28);}.cls-30{fill:url(#linear-gradient-29);}.cls-31{fill:url(#linear-gradient-30);}.cls-32{fill:url(#linear-gradient-31);}.cls-33{fill:url(#linear-gradient-32);}.cls-34{fill:url(#linear-gradient-33);}.cls-35{fill:url(#linear-gradient-34);}.cls-36{fill:url(#linear-gradient-35);}.cls-37{fill:url(#linear-gradient-36);}.cls-38{fill:url(#linear-gradient-37);}.cls-39{fill:url(#linear-gradient-38);}.cls-40{fill:url(#linear-gradient-39);}.cls-41{fill:url(#linear-gradient-40);}.cls-42{fill:url(#linear-gradient-41);}.cls-43{fill:url(#linear-gradient-42);}.cls-44{fill:url(#linear-gradient-43);}.cls-45{fill:url(#linear-gradient-44);}.cls-46{fill:url(#linear-gradient-45);}.cls-47{fill:url(#linear-gradient-46);}.cls-48{fill:url(#linear-gradient-47);}.cls-49{fill:url(#linear-gradient-48);}.cls-50{fill:url(#linear-gradient-49);}.cls-51{fill:url(#linear-gradient-50);}.cls-52{fill:url(#linear-gradient-51);}.cls-53{fill:url(#linear-gradient-52);}.cls-54{fill:url(#linear-gradient-53);}.cls-55{fill:url(#linear-gradient-54);}.cls-56{fill:url(#linear-gradient-55);}.cls-57{fill:url(#linear-gradient-56);}.cls-58{fill:url(#linear-gradient-57);}.cls-59{fill:url(#linear-gradient-58);}.cls-60{fill:url(#linear-gradient-59);}.cls-61{fill:url(#linear-gradient-60);}.cls-62{fill:url(#linear-gradient-61);}.cls-63{fill:url(#linear-gradient-62);}.cls-64{fill:url(#linear-gradient-63);}.cls-65{fill:url(#linear-gradient-64);}</style><linearGradient id="linear-gradient" x1="10.52" y1="52.75" x2="18.59" y2="52.75" gradientUnits="userSpaceOnUse"><stop offset="0" stop-color="#00b4d8"/><stop offset="1" stop-color="#0096c7"/></linearGradient><linearGradient id="linear-gradient-2" x1="38.67" y1="63.2" x2="44.51" y2="73.33" xlink:href="#linear-gradient"/><linearGradient id="linear-gradient-3" x1="80.42" y1="44.16" x2="79.81" y2="44.16" xlink:href="#linear-gradient"/><linearGradient id="linear-gradient-4" x1="53.46" y1="28.6" x2="52.85" y2="28.6" xlink:href="#linear-gradient"/><linearGradient id="linear-gradient-5" x1="76.76" y1="64" x2="66.25" y2="64" gradientUnits="userSpaceOnUse"><stop offset="0" stop-color="#ffd500"/><stop offset="1" stop-color="#fdc500"/></linearGradient><linearGradient id="linear-gradient-6" x1="73.31" y1="66" x2="62.79" y2="66" xlink:href="#linear-gradient-5"/><linearGradient id="linear-gradient-7" x1="69.8" y1="68" x2="59.28" y2="68" xlink:href="#linear-gradient-5"/><linearGradient id="linear-gradient-8" x1="66.39" y1="70" x2="55.88" y2="70" xlink:href="#linear-gradient-5"/><linearGradient id="linear-gradient-9" x1="80.22" y1="62" x2="69.71" y2="62" xlink:href="#linear-gradient-5"/><linearGradient id="linear-gradient-10" x1="83.68" y1="60" x2="73.16" y2="60" xlink:href="#linear-gradient-5"/><linearGradient id="linear-gradient-11" x1="87.15" y1="58" x2="76.63" y2="58" xlink:href="#linear-gradient-5"/><linearGradient id="linear-gradient-12" x1="22.25" y1="34" x2="32.76" y2="34" xlink:href="#linear-gradient-5"/><linearGradient id="linear-gradient-13" x1="18.8" y1="36" x2="29.31" y2="36" xlink:href="#linear-gradient-5"/><linearGradient id="linear-gradient-14" x1="15.28" y1="38" x2="25.8" y2="38" xlink:href="#linear-gradient-5"/><linearGradient id="linear-gradient-15" x1="11.88" y1="40" x2="22.4" y2="40" xlink:href="#linear-gradient-5"/><linearGradient id="linear-gradient-16" x1="25.71" y1="32" x2="36.22" y2="32" xlink:href="#linear-gradient-5"/><linearGradient id="linear-gradient-17" x1="29.16" y1="30" x2="39.68" y2="30" xlink:href="#linear-gradient-5"/><linearGradient id="linear-gradient-18" x1="32.63" y1="28" x2="43.14" y2="28" xlink:href="#linear-gradient-5"/><linearGradient id="linear-gradient-19" x1="26.68" y1="23.92" x2="70.32" y2="67.56" xlink:href="#linear-gradient"/><linearGradient id="linear-gradient-20" x1="20.15" y1="46" x2="77.82" y2="46" gradientUnits="userSpaceOnUse"><stop offset="0" stop-color="#caf0f8"/><stop offset="1" stop-color="#90e0ef"/></linearGradient><linearGradient id="linear-gradient-21" x1="25.62" y1="43.03" x2="71.98" y2="43.03" xlink:href="#linear-gradient"/><linearGradient id="linear-gradient-22" x1="6.29" y1="48.99" x2="7.49" y2="48.99" xlink:href="#linear-gradient"/><linearGradient id="linear-gradient-23" x1="90.69" y1="50.65" x2="89.5" y2="50.65" xlink:href="#linear-gradient"/><linearGradient id="linear-gradient-24" x1="10.53" y1="50.7" x2="7.47" y2="50.7" xlink:href="#linear-gradient"/><linearGradient id="linear-gradient-25" x1="18.63" y1="55.82" x2="17.97" y2="55.82" xlink:href="#linear-gradient"/><linearGradient id="linear-gradient-26" x1="18.61" y1="61.7" x2="37.49" y2="61.7" xlink:href="#linear-gradient"/><linearGradient id="linear-gradient-27" x1="45.59" y1="71.39" x2="44.93" y2="71.39" xlink:href="#linear-gradient"/><linearGradient id="linear-gradient-28" x1="52.86" y1="62.11" x2="89.52" y2="62.11" xlink:href="#linear-gradient"/><linearGradient id="linear-gradient-29" x1="45.57" y1="72.29" x2="47.21" y2="72.29" xlink:href="#linear-gradient"/><linearGradient id="linear-gradient-30" x1="52.88" y1="73.1" x2="47.2" y2="73.1" xlink:href="#linear-gradient"/><linearGradient id="linear-gradient-31" x1="14.59" y1="43.23" x2="16.59" y2="43.23" xlink:href="#linear-gradient-5"/><linearGradient id="linear-gradient-32" x1="17.41" y1="41.59" x2="19.41" y2="41.59" xlink:href="#linear-gradient-5"/><linearGradient id="linear-gradient-33" x1="20.23" y1="39.95" x2="22.23" y2="39.95" xlink:href="#linear-gradient-5"/><linearGradient id="linear-gradient-34" x1="23.05" y1="38.31" x2="25.05" y2="38.31" xlink:href="#linear-gradient-5"/><linearGradient id="linear-gradient-35" x1="71.23" y1="54.69" x2="73.22" y2="54.69" xlink:href="#linear-gradient-5"/><linearGradient id="linear-gradient-36" x1="74.04" y1="53.06" x2="76.04" y2="53.06" xlink:href="#linear-gradient-5"/><linearGradient id="linear-gradient-37" x1="76.86" y1="51.42" x2="78.86" y2="51.42" xlink:href="#linear-gradient-5"/><linearGradient id="linear-gradient-38" x1="79.68" y1="49.78" x2="81.68" y2="49.78" xlink:href="#linear-gradient-5"/><linearGradient id="linear-gradient-39" x1="25.61" y1="44.26" x2="26.23" y2="44.26" xlink:href="#linear-gradient"/><linearGradient id="linear-gradient-40" x1="71.36" y1="45.91" x2="71.98" y2="45.91" xlink:href="#linear-gradient"/><linearGradient id="linear-gradient-41" x1="55.97" y1="48.8" x2="67.15" y2="55.25" xlink:href="#linear-gradient"/><linearGradient id="linear-gradient-42" x1="25.53" y1="44.29" x2="49.51" y2="58.13" xlink:href="#linear-gradient"/><linearGradient id="linear-gradient-43" x1="48.8" y1="57.9" x2="51.76" y2="57.9" xlink:href="#linear-gradient"/><linearGradient id="linear-gradient-44" x1="40.4" y1="42.8" x2="53.1" y2="42.8" xlink:href="#linear-gradient-5"/><linearGradient id="linear-gradient-45" x1="37.29" y1="47.57" x2="50.87" y2="47.57" xlink:href="#linear-gradient-5"/><linearGradient id="linear-gradient-46" x1="59.73" y1="45.61" x2="71.16" y2="45.61" xlink:href="#linear-gradient-5"/><linearGradient id="linear-gradient-47" x1="46.63" y1="46.67" x2="62.63" y2="46.67" xlink:href="#linear-gradient-5"/><linearGradient id="linear-gradient-48" x1="44.95" y1="33.11" x2="56.03" y2="33.11" xlink:href="#linear-gradient-5"/><linearGradient id="linear-gradient-49" x1="51.11" y1="38.51" x2="57.79" y2="38.51" xlink:href="#linear-gradient-5"/><linearGradient id="linear-gradient-50" x1="55.12" y1="38.77" x2="63.07" y2="38.77" xlink:href="#linear-gradient-5"/><linearGradient id="linear-gradient-51" x1="59.43" y1="42.1" x2="65.71" y2="42.1" xlink:href="#linear-gradient-5"/><linearGradient id="linear-gradient-52" x1="29.32" y1="42.49" x2="35.93" y2="42.49" xlink:href="#linear-gradient-5"/><linearGradient id="linear-gradient-53" x1="31.65" y1="42.82" x2="52.52" y2="42.82" xlink:href="#linear-gradient-5"/><linearGradient id="linear-gradient-54" x1="33.99" y1="36.36" x2="43.9" y2="36.36" xlink:href="#linear-gradient-5"/><linearGradient id="linear-gradient-55" x1="41.56" y1="35.92" x2="47.75" y2="35.92" xlink:href="#linear-gradient-5"/><linearGradient id="linear-gradient-56" x1="28.17" y1="43.16" x2="30.95" y2="43.16" xlink:href="#linear-gradient-5"/><linearGradient id="linear-gradient-57" x1="35.2" y1="49.89" x2="48.83" y2="49.89" xlink:href="#linear-gradient-5"/><linearGradient id="linear-gradient-58" x1="45.02" y1="54.27" x2="48.75" y2="54.27" xlink:href="#linear-gradient-5"/><linearGradient id="linear-gradient-59" x1="66.98" y1="41.41" x2="49.76" y2="41.41" xlink:href="#linear-gradient-20"/><linearGradient id="linear-gradient-60" x1="48.24" y1="30.59" x2="31.02" y2="30.59" xlink:href="#linear-gradient-20"/><linearGradient id="linear-gradient-61" x1="45.52" y1="41.9" x2="32.17" y2="41.9" xlink:href="#linear-gradient-20"/><linearGradient id="linear-gradient-62" x1="65.83" y1="30.1" x2="52.48" y2="30.1" xlink:href="#linear-gradient-20"/><linearGradient id="linear-gradient-63" x1="31.49" y1="36" x2="66.52" y2="36" xlink:href="#linear-gradient-20"/><linearGradient id="linear-gradient-64" x1="34.31" y1="36" x2="63.69" y2="36" xlink:href="#linear-gradient-5"/></defs><g id="Layer_8" data-name="Layer 8"><path class="cls-1" d="M18.59,50.67l0,6.52a2,2,0,0,0-1.18-1.65,6.34,6.34,0,0,0-4.63-.44,3.05,3.05,0,0,1-2.24-.26V48.32a3.09,3.09,0,0,0,2.25.26A6.31,6.31,0,0,1,17.4,49,2,2,0,0,1,18.59,50.67Z"/><path class="cls-2" d="M45.54,66.23l0,6.52a2,2,0,0,0-1.18-1.65,6.28,6.28,0,0,0-4.61-.43,3.11,3.11,0,0,1-2.26-.27l0-6.52a3.13,3.13,0,0,0,2.25.27,6.31,6.31,0,0,1,4.62.43A2,2,0,0,1,45.54,66.23Z"/><path class="cls-3" d="M80.42,40.17l0,6.52a.66.66,0,0,1-.17.44,1.59,1.59,0,0,0-.42,1l0-6.52a1.57,1.57,0,0,1,.42-1A.72.72,0,0,0,80.42,40.17Z"/><path class="cls-4" d="M53.46,24.6l0,6.52a.61.61,0,0,1-.18.44,1.63,1.63,0,0,0-.41,1l0-6.52a1.63,1.63,0,0,1,.41-1A.68.68,0,0,0,53.46,24.6Z"/><path class="cls-5" d="M76.46,66.05,68,61.13a1.56,1.56,0,0,0-1.41,0c-.39.23-.39.59,0,.82l8.51,4.92a1.59,1.59,0,0,0,1.41,0,.43.43,0,0,0,0-.82"/><path class="cls-6" d="M73,68.05,64.5,63.13a1.53,1.53,0,0,0-1.41,0c-.4.23-.39.59,0,.82l8.52,4.91a1.53,1.53,0,0,0,1.41,0,.43.43,0,0,0,0-.81"/><path class="cls-7" d="M69.5,70,61,65.13a1.55,1.55,0,0,0-1.42,0,.44.44,0,0,0,0,.82l8.51,4.92a1.61,1.61,0,0,0,1.42,0,.44.44,0,0,0,0-.83"/><path class="cls-8" d="M66.1,72.05l-8.51-4.91a1.55,1.55,0,0,0-1.42,0,.43.43,0,0,0,0,.81l8.51,4.92a1.56,1.56,0,0,0,1.41,0,.43.43,0,0,0,0-.82"/><path class="cls-9" d="M79.93,64.05l-8.51-4.91a1.58,1.58,0,0,0-1.42,0A.44.44,0,0,0,70,60l8.51,4.91a1.59,1.59,0,0,0,1.41,0,.43.43,0,0,0,0-.82"/><path class="cls-10" d="M83.38,62.05l-8.51-4.91a1.55,1.55,0,0,0-1.42,0,.43.43,0,0,0,0,.81L82,62.87a1.53,1.53,0,0,0,1.41,0c.39-.23.38-.59,0-.82"/><path class="cls-11" d="M86.85,60.05l-8.51-4.92a1.56,1.56,0,0,0-1.41,0c-.39.23-.4.6,0,.82l8.51,4.92a1.58,1.58,0,0,0,1.42,0,.43.43,0,0,0,0-.81"/><path class="cls-12" d="M32.46,36.05,24,31.14a1.53,1.53,0,0,0-1.41,0,.43.43,0,0,0,0,.81l8.51,4.92a1.58,1.58,0,0,0,1.42,0c.39-.23.39-.59,0-.82"/><path class="cls-13" d="M29,38.05,20.5,33.14a1.58,1.58,0,0,0-1.42,0,.43.43,0,0,0,0,.82l8.51,4.92a1.59,1.59,0,0,0,1.41,0,.43.43,0,0,0,0-.82"/><path class="cls-14" d="M25.5,40.05,17,35.13a1.61,1.61,0,0,0-1.42,0c-.39.23-.38.59,0,.82l8.52,4.92a1.59,1.59,0,0,0,1.41,0,.43.43,0,0,0,0-.82"/><path class="cls-15" d="M22.1,42l-8.51-4.91a1.59,1.59,0,0,0-1.41,0c-.4.23-.4.6,0,.82l8.51,4.92a1.57,1.57,0,0,0,1.43,0,.44.44,0,0,0,0-.83"/><path class="cls-16" d="M35.93,34.05l-8.51-4.92a1.55,1.55,0,0,0-1.42,0c-.39.22-.39.59,0,.81l8.51,4.92a1.59,1.59,0,0,0,1.41,0,.43.43,0,0,0,0-.82"/><path class="cls-17" d="M39.38,32.05l-8.51-4.92a1.55,1.55,0,0,0-1.42,0c-.39.23-.38.59,0,.82L38,32.86a1.55,1.55,0,0,0,1.42,0,.43.43,0,0,0,0-.81"/><path class="cls-18" d="M42.85,30.05l-8.51-4.92a1.56,1.56,0,0,0-1.41,0c-.39.23-.4.59,0,.82l8.51,4.92a1.59,1.59,0,0,0,1.41,0,.43.43,0,0,0,0-.82"/><path class="cls-19" d="M89.5,44.92c1.57.91,1.58,2.37,0,3.28L52.88,69.5a6.29,6.29,0,0,1-5.67,0l-1.62-.94c-.59-.34-.84-.87-.46-1.31.74-.87.48-2-.77-2.67a6.31,6.31,0,0,0-4.62-.43,3.13,3.13,0,0,1-2.25-.27L18.63,53c-.59-.34-.83-.87-.46-1.3.75-.87.49-1.95-.77-2.67a6.31,6.31,0,0,0-4.62-.44,3.09,3.09,0,0,1-2.25-.26l-3-1.76c-1.57-.91-1.58-2.37,0-3.28L44.11,22a6.29,6.29,0,0,1,5.67,0l3,1.76c.59.34.84.87.46,1.3-.74.87-.48,2,.77,2.68a6.31,6.31,0,0,0,4.62.43,3.08,3.08,0,0,1,2.25.27L79.78,39.31c.59.34.83.87.47,1.3-.75.87-.5,2,.76,2.67a6.31,6.31,0,0,0,4.62.44,3.09,3.09,0,0,1,2.25.26Z"/><path class="cls-20" d="M77.21,46,49,29.66a3.2,3.2,0,0,0-3,0L20.75,44.33a.91.91,0,0,0,0,1.71L49,62.35a3.26,3.26,0,0,0,2.95,0L77.21,47.68a.9.9,0,0,0,0-1.71"/><path class="cls-21" d="M71.36,43a.9.9,0,0,1,0,1.71L51.76,56.1a3.26,3.26,0,0,1-2.95,0l-22.58-13a.91.91,0,0,1,0-1.71L45.83,30a3.2,3.2,0,0,1,3,0Z"/><path class="cls-22" d="M66.62,40.25,48.78,30a3.2,3.2,0,0,0-3,0l-17.17,10a5.53,5.53,0,0,0,1.45,1.21l14.06,8.12a7,7,0,0,0,3.48.89,6.88,6.88,0,0,0,3.48-.9Z"/><path class="cls-23" d="M6.29,51.43l0-6.52a2,2,0,0,0,1.18,1.65l0,6.52A2,2,0,0,1,6.29,51.43Z"/><path class="cls-24" d="M90.69,46.57l0,6.52a2,2,0,0,1-1.17,1.63l0-6.52A2,2,0,0,0,90.69,46.57Z"/><polygon class="cls-25" points="10.53 48.32 10.52 54.84 7.47 53.08 7.49 46.56 10.53 48.32"/><path class="cls-26" d="M18,58.66l0-6.53a1.08,1.08,0,0,0,.64.86l0,6.52A1.08,1.08,0,0,1,18,58.66Z"/><polygon class="cls-27" points="37.49 63.88 37.47 70.4 18.61 59.51 18.63 52.99 37.49 63.88"/><path class="cls-28" d="M44.93,74.22l0-6.53a1.09,1.09,0,0,0,.64.87l0,6.52A1.09,1.09,0,0,1,44.93,74.22Z"/><polygon class="cls-29" points="89.52 48.2 89.5 54.72 52.86 76.02 52.88 69.5 89.52 48.2"/><polygon class="cls-30" points="47.21 69.5 47.2 76.02 45.57 75.08 45.59 68.56 47.21 69.5"/><path class="cls-31" d="M52.88,69.5l0,6.52a6.27,6.27,0,0,1-5.66,0V69.5A6.29,6.29,0,0,0,52.88,69.5Z"/><path class="cls-32" d="M16.3,42.82a1.55,1.55,0,0,0-1.42,0c-.38.22-.38.59,0,.82a1.59,1.59,0,0,0,1.41,0,.43.43,0,0,0,0-.82"/><path class="cls-33" d="M19.12,41.18a1.55,1.55,0,0,0-1.42,0,.43.43,0,0,0,0,.82,1.58,1.58,0,0,0,1.42,0,.43.43,0,0,0,0-.82"/><path class="cls-34" d="M21.93,39.54a1.59,1.59,0,0,0-1.41,0c-.38.22-.38.59,0,.82a1.56,1.56,0,0,0,1.41,0c.39-.23.39-.59,0-.82"/><path class="cls-35" d="M24.75,37.9a1.56,1.56,0,0,0-1.41,0,.43.43,0,0,0,0,.82,1.55,1.55,0,0,0,1.42,0c.39-.23.39-.59,0-.82"/><path class="cls-36" d="M72.93,54.28a1.59,1.59,0,0,0-1.41,0,.43.43,0,0,0,0,.82,1.53,1.53,0,0,0,1.41,0,.43.43,0,0,0,0-.82"/><path class="cls-37" d="M75.75,52.65a1.55,1.55,0,0,0-1.42,0c-.38.22-.38.59,0,.82a1.59,1.59,0,0,0,1.41,0,.43.43,0,0,0,0-.82"/><path class="cls-38" d="M78.57,51a1.53,1.53,0,0,0-1.41,0c-.4.23-.39.59,0,.82a1.59,1.59,0,0,0,1.41,0,.43.43,0,0,0,0-.82"/><path class="cls-39" d="M81.38,49.37a1.56,1.56,0,0,0-1.41,0c-.39.23-.38.59,0,.82a1.56,1.56,0,0,0,1.41,0c.39-.23.39-.59,0-.82"/><path class="cls-40" d="M25.61,45.46V42.2a1,1,0,0,0,.61.86v3.26A1,1,0,0,1,25.61,45.46Z"/><path class="cls-41" d="M72,43.85v3.26a1,1,0,0,1-.61.85V44.7A1,1,0,0,0,72,43.85Z"/><polygon class="cls-42" points="71.37 44.7 71.36 47.96 51.75 59.36 51.76 56.09 71.37 44.7"/><polygon class="cls-43" points="48.81 56.09 48.8 59.36 26.23 46.32 26.23 43.06 48.81 56.09"/><path class="cls-44" d="M51.76,56.1v3.26a3.26,3.26,0,0,1-3,0V56.1A3.26,3.26,0,0,0,51.76,56.1Z"/><path class="cls-45" d="M51,44.78c-.24-.14-.26-.36-.05-.49a.94.94,0,0,1,.83,0c.24.14.26.36.05.48a.9.9,0,0,1-.83,0m1.56-.91a2.89,2.89,0,0,0-2-.26l-1.86-1.08a4.67,4.67,0,0,0-1.19-.45l-4-.89a2.69,2.69,0,0,1-.71-.26l-1.35-.78a.9.9,0,0,0-.83,0c-.21.13-.19.34.06.48l1.34.78a4.24,4.24,0,0,0,1.18.44l4,.89a3.07,3.07,0,0,1,.72.27l1.86,1.08c-.27.37-.12.84.46,1.17a2.74,2.74,0,0,0,2.49.08c.64-.37.58-1-.15-1.44"/><path class="cls-46" d="M38.66,45.8c-.24-.14-.26-.36,0-.48a.94.94,0,0,1,.83,0c.24.14.26.35.05.48a.94.94,0,0,1-.83,0m12,4.23-4.74-2.74a4.37,4.37,0,0,0-1.54-.51l-3.32-.49-.39-.23c.27-.36.11-.83-.46-1.17a2.79,2.79,0,0,0-2.5-.08c-.64.37-.57,1,.16,1.44a2.9,2.9,0,0,0,2,.27l.52.3a.94.94,0,0,0,.31.1l3.49.51a2.62,2.62,0,0,1,.93.31l4.75,2.74a.9.9,0,0,0,.83,0c.21-.12.19-.34-.06-.48"/><path class="cls-47" d="M61.11,47c-.25-.14-.27-.36,0-.48a.94.94,0,0,1,.83,0c.24.14.25.35,0,.47a.88.88,0,0,1-.82,0m10-2.31L69.87,44a4.56,4.56,0,0,0-4.14-.13l-3.57,2.07a2.66,2.66,0,0,0-2,.13c-.65.38-.58,1,.15,1.44a2.72,2.72,0,0,0,2.48.08A.68.68,0,0,0,63,46.42l3.57-2.08a2.76,2.76,0,0,1,2.5.08l1.32.76.52-.3a2.09,2.09,0,0,0,.22-.16"/><path class="cls-48" d="M51.86,53.42c-.25-.14-.27-.36-.06-.48a1,1,0,0,1,.84,0c.24.14.26.35,0,.48a.91.91,0,0,1-.82,0M48,40.37c-.24-.14-.26-.36,0-.48a.88.88,0,0,1,.82,0c.25.14.27.35.06.48a1,1,0,0,1-.84,0m1.56-.91a2.77,2.77,0,0,0-2.49-.08c-.64.37-.57,1,.16,1.44a2.93,2.93,0,0,0,2,.27l5.27,3a1.25,1.25,0,0,1,.54.53l.71,1.62a2.14,2.14,0,0,0,.9.89l.79.45-1.3.76a1.22,1.22,0,0,0-.73,1.17l.08.8a.76.76,0,0,1-.44.7L52.9,52.3a2.64,2.64,0,0,0-2,.14c-.64.37-.58,1,.15,1.43a2.75,2.75,0,0,0,2.48.09.69.69,0,0,0,.22-1.15l2.16-1.25a1.22,1.22,0,0,0,.73-1.17l-.09-.8a.76.76,0,0,1,.45-.7l1.3-.76,3.52,2,.78-.45-5.19-3a1.19,1.19,0,0,1-.53-.54l-.73-1.61a2.07,2.07,0,0,0-.89-.9l-5.27-3c.28-.37.12-.83-.46-1.17"/><path class="cls-49" d="M46.32,32.18c-.24-.14-.27-.36,0-.48a.9.9,0,0,1,.83,0c.24.14.26.36,0,.49a.94.94,0,0,1-.83,0m9.71,2-.87-.5L54,34.35a2.78,2.78,0,0,1-2.49-.09l-3.16-1.82c.27-.37.11-.84-.46-1.17a2.74,2.74,0,0,0-2.49-.08c-.64.37-.58,1,.15,1.44a2.89,2.89,0,0,0,2,.26l3.16,1.83a4.56,4.56,0,0,0,4.14.13L56,34.17"/><path class="cls-50" d="M54.74,41.55c-.24-.14-.27-.35-.05-.48a.94.94,0,0,1,.83,0c.25.14.27.35,0,.48a.94.94,0,0,1-.83,0m3-6.36-.88-.51-5.06,2.94c-1.08.63-1,1.71.26,2.41l1.39.8c-.26.37-.11.85.46,1.17a2.78,2.78,0,0,0,2.49.09c.65-.38.57-1-.15-1.44a3,3,0,0,0-2-.27l-1.39-.81c-.73-.42-.81-1.06-.16-1.44l5.06-2.94"/><path class="cls-51" d="M63.07,38.24l-.88-.51-1.48.86a2.13,2.13,0,0,1-.87.25l-3.09.26-.65-.37a.9.9,0,0,0-.83,0c-.21.12-.19.34,0,.48l.88.5a1,1,0,0,0,.54.12l3.41-.29a3.63,3.63,0,0,0,1.45-.41l1.47-.86"/><path class="cls-52" d="M60.8,44.15c-.24-.15-.27-.36,0-.48a.91.91,0,0,1,.83,0c.24.14.27.35.05.47a.9.9,0,0,1-.83,0m4.91-4.39-.87-.5-2.26,1.31a1.45,1.45,0,0,0-.72.84L61.49,43a2.48,2.48,0,0,0-1.62.21c-.65.37-.58,1,.15,1.44a2.74,2.74,0,0,0,2.49.08.71.71,0,0,0,.08-1.28L63,41.58a.85.85,0,0,1,.42-.51l2.26-1.31"/><path class="cls-53" d="M32.81,45.13c-.25-.14-.27-.36-.06-.48a.9.9,0,0,1,.83,0c.24.14.27.35.05.48a.91.91,0,0,1-.82,0m2.13-3.29L30.1,39.05l-.78.45,4.84,2.8c.73.42.79,1.07.15,1.44l-.46.27a2.67,2.67,0,0,0-2,.13c-.64.37-.57,1,.16,1.44a2.74,2.74,0,0,0,2.49.08.68.68,0,0,0,.21-1.14l.46-.27c1.08-.62,1-1.7-.25-2.41"/><path class="cls-54" d="M50.38,47.15c-.25-.14-.27-.35-.06-.48a.93.93,0,0,1,.84,0c.24.14.26.35,0,.48a.91.91,0,0,1-.82,0m1.55-.9a2.82,2.82,0,0,0-2-.27l-3.63-2.09a4.32,4.32,0,0,0-1.19-.45l-4-.89a2.5,2.5,0,0,1-.71-.27l-8-4.59-.78.46,8,4.59a4.2,4.2,0,0,0,1.19.44l4,.89a2.45,2.45,0,0,1,.72.27l3.63,2.09c-.28.37-.12.84.46,1.17a2.72,2.72,0,0,0,2.48.08c.65-.37.58-1-.15-1.43"/><path class="cls-55" d="M41.75,35.85c-.25-.14-.27-.35,0-.48a.94.94,0,0,1,.83,0c.24.14.26.36,0,.48a.91.91,0,0,1-.83,0m1.56-.9a2.78,2.78,0,0,0-2.49-.09A.69.69,0,0,0,40.6,36l-2,1.17a2.76,2.76,0,0,1-2.5-.08l-1.32-.76-.78.45,1.33.76a4.58,4.58,0,0,0,4.15.14l2-1.17a2.72,2.72,0,0,0,2-.13c.64-.38.58-1-.15-1.44"/><path class="cls-56" d="M42.93,39.24c-.24-.14-.27-.35,0-.48a.94.94,0,0,1,.83,0c.24.14.26.36,0,.48a.9.9,0,0,1-.83,0m3.74-5.06-4.11-2.37-.78.45,4.11,2.38a1,1,0,0,1,.59.74l.09.79a.74.74,0,0,1-.44.7L44,38.13a2.64,2.64,0,0,0-2,.12c-.64.38-.58,1,.15,1.45a2.77,2.77,0,0,0,2.49.08.69.69,0,0,0,.22-1.15L47,37.38a1.22,1.22,0,0,0,.73-1.17l-.08-.79a1.76,1.76,0,0,0-1-1.24"/><path class="cls-57" d="M30,41.68a.94.94,0,0,0-.83,0c-.21.13-.19.35.05.49.73.42.8,1.06.16,1.44l-1.17.68.87.5,1.17-.68c1.08-.62,1-1.7-.25-2.4"/><path class="cls-58" d="M46.68,51.33c-.25-.14-.27-.35,0-.48a.94.94,0,0,1,.83,0c.24.14.26.36,0,.48a.94.94,0,0,1-.83,0m1.56-.9a3,3,0,0,0-2-.27l-.52-.29a.82.82,0,0,0-.31-.11l-3.5-.51a2.63,2.63,0,0,1-.92-.31l-1.23-.71a4.61,4.61,0,0,0-4.15-.14l-.39.23.89.51.38-.23a2.79,2.79,0,0,1,2.5.08l1.22.71a4.57,4.57,0,0,0,1.55.52l3.32.49.38.22c-.27.37-.11.84.46,1.17a2.77,2.77,0,0,0,2.49.08c.64-.37.58-1-.15-1.44"/><path class="cls-59" d="M47.77,53.76l-1.77-1a.88.88,0,0,0-.83,0c-.22.12-.19.34,0,.48l1.77,1c.56.32.72.8.45,1.16l.92.53c.68-.63.47-1.54-.59-2.15"/><path class="cls-60" d="M66.68,37.23l-1.41-.82-15.51,9,1.42.82a1.53,1.53,0,0,0,1.41,0l3.53-2.05a.43.43,0,0,0,0-.82.43.43,0,0,1,0-.82l4.23-2.45a1.55,1.55,0,0,1,1.42,0,1.59,1.59,0,0,0,1.41,0l3.52-2.05c.39-.23.38-.59,0-.82"/><path class="cls-61" d="M48.24,26.58l-1.42-.82a1.59,1.59,0,0,0-1.41,0l-3.52,2c-.4.23-.39.59,0,.82a.44.44,0,0,1,0,.82L37.67,31.9a1.55,1.55,0,0,1-1.42,0,1.59,1.59,0,0,0-1.41,0L31.31,34a.43.43,0,0,0,0,.82l1.42.82,15.5-9"/><path class="cls-62" d="M45.52,45.42,32.75,38.05a.87.87,0,0,0,0,1.64l9.93,5.73a3.1,3.1,0,0,0,2.83,0"/><path class="cls-63" d="M65.24,32.31l-9.92-5.73a3.16,3.16,0,0,0-2.84,0L65.25,34c.78-.45.78-1.18,0-1.64"/><path class="cls-64" d="M65.9,34.33,65.25,34,52.48,26.58l-.64-.37a3.2,3.2,0,0,0-3,0l-.65.37-15.5,9L32.1,36a.9.9,0,0,0,0,1.71l.64.38,12.77,7.37.65.37a3.2,3.2,0,0,0,2.95,0l.64-.37,15.51-9,.64-.37A.9.9,0,0,0,65.9,34.33Z"/><path class="cls-65" d="M63.08,34.33,51.85,27.84a3.26,3.26,0,0,0-3,0L34.92,36a.9.9,0,0,0,0,1.71l11.23,6.49a3.23,3.23,0,0,0,3,0l14-8.12a.9.9,0,0,0,0-1.7"/></g></svg>