<svg xmlns="http://www.w3.org/2000/svg" xmlns:xlink="http://www.w3.org/1999/xlink" viewBox="0 0 96 96"><defs><style>.cls-1{fill:url(#linear-gradient);}.cls-2{fill:url(#linear-gradient-2);}.cls-3{fill:url(#linear-gradient-3);}.cls-4{fill:url(#linear-gradient-4);}.cls-5{fill:url(#linear-gradient-5);}.cls-6{fill:#9de5fc;}.cls-7{fill:url(#linear-gradient-6);}.cls-8{fill:url(#linear-gradient-7);}.cls-9{fill:url(#linear-gradient-8);}.cls-10{fill:url(#linear-gradient-9);}.cls-11{fill:url(#linear-gradient-10);}.cls-12{fill:#0096c7;}.cls-13{fill:url(#linear-gradient-11);}.cls-14{fill:url(#linear-gradient-12);}.cls-15{fill:url(#linear-gradient-13);}.cls-16{fill:url(#linear-gradient-14);}.cls-17{fill:url(#linear-gradient-15);}.cls-18{fill:url(#linear-gradient-16);}.cls-19{fill:url(#linear-gradient-17);}.cls-20{fill:url(#linear-gradient-18);}.cls-21{fill:url(#linear-gradient-19);}.cls-22{fill:#00b4d8;}.cls-23{fill:url(#linear-gradient-20);}.cls-24{fill:url(#linear-gradient-21);}.cls-25{fill:url(#linear-gradient-22);}.cls-26{fill:#fdc500;}.cls-27{fill:url(#linear-gradient-23);}.cls-28{fill:url(#linear-gradient-24);}.cls-29{fill:url(#linear-gradient-25);}.cls-30{fill:url(#linear-gradient-26);}.cls-31{fill:url(#linear-gradient-27);}.cls-32{fill:url(#linear-gradient-28);}.cls-33{fill:url(#linear-gradient-29);}.cls-34{fill:url(#linear-gradient-30);}.cls-35{fill:url(#linear-gradient-31);}.cls-36{fill:url(#linear-gradient-32);}</style><linearGradient id="linear-gradient" x1="41.37" y1="14.67" x2="50.08" y2="14.67" gradientTransform="matrix(-1, 0, 0, 1, 94.22, 0)" gradientUnits="userSpaceOnUse"><stop offset="0" stop-color="#caf0f8"/><stop offset="1" stop-color="#90e0ef"/></linearGradient><linearGradient id="linear-gradient-2" x1="29.05" y1="9.38" x2="40.69" y2="9.38" xlink:href="#linear-gradient"/><linearGradient id="linear-gradient-3" x1="8.89" y1="38.22" x2="19.62" y2="38.22" xlink:href="#linear-gradient"/><linearGradient id="linear-gradient-4" x1="31.87" y1="19.92" x2="16.81" y2="19.92" xlink:href="#linear-gradient"/><linearGradient id="linear-gradient-5" x1="20.35" y1="24.75" x2="43.51" y2="38.12" xlink:href="#linear-gradient"/><linearGradient id="linear-gradient-6" x1="59.37" y1="29.12" x2="65.04" y2="29.12" gradientUnits="userSpaceOnUse"><stop offset="0" stop-color="#61e786"/><stop offset="1" stop-color="#4ac664"/></linearGradient><linearGradient id="linear-gradient-7" x1="57.95" y1="23.68" x2="66.46" y2="23.68" xlink:href="#linear-gradient-6"/><linearGradient id="linear-gradient-8" x1="56.52" y1="19.59" x2="67.88" y2="19.59" xlink:href="#linear-gradient-6"/><linearGradient id="linear-gradient-9" x1="57.09" y1="54.12" x2="79.62" y2="54.12" gradientUnits="userSpaceOnUse"><stop offset="0" stop-color="#ffd500"/><stop offset="1" stop-color="#fdc500"/></linearGradient><linearGradient id="linear-gradient-10" x1="17.26" y1="42.11" x2="57.41" y2="42.11" xlink:href="#linear-gradient-9"/><linearGradient id="linear-gradient-11" x1="23.75" y1="81.23" x2="24.05" y2="81.23" gradientTransform="matrix(-1, 0, 0, 1, 94.22, 0)" gradientUnits="userSpaceOnUse"><stop offset="0" stop-color="#00b4d8"/><stop offset="1" stop-color="#0096c7"/></linearGradient><linearGradient id="linear-gradient-12" x1="43.9" y1="84.3" x2="70.7" y2="84.3" xlink:href="#linear-gradient-11"/><linearGradient id="linear-gradient-13" x1="24.04" y1="86.76" x2="42.5" y2="86.76" xlink:href="#linear-gradient-11"/><linearGradient id="linear-gradient-14" x1="43.91" y1="92.17" x2="42.49" y2="92.17" xlink:href="#linear-gradient-11"/><linearGradient id="linear-gradient-15" x1="36.72" y1="66.28" x2="58.03" y2="87.59" xlink:href="#linear-gradient-11"/><linearGradient id="linear-gradient-16" x1="48.47" y1="39.69" x2="51.8" y2="39.69" gradientTransform="matrix(-1, 0, 0, 1, 94.22, 0)" gradientUnits="userSpaceOnUse"><stop offset="0" stop-color="#e6f1fc"/><stop offset="1" stop-color="#bfcde0"/></linearGradient><linearGradient id="linear-gradient-17" x1="48.47" y1="39.69" x2="51.8" y2="39.69" xlink:href="#linear-gradient-11"/><linearGradient id="linear-gradient-18" x1="20.87" y1="77.96" x2="23.9" y2="77.96" xlink:href="#linear-gradient-11"/><linearGradient id="linear-gradient-19" x1="36.41" y1="56.12" x2="36.41" y2="38.92" xlink:href="#linear-gradient-11"/><linearGradient id="linear-gradient-20" x1="21.96" y1="55.85" x2="24.48" y2="55.85" gradientTransform="matrix(1, 0, 0, 1, 0, 0)" xlink:href="#linear-gradient-11"/><linearGradient id="linear-gradient-21" x1="71.09" y1="27.86" x2="83.84" y2="27.86" xlink:href="#linear-gradient-11"/><linearGradient id="linear-gradient-22" x1="21.62" y1="30.95" x2="24" y2="33.32" gradientTransform="matrix(1, 0, 0, 1, 0, 0)" xlink:href="#linear-gradient-11"/><linearGradient id="linear-gradient-23" x1="66" y1="52.63" x2="75.52" y2="36.15" xlink:href="#linear-gradient-11"/><linearGradient id="linear-gradient-24" x1="67.49" y1="52.18" x2="89.62" y2="30.05" xlink:href="#linear-gradient-11"/><linearGradient id="linear-gradient-25" x1="71.88" y1="34.44" x2="85.23" y2="47.79" gradientTransform="matrix(-1, 0, 0, 1, 94.22, 0)" gradientUnits="userSpaceOnUse"><stop offset="0" stop-color="#dcf7ff"/><stop offset="1" stop-color="#c3edfd"/></linearGradient><linearGradient id="linear-gradient-26" x1="11.23" y1="41.41" x2="17.36" y2="41.41" xlink:href="#linear-gradient-6"/><linearGradient id="linear-gradient-27" x1="13.96" y1="40.82" x2="20.09" y2="40.82" xlink:href="#linear-gradient-6"/><linearGradient id="linear-gradient-28" x1="16.95" y1="57.95" x2="27.55" y2="76.31" xlink:href="#linear-gradient-11"/><linearGradient id="linear-gradient-29" x1="26.03" y1="80.23" x2="49.67" y2="39.28" xlink:href="#linear-gradient-11"/><linearGradient id="linear-gradient-30" x1="33.6" y1="52.41" x2="42.09" y2="67.11" xlink:href="#linear-gradient-25"/><linearGradient id="linear-gradient-31" x1="54.75" y1="59.7" x2="62.27" y2="59.7" xlink:href="#linear-gradient-6"/><linearGradient id="linear-gradient-32" x1="50.48" y1="59.82" x2="58" y2="59.82" xlink:href="#linear-gradient-6"/></defs><g id="Layer_3" data-name="Layer 3"><path class="cls-1" d="M50,16.25l2.82-1.64a9.23,9.23,0,0,0-.84-.54c-2-1.14-3.76-1.25-5-.5l-2.82,1.64c1.29-.75,3.08-.64,5,.49a9.33,9.33,0,0,1,.84.55"/><path class="cls-2" d="M62.35,11.05l2.82-1.63c-3.45-2-6.57-2.18-8.82-.87l-2.82,1.64c2.26-1.31,5.37-1.13,8.82.86"/><path class="cls-3" d="M80.44,47.66,83.26,46c1.27-.74,2.06-2.32,2.07-4.55a15.57,15.57,0,0,0-7.07-12.25c-.28-.16-.56-.3-.85-.43L74.6,30.43c.28.13.56.27.84.43A15.57,15.57,0,0,1,82.51,43.1c0,2.24-.8,3.82-2.07,4.56"/><path class="cls-4" d="M74.6,30.43l2.81-1.64c-.81-7.42-6-15.75-12.24-19.37l-2.82,1.63c6.27,3.62,11.43,12,12.25,19.38"/><path class="cls-5" d="M62.35,11.05C56.08,7.43,50.89,9.79,50,16.25a9.33,9.33,0,0,0-.84-.55c-3.92-2.26-7.1-.44-7.12,4.06A15.6,15.6,0,0,0,49.14,32L75.39,47.16c3.92,2.26,7.11.45,7.12-4.06a15.57,15.57,0,0,0-7.07-12.24c-.28-.16-.56-.3-.84-.43C73.78,23,68.62,14.67,62.35,11.05Z"/><path class="cls-6" d="M57.07,32c-.79-.45-1.43-.09-1.43.81a3.08,3.08,0,0,0,1.42,2.45c.78.45,1.42.09,1.42-.81A3.15,3.15,0,0,0,57.07,32Z"/><path class="cls-6" d="M65.71,37c-.78-.45-1.42-.09-1.42.82a3.11,3.11,0,0,0,1.42,2.45c.77.45,1.41.08,1.42-.81A3.14,3.14,0,0,0,65.71,37Z"/><path class="cls-7" d="M62.21,25.85c-1.56-.9-2.84-.17-2.84,1.63a6.24,6.24,0,0,0,2.82,4.9c1.57.9,2.85.18,2.85-1.63A6.23,6.23,0,0,0,62.21,25.85Z"/><path class="cls-8" d="M62.15,21.17a3.84,3.84,0,0,0-4-.18c-.27.16-.27.67,0,1.15a1.51,1.51,0,0,0,.5.53.51.51,0,0,0,.5,0,2.88,2.88,0,0,1,3,.09,9.79,9.79,0,0,1,3.08,3.42,1.48,1.48,0,0,0,.51.54.51.51,0,0,0,.5,0c.28-.15.28-.66,0-1.15A12.4,12.4,0,0,0,62.15,21.17Z"/><path class="cls-9" d="M62.21,16.58c-2-1.13-3.91-1.36-5.48-.47-.28.15-.28.67,0,1.15a1.43,1.43,0,0,0,.5.53.49.49,0,0,0,.5.05,4.43,4.43,0,0,1,4.47.38A13,13,0,0,1,66.66,23a1.43,1.43,0,0,0,.5.53.53.53,0,0,0,.51.06c.27-.16.27-.68,0-1.16A15.93,15.93,0,0,0,62.21,16.58Z"/><path class="cls-10" d="M58.09,70.12a.93.93,0,0,0,.5-.14L78.12,58.72a3,3,0,0,0,0-5.19L61.59,44a1,1,0,0,1,0-1.74L65.53,40a1,1,0,1,0-1-1.73L60.6,40.52a3,3,0,0,0,0,5.2l16.53,9.54a1,1,0,0,1,0,1.73L57.59,68.25a1,1,0,0,0,.5,1.87Z"/><path class="cls-11" d="M18.26,51.12a1,1,0,0,0,.5-.14l12.35-7.13a2,2,0,0,1,2,0l2.24,1.27a4,4,0,0,0,4,0L56.9,35a1,1,0,0,0-1-1.74L38.31,43.36a2,2,0,0,1-2,0L34.08,42.1a4,4,0,0,0-4,0L17.76,49.25a1,1,0,0,0,.5,1.87Z"/><path class="cls-12" d="M23.23,74.48v3.26a.49.49,0,0,0,.29.4V74.88a.5.5,0,0,1-.29-.4"/><path class="cls-13" d="M70.17,79.8v3.26a.5.5,0,0,0,.29-.41V79.39a.5.5,0,0,1-.29.41"/><polygon class="cls-14" points="23.52 74.88 23.53 78.14 50.32 93.71 50.31 90.45 23.52 74.88"/><polygon class="cls-15" points="51.72 90.45 51.73 93.71 70.18 83.06 70.17 79.8 51.72 90.45"/><path class="cls-16" d="M50.31,90.45v3.26a1.53,1.53,0,0,0,1.41,0V90.45a1.53,1.53,0,0,1-1.41,0"/><path class="cls-17" d="M23.53,74.07a.43.43,0,0,0,0,.81L50.31,90.45a1.53,1.53,0,0,0,1.41,0L70.17,79.8a.43.43,0,0,0,0-.82L43.38,63.42a1.53,1.53,0,0,0-1.41,0Z"/><path class="cls-18" d="M42.93,40.56l2.82-1.64a.53.53,0,0,0-.51-.05l-2.82,1.64a.53.53,0,0,1,.51.05"/><path class="cls-19" d="M45.24,38.87l-2.82,1.64a.53.53,0,0,1,.51.05l2.82-1.64A.53.53,0,0,0,45.24,38.87Z"/><path class="cls-20" d="M70.32,79l2.82-1.64a.52.52,0,0,0,.21-.47l-2.82,1.64a.52.52,0,0,1-.21.47"/><polygon class="cls-21" points="69.88 56.12 72.7 54.49 45.75 38.92 42.93 40.56 69.88 56.12"/><path class="cls-22" d="M70.59,57.36l2.82-1.64a1.53,1.53,0,0,0-.71-1.23l-2.82,1.63a1.56,1.56,0,0,1,.71,1.24"/><path class="cls-23" d="M22,56.92l2.11-1.23a1,1,0,0,0,.41-.91L22.37,56a1,1,0,0,1-.41.91"/><path class="cls-12" d="M10.38,25.41l2.11-1.23a1,1,0,0,0-1-.1L9.37,25.31a1,1,0,0,1,1,.1"/><polygon class="cls-24" points="21.02 31.55 23.13 30.32 12.49 24.18 10.38 25.41 21.02 31.55"/><path class="cls-25" d="M22.43,34l2.12-1.23a3.13,3.13,0,0,0-1.42-2.45L21,31.55A3.07,3.07,0,0,1,22.43,34"/><polygon class="cls-26" points="26.51 46.51 20.39 50.04 20.39 47.73 26.51 44.19 26.51 46.51"/><polygon class="cls-27" points="22.37 56.01 24.48 54.78 24.55 32.77 22.43 34 22.37 56.01"/><path class="cls-28" d="M10.38,25.41C9.59,25,9,25.32,9,26.22l-.06,22a3.11,3.11,0,0,0,1.41,2.44L21,56.82c.78.45,1.42.09,1.42-.81l.06-22A3.07,3.07,0,0,0,21,31.55Z"/><path class="cls-29" d="M11.44,27.24c-.78-.45-1.42-.09-1.43.82l0,19.56a3.13,3.13,0,0,0,1.41,2.45L19.89,55c.78.45,1.42.08,1.42-.81l.06-19.56A3.14,3.14,0,0,0,20,32.16Z"/><path class="cls-30" d="M12.91,36.65a.58.58,0,0,0-.47-.06A2.4,2.4,0,0,0,11.23,39a7.88,7.88,0,0,0,2.82,5.62v1.15a.65.65,0,0,0,.28.49.21.21,0,0,0,.15,0L17.22,46c.19,0,.19-.32,0-.56L14.5,42a.58.58,0,0,0-.15-.13c-.15-.08-.29,0-.29.16v.91a4.69,4.69,0,0,1-1.41-3.12,1.41,1.41,0,0,1,.72-1.41c.3-.13.33-.63.07-1.12A1.62,1.62,0,0,0,12.91,36.65Z"/><path class="cls-31" d="M17,36a.28.28,0,0,0-.15,0l-2.74.28c-.19,0-.19.33,0,.56l2.73,3.46a.44.44,0,0,0,.15.13c.14.09.28,0,.28-.16v-.9a4.74,4.74,0,0,1,1.42,3.11A1.45,1.45,0,0,1,18,43.87c-.29.13-.33.63-.07,1.12a1.4,1.4,0,0,0,.53.57.54.54,0,0,0,.48.07,2.38,2.38,0,0,0,1.2-2.36,7.88,7.88,0,0,0-2.83-5.64V36.5A.59.59,0,0,0,17,36Z"/><polygon class="cls-26" points="68.58 61.92 75.4 57.98 75.39 60.3 68.57 64.23 68.58 61.92"/><polygon class="cls-32" points="70.53 78.54 73.35 76.9 73.41 55.72 70.59 57.35 70.53 78.54"/><path class="cls-33" d="M42.93,40.56c-.39-.22-.71,0-.71.41l-.06,21.19a1.52,1.52,0,0,0,.7,1.23L69.82,79c.39.22.71,0,.71-.42l.06-21.18a1.56,1.56,0,0,0-.71-1.24Z"/><path class="cls-34" d="M44.34,43c-.39-.22-.71,0-.71.41l-.05,17.93a1.57,1.57,0,0,0,.7,1.23L68.41,76.51c.38.22.71,0,.71-.42l0-17.93a1.57,1.57,0,0,0-.71-1.22Z"/><path class="cls-35" d="M57.75,53a.28.28,0,0,0-.15,0l-2.71.56c-.18,0-.19.33,0,.57l2.7,3.67a.79.79,0,0,0,.14.13.18.18,0,0,0,.3-.16V56.51a7.9,7.9,0,0,1,2.82,5.63c0,1.37-.6,2.29-1.59,2.49-.33.06-.42.51-.2,1a1.47,1.47,0,0,0,.58.7.7.7,0,0,0,.4.1c1.39-.27,2.22-1.56,2.23-3.48A11,11,0,0,0,58,54.88V53.49A.63.63,0,0,0,57.75,53Z"/><path class="cls-36" d="M53.11,53.18a.62.62,0,0,0-.4-.09c-1.39.26-2.23,1.56-2.23,3.47a11,11,0,0,0,4.24,8.08V66a.63.63,0,0,0,.29.49.17.17,0,0,0,.14,0L57.86,66c.19,0,.19-.33,0-.56l-2.71-3.68a.43.43,0,0,0-.14-.13c-.14-.08-.28,0-.28.17V63a7.88,7.88,0,0,1-2.82-5.62c0-1.38.6-2.3,1.59-2.49.33-.06.42-.51.2-1A1.49,1.49,0,0,0,53.11,53.18Z"/></g></svg>