<svg xmlns="http://www.w3.org/2000/svg" xmlns:xlink="http://www.w3.org/1999/xlink" viewBox="0 0 96 96"><defs><style>.cls-1{fill:url(#linear-gradient);}.cls-2{fill:url(#linear-gradient-2);}.cls-3{fill:url(#linear-gradient-3);}.cls-4{fill:url(#linear-gradient-4);}.cls-5{fill:url(#linear-gradient-5);}.cls-6{fill:url(#linear-gradient-6);}.cls-7{fill:url(#linear-gradient-7);}.cls-8{fill:url(#linear-gradient-8);}.cls-9{fill:url(#linear-gradient-9);}.cls-10{fill:url(#linear-gradient-10);}.cls-11{fill:url(#linear-gradient-11);}.cls-12{fill:url(#linear-gradient-12);}.cls-13{fill:url(#linear-gradient-13);}.cls-14{fill:url(#linear-gradient-14);}.cls-15{fill:url(#linear-gradient-15);}.cls-16{fill:url(#linear-gradient-16);}.cls-17{fill:url(#linear-gradient-17);}.cls-18{fill:url(#linear-gradient-18);}.cls-19{fill:url(#linear-gradient-19);}.cls-20{fill:url(#linear-gradient-20);}</style><linearGradient id="linear-gradient" x1="33.66" y1="69.88" x2="73.33" y2="69.88" gradientUnits="userSpaceOnUse"><stop offset="0" stop-color="#caf0f8"/><stop offset="1" stop-color="#90e0ef"/></linearGradient><linearGradient id="linear-gradient-2" x1="28.2" y1="78.36" x2="50.19" y2="78.36" xlink:href="#linear-gradient"/><linearGradient id="linear-gradient-3" x1="48.2" y1="31.12" x2="80.74" y2="49.91" xlink:href="#linear-gradient"/><linearGradient id="linear-gradient-4" x1="59.44" y1="22.11" x2="65.66" y2="15.89" xlink:href="#linear-gradient"/><linearGradient id="linear-gradient-5" x1="28.1" y1="56.4" x2="45.82" y2="56.4" xlink:href="#linear-gradient"/><linearGradient id="linear-gradient-6" x1="56.52" y1="6.69" x2="56.52" y2="18.88" xlink:href="#linear-gradient"/><linearGradient id="linear-gradient-7" x1="32.28" y1="19.67" x2="53.07" y2="31.67" xlink:href="#linear-gradient"/><linearGradient id="linear-gradient-8" x1="45.72" y1="53.12" x2="74.9" y2="53.12" xlink:href="#linear-gradient"/><linearGradient id="linear-gradient-9" x1="42.53" y1="77.53" x2="49.23" y2="73.67" gradientUnits="userSpaceOnUse"><stop offset="0" stop-color="#00b4d8"/><stop offset="1" stop-color="#0096c7"/></linearGradient><linearGradient id="linear-gradient-10" x1="41.5" y1="55.7" x2="53.44" y2="62.59" xlink:href="#linear-gradient-9"/><linearGradient id="linear-gradient-11" x1="28.62" y1="27" x2="37.61" y2="27" xlink:href="#linear-gradient-9"/><linearGradient id="linear-gradient-12" x1="39.7" y1="39.42" x2="45.1" y2="34.02" xlink:href="#linear-gradient-9"/><linearGradient id="linear-gradient-13" x1="18.63" y1="43.31" x2="53.62" y2="63.51" xlink:href="#linear-gradient-9"/><linearGradient id="linear-gradient-14" x1="20.64" y1="44.08" x2="51.32" y2="61.79" gradientUnits="userSpaceOnUse"><stop offset="0" stop-color="#dcf7ff"/><stop offset="1" stop-color="#c3edfd"/></linearGradient><linearGradient id="linear-gradient-15" x1="28.21" y1="51.68" x2="43.75" y2="51.68" gradientUnits="userSpaceOnUse"><stop offset="0" stop-color="#ffd500"/><stop offset="1" stop-color="#fdc500"/></linearGradient><linearGradient id="linear-gradient-16" x1="29.27" y1="37.23" x2="33.53" y2="37.23" xlink:href="#linear-gradient-15"/><linearGradient id="linear-gradient-17" x1="38.49" y1="42.91" x2="42.75" y2="42.91" xlink:href="#linear-gradient-15"/><linearGradient id="linear-gradient-18" x1="28.74" y1="61.47" x2="34.42" y2="61.47" xlink:href="#linear-gradient-15"/><linearGradient id="linear-gradient-19" x1="28.74" y1="64.33" x2="38.67" y2="64.33" xlink:href="#linear-gradient-15"/><linearGradient id="linear-gradient-20" x1="33.73" y1="71.5" x2="37.27" y2="71.5" xlink:href="#linear-gradient-15"/></defs><g id="Layer_20" data-name="Layer 20"><path class="cls-1" d="M51.28,86.37,33.66,76.13c2.35,1.36,5.57,1.18,9.12-.87C50,71.13,55.73,61,55.71,52.51L73.33,62.75c0,8.44-5.76,18.62-12.93,22.75C56.85,87.55,53.63,87.73,51.28,86.37Z"/><path class="cls-2" d="M50.19,88.33,32.57,78.09c-2.69-1.56-4.36-4.92-4.37-9.7L45.82,78.63C45.83,83.41,47.5,86.77,50.19,88.33Z"/><polygon class="cls-3" points="73.33 62.75 55.71 52.51 55.61 18.28 73.23 28.52 73.33 62.75"/><path class="cls-4" d="M51.72,9.63,69.34,19.87c2.39,1.39,3.88,4.39,3.89,8.65L55.61,18.28C55.6,14,54.11,11,51.72,9.63Z"/><polygon class="cls-5" points="45.82 78.63 28.2 68.39 28.1 34.16 45.72 44.4 45.82 78.63"/><path class="cls-6" d="M52.82,7.68,70.44,17.91c-2.64-1.53-6.25-1.33-10.23,1L42.59,8.64C46.57,6.35,50.18,6.14,52.82,7.68Z"/><path class="cls-7" d="M45.72,44.4,28.1,34.16c0-9.45,6.46-20.88,14.49-25.52L60.21,18.88C52.18,23.52,45.69,35,45.72,44.4Z"/><path class="cls-8" d="M60.21,18.88c8-4.64,14.57-.73,14.6,8.73l.09,34.23c0,9.46-6.46,20.88-14.49,25.52s-14.57.73-14.59-8.73l-.1-34.23C45.69,35,52.18,23.52,60.21,18.88ZM73.33,62.75l-.1-34.23c0-8.44-5.85-11.92-13-7.78S47.27,35.06,47.29,43.5l.1,34.23c0,8.43,5.85,11.91,13,7.77S73.35,71.19,73.33,62.75"/><path class="cls-9" d="M45,78.6l-1.41.82c1.91-1.11,3.1-3.47,3.11-6.83l1.4-.82C48.13,75.13,46.94,77.49,45,78.6Z"/><polygon class="cls-10" points="46.8 46.51 48.21 45.69 48.13 71.77 46.73 72.59 46.8 46.51"/><path class="cls-11" d="M28.62,27.4,30,26.58c1.94-1.13,4.62-1,7.58.74l-1.41.82C33.24,26.43,30.56,26.27,28.62,27.4Z"/><path class="cls-12" d="M36.2,28.14l1.41-.82c5.87,3.39,10.62,11.62,10.6,18.37l-1.41.82C46.82,39.76,42.07,31.53,36.2,28.14Z"/><path class="cls-13" d="M36.2,28.14c5.87,3.39,10.62,11.62,10.6,18.37l-.07,26.08c0,6.76-4.8,9.48-10.68,6.09S25.43,67.06,25.44,60.31l.08-26.08C25.54,27.47,30.32,24.75,36.2,28.14Z"/><path class="cls-14" d="M36,30.11c-4.9-2.83-8.88-.56-8.9,5.07l-.07,25.27c0,5.62,3.94,12.48,8.84,15.31s8.88.55,8.9-5.07l.07-25.27C44.9,39.79,40.94,32.94,36,30.11Z"/><path class="cls-15" d="M39.51,47.22a3.06,3.06,0,0,0-3-.31.51.51,0,0,1-.5,0,1.51,1.51,0,0,1-.5-.53,8.58,8.58,0,0,0-3-3.16,3,3,0,0,0-3-.31c-1.67,1-1.68,4,0,6.91l.5.87,5.5,9.52a1.43,1.43,0,0,0,.5.53.49.49,0,0,0,.5.05L42,57.59l.5-.28c1.67-1,1.68-4.06,0-6.92a8.54,8.54,0,0,0-3-3.17"/><path class="cls-16" d="M32.83,36.42,30,34.78c-.39-.23-.71-.05-.71.4v1.63A1.55,1.55,0,0,0,30,38l2.84,1.64c.39.23.71,0,.71-.41V37.64a1.54,1.54,0,0,0-.7-1.22"/><path class="cls-17" d="M40.63,40.92c-.79-.45-1.42-.08-1.42.81-.4-.23-.71,0-.72.41a1.59,1.59,0,0,0,.71,1.23L42,45c.39.23.71,0,.71-.41A1.55,1.55,0,0,0,42,43.37a3.13,3.13,0,0,0-1.41-2.45"/><path class="cls-18" d="M34.07,62.5l-5-2.87c-.2-.11-.36,0-.36.2a.79.79,0,0,0,.36.62l5,2.87c.19.11.35,0,.35-.21a.79.79,0,0,0-.35-.61"/><path class="cls-19" d="M38.32,66.59,29.1,61.26c-.2-.11-.36,0-.36.21a.81.81,0,0,0,.35.61l9.22,5.32c.2.11.36,0,.36-.2a.79.79,0,0,0-.35-.61"/><path class="cls-20" d="M34.78,72.31a.79.79,0,0,1-.35-.61V70.07c0-.22.16-.31.35-.2l1.42.82a.73.73,0,0,1,.35.61v1.63c0,.22-.16.31-.35.2l-1.43-.82m1.44-2.44-1.43-.82c-.58-.34-1.06-.07-1.06.61v1.63a2.28,2.28,0,0,0,1.05,1.83l1.43.83c.58.33,1.06.06,1.06-.61V71.71a2.32,2.32,0,0,0-1.05-1.84"/></g></svg>