<svg xmlns="http://www.w3.org/2000/svg" xmlns:xlink="http://www.w3.org/1999/xlink" viewBox="0 0 96 96"><defs><style>.cls-1{fill:url(#linear-gradient);}.cls-2{fill:url(#linear-gradient-2);}.cls-3{fill:url(#linear-gradient-3);}.cls-4{fill:#90e0ef;}.cls-5{fill:url(#linear-gradient-4);}.cls-6{fill:url(#linear-gradient-5);}.cls-7{fill:url(#linear-gradient-6);}.cls-8{fill:url(#linear-gradient-7);}.cls-9{fill:url(#linear-gradient-8);}.cls-10{fill:url(#linear-gradient-9);}.cls-11{fill:url(#linear-gradient-10);}.cls-12{fill:url(#linear-gradient-11);}.cls-13{fill:url(#linear-gradient-12);}.cls-14{fill:url(#linear-gradient-13);}.cls-15{fill:url(#linear-gradient-14);}.cls-16{fill:url(#linear-gradient-15);}.cls-17{fill:url(#linear-gradient-16);}.cls-18{fill:url(#linear-gradient-17);}.cls-19{fill:url(#linear-gradient-18);}.cls-20{fill:url(#linear-gradient-19);}.cls-21{fill:url(#linear-gradient-20);}.cls-22{fill:url(#linear-gradient-21);}.cls-23{fill:url(#linear-gradient-22);}.cls-24{fill:url(#linear-gradient-23);}.cls-25{fill:url(#linear-gradient-24);}.cls-26{fill:url(#linear-gradient-25);}.cls-27{fill:url(#linear-gradient-26);}.cls-28{fill:url(#linear-gradient-27);}.cls-29{fill:url(#linear-gradient-28);}.cls-30{fill:url(#linear-gradient-29);}.cls-31{fill:url(#linear-gradient-30);}.cls-32{fill:url(#linear-gradient-31);}.cls-33{fill:url(#linear-gradient-32);}.cls-34{fill:url(#linear-gradient-33);}.cls-35{fill:url(#linear-gradient-34);}.cls-36{fill:url(#linear-gradient-35);}.cls-37{fill:url(#linear-gradient-36);}.cls-38{fill:#e9feff;}</style><linearGradient id="linear-gradient" x1="41.1" y1="60.95" x2="70.9" y2="60.95" gradientUnits="userSpaceOnUse"><stop offset="0" stop-color="#dcf7ff"/><stop offset="1" stop-color="#c3edfd"/></linearGradient><linearGradient id="linear-gradient-2" x1="45.71" y1="60.96" x2="66.28" y2="60.96" gradientUnits="userSpaceOnUse"><stop offset="0" stop-color="#c3edfd"/><stop offset="1" stop-color="#dcf7ff"/></linearGradient><linearGradient id="linear-gradient-3" x1="18.71" y1="51.33" x2="59.95" y2="51.33" gradientUnits="userSpaceOnUse"><stop offset="0" stop-color="#caf0f8"/><stop offset="1" stop-color="#90e0ef"/></linearGradient><linearGradient id="linear-gradient-4" x1="36.38" y1="33.37" x2="55.1" y2="14.64" xlink:href="#linear-gradient-3"/><linearGradient id="linear-gradient-5" x1="47.67" y1="60.96" x2="64.33" y2="60.96" xlink:href="#linear-gradient"/><linearGradient id="linear-gradient-6" x1="62.68" y1="78.99" x2="75.38" y2="78.99" xlink:href="#linear-gradient-3"/><linearGradient id="linear-gradient-7" x1="49.63" y1="60.95" x2="62.37" y2="60.95" xlink:href="#linear-gradient-2"/><linearGradient id="linear-gradient-8" x1="61.86" y1="82.45" x2="75.37" y2="82.45" xlink:href="#linear-gradient-3"/><linearGradient id="linear-gradient-9" x1="60.04" y1="54.32" x2="82.83" y2="67.48" gradientUnits="userSpaceOnUse"><stop offset="0" stop-color="#00b4d8"/><stop offset="1" stop-color="#0096c7"/></linearGradient><linearGradient id="linear-gradient-10" x1="62.78" y1="43.33" x2="75.48" y2="43.33" xlink:href="#linear-gradient-3"/><linearGradient id="linear-gradient-11" x1="62.19" y1="43.86" x2="73.36" y2="32.69" xlink:href="#linear-gradient-3"/><linearGradient id="linear-gradient-12" x1="20.77" y1="17.91" x2="27.55" y2="6.16" xlink:href="#linear-gradient-3"/><linearGradient id="linear-gradient-13" x1="6.81" y1="32.56" x2="71.85" y2="70.11" xlink:href="#linear-gradient-9"/><linearGradient id="linear-gradient-14" x1="41.56" y1="61.3" x2="56.04" y2="61.3" xlink:href="#linear-gradient-9"/><linearGradient id="linear-gradient-15" x1="64.38" y1="75.96" x2="53.23" y2="75.96" xlink:href="#linear-gradient-9"/><linearGradient id="linear-gradient-16" x1="56.13" y1="43.56" x2="42.71" y2="43.56" xlink:href="#linear-gradient-9"/><linearGradient id="linear-gradient-17" x1="48.51" y1="50.2" x2="72.17" y2="73.85" xlink:href="#linear-gradient-9"/><linearGradient id="linear-gradient-18" x1="38.37" y1="62.52" x2="68.17" y2="62.52" xlink:href="#linear-gradient-9"/><linearGradient id="linear-gradient-19" x1="23.53" y1="44.89" x2="28.22" y2="44.89" xlink:href="#linear-gradient-9"/><linearGradient id="linear-gradient-20" x1="26.81" y1="50.66" x2="32.82" y2="50.66" xlink:href="#linear-gradient-9"/><linearGradient id="linear-gradient-21" x1="21.65" y1="47.94" x2="31.94" y2="53.88" gradientTransform="translate(29.21 -6.57) rotate(30.16)" xlink:href="#linear-gradient-9"/><linearGradient id="linear-gradient-22" x1="30" y1="19.73" x2="42" y2="19.73" xlink:href="#linear-gradient-9"/><linearGradient id="linear-gradient-23" x1="30.01" y1="17.19" x2="42" y2="17.19" xlink:href="#linear-gradient-9"/><linearGradient id="linear-gradient-24" x1="32.5" y1="17.5" x2="39.5" y2="17.5" gradientUnits="userSpaceOnUse"><stop offset="0" stop-color="#ffd500"/><stop offset="1" stop-color="#fdc500"/></linearGradient><linearGradient id="linear-gradient-25" x1="21.04" y1="34" x2="35.96" y2="34" xlink:href="#linear-gradient-9"/><linearGradient id="linear-gradient-26" x1="30" y1="11.5" x2="33" y2="11.5" xlink:href="#linear-gradient-24"/><linearGradient id="linear-gradient-27" x1="24" y1="15.5" x2="27" y2="15.5" xlink:href="#linear-gradient-24"/><linearGradient id="linear-gradient-28" x1="20.62" y1="29.45" x2="36.38" y2="38.55" xlink:href="#linear-gradient"/><linearGradient id="linear-gradient-29" x1="22.58" y1="57.53" x2="23.79" y2="57.53" xlink:href="#linear-gradient-24"/><linearGradient id="linear-gradient-30" x1="25.92" y1="58.19" x2="23.09" y2="58.19" xlink:href="#linear-gradient-24"/><linearGradient id="linear-gradient-31" x1="25.21" y1="59.64" x2="26.62" y2="59.64" xlink:href="#linear-gradient-24"/><linearGradient id="linear-gradient-32" x1="22.38" y1="59.21" x2="25.92" y2="59.21" xlink:href="#linear-gradient-24"/><linearGradient id="linear-gradient-33" x1="27.58" y1="60.52" x2="28.79" y2="60.52" xlink:href="#linear-gradient-24"/><linearGradient id="linear-gradient-34" x1="30.92" y1="61.18" x2="28.08" y2="61.18" xlink:href="#linear-gradient-24"/><linearGradient id="linear-gradient-35" x1="30.22" y1="62.64" x2="31.63" y2="62.64" xlink:href="#linear-gradient-24"/><linearGradient id="linear-gradient-36" x1="27.37" y1="62.2" x2="30.92" y2="62.2" xlink:href="#linear-gradient-24"/></defs><g id="Layer_14" data-name="Layer 14"><path class="cls-1" d="M62.78,49.57A29.77,29.77,0,0,0,60,46.68a24,24,0,0,0-3.9-2.85c-8.23-4.75-14.92-.93-14.95,8.53s6.63,21,14.85,25.71a16.17,16.17,0,0,0,3.9,1.66,10.84,10.84,0,0,0,2.85.39c4.85,0,8.18-3.9,8.2-10.56S67.62,55.2,62.78,49.57Z"/><path class="cls-2" d="M56,49.14c-5.67-3.28-10.3-.65-10.32,5.88S50.29,69.5,56,72.77s10.3.65,10.32-5.88S61.71,52.42,56,49.14Z"/><path class="cls-3" d="M57.12,41.19A6.23,6.23,0,0,1,60,46.08v.6a24,24,0,0,0-3.9-2.85c-8.23-4.75-14.92-.93-14.95,8.53s6.63,21,14.85,25.71a16.17,16.17,0,0,0,3.9,1.66v.59c0,1.81-1.28,2.53-2.84,1.63L21.53,61.47a6.23,6.23,0,0,1-2.82-4.9l.09-34.24c0-1.8,1.28-2.52,2.85-1.62Z"/><path class="cls-4" d="M26.3,59.05A1.54,1.54,0,0,1,27,60.27c0,.45-.43.84-.83.61l-2.12-1.23a1.86,1.86,0,0,1-.6-1.42c0-.46.33-.63.72-.41Z"/><path class="cls-4" d="M31.39,62.09a1.54,1.54,0,0,1,.7,1.22.56.56,0,0,1-.81.56l-2.13-1.23a1.79,1.79,0,0,1-.61-1.38c0-.45.32-.63.71-.41Z"/><ellipse class="cls-4" cx="28.6" cy="50.96" rx="4.18" ry="6.94" transform="translate(-24.13 25.78) rotate(-35.17)"/><polygon class="cls-5" points="18.82 15.82 31.51 8.44 72.65 32.2 59.97 39.57 18.82 15.82"/><path class="cls-4" d="M40.73,16.64c2.63,1.5,2.65,3.93,0,5.42a10.59,10.59,0,0,1-9.5,0c-2.63-1.49-2.63-3.92,0-5.42A10.61,10.61,0,0,1,40.73,16.64Z"/><path class="cls-6" d="M56,51.39c-4.59-2.66-8.33-.53-8.35,4.76s3.7,11.72,8.3,14.37,8.34.53,8.36-4.75S60.63,54.05,56,51.39Z"/><polygon class="cls-7" points="62.7 80.11 75.38 72.74 75.37 77.86 62.68 85.23 62.7 80.11"/><path class="cls-8" d="M56,53.63a14,14,0,0,1,6.35,11c0,4.05-2.88,5.67-6.39,3.64a14,14,0,0,1-6.35-11C49.64,53.24,52.5,51.6,56,53.63Z"/><path class="cls-9" d="M74.54,79.67,61.86,87a2,2,0,0,0,.82-1.81l12.69-7.37A2,2,0,0,1,74.54,79.67Z"/><path class="cls-10" d="M79.24,71.74,66.55,79.11c2.68-1.55,4.34-4.86,4.35-9.55,0-6.67-3.28-14.36-8.12-20L75.47,42.2c4.83,5.62,8.13,13.32,8.12,20C83.57,66.88,81.91,70.18,79.24,71.74Z"/><polygon class="cls-11" points="62.8 44.47 75.48 37.09 75.47 42.2 62.78 49.57 62.8 44.47"/><path class="cls-12" d="M60,39.57,72.65,32.2a6.21,6.21,0,0,1,2.83,4.89L62.8,44.47A6.25,6.25,0,0,0,60,39.57Z"/><path class="cls-13" d="M16.81,15.62,29.49,8.25a2,2,0,0,1,2,.19L18.82,15.82A2,2,0,0,0,16.81,15.62Z"/><path class="cls-14" d="M60,39.57a6.25,6.25,0,0,1,2.83,4.9l0,5.1A29.77,29.77,0,0,0,60,46.68v-.6a6.23,6.23,0,0,0-2.83-4.89L21.65,20.71c-1.57-.9-2.84-.18-2.85,1.62l-.09,34.24a6.23,6.23,0,0,0,2.82,4.9L57,82c1.56.9,2.84.18,2.84-1.63v-.59a10.84,10.84,0,0,0,2.85.39l0,5.11c0,1.8-1.28,2.52-2.85,1.62L18.69,63.09a6.22,6.22,0,0,1-2.83-4.89L16,17.44c0-1.8,1.28-2.53,2.84-1.62Z"/><path class="cls-15" d="M45,48.26l2.81-1.64c-2.1,1.22-3.4,3.82-3.41,7.51,0,7.43,5.2,16.48,11.66,20.21L53.23,76C46.76,72.24,41.54,63.2,41.56,55.76,41.57,52.07,42.87,49.48,45,48.26Z"/><path class="cls-16" d="M64.38,75.15l-2.82,1.64C59.43,78,56.48,77.85,53.23,76L56,74.34C59.3,76.22,62.25,76.39,64.38,75.15Z"/><path class="cls-17" d="M42.71,44.37l2.82-1.64c2.71-1.57,6.46-1.35,10.6,1L53.31,45.4C49.17,43,45.42,42.79,42.71,44.37Z"/><path class="cls-18" d="M66.64,79l-2.82,1.64c2.67-1.55,4.33-4.86,4.35-9.56,0-9.45-6.63-21-14.86-25.72l2.82-1.63C64.36,48.52,71,60,71,69.49,71,74.18,69.31,77.49,66.64,79Z"/><path class="cls-19" d="M53.31,45.4c8.23,4.76,14.88,16.27,14.86,25.72s-6.73,13.27-15,8.52S38.34,63.38,38.37,53.92,45.09,40.66,53.31,45.4ZM53.23,76c6.46,3.73,11.72.73,11.74-6.7S59.77,52.81,53.3,49.07s-11.72-.73-11.74,6.69S46.76,72.24,53.23,76"/><path class="cls-20" d="M23.53,45.29l1.41-.82a3.27,3.27,0,0,1,3.28.33l-1.41.81A3.27,3.27,0,0,0,23.53,45.29Z"/><path class="cls-21" d="M31.47,55.71l-1.41.82a3.23,3.23,0,0,0,1.35-3,10.17,10.17,0,0,0-4.6-8l1.41-.81a10.14,10.14,0,0,1,4.6,8A3.23,3.23,0,0,1,31.47,55.71Z"/><ellipse class="cls-22" cx="26.8" cy="50.91" rx="3.76" ry="6.5" transform="translate(-21.95 20.36) rotate(-30.16)"/><path class="cls-23" d="M42,17.21v1.63a3,3,0,0,1-1.74,2.43,9.34,9.34,0,0,1-8.49,0A3,3,0,0,1,30,18.8V17.17a3,3,0,0,0,1.76,2.47,9.34,9.34,0,0,0,8.49,0A3,3,0,0,0,42,17.21Z"/><path class="cls-24" d="M40.23,14.73c2.35,1.36,2.37,3.56,0,4.91a9.34,9.34,0,0,1-8.49,0c-2.35-1.35-2.35-3.55,0-4.91A9.32,9.32,0,0,1,40.23,14.73Z"/><path class="cls-25" d="M34.77,18.22c-.69-.4-.69-1,0-1.43a2.72,2.72,0,0,1,2.47,0c.69.4.7,1,0,1.44a2.69,2.69,0,0,1-2.47,0m3.69-2.15a5.47,5.47,0,0,0-5,0c-1.36.79-1.35,2.07,0,2.87a5.47,5.47,0,0,0,4.95,0c1.36-.8,1.36-2.08,0-2.87"/><path class="cls-26" d="M34.55,31,22.49,24c-.78-.46-1.42-.09-1.43.8l0,9.79A3.1,3.1,0,0,0,22.45,37l12.06,7c.78.46,1.42.09,1.43-.8l0-9.79A3.1,3.1,0,0,0,34.55,31Z"/><path class="cls-27" d="M32.56,10.88a2.33,2.33,0,0,0-2.12,0c-.58.34-.59.89,0,1.22a2.35,2.35,0,0,0,2.13,0,.65.65,0,0,0,0-1.23"/><path class="cls-28" d="M26.56,14.89a2.33,2.33,0,0,0-2.12,0c-.58.34-.59.88,0,1.23a2.33,2.33,0,0,0,2.12,0c.58-.34.58-.88,0-1.22"/><path class="cls-29" d="M33.13,31.11l-9.22-5.33c-.79-.45-1.42-.08-1.43.82l0,7.84a3.13,3.13,0,0,0,1.41,2.45l9.22,5.33c.79.45,1.42.08,1.43-.82l0-7.84a3.13,3.13,0,0,0-1.41-2.45"/><path class="cls-30" d="M22.58,57.73l.71-.41a.49.49,0,0,1,.5,0l-.7.41A.51.51,0,0,0,22.58,57.73Z"/><polygon class="cls-31" points="23.09 57.78 23.79 57.37 25.92 58.6 25.21 59.01 23.09 57.78"/><path class="cls-32" d="M26.42,60.28l-.71.41a.51.51,0,0,0,.21-.46A1.51,1.51,0,0,0,25.21,59l.71-.41a1.56,1.56,0,0,1,.7,1.22A.53.53,0,0,1,26.42,60.28Z"/><path class="cls-33" d="M25.21,59a1.51,1.51,0,0,1,.71,1.22c0,.45-.32.63-.71.4l-2.13-1.22a1.55,1.55,0,0,1-.7-1.23c0-.45.32-.63.71-.4Z"/><path class="cls-34" d="M27.58,60.73l.7-.41a.5.5,0,0,1,.51,0l-.71.41A.48.48,0,0,0,27.58,60.73Z"/><polygon class="cls-35" points="28.08 60.77 28.79 60.36 30.92 61.59 30.21 62.01 28.08 60.77"/><path class="cls-36" d="M31.42,63.27l-.7.41a.5.5,0,0,0,.2-.45,1.57,1.57,0,0,0-.7-1.22l.7-.41a1.55,1.55,0,0,1,.71,1.22A.48.48,0,0,1,31.42,63.27Z"/><path class="cls-37" d="M30.22,62a1.57,1.57,0,0,1,.7,1.22c0,.45-.32.63-.71.4L28.08,62.4a1.55,1.55,0,0,1-.71-1.22c0-.45.32-.63.71-.41Z"/><path class="cls-38" d="M28,39.27l5.26-8.08-.12-.08-1.29-.75-5.27,8.09Z"/><path class="cls-38" d="M28.29,28.31l-5.15,7.91a2.42,2.42,0,0,0,.73.67l2,1.15L31.13,30Z"/><path class="cls-38" d="M56,58.23c-1.31-.76-2.38-.15-2.39,1.36A5.2,5.2,0,0,0,56,63.67c1.31.76,2.37.16,2.37-1.35A5.24,5.24,0,0,0,56,58.23"/></g></svg>