<svg xmlns="http://www.w3.org/2000/svg" xmlns:xlink="http://www.w3.org/1999/xlink" viewBox="0 0 96 96"><defs><style>.cls-1{fill:url(#linear-gradient);}.cls-2{fill:url(#linear-gradient-2);}.cls-3{fill:url(#linear-gradient-3);}.cls-4{fill:url(#linear-gradient-4);}.cls-5{fill:url(#linear-gradient-5);}.cls-6{fill:url(#linear-gradient-6);}.cls-7{fill:url(#linear-gradient-7);}.cls-8{fill:url(#linear-gradient-8);}.cls-9{fill:#0096c7;}.cls-10{fill:url(#linear-gradient-9);}.cls-11{fill:url(#linear-gradient-10);}.cls-12{fill:url(#linear-gradient-11);}.cls-13{fill:url(#linear-gradient-12);}.cls-14{fill:#fdfcdc;}.cls-15{fill:url(#linear-gradient-13);}.cls-16{fill:url(#linear-gradient-14);}.cls-17{fill:url(#linear-gradient-15);}.cls-18{fill:url(#linear-gradient-16);}.cls-19{fill:url(#linear-gradient-17);}.cls-20{fill:url(#linear-gradient-18);}.cls-21{fill:url(#linear-gradient-19);}.cls-22{fill:url(#linear-gradient-20);}.cls-23{fill:url(#linear-gradient-21);}.cls-24{fill:url(#linear-gradient-22);}.cls-25{fill:url(#linear-gradient-23);}.cls-26{fill:url(#linear-gradient-24);}.cls-27{fill:url(#linear-gradient-25);}.cls-28{fill:url(#linear-gradient-26);}.cls-29{fill:url(#linear-gradient-27);}.cls-30{fill:url(#linear-gradient-28);}.cls-31{fill:url(#linear-gradient-29);}.cls-32{fill:url(#linear-gradient-30);}.cls-33{fill:url(#linear-gradient-31);}.cls-34{fill:url(#linear-gradient-32);}.cls-35{fill:url(#linear-gradient-33);}</style><linearGradient id="linear-gradient" x1="122.57" y1="49.5" x2="142.77" y2="61.17" gradientTransform="matrix(-1, 0, 0, 1, 156, 0)" gradientUnits="userSpaceOnUse"><stop offset="0" stop-color="#90e0ef"/><stop offset="1" stop-color="#caf0f8"/></linearGradient><linearGradient id="linear-gradient-2" x1="146.85" y1="46.07" x2="148.28" y2="46.07" gradientTransform="matrix(-1, 0, 0, 1, 156, 0)" gradientUnits="userSpaceOnUse"><stop offset="0" stop-color="#00b4d8"/><stop offset="1" stop-color="#0096c7"/></linearGradient><linearGradient id="linear-gradient-3" x1="97.91" y1="12.89" x2="149.47" y2="42.65" xlink:href="#linear-gradient"/><linearGradient id="linear-gradient-4" x1="137.13" y1="52.18" x2="138.14" y2="52.76" gradientTransform="matrix(-1, 0, 0, 1, 156, 0)" gradientUnits="userSpaceOnUse"><stop offset="0" stop-color="#dcf7ff"/><stop offset="1" stop-color="#c3edfd"/></linearGradient><linearGradient id="linear-gradient-5" x1="135" y1="53.41" x2="136.01" y2="53.99" xlink:href="#linear-gradient-4"/><linearGradient id="linear-gradient-6" x1="132.88" y1="54.64" x2="133.88" y2="55.22" xlink:href="#linear-gradient-4"/><linearGradient id="linear-gradient-7" x1="130.75" y1="55.86" x2="131.75" y2="56.44" xlink:href="#linear-gradient-4"/><linearGradient id="linear-gradient-8" x1="65.65" y1="33.96" x2="118.07" y2="64.22" xlink:href="#linear-gradient"/><linearGradient id="linear-gradient-9" x1="121.35" y1="60.05" x2="125.36" y2="62.36" gradientTransform="matrix(-1, 0, 0, 1, 156, 0)" gradientUnits="userSpaceOnUse"><stop offset="0" stop-color="#0096c7"/><stop offset="1" stop-color="#00b4d8"/></linearGradient><linearGradient id="linear-gradient-10" x1="30.52" y1="61.21" x2="34.77" y2="61.21" gradientUnits="userSpaceOnUse"><stop offset="0" stop-color="#ffd500"/><stop offset="1" stop-color="#fdc500"/></linearGradient><linearGradient id="linear-gradient-11" x1="120.64" y1="59.64" x2="123.37" y2="61.21" xlink:href="#linear-gradient-9"/><linearGradient id="linear-gradient-12" x1="122.35" y1="60.63" x2="124.36" y2="61.79" xlink:href="#linear-gradient-9"/><linearGradient id="linear-gradient-13" x1="84.99" y1="59.61" x2="87.83" y2="61.24" gradientTransform="matrix(-1, 0, 0, 1, 156, 0)" gradientUnits="userSpaceOnUse"><stop offset="0" stop-color="#fdfcdc"/><stop offset="1" stop-color="#e5e2b7"/></linearGradient><linearGradient id="linear-gradient-14" x1="84.73" y1="59.28" x2="89.77" y2="59.28" xlink:href="#linear-gradient-13"/><linearGradient id="linear-gradient-15" x1="89.89" y1="57.56" x2="91.49" y2="60.33" xlink:href="#linear-gradient-2"/><linearGradient id="linear-gradient-16" x1="88.51" y1="63.07" x2="93.06" y2="60.44" xlink:href="#linear-gradient-2"/><linearGradient id="linear-gradient-17" x1="90.83" y1="61.02" x2="93" y2="61.02" xlink:href="#linear-gradient-2"/><linearGradient id="linear-gradient-18" x1="89.97" y1="61.67" x2="92.13" y2="62.92" xlink:href="#linear-gradient-2"/><linearGradient id="linear-gradient-19" x1="91.18" y1="62.73" x2="93.31" y2="62.73" xlink:href="#linear-gradient-2"/><linearGradient id="linear-gradient-20" x1="58.96" y1="65.11" x2="89.49" y2="65.11" xlink:href="#linear-gradient-10"/><linearGradient id="linear-gradient-21" x1="85.19" y1="70.27" x2="88.55" y2="72.21" xlink:href="#linear-gradient-2"/><linearGradient id="linear-gradient-22" x1="84.23" y1="71.44" x2="87.8" y2="73.5" xlink:href="#linear-gradient-2"/><linearGradient id="linear-gradient-23" x1="91.28" y1="69.69" x2="97.31" y2="75.71" xlink:href="#linear-gradient-2"/><linearGradient id="linear-gradient-24" x1="84.15" y1="74.88" x2="92.2" y2="79.54" xlink:href="#linear-gradient-2"/><linearGradient id="linear-gradient-25" x1="90.77" y1="80.21" x2="98.9" y2="75.51" xlink:href="#linear-gradient-2"/><linearGradient id="linear-gradient-26" x1="97.44" y1="80.2" x2="100.97" y2="80.2" gradientTransform="matrix(-1, 0, 0, 1, 156, 0)" gradientUnits="userSpaceOnUse"><stop offset="0" stop-color="#e5e2b7"/><stop offset="1" stop-color="#fdfcdc"/></linearGradient><linearGradient id="linear-gradient-27" x1="92.14" y1="78.97" x2="96.38" y2="81.42" xlink:href="#linear-gradient-26"/><linearGradient id="linear-gradient-28" x1="96.03" y1="81.31" x2="97.45" y2="81.31" xlink:href="#linear-gradient-13"/><linearGradient id="linear-gradient-29" x1="93.73" y1="76.22" x2="100.17" y2="79.94" xlink:href="#linear-gradient-26"/><linearGradient id="linear-gradient-30" x1="85.49" y1="13.61" x2="130.49" y2="58.61" xlink:href="#linear-gradient"/><linearGradient id="linear-gradient-31" x1="86.54" y1="71.43" x2="96.08" y2="76.94" xlink:href="#linear-gradient-2"/><linearGradient id="linear-gradient-32" x1="87.52" y1="58.43" x2="91.22" y2="60.56" xlink:href="#linear-gradient-2"/><linearGradient id="linear-gradient-33" x1="86.07" y1="60.34" x2="89.78" y2="62.48" xlink:href="#linear-gradient-2"/></defs><g id="Layer_16" data-name="Layer 16"><path class="cls-1" d="M9.16,42.25,37.54,58.64A9.32,9.32,0,0,1,41.77,66c0,2.7-1.91,3.8-4.26,2.44L9.13,52a9.32,9.32,0,0,1-4.24-7.34C4.9,42,6.81,40.9,9.16,42.25Z"/><path class="cls-2" d="M8.44,45.1c-.39-.22-.71,0-.71.41v1.63l1.43-1.63Z"/><path class="cls-3" d="M55.47,13.29,6.13,42a3,3,0,0,1,3,.29L58.49,13.58A3,3,0,0,0,55.47,13.29Z"/><path class="cls-4" d="M18.37,51.65c-.4-.23-.71,0-.71.41a1.54,1.54,0,0,0,.71,1.22c.39.23.71,0,.71-.4A1.59,1.59,0,0,0,18.37,51.65Z"/><path class="cls-5" d="M20.5,52.88c-.39-.22-.71,0-.71.41a1.53,1.53,0,0,0,.7,1.22c.4.23.71.05.71-.41A1.57,1.57,0,0,0,20.5,52.88Z"/><path class="cls-6" d="M22.62,54.11c-.39-.23-.71,0-.71.4a1.57,1.57,0,0,0,.71,1.23c.39.23.71,0,.72-.4A1.57,1.57,0,0,0,22.62,54.11Z"/><path class="cls-7" d="M24.76,55.34c-.4-.23-.71,0-.72.4A1.57,1.57,0,0,0,24.75,57c.39.22.71.05.71-.41A1.58,1.58,0,0,0,24.76,55.34Z"/><path class="cls-8" d="M40.53,68.71,89.87,40a3,3,0,0,0,1.24-2.73A9.33,9.33,0,0,0,86.87,30L37.54,58.64A9.32,9.32,0,0,1,41.77,66,3,3,0,0,1,40.53,68.71Z"/><path class="cls-9" d="M9.15,45.51,7.72,47.14a1.59,1.59,0,0,0,.71,1.23l7.09,4.09c.4.23.71,0,.71-.41V50.42a1.54,1.54,0,0,0-.71-1.22Z"/><path class="cls-10" d="M32.66,58a6.21,6.21,0,0,1,2.82,4.9c0,1.79-1.28,2.52-2.84,1.62a6.23,6.23,0,0,1-2.83-4.9C29.81,57.76,31.09,57,32.66,58Z"/><path class="cls-11" d="M32.66,58.76a4.66,4.66,0,0,1,2.11,3.68c0,1.35-1,1.89-2.13,1.21A4.69,4.69,0,0,1,30.52,60C30.53,58.62,31.48,58.08,32.66,58.76Z"/><path class="cls-12" d="M35.3,63.86a2.61,2.61,0,0,0,.18-1A4.32,4.32,0,0,0,35.4,62a4.9,4.9,0,0,0-.16-.66c-.07-.21-.24-.65-.24-.65-.1-.22-.34-.67-.35-.68-.1-.18-.7-1-.78-1.08s-.44-.45-.55-.54a7.27,7.27,0,0,0-.66-.48,2.66,2.66,0,0,0-.52-.24s-.39-.11-.51-.13a3.77,3.77,0,0,0-.57,0,2,2,0,0,0-.42.16,7.94,7.94,0,0,1,.95-.53,1.72,1.72,0,0,1,1.26.07,3.43,3.43,0,0,1,1,.6,5.36,5.36,0,0,1,.7.65,8.52,8.52,0,0,1,.77,1.08,7.14,7.14,0,0,1,.35.7,4.18,4.18,0,0,1,.21.52,4.61,4.61,0,0,1,.2.79,3.83,3.83,0,0,1,.08.81,3.24,3.24,0,0,1-.13.9,1.63,1.63,0,0,1-.5.77,8.1,8.1,0,0,1-.9.55h0A3.78,3.78,0,0,0,35.3,63.86Z"/><path class="cls-13" d="M32.65,59.57c-.78-.45-1.42-.08-1.42.82a3.13,3.13,0,0,0,1.41,2.45c.79.45,1.42.08,1.43-.81A3.14,3.14,0,0,0,32.65,59.57Z"/><path class="cls-14" d="M71.28,59.5v-.82a.73.73,0,0,1-.44.62v.82A.76.76,0,0,0,71.28,59.5Z"/><polygon class="cls-15" points="68.35 60.73 68.35 61.55 70.83 60.12 70.83 59.3 68.35 60.73"/><path class="cls-16" d="M66.24,59.51l2.11,1.22,2.48-1.43a.65.65,0,0,0,0-1.23,2.33,2.33,0,0,0-2.12,0Z"/><path class="cls-17" d="M66.27,58.08l-2.82,1.64a.91.91,0,0,1,.9.09l2.82-1.64A.91.91,0,0,0,66.27,58.08Z"/><path class="cls-18" d="M64.35,59.81c-.7-.4-1.26-.08-1.26.72a2.72,2.72,0,0,0,1.25,2.17l1.74,1c.7.4,1.26.08,1.27-.72a2.75,2.75,0,0,0-1.26-2.17Z"/><path class="cls-19" d="M64.41,60.61,63,61.43a.74.74,0,0,1,.76.08l1.41-.82A.77.77,0,0,0,64.41,60.61Z"/><path class="cls-20" d="M64.51,64l1.41-.82a.75.75,0,0,0,.31-.68,2.33,2.33,0,0,0-1.06-1.84l-1.41.82a2.32,2.32,0,0,1,1.06,1.84A.75.75,0,0,1,64.51,64Z"/><path class="cls-21" d="M63.76,61.51c-.59-.34-1.07-.07-1.07.6A2.35,2.35,0,0,0,63.75,64c.59.33,1.07.06,1.07-.61A2.32,2.32,0,0,0,63.76,61.51Z"/><path class="cls-22" d="M60.58,63.77l2.13-1.23a1.59,1.59,0,0,1,1.41,0,.43.43,0,0,1,0,.82L62,64.59c-1.37.79-1.38,2.07,0,2.87a5.44,5.44,0,0,0,4.94,0l14.9-8.6a7,7,0,0,1,6.37,0c1.75,1,1.74,2.67,0,3.68L71.85,72a1.61,1.61,0,0,1-1.42,0,.43.43,0,0,1,0-.82l16.32-9.42a1.09,1.09,0,0,0,0-2,3.91,3.91,0,0,0-3.54,0l-14.9,8.6a8.57,8.57,0,0,1-7.78,0c-2.14-1.25-2.12-3.26,0-4.51"/><path class="cls-23" d="M70.16,70.39,67.34,72a.77.77,0,0,1,.76.08l2.82-1.64A.74.74,0,0,0,70.16,70.39Z"/><path class="cls-24" d="M68.84,74.62,71.66,73A.75.75,0,0,0,72,72.3a2.35,2.35,0,0,0-1-1.84L68.1,72.1a2.35,2.35,0,0,1,1.05,1.83A.76.76,0,0,1,68.84,74.62Z"/><path class="cls-25" d="M64.73,70.6l-7.05,4.1a1,1,0,0,1,1,.1l7-4.1A1,1,0,0,0,64.73,70.6Z"/><path class="cls-26" d="M64.65,81l7-4.1a1,1,0,0,0,.41-.9,3.09,3.09,0,0,0-1.41-2.45l-7.05,4.09a3.14,3.14,0,0,1,1.42,2.45A1,1,0,0,1,64.65,81Z"/><path class="cls-27" d="M58.69,74.8c-.79-.46-1.42-.1-1.43.81a3.09,3.09,0,0,0,1.42,2.44l5,2.87c.78.45,1.42.09,1.43-.81a3.14,3.14,0,0,0-1.42-2.45Z"/><path class="cls-14" d="M54.74,78v1.63A.5.5,0,0,0,55,80V78.36A.5.5,0,0,1,54.74,78Z"/><polygon class="cls-28" points="55.03 78.36 55.03 79.99 58.56 82.04 58.56 80.41 55.03 78.36"/><polygon class="cls-29" points="59.97 80.41 59.97 82.04 63.52 79.99 63.51 78.36 59.97 80.41"/><path class="cls-30" d="M58.56,80.41V82A1.59,1.59,0,0,0,60,82V80.41A1.59,1.59,0,0,1,58.56,80.41Z"/><path class="cls-31" d="M55,77.54a.43.43,0,0,0,0,.82l3.53,2a1.59,1.59,0,0,0,1.41,0l3.54-2-4.93-2.87Z"/><polygon class="cls-32" points="37.54 58.64 86.87 29.97 58.49 13.58 9.16 42.26 37.54 58.64"/><polygon class="cls-33" points="63.65 77.66 70.7 73.57 65.73 70.7 58.69 74.8 63.65 77.66"/><polygon class="cls-34" points="66.09 60.82 68.91 59.18 67.17 58.17 64.35 59.81 66.09 60.82"/><path class="cls-35" d="M67,63.79l2.82-1.63a.89.89,0,0,0,.36-.81,2.72,2.72,0,0,0-1.25-2.17l-2.82,1.64A2.75,2.75,0,0,1,67.35,63,.91.91,0,0,1,67,63.79Z"/></g></svg>