<svg xmlns="http://www.w3.org/2000/svg" xmlns:xlink="http://www.w3.org/1999/xlink" viewBox="0 0 96 96"><defs><style>.cls-1{fill:url(#linear-gradient);}.cls-2{fill:url(#linear-gradient-2);}.cls-3{fill:url(#linear-gradient-3);}.cls-4{fill:url(#linear-gradient-4);}.cls-5{fill:url(#linear-gradient-5);}.cls-6{fill:url(#linear-gradient-6);}.cls-7{fill:url(#linear-gradient-7);}.cls-8{fill:url(#linear-gradient-8);}.cls-9{fill:url(#linear-gradient-9);}.cls-10{fill:url(#linear-gradient-10);}.cls-11{fill:url(#linear-gradient-11);}.cls-12{fill:url(#linear-gradient-12);}.cls-13{fill:url(#linear-gradient-13);}.cls-14{fill:url(#linear-gradient-14);}</style><linearGradient id="linear-gradient" x1="31.46" y1="8.24" x2="64.71" y2="27.44" gradientTransform="translate(65.79 -30.3) rotate(89.84)" gradientUnits="userSpaceOnUse"><stop offset="0" stop-color="#90e0ef"/><stop offset="1" stop-color="#caf0f8"/></linearGradient><linearGradient id="linear-gradient-2" x1="48.09" y1="7.68" x2="48.09" y2="28" xlink:href="#linear-gradient"/><linearGradient id="linear-gradient-3" x1="18.13" y1="33.29" x2="76.52" y2="67.01" gradientUnits="userSpaceOnUse"><stop offset="0" stop-color="#caf0f8"/><stop offset="1" stop-color="#90e0ef"/></linearGradient><linearGradient id="linear-gradient-4" x1="45.84" y1="24.82" x2="51.85" y2="24.82" gradientUnits="userSpaceOnUse"><stop offset="0" stop-color="#ffd500"/><stop offset="1" stop-color="#fdc500"/></linearGradient><linearGradient id="linear-gradient-5" x1="44.07" y1="20.15" x2="53.58" y2="20.15" xlink:href="#linear-gradient-4"/><linearGradient id="linear-gradient-6" x1="39.97" y1="16.19" x2="57.64" y2="16.19" xlink:href="#linear-gradient-4"/><linearGradient id="linear-gradient-7" x1="35.92" y1="12.24" x2="61.64" y2="12.24" xlink:href="#linear-gradient-4"/><linearGradient id="linear-gradient-8" x1="46" y1="43.5" x2="52" y2="43.5" xlink:href="#linear-gradient-4"/><linearGradient id="linear-gradient-9" x1="43" y1="50.5" x2="55" y2="50.5" xlink:href="#linear-gradient-4"/><linearGradient id="linear-gradient-10" x1="31.35" y1="45.38" x2="64.34" y2="64.43" gradientUnits="userSpaceOnUse"><stop offset="0" stop-color="#00b4d8"/><stop offset="1" stop-color="#0096c7"/></linearGradient><linearGradient id="linear-gradient-11" x1="31.33" y1="50.38" x2="64.33" y2="69.44" xlink:href="#linear-gradient-10"/><linearGradient id="linear-gradient-12" x1="31.31" y1="55.38" x2="64.32" y2="74.44" xlink:href="#linear-gradient-10"/><linearGradient id="linear-gradient-13" x1="31.29" y1="60.38" x2="64.31" y2="79.44" xlink:href="#linear-gradient-10"/><linearGradient id="linear-gradient-14" x1="31.27" y1="65.37" x2="64.3" y2="84.45" xlink:href="#linear-gradient-10"/></defs><g id="Layer_24" data-name="Layer 24"><ellipse class="cls-1" cx="48.09" cy="17.84" rx="12.16" ry="21" transform="translate(30.11 65.87) rotate(-89.84)"/><ellipse class="cls-2" cx="48.09" cy="17.84" rx="10.16" ry="17.54" transform="translate(30.11 65.87) rotate(-89.84)"/><path class="cls-3" d="M69.08,17.9l-.17,60.32c0,3.09-2,6.18-6.1,8.54-8.18,4.75-21.46,4.75-29.69,0-4.15-2.39-6.21-5.53-6.2-8.66l.17-60.32c0,3.13,2.06,6.27,6.2,8.66,8.23,4.75,21.51,4.75,29.69,0C67,24.08,69.08,21,69.08,17.9Z"/><path class="cls-4" d="M51,23.6a4.34,4.34,0,0,0-2.12-.52c-1.66,0-3,.79-3,1.74a1.54,1.54,0,0,0,.89,1.23,4.3,4.3,0,0,0,2.13.51c1.65,0,3-.77,3-1.74A1.49,1.49,0,0,0,51,23.6"/><path class="cls-5" d="M52.74,19.64a5.38,5.38,0,0,0-1.83-.59,14,14,0,0,0-4.19,0c-2.32.35-3.13,1.59-2.38,2l.07,0a6.73,6.73,0,0,0,3.34.18,7,7,0,0,1,2.15,0,6.72,6.72,0,0,0,3.34-.18c.59-.27.41-.94-.5-1.47"/><path class="cls-6" d="M56.77,16a4.07,4.07,0,0,0-.66-.3,22.9,22.9,0,0,0-14.63,0c-1.49.54-1.89,1.51-1.13,1.95l0,0a4.46,4.46,0,0,0,3.2,0,16.33,16.33,0,0,1,10.43,0,4.46,4.46,0,0,0,3.2,0c.68-.37.52-1.12-.45-1.68"/><path class="cls-7" d="M60.79,12.43a3.2,3.2,0,0,0-.37-.19,31.63,31.63,0,0,0-23.28,0c-1.28.55-1.56,1.46-.79,1.91h0a4,4,0,0,0,3.16-.06A25.18,25.18,0,0,1,58,14.1a4,4,0,0,0,3.16.06c.71-.39.56-1.17-.41-1.73"/><rect class="cls-8" x="46" y="38" width="6" height="11" rx="3"/><path class="cls-9" d="M53,54H50V51.91A6,6,0,0,0,55,46a1,1,0,0,0-2,0,4,4,0,0,1-8,0,1,1,0,0,0-2,0,6,6,0,0,0,5,5.91V54H45a1,1,0,0,0,0,2h8a1,1,0,0,0,0-2Z"/><path class="cls-10" d="M69,56.41V53.84a31.8,31.8,0,0,1-42-.9v2.65A33.83,33.83,0,0,0,69,56.41Z"/><path class="cls-11" d="M69,61.42V58.85a31.81,31.81,0,0,1-42-.93v2.65A33.83,33.83,0,0,0,69,61.42Z"/><path class="cls-12" d="M69,66.43V63.87a31.81,31.81,0,0,1-42-1v2.65A33.82,33.82,0,0,0,69,66.43Z"/><path class="cls-13" d="M68.93,71.44V68.88a31.82,31.82,0,0,1-42-1v2.65A33.82,33.82,0,0,0,68.93,71.44Z"/><path class="cls-14" d="M68.92,76.45V73.89a31.81,31.81,0,0,1-42-1v2.66A33.83,33.83,0,0,0,68.92,76.45Z"/></g></svg>