<svg xmlns="http://www.w3.org/2000/svg" xmlns:xlink="http://www.w3.org/1999/xlink" viewBox="0 0 96 96"><defs><style>.cls-1{fill:url(#linear-gradient);}.cls-2{fill:url(#linear-gradient-2);}.cls-3{fill:url(#linear-gradient-3);}.cls-4{fill:url(#linear-gradient-4);}.cls-5{fill:url(#linear-gradient-5);}.cls-6{fill:url(#linear-gradient-6);}.cls-7{fill:url(#linear-gradient-7);}.cls-8{fill:url(#linear-gradient-8);}.cls-9{fill:url(#linear-gradient-9);}.cls-10{fill:url(#linear-gradient-10);}.cls-11{fill:url(#linear-gradient-11);}.cls-12{fill:url(#linear-gradient-12);}.cls-13{fill:url(#linear-gradient-13);}.cls-14{fill:url(#linear-gradient-14);}.cls-15{fill:url(#linear-gradient-15);}.cls-16{fill:url(#linear-gradient-16);}.cls-17{fill:url(#linear-gradient-17);}.cls-18{fill:url(#linear-gradient-18);}.cls-19{fill:url(#linear-gradient-19);}.cls-20{fill:url(#linear-gradient-20);}.cls-21{fill:url(#linear-gradient-21);}.cls-22{fill:url(#linear-gradient-22);}.cls-23{fill:url(#linear-gradient-23);}.cls-24{fill:url(#linear-gradient-24);}.cls-25{fill:url(#linear-gradient-25);}.cls-26{fill:url(#linear-gradient-26);}.cls-27{fill:url(#linear-gradient-27);}.cls-28{fill:url(#linear-gradient-28);}.cls-29{fill:url(#linear-gradient-29);}.cls-30{fill:url(#linear-gradient-30);}.cls-31{fill:url(#linear-gradient-31);}.cls-32{fill:url(#linear-gradient-32);}.cls-33{fill:url(#linear-gradient-33);}.cls-34{fill:url(#linear-gradient-34);}.cls-35{fill:url(#linear-gradient-35);}.cls-36{fill:url(#linear-gradient-36);}.cls-37{fill:url(#linear-gradient-37);}.cls-38{fill:url(#linear-gradient-38);}.cls-39{fill:url(#linear-gradient-39);}.cls-40{fill:url(#linear-gradient-40);}.cls-41{fill:url(#linear-gradient-41);}.cls-42{fill:url(#linear-gradient-42);}.cls-43{fill:url(#linear-gradient-43);}.cls-44{fill:url(#linear-gradient-44);}.cls-45{fill:url(#linear-gradient-45);}.cls-46{fill:url(#linear-gradient-46);}.cls-47{fill:url(#linear-gradient-47);}.cls-48{fill:url(#linear-gradient-48);}.cls-49{fill:url(#linear-gradient-49);}.cls-50{fill:url(#linear-gradient-50);}</style><linearGradient id="linear-gradient" x1="7.57" y1="59.42" x2="5.19" y2="59.42" gradientUnits="userSpaceOnUse"><stop offset="0" stop-color="#00b4d8"/><stop offset="1" stop-color="#0096c7"/></linearGradient><linearGradient id="linear-gradient-2" x1="89.81" y1="59.86" x2="87.46" y2="59.86" xlink:href="#linear-gradient"/><linearGradient id="linear-gradient-3" x1="60.72" y1="65.64" x2="80.39" y2="76.99" xlink:href="#linear-gradient"/><linearGradient id="linear-gradient-4" x1="7.56" y1="71.11" x2="42.34" y2="71.11" xlink:href="#linear-gradient"/><linearGradient id="linear-gradient-5" x1="53.65" y1="81.82" x2="42.32" y2="81.82" xlink:href="#linear-gradient"/><linearGradient id="linear-gradient-6" x1="15.36" y1="36.18" x2="79.66" y2="73.3" xlink:href="#linear-gradient"/><linearGradient id="linear-gradient-7" x1="19.86" y1="38.45" x2="76.01" y2="70.87" gradientUnits="userSpaceOnUse"><stop offset="0" stop-color="#caf0f8"/><stop offset="1" stop-color="#90e0ef"/></linearGradient><linearGradient id="linear-gradient-8" x1="62.31" y1="60.04" x2="72.43" y2="60.04" gradientUnits="userSpaceOnUse"><stop offset="0" stop-color="#ffd500"/><stop offset="1" stop-color="#fdc500"/></linearGradient><linearGradient id="linear-gradient-9" x1="51.37" y1="61.42" x2="69.55" y2="61.42" xlink:href="#linear-gradient-8"/><linearGradient id="linear-gradient-10" x1="68.36" y1="50.52" x2="72.17" y2="50.52" xlink:href="#linear-gradient-8"/><linearGradient id="linear-gradient-11" x1="44.33" y1="65.54" x2="60.16" y2="65.54" xlink:href="#linear-gradient-8"/><linearGradient id="linear-gradient-12" x1="38.9" y1="64.49" x2="58.37" y2="64.49" xlink:href="#linear-gradient-8"/><linearGradient id="linear-gradient-13" x1="58.34" y1="53.51" x2="66.67" y2="53.51" xlink:href="#linear-gradient-8"/><linearGradient id="linear-gradient-14" x1="34.62" y1="66.03" x2="40.32" y2="66.03" xlink:href="#linear-gradient-8"/><linearGradient id="linear-gradient-15" x1="43.21" y1="59.57" x2="60.89" y2="59.57" xlink:href="#linear-gradient-8"/><linearGradient id="linear-gradient-16" x1="30.92" y1="64.23" x2="40.05" y2="64.23" xlink:href="#linear-gradient-8"/><linearGradient id="linear-gradient-17" x1="42.51" y1="56.6" x2="58.01" y2="56.6" xlink:href="#linear-gradient-8"/><linearGradient id="linear-gradient-18" x1="28.42" y1="62.11" x2="43.85" y2="62.11" xlink:href="#linear-gradient-8"/><linearGradient id="linear-gradient-19" x1="45.97" y1="55.86" x2="55.14" y2="55.86" xlink:href="#linear-gradient-8"/><linearGradient id="linear-gradient-20" x1="54.98" y1="44.02" x2="67.63" y2="44.02" xlink:href="#linear-gradient-8"/><linearGradient id="linear-gradient-21" x1="26.49" y1="61.05" x2="37.76" y2="61.05" xlink:href="#linear-gradient-8"/><linearGradient id="linear-gradient-22" x1="39.4" y1="56.34" x2="52.26" y2="56.34" xlink:href="#linear-gradient-8"/><linearGradient id="linear-gradient-23" x1="24.79" y1="59.25" x2="29.39" y2="59.25" xlink:href="#linear-gradient-8"/><linearGradient id="linear-gradient-24" x1="31.02" y1="56.92" x2="48.66" y2="56.92" xlink:href="#linear-gradient-8"/><linearGradient id="linear-gradient-25" x1="40.02" y1="47.77" x2="69.35" y2="47.77" xlink:href="#linear-gradient-8"/><linearGradient id="linear-gradient-26" x1="23.8" y1="56.54" x2="39.54" y2="56.54" xlink:href="#linear-gradient-8"/><linearGradient id="linear-gradient-27" x1="47.46" y1="49.71" x2="59.88" y2="49.71" xlink:href="#linear-gradient-8"/><linearGradient id="linear-gradient-28" x1="23.47" y1="55.39" x2="27.83" y2="55.39" xlink:href="#linear-gradient-8"/><linearGradient id="linear-gradient-29" x1="29.27" y1="53.21" x2="49.25" y2="53.21" xlink:href="#linear-gradient-8"/><linearGradient id="linear-gradient-30" x1="23.51" y1="53.72" x2="30.69" y2="53.72" xlink:href="#linear-gradient-8"/><linearGradient id="linear-gradient-31" x1="32.21" y1="51.4" x2="50.73" y2="51.4" xlink:href="#linear-gradient-8"/><linearGradient id="linear-gradient-32" x1="23.91" y1="49.99" x2="45.64" y2="49.99" xlink:href="#linear-gradient-8"/><linearGradient id="linear-gradient-33" x1="36.9" y1="41.55" x2="52.64" y2="41.55" xlink:href="#linear-gradient-8"/><linearGradient id="linear-gradient-34" x1="25.72" y1="46.7" x2="44.24" y2="46.7" xlink:href="#linear-gradient-8"/><linearGradient id="linear-gradient-35" x1="27.2" y1="45.62" x2="38.54" y2="45.62" xlink:href="#linear-gradient-8"/><linearGradient id="linear-gradient-36" x1="30.34" y1="44" x2="35.69" y2="44" xlink:href="#linear-gradient-8"/><linearGradient id="linear-gradient-37" x1="45.75" y1="44.74" x2="56.44" y2="44.74" xlink:href="#linear-gradient-8"/><linearGradient id="linear-gradient-38" x1="24.64" y1="52.91" x2="63.77" y2="52.91" xlink:href="#linear-gradient-8"/><linearGradient id="linear-gradient-39" x1="50.33" y1="24.81" x2="48.21" y2="24.81" gradientUnits="userSpaceOnUse"><stop offset="0" stop-color="#fdfcdc"/><stop offset="1" stop-color="#e5e2b7"/></linearGradient><linearGradient id="linear-gradient-40" x1="50.51" y1="22.26" x2="59.22" y2="27.29" xlink:href="#linear-gradient-39"/><linearGradient id="linear-gradient-41" x1="59.54" y1="27.89" x2="61.88" y2="27.89" xlink:href="#linear-gradient-39"/><linearGradient id="linear-gradient-42" x1="34.1" y1="29.93" x2="33.5" y2="29.93" gradientUnits="userSpaceOnUse"><stop offset="0" stop-color="#61e786"/><stop offset="1" stop-color="#4ac664"/></linearGradient><linearGradient id="linear-gradient-43" x1="59.55" y1="30.14" x2="57.43" y2="30.14" xlink:href="#linear-gradient-39"/><linearGradient id="linear-gradient-44" x1="48.03" y1="19.2" x2="61.1" y2="26.74" xlink:href="#linear-gradient-39"/><linearGradient id="linear-gradient-45" x1="58.74" y1="32.39" x2="58.14" y2="32.39" xlink:href="#linear-gradient-42"/><linearGradient id="linear-gradient-46" x1="49.69" y1="35.25" x2="58.15" y2="35.25" xlink:href="#linear-gradient-42"/><linearGradient id="linear-gradient-47" x1="34.09" y1="34.03" x2="46.87" y2="34.03" xlink:href="#linear-gradient-42"/><linearGradient id="linear-gradient-48" x1="49.7" y1="37.88" x2="46.86" y2="37.88" xlink:href="#linear-gradient-42"/><linearGradient id="linear-gradient-49" x1="36.05" y1="23.3" x2="56.2" y2="34.94" xlink:href="#linear-gradient-42"/><linearGradient id="linear-gradient-50" x1="42.31" y1="28.95" x2="50.54" y2="28.95" xlink:href="#linear-gradient-8"/></defs><g id="Layer_12" data-name="Layer 12"><path class="cls-1" d="M5.19,61l0-6.52a4,4,0,0,0,2.36,3.3v6.52C6,63.42,5.19,62.23,5.19,61Z"/><path class="cls-2" d="M89.81,55l0,6.52a4,4,0,0,1-2.33,3.25l0-6.52A4,4,0,0,0,89.81,55Z"/><polygon class="cls-3" points="87.48 58.22 87.46 64.74 53.63 84.4 53.65 77.88 87.48 58.22"/><polygon class="cls-4" points="42.34 77.88 42.32 84.4 7.56 64.33 7.57 57.81 42.34 77.88"/><path class="cls-5" d="M53.65,77.88V84.4a12.48,12.48,0,0,1-11.32,0l0-6.52A12.46,12.46,0,0,0,53.65,77.88Z"/><path class="cls-6" d="M87.45,51.67c3.13,1.81,3.15,4.74,0,6.55L53.65,77.88a12.46,12.46,0,0,1-11.31,0L7.57,57.81c-3.13-1.81-3.15-4.74,0-6.55L41.37,31.6a12.46,12.46,0,0,1,11.31,0Z"/><path class="cls-7" d="M82.56,51.38,53.48,34.59a12.46,12.46,0,0,0-11.31,0L13.27,51.38c-3.12,1.81-3.1,4.75,0,6.56L42.38,74.73a12.48,12.48,0,0,0,11.32,0l28.9-16.8C85.71,56.12,85.7,53.19,82.56,51.38Z"/><path class="cls-8" d="M72.22,54.35a1.1,1.1,0,0,0-.51-.12c-.4,0-.72.19-.72.42a9.48,9.48,0,0,1-3.14,6.78,37.71,37.71,0,0,1-4.47,3.17l-.86.54c-.28.16-.29.42,0,.58a1.08,1.08,0,0,0,1,0l.89-.54a40,40,0,0,0,4.66-3.32,10.08,10.08,0,0,0,3.34-7.21.37.37,0,0,0-.21-.3"/><path class="cls-9" d="M69.34,54.32a1,1,0,0,0-.51-.12c-.41,0-.73.18-.72.41A8.52,8.52,0,0,1,65,61a37.49,37.49,0,0,1-3.5,2.39l-.74.45a50.72,50.72,0,0,1-9,4.06c-.35.12-.46.38-.26.57l.11.09a1.16,1.16,0,0,0,.88.06,51.9,51.9,0,0,0,9.28-4.19l.76-.46a39,39,0,0,0,3.63-2.48l0,0h0a9.11,9.11,0,0,0,3.39-6.81.35.35,0,0,0-.21-.29"/><path class="cls-10" d="M69.59,48.1a1.1,1.1,0,0,0-.84-.07c-.35.1-.49.35-.31.55a11.05,11.05,0,0,1,1.72,2.56,8.63,8.63,0,0,1,.57,1.56.4.4,0,0,0,.2.23,1.11,1.11,0,0,0,.63.12c.38,0,.66-.25.6-.48a10,10,0,0,0-.61-1.65,11.5,11.5,0,0,0-1.83-2.72.45.45,0,0,0-.13-.1"/><path class="cls-11" d="M60,62.48a1.11,1.11,0,0,0-1,0,48.28,48.28,0,0,1-8.43,3.81,59.27,59.27,0,0,1-5.72,1.64c-.37.09-.55.33-.39.54a.37.37,0,0,0,.16.14,1.07,1.07,0,0,0,.78.09A57,57,0,0,0,51.24,67,49,49,0,0,0,60,63.07c.29-.17.28-.43,0-.59"/><path class="cls-12" d="M58.16,61.15a1.11,1.11,0,0,0-1,0,45.06,45.06,0,0,1-7.8,3.54c-1.64.57-3.38,1.08-5.17,1.51-1.52.36-3.11.68-4.74.94-.38.06-.61.29-.5.51a.44.44,0,0,0,.19.19,1.13,1.13,0,0,0,.7.11c1.68-.28,3.34-.6,4.91-1,1.85-.45,3.65-1,5.35-1.57a46.1,46.1,0,0,0,8.08-3.66c.29-.17.28-.43,0-.59"/><path class="cls-13" d="M61.14,47c-.5-.29-1-.56-1.63-.84a1.11,1.11,0,0,0-1,.07c-.24.17-.2.41,0,.56l.06,0a16.53,16.53,0,0,1,1.52.77c.27.16.54.33.86.55a12.05,12.05,0,0,1,2.08,1.72,8.32,8.32,0,0,1,1.32,1.77,6.48,6.48,0,0,1,.84,2.9,7.36,7.36,0,0,1-3,5.81c-.19.17-.15.39.09.53l.11,0a1.09,1.09,0,0,0,1-.11c2.19-1.86,3.31-4,3.24-6.3a6.91,6.91,0,0,0-.89-3.14h0a9.55,9.55,0,0,0-1.42-1.91,14.23,14.23,0,0,0-2.26-1.87c-.34-.23-.64-.42-.94-.59"/><path class="cls-14" d="M40.11,65.44a1.13,1.13,0,0,0-.72-.1c-1.31.22-2.71.41-4.18.56-.39,0-.66.26-.58.48a.47.47,0,0,0,.19.23,1.1,1.1,0,0,0,.64.11c1.53-.15,3-.35,4.34-.58.39-.07.6-.3.49-.52a.44.44,0,0,0-.18-.18"/><path class="cls-15" d="M60.66,54a1,1,0,0,0-.54-.12c-.4,0-.7.21-.69.44A5.06,5.06,0,0,1,57,58.79a9.66,9.66,0,0,1-.88.59l-.77.44A41.45,41.45,0,0,1,48.28,63c-1.47.53-3,1-4.64,1.4-.36.09-.52.33-.37.55l.16.12a1.15,1.15,0,0,0,.79.1c1.66-.42,3.29-.91,4.82-1.45a43.39,43.39,0,0,0,7.33-3.35l.77-.44a10.74,10.74,0,0,0,1-.66c1.92-1.41,2.89-3.19,2.73-5a.36.36,0,0,0-.21-.28"/><path class="cls-16" d="M39.84,63.51a1.07,1.07,0,0,0-.72-.1c-1.25.21-2.52.39-3.77.53s-2.48.23-3.77.3c-.4,0-.69.21-.66.45a.39.39,0,0,0,.22.26,1.08,1.08,0,0,0,.56.12c1.34-.07,2.66-.17,3.93-.31s2.62-.33,3.91-.55c.38-.07.59-.31.48-.53a.49.49,0,0,0-.18-.17"/><path class="cls-17" d="M55.05,50.53a9.71,9.71,0,0,0-1.33-.64,1.11,1.11,0,0,0-1,.09c-.2.17-.16.4.08.54l.1,0a7.58,7.58,0,0,1,1.14.55,6.82,6.82,0,0,1,1.29,1A3.86,3.86,0,0,1,56.48,54c.38,1.57-.49,3.11-2.41,4.22a40.49,40.49,0,0,1-7,3.19c-1.28.44-2.66.85-4.09,1.21-.37.09-.54.34-.38.55l.16.12a1.1,1.1,0,0,0,.79.09c1.5-.38,2.93-.8,4.26-1.26a40.5,40.5,0,0,0,7.31-3.31c2.24-1.29,3.26-3.09,2.83-4.92a4.62,4.62,0,0,0-1.37-2.22,8,8,0,0,0-1.5-1.11"/><path class="cls-18" d="M43.63,60.87a1.14,1.14,0,0,0-.82-.08c-1.1.3-2.24.57-3.38.8s-2.21.4-3.38.56-2.27.26-3.43.35-2.34.12-3.5.13c-.4,0-.71.2-.7.43a.37.37,0,0,0,.21.29,1.11,1.11,0,0,0,.52.12c1.2,0,2.43-.06,3.64-.14s2.42-.21,3.59-.37,2.4-.36,3.53-.58,2.36-.52,3.52-.84c.36-.09.51-.35.35-.55a.44.44,0,0,0-.15-.12"/><path class="cls-19" d="M53,51.71c-.19-.11-.41-.22-.65-.33a1.06,1.06,0,0,0-1,.07c-.23.17-.2.4.06.55l.06,0c.18.08.35.17.51.26a3.8,3.8,0,0,1,1.46,1.4c.62,1.18.08,2.45-1.42,3.32a35.66,35.66,0,0,1-5.73,2.66c-.33.13-.43.39-.22.58l.1.07a1.18,1.18,0,0,0,.89.06,37.93,37.93,0,0,0,6-2.78c1.87-1.08,2.56-2.67,1.78-4.15A4.61,4.61,0,0,0,53,51.71"/><path class="cls-20" d="M65.14,44.58a23.19,23.19,0,0,0-2.34-1.17,27.39,27.39,0,0,0-3-1.14,35.29,35.29,0,0,0-3.86-1,.92.92,0,0,0-.92.26c-.09.16,0,.32.18.43a.66.66,0,0,0,.27.1,32.48,32.48,0,0,1,3.64,1,27.84,27.84,0,0,1,2.82,1.07,23.3,23.3,0,0,1,2.18,1.09l.36.22.15.09c.61.38,1.2.77,1.72,1.17l.06,0a1.16,1.16,0,0,0,.95,0c.31-.13.38-.4.13-.58a20.6,20.6,0,0,0-1.82-1.24l-.13-.09-.39-.23"/><path class="cls-21" d="M37.55,60.41a1.09,1.09,0,0,0-.71-.1c-1,.16-2.06.3-3.12.41s-2.15.17-3.21.21-2.22,0-3.27,0c-.4,0-.73.17-.74.4s.07.23.21.31a.93.93,0,0,0,.47.12c1.1,0,2.26,0,3.42,0s2.24-.12,3.36-.23,2.22-.26,3.28-.43c.38-.06.61-.29.5-.52a.47.47,0,0,0-.19-.18"/><path class="cls-22" d="M51,52.89l-.18-.09h-.05a6.79,6.79,0,0,0-5.89.1,24.43,24.43,0,0,1-3.78,1.78c-.33.12-.43.38-.22.57l.1.07a1.12,1.12,0,0,0,.9.06,26.67,26.67,0,0,0,4-1.89,4.52,4.52,0,0,1,3.92-.06.64.64,0,0,1,.16.07,1.24,1.24,0,0,1,0,2.35,33.16,33.16,0,0,1-4.31,2.08c-1,.38-1.93.72-2.89,1s-1.94.56-2.93.8c-.37.08-.56.32-.4.54a.56.56,0,0,0,.16.14,1.18,1.18,0,0,0,.78.09c1-.24,2.07-.52,3.06-.82h0c1-.3,2-.67,3-1.06A33.87,33.87,0,0,0,51,56.42c1.67-1,1.66-2.56,0-3.53"/><path class="cls-23" d="M29.17,59a1.1,1.1,0,0,0-.51-.12c-1,0-2,0-3.08-.1-.39,0-.75.14-.79.37a.34.34,0,0,0,.21.34.91.91,0,0,0,.43.12c1.11.07,2.2.11,3.24.11.39,0,.72-.19.72-.42a.4.4,0,0,0-.22-.3"/><path class="cls-24" d="M48.45,54.36a1.1,1.1,0,0,0-1,0,26.62,26.62,0,0,1-2.62,1.33c-.75.34-1.54.65-2.33.93s-1.65.55-2.47.78-1.77.45-2.65.63-1.82.33-2.79.46-1.93.22-2.91.29c-.39,0-.68.23-.62.46a.35.35,0,0,0,.2.25,1.1,1.1,0,0,0,.59.12c1-.07,2.07-.18,3.07-.31s2-.3,2.94-.48,1.86-.41,2.79-.66,1.75-.52,2.61-.82h0c.82-.29,1.65-.62,2.44-1,1-.45,1.93-.92,2.77-1.4.28-.17.28-.43,0-.59"/><path class="cls-25" d="M63.2,45.82l-.48-.27-.1,0a22.86,22.86,0,0,0-2.79-1.28,30.11,30.11,0,0,0-3.66-1.13,36.8,36.8,0,0,0-3.76-.68c-1-.11-2-.2-3-.24s-2,0-3,0h0c-1,.05-2,.12-3,.24s-2,.28-2.94.49c-.38.07-.57.31-.43.53a.42.42,0,0,0,.17.15,1.1,1.1,0,0,0,.75.1c.89-.19,1.82-.34,2.74-.45S45.57,43,46.5,43s1.87,0,2.8,0,1.89.12,2.81.23a31.65,31.65,0,0,1,3.51.63A26.29,26.29,0,0,1,59,44.92a20.47,20.47,0,0,1,2.6,1.19l.1,0,.44.25a15.73,15.73,0,0,1,1.88,1.25,13.78,13.78,0,0,1,1.59,1.43A9.75,9.75,0,0,1,67.3,51.4a8,8,0,0,1,.61,1.65.41.41,0,0,0,.21.24,1.06,1.06,0,0,0,.61.12c.39,0,.66-.24.61-.47a8.63,8.63,0,0,0-.66-1.77,10.66,10.66,0,0,0-1.78-2.48,13.84,13.84,0,0,0-1.68-1.53,19.65,19.65,0,0,0-2-1.34"/><path class="cls-26" d="M39.33,55.58a1.19,1.19,0,0,0-.82-.09c-.84.24-1.72.44-2.61.62s-1.8.31-2.69.41-1.86.19-2.81.23-1.93,0-2.84,0-1.93-.08-2.92-.18c-.39,0-.76.11-.82.34s0,.27.2.36a1,1,0,0,0,.38.12c1.05.11,2.09.17,3.1.2s2,0,3,0,2-.12,3-.24,1.93-.26,2.87-.44,1.89-.41,2.77-.65c.36-.1.51-.35.34-.56a.53.53,0,0,0-.14-.11"/><path class="cls-27" d="M57.08,49.34a13.86,13.86,0,0,0-2.29-1,18.13,18.13,0,0,0-3.52-.89h0a22.45,22.45,0,0,0-3.08-.25c-.4,0-.72.18-.73.41s.07.22.21.3a1.05,1.05,0,0,0,.5.13,19,19,0,0,1,2.73.22h0A15.93,15.93,0,0,1,54,49a14.35,14.35,0,0,1,2,.93c.21.13.43.27.69.45A7.39,7.39,0,0,1,58.5,52l.16.13a1.1,1.1,0,0,0,.79.09c.36-.09.53-.34.37-.55a8,8,0,0,0-2-1.83c-.29-.2-.54-.36-.79-.51"/><path class="cls-28" d="M27.61,55.21a1.19,1.19,0,0,0-.46-.12c-.94,0-1.89-.11-2.82-.23-.39,0-.77.1-.85.33s0,.28.2.38a1.2,1.2,0,0,0,.35.11c1,.12,2,.21,3,.25.39,0,.73-.16.76-.39s-.07-.24-.21-.33"/><path class="cls-29" d="M49,50.62a1,1,0,0,0-.45-.12,10.6,10.6,0,0,0-5.76,1.2,23,23,0,0,1-4.55,2c-.91.29-1.87.54-2.83.75s-1.81.33-2.74.45-1.85.18-2.77.21c-.4,0-.69.22-.66.45s.09.2.21.27a1,1,0,0,0,.55.12q1.5-.06,3-.24c1-.11,2-.28,2.94-.48a31,31,0,0,0,3-.79,24.77,24.77,0,0,0,4.88-2.13,8.59,8.59,0,0,1,4.61-1c.39,0,.75-.15.78-.38s-.06-.24-.2-.33"/><path class="cls-30" d="M30.48,53.55a1,1,0,0,0-.57-.13c-.92,0-1.85,0-2.77,0s-1.85-.13-2.74-.25a.86.86,0,0,0-.88.3c-.05.15,0,.29.2.39a1.07,1.07,0,0,0,.33.11,28.93,28.93,0,0,0,3,.28c1,0,2,0,3,0,.4,0,.7-.22.66-.45a.34.34,0,0,0-.21-.26"/><path class="cls-31" d="M50.51,49.08a.85.85,0,0,0-.35-.12,18.2,18.2,0,0,0-3.38-.11,13.84,13.84,0,0,0-6,1.67,20.28,20.28,0,0,1-5,2,26.28,26.28,0,0,1-3,.61c-.38.06-.62.28-.52.51a.43.43,0,0,0,.19.19,1.1,1.1,0,0,0,.69.11,28.32,28.32,0,0,0,3.25-.66,22,22,0,0,0,5.45-2.2,11.92,11.92,0,0,1,5.13-1.43,14.89,14.89,0,0,1,2.91.1.82.82,0,0,0,.86-.32c.06-.14,0-.28-.2-.38"/><path class="cls-32" d="M45.43,47.49a1.09,1.09,0,0,0-.69-.12,17,17,0,0,0-6,2,17.71,17.71,0,0,1-5.28,1.94,22.82,22.82,0,0,1-3.11.43,23.75,23.75,0,0,1-5.54-.22.86.86,0,0,0-.88.3c-.07.15,0,.3.18.4a1,1,0,0,0,.33.11,26.56,26.56,0,0,0,3,.29,27,27,0,0,0,3.11-.05A25.67,25.67,0,0,0,34,52.07a19.93,19.93,0,0,0,5.81-2.14,14.86,14.86,0,0,1,5.34-1.74c.38-.06.61-.29.52-.51a.39.39,0,0,0-.19-.19"/><path class="cls-33" d="M52.42,40.79a1,1,0,0,0-.38-.12c-1-.1-2.08-.17-3.08-.19s-2,0-3,0-2,.13-3,.24S41,41,40.08,41.2s-1.88.4-2.77.65c-.36.1-.51.35-.33.55l.14.12a1.11,1.11,0,0,0,.81.08c.85-.23,1.73-.44,2.62-.61s1.79-.31,2.69-.42,1.85-.19,2.8-.23,1.93-.05,2.85,0,1.93.09,2.91.19c.4,0,.76-.12.83-.34a.33.33,0,0,0-.21-.37"/><path class="cls-34" d="M44,44.24a1.14,1.14,0,0,0-.68-.12,33.18,33.18,0,0,0-3.27.66A22.18,22.18,0,0,0,34.65,47a11.77,11.77,0,0,1-5.14,1.43,14.15,14.15,0,0,1-2.91-.1c-.39,0-.78.09-.86.32s0,.29.2.39a1,1,0,0,0,.34.11,16.7,16.7,0,0,0,3.39.11,13.75,13.75,0,0,0,6-1.67,20.11,20.11,0,0,1,5-2,26.12,26.12,0,0,1,3-.62c.39,0,.63-.28.53-.5a.39.39,0,0,0-.19-.19"/><path class="cls-35" d="M38.32,43.75a1.12,1.12,0,0,0-.85-.07A24.08,24.08,0,0,0,32.6,45.8a8.44,8.44,0,0,1-4.62,1c-.39,0-.75.15-.78.38a.33.33,0,0,0,.21.33.85.85,0,0,0,.45.12,10.57,10.57,0,0,0,5.77-1.2,23.28,23.28,0,0,1,4.54-2c.34-.11.47-.36.27-.57a.38.38,0,0,0-.12-.09"/><path class="cls-36" d="M35.47,42.79a1.16,1.16,0,0,0-.9-.06,26.55,26.55,0,0,0-4,1.89c-.29.16-.29.43,0,.59a1.13,1.13,0,0,0,1,0,24.91,24.91,0,0,1,3.78-1.77c.33-.13.43-.39.21-.58l-.1-.07"/><path class="cls-37" d="M56.23,45l-.2-.08a28.63,28.63,0,0,0-3.64-.76c-1-.14-2-.23-3-.28s-2,0-3,0c-.39,0-.68.22-.66.45a.43.43,0,0,0,.21.26,1.12,1.12,0,0,0,.57.12c.92,0,1.85,0,2.77,0s1.86.14,2.75.26a28.59,28.59,0,0,1,3.36.7,1,1,0,0,0,1-.19c.13-.17.07-.35-.14-.48"/><path class="cls-38" d="M59.11,48.16a37.55,37.55,0,0,0-3.55-1.53A24.06,24.06,0,0,0,52,45.79a26.61,26.61,0,0,0-3-.28h0a29.38,29.38,0,0,0-3.11,0A27.17,27.17,0,0,0,42.5,46a19.43,19.43,0,0,0-5.81,2.13,14.93,14.93,0,0,1-5.34,1.75,21,21,0,0,1-3.07.2,19,19,0,0,1-2.73-.23.88.88,0,0,0-.89.3.32.32,0,0,0,.19.4,1,1,0,0,0,.33.11,22.57,22.57,0,0,0,6.52,0h0a16.82,16.82,0,0,0,6-2A17.78,17.78,0,0,1,43,46.81a24.11,24.11,0,0,1,5.93-.47h0a21.85,21.85,0,0,1,2.7.26,20.9,20.9,0,0,1,3.23.76,32.72,32.72,0,0,1,3.24,1.39A12.79,12.79,0,0,1,60,50.07a8.25,8.25,0,0,1,1.63,2,5.47,5.47,0,0,1,.73,2.31c.13,1.92-.89,3.81-2.86,5.34-.22.17-.19.4.06.54l.08,0a1.08,1.08,0,0,0,1-.08c2.18-1.68,3.3-3.76,3.15-5.87a5.89,5.89,0,0,0-.8-2.54,8.41,8.41,0,0,0-1.8-2.15,12.47,12.47,0,0,0-2-1.46"/><polygon class="cls-39" points="50.34 22.57 50.33 25.83 48.21 27.06 48.22 23.8 50.34 22.57"/><path class="cls-40" d="M58.88,24.63v3.26a2.51,2.51,0,0,0-1.48-2.06,7.78,7.78,0,0,0-7.06,0V22.57a7.8,7.8,0,0,1,7.07,0A2.51,2.51,0,0,1,58.88,24.63Z"/><path class="cls-41" d="M61.88,24.64V27.9c0,1.18-.78,2.35-2.33,3.25V27.89A4,4,0,0,0,61.88,24.64Z"/><path class="cls-42" d="M33.5,31.15V27.88a1,1,0,0,0,.59.83V32A1,1,0,0,1,33.5,31.15Z"/><polygon class="cls-43" points="59.55 27.89 59.55 31.15 57.43 32.38 57.44 29.12 59.55 27.89"/><path class="cls-44" d="M59.52,21.34c3.13,1.81,3.15,4.74,0,6.55l-2.11,1.23-2.13-1.23,2.12-1.23c1.94-1.13,1.93-3,0-4.09a7.8,7.8,0,0,0-7.07,0L48.22,23.8l-2.14-1.23,2.12-1.23A12.48,12.48,0,0,1,59.52,21.34Z"/><path class="cls-45" d="M58.74,30.35v3.27a1,1,0,0,1-.59.81V31.17A1,1,0,0,0,58.74,30.35Z"/><polygon class="cls-46" points="58.15 31.17 58.14 34.43 49.69 39.34 49.7 36.08 58.15 31.17"/><polygon class="cls-47" points="46.87 36.08 46.86 39.34 34.09 31.97 34.1 28.71 46.87 36.08"/><path class="cls-48" d="M49.7,36.08v3.26a3.07,3.07,0,0,1-2.83,0V36.08A3.13,3.13,0,0,0,49.7,36.08Z"/><path class="cls-49" d="M58.14,29.53l-.7-.41-2.13-1.23L48.22,23.8l-2.14-1.23-.7-.41a3.1,3.1,0,0,0-2.83,0l-8.46,4.91a.87.87,0,0,0,0,1.64l12.77,7.37a3.13,3.13,0,0,0,2.83,0l8.45-4.91A.87.87,0,0,0,58.14,29.53Z"/><path class="cls-50" d="M49.65,27.08a1.3,1.3,0,0,1,0,2.45,4.59,4.59,0,0,1-2.89.44,1.57,1.57,0,0,0-1,.15L44,31.17a1.56,1.56,0,0,1-1.41,0,.43.43,0,0,1,0-.82l1.8-1.05c.24-.14.35-.35.25-.55-.32-.68.07-1.45,1.22-1.9a4.86,4.86,0,0,1,3.34,0A2.56,2.56,0,0,1,49.65,27.08Z"/></g></svg>