<svg xmlns="http://www.w3.org/2000/svg" xmlns:xlink="http://www.w3.org/1999/xlink" viewBox="0 0 96 96"><defs><style>.cls-1{fill:url(#linear-gradient);}.cls-2{fill:url(#linear-gradient-2);}.cls-3{fill:#90e0ef;}.cls-4{fill:url(#linear-gradient-3);}.cls-5{fill:#0096c7;}.cls-6{fill:#00b4d8;}.cls-7{fill:#caf0f8;}.cls-8{fill:#e9feff;}.cls-9{fill:url(#linear-gradient-4);}.cls-10{fill:url(#linear-gradient-5);}.cls-11{fill:url(#linear-gradient-6);}.cls-12{fill:url(#linear-gradient-7);}.cls-13{fill:url(#linear-gradient-8);}.cls-14{fill:url(#linear-gradient-9);}.cls-15{fill:url(#linear-gradient-10);}.cls-16{fill:url(#linear-gradient-11);}.cls-17{fill:url(#linear-gradient-12);}.cls-18{fill:url(#linear-gradient-13);}.cls-19{fill:url(#linear-gradient-14);}.cls-20{fill:url(#linear-gradient-15);}.cls-21{fill:url(#linear-gradient-16);}.cls-22{fill:url(#linear-gradient-17);}.cls-23{fill:url(#linear-gradient-18);}.cls-24{fill:url(#linear-gradient-19);}.cls-25{fill:url(#linear-gradient-20);}.cls-26{fill:url(#linear-gradient-21);}.cls-27{fill:url(#linear-gradient-22);}.cls-28{fill:url(#linear-gradient-23);}.cls-29{fill:url(#linear-gradient-24);}</style><linearGradient id="linear-gradient" x1="98.52" y1="42.53" x2="117.75" y2="75.84" gradientTransform="matrix(-1, 0, 0, 1, 156.27, 0)" gradientUnits="userSpaceOnUse"><stop offset="0" stop-color="#00b4d8"/><stop offset="1" stop-color="#0096c7"/></linearGradient><linearGradient id="linear-gradient-2" x1="65.2" y1="57.17" x2="103.47" y2="79.27" gradientTransform="matrix(-1, 0, 0, 1, 156.27, 0)" gradientUnits="userSpaceOnUse"><stop offset="0" stop-color="#caf0f8"/><stop offset="1" stop-color="#90e0ef"/></linearGradient><linearGradient id="linear-gradient-3" x1="148.96" y1="64.95" x2="103.12" y2="64.95" xlink:href="#linear-gradient-2"/><linearGradient id="linear-gradient-4" x1="79.91" y1="62.57" x2="83.46" y2="62.57" gradientTransform="matrix(1, 0, 0, 1, 0, 0)" xlink:href="#linear-gradient"/><linearGradient id="linear-gradient-5" x1="74.91" y1="65.57" x2="78.46" y2="65.57" gradientTransform="matrix(1, 0, 0, 1, 0, 0)" xlink:href="#linear-gradient"/><linearGradient id="linear-gradient-6" x1="69.91" y1="68.57" x2="73.46" y2="68.57" gradientTransform="matrix(1, 0, 0, 1, 0, 0)" xlink:href="#linear-gradient"/><linearGradient id="linear-gradient-7" x1="64.91" y1="71.57" x2="68.46" y2="71.57" gradientTransform="matrix(1, 0, 0, 1, 0, 0)" xlink:href="#linear-gradient"/><linearGradient id="linear-gradient-8" x1="101.2" y1="73.75" x2="104.04" y2="73.75" gradientTransform="matrix(-1, 0, 0, 1, 156.27, 0)" gradientUnits="userSpaceOnUse"><stop offset="0" stop-color="#008aaa"/><stop offset="1" stop-color="#1797bf"/></linearGradient><linearGradient id="linear-gradient-9" x1="141.88" y1="28.7" x2="74.39" y2="67.67" xlink:href="#linear-gradient"/><linearGradient id="linear-gradient-10" x1="36.14" y1="52.34" x2="42.14" y2="52.34" gradientUnits="userSpaceOnUse"><stop offset="0" stop-color="#ffd500"/><stop offset="1" stop-color="#fdc500"/></linearGradient><linearGradient id="linear-gradient-11" x1="40.57" y1="49.3" x2="48.25" y2="49.3" xlink:href="#linear-gradient-10"/><linearGradient id="linear-gradient-12" x1="42.01" y1="46.75" x2="55.61" y2="46.75" xlink:href="#linear-gradient-10"/><linearGradient id="linear-gradient-13" x1="43.45" y1="44.27" x2="62.78" y2="44.27" xlink:href="#linear-gradient-10"/><linearGradient id="linear-gradient-14" x1="143.33" y1="47.6" x2="107.85" y2="68.08" xlink:href="#linear-gradient-2"/><linearGradient id="linear-gradient-15" x1="20.79" y1="52.67" x2="22.79" y2="52.67" xlink:href="#linear-gradient-10"/><linearGradient id="linear-gradient-16" x1="17.27" y1="50.63" x2="19.27" y2="50.63" xlink:href="#linear-gradient-10"/><linearGradient id="linear-gradient-17" x1="24.32" y1="54.72" x2="26.31" y2="54.72" xlink:href="#linear-gradient-10"/><linearGradient id="linear-gradient-18" x1="27.84" y1="56.77" x2="29.84" y2="56.77" xlink:href="#linear-gradient-10"/><linearGradient id="linear-gradient-19" x1="31.36" y1="58.82" x2="33.36" y2="58.82" xlink:href="#linear-gradient-10"/><linearGradient id="linear-gradient-20" x1="34.89" y1="60.86" x2="36.89" y2="60.86" xlink:href="#linear-gradient-10"/><linearGradient id="linear-gradient-21" x1="109.36" y1="31.58" x2="105.36" y2="31.58" xlink:href="#linear-gradient-2"/><linearGradient id="linear-gradient-22" x1="105.77" y1="29.68" x2="108.94" y2="31.51" xlink:href="#linear-gradient-2"/><linearGradient id="linear-gradient-23" x1="114.57" y1="28.57" x2="110.57" y2="28.57" xlink:href="#linear-gradient-2"/><linearGradient id="linear-gradient-24" x1="110.98" y1="26.67" x2="114.15" y2="28.5" xlink:href="#linear-gradient-2"/></defs><g id="Layer_6" data-name="Layer 6"><path class="cls-1" d="M5.73,55.09a.87.87,0,0,0,0,1.64l46.51,27a3.16,3.16,0,0,0,2.84,0L90.54,63.28a.87.87,0,0,0,0-1.64L44,34.61a3.13,3.13,0,0,0-2.83,0Z"/><polygon class="cls-2" points="54.54 74.18 54.56 82.33 89.32 62.26 89.3 54.11 54.54 74.18"/><path class="cls-3" d="M89.3,55.78,55.57,75.26a3.64,3.64,0,0,1-1,.37V74.18L89.3,54.11Z"/><polygon class="cls-4" points="7.31 47.56 7.34 55.71 53.15 82.33 53.12 74.18 7.31 47.56"/><path class="cls-3" d="M53.13,75.7a3.73,3.73,0,0,1-1.39-.44L7.32,49.44V47.56L53.12,74.18Z"/><path class="cls-5" d="M5.14,55.92v1.63a1,1,0,0,0,.58.81V56.73a1,1,0,0,1-.58-.81"/><path class="cls-5" d="M90.54,63.28v1.63a1,1,0,0,0,.59-.82V62.46a1,1,0,0,1-.59.82"/><polygon class="cls-5" points="5.72 56.73 5.72 58.36 52.24 85.39 52.23 83.76 5.72 56.73"/><polygon class="cls-5" points="55.06 83.76 55.07 85.39 90.54 64.91 90.54 63.28 55.06 83.76"/><path class="cls-5" d="M52.23,83.76v1.63a3.14,3.14,0,0,0,2.83,0V83.76a3.16,3.16,0,0,1-2.84,0"/><path class="cls-6" d="M50.27,7h4a0,0,0,0,1,0,0V30a2,2,0,0,1-2,2h0a2,2,0,0,1-2-2V7A0,0,0,0,1,50.27,7Z" transform="translate(104.54 39) rotate(-180)"/><path class="cls-6" d="M80.27,25h4a0,0,0,0,1,0,0V48a2,2,0,0,1-2,2h0a2,2,0,0,1-2-2V25a0,0,0,0,1,0,0Z" transform="translate(164.54 75) rotate(-180)"/><path class="cls-7" d="M7,47.16l0,8.15a.48.48,0,0,0,.29.4l0-8.15a.5.5,0,0,1-.29-.4"/><path class="cls-7" d="M89.3,54.11l0,8.15a.49.49,0,0,0,.3-.41l0-8.15a.48.48,0,0,1-.29.41"/><path class="cls-3" d="M53.12,74.18l0,8.15a1.55,1.55,0,0,0,1.42,0l0-8.15a1.55,1.55,0,0,1-1.42,0"/><path class="cls-8" d="M19.29,57.3,43.41,71.23a3.1,3.1,0,0,1,1.41,2.44c0,.91-.64,1.27-1.42.82L19.28,60.57a3.11,3.11,0,0,1-1.41-2.46c0-.89.63-1.26,1.42-.81"/><path class="cls-8" d="M13,53.25a1.58,1.58,0,0,1,.71,1.22v2.45c0,.45-.32.63-.71.41a1.57,1.57,0,0,1-.71-1.22V53.66c0-.45.32-.63.71-.41"/><path class="cls-8" d="M9.66,51.23a1.59,1.59,0,0,1,.71,1.23V54.9c0,.46-.32.64-.71.41A1.52,1.52,0,0,1,9,54.08V51.64c0-.45.32-.63.71-.41"/><path class="cls-9" d="M80.62,61.81l2.12-1.22c.39-.23.71-.05.71.4v.81A1.59,1.59,0,0,1,82.75,63L82,64.25l-.7.41-.72-.4c-.39.22-.71,0-.71-.41V63a1.54,1.54,0,0,1,.71-1.23"/><path class="cls-10" d="M75.61,64.81l2.14-1.23c.39-.22.71,0,.71.41v.81A1.55,1.55,0,0,1,77.75,66L77,67.25l-.71.41-.71-.41c-.39.23-.71,0-.71-.4V66a1.6,1.6,0,0,1,.7-1.23"/><path class="cls-11" d="M70.62,67.81l2.12-1.23c.39-.22.71,0,.72.41v.81A1.57,1.57,0,0,1,72.75,69l-.7,1.22-.71.41-.71-.4c-.4.23-.71,0-.72-.41V69a1.54,1.54,0,0,1,.71-1.22"/><path class="cls-12" d="M65.62,70.81l2.12-1.22c.4-.23.72-.06.72.4v.81A1.59,1.59,0,0,1,67.75,72L67,73.25l-.71.41-.71-.4c-.39.22-.71,0-.71-.41V72a1.57,1.57,0,0,1,.71-1.23"/><path class="cls-5" d="M5.14,44.92v1.63a1,1,0,0,0,.58.81V45.73a1,1,0,0,1-.58-.81"/><path class="cls-5" d="M90.54,52.28v1.63a1,1,0,0,0,.59-.82V51.46a1,1,0,0,1-.59.82"/><polygon class="cls-5" points="5.72 45.73 5.72 47.36 52.24 74.39 52.23 72.76 5.72 45.73"/><path class="cls-13" d="M52.23,72.76v1.63a3.14,3.14,0,0,0,2.83,0V72.76A3.16,3.16,0,0,1,52.23,72.76Z"/><path class="cls-14" d="M5.73,44.09a.87.87,0,0,0,0,1.64l46.51,27a3.16,3.16,0,0,0,2.84,0L90.54,52.28a.87.87,0,0,0,0-1.64L44,23.61a3.13,3.13,0,0,0-2.83,0Z"/><path class="cls-15" d="M37,51.11a4.68,4.68,0,0,1,4.25,0,1.3,1.3,0,0,1,0,2.46,4.66,4.66,0,0,1-4.24,0,1.3,1.3,0,0,1,0-2.46"/><path class="cls-16" d="M40.9,47.44a5.31,5.31,0,0,1,3.84,0,7.59,7.59,0,0,1,2.95,1.71c.91.92.59,1.83-.08,2.22a1.44,1.44,0,0,1-.82.19,4.31,4.31,0,0,1-2.57-1.24,3.75,3.75,0,0,0-1.51-.88c-.94-.36-2-.86-2.14-1.5,0-.16.09-.33.33-.46"/><path class="cls-17" d="M42.45,43.21a4.71,4.71,0,0,1,2.76-.35c5.11.7,9.13,3,10.31,6a1.27,1.27,0,0,1-.62,1.6,1.93,1.93,0,0,1-1,.25,2.5,2.5,0,0,1-2.26-1.31c-.84-2.12-3.7-3.78-7.34-4.27-1.16-.17-2.22-.67-2.27-1.31,0-.22.15-.43.44-.6"/><path class="cls-18" d="M43.93,39.07a4.36,4.36,0,0,1,2.42-.39c8.47.72,15.17,4.61,16.39,9.53a1.26,1.26,0,0,1-.68,1.4,2.23,2.23,0,0,1-1.11.27,2.17,2.17,0,0,1-2.16-1.33c-1-3.91-6.3-7-13-7.58-1.21-.11-2.26-.61-2.29-1.26,0-.24.17-.46.48-.64"/><path class="cls-19" d="M14.75,47.76a3.08,3.08,0,0,1,2.82,0l31,18c.79.45.78,1.18,0,1.64l-2.85,1.64L11.91,49.4Z"/><path class="cls-20" d="M21.09,52.26a1.59,1.59,0,0,1,1.41,0,.43.43,0,0,1,0,.82,1.53,1.53,0,0,1-1.41,0c-.39-.22-.39-.59,0-.82"/><path class="cls-21" d="M17.57,50.22a1.53,1.53,0,0,1,1.41,0c.39.22.38.59,0,.81a1.53,1.53,0,0,1-1.41,0c-.39-.22-.39-.59,0-.81"/><path class="cls-22" d="M24.61,54.31a1.61,1.61,0,0,1,1.42,0,.44.44,0,0,1,0,.82,1.56,1.56,0,0,1-1.41,0,.43.43,0,0,1,0-.82"/><path class="cls-23" d="M28.13,56.36a1.55,1.55,0,0,1,1.42,0,.43.43,0,0,1,0,.82,1.58,1.58,0,0,1-1.42,0,.43.43,0,0,1,0-.82"/><path class="cls-24" d="M31.66,58.41a1.53,1.53,0,0,1,1.41,0,.43.43,0,0,1,0,.82,1.59,1.59,0,0,1-1.41,0c-.39-.23-.4-.59,0-.82"/><path class="cls-25" d="M35.18,60.45a1.58,1.58,0,0,1,1.42,0,.43.43,0,0,1,0,.81,1.55,1.55,0,0,1-1.42,0,.43.43,0,0,1,0-.82"/><path class="cls-8" d="M38.71,62.5a1.59,1.59,0,0,1,1.41,0,.43.43,0,0,1,0,.82,1.55,1.55,0,0,1-1.42,0,.43.43,0,0,1,0-.82"/><path class="cls-8" d="M42.23,64.55a1.58,1.58,0,0,1,1.42,0,.44.44,0,0,1,0,.82,1.56,1.56,0,0,1-1.41,0,.43.43,0,0,1,0-.82"/><path class="cls-5" d="M47.65,30.46a1,1,0,0,0,0,1.9,3.61,3.61,0,0,0,3.28,0c.91-.52.93-1.38,0-1.9A3.63,3.63,0,0,0,47.65,30.46Z"/><path class="cls-3" d="M53.66,75.73a4.58,4.58,0,0,1-.53,0V74.18a1.55,1.55,0,0,0,1.42,0v1.46A4.41,4.41,0,0,1,53.66,75.73Z"/><path class="cls-5" d="M52.23,72.76v1.63a3.14,3.14,0,0,0,2.83,0V72.76a3.16,3.16,0,0,1-2.84,0"/><path class="cls-3" d="M89.59,53.7v1.91l-.3.17V54.11A.48.48,0,0,0,89.59,53.7Z"/><polygon class="cls-5" points="55.06 72.76 55.07 74.39 90.54 53.91 90.54 52.28 55.06 72.76"/><path class="cls-26" d="M46.91,30.6v.82a1,1,0,0,0,.58.81,3.13,3.13,0,0,0,2.83,0,1,1,0,0,0,.6-.83v-.81a1,1,0,0,1-.59.83,3.14,3.14,0,0,1-2.83,0,1,1,0,0,1-.58-.82"/><path class="cls-27" d="M47.5,29.78a.87.87,0,0,0,0,1.64,3.14,3.14,0,0,0,2.83,0c.78-.46.79-1.19,0-1.64A3.1,3.1,0,0,0,47.5,29.78Z"/><path class="cls-5" d="M42.9,27.77a.87.87,0,0,0,0,1.64,3.14,3.14,0,0,0,2.83,0,.87.87,0,0,0,0-1.64A3.13,3.13,0,0,0,42.9,27.77Z"/><path class="cls-28" d="M41.7,27.6v.81a1,1,0,0,0,.58.81,3.1,3.1,0,0,0,2.83,0,1,1,0,0,0,.59-.82v-.82a1,1,0,0,1-.59.83,3.14,3.14,0,0,1-2.83,0,1,1,0,0,1-.58-.81"/><path class="cls-29" d="M42.29,26.77a.87.87,0,0,0,0,1.64,3.14,3.14,0,0,0,2.83,0,.87.87,0,0,0,0-1.64A3.13,3.13,0,0,0,42.29,26.77Z"/></g></svg>