<svg xmlns="http://www.w3.org/2000/svg" xmlns:xlink="http://www.w3.org/1999/xlink" viewBox="0 0 96 96"><defs><style>.cls-1{fill:url(#linear-gradient);}.cls-2{fill:#0096c7;}.cls-3{fill:url(#linear-gradient-2);}.cls-4{fill:url(#linear-gradient-3);}.cls-5{fill:url(#linear-gradient-4);}.cls-6{fill:url(#linear-gradient-5);}.cls-7{fill:url(#linear-gradient-6);}.cls-8{fill:url(#linear-gradient-7);}.cls-9{fill:url(#linear-gradient-8);}.cls-10{fill:url(#linear-gradient-9);}.cls-11{fill:url(#linear-gradient-10);}.cls-12{fill:url(#linear-gradient-11);}.cls-13{fill:url(#linear-gradient-12);}.cls-14{fill:url(#linear-gradient-13);}.cls-15{fill:#c3edfd;}.cls-16{fill:url(#linear-gradient-14);}.cls-17{fill:url(#linear-gradient-15);}.cls-18{fill:url(#linear-gradient-16);}.cls-19{fill:url(#linear-gradient-17);}.cls-20{fill:url(#linear-gradient-18);}.cls-21{fill:url(#linear-gradient-19);}.cls-22{fill:url(#linear-gradient-20);}.cls-23{fill:url(#linear-gradient-21);}.cls-24{fill:url(#linear-gradient-22);}.cls-25{fill:url(#linear-gradient-23);}.cls-26{fill:url(#linear-gradient-24);}.cls-27{fill:url(#linear-gradient-25);}.cls-28{fill:url(#linear-gradient-26);}.cls-29{fill:url(#linear-gradient-27);}.cls-30{fill:url(#linear-gradient-28);}.cls-31{fill:url(#linear-gradient-29);}.cls-32{fill:url(#linear-gradient-30);}.cls-33{fill:url(#linear-gradient-31);}.cls-34{fill:url(#linear-gradient-32);}.cls-35{fill:url(#linear-gradient-33);}.cls-36{fill:url(#linear-gradient-34);}.cls-37{fill:#90e0ef;}.cls-38{fill:url(#linear-gradient-35);}.cls-39{fill:url(#linear-gradient-36);}.cls-40{fill:url(#linear-gradient-37);}</style><linearGradient id="linear-gradient" x1="-54.26" y1="61.72" x2="-2.46" y2="61.72" gradientTransform="matrix(-1, 0, 0, 1, 34.71, 0)" gradientUnits="userSpaceOnUse"><stop offset="0" stop-color="#00b4d8"/><stop offset="1" stop-color="#0096c7"/></linearGradient><linearGradient id="linear-gradient-2" x1="-47.17" y1="29.22" x2="22.18" y2="69.26" xlink:href="#linear-gradient"/><linearGradient id="linear-gradient-3" x1="88.95" y1="46.36" x2="89.56" y2="46.36" gradientTransform="matrix(1, 0, 0, 1, 0, 0)" xlink:href="#linear-gradient"/><linearGradient id="linear-gradient-4" x1="4.86" y1="59.47" x2="5.46" y2="59.47" gradientTransform="matrix(1, 0, 0, 1, 0, 0)" xlink:href="#linear-gradient"/><linearGradient id="linear-gradient-5" x1="0.36" y1="68.27" x2="29.27" y2="68.27" xlink:href="#linear-gradient"/><linearGradient id="linear-gradient-6" x1="34.33" y1="76.84" x2="37.18" y2="76.84" gradientTransform="matrix(1, 0, 0, 1, 0, 0)" xlink:href="#linear-gradient"/><linearGradient id="linear-gradient-7" x1="-51.47" y1="48.79" x2="25.29" y2="48.79" gradientTransform="matrix(-1, 0, 0, 1, 34.71, 0)" gradientUnits="userSpaceOnUse"><stop offset="0" stop-color="#dcf7ff"/><stop offset="1" stop-color="#c3edfd"/></linearGradient><linearGradient id="linear-gradient-8" x1="-42.79" y1="33.68" x2="-31.63" y2="33.68" gradientTransform="matrix(-1, 0, 0, 1, 34.71, 0)" gradientUnits="userSpaceOnUse"><stop offset="0" stop-color="#caf0f8"/><stop offset="1" stop-color="#90e0ef"/></linearGradient><linearGradient id="linear-gradient-9" x1="-50.54" y1="40.44" x2="-47.13" y2="40.44" xlink:href="#linear-gradient-8"/><linearGradient id="linear-gradient-10" x1="-30.39" y1="28.8" x2="-29.23" y2="29.96" gradientTransform="matrix(-1, 0, 0, 1, 34.71, 0)" gradientUnits="userSpaceOnUse"><stop offset="0" stop-color="#a6b1bc"/><stop offset="1" stop-color="#7e8b99"/></linearGradient><linearGradient id="linear-gradient-11" x1="-28.27" y1="27.57" x2="-27.12" y2="28.73" xlink:href="#linear-gradient-10"/><linearGradient id="linear-gradient-12" x1="10.01" y1="63.27" x2="16.95" y2="63.27" xlink:href="#linear-gradient-8"/><linearGradient id="linear-gradient-13" x1="13.03" y1="67.81" x2="17.99" y2="67.81" xlink:href="#linear-gradient-8"/><linearGradient id="linear-gradient-14" x1="25.56" y1="38" x2="52.85" y2="38" gradientUnits="userSpaceOnUse"><stop offset="0" stop-color="#61e786"/><stop offset="1" stop-color="#4ac664"/></linearGradient><linearGradient id="linear-gradient-15" x1="30.96" y1="37.9" x2="46.17" y2="37.9" gradientUnits="userSpaceOnUse"><stop offset="0" stop-color="#ffd500"/><stop offset="1" stop-color="#fdc500"/></linearGradient><linearGradient id="linear-gradient-16" x1="5.24" y1="50.26" x2="35.74" y2="50.26" xlink:href="#linear-gradient-14"/><linearGradient id="linear-gradient-17" x1="2.4" y1="49.84" x2="22.77" y2="49.84" gradientTransform="matrix(-1, 0, 0, 1, 34.71, 0)" gradientUnits="userSpaceOnUse"><stop offset="0" stop-color="#e5e2b7"/><stop offset="1" stop-color="#fdfcdc"/></linearGradient><linearGradient id="linear-gradient-18" x1="8.68" y1="51.41" x2="26.56" y2="51.41" xlink:href="#linear-gradient-15"/><linearGradient id="linear-gradient-19" x1="20.67" y1="49.72" x2="25.54" y2="49.72" gradientTransform="translate(2.56 -1.11) rotate(2.92)" xlink:href="#linear-gradient-15"/><linearGradient id="linear-gradient-20" x1="31.97" y1="64.5" x2="66.44" y2="64.5" xlink:href="#linear-gradient-14"/><linearGradient id="linear-gradient-21" x1="-22.85" y1="59.66" x2="-6.23" y2="69.25" xlink:href="#linear-gradient-17"/><linearGradient id="linear-gradient-22" x1="43.32" y1="64.18" x2="53.47" y2="64.18" xlink:href="#linear-gradient-15"/><linearGradient id="linear-gradient-23" x1="-28.77" y1="68.55" x2="-14.42" y2="68.55" xlink:href="#linear-gradient-17"/><linearGradient id="linear-gradient-24" x1="-14.67" y1="60.36" x2="-0.32" y2="60.36" xlink:href="#linear-gradient-17"/><linearGradient id="linear-gradient-25" x1="59.59" y1="45.9" x2="89.85" y2="45.9" xlink:href="#linear-gradient-14"/><linearGradient id="linear-gradient-26" x1="54.72" y1="55.56" x2="82.73" y2="55.56" xlink:href="#linear-gradient-14"/><linearGradient id="linear-gradient-27" x1="-39.23" y1="58.39" x2="-29.47" y2="58.39" xlink:href="#linear-gradient-17"/><linearGradient id="linear-gradient-28" x1="-42.06" y1="57.36" x2="-34.43" y2="57.36" xlink:href="#linear-gradient-17"/><linearGradient id="linear-gradient-29" x1="64.2" y1="53.68" x2="69.02" y2="53.68" xlink:href="#linear-gradient-15"/><linearGradient id="linear-gradient-30" x1="-44.9" y1="53.27" x2="-28.81" y2="53.27" xlink:href="#linear-gradient-17"/><linearGradient id="linear-gradient-31" x1="-52.02" y1="44.26" x2="-35.93" y2="44.26" xlink:href="#linear-gradient-17"/><linearGradient id="linear-gradient-32" x1="-49.19" y1="45.89" x2="-33.09" y2="45.89" xlink:href="#linear-gradient-17"/><linearGradient id="linear-gradient-33" x1="69.89" y1="47.94" x2="77.53" y2="47.94" xlink:href="#linear-gradient-15"/><linearGradient id="linear-gradient-34" x1="-35.07" y1="44.26" x2="-30.26" y2="44.26" xlink:href="#linear-gradient-17"/><linearGradient id="linear-gradient-35" x1="51.25" y1="27.5" x2="77.88" y2="27.5" xlink:href="#linear-gradient-14"/><linearGradient id="linear-gradient-36" x1="63.4" y1="25.86" x2="71.4" y2="25.86" xlink:href="#linear-gradient-15"/><linearGradient id="linear-gradient-37" x1="55.49" y1="29.79" x2="65.72" y2="29.79" xlink:href="#linear-gradient-15"/></defs><g id="Layer_5" data-name="Layer 5"><polygon class="cls-1" points="37.16 73.41 37.18 79.93 88.97 50.03 88.95 43.51 37.16 73.41"/><polygon class="cls-2" points="86.28 45.05 88.96 46.61 88.97 50.03 68.64 61.77 63.01 58.49 86.28 45.05"/><path class="cls-3" d="M5.45,55a.86.86,0,0,0,0,1.63L34.33,73.4a3.1,3.1,0,0,0,2.83,0L89,43.51a.87.87,0,0,0,0-1.64L60.06,25.08a3.13,3.13,0,0,0-2.83,0Z"/><path class="cls-2" d="M57.23,25.08a3.13,3.13,0,0,1,2.83,0l12.38,7.19-6,3.47a3.85,3.85,0,0,1-1.92.47,3.89,3.89,0,0,1-1.91-.47L51.33,29.19a2.35,2.35,0,0,1-.51-.41Z"/><path class="cls-4" d="M89,43.51,89,50a1,1,0,0,0,.59-.82l0-6.52a1,1,0,0,1-.59.82"/><path class="cls-2" d="M89.55,47v2.26A1,1,0,0,1,89,50V46.61Z"/><polygon class="cls-2" points="65.69 63.47 47.38 74.04 41.74 70.77 60.05 60.2 65.69 63.47"/><path class="cls-5" d="M4.86,55.8v6.52a1,1,0,0,0,.59.82l0-6.53a1,1,0,0,1-.58-.81"/><polygon class="cls-6" points="5.44 56.61 5.46 63.13 34.35 79.93 34.33 73.41 5.44 56.61"/><path class="cls-7" d="M34.33,73.4l0,6.53a3.14,3.14,0,0,0,2.83,0l0-6.52a3.1,3.1,0,0,1-2.83,0"/><path class="cls-8" d="M10.3,52.07a1.3,1.3,0,0,0,0,2.46l27.49,16a4.66,4.66,0,0,0,4.24,0l43.27-25a1.3,1.3,0,0,0,0-2.46l-27.49-16a4.66,4.66,0,0,0-4.24,0Z"/><path class="cls-9" d="M66.63,30.61a1.53,1.53,0,0,1,1.41,0l9.17,5.32a.44.44,0,0,1,0,.82,1.53,1.53,0,0,1-1.41,0l-9.17-5.32a.43.43,0,0,1,0-.82"/><path class="cls-10" d="M82.14,39.62a1.56,1.56,0,0,1,1.41,0l1.41.82c.39.22.38.59,0,.82a1.56,1.56,0,0,1-1.41,0l-1.41-.82c-.39-.23-.39-.59,0-.82"/><path class="cls-11" d="M63.81,29a1.59,1.59,0,0,1,1.41,0,.43.43,0,0,1,0,.82,1.56,1.56,0,0,1-1.41,0,.43.43,0,0,1,0-.82"/><path class="cls-12" d="M61.69,27.74a1.55,1.55,0,0,1,1.42,0,.43.43,0,0,1,0,.82,1.53,1.53,0,0,1-1.41,0c-.4-.23-.4-.59,0-.82"/><path class="cls-13" d="M18.06,61.42a1.59,1.59,0,0,1,1.41,0l4.93,2.87a.43.43,0,0,1,0,.82,1.55,1.55,0,0,1-1.42,0l-4.93-2.87c-.39-.23-.39-.59,0-.82"/><path class="cls-14" d="M17.43,66,21,68a1.56,1.56,0,0,1,.7,1.22c0,.45-.32.63-.71.41l-3.54-2a1.6,1.6,0,0,1-.7-1.23c0-.44.32-.63.71-.4"/><path class="cls-15" d="M39.54,46.91a4,4,0,0,1-2-.51l-8.68-5L45,32l7.69,4.47a2.05,2.05,0,0,1,1.12,1.74,1.94,1.94,0,0,1-1.07,1.67L41.43,46.44A3.81,3.81,0,0,1,39.54,46.91Z"/><path class="cls-15" d="M31,63.31a2.47,2.47,0,0,1,1.4-2.08l12.24-7.07a5.25,5.25,0,0,1,2.6-.65,4.66,4.66,0,0,1,2.3.56L60,60.14,42,70.5a2.17,2.17,0,0,1-.41.19l-9.42-5.47A2.23,2.23,0,0,1,31,63.31Z"/><path class="cls-15" d="M53.72,52a2,2,0,0,1,1.09-1.69l7.09-4.09a3.9,3.9,0,0,1,1.87-.47l-.21-.12h-3a1.91,1.91,0,0,1-2-1.23,1.45,1.45,0,0,1,.75-1.62L69,37.24a4,4,0,0,1,1.92-.47,3.85,3.85,0,0,1,1.92.48L86,44.88a2,2,0,0,1-.7.64L62.92,58.44,54.8,53.72A2,2,0,0,1,53.72,52Z"/><path class="cls-15" d="M53.58,27.09a4.66,4.66,0,0,1,4.24,0l11.76,6.83-3.14,1.82a3.85,3.85,0,0,1-1.92.47,3.89,3.89,0,0,1-1.91-.47L51.33,29.19a2.46,2.46,0,0,1-.57-.48Z"/><path class="cls-15" d="M10.3,52.07l14.77-8.52,10.51,6.11a2.12,2.12,0,0,1,1.16,1.81,2.26,2.26,0,0,1-1.26,1.91L24.84,59.52a4.63,4.63,0,0,1-2.31.58,4.29,4.29,0,0,1-2.14-.52l-11-6.37A1.56,1.56,0,0,1,10.3,52.07Z"/><path class="cls-16" d="M26.13,37l11.35-6.55a3.19,3.19,0,0,1,2.9,0l11.84,6.88c.82.48.84,1.23.06,1.69L40.93,45.58a3.22,3.22,0,0,1-2.9,0L26.19,38.66C25.37,38.18,25.35,37.43,26.13,37Z"/><path class="cls-17" d="M37.66,32h0a2.23,2.23,0,0,1,2.24.1l6,4.74c.42.34.36.82-.15,1.12a2.37,2.37,0,0,1-1.7.16l-4.63,2.67a5.15,5.15,0,0,1,1.34.63c1.19.83,1.36,1.89.44,2.42l-.13.06a4.61,4.61,0,0,1-4.15-.62c-1.19-.83-1.37-1.88-.44-2.42l.12-.06a2.48,2.48,0,0,1,.48-.17l5.74-3.31-4.26-3.38-4.06,2.34a5,5,0,0,1,1.34.64c1.18.82,1.36,1.88.43,2.41l-.12.07A4.64,4.64,0,0,1,32,38.72c-1.19-.82-1.36-1.88-.43-2.41l.12-.07a2.46,2.46,0,0,1,.48-.16L37.47,33c-.37-.34-.3-.77.19-1.06"/><path class="cls-18" d="M6,48l10.64-6.15a3.83,3.83,0,0,1,3.44,0l15,8.71c.92.54.88,1.43-.1,2L24.34,58.66a3.79,3.79,0,0,1-3.45.05L5.9,50C5,49.47,5,48.58,6,48Z"/><path class="cls-19" d="M18.64,46.1a3.6,3.6,0,0,0-2.33-.32l-4.37.74,4.61-2.66A3.77,3.77,0,0,1,20,43.8l11.67,6.78c.92.53.86,1.43-.11,2l-6.39,3.69,1.3-2.53c.27-.53,0-1-.56-1.35a3.5,3.5,0,0,0-2.32-.33L16.19,53.3l3-5.85C19.46,46.93,19.2,46.43,18.64,46.1Z"/><path class="cls-20" d="M9.45,48c-1,.57-1,1.46-.11,2L21,56.72a3.74,3.74,0,0,0,3.43-.06l.71-.4,1.3-2.53c.27-.53,0-1-.56-1.35a3.5,3.5,0,0,0-2.32-.33L16.19,53.3l3-5.85c.27-.52,0-1-.55-1.35a3.6,3.6,0,0,0-2.33-.32l-4.37.74Z"/><ellipse class="cls-21" cx="23.1" cy="49.72" rx="2.44" ry="1.41" transform="translate(-2.5 1.24) rotate(-2.92)"/><path class="cls-22" d="M32.87,62.1,45.11,55a4.31,4.31,0,0,1,3.89-.1l16.72,9.72c1,.6,1,1.61-.18,2.26L53.31,74a4.3,4.3,0,0,1-3.9.1L32.69,64.35C31.66,63.75,31.74,62.74,32.87,62.1Z"/><polygon class="cls-23" points="48.58 57.9 60.56 64.86 49.92 71.01 37.93 64.05 48.58 57.9"/><path class="cls-24" d="M53.17,67a1.53,1.53,0,0,1-1.06.14L44,65.59c-.68-.15-.87-.66-.35-1l5.59-3.23a1.4,1.4,0,0,1,1.65.21l2.55,4.73c.15.23,0,.45-.23.6"/><path class="cls-25" d="M49.57,71.21l.35-.2,10.64-6.15.35-.2a2.35,2.35,0,0,1,2.13,0,.65.65,0,0,1,0,1.23L51.68,72.44a2.33,2.33,0,0,1-2.12,0c-.59-.34-.58-.89,0-1.23"/><path class="cls-26" d="M35.47,63l11.35-6.55a2.33,2.33,0,0,1,2.12,0c.59.34.58.89,0,1.23l-.35.2L37.93,64.05l-.35.2a2.33,2.33,0,0,1-2.12,0,.65.65,0,0,1,0-1.23"/><path class="cls-27" d="M59.88,43.68l9.64-5.57a3.16,3.16,0,0,1,2.84,0l16.91,9.83a.87.87,0,0,1,0,1.64l-7.09,4.1a3.16,3.16,0,0,1-2.84,0l-15.5-9H60.59C59.7,44.66,59.25,44,59.88,43.68Z"/><path class="cls-28" d="M55.31,51.22l7.09-4.1a3.13,3.13,0,0,1,2.83,0L82.15,57a.87.87,0,0,1,0,1.64L72.5,64.16c-.64.36-1.7.1-1.7-.41V61.87l-15.51-9A.86.86,0,0,1,55.31,51.22Z"/><path class="cls-29" d="M64.47,55.72a.43.43,0,0,0,0,.82l7.75,4.51a1.56,1.56,0,0,0,1.41,0,.43.43,0,0,0,0-.82l-7.75-4.5A1.58,1.58,0,0,0,64.47,55.72Z"/><path class="cls-30" d="M69.43,55.32a.44.44,0,0,0,0,.82l5.64,3.27a1.53,1.53,0,0,0,1.41,0c.4-.23.4-.59,0-.82l-5.64-3.27A1.53,1.53,0,0,0,69.43,55.32Z"/><path class="cls-31" d="M64.49,52.45a.43.43,0,0,0,0,.82l2.82,1.64a1.59,1.59,0,0,0,1.41,0,.43.43,0,0,0,0-.82l-2.82-1.64A1.55,1.55,0,0,0,64.49,52.45Z"/><path class="cls-32" d="M63.81,48.76c-.4.23-.39.59,0,.82L77.9,57.77a1.55,1.55,0,0,0,1.42,0,.43.43,0,0,0,0-.82L65.23,48.76A1.55,1.55,0,0,0,63.81,48.76Z"/><path class="cls-33" d="M70.93,39.75c-.39.23-.39.6,0,.82L85,48.76a1.55,1.55,0,0,0,1.42,0,.43.43,0,0,0,0-.82L72.35,39.75A1.61,1.61,0,0,0,70.93,39.75Z"/><path class="cls-34" d="M68.09,41.39a.43.43,0,0,0,0,.82L82.18,50.4a1.61,1.61,0,0,0,1.42,0,.43.43,0,0,0,0-.82L69.51,41.39A1.58,1.58,0,0,0,68.09,41.39Z"/><path class="cls-35" d="M70.19,45.9a.43.43,0,0,0,0,.81L75.83,50a1.53,1.53,0,0,0,1.41,0,.44.44,0,0,0,0-.82L71.61,45.9A1.55,1.55,0,0,0,70.19,45.9Z"/><path class="cls-36" d="M65.26,43a.43.43,0,0,0,0,.82l2.82,1.63a1.53,1.53,0,0,0,1.41,0,.43.43,0,0,0,0-.82L66.67,43A1.53,1.53,0,0,0,65.26,43Z"/><path class="cls-37" d="M66.63,30.61a1.53,1.53,0,0,1,1.41,0l3.63,2.11-1.42.82-3.63-2.11A.43.43,0,0,1,66.63,30.61Z"/><path class="cls-38" d="M51.84,26.68l11.35-6.55a3.13,3.13,0,0,1,2.83,0L77.3,26.68a.87.87,0,0,1,0,1.64L65.94,34.87a3.1,3.1,0,0,1-2.83,0L51.83,28.32A.87.87,0,0,1,51.84,26.68Z"/><path class="cls-39" d="M64.58,24.22c-1.57.91-1.58,2.38,0,3.28a6.21,6.21,0,0,0,5.66,0c1.57-.9,1.57-2.37,0-3.28A6.27,6.27,0,0,0,64.58,24.22Z"/><path class="cls-40" d="M56.08,27.5a.87.87,0,0,0,0,1.64l5.63,3.28a3.16,3.16,0,0,0,2.84,0c1.57-.91,1.58-2.37,0-3.28L61.74,27.5A6.27,6.27,0,0,0,56.08,27.5Z"/></g></svg>