<svg xmlns="http://www.w3.org/2000/svg" viewBox="0 0 64 64"><g id="_18-Heart_rate_monitor" data-name="18-Heart rate monitor"><path d="M5,24V56H59V24ZM52,53c-.33,0-4-1.5-4-4.2A1.838,1.838,0,0,1,50,47a2.067,2.067,0,0,1,2,1.5A2.067,2.067,0,0,1,54,47a1.838,1.838,0,0,1,2,1.8C56,51.5,52.67,53,52,53Z" style="fill:#f8fcff"/><path d="M63,20V60H1V20ZM59,56V24H5V56Z" style="fill:#3ab8c6"/><path d="M7,17h4V14h3V10H11V7H7v3H4v4H7ZM3,4H61a2.006,2.006,0,0,1,2,2V20H1V6A2.006,2.006,0,0,1,3,4Z" style="fill:#e6eaed"/><path d="M61,4H3A2.006,2.006,0,0,0,1,6V8A2.006,2.006,0,0,1,3,6H61a2.006,2.006,0,0,1,2,2V6A2.006,2.006,0,0,0,61,4Z" style="fill:#d5d8db"/><path d="M54,47a1.838,1.838,0,0,1,2,1.8c0,2.7-3.33,4.2-4,4.2-.33,0-4-1.5-4-4.2A1.838,1.838,0,0,1,50,47a2.067,2.067,0,0,1,2,1.5A2.067,2.067,0,0,1,54,47Z" style="fill:#e0756e"/><polygon points="14 10 14 14 11 14 11 17 7 17 7 14 4 14 4 10 7 10 7 7 11 7 11 10 14 10" style="fill:#e0756e"/><path d="M4.06,57.1l56-.2-.12-34-56,.2ZM5,39.1l-.053-15,54-.19.05,14,.063,18-54,.19Z" style="fill:#1c7580"/><path d="M52,53a6.9,6.9,0,0,1-3.112-2H23A12,12,0,0,1,11,39V24H5V56H59V51H55.182A5.754,5.754,0,0,1,52,53Z" style="fill:#e6eaed"/><path d="M43,54a3,3,0,0,1-3-3V49a3,3,0,0,1,3-3,3.015,3.015,0,0,1,3,3v2A3,3,0,0,1,43,54Zm0-6a1,1,0,0,0-1,1v2a1,1,0,0,0,2,0V49a.959.959,0,0,0-.287-.693A.977.977,0,0,0,43,48Z" style="fill:#e0756e"/><path d="M26,49h-.011a1,1,0,0,1-.926-.648L19.812,34.346,16.868,39.5A1,1,0,0,1,16,40H7a1,1,0,0,1,0-2h8.42l3.712-6.5a.987.987,0,0,1,.948-.5,1,1,0,0,1,.857.646L26.03,45.232l3.041-7.6A1,1,0,0,1,30,37h3.465l3.7-5.555A.98.98,0,0,1,38.081,31a1,1,0,0,1,.829.583l4.212,9.267,2.021-3.368A1,1,0,0,1,46,37H57a1,1,0,0,1,0,2H46.566l-2.709,4.515a1.016,1.016,0,0,1-.914.483,1,1,0,0,1-.853-.584l-4.256-9.362-3,4.5A1,1,0,0,1,34,39H30.677l-3.748,9.371A1,1,0,0,1,26,49Z" style="fill:#52575c"/><path d="M58,13H18a1,1,0,0,1,0-2H58a1,1,0,0,1,0,2Z" style="fill:#3ab8c6"/></g></svg>