<svg xmlns="http://www.w3.org/2000/svg" viewBox="0 0 64 64"><g id="_19-RIP" data-name="19-RIP"><path d="M52,54l-5,9S39.41,52.98,32,42.09c1.84-2.7,3.68-5.46,5.38-8.13l.07.04C41.44,39.81,46.25,46.5,52,54Z" style="fill:#35383b"/><path d="M24.08,12.79c1.76,3.14,4.35,7.5,7.92,13.02q-2.385,3.705-5.4,8.11C21.99,26.71,18.35,20.15,18,17c0,0,1-8,3-10C21,7,21.93,8.98,24.08,12.79Z" style="fill:#35383b"/><path d="M39.92,12.79C42.07,8.98,43,7,43,7c2,2,3,10,3,10-.35,3.15-4.01,9.73-8.62,16.96-1.7,2.67-3.54,5.43-5.38,8.13C24.59,52.97,17,63,17,63l-5-9c5.78-7.53,10.61-14.25,14.6-20.08q3.015-4.4,5.4-8.11C35.57,20.29,38.15,15.92,39.92,12.79Z" style="fill:#52575c"/><path d="M43,7s-.93,1.98-3.08,5.79C39.57,11.97,37.91,9,32,9s-7.57,2.97-7.92,3.79C21.93,8.98,21,7,21,7A13.083,13.083,0,0,1,43,7Z" style="fill:#222426"/></g></svg>