<svg xmlns="http://www.w3.org/2000/svg" viewBox="0 0 64 64"><g id="_21-Wash_hand" data-name="21-Wash hand"><path d="M49,45.8a3.155,3.155,0,0,1,.29.22L63,46V57H30.9c-2.83,0-5.76-.49-7.9-2L6,46a2.476,2.476,0,0,1-1-2,1.675,1.675,0,0,1,.91-1.52A4.383,4.383,0,0,1,8.1,42h.07a7.682,7.682,0,0,1,4.15,1.18c.71.46,1.57.96,2.5,1.46C18.79,46.79,24,49,24,49h3.16a2.823,2.823,0,0,1-3.06-2.5,2.275,2.275,0,0,1,.9-1.77A3.429,3.429,0,0,1,27.16,44H43.32A9.584,9.584,0,0,1,49,45.8Z" style="fill:#fce2d1"/><path d="M59,16a4,4,0,1,1-2,7.46l-.04-.01A2.282,2.282,0,0,0,57,23a2.979,2.979,0,0,0-2.06-2.84L55,20A4,4,0,0,1,59,16Z" style="fill:#c1f6fa"/><path d="M57,23a2.282,2.282,0,0,1-.04.45A3,3,0,1,1,54,20a2.653,2.653,0,0,1,.94.16A2.979,2.979,0,0,1,57,23Z" style="fill:#c1f6fa"/><circle cx="51" cy="15" r="2" style="fill:#c1f6fa"/><path d="M50,42.32A5.145,5.145,0,0,1,49,45v.8A9.584,9.584,0,0,0,43.32,44H27.16a3.429,3.429,0,0,0-2.16.73,2.275,2.275,0,0,0-.9,1.77A2.823,2.823,0,0,0,27.16,49H24s-5.21-2.21-9.18-4.36A7.185,7.185,0,0,1,14,42c0-2.36,1.71-4.05,4.08-4.77A3.549,3.549,0,0,1,18,36.5a4.285,4.285,0,0,1,4.5-4.03,4.811,4.811,0,0,1,2.6.76A6.822,6.822,0,0,1,32,28a6.9,6.9,0,0,1,6.76,4.67,4.182,4.182,0,0,1,1.24-.2,3.812,3.812,0,0,1,4,3.58,3.32,3.32,0,0,1-.14.9H44C47.31,36.95,50,39.35,50,42.32Z" style="fill:#e1fdff"/><path d="M39,17c0,3.98-3.13,6-7,6s-7-2.02-7-6S30.25,5,32,5,39,13.02,39,17Z" style="fill:#7ae2ff"/><circle cx="16" cy="15" r="3" style="fill:#c1f6fa"/><path d="M10,28a3,3,0,1,1-2.96,3.45A2.282,2.282,0,0,1,7,31a2.979,2.979,0,0,1,2.06-2.84A2.653,2.653,0,0,1,10,28Z" style="fill:#c1f6fa"/><path d="M9,28l.06.16A2.979,2.979,0,0,0,7,31a2.282,2.282,0,0,0,.04.45L7,31.46A4,4,0,1,1,9,28Z" style="fill:#c1f6fa"/><path d="M42,47H26a2,2,0,0,1-1.792-1.127,2.094,2.094,0,0,0-.108.627A2.823,2.823,0,0,0,27.16,49H44A2,2,0,0,0,42,47Z" style="fill:#f5c8ab"/><path d="M30.9,54c-2.83,0-5.76-.49-7.9-2L6,43a2.449,2.449,0,0,1-.349-.332A1.627,1.627,0,0,0,5,44a2.476,2.476,0,0,0,1,2l17,9c2.14,1.51,5.07,2,7.9,2H63V54H30.9Z" style="fill:#fcd3b8"/><path d="M49.29,46.02A3.155,3.155,0,0,0,49,45.8c-.078-.058-.162-.109-.243-.164L49,46a5,5,0,0,0,5,5h9V46Z" style="fill:#ffeade"/><path d="M32,42a6,6,0,0,1,6-6c.11,0,.217.011.325.016a6.989,6.989,0,0,0-12.65,0c.108,0,.215-.016.325-.016A6,6,0,0,1,32,42Z" style="fill:#c1f6fa"/><path d="M31.651,44h.7A5.971,5.971,0,0,1,32,42,5.971,5.971,0,0,1,31.651,44Z" style="fill:#c1f6fa"/><path d="M36.894,44h.915a5.927,5.927,0,0,1,6.113-2.922,5.992,5.992,0,0,0-5.6-5.062A6.969,6.969,0,0,1,36.894,44Z" style="fill:#c1f6fa"/><path d="M32,42a5.971,5.971,0,0,0,.349,2h4.545a6.969,6.969,0,0,0,1.431-7.984c-.108,0-.215-.016-.325-.016A6,6,0,0,0,32,42Z" style="fill:#bbeef2"/><path d="M26.265,44.122A3.65,3.65,0,0,1,27.11,44a6.969,6.969,0,0,1-1.435-7.988,5.992,5.992,0,0,0-5.6,5.062,5.937,5.937,0,0,1,6.187,3.044Z" style="fill:#c1f6fa"/><path d="M27.11,44c.017,0,.033,0,.05,0h4.491A5.986,5.986,0,0,0,26,36c-.11,0-.217.011-.325.016A6.969,6.969,0,0,0,27.11,44Z" style="fill:#bbeef2"/><path d="M24.572,47.822a5.944,5.944,0,0,1-4.494-6.744,6,6,0,0,0-4.7,3.856C19.257,46.987,24,49,24,49h2.651l.015-.041A3.147,3.147,0,0,1,24.572,47.822Z" style="fill:#b3e4e8"/><path d="M24.572,47.822A2.161,2.161,0,0,1,24.1,46.5a2.275,2.275,0,0,1,.9-1.77,3.233,3.233,0,0,1,1.265-.608,5.937,5.937,0,0,0-6.187-3.044,5.944,5.944,0,0,0,4.494,6.744Z" style="fill:#bbeef2"/><path d="M43.922,41.078a5.777,5.777,0,0,1-.275,2.935A9.555,9.555,0,0,1,48.855,45.7,6,6,0,0,0,43.922,41.078Z" style="fill:#b3e4e8"/><path d="M37.809,44H43.32c.11,0,.218.009.327.013a5.777,5.777,0,0,0,.275-2.935A5.927,5.927,0,0,0,37.809,44Z" style="fill:#bbeef2"/><path d="M31.637,33.467a.98.98,0,0,1,.3,1.064,1.278,1.278,0,0,1-.3.365,15.748,15.748,0,0,1-2.1,1.744,1.928,1.928,0,0,1-.794.355.374.374,0,0,1-.191-.013.417.417,0,0,1-.145-.113A1.9,1.9,0,0,1,28,35.561a2.765,2.765,0,0,1,.611-1.706A2.157,2.157,0,0,1,31.637,33.467Z" style="fill:#fff"/><path d="M45.7,43.233a1.007,1.007,0,0,1-.985-.539,1.243,1.243,0,0,1-.049-.466,15.472,15.472,0,0,1,.255-2.706,1.9,1.9,0,0,1,.317-.809.378.378,0,0,1,.147-.125.432.432,0,0,1,.186-.023,1.957,1.957,0,0,1,1.242.632,2.726,2.726,0,0,1,.789,1.631A2.16,2.16,0,0,1,45.7,43.233Z" style="fill:#fff"/><path d="M20.41,39.481a1,1,0,0,1,.315,1.077,1.248,1.248,0,0,1-.3.364,15.378,15.378,0,0,1-2.094,1.733,1.9,1.9,0,0,1-.8.348.4.4,0,0,1-.193-.015.442.442,0,0,1-.147-.116,1.952,1.952,0,0,1-.431-1.324,2.727,2.727,0,0,1,.6-1.712A2.16,2.16,0,0,1,20.41,39.481Z" style="fill:#fff"/><path d="M22.846,35.1a2.021,2.021,0,0,1-.809-.2.636.636,0,0,1-.422-.572.787.787,0,0,1,.439-.578,1.639,1.639,0,0,1,.714-.156,1.844,1.844,0,0,1,.762.1.736.736,0,0,1,.461.527C24.11,34.867,23.357,35.123,22.846,35.1Z" style="fill:#fff"/><path d="M21.846,43.1a2.021,2.021,0,0,1-.809-.2.636.636,0,0,1-.422-.572.787.787,0,0,1,.439-.578,1.639,1.639,0,0,1,.714-.156,1.844,1.844,0,0,1,.762.1.736.736,0,0,1,.461.527C23.11,42.867,22.357,43.123,21.846,43.1Z" style="fill:#fff"/><path d="M39.733,38.786a2,2,0,0,1-.565-.613.887.887,0,0,1-.115-.8A.661.661,0,0,1,39.625,37a1.17,1.17,0,0,1,.627.2,1.659,1.659,0,0,1,.565.487,1.017,1.017,0,0,1,.163.771C40.826,39.177,40.13,39.064,39.733,38.786Z" style="fill:#fff"/><path d="M55.019,20.19A2.969,2.969,0,0,0,54,20a3,3,0,1,0,2.957,3.422A3.978,3.978,0,0,1,55.019,20.19Z" style="fill:#c1f6fa"/><path d="M59,16a4,4,0,0,0-4,4c0,.065.016.125.019.19A2.991,2.991,0,0,1,57,23a2.929,2.929,0,0,1-.043.422A3.994,3.994,0,1,0,59,16Z" style="fill:#e1fdff"/><path d="M55.019,20.19a3.978,3.978,0,0,0,1.938,3.232A2.929,2.929,0,0,0,57,23,2.991,2.991,0,0,0,55.019,20.19Z" style="fill:#b3e4e8"/><path d="M10,28a2.969,2.969,0,0,0-1.019.19,3.978,3.978,0,0,1-1.938,3.232A2.994,2.994,0,1,0,10,28Z" style="fill:#c1f6fa"/><path d="M8.981,28.19c0-.065.019-.125.019-.19a4.04,4.04,0,1,0-1.957,3.422A2.929,2.929,0,0,1,7,31,2.991,2.991,0,0,1,8.981,28.19Z" style="fill:#e1fdff"/><path d="M8.981,28.19A2.991,2.991,0,0,0,7,31a2.929,2.929,0,0,0,.043.422A3.978,3.978,0,0,0,8.981,28.19Z" style="fill:#b3e4e8"/><path d="M7.3,28.635a1.008,1.008,0,0,1-1.077.316,1.242,1.242,0,0,1-.365-.3,15.505,15.505,0,0,1-1.733-2.093,1.91,1.91,0,0,1-.348-.8.383.383,0,0,1,.016-.193.424.424,0,0,1,.116-.148,1.952,1.952,0,0,1,1.324-.431,2.737,2.737,0,0,1,1.712.595A2.161,2.161,0,0,1,7.3,28.635Z" style="fill:#fff"/><path d="M61.3,20.635a1.008,1.008,0,0,1-1.077.316,1.242,1.242,0,0,1-.365-.3,15.505,15.505,0,0,1-1.733-2.093,1.91,1.91,0,0,1-.348-.8.383.383,0,0,1,.016-.193.424.424,0,0,1,.116-.148,1.952,1.952,0,0,1,1.324-.431,2.737,2.737,0,0,1,1.712.595A2.161,2.161,0,0,1,61.3,20.635Z" style="fill:#fff"/><path d="M29,16c0-4,3-11,3-11-1.75,0-7,8.02-7,12s3.13,6,7,6,7-2.02,7-6C39,21,29,21,29,16Z" style="fill:#24cfff"/><path d="M36.071,20.747c-.272.007-.513-.13-.476-.414a1.281,1.281,0,0,1,.131-.36,19.37,19.37,0,0,1,1.124-2.084,2.842,2.842,0,0,1,.5-.624.532.532,0,0,1,.144-.1.308.308,0,0,1,.134-.018.712.712,0,0,1,.617.487A1.75,1.75,0,0,1,38.2,18.9,2.937,2.937,0,0,1,36.071,20.747Z" style="fill:#d4fbff"/><polygon points="36 15 33 15 33 12 31 12 31 15 28 15 28 17 31 17 31 20 33 20 33 17 36 17 36 15" style="fill:#fff"/><path d="M36.592,14.265a1.948,1.948,0,0,0-.085.686,1.033,1.033,0,0,0,.668,1.02.468.468,0,0,0,.391-.066c.342-.27.172-1.1-.019-1.417a.944.944,0,0,0-.638-.464A.318.318,0,0,0,36.592,14.265Z" style="fill:#d4fbff"/></g></svg>