<svg xmlns="http://www.w3.org/2000/svg" viewBox="0 0 64 64"><g id="_07-Do_not_rally" data-name="07-Do not rally"><circle cx="21" cy="21" r="3" style="fill:#f5b662"/><path d="M26,29v2a1,1,0,0,1-1,1H17a1,1,0,0,1-1-1V29a5,5,0,0,1,10,0Z" style="fill:#f5b662"/><circle cx="7" cy="21" r="3" style="fill:#42d1e0"/><path d="M26,12v2a1,1,0,0,1-1,1H17a1,1,0,0,1-1-1V12a5,5,0,0,1,10,0Z" style="fill:#42d1e0"/><circle cx="21" cy="4" r="3" style="fill:#42d1e0"/><path d="M12,12v2a1,1,0,0,1-1,1H3a1,1,0,0,1-1-1V12a5,5,0,0,1,10,0Z" style="fill:#42d1e0"/><path d="M12,29v2a1,1,0,0,1-1,1H3a1,1,0,0,1-1-1V29a5,5,0,0,1,10,0Z" style="fill:#42d1e0"/><circle cx="7" cy="4" r="3" style="fill:#42d1e0"/><path d="M12,46v2a1,1,0,0,1-1,1H3a1,1,0,0,1-1-1V46a5,5,0,0,1,10,0Z" style="fill:#42d1e0"/><circle cx="7" cy="38" r="3" style="fill:#42d1e0"/><path d="M26,46v2a1,1,0,0,1-1,1H17a1,1,0,0,1-1-1V46a5,5,0,0,1,10,0Z" style="fill:#42d1e0"/><circle cx="21" cy="38" r="3" style="fill:#42d1e0"/><circle cx="35" cy="21" r="3" style="fill:#42d1e0"/><path d="M40,29v2a1,1,0,0,1-1,1H31a1,1,0,0,1-1-1V29a5,5,0,0,1,10,0Z" style="fill:#42d1e0"/><circle cx="35" cy="4" r="3" style="fill:#42d1e0"/><path d="M40,12v2a1,1,0,0,1-1,1H31a1,1,0,0,1-1-1V12a5,5,0,0,1,10,0Z" style="fill:#42d1e0"/><path d="M34,4a2.986,2.986,0,0,1,2-2.817,3,3,0,1,0,0,5.634A2.986,2.986,0,0,1,34,4Z" style="fill:#30a1ad"/><path d="M32,14V12a5,5,0,0,1,4-4.9A5,5,0,0,0,30,12v2a1,1,0,0,0,1,1h2A1,1,0,0,1,32,14Z" style="fill:#30a1ad"/><path d="M20,4a2.986,2.986,0,0,1,2-2.817,3,3,0,1,0,0,5.634A2.986,2.986,0,0,1,20,4Z" style="fill:#30a1ad"/><path d="M18,14V12a5,5,0,0,1,4-4.9A5,5,0,0,0,16,12v2a1,1,0,0,0,1,1h2A1,1,0,0,1,18,14Z" style="fill:#30a1ad"/><path d="M6,4A2.986,2.986,0,0,1,8,1.183,3,3,0,1,0,8,6.817,2.986,2.986,0,0,1,6,4Z" style="fill:#30a1ad"/><path d="M4,14V12A5,5,0,0,1,8,7.1,5,5,0,0,0,2,12v2a1,1,0,0,0,1,1H5A1,1,0,0,1,4,14Z" style="fill:#30a1ad"/><path d="M34,21a2.986,2.986,0,0,1,2-2.817,3,3,0,1,0,0,5.634A2.986,2.986,0,0,1,34,21Z" style="fill:#30a1ad"/><path d="M32,31V29a5,5,0,0,1,4-4.9A5,5,0,0,0,30,29v2a1,1,0,0,0,1,1h2A1,1,0,0,1,32,31Z" style="fill:#30a1ad"/><path d="M20,21a2.986,2.986,0,0,1,2-2.817,3,3,0,1,0,0,5.634A2.986,2.986,0,0,1,20,21Z" style="fill:#d28e43"/><path d="M18,31V29a5,5,0,0,1,4-4.9A5,5,0,0,0,16,29v2a1,1,0,0,0,1,1h2A1,1,0,0,1,18,31Z" style="fill:#d28e43"/><path d="M6,21a2.986,2.986,0,0,1,2-2.817,3,3,0,1,0,0,5.634A2.986,2.986,0,0,1,6,21Z" style="fill:#30a1ad"/><path d="M4,31V29a5,5,0,0,1,4-4.9A5,5,0,0,0,2,29v2a1,1,0,0,0,1,1H5A1,1,0,0,1,4,31Z" style="fill:#30a1ad"/><path d="M20,38a2.986,2.986,0,0,1,2-2.817,3,3,0,1,0,0,5.634A2.986,2.986,0,0,1,20,38Z" style="fill:#30a1ad"/><path d="M18,48V46a5,5,0,0,1,4-4.9A5,5,0,0,0,16,46v2a1,1,0,0,0,1,1h2A1,1,0,0,1,18,48Z" style="fill:#30a1ad"/><path d="M6,38a2.986,2.986,0,0,1,2-2.817,3,3,0,1,0,0,5.634A2.986,2.986,0,0,1,6,38Z" style="fill:#30a1ad"/><path d="M4,48V46a5,5,0,0,1,4-4.9A5,5,0,0,0,2,46v2a1,1,0,0,0,1,1H5A1,1,0,0,1,4,48Z" style="fill:#30a1ad"/><circle cx="21" cy="21" r="3" style="fill:#f5b662"/><path d="M26,29v2a1,1,0,0,1-1,1H17a1,1,0,0,1-1-1V29a5,5,0,0,1,10,0Z" style="fill:#f5b662"/><circle cx="7" cy="21" r="3" style="fill:#42d1e0"/><path d="M26,12v2a1,1,0,0,1-1,1H17a1,1,0,0,1-1-1V12a5,5,0,0,1,10,0Z" style="fill:#42d1e0"/><circle cx="21" cy="4" r="3" style="fill:#42d1e0"/><path d="M12,12v2a1,1,0,0,1-1,1H3a1,1,0,0,1-1-1V12a5,5,0,0,1,10,0Z" style="fill:#42d1e0"/><path d="M12,29v2a1,1,0,0,1-1,1H3a1,1,0,0,1-1-1V29a5,5,0,0,1,10,0Z" style="fill:#42d1e0"/><circle cx="7" cy="4" r="3" style="fill:#42d1e0"/><path d="M12,46v2a1,1,0,0,1-1,1H3a1,1,0,0,1-1-1V46a5,5,0,0,1,10,0Z" style="fill:#42d1e0"/><circle cx="7" cy="38" r="3" style="fill:#42d1e0"/><path d="M26,46v2a1,1,0,0,1-1,1H17a1,1,0,0,1-1-1V46a5,5,0,0,1,10,0Z" style="fill:#42d1e0"/><circle cx="21" cy="38" r="3" style="fill:#42d1e0"/><circle cx="35" cy="21" r="3" style="fill:#42d1e0"/><path d="M40,29v2a1,1,0,0,1-1,1H31a1,1,0,0,1-1-1V29a5,5,0,0,1,10,0Z" style="fill:#42d1e0"/><circle cx="35" cy="4" r="3" style="fill:#42d1e0"/><path d="M40,12v2a1,1,0,0,1-1,1H31a1,1,0,0,1-1-1V12a5,5,0,0,1,10,0Z" style="fill:#42d1e0"/><path d="M34,4a2.986,2.986,0,0,1,2-2.817,3,3,0,1,0,0,5.634A2.986,2.986,0,0,1,34,4Z" style="fill:#30a1ad"/><path d="M32,14V12a5,5,0,0,1,4-4.9A5,5,0,0,0,30,12v2a1,1,0,0,0,1,1h2A1,1,0,0,1,32,14Z" style="fill:#30a1ad"/><path d="M20,4a2.986,2.986,0,0,1,2-2.817,3,3,0,1,0,0,5.634A2.986,2.986,0,0,1,20,4Z" style="fill:#30a1ad"/><path d="M18,14V12a5,5,0,0,1,4-4.9A5,5,0,0,0,16,12v2a1,1,0,0,0,1,1h2A1,1,0,0,1,18,14Z" style="fill:#30a1ad"/><path d="M6,4A2.986,2.986,0,0,1,8,1.183,3,3,0,1,0,8,6.817,2.986,2.986,0,0,1,6,4Z" style="fill:#30a1ad"/><path d="M4,14V12A5,5,0,0,1,8,7.1,5,5,0,0,0,2,12v2a1,1,0,0,0,1,1H5A1,1,0,0,1,4,14Z" style="fill:#30a1ad"/><path d="M34,21a2.986,2.986,0,0,1,2-2.817,3,3,0,1,0,0,5.634A2.986,2.986,0,0,1,34,21Z" style="fill:#30a1ad"/><path d="M32,31V29a5,5,0,0,1,4-4.9A5,5,0,0,0,30,29v2a1,1,0,0,0,1,1h2A1,1,0,0,1,32,31Z" style="fill:#30a1ad"/><path d="M20,21a2.986,2.986,0,0,1,2-2.817,3,3,0,1,0,0,5.634A2.986,2.986,0,0,1,20,21Z" style="fill:#d28e43"/><path d="M18,31V29a5,5,0,0,1,4-4.9A5,5,0,0,0,16,29v2a1,1,0,0,0,1,1h2A1,1,0,0,1,18,31Z" style="fill:#d28e43"/><path d="M6,21a2.986,2.986,0,0,1,2-2.817,3,3,0,1,0,0,5.634A2.986,2.986,0,0,1,6,21Z" style="fill:#30a1ad"/><path d="M4,31V29a5,5,0,0,1,4-4.9A5,5,0,0,0,2,29v2a1,1,0,0,0,1,1H5A1,1,0,0,1,4,31Z" style="fill:#30a1ad"/><path d="M20,38a2.986,2.986,0,0,1,2-2.817,3,3,0,1,0,0,5.634A2.986,2.986,0,0,1,20,38Z" style="fill:#30a1ad"/><path d="M18,48V46a5,5,0,0,1,4-4.9A5,5,0,0,0,16,46v2a1,1,0,0,0,1,1h2A1,1,0,0,1,18,48Z" style="fill:#30a1ad"/><path d="M6,38a2.986,2.986,0,0,1,2-2.817,3,3,0,1,0,0,5.634A2.986,2.986,0,0,1,6,38Z" style="fill:#30a1ad"/><path d="M4,48V46a5,5,0,0,1,4-4.9A5,5,0,0,0,2,46v2a1,1,0,0,0,1,1H5A1,1,0,0,1,4,48Z" style="fill:#30a1ad"/><path d="M46,31A16,16,0,1,1,30,47,16,16,0,0,1,46,31ZM58,47a11.947,11.947,0,0,0-2.23-6.95L48.83,47l6.94,6.95A11.947,11.947,0,0,0,58,47ZM46,44.17l6.95-6.94a11.945,11.945,0,0,0-13.9,0Zm6.95,12.6L46,49.83l-6.95,6.94a11.945,11.945,0,0,0,13.9,0ZM43.17,47l-6.94-6.95a11.937,11.937,0,0,0-.57,13.02c.18.3.37.6.57.88l.95-.95Z" style="fill:#c2534c"/><path d="M35.284,58a2,2,0,0,1-1.532-.713,15.978,15.978,0,0,1,0-20.574,2,2,0,1,1,3.062,2.574,11.977,11.977,0,0,0,0,15.426A2,2,0,0,1,35.284,58Z" style="fill:#d4665f"/><path d="M56.716,58a2,2,0,0,1-1.53-3.287,11.977,11.977,0,0,0,0-15.426,2,2,0,0,1,3.062-2.574,15.978,15.978,0,0,1,0,20.574A2,2,0,0,1,56.716,58Z" style="fill:#d4665f"/></g></svg>