<svg xmlns="http://www.w3.org/2000/svg" viewBox="0 0 64 64"><g id="_10-Do_not_touch_mouth" data-name="10-Do not touch mouth"><path d="M6.01,17c.43.01,12.33.24,15.8-1.88C23.32,16.9,26.89,18,32,18h2c5.11,0,8.68-1.1,10.19-2.88,3.47,2.12,15.37,1.89,15.8,1.88.01.1.01.2.01.3a3.423,3.423,0,0,1-.28,1.34A23.936,23.936,0,0,1,40.95,32.7a37.845,37.845,0,0,1-4.83.3H29.88a37.845,37.845,0,0,1-4.83-.3,23.522,23.522,0,0,1-11.21-4.57,24.156,24.156,0,0,1-7.56-9.49A3.423,3.423,0,0,1,6,17.3C6,17.2,6,17.1,6.01,17Z" style="fill:#fa997d"/><path d="M13.84,23.13A23.522,23.522,0,0,0,25.05,27.7a37.845,37.845,0,0,0,4.83.3h6.24a37.845,37.845,0,0,0,4.83-.3A23.831,23.831,0,0,0,57.872,17.009C54.2,16.98,46.8,16.717,44.19,15.12,42.68,16.9,39.11,18,34,18H32c-5.11,0-8.68-1.1-10.19-2.88C19.2,16.717,11.8,16.98,8.128,17.009A24.093,24.093,0,0,0,13.84,23.13Z" style="fill:#faa68e"/><path d="M21.81,15.12C18.34,17.24,6.44,17.01,6.01,17a3.475,3.475,0,0,1,.77-1.83C8.26,13.37,10.31,9.89,11,9c1.15-1.49,4.5-8,13.69-8h1.04C28.98,1,30.92,3,33,5c2.08-2,4.02-4,7.27-4h1.04C50.5,1,53.85,7.51,55,9c.69.89,2.74,4.37,4.22,6.17A3.475,3.475,0,0,1,59.99,17c-.43.01-12.33.24-15.8-1.88C42.68,16.9,39.11,18,34,18H32C26.89,18,23.32,16.9,21.81,15.12Z" style="fill:#ffbeaa"/><path d="M24.69,6h1.04c2.555,0,4.3,1.236,5.94,2.736a1.976,1.976,0,0,0,2.66,0C35.97,7.236,37.715,6,40.27,6h1.04C50.5,6,55.85,12.51,57,14c.37.478,1.133,1.7,1.988,3.011.571,0,.933-.009,1-.011a3.475,3.475,0,0,0-.77-1.83C57.74,13.37,55.69,9.89,55,9c-1.15-1.49-4.5-8-13.69-8H40.27C37.02,1,35.08,3,33,5c-2.08-2-4.02-4-7.27-4H24.69C15.5,1,12.15,7.51,11,9c-.69.89-2.74,4.37-4.22,6.17A3.475,3.475,0,0,0,6.01,17c.069,0,.431.009,1,.011C7.867,15.7,8.63,14.478,9,14,10.15,12.51,15.5,6,24.69,6Z" style="fill:#ffdecf"/><path d="M6.383,15.791A3.4,3.4,0,0,0,6.01,17c.43.01,12.33.24,15.8-1.88l-.016-.019a3.486,3.486,0,0,0-3.571-1.257A65.816,65.816,0,0,1,6.383,15.791Z" style="fill:#f79377"/><path d="M44.19,15.12c3.47,2.12,15.37,1.89,15.8,1.88A3.414,3.414,0,0,0,59.721,16c-3.34-.069-8.649-1.341-11.9-2.2a3.451,3.451,0,0,0-3.575,1.257Z" style="fill:#f79377"/><ellipse cx="47.34" cy="23.102" rx="0.825" ry="1.148" transform="translate(-2.464 40.258) rotate(-45.02)" style="fill:#f6fafd"/><ellipse cx="50.798" cy="21.089" rx="1.642" ry="2.286" transform="translate(-0.026 42.114) rotate(-45.02)" style="fill:#f6fafd"/><path d="M26,44c0-4,4-4,4-4V51c0,6-4,6-4,6v6H4V59c-2-3-2-5-2-5V38a3,3,0,0,1,6,0V37a3,3,0,0,1,6,0V35a3,3,0,0,1,6,0V26a3,3,0,0,1,6,0Z" style="fill:#f5c8ab"/><path d="M5.443,53.107h0A6.183,6.183,0,0,1,5,50.807V37a1.994,1.994,0,0,0-1.111-1.783A2.992,2.992,0,0,0,2,38V54s0,2,2,5v4H26V57H11.193A6.192,6.192,0,0,1,5.443,53.107Z" style="fill:#e8ae8b"/><path d="M21,44a2,2,0,0,0,2-2V25a1.993,1.993,0,0,0-1.108-1.781A2.984,2.984,0,0,0,20,26V44Z" style="fill:#e8ae8b"/><path d="M15,44a2,2,0,0,0,2-2V34a1.993,1.993,0,0,0-1.108-1.781A2.984,2.984,0,0,0,14,35v9Z" style="fill:#e8ae8b"/><path d="M28,49V40.5A3.6,3.6,0,0,0,26,44v7A2,2,0,0,0,28,49Z" style="fill:#e8ae8b"/><path d="M9,44a2,2,0,0,0,2-2V36a1.993,1.993,0,0,0-1.108-1.781A2.984,2.984,0,0,0,8,37v7Z" style="fill:#e8ae8b"/><path d="M23,28a2,2,0,0,0,2-2V23.776a2.958,2.958,0,0,0-4,0V26A2,2,0,0,0,23,28Z" style="fill:#ffe5d4"/><path d="M51.66,45.34A8,8,0,1,0,54,51,8.014,8.014,0,0,0,51.66,45.34Z" style="fill:#f8fcff"/><path d="M46,39a12,12,0,0,1,0,24H33l4.04-4.04A11.984,11.984,0,0,1,46,39Zm8,12a8,8,0,1,0-8,8A8.014,8.014,0,0,0,54,51Z" style="fill:#e6eaed"/><path d="M46,42a9,9,0,1,0,9,9A9.011,9.011,0,0,0,46,42Zm0,2a6.953,6.953,0,0,1,4.184,1.4L40.4,55.184A6.986,6.986,0,0,1,46,44Zm0,14a6.953,6.953,0,0,1-4.184-1.4L51.6,46.816A6.986,6.986,0,0,1,46,58Z" style="fill:#c2534c"/></g></svg>