<svg xmlns="http://www.w3.org/2000/svg" viewBox="0 0 64 64"><g id="_25-Muscle" data-name="25-Muscle"><polygon points="11 4 11 8 8 8 8 11 4 11 4 8 1 8 1 4 4 4 4 1 8 1 8 4 11 4" style="fill:#7ae2ff"/><polygon points="63 18 63 24 59 24 59 28 53 28 53 24 49 24 49 18 53 18 53 14 59 14 59 18 63 18" style="fill:#7ae2ff"/><path d="M47,53l2.4,3H49s-3.77,5.66-14.99,5.98c1.96-3.89,6.86-6.52,10.04-7.88C45.78,53.37,47,53,47,53Z" style="fill:#edbd9f"/><path d="M49.4,56,47,53H58.83c.18.15.38.29.57.43L63,56v7H55Z" style="fill:#e8ae8b"/><path d="M58.83,53H47s.96-7.68,4.76-9.87l2.26,4.19A17.892,17.892,0,0,0,58.83,53Z" style="fill:#e8ae8b"/><path d="M20,46h6a12.288,12.288,0,0,0,1.7,2H18l1.84-2.14Z" style="fill:#e8ae8b"/><path d="M24,41h5.84A24.4,24.4,0,0,0,26,46H20l-.16-.14Z" style="fill:#edbd9f"/><path d="M41.5,13A1.5,1.5,0,0,0,43,11.5v-1A1.5,1.5,0,0,0,44.5,12a1.443,1.443,0,0,0,.77-.22A2.414,2.414,0,0,1,46,13.5v.07A2.424,2.424,0,0,1,43.57,16a2.388,2.388,0,0,1-1.08-.26L39,14l-.03-.09C39.76,13.44,40,13,40,12.5v-1A1.5,1.5,0,0,0,41.5,13Z" style="fill:#e8ae8b"/><path d="M43,11.5a1.5,1.5,0,0,1-3,0v1c0,.5-.24.94-1.03,1.41a1.267,1.267,0,0,1-.47.09A1.5,1.5,0,0,1,37,12.5v1a1.5,1.5,0,0,1-3,0V13H32l-.37.73A2.277,2.277,0,0,1,29.58,15H28c-2-1-4-4-4-4L23,9l2-4s5-4,10-4h7l4,5v4.5c0,.26-.07.51-.73,1.28a1.443,1.443,0,0,1-.77.22A1.5,1.5,0,0,1,43,10.5v1Z" style="fill:#fcd9c2"/><path d="M44.05,54.1c-3.18,1.36-8.08,3.99-10.04,7.88-.33.02-.67.02-1.01.02-12,0-11-2-17-2,0,0-8,0-10-3l-1.86-.74A5,5,0,0,1,1,51.61V50.47a3.542,3.542,0,0,1,1.04-2.51,3.478,3.478,0,0,0,1.02-2.2A36.378,36.378,0,0,1,12,25s6-9,7-12c0,0,1-4,4-4l1,2s2,3,4,4L24,27V41l-4.16,4.86L18,48h9.7c2.41,2.37,7.54,6,16.3,6Z" style="fill:#f5c8ab"/><path d="M29.84,41c2.07-2.07,4.88-4,8.16-4,4,0,5,1,5,1h3.61a4,4,0,0,1,3.52,2.1l1.63,3.03C47.96,45.32,47,53,47,53s-1.22.37-2.95,1.1L44,54c-8.76,0-13.89-3.63-16.3-6A12.288,12.288,0,0,1,26,46,24.4,24.4,0,0,1,29.84,41Z" style="fill:#fcd9c2"/><path d="M58.83,53a17.892,17.892,0,0,1-4.81-5.68l-2.26-4.19L50.13,40.1A4,4,0,0,0,46.61,38H43l3.2-2.4A18,18,0,0,1,57,32h6V56l-3.6-2.57C59.21,53.29,59.01,53.15,58.83,53Z" style="fill:#fcd9c2"/><path d="M29.162,9.628a1.978,1.978,0,0,1-3.279-.069A5.462,5.462,0,0,1,25,5L23,9l1,2s2,3,4,4h1.58a2.277,2.277,0,0,0,2.05-1.27L32,13h2L30,8A7.014,7.014,0,0,1,29.162,9.628Z" style="fill:#edbd9f"/><path d="M40,9a2.379,2.379,0,0,1-.086.66,1.522,1.522,0,0,1-2.643.428L34,6H33l4,5v1.5A1.5,1.5,0,0,0,38.5,14a1.267,1.267,0,0,0,.47-.09C39.76,13.44,40,13,40,12.5V9Z" style="fill:#f5c8ab"/><path d="M37,11c-1,2-3,0-3,0L31,8H30l4,5v.5a1.5,1.5,0,0,0,3,0V11Z" style="fill:#f5c8ab"/><path d="M43,8s0,.782-1.382.963a1.033,1.033,0,0,1-.951-.407L38,5H37l3,4v2.5a1.5,1.5,0,0,0,3,0V8Z" style="fill:#f5c8ab"/><path d="M44,7,41,4H40l3,4v2.5A1.5,1.5,0,0,0,44.5,12a1.443,1.443,0,0,0,.77-.22c.66-.77.73-1.02.73-1.28V6C46,8,44,7,44,7Z" style="fill:#f5c8ab"/><path d="M19.84,45.86,24,41V27s-6,15-6,21Z" style="fill:#f5c8ab"/><path d="M7,55c4,0,10-3,11-7,0-6,6-21,6-21l4-12c-2-1-4-4-4-4L23,9c-3,0-4,4-4,4-1,3-7,12-7,12A36.378,36.378,0,0,0,3.06,45.76a3.378,3.378,0,0,1-.06.36V47S3,55,7,55Z" style="fill:#fcd9c2"/><path d="M24,11,23,9c-2.189,0-3.31,2.126-3.758,3.277a13.483,13.483,0,0,0,8.43,3.706L28,15C26,14,24,11,24,11Z" style="fill:#f5c8ab"/><path d="M50.13,40.1A4,4,0,0,0,46.61,38H43a31.116,31.116,0,0,0,3.672,4.061,2.968,2.968,0,0,1,.934,2.96C47.02,47.391,45.687,51,43,51c0,0-11.735-.005-15.862-6.779A21.092,21.092,0,0,0,26,46a12.288,12.288,0,0,0,1.7,2c2.41,2.37,7.54,6,16.3,6l.05.1C45.78,53.37,47,53,47,53s.96-7.68,4.76-9.87Z" style="fill:#edbd9f"/><path d="M59.715,56.286,63,57.6V56l-3.6-2.57c-.19-.14-.39-.28-.57-.43H47l2.4,3h8.83A4,4,0,0,1,59.715,56.286Z" style="fill:#d69c7a"/><path d="M55.393,41.035A5.958,5.958,0,0,0,50.179,38H46.61a4,4,0,0,1,3.52,2.1l1.63,3.03,2.26,4.19A17.892,17.892,0,0,0,58.83,53c.18.15.38.29.57.43L63,56V47.79C59.262,46.8,56.784,43.53,55.393,41.035Z" style="fill:#f5c8ab"/></g></svg>