<svg xmlns="http://www.w3.org/2000/svg" viewBox="0 0 64 64"><g id="_24-Virus" data-name="24-Virus"><path d="M46,30.62v2.76a1.681,1.681,0,0,1-3.35.12L40,33V31l2.65-.5a1.681,1.681,0,0,1,3.35.12Z" style="fill:#30a1ad"/><path d="M51.11,30.7,56,30c0-1.42.9-2.5,2.16-1.76A2.023,2.023,0,0,1,59,29.99v4.02a2.023,2.023,0,0,1-.84,1.75C56.9,36.5,56,35.42,56,34l-4.89-.7L49,33V31Z" style="fill:#2494a1"/><path d="M55.36,23.12a1.635,1.635,0,0,1-.82,2.19,1.691,1.691,0,0,1-2.23-.8l-2.27,1.04a19.026,19.026,0,0,1,1.07,5.15L49,31v2l2.11.3a19.1,19.1,0,0,1-1.14,5.37l2.24.84a1.621,1.621,0,0,1,2.12-.97,1.7,1.7,0,0,1,1.02,2.14l-.55,1.56a1.643,1.643,0,0,1-2.13.97,1.69,1.69,0,0,1-1.01-2.14l-2.34-.88a18.791,18.791,0,0,1-2.78,4.29l-1.8-1.2-1.46,1.46,1.2,1.79a19.243,19.243,0,0,1-4.49,2.89l.99,2.18a1.639,1.639,0,0,1,2.19.81,1.706,1.706,0,0,1-.8,2.24l-1.49.71a1.635,1.635,0,0,1-2.19-.82,1.691,1.691,0,0,1,.8-2.23l-1.04-2.27a19.026,19.026,0,0,1-5.15,1.07L33,49H31l-.3,2.11a19.1,19.1,0,0,1-5.37-1.14l-.84,2.24a1.621,1.621,0,0,1,.97,2.12,1.7,1.7,0,0,1-2.14,1.02l-1.56-.55a1.643,1.643,0,0,1-.97-2.13,1.69,1.69,0,0,1,2.14-1.01l.88-2.34a19.171,19.171,0,0,1-4.29-2.79l1.2-1.79-1.46-1.46-1.79,1.2a19.037,19.037,0,0,1-2.89-4.49l-2.18.99a1.639,1.639,0,0,1-.81,2.19,1.706,1.706,0,0,1-2.24-.8l-.71-1.49a1.635,1.635,0,0,1,.82-2.19,1.691,1.691,0,0,1,2.23.8l2.27-1.04a19.026,19.026,0,0,1-1.07-5.15L15,33V31l-2.11-.3a19.1,19.1,0,0,1,1.14-5.37l-2.24-.84a1.621,1.621,0,0,1-2.12.97,1.7,1.7,0,0,1-1.02-2.14l.55-1.56a1.643,1.643,0,0,1,2.13-.97,1.69,1.69,0,0,1,1.01,2.14l2.34.88a18.552,18.552,0,0,1,2.79-4.28l1.79,1.19,1.46-1.46-1.2-1.79a19.243,19.243,0,0,1,4.49-2.89l-.99-2.18a1.639,1.639,0,0,1-2.19-.81,1.706,1.706,0,0,1,.8-2.24l1.49-.71a1.635,1.635,0,0,1,2.19.82,1.691,1.691,0,0,1-.8,2.23l1.04,2.27a19.026,19.026,0,0,1,5.15-1.07L31,15h2l.3-2.11a19.1,19.1,0,0,1,5.37,1.14l.84-2.24a1.621,1.621,0,0,1-.97-2.12,1.7,1.7,0,0,1,2.14-1.02l1.56.55a1.643,1.643,0,0,1,.97,2.13,1.69,1.69,0,0,1-2.14,1.01l-.88,2.34a19.171,19.171,0,0,1,4.29,2.79l-1.2,1.79,1.46,1.46,1.79-1.2a19.243,19.243,0,0,1,2.89,4.49l2.18-.99a1.639,1.639,0,0,1,.81-2.19,1.706,1.706,0,0,1,2.24.8ZM46,33.38V30.62a1.681,1.681,0,0,0-3.35-.12L40,31v2l2.65.5A1.681,1.681,0,0,0,46,33.38Zm-3.36-7.66a1.672,1.672,0,0,0-.12-2.21l-2.03-2.03a1.735,1.735,0,0,0-2.53,2.36l-1.57,2.31,1.46,1.46,2.31-1.57A1.67,1.67,0,0,0,42.64,25.72Zm-.12,14.77a1.735,1.735,0,0,0-2.36-2.53l-2.31-1.57-1.46,1.46,1.57,2.31a1.735,1.735,0,0,0,2.53,2.36ZM33.5,21.35A1.681,1.681,0,0,0,33.38,18H30.62a1.681,1.681,0,0,0-.12,3.35L31,24h2Zm1.48,23.22a1.624,1.624,0,0,0-1.48-1.92L33,40H31l-.5,2.65A1.681,1.681,0,0,0,30.62,46h2.76A1.623,1.623,0,0,0,34.98,44.57ZM27.61,26.15l-1.57-2.31a1.735,1.735,0,0,0-2.53-2.36l-2.03,2.03a1.735,1.735,0,0,0,2.36,2.53l2.31,1.57ZM26.04,40.16l1.57-2.31-1.46-1.46-2.31,1.57a1.735,1.735,0,0,0-2.36,2.53l2.03,2.03a1.735,1.735,0,0,0,2.53-2.36ZM24,33V31l-2.65-.5a1.681,1.681,0,0,0-3.35.12v2.76a1.681,1.681,0,0,0,3.35.12Z" style="fill:#42d1e0"/><path d="M46.53,19.52l-1.79,1.2-1.46-1.46,1.2-1.79,1.71-2.57c-1.03-1.04-1.16-2.48.29-2.86a2.084,2.084,0,0,1,1.89.67l2.92,2.92a2.084,2.084,0,0,1,.67,1.89c-.38,1.45-1.82,1.32-2.86.29Z" style="fill:#2494a1"/><path d="M46.54,44.48l2.56,1.71c1.04-1.03,2.48-1.16,2.86.29a2.084,2.084,0,0,1-.67,1.89l-2.92,2.92a2.084,2.084,0,0,1-1.89.67c-1.45-.38-1.32-1.82-.29-2.86l-1.71-2.57-1.2-1.79,1.46-1.46Z" style="fill:#2494a1"/><path d="M42.52,23.51a1.735,1.735,0,0,1-2.36,2.53l-2.31,1.57-1.46-1.46,1.57-2.31a1.735,1.735,0,0,1,2.53-2.36Z" style="fill:#2494a1"/><path d="M42.64,38.28a1.672,1.672,0,0,1-.12,2.21l-2.03,2.03a1.735,1.735,0,0,1-2.53-2.36l-1.57-2.31,1.46-1.46,2.31,1.57A1.67,1.67,0,0,1,42.64,38.28Z" style="fill:#2494a1"/><path d="M33.3,12.89,33,15H31l-.3-2.11L30,8c-1.42,0-2.5-.9-1.76-2.16A2.023,2.023,0,0,1,29.99,5h4.02a2.023,2.023,0,0,1,1.75.84C36.5,7.1,35.42,8,34,8Z" style="fill:#2494a1"/><path d="M33.3,51.11,34,56c1.42,0,2.5.9,1.76,2.16a2.023,2.023,0,0,1-1.75.84H29.99a2.023,2.023,0,0,1-1.75-.84C27.5,56.9,28.58,56,30,56l.7-4.89L31,49h2Z" style="fill:#2494a1"/><path d="M34.98,19.43a1.624,1.624,0,0,1-1.48,1.92L33,24H31l-.5-2.65A1.681,1.681,0,0,1,30.62,18h2.76A1.623,1.623,0,0,1,34.98,19.43Z" style="fill:#30a1ad"/><path d="M33.5,42.65A1.681,1.681,0,0,1,33.38,46H30.62a1.681,1.681,0,0,1-.12-3.35L31,40h2Z" style="fill:#30a1ad"/><path d="M26.04,23.84l1.57,2.31-1.46,1.46-2.31-1.57a1.735,1.735,0,0,1-2.36-2.53l2.03-2.03a1.735,1.735,0,0,1,2.53,2.36Z" style="fill:#2494a1"/><path d="M27.61,37.85l-1.57,2.31a1.735,1.735,0,0,1-2.53,2.36l-2.03-2.03a1.735,1.735,0,0,1,2.36-2.53l2.31-1.57Z" style="fill:#2494a1"/><path d="M24,31v2l-2.65.5A1.681,1.681,0,0,1,18,33.38V30.62a1.681,1.681,0,0,1,3.35-.12Z" style="fill:#30a1ad"/><path d="M17.47,19.53,14.9,17.81c-1.04,1.03-2.48,1.16-2.86-.29a2.084,2.084,0,0,1,.67-1.89l2.92-2.92a2.084,2.084,0,0,1,1.89-.67c1.45.38,1.32,1.82.29,2.86l1.71,2.57,1.2,1.79-1.46,1.46Z" style="fill:#2494a1"/><path d="M19.52,46.53,17.81,49.1c1.03,1.04,1.16,2.48-.29,2.86a2.084,2.084,0,0,1-1.89-.67l-2.92-2.92a2.084,2.084,0,0,1-.67-1.89c.38-1.45,1.82-1.32,2.86-.29l2.57-1.71,1.79-1.2,1.46,1.46Z" style="fill:#2494a1"/><path d="M12.89,30.7,15,31v2l-2.11.3L8,34c0,1.42-.9,2.5-2.16,1.76A2.023,2.023,0,0,1,5,34.01V29.99a2.023,2.023,0,0,1,.84-1.75C7.1,27.5,8,28.58,8,30Z" style="fill:#2494a1"/><path d="M33,30a2.006,2.006,0,0,1,2,2,2.015,2.015,0,0,1-2,2H31a2.006,2.006,0,0,1-2-2,2.015,2.015,0,0,1,2-2Z" style="fill:#2494a1"/><path d="M32,0A32,32,0,1,0,64,32,32.036,32.036,0,0,0,32,0Zm0,2a29.878,29.878,0,0,1,20.479,8.107L10.107,52.479A29.977,29.977,0,0,1,32,2Zm0,60a29.878,29.878,0,0,1-20.479-8.107L53.893,11.521A29.977,29.977,0,0,1,32,62Z" style="fill:#e0756e"/></g></svg>