<svg xmlns="http://www.w3.org/2000/svg" viewBox="0 0 64 64"><g id="_22-Wash_hand" data-name="22-Wash hand"><path d="M33.581,18.37,52.21,28.96l-3.45-7.08-1.149-2.35a3.31,3.31,0,0,1,.24-2.86,3.426,3.426,0,0,1,4.639-1.22A9.116,9.116,0,0,1,55.99,19l2.75,5,3.28,5.98L63,32.04V57l-4-3L48.41,52.89a16.613,16.613,0,0,1-5.649-1.97l-7.9-4.49L18.5,37.13a2.94,2.94,0,0,1-1.1-4.04A3,3,0,0,1,20,31.61a3.077,3.077,0,0,1,1.51.4L36,40,18.912,30.53a2.941,2.941,0,0,1-1.1-4.05,3.019,3.019,0,0,1,4.1-1.08L39,35,19.311,23.92a2.932,2.932,0,0,1-1.1-4.04,3.019,3.019,0,0,1,4.1-1.08L42,30l-15.35-8.74a2.928,2.928,0,0,1-1.49-2.32,2.873,2.873,0,0,1,.39-1.72,3.005,3.005,0,0,1,2.6-1.48,3.077,3.077,0,0,1,1.51.4Z" style="fill:#fce2d1"/><polygon points="63 32 63 32.04 62.02 29.98 58.74 24 63 24 63 32" style="fill:#edbd9f"/><path d="M48.76,21.88l3.45,7.08L33.58,18.37l-3.06-4.6A3.067,3.067,0,0,1,33.07,9h.56a3.055,3.055,0,0,1,2.28,1.02L43,19Z" style="fill:#f5c8ab"/><path d="M15.4,45a6.951,6.951,0,0,1-3.21-7.59A7.012,7.012,0,0,1,8.29,33a6.992,6.992,0,0,1,.89-5.88,7.006,7.006,0,0,1,5.18-3.09A5.937,5.937,0,0,1,14,22a5.361,5.361,0,0,1,.09-.99,5.994,5.994,0,0,1,11.07-2.07,2.928,2.928,0,0,0,1.49,2.32L42,30,22.31,18.8a3.02,3.02,0,0,0-4.1,1.08,2.931,2.931,0,0,0,1.1,4.04L39,35,21.91,25.4a3.02,3.02,0,0,0-4.1,1.08,2.941,2.941,0,0,0,1.1,4.05L36,40,21.51,32.01a3.077,3.077,0,0,0-1.51-.4,3.005,3.005,0,0,0-2.6,1.48,2.94,2.94,0,0,0,1.1,4.04l16.36,9.3a7.978,7.978,0,0,1-12.65-1.21A7.046,7.046,0,0,1,19,46,6.882,6.882,0,0,1,15.4,45Z" style="fill:#e1fdff"/><path d="M16,52a3,3,0,1,1-2.34,1.12A3,3,0,0,1,16,52Z" style="fill:#c1f6fa"/><circle cx="15" cy="8" r="2" style="fill:#c1f6fa"/><path d="M12,50a2.006,2.006,0,0,1,2,2,2.053,2.053,0,0,1-.34,1.12A2,2,0,1,1,12,50Z" style="fill:#c1f6fa"/><path d="M12,39a6.977,6.977,0,0,0,3.4,6H10a3,3,0,0,1,0-6Z" style="fill:#f5c8ab"/><path d="M12.19,37.41A6.921,6.921,0,0,0,12,39H7a3,3,0,0,1,0-6H8.29A7.012,7.012,0,0,0,12.19,37.41Z" style="fill:#f5c8ab"/><circle cx="9" cy="14" r="3" style="fill:#c1f6fa"/><path d="M14,22a5.937,5.937,0,0,0,.36,2.03,7.006,7.006,0,0,0-5.18,3.09L9,27a3,3,0,0,1,0-6h5l.09.01A5.361,5.361,0,0,0,14,22Z" style="fill:#f5c8ab"/><path d="M9.18,27.12A6.992,6.992,0,0,0,8.29,33H4a3,3,0,0,1,0-6H9Z" style="fill:#f5c8ab"/><path d="M12,39H11v3a1,1,0,0,1-1,1H9a2,2,0,0,1-1.945-1.55A3.025,3.025,0,0,0,7,42a3,3,0,0,0,3,3h5.4A6.977,6.977,0,0,1,12,39Z" style="fill:#edbd9f"/><path d="M11,39h1a6.921,6.921,0,0,1,.19-1.59A7.016,7.016,0,0,1,10,35.883V36a1,1,0,0,1-1,1H6a2,2,0,0,1-1.944-1.548A2.973,2.973,0,0,0,7,39h4Z" style="fill:#edbd9f"/><path d="M14.36,24.03A5.937,5.937,0,0,1,14,22a5.361,5.361,0,0,1,.09-.99L14,21H12v2a1,1,0,0,1-1,1H7a1,1,0,0,1-.928-.642A3,3,0,0,0,9,27l.18.12A7.006,7.006,0,0,1,14.36,24.03Z" style="fill:#edbd9f"/><path d="M8.29,33a6.992,6.992,0,0,1,.89-5.88L9,27H7v3a1,1,0,0,1-1,1H3a2,2,0,0,1-1.944-1.548A2.973,2.973,0,0,0,4,33H8.29Z" style="fill:#edbd9f"/><path d="M48.76,21.88,47,21v1.315a1,1,0,0,1-1.479.878L36,18l-3.927-5.891a2,2,0,0,1,1.618-3.1c-.021,0-.04-.006-.061-.006h-.56a3.063,3.063,0,0,0-2.55,4.77l3.06,4.6L52.21,28.96Z" style="fill:#edbd9f"/><path d="M40.229,25.476,25.481,17.364a2.879,2.879,0,0,0-.32,1.576,2.928,2.928,0,0,0,1.49,2.32L42,30A3.794,3.794,0,0,0,40.229,25.476Z" style="fill:#fcd9c2"/><path d="M34.229,35.476l-16.4-9.02c0,.009-.013.015-.018.024a2.941,2.941,0,0,0,1.1,4.05L36,40A3.794,3.794,0,0,0,34.229,35.476Z" style="fill:#fcd9c2"/><path d="M54.211,25.422l-4.658-9.316a1.984,1.984,0,0,0-.508-.618,3.345,3.345,0,0,0-1.194,1.182,3.31,3.31,0,0,0-.24,2.86l1.149,2.35,3.45,7.08-.361-.206L52,29A2.472,2.472,0,0,0,54.211,25.422Z" style="fill:#fcd9c2"/><path d="M58,51,45.937,49.144a4.977,4.977,0,0,1-1.755-.623L17.546,32.906c-.045.065-.1.115-.144.184a2.94,2.94,0,0,0,1.1,4.04l16.359,9.3,7.9,4.49a16.611,16.611,0,0,0,5.65,1.97L59,54l4,3V51H58Z" style="fill:#fcd9c2"/><path d="M37.247,30.444l-18.929-10.7c-.033.048-.076.084-.106.135a2.931,2.931,0,0,0,1.1,4.04L39,35A3.839,3.839,0,0,0,37.247,30.444Z" style="fill:#fcd9c2"/><path d="M21.952,35.571a1.8,1.8,0,0,0-.571-2.543L19.2,31.721a2.987,2.987,0,0,0-1.8,1.369,2.861,2.861,0,0,0-.39,1.517l2.516,1.51A1.8,1.8,0,0,0,21.952,35.571Z" style="fill:#ffe8da"/><path d="M21.952,28.571a1.8,1.8,0,0,0-.571-2.543l-1.669-.939a2.984,2.984,0,0,0-1.9,1.391,2.9,2.9,0,0,0-.39,1.449l2.106,1.188A1.8,1.8,0,0,0,21.952,28.571Z" style="fill:#ffe8da"/><path d="M22.952,22.571a1.8,1.8,0,0,0-.571-2.543l-2.465-1.479a2.976,2.976,0,0,0-1.7,1.331,2.89,2.89,0,0,0-.395,1.61l2.711,1.627A1.8,1.8,0,0,0,22.952,22.571Z" style="fill:#ffe8da"/><path d="M29.952,19.571a1.8,1.8,0,0,0-.571-2.543l-1.987-1.192a3,3,0,0,0-1.843,1.384,2.86,2.86,0,0,0-.393,1.475l2.37,1.422A1.8,1.8,0,0,0,29.952,19.571Z" style="fill:#ffe8da"/><path d="M52.783,19.776a2.081,2.081,0,0,0,.9-2.986l-.581-.933c-.2-.138-.4-.285-.615-.407a3.381,3.381,0,0,0-4.289.774l1.711,2.747A2.248,2.248,0,0,0,52.783,19.776Z" style="fill:#ffe8da"/><path d="M12,32a7,7,0,0,0,9.015,6.7c0-.046,0-.092.007-.138L18.5,37.13a2.94,2.94,0,0,1-1.1-4.04A3.005,3.005,0,0,1,20,31.61a3.077,3.077,0,0,1,1.51.4L24.4,33.6l.03-.015L18.91,30.53a2.943,2.943,0,0,1-1.349-3.5,5.98,5.98,0,0,1-1.031-1.569A7,7,0,0,0,12,32Z" style="fill:#c1f6fa"/><path d="M16,23a5.968,5.968,0,0,0,.53,2.457,6.736,6.736,0,0,1,3.373-.392A2.981,2.981,0,0,1,20.41,25a3.012,3.012,0,0,1,1.5.4l3.931,2.208.009-.008-6.54-3.68a2.931,2.931,0,0,1-1.1-4.04,3.02,3.02,0,0,1,4.1-1.08l5.6,3.184,0-.009L26.65,21.26a2.928,2.928,0,0,1-1.49-2.32,5.978,5.978,0,0,0-1.516-1.706A5.987,5.987,0,0,0,16,23Z" style="fill:#c1f6fa"/><path d="M16.53,25.457a5.98,5.98,0,0,0,1.031,1.569A2.929,2.929,0,0,1,19.9,25.065a6.736,6.736,0,0,0-3.373.392Z" style="fill:#bbeef2"/><path d="M21.015,38.7c0,.1-.015.2-.015.3a6,6,0,0,0,9.435,4.915l-9.259-5.264C21.122,38.668,21.069,38.686,21.015,38.7Z" style="fill:#c1f6fa"/><path d="M14.41,26.481a1,1,0,0,1,.315,1.077,1.248,1.248,0,0,1-.295.364,15.378,15.378,0,0,1-2.094,1.733,1.9,1.9,0,0,1-.8.348.4.4,0,0,1-.193-.015.442.442,0,0,1-.147-.116,1.952,1.952,0,0,1-.431-1.324,2.727,2.727,0,0,1,.6-1.712A2.16,2.16,0,0,1,14.41,26.481Z" style="fill:#fff"/><path d="M18.145,44.524a1,1,0,0,1-.316-1.077,1.248,1.248,0,0,1,.295-.364,15.366,15.366,0,0,1,2.094-1.733,1.9,1.9,0,0,1,.8-.349.4.4,0,0,1,.193.016.432.432,0,0,1,.147.116,1.952,1.952,0,0,1,.431,1.324,2.725,2.725,0,0,1-.595,1.712A2.159,2.159,0,0,1,18.145,44.524Z" style="fill:#fff"/><path d="M13.1,33.545a2.028,2.028,0,0,1-.009-.835.633.633,0,0,1,.445-.553.787.787,0,0,1,.671.277,1.625,1.625,0,0,1,.333.65,1.843,1.843,0,0,1,.093.763.736.736,0,0,1-.392.581C13.648,34.707,13.209,34.045,13.1,33.545Z" style="fill:#fff"/><path d="M16.1,54.545a2.028,2.028,0,0,1-.009-.835.633.633,0,0,1,.445-.553.787.787,0,0,1,.671.277,1.625,1.625,0,0,1,.333.65,1.843,1.843,0,0,1,.093.763.736.736,0,0,1-.392.581C16.648,55.707,16.209,55.045,16.1,54.545Z" style="fill:#fff"/><path d="M9.1,13.545a2.028,2.028,0,0,1-.009-.835.633.633,0,0,1,.445-.553.787.787,0,0,1,.671.277,1.625,1.625,0,0,1,.333.65,1.843,1.843,0,0,1,.093.763.736.736,0,0,1-.392.581C9.648,14.707,9.209,14.045,9.1,13.545Z" style="fill:#fff"/></g></svg>