<svg xmlns="http://www.w3.org/2000/svg" viewBox="0 0 64 64"><g id="_03-14_day" data-name="03-14 day"><path d="M53,26.15,35.5,8.45a4.949,4.949,0,0,0-7,0L11,26.15,8.85,28.33A2.245,2.245,0,0,1,7.24,29,2.2,2.2,0,0,1,5,26.83a2.055,2.055,0,0,1,.63-1.48L28.5,2.43A4.94,4.94,0,0,1,31.99,1h.02A4.94,4.94,0,0,1,35.5,2.43L46,12.95l6,6.02,6.37,6.38A2.146,2.146,0,0,1,56.76,29a2.245,2.245,0,0,1-1.61-.67Z" style="fill:#3ab8c6"/><path d="M53,26.15V59a4,4,0,0,1-4,4H15a4,4,0,0,1-4-4V26.15L28.5,8.45a4.949,4.949,0,0,1,7,0Z" style="fill:#f8fcff"/><polygon points="53 5 53 9 52 9 46 9 45 9 45 5 53 5" style="fill:#3ab8c6"/><polygon points="52 9 52 18.97 46 12.95 46 9 52 9" style="fill:#e6eaed"/><path d="M49,11h3V9H46v3.95l2,2.007V12A1,1,0,0,1,49,11Z" style="fill:#d5d8db"/><path d="M45,5V9h8V7H48a1,1,0,0,1-1-1V5Z" style="fill:#30a1ad"/><path d="M58.37,25.35l-1.859-1.861-.1.1a2,2,0,0,1-2.828,0L35.414,5.414a4.828,4.828,0,0,0-6.828,0L10.414,23.586a2,2,0,0,1-2.828,0l-.1-.1L5.63,25.35A2.055,2.055,0,0,0,5,26.83,2.2,2.2,0,0,0,7.24,29a2.245,2.245,0,0,0,1.61-.67L11,26.15,28.5,8.45a4.949,4.949,0,0,1,7,0L53,26.15l2.15,2.18a2.245,2.245,0,0,0,1.61.67A2.146,2.146,0,0,0,58.37,25.35Z" style="fill:#30a1ad"/><path d="M35.5,8.45a4.949,4.949,0,0,0-7,0L16,21.093,11,26.15v6l5-5.057L28.5,14.45a4.949,4.949,0,0,1,7,0L53,32.15v-6Z" style="fill:#d5d8db"/><path d="M49,60H30A14,14,0,0,1,16,46V27.093L11,32.15V59a4,4,0,0,0,4,4H49a4,4,0,0,0,4-4V56A4,4,0,0,1,49,60Z" style="fill:#e6eaed"/><path d="M37,38a1,1,0,0,0,1-1V33h1V31H38V25a1,1,0,0,0-1-1h0a1,1,0,0,0-1,1v6H34V25a1,1,0,0,0-1-1h0a1,1,0,0,0-1,1v7a1,1,0,0,0,1,1h3v4a1,1,0,0,0,1,1Z" style="fill:#e0756e"/><path d="M27,27.414V36H26a1,1,0,0,0-1,1h0a1,1,0,0,0,1,1h4a1,1,0,0,0,1-1h0a1,1,0,0,0-1-1H29V25a1,1,0,0,0-1.707-.707L25,26.586A1,1,0,0,0,25,28h0a1,1,0,0,0,1.414,0Z" style="fill:#e0756e"/><path d="M19,40H16a1,1,0,0,0-1,1V51a1,1,0,0,0,1,1h3a4,4,0,0,0,4-4V44A4,4,0,0,0,19,40Zm2,8a2,2,0,0,1-2,2H17V42h2a2,2,0,0,1,2,2Z" style="fill:#e0756e"/><path d="M27.6,40.02A4.12,4.12,0,0,0,24,44.178V51a1,1,0,0,0,1,1h0a1,1,0,0,0,1-1V49h4v2a1,1,0,0,0,1,1h0a1,1,0,0,0,1-1V44A4,4,0,0,0,27.6,40.02ZM26,47V44a2,2,0,0,1,4,0v3Z" style="fill:#e0756e"/><path d="M39,41v1.888a2.079,2.079,0,0,1-1.662,2.084A2,2,0,0,1,35,43V41a1,1,0,0,0-1-1h0a1,1,0,0,0-1,1v2a4,4,0,0,0,3,3.858V51a1,1,0,0,0,1,1h0a1,1,0,0,0,1-1V46.858A4,4,0,0,0,41,43V41a1,1,0,0,0-1-1h0A1,1,0,0,0,39,41Z" style="fill:#e0756e"/><path d="M46,45H45a1,1,0,0,1-1-1V43a1,1,0,0,1,1-1h2a1,1,0,0,0,1-1h0a1,1,0,0,0-1-1H45a3,3,0,0,0-3,3v1a3,3,0,0,0,3,3h1a1,1,0,0,1,1,1v1a1,1,0,0,1-1,1H44a1,1,0,0,0-1,1h0a1,1,0,0,0,1,1h2a3,3,0,0,0,3-3V48A3,3,0,0,0,46,45Z" style="fill:#e0756e"/></g></svg>