<svg xmlns="http://www.w3.org/2000/svg" viewBox="0 0 64 64"><g id="_05-2_Meters" data-name="05-2 Meters"><path d="M23,48v1a2.006,2.006,0,0,1-2,2H3a2.006,2.006,0,0,1-2-2V48A11,11,0,0,1,9.32,37.33a2.765,2.765,0,0,0,.56.79,2.989,2.989,0,0,0,4.8-.79A11,11,0,0,1,23,48Z" style="fill:#3ab8c6"/><path d="M12,13c4,0,10,4,10,9s-3,7-3,7l-.08-.01A5.365,5.365,0,0,0,19,28V21s-4,3-8,3V21s-4,3-6,3v4a5.365,5.365,0,0,0,.08.99L5,29s-3-2-3-7a7.115,7.115,0,0,1,1.55-4.93A3.256,3.256,0,0,1,6,16l2-2S9,13,12,13Z" style="fill:#52575c"/><path d="M19,21v7a5.365,5.365,0,0,1-.08.99A6.978,6.978,0,0,1,12,35a6.98,6.98,0,0,1-6.92-6.01A5.365,5.365,0,0,1,5,28V24c2,0,6-3,6-3v3C15,24,19,21,19,21Z" style="fill:#fcd9c2"/><path d="M11,24v2c4,0,8-3,8-3V21S15,24,11,24Z" style="fill:#edbd9f"/><path d="M11,21s-4,3-6,3v2c2,0,6-3,6-3Z" style="fill:#edbd9f"/><path d="M11.267,34.959c-.073-.008-.146-.021-.219-.031-.17-.023-.339-.05-.505-.085-.075-.016-.149-.034-.223-.053q-.264-.065-.52-.15l-.149-.049A6.739,6.739,0,0,1,9,34.323V36a2.84,2.84,0,0,0,.32,1.33,2.765,2.765,0,0,0,.56.79,2.989,2.989,0,0,0,4.8-.79A2.84,2.84,0,0,0,15,36V34.32h0A6.958,6.958,0,0,1,12,35,7.107,7.107,0,0,1,11.267,34.959Z" style="fill:#e8ae8b"/><path d="M20,49H9a3,3,0,0,1-3-3v-.353a3,3,0,0,1,1.389-2.531l8.491-5.4a10.814,10.814,0,0,0-1.2-.383,2.989,2.989,0,0,1-4.8.79,2.765,2.765,0,0,1-.56-.79A11,11,0,0,0,1,48v1a2.006,2.006,0,0,0,2,2H21a2.006,2.006,0,0,0,2-2V48a11.132,11.132,0,0,0-.087-1.312A3,3,0,0,1,20,49Z" style="fill:#2494a1"/><path d="M15,34.321A6.958,6.958,0,0,1,12,35a7.107,7.107,0,0,1-.733-.041c-.073-.008-.146-.021-.219-.031-.17-.023-.339-.05-.505-.085-.075-.016-.149-.034-.223-.053q-.264-.065-.52-.15l-.149-.049A6.739,6.739,0,0,1,9,34.323V36a2.84,2.84,0,0,0,.32,1.33,2.618,2.618,0,0,0,.231.4L15,35v-.68Z" style="fill:#d18d64"/><path d="M3,20c0-3,3-4,3-4a3.256,3.256,0,0,0-2.45,1.07A7.115,7.115,0,0,0,2,22c0,5,3,7,3,7l.08-.01A5.365,5.365,0,0,1,5,28V24A4.333,4.333,0,0,1,3,20Z" style="fill:#35383b"/><path d="M19,21v7a5.365,5.365,0,0,1-.08.99L19,29s3-2,3-7a3.491,3.491,0,0,1-1,2A14.385,14.385,0,0,1,19,21Z" style="fill:#35383b"/><path d="M30,37a1,1,0,0,1-1,1H26.625a3.693,3.693,0,0,1,0-7.385H27.75a1.309,1.309,0,0,0,0-2.615h-3a1,1,0,0,1-1-1h0a1,1,0,0,1,1-1h3a3.308,3.308,0,0,1,0,6.615H26.625a1.694,1.694,0,0,0,0,3.385H29a1,1,0,0,1,1,1Z" style="fill:#f5b662"/><path d="M40,38h0a1,1,0,0,1-1-1V31.508l-1.094,2.344a1,1,0,0,1-1.812,0L35,31.508V37a1,1,0,0,1-1,1h0a1,1,0,0,1-1-1V27a1,1,0,0,1,1.906-.423L37,31.064l2.094-4.487A1,1,0,0,1,41,27V37A1,1,0,0,1,40,38Z" style="fill:#3ab8c6"/><path d="M62,22c0,5-3,7-3,7l-.08-.01A5.365,5.365,0,0,0,59,28V24a17.935,17.935,0,0,1-10-3s-2,3-4,3v4a5.365,5.365,0,0,0,.08.99L45,29s-3-2-3-7,6-9,10-9c3,0,4,1,4,1l2,2a3.256,3.256,0,0,1,2.45,1.07A7.115,7.115,0,0,1,62,22Z" style="fill:#d18d64"/><path d="M59,24v4a5.365,5.365,0,0,1-.08.99A6.978,6.978,0,0,1,52,35a6.98,6.98,0,0,1-6.92-6.01A5.365,5.365,0,0,1,45,28V24c2,0,4-3,4-3A17.935,17.935,0,0,0,59,24Z" style="fill:#fcd9c2"/><path d="M49,21s-2,3-4,3v2c2,0,4-3,4-3a17.935,17.935,0,0,0,10,3V24A17.935,17.935,0,0,1,49,21Z" style="fill:#edbd9f"/><path d="M63,48v1a2.006,2.006,0,0,1-2,2H43a2.006,2.006,0,0,1-2-2V48a11,11,0,0,1,8.32-10.67,2.765,2.765,0,0,0,.56.79,2.989,2.989,0,0,0,4.8-.79A11,11,0,0,1,63,48Z" style="fill:#fad27a"/><path d="M51.267,34.959c-.073-.008-.146-.021-.219-.031-.17-.023-.339-.05-.505-.085-.075-.016-.149-.034-.223-.053q-.264-.065-.52-.15l-.149-.049A6.739,6.739,0,0,1,49,34.323V36a2.84,2.84,0,0,0,.32,1.33,2.765,2.765,0,0,0,.56.79,2.989,2.989,0,0,0,4.8-.79A2.84,2.84,0,0,0,55,36V34.32h0A6.958,6.958,0,0,1,52,35,7.107,7.107,0,0,1,51.267,34.959Z" style="fill:#edbd9f"/><path d="M60,49H49a3,3,0,0,1-3-3v-.353a3,3,0,0,1,1.389-2.531l8.491-5.4a10.814,10.814,0,0,0-1.2-.383,2.989,2.989,0,0,1-4.8.79,2.765,2.765,0,0,1-.56-.79A11,11,0,0,0,41,48v1a2.006,2.006,0,0,0,2,2H61a2.006,2.006,0,0,0,2-2V48a11.132,11.132,0,0,0-.087-1.312A3,3,0,0,1,60,49Z" style="fill:#f5b662"/><path d="M55,34.321A6.958,6.958,0,0,1,52,35a7.107,7.107,0,0,1-.733-.041c-.073-.008-.146-.021-.219-.031-.17-.023-.339-.05-.505-.085-.075-.016-.149-.034-.223-.053q-.264-.065-.52-.15l-.149-.049A6.739,6.739,0,0,1,49,34.323V36a2.84,2.84,0,0,0,.32,1.33,2.618,2.618,0,0,0,.231.4L55,35v-.68Z" style="fill:#e8ae8b"/><path d="M59,24v4a5.365,5.365,0,0,1-.08.99L59,29l1.257-3.143A1.354,1.354,0,0,0,59,24Z" style="fill:#b37048"/><path d="M42.053,23.073A8.068,8.068,0,0,0,45,29l.08-.01A5.365,5.365,0,0,1,45,28V24a3.491,3.491,0,0,1-2,1S42.258,25,42.053,23.073Z" style="fill:#b37048"/><path d="M25,19V19a.988.988,0,0,0,.069.342,1.023,1.023,0,0,0,.047.1.962.962,0,0,0,.051.108l1.334,2a1,1,0,0,0,1.664-1.11l-.3-.446h8.263l-.3.445a1,1,0,0,0,1.664,1.11l1.333-2a.962.962,0,0,0,.051-.108.941.941,0,0,0,.047-.1A.978.978,0,0,0,39,19V19a.978.978,0,0,0-.069-.341.941.941,0,0,0-.047-.1.962.962,0,0,0-.051-.108l-1.334-2a1,1,0,1,0-1.664,1.11l.3.446H27.868l.3-.445a1,1,0,0,0-1.664-1.11l-1.333,2a.962.962,0,0,0-.051.108,1.023,1.023,0,0,0-.047.1A.988.988,0,0,0,25,19Z" style="fill:#bec1c4"/><path d="M39,45V45a.978.978,0,0,0-.069-.341.941.941,0,0,0-.047-.1.962.962,0,0,0-.051-.108l-1.334-2a1,1,0,1,0-1.664,1.11l.3.446H27.868l.3-.445a1,1,0,1,0-1.664-1.11l-1.333,2a.962.962,0,0,0-.051.108,1.023,1.023,0,0,0-.047.1A.988.988,0,0,0,25,45V45a.988.988,0,0,0,.069.342,1.023,1.023,0,0,0,.047.1.962.962,0,0,0,.051.108l1.336,2a1,1,0,0,0,1.664-1.11l-.3-.449h8.263l-.3.445a1,1,0,0,0,1.664,1.11l1.333-2a.962.962,0,0,0,.051-.108.941.941,0,0,0,.047-.1A.978.978,0,0,0,39,45Z" style="fill:#bec1c4"/></g></svg>