<svg xmlns="http://www.w3.org/2000/svg" viewBox="0 0 64 64"><g id="_15-Alcohol" data-name="15-Alcohol"><polygon points="34 4 34 8 28 8 25 8 25 4 34 4" style="fill:#d0d3d6"/><polygon points="36 8 36 11 28 11 28 8 34 8 36 8" style="fill:#959a9e"/><polygon points="39 11 39 15 25 15 25 11 28 11 36 11 39 11" style="fill:#d0d3d6"/><path d="M54,16a4,4,0,0,1-8,0c0-2.21,3-6,4-6S54,13.79,54,16Z" style="fill:#7ae2ff"/><path d="M48,14a7.8,7.8,0,0,1,1.68-3.9c-1.2.583-3.68,3.891-3.68,5.9a4,4,0,0,0,7.641,1.641A3.987,3.987,0,0,1,48,14Z" style="fill:#24cfff"/><path d="M28,11v1a2,2,0,0,0,2,2h9v1H25V11Z" style="fill:#bec1c4"/><path d="M31,8h0a2,2,0,0,0,2,2h3v1H28V8Z" style="fill:#7f8487"/><path d="M34,4H25V8h2a2,2,0,0,1,2-2h5Z" style="fill:#bec1c4"/><path d="M26,4H22V1H47.969a3,3,0,0,1,2.785,1.886L52,6H48l-.724-1.447A1,1,0,0,0,46.382,4H26" style="fill:#24cfff"/><path d="M46,17a2.006,2.006,0,0,0-2-2H20a2.006,2.006,0,0,0-2,2v4H46Z" style="fill:#f3f7fa"/><path d="M18,21V61a2.006,2.006,0,0,0,2,2H44a2.006,2.006,0,0,0,2-2V21Z" style="fill:#7ae2ff"/><path d="M44,58H31a8.017,8.017,0,0,1-8-8V21H18V61a2.006,2.006,0,0,0,2,2H44a2.006,2.006,0,0,0,2-2V56A2,2,0,0,1,44,58Z" style="fill:#24cfff"/><path d="M23,17a2,2,0,0,1,2-2H20a2.006,2.006,0,0,0-2,2v4h5Z" style="fill:#e6eaed"/><rect x="30" y="17" width="4" height="4" style="fill:#dbe1e6"/><rect x="30" y="21" width="4" height="40" style="fill:#2eb7ee"/><polygon points="14 11 12 11 12 9 10 9 10 11 8 11 8 13 10 13 10 15 12 15 12 13 14 13 14 11" style="fill:#7ae2ff"/><polygon points="58 27 56 27 56 25 54 25 54 27 52 27 52 29 54 29 54 31 56 31 56 29 58 29 58 27" style="fill:#7ae2ff"/><polygon points="37 50 34 50 34 47 30 47 30 50 27 50 27 54 30 54 30 57 34 57 34 54 37 54 37 50" style="fill:#f3f7fa"/><ellipse cx="52" cy="16" rx="0.825" ry="1.148" transform="translate(3.925 41.472) rotate(-45.02)" style="fill:#f6fafd"/><path d="M27,36H24a1,1,0,0,0-1,1v2a1,1,0,0,0,1,1h0a1,1,0,0,0,1-1V38h1v4a1,1,0,0,0,1,1h0a1,1,0,0,0,1-1V37A1,1,0,0,0,27,36Z" style="fill:#f3f7fa"/><path d="M33,36H30a1,1,0,0,0-1,1v5a1,1,0,0,0,1,1h3a1,1,0,0,0,1-1V37A1,1,0,0,0,33,36Zm-1,5H31V38h1Z" style="fill:#f3f7fa"/><rect x="35.692" y="38.5" width="7.616" height="1.999" rx="1" transform="translate(-12.366 60.246) rotate(-66.801)" style="fill:#f3f7fa"/><rect x="41" y="41" width="2" height="2" rx="1" style="fill:#f3f7fa"/><rect x="36" y="36" width="2" height="2" rx="1" style="fill:#f3f7fa"/><path d="M30,33h1v1h2V28a1,1,0,0,0-1-1H29a1,1,0,0,0-1,1v6h2Zm1-4v2H30V29Z" style="fill:#f3f7fa"/><rect x="34" y="27" width="2" height="7" rx="1" style="fill:#f3f7fa"/><rect x="37" y="32" width="2" height="2" rx="1" style="fill:#f3f7fa"/><path d="M47.465,3H27a2,2,0,0,1-2-2H22V4H46.382a1,1,0,0,1,.894.553L48,6h2L48.3,3.445A1,1,0,0,0,47.465,3Z" style="fill:#2eb7ee"/><path d="M42,31a2,2,0,0,1-2-2V28a2,2,0,0,1,4,0v1A2,2,0,0,1,42,31Z" style="fill:#80f2ff"/><path d="M44,20a3,3,0,0,0-3-3H39a2,2,0,0,0,0,4h5Z" style="fill:#fff"/><path d="M40,21v2a2,2,0,0,0,4,0V21Z" style="fill:#80f2ff"/></g></svg>