<svg xmlns="http://www.w3.org/2000/svg" viewBox="0 0 64 64"><g id="_26-Lung" data-name="26-Lung"><path d="M35,23.83l3.82,3.19A3.253,3.253,0,0,1,40,29.53a1.47,1.47,0,0,1-2.41,1.13L35,28.5,32,26l-3,2.5-2.59,2.16A1.47,1.47,0,0,1,24,29.53a3.253,3.253,0,0,1,1.18-2.51L29,23.83,30,23V1h4V23Z" style="fill:#babcbd"/><path d="M24,29.53a1.47,1.47,0,0,0,2.41,1.13L29,28.5V46.62A6.2,6.2,0,0,1,23,53H17a6.2,6.2,0,0,1-6-6.38V42.37C11,34.16,17.27,19,25,19a3.926,3.926,0,0,1,2.83,1.24A4.411,4.411,0,0,1,29,23.25v.58l-3.82,3.19A3.253,3.253,0,0,0,24,29.53Z" style="fill:#f48a83"/><path d="M38.53,31A1.472,1.472,0,0,0,40,29.53a3.253,3.253,0,0,0-1.18-2.51L35,23.83v-.58a4.411,4.411,0,0,1,1.17-3.01A3.926,3.926,0,0,1,39,19c7.73,0,14,15.16,14,23.37v4.25A6.2,6.2,0,0,1,47,53H41a6.2,6.2,0,0,1-6-6.38V28.5l2.59,2.16A1.487,1.487,0,0,0,38.53,31Z" style="fill:#f48a83"/><path d="M36.17,20.24A4.411,4.411,0,0,0,35,23.25v.58L34,23V1h6V8.23a3.977,3.977,0,0,0,2.6,3.74l3.36,1.27a12.159,12.159,0,0,0,4.22.76H51A12,12,0,0,1,63,26V63H1V26A12,12,0,0,1,13,14h.82a12.159,12.159,0,0,0,4.22-.76l3.36-1.27A3.977,3.977,0,0,0,24,8.23V1h6V23l-1,.83v-.58a4.411,4.411,0,0,0-1.17-3.01A3.926,3.926,0,0,0,25,19c-7.73,0-14,15.16-14,23.37v4.25A6.2,6.2,0,0,0,17,53h6a6.2,6.2,0,0,0,6-6.38V28.5L32,26l3,2.5V46.62A6.2,6.2,0,0,0,41,53h6a6.2,6.2,0,0,0,6-6.38V42.37C53,34.16,46.73,19,39,19A3.926,3.926,0,0,0,36.17,20.24Z" style="fill:#fcd9c2"/><path d="M6.16,29.31,5,27V55a2,2,0,0,1-4,0v8H7V32.89A8.081,8.081,0,0,0,6.16,29.31Z" style="fill:#f5c4a4"/><path d="M61,57a2,2,0,0,1-2-2V27l-1.16,2.31A8.081,8.081,0,0,0,57,32.89V63h6V55A2,2,0,0,1,61,57Z" style="fill:#f5c4a4"/><path d="M30,10.887V1H24V9A14.544,14.544,0,0,0,30,10.887Z" style="fill:#f5c8ab"/><path d="M34,10.887A14.544,14.544,0,0,0,40,9V1H34Z" style="fill:#f5c8ab"/><path d="M30,10.887A18.164,18.164,0,0,0,32,11a18.164,18.164,0,0,0,2-.113V1H30Z" style="fill:#a8aaab"/><path d="M20,49H16a5,5,0,0,1-5-5v2.62A6.2,6.2,0,0,0,17,53h6a6.2,6.2,0,0,0,6-6.38V28.5l-2.59,2.16a1.487,1.487,0,0,1-.94.34,1.465,1.465,0,0,1-.47-.084V44A5,5,0,0,1,20,49Z" style="fill:#e0756e"/><path d="M48,49H44a5,5,0,0,1-5-5V30.916a1.465,1.465,0,0,1-.47.084,1.487,1.487,0,0,1-.94-.34L35,28.5V46.62A6.2,6.2,0,0,0,41,53h6a6.2,6.2,0,0,0,6-6.38V44A5,5,0,0,1,48,49Z" style="fill:#e0756e"/><path d="M24,29.506a.5.5,0,0,0-.477.336l-.927,2.78-4.478,1.791-1.767-1.767a.5.5,0,0,0-.708.708l1.711,1.71-1.773,2.659a.5.5,0,0,0,.139.693.5.5,0,0,0,.693-.139l1.914-2.871,3.855-1.542-1.634,4.9L17.6,42.7a.5.5,0,0,0,.1.7.5.5,0,0,0,.7-.1l2.427-3.237.673,2.018V45a.5.5,0,0,0,1,0V42.694l2.342.781A.516.516,0,0,0,25,43.5a.5.5,0,0,0,.158-.975L22.4,41.6,21.527,39l1.516-4.547,1.493,3.733A.5.5,0,0,0,25,38.5a.508.508,0,0,0,.186-.036.5.5,0,0,0,.278-.65l-1.932-4.83.832-2.5A1.457,1.457,0,0,1,24,29.53C24,29.522,24,29.514,24,29.506Z" style="fill:#fcf9dd"/><path d="M49.277,44.584l-2.928-1.952-2.9-3.867-1.634-4.9,3.855,1.542,1.914,2.871a.5.5,0,1,0,.832-.554l-1.773-2.659,1.711-1.71a.5.5,0,0,0-.708-.708l-1.767,1.767L41.4,32.622l-.927-2.78A.494.494,0,0,0,40,29.506c0,.008,0,.016,0,.024a1.457,1.457,0,0,1-.364.958l.832,2.5-1.932,4.83a.5.5,0,0,0,.278.65A.508.508,0,0,0,39,38.5a.5.5,0,0,0,.464-.314l1.493-3.733L42.473,39l-.868,2.6-2.763.921A.5.5,0,0,0,39,43.5a.516.516,0,0,0,.158-.025l2.342-.781V45a.5.5,0,0,0,1,0V42.081l.673-2.018,2.327,3.1V48a.5.5,0,0,0,1,0V43.934l2.223,1.482a.5.5,0,0,0,.693-.139A.5.5,0,0,0,49.277,44.584Z" style="fill:#fcf9dd"/><circle cx="42.5" cy="22.5" r="0.5" style="fill:#e0756e"/><circle cx="44.5" cy="24.5" r="0.5" style="fill:#e0756e"/><circle cx="48.5" cy="40.5" r="0.5" style="fill:#e0756e"/><circle cx="40.5" cy="39.5" r="0.5" style="fill:#e0756e"/><circle cx="43.5" cy="46.5" r="0.5" style="fill:#e0756e"/><circle cx="42" cy="25" r="1" style="fill:#e0756e"/><circle cx="50" cy="39" r="1" style="fill:#e0756e"/><circle cx="21.5" cy="22.5" r="0.5" style="fill:#e0756e"/><circle cx="19.5" cy="24.5" r="0.5" style="fill:#e0756e"/><circle cx="15.5" cy="40.5" r="0.5" style="fill:#e0756e"/><circle cx="23.5" cy="39.5" r="0.5" style="fill:#e0756e"/><circle cx="20.5" cy="46.5" r="0.5" style="fill:#e0756e"/><circle cx="22" cy="25" r="1" style="fill:#e0756e"/><circle cx="14" cy="39" r="1" style="fill:#e0756e"/><polygon points="59 9 57 9 57 7 55 7 55 9 53 9 53 11 55 11 55 13 57 13 57 11 59 11 59 9" style="fill:#7ae2ff"/><polygon points="11 3 9 3 9 1 7 1 7 3 5 3 5 5 7 5 7 7 9 7 9 5 11 5 11 3" style="fill:#7ae2ff"/></g></svg>