<svg xmlns="http://www.w3.org/2000/svg" viewBox="0 0 64 64"><g id="_23-Virus" data-name="23-Virus"><path d="M48,30.62v2.76a1.681,1.681,0,0,1-3.35.12L42,32.75v-1.5l2.65-.75a1.681,1.681,0,0,1,3.35.12Z" style="fill:#30a1ad"/><path d="M34.98,17.43a1.624,1.624,0,0,1-1.48,1.92L32.75,22h-1.5l-.75-2.65A1.681,1.681,0,0,1,30.62,16h2.76A1.623,1.623,0,0,1,34.98,17.43Z" style="fill:#30a1ad"/><path d="M20.35,30.5l2.65.75v1.5l-2.65.75A1.681,1.681,0,0,1,17,33.38V30.62a1.681,1.681,0,0,1,3.35-.12Z" style="fill:#30a1ad"/><path d="M33,30a2.006,2.006,0,0,1,2,2,2.015,2.015,0,0,1-2,2H31a2.006,2.006,0,0,1-2-2,2.015,2.015,0,0,1,2-2Z" style="fill:#2494a1"/><path d="M44.4,22.51a2.058,2.058,0,1,1-2.91,2.91L38.45,27,37,25.55l1.58-3.04a2.058,2.058,0,1,1,2.91-2.91Z" style="fill:#2494a1"/><path d="M25.42,19.6a2.064,2.064,0,0,1,0,2.91L27,25.55,25.55,27l-3.04-1.58a2.058,2.058,0,1,1-2.91-2.91l2.91-2.91A2.064,2.064,0,0,1,25.42,19.6Z" style="fill:#2494a1"/><path d="M27,38.45l-1.58,3.04a2.058,2.058,0,1,1-2.91,2.91L19.6,41.49a2.058,2.058,0,1,1,2.91-2.91L25.55,37Z" style="fill:#2494a1"/><path d="M41.49,44.4a2.058,2.058,0,1,1-2.91-2.91L37,38.45,38.45,37l3.04,1.58a2.058,2.058,0,1,1,2.91,2.91Z" style="fill:#2494a1"/><path d="M33.5,44.65A1.681,1.681,0,0,1,33.38,48H30.62a1.681,1.681,0,0,1-.12-3.35L31.25,42h1.5Z" style="fill:#30a1ad"/><path d="M52.51,55.33a2,2,0,1,1-2.83-2.82l-2.97-4.16-.57-.79,1.42-1.42.79.56,4.16,2.98a2,2,0,1,1,2.82,2.83Z" style="fill:#30a1ad"/><path d="M33.37,53.96,34,59a2,2,0,0,1,0,4H30a2,2,0,0,1,0-4l.63-5.05L31,51h2Z" style="fill:#2494a1"/><path d="M15.64,46.71l.8-.57,1.42,1.42-.57.79-2.97,4.16a2,2,0,1,1-2.83,2.82L8.67,52.51a2,2,0,1,1,2.82-2.83Z" style="fill:#30a1ad"/><path d="M3,36a2.006,2.006,0,0,1-2-2V30a2,2,0,0,1,4,0l5.05.63L13,31v2l-2.96.37L5,34A2.006,2.006,0,0,1,3,36Z" style="fill:#2494a1"/><path d="M16.44,17.86l-.79-.57-4.16-2.97a2,2,0,1,1-2.82-2.83l2.82-2.82a2,2,0,1,1,2.83,2.82l2.97,4.16.57.79Z" style="fill:#30a1ad"/><path d="M33.37,10.05,33,13H31l-.37-2.96L30,5a2,2,0,0,1,0-4h4a2,2,0,0,1,0,4Z" style="fill:#2494a1"/><path d="M48.35,17.29l-.79.57-1.42-1.42.57-.79,2.97-4.16a2,2,0,0,1,2.83-2.82l2.82,2.82a2,2,0,1,1-2.82,2.83Z" style="fill:#30a1ad"/><path d="M48,33.38V30.62a1.681,1.681,0,0,0-3.35-.12L42,31.25v1.5l2.65.75A1.681,1.681,0,0,0,48,33.38ZM33.38,16H30.62a1.681,1.681,0,0,0-.12,3.35L31.25,22h1.5l.75-2.65A1.681,1.681,0,0,0,33.38,16ZM30.62,48h2.76a1.681,1.681,0,0,0,.12-3.35L32.75,42h-1.5l-.75,2.65A1.681,1.681,0,0,0,30.62,48ZM6.36,24.5a1.967,1.967,0,0,1-1.17-2.47l.64-1.78a1.87,1.87,0,0,1,2.43-1.12,1.944,1.944,0,0,1,1.17,2.46l2.68,1a21.815,21.815,0,0,1,3.54-5.3l.79.57,1.42-1.42-.57-.79A21.9,21.9,0,0,1,22.83,12L21.69,9.5a1.87,1.87,0,0,1-2.51-.94A1.948,1.948,0,0,1,20.09,6l1.71-.82a1.881,1.881,0,0,1,2.52.94,1.944,1.944,0,0,1-.92,2.56l1.19,2.6a22,22,0,0,1,6.04-1.24L31,13h2l.37-2.95a21.889,21.889,0,0,1,6.29,1.32l.96-2.57A1.877,1.877,0,0,1,39.5,6.36a1.967,1.967,0,0,1,2.47-1.17l1.78.64a1.87,1.87,0,0,1,1.12,2.43,1.944,1.944,0,0,1-2.46,1.17l-1,2.68a22.106,22.106,0,0,1,5.3,3.54l-.57.79,1.42,1.42.79-.57A21.9,21.9,0,0,1,52,22.83l2.5-1.14a1.87,1.87,0,0,1,.94-2.51,1.948,1.948,0,0,1,2.56.91l.82,1.71a1.881,1.881,0,0,1-.94,2.52,1.944,1.944,0,0,1-2.56-.92l-2.6,1.19a22,22,0,0,1,1.24,6.04L51,31v2l2.95.37a21.889,21.889,0,0,1-1.32,6.29l2.57.96a1.877,1.877,0,0,1,2.44-1.12,1.967,1.967,0,0,1,1.17,2.47l-.64,1.78a1.87,1.87,0,0,1-2.43,1.12,1.944,1.944,0,0,1-1.17-2.46l-2.68-1a21.567,21.567,0,0,1-3.54,5.29l-.79-.56-1.42,1.42.57.79A21.9,21.9,0,0,1,41.17,52l1.14,2.5a1.87,1.87,0,0,1,2.51.94A1.948,1.948,0,0,1,43.91,58l-1.71.82a1.881,1.881,0,0,1-2.52-.94,1.944,1.944,0,0,1,.92-2.56l-1.19-2.6a22,22,0,0,1-6.04,1.24L33,51H31l-.37,2.95a21.889,21.889,0,0,1-6.29-1.32l-.96,2.57a1.877,1.877,0,0,1,1.12,2.44,1.967,1.967,0,0,1-2.47,1.17l-1.78-.64a1.87,1.87,0,0,1-1.12-2.43,1.944,1.944,0,0,1,2.46-1.17l1-2.68a22.106,22.106,0,0,1-5.3-3.54l.57-.79-1.42-1.42-.8.57A22.6,22.6,0,0,1,12,41.17L9.5,42.31a1.87,1.87,0,0,1-.94,2.51A1.948,1.948,0,0,1,6,43.91L5.18,42.2a1.881,1.881,0,0,1,.94-2.52,1.944,1.944,0,0,1,2.56.92l2.6-1.19a22,22,0,0,1-1.24-6.04L13,33V31l-2.95-.37a21.889,21.889,0,0,1,1.32-6.29L8.8,23.38A1.877,1.877,0,0,1,6.36,24.5Zm38.04.92a2.064,2.064,0,0,0,0-2.91L41.49,19.6a2.058,2.058,0,1,0-2.91,2.91L37,25.55,38.45,27l3.04-1.58A2.064,2.064,0,0,0,44.4,25.42Zm0,16.07a2.058,2.058,0,1,0-2.91-2.91L38.45,37,37,38.45l1.58,3.04a2.058,2.058,0,1,0,2.91,2.91ZM35,32a2.006,2.006,0,0,0-2-2H31a2.015,2.015,0,0,0-2,2,2.006,2.006,0,0,0,2,2h2a2.015,2.015,0,0,0,2-2Zm-8-6.45-1.58-3.04a2.058,2.058,0,1,0-2.91-2.91L19.6,22.51a2.058,2.058,0,1,0,2.91,2.91L25.55,27ZM25.42,41.49,27,38.45,25.55,37l-3.04,1.58a2.058,2.058,0,1,0-2.91,2.91l2.91,2.91a2.058,2.058,0,1,0,2.91-2.91ZM23,32.75v-1.5l-2.65-.75a1.681,1.681,0,0,0-3.35.12v2.76a1.681,1.681,0,0,0,3.35.12Z" style="fill:#42d1e0"/><path d="M53.96,30.63,59,30a2,2,0,0,1,4,0v4a2,2,0,0,1-4,0l-5.05-.63L51,33V31Z" style="fill:#2494a1"/></g></svg>