<svg xmlns="http://www.w3.org/2000/svg" viewBox="0 0 64 64"><g id="_06-SOS" data-name="06-SOS"><path d="M17.191,28.361a2.008,2.008,0,0,1-.11,2.92l-1.369,1.2-.12.11-9.4-9.4.11-.12,1.18-1.38a2,2,0,0,1,2.929-.1Z" style="fill:#4492d4"/><path d="M42.408,53.588a2,2,0,0,1-.1,2.929l-1.38,1.18-.12.11-9.4-9.4.11-.12,1.2-1.369a2.008,2.008,0,0,1,2.92-.11Z" style="fill:#4492d4"/><path d="M5.673,23.8l.52-.61,9.4,9.4-1.65,1.42A62.141,62.141,0,0,0,29.989,50.058l1.42-1.65,9.4,9.4-.61.52-3.73,3.23a5.865,5.865,0,0,1-6.619.749A72.717,72.717,0,0,1,1.694,34.151a5.865,5.865,0,0,1,.749-6.619Z" style="fill:#3ab8c6"/><path d="M34,1A29,29,0,0,0,5.673,23.8l.52-.61.11-.12,1.18-1.38a2,2,0,0,1,2.93-.1l6.78,6.769a2.008,2.008,0,0,1-.11,2.92l-1.37,1.2-.12.11-1.65,1.42A62.157,62.157,0,0,0,29.992,50.057l1.42-1.65.11-.12,1.2-1.37a2.008,2.008,0,0,1,2.92-.11l6.769,6.78a2,2,0,0,1-.1,2.93l-1.38,1.18-.12.11-.61.52A29,29,0,0,0,34,1Z" style="fill:#f8fcff"/><path d="M14,38,26,50a2.825,2.825,0,0,0,3.958.034A62.154,62.154,0,0,1,13.966,34.042,2.825,2.825,0,0,0,14,38Z" style="fill:#2494a1"/><path d="M32.851,59.306A72.726,72.726,0,0,1,4.7,31.151a5.869,5.869,0,0,1,.75-6.62l.97-1.119-.22-.22-.52.61-3.23,3.729a5.869,5.869,0,0,0-.75,6.62A72.726,72.726,0,0,0,29.851,62.306a5.865,5.865,0,0,0,6.619-.749l3.73-3.23.61-.52-.22-.22-1.12.97A5.865,5.865,0,0,1,32.851,59.306Z" style="fill:#42d1e0"/><path d="M26.267,36H22a1,1,0,0,1-1-1h0a1,1,0,0,1,1-1h4.32a2.624,2.624,0,0,0,2.67-2.27A2.5,2.5,0,0,0,26.5,29h-.767a4.658,4.658,0,0,1-4.714-4.083A4.5,4.5,0,0,1,25.5,20H30a1,1,0,0,1,1,1h0a1,1,0,0,1-1,1H25.68a2.624,2.624,0,0,0-2.67,2.27A2.5,2.5,0,0,0,25.5,27h1a4.5,4.5,0,0,1,4.481,4.917A4.658,4.658,0,0,1,26.267,36Z" style="fill:#24cfff"/><path d="M50.3,36H46a1,1,0,0,1-1-1h0a1,1,0,0,1,1-1h4.353a2.6,2.6,0,0,0,2.634-2.238A2.5,2.5,0,0,0,50.5,29h-.8a4.636,4.636,0,0,1-4.678-4.051A4.5,4.5,0,0,1,49.5,20H54a1,1,0,0,1,1,1h0a1,1,0,0,1-1,1H49.647a2.6,2.6,0,0,0-2.634,2.238A2.5,2.5,0,0,0,49.5,27h1a4.5,4.5,0,0,1,4.478,4.949A4.636,4.636,0,0,1,50.3,36Z" style="fill:#24cfff"/><path d="M38,36a5.006,5.006,0,0,1-5-5V25a5,5,0,0,1,10,0v6A5.006,5.006,0,0,1,38,36Zm0-14a3,3,0,0,0-3,3v6a3,3,0,0,0,6,0V25A3,3,0,0,0,38,22Z" style="fill:#24cfff"/><path d="M57.5,48a1,1,0,0,1-.809-1.587A28,28,0,0,0,34,2a27.753,27.753,0,0,0-20.276,8.69,1,1,0,1,1-1.448-1.379A29.733,29.733,0,0,1,34,0,30,30,0,0,1,58.307,47.587,1,1,0,0,1,57.5,48Z" style="fill:#7ae2ff"/><path d="M9.175,16a.985.985,0,0,1-.517-.145,1,1,0,0,1-.338-1.373c.423-.7.885-1.395,1.373-2.069a1,1,0,1,1,1.619,1.173c-.455.629-.886,1.279-1.281,1.932A1,1,0,0,1,9.175,16Z" style="fill:#7ae2ff"/><path d="M55.689,49.276a1,1,0,0,0-1.413.034,27.841,27.841,0,0,1-12.382,7.561l-.966.826-.12.11-.61.52-.883.765a.991.991,0,0,0,.684.286.976.976,0,0,0,.207-.021A29.839,29.839,0,0,0,55.724,50.69,1,1,0,0,0,55.689,49.276Z" style="fill:#7ae2ff"/><path d="M6.193,23.192l.11-.12.841-.983A27.721,27.721,0,0,1,8.5,18.414a1,1,0,0,0-1.82-.828,29.787,29.787,0,0,0-2.039,6.207.983.983,0,0,0,.27.887l.76-.878Z" style="fill:#7ae2ff"/></g></svg>