<svg xmlns="http://www.w3.org/2000/svg" viewBox="0 0 64 64"><g id="_11-Do_not_touch_your_face_mask" data-name="11-Do not touch your face mask"><path d="M35,55c-7.42,0-9.35-4.26-9.84-6.13l2.28-.52a2.034,2.034,0,0,0,.59-.24C28.24,48.75,29.59,52,35,52s6.76-3.25,6.97-3.89a2.034,2.034,0,0,0,.59.24l2.28.52C44.35,50.74,42.42,55,35,55Z" style="fill:#f8fcff"/><path d="M41,46.4a1.982,1.982,0,0,0,.97,1.71C41.76,48.75,40.41,52,35,52s-6.76-3.25-6.97-3.89A1.982,1.982,0,0,0,29,46.4V41.66a14.1,14.1,0,0,0,12,0Z" style="fill:#f5c8ab"/><path d="M29,41.66a13.962,13.962,0,0,1-3.28-2.12,14.138,14.138,0,0,1-3.62-4.8L24,30l9.09-1.79A8.136,8.136,0,0,1,34.94,28h.12a8.136,8.136,0,0,1,1.85.21L46,30l1.9,4.74A14.177,14.177,0,0,1,29,41.66Z" style="fill:#f8fcff"/><ellipse cx="42.5" cy="25" rx="1.5" ry="3" style="fill:#fcd9c2"/><ellipse cx="27.5" cy="25" rx="1.5" ry="3" style="fill:#fcd9c2"/><path d="M51,21H49V17a44.846,44.846,0,0,1-16,3V17s-2,3-8,3V18s-1,3-4,3H19a2.006,2.006,0,0,0-2,2v3a4,4,0,0,0,1.6,3.2L21,31a13.468,13.468,0,0,0,1.1,3.74L24,30l9.09-1.79A8.136,8.136,0,0,1,34.94,28h.12a8.136,8.136,0,0,1,1.85.21L46,30l1.9,4.74A13.468,13.468,0,0,0,49,31l2.4-1.8A4,4,0,0,0,53,26V23A2.006,2.006,0,0,0,51,21ZM27.5,28c-.83,0-1.5-1.34-1.5-3s.67-3,1.5-3S29,23.34,29,25,28.33,28,27.5,28Zm15,0c-.83,0-1.5-1.34-1.5-3s.67-3,1.5-3S44,23.34,44,25,43.33,28,42.5,28Z" style="fill:#fcd9c2"/><path d="M25,18s-1,3-4,3c3,0,4-1,4-1Z" style="fill:#edbd9f"/><path d="M32,19v3a54.487,54.487,0,0,0,17-3V17a44.846,44.846,0,0,1-16,3V17s-2,3-8,3v2C31,22,32,19,32,19Z" style="fill:#edbd9f"/><path d="M49,29V23h2a1,1,0,0,1,1,1v1.394a3,3,0,0,1-1.336,2.5Z" style="fill:#edbd9f"/><path d="M21,29V23H19a1,1,0,0,0-1,1v1.394a3,3,0,0,0,1.336,2.5Z" style="fill:#edbd9f"/><path d="M53,15v8a2.006,2.006,0,0,0-2-2H49V17a44.846,44.846,0,0,1-16,3V17s-2,3-8,3V18s-1,3-4,3H19a2.006,2.006,0,0,0-2,2V15A14,14,0,0,1,31,1h8A14,14,0,0,1,53,15Z" style="fill:#52575c"/><path d="M18,17A16,16,0,0,1,34,1H31A14,14,0,0,0,17,15v8a2.006,2.006,0,0,1,2-2h2c3,0,4-3,4-3-2,2-7,2-7,2Z" style="fill:#3d4145"/><path d="M39,1H36A16,16,0,0,1,52,17v2c-3,0-3-2-3-2v4h2a2.006,2.006,0,0,1,2,2V15A14,14,0,0,0,39,1Z" style="fill:#3d4145"/><path d="M29,1.81A15.962,15.962,0,0,0,23.33,5.1c2.513,2.905,9.515,7.8,28.144,7.893a15.944,15.944,0,0,0-.656-2.017C38.554,10.646,31.96,5.247,29,1.81Z" style="fill:#5d6369"/><path d="M41,41.64a13.962,13.962,0,0,1-12,.01V46.4a1.982,1.982,0,0,1-.97,1.71,4.6,4.6,0,0,0,.587,1.135L41,43.467Z" style="fill:#e8ae8b"/><path d="M27.505,33.231l1.188-4.155L24,30l-1.9,4.74a14.138,14.138,0,0,0,3.62,4.8A14.148,14.148,0,0,0,41,41.66,14.211,14.211,0,0,0,47.56,35.4,18.473,18.473,0,0,1,36,40a10.011,10.011,0,0,1-7.6-2.965A3.955,3.955,0,0,1,27.505,33.231Z" style="fill:#e6eaed"/><path d="M28,33.5a.5.5,0,0,1-.248-.935A16.733,16.733,0,0,1,35,30.5a16.733,16.733,0,0,1,7.248,2.065.5.5,0,1,1-.5.87A15.982,15.982,0,0,0,35,31.5a15.936,15.936,0,0,0-6.752,1.935A.5.5,0,0,1,28,33.5Z" style="fill:#2494a1"/><path d="M35.06,28a8.328,8.328,0,0,1,.937.053c0-.018,0-.035,0-.053,0-1.105-.448-2-1-2s-1,.895-1,2c0,.018,0,.035,0,.053A8.328,8.328,0,0,1,34.94,28Z" style="fill:#edbd9f"/><path d="M51.437,21.243a.507.507,0,0,0,.056-.174A1.962,1.962,0,0,0,51,21h-.573l-4.688,8.439-8.716-1.716A8.67,8.67,0,0,0,35.06,27.5h-.12a8.6,8.6,0,0,0-1.947.22l-8.732,1.719L19.573,21H19a1.962,1.962,0,0,0-.493.069.527.527,0,0,0,.055.174l4.885,8.793-1.622,4.046c.088.221.175.442.275.658.086.186.192.36.285.541.027-.035.065-.059.082-.1l1.9-4.741L33.2,28.7a7.672,7.672,0,0,1,1.737-.2h.12a7.747,7.747,0,0,1,1.753.2l8.824,1.738,1.8,4.481.1.26c.018.046.058.071.086.108.094-.182.2-.36.281-.547.1-.214.186-.434.273-.653l-1.62-4.051Z" style="fill:#3ab8c6"/><ellipse cx="42.5" cy="25" rx="1.5" ry="3" style="fill:#3d4145"/><ellipse cx="27.5" cy="25" rx="1.5" ry="3" style="fill:#3d4145"/><path d="M25.094,21.481c-.021.006-.041.011-.062.015-.3.054-.53-.423-.53-.746,0-.091.034-2.25,3-2.25s3,2.159,3,2.25a.79.79,0,0,1-.337.675c-.219.133-.43.009-.6-.2-.083-.1-.147-.228-.236-.324a1.108,1.108,0,0,0-.3-.213,4.422,4.422,0,0,0-.828-.377,2.394,2.394,0,0,0-2.229.491A3.18,3.18,0,0,1,25.094,21.481Z" style="fill:#3d4145"/><path d="M44.908,21.481c.021.006.041.011.062.015.3.054.53-.423.53-.746,0-.091-.034-2.25-3-2.25s-3,2.159-3,2.25a.79.79,0,0,0,.337.675c.218.133.43.009.6-.2.083-.1.147-.228.235-.324a1.124,1.124,0,0,1,.3-.213,4.459,4.459,0,0,1,.829-.377,2.394,2.394,0,0,1,2.229.491A3.166,3.166,0,0,0,44.908,21.481Z" style="fill:#3d4145"/><path d="M59.89,52.29,44.84,48.87C44.35,50.74,42.42,55,35,55s-9.35-4.26-9.84-6.13L10.11,52.29A4.009,4.009,0,0,0,7,56.19V63H63V56.19A4.009,4.009,0,0,0,59.89,52.29Z" style="fill:#3ab8c6"/><path d="M32.291,54.778l10.692-2.592A7.64,7.64,0,0,0,44.84,48.87l-2.28-.52a2.034,2.034,0,0,1-.59-.24C41.76,48.75,40.41,52,35,52s-6.76-3.25-6.97-3.89a2.034,2.034,0,0,1-.59.24l-2.28.52C25.584,50.487,27.093,53.887,32.291,54.778Z" style="fill:#e6eaed"/><path d="M19,62a5.085,5.085,0,0,1,3.887-4.942l9.4-2.28c-5.2-.891-6.707-4.291-7.131-5.908L10.11,52.29A4.009,4.009,0,0,0,7,56.19V63H20A1,1,0,0,1,19,62Z" style="fill:#2494a1"/><path d="M42.983,52.186l7.959-1.929-6.1-1.387A7.64,7.64,0,0,1,42.983,52.186Z" style="fill:#2494a1"/><path d="M54,43l4.5,3.5V54L53,59v4H41V59a7.467,7.467,0,0,1-3-3V39a2.006,2.006,0,0,1,2-2,2.015,2.015,0,0,1,2,2V36a2.006,2.006,0,0,1,2-2,2.015,2.015,0,0,1,2,2V35a2.006,2.006,0,0,1,2-2,2.015,2.015,0,0,1,2,2v1a2.006,2.006,0,0,1,2-2,2.015,2.015,0,0,1,2,2Z" style="fill:#f5c8ab"/><path d="M52,42V35a1,1,0,0,0-.583-.9A2,2,0,0,0,50,36v8A2,2,0,0,0,52,42Z" style="fill:#e8ae8b"/><path d="M48,42V34a1,1,0,0,0-.583-.9A2,2,0,0,0,46,35v9A2,2,0,0,0,48,42Z" style="fill:#e8ae8b"/><path d="M56,49V44.556L54,43v8A2,2,0,0,0,56,49Z" style="fill:#e8ae8b"/><path d="M44,42V35a1,1,0,0,0-.583-.9A2,2,0,0,0,42,36v8A2,2,0,0,0,44,42Z" style="fill:#e8ae8b"/><path d="M40.469,56.469A2.91,2.91,0,0,1,40,55V39a1.993,1.993,0,0,0-1-1.722A2,2,0,0,0,38,39V56a7.467,7.467,0,0,0,3,3v4H53V59H45.164A5.439,5.439,0,0,1,40.469,56.469Z" style="fill:#e8ae8b"/><path d="M7.34,45.34A8,8,0,1,1,5,51,8.014,8.014,0,0,1,7.34,45.34Z" style="fill:#f8fcff"/><path d="M25,51a11.909,11.909,0,0,1-3.04,7.96L26,63H13A12,12,0,1,1,25,51ZM13,59a8,8,0,1,0-8-8A8.014,8.014,0,0,0,13,59Z" style="fill:#e6eaed"/><path d="M4,51a9,9,0,1,0,9-9A9.011,9.011,0,0,0,4,51Zm16,0a6.953,6.953,0,0,1-1.4,4.184L8.816,45.4A6.986,6.986,0,0,1,20,51ZM6,51a6.953,6.953,0,0,1,1.4-4.184L17.184,56.6A6.986,6.986,0,0,1,6,51Z" style="fill:#c2534c"/></g></svg>