<svg xmlns="http://www.w3.org/2000/svg" viewBox="0 0 64 64"><g id="_04-At_home" data-name="04-At home"><path d="M53,26.15,35.5,8.45a4.949,4.949,0,0,0-7,0L11,26.15,8.85,28.33A2.245,2.245,0,0,1,7.24,29,2.2,2.2,0,0,1,5,26.83a2.055,2.055,0,0,1,.63-1.48L28.5,2.43A4.94,4.94,0,0,1,31.99,1h.02A4.94,4.94,0,0,1,35.5,2.43L46,12.95l6,6.02,6.37,6.38A2.146,2.146,0,0,1,56.76,29a2.245,2.245,0,0,1-1.61-.67Z" style="fill:#3ab8c6"/><path d="M53,26.15V59a4,4,0,0,1-4,4H15a4,4,0,0,1-4-4V26.15L28.5,8.45a4.949,4.949,0,0,1,7,0Z" style="fill:#f8fcff"/><polygon points="53 5 53 9 52 9 46 9 45 9 45 5 53 5" style="fill:#3ab8c6"/><polygon points="52 9 52 18.97 46 12.95 46 9 52 9" style="fill:#e6eaed"/><path d="M49,11h3V9H46v3.95l2,2.007V12A1,1,0,0,1,49,11Z" style="fill:#d5d8db"/><path d="M45,5V9h8V7H48a1,1,0,0,1-1-1V5Z" style="fill:#30a1ad"/><path d="M58.37,25.35l-1.859-1.861-.1.1a2,2,0,0,1-2.828,0L35.414,5.414a4.828,4.828,0,0,0-6.828,0L10.414,23.586a2,2,0,0,1-2.828,0l-.1-.1L5.63,25.35A2.055,2.055,0,0,0,5,26.83,2.2,2.2,0,0,0,7.24,29a2.245,2.245,0,0,0,1.61-.67L11,26.15,28.5,8.45a4.949,4.949,0,0,1,7,0L53,26.15l2.15,2.18a2.245,2.245,0,0,0,1.61.67A2.146,2.146,0,0,0,58.37,25.35Z" style="fill:#30a1ad"/><path d="M35.5,8.45a4.949,4.949,0,0,0-7,0L16,21.093,11,26.15v6l5-5.057L28.5,14.45a4.949,4.949,0,0,1,7,0L53,32.15v-6Z" style="fill:#d5d8db"/><path d="M49,60H30A14,14,0,0,1,16,46V27.093L11,32.15V59a4,4,0,0,0,4,4H49a4,4,0,0,0,4-4V56A4,4,0,0,1,49,60Z" style="fill:#e6eaed"/><path d="M43,54v1a2.006,2.006,0,0,1-2,2H23a2.006,2.006,0,0,1-2-2V54a11,11,0,0,1,8.32-10.67,2.765,2.765,0,0,0,.56.79,2.989,2.989,0,0,0,4.8-.79A11,11,0,0,1,43,54Z" style="fill:#3ab8c6"/><path d="M32,19c4,0,10,4,10,9s-3,7-3,7l-.08-.01A5.365,5.365,0,0,0,39,34V27s-4,3-8,3V27s-4,3-6,3v4a5.365,5.365,0,0,0,.08.99L25,35s-3-2-3-7a7.115,7.115,0,0,1,1.55-4.93A3.256,3.256,0,0,1,26,22l2-2S29,19,32,19Z" style="fill:#52575c"/><path d="M39,27v7a5.365,5.365,0,0,1-.08.99A6.978,6.978,0,0,1,32,41a6.98,6.98,0,0,1-6.92-6.01A5.365,5.365,0,0,1,25,34V30c2,0,6-3,6-3v3C35,30,39,27,39,27Z" style="fill:#fcd9c2"/><path d="M31,30v2c4,0,8-3,8-3V27S35,30,31,30Z" style="fill:#edbd9f"/><path d="M31,27s-4,3-6,3v2c2,0,6-3,6-3Z" style="fill:#edbd9f"/><path d="M31.267,40.959c-.073-.008-.146-.021-.219-.031-.17-.023-.339-.05-.5-.085-.075-.016-.149-.034-.223-.053q-.264-.065-.52-.15l-.149-.049A6.739,6.739,0,0,1,29,40.323V42a2.84,2.84,0,0,0,.32,1.33,2.765,2.765,0,0,0,.56.79,2.989,2.989,0,0,0,4.8-.79A2.84,2.84,0,0,0,35,42V40.32h0A6.958,6.958,0,0,1,32,41,7.107,7.107,0,0,1,31.267,40.959Z" style="fill:#e8ae8b"/><path d="M40,55H29a3,3,0,0,1-3-3v-.353a3,3,0,0,1,1.389-2.531l8.491-5.4a10.814,10.814,0,0,0-1.2-.383,2.989,2.989,0,0,1-4.8.79,2.765,2.765,0,0,1-.56-.79A11,11,0,0,0,21,54v1a2.006,2.006,0,0,0,2,2H41a2.006,2.006,0,0,0,2-2V54a11.132,11.132,0,0,0-.087-1.312A3,3,0,0,1,40,55Z" style="fill:#2494a1"/><path d="M35,40.321A6.958,6.958,0,0,1,32,41a7.107,7.107,0,0,1-.733-.041c-.073-.008-.146-.021-.219-.031-.17-.023-.339-.05-.5-.085-.075-.016-.149-.034-.223-.053q-.264-.065-.52-.15l-.149-.049A6.739,6.739,0,0,1,29,40.323V42a2.84,2.84,0,0,0,.32,1.33,2.618,2.618,0,0,0,.231.4L35,41v-.68Z" style="fill:#d18d64"/><path d="M23,26c0-3,3-4,3-4a3.256,3.256,0,0,0-2.45,1.07A7.115,7.115,0,0,0,22,28c0,5,3,7,3,7l.08-.01A5.365,5.365,0,0,1,25,34V30A4.333,4.333,0,0,1,23,26Z" style="fill:#35383b"/><path d="M39,27v7a5.365,5.365,0,0,1-.08.99L39,35s3-2,3-7a3.491,3.491,0,0,1-1,2A14.385,14.385,0,0,1,39,27Z" style="fill:#35383b"/></g></svg>