<svg xmlns="http://www.w3.org/2000/svg" viewBox="0 0 64 64"><g id="_13-Hand_gel" data-name="13-Hand gel"><path d="M50,35s1-14,5-14h1a1,1,0,0,1,1,1V39h-.02c.02,4-.75,5.96-3.98,10l-5,5v9H28V58a5.992,5.992,0,0,0-1.2-3.6l-2.6-3.47a10.978,10.978,0,0,1-2.2-6.6V34L17.54,18.53A9.446,9.446,0,0,1,17,15.46a2.409,2.409,0,0,1,1.64-2.34,2.374,2.374,0,0,1,2.95,1.39L27,29,25.01,6.73a2.413,2.413,0,0,1,.74-1.94l.07-.07a2.6,2.6,0,0,1,2.61-.59,2.489,2.489,0,0,1,1.73,2.04l2.72,20.9a1.059,1.059,0,0,0,2.11-.14L35,4a2.971,2.971,0,0,1,2.38-2.95A3.059,3.059,0,0,1,41,4.06V25.5a1.5,1.5,0,0,0,3,0V8a3,3,0,0,1,6,0Z" style="fill:#fcd9c2"/><path d="M55.965,21H55c-3.418,0-4.646,10.223-4.93,13.2A.035.035,0,0,1,50,34.19V35a29.7,29.7,0,0,0-6.5,5.12,22.482,22.482,0,0,0-6.224,11.636A3.961,3.961,0,0,1,33.351,55H27.177A6.024,6.024,0,0,1,28,58.012v4.953a.035.035,0,0,0,.035.035h19.93A.035.035,0,0,0,48,62.965v-8.95a.039.039,0,0,1,.01-.025L53,49l0,0c3.229-4.039,4-6,3.979-10H57V22.035A1.038,1.038,0,0,0,55.965,21Z" style="fill:#fcceb0"/><path d="M30,34a2,2,0,0,0-2,2v5.212a1.969,1.969,0,0,0,1.539,1.942C35.3,44.341,37,52,37,52v.632a3.789,3.789,0,0,0,.276-.876A22.482,22.482,0,0,1,43.5,40.12,29.7,29.7,0,0,1,50,35V34Z" style="fill:#f5c8ab"/><path d="M56.4,21.1A1.994,1.994,0,0,0,55,23v2a1,1,0,0,0,2,0V22.035A1.036,1.036,0,0,0,56.4,21.1Z" style="fill:#ffe8da"/><path d="M38,25.355V3a2,2,0,0,0-1.145-1.8A3.029,3.029,0,0,0,35,4l-.01,22.93a1.051,1.051,0,0,1-.639.982L36.4,27.4A2.107,2.107,0,0,0,38,25.355Z" style="fill:#fcceb0"/><path d="M43.229,27A3.771,3.771,0,0,0,47,23.229V7a1.994,1.994,0,0,0-1.1-1.779A2.969,2.969,0,0,0,44,8V25.5a1.493,1.493,0,0,1-1,1.408V27Z" style="fill:#fcceb0"/><path d="M29.608,24.862,27.28,6.239a1.992,1.992,0,0,0-1.312-1.627c-.047.039-.1.064-.148.108l-.07.07a2.413,2.413,0,0,0-.74,1.94l1.967,22.01c0,.012-.009.016-.017.023L27,29A3.858,3.858,0,0,0,29.608,24.862Z" style="fill:#fcceb0"/><path d="M22.445,33.332a5.731,5.731,0,0,0,.669-4.991L18.828,15.484a1.98,1.98,0,0,0-1.48-1.311A2.509,2.509,0,0,0,17,15.46a9.446,9.446,0,0,0,.54,3.07L22,33.995V34h0Z" style="fill:#fcceb0"/><polygon points="36.84 22.66 39 24.84 34.68 29.19 32.52 27.01 32.53 27.01 36.84 22.66" style="fill:#42d1e0"/><polygon points="34.68 29.19 33.25 30.64 28.93 35 24.62 30.65 29.42 25.79 30.37 24.84 32.52 27.01 34.68 29.19" style="fill:#d5d8db"/><polygon points="19.58 12.49 22.46 15.4 20.3 17.57 22.46 19.75 19.58 22.66 17.42 20.48 15.26 22.66 12.39 19.75 14.54 17.57 12.39 15.4 15.26 12.49 17.42 14.67 19.58 12.49" style="fill:#f8fcff"/><path d="M33.25,19.03a2.071,2.071,0,0,1,0,2.9l-2.88,2.91-.95.95-4.81,4.85.01.01-2.88,2.9a2.028,2.028,0,0,1-2.88,0L1.6,16.12a2.052,2.052,0,0,1,0-2.9L13.1,1.6a2.028,2.028,0,0,1,2.88,0ZM22.46,15.4l-2.88-2.91-2.16,2.18-2.16-2.18L12.39,15.4l2.15,2.17-2.15,2.18,2.87,2.91,2.16-2.18,2.16,2.18,2.88-2.91L20.3,17.57Z" style="fill:#42d1e0"/><path d="M28.414,29.586l3.345-3.345-1.389-1.4-.95.95-4.8,4.86L28.93,35l1.03-1.04-1.546-1.546A2,2,0,0,1,28.414,29.586Z" style="fill:#adb2b8"/><polygon points="19.58 12.49 22.46 15.4 20.3 17.57 22.46 19.75 19.58 22.66 17.42 20.48 15.26 22.66 12.39 19.75 14.54 17.57 12.39 15.4 15.26 12.49 17.42 14.67 19.58 12.49" style="fill:#f8fcff"/><polygon points="19.58 12.49 17.42 14.67 15.26 12.49 12.39 15.4 14.54 17.57 12.39 19.75 15.26 22.66 17.42 20.48 19.58 22.66 22.46 19.75 20.3 17.57 22.46 15.4 19.58 12.49" style="fill:none"/><path d="M8.828,11.172l8.356-8.356L15.98,1.6a2.028,2.028,0,0,0-2.88,0L1.6,13.22a2.052,2.052,0,0,0,0,2.9L18.86,33.55a2.028,2.028,0,0,0,2.88,0l1.9-1.912L8.828,16.828A4,4,0,0,1,8.828,11.172Z" style="fill:#3ab8c6"/><rect x="30" y="45" width="8" height="3" rx="1.5" style="fill:#e8ae8b"/><path d="M38,42a4,4,0,0,1-8,0c0-2.209,3-6,4-6S38,39.791,38,42Z" style="fill:#24cfff"/><path d="M32,40a7.8,7.8,0,0,1,1.68-3.9C32.479,36.68,30,39.99,30,42a3.995,3.995,0,0,0,7.64,1.64A3.985,3.985,0,0,1,32,40Z" style="fill:#2eb7ee"/><polygon points="19 43 17 43 17 41 15 41 15 43 13 43 13 45 15 45 15 47 17 47 17 45 19 45 19 43" style="fill:#7ae2ff"/><polygon points="44 32 42 32 42 30 40 30 40 32 38 32 38 34 40 34 40 36 42 36 42 34 44 34 44 32" style="fill:#7ae2ff"/><ellipse cx="36" cy="41" rx="0.825" ry="1.148" transform="translate(-18.448 37.483) rotate(-45.02)" style="fill:#f6fafd"/></g></svg>