<svg xmlns="http://www.w3.org/2000/svg" viewBox="0 0 64 64"><g id="_02-Save" data-name="02-Save"><rect x="14" y="41" width="8" height="8" style="fill:#4492d4"/><polygon points="39 49 39 63 25 63 25 49 25 41 39 41 39 49" style="fill:#312a53"/><rect x="42" y="41" width="8" height="8" style="fill:#4492d4"/><path d="M15,57v5a1,1,0,0,1-1,1H2a1,1,0,0,1-1-1V57Z" style="fill:#f5b662"/><path d="M63,57v5a1,1,0,0,1-1,1H50a.99.99,0,0,1-1-1V57Z" style="fill:#f5b662"/><polygon points="52 9 52 18.97 46 12.95 46 9 52 9" style="fill:#f8fcff"/><polygon points="53 5 53 9 52 9 46 9 45 9 45 5 53 5" style="fill:#3ab8c6"/><path d="M11,26.15,8.85,28.33A2.245,2.245,0,0,1,7.24,29,2.2,2.2,0,0,1,5,26.83a6.5,6.5,0,0,0,0-1.917l22.87-22.92A14.621,14.621,0,0,1,31.99,1h.02A4.94,4.94,0,0,1,35.5,2.43L46,12.95l6,6.02,6.37,6.38A2.146,2.146,0,0,1,56.76,29a2.245,2.245,0,0,1-1.61-.67L53,26.15,35.5,8.45a4.949,4.949,0,0,0-7,0Z" style="fill:#3ab8c6"/><path d="M15,57H1a3.975,3.975,0,0,1,3.53-3.95,3.952,3.952,0,0,1,6.32-.83,3.67,3.67,0,0,1,.62.83A3.975,3.975,0,0,1,15,57Z" style="fill:#3ab8c6"/><path d="M63,57H49a3.975,3.975,0,0,1,3.53-3.95,3.67,3.67,0,0,1,.62-.83,3.952,3.952,0,0,1,6.32.83A3.975,3.975,0,0,1,63,57Z" style="fill:#3ab8c6"/><path d="M53,52V26.15L35.5,8.45a4.949,4.949,0,0,0-7,0L11,26.15V52l-.15.22a3.67,3.67,0,0,1,.62.83A3.975,3.975,0,0,1,15,57v5a1,1,0,0,1-1,1H25V41H39V63H49l.29-.29A1.014,1.014,0,0,1,49,62V57a3.975,3.975,0,0,1,3.53-3.95,3.67,3.67,0,0,1,.62-.83ZM14,49V41h8v8Zm36,0H42V41h8Z" style="fill:#f8fcff"/><path d="M16.33,49H14V41h2V21.093L11,26.15V52.393a3.658,3.658,0,0,1,.47.657A3.975,3.975,0,0,1,15,57v5a1,1,0,0,1-.669.933A3.992,3.992,0,0,0,15,63H25V59.064A14.009,14.009,0,0,1,16.33,49Z" style="fill:#e6eaed"/><path d="M49,62V60H39v3H49l.29-.29A1.014,1.014,0,0,1,49,62Z" style="fill:#e6eaed"/><path d="M35.5,8.45a4.949,4.949,0,0,0-7,0L16,21.093,11,26.15v6l5-5.057L28.5,14.45a4.949,4.949,0,0,1,7,0L53,32.15v-6Z" style="fill:#d5d8db"/><path d="M20,29H19a1.578,1.578,0,0,1-1-.284l0-.353A1.243,1.243,0,0,1,19,28h3V26H19c-1.682,0-3,1.023-3,2.33v.47c0,1.254,1.29,2.2,3,2.2h1a1.584,1.584,0,0,1,1,.283v.434A1.584,1.584,0,0,1,20,32H17v2h3c1.71,0,3-.946,3-2.2v-.6C23,29.946,21.71,29,20,29Z" style="fill:#2eb7ee"/><path d="M30,26H26a1,1,0,0,0-1,1v7h2V32h2v2h2V27A1,1,0,0,0,30,26Zm-3,4V28h2v2Z" style="fill:#2eb7ee"/><path d="M38,26.838l-1.5,4.5-1.5-4.5V26H33v1a1,1,0,0,0,.051.316l2,6A1,1,0,0,0,36,34h1a1,1,0,0,0,.949-.684l2-6A1,1,0,0,0,40,27V26H38Z" style="fill:#2eb7ee"/><path d="M47,28V26H42a1,1,0,0,0-1,1v6a1,1,0,0,0,1,1h5V32H43V31h3V29H43V28Z" style="fill:#2eb7ee"/><path d="M49,11h3V9H46v3.95l2,2.007V12A1,1,0,0,1,49,11Z" style="fill:#d5d8db"/><path d="M45,5V9h8V7H48a1,1,0,0,1-1-1V5Z" style="fill:#30a1ad"/><path d="M58.37,25.35l-1.859-1.861-.1.1a2,2,0,0,1-2.828,0L35.414,5.414a4.828,4.828,0,0,0-6.828,0L10.414,23.586a2,2,0,0,1-2.828,0l-.1-.1L5.63,25.35A2.055,2.055,0,0,0,5,26.83,2.2,2.2,0,0,0,7.24,29a2.245,2.245,0,0,0,1.61-.67L11,26.15,28.5,8.45a4.949,4.949,0,0,1,7,0L53,26.15l2.15,2.18a2.245,2.245,0,0,0,1.61.67A2.146,2.146,0,0,0,58.37,25.35Z" style="fill:#30a1ad"/><path d="M11.47,55.05a3.67,3.67,0,0,0-.62-.83,3.952,3.952,0,0,0-6.32.83A3.984,3.984,0,0,0,1.547,57H14.453A3.984,3.984,0,0,0,11.47,55.05Z" style="fill:#30a1ad"/><path d="M14,61H6a2,2,0,0,1-2-2V57H1v5a1,1,0,0,0,1,1H14a1,1,0,0,0,1-1V60A1,1,0,0,1,14,61Z" style="fill:#d28e43"/><path d="M59.47,55.05a3.67,3.67,0,0,0-.62-.83,3.952,3.952,0,0,0-6.32.83A3.984,3.984,0,0,0,49.547,57H62.453A3.984,3.984,0,0,0,59.47,55.05Z" style="fill:#30a1ad"/><path d="M62,61H54a2,2,0,0,1-2-2V57H49v5a1,1,0,0,0,1,1H62a1,1,0,0,0,1-1V60A1,1,0,0,1,62,61Z" style="fill:#d28e43"/><polygon points="42 49 50 49 42 41 42 49" style="fill:#4492d4"/><polygon points="50 41 46 41 50 45 50 41" style="fill:#4492d4"/><polygon points="46 41 42 41 50 49 50 45 46 41" style="fill:#52b0ff"/><polygon points="14 49 22 49 14 41 14 49" style="fill:#4492d4"/><polygon points="22 41 18 41 22 45 22 41" style="fill:#4492d4"/><polygon points="18 41 14 41 22 49 22 45 18 41" style="fill:#52b0ff"/><path d="M27,42H37a1,1,0,0,1,1,1V63a0,0,0,0,1,0,0H26a0,0,0,0,1,0,0V43A1,1,0,0,1,27,42Z" style="fill:#f5b662"/><path d="M38,43a1,1,0,0,0-1-1H27a1,1,0,0,0-1,1v3h8a1,1,0,0,1,1,1V63h3Z" style="fill:#d28e43"/></g></svg>