<svg xmlns="http://www.w3.org/2000/svg" viewBox="0 0 64 64"><g id="_08-Do_not_touch_eyes" data-name="08-Do not touch eyes"><path d="M41.61,13.49A3,3,0,0,1,36,12a3,3,0,0,1,6,0A3.118,3.118,0,0,1,41.61,13.49Z" style="fill:#f8fcff"/><path d="M35.67,5.02a13,13,0,1,1-1.34,0c.22-.01.45-.02.67-.02S35.45,5.01,35.67,5.02Zm5.94,8.47A3.118,3.118,0,0,0,42,12a3,3,0,0,0-5.37-1.83A7.9,7.9,0,0,0,35,10a7.995,7.995,0,1,0,6.61,3.49Z" style="fill:#7ae2ff"/><path d="M41.61,13.49A8,8,0,1,1,35,10a7.9,7.9,0,0,1,1.63.17A2.993,2.993,0,0,0,39,15,3.009,3.009,0,0,0,41.61,13.49Z" style="fill:#35383b"/><path d="M34.33,5.02A13,13,0,0,0,35,31c-10.87,0-17.32-3.73-20.24-7.82A9.541,9.541,0,0,1,14.04,22c0-.01-.01-.01-.01-.02A9.771,9.771,0,0,1,13,17.59V14.43C17.49,10.18,25.34,5.25,34.33,5.02Z" style="fill:#f8fcff"/><path d="M60.53,21.43C58.27,25.33,47.7,31,35,31a13,13,0,0,0,.67-25.98C49.72,5.35,61,16.31,61,20a2.839,2.839,0,0,1-.44,1.4C60.54,21.41,60.54,21.42,60.53,21.43Z" style="fill:#f8fcff"/><path d="M14.03,21.98,14,22H11a1.34,1.34,0,0,1-.2-.01,1.978,1.978,0,0,1-1.21-.58A1.955,1.955,0,0,1,9,20c0-.99,1.47-3.18,4-5.57v3.16A9.771,9.771,0,0,0,14.03,21.98Z" style="fill:#d18d64"/><path d="M13,14.43C10.47,16.82,9,19.01,9,20a1.955,1.955,0,0,0,.59,1.41,1.978,1.978,0,0,0,1.21.58C6.03,21.81,7,15,7,15S15.15,1,34.49,1A35.005,35.005,0,0,1,63,15a10.952,10.952,0,0,1-2.44,6.4A2.839,2.839,0,0,0,61,20C61,16.31,49.72,5.35,35.67,5.02,35.45,5.01,35.22,5,35,5s-.45.01-.67.02C25.34,5.25,17.49,10.18,13,14.43Z" style="fill:#edbd9f"/><path d="M60.56,21.4c-.02.01-.02.02-.03.03C58.27,25.33,47.7,31,35,31c-10.87,0-17.32-3.73-20.24-7.82A9.541,9.541,0,0,1,14.04,22c0-.01-.01-.01-.01-.02L14,22H11a1.34,1.34,0,0,1-.2-.01,3.491,3.491,0,0,1-3.231-2.16C9.122,25.115,18,34,35,34c27,0,28-19,28-19A10.952,10.952,0,0,1,60.56,21.4Z" style="fill:#edbd9f"/><path d="M22.143,16.169a36.575,36.575,0,0,1,5.59-1.5A7.993,7.993,0,0,1,35,10a7.9,7.9,0,0,1,1.63.17A3,3,0,0,1,42,12a3.118,3.118,0,0,1-.39,1.49,8,8,0,0,1,.6,1.043,53.433,53.433,0,0,1,5.573,1.118A12.994,12.994,0,0,0,35.67,5.02C35.45,5.01,35.22,5,35,5s-.45.01-.67.02A12.988,12.988,0,0,0,22.143,16.169Z" style="fill:#24cfff"/><path d="M36.808,14.038a2.974,2.974,0,0,1-.178-3.868A7.9,7.9,0,0,0,35,10a7.993,7.993,0,0,0-7.267,4.668A39.585,39.585,0,0,1,35,14C35.61,14,36.211,14.016,36.808,14.038Z" style="fill:#222426"/><path d="M40.861,14.355q.681.081,1.346.178a8,8,0,0,0-.6-1.043A3.047,3.047,0,0,1,40.861,14.355Z" style="fill:#222426"/><path d="M34.33,5.02c-8.99.23-16.84,5.16-21.33,9.41v3.16a9.861,9.861,0,0,0,.519,3.135,32.355,32.355,0,0,1,8.624-4.556A12.988,12.988,0,0,1,34.33,5.02Z" style="fill:#e6eaed"/><path d="M35.67,5.02A12.994,12.994,0,0,1,47.78,15.651,51.165,51.165,0,0,1,60.8,20.876,2.463,2.463,0,0,0,61,20C61,16.31,49.72,5.35,35.67,5.02Z" style="fill:#e6eaed"/><path d="M63,16a1,1,0,0,1-.837-.452A34.312,34.312,0,0,0,34.49,2q-1.59,0-3.175.135a33.8,33.8,0,0,0-5.924,1.039,31.532,31.532,0,0,0-12.41,6.581,45.7,45.7,0,0,0-4.472,4.5,7.668,7.668,0,0,0-.827.993c-.2.323-.494.586-.719.894.079-.108,0-.586.008-.73.006-.236,0-.478.009-.712A4.327,4.327,0,0,1,7.333,13.4a12.99,12.99,0,0,1,3.721-4.684A32.709,32.709,0,0,1,17.933,3.9a33.089,33.089,0,0,1,4.656-2A34.825,34.825,0,0,1,28.1.518,38.792,38.792,0,0,1,34.49,0C54.154,0,63.451,13.862,63.837,14.453A1,1,0,0,1,63,16Z" style="fill:#b37048"/><path d="M25,44c0-4,4-4,4-4V51c0,6-4,6-4,6v6H3V59c-2-3-2-5-2-5V38a3,3,0,0,1,6,0V37a3,3,0,0,1,6,0V35a3,3,0,0,1,6,0V26a3,3,0,0,1,6,0Z" style="fill:#f5c8ab"/><path d="M4.443,53.107h0A6.183,6.183,0,0,1,4,50.807V37a1.994,1.994,0,0,0-1.111-1.783A2.992,2.992,0,0,0,1,38V54s0,2,2,5v4H25V57H10.193A6.192,6.192,0,0,1,4.443,53.107Z" style="fill:#e8ae8b"/><path d="M20,44a2,2,0,0,0,2-2V25a1.993,1.993,0,0,0-1.108-1.781A2.984,2.984,0,0,0,19,26V44Z" style="fill:#e8ae8b"/><path d="M14,44a2,2,0,0,0,2-2V34a1.993,1.993,0,0,0-1.108-1.781A2.984,2.984,0,0,0,13,35v9Z" style="fill:#e8ae8b"/><path d="M27,49V40.5A3.6,3.6,0,0,0,25,44v7A2,2,0,0,0,27,49Z" style="fill:#e8ae8b"/><path d="M8,44a2,2,0,0,0,2-2V36a1.993,1.993,0,0,0-1.108-1.781A2.984,2.984,0,0,0,7,37v7Z" style="fill:#e8ae8b"/><path d="M22,28a2,2,0,0,0,2-2V23.776a2.958,2.958,0,0,0-4,0V26A2,2,0,0,0,22,28Z" style="fill:#ffe5d4"/><path d="M50.66,45.34A8,8,0,1,0,53,51,8.014,8.014,0,0,0,50.66,45.34Z" style="fill:#f8fcff"/><path d="M45,39a12,12,0,0,1,0,24H32l4.04-4.04A11.984,11.984,0,0,1,45,39Zm8,12a8,8,0,1,0-8,8A8.014,8.014,0,0,0,53,51Z" style="fill:#e6eaed"/><path d="M45,42a9,9,0,1,0,9,9A9.011,9.011,0,0,0,45,42Zm0,2a6.953,6.953,0,0,1,4.184,1.4L39.4,55.184A6.986,6.986,0,0,1,45,44Zm0,14a6.953,6.953,0,0,1-4.184-1.4L50.6,46.816A6.986,6.986,0,0,1,45,58Z" style="fill:#c2534c"/></g></svg>