<svg xmlns="http://www.w3.org/2000/svg" viewBox="0 0 64 64"><g id="_12-Do_not_shake_hands" data-name="12-Do not shake hands"><path d="M51,27,35.58,23.14A5.215,5.215,0,0,0,34.4,23H33.15a4.909,4.909,0,0,0-2.17.51l-1.19.6A3.21,3.21,0,0,0,28,27h5l4,3,5.28,4.4A1.985,1.985,0,0,1,43,35.94,2.057,2.057,0,0,1,40.94,38H39.78a3,3,0,0,1-1.46-.38L30,33l-6.1,4.95-9.08,7.38A2.251,2.251,0,0,0,14,47v.77a2.228,2.228,0,0,0,3.61,1.75l.4-.3A2.987,2.987,0,0,0,21,52h1.09a2.971,2.971,0,0,0,.98-.17,3.86,3.86,0,0,0,5.88,2.56l.05-.03,7-4.45A1.984,1.984,0,0,1,37.98,48H39.4a2.054,2.054,0,0,1,1.1.33l.12.08A1.95,1.95,0,0,1,40,46.98,1.985,1.985,0,0,1,41.98,45H43.4a2.054,2.054,0,0,1,1.1.33l4.62,3.08.02-.02-5.31-3.8A1.979,1.979,0,0,1,44.98,41H46.4a2.054,2.054,0,0,1,1.1.33l4.62,3.08a1.982,1.982,0,0,1,.54.54L57,41h6V27Z" style="fill:#fcd9c2"/><path d="M42.83,57.55A2.2,2.2,0,0,1,40.73,59h-.62a2.25,2.25,0,0,1-1.57-.62l-2.89-2.76a1.538,1.538,0,0,1-.12-.13A2.063,2.063,0,0,1,35,54.12,2.17,2.17,0,0,1,37.22,52h.19l5.07,3.63a2.755,2.755,0,0,0,.29.17,2.022,2.022,0,0,1,.12,1.6Z" style="fill:#d18d64"/><path d="M52.12,44.41A1.994,1.994,0,0,1,53,46.06v.96A1.985,1.985,0,0,1,51.02,49h-.39a1.993,1.993,0,0,1-1.15-.37l-.34-.24-5.31-3.8A1.979,1.979,0,0,1,44.98,41H46.4a2.054,2.054,0,0,1,1.1.33Z" style="fill:#d18d64"/><path d="M50,51.02A1.985,1.985,0,0,1,48.02,53h-.39a1.993,1.993,0,0,1-1.15-.37l-.71-.5-.01-.01a1.98,1.98,0,0,0-.64-.71l-4.5-3A1.95,1.95,0,0,1,40,46.98,1.985,1.985,0,0,1,41.98,45H43.4a2.054,2.054,0,0,1,1.1.33l4.62,3.08A1.991,1.991,0,0,1,50,50.06Z" style="fill:#d18d64"/><path d="M42.48,55.63,37.41,52l-.58-.41A1.976,1.976,0,0,1,36,49.98v-.07A1.984,1.984,0,0,1,37.98,48H39.4a2.054,2.054,0,0,1,1.1.33l.12.08,4.5,3a1.98,1.98,0,0,1,.64.71l.01.01a1.97,1.97,0,0,1,.23.93v.96A1.985,1.985,0,0,1,44.02,56h-.39a1.973,1.973,0,0,1-.86-.2A2.755,2.755,0,0,1,42.48,55.63Z" style="fill:#d18d64"/><path d="M36.83,51.59l.58.41h-.19A2.17,2.17,0,0,0,35,54.12a2.063,2.063,0,0,0,.53,1.37L32.47,56.8a2.525,2.525,0,0,1-.98.2A2.484,2.484,0,0,1,29,54.51v-.15l7-4.45v.07A1.976,1.976,0,0,0,36.83,51.59Z" style="fill:#fcd9c2"/><path d="M23.07,51.83a3.26,3.26,0,0,1-.07-.7v0a3.26,3.26,0,0,0,.07.7,3.119,3.119,0,0,0,.69-.33L35,44l-.192-.192a3.02,3.02,0,0,0-3.889-.322l-9.851,7.037a2.987,2.987,0,0,1-2.27.5A2.974,2.974,0,0,0,21,52h1.09A2.971,2.971,0,0,0,23.07,51.83Z" style="fill:#f5c8ab"/><path d="M25.354,53.139a2,2,0,0,1-1.621.236A3.844,3.844,0,0,0,28.95,54.39l.05-.03,7-4.45A1.984,1.984,0,0,1,37.98,48H39.4a2.054,2.054,0,0,1,1.1.33l.12.08A1.952,1.952,0,0,1,40,47H37.071a3.99,3.99,0,0,0-2,.535Z" style="fill:#f5c8ab"/><path d="M27.2,38.274,16.109,47.286A1.989,1.989,0,0,1,14,47.538v.232a2.228,2.228,0,0,0,3.61,1.75l.4-.3A1.62,1.62,0,0,1,18,49a1.62,1.62,0,0,0,.01.22L32,39A3.28,3.28,0,0,0,27.2,38.274Z" style="fill:#f5c8ab"/><path d="M36.83,51.59A1.976,1.976,0,0,1,36,49.98v-.07l-3.069,1.951.241.482a2,2,0,0,1-.76,2.61L31.33,55.6a2,2,0,0,1-2.079-.016A2.478,2.478,0,0,0,31.49,57a2.525,2.525,0,0,0,.98-.2l3.06-1.31A2.063,2.063,0,0,1,35,54.12,2.17,2.17,0,0,1,37.22,52h.19Z" style="fill:#f5c8ab"/><path d="M39.817,41a2.7,2.7,0,0,0,2.66-3.14L42.4,37.4a2.05,2.05,0,0,1-1.459.6H39.78a3,3,0,0,1-1.46-.38L30,33l-1.353,1.1,9.674,6.449A2.7,2.7,0,0,0,39.817,41Z" style="fill:#f5c8ab"/><path d="M40.592,57.768l-5.317-4.652a2.028,2.028,0,0,0-.275,1,2.063,2.063,0,0,0,.53,1.37,1.538,1.538,0,0,0,.12.13l2.89,2.76a2.25,2.25,0,0,0,1.57.62h.62a2.245,2.245,0,0,0,1.75-.829A1.991,1.991,0,0,1,40.592,57.768Z" style="fill:#bd7f5a"/><path d="M44.191,54.734l-7.344-5.141a.982.982,0,0,1-.408-.844A1.978,1.978,0,0,0,36,49.91v.07a1.976,1.976,0,0,0,.83,1.61l.58.41,5.07,3.63a2.755,2.755,0,0,0,.29.17,1.973,1.973,0,0,0,.86.2h.39a1.978,1.978,0,0,0,1.772-1.116A1.631,1.631,0,0,1,44.191,54.734Z" style="fill:#bd7f5a"/><path d="M49.555,51.168a1,1,0,0,1-1.387.277l-6.5-4.336a1.994,1.994,0,0,1-.887-1.689A1.971,1.971,0,0,0,40,46.98a1.95,1.95,0,0,0,.62,1.43l4.5,3a1.98,1.98,0,0,1,.64.71l.01.01.71.5a1.993,1.993,0,0,0,1.15.37h.39A1.985,1.985,0,0,0,50,51.02V50.5Z" style="fill:#bd7f5a"/><path d="M50.46,46.974l-6.628-4.419a.98.98,0,0,1-.426-.761,1.96,1.96,0,0,0,.424,2.8l5.31,3.8.34.24a1.993,1.993,0,0,0,1.15.37h.39A1.985,1.985,0,0,0,53,47.02v-.96c0-.067-.023-.129-.029-.2a1.609,1.609,0,0,1-2.511,1.109Z" style="fill:#bd7f5a"/><path d="M24.444,33.464l-3.575,2.978a.18.18,0,0,0,.021.008l3.01,1.5L30,33H25.724A2,2,0,0,0,24.444,33.464Z" style="fill:#c4845e"/><path d="M37.526,55.542l.006-.006a1.537,1.537,0,0,0,0-2.209l-1.183-1.158A2.12,2.12,0,0,0,35,54.12a2.063,2.063,0,0,0,.53,1.37,1.538,1.538,0,0,0,.12.13l.336.321A1.616,1.616,0,0,0,37.526,55.542Z" style="fill:#db9469"/><path d="M39.037,51.445a1.532,1.532,0,0,0-.59-2.221L36.8,48.4a1.976,1.976,0,0,0-.8,1.51v.07a1.976,1.976,0,0,0,.83,1.61l.58.41.158.113A1.528,1.528,0,0,0,39.037,51.445Z" style="fill:#db9469"/><path d="M43.037,48.445a1.532,1.532,0,0,0-.59-2.221L40.8,45.4a1.975,1.975,0,0,0-.8,1.58,1.95,1.95,0,0,0,.62,1.43l1.062.708A1.523,1.523,0,0,0,43.037,48.445Z" style="fill:#db9469"/><path d="M46.037,44.445a1.532,1.532,0,0,0-.59-2.221L43.8,41.4a1.968,1.968,0,0,0,.03,3.19l.728.521A1.529,1.529,0,0,0,46.037,44.445Z" style="fill:#db9469"/><path d="M42.28,34.4,37,30l-4-3H22l-5,1H1v9H8l3-1h8a4.116,4.116,0,0,1,1.869.442l3.575-2.978A2,2,0,0,1,25.724,33H30l8.32,4.62a3,3,0,0,0,1.46.38h1.16A2.057,2.057,0,0,0,43,35.94,1.985,1.985,0,0,0,42.28,34.4Z" style="fill:#d18d64"/><path d="M56,27a3,3,0,0,1,3,3v5a3,3,0,0,1-3,3h-.095a5.264,5.264,0,0,0-3.369,1.22l-3.645,3.037L52.12,44.41a1.982,1.982,0,0,1,.54.54L57,41h6V27Z" style="fill:#f5c8ab"/><path d="M20.89,36.45A4.112,4.112,0,0,0,19,36H11L8,37H1v4H8l6,6a2.251,2.251,0,0,1,.82-1.67l9.08-7.38Z" style="fill:#bd7f5a"/><path d="M42.28,34.4l-2.494-2.079-.529.794a2,2,0,0,0,.769,2.9l.685.342A2,2,0,0,0,42.994,36c0-.02.006-.039.006-.059A1.985,1.985,0,0,0,42.28,34.4Z" style="fill:#e69b6e"/><path d="M32,5A16,16,0,1,1,16,21,16,16,0,0,1,32,5ZM44,21a11.947,11.947,0,0,0-2.23-6.95L34.83,21l6.94,6.95A11.947,11.947,0,0,0,44,21ZM32,18.17l6.95-6.94a11.945,11.945,0,0,0-13.9,0Zm6.95,12.6L32,23.83l-6.95,6.94a11.945,11.945,0,0,0,13.9,0ZM29.17,21l-6.94-6.95a11.937,11.937,0,0,0-.57,13.02c.18.3.37.6.57.88l.95-.95Z" style="fill:#c2534c"/><path d="M21.284,32a2,2,0,0,1-1.532-.713,15.978,15.978,0,0,1,0-20.574,2,2,0,1,1,3.062,2.574,11.977,11.977,0,0,0,0,15.426A2,2,0,0,1,21.284,32Z" style="fill:#d4665f"/><path d="M42.716,32a2,2,0,0,1-1.53-3.287,11.977,11.977,0,0,0,0-15.426,2,2,0,0,1,3.062-2.574,15.978,15.978,0,0,1,0,20.574A2,2,0,0,1,42.716,32Z" style="fill:#d4665f"/></g></svg>