<svg xmlns="http://www.w3.org/2000/svg" viewBox="0 0 64 64"><g id="_09-Do_not_touch_nose" data-name="09-Do not touch nose"><path d="M15.39,43.61,15,44a9.507,9.507,0,0,1-4.67,1A9.776,9.776,0,0,1,6,44c0-3.25,5.94-3.86,8.17-3.97A11.934,11.934,0,0,0,15.39,43.61Z" style="fill:#e8ae8b"/><path d="M42,44a9.776,9.776,0,0,1-4.33,1A9.507,9.507,0,0,1,33,44l-.39-.39a11.934,11.934,0,0,0,1.22-3.58C36.06,40.14,42,40.75,42,44Z" style="fill:#e8ae8b"/><path d="M33.83,40.03a11.934,11.934,0,0,1-1.22,3.58A9.86,9.86,0,0,1,24,49a9.86,9.86,0,0,1-8.61-5.39,11.934,11.934,0,0,1-1.22-3.58C11.94,40.14,6,40.75,6,44a8.765,8.765,0,0,1-5-7.8,13.474,13.474,0,0,1,.45-2.93,9.181,9.181,0,0,1,1.56-3.26c1.88-2.54,6-5.42,8.35-10.43a6.789,6.789,0,0,0,.43-1.26c1.29-4.92,1.65-16.34,1.65-16.34V1H34.56v.98s.36,11.42,1.65,16.34a6.789,6.789,0,0,0,.43,1.26c2.35,5.01,6.47,7.89,8.35,10.43a9.181,9.181,0,0,1,1.56,3.26A13.474,13.474,0,0,1,47,36.2,8.765,8.765,0,0,1,42,44C42,40.75,36.06,40.14,33.83,40.03Z" style="fill:#fcd9c2"/><path d="M14,40.04V35.093a11.9,11.9,0,0,1,1.237-5.3A25.125,25.125,0,0,0,18,19V1H13.44v.98s-.36,11.42-1.65,16.34a6.789,6.789,0,0,1-.43,1.26c-2.35,5.01-6.47,7.89-8.35,10.43a9.181,9.181,0,0,0-1.56,3.26A13.474,13.474,0,0,0,1,36.2,8.765,8.765,0,0,0,6,44C6,40.825,11.659,40.171,14,40.04Z" style="fill:#f5c8ab"/><path d="M46.55,33.27a9.181,9.181,0,0,0-1.56-3.26c-1.88-2.54-6-5.42-8.35-10.43a6.789,6.789,0,0,1-.43-1.26C34.92,13.4,34.56,1.98,34.56,1.98V1H30V19a25.125,25.125,0,0,0,2.763,10.79A11.9,11.9,0,0,1,34,35.093V40.04c2.341.131,8,.785,8,3.96a8.765,8.765,0,0,0,5-7.8A13.474,13.474,0,0,0,46.55,33.27Z" style="fill:#f5c8ab"/><path d="M1,36.129,1,36.2A8.765,8.765,0,0,0,6,44c0-3.175,5.659-3.829,8-3.96v-4.8c-1.678.438-5.092,1.5-7.2,3.344A3.487,3.487,0,0,1,1,36.129Z" style="fill:#f5bc98"/><path d="M41.2,38.582c-2.109-1.845-5.523-2.906-7.2-3.344v4.8c2.341.131,8,.785,8,3.96a8.765,8.765,0,0,0,5-7.8l0-.071A3.487,3.487,0,0,1,41.2,38.582Z" style="fill:#f5bc98"/><path d="M27,.16C26.012.065,25.014,0,24,0s-2.012.065-3,.16V1h6Z" style="fill:#ffe8da"/><path d="M21,1V36a3,3,0,0,0,6,0V1Z" style="fill:#ffe8da"/><ellipse cx="20" cy="42" rx="1.65" ry="2.297" transform="translate(-23.846 26.459) rotate(-45.02)" style="fill:#f6fafd"/><path d="M44,39c-4,0-4-4-4-4H51c6,0,6,4,6,4h6V61H59c-3,2-5,2-5,2H38a3,3,0,0,1,0-6H37a3,3,0,0,1,0-6H35a3,3,0,0,1,0-6H26a3,3,0,0,1,0-6Z" style="fill:#f5c8ab"/><path d="M53.107,59.557h0a6.183,6.183,0,0,1-2.3.443H37a1.994,1.994,0,0,0-1.783,1.111A2.992,2.992,0,0,0,38,63H54s2,0,5-2h4V39H57V53.807A6.192,6.192,0,0,1,53.107,59.557Z" style="fill:#e8ae8b"/><path d="M44,44a2,2,0,0,0-2-2H25a1.993,1.993,0,0,0-1.781,1.108A2.984,2.984,0,0,0,26,45H44Z" style="fill:#e8ae8b"/><path d="M44,50a2,2,0,0,0-2-2H34a1.993,1.993,0,0,0-1.781,1.108A2.984,2.984,0,0,0,35,51h9Z" style="fill:#e8ae8b"/><path d="M49,37H40.5A3.6,3.6,0,0,0,44,39h7A2,2,0,0,0,49,37Z" style="fill:#e8ae8b"/><path d="M44,56a2,2,0,0,0-2-2H36a1.993,1.993,0,0,0-1.781,1.108A2.984,2.984,0,0,0,37,57h7Z" style="fill:#e8ae8b"/><path d="M28,42a2,2,0,0,0-2-2H23.776a2.958,2.958,0,0,0,0,4H26A2,2,0,0,0,28,42Z" style="fill:#ffe5d4"/><path d="M56.66,7.34A8,8,0,1,0,59,13,8.014,8.014,0,0,0,56.66,7.34Z" style="fill:#f8fcff"/><path d="M51,1a12,12,0,0,1,0,24H38l4.04-4.04A11.984,11.984,0,0,1,51,1Zm8,12a8,8,0,1,0-8,8A8.014,8.014,0,0,0,59,13Z" style="fill:#e6eaed"/><path d="M51,4a9,9,0,1,0,9,9A9.011,9.011,0,0,0,51,4Zm0,2a6.953,6.953,0,0,1,4.184,1.4L45.4,17.184A6.986,6.986,0,0,1,51,6Zm0,14a6.953,6.953,0,0,1-4.184-1.4L56.6,8.816A6.986,6.986,0,0,1,51,20Z" style="fill:#c2534c"/></g></svg>