<svg xmlns="http://www.w3.org/2000/svg" viewBox="0 0 64 64"><g id="_27-Lung" data-name="27-Lung"><path d="M35,23.83l3.82,3.19A3.253,3.253,0,0,1,40,29.53a1.47,1.47,0,0,1-2.41,1.13L35,28.5,32,26l-3,2.5-2.59,2.16A1.47,1.47,0,0,1,24,29.53a3.253,3.253,0,0,1,1.18-2.51L29,23.83,30,23V1h4V23Z" style="fill:#babcbd"/><path d="M24,29.53a1.47,1.47,0,0,0,2.41,1.13L29,28.5V46.62A6.2,6.2,0,0,1,23,53H17a6.2,6.2,0,0,1-6-6.38V42.37C11,34.16,17.27,19,25,19a3.926,3.926,0,0,1,2.83,1.24A4.411,4.411,0,0,1,29,23.25v.58l-3.82,3.19A3.253,3.253,0,0,0,24,29.53Z" style="fill:#e0756e"/><path d="M38.53,31A1.472,1.472,0,0,0,40,29.53a3.253,3.253,0,0,0-1.18-2.51L35,23.83v-.58a4.411,4.411,0,0,1,1.17-3.01A3.926,3.926,0,0,1,39,19c7.73,0,14,15.16,14,23.37v4.25A6.2,6.2,0,0,1,47,53H41a6.2,6.2,0,0,1-6-6.38V28.5l2.59,2.16A1.487,1.487,0,0,0,38.53,31Z" style="fill:#e0756e"/><path d="M36.17,20.24A4.411,4.411,0,0,0,35,23.25v.58L34,23V1h6V8.23a3.977,3.977,0,0,0,2.6,3.74l3.36,1.27a12.159,12.159,0,0,0,4.22.76H51A12,12,0,0,1,63,26V63H1V26A12,12,0,0,1,13,14h.82a12.159,12.159,0,0,0,4.22-.76l3.36-1.27A3.977,3.977,0,0,0,24,8.23V1h6V23l-1,.83v-.58a4.411,4.411,0,0,0-1.17-3.01A3.926,3.926,0,0,0,25,19c-7.73,0-14,15.16-14,23.37v4.25A6.2,6.2,0,0,0,17,53h6a6.2,6.2,0,0,0,6-6.38V28.5L32,26l3,2.5V46.62A6.2,6.2,0,0,0,41,53h6a6.2,6.2,0,0,0,6-6.38V42.37C53,34.16,46.73,19,39,19A3.926,3.926,0,0,0,36.17,20.24Z" style="fill:#fcd9c2"/><path d="M6.16,29.31,5,27V55a2,2,0,0,1-4,0v8H7V32.89A8.081,8.081,0,0,0,6.16,29.31Z" style="fill:#f5c4a4"/><path d="M61,57a2,2,0,0,1-2-2V27l-1.16,2.31A8.081,8.081,0,0,0,57,32.89V63h6V55A2,2,0,0,1,61,57Z" style="fill:#f5c4a4"/><path d="M30,10.887V1H24V9A14.544,14.544,0,0,0,30,10.887Z" style="fill:#f5c8ab"/><path d="M34,10.887A14.544,14.544,0,0,0,40,9V1H34Z" style="fill:#f5c8ab"/><path d="M30,10.887A18.164,18.164,0,0,0,32,11a18.164,18.164,0,0,0,2-.113V1H30Z" style="fill:#a8aaab"/><path d="M20,49H16a5,5,0,0,1-5-5v2.62A6.2,6.2,0,0,0,17,53h6a6.2,6.2,0,0,0,6-6.38V28.5l-2.59,2.16a1.487,1.487,0,0,1-.94.34,1.465,1.465,0,0,1-.47-.084V44A5,5,0,0,1,20,49Z" style="fill:#d4665f"/><path d="M48,49H44a5,5,0,0,1-5-5V30.916a1.465,1.465,0,0,1-.47.084,1.487,1.487,0,0,1-.94-.34L35,28.5V46.62A6.2,6.2,0,0,0,41,53h6a6.2,6.2,0,0,0,6-6.38V44A5,5,0,0,1,48,49Z" style="fill:#d4665f"/><circle cx="42.5" cy="22.5" r="0.5" style="fill:#2494a1"/><circle cx="32.5" cy="15.5" r="0.5" style="fill:#2494a1"/><circle cx="28.5" cy="25.5" r="0.5" style="fill:#2494a1"/><circle cx="27.5" cy="28.5" r="0.5" style="fill:#2494a1"/><circle cx="36.5" cy="26.5" r="0.5" style="fill:#2494a1"/><circle cx="31.5" cy="7.5" r="0.5" style="fill:#2494a1"/><circle cx="44.5" cy="24.5" r="0.5" style="fill:#2494a1"/><circle cx="48.5" cy="40.5" r="0.5" style="fill:#2494a1"/><circle cx="40.5" cy="39.5" r="0.5" style="fill:#e0756e"/><circle cx="43.5" cy="46.5" r="0.5" style="fill:#2494a1"/><circle cx="42" cy="25" r="1" style="fill:#2494a1"/><circle cx="49" cy="38" r="1" style="fill:#2494a1"/><circle cx="21.5" cy="22.5" r="0.5" style="fill:#2494a1"/><circle cx="19.5" cy="24.5" r="0.5" style="fill:#2494a1"/><circle cx="15.5" cy="40.5" r="0.5" style="fill:#2494a1"/><circle cx="23.5" cy="39.5" r="0.5" style="fill:#2494a1"/><circle cx="20.5" cy="46.5" r="0.5" style="fill:#2494a1"/><circle cx="22" cy="25" r="1" style="fill:#2494a1"/><circle cx="15" cy="40" r="1" style="fill:#2494a1"/><circle cx="41" cy="37" r="2" style="fill:#2494a1"/><path d="M44,36.5h-.551a2.474,2.474,0,0,0-.366-.876l.392-.392a.5.5,0,0,0-.707-.707l-.392.392a2.474,2.474,0,0,0-.876-.366V34a.5.5,0,0,0-1,0v.551a2.474,2.474,0,0,0-.876.366l-.392-.392a.5.5,0,0,0-.707.707l.392.392a2.474,2.474,0,0,0-.366.876H38a.5.5,0,0,0,0,1h.551a2.474,2.474,0,0,0,.366.876l-.392.392a.5.5,0,0,0,.707.707l.392-.392a2.474,2.474,0,0,0,.876.366V40a.5.5,0,0,0,1,0v-.551a2.474,2.474,0,0,0,.876-.366l.392.392a.5.5,0,0,0,.707-.707l-.392-.392a2.474,2.474,0,0,0,.366-.876H44a.5.5,0,0,0,0-1Zm-3,2A1.5,1.5,0,1,1,42.5,37,1.5,1.5,0,0,1,41,38.5Z" style="fill:#3ab8c6"/><circle cx="46" cy="47" r="2" style="fill:#2494a1"/><path d="M49,46.5h-.551a2.474,2.474,0,0,0-.366-.876l.392-.392a.5.5,0,0,0-.707-.707l-.392.392a2.474,2.474,0,0,0-.876-.366V44a.5.5,0,0,0-1,0v.551a2.474,2.474,0,0,0-.876.366l-.392-.392a.5.5,0,0,0-.707.707l.392.392a2.474,2.474,0,0,0-.366.876H43a.5.5,0,0,0,0,1h.551a2.474,2.474,0,0,0,.366.876l-.392.392a.5.5,0,0,0,.707.707l.392-.392a2.474,2.474,0,0,0,.876.366V50a.5.5,0,0,0,1,0v-.551a2.474,2.474,0,0,0,.876-.366l.392.392a.5.5,0,0,0,.707-.707l-.392-.392a2.474,2.474,0,0,0,.366-.876H49a.5.5,0,0,0,0-1Zm-3,2A1.5,1.5,0,1,1,47.5,47,1.5,1.5,0,0,1,46,48.5Z" style="fill:#3ab8c6"/><circle cx="24" cy="41" r="2" style="fill:#2494a1"/><path d="M27,40.5h-.551a2.474,2.474,0,0,0-.366-.876l.392-.392a.5.5,0,0,0-.707-.707l-.392.392a2.474,2.474,0,0,0-.876-.366V38a.5.5,0,0,0-1,0v.551a2.474,2.474,0,0,0-.876.366l-.392-.392a.5.5,0,0,0-.707.707l.392.392a2.474,2.474,0,0,0-.366.876H21a.5.5,0,0,0,0,1h.551a2.474,2.474,0,0,0,.366.876l-.392.392a.5.5,0,0,0,.707.707l.392-.392a2.474,2.474,0,0,0,.876.366V44a.5.5,0,0,0,1,0v-.551a2.474,2.474,0,0,0,.876-.366l.392.392a.5.5,0,0,0,.707-.707l-.392-.392a2.474,2.474,0,0,0,.366-.876H27a.5.5,0,0,0,0-1Zm-3,2A1.5,1.5,0,1,1,25.5,41,1.5,1.5,0,0,1,24,42.5Z" style="fill:#3ab8c6"/><circle cx="17" cy="47" r="2" style="fill:#2494a1"/><path d="M20,46.5h-.551a2.474,2.474,0,0,0-.366-.876l.392-.392a.5.5,0,0,0-.707-.707l-.392.392a2.474,2.474,0,0,0-.876-.366V44a.5.5,0,0,0-1,0v.551a2.474,2.474,0,0,0-.876.366l-.392-.392a.5.5,0,0,0-.707.707l.392.392a2.474,2.474,0,0,0-.366.876H14a.5.5,0,0,0,0,1h.551a2.474,2.474,0,0,0,.366.876l-.392.392a.5.5,0,0,0,.707.707l.392-.392a2.474,2.474,0,0,0,.876.366V50a.5.5,0,0,0,1,0v-.551a2.474,2.474,0,0,0,.876-.366l.392.392a.5.5,0,0,0,.707-.707l-.392-.392a2.474,2.474,0,0,0,.366-.876H20a.5.5,0,0,0,0-1Zm-3,2A1.5,1.5,0,1,1,18.5,47,1.5,1.5,0,0,1,17,48.5Z" style="fill:#3ab8c6"/><circle cx="19" cy="33" r="2" style="fill:#2494a1"/><path d="M22,32.5h-.551a2.474,2.474,0,0,0-.366-.876l.392-.392a.5.5,0,0,0-.707-.707l-.392.392a2.474,2.474,0,0,0-.876-.366V30a.5.5,0,0,0-1,0v.551a2.474,2.474,0,0,0-.876.366l-.392-.392a.5.5,0,0,0-.707.707l.392.392a2.474,2.474,0,0,0-.366.876H16a.5.5,0,0,0,0,1h.551a2.474,2.474,0,0,0,.366.876l-.392.392a.5.5,0,0,0,.707.707l.392-.392a2.474,2.474,0,0,0,.876.366V36a.5.5,0,0,0,1,0v-.551a2.474,2.474,0,0,0,.876-.366l.392.392a.5.5,0,0,0,.707-.707l-.392-.392a2.474,2.474,0,0,0,.366-.876H22a.5.5,0,0,0,0-1Zm-3,2A1.5,1.5,0,1,1,20.5,33,1.5,1.5,0,0,1,19,34.5Z" style="fill:#3ab8c6"/><circle cx="24" cy="48" r="1" style="fill:#2494a1"/><circle cx="15" cy="40" r="1" style="fill:#2494a1"/><circle cx="22" cy="25" r="1" style="fill:#2494a1"/><circle cx="44" cy="29" r="1" style="fill:#2494a1"/><circle cx="39" cy="46" r="1" style="fill:#2494a1"/><circle cx="32" cy="18" r="1" style="fill:#2494a1"/><circle cx="38" cy="28" r="1" style="fill:#2494a1"/></g></svg>