<svg xmlns="http://www.w3.org/2000/svg" viewBox="0 0 64 64"><g id="_14-Hand_gel" data-name="14-Hand gel"><circle cx="8" cy="56" r="3" style="fill:#f8fcff"/><polygon points="17 4 17 8 11 8 8 8 8 4 17 4" style="fill:#d0d3d6"/><polygon points="19 8 19 11 11 11 11 8 17 8 19 8" style="fill:#959a9e"/><polygon points="22 11 22 15 8 15 8 11 11 11 19 11 22 11" style="fill:#d0d3d6"/><polygon points="17 4 8 4 8 1 37 1 37 7 34 7 34 4 17 4" style="fill:#7ae2ff"/><path d="M13,29h4V26h3V22H17V19H13v3H10v4h3Zm16,8c-11,0-13-6-20-6s-8,2-8,2V17a2.006,2.006,0,0,1,2-2H27a2.006,2.006,0,0,1,2,2Z" style="fill:#f3f7fa"/><path d="M40,17a4,4,0,0,1-8,0c0-2.21,3-6,4-6S40,14.79,40,17Z" style="fill:#7ae2ff"/><path d="M34,15a7.8,7.8,0,0,1,1.68-3.9c-1.2.583-3.68,3.891-3.68,5.9a4,4,0,0,0,7.641,1.641A3.987,3.987,0,0,1,34,15Z" style="fill:#24cfff"/><path d="M29,49V61a2.006,2.006,0,0,1-2,2H3a2.006,2.006,0,0,1-2-2V33s1-2,8-2,9,6,20,6ZM15,49a2,2,0,1,0-2,2A2.006,2.006,0,0,0,15,49Zm-4,7a3,3,0,1,0-3,3A3,3,0,0,0,11,56Z" style="fill:#7ae2ff"/><path d="M5,56a2.995,2.995,0,0,0,5.7,1.283A8.025,8.025,0,0,1,6.717,53.3,2.988,2.988,0,0,0,5,56Z" style="fill:#e6eaed"/><path d="M6,31.151V17a2,2,0,0,1,2-2H3a2.006,2.006,0,0,0-2,2V33S1.709,31.613,6,31.151Z" style="fill:#e6eaed"/><path d="M27,58H14a7.963,7.963,0,0,1-3.3-.717A2.995,2.995,0,1,1,6.717,53.3,7.963,7.963,0,0,1,6,50V31.151C1.709,31.613,1,33,1,33V61a2.006,2.006,0,0,0,2,2H27a2.006,2.006,0,0,0,2-2V56A2,2,0,0,1,27,58Z" style="fill:#24cfff"/><path d="M26,22a2,2,0,0,0-2,2v2a2,2,0,0,0,4,0V24A2,2,0,0,0,26,22Z" style="fill:#fff"/><path d="M28,34a2,2,0,0,0-4,0v2.507a23.692,23.692,0,0,0,4,.459Z" style="fill:#fff"/><path d="M26,44a2,2,0,0,0,2-2V36.966a23.692,23.692,0,0,1-4-.459V42A2,2,0,0,0,26,44Z" style="fill:#80f2ff"/><path d="M15.86,41a2.266,2.266,0,0,1-.3-.333A1.735,1.735,0,0,0,15,42a2.62,2.62,0,0,0,.86,2L29,52.067v-3Z" style="fill:#2eb7ee"/><rect x="13" y="17" width="4" height="43" style="fill:#dbe1e6"/><path d="M15,49a2.006,2.006,0,0,1-2,2v9h4V33.723a29.838,29.838,0,0,0-4-1.984V47A2.006,2.006,0,0,1,15,49Z" style="fill:#2eb7ee"/><polygon points="20 22 20 26 17 26 17 29 13 29 13 26 10 26 10 22 13 22 13 19 17 19 17 22 20 22" style="fill:#4492d4"/><circle cx="13" cy="49" r="2" style="fill:#f8fcff"/><path d="M34.1,44a2.57,2.57,0,0,1-2.63-2.5,2.418,2.418,0,0,1,.77-1.77A2.721,2.721,0,0,1,34.1,39H48.04a7.479,7.479,0,0,1,5.14,2.02L63,51V63L51.29,52H37.33a10.68,10.68,0,0,1-6.81-2L15.86,41A2.62,2.62,0,0,1,15,39a1.729,1.729,0,0,1,.78-1.52A3.405,3.405,0,0,1,17.67,37h.06a5.959,5.959,0,0,1,3.58,1.18A82.612,82.612,0,0,0,31.38,44Z" style="fill:#fcd9c2"/><path d="M34.1,44H45a2.75,2.75,0,0,0-3-2.4H33a2.227,2.227,0,0,1-1.484-.537,2.435,2.435,0,0,0-.046.437A2.57,2.57,0,0,0,34.1,44Z" style="fill:#edbd9f"/><path d="M37.33,49a10.68,10.68,0,0,1-6.81-2L15.86,38a2.266,2.266,0,0,1-.3-.333A1.735,1.735,0,0,0,15,39a2.62,2.62,0,0,0,.86,2l14.66,9a10.68,10.68,0,0,0,6.81,2H51.29L63,63V58l-9.71-9Z" style="fill:#f5c8ab"/><path d="M34,41a2,2,0,0,0,2-2H34.1a2.721,2.721,0,0,0-1.86.73,2.417,2.417,0,0,0-.678,1.159A.984.984,0,0,0,32,41Z" style="fill:#ffe8da"/><path d="M11,11v1a2,2,0,0,0,2,2h9v1H8V11Z" style="fill:#bec1c4"/><path d="M14,8h0a2,2,0,0,0,2,2h3v1H11V8Z" style="fill:#7f8487"/><path d="M17,4H8V8h2a2,2,0,0,1,2-2h5Z" style="fill:#bec1c4"/><path d="M11,1h0a2,2,0,0,0,2,2H35V7H34V4H8V1Z" style="fill:#24cfff"/><circle cx="20" cy="55" r="1" style="fill:#80f2ff"/><circle cx="10" cy="34" r="1" style="fill:#80f2ff"/><circle cx="8" cy="39" r="1" style="fill:#80f2ff"/><circle cx="22" cy="51" r="1" style="fill:#80f2ff"/><polygon points="45 26 43 26 43 24 41 24 41 26 39 26 39 28 41 28 41 30 43 30 43 28 45 28 45 26" style="fill:#7ae2ff"/><polygon points="49 14 47 14 47 12 45 12 45 14 43 14 43 16 45 16 45 18 47 18 47 16 49 16 49 14" style="fill:#7ae2ff"/><ellipse cx="38" cy="16" rx="0.825" ry="1.148" transform="translate(-0.178 31.569) rotate(-45.02)" style="fill:#f6fafd"/></g></svg>