<svg xmlns="http://www.w3.org/2000/svg" viewBox="0 0 64 64"><g id="_16-Soap" data-name="16-Soap"><path d="M34,53H62a4,4,0,0,1-4,4H38A4,4,0,0,1,34,53Z" style="fill:#f5c8ab"/><path d="M58,57h5a6.009,6.009,0,0,1-6,6H39a6,6,0,0,1-6-6H58Z" style="fill:#42d1e0"/><path d="M39,63H57a5.938,5.938,0,0,0,4.2-1.722A5.983,5.983,0,0,0,56.5,59h-18a5.938,5.938,0,0,0-4.2,1.722A5.983,5.983,0,0,0,39,63Z" style="fill:#3ab8c6"/><polygon points="17 5 17 11 14 11 14 5 15.95 5 17 5" style="fill:#e6eaed"/><polygon points="20 11 20 17 19 17 13 17 12 17 12 11 14 11 17 11 20 11" style="fill:#42d1e0"/><path d="M15.95,2a6.364,6.364,0,0,0,2.04-.33l1.02-.34A6.364,6.364,0,0,1,21.05,1h.8a6.431,6.431,0,0,1,3.87,1.29L28,4,26,6l-1.37-.92A6.515,6.515,0,0,0,21.05,4a6.364,6.364,0,0,0-2.04.33l-1.02.34A6.364,6.364,0,0,1,15.95,5H12V2Z" style="fill:#42d1e0"/><path d="M24.63,4.08A6.515,6.515,0,0,0,21.05,3a6.364,6.364,0,0,0-2.04.33l-1.02.34A6.364,6.364,0,0,1,15.95,4H12V5h3.95a6.364,6.364,0,0,0,2.04-.33l1.02-.34A6.364,6.364,0,0,1,21.05,4a6.515,6.515,0,0,1,3.58,1.08L26,6l.6-.6Z" style="fill:#3ab8c6"/><circle cx="51" cy="33" r="2" style="fill:#c1f6fa"/><path d="M50,32a1.974,1.974,0,0,1,.181-.819,2,2,0,1,0,2.638,2.638A1.974,1.974,0,0,1,52,34,2.006,2.006,0,0,1,50,32Z" style="fill:#bbeef2"/><path d="M42,41a8.533,8.533,0,0,0-1.61.16L40.36,41A3.949,3.949,0,0,1,39,38a4,4,0,0,1,7.92-.79A3,3,0,0,1,50.83,41Z" style="fill:#c1f6fa"/><path d="M62,49v4H34V49a8,8,0,0,1,6.39-7.84A8.533,8.533,0,0,1,42,41H54A8,8,0,0,1,62,49Z" style="fill:#f8fcff"/><path d="M34,14a4,4,0,0,1-8,0c0-2.21,3-6,4-6S34,11.79,34,14Z" style="fill:#7ae2ff"/><rect x="1" y="31" width="30" height="16" style="fill:#f3f7fa"/><path d="M31,47V57a6,6,0,0,1-6,6H7a6,6,0,0,1-6-6V47Z" style="fill:#7ae2ff"/><path d="M31,29v2H1V29A12,12,0,0,1,13,17h6A12,12,0,0,1,31,29Z" style="fill:#7ae2ff"/><path d="M57.875,51H46a5,5,0,0,1,0-10H42a8.533,8.533,0,0,0-1.61.16A8,8,0,0,0,34,49v4H62V49a8.033,8.033,0,0,0-.1-1.229A4.122,4.122,0,0,1,57.875,51Z" style="fill:#e6eaed"/><path d="M53,44.549c-.051,0-.1,0-.154-.008A8.469,8.469,0,0,0,52,44.5a1.5,1.5,0,0,1,0-3,11.435,11.435,0,0,1,1.152.057A1.5,1.5,0,0,1,53,44.549Z" style="fill:#fff"/><path d="M59,49.5a1.5,1.5,0,0,1-1.467-1.194A5.174,5.174,0,0,0,56,45.831a1.5,1.5,0,1,1,1.99-2.244,8.018,8.018,0,0,1,2.477,4.119A1.5,1.5,0,0,1,59,49.5Z" style="fill:#fff"/><path d="M47.5,40a3.478,3.478,0,0,1-2.672-1.264A3.5,3.5,0,0,1,40,35.5c0-.047.012-.091.014-.138A3.966,3.966,0,0,0,40.36,41l.03.16A8.533,8.533,0,0,1,42,41h8.83a3.012,3.012,0,0,0-.349-2.688A3.487,3.487,0,0,1,47.5,40Z" style="fill:#bbeef2"/><path d="M44.532,35.452a1.953,1.953,0,0,1,.416.706.637.637,0,0,1-.113.7.791.791,0,0,1-.715.106,1.563,1.563,0,0,1-.6-.384,1.75,1.75,0,0,1-.453-.6.732.732,0,0,1,.054-.694C43.492,34.742,44.2,35.082,44.532,35.452Z" style="fill:#fff"/><rect x="1" y="31" width="8" height="16" style="fill:#e6eaed"/><path d="M27,57H17a8,8,0,0,1-8-8V47H1V57a6,6,0,0,0,6,6H25a6,6,0,0,0,6-6V53A4,4,0,0,1,27,57Z" style="fill:#24cfff"/><path d="M9,25a8,8,0,0,1,8-8H13A12,12,0,0,0,1,29v2H9Z" style="fill:#24cfff"/><path d="M23,24a1.991,1.991,0,0,1-1.2-.4,8.19,8.19,0,0,0-.8-.534,2,2,0,1,1,2.008-3.459,12.535,12.535,0,0,1,1.2.791A2,2,0,0,1,23,24Z" style="fill:#80f2ff"/><path d="M29,30a11.881,11.881,0,0,0-1.2-5.238,2,2,0,0,0-3.6,1.748A7.92,7.92,0,0,1,25,30v1h4Z" style="fill:#80f2ff"/><path d="M25,31v2a2,2,0,0,0,4,0V31Z" style="fill:#fff"/><path d="M16,15a2,2,0,0,1-2-2V11H12v6h8V15Z" style="fill:#3ab8c6"/><path d="M16,6h1V5H14v6h1V7A1,1,0,0,1,16,6Z" style="fill:#d5d8db"/><path d="M28,12a7.8,7.8,0,0,1,1.68-3.9C28.479,8.681,26,11.989,26,14a4,4,0,0,0,7.641,1.641A3.987,3.987,0,0,1,28,12Z" style="fill:#24cfff"/><ellipse cx="32" cy="14" rx="0.825" ry="1.148" transform="translate(-0.523 26.739) rotate(-45.02)" style="fill:#f6fafd"/><path d="M6.96,37.709l-1.434-.358A.7.7,0,0,1,5,36.68.681.681,0,0,1,5.68,36H7a1,1,0,0,0,1-1H8a1,1,0,0,0-1-1H5.792a2.757,2.757,0,0,0-2.728,2.088,2.7,2.7,0,0,0,1.974,3.2l1.436.358A.7.7,0,0,1,7,40.323v1a.679.679,0,0,1-.68.68H5a1,1,0,0,0-1,1H4a1,1,0,0,0,1,1H6.32A2.68,2.68,0,0,0,9,41.32v-1A2.691,2.691,0,0,0,6.96,37.709Z" style="fill:#30a1ad"/><path d="M14,34H12a2,2,0,0,0-2,2v6a2,2,0,0,0,2,2h2a2,2,0,0,0,2-2V36A2,2,0,0,0,14,34Zm0,8H12V36h2Z" style="fill:#42d1e0"/><path d="M27,34H26a2,2,0,0,0-2,2v7a1,1,0,0,0,1,1h0a1,1,0,0,0,1-1V40h1a2,2,0,0,0,2-2V36A2,2,0,0,0,27,34Zm0,4H26V36h1Z" style="fill:#42d1e0"/><path d="M19.4,34.058a3.081,3.081,0,0,0-2.4,3.06V43a1,1,0,0,0,1,1h0a1,1,0,0,0,1-1V41h2v2a1,1,0,0,0,1,1h0a1,1,0,0,0,1-1V37A3.005,3.005,0,0,0,19.4,34.058ZM19,39V37a1,1,0,0,1,2,0v2Z" style="fill:#42d1e0"/></g></svg>