<svg xmlns="http://www.w3.org/2000/svg" viewBox="0 0 64 64"><g id="_20-Hand" data-name="20-Hand"><path d="M15,4a3,3,0,0,1-2.58,2.96A3.943,3.943,0,0,1,13,9,4,4,0,1,1,9,5c.06,0,.13.02.19.02A2.887,2.887,0,0,1,9,4a3,3,0,0,1,6,0Z" style="fill:#c1f6fa"/><circle cx="24" cy="7" r="2" style="fill:#c1f6fa"/><circle cx="45" cy="4" r="3" style="fill:#7ae2ff"/><path d="M36.38,16.51l.09.38a4.368,4.368,0,0,1-.97.11,4.509,4.509,0,1,1,4.09-2.63A1.866,1.866,0,0,0,38.46,14a2.016,2.016,0,0,0-.87.2l-.2.1A1.951,1.951,0,0,0,36.38,16.51Z" style="fill:#c1f6fa"/><circle cx="33" cy="47" r="2" style="fill:#7ae2ff"/><path d="M34,57a2.99,2.99,0,0,1-5.88.78,3,3,0,1,1,1.14-4.74A1.972,1.972,0,0,1,31,52a2.006,2.006,0,0,1,2,2,1.956,1.956,0,0,1-.13.68A2.954,2.954,0,0,1,34,57Z" style="fill:#c1f6fa"/><path d="M29.19,20A1.81,1.81,0,0,1,31,21.81a6.514,6.514,0,0,1-.42,2.31L28,31v5.23a9.973,9.973,0,0,1-1.43,5.15l-.71,1.19A6.791,6.791,0,0,0,25,44L23,63H11l2-20c-3-1-6-6-6-6a14.1,14.1,0,0,0-4.36-1.82,2.045,2.045,0,0,1-1.64-2v-.05A2.123,2.123,0,0,1,3.12,31a11.684,11.684,0,0,1,3.66.59L11,33l.59-.59A4.829,4.829,0,0,0,13,29L10.15,15.72a2.124,2.124,0,0,1,.18-1.38l.09-.18a2.106,2.106,0,0,1,3.94.5L17,27V13a2.006,2.006,0,0,1,2-2,2.015,2.015,0,0,1,2,2V27l2.65-11.5A1.945,1.945,0,0,1,25.54,14a2.016,2.016,0,0,1,.87.2l.2.1a1.951,1.951,0,0,1,1.01,2.21L25,27l2.53-5.9A1.81,1.81,0,0,1,29.19,20Z" style="fill:#fcd9c2"/><path d="M39.59,14.37a1.919,1.919,0,0,1,.76,1.13L43,27V13a2.006,2.006,0,0,1,2-2,2.015,2.015,0,0,1,2,2V27l2.64-12.34a2.106,2.106,0,0,1,3.94-.5l.09.18a2.124,2.124,0,0,1,.18,1.38L51,29a4.829,4.829,0,0,0,1.41,3.41L53,33l4.22-1.41A11.684,11.684,0,0,1,60.88,31a2.133,2.133,0,0,1,1.5.62A2.157,2.157,0,0,1,63,33.13v.05a2.045,2.045,0,0,1-1.64,2A14.1,14.1,0,0,0,57,37s-3,5-6,6l.1,1L53,63H41L39,44a6.791,6.791,0,0,0-.86-1.43l-.71-1.19A9.973,9.973,0,0,1,36,36.23V31l-2.58-6.88A6.514,6.514,0,0,1,33,21.81a1.807,1.807,0,0,1,3.47-.71L39,27,36.47,16.89l-.09-.38a1.951,1.951,0,0,1,1.01-2.21l.2-.1a2.016,2.016,0,0,1,.87-.2A1.866,1.866,0,0,1,39.59,14.37Z" style="fill:#fcd9c2"/><path d="M19,43V42s1-8,5-8l1-3a2,2,0,0,0-2-2H13a4.829,4.829,0,0,1-1.41,3.41L11,33l4,1.1C19,36.7,19,43,19,43Z" style="fill:#f5c8ab"/><path d="M15.435,49.372,14,63h9l2-19H21.4A6,6,0,0,0,15.435,49.372Z" style="fill:#fce2d1"/><path d="M42.416,47.955,44,63h9L51.1,44,51,43l-5.047.561A4,4,0,0,0,42.416,47.955Z" style="fill:#fce2d1"/><path d="M14.545,25.727l-2.134-10.67a1.991,1.991,0,0,0-1.469-1.537,2.045,2.045,0,0,0-.522.64l-.09.18a2.124,2.124,0,0,0-.18,1.38l2.78,12.956A2.618,2.618,0,0,0,14.545,25.727Z" style="fill:#faceb2"/><path d="M27.7,25.368l1.557-3.635A1.99,1.99,0,0,0,29.176,20a1.809,1.809,0,0,0-1.646,1.1L25,27h.224A2.694,2.694,0,0,0,27.7,25.368Z" style="fill:#faceb2"/><path d="M19,25V13a1.993,1.993,0,0,0-1-1.722A2,2,0,0,0,17,13V27A2,2,0,0,0,19,25Z" style="fill:#faceb2"/><path d="M23.45,25.051l2.141-9.279a2,2,0,0,0-.417-1.734A1.945,1.945,0,0,0,23.65,15.5L21,27A2.515,2.515,0,0,0,23.45,25.051Z" style="fill:#faceb2"/><path d="M35.9,24.444l-.957-2.234a1.993,1.993,0,0,0-1.75-1.205,1.786,1.786,0,0,0-.2.8,6.514,6.514,0,0,0,.42,2.31L36,31l.325-1.3A8.25,8.25,0,0,0,35.9,24.444Z" style="fill:#faceb2"/><path d="M40.55,25.051,38.229,14.992a.99.99,0,0,0-.748-.737l-.091.045a1.951,1.951,0,0,0-1.01,2.21l.09.38L39,27A1.591,1.591,0,0,0,40.55,25.051Z" style="fill:#faceb2"/><path d="M49.419,25.044,51.741,14.21a1,1,0,0,0-.594-1.129A2.1,2.1,0,0,0,49.64,14.66L47,27A2.473,2.473,0,0,0,49.419,25.044Z" style="fill:#faceb2"/><path d="M45,25V12a1,1,0,0,0-.583-.9A2,2,0,0,0,43,13V27A2,2,0,0,0,45,25Z" style="fill:#faceb2"/><path d="M39,31l1,3c4,0,5,8,5,8v1s0-6.3,4-8.9L53,33l-.59-.59A4.829,4.829,0,0,1,51,29H41A2,2,0,0,0,39,31Z" style="fill:#f5c8ab"/><path d="M9.19,5.019C9.125,5.016,9.065,5,9,5a4.04,4.04,0,1,0,3.422,1.957A2.929,2.929,0,0,1,12,7,2.991,2.991,0,0,1,9.19,5.019Z" style="fill:#c1f6fa"/><path d="M15,4A3,3,0,0,0,9,4a2.969,2.969,0,0,0,.19,1.019,3.978,3.978,0,0,1,3.232,1.938A2.991,2.991,0,0,0,15,4Z" style="fill:#e1fdff"/><path d="M9.19,5.019A2.991,2.991,0,0,0,12,7a2.929,2.929,0,0,0,.422-.043A3.978,3.978,0,0,0,9.19,5.019Z" style="fill:#b3e4e8"/><path d="M8.455,11.8a1,1,0,0,1-.51-1,1.219,1.219,0,0,1,.223-.413A15.439,15.439,0,0,1,9.9,8.3a1.891,1.891,0,0,1,.717-.49.374.374,0,0,1,.193-.02.407.407,0,0,1,.166.086,1.95,1.95,0,0,1,.669,1.221,2.732,2.732,0,0,1-.267,1.793A2.159,2.159,0,0,1,8.455,11.8Z" style="fill:#fff"/><path d="M11.846,3.1a2.021,2.021,0,0,1-.809-.2.636.636,0,0,1-.422-.572.787.787,0,0,1,.439-.578,1.639,1.639,0,0,1,.714-.156,1.844,1.844,0,0,1,.762.1.736.736,0,0,1,.461.527C13.11,2.867,12.357,3.123,11.846,3.1Z" style="fill:#fff"/><path d="M37.983,10.666a1,1,0,0,1-.346,1.067,1.236,1.236,0,0,1-.45.135,15.411,15.411,0,0,1-2.706.251,1.9,1.9,0,0,1-.853-.161.391.391,0,0,1-.151-.122.423.423,0,0,1-.056-.178,1.949,1.949,0,0,1,.39-1.337,2.727,2.727,0,0,1,1.457-1.079A2.159,2.159,0,0,1,37.983,10.666Z" style="fill:#fff"/><path d="M44.846,3.1a2.021,2.021,0,0,1-.809-.2.636.636,0,0,1-.422-.572.787.787,0,0,1,.439-.578,1.639,1.639,0,0,1,.714-.156,1.844,1.844,0,0,1,.762.1.736.736,0,0,1,.461.527C46.11,2.867,45.357,3.123,44.846,3.1Z" style="fill:#fff"/><path d="M32.875,54.675a1.987,1.987,0,0,1-2.959,1,3,3,0,0,1-1.8,2.1,2.992,2.992,0,1,0,4.759-3.105Z" style="fill:#e1fdff"/><path d="M29.125,54.675a1.912,1.912,0,0,1,.13-1.634,3,3,0,1,0-1.139,4.739,2.9,2.9,0,0,1,1.009-3.105Z" style="fill:#c1f6fa"/><path d="M29.916,55.677a2,2,0,0,1-.791-1,2.9,2.9,0,0,0-1.009,3.105A3,3,0,0,0,29.916,55.677Z" style="fill:#bbeef2"/><path d="M31,54a2.972,2.972,0,0,1,1.875.675,1.991,1.991,0,0,0-3.62-1.634,2.958,2.958,0,0,1,.629,1.179A2.984,2.984,0,0,1,31,54Z" style="fill:#e1fdff"/><path d="M29.884,54.22a2.721,2.721,0,0,1,.032,1.457,1.987,1.987,0,0,0,2.959-1,2.941,2.941,0,0,0-2.991-.455Z" style="fill:#bbeef2"/><path d="M29.125,54.675a2.978,2.978,0,0,1,.759-.455,2.958,2.958,0,0,0-.629-1.179,1.912,1.912,0,0,0-.13,1.634Z" style="fill:#c1f6fa"/><path d="M29.884,54.22a2.978,2.978,0,0,0-.759.455,2,2,0,0,0,.791,1,2.721,2.721,0,0,0-.032-1.457Z" style="fill:#b3e4e8"/><path d="M26.846,54.1a2.021,2.021,0,0,1-.809-.2.636.636,0,0,1-.422-.572.787.787,0,0,1,.439-.578,1.639,1.639,0,0,1,.714-.156,1.844,1.844,0,0,1,.762.1.736.736,0,0,1,.461.527C28.11,53.867,27.357,54.123,26.846,54.1Z" style="fill:#fff"/><path d="M31.846,59.1a2.021,2.021,0,0,1-.809-.2.636.636,0,0,1-.422-.572.787.787,0,0,1,.439-.578,1.639,1.639,0,0,1,.714-.156,1.844,1.844,0,0,1,.762.1.736.736,0,0,1,.461.527C33.11,58.867,32.357,59.123,31.846,59.1Z" style="fill:#fff"/><path d="M33.031,46.5a2.075,2.075,0,0,1-.677-.135c-.19-.074-.368-.2-.353-.377.013-.155.178-.3.368-.382a1.654,1.654,0,0,1,.6-.1,1.914,1.914,0,0,1,.637.07.54.54,0,0,1,.387.348C34.089,46.346,33.459,46.514,33.031,46.5Z" style="fill:#fff"/></g></svg>