<svg xmlns="http://www.w3.org/2000/svg" viewBox="0 0 64 64"><g id="_29-Cough" data-name="29-Cough"><path d="M36,38H28s0-3,4-3S36,38,36,38Z" style="fill:#e0756e"/><path d="M50,15v8a2.006,2.006,0,0,0-2-2H46V17a44.846,44.846,0,0,1-16,3V17s-2,3-8,3V18s-1,3-4,3H16a2.006,2.006,0,0,0-2,2V15A14,14,0,0,1,28,1h8A14,14,0,0,1,50,15Z" style="fill:#52575c"/><path d="M26,41.66A14.1,14.1,0,0,1,18,31l-2.4-1.8A4,4,0,0,1,14,26V23a2.006,2.006,0,0,1,2-2h2c3,0,4-3,4-3v2c6,0,8-3,8-3v3a44.846,44.846,0,0,0,16-3v4h2a2.006,2.006,0,0,1,2,2v3a4,4,0,0,1-1.6,3.2L46,31A14.153,14.153,0,0,1,26,41.66ZM28,38h8s0-3-4-3S28,38,28,38Z" style="fill:#fcd9c2"/><path d="M32,55c-7.42,0-9.35-4.26-9.84-6.13l2.28-.52a2.034,2.034,0,0,0,.59-.24C25.24,48.75,26.59,52,32,52s6.76-3.25,6.97-3.89a2.034,2.034,0,0,0,.59.24l2.28.52C41.35,50.74,39.42,55,32,55Z" style="fill:#f8fcff"/><path d="M60,56.19V63H4V56.19a4.009,4.009,0,0,1,3.11-3.9l15.05-3.42C22.65,50.74,24.58,55,32,55s9.35-4.26,9.84-6.13l15.05,3.42A4.009,4.009,0,0,1,60,56.19Z" style="fill:#3ab8c6"/><path d="M38,46.4a1.982,1.982,0,0,0,.97,1.71C38.76,48.75,37.41,52,32,52s-6.76-3.25-6.97-3.89A1.982,1.982,0,0,0,26,46.4V41.65a13.962,13.962,0,0,0,12-.01Z" style="fill:#f48a83"/><path d="M38,41.64a13.962,13.962,0,0,1-12,.01V46.4a1.982,1.982,0,0,1-.97,1.71,4.6,4.6,0,0,0,.587,1.135L38,43.467Z" style="fill:#d4665f"/><path d="M29.518,54.819,39.75,52.412a7.648,7.648,0,0,0,2.09-3.542l-2.28-.52a2.034,2.034,0,0,1-.59-.24C38.76,48.75,37.41,52,32,52s-6.76-3.25-6.97-3.89a2.034,2.034,0,0,1-.59.24l-2.28.52C22.59,50.511,24.132,53.992,29.518,54.819Z" style="fill:#e6eaed"/><path d="M16,62a5.05,5.05,0,0,1,3.894-4.916l9.624-2.265c-5.386-.827-6.928-4.308-7.358-5.949L7.11,52.29A4.009,4.009,0,0,0,4,56.19V63H17A1,1,0,0,1,16,62Z" style="fill:#2494a1"/><path d="M37.287,54.029A7.73,7.73,0,0,0,41.84,48.87l-2.28-.52a2.034,2.034,0,0,1-.59-.24,5.892,5.892,0,0,1-4.591,3.639L36,53.36Z" style="fill:#e6eaed"/><path d="M56.89,52.29,54.273,51.7l-1.453-.33-10.98-2.5a7.73,7.73,0,0,1-4.553,5.159L43,57l6.75,6H60V56.19A4.009,4.009,0,0,0,56.89,52.29Z" style="fill:#2494a1"/><path d="M55,39.5h1a.5.5,0,0,0,0-1H55a.5.5,0,0,0,0,1Z" style="fill:#f48a83"/><path d="M42,39.5h6a.5.5,0,0,0,0-1H42a.5.5,0,0,0,0,1Z" style="fill:#f48a83"/><path d="M51,39.5h1a.5.5,0,0,0,0-1H51a.5.5,0,0,0,0,1Z" style="fill:#f48a83"/><path d="M42,36.5a.506.506,0,0,0,.158-.025l8-2.67a.5.5,0,0,0-.316-.95l-8,2.67A.5.5,0,0,0,42,36.5Z" style="fill:#f48a83"/><path d="M53,32.835a.486.486,0,0,0,.159-.026l1-.335a.5.5,0,1,0-.318-.948l-1,.335a.5.5,0,0,0,.159.974Z" style="fill:#f48a83"/><path d="M50,46.5a.5.5,0,0,0,.224-.947l-8-4a.5.5,0,1,0-.447.894l8,4A.5.5,0,0,0,50,46.5Z" style="fill:#f48a83"/><path d="M54,48.5a.5.5,0,0,0,.224-.947l-1-.5a.5.5,0,1,0-.447.894l1,.5A.5.5,0,0,0,54,48.5Z" style="fill:#f48a83"/><path d="M49,55a5.493,5.493,0,0,0,4.51-1.99A8,8,0,0,0,55,48l7,6v9H56l-9-8Z" style="fill:#3ab8c6"/><path d="M43,45h.03l-5.55-5.58a1.492,1.492,0,0,1,.3-2.34,1.894,1.894,0,0,1,.98-.26,1.851,1.851,0,0,1,1.33.54L45,42l-4.59-4.52a1.363,1.363,0,0,1,.39-2.21,1.94,1.94,0,0,1,.99-.27,1.857,1.857,0,0,1,1.34.54L49,41V38a2.088,2.088,0,0,1,2-2,2.088,2.088,0,0,1,2,2v7l2,3a8,8,0,0,1-1.49,5.01A5.493,5.493,0,0,1,49,55H47l-7-3.64-6.57-6.53a1.438,1.438,0,0,1,.35-2.3,1.987,1.987,0,0,1,.97-.26,1.9,1.9,0,0,1,1.34.54L41,47l-5.57-4.89a1.448,1.448,0,0,1,.35-2.31,1.987,1.987,0,0,1,.97-.26,1.9,1.9,0,0,1,1.34.54Z" style="fill:#fcd9c2"/><path d="M51,37a1,1,0,0,1,.571-.9A1.788,1.788,0,0,0,51,36a2.088,2.088,0,0,0-2,2v3l2,2Z" style="fill:#f7cbae"/><path d="M43.187,43.188l-5.206-5.207a.989.989,0,0,1-.281-.84,1.486,1.486,0,0,0-.22,2.279l5.535,5.565.172-.173A1.147,1.147,0,0,0,43.187,43.188Z" style="fill:#f7cbae"/><path d="M45.047,40.047l-4.066-4.066a.986.986,0,0,1-.289-.631,1.338,1.338,0,0,0-.282,2.13L45,42l.047-.047A1.348,1.348,0,0,0,45.047,40.047Z" style="fill:#f7cbae"/><path d="M49,52a20.687,20.687,0,0,1-8-2l-7-6a1.392,1.392,0,0,1-.339-1.377,1.423,1.423,0,0,0-.228,2.21L40,51.36,47,55h2a5.493,5.493,0,0,0,4.51-1.99A8,8,0,0,0,55,48l-.13-.2A5.684,5.684,0,0,1,49,52Z" style="fill:#f5c8ab"/><path d="M35.82,40.7a.992.992,0,0,1-.339-.68,1.427,1.427,0,0,0-.051,2.087L41,47l1-1Z" style="fill:#f7cbae"/><path d="M22,18s-1,3-4,3c3,0,4-1,4-1Z" style="fill:#edbd9f"/><path d="M29,19v3a54.487,54.487,0,0,0,17-3V17a44.846,44.846,0,0,1-16,3V17s-2,3-8,3v2C28,22,29,19,29,19Z" style="fill:#edbd9f"/><path d="M46,29V23h2a1,1,0,0,1,1,1v1.394a3,3,0,0,1-1.336,2.5Z" style="fill:#edbd9f"/><path d="M19,29V23H17a1,1,0,0,0-1,1v1.394a3,3,0,0,0,1.336,2.5Z" style="fill:#edbd9f"/><path d="M15,17A16,16,0,0,1,31,1H28A14,14,0,0,0,14,15v8a2.006,2.006,0,0,1,2-2h2c3,0,4-3,4-3-2,2-7,2-7,2Z" style="fill:#3d4145"/><path d="M36,1H33A16,16,0,0,1,49,17v2c-3,0-3-2-3-2v4h2a2.006,2.006,0,0,1,2,2V15A14,14,0,0,0,36,1Z" style="fill:#3d4145"/><path d="M26,1.81A15.962,15.962,0,0,0,20.33,5.1c2.513,2.905,9.515,7.8,28.144,7.893a15.944,15.944,0,0,0-.656-2.017C35.554,10.646,28.96,5.247,26,1.81Z" style="fill:#5d6369"/><path d="M53.51,53.01a5.114,5.114,0,0,1-1.148,1.049l7.033,5.47A2.234,2.234,0,0,0,60.766,60C62,60,62,59,62,57.766V54l-7-6A8,8,0,0,1,53.51,53.01Z" style="fill:#42d1e0"/><path d="M35.644,42.5l.169-.049-.383-.337a1.443,1.443,0,0,1,.322-2.289,1.941,1.941,0,0,0-1-.281,1.987,1.987,0,0,0-.97.26,1.448,1.448,0,0,0-.35,2.31l.438.384a1.973,1.973,0,0,1,.882-.224A1.937,1.937,0,0,1,35.644,42.5Z" style="fill:#ebb18d"/><path d="M38.09,40.08l1,1.007.028-.016L37.48,39.42a1.49,1.49,0,0,1,.275-2.321,1.936,1.936,0,0,0-1.958-.026A2.83,2.83,0,0,1,36,38h-.9a1.478,1.478,0,0,0,.381,1.42l.355.357a1.985,1.985,0,0,1,.915-.237A1.9,1.9,0,0,1,38.09,40.08Z" style="fill:#ebb18d"/><path d="M40.09,37.36l1.751,1.655.065-.061-1.5-1.474a1.361,1.361,0,0,1,.381-2.2A1.949,1.949,0,0,0,38.8,35.27a1.467,1.467,0,0,0-.742,1.7,1.937,1.937,0,0,1,.7-.145A1.851,1.851,0,0,1,40.09,37.36Z" style="fill:#ebb18d"/><path d="M33.332,42.924a1.666,1.666,0,0,1,.419-.373,1.935,1.935,0,0,0-1-.281,1.987,1.987,0,0,0-.97.26,1.659,1.659,0,0,0-.48.431c.234.011.464.039.7.039C32.451,43,32.893,42.966,33.332,42.924Z" style="fill:#ebb18d"/><path d="M38.165,49.536l-4.208-4.182-1.361.635,4.556,4.528A5.7,5.7,0,0,0,38.165,49.536Z" style="fill:#d4665f"/><path d="M33.32,42.938Q32.667,43,32,43c-.236,0-.466-.028-.7-.039a1.4,1.4,0,0,0,.13,1.869L32.6,45.989l1.361-.635-.527-.524A1.4,1.4,0,0,1,33.32,42.938Z" style="fill:#bd5b55"/><path d="M43,27a1,1,0,0,1-1,1H36a1,1,0,0,1-.9-1.447c.878-1.754,3.954-3.337,5.568-4.07a1,1,0,0,1,1.337.542h0A.994.994,0,0,1,41.5,24.3,21.585,21.585,0,0,0,38.409,26H42a1,1,0,0,1,1,1Z" style="fill:#3d4145"/><path d="M28,28H22a1,1,0,0,1-1-1h0a1,1,0,0,1,1-1h3.58A21.474,21.474,0,0,0,22.5,24.3a1,1,0,0,1-.514-1.279h0a1,1,0,0,1,1.337-.542c1.615.734,4.69,2.316,5.568,4.07A1,1,0,0,1,28,28Z" style="fill:#3d4145"/><ellipse cx="32" cy="31" rx="1" ry="2" style="fill:#edbd9f"/><path d="M9,39.5H8a.5.5,0,0,1,0-1H9a.5.5,0,0,1,0,1Z" style="fill:#f48a83"/><path d="M22,39.5H16a.5.5,0,0,1,0-1h6a.5.5,0,0,1,0,1Z" style="fill:#f48a83"/><path d="M13,39.5H12a.5.5,0,0,1,0-1h1a.5.5,0,0,1,0,1Z" style="fill:#f48a83"/><path d="M22,36.5a.511.511,0,0,1-.158-.025l-8-2.67a.5.5,0,0,1,.316-.95l8,2.67A.5.5,0,0,1,22,36.5Z" style="fill:#f48a83"/><path d="M11,32.835a.49.49,0,0,1-.159-.026l-1-.335a.5.5,0,0,1,.318-.948l1,.335a.5.5,0,0,1-.159.974Z" style="fill:#f48a83"/><path d="M14,46.5a.5.5,0,0,1-.224-.947l8-4a.5.5,0,0,1,.448.894l-8,4A.5.5,0,0,1,14,46.5Z" style="fill:#f48a83"/><path d="M10,48.5a.5.5,0,0,1-.224-.947l1-.5a.5.5,0,0,1,.448.894l-1,.5A.5.5,0,0,1,10,48.5Z" style="fill:#f48a83"/></g></svg>