<svg xmlns="http://www.w3.org/2000/svg" viewBox="0 0 64 64"><g id="_17-Hospital" data-name="17-Hospital"><polygon points="63 59 63 63 1 63 1 59 10 59 25 59 32 59 39 59 54 59 63 59" style="fill:#606060"/><path d="M1,59V21a1,1,0,0,1,1-1h8V59Z" style="fill:#d5d8db"/><path d="M63,21V59H54V20h8A1,1,0,0,1,63,21Z" style="fill:#d5d8db"/><path d="M32,6a9,9,0,1,1-9,9A9,9,0,0,1,32,6Zm5,11V13H34V10H30v3H27v4h3v3h4V17Z" style="fill:#e0756e"/><polygon points="37 13 37 17 34 17 34 20 30 20 30 17 27 17 27 13 30 13 30 10 34 10 34 13 37 13" style="fill:#fff"/><rect x="25" y="49" width="7" height="10" style="fill:#80f2ff"/><rect x="32" y="49" width="7" height="10" style="fill:#80f2ff"/><path d="M54,20V59H39V49H25V59H10V3a2.006,2.006,0,0,1,2-2H52a2.006,2.006,0,0,1,2,2ZM49,45V39H43v6Zm0-10V29H43v6ZM41,15a9,9,0,1,0-9,9A9,9,0,0,0,41,15ZM35,45V39H29v6Zm0-10V29H29v6ZM21,45V39H15v6Zm0-10V29H15v6Z" style="fill:#f8fcff"/><rect x="15" y="39" width="6" height="6" style="fill:#80f2ff"/><rect x="15" y="29" width="6" height="6" style="fill:#80f2ff"/><rect x="29" y="29" width="6" height="6" style="fill:#80f2ff"/><rect x="29" y="39" width="6" height="6" style="fill:#80f2ff"/><rect x="43" y="39" width="6" height="6" style="fill:#80f2ff"/><rect x="43" y="29" width="6" height="6" style="fill:#80f2ff"/><path d="M62,55a4,4,0,0,1-4-4V20H54V59h9V55Z" style="fill:#bec1c4"/><path d="M2,55a4,4,0,0,0,4-4V20h4V59H1V55Z" style="fill:#bec1c4"/><rect x="39" y="53" width="15" height="6" style="fill:#e6eaed"/><path d="M19.035,45H15V39h1.461A18.052,18.052,0,0,1,16,35H15V29h1V1H12a2.006,2.006,0,0,0-2,2V59H25V50.572A18.084,18.084,0,0,1,19.035,45Z" style="fill:#e6eaed"/><path d="M49,28H43a1,1,0,0,0-1,1v6a1,1,0,0,0,1,1h6a1,1,0,0,0,1-1V29A1,1,0,0,0,49,28Zm0,7H43V29h6Z" style="fill:#97999c"/><polygon points="43 35 46 35 43 32 43 35" style="fill:#80f2ff"/><polygon points="43 29 43 32 46 35 49 35 43 29" style="fill:#d4fbff"/><polygon points="49 29 43 29 49 35 49 29" style="fill:#80f2ff"/><path d="M49,38H43a1,1,0,0,0-1,1v6a1,1,0,0,0,1,1h6a1,1,0,0,0,1-1V39A1,1,0,0,0,49,38Zm0,7H43V39h6Z" style="fill:#97999c"/><polygon points="43 45 46 45 43 42 43 45" style="fill:#80f2ff"/><polygon points="43 39 43 42 46 45 49 45 43 39" style="fill:#d4fbff"/><polygon points="49 39 43 39 49 45 49 39" style="fill:#80f2ff"/><path d="M35,28H29a1,1,0,0,0-1,1v6a1,1,0,0,0,1,1h6a1,1,0,0,0,1-1V29A1,1,0,0,0,35,28Zm0,7H29V29h6Z" style="fill:#97999c"/><polygon points="29 35 32 35 29 32 29 35" style="fill:#80f2ff"/><polygon points="29 29 29 32 32 35 35 35 29 29" style="fill:#d4fbff"/><polygon points="35 29 29 29 35 35 35 29" style="fill:#80f2ff"/><path d="M35,38H29a1,1,0,0,0-1,1v6a1,1,0,0,0,1,1h6a1,1,0,0,0,1-1V39A1,1,0,0,0,35,38Zm0,7H29V39h6Z" style="fill:#97999c"/><polygon points="29 45 32 45 29 42 29 45" style="fill:#80f2ff"/><polygon points="29 39 29 42 32 45 35 45 29 39" style="fill:#d4fbff"/><polygon points="35 39 29 39 35 45 35 39" style="fill:#80f2ff"/><path d="M21,28H15a1,1,0,0,0-1,1v6a1,1,0,0,0,1,1h6a1,1,0,0,0,1-1V29A1,1,0,0,0,21,28Zm0,7H15V29h6Z" style="fill:#97999c"/><polygon points="15 35 18 35 15 32 15 35" style="fill:#80f2ff"/><polygon points="15 29 15 32 18 35 21 35 15 29" style="fill:#d4fbff"/><polygon points="21 29 15 29 21 35 21 29" style="fill:#80f2ff"/><path d="M21,38H15a1,1,0,0,0-1,1v6a1,1,0,0,0,1,1h6a1,1,0,0,0,1-1V39A1,1,0,0,0,21,38Zm0,7H15V39h6Z" style="fill:#97999c"/><polygon points="15 45 18 45 15 42 15 45" style="fill:#80f2ff"/><polygon points="15 39 15 42 18 45 21 45 15 39" style="fill:#d4fbff"/><polygon points="21 39 15 39 21 45 21 39" style="fill:#80f2ff"/><polygon points="39 49 33 49 39 55 39 49" style="fill:#d4fbff"/><polygon points="33 49 32 49 30 49 32 51 39 58 39 55 33 49" style="fill:#80f2ff"/><polygon points="32 56 25 49 25 59 32 59 35 59 32 56" style="fill:#80f2ff"/><polygon points="32 51 30 49 25 49 32 56 35 59 39 59 39 58 32 51" style="fill:#d4fbff"/><path d="M39,48H25a1,1,0,0,0-1,1V59h1V49h6V59h2V49h6V59h1V49A1,1,0,0,0,39,48Z" style="fill:#97999c"/><rect x="56" y="27" width="2" height="2" style="fill:#e6eaed"/><rect x="59" y="27" width="2" height="2" style="fill:#fff"/><rect x="56" y="31" width="2" height="2" style="fill:#e6eaed"/><rect x="59" y="31" width="2" height="2" style="fill:#fff"/><rect x="56" y="35" width="2" height="2" style="fill:#e6eaed"/><rect x="59" y="35" width="2" height="2" style="fill:#fff"/><rect x="56" y="39" width="2" height="2" style="fill:#e6eaed"/><rect x="59" y="39" width="2" height="2" style="fill:#fff"/><rect x="56" y="43" width="2" height="2" style="fill:#e6eaed"/><rect x="59" y="43" width="2" height="2" style="fill:#fff"/><rect x="56" y="47" width="2" height="2" style="fill:#e6eaed"/><rect x="59" y="47" width="2" height="2" style="fill:#fff"/><rect x="6" y="27" width="2" height="2" style="fill:#e6eaed"/><rect x="3" y="27" width="2" height="2" transform="translate(8 56) rotate(-180)" style="fill:#fff"/><rect x="6" y="31" width="2" height="2" style="fill:#e6eaed"/><rect x="3" y="31" width="2" height="2" transform="translate(8 64) rotate(-180)" style="fill:#fff"/><rect x="6" y="35" width="2" height="2" style="fill:#e6eaed"/><rect x="3" y="35" width="2" height="2" transform="translate(8 72) rotate(-180)" style="fill:#fff"/><rect x="6" y="39" width="2" height="2" style="fill:#e6eaed"/><rect x="3" y="39" width="2" height="2" transform="translate(8 80) rotate(-180)" style="fill:#fff"/><rect x="6" y="43" width="2" height="2" style="fill:#e6eaed"/><rect x="3" y="43" width="2" height="2" transform="translate(8 88) rotate(-180)" style="fill:#fff"/><rect x="6" y="47" width="2" height="2" style="fill:#e6eaed"/><rect x="3" y="47" width="2" height="2" transform="translate(8 96) rotate(-180)" style="fill:#fff"/><path d="M32,5A10,10,0,1,0,42,15,10,10,0,0,0,32,5Zm0,19a9,9,0,1,1,9-9A9,9,0,0,1,32,24Z" style="fill:#97999c"/></g></svg>