<svg xmlns="http://www.w3.org/2000/svg" viewBox="0 0 64 64"><g id="_28-Fever" data-name="28-Fever"><path d="M48,21H46V17a35.034,35.034,0,0,1-4,1.329h0V20a1,1,0,0,1-1,1H23a1,1,0,0,1-1-1V18s-1,3-4,3H16a2,2,0,0,0-2,2v3a4,4,0,0,0,1.6,3.2L18,31a14.167,14.167,0,0,0,28,0l2.4-1.8A4,4,0,0,0,50,26V23A2,2,0,0,0,48,21Z" style="fill:#f48a83"/><path d="M32,55c-7.42,0-9.35-4.26-9.84-6.13l2.28-.52a2.034,2.034,0,0,0,.59-.24C25.24,48.75,26.59,52,32,52s6.76-3.25,6.97-3.89a2.034,2.034,0,0,0,.59.24l2.28.52C41.35,50.74,39.42,55,32,55Z" style="fill:#f8fcff"/><path d="M60,56.19V63H4V56.19a4.009,4.009,0,0,1,3.11-3.9l15.05-3.42C22.65,50.74,24.58,55,32,55s9.35-4.26,9.84-6.13l15.05,3.42A4.009,4.009,0,0,1,60,56.19Z" style="fill:#3ab8c6"/><path d="M41,21H23a1,1,0,0,1-1-1V12a1,1,0,0,1,1-1h2v7H39V11h2a1,1,0,0,1,1,1v8A1,1,0,0,1,41,21Z" style="fill:#e6eaed"/><rect x="25" y="11" width="14" height="7" style="fill:#7ae2ff"/><path d="M50,15v8a2.006,2.006,0,0,0-2-2H46V17a34.844,34.844,0,0,1-4,1.33V12a1,1,0,0,0-1-1H23a1,1,0,0,0-1,1v6s-1,3-4,3H16a2.006,2.006,0,0,0-2,2V15A14,14,0,0,1,28,1h8A14,14,0,0,1,50,15Z" style="fill:#52575c"/><path d="M38,46.4a1.982,1.982,0,0,0,.97,1.71C38.76,48.75,37.41,52,32,52s-6.76-3.25-6.97-3.89A1.982,1.982,0,0,0,26,46.4V41.65a13.962,13.962,0,0,0,12-.01Z" style="fill:#f5c8ab"/><path d="M9,4v6H3V4A3,3,0,0,1,9,4Z" style="fill:#f8fcff"/><path d="M9,24.02a5,5,0,1,1-6,0V10H9V24.02Z" style="fill:#f48a83"/><path d="M5,3A2,2,0,0,1,6.55,1.055,2.98,2.98,0,0,0,3,4v6H5Z" style="fill:#e6eaed"/><path d="M4,27a3.963,3.963,0,0,1,1-2.62V10H3V24.02a4.989,4.989,0,1,0,7.542,6.044A3.978,3.978,0,0,1,4,27Z" style="fill:#d4665f"/><path d="M9,22H7a1,1,0,0,1-1-1H6a1,1,0,0,1,1-1H9Z" style="fill:#f8fcff"/><path d="M9,18H7a1,1,0,0,1-1-1H6a1,1,0,0,1,1-1H9Z" style="fill:#f8fcff"/><path d="M9,14H7a1,1,0,0,1-1-1H6a1,1,0,0,1,1-1H9Z" style="fill:#f8fcff"/><path d="M38,41.64a13.962,13.962,0,0,1-12,.01V46.4a1.982,1.982,0,0,1-.97,1.71,4.6,4.6,0,0,0,.587,1.135L38,43.467Z" style="fill:#e8ae8b"/><path d="M29.518,54.819,39.75,52.412a7.648,7.648,0,0,0,2.09-3.542l-2.28-.52a2.034,2.034,0,0,1-.59-.24C38.76,48.75,37.41,52,32,52s-6.76-3.25-6.97-3.89a2.034,2.034,0,0,1-.59.24l-2.28.52C22.59,50.511,24.132,53.992,29.518,54.819Z" style="fill:#e6eaed"/><path d="M39.75,52.412l8.684-2.044-6.594-1.5A7.648,7.648,0,0,1,39.75,52.412Z" style="fill:#2494a1"/><path d="M16,62a5.05,5.05,0,0,1,3.894-4.916l9.624-2.265c-5.386-.827-6.928-4.308-7.358-5.949L7.11,52.29A4.009,4.009,0,0,0,4,56.19V63H17A1,1,0,0,1,16,62Z" style="fill:#2494a1"/><path d="M15,17A16,16,0,0,1,31,1H28A14,14,0,0,0,14,15v8a2.006,2.006,0,0,1,2-2h2c3,0,4-3,4-3-2,2-7,2-7,2Z" style="fill:#3d4145"/><path d="M36,1H33A16,16,0,0,1,49,17v2c-3,0-3-2-3-2v4h2a2.006,2.006,0,0,1,2,2V15A14,14,0,0,0,36,1Z" style="fill:#3d4145"/><path d="M41,11a1,1,0,0,1,1,1v.746c1.985.149,4.138.236,6.474.248a15.944,15.944,0,0,0-.656-2.017C35.554,10.646,28.96,5.247,26,1.81A15.962,15.962,0,0,0,20.33,5.1C21.834,6.84,24.951,9.292,31.2,11H41Z" style="fill:#5d6369"/><polygon points="40 19 40 11 39 11 39 18 25 18 25 11 24 11 24 19 40 19" style="fill:#bec1c4"/><rect x="27" y="12" width="10" height="5" style="fill:#80f2ff"/><rect x="26" y="19" width="12" height="2" rx="1" style="fill:#f5f9fc"/><path d="M46,17s-1.109.471-3,1.041h0c-.314.094-.644.191-1,.289h0V20a1,1,0,0,1-1,1H23a1,1,0,0,1-1-1V18a5.268,5.268,0,0,1-1,1.639V21a1.057,1.057,0,0,0,1.1,1H41.9A1.057,1.057,0,0,0,43,21V19.333l3-1Z" style="fill:#c2534c"/><path d="M39,25a5.019,5.019,0,0,0,2-.39V25c0,1.66-.9,3-2,3s-2-1.34-2-3v-.45A3.884,3.884,0,0,0,39,25Z" style="fill:#3d4145"/><path d="M27,25c0,1.66-.9,3-2,3s-2-1.34-2-3v-.39A5.019,5.019,0,0,0,25,25a3.884,3.884,0,0,0,2-.45Z" style="fill:#3d4145"/><path d="M46,29V23h2a1,1,0,0,1,1,1v1.394a3,3,0,0,1-1.336,2.5Z" style="fill:#c2534c"/><path d="M18,29V23H16a1,1,0,0,0-1,1v1.394a3,3,0,0,0,1.336,2.5Z" style="fill:#c2534c"/><ellipse cx="32" cy="31" rx="1" ry="2" style="fill:#c2534c"/><rect x="30.5" y="39" width="1" height="2" rx="0.5" style="fill:#de766f"/><rect x="32.5" y="39" width="1" height="2" rx="0.5" style="fill:#de766f"/><path d="M42.659,26a14.733,14.733,0,0,1-2.874-.259,9.813,9.813,0,0,1-2.158-.67A6.5,6.5,0,0,1,35.622,23.7a1,1,0,1,1,1.437-1.391,4.524,4.524,0,0,0,1.394.945,7.786,7.786,0,0,0,1.717.528A12.7,12.7,0,0,0,42.659,24a1,1,0,0,1,0,2Z" style="fill:#26292b"/><path d="M21.341,26a14.733,14.733,0,0,0,2.874-.259,9.813,9.813,0,0,0,2.158-.67,6.5,6.5,0,0,0,2-1.375,1,1,0,1,0-1.437-1.391,4.524,4.524,0,0,1-1.394.945,7.786,7.786,0,0,1-1.717.528A12.7,12.7,0,0,1,21.341,24a1,1,0,0,0,0,2Z" style="fill:#26292b"/><path d="M48.96,28.7a1.9,1.9,0,0,1,.04.41,2.126,2.126,0,0,1-1.22,1.92l-2.1.97v.01L35.04,36.94A4.346,4.346,0,0,0,33,36.09v-.04l12.68-8.68a2.026,2.026,0,0,1,.38-.21A2.127,2.127,0,0,1,48.96,28.7Z" style="fill:#d4665f"/><path d="M43.906,28.585,33,36.05v.04a4.5,4.5,0,0,1,1.594.553l10.363-6.217Z" style="fill:#d4665f"/><path d="M34.594,36.643a3.923,3.923,0,0,1,.446.3l10.64-4.93V32l.14-.065-.863-1.509Z" style="fill:#c2534c"/><path d="M48.96,28.7a2.091,2.091,0,0,0-.792-1.257,1.994,1.994,0,0,1-.967,1.636l-2.244,1.347.863,1.509,1.96-.9A2.126,2.126,0,0,0,49,29.11,1.9,1.9,0,0,0,48.96,28.7Z" style="fill:#e6eaed"/><path d="M47.2,29.079a1.994,1.994,0,0,0,.967-1.636,2.111,2.111,0,0,0-2.108-.283,2.026,2.026,0,0,0-.38.21l-1.774,1.215,1.051,1.841Z" style="fill:#f8fcff"/><path d="M36,38.5a.5.5,0,0,1-.447-.276,3,3,0,0,0-.814-.884,3.858,3.858,0,0,0-1.815-.756A4.745,4.745,0,0,0,32,36.5a3.843,3.843,0,0,0-3.555,1.727.5.5,0,0,1-.892-.451A4.806,4.806,0,0,1,32,35.5a5.592,5.592,0,0,1,1.1.1,4.86,4.86,0,0,1,2.251.947,3.818,3.818,0,0,1,1.1,1.229A.5.5,0,0,1,36,38.5Z" style="fill:#8f312c"/></g></svg>