<svg xmlns="http://www.w3.org/2000/svg" viewBox="0 0 64 64"><g id="_30-Mask" data-name="30-Mask"><path d="M32,55c-7.42,0-9.35-4.26-9.84-6.13l2.28-.52a2.034,2.034,0,0,0,.59-.24C25.24,48.75,26.59,52,32,52s6.76-3.25,6.97-3.89a2.034,2.034,0,0,0,.59.24l2.28.52C41.35,50.74,39.42,55,32,55Z" style="fill:#f8fcff"/><path d="M14,50.73l8.16-1.86C22.65,50.74,24.58,55,32,55s9.35-4.26,9.84-6.13l15.05,3.42A4.009,4.009,0,0,1,60,56.19V63H12a3,3,0,0,0,3-3V53a2.966,2.966,0,0,0-1.02-2.25Z" style="fill:#3ab8c6"/><path d="M15,53v7a3,3,0,0,1-3,3H1V44a1,1,0,0,1,1-1H4a2.006,2.006,0,0,1,2,2v5h6a3.016,3.016,0,0,1,1.98.75A2.966,2.966,0,0,1,15,53Z" style="fill:#fcd9c2"/><path d="M38,46.4a1.982,1.982,0,0,0,.97,1.71C38.76,48.75,37.41,52,32,52s-6.76-3.25-6.97-3.89A1.982,1.982,0,0,0,26,46.4V41.66a14.1,14.1,0,0,0,12,0Z" style="fill:#f5c8ab"/><path d="M26,41.66a13.962,13.962,0,0,1-3.28-2.12,14.138,14.138,0,0,1-3.62-4.8L21,30l9.09-1.79A8.136,8.136,0,0,1,31.94,28h.12a8.136,8.136,0,0,1,1.85.21L43,30l1.9,4.74A14.177,14.177,0,0,1,26,41.66Z" style="fill:#f8fcff"/><ellipse cx="39.5" cy="25" rx="1.5" ry="3" style="fill:#fcd9c2"/><ellipse cx="24.5" cy="25" rx="1.5" ry="3" style="fill:#fcd9c2"/><path d="M48,21H46V17a44.846,44.846,0,0,1-16,3V17s-2,3-8,3V18s-1,3-4,3H16a2.006,2.006,0,0,0-2,2v3a4,4,0,0,0,1.6,3.2L18,31a13.468,13.468,0,0,0,1.1,3.74L21,30l9.09-1.79A8.136,8.136,0,0,1,31.94,28h.12a8.136,8.136,0,0,1,1.85.21L43,30l1.9,4.74A13.468,13.468,0,0,0,46,31l2.4-1.8A4,4,0,0,0,50,26V23A2.006,2.006,0,0,0,48,21ZM24.5,28c-.83,0-1.5-1.34-1.5-3s.67-3,1.5-3S26,23.34,26,25,25.33,28,24.5,28Zm15,0c-.83,0-1.5-1.34-1.5-3s.67-3,1.5-3S41,23.34,41,25,40.33,28,39.5,28Z" style="fill:#fcd9c2"/><path d="M22,18s-1,3-4,3c3,0,4-1,4-1Z" style="fill:#edbd9f"/><path d="M29,19v3a54.487,54.487,0,0,0,17-3V17a44.846,44.846,0,0,1-16,3V17s-2,3-8,3v2C28,22,29,19,29,19Z" style="fill:#edbd9f"/><path d="M46,29V23h2a1,1,0,0,1,1,1v1.394a3,3,0,0,1-1.336,2.5Z" style="fill:#edbd9f"/><path d="M18,29V23H16a1,1,0,0,0-1,1v1.394a3,3,0,0,0,1.336,2.5Z" style="fill:#edbd9f"/><path d="M50,15v8a2.006,2.006,0,0,0-2-2H46V17a44.846,44.846,0,0,1-16,3V17s-2,3-8,3V18s-1,3-4,3H16a2.006,2.006,0,0,0-2,2V15A14,14,0,0,1,28,1h8A14,14,0,0,1,50,15Z" style="fill:#52575c"/><path d="M15,17A16,16,0,0,1,31,1H28A14,14,0,0,0,14,15v8a2.006,2.006,0,0,1,2-2h2c3,0,4-3,4-3-2,2-7,2-7,2Z" style="fill:#3d4145"/><path d="M36,1H33A16,16,0,0,1,49,17v2c-3,0-3-2-3-2v4h2a2.006,2.006,0,0,1,2,2V15A14,14,0,0,0,36,1Z" style="fill:#3d4145"/><path d="M26,1.81A15.962,15.962,0,0,0,20.33,5.1c2.513,2.905,9.515,7.8,28.144,7.893a15.944,15.944,0,0,0-.656-2.017C35.554,10.646,28.96,5.247,26,1.81Z" style="fill:#5d6369"/><path d="M38,41.64a13.962,13.962,0,0,1-12,.01V46.4a1.982,1.982,0,0,1-.97,1.71,4.6,4.6,0,0,0,.587,1.135L38,43.467Z" style="fill:#e8ae8b"/><path d="M29.518,54.819,39.75,52.412a7.648,7.648,0,0,0,2.09-3.542l-2.28-.52a2.034,2.034,0,0,1-.59-.24C38.76,48.75,37.41,52,32,52s-6.76-3.25-6.97-3.89a2.034,2.034,0,0,1-.59.24l-2.28.52C22.59,50.511,24.132,53.992,29.518,54.819Z" style="fill:#e6eaed"/><path d="M39.75,52.412l8.684-2.044-6.594-1.5A7.648,7.648,0,0,1,39.75,52.412Z" style="fill:#2494a1"/><path d="M22.16,48.87l-8.2,1.864.022.016A2.966,2.966,0,0,1,15,53v7a3,3,0,0,1-3,3h5a1,1,0,0,1-1-1,5.05,5.05,0,0,1,3.894-4.916l9.624-2.265C24.132,53.992,22.59,50.511,22.16,48.87Z" style="fill:#2494a1"/><path d="M3,44v6H6V45a2.006,2.006,0,0,0-2-2A1,1,0,0,0,3,44Z" style="fill:#ffe8da"/><path d="M12,60H6a3,3,0,0,1-3-3V50H1V63H12a3,3,0,0,0,3-3V57A3,3,0,0,1,12,60Z" style="fill:#f5c8ab"/><path d="M24.505,33.231l1.188-4.155L21,30l-1.9,4.74a14.138,14.138,0,0,0,3.62,4.8A14.148,14.148,0,0,0,38,41.66,14.211,14.211,0,0,0,44.56,35.4,18.473,18.473,0,0,1,33,40a10.011,10.011,0,0,1-7.6-2.965A3.955,3.955,0,0,1,24.505,33.231Z" style="fill:#e6eaed"/><path d="M25,33.5a.5.5,0,0,1-.248-.935A16.733,16.733,0,0,1,32,30.5a16.733,16.733,0,0,1,7.248,2.065.5.5,0,1,1-.5.87A15.982,15.982,0,0,0,32,31.5a15.936,15.936,0,0,0-6.752,1.935A.5.5,0,0,1,25,33.5Z" style="fill:#2494a1"/><path d="M32.06,28a8.328,8.328,0,0,1,.937.053c0-.018,0-.035,0-.053,0-1.105-.448-2-1-2s-1,.895-1,2c0,.018,0,.035,0,.053A8.328,8.328,0,0,1,31.94,28Z" style="fill:#edbd9f"/><path d="M48.437,21.243a.507.507,0,0,0,.056-.174A1.962,1.962,0,0,0,48,21h-.573l-4.688,8.439-8.716-1.716A8.67,8.67,0,0,0,32.06,27.5h-.12a8.6,8.6,0,0,0-1.947.22l-8.732,1.719L16.573,21H16a1.962,1.962,0,0,0-.493.069.527.527,0,0,0,.055.174l4.885,8.793-1.622,4.046c.088.221.175.442.275.658.086.186.192.36.285.541.027-.035.065-.059.082-.1l1.9-4.741L30.2,28.7a7.672,7.672,0,0,1,1.737-.2h.12a7.747,7.747,0,0,1,1.753.2l8.824,1.738,1.8,4.481.1.26c.018.046.058.071.086.108.094-.182.2-.36.281-.547.1-.214.186-.434.273-.653l-1.62-4.051Z" style="fill:#3ab8c6"/><ellipse cx="39.5" cy="25" rx="1.5" ry="3" style="fill:#3d4145"/><ellipse cx="24.5" cy="25" rx="1.5" ry="3" style="fill:#3d4145"/><path d="M22.094,21.481c-.021.006-.041.011-.062.015-.3.054-.53-.423-.53-.746,0-.091.034-2.25,3-2.25s3,2.159,3,2.25a.79.79,0,0,1-.337.675c-.219.133-.43.009-.6-.2-.083-.1-.147-.228-.236-.324a1.108,1.108,0,0,0-.3-.213,4.422,4.422,0,0,0-.828-.377,2.394,2.394,0,0,0-2.229.491A3.18,3.18,0,0,1,22.094,21.481Z" style="fill:#3d4145"/><path d="M41.908,21.481c.021.006.041.011.062.015.3.054.53-.423.53-.746,0-.091-.034-2.25-3-2.25s-3,2.159-3,2.25a.79.79,0,0,0,.337.675c.218.133.43.009.6-.2.083-.1.147-.228.235-.324a1.124,1.124,0,0,1,.3-.213,4.459,4.459,0,0,1,.829-.377,2.394,2.394,0,0,1,2.229.491A3.166,3.166,0,0,0,41.908,21.481Z" style="fill:#3d4145"/><polygon points="63 10 61 10 61 8 59 8 59 10 57 10 57 12 59 12 59 14 61 14 61 12 63 12 63 10" style="fill:#7ae2ff"/><polygon points="10 32 8 32 8 30 6 30 6 32 4 32 4 34 6 34 6 36 8 36 8 34 10 34 10 32" style="fill:#7ae2ff"/></g></svg>