<svg xmlns="http://www.w3.org/2000/svg" viewBox="0 0 24 24"><defs><style>.a{fill:#f8de40;}.b{fill:#e7c930;}.c{fill:#864e20;}</style></defs><rect class="a" x="1" y="1" width="22" height="22" rx="7.656"/><path class="b" d="M23,13.938a14.69,14.69,0,0,1-12.406,6.531c-5.542,0-6.563-1-9.142-2.529A7.66,7.66,0,0,0,8.656,23h6.688A7.656,7.656,0,0,0,23,15.344Z"/><path class="c" d="M18.29,9.084h-4.1a.586.586,0,0,1,0-1.171h4.1a.586.586,0,0,1,0,1.171Z"/><path class="c" d="M9.806,9.084H5.71a.586.586,0,0,1,0-1.171h4.1a.586.586,0,0,1,0,1.171Z"/><path class="c" d="M8.672,10.205A1.706,1.706,0,0,0,10.379,8.5H6.966A1.706,1.706,0,0,0,8.672,10.205Z"/><path class="c" d="M17.156,10.205A1.706,1.706,0,0,0,18.863,8.5H15.45A1.706,1.706,0,0,0,17.156,10.205Z"/><ellipse class="c" cx="12" cy="13.375" rx="5.479" ry="0.297"/><ellipse class="b" cx="12" cy="14.646" rx="1.969" ry="0.229"/></svg>