<svg xmlns="http://www.w3.org/2000/svg" viewBox="0 0 24 24"><defs><style>.a{fill:#f8de40;}.b{fill:#864e20;}.c{fill:#e7c930;}.d{fill:#26a9e0;}</style></defs><rect class="a" x="1" y="1" width="22" height="22" rx="7.656"/><path class="b" d="M8.907,9.844a.182.182,0,0,1-.331.1,2.016,2.016,0,0,0-.569-.567,1.731,1.731,0,0,0-1.915,0,2.016,2.016,0,0,0-.571.569.182.182,0,0,1-.331-.1,1.632,1.632,0,0,1,.346-1.023,1.927,1.927,0,0,1,3.026,0A1.64,1.64,0,0,1,8.907,9.844Z"/><path class="b" d="M18.81,9.844a.182.182,0,0,1-.331.1,2.026,2.026,0,0,0-.568-.567,1.732,1.732,0,0,0-1.916,0,2.016,2.016,0,0,0-.571.569.182.182,0,0,1-.331-.1,1.632,1.632,0,0,1,.346-1.023,1.927,1.927,0,0,1,3.026,0A1.64,1.64,0,0,1,18.81,9.844Z"/><path class="c" d="M23,13.938a14.69,14.69,0,0,1-12.406,6.531c-5.542,0-6.563-1-9.142-2.529A7.66,7.66,0,0,0,8.656,23h6.688A7.656,7.656,0,0,0,23,15.344Z"/><path class="b" d="M15.633,12.993A7.322,7.322,0,0,1,12,14.044a7.322,7.322,0,0,1-3.633-1.051c-.363-.241-.478-.215-.478-.129,0,1.056,2.055,1.708,4.111,1.708s4.111-.652,4.111-1.708C16.111,12.778,16,12.752,15.633,12.993Z"/><path class="c" d="M13.136,15.183a2.262,2.262,0,0,1-2.272,0c-.268-.2-.252.381.341.536a2.786,2.786,0,0,0,.8.172,2.786,2.786,0,0,0,.8-.172C13.388,15.564,13.4,14.98,13.136,15.183Z"/><path class="d" d="M19.641,2.26l-.118-.018a7.84,7.84,0,0,1,.85.644c2.029.388,2.133.772,2.133.776s-.127.485-2.94.913A52.888,52.888,0,0,1,12,5.052a52.888,52.888,0,0,1-7.566-.477c-2.813-.428-2.94-.908-2.94-.913s.1-.388,2.133-.776a7.84,7.84,0,0,1,.85-.644l-.118.018C1.348,2.718,1,3.28,1,3.662s.348.943,3.359,1.4A53.5,53.5,0,0,0,12,5.546a53.5,53.5,0,0,0,7.641-.482C22.652,4.605,23,4.044,23,3.662S22.652,2.718,19.641,2.26Z"/></svg>