<svg xmlns="http://www.w3.org/2000/svg" viewBox="0 0 24 24"><defs><style>.a{fill:#f8de40;}.b{fill:#e7c930;}.c{fill:#864e20;}</style></defs><rect class="a" x="1" y="1" width="22" height="22" rx="7.656"/><path class="b" d="M23,13.938a14.69,14.69,0,0,1-12.406,6.531c-5.542,0-6.563-1-9.142-2.529A7.66,7.66,0,0,0,8.656,23h6.688A7.656,7.656,0,0,0,23,15.344Z"/><ellipse class="c" cx="12" cy="13.375" rx="5.479" ry="0.297"/><ellipse class="b" cx="12" cy="14.646" rx="1.969" ry="0.229"/><path class="c" d="M7.817,9.059l.839-.838a.429.429,0,0,0,0-.6L8.5,7.458a.427.427,0,0,0-.6,0L7.055,8.3l-.839-.839a.429.429,0,0,0-.6,0l-.158.159a.427.427,0,0,0,0,.6l.839.838L5.454,9.9a.427.427,0,0,0,0,.6l.158.158a.427.427,0,0,0,.6,0l.839-.838.839.838a.426.426,0,0,0,.6,0l.159-.158a.429.429,0,0,0,0-.6Z"/><path class="c" d="M17.719,9.059l.839-.838a.427.427,0,0,0,0-.6L18.4,7.458a.427.427,0,0,0-.6,0l-.839.839-.839-.839a.427.427,0,0,0-.6,0l-.159.159a.427.427,0,0,0,0,.6l.839.838-.839.839a.427.427,0,0,0,0,.6l.159.158a.426.426,0,0,0,.6,0l.839-.838.839.838a.426.426,0,0,0,.6,0l.159-.158a.427.427,0,0,0,0-.6Z"/></svg>