<svg xmlns="http://www.w3.org/2000/svg" viewBox="0 0 24 24"><defs><style>.a{fill:#f8de40;}.b{fill:#e7c930;}.c{fill:#864e20;}</style></defs><rect class="a" x="1" y="1" width="22" height="22" rx="7.656"/><path class="b" d="M23,13.938a14.69,14.69,0,0,1-12.406,6.531c-5.542,0-6.563-1-9.142-2.529A7.66,7.66,0,0,0,8.656,23h6.688A7.656,7.656,0,0,0,23,15.344Z"/><path class="c" d="M19.2,13.794a5.027,5.027,0,0,1-3.035-1.927,2.629,2.629,0,0,0-3.2-.64A2.948,2.948,0,0,0,12,12.379a2.957,2.957,0,0,0-.964-1.152,2.631,2.631,0,0,0-3.2.64A5.024,5.024,0,0,1,4.8,13.794a.441.441,0,0,0-.371.67A3.659,3.659,0,0,0,8,16.264c2.374-.139,3.532-.979,4-1.833.466.854,1.624,1.694,4,1.833a3.661,3.661,0,0,0,3.58-1.812A.439.439,0,0,0,19.2,13.794Z"/><path class="c" d="M8.907,8.275a.182.182,0,0,0-.331-.1,2.016,2.016,0,0,1-.569.567,1.728,1.728,0,0,1-1.915,0,2.029,2.029,0,0,1-.571-.569.182.182,0,0,0-.331.1,1.63,1.63,0,0,0,.346,1.022,1.926,1.926,0,0,0,3.026,0A1.636,1.636,0,0,0,8.907,8.275Z"/><path class="c" d="M18.81,8.275a.182.182,0,0,0-.331-.1,2.026,2.026,0,0,1-.568.567,1.73,1.73,0,0,1-1.916,0,2.029,2.029,0,0,1-.571-.569.182.182,0,0,0-.331.1,1.63,1.63,0,0,0,.346,1.022,1.926,1.926,0,0,0,3.026,0A1.636,1.636,0,0,0,18.81,8.275Z"/></svg>