<svg xmlns="http://www.w3.org/2000/svg" viewBox="0 0 24 24"><defs><style>.a{fill:#f8de40;}.b{fill:#864e20;}.c{fill:#e7c930;}.d{fill:#fff;}.e{fill:#e6e7e8;}</style></defs><rect class="a" x="1" y="1" width="22" height="22" rx="7.656"/><path class="b" d="M12,5.417a2.934,2.934,0,1,0,2.934,2.934A2.935,2.935,0,0,0,12,5.417Z"/><path class="c" d="M23,13.938a14.69,14.69,0,0,1-12.406,6.531c-5.542,0-6.563-1-9.142-2.529A7.66,7.66,0,0,0,8.656,23h6.688A7.656,7.656,0,0,0,23,15.344Z"/><rect class="d" x="5.189" y="12.5" width="13.621" height="3.875" rx="1.937"/><ellipse class="e" cx="12" cy="14.438" rx="6.188" ry="0.25"/><ellipse class="e" cx="7.257" cy="14.437" rx="0.208" ry="1.437"/><ellipse class="e" cx="9.628" cy="14.437" rx="0.208" ry="1.437"/><ellipse class="e" cx="12" cy="14.437" rx="0.208" ry="1.437"/><ellipse class="e" cx="14.372" cy="14.437" rx="0.208" ry="1.437"/><ellipse class="e" cx="16.743" cy="14.437" rx="0.208" ry="1.437"/></svg>