<svg xmlns="http://www.w3.org/2000/svg" viewBox="0 0 24 24"><defs><style>.a{fill:#f8de40;}.b{fill:#864e20;}.c{fill:#e7c930;}.d{fill:#f06880;}</style></defs><rect class="a" x="1" y="1" width="22" height="22" rx="7.656"/><path class="b" d="M7.055,7.313A1.747,1.747,0,1,0,8.8,9.059,1.747,1.747,0,0,0,7.055,7.313Z"/><path class="b" d="M16.958,7.313A1.747,1.747,0,1,0,18.7,9.059,1.747,1.747,0,0,0,16.958,7.313Z"/><path class="c" d="M23,13.938a14.69,14.69,0,0,1-12.406,6.531c-5.542,0-6.563-1-9.142-2.529A7.66,7.66,0,0,0,8.656,23h6.688A7.656,7.656,0,0,0,23,15.344Z"/><path class="b" d="M16.083,12.556A5.487,5.487,0,0,0,12,10.806a5.487,5.487,0,0,0-4.083,1.75c-.959,1.292-.147,2.667.885,2.583s2.781-.285,3.2-.285,2.167.2,3.2.285S17.042,13.848,16.083,12.556Z"/><path class="d" d="M13.75,13.266c-1.344-.3-1.75.109-1.75.109s-.406-.406-1.75-.109A2.463,2.463,0,0,0,8.6,15.136a1.1,1.1,0,0,0,.207,0c1.031-.083,2.781-.285,3.2-.285s2.167.2,3.2.285a1.1,1.1,0,0,0,.207,0A2.463,2.463,0,0,0,13.75,13.266Z"/><path class="c" d="M13.965,15.91a9.842,9.842,0,0,0-1.965-.3,9.842,9.842,0,0,0-1.965.3c-.294.061-.3.3,0,.261S12,16.041,12,16.041s1.663.09,1.965.13S14.259,15.971,13.965,15.91Z"/><path class="b" d="M19.686,6.658l0,0a2.954,2.954,0,0,0-.228-.385,4.467,4.467,0,0,0-.576-.675c-.108-.1-.217-.205-.332-.3s-.242-.174-.364-.26A3.4,3.4,0,0,0,17.8,4.8c-.134-.066-.263-.143-.4-.2a4.857,4.857,0,0,0-1.743-.4,3.732,3.732,0,0,0-1.334.177.174.174,0,0,0,.007.327c.406.139.784.271,1.157.41.494.184.973.367,1.442.576.121.043.233.107.351.158l.178.076c.06.025.114.059.174.085.116.054.23.112.35.161l.011,0c.114.06.229.119.348.175.247.105.476.244.735.355.128.06.254.124.386.186A.173.173,0,0,0,19.686,6.658Z"/><path class="b" d="M9.691,4.38A3.729,3.729,0,0,0,8.357,4.2a4.862,4.862,0,0,0-1.743.4c-.139.055-.269.132-.4.2a3.4,3.4,0,0,0-.384.231c-.122.086-.246.169-.363.26s-.224.2-.332.3a4.474,4.474,0,0,0-.577.675,2.948,2.948,0,0,0-.227.385l0,0a.173.173,0,0,0,.227.236c.131-.062.258-.126.386-.186.259-.111.487-.25.734-.355.119-.056.235-.115.349-.175l.01,0c.12-.049.235-.107.35-.161.06-.026.115-.06.174-.085l.178-.076c.118-.051.231-.115.352-.158.469-.209.947-.392,1.441-.576.373-.139.751-.271,1.158-.41A.174.174,0,0,0,9.691,4.38Z"/></svg>