<svg xmlns="http://www.w3.org/2000/svg" viewBox="0 0 24 24"><defs><style>.a{fill:#e7253e;}.b{fill:#b51f36;}.c{fill:#90192d;}</style></defs><path class="a" d="M22.483,5.891a4.971,4.971,0,0,0-.414-4.775.315.315,0,0,0-.554.145,4.432,4.432,0,0,1-.921,1.826A7.626,7.626,0,0,0,15.344,1H8.656A7.627,7.627,0,0,0,3.348,3.142a4.5,4.5,0,0,1-.965-1.881.315.315,0,0,0-.554-.145A4.988,4.988,0,0,0,1.461,6l.007.014A7.664,7.664,0,0,0,1,8.656v6.688A7.656,7.656,0,0,0,8.656,23h6.688A7.656,7.656,0,0,0,23,15.344V8.656A7.625,7.625,0,0,0,22.483,5.891Z"/><path class="b" d="M23,13.938a14.69,14.69,0,0,1-12.406,6.531c-5.542,0-6.563-1-9.142-2.529A7.66,7.66,0,0,0,8.656,23h6.688A7.656,7.656,0,0,0,23,15.344Z"/><path class="c" d="M9.565,8.513A16.121,16.121,0,0,1,5.63,6.328a.52.52,0,0,0-.832.4c-.048,1.583.151,4.483,2.258,4.483A2.6,2.6,0,0,0,9.9,9.1.517.517,0,0,0,9.565,8.513Z"/><path class="c" d="M19.2,6.731a.521.521,0,0,0-.832-.4,16.121,16.121,0,0,1-3.935,2.185A.517.517,0,0,0,14.1,9.1a2.6,2.6,0,0,0,2.84,2.11C19.051,11.214,19.25,8.314,19.2,6.731Z"/><path class="c" d="M14,13.937a.318.318,0,0,1-.313-.326,2.105,2.105,0,0,0-.5-1.331A1.6,1.6,0,0,0,12,11.847a1.6,1.6,0,0,0-1.187.43,2.092,2.092,0,0,0-.5,1.335.32.32,0,0,1-.64.012,2.715,2.715,0,0,1,.679-1.792A2.211,2.211,0,0,1,12,11.207a2.211,2.211,0,0,1,1.647.625,2.721,2.721,0,0,1,.679,1.792A.321.321,0,0,1,14,13.937Z"/></svg>