<svg xmlns="http://www.w3.org/2000/svg" viewBox="0 0 24 24"><defs><style>.a{fill:#f8de40;}.b{fill:#e7c930;}.c{fill:#864e20;}</style></defs><rect class="a" x="1" y="1" width="22" height="22" rx="7.656"/><path class="b" d="M23,13.938a14.69,14.69,0,0,1-12.406,6.531c-5.542,0-6.563-1-9.142-2.529A7.66,7.66,0,0,0,8.656,23h6.688A7.656,7.656,0,0,0,23,15.344Z"/><path class="c" d="M8.907,8.275a.182.182,0,0,0-.331-.1,2.016,2.016,0,0,1-.569.567,1.728,1.728,0,0,1-1.915,0,2.029,2.029,0,0,1-.571-.569.182.182,0,0,0-.331.1,1.63,1.63,0,0,0,.346,1.022,1.926,1.926,0,0,0,3.026,0A1.636,1.636,0,0,0,8.907,8.275Z"/><path class="c" d="M18.81,8.275a.182.182,0,0,0-.331-.1,2.026,2.026,0,0,1-.568.567,1.73,1.73,0,0,1-1.916,0,2.029,2.029,0,0,1-.571-.569.182.182,0,0,0-.331.1,1.63,1.63,0,0,0,.346,1.022,1.926,1.926,0,0,0,3.026,0A1.636,1.636,0,0,0,18.81,8.275Z"/><path class="c" d="M14.512,13.366a5.943,5.943,0,0,0-5.024,0c-.592.369-.557-.694.753-.974A7.35,7.35,0,0,1,12,12.078a7.35,7.35,0,0,1,1.759.314C15.069,12.672,15.1,13.735,14.512,13.366Z"/><path class="b" d="M13.074,14.269a2.542,2.542,0,0,0-2.148,0c-.253.158-.238-.3.322-.416A3.144,3.144,0,0,1,12,13.719a3.144,3.144,0,0,1,.752.134C13.312,13.973,13.327,14.427,13.074,14.269Z"/></svg>