<svg xmlns="http://www.w3.org/2000/svg" viewBox="0 0 24 24"><defs><style>.a{fill:#e7253e;}.b{fill:#b51f36;}.c{fill:#90192d;}</style></defs><rect class="a" x="1" y="1" width="22" height="22" rx="7.656"/><path class="b" d="M23,13.938a14.69,14.69,0,0,1-12.406,6.531c-5.542,0-6.563-1-9.142-2.529A7.66,7.66,0,0,0,8.656,23h6.688A7.656,7.656,0,0,0,23,15.344Z"/><path class="c" d="M9.565,8.513A16.121,16.121,0,0,1,5.63,6.328a.52.52,0,0,0-.832.4c-.048,1.583.151,4.483,2.258,4.483A2.6,2.6,0,0,0,9.9,9.1.517.517,0,0,0,9.565,8.513Z"/><path class="c" d="M19.2,6.731a.521.521,0,0,0-.832-.4,16.121,16.121,0,0,1-3.935,2.185A.517.517,0,0,0,14.1,9.1a2.6,2.6,0,0,0,2.84,2.11C19.051,11.214,19.25,8.314,19.2,6.731Z"/><path class="c" d="M19.2,13.794a5.027,5.027,0,0,1-3.035-1.927,2.629,2.629,0,0,0-3.2-.64A2.948,2.948,0,0,0,12,12.379a2.957,2.957,0,0,0-.964-1.152,2.631,2.631,0,0,0-3.2.64A5.024,5.024,0,0,1,4.8,13.794a.441.441,0,0,0-.371.67A3.659,3.659,0,0,0,8,16.264c2.374-.139,3.532-.979,4-1.833.466.854,1.624,1.694,4,1.833a3.661,3.661,0,0,0,3.58-1.812A.439.439,0,0,0,19.2,13.794Z"/></svg>