<svg xmlns="http://www.w3.org/2000/svg" viewBox="0 0 24 24"><defs><style>.a{fill:#f8de40;}.b{fill:#864e20;}.c{fill:#e7c930;}.d{fill:#f06880;}</style></defs><rect class="a" x="1" y="1" width="22" height="22" rx="7.656"/><path class="b" d="M12,5.417a2.934,2.934,0,1,0,2.934,2.934A2.935,2.935,0,0,0,12,5.417Z"/><path class="c" d="M23,13.938a14.69,14.69,0,0,1-12.406,6.531c-5.542,0-6.563-1-9.142-2.529A7.66,7.66,0,0,0,8.656,23h6.688A7.656,7.656,0,0,0,23,15.344Z"/><path class="b" d="M12.293,14.364a1.183,1.183,0,0,0,.434-.909,1.341,1.341,0,0,0-.984-1.2.311.311,0,0,0-.414.228v.006a.31.31,0,0,0,.2.354c.215.082.576.27.576.613,0,.425-.5.609-.516.616a.317.317,0,0,0-.21.3.312.312,0,0,0,.226.292.716.716,0,0,1,.5.679c0,.269-.366.454-.584.54a.316.316,0,0,0-.145.119l-.1.024.061.244h0a.314.314,0,0,0,.155.184.3.3,0,0,0,.258.012c.366-.146.98-.486.98-1.123A1.283,1.283,0,0,0,12.293,14.364Z"/><path class="d" d="M18.6,12.769a1.3,1.3,0,0,0-1.768.1l-.381.381-.382-.381a1.3,1.3,0,0,0-1.768-.1,1.249,1.249,0,0,0-.048,1.813l1.885,1.886a.441.441,0,0,0,.625,0l1.886-1.886A1.25,1.25,0,0,0,18.6,12.769Z"/></svg>