<svg xmlns="http://www.w3.org/2000/svg" viewBox="0 0 24 24"><defs><style>.a{fill:#f8de40;}.b{fill:#864e20;}.c{fill:#e7c930;}</style></defs><rect class="a" x="1" y="1" width="22" height="22" rx="7.656"/><path class="b" d="M12,5.417a2.934,2.934,0,1,0,2.934,2.934A2.935,2.935,0,0,0,12,5.417Z"/><path class="c" d="M23,13.938a14.69,14.69,0,0,1-12.406,6.531c-5.542,0-6.563-1-9.142-2.529A7.66,7.66,0,0,0,8.656,23h6.688A7.656,7.656,0,0,0,23,15.344Z"/><path class="b" d="M14,15.2a.32.32,0,0,1-.313-.327,2.1,2.1,0,0,0-.5-1.33A1.593,1.593,0,0,0,12,13.105a1.6,1.6,0,0,0-1.187.43,2.09,2.09,0,0,0-.5,1.334.32.32,0,1,1-.64.012,2.713,2.713,0,0,1,.679-1.791A2.211,2.211,0,0,1,12,12.465a2.211,2.211,0,0,1,1.647.625,2.719,2.719,0,0,1,.679,1.791A.322.322,0,0,1,14,15.2Z"/></svg>