<svg xmlns="http://www.w3.org/2000/svg" viewBox="0 0 24 24"><defs><style>.a{fill:#f8de40;}.b{fill:#864e20;}.c{fill:#e7c930;}</style></defs><rect class="a" x="1" y="1" width="22" height="22" rx="7.656"/><path class="b" d="M7.055,7.313A1.747,1.747,0,1,0,8.8,9.059,1.747,1.747,0,0,0,7.055,7.313Z"/><path class="b" d="M16.958,7.313A1.747,1.747,0,1,0,18.7,9.059,1.747,1.747,0,0,0,16.958,7.313Z"/><path class="c" d="M23,13.938a14.69,14.69,0,0,1-12.406,6.531c-5.542,0-6.563-1-9.142-2.529A7.66,7.66,0,0,0,8.656,23h6.688A7.656,7.656,0,0,0,23,15.344Z"/><path class="b" d="M14.739,12.484h-.008a.364.364,0,0,0-.414.23c-.135.355-.431.9-.982.9-.685,0-.976-.784-.987-.816a.367.367,0,0,0-.7.019,1.146,1.146,0,0,1-1.08.8c-.443,0-.733-.552-.875-.912a.364.364,0,0,0-.426-.219l.323-.081-.323.081h0l-.032.008.024-.006a.363.363,0,0,0-.249.488c.208.521.682,1.375,1.558,1.375a1.8,1.8,0,0,0,1.439-.686,1.655,1.655,0,0,0,1.327.686,1.871,1.871,0,0,0,1.67-1.38A.363.363,0,0,0,14.739,12.484Z"/><ellipse class="c" cx="12" cy="15.173" rx="1.969" ry="0.229"/></svg>