<svg xmlns="http://www.w3.org/2000/svg" viewBox="0 0 24 24"><defs><style>.a{fill:#f8de40;}.b{fill:#864e20;}.c{fill:#e7c930;}.d{fill:#f06880;}</style></defs><rect class="a" x="1" y="1" width="22" height="22" rx="7.656"/><path class="b" d="M12,5.417a2.934,2.934,0,1,0,2.934,2.934A2.935,2.935,0,0,0,12,5.417Z"/><path class="c" d="M23,13.938a14.69,14.69,0,0,1-12.406,6.531c-5.542,0-6.563-1-9.142-2.529A7.66,7.66,0,0,0,8.656,23h6.688A7.656,7.656,0,0,0,23,15.344Z"/><path class="b" d="M16.083,13.841A5.487,5.487,0,0,0,12,12.091a5.487,5.487,0,0,0-4.083,1.75c-.959,1.292-.147,2.667.885,2.583s2.781-.285,3.2-.285,2.167.2,3.2.285S17.042,15.133,16.083,13.841Z"/><path class="d" d="M13.75,14.551c-1.344-.3-1.75.109-1.75.109s-.406-.406-1.75-.109A2.463,2.463,0,0,0,8.6,16.421a1.1,1.1,0,0,0,.207,0c1.031-.083,2.781-.285,3.2-.285s2.167.2,3.2.285a1.1,1.1,0,0,0,.207,0A2.463,2.463,0,0,0,13.75,14.551Z"/><path class="c" d="M13.965,17.2a9.842,9.842,0,0,0-1.965-.3,9.842,9.842,0,0,0-1.965.3c-.294.061-.3.3,0,.261S12,17.326,12,17.326s1.663.09,1.965.13S14.259,17.256,13.965,17.2Z"/></svg>