<svg xmlns="http://www.w3.org/2000/svg" viewBox="0 0 24 24"><defs><style>.a{fill:#f8de40;}.b{fill:#864e20;}.c{fill:#e7c930;}</style></defs><rect class="a" x="1" y="1" width="22" height="22" rx="7.656"/><path class="b" d="M7.055,7.313A1.747,1.747,0,1,0,8.8,9.059,1.747,1.747,0,0,0,7.055,7.313Z"/><path class="b" d="M16.958,7.313A1.747,1.747,0,1,0,18.7,9.059,1.747,1.747,0,0,0,16.958,7.313Z"/><path class="c" d="M23,13.938a14.69,14.69,0,0,1-12.406,6.531c-5.542,0-6.563-1-9.142-2.529A7.66,7.66,0,0,0,8.656,23h6.688A7.656,7.656,0,0,0,23,15.344Z"/><path class="b" d="M12.991,13.937l1.091-1.09a.555.555,0,0,0,0-.785l-.206-.207a.556.556,0,0,0-.785,0L12,12.946l-1.091-1.091a.556.556,0,0,0-.785,0l-.206.207a.555.555,0,0,0,0,.785l1.091,1.09L9.918,15.028a.555.555,0,0,0,0,.785l.206.207a.556.556,0,0,0,.785,0L12,14.929l1.091,1.091a.556.556,0,0,0,.785,0l.206-.207a.555.555,0,0,0,0-.785Z"/></svg>