<svg xmlns="http://www.w3.org/2000/svg" viewBox="0 0 24 24"><defs><style>.a{fill:#f8de40;}.b{fill:#e7c930;}.c{fill:#864e20;}</style></defs><rect class="a" x="1" y="1" width="22" height="22" rx="7.656"/><path class="b" d="M23,13.938a14.69,14.69,0,0,1-12.406,6.531c-5.542,0-6.563-1-9.142-2.529A7.66,7.66,0,0,0,8.656,23h6.688A7.656,7.656,0,0,0,23,15.344Z"/><path class="c" d="M7.055,7.313A1.747,1.747,0,1,0,8.8,9.059,1.747,1.747,0,0,0,7.055,7.313Z"/><path class="c" d="M16.958,7.313A1.747,1.747,0,1,0,18.7,9.059,1.747,1.747,0,0,0,16.958,7.313Z"/><path class="c" d="M14,13.937a.318.318,0,0,1-.313-.326,2.105,2.105,0,0,0-.5-1.331A1.6,1.6,0,0,0,12,11.847a1.6,1.6,0,0,0-1.187.43,2.092,2.092,0,0,0-.5,1.335.32.32,0,0,1-.64.012,2.715,2.715,0,0,1,.679-1.792A2.211,2.211,0,0,1,12,11.207a2.211,2.211,0,0,1,1.647.625,2.721,2.721,0,0,1,.679,1.792A.321.321,0,0,1,14,13.937Z"/></svg>