<svg xmlns="http://www.w3.org/2000/svg" viewBox="0 0 24 24"><defs><style>.a{fill:#f8de40;}.b{fill:#e7c930;}.c{fill:#f06880;}.d{fill:#cd4b68;}.e{fill:#864e20;}</style></defs><rect class="a" x="1" y="1" width="22" height="22" rx="7.656"/><path class="b" d="M23,13.938a14.69,14.69,0,0,1-12.406,6.531c-5.542,0-6.563-1-9.142-2.529A7.66,7.66,0,0,0,8.656,23h6.688A7.656,7.656,0,0,0,23,15.344Z"/><path class="c" d="M15.405,15.136a2.463,2.463,0,0,0-1.655-1.87c-1.344-.3-1.75.109-1.75.109s-.406-.406-1.75-.109A2.463,2.463,0,0,0,8.6,15.136a8.447,8.447,0,0,0,0,2.723c.264,1.172,1.061,1.61,3.4,1.61s3.141-.438,3.4-1.61A8.447,8.447,0,0,0,15.405,15.136Z"/><path class="d" d="M12.187,15.687a5.589,5.589,0,0,1,.625-2.528,1.228,1.228,0,0,0-.812.216,1.228,1.228,0,0,0-.812-.216,5.581,5.581,0,0,1,.624,2.528C11.771,17,12,17,12,17S12.229,17,12.187,15.687Z"/><path class="e" d="M19.2,13.794a5.027,5.027,0,0,1-3.035-1.927,2.629,2.629,0,0,0-3.2-.64A2.948,2.948,0,0,0,12,12.379a2.957,2.957,0,0,0-.964-1.152,2.631,2.631,0,0,0-3.2.64A5.024,5.024,0,0,1,4.8,13.794a.441.441,0,0,0-.371.67A3.659,3.659,0,0,0,8,16.264c2.374-.139,3.532-.979,4-1.833.466.854,1.624,1.694,4,1.833a3.661,3.661,0,0,0,3.58-1.812A.439.439,0,0,0,19.2,13.794Z"/><path class="e" d="M7.055,7.313A1.747,1.747,0,1,0,8.8,9.059,1.747,1.747,0,0,0,7.055,7.313Z"/><path class="e" d="M16.958,7.313A1.747,1.747,0,1,0,18.7,9.059,1.747,1.747,0,0,0,16.958,7.313Z"/></svg>