<svg xmlns="http://www.w3.org/2000/svg" viewBox="0 0 24 24"><defs><style>.a{fill:#f8de40;}.b{fill:#e7c930;}.c{fill:#864e20;}.d{fill:#f06880;}.e{fill:#26a9e0;}.f{fill:#101820;}</style></defs><rect class="a" x="1" y="1" width="22" height="22" rx="7.656"/><path class="b" d="M23,13.938a14.69,14.69,0,0,1-12.406,6.531c-5.542,0-6.563-1-9.142-2.529A7.66,7.66,0,0,0,8.656,23h6.688A7.656,7.656,0,0,0,23,15.344Z"/><path class="c" d="M16.666,12.583H7.334a.493.493,0,0,0-.492.544c.123,1.175.875,3.842,5.158,3.842s5.035-2.667,5.158-3.842A.493.493,0,0,0,16.666,12.583Z"/><path class="d" d="M12,16.969a6.538,6.538,0,0,0,2.959-.6,1.979,1.979,0,0,0-1.209-.853c-1.344-.3-1.75.109-1.75.109s-.406-.406-1.75-.109a1.979,1.979,0,0,0-1.209.853A6.538,6.538,0,0,0,12,16.969Z"/><path class="e" d="M5.117,15.682a6.6,6.6,0,0,0,1.311-4.356,6.6,6.6,0,0,0-4.357,1.31c-1.77,1.523-.92,3.011-.442,3.489S3.594,17.453,5.117,15.682Z"/><path class="e" d="M18.883,15.682a6.6,6.6,0,0,1-1.311-4.356,6.6,6.6,0,0,1,4.357,1.31c1.77,1.523.92,3.011.442,3.489S20.406,17.453,18.883,15.682Z"/><path class="f" d="M21.554,5.693c-.063-.289-2.888-.829-4.871-.829a5.584,5.584,0,0,0-3.3.7A3.125,3.125,0,0,1,12,5.919a3.125,3.125,0,0,1-1.381-.352,5.584,5.584,0,0,0-3.3-.7c-1.983,0-4.808.54-4.871.829s-.113,1.217.088,1.381.439.025.477.6.477,2.976,1.808,3.767,3.741.163,4.6-.365A4.3,4.3,0,0,0,11.3,8.568c.138-.892.351-1.507.7-1.507s.565.615.7,1.507a4.3,4.3,0,0,0,1.883,2.51c.854.528,3.264,1.155,4.6.365s1.77-3.189,1.808-3.767.276-.439.477-.6S21.617,5.981,21.554,5.693Z"/></svg>