<svg xmlns="http://www.w3.org/2000/svg" viewBox="0 0 24 24"><defs><style>.a{fill:#f8de40;}.b{fill:#e7c930;}.c{fill:#fff;}.d{fill:#e6e7e8;}.e{fill:#864e20;}</style></defs><rect class="a" x="1" y="1" width="22" height="22" rx="7.656"/><path class="b" d="M23,13.938a14.69,14.69,0,0,1-12.406,6.531c-5.542,0-6.563-1-9.142-2.529A7.66,7.66,0,0,0,8.656,23h6.688A7.656,7.656,0,0,0,23,15.344Z"/><path class="c" d="M7.127,12h9.746a1.937,1.937,0,0,1,1.937,1.937v0a1.938,1.938,0,0,1-1.937,1.938H7.127a1.937,1.937,0,0,1-1.937-1.937v0A1.937,1.937,0,0,1,7.127,12Z"/><ellipse class="d" cx="12" cy="13.938" rx="6.188" ry="0.25"/><ellipse class="d" cx="7.257" cy="13.938" rx="0.208" ry="1.438"/><ellipse class="d" cx="9.628" cy="13.938" rx="0.208" ry="1.438"/><ellipse class="d" cx="12" cy="13.938" rx="0.208" ry="1.438"/><ellipse class="d" cx="14.372" cy="13.938" rx="0.208" ry="1.438"/><ellipse class="d" cx="16.743" cy="13.938" rx="0.208" ry="1.438"/><path class="e" d="M7.055,7.313A1.747,1.747,0,1,0,8.8,9.059,1.747,1.747,0,0,0,7.055,7.313Z"/><path class="e" d="M16.958,7.313A1.747,1.747,0,1,0,18.7,9.059,1.747,1.747,0,0,0,16.958,7.313Z"/></svg>