<svg xmlns="http://www.w3.org/2000/svg" viewBox="0 0 24 24"><defs><style>.a{fill:#f8de40;}.b{fill:#864e20;}.c{fill:#e7c930;}</style></defs><rect class="a" x="1" y="1" width="22" height="22" rx="7.656"/><path class="b" d="M7.055,16.688A1.747,1.747,0,1,1,8.8,14.941,1.748,1.748,0,0,1,7.055,16.688Z"/><path class="b" d="M16.958,16.688A1.747,1.747,0,1,1,18.7,14.941,1.748,1.748,0,0,1,16.958,16.688Z"/><path class="b" d="M14,12.793a.32.32,0,0,1-.313-.327,2.1,2.1,0,0,0-.5-1.33A1.593,1.593,0,0,0,12,10.7a1.6,1.6,0,0,0-1.187.43,2.088,2.088,0,0,0-.5,1.334.32.32,0,1,1-.64.012,2.712,2.712,0,0,1,.679-1.791A2.211,2.211,0,0,1,12,10.063a2.211,2.211,0,0,1,1.647.625,2.718,2.718,0,0,1,.679,1.791A.322.322,0,0,1,14,12.793Z"/><path class="c" d="M23,13.938a14.69,14.69,0,0,1-12.406,6.531c-5.542,0-6.563-1-9.142-2.529A7.66,7.66,0,0,0,8.656,23h6.688A7.656,7.656,0,0,0,23,15.344Z"/></svg>