<svg xmlns="http://www.w3.org/2000/svg" viewBox="0 0 24 24"><defs><style>.a{fill:#f8de40;}.b{fill:#e7c930;}.c{fill:#101820;}.d{fill:#864e20;}</style></defs><rect class="a" x="1" y="1" width="22" height="22" rx="7.656"/><path class="b" d="M23,13.938a14.69,14.69,0,0,1-12.406,6.531c-5.542,0-6.563-1-9.142-2.529A7.66,7.66,0,0,0,8.656,23h6.688A7.656,7.656,0,0,0,23,15.344Z"/><path class="c" d="M21.554,5.693c-.063-.289-2.888-.829-4.871-.829a5.584,5.584,0,0,0-3.3.7A3.125,3.125,0,0,1,12,5.919a3.125,3.125,0,0,1-1.381-.352,5.584,5.584,0,0,0-3.3-.7c-1.983,0-4.808.54-4.871.829s-.113,1.217.088,1.381.439.025.477.6.477,2.976,1.808,3.767,3.741.163,4.6-.365A4.3,4.3,0,0,0,11.3,8.568c.138-.892.351-1.507.7-1.507s.565.615.7,1.507a4.3,4.3,0,0,0,1.883,2.51c.854.528,3.264,1.155,4.6.365s1.77-3.189,1.808-3.767.276-.439.477-.6S21.617,5.981,21.554,5.693Z"/><path class="d" d="M14,11.457a.32.32,0,0,0-.313.327,2.1,2.1,0,0,1-.5,1.33A1.593,1.593,0,0,1,12,13.547a1.6,1.6,0,0,1-1.187-.43,2.088,2.088,0,0,1-.5-1.334.32.32,0,1,0-.64-.012,2.712,2.712,0,0,0,.679,1.791A2.211,2.211,0,0,0,12,14.187a2.211,2.211,0,0,0,1.647-.625,2.718,2.718,0,0,0,.679-1.791A.322.322,0,0,0,14,11.457Z"/></svg>