<svg xmlns="http://www.w3.org/2000/svg" viewBox="0 0 24 24"><defs><style>.a{fill:#f8de40;}.b{fill:#e7c930;}.c{fill:#864e20;}.d{fill:#26a9e0;}</style></defs><rect class="a" x="1" y="1" width="22" height="22" rx="7.656"/><path class="b" d="M23,13.938a14.688,14.688,0,0,1-12.406,6.531c-5.542,0-6.563-1-9.142-2.529A7.66,7.66,0,0,0,8.656,23h6.688A7.656,7.656,0,0,0,23,15.344Z"/><path class="c" d="M17.2,12.746c-1.221-1.647-3.789-2.231-5.2-2.231s-3.984.584-5.2,2.231-.188,3.4,1.128,3.293,3.546-.364,4.077-.364,2.762.258,4.077.364S18.427,14.392,17.2,12.746Z"/><path class="b" d="M14.505,17.022A12.492,12.492,0,0,0,12,16.638a12.457,12.457,0,0,0-2.5.384c-.376.076-.39.384,0,.332s2.5-.166,2.5-.166,2.119.115,2.505.166S14.88,17.1,14.505,17.022Z"/><path class="c" d="M8.907,9.844a.182.182,0,0,1-.331.1,2.016,2.016,0,0,0-.569-.567,1.731,1.731,0,0,0-1.915,0,2.016,2.016,0,0,0-.571.569.182.182,0,0,1-.331-.1,1.632,1.632,0,0,1,.346-1.023,1.927,1.927,0,0,1,3.026,0A1.64,1.64,0,0,1,8.907,9.844Z"/><path class="c" d="M18.81,9.844a.182.182,0,0,1-.331.1,2.026,2.026,0,0,0-.568-.567,1.732,1.732,0,0,0-1.916,0,2.016,2.016,0,0,0-.571.569.182.182,0,0,1-.331-.1,1.632,1.632,0,0,1,.346-1.023,1.927,1.927,0,0,1,3.026,0A1.64,1.64,0,0,1,18.81,9.844Z"/><path class="d" d="M8.576,9.946a2.016,2.016,0,0,0-.569-.567,1.731,1.731,0,0,0-1.915,0,2.016,2.016,0,0,0-.571.569.175.175,0,0,1-.214.063v11.24A1.747,1.747,0,0,0,7.054,23h0A1.748,1.748,0,0,0,8.8,21.253V10.005A.176.176,0,0,1,8.576,9.946Z"/><path class="d" d="M18.473,9.946a2.026,2.026,0,0,0-.568-.567,1.732,1.732,0,0,0-1.916,0,2.016,2.016,0,0,0-.571.569.175.175,0,0,1-.214.063v11.24A1.748,1.748,0,0,0,16.952,23h0A1.747,1.747,0,0,0,18.7,21.253V10.005A.176.176,0,0,1,18.473,9.946Z"/></svg>