<svg xmlns="http://www.w3.org/2000/svg" viewBox="0 0 24 24"><defs><style>.a{fill:#f8de40;}.b{fill:#e7c930;}.c{fill:#864e20;}.d{fill:#f06880;}.e{fill:#cd4b68;}</style></defs><rect class="a" x="1" y="1" width="22" height="22" rx="7.656"/><path class="b" d="M23,13.938a14.69,14.69,0,0,1-12.406,6.531c-5.542,0-6.563-1-9.142-2.529A7.66,7.66,0,0,0,8.656,23h6.688A7.656,7.656,0,0,0,23,15.344Z"/><path class="c" d="M16.083,12.556A5.487,5.487,0,0,0,12,10.806a5.487,5.487,0,0,0-4.083,1.75c-.959,1.292-.147,2.667.885,2.583s2.781-.285,3.2-.285,2.167.2,3.2.285S17.042,13.848,16.083,12.556Z"/><path class="d" d="M15.405,15.136a2.463,2.463,0,0,0-1.655-1.87c-1.344-.3-1.75.109-1.75.109s-.406-.406-1.75-.109A2.463,2.463,0,0,0,8.6,15.136a8.449,8.449,0,0,0,0,2.723c.264,1.172,1.061,1.61,3.4,1.61s3.141-.438,3.4-1.61A8.449,8.449,0,0,0,15.405,15.136Z"/><path class="c" d="M7.817,9.059l.839-.838a.429.429,0,0,0,0-.6L8.5,7.458a.427.427,0,0,0-.6,0L7.055,8.3l-.839-.839a.429.429,0,0,0-.6,0l-.158.159a.427.427,0,0,0,0,.6l.839.838L5.454,9.9a.427.427,0,0,0,0,.6l.158.158a.427.427,0,0,0,.6,0l.839-.838.839.838a.426.426,0,0,0,.6,0l.159-.158a.429.429,0,0,0,0-.6Z"/><path class="c" d="M17.719,9.059l.839-.838a.427.427,0,0,0,0-.6L18.4,7.458a.427.427,0,0,0-.6,0l-.839.839-.839-.839a.427.427,0,0,0-.6,0l-.159.159a.427.427,0,0,0,0,.6l.839.838-.839.839a.427.427,0,0,0,0,.6l.159.158a.426.426,0,0,0,.6,0l.839-.838.839.838a.426.426,0,0,0,.6,0l.159-.158a.427.427,0,0,0,0-.6Z"/><path class="e" d="M12.187,15.688a5.591,5.591,0,0,1,.625-2.529,1.228,1.228,0,0,0-.812.216,1.228,1.228,0,0,0-.812-.216,5.582,5.582,0,0,1,.624,2.529C11.771,17,12,17,12,17S12.229,17,12.187,15.688Z"/></svg>