<svg xmlns="http://www.w3.org/2000/svg" viewBox="0 0 24 24"><defs><style>.a{fill:#f8de40;}.b{fill:#e7c930;}.c{fill:#864e20;}.d{fill:#f06880;}</style></defs><rect class="a" x="1" y="1" width="22" height="22" rx="7.656"/><path class="b" d="M23,13.938a14.69,14.69,0,0,1-12.406,6.531c-5.542,0-6.563-1-9.142-2.529A7.66,7.66,0,0,0,8.656,23h6.688A7.656,7.656,0,0,0,23,15.344Z"/><path class="c" d="M16.666,12.583H7.334a.493.493,0,0,0-.492.544c.123,1.175.875,3.842,5.158,3.842s5.035-2.667,5.158-3.842A.493.493,0,0,0,16.666,12.583Z"/><path class="d" d="M12,16.969a6.538,6.538,0,0,0,2.959-.6,1.979,1.979,0,0,0-1.209-.853c-1.344-.3-1.75.109-1.75.109s-.406-.406-1.75-.109a1.979,1.979,0,0,0-1.209.853A6.538,6.538,0,0,0,12,16.969Z"/><path class="c" d="M9.4,7.714a.21.21,0,0,0-.124-.381H7.721a.211.211,0,0,1-.2-.146L7.04,5.709a.212.212,0,0,0-.4,0l-.48,1.478a.21.21,0,0,1-.2.146H4.4a.211.211,0,0,0-.124.381l1.257.914a.21.21,0,0,1,.077.235l-.48,1.478a.211.211,0,0,0,.324.236l1.257-.913a.21.21,0,0,1,.248,0l1.257.913a.211.211,0,0,0,.325-.236l-.48-1.478a.208.208,0,0,1,.076-.235Z"/><path class="c" d="M19.72,7.714a.211.211,0,0,0-.124-.381H18.042a.21.21,0,0,1-.2-.146l-.48-1.478a.212.212,0,0,0-.4,0l-.48,1.478a.211.211,0,0,1-.2.146H14.726a.21.21,0,0,0-.124.381l1.257.914a.208.208,0,0,1,.076.235l-.48,1.478a.211.211,0,0,0,.325.236l1.257-.913a.21.21,0,0,1,.248,0l1.257.913a.211.211,0,0,0,.324-.236l-.48-1.478a.21.21,0,0,1,.077-.235Z"/></svg>