<svg xmlns="http://www.w3.org/2000/svg" viewBox="0 0 24 24"><defs><style>.a{fill:#f8de40;}.b{fill:#864e20;}.c{fill:#e7c930;}.d{fill:#f06880;}</style></defs><rect class="a" x="1" y="1" width="22" height="22" rx="7.656"/><path class="b" d="M8.907,9.844a.182.182,0,0,1-.331.1,2.016,2.016,0,0,0-.569-.567,1.731,1.731,0,0,0-1.915,0,2.016,2.016,0,0,0-.571.569.182.182,0,0,1-.331-.1,1.632,1.632,0,0,1,.346-1.023,1.927,1.927,0,0,1,3.026,0A1.64,1.64,0,0,1,8.907,9.844Z"/><path class="b" d="M18.81,9.844a.182.182,0,0,1-.331.1,2.026,2.026,0,0,0-.568-.567,1.732,1.732,0,0,0-1.916,0,2.016,2.016,0,0,0-.571.569.182.182,0,0,1-.331-.1,1.632,1.632,0,0,1,.346-1.023,1.927,1.927,0,0,1,3.026,0A1.64,1.64,0,0,1,18.81,9.844Z"/><path class="c" d="M23,13.938a14.69,14.69,0,0,1-12.406,6.531c-5.542,0-6.563-1-9.142-2.529A7.66,7.66,0,0,0,8.656,23h6.688A7.656,7.656,0,0,0,23,15.344Z"/><path class="b" d="M13.308,13.375a1.183,1.183,0,0,0,.434-.908,1.34,1.34,0,0,0-.984-1.2.31.31,0,0,0-.414.228V11.5a.312.312,0,0,0,.2.355c.215.081.575.269.575.613,0,.425-.5.608-.516.616a.317.317,0,0,0-.21.3.311.311,0,0,0,.226.292.715.715,0,0,1,.5.68c0,.268-.366.453-.584.54a.3.3,0,0,0-.145.119l-.1.024.061.243h0a.311.311,0,0,0,.412.2c.366-.146.98-.486.98-1.123A1.285,1.285,0,0,0,13.308,13.375Z"/><path class="d" d="M19.1,11.612a1.3,1.3,0,0,0-1.768.1l-.381.382-.382-.382a1.3,1.3,0,0,0-1.768-.1,1.249,1.249,0,0,0-.048,1.813l1.885,1.886a.439.439,0,0,0,.625,0l1.886-1.886A1.25,1.25,0,0,0,19.1,11.612Z"/></svg>