<svg xmlns="http://www.w3.org/2000/svg" viewBox="0 0 24 24"><defs><style>.a{fill:#f8de40;}.b{fill:#e7c930;}.c{fill:#864e20;}</style></defs><rect class="a" x="1" y="1" width="22" height="22" rx="7.656"/><path class="b" d="M23,13.938a14.69,14.69,0,0,1-12.406,6.531c-5.542,0-6.563-1-9.142-2.529A7.66,7.66,0,0,0,8.656,23h6.688A7.656,7.656,0,0,0,23,15.344Z"/><path class="c" d="M9.6,8.833,9.021,8.6c-.35-.144-.7-.283-1.058-.412s-.716-.251-1.08-.362-.731-.212-1.1-.3l-.012,0a.246.246,0,0,0-.186.448l.01.006c.325.2.656.392.991.573q.281.15.564.291a.245.245,0,0,1,0,.439q-.285.141-.564.292c-.335.18-.667.369-.992.573l-.016.01a.246.246,0,0,0,.187.447l.018,0c.374-.088.741-.19,1.105-.3s.723-.234,1.079-.362c.179-.064.355-.134.532-.2l.526-.213.573-.232A.246.246,0,0,0,9.6,8.833Z"/><path class="c" d="M14.405,8.833l.574-.235c.35-.144.7-.283,1.058-.412s.716-.251,1.08-.362.731-.212,1.1-.3l.012,0a.246.246,0,0,1,.186.448l-.01.006c-.325.2-.656.392-.991.573q-.28.15-.564.291a.245.245,0,0,0,0,.439q.285.141.564.292c.335.18.667.369.992.573l.016.01a.246.246,0,0,1-.187.447l-.018,0c-.374-.088-.741-.19-1.105-.3s-.723-.234-1.079-.362c-.179-.064-.355-.134-.532-.2l-.526-.213-.573-.232A.246.246,0,0,1,14.405,8.833Z"/><path class="c" d="M14,13.937a.318.318,0,0,1-.313-.326,2.105,2.105,0,0,0-.5-1.331A1.6,1.6,0,0,0,12,11.847a1.6,1.6,0,0,0-1.187.43,2.092,2.092,0,0,0-.5,1.335.32.32,0,0,1-.64.012,2.715,2.715,0,0,1,.679-1.792A2.211,2.211,0,0,1,12,11.207a2.211,2.211,0,0,1,1.647.625,2.721,2.721,0,0,1,.679,1.792A.321.321,0,0,1,14,13.937Z"/></svg>