<svg xmlns="http://www.w3.org/2000/svg" viewBox="0 0 24 24"><defs><style>.a{fill:#f8de40;}.b{fill:#864e20;}.c{fill:#e7c930;}</style></defs><rect class="a" x="1" y="1" width="22" height="22" rx="7.656"/><path class="b" d="M7.055,7.313A1.747,1.747,0,1,0,8.8,9.059,1.747,1.747,0,0,0,7.055,7.313Z"/><path class="b" d="M16.958,7.313A1.747,1.747,0,1,0,18.7,9.059,1.747,1.747,0,0,0,16.958,7.313Z"/><path class="c" d="M23,13.938a14.69,14.69,0,0,1-12.406,6.531c-5.542,0-6.563-1-9.142-2.529A7.66,7.66,0,0,0,8.656,23h6.688A7.656,7.656,0,0,0,23,15.344Z"/><path class="b" d="M16.53,12.324a8.617,8.617,0,0,1-.494.726,5.59,5.59,0,0,1-1.029,1.058,4.794,4.794,0,0,1-.6.412,1.6,1.6,0,0,1-.162.091c-.055.028-.109.061-.164.09-.115.051-.226.115-.346.163-.26.119-.533.223-.819.329a.231.231,0,0,0,.055.446,3.783,3.783,0,0,0,.979-.022,3.484,3.484,0,0,0,.878-.25,3.718,3.718,0,0,0,.409-.205l.012-.007a4.1,4.1,0,0,0,.379-.26,3.51,3.51,0,0,0,1.1-1.465,3.381,3.381,0,0,0,.222-.871c0-.031.006-.061.009-.092A.231.231,0,0,0,16.53,12.324Z"/></svg>