<svg xmlns="http://www.w3.org/2000/svg" viewBox="0 0 24 24"><defs><style>.a{fill:#f8de40;}.b{fill:#864e20;}.c{fill:#e7c930;}</style></defs><rect class="a" x="1" y="1" width="22" height="22" rx="7.656"/><path class="b" d="M7.055,7.313A1.747,1.747,0,1,0,8.8,9.059,1.747,1.747,0,0,0,7.055,7.313Z"/><path class="b" d="M16.958,7.313A1.747,1.747,0,1,0,18.7,9.059,1.747,1.747,0,0,0,16.958,7.313Z"/><path class="c" d="M23,13.938a14.69,14.69,0,0,1-12.406,6.531c-5.542,0-6.563-1-9.142-2.529A7.66,7.66,0,0,0,8.656,23h6.688A7.656,7.656,0,0,0,23,15.344Z"/><path class="b" d="M17.051,12.78c-.139.122-.276.247-.418.366-.28.241-.566.476-.852.708h0a.218.218,0,0,1-.245.019l-.034-.019c-.319-.185-.636-.372-.951-.564-.2-.119-.394-.241-.59-.364a.218.218,0,0,0-.243.009l-.134.1c-.149.109-.3.214-.449.321-.3.215-.6.423-.9.633l-.106.074a.217.217,0,0,1-.248,0l-.106-.074c-.3-.21-.606-.417-.9-.632-.15-.107-.3-.212-.449-.321l-.134-.1a.218.218,0,0,0-.243-.008c-.2.122-.391.244-.589.363-.157.1-.316.19-.474.285s-.319.186-.478.279l-.033.019a.214.214,0,0,1-.245-.019h0c-.287-.232-.572-.467-.853-.709-.141-.119-.278-.244-.418-.366s-.275-.249-.41-.377c.168.08.335.161.5.247s.33.169.492.258c.228.121.453.247.677.374a.217.217,0,0,0,.242-.02c.067-.054.135-.107.2-.16.145-.113.289-.228.436-.339.291-.225.587-.446.882-.665l.074-.055a.217.217,0,0,1,.246-.009l.1.064.464.3c.155.1.307.2.461.3.19.124.377.25.565.377a.217.217,0,0,0,.243,0c.187-.127.374-.254.564-.377.154-.1.306-.2.462-.3l.464-.3.1-.062a.215.215,0,0,1,.246.008l.074.054c.295.22.59.441.882.666.214.165.426.332.638.5a.215.215,0,0,0,.241.019c.225-.127.451-.253.68-.376.162-.089.328-.171.492-.258s.331-.167.5-.247C17.327,12.531,17.191,12.658,17.051,12.78Z"/></svg>