<svg xmlns="http://www.w3.org/2000/svg" viewBox="0 0 24 24"><defs><style>.a{fill:#f8de40;}.b{fill:#e7c930;}.c{fill:#864e20;}.d{fill:#f06880;}</style></defs><rect class="a" x="1" y="1" width="22" height="22" rx="7.656"/><path class="b" d="M23,13.938a14.69,14.69,0,0,1-12.406,6.531c-5.542,0-6.563-1-9.142-2.529A7.66,7.66,0,0,0,8.656,23h6.688A7.656,7.656,0,0,0,23,15.344Z"/><path class="c" d="M19.2,13.794a5.027,5.027,0,0,1-3.035-1.927,2.629,2.629,0,0,0-3.2-.64A2.948,2.948,0,0,0,12,12.379a2.957,2.957,0,0,0-.964-1.152,2.631,2.631,0,0,0-3.2.64A5.024,5.024,0,0,1,4.8,13.794a.441.441,0,0,0-.371.67A3.659,3.659,0,0,0,8,16.264c2.374-.139,3.532-.979,4-1.833.466.854,1.624,1.694,4,1.833a3.661,3.661,0,0,0,3.58-1.812A.439.439,0,0,0,19.2,13.794Z"/><path class="d" d="M9.58,6.983A1.528,1.528,0,0,0,7.5,7.1l-.449.45L6.6,7.1a1.529,1.529,0,0,0-2.083-.113,1.472,1.472,0,0,0-.058,2.136L6.68,11.34a.518.518,0,0,0,.737,0l2.22-2.221A1.471,1.471,0,0,0,9.58,6.983Z"/><path class="d" d="M19.483,6.983A1.528,1.528,0,0,0,17.4,7.1l-.449.45L16.5,7.1a1.529,1.529,0,0,0-2.083-.113,1.471,1.471,0,0,0-.057,2.136l2.221,2.221a.517.517,0,0,0,.736,0l2.221-2.221A1.472,1.472,0,0,0,19.483,6.983Z"/></svg>