<svg xmlns="http://www.w3.org/2000/svg" viewBox="0 0 24 24"><defs><style>.a{fill:#f8de40;}.b{fill:#864e20;}.c{fill:#e7c930;}</style></defs><rect class="a" x="1" y="1" width="22" height="22" rx="7.656"/><path class="b" d="M12,5.417a2.934,2.934,0,1,0,2.934,2.934A2.935,2.935,0,0,0,12,5.417Z"/><path class="c" d="M23,13.938a14.69,14.69,0,0,1-12.406,6.531c-5.542,0-6.563-1-9.142-2.529A7.66,7.66,0,0,0,8.656,23h6.688A7.656,7.656,0,0,0,23,15.344Z"/><path class="b" d="M19.2,14.48a5.027,5.027,0,0,1-3.035-1.927,2.629,2.629,0,0,0-3.2-.64A2.959,2.959,0,0,0,12,13.066a2.968,2.968,0,0,0-.964-1.153,2.631,2.631,0,0,0-3.2.64A5.024,5.024,0,0,1,4.8,14.48a.441.441,0,0,0-.371.67A3.659,3.659,0,0,0,8,16.95c2.374-.139,3.532-.979,4-1.833.466.854,1.624,1.694,4,1.833a3.659,3.659,0,0,0,3.58-1.812A.439.439,0,0,0,19.2,14.48Z"/></svg>