<svg xmlns="http://www.w3.org/2000/svg" viewBox="0 0 24 24"><defs><style>.a{fill:#f8de40;}.b{fill:#e7c930;}.c{fill:#864e20;}.d{fill:#f06880;}</style></defs><rect class="a" x="1" y="1" width="22" height="22" rx="7.656"/><path class="b" d="M23,13.938a14.69,14.69,0,0,1-12.406,6.531c-5.542,0-6.563-1-9.142-2.529A7.66,7.66,0,0,0,8.656,23h6.688A7.656,7.656,0,0,0,23,15.344Z"/><path class="c" d="M16.083,12.556A5.487,5.487,0,0,0,12,10.806a5.487,5.487,0,0,0-4.083,1.75c-.959,1.292-.147,2.667.885,2.583s2.781-.285,3.2-.285,2.167.2,3.2.285S17.042,13.848,16.083,12.556Z"/><path class="d" d="M13.75,13.266c-1.344-.3-1.75.109-1.75.109s-.406-.406-1.75-.109A2.463,2.463,0,0,0,8.6,15.136a1.1,1.1,0,0,0,.207,0c1.031-.083,2.781-.285,3.2-.285s2.167.2,3.2.285a1.1,1.1,0,0,0,.207,0A2.463,2.463,0,0,0,13.75,13.266Z"/><path class="b" d="M13.965,15.91a9.842,9.842,0,0,0-1.965-.3,9.842,9.842,0,0,0-1.965.3c-.294.061-.3.3,0,.261S12,16.041,12,16.041s1.663.09,1.965.13S14.259,15.971,13.965,15.91Z"/><rect class="c" x="5.307" y="5.427" width="3.494" height="5.764" rx="1.5"/><rect class="c" x="15.21" y="5.427" width="3.494" height="5.764" rx="1.5"/></svg>