<svg xmlns="http://www.w3.org/2000/svg" viewBox="0 0 48 48"><defs><style>.cls-1{fill:#dad7e5;}.cls-2{fill:#edebf2;}.cls-3{fill:#db5669;}.cls-4{fill:#fc6;}.cls-5{fill:#f26674;}.cls-6{fill:#ffde76;}.cls-7{fill:#9fdbf3;}.cls-8{fill:#b2e5fb;}.cls-9{fill:#425b72;}.cls-10{fill:#919191;}</style></defs><title>shop</title><g id="shop"><rect class="cls-1" x="5" y="12.82" width="38" height="30.18"/><path class="cls-2" d="M43,12.82V41H9a2,2,0,0,1-2-2V12.82Z"/><path class="cls-3" d="M6,17a3,3,0,0,1-3-3V13H9v1A3,3,0,0,1,6,17Z"/><path class="cls-4" d="M12,17a3,3,0,0,1-3-3V13h6v1A3,3,0,0,1,12,17Z"/><path class="cls-3" d="M18,17a3,3,0,0,1-3-3V13h6v1A3,3,0,0,1,18,17Z"/><path class="cls-4" d="M24,17a3,3,0,0,1-3-3V13h6v1A3,3,0,0,1,24,17Z"/><path class="cls-3" d="M30,17a3,3,0,0,1-3-3V13h6v1A3,3,0,0,1,30,17Z"/><path class="cls-4" d="M36,17a3,3,0,0,1-3-3V13h6v1A3,3,0,0,1,36,17Z"/><path class="cls-3" d="M42,17a3,3,0,0,1-3-3V13h6v1A3,3,0,0,1,42,17Z"/><polygon class="cls-3" points="10 5 9 13 3 13 5 5 10 5"/><path class="cls-5" d="M10,5l-.75,6h-3a1,1,0,0,1-1-1.24L6.5,5Z"/><polygon class="cls-4" points="16 5 15 13 9 13 10 5 16 5"/><path class="cls-6" d="M16,5l-.75,6H12.13a1,1,0,0,1-1-1.12L11.75,5Z"/><polygon class="cls-3" points="21 5 21 13 15 13 16 5 21 5"/><path class="cls-5" d="M21,5v6H18.13a1,1,0,0,1-1-1.12L17.75,5Z"/><rect class="cls-4" x="21" y="5" width="6" height="8"/><path class="cls-6" d="M27,5v6H23a1,1,0,0,1-1-1V5Z"/><polygon class="cls-3" points="33 13 27 13 27 5 32 5 33 13"/><path class="cls-5" d="M32.75,11H29a1,1,0,0,1-1-1V5h4Z"/><polygon class="cls-4" points="39 13 33 13 32 5 38 5 39 13"/><path class="cls-6" d="M38.75,11H34.88a1,1,0,0,1-1-.88L33.25,5H38Z"/><polygon class="cls-3" points="45 13 39 13 38 5 43 5 45 13"/><path class="cls-5" d="M44.5,11H40.88a1,1,0,0,1-1-.88L39.25,5H43Z"/><rect class="cls-1" x="5" y="1" width="38" height="4"/><path class="cls-2" d="M43,1V3H9A2,2,0,0,1,7,1Z"/><rect class="cls-1" x="3" y="43" width="42" height="4"/><path class="cls-2" d="M45,43v2H7a2,2,0,0,1-2-2Z"/><rect class="cls-7" x="9" y="25" width="10" height="18"/><path class="cls-8" d="M19,25V41H13a2,2,0,0,1-2-2V25Z"/><rect class="cls-7" x="24" y="25" width="14" height="10"/><path class="cls-8" d="M38,25v8H28a2,2,0,0,1-2-2V25Z"/><path class="cls-9" d="M12,34a1,1,0,0,1-1-1,1,1,0,1,1,1,1Z"/><path class="cls-10" d="M39,36H23a1,1,0,0,1,0-2H39A1,1,0,0,1,39,36Z"/><path class="cls-5" d="M9,13a7.5,7.5,0,0,1,0,1.24A3,3,0,0,1,4.18,13Z"/><path class="cls-6" d="M15,13a7.5,7.5,0,0,1,0,1.24A3,3,0,0,1,10.18,13Z"/><path class="cls-5" d="M21,13a7.5,7.5,0,0,1,0,1.24A3,3,0,0,1,16.18,13Z"/><path class="cls-6" d="M27,13a7.5,7.5,0,0,1,0,1.24A3,3,0,0,1,22.18,13Z"/><path class="cls-5" d="M33,13a7.5,7.5,0,0,1,0,1.24A3,3,0,0,1,28.18,13Z"/><path class="cls-6" d="M39,13a7.5,7.5,0,0,1,0,1.24A3,3,0,0,1,34.18,13Z"/><path class="cls-5" d="M45,13a7.5,7.5,0,0,1,0,1.24A3,3,0,0,1,40.18,13Z"/></g></svg>