<svg xmlns="http://www.w3.org/2000/svg" viewBox="0 0 48 48"><defs><style>.cls-1{fill:#df8761;}.cls-2{fill:#f29b75;}.cls-3{fill:#fc6;}.cls-4{fill:#ffde76;}.cls-5{fill:#f6ccaf;}.cls-6{fill:#ffdec7;}.cls-7{fill:#edb996;}.cls-8{fill:#dad7e5;}.cls-9{fill:#edebf2;}</style></defs><title>package</title><g id="package"><rect class="cls-1" x="1" y="4" width="46" height="10"/><path class="cls-2" d="M47,4v8H7A4,4,0,0,1,3,8V4Z"/><rect class="cls-1" x="3" y="14" width="42" height="30"/><path class="cls-2" d="M45,14V42H9a4,4,0,0,1-4-4V14Z"/><polygon class="cls-3" points="30 4 30 20 28 19 26 20 24.01 19 22.01 20 20 19 18 20 18 4 30 4"/><polygon class="cls-4" points="30 4 30 18 28 17 26 18 24.01 17 22.01 18 20 17 20 4 30 4"/><rect class="cls-5" x="7" y="28" width="16" height="12"/><path class="cls-6" d="M23,28V38H12a3,3,0,0,1-3-3V28Z"/><path class="cls-7" d="M19,37H11a1,1,0,0,1,0-2h8A1,1,0,0,1,19,37Z"/><path class="cls-7" d="M19,33H11a1,1,0,0,1,0-2h8A1,1,0,0,1,19,33Z"/><path class="cls-8" d="M35,40V35a1,1,0,0,1,2,0v5A1,1,0,0,1,35,40Z"/><path class="cls-8" d="M38,41H34a1,1,0,0,1,0-2h4A1,1,0,0,1,38,41Z"/><path class="cls-8" d="M39,28c0,4.37,0,4.29-.13,4.87A3,3,0,0,1,33,32V28Z"/><path class="cls-9" d="M39,28c0,4.37,0,4.29-.13,4.87A3,3,0,0,1,35,30V28Z"/></g></svg>