<svg xmlns="http://www.w3.org/2000/svg" viewBox="0 0 48 48"><defs><style>.cls-1{fill:#6fabe6;}.cls-2{fill:#82bcf4;}.cls-3{fill:#5b9ad8;}.cls-4{fill:#dad7e5;}.cls-5{fill:#edebf2;}.cls-6{fill:#db5669;}.cls-7{fill:#f26674;}.cls-8{fill:#ffde76;}</style></defs><title>calendar discount day</title><g id="calendar_discount_day" data-name="calendar discount day"><rect class="cls-1" x="1" y="5" width="46" height="10"/><path class="cls-2" d="M47,5v8H7A4,4,0,0,1,3,9V5Z"/><path class="cls-3" d="M10,10A2,2,0,1,1,7.18,8.18,2,2,0,0,1,10,10Z"/><path class="cls-3" d="M14,12a2,2,0,1,1,2-2A2,2,0,0,1,14,12Zm0-2Z"/><path class="cls-3" d="M40,12a2,2,0,1,1,2-2A2,2,0,0,1,40,12Zm0-2Z"/><path class="cls-3" d="M34,12a2,2,0,1,1,2-2A2,2,0,0,1,34,12Zm0-2Z"/><rect class="cls-4" x="1" y="15" width="46" height="32"/><path class="cls-5" d="M47,15V45H11a8,8,0,0,1-8-8V15Z"/><path class="cls-6" d="M25.72,19.76a2.32,2.32,0,0,0,2.42.65,2.32,2.32,0,0,1,3,1.71,2.29,2.29,0,0,0,1.77,1.77,2.32,2.32,0,0,1,1.71,3,2.33,2.33,0,0,0,.65,2.42,2.33,2.33,0,0,1,0,3.44,2.32,2.32,0,0,0-.65,2.42,2.32,2.32,0,0,1-1.71,3,2.29,2.29,0,0,0-1.77,1.77,2.32,2.32,0,0,1-3,1.71,2.33,2.33,0,0,0-2.42.65,2.33,2.33,0,0,1-3.44,0,2.32,2.32,0,0,0-2.42-.65,2.32,2.32,0,0,1-3-1.71,2.29,2.29,0,0,0-1.77-1.77,2.32,2.32,0,0,1-1.71-3,2.33,2.33,0,0,0-.65-2.42,2.33,2.33,0,0,1,0-3.44,2.32,2.32,0,0,0,.65-2.42,2.32,2.32,0,0,1,1.71-3,2.29,2.29,0,0,0,1.77-1.77,2.32,2.32,0,0,1,3-1.71,2.33,2.33,0,0,0,2.42-.65A2.33,2.33,0,0,1,25.72,19.76Z"/><path class="cls-7" d="M34.59,35.14a2.33,2.33,0,0,1-1.71,3,2.31,2.31,0,0,0-1.77,1.75c-10.14,4.77-20.74-5.84-16-16a2.31,2.31,0,0,0,1.75-1.77,2.33,2.33,0,0,1,2.26-1.82c.66,0,.79.22,1.41.22C22.31,20.52,22.25,19,24,19a2.34,2.34,0,0,1,1.72.76,2.33,2.33,0,0,0,2.42.65,2.33,2.33,0,0,1,3,1.71,2.3,2.3,0,0,0,1.77,1.77,2.33,2.33,0,0,1,1.82,2.26c0,.66-.22.79-.22,1.41C34.48,29.32,36,29.24,36,31,36,32.92,33.92,32.93,34.59,35.14Z"/><path class="cls-8" d="M19,37a1,1,0,0,1-.71-1.71l10-10a1,1,0,0,1,1.42,1.42C18.88,37.53,19.6,37,19,37Z"/><path class="cls-1" d="M9.82,10.82A2,2,0,0,1,7.18,8.18,2,2,0,0,1,9.82,10.82Z"/><path class="cls-1" d="M15.82,10.82a2,2,0,0,1-2.64-2.64A2,2,0,0,1,15.82,10.82Z"/><path class="cls-1" d="M35.82,10.82a2,2,0,0,1-2.64-2.64A2,2,0,0,1,35.82,10.82Z"/><path class="cls-1" d="M41.82,10.82a2,2,0,0,1-2.64-2.64A2,2,0,0,1,41.82,10.82Z"/><path class="cls-4" d="M7,9V1A1,1,0,0,1,9,1V9A1,1,0,0,1,7,9Z"/><path class="cls-4" d="M13,9V1a1,1,0,0,1,2,0V9A1,1,0,0,1,13,9Z"/><path class="cls-4" d="M39,9V1a1,1,0,0,1,2,0V9A1,1,0,0,1,39,9Z"/><path class="cls-4" d="M33,9V1a1,1,0,0,1,2,0V9A1,1,0,0,1,33,9Z"/><path class="cls-8" d="M21,30a3,3,0,1,0-3-3A3,3,0,0,0,21,30Zm0-4a1,1,0,0,1,0,2A1,1,0,0,1,21,26Z"/><path class="cls-8" d="M27,32a3,3,0,1,0,3,3A3,3,0,0,0,27,32Zm0,4a1,1,0,0,1,0-2A1,1,0,0,1,27,36Z"/></g></svg>