<svg xmlns="http://www.w3.org/2000/svg" viewBox="0 0 48 48"><defs><style>.cls-1{fill:#db5669;}.cls-2{fill:#f26674;}.cls-3{fill:#c4455e;}.cls-4{fill:#dad7e5;}.cls-5{fill:#edebf2;}.cls-6{fill:#c6c3d8;}</style></defs><title>shopping basket</title><g id="shopping_basket" data-name="shopping basket"><rect class="cls-1" x="1" y="19" width="46" height="6" rx="2"/><path class="cls-2" d="M47,21v2H5a2,2,0,0,1-2-2V19H45A2,2,0,0,1,47,21Z"/><path class="cls-1" d="M45,25c-1.89,18.87-1.72,17.48-1.85,17.87A3,3,0,0,1,40.29,45H7.71a3,3,0,0,1-3-2.7L3,25Z"/><path class="cls-2" d="M45,25c-1.89,18.87-1.72,17.48-1.85,17.87-.58.19,1.49.13-33.44.13a3,3,0,0,1-3-2.7L5.2,25Z"/><path class="cls-3" d="M22,39V31a2,2,0,0,1,4,0v8A2,2,0,0,1,22,39Z"/><path class="cls-3" d="M32,39V31a2,2,0,0,1,4,0v8A2,2,0,0,1,32,39Z"/><path class="cls-3" d="M16,31v8a2,2,0,0,1-4,0V31a2,2,0,0,1,4,0Z"/><path class="cls-1" d="M16,31v8a2,2,0,0,1-2-2V29A2,2,0,0,1,16,31Z"/><path class="cls-1" d="M26,31v8a2,2,0,0,1-2-2V29A2,2,0,0,1,26,31Z"/><path class="cls-1" d="M36,31v8a2,2,0,0,1-2-2V29A2,2,0,0,1,36,31Z"/><path class="cls-4" d="M27,6c0,14.13.05,13.25-.13,13.87A3,3,0,0,1,21,19V6a3,3,0,0,1,6,0Z"/><path class="cls-5" d="M27,6c0,14.13.05,13.25-.13,13.87A3,3,0,0,1,23,17C23,2.87,23,3.75,23.13,3.13A3,3,0,0,1,27,6Z"/><path class="cls-6" d="M24,20a1,1,0,1,1,.92-1.38A1,1,0,0,1,24,20Z"/></g></svg>