<svg xmlns="http://www.w3.org/2000/svg" viewBox="0 0 48 48"><defs><style>.cls-1{fill:#f6ccaf;}.cls-2{fill:#ffdec7;}.cls-3{fill:#edb996;}.cls-4{fill:#6fabe6;}.cls-5{fill:#82bcf4;}.cls-6{fill:#edebf2;}</style></defs><title>like (tumbsup)</title><g id="like_tumbsup_" data-name="like (tumbsup)"><path class="cls-1" d="M46.12,31.12A3.76,3.76,0,0,1,43,32a3,3,0,0,1,2.12,5.12C44.05,38.19,43,38,41,38a3,3,0,0,1,0,6c-16.75,0-17.73.47-24-2V21c3.34-1.67,5.62-2.54,7.91-5.39,2.47-3.07,2.76-5.64,3.68-9.76C29.31,2.68,35,4.73,35,9.19A20.94,20.94,0,0,1,32,20v0c10.78,0,11-.29,12.12.88A3,3,0,0,1,42,26h2A3,3,0,0,1,46.12,31.12Z"/><path class="cls-2" d="M46.12,31.12A3.76,3.76,0,0,1,43,32a3,3,0,0,1,0,6H41a3,3,0,0,1,2.87,3.87A3.1,3.1,0,0,1,43,42c-14,0-24,.86-24-4V20C31.23,14,26.11,4.28,30.54,4.28A4.9,4.9,0,0,1,35,9.19,20.94,20.94,0,0,1,32,20c0,.1-.29,0,10,0a3,3,0,0,1,0,6c1.79,0,3.16-.23,4.23,1A3,3,0,0,1,46.12,31.12Z"/><path class="cls-3" d="M44,32H43a2.94,2.94,0,0,1,2.23,1H37a1,1,0,0,1,0-2h9.23A3,3,0,0,1,44,32Z"/><path class="cls-3" d="M41,38a3,3,0,0,1,2.12.88c.17.17,1,.12-6.12.12a1,1,0,0,1,0-2c9.12,0,8.29,0,8.12.12C44.05,38.19,43,38,41,38Z"/><path class="cls-3" d="M46.23,27H37a1,1,0,0,1,0-2h7.23A2.94,2.94,0,0,1,42,26C43.79,26,45.16,25.77,46.23,27Z"/><rect class="cls-4" x="1" y="19" width="8" height="25"/><path class="cls-5" d="M9,19V42H6a3,3,0,0,1-3-3V19Z"/><rect class="cls-4" x="9" y="19" width="8" height="25"/><path class="cls-5" d="M17,19V42H14a3,3,0,0,1-3-3V19Z"/><path class="cls-6" d="M13,41a1,1,0,1,1,.2-2A1,1,0,0,1,13,41Z"/></g></svg>