<svg id="cashier" xmlns="http://www.w3.org/2000/svg" viewBox="0 0 48 48"><defs><style>.cls-1{fill:#7c7d7d;}.cls-2{fill:#919191;}.cls-3{fill:#747575;}.cls-4{fill:#9fdbf3;}.cls-5{fill:#b2e5fb;}.cls-6{fill:#dad7e5;}.cls-7{fill:#edebf2;}</style></defs><title>cashier</title><rect class="cls-1" x="1" y="39" width="46" height="8"/><path class="cls-2" d="M47,39v6H7a4,4,0,0,1-4-4V39Z"/><path class="cls-3" d="M29,44H19a1,1,0,0,1,0-2H29A1,1,0,0,1,29,44Z"/><path class="cls-1" d="M47,39H1L6,27H42C46.88,38.7,45.9,36.35,47,39Z"/><path class="cls-2" d="M46.17,37H6.83A2,2,0,0,1,5,34.23L8,27H42Z"/><path class="cls-3" d="M22,36H20a1,1,0,0,1,0-2h2A1,1,0,0,1,22,36Z"/><path class="cls-3" d="M25,32H23a1,1,0,0,1,0-2h2A1,1,0,0,1,25,32Z"/><path class="cls-3" d="M28,36H26a1,1,0,0,1,0-2h2A1,1,0,0,1,28,36Z"/><path class="cls-3" d="M31,32H29a1,1,0,0,1,0-2h2A1,1,0,0,1,31,32Z"/><path class="cls-3" d="M34,36H32a1,1,0,0,1,0-2h2A1,1,0,0,1,34,36Z"/><path class="cls-3" d="M37,32H35a1,1,0,0,1,0-2h2A1,1,0,0,1,37,32Z"/><path class="cls-3" d="M16,36H14a1,1,0,0,1,0-2h2A1,1,0,0,1,16,36Z"/><path class="cls-3" d="M19,32H17a1,1,0,0,1,0-2h2A1,1,0,0,1,19,32Z"/><path class="cls-3" d="M10,36H8a1,1,0,0,1,0-2h2A1,1,0,0,1,10,36Z"/><path class="cls-3" d="M40,36H38a1,1,0,0,1,0-2h2A1,1,0,0,1,40,36Z"/><path class="cls-3" d="M13,32H11a1,1,0,0,1,0-2h2A1,1,0,0,1,13,32Z"/><rect class="cls-1" x="6" y="13" width="36" height="14"/><path class="cls-2" d="M42,13V25H12a4,4,0,0,1-4-4V13Z"/><rect class="cls-4" x="26" y="17" width="12" height="6"/><path class="cls-5" d="M38,17v4H32a4,4,0,0,1-4-4Z"/><rect class="cls-4" x="26" y="1" width="12" height="6"/><path class="cls-5" d="M38,1V5H32a4,4,0,0,1-4-4Z"/><rect class="cls-1" x="30" y="7" width="4" height="6"/><path class="cls-2" d="M34,7v4a2,2,0,0,1-2-2V7Z"/><path class="cls-3" d="M22,23H10a1,1,0,0,1,0-2H22A1,1,0,0,1,22,23Z"/><path class="cls-3" d="M22,19H10a1,1,0,0,1,0-2H22A1,1,0,0,1,22,19Z"/><polygon class="cls-6" points="22 7 22 13 10 13 10 7 12 8 14 7 15.99 8 17.99 7 20 8 22 7"/><path class="cls-7" d="M22,7v4H15a3,3,0,0,1-3-3l2-1,2,1,2-1,2,1Z"/></svg>