<svg xmlns="http://www.w3.org/2000/svg" viewBox="0 0 48 48"><defs><style>.cls-1{fill:#db5669;}.cls-2{fill:#f26674;}.cls-3{fill:#ffde76;}.cls-4{fill:#c4455e;}.cls-5{fill:#fc6;}</style></defs><title>ticket discount</title><g id="ticket_discount" data-name="ticket discount"><path class="cls-1" d="M47,17V31a3,3,0,0,0-3,3H4a3,3,0,0,0-3-3V17a3,3,0,0,0,3-3H44A3,3,0,0,0,47,17Z"/><path class="cls-2" d="M47,17V31a2.94,2.94,0,0,0-2.23,1H7a4,4,0,0,1-4-4V16.23A2.94,2.94,0,0,0,4,14H44A3,3,0,0,0,47,17Z"/><path class="cls-3" d="M41,19H25a1,1,0,0,1,0-2H41A1,1,0,0,1,41,19Z"/><path class="cls-3" d="M41,23H25a1,1,0,0,1,0-2H41A1,1,0,0,1,41,23Z"/><path class="cls-3" d="M41,27H25a1,1,0,0,1,0-2H41A1,1,0,0,1,41,27Z"/><path class="cls-3" d="M41,31H25a1,1,0,0,1,0-2H41A1,1,0,0,1,41,31Z"/><path class="cls-4" d="M22,14v2a1,1,0,0,1-2,0V14Z"/><path class="cls-4" d="M20,22V20a1,1,0,0,1,2,0v2A1,1,0,0,1,20,22Z"/><path class="cls-4" d="M20,28V26a1,1,0,0,1,2,0v2A1,1,0,0,1,20,28Z"/><path class="cls-4" d="M22,32v2H20V32A1,1,0,0,1,22,32Z"/><path class="cls-3" d="M7,30a1,1,0,0,1-.71-1.71l10-10a1,1,0,0,1,1.42,1.42C6.88,30.53,7.6,30,7,30Z"/><path class="cls-5" d="M11,20a2,2,0,1,1-2.82-1.82A2,2,0,0,1,11,20Z"/><path class="cls-3" d="M10.82,20.82a2,2,0,0,1-2.64-2.64A2,2,0,0,1,10.82,20.82Z"/><path class="cls-5" d="M17,28a2,2,0,1,1-2.82-1.82A2,2,0,0,1,17,28Z"/><path class="cls-3" d="M16.82,28.82a2,2,0,0,1-2.64-2.64A2,2,0,0,1,16.82,28.82Z"/></g></svg>