<svg xmlns="http://www.w3.org/2000/svg" viewBox="0 0 48 48"><defs><style>.cls-1{fill:#6fabe6;}.cls-2{fill:#82bcf4;}.cls-3{fill:#db5669;}.cls-4{fill:#425b72;}</style></defs><title>chart statistic decreased</title><g id="chart_statistic_decreased" data-name="chart statistic decreased"><rect class="cls-1" x="7" y="1" width="8" height="46"/><path class="cls-2" d="M15,1c0,44.29-.1,43,0,43a6,6,0,0,1-6-6V1Z"/><rect class="cls-1" x="35" y="25" width="8" height="22"/><path class="cls-2" d="M43,25c0,19.75-.1,19,0,19a6,6,0,0,1-6-6V25Z"/><rect class="cls-1" x="21" y="15" width="8" height="32"/><path class="cls-2" d="M29,15c0,30.2-.1,29,0,29a6,6,0,0,1-6-6V15Z"/><path class="cls-3" d="M39,16H35a1,1,0,0,1,0-2h3V11a1,1,0,0,1,2,0v4A1,1,0,0,1,39,16Z"/><path class="cls-4" d="M47,48H1a1,1,0,0,1-1-1V1A1,1,0,0,1,2,1V46H47A1,1,0,0,1,47,48Z"/><path class="cls-3" d="M39,16c-.59,0,.53.94-14.71-14.29A1,1,0,0,1,25.71.29l14,14A1,1,0,0,1,39,16Z"/></g></svg>