<svg xmlns="http://www.w3.org/2000/svg" viewBox="0 0 48 48"><defs><style>.cls-1{fill:#f6ccaf;}.cls-2{fill:#ffdec7;}.cls-3{fill:#edb996;}.cls-4{fill:#db5669;}.cls-5{fill:#f26674;}.cls-6{fill:#6fabe6;}.cls-7{fill:#82bcf4;}.cls-8{fill:#ffde76;}</style></defs><title>handshake transaction</title><g id="handshake_transaction" data-name="handshake transaction"><path class="cls-1" d="M40.22,28.63c-2.61,2.17-2,1.1-2.86,5a4.57,4.57,0,0,1-2,2.63c.8.68,1.67,1.2,1.67,2.25A1.79,1.79,0,0,1,35,40.35c-.61,0-2-1.27.4.71a1.83,1.83,0,0,1-.93,3.27c-1.13.12-1.63-.78-2.74-1.58h0c-1.38-1.15.44.09-.16,1.43A1.81,1.81,0,0,1,30,45.37c-1,.07-1.49-.53-2.58-1.46A1.83,1.83,0,0,1,26.24,47c-1,.11-1.44-.49-3.59-2.3-8.63-7.22-7.8-6.62-7.9-6.62C10.3,34.39,11,35.28,10,30.69c-.1-.39-.15-.38-2.17-2.06l8.81-10.49c1.92,1.63,2,1.76,2.4,1.78,1.07.06,4.09,0,4.77.72.39.21.1.21.49,0h0l.05,0a0,0,0,0,1,0,0l.09,0,0,0,.3-.14h0c.51-.51,4.23-.19,4.78-.66.1,0-.35.29,1.87-1.57Z"/><path class="cls-2" d="M40.22,28.63c-2.61,2.17-2,1.1-2.86,5a4.57,4.57,0,0,1-2,2.63c.8.68,1.67,1.2,1.67,2.25A1.79,1.79,0,0,1,35,40.35c-.61,0-2-1.27.4.71A1.82,1.82,0,1,1,33,43.84c-1.41-1.17-1.21-1-1.32-1.09h0c-1.38-1.15.44.09-.16,1.43A1.81,1.81,0,0,1,30,45.37c-1,.07-1.49-.53-2.58-1.46a1.84,1.84,0,1,1-2.72,2.49,3.63,3.63,0,0,0-2.34-6.13,3.58,3.58,0,0,0-3.05-2.21,3.57,3.57,0,0,0-2.12-2,3.63,3.63,0,0,0-3.59-3c-1.12,0-.95.44-1.13-.34-.84-3.54-.59-3.05-1.38-3.72A.93.93,0,0,1,11,27.67l7-8.35c.91.76.34.56,4.05.76a3.87,3.87,0,0,1,1.73.56c.39.21.1.21.49,0h0l.05,0a0,0,0,0,1,0,0c.87-.58,2.14-.53,4.68-.66.44,0,.39-.09,2.4-1.78Z"/><path class="cls-2" d="M38.39,27.72c-2.57,2.16-1.92,1-2.86,5a3.65,3.65,0,0,1-1.28,2l-.42.36-9.47-8.22-4.51,2.74-2.68-2,1.64-2.93,5-4.1c.37.2.11.2.49,0h0a3.78,3.78,0,0,1,.49-.25h0c.68-.46,4-.3,4.52-.5.22-.09.13-.05,1.49-1.2Z"/><path class="cls-1" d="M40.22,28.63c-2.58,2.17-1.94,1-2.86,5a4.61,4.61,0,0,1-2,2.63l.7.59a.91.91,0,0,1-.53.31L24.36,26.91l-4.51,2.74-2.68-2,1.64-2.93c5.46-4.52,4.87-4.18,5.19-3.94a3.65,3.65,0,0,1,2-.72c4.13-.22,2.81.27,5.44-1.94Z"/><path class="cls-2" d="M36.91,29c-.46.39-.6.47-.68.82-.89,3.76-.71,3.92-2.4,5.35l-9.47-8.22-4.51,2.74-2.68-2,1.64-2.93c5.46-4.52,4.87-4.18,5.19-3.94a1.38,1.38,0,0,1,.25-.17h0l.18-.1h0l.3-.14h0c.47-.32,2.14-.33,4.23-.44.36,0,.59-.25,1-.6l7,8.36A.91.91,0,0,1,36.91,29Z"/><path class="cls-3" d="M36.06,36.87a.91.91,0,0,1-.7.32c-.47,0-.21.1-5.49-4.34A.91.91,0,0,1,31,31.46l4.9,4.13c.15.14.25,0-.58.69Z"/><path class="cls-3" d="M30.8,33.37c-.47,0,0,.25-7.4-5.92a.92.92,0,0,1,1.18-1.4l6.81,5.71A.91.91,0,0,1,30.8,33.37Z"/><path class="cls-4" d="M17.17,17.45c-.51.6-8.69,10.34-10,11.88L3,25.81,13,13.92Z"/><path class="cls-5" d="M17.17,17.45l-8.39,10-.94-.78A2.74,2.74,0,0,1,7.5,22.8l6.64-7.9Z"/><path class="cls-3" d="M26.17,26.11c-4.76,4-5.07,4.57-6.58,4.57A3.21,3.21,0,0,1,17.52,25l5.62-4.71a3.45,3.45,0,0,1,.86.48,3.37,3.37,0,0,1,.76-.43.85.85,0,0,1-.18,1.13c-.18.14-.76.63-5.88,4.93a1.37,1.37,0,0,0,1.77,2.09L25,24.7A.92.92,0,0,1,26.17,26.11Z"/><path class="cls-6" d="M45,25.81l-4.2,3.52c-1-1.2-9.27-11.06-10-11.88L35,13.92Z"/><path class="cls-1" d="M17.11,40.86,15.71,42c-1.7,1.44-4.45-1-2.06-3l1.11-.94A1.82,1.82,0,0,1,17.11,40.86Z"/><path class="cls-2" d="M17.75,39.27l-1.13.95a1.82,1.82,0,0,1-3-1.21l1.11-.94A1.83,1.83,0,0,1,17.75,39.27Z"/><path class="cls-1" d="M14.76,38.07l-1.4,1.18c-1.72,1.46-4.44-1-2.07-3l1.12-.94A1.82,1.82,0,0,1,14.76,38.07Z"/><path class="cls-2" d="M15.4,36.47l-1.12,1a1.83,1.83,0,0,1-3-1.2l1.12-.94A1.83,1.83,0,0,1,15.4,36.47Z"/><path class="cls-1" d="M20.16,43.08l-1.4,1.17c-1.75,1.46-4.44-1-2.07-3l1.12-.95A1.83,1.83,0,0,1,20.16,43.08Z"/><path class="cls-2" d="M20.8,41.49l-1.13.94a1.82,1.82,0,0,1-3-1.2l1.12-.95A1.83,1.83,0,0,1,20.8,41.49Z"/><path class="cls-1" d="M23.21,45.29l-1.4,1.17c-1.75,1.46-4.44-1.05-2.07-3l1.12-.95A1.83,1.83,0,0,1,23.21,45.29Z"/><path class="cls-2" d="M23.84,43.7l-1.12.94a1.82,1.82,0,0,1-3-1.2l1.12-.95A1.82,1.82,0,0,1,23.84,43.7Z"/><path class="cls-7" d="M30.83,17.45l8.39,10,.94-.78a2.74,2.74,0,0,0,.34-3.86l-6.64-7.9Z"/><path class="cls-3" d="M35,40.35a1.62,1.62,0,0,1-.91-.41l.76.65a1,1,0,0,1-1.4.12l-4.63-3.88a1,1,0,0,1,1.28-1.54l4.63,3.89A1,1,0,0,1,35,40.35Z"/><path class="cls-3" d="M31.77,42.8l-.07,0h0c-1.12-.94-.15-.18-.15.25-.83.54-1.19-.07-4.29-2.67a1,1,0,0,1,1.29-1.53l3.09,2.6A1,1,0,0,1,31.77,42.8Z"/><path class="cls-3" d="M28,44.42c-1.06-.76-.48-.65-.2.18a1,1,0,0,1-1.21-.06l-.93-.78A1,1,0,0,1,27,42.27l.89.74A1,1,0,0,1,28,44.42Z"/><path class="cls-8" d="M25,12H23a1,1,0,0,1-1-1,1,1,0,0,0-2,0,3,3,0,0,0,3,3v1a1,1,0,0,0,2,0V14a3,3,0,0,0,3-3V10a3,3,0,0,0-3-3H23a1,1,0,0,1-1-1V5a1,1,0,0,1,1-1h2a1,1,0,0,1,1,1,1,1,0,0,0,2,0,3,3,0,0,0-3-3V1a1,1,0,0,0-2,0V2a3,3,0,0,0-3,3V6a3,3,0,0,0,3,3h2a1,1,0,0,1,1,1v1A1,1,0,0,1,25,12Z"/></g></svg>