<svg xmlns="http://www.w3.org/2000/svg" viewBox="0 0 48 48"><defs><style>.cls-1{fill:#6fabe6;}.cls-2{fill:#82bcf4;}.cls-3{fill:#f6ccaf;}.cls-4{fill:#ffdec7;}.cls-5{fill:#edb996;}.cls-6{fill:#db5669;}.cls-7{fill:#f26674;}.cls-8{fill:#c4455e;}</style></defs><title>hand recieve cloathes</title><g id="hand_recieve_cloathes" data-name="hand recieve cloathes"><rect class="cls-1" x="1" y="23" width="6" height="17"/><path class="cls-2" d="M7,23c0,15.75-.1,15,0,15a4,4,0,0,1-4-4V23Z"/><path class="cls-3" d="M47,31a3,3,0,0,1-1.63,2.67C27.74,42.68,28.11,43,24.17,43c-2.86,0-4-.83-12-4.46C10.7,37.86,9.68,38,7,38V25c9.53-1.19,6.49-1.67,21.28,5.28a3,3,0,0,1,.48,5.14l13.87-7.09A3,3,0,0,1,47,31Z"/><path class="cls-4" d="M46.82,30c-.53,1.55-.32,1.09-17.55,9.9a10.21,10.21,0,0,1-5.1,1.1c-2.86,0-4-.83-12-4.46A5.82,5.82,0,0,0,10,36a1,1,0,0,1-1-1V24.75c7.17-.89,5.14-1.11,19.28,5.53a3,3,0,0,1,1.17,4.43c-.45.71-1.38,1.07.2.25,13.89-7.09,13-6.67,13.35-6.78A3,3,0,0,1,46.82,30Z"/><path class="cls-5" d="M25.29,36.61,17.4,32.9a1,1,0,0,1,.86-1.8l7.89,3.71c1.69.79,2.29-1.11,3.3-.1-.45.71-1.38,1.07.2.25C30.43,36.48,27.26,37.56,25.29,36.61Z"/><path class="cls-6" d="M46,12l-4,7-4-2.67V30.7l-9.24,4.72a3,3,0,0,0-.48-5.14L18,25.45V16.33L14,19l-4-7,8-7H38Z"/><path class="cls-7" d="M46,12c-3.87,6.76-3.25,5.67-4,7l-4-2.67V28.45l-6.19,3.17a5,5,0,0,0-2.68-3.15L20,24.18V16.33l-2,1.34V16.33L15.45,18,12,12l8-7H38Z"/><path class="cls-8" d="M32,5c0,1.32.11,2.65-1.28,3.93A4,4,0,0,1,24,6V5Z"/><path class="cls-6" d="M32,5c0,1.32.11,2.65-1.28,3.93A4,4,0,0,1,26,5Z"/></g></svg>