<svg xmlns="http://www.w3.org/2000/svg" viewBox="0 0 48 48"><defs><style>.cls-1{fill:#374f68;}.cls-2{fill:#425b72;}.cls-3{fill:#dad7e5;}.cls-4{fill:#edebf2;}.cls-5{fill:#ffde76;}.cls-6{fill:#fc6;}</style></defs><title>magnify discount</title><g id="magnify_discount" data-name="magnify discount"><path class="cls-1" d="M47,16c0,3.87-1.71,7.82-3.46,9.57C34.63,36.37,17,30,17,16A14.93,14.93,0,0,1,22.43,4.46l0,0C32.11-3.55,47,3.24,47,16Z"/><path class="cls-2" d="M47,16c0,3.87-1.71,7.82-3.46,9.57C33.88,33.55,19,26.75,19,14c0-5.2,3-9.36,3.46-9.57C32.11-3.55,47,3.24,47,16Z"/><path class="cls-3" d="M43,16A11,11,0,0,1,32,27C21.51,27,17,13.67,25.29,7.29A11,11,0,0,1,43,16Z"/><path class="cls-4" d="M43,16a10.9,10.9,0,0,1-2.29,6.71A11,11,0,0,1,25.29,7.29,11,11,0,0,1,43,16Z"/><path class="cls-1" d="M22.84,27.87l-4.46,4.46L15.54,29.5,20,25C22.22,27.23,21.59,26.6,22.84,27.87Z"/><path class="cls-2" d="M21.85,26.86l-1.63,1.63a2.6,2.6,0,0,1-3.68,0L20,25Z"/><path class="cls-1" d="M18.44,35.22l-2.61,2.61-5.66-5.66,2.61-2.61a2,2,0,0,1,2.83,0l2.83,2.83A2,2,0,0,1,18.44,35.22Z"/><path class="cls-2" d="M18.36,32.31a3.58,3.58,0,0,1-5,0l-1.64-1.64,1.11-1.11a2,2,0,0,1,2.83,0Z"/><path class="cls-1" d="M15.83,37.83l-8,8A4,4,0,0,1,1.29,41.5c.42-1,0-.45,8.88-9.33Z"/><path class="cls-2" d="M14.33,36.33C7.71,43,7.22,44,5,44a4,4,0,0,1-3.71-2.5c.42-1,0-.45,8.88-9.33Z"/><path class="cls-5" d="M27,22a1,1,0,0,1-.71-1.71l10-10a1,1,0,0,1,1.42,1.42C26.88,22.53,27.6,22,27,22Z"/><path class="cls-6" d="M31,12a2,2,0,1,1-2.82-1.82A2,2,0,0,1,31,12Z"/><path class="cls-5" d="M30.82,12.82a2,2,0,0,1-2.64-2.64A2,2,0,0,1,30.82,12.82Z"/><path class="cls-6" d="M37,20a2,2,0,1,1-2.82-1.82A2,2,0,0,1,37,20Z"/><path class="cls-5" d="M36.82,20.82a2,2,0,0,1-2.64-2.64A2,2,0,0,1,36.82,20.82Z"/></g></svg>