<svg xmlns="http://www.w3.org/2000/svg" viewBox="0 0 48 48"><defs><style>.cls-1{fill:#6fabe6;}.cls-2{fill:#82bcf4;}.cls-3{fill:#db5669;}.cls-4{fill:#f26674;}.cls-5{fill:#ffde76;}.cls-6{fill:#fc6;}.cls-7{fill:#5b9ad8;}</style></defs><title>cloathes discount</title><g id="cloathes_discount" data-name="cloathes discount"><path class="cls-1" d="M47,20l-9,4.5V44.13a35.6,35.6,0,0,1-28,0V24.5L1,20,5.19,8.27a6,6,0,0,1,3-3.35L16,1H32l7.84,3.92a6,6,0,0,1,3,3.35Z"/><path class="cls-2" d="M47,20l-9,4.5V42.91a35.51,35.51,0,0,1-23.32.24A4,4,0,0,1,12,39.37V22.5L5.38,19.19A3,3,0,0,1,3.89,15.5C7.42,5.62,7.24,6,7.52,5.52c.85-.8-.36-.1,8.48-4.52H32l7.84,3.92a6,6,0,0,1,3,3.35C47.27,20.74,46.58,18.81,47,20Z"/><path class="cls-3" d="M32.83,31.45a1.93,1.93,0,0,1-1.43,2.47,1.94,1.94,0,0,0-1.48,1.48,1.93,1.93,0,0,1-2.47,1.43,1.93,1.93,0,0,0-2,.54,1.94,1.94,0,0,1-2.86,0,2,2,0,0,0-2-.54,1.93,1.93,0,0,1-2.47-1.43,1.93,1.93,0,0,0-1.48-1.48A1.94,1.94,0,0,1,15.08,32c0-.51.18-.64.18-1.17C15.26,29.4,14,29.46,14,28s1.26-1.4,1.26-2.86c0-.53-.18-.65-.18-1.17a1.94,1.94,0,0,1,1.52-1.89,1.93,1.93,0,0,0,1.48-1.48A1.94,1.94,0,0,1,20,19.08c.52,0,.64.18,1.17.18C22.6,19.26,22.54,18,24,18s1.64,1.75,3.45,1.17a1.94,1.94,0,0,1,2.47,1.43,1.93,1.93,0,0,0,1.48,1.48A1.94,1.94,0,0,1,32.92,24c0,.52-.18.64-.18,1.17C32.74,26.6,34,26.54,34,28S32.26,29.64,32.83,31.45Z"/><path class="cls-4" d="M32.83,31.45a1.93,1.93,0,0,1-1.43,2.47A1.93,1.93,0,0,0,30,35.16C21.7,38.83,13.19,30.25,16.84,22a1.93,1.93,0,0,0,1.24-1.41A1.94,1.94,0,0,1,20,19.08c.52,0,.64.18,1.17.18C22.6,19.26,22.54,18,24,18s1.64,1.75,3.45,1.17a1.94,1.94,0,0,1,2.47,1.43,1.93,1.93,0,0,0,1.48,1.48A1.94,1.94,0,0,1,32.92,24c0,.52-.18.64-.18,1.17C32.74,26.6,34,26.54,34,28S32.26,29.64,32.83,31.45Z"/><path class="cls-5" d="M20,33a1,1,0,0,1-.71-1.71l8-8a1,1,0,0,1,1.42,1.42C20.07,33.34,20.59,33,20,33Z"/><path class="cls-6" d="M23,25a2,2,0,1,1-2.82-1.82A2,2,0,0,1,23,25Z"/><path class="cls-5" d="M22.82,25.82a2,2,0,0,1-2.64-2.64A2,2,0,0,1,22.82,25.82Z"/><path class="cls-6" d="M29,31a2,2,0,1,1-2.82-1.82A2,2,0,0,1,29,31Z"/><path class="cls-5" d="M28.82,31.82a2,2,0,0,1-2.64-2.64A2,2,0,0,1,28.82,31.82Z"/><path class="cls-7" d="M39,16v8l-1,.5v1a1,1,0,0,1-1-1V16A1,1,0,0,1,39,16Z"/><path class="cls-7" d="M11,16v8.5a1,1,0,0,1-1,1v-1L9,24V16A1,1,0,0,1,11,16Z"/><path class="cls-7" d="M32,1c-1.35,9.41-14.69,9.15-16,.07C16,1,14.79,1,32,1Z"/><path class="cls-1" d="M32,1a8.12,8.12,0,0,1-1.39,3.55A8.06,8.06,0,0,1,18.54,1Z"/></g></svg>