<svg xmlns="http://www.w3.org/2000/svg" viewBox="0 0 48 48"><defs><style>.cls-1{fill:#6fabe6;}.cls-2{fill:#82bcf4;}.cls-3{fill:#f6ccaf;}.cls-4{fill:#ffdec7;}.cls-5{fill:#edb996;}.cls-6{fill:#fc6;}.cls-7{fill:#ffde76;}.cls-8{fill:#ffba55;}.cls-9{fill:#be927c;}</style></defs><title>hand receive shop bag</title><g id="hand_receive_shop_bag" data-name="hand receive shop bag"><rect class="cls-1" x="1" y="26" width="6" height="17"/><path class="cls-2" d="M7,26c0,15.75-.1,15,0,15a4,4,0,0,1-4-4V26Z"/><path class="cls-3" d="M47,34a3,3,0,0,1-1.63,2.67C27.74,45.68,28.11,46,24.17,46c-2.86,0-4-.83-12-4.46C10.7,40.86,9.68,41,7,41V28c9.53-1.19,6.49-1.67,21.28,5.28a3,3,0,0,1,.48,5.14l13.87-7.09A3,3,0,0,1,47,34Z"/><path class="cls-4" d="M46.82,33c-.53,1.55-.32,1.09-17.55,9.9a10.21,10.21,0,0,1-5.1,1.1c-2.86,0-4-.83-12-4.46A5.82,5.82,0,0,0,10,39a1,1,0,0,1-1-1V27.75c7.17-.89,5.14-1.11,19.28,5.53a3,3,0,0,1,1.17,4.43c-.45.71-1.38,1.07.2.25,13.89-7.09,13-6.67,13.35-6.78A3,3,0,0,1,46.82,33Z"/><path class="cls-5" d="M25.29,39.61,17.4,35.9a1,1,0,0,1,.86-1.8l7.89,3.71c1.69.79,2.29-1.11,3.3-.1-.45.71-1.38,1.07.2.25C30.43,39.48,27.26,40.56,25.29,39.61Z"/><path class="cls-6" d="M43,31.18c-.32.11.73-.41-14.24,7.24a3,3,0,0,0-.48-5.14C16.8,27.89,16.77,27.74,15,27.44L17,10H41C43.06,31.81,42.74,28.4,43,31.18Z"/><path class="cls-7" d="M42.81,29.15a5.52,5.52,0,0,0-1.09.4c-11,5.61-9.88,5.21-10,4.76a5,5,0,0,0-2.58-2.84l-10.73-5a1.84,1.84,0,0,1-1.07-1.86L19,10H41Z"/><path class="cls-8" d="M26,15a2,2,0,1,1-2.82-1.82A2,2,0,0,1,26,15Z"/><path class="cls-6" d="M25.82,15.82a2,2,0,0,1-2.64-2.64A2,2,0,0,1,25.82,15.82Z"/><path class="cls-8" d="M36,15a2,2,0,1,1-2.82-1.82A2,2,0,0,1,36,15Z"/><path class="cls-6" d="M35.82,15.82a2,2,0,0,1-2.64-2.64A2,2,0,0,1,35.82,15.82Z"/><path class="cls-9" d="M33,15V7a4,4,0,0,0-8,0v8a1,1,0,0,1-2,0V7A6,6,0,0,1,35,7v8A1,1,0,0,1,33,15Z"/></g></svg>