<svg xmlns="http://www.w3.org/2000/svg" viewBox="0 0 48 48"><defs><style>.cls-1{fill:#6fabe6;}.cls-2{fill:#82bcf4;}.cls-3{fill:#ffde76;}</style></defs><title>voucher discount</title><g id="voucher_discount" data-name="voucher discount"><polygon class="cls-1" points="47 14 47 34 21 34 19 32 17 34 1 34 1 26 3 24 1 22 1 14 17 14 19 16 21 14 47 14"/><path class="cls-2" d="M47,14V32H7a4,4,0,0,1-4-4V14H17l2,2,2-2Z"/><path class="cls-3" d="M19,21a1,1,0,0,1-1-1,1,1,0,1,1,1,1Z"/><path class="cls-3" d="M19,25a1,1,0,1,1,.92-1.38A1,1,0,0,1,19,25Z"/><path class="cls-3" d="M19,29a1,1,0,1,1,.71-1.71A1,1,0,0,1,19,29Z"/><path class="cls-3" d="M42,19H25a1,1,0,0,1,0-2H42A1,1,0,0,1,42,19Z"/><path class="cls-3" d="M42,23H25a1,1,0,0,1,0-2H42A1,1,0,0,1,42,23Z"/><path class="cls-3" d="M42,27H25a1,1,0,0,1,0-2H42A1,1,0,0,1,42,27Z"/><path class="cls-3" d="M42,31H25a1,1,0,0,1,0-2H42A1,1,0,0,1,42,31Z"/><path class="cls-3" d="M5,30a1,1,0,0,1-.71-1.71l10-10a1,1,0,0,1,1.42,1.42C4.88,30.53,5.6,30,5,30Z"/><path class="cls-3" d="M7,23a3,3,0,1,0-3-3A3,3,0,0,0,7,23Zm0-4a1,1,0,0,1,0,2A1,1,0,0,1,7,19Z"/><path class="cls-3" d="M13,25a3,3,0,1,0,3,3A3,3,0,0,0,13,25Zm0,4a1,1,0,0,1,0-2A1,1,0,0,1,13,29Z"/></g></svg>