<svg xmlns="http://www.w3.org/2000/svg" viewBox="0 0 48 48"><defs><style>.cls-1{fill:#9dcc6b;}.cls-2{fill:#b5e08c;}.cls-3{fill:#f6ccaf;}.cls-4{fill:#ffdec7;}.cls-5{fill:#edb996;}.cls-6{fill:#6fabe6;}.cls-7{fill:#82bcf4;}.cls-8{fill:#84b749;}</style></defs><title>hand hold money</title><g id="hand_hold_money" data-name="hand hold money"><path class="cls-1" d="M47,13,39.92,25.25A2.1,2.1,0,0,0,39,25V8.38Z"/><path class="cls-2" d="M47,13c-2.33,4-4.09,7.09-6,10.38V9.53Z"/><path class="cls-1" d="M39,7c0,19.42,0,18-.09,18H23V7Z"/><path class="cls-2" d="M39,7V23H28a3,3,0,0,1-3-3V7Z"/><path class="cls-3" d="M41.41,32.41c-.72.74-1.58.59-2.41.59a2,2,0,0,1,1.41,3.41c-.72.74-1.58.59-2.41.59a2,2,0,0,1,0,4c-17.65,0-16.8.16-17.53-.4C16.33,37.5,17.82,38,13,38V27c3.08,0,3.87.23,4.45-.73C20.23,21.62,19.46,22,23,22v3c15.75,0,15.9,0,16,0a2,2,0,0,1,0,4h1A2,2,0,0,1,41.41,32.41Z"/><path class="cls-4" d="M39,33a2,2,0,0,1,0,4H38a2,2,0,0,1,2,2c-18.83,0-17.8.16-18.53-.4-3-2.22-3.25-2.6-4.14-2.6H17a2,2,0,0,1-2-2V27c1.32,0,2,.09,2.45-.73C20.24,21.6,19.49,22,23,22v3H38.91a2,2,0,0,1,1.5,3.41A2,2,0,0,1,39,29h.89a2,2,0,0,1,1.52,3.41C40.69,33.15,39.83,33,39,33Z"/><path class="cls-5" d="M41.73,30H31a1,1,0,0,1,0-2h9.73A2,2,0,0,1,39,29C40.21,29,41.09,28.91,41.73,30Z"/><rect class="cls-6" x="8" y="25" width="5" height="15"/><path class="cls-7" d="M13,25c0,13.72-.1,13,0,13a3,3,0,0,1-3-3V25Z"/><rect class="cls-6" x="1" y="25" width="7" height="15"/><path class="cls-7" d="M8,25c0,13.72-.1,13,0,13a5,5,0,0,1-5-5V25Z"/><path class="cls-5" d="M39,33a2,2,0,0,1,1.73,1H31a1,1,0,0,1,0-2H41.73C41.1,33,40.31,33,39,33Z"/><path class="cls-5" d="M38,37a2,2,0,0,1,1.73,1H31a1,1,0,0,1,0-2h9.73C40.1,37,39.31,37,38,37Z"/><path class="cls-1" d="M39,10v2a5,5,0,0,1-5-5h2A3,3,0,0,0,39,10Z"/><path class="cls-8" d="M28,7a5,5,0,0,1-5,5V10a3,3,0,0,0,3-3Z"/><path class="cls-1" d="M28,7a5,5,0,0,1-3,4.59V9.23A3,3,0,0,0,26,7Z"/><path class="cls-1" d="M45.5,15.6l-1,1.73a5,5,0,0,1-1.83-6.83l1.73,1A3,3,0,0,0,45.5,15.6Z"/><path class="cls-8" d="M30.08,12.62a1,1,0,0,1,1.84.76A1,1,0,0,1,30.08,12.62Z"/><path class="cls-8" d="M33.64,25H28.36a4,4,0,1,1,5.28,0Z"/><path class="cls-1" d="M34.64,23.64a4,4,0,0,1-5.28-5.28A4,4,0,0,1,34.64,23.64Z"/></g></svg>