<svg xmlns="http://www.w3.org/2000/svg" viewBox="0 0 48 48"><defs><style>.cls-1{fill:#ffba55;}.cls-2{fill:#dad7e5;}.cls-3{fill:#edebf2;}.cls-4{fill:#fc6;}.cls-5{fill:#ffde76;}.cls-6{fill:#c6c3d8;}.cls-7{fill:#db5669;}.cls-8{fill:#f26674;}</style></defs><title>news letter discount</title><g id="news_letter_discount" data-name="news letter discount"><path class="cls-1" d="M47,17,32,32l-3.76-3.76a6,6,0,0,0-5.38-1.64C20.54,27.09,20,28,16,32L1,17l6-6H41Z"/><rect class="cls-2" x="7" y="1" width="34" height="33"/><path class="cls-3" d="M41,1V20.18l-1.51,1.51a3.5,3.5,0,0,0-3.57-1.23,3.53,3.53,0,0,0-4.84,0,3.52,3.52,0,0,0-4.2,2.42,4,4,0,0,0-2.11,1.65c-4.19-.5-6.53,2.41-8.77,4.64l-7-7V1Z"/><path class="cls-4" d="M16,32,2.17,45.83A4,4,0,0,1,1,43V17Z"/><path class="cls-1" d="M45.83,45.83A4,4,0,0,1,43,47H5a4,4,0,0,1-2.83-1.17c18.35-18.35,18.29-19,21.26-19.31a6.06,6.06,0,0,1,2.76.38C27.83,27.56,26.8,26.81,45.83,45.83Z"/><path class="cls-4" d="M47,17c0,27,.48,27.18-1.17,28.83L32,32Z"/><path class="cls-4" d="M45,45H7a4,4,0,0,1-2.83-1.17c16.09-16.09,16.3-17,19.26-17.31a6.06,6.06,0,0,1,2.76.38C27.82,27.55,26.87,26.87,45,45Z"/><path class="cls-5" d="M16,32,4.17,43.83A4,4,0,0,1,3,41V19Z"/><path class="cls-5" d="M47,17c0,28.22.15,26.52-.36,27.64A3.93,3.93,0,0,1,45,45L32,32Z"/><path class="cls-6" d="M14,5V8.76L11.89,4.55A1,1,0,0,0,10,5v8a1,1,0,0,0,2,0V9.24l2.11,4.21A1,1,0,0,0,16,13V5A1,1,0,0,0,14,5Z"/><path class="cls-6" d="M21,6a1,1,0,0,0,0-2H18a1,1,0,0,0-1,1v8a1,1,0,0,0,1,1h3a1,1,0,0,0,0-2H19V10h2a1,1,0,0,0,0-2H19V6Z"/><path class="cls-6" d="M29,4.91l-.5,5.42-.7-.93a1,1,0,0,0-1.6,0l-.7.93L25,4.91a1,1,0,0,0-2,.18c.81,8.64.59,8.62,1.48,8.87s1-.31,2.52-2.29c1.51,2,1.6,2.33,2.25,2.33a1,1,0,0,0,1-.91l.75-8A1,1,0,0,0,29,4.91Z"/><path class="cls-6" d="M35,8a1,1,0,0,1,0-2h2a1,1,0,0,0,0-2H35a3,3,0,0,0,0,6,1,1,0,0,1,0,2H33a1,1,0,0,0,0,2h2a3,3,0,0,0,0-6Z"/><path class="cls-6" d="M37,18H11a1,1,0,0,1,0-2H37A1,1,0,0,1,37,18Z"/><path class="cls-6" d="M24,22H11a1,1,0,0,1,0-2H24A1,1,0,0,1,24,22Z"/><path class="cls-7" d="M41,30.64a1.59,1.59,0,0,0-.43,1.62,1.54,1.54,0,0,1-1.14,2,1.56,1.56,0,0,0-1.18,1.18,1.54,1.54,0,0,1-2,1.14,1.59,1.59,0,0,0-1.62.43,1.53,1.53,0,0,1-2.28,0,1.59,1.59,0,0,0-1.62-.43,1.54,1.54,0,0,1-2-1.14,1.55,1.55,0,0,0-1.18-1.18,1.55,1.55,0,0,1-1.22-1.51c0-.34.15-.53.15-.94,0-1.19-1-1.13-1-2.29s1-1.11,1-2.29c0-.39-.15-.59-.15-.94a1.55,1.55,0,0,1,1.22-1.51,1.56,1.56,0,0,0,1.18-1.18,1.55,1.55,0,0,1,1.51-1.22c.34,0,.53.15.94.15,1.19,0,1.13-1,2.29-1s1.3,1.39,2.76.94a1.54,1.54,0,0,1,2,1.14,1.55,1.55,0,0,0,1.18,1.18,1.55,1.55,0,0,1,1.22,1.51c0,.34-.15.53-.15.94,0,1.18,1,1.13,1,2.29A1.51,1.51,0,0,1,41,30.64Z"/><path class="cls-8" d="M41,30.64a1.59,1.59,0,0,0-.43,1.62,1.54,1.54,0,0,1-1.14,2,1.51,1.51,0,0,0-1,.7A8,8,0,0,1,28.06,24.56a1.51,1.51,0,0,0,.7-1,1.55,1.55,0,0,1,1.51-1.22c.34,0,.53.15.94.15,1.19,0,1.13-1,2.29-1s1.3,1.39,2.76.94a1.54,1.54,0,0,1,2,1.14,1.55,1.55,0,0,0,1.18,1.18,1.55,1.55,0,0,1,1.22,1.51c0,.34-.15.53-.15.94,0,1.18,1,1.13,1,2.29A1.51,1.51,0,0,1,41,30.64Z"/><path class="cls-5" d="M31,33a1,1,0,0,1-.71-1.71l5-5a1,1,0,0,1,1.42,1.42C31.47,32.94,31.59,33,31,33Z"/><path class="cls-4" d="M33,26.5a1.5,1.5,0,1,1-1.93-1.43A1.49,1.49,0,0,1,33,26.5Z"/><path class="cls-5" d="M32.93,26.93a1.49,1.49,0,0,1-1.86-1.86A1.49,1.49,0,0,1,32.93,26.93Z"/><path class="cls-4" d="M37,32.5a1.5,1.5,0,1,1-1.93-1.43A1.49,1.49,0,0,1,37,32.5Z"/><path class="cls-5" d="M36.93,32.93a1.49,1.49,0,0,1-1.86-1.86A1.49,1.49,0,0,1,36.93,32.93Z"/></g></svg>