<svg xmlns="http://www.w3.org/2000/svg" viewBox="0 0 48 48"><defs><style>.cls-1{fill:#db5669;}.cls-2{fill:#f26674;}.cls-3{fill:#edebf2;}.cls-4{fill:#6fabe6;}.cls-5{fill:#82bcf4;}.cls-6{fill:#ffde76;}</style></defs><title>click buy button</title><g id="click_buy_button" data-name="click buy button"><rect class="cls-1" x="4" y="11" width="32" height="16" rx="2"/><path class="cls-2" d="M36,13V25H10a4,4,0,0,1-4-4V11H34A2,2,0,0,1,36,13Z"/><path class="cls-3" d="M12,14H10a1,1,0,0,0-1,1v8a1,1,0,0,0,1,1h2a3,3,0,0,0,2.22-5A3,3,0,0,0,12,14Zm-1,2h1a1,1,0,0,1,0,2H11Zm1,6H11V20h1A1,1,0,0,1,12,22Z"/><path class="cls-3" d="M21,15v6a1,1,0,0,1-2,0V15a1,1,0,0,0-2,0v6a3,3,0,0,0,6,0V15A1,1,0,0,0,21,15Z"/><path class="cls-3" d="M29.11,14.55,28,16.76l-1.11-2.21a1,1,0,0,0-1.78.9L27,19.24V23a1,1,0,0,0,2,0V19.24l1.89-3.79A1,1,0,0,0,29.11,14.55Z"/><polygon class="cls-4" points="41.03 32.71 37.49 36.25 44 42.76 39.76 47 33.25 40.49 29.71 44.03 28.3 31.3 41.03 32.71"/><path class="cls-5" d="M43.5,42.26a3.88,3.88,0,0,1-5.48,0l-3.77-3.77L30.71,42,29.54,31.44,41,32.71l-3.54,3.54Z"/><path class="cls-6" d="M19,5V1a1,1,0,0,1,2,0V5A1,1,0,0,1,19,5Z"/><path class="cls-6" d="M14,7.61c-.76,0-.75-.3-2.87-4a1,1,0,0,1,1.74-1l2,3.47A1,1,0,0,1,14,7.61Z"/><path class="cls-6" d="M26,7.61a1,1,0,0,1-.87-1.5l2-3.47a1,1,0,0,1,1.74,1C26.75,7.31,26.76,7.61,26,7.61Z"/></g></svg>