<svg xmlns="http://www.w3.org/2000/svg" viewBox="0 0 48 48"><defs><style>.cls-1{fill:#6fabe6;}.cls-2{fill:#82bcf4;}.cls-3{fill:#db5669;}.cls-4{fill:#f26674;}.cls-5{fill:#ffde76;}</style></defs><title>bubble chat discount</title><g id="bubble_chat_discount" data-name="bubble chat discount"><path class="cls-1" d="M31,33c-4.69,6.26-14,7.54-20.71,4.34L1,39l4.25-5.67C-.67,25.71,5.69,15.63,17,15Z"/><path class="cls-2" d="M31,33c-1.29,1.72-5.84,4-11,4C8.11,37,1.05,26.47,7.34,18.57A16.71,16.71,0,0,1,17,15Z"/><path class="cls-3" d="M47,33l-9-1.82A17.82,17.82,0,0,1,30,33C16.69,33,10,20.08,19.34,12.56S45,10.21,45,21c0,4.12-2.28,6-2.09,6.23Z"/><path class="cls-4" d="M42.87,27.18C43,27.34,38.74,31,32,31,20.07,31,13.07,20.44,19.34,12.56,28.62,5,45,10.21,45,21A10.28,10.28,0,0,1,42.87,27.18Z"/><path class="cls-5" d="M25,27a1,1,0,0,1-.71-1.71l10-10a1,1,0,0,1,1.42,1.42C24.88,27.53,25.6,27,25,27Z"/><path class="cls-5" d="M27,20a3,3,0,1,0-3-3A3,3,0,0,0,27,20Zm0-4a1,1,0,0,1,0,2A1,1,0,0,1,27,16Z"/><path class="cls-5" d="M33,22a3,3,0,1,0,3,3A3,3,0,0,0,33,22Zm0,4a1,1,0,0,1,0-2A1,1,0,0,1,33,26Z"/></g></svg>