<svg xmlns="http://www.w3.org/2000/svg" viewBox="0 0 48 48"><defs><style>.cls-1{fill:#6fabe6;}.cls-2{fill:#82bcf4;}.cls-3{fill:#f6ccaf;}.cls-4{fill:#ffdec7;}.cls-5{fill:#edb996;}.cls-6{fill:#dad7e5;}.cls-7{fill:#edebf2;}.cls-8{fill:#db5669;}.cls-9{fill:#f26674;}.cls-10{fill:#ffde76;}</style></defs><title>mortgage</title><g id="mortgage"><rect class="cls-1" x="1" y="27" width="6" height="17"/><path class="cls-2" d="M7,27c0,15.75-.1,15,0,15a4,4,0,0,1-4-4V27Z"/><path class="cls-3" d="M47,35a3,3,0,0,1-1.63,2.67C27.74,46.68,28.11,47,24.17,47c-2.86,0-4-.83-12-4.46C10.7,41.86,9.68,42,7,42V29c9.53-1.19,6.49-1.67,21.28,5.28a3,3,0,0,1,.48,5.14l13.87-7.09A3,3,0,0,1,47,35Z"/><path class="cls-4" d="M46.82,34c-.53,1.55-.32,1.09-17.55,9.9a10.21,10.21,0,0,1-5.1,1.1c-2.86,0-4-.83-12-4.46A5.82,5.82,0,0,0,10,40a1,1,0,0,1-1-1V28.75c7.17-.89,5.14-1.11,19.28,5.53a3,3,0,0,1,1.17,4.43c-.45.71-1.38,1.07.2.25,13.89-7.09,13-6.67,13.35-6.78A3,3,0,0,1,46.82,34Z"/><path class="cls-5" d="M25.29,40.61,17.4,36.9a1,1,0,0,1,.86-1.8l7.89,3.71c1.69.79,2.29-1.11,3.3-.1-.45.71-1.38,1.07.2.25C30.43,40.48,27.26,41.56,25.29,40.61Z"/><path class="cls-6" d="M43,19.41c0,14.32.16,12.66-.37,12.92L28.76,39.42a3,3,0,0,0-.48-5.14C16.8,28.89,16.77,28.74,15,28.44v-9l14-14Z"/><path class="cls-7" d="M43,19.41v10.7c-.89.16-1.11.35-11.19,5.51a5,5,0,0,0-2.68-3.15c-11.47-5.39-10.93-5.15-11.46-5.36-.88-.34-.67-.4-.67-7.7l13-13Z"/><path class="cls-8" d="M43.59,20,29,5.42,14.41,20a2,2,0,0,1-2.82-2.82L26.88,1.88a3,3,0,0,1,4.24,0c16.34,16.35,15.43,15.4,15.6,15.71A2,2,0,0,1,43.59,20Z"/><path class="cls-9" d="M46.72,17.59a2,2,0,0,1-3.13.41L29,3.42,14.41,18a2,2,0,0,1-3.13-.41c.17-.31-.76.66,15.6-15.71a3,3,0,0,1,4.24,0C47.46,18.23,46.55,17.28,46.72,17.59Z"/><path class="cls-10" d="M24,28a1,1,0,0,1-.71-1.71l10-10a1,1,0,0,1,1.42,1.42C23.88,28.53,24.6,28,24,28Z"/><path class="cls-10" d="M26,21a3,3,0,1,0-3-3A3,3,0,0,0,26,21Zm0-4a1,1,0,0,1,0,2A1,1,0,0,1,26,17Z"/><path class="cls-10" d="M32,23a3,3,0,1,0,3,3A3,3,0,0,0,32,23Zm0,4a1,1,0,0,1,0-2A1,1,0,0,1,32,27Z"/></g></svg>