<svg xmlns="http://www.w3.org/2000/svg" viewBox="0 0 48 48"><defs><style>.cls-1{fill:#7c7d7d;}.cls-2{fill:#919191;}.cls-3{fill:#374f68;}.cls-4{fill:#425b72;}.cls-5{fill:#edebf2;}.cls-6{fill:#dad7e5;}.cls-7{fill:#fc6;}.cls-8{fill:#ffde76;}.cls-9{fill:#ffba55;}.cls-10{fill:#df8761;}.cls-11{fill:#f29b75;}.cls-12{fill:#9fdbf3;}.cls-13{fill:#b2e5fb;}</style></defs><title>delivery truck</title><g id="delivery_truck" data-name="delivery truck"><path class="cls-1" d="M47,31v2a2,2,0,0,1-2,2H3a2,2,0,0,1-2-2V31Z"/><path class="cls-2" d="M47,31v2H5a2,2,0,0,1-2-2Z"/><circle class="cls-3" cx="39" cy="35" r="4"/><path class="cls-3" d="M16,35a4,4,0,1,1-5.64-3.64A4,4,0,0,1,16,35Z"/><path class="cls-4" d="M15.64,36.64a4,4,0,0,1-5.28-5.28A4,4,0,0,1,15.64,36.64Z"/><path class="cls-4" d="M42.64,36.64a4,4,0,0,1-5.28-5.28A4,4,0,0,1,42.64,36.64Z"/><path class="cls-5" d="M12,36a1,1,0,1,1,.71-1.71A1,1,0,0,1,12,36Z"/><path class="cls-5" d="M39,36a1,1,0,0,1-.19-2C40.24,33.71,40.42,36,39,36Z"/><rect class="cls-6" x="1" y="9" width="30" height="22"/><path class="cls-5" d="M31,9V29H7a4,4,0,0,1-4-4V9Z"/><path class="cls-7" d="M47,31H31V15h8.5c2,0,2.33,1.11,6.7,6.93C47.25,23.34,47,24,47,31Z"/><path class="cls-8" d="M47,29H36a3,3,0,0,1-3-3V15c6.53,0,7.71-.39,8.9,1.2C47.79,24.06,47,21.67,47,29Z"/><path class="cls-9" d="M37,28H36a1,1,0,0,1,0-2h1A1,1,0,0,1,37,28Z"/><rect class="cls-10" x="8" y="14" width="16" height="12"/><path class="cls-11" d="M24,14V24H13a3,3,0,0,1-3-3V14Z"/><polygon class="cls-7" points="19 14 19 19 16 18 13 19 13 14 19 14"/><polygon class="cls-8" points="19 14 19 17 16 16 15 16.33 15 14 19 14"/><path class="cls-12" d="M46.77,23H37a2,2,0,0,1-2-2V15c7.15,0,5.32-.91,10.5,6A7.18,7.18,0,0,1,46.77,23Z"/><path class="cls-13" d="M45.5,21H39a2,2,0,0,1-2-2V15C41.8,15,40.55,14.4,45.5,21Z"/></g></svg>