<svg xmlns="http://www.w3.org/2000/svg" viewBox="0 0 48 48"><defs><style>.cls-1{fill:#9dcc6b;}.cls-2{fill:#b5e08c;}.cls-3{fill:#84b749;}.cls-4{fill:#fc6;}.cls-5{fill:#ffde76;}</style></defs><title>pile of money</title><g id="pile_of_money" data-name="pile of money"><rect class="cls-1" x="1" y="32" width="30" height="4"/><rect class="cls-1" x="1" y="12" width="30" height="16"/><path class="cls-2" d="M31,12V26H6a3,3,0,0,1-3-2.57C3,23.16,3,24.06,3,12Z"/><path class="cls-3" d="M20,20a4,4,0,1,1-5.64-3.64A4,4,0,0,1,20,20Z"/><path class="cls-1" d="M19.64,21.64a4,4,0,0,1-5.28-5.28A4,4,0,0,1,19.64,21.64Z"/><path class="cls-3" d="M6,12a5,5,0,0,1-5,5V15a3,3,0,0,0,3-3Z"/><path class="cls-1" d="M31,15v2a5,5,0,0,1-5-5h2A3,3,0,0,0,31,15Z"/><path class="cls-3" d="M6,28H4a3,3,0,0,0-3-3V23A5,5,0,0,1,6,28Z"/><path class="cls-3" d="M31,23v2a3,3,0,0,0-3,3H26A5,5,0,0,1,31,23Z"/><path class="cls-3" d="M7,21a1,1,0,0,1-1-1,1,1,0,1,1,1,1Z"/><path class="cls-3" d="M25,21a1,1,0,1,1,.71-1.71A1,1,0,0,1,25,21Z"/><path class="cls-1" d="M31,23v2a3,3,0,0,0-2.23,1H26.41A5,5,0,0,1,31,23Z"/><path class="cls-1" d="M5.57,26A3,3,0,0,1,3,23.43,5.11,5.11,0,0,1,5.57,26Z"/><path class="cls-1" d="M6,12a5,5,0,0,1-3,4.59V14.23A3,3,0,0,0,4,12Z"/><rect class="cls-1" x="1" y="28" width="30" height="4"/><path class="cls-2" d="M31,28v2H5a2,2,0,0,1-2-2Z"/><path class="cls-2" d="M31,32v2H5a2,2,0,0,1-2-2Z"/><rect class="cls-4" x="35" y="30" width="12" height="6" rx="2"/><path class="cls-5" d="M47,32a2,2,0,0,1-2,2H37a2,2,0,0,1,0-4h8A2,2,0,0,1,47,32Z"/><rect class="cls-4" x="35" y="24" width="12" height="6" rx="2"/><rect class="cls-4" x="35" y="18" width="12" height="6" rx="2"/><path class="cls-5" d="M47,26a2,2,0,0,1-2,2H37a2,2,0,0,1,0-4h8A2,2,0,0,1,47,26Z"/><path class="cls-5" d="M47,20a2,2,0,0,1-2,2H37a2,2,0,0,1,0-4h8A2,2,0,0,1,47,20Z"/></g></svg>