<svg xmlns="http://www.w3.org/2000/svg" viewBox="0 0 48 48"><defs><style>.cls-1{fill:#6fabe6;}.cls-2{fill:#82bcf4;}.cls-3{fill:#fc6;}.cls-4{fill:#ffde76;}.cls-5{fill:#edebf2;}.cls-6{fill:#425b72;}.cls-7{fill:#374f68;}</style></defs><title>creadit cards</title><g id="creadit_cards" data-name="creadit cards"><path class="cls-1" d="M47,7c0,19.51.06,18.24-.13,18.87A3,3,0,0,1,44,28H39L9,18V7a3,3,0,0,1,3-3H44A3,3,0,0,1,47,7Z"/><path class="cls-2" d="M47,7c0,19.51.06,18.24-.13,18.87-.65.19-.66.13-5.87.13V21a5,5,0,0,0-5-5H11C11,4.1,11,4.75,11.13,4.13,11.77,3.94,9.2,4,44,4A3,3,0,0,1,47,7Z"/><path class="cls-1" d="M39,21c0,21.73.06,20.24-.13,20.87A3,3,0,0,1,36,44H4a3,3,0,0,1-3-3V21a3,3,0,0,1,3-3H36A3,3,0,0,1,39,21Z"/><path class="cls-2" d="M39,21c0,21.73.06,20.24-.13,20.87-.68.2-32,.13-31.87.13a4,4,0,0,1-4-4c0-20.78,0-19.25.13-19.87.68-.2,33-.13,32.87-.13A3,3,0,0,1,39,21Z"/><rect class="cls-3" x="5" y="22" width="6" height="4"/><path class="cls-4" d="M11,22v3H9a3,3,0,0,1-3-3Z"/><path class="cls-5" d="M19,41H5a1,1,0,0,1,0-2H19A1,1,0,0,1,19,41Z"/><path class="cls-3" d="M29.5,35.35a3,3,0,1,0,0,3.3,3,3,0,1,0,0-3.3Z"/><path class="cls-4" d="M35,37a3,3,0,0,1-.44,1.56,3,3,0,0,1-4.06-.91,3,3,0,0,1-5.06-3.21,3,3,0,0,1,4.06.91A3,3,0,0,1,35,37Z"/><path class="cls-5" d="M7,37H5a1,1,0,0,1,0-2H7A1,1,0,0,1,7,37Z"/><path class="cls-5" d="M13,37H11a1,1,0,0,1,0-2h2A1,1,0,0,1,13,37Z"/><path class="cls-6" d="M12,31H5a1,1,0,0,1,0-2h7A1,1,0,0,1,12,31Z"/><path class="cls-6" d="M34,31H27a1,1,0,0,1,0-2h7A1,1,0,0,1,34,31Z"/><path class="cls-6" d="M23,31H16a1,1,0,0,1,0-2h7A1,1,0,0,1,23,31Z"/><rect class="cls-7" x="9" y="9" width="38" height="4"/><path class="cls-6" d="M47,9v2H13a2,2,0,0,1-2-2Z"/></g></svg>