<svg xmlns="http://www.w3.org/2000/svg" viewBox="0 0 48 48"><defs><style>.cls-1{fill:#dad7e5;}.cls-2{fill:#6fabe6;}.cls-3{fill:#82bcf4;}.cls-4{fill:#db5669;}.cls-5{fill:#f26674;}.cls-6{fill:#ffde76;}.cls-7{fill:#fc6;}</style></defs><title>hanger towel discount</title><g id="hanger_towel_discount" data-name="hanger towel discount"><path class="cls-1" d="M23,12V9a1,1,0,0,1,1-1,3,3,0,1,0-3-3,1,1,0,0,1-2,0,5,5,0,1,1,6,4.9V12A1,1,0,0,1,23,12Z"/><path class="cls-1" d="M45.22,25H39a1,1,0,0,1,0-2h6.22a.78.78,0,0,0,.29-1.51L24,13.07,2.49,21.49A.78.78,0,0,0,2.78,23H9a1,1,0,0,1,0,2H2.78a2.78,2.78,0,0,1-1-5.37c23.86-9.34,22.07-8.77,22.59-8.56l21.87,8.56A2.78,2.78,0,0,1,45.22,25Z"/><path class="cls-2" d="M39,23V45.92a1,1,0,0,1-1.14,1C36.42,46.67,36.05,46,34,46c-2.5,0-2.5,1-5,1s-2.49-1-5-1-2.5,1-5,1-2.5-1-5-1c-2,0-2.42.67-3.86.91a1,1,0,0,1-1.14-1V23a2,2,0,0,1,2-2H37A2,2,0,0,1,39,23Z"/><path class="cls-3" d="M39,23V43.92a1,1,0,0,1-1.14,1C36.42,44.67,36.05,44,34,44c-2.5,0-2.5,1-5,1s-2.49-1-5-1-2.5,1-5,1-2.5-1-5-1a7.16,7.16,0,0,0-3,.68V21H37A2,2,0,0,1,39,23Z"/><path class="cls-4" d="M43,35.64a1.59,1.59,0,0,0-.43,1.62,1.54,1.54,0,0,1-1.14,2,1.56,1.56,0,0,0-1.18,1.18,1.54,1.54,0,0,1-2,1.14,1.59,1.59,0,0,0-1.62.43,1.53,1.53,0,0,1-2.28,0,1.59,1.59,0,0,0-1.62-.43,1.54,1.54,0,0,1-2-1.14,1.55,1.55,0,0,0-1.18-1.18,1.55,1.55,0,0,1-1.22-1.51c0-.34.15-.53.15-.94,0-1.19-1-1.13-1-2.29s1-1.11,1-2.29c0-.39-.15-.59-.15-.94a1.55,1.55,0,0,1,1.22-1.51,1.56,1.56,0,0,0,1.18-1.18,1.55,1.55,0,0,1,1.51-1.22c.34,0,.53.15.94.15,1.19,0,1.13-1,2.29-1s1.3,1.39,2.76.94a1.54,1.54,0,0,1,2,1.14,1.55,1.55,0,0,0,1.18,1.18,1.55,1.55,0,0,1,1.22,1.51c0,.34-.15.53-.15.94,0,1.18,1,1.13,1,2.29A1.51,1.51,0,0,1,43,35.64Z"/><path class="cls-5" d="M43,35.64a1.59,1.59,0,0,0-.43,1.62,1.54,1.54,0,0,1-1.14,2,1.51,1.51,0,0,0-1,.7A8,8,0,0,1,30.06,29.56a1.51,1.51,0,0,0,.7-1,1.55,1.55,0,0,1,1.51-1.22c.34,0,.53.15.94.15,1.19,0,1.13-1,2.29-1s1.3,1.39,2.76.94a1.54,1.54,0,0,1,2,1.14,1.55,1.55,0,0,0,1.18,1.18,1.55,1.55,0,0,1,1.22,1.51c0,.34-.15.53-.15.94,0,1.18,1,1.13,1,2.29A1.51,1.51,0,0,1,43,35.64Z"/><path class="cls-6" d="M33,38a1,1,0,0,1-.71-1.71l5-5a1,1,0,0,1,1.42,1.42C33.47,37.94,33.59,38,33,38Z"/><path class="cls-7" d="M35,31.5a1.5,1.5,0,1,1-1.93-1.43A1.49,1.49,0,0,1,35,31.5Z"/><path class="cls-6" d="M34.93,31.93a1.49,1.49,0,0,1-1.86-1.86A1.49,1.49,0,0,1,34.93,31.93Z"/><path class="cls-7" d="M39,37.5a1.5,1.5,0,1,1-1.93-1.43A1.49,1.49,0,0,1,39,37.5Z"/><path class="cls-6" d="M38.93,37.93a1.49,1.49,0,0,1-1.86-1.86A1.49,1.49,0,0,1,38.93,37.93Z"/></g></svg>