<svg xmlns="http://www.w3.org/2000/svg" viewBox="0 0 48 48"><defs><style>.cls-1{fill:#fc6;}.cls-2{fill:#ffde76;}.cls-3{fill:#db5669;}.cls-4{fill:#f26674;}.cls-5{fill:#be927c;}.cls-6{fill:#ffba55;}</style></defs><title>shopping bag discount</title><g id="shopping_bag_discount" data-name="shopping bag discount"><path class="cls-1" d="M39.77,42.78a4,4,0,0,1-4,4.22H12.23a4,4,0,0,1-4-4.22L10,11H38Z"/><path class="cls-2" d="M39.42,44.64c-1.1.51.11.36-23.08.36a6,6,0,0,1-6-6.33L11.89,11H38C39.92,45.43,40,43.39,39.42,44.64Z"/><path class="cls-3" d="M32.83,36.45a1.93,1.93,0,0,1-1.43,2.47,1.94,1.94,0,0,0-1.48,1.48,1.93,1.93,0,0,1-2.47,1.43,1.93,1.93,0,0,0-2,.54,1.94,1.94,0,0,1-2.86,0,2,2,0,0,0-2-.54,1.93,1.93,0,0,1-2.47-1.43,1.93,1.93,0,0,0-1.48-1.48A1.94,1.94,0,0,1,15.08,37c0-.51.18-.64.18-1.17C15.26,34.4,14,34.46,14,33s1.26-1.4,1.26-2.86c0-.53-.18-.65-.18-1.17a1.94,1.94,0,0,1,1.52-1.89,1.93,1.93,0,0,0,1.48-1.48A1.94,1.94,0,0,1,20,24.08c.52,0,.64.18,1.17.18C22.6,24.26,22.54,23,24,23s1.64,1.75,3.45,1.17a1.94,1.94,0,0,1,2.47,1.43,1.93,1.93,0,0,0,1.48,1.48A1.94,1.94,0,0,1,32.92,29c0,.52-.18.64-.18,1.17C32.74,31.6,34,31.54,34,33S32.26,34.64,32.83,36.45Z"/><path class="cls-4" d="M32.83,36.45a1.93,1.93,0,0,1-1.43,2.47A1.93,1.93,0,0,0,30,40.16C21.7,43.83,13.19,35.25,16.84,27a1.93,1.93,0,0,0,1.24-1.41A1.94,1.94,0,0,1,20,24.08c.52,0,.64.18,1.17.18C22.6,24.26,22.54,23,24,23s1.64,1.75,3.45,1.17a1.94,1.94,0,0,1,2.47,1.43,1.93,1.93,0,0,0,1.48,1.48A1.94,1.94,0,0,1,32.92,29c0,.52-.18.64-.18,1.17C32.74,31.6,34,31.54,34,33S32.26,34.64,32.83,36.45Z"/><path class="cls-5" d="M29,15V7A5,5,0,0,0,19,7v8a1,1,0,0,1-2,0V7A7,7,0,0,1,31,7v8A1,1,0,0,1,29,15Z"/><path class="cls-6" d="M20,17a2,2,0,1,1-2.82-1.82A2,2,0,0,1,20,17Z"/><path class="cls-1" d="M19.82,17.82a2,2,0,0,1-2.64-2.64A2,2,0,0,1,19.82,17.82Z"/><circle class="cls-6" cx="30" cy="17" r="2"/><path class="cls-2" d="M20,38a1,1,0,0,1-.71-1.71l8-8a1,1,0,0,1,1.42,1.42C20.07,38.34,20.59,38,20,38Z"/><path class="cls-1" d="M23,30a2,2,0,1,1-2.82-1.82A2,2,0,0,1,23,30Z"/><path class="cls-2" d="M22.82,30.82a2,2,0,0,1-2.64-2.64A2,2,0,0,1,22.82,30.82Z"/><path class="cls-1" d="M29,36a2,2,0,1,1-2.82-1.82A2,2,0,0,1,29,36Z"/><path class="cls-2" d="M28.82,36.82a2,2,0,0,1-2.64-2.64A2,2,0,0,1,28.82,36.82Z"/><path class="cls-1" d="M31.82,17.82a2,2,0,0,1-2.64-2.64A2,2,0,0,1,31.82,17.82Z"/></g></svg>