<svg xmlns="http://www.w3.org/2000/svg" viewBox="0 0 48 48"><defs><style>.cls-1{fill:#db5669;}.cls-2{fill:#f26674;}.cls-3{fill:#ffde76;}.cls-4{fill:#fc6;}.cls-5{fill:#7c7d7d;}.cls-6{fill:#919191;}</style></defs><title>phone call discount</title><g id="phone_call_discount" data-name="phone call discount"><path class="cls-1" d="M35.72,1.76a2.32,2.32,0,0,0,2.42.65,2.32,2.32,0,0,1,3,1.71,2.29,2.29,0,0,0,1.77,1.77,2.32,2.32,0,0,1,1.71,3,2.33,2.33,0,0,0,.65,2.42,2.33,2.33,0,0,1,0,3.44,2.32,2.32,0,0,0-.65,2.42,2.32,2.32,0,0,1-1.71,3,2.29,2.29,0,0,0-1.77,1.77,2.32,2.32,0,0,1-3,1.71,2.33,2.33,0,0,0-2.42.65,2.33,2.33,0,0,1-3.44,0,2.32,2.32,0,0,0-2.42-.65,2.32,2.32,0,0,1-3-1.71,2.29,2.29,0,0,0-1.77-1.77,2.32,2.32,0,0,1-1.71-3,2.33,2.33,0,0,0-.65-2.42,2.33,2.33,0,0,1,0-3.44,2.32,2.32,0,0,0,.65-2.42,2.32,2.32,0,0,1,1.71-3,2.29,2.29,0,0,0,1.77-1.77,2.32,2.32,0,0,1,3-1.71,2.33,2.33,0,0,0,2.42-.65A2.33,2.33,0,0,1,35.72,1.76Z"/><path class="cls-2" d="M44.59,17.14a2.33,2.33,0,0,1-1.71,3,2.31,2.31,0,0,0-1.77,1.75C31,26.63,20.37,16,25.14,5.89a2.31,2.31,0,0,0,1.75-1.77A2.33,2.33,0,0,1,29.15,2.3c.66,0,.79.22,1.41.22C32.31,2.52,32.25,1,34,1a2.34,2.34,0,0,1,1.72.76,2.33,2.33,0,0,0,2.42.65,2.33,2.33,0,0,1,3,1.71,2.3,2.3,0,0,0,1.77,1.77A2.33,2.33,0,0,1,44.7,8.15c0,.66-.22.79-.22,1.41C44.48,11.32,46,11.24,46,13,46,14.92,43.92,14.93,44.59,17.14Z"/><path class="cls-3" d="M29,19a1,1,0,0,1-.71-1.71l10-10a1,1,0,0,1,1.42,1.42C28.88,19.53,29.6,19,29,19Z"/><path class="cls-4" d="M33,9a2,2,0,1,1-2.82-1.82A2,2,0,0,1,33,9Z"/><path class="cls-3" d="M32.82,9.82a2,2,0,0,1-2.64-2.64A2,2,0,0,1,32.82,9.82Z"/><path class="cls-4" d="M39,17a2,2,0,1,1-2.82-1.82A2,2,0,0,1,39,17Z"/><path class="cls-3" d="M38.82,17.82a2,2,0,0,1-2.64-2.64A2,2,0,0,1,38.82,17.82Z"/><path class="cls-5" d="M39.68,44.68A6.21,6.21,0,0,1,35.21,47,31.83,31.83,0,0,1,2,15.18c0-3.33.6-4.14,2.32-5.86l8.49,8.49c-1.13,1.13-2.28,1.9-1.89,3.31a24.12,24.12,0,0,0,2.49,6.26A22.6,22.6,0,0,0,27,37.84c2.21.61,2.09.44,4.18-1.65Z"/><path class="cls-6" d="M39.68,44.68a4,4,0,0,1-1.47.29A31.83,31.83,0,0,1,5,13.18a9,9,0,0,1,.29-2.89l7.52,7.52c-1.13,1.13-2.28,1.9-1.89,3.31,2.46,8.92,7.9,14.46,17,17,1.37.38,2-.6,3.31-1.89Z"/><path class="cls-5" d="M42.3,41.06c.11,1.19-.58,1.58-2.62,3.62l-8.49-8.49,2.05-2a2,2,0,0,1,2.83,0C42.23,40.3,42.26,40.1,42.3,41.06Z"/><path class="cls-6" d="M42.3,41.06a2.31,2.31,0,0,1-3.24,0l-6.37-6.37.55-.55a2,2,0,0,1,2.83,0C42.23,40.3,42.26,40.1,42.3,41.06Z"/><path class="cls-5" d="M15.42,14.2c.13,1.17-.56,1.56-2.61,3.61L4.32,9.32,6.37,7.27a2,2,0,0,1,2.83,0C15.34,13.41,15.38,13.21,15.42,14.2Z"/><path class="cls-6" d="M15.42,14.2a2.3,2.3,0,0,1-3.22,0L5.82,7.82l.55-.55a2,2,0,0,1,2.83,0C15.34,13.41,15.38,13.21,15.42,14.2Z"/></g></svg>