<svg xmlns="http://www.w3.org/2000/svg" viewBox="0 0 48 48"><defs><style>.cls-1{fill:#dad7e5;}.cls-2{fill:#6fabe6;}.cls-3{fill:#82bcf4;}.cls-4{fill:#5b9ad8;}.cls-5{fill:#374f68;}.cls-6{fill:#425b72;}.cls-7{fill:#edebf2;}</style></defs><title>sale sign board</title><g id="sale_sign_board" data-name="sale sign board"><path class="cls-1" d="M6,22a1,1,0,0,1-.64-1.77L21.06,7.15a1,1,0,0,1,1.28,1.54C5.27,22.91,6.52,22,6,22Z"/><path class="cls-1" d="M42,22c-.52,0,.81,1-16.34-13.31a1,1,0,0,1,1.28-1.54l15.7,13.08A1,1,0,0,1,42,22Z"/><rect class="cls-2" x="1" y="21" width="46" height="24"/><path class="cls-3" d="M47,21V43H7a4,4,0,0,1-3.44-2C2.77,39.72,3,40.15,3,21Z"/><path class="cls-4" d="M6.29,27.71,1,22.42V21H2.42l5.29,5.29A1,1,0,0,1,6.29,27.71Z"/><path class="cls-2" d="M6.29,27.71,3,24.42V21.58l4.71,4.71A1,1,0,0,1,6.29,27.71Z"/><path class="cls-2" d="M47,21v1.42l-5.29,5.29a1,1,0,0,1-1.42-1.42L45.58,21Z"/><path class="cls-4" d="M7.71,39.71,2.42,45H1V43.58l5.29-5.29A1,1,0,0,1,7.71,39.71Z"/><path class="cls-4" d="M47,43.58V45H45.58l-4.29-4.29a1,1,0,0,1,1.42-1.42Z"/><path class="cls-5" d="M27,6a3,3,0,1,1-3.87-2.87A3,3,0,0,1,27,6Z"/><path class="cls-6" d="M26.87,6.87a3,3,0,0,1-3.74-3.74A3,3,0,0,1,26.87,6.87Z"/><path class="cls-2" d="M7.71,39.71,5,42.44A3.72,3.72,0,0,1,3.56,41l2.73-2.73A1,1,0,0,1,7.71,39.71Z"/><path class="cls-2" d="M46.42,43H43.58l-2.29-2.29a1,1,0,0,1,1.42-1.42Z"/><rect class="cls-1" x="5" y="25" width="38" height="16"/><path class="cls-7" d="M43,25V39H10a3,3,0,0,1-3-3V25Z"/><path class="cls-4" d="M13,30h2a1,1,0,0,0,0-2H13a3,3,0,0,0,0,6,1,1,0,0,1,0,2H11a1,1,0,0,0,0,2h2a3,3,0,0,0,0-6A1,1,0,0,1,13,30Z"/><path class="cls-4" d="M21.94,28.65a1,1,0,0,0-1.88,0l-3,8a1,1,0,0,0,1.88.7l.5-1.35h3.12l.5,1.35a1,1,0,0,0,1.88-.7ZM20.19,34,21,31.85,21.81,34Z"/><path class="cls-4" d="M30,36H28V29a1,1,0,0,0-2,0v8a1,1,0,0,0,1,1h3A1,1,0,0,0,30,36Z"/><path class="cls-4" d="M37,34a1,1,0,0,0,0-2H34V30h3a1,1,0,0,0,0-2H33a1,1,0,0,0-1,1v8a1,1,0,0,0,1,1h4a1,1,0,0,0,0-2H34V34Z"/></g></svg>