<svg xmlns="http://www.w3.org/2000/svg" viewBox="0 0 48 48"><defs><style>.cls-1{fill:#dad7e5;}.cls-2{fill:#edebf2;}.cls-3{fill:#7c7d7d;}.cls-4{fill:#919191;}.cls-5{fill:#ffde76;}.cls-6{fill:#fc6;}</style></defs><title>stopwatch discount</title><g id="stopwatch_discount" data-name="stopwatch discount"><rect class="cls-1" x="17" y="1" width="14" height="4" rx="1"/><path class="cls-2" d="M31,2V3H20a1,1,0,0,1-1-1V1H30A1,1,0,0,1,31,2Z"/><rect class="cls-1" x="21" y="5" width="6" height="4.24"/><path class="cls-2" d="M27,5V7.24H25.24A2.24,2.24,0,0,1,23,5h4Z"/><path class="cls-3" d="M43,28A19,19,0,0,1,24,47C6.34,47-1.65,25,11.61,13.61,23.77,3.1,43,11.68,43,28Z"/><path class="cls-4" d="M43,28a18.9,18.9,0,0,1-4.61,12.39A18.9,18.9,0,0,1,26,45C9.66,45,1.1,25.76,11.61,13.61,23.77,3.1,43,11.68,43,28Z"/><path class="cls-1" d="M38,28c0,11.92-14.1,18.46-23.16,10.58C5.44,30.66,10.53,14.92,23,14A14,14,0,0,1,38,28Z"/><path class="cls-2" d="M38,28a13.88,13.88,0,0,1-3.16,8.84A14,14,0,0,1,15.16,17.16,14,14,0,0,1,38,28Z"/><path class="cls-5" d="M19,34a1,1,0,0,1-.71-1.71l10-10a1,1,0,0,1,1.42,1.42C18.88,34.53,19.6,34,19,34Z"/><path class="cls-6" d="M23,24a2,2,0,1,1-2.82-1.82A2,2,0,0,1,23,24Z"/><path class="cls-5" d="M22.82,24.82a2,2,0,0,1-2.64-2.64A2,2,0,0,1,22.82,24.82Z"/><path class="cls-6" d="M29,32a2,2,0,1,1-2.82-1.82A2,2,0,0,1,29,32Z"/><path class="cls-5" d="M28.82,32.82a2,2,0,0,1-2.64-2.64A2,2,0,0,1,28.82,32.82Z"/><path class="cls-4" d="M25,14v2a1,1,0,0,1-2,0V14A13.35,13.35,0,0,1,25,14Z"/><path class="cls-4" d="M14.81,20.22l-1.39-1.38a13.58,13.58,0,0,1,1.43-1.41l1.37,1.38A1,1,0,0,1,14.81,20.22Z"/><path class="cls-4" d="M12,29H10a13.35,13.35,0,0,1,0-2h2A1,1,0,0,1,12,29Z"/><path class="cls-4" d="M16.22,37.19l-1.38,1.39a11.9,11.9,0,0,1-1.42-1.42l1.39-1.38A1,1,0,0,1,16.22,37.19Z"/><path class="cls-4" d="M25,40v2a13.35,13.35,0,0,1-2,0V40A1,1,0,0,1,25,40Z"/><path class="cls-4" d="M34.57,37.15a13.58,13.58,0,0,1-1.41,1.43l-1.38-1.39a1,1,0,0,1,1.41-1.41Z"/><path class="cls-4" d="M38,29H36a1,1,0,0,1,0-2h2A13.35,13.35,0,0,1,38,29Z"/><path class="cls-4" d="M34.58,18.84c-1.5,1.49-1.56,1.67-2.09,1.67a1,1,0,0,1-.71-1.7l1.38-1.39A11.9,11.9,0,0,1,34.58,18.84Z"/><path class="cls-1" d="M35.14,12.61,36.73,11a2,2,0,0,1,2.83,0L41,12.44a2,2,0,0,1,0,2.83l-1.58,1.59Z"/><path class="cls-1" d="M41,15.27l-1.58,1.59-4.25-4.25L36.73,11a2,2,0,0,1,2.83,0L41,12.44A2,2,0,0,1,41,15.27Z"/><path class="cls-2" d="M41.28,12.86a2.22,2.22,0,0,1-3.47.41l-1.67-1.66.59-.58a2,2,0,0,1,2.84,0C41.09,12.56,41.15,12.59,41.28,12.86Z"/></g></svg>