<svg xmlns="http://www.w3.org/2000/svg" viewBox="0 0 48 48"><defs><style>.cls-1{fill:#7c7d7d;}.cls-2{fill:#919191;}.cls-3{fill:#374f68;}.cls-4{fill:#425b72;}.cls-5{fill:#edebf2;}.cls-6{fill:#dad7e5;}.cls-7{fill:#df8761;}.cls-8{fill:#f29b75;}.cls-9{fill:#fc6;}.cls-10{fill:#ffde76;}.cls-11{fill:#ffdec7;}</style></defs><title>trolly boxes</title><g id="trolly_boxes" data-name="trolly boxes"><path class="cls-1" d="M13,4H9A1,1,0,0,1,9,2h4A1,1,0,0,1,13,4Z"/><path class="cls-1" d="M17,4V35.35H13V2h2A2,2,0,0,1,17,4Z"/><path class="cls-2" d="M17,4c0,30.51-.1,29.35,0,29.35a2,2,0,0,1-2-2V2A2,2,0,0,1,17,4Z"/><path class="cls-1" d="M47,39a2,2,0,0,1-2,2H21l-1.54-4H45A2,2,0,0,1,47,39Z"/><path class="cls-2" d="M47,39H25a2,2,0,0,1-2-2c0-.1-.93,0,22,0A2,2,0,0,1,47,39Z"/><path class="cls-3" d="M45,44a3,3,0,1,1-3.87-2.87A3,3,0,0,1,45,44Z"/><path class="cls-4" d="M44.87,44.87a3,3,0,0,1-3.74-3.74A3,3,0,0,1,44.87,44.87Z"/><path class="cls-5" d="M41,44a1,1,0,0,1,2,0A1,1,0,0,1,41,44Z"/><path class="cls-3" d="M21,41a6,6,0,1,1-9.12-5.12A6,6,0,0,1,21,41Z"/><path class="cls-4" d="M20.12,44.12c-5.3,3.26-11.53-2.9-8.24-8.24C17.2,32.6,23.39,38.81,20.12,44.12Z"/><path class="cls-6" d="M17,41a2,2,0,1,1-2.82-1.82A2,2,0,0,1,17,41Z"/><path class="cls-5" d="M16.82,41.82a2,2,0,0,1-2.64-2.64A2,2,0,0,1,16.82,41.82Z"/><rect class="cls-7" x="22" y="21" width="20" height="16"/><path class="cls-8" d="M42,21V35H27a3,3,0,0,1-3-3V21Z"/><rect class="cls-7" x="24" y="9" width="16" height="12"/><path class="cls-8" d="M40,9V19H29a3,3,0,0,1-3-3V9Z"/><polygon class="cls-9" points="36 21 36 27 32 25.8 28 27 28 21 36 21"/><polygon class="cls-10" points="36 21 36 25 32 23.8 30 24.4 30 21 36 21"/><polygon class="cls-9" points="35 9 35 14 32 12.75 29 14 29 9 35 9"/><polygon class="cls-10" points="35 9 35 12 32 10.75 31 11.17 31 9 35 9"/><path class="cls-11" d="M28,34H26a1,1,0,0,1,0-2h2A1,1,0,0,1,28,34Z"/><path class="cls-3" d="M8,5H3A2,2,0,0,1,3,1H8A1,1,0,0,1,9,2V4A1,1,0,0,1,8,5Z"/><path class="cls-4" d="M9,2V3H4A2,2,0,0,1,2,1.26C2.61.91,2.51,1,8,1A1,1,0,0,1,9,2Z"/></g></svg>