<svg xmlns="http://www.w3.org/2000/svg" viewBox="0 0 48 48"><defs><style>.cls-1{fill:#db5669;}.cls-2{fill:#f26674;}.cls-3{fill:#6fabe6;}.cls-4{fill:#82bcf4;}.cls-5{fill:#dad7e5;}.cls-6{fill:#edebf2;}.cls-7{fill:#ffde76;}.cls-8{fill:#fc6;}</style></defs><title>megaphone marketing</title><g id="megaphone_marketing" data-name="megaphone marketing"><path class="cls-1" d="M45.83,14.45a1.93,1.93,0,0,1-1.43,2.47,1.94,1.94,0,0,0-1.48,1.48,1.93,1.93,0,0,1-2.47,1.43,1.93,1.93,0,0,0-2,.54,1.94,1.94,0,0,1-2.86,0,2,2,0,0,0-2-.54,1.93,1.93,0,0,1-2.47-1.43,1.93,1.93,0,0,0-1.48-1.48A1.94,1.94,0,0,1,28.08,15c0-.51.18-.64.18-1.17C28.26,12.4,27,12.46,27,11s1.26-1.4,1.26-2.86c0-.53-.18-.65-.18-1.17A1.94,1.94,0,0,1,29.6,5.08,1.93,1.93,0,0,0,31.08,3.6,1.94,1.94,0,0,1,33,2.08c.52,0,.64.18,1.17.18C35.6,2.26,35.54,1,37,1s1.64,1.75,3.45,1.17A1.94,1.94,0,0,1,42.92,3.6,1.93,1.93,0,0,0,44.4,5.08,1.94,1.94,0,0,1,45.92,7c0,.52-.18.64-.18,1.17C45.74,9.6,47,9.54,47,11S45.26,12.64,45.83,14.45Z"/><path class="cls-2" d="M45.83,14.45a1.93,1.93,0,0,1-1.43,2.47A1.93,1.93,0,0,0,43,18.16C34.7,21.83,26.19,13.25,29.84,5A1.93,1.93,0,0,0,31.08,3.6,1.94,1.94,0,0,1,33,2.08c.52,0,.64.18,1.17.18C35.6,2.26,35.54,1,37,1s1.64,1.75,3.45,1.17A1.94,1.94,0,0,1,42.92,3.6,1.93,1.93,0,0,0,44.4,5.08,1.94,1.94,0,0,1,45.92,7c0,.52-.18.64-.18,1.17C45.74,9.6,47,9.54,47,11S45.26,12.64,45.83,14.45Z"/><path class="cls-3" d="M17.73,36.3l-7.07,7.07a4,4,0,0,1-5.66,0C2.53,40.91.41,39.52,1.13,36.72c.37-1.44.48-1.27,8.11-8.9Z"/><path class="cls-4" d="M16.51,35.3l-6,6.07a3.89,3.89,0,0,1-5.58,0c-2.79-2.81-3.47-3.25-3.82-4.65.38-1.51.63-1.43,8-8.9Z"/><path class="cls-3" d="M33.45,28.05a3,3,0,0,1-4.83,2.14c-.31-.25.7.74-13-13a3,3,0,0,1,2.12-5.12c1.69,0,1.1-.14,14.85,13.61A3,3,0,0,1,33.45,28.05Z"/><path class="cls-4" d="M33,28.05a2.93,2.93,0,0,1-4.06-.11c-8.88-9-12.64-12.81-12.79-13a3,3,0,0,1-.61-2.07,2.92,2.92,0,0,1,2-.76c1.65,0,.75-.48,14.64,13.61A3,3,0,0,1,33,28.05Z"/><path class="cls-5" d="M28.62,30.19A23.07,23.07,0,0,0,17.73,36.3L9.24,27.82a23,23,0,0,0,6.12-10.9C15.49,17.11,28.23,29.88,28.62,30.19Z"/><path class="cls-6" d="M27,28.63A23.38,23.38,0,0,0,20.37,32a4,4,0,0,1-5.26-.34l-4.9-4.9a23,23,0,0,0,5.15-9.87C15.49,17.11,14.7,16.29,27,28.63Z"/><path class="cls-3" d="M5.71,38A1,1,0,0,1,5,36.3l2.83-2.82a1,1,0,0,1,1.41,1.41C6.17,38,6.26,38,5.71,38Z"/><path class="cls-3" d="M8.54,40.84a1,1,0,0,1-.71-1.71l2.83-2.83a1,1,0,0,1,1.41,1.42C9,40.79,9.09,40.84,8.54,40.84Z"/><path class="cls-3" d="M18.72,46.7l-7.59-3.8,4.24-4.24c6.09,3.05,6.79,3.11,7.29,4.52A2.84,2.84,0,0,1,18.72,46.7Z"/><path class="cls-4" d="M22.36,43.18a2.82,2.82,0,0,1-3.89,1.52L12.3,41.57l2.87-2.91C21.3,41.78,21.87,41.78,22.36,43.18Z"/><path class="cls-7" d="M33,16a1,1,0,0,1-.71-1.71l8-8a1,1,0,0,1,1.42,1.42C33.07,16.34,33.59,16,33,16Z"/><path class="cls-8" d="M36,8a2,2,0,1,1-2.82-1.82A2,2,0,0,1,36,8Z"/><path class="cls-7" d="M35.82,8.82a2,2,0,0,1-2.64-2.64A2,2,0,0,1,35.82,8.82Z"/><path class="cls-8" d="M42,14a2,2,0,1,1-2.82-1.82A2,2,0,0,1,42,14Z"/><path class="cls-7" d="M41.82,14.82a2,2,0,0,1-2.64-2.64A2,2,0,0,1,41.82,14.82Z"/></g></svg>