<svg xmlns="http://www.w3.org/2000/svg" viewBox="0 0 48 48"><defs><style>.cls-1{fill:#dad7e5;}.cls-2{fill:#edebf2;}.cls-3{fill:#7c7d7d;}.cls-4{fill:#c6c3d8;}.cls-5{fill:#6fabe6;}.cls-6{fill:#82bcf4;}.cls-7{fill:#db5669;}.cls-8{fill:#f26674;}.cls-9{fill:#374f68;}.cls-10{fill:#425b72;}</style></defs><title>shooping cart</title><g id="shooping_cart" data-name="shooping cart"><path class="cls-1" d="M47,15c-3,17.29-2.52,14.24-3,17H16L13.65,13.22Z"/><path class="cls-2" d="M47,15,44.35,30H21.53a4,4,0,0,1-4-3.5L15.92,13.34Z"/><path class="cls-3" d="M44,39c-30.2,0-28.4.21-28.83-.45A6.39,6.39,0,0,1,15,31.77L12.23,9.88a1,1,0,0,0-1-.88H9A1,1,0,0,1,9,7h2.23a3,3,0,0,1,3,2.63c3,24.29,2.92,22.48,2.62,22.92A4.41,4.41,0,0,0,16.57,37H44A1,1,0,0,1,44,39Z"/><path class="cls-4" d="M29,27V19a1,1,0,0,1,2,0v8A1,1,0,0,1,29,27Z"/><path class="cls-4" d="M35,26.88l1-8a1,1,0,0,1,2,.24l-1,8A1,1,0,0,1,35,26.88Z"/><path class="cls-4" d="M23,27.12l-1-8a1,1,0,0,1,2-.24l1,8A1,1,0,0,1,23,27.12Z"/><path class="cls-5" d="M38.75,14.56,31,14.15V9A5,5,0,0,1,38.75,14.56Z"/><path class="cls-6" d="M39,12.57l-4.08-.22a2,2,0,0,1-1.89-2V8.1A5,5,0,0,1,39,12.57Z"/><path class="cls-7" d="M31,4V14.15l-10-.54V4Z"/><path class="cls-8" d="M31,4v8l-5.16-.28a3,3,0,0,1-2.84-3V4Z"/><path class="cls-9" d="M9,7V9a1,1,0,0,1-1,1H3A2,2,0,0,1,2,6.26C2.61,5.91,2.51,6,8,6A1,1,0,0,1,9,7Z"/><path class="cls-10" d="M9,7V8H4A2,2,0,0,1,2,6.26C2.61,5.91,2.51,6,8,6A1,1,0,0,1,9,7Z"/><path class="cls-9" d="M20,41a3,3,0,1,1-3.87-2.87A3,3,0,0,1,20,41Z"/><circle class="cls-9" cx="40" cy="41" r="3"/><path class="cls-10" d="M19.87,41.87a3,3,0,0,1-3.74-3.74A3,3,0,0,1,19.87,41.87Z"/><path class="cls-10" d="M42.87,41.87a3,3,0,0,1-3.74-3.74A3,3,0,0,1,42.87,41.87Z"/><path class="cls-2" d="M16.29,40.29a1,1,0,0,1,1.42,1.42A1,1,0,0,1,16.29,40.29Z"/><path class="cls-2" d="M39.29,40.29a1,1,0,0,1,1.42,1.42A1,1,0,0,1,39.29,40.29Z"/><path class="cls-3" d="M17,31H43a1,1,0,0,1,0,2H17A1,1,0,0,1,17,31Z"/></g></svg>