<svg xmlns="http://www.w3.org/2000/svg" viewBox="0 0 48 48"><defs><style>.cls-1{fill:#6fabe6;}.cls-2{fill:#db5669;}.cls-3{fill:#f26674;}.cls-4{fill:#edebf2;}.cls-5{fill:#82bcf4;}</style></defs><title>24 hours</title><g id="_24_hours" data-name="24 hours"><path class="cls-1" d="M23,43V41a1,1,0,0,1,2,0v2A1,1,0,0,1,23,43Z"/><path class="cls-1" d="M23,7V5a1,1,0,0,1,2,0V7A1,1,0,0,1,23,7Z"/><path class="cls-1" d="M7,25H5a1,1,0,0,1,0-2H7A1,1,0,0,1,7,25Z"/><path class="cls-2" d="M34.59,28.14a2.33,2.33,0,0,1-1.71,3,2.32,2.32,0,0,0-1.77,1.77,2.32,2.32,0,0,1-3,1.71,2.32,2.32,0,0,0-2.42.65,2.33,2.33,0,0,1-3.44,0,2.32,2.32,0,0,0-2.42-.65,2.33,2.33,0,0,1-3-1.71,2.3,2.3,0,0,0-1.77-1.77,2.33,2.33,0,0,1-1.82-2.26c0-.65.22-.79.22-1.41C13.52,25.69,12,25.75,12,24s1.52-1.68,1.52-3.44c0-.62-.22-.76-.22-1.41a2.33,2.33,0,0,1,1.84-2.26,2.31,2.31,0,0,0,1.75-1.77,2.33,2.33,0,0,1,2.26-1.82c.66,0,.79.22,1.41.22C22.31,13.52,22.25,12,24,12a2.34,2.34,0,0,1,1.72.76,2.33,2.33,0,0,0,2.42.65,2.33,2.33,0,0,1,3,1.71,2.3,2.3,0,0,0,1.77,1.77,2.33,2.33,0,0,1,1.82,2.26c0,.66-.22.79-.22,1.41C34.48,22.32,36,22.24,36,24,36,25.92,33.92,25.93,34.59,28.14Z"/><path class="cls-3" d="M34.59,28.14a2.33,2.33,0,0,1-1.71,3,2.31,2.31,0,0,0-1.77,1.75c-10.14,4.77-20.74-5.84-16-16a2.31,2.31,0,0,0,1.75-1.77,2.33,2.33,0,0,1,2.26-1.82c.66,0,.79.22,1.41.22C22.31,13.52,22.25,12,24,12a2.34,2.34,0,0,1,1.72.76,2.33,2.33,0,0,0,2.42.65,2.33,2.33,0,0,1,3,1.71,2.3,2.3,0,0,0,1.77,1.77,2.33,2.33,0,0,1,1.82,2.26c0,.66-.22.79-.22,1.41C34.48,22.32,36,22.24,36,24,36,25.92,33.92,25.93,34.59,28.14Z"/><path class="cls-4" d="M22,29H18a1,1,0,0,1-1-1V24a1,1,0,0,1,1-1h3V21H18a1,1,0,0,1,0-2h4a1,1,0,0,1,1,1v4a1,1,0,0,1-1,1H19v2h3A1,1,0,0,1,22,29Z"/><path class="cls-4" d="M30,25H26a1,1,0,0,1-1-1V20a1,1,0,0,1,2,0v3h3A1,1,0,0,1,30,25Z"/><path class="cls-4" d="M29,28V20a1,1,0,0,1,2,0v8A1,1,0,0,1,29,28Z"/><path class="cls-1" d="M47,24A23,23,0,0,1,1,24C1,4.86,23-5.67,37.89,5.67L39.52,4,41,11.43,33.61,10,35,8.54C22.64-.34,5,8.46,5,24a19,19,0,0,0,38,0Z"/><path class="cls-5" d="M47,24a22.83,22.83,0,0,1-5.78,15.22A22.83,22.83,0,0,1,26,45C6.15,45-4.25,21.44,8.78,6.78A23,23,0,0,1,37.89,5.67L39.52,4c1.36,6.78.42,2.1,1.48,7.39L33.61,10,35,8.54C22.61-.36,5,8.49,5,24,5,41.52,26.93,49.72,38.39,36.39A18.92,18.92,0,0,0,43,24Z"/></g></svg>