<svg xmlns="http://www.w3.org/2000/svg" viewBox="0 0 48 48"><defs><style>.cls-1{fill:#6fabe6;}.cls-2{fill:#82bcf4;}.cls-3{fill:#f6ccaf;}.cls-4{fill:#ffdec7;}.cls-5{fill:#df8761;}.cls-6{fill:#f29b75;}.cls-7{fill:#fc6;}.cls-8{fill:#ffde76;}.cls-9{fill:#cc734c;}.cls-10{fill:#edb996;}</style></defs><title>hand receive package</title><g id="hand_receive_package" data-name="hand receive package"><rect class="cls-1" x="1" y="22" width="6" height="17"/><path class="cls-2" d="M7,22c0,15.75-.1,15,0,15a4,4,0,0,1-4-4V22Z"/><path class="cls-3" d="M47,30a3,3,0,0,1-1.63,2.67C27.74,41.68,28.11,42,24.17,42c-2.86,0-4-.83-12-4.46C10.7,36.86,9.68,37,7,37V24c9.53-1.19,6.49-1.67,21.28,5.28a3,3,0,0,1,.48,5.14l13.87-7.09A3,3,0,0,1,47,30Z"/><path class="cls-4" d="M46.82,29c-.53,1.55-.32,1.09-17.55,9.9a10.21,10.21,0,0,1-5.1,1.1c-2.86,0-4-.83-12-4.46A5.82,5.82,0,0,0,10,35a1,1,0,0,1-1-1V23.75c7.17-.89,5.14-1.11,19.28,5.53a3,3,0,0,1,1.17,4.43c-.45.71-1.38,1.07.2.25,13.89-7.09,13-6.67,13.35-6.78A3,3,0,0,1,46.82,29Z"/><path class="cls-5" d="M43,6c0,23.43.17,21.06-.37,21.33L28.76,34.42a3,3,0,0,0-.48-5.14C16.8,23.89,16.77,23.74,15,23.44V6Z"/><path class="cls-6" d="M43,6V25.11c-.89.16-.85.22-11.19,5.51a5,5,0,0,0-2.68-3.15c-14.58-6.85-10-4.72-10.93-5.13A2,2,0,0,1,17,20.51V6Z"/><polygon class="cls-7" points="33 6 33 12 29 10 25 12 25 6 33 6"/><polygon class="cls-8" points="33 6 33 10 29 8 27 9 27 6 33 6"/><path class="cls-9" d="M39,25H35a1,1,0,0,1,0-2h4A1,1,0,0,1,39,25Z"/><path class="cls-10" d="M25.29,35.61,17.4,31.9a1,1,0,0,1,.86-1.8l7.89,3.71c1.69.79,2.29-1.11,3.3-.1-.45.71-1.38,1.07.2.25C30.43,35.48,27.26,36.56,25.29,35.61Z"/></g></svg>