<svg xmlns="http://www.w3.org/2000/svg" viewBox="0 0 48 48"><defs><style>.cls-1{fill:#7c7d7d;}.cls-2{fill:#919191;}.cls-3{fill:#9fdbf3;}.cls-4{fill:#b2e5fb;}.cls-5{fill:#edebf2;}.cls-6{fill:#db5669;}.cls-7{fill:#f26674;}.cls-8{fill:#ffde76;}.cls-9{fill:#fc6;}</style></defs><title>smartphone discount</title><g id="smartphone_discount" data-name="smartphone discount"><path class="cls-1" d="M34,4V6H26.75L26,7H16l-.75-1H8V4a3,3,0,0,1,2-2.82C10.66.92,9.2,1,31,1A3,3,0,0,1,34,4Z"/><path class="cls-2" d="M34,4H12a2,2,0,0,1-2-2V1.18C10.66.92,9.2,1,31,1A3,3,0,0,1,34,4Z"/><path class="cls-1" d="M34,41c0,2.87.06,3.24-.13,3.87A3,3,0,0,1,31,47H11a3,3,0,0,1-3-3V41Z"/><path class="cls-2" d="M34,41c0,2.87.06,3.24-.13,3.87-.62.18,1,.13-20.87.13a3,3,0,0,1-3-3V41Z"/><polygon class="cls-3" points="34 6 34 41 8 41 8 6 15.25 6 16 7 26 7 26.75 6 34 6"/><path class="cls-4" d="M34,6V39H16a6,6,0,0,1-6-6V6h5.25L16,7H26l.75-1Z"/><path class="cls-5" d="M23,5H19a1,1,0,0,1,0-2h4A1,1,0,0,1,23,5Z"/><path class="cls-6" d="M29.72,12.76a2.32,2.32,0,0,0,2.42.65,2.32,2.32,0,0,1,3,1.71,2.29,2.29,0,0,0,1.77,1.77,2.32,2.32,0,0,1,1.71,3,2.33,2.33,0,0,0,.65,2.42,2.33,2.33,0,0,1,0,3.44,2.32,2.32,0,0,0-.65,2.42,2.32,2.32,0,0,1-1.71,3,2.29,2.29,0,0,0-1.77,1.77,2.32,2.32,0,0,1-3,1.71,2.33,2.33,0,0,0-2.42.65,2.33,2.33,0,0,1-3.44,0,2.32,2.32,0,0,0-2.42-.65,2.32,2.32,0,0,1-3-1.71,2.29,2.29,0,0,0-1.77-1.77,2.32,2.32,0,0,1-1.71-3,2.33,2.33,0,0,0-.65-2.42,2.33,2.33,0,0,1,0-3.44,2.32,2.32,0,0,0,.65-2.42,2.32,2.32,0,0,1,1.71-3,2.29,2.29,0,0,0,1.77-1.77,2.32,2.32,0,0,1,3-1.71,2.33,2.33,0,0,0,2.42-.65A2.33,2.33,0,0,1,29.72,12.76Z"/><path class="cls-7" d="M38.59,28.14a2.33,2.33,0,0,1-1.71,3,2.31,2.31,0,0,0-1.77,1.75c-10.14,4.77-20.74-5.84-16-16a2.31,2.31,0,0,0,1.75-1.77,2.33,2.33,0,0,1,2.26-1.82c.66,0,.79.22,1.41.22C26.31,13.52,26.25,12,28,12a2.34,2.34,0,0,1,1.72.76,2.33,2.33,0,0,0,2.42.65,2.33,2.33,0,0,1,3,1.71,2.3,2.3,0,0,0,1.77,1.77,2.33,2.33,0,0,1,1.82,2.26c0,.66-.22.79-.22,1.41C38.48,22.32,40,22.24,40,24,40,25.92,37.92,25.93,38.59,28.14Z"/><path class="cls-8" d="M23,30a1,1,0,0,1-.71-1.71l10-10a1,1,0,0,1,1.42,1.42C22.88,30.53,23.6,30,23,30Z"/><path class="cls-9" d="M27,20a2,2,0,1,1-2.82-1.82A2,2,0,0,1,27,20Z"/><path class="cls-8" d="M26.82,20.82a2,2,0,0,1-2.64-2.64A2,2,0,0,1,26.82,20.82Z"/><path class="cls-9" d="M33,28a2,2,0,1,1-2.82-1.82A2,2,0,0,1,33,28Z"/><path class="cls-8" d="M32.82,28.82a2,2,0,0,1-2.64-2.64A2,2,0,0,1,32.82,28.82Z"/></g></svg>