<svg xmlns="http://www.w3.org/2000/svg" viewBox="0 0 48 48"><defs><style>.cls-1{fill:#6fabe6;}.cls-2{fill:#82bcf4;}.cls-3{fill:#5b9ad8;}.cls-4{fill:#db5669;}.cls-5{fill:#f26674;}.cls-6{fill:#425b72;}.cls-7{fill:#ffde76;}</style></defs><title>price tag discount</title><g id="price_tag_discount" data-name="price tag discount"><path class="cls-1" d="M39,20V47H21V20l9-5Z"/><path class="cls-2" d="M39,20V45H27a4,4,0,0,1-4-4V18.89L30,15Z"/><path class="cls-3" d="M32,21a2,2,0,1,1-2.82-1.82A2,2,0,0,1,32,21Z"/><path class="cls-1" d="M31.82,21.82a2,2,0,0,1-2.64-2.64A2,2,0,0,1,31.82,21.82Z"/><path class="cls-4" d="M28.26,16,21,20V45.56L9,42.34l7-26.08,10-2.5Z"/><path class="cls-5" d="M28.26,16,21,20V42.76l-6.11-1.64a3,3,0,0,1-2.11-3.68L18.63,15.6,26,13.76Z"/><path class="cls-6" d="M37.27,15.74c-2,3.17-5.42,5.78-6.4,5.78a1,1,0,0,1-.47-1.88c7-3.71,9.83-14.28,5.58-17S23.39,6.88,22.82,14.55l-2,.5c-.2-.59.28-4.44,2.68-8.18C26.62,2,32.72-1.89,37.06.93,40.92,3.41,41,9.92,37.27,15.74Z"/><path class="cls-7" d="M25,41a1,1,0,0,1-.71-1.71l10-10a1,1,0,0,1,1.42,1.42C24.88,41.53,25.6,41,25,41Z"/><path class="cls-7" d="M27,34a3,3,0,1,0-3-3A3,3,0,0,0,27,34Zm0-4a1,1,0,0,1,0,2A1,1,0,0,1,27,30Z"/><path class="cls-7" d="M33,36a3,3,0,1,0,3,3A3,3,0,0,0,33,36Zm0,4a1,1,0,0,1,0-2A1,1,0,0,1,33,40Z"/></g></svg>