<svg xmlns="http://www.w3.org/2000/svg" viewBox="0 0 48 48"><defs><style>.cls-1{fill:#919191;}.cls-2{fill:#374f68;}.cls-3{fill:#425b72;}.cls-4{fill:#dad7e5;}.cls-5{fill:#edebf2;}.cls-6{fill:#ffba55;}.cls-7{fill:#fc6;}.cls-8{fill:#7c7d7d;}.cls-9{fill:#ffde76;}.cls-10{fill:#9fdbf3;}.cls-11{fill:#b2e5fb;}.cls-12{fill:#df8761;}.cls-13{fill:#f29b75;}</style></defs><title>delivery motorcyle</title><g id="delivery_motorcyle" data-name="delivery motorcyle"><path class="cls-1" d="M31,13H27a1,1,0,0,1,0-2h4A1,1,0,0,1,31,13Z"/><path class="cls-2" d="M15,34a6,6,0,1,1-9.12-5.12A6,6,0,0,1,15,34Z"/><path class="cls-3" d="M14.12,37.12c-5.3,3.26-11.53-2.9-8.24-8.24C11.2,25.6,17.39,31.81,14.12,37.12Z"/><path class="cls-4" d="M11,34a2,2,0,1,1-2.82-1.82A2,2,0,0,1,11,34Z"/><path class="cls-5" d="M10.82,34.82a2,2,0,0,1-2.64-2.64A2,2,0,0,1,10.82,34.82Z"/><path class="cls-2" d="M47,34a6,6,0,1,1-9.12-5.12A6,6,0,0,1,47,34Z"/><path class="cls-3" d="M46.12,37.12c-5.3,3.26-11.53-2.9-8.24-8.24C43.2,25.6,49.39,31.81,46.12,37.12Z"/><path class="cls-4" d="M43,34a2,2,0,1,1-2.82-1.82A2,2,0,0,1,43,34Z"/><path class="cls-5" d="M42.82,34.82a2,2,0,0,1-2.64-2.64A2,2,0,0,1,42.82,34.82Z"/><path class="cls-6" d="M47,30.5c-1.16.67-.17.5-5.2.5-3.07,0-2.53,3-5.6,3H33.94C33.94,26.84,43.48,24.33,47,30.5Z"/><path class="cls-7" d="M45.84,29c-2.09,0-3.58-.28-4.9,1.58A3.37,3.37,0,0,1,38.2,32a1.88,1.88,0,0,1-1.79-2.52,6.83,6.83,0,0,1,.67-1.32A7,7,0,0,1,45.84,29Z"/><path class="cls-8" d="M22.4,21.4c-.83.81-1.14.6-7.4.6V17.5l6.07.38A2.07,2.07,0,0,1,22.4,21.4Z"/><path class="cls-1" d="M23,20H19.37A2.37,2.37,0,0,1,17,17.63l4.07.25A2.07,2.07,0,0,1,23,20Z"/><path class="cls-6" d="M38,9v4a1,1,0,0,1-1,1H32a1,1,0,0,1-1-1,5,5,0,0,1,2.61-4.39A6,6,0,0,1,37,8,1,1,0,0,1,38,9Z"/><path class="cls-7" d="M38,9v3H34c-1.46,0-1.06-2.16-.39-3.39A6,6,0,0,1,37,8,1,1,0,0,1,38,9Z"/><path class="cls-7" d="M40.21,27a7,7,0,0,0-6.27,7H19a4.39,4.39,0,0,0-4.16-3H2.12a1,1,0,0,1-1-1.11l.39-3.44a5,5,0,0,1,5-4.45H21l2,8h8a15.06,15.06,0,0,0,1.51-14.86L32,14h4C38.19,18.37,40,21.44,40.21,27Z"/><path class="cls-9" d="M40.21,27a7,7,0,0,0-6,5H21a4.39,4.39,0,0,0-4.16-3H4.12a1,1,0,0,1-1-1.11c.37-3.3.34-4.11,1-5.28C5.59,21.78,5,22,21,22l2,8h8a15.09,15.09,0,0,0,1.51-14.86L32,14h4C38.11,18.22,40.1,21.59,40.21,27Z"/><path class="cls-10" d="M42,11a2.35,2.35,0,0,1-2.34,2.34A6.42,6.42,0,0,1,38,13V9l1-.25A2.35,2.35,0,0,1,42,11Z"/><path class="cls-11" d="M41.74,12.07c-1,.5-1.67.19-2.74-.07,0-3.61,0-3.24.09-3.27A2.34,2.34,0,0,1,41.74,12.07Z"/><path class="cls-6" d="M11,28H7a1,1,0,0,1,0-2h4A1,1,0,0,1,11,28Z"/><rect class="cls-12" x="1" y="10" width="14" height="12"/><path class="cls-13" d="M15,10V20H6a3,3,0,0,1-3-3V10Z"/><polygon class="cls-7" points="10 10 10 15 8 14 6 15 6 10 10 10"/><path class="cls-9" d="M10,10v3a3,3,0,0,1-3-3Z"/></g></svg>