<svg xmlns="http://www.w3.org/2000/svg" viewBox="0 0 48 48"><defs><style>.cls-1{fill:#db5669;}.cls-2{fill:#f26674;}.cls-3{fill:#edebf2;}</style></defs><title>big sale</title><g id="big_sale" data-name="big sale"><path class="cls-1" d="M47,38l-17.3-.41L24,44l-5.95-6.69L5,37,1,8c3.52-.31-5.66.52,44-4C47.14,40.41,46.83,35,47,38Z"/><path class="cls-2" d="M46.88,36,10.4,35.08a4,4,0,0,1-3.86-3.45L3.25,7.8,45,4Z"/><path class="cls-3" d="M13,25h2a1,1,0,0,0,0-2H13a3,3,0,0,0,0,6,1,1,0,0,1,0,2H11a1,1,0,0,0,0,2h2a3,3,0,0,0,0-6A1,1,0,0,1,13,25Z"/><path class="cls-3" d="M21.94,23.65a1,1,0,0,0-1.88,0l-3,8a1,1,0,0,0,1.88.7l.5-1.35h3.12l.5,1.35a1,1,0,0,0,1.88-.7ZM20.19,29,21,26.85,21.81,29Z"/><path class="cls-3" d="M30,31H28V24a1,1,0,0,0-2,0v8a1,1,0,0,0,1,1h3A1,1,0,0,0,30,31Z"/><path class="cls-3" d="M37,29a1,1,0,0,0,0-2H34V25h3a1,1,0,0,0,0-2H33a1,1,0,0,0-1,1v8a1,1,0,0,0,1,1h4a1,1,0,0,0,0-2H34V29Z"/><path class="cls-3" d="M20.22,16A3,3,0,0,0,18,11H16a1,1,0,0,0-1,1v8a1,1,0,0,0,1,1h2A3,3,0,0,0,20.22,16ZM17,13h1a1,1,0,0,1,0,2H17Zm0,4h1a1,1,0,0,1,0,2H17Z"/><path class="cls-3" d="M23,12v8a1,1,0,0,0,2,0V12A1,1,0,0,0,23,12Z"/><path class="cls-3" d="M34,18V17a1,1,0,0,0-1-1H31a1,1,0,0,0,0,2h1a1,1,0,0,1-1,1H30a1,1,0,0,1-1-1V14a1,1,0,0,1,1-1h1a1,1,0,0,1,1,1,1,1,0,0,0,1,1c1.91,0,1-4-2-4H30a3,3,0,0,0-3,3v4a3,3,0,0,0,3,3h1A3,3,0,0,0,34,18Z"/></g></svg>