<svg xmlns="http://www.w3.org/2000/svg" viewBox="0 0 48 48"><defs><style>.cls-1{fill:#7c7d7d;}.cls-2{fill:#919191;}.cls-3{fill:#9fdbf3;}.cls-4{fill:#b2e5fb;}.cls-5{fill:#dad7e5;}.cls-6{fill:#edebf2;}.cls-7{fill:#db5669;}.cls-8{fill:#f26674;}.cls-9{fill:#fc6;}.cls-10{fill:#ffde76;}.cls-11{fill:#425b72;}</style></defs><title>computer onlineshop</title><g id="computer_onlineshop" data-name="computer onlineshop"><path class="cls-1" d="M43,36v3a2,2,0,0,1-2,2H7a2,2,0,0,1-2-2V36Z"/><path class="cls-2" d="M43,36v3H9a2,2,0,0,1-2-2V36Z"/><rect class="cls-3" x="5" y="9.82" width="38" height="26.18"/><path class="cls-4" d="M43,9.82V34H11a4,4,0,0,1-4-4V9.82Z"/><path class="cls-5" d="M21,22l-2,6H13l-1.33-6Z"/><path class="cls-6" d="M21,22l-1.33,4H16.6a2,2,0,0,1-2-1.57L14.11,22Z"/><path class="cls-7" d="M9,10a7.5,7.5,0,0,1,0,1.24A3,3,0,0,1,3,11V10Z"/><path class="cls-8" d="M9,10a7.5,7.5,0,0,1,0,1.24A3,3,0,0,1,4.18,10Z"/><path class="cls-9" d="M12,14a3,3,0,0,1-3-3V10h6v1A3,3,0,0,1,12,14Z"/><path class="cls-7" d="M18,14a3,3,0,0,1-3-3V10h6v1A3,3,0,0,1,18,14Z"/><path class="cls-9" d="M24,14a3,3,0,0,1-3-3V10h6v1A3,3,0,0,1,24,14Z"/><path class="cls-7" d="M30,14a3,3,0,0,1-3-3V10h6v1A3,3,0,0,1,30,14Z"/><path class="cls-9" d="M36,14a3,3,0,0,1-3-3V10h6v1A3,3,0,0,1,36,14Z"/><path class="cls-7" d="M42,14a3,3,0,0,1-3-3V10h6v1A3,3,0,0,1,42,14Z"/><path class="cls-7" d="M10,5c-.69,3.45-.55,2.73-1,5H3L5,5Z"/><path class="cls-8" d="M10,5,9.4,8H6.48a1,1,0,0,1-.93-1.37L6.2,5Z"/><path class="cls-9" d="M16,5c-.69,3.45-.55,2.73-1,5H9l1-5Z"/><path class="cls-10" d="M16,5l-.6,3H12.22a1,1,0,0,1-1-1.2L11.6,5Z"/><polygon class="cls-7" points="21 5 21 10 15 10 16 5 21 5"/><path class="cls-8" d="M21,5V8H18.22a1,1,0,0,1-1-1.2L17.6,5Z"/><rect class="cls-9" x="21" y="5" width="6" height="5"/><path class="cls-10" d="M27,5V8H23a1,1,0,0,1-1-1V5Z"/><path class="cls-7" d="M33,10H27V5h5C32.69,8.45,32.55,7.73,33,10Z"/><path class="cls-8" d="M32.6,8H29a1,1,0,0,1-1-1V5h4Z"/><path class="cls-9" d="M39,10H33L32,5h6C38.69,8.45,38.55,7.73,39,10Z"/><path class="cls-10" d="M38.6,8H34.82a1,1,0,0,1-1-.8L33.4,5H38Z"/><path class="cls-7" d="M45,10H39L38,5h5Z"/><path class="cls-8" d="M44.2,8H40.82a1,1,0,0,1-1-.8L39.4,5H43Z"/><rect class="cls-5" x="5" y="1" width="38" height="4"/><path class="cls-6" d="M43,1V3H9A2,2,0,0,1,7,1Z"/><path class="cls-1" d="M29,47H19l2-6h6Z"/><path class="cls-2" d="M28.33,45H25.22a3,3,0,0,1-2.89-4H27Z"/><path class="cls-1" d="M31,48H17a1,1,0,0,1,0-2H31A1,1,0,0,1,31,48Z"/><path class="cls-11" d="M38,20H26a1,1,0,0,1,0-2H38A1,1,0,0,1,38,20Z"/><path class="cls-11" d="M34,24H26a1,1,0,0,1,0-2h8A1,1,0,0,1,34,24Z"/><rect class="cls-7" x="26" y="27" width="12" height="4"/><path class="cls-8" d="M38,27v2H30a2,2,0,0,1-2-2Z"/><path class="cls-10" d="M15,10a7.5,7.5,0,0,1,0,1.24A3,3,0,0,1,10.18,10Z"/><path class="cls-8" d="M21,10a7.5,7.5,0,0,1,0,1.24A3,3,0,0,1,16.18,10Z"/><path class="cls-10" d="M27,10a7.5,7.5,0,0,1,0,1.24A3,3,0,0,1,22.18,10Z"/><path class="cls-8" d="M33,10a7.5,7.5,0,0,1,0,1.24A3,3,0,0,1,28.18,10Z"/><path class="cls-10" d="M39,10a7.5,7.5,0,0,1,0,1.24A3,3,0,0,1,34.18,10Z"/><path class="cls-8" d="M45,10a7.5,7.5,0,0,1,0,1.24A3,3,0,0,1,40.18,10Z"/><path class="cls-11" d="M14.71,30.29A1,1,0,1,0,14,32,1,1,0,0,0,14.71,30.29Z"/><path class="cls-11" d="M18.71,30.29A1,1,0,1,0,18,32,1,1,0,0,0,18.71,30.29Z"/><path class="cls-11" d="M21.81,21.42c-.41-.58-.26-.42-9.34-.42-.76-3.43-.3-3-3.47-3a1,1,0,0,0,0,2h1.2c1.9,8.56,1.8,8.34,2,8.63A1,1,0,0,0,13,29c6.18,0,6.64.23,7-.68C22.08,21.92,22.22,22,21.81,21.42ZM19.61,23l-1.33,4H13.8l-.89-4Z"/></g></svg>