<svg xmlns="http://www.w3.org/2000/svg" viewBox="0 0 48 48"><defs><style>.cls-1{fill:#9dcc6b;}.cls-2{fill:#b5e08c;}.cls-3{fill:#db5669;}.cls-4{fill:#f26674;}.cls-5{fill:#dad7e5;}.cls-6{fill:#edebf2;}.cls-7{fill:#ffba55;}</style></defs><title>place holder discount</title><g id="place_holder_discount" data-name="place holder discount"><path class="cls-1" d="M24,47C10.05,47,4.58,36.45,16.67,32.19H31.33C43.41,36.42,38,47,24,47Z"/><path class="cls-2" d="M37,41.92C34.47,43.8,30.48,45,26,45c-9.72,0-16.7-5.62-13-10.93a14.19,14.19,0,0,1,3.69-1.88H31.33C36.27,33.92,39.86,37.88,37,41.92Z"/><path class="cls-3" d="M39,16c0,8.62-8.15,18-15,23C24,39,9,28,9,16A14.93,14.93,0,0,1,14.43,4.46l0,0C24.11-3.55,39,3.24,39,16Z"/><path class="cls-4" d="M39,16c0,7.81-6.66,16.35-13,21,0,0-15-11-15-23,0-5.2,3-9.36,3.46-9.57C24.11-3.55,39,3.24,39,16Z"/><path class="cls-5" d="M35,16A11,11,0,0,1,24,27C13.56,27,9,13.66,17.29,7.29A11,11,0,0,1,35,16Z"/><path class="cls-6" d="M35,16a10.88,10.88,0,0,1-2.29,6.71A10.88,10.88,0,0,1,26,25,11,11,0,0,1,17.29,7.29,11,11,0,0,1,35,16Z"/><path class="cls-7" d="M19,22a1,1,0,0,1-.71-1.71l10-10a1,1,0,0,1,1.42,1.42C18.88,22.53,19.6,22,19,22Z"/><path class="cls-7" d="M21,15a3,3,0,1,0-3-3A3,3,0,0,0,21,15Zm0-4a1,1,0,0,1,0,2A1,1,0,0,1,21,11Z"/><path class="cls-7" d="M27,17a3,3,0,1,0,3,3A3,3,0,0,0,27,17Zm0,4a1,1,0,0,1,0-2A1,1,0,0,1,27,21Z"/></g></svg>