<svg xmlns="http://www.w3.org/2000/svg" viewBox="0 0 48 48"><defs><style>.cls-1{fill:#a07765;}.cls-2{fill:#a87e6b;}.cls-3{fill:#9dcc6b;}.cls-4{fill:#b5e08c;}.cls-5{fill:#84b749;}.cls-6{fill:#be927c;}.cls-7{fill:#f6ccaf;}.cls-8{fill:#ffdec7;}.cls-9{fill:#edb996;}</style></defs><title>wallet</title><g id="wallet"><path class="cls-1" d="M43,22c0,24,.08,22.33-.18,23A3,3,0,0,1,40,47H34a3,3,0,0,0,3-3V22a3,3,0,0,0-3-3h6A3,3,0,0,1,43,22Z"/><path class="cls-2" d="M43,22c0,24,.08,22.33-.18,23H38.9a4.85,4.85,0,0,0,.1-1c0-24.09.35-23.24-1-25h2A3,3,0,0,1,43,22Z"/><path class="cls-3" d="M37,7,29.92,19.25A2.1,2.1,0,0,0,29,19V2.38Z"/><path class="cls-4" d="M37,7c-2.33,4-4.09,7.09-6,10.38V3.53Z"/><path class="cls-3" d="M29,1c0,19.42,0,18-.09,18H13V1Z"/><path class="cls-4" d="M29,1V17H18a3,3,0,0,1-3-3V1Z"/><path class="cls-3" d="M29,4V6a5,5,0,0,1-5-5h2A3,3,0,0,0,29,4Z"/><path class="cls-5" d="M18,1a5,5,0,0,1-5,5V4a3,3,0,0,0,3-3Z"/><path class="cls-3" d="M18,1a5,5,0,0,1-3,4.59V3.23A3,3,0,0,0,16,1Z"/><path class="cls-3" d="M35.5,9.6l-1,1.73A5,5,0,0,1,32.67,4.5l1.73,1A3,3,0,0,0,35.5,9.6Z"/><path class="cls-5" d="M20.08,6.62a1,1,0,0,1,1.84.76A1,1,0,0,1,20.08,6.62Z"/><path class="cls-5" d="M23.64,19H18.36a4,4,0,1,1,5.28,0Z"/><path class="cls-3" d="M24.64,17.64a4,4,0,0,1-5.28-5.28A4,4,0,0,1,24.64,17.64Z"/><path class="cls-2" d="M37,22c0,24,.06,22.24-.13,22.87A3,3,0,0,1,34,47H8a3,3,0,0,1-3-3V22a3,3,0,0,1,3-3H34A3,3,0,0,1,37,22Z"/><path class="cls-6" d="M37,22c0,24,.06,22.24-.13,22.87-.7.21-22,.13-21.87.13a8,8,0,0,1-8-8c0-18.54-.06-17.24.13-17.87.69-.2,27-.13,26.87-.13A3,3,0,0,1,37,22Z"/><path class="cls-7" d="M43,29v8H31a4,4,0,0,1-2.83-6.83A4.07,4.07,0,0,1,31,29Z"/><path class="cls-8" d="M43,29v6H33a4,4,0,0,1-3.64-5.64C30.43,28.87,30.16,29,43,29Z"/><path class="cls-9" d="M31,34a1,1,0,1,1,1-1A1,1,0,0,1,31,34Z"/></g></svg>