<svg xmlns="http://www.w3.org/2000/svg" viewBox="0 0 48 48"><defs><style>.cls-1{fill:#dad7e5;}.cls-2{fill:#edebf2;}.cls-3{fill:#ffde76;}.cls-4{fill:#c6c3d8;}.cls-5{fill:#db5669;}.cls-6{fill:#f26674;}.cls-7{fill:#fc6;}</style></defs><title>bill</title><g id="bill"><path class="cls-1" d="M39,1a4,4,0,0,0-4,4V47l-5-2-5,2-5-2-5,2-5-2L5,47V5A4,4,0,0,1,9,1Z"/><path class="cls-2" d="M39,1a4,4,0,0,0-4,4V43l-22.09-.32a6,6,0,0,1-5.91-6V1.54C8.33.77,6.52,1,39,1Z"/><path class="cls-3" d="M19,11V9a1,1,0,0,1,2,0v2A1,1,0,0,1,19,11Z"/><path class="cls-3" d="M19,23V21a1,1,0,0,1,2,0v2A1,1,0,0,1,19,23Z"/><path class="cls-3" d="M21,22H19a3,3,0,0,1-3-3,1,1,0,0,1,2,0,1,1,0,0,0,1,1h2a1,1,0,0,0,1-1V18a1,1,0,0,0-1-1H19a3,3,0,0,1-3-3V13a3,3,0,0,1,3-3h2c3,0,3.92,4,2,4a1,1,0,0,1-1-1,1,1,0,0,0-1-1H19a1,1,0,0,0-1,1v1a1,1,0,0,0,1,1h2a3,3,0,0,1,3,3v1A3,3,0,0,1,21,22Z"/><path class="cls-4" d="M43,5V9H35c0-3.71-.33-5.31,1.17-6.83A4,4,0,0,1,43,5Z"/><path class="cls-4" d="M43,5V9H35c0-3.71-.33-5.31,1.17-6.83A4,4,0,0,1,43,5Z"/><path class="cls-1" d="M43,5.19V7H41a4,4,0,0,1-3.64-5.64A4,4,0,0,1,43,5.19Z"/><path class="cls-4" d="M21,34H11a1,1,0,0,1,0-2H21A1,1,0,0,1,21,34Z"/><path class="cls-4" d="M21,39H11a1,1,0,0,1,0-2H21A1,1,0,0,1,21,39Z"/><path class="cls-4" d="M21,29H11a1,1,0,0,1,0-2H21A1,1,0,0,1,21,29Z"/><path class="cls-5" d="M40,33.64a1.59,1.59,0,0,0-.43,1.62,1.54,1.54,0,0,1-1.14,2,1.56,1.56,0,0,0-1.18,1.18,1.54,1.54,0,0,1-2,1.14,1.59,1.59,0,0,0-1.62.43,1.53,1.53,0,0,1-2.28,0,1.59,1.59,0,0,0-1.62-.43,1.54,1.54,0,0,1-2-1.14,1.55,1.55,0,0,0-1.18-1.18,1.55,1.55,0,0,1-1.22-1.51c0-.34.15-.53.15-.94,0-1.19-1-1.13-1-2.29s1-1.11,1-2.29c0-.39-.15-.59-.15-.94a1.55,1.55,0,0,1,1.22-1.51,1.56,1.56,0,0,0,1.18-1.18,1.55,1.55,0,0,1,1.51-1.22c.34,0,.53.15.94.15,1.19,0,1.13-1,2.29-1s1.3,1.39,2.76.94a1.54,1.54,0,0,1,2,1.14,1.55,1.55,0,0,0,1.18,1.18,1.55,1.55,0,0,1,1.22,1.51c0,.34-.15.53-.15.94,0,1.18,1,1.13,1,2.29A1.51,1.51,0,0,1,40,33.64Z"/><path class="cls-6" d="M40,33.64a1.59,1.59,0,0,0-.43,1.62,1.54,1.54,0,0,1-1.14,2,1.51,1.51,0,0,0-1,.7A8,8,0,0,1,27.06,27.56a1.51,1.51,0,0,0,.7-1,1.55,1.55,0,0,1,1.51-1.22c.34,0,.53.15.94.15,1.19,0,1.13-1,2.29-1s1.3,1.39,2.76.94a1.54,1.54,0,0,1,2,1.14,1.55,1.55,0,0,0,1.18,1.18,1.55,1.55,0,0,1,1.22,1.51c0,.34-.15.53-.15.94,0,1.18,1,1.13,1,2.29A1.51,1.51,0,0,1,40,33.64Z"/><path class="cls-3" d="M30,36a1,1,0,0,1-.71-1.71l5-5a1,1,0,0,1,1.42,1.42C30.47,35.94,30.59,36,30,36Z"/><path class="cls-7" d="M32,29.5a1.5,1.5,0,1,1-1.93-1.43A1.49,1.49,0,0,1,32,29.5Z"/><path class="cls-3" d="M31.93,29.93a1.49,1.49,0,0,1-1.86-1.86A1.49,1.49,0,0,1,31.93,29.93Z"/><path class="cls-7" d="M36,35.5a1.5,1.5,0,1,1-1.93-1.43A1.49,1.49,0,0,1,36,35.5Z"/><path class="cls-3" d="M35.93,35.93a1.49,1.49,0,0,1-1.86-1.86A1.49,1.49,0,0,1,35.93,35.93Z"/></g></svg>