<svg xmlns="http://www.w3.org/2000/svg" xmlns:xlink="http://www.w3.org/1999/xlink" viewBox="0 0 48 48"><defs><style>.cls-1{fill:#ffb369;}.cls-2{fill:url(#linear-gradient);}.cls-3{fill:url(#linear-gradient-2);}.cls-4{fill:url(#linear-gradient-3);}.cls-5{fill:url(#linear-gradient-4);}.cls-6{fill:url(#linear-gradient-5);}.cls-7{fill:url(#linear-gradient-6);}.cls-8{fill:url(#linear-gradient-7);}</style><linearGradient id="linear-gradient" x1="7" y1="18" x2="41" y2="18" gradientUnits="userSpaceOnUse"><stop offset="0" stop-color="#54a5ff"/><stop offset="1" stop-color="#8ad3fe"/></linearGradient><linearGradient id="linear-gradient-2" x1="9" y1="28" x2="39" y2="28" gradientUnits="userSpaceOnUse"><stop offset="0" stop-color="#d3e6f5"/><stop offset="1" stop-color="#f0f7fc"/></linearGradient><linearGradient id="linear-gradient-3" x1="17" y1="37" x2="31" y2="37" xlink:href="#linear-gradient"/><linearGradient id="linear-gradient-4" x1="20" y1="43" x2="28" y2="43" xlink:href="#linear-gradient-2"/><linearGradient id="linear-gradient-5" x1="22" y1="3" x2="26" y2="3" xlink:href="#linear-gradient"/><linearGradient id="linear-gradient-6" x1="34" y1="7" x2="38" y2="7" xlink:href="#linear-gradient"/><linearGradient id="linear-gradient-7" x1="12" y1="9" x2="16" y2="9" xlink:href="#linear-gradient"/></defs><title>Data Filter</title><g id="Data_Filter" data-name="Data Filter"><path class="cls-1" d="M15,15V14a1,1,0,0,1,2,0v1A1,1,0,0,1,15,15Z"/><path class="cls-1" d="M23,15V5a1,1,0,0,1,2,0V15A1,1,0,0,1,23,15Z"/><path class="cls-1" d="M27,15V9a3,3,0,0,1,3-3h4a1,1,0,0,1,0,2H30a1,1,0,0,0-1,1v6A1,1,0,0,1,27,15Z"/><path class="cls-1" d="M19,15V11a1,1,0,0,0-1-1H16a1,1,0,0,1,0-2h2a3,3,0,0,1,3,3v4A1,1,0,0,1,19,15Z"/><path class="cls-1" d="M31,15V12a1,1,0,0,1,2,0v3A1,1,0,0,1,31,15Z"/><rect class="cls-2" x="7" y="15" width="34" height="6" rx="2"/><polygon class="cls-3" points="39 21 29 35 19 35 9 21 39 21"/><path class="cls-4" d="M31,37a2,2,0,0,1-2,2H19a2,2,0,0,1,0-4H29A2,2,0,0,1,31,37Z"/><polygon class="cls-5" points="28 39 28 47 20 43 20 39 28 39"/><circle class="cls-6" cx="24" cy="3" r="2"/><circle class="cls-7" cx="36" cy="7" r="2"/><circle class="cls-8" cx="14" cy="9" r="2"/></g></svg>