<svg xmlns="http://www.w3.org/2000/svg" xmlns:xlink="http://www.w3.org/1999/xlink" viewBox="0 0 48 48"><defs><style>.cls-1{fill:url(#linear-gradient);}.cls-2{fill:#ffb369;}.cls-3{fill:url(#linear-gradient-2);}.cls-4{fill:url(#linear-gradient-3);}.cls-5{fill:url(#linear-gradient-4);}.cls-6{fill:#8ad3fe;}.cls-7{fill:url(#linear-gradient-5);}.cls-8{fill:url(#linear-gradient-6);}.cls-9{fill:url(#linear-gradient-7);}</style><linearGradient id="linear-gradient" x1="3" y1="28" x2="45" y2="28" gradientUnits="userSpaceOnUse"><stop offset="0" stop-color="#d3e6f5"/><stop offset="1" stop-color="#f0f7fc"/></linearGradient><linearGradient id="linear-gradient-2" x1="12" y1="7" x2="16" y2="7" gradientUnits="userSpaceOnUse"><stop offset="0" stop-color="#54a5ff"/><stop offset="1" stop-color="#8ad3fe"/></linearGradient><linearGradient id="linear-gradient-3" x1="22" y1="3" x2="26" y2="3" xlink:href="#linear-gradient-2"/><linearGradient id="linear-gradient-4" x1="33" y1="6" x2="37" y2="6" xlink:href="#linear-gradient-2"/><linearGradient id="linear-gradient-5" x1="1" y1="44" x2="47" y2="44" xlink:href="#linear-gradient-2"/><linearGradient id="linear-gradient-6" x1="13" y1="20" x2="35" y2="20" xlink:href="#linear-gradient-2"/><linearGradient id="linear-gradient-7" x1="18.01" y1="31" x2="29.99" y2="31" xlink:href="#linear-gradient-2"/></defs><title>Data Process</title><g id="Data_Process" data-name="Data Process"><path class="cls-1" d="M45,15V41H29l-1,2H20l-1-2H3V15a2,2,0,0,1,2-2H43A2,2,0,0,1,45,15Z"/><path class="cls-2" d="M18,18V8H16a1,1,0,0,1,0-2h2a2,2,0,0,1,2,2V18A1,1,0,0,1,18,18Z"/><path class="cls-2" d="M28,18V7a2,2,0,0,1,2-2h3a1,1,0,0,1,0,2H30V18A1,1,0,0,1,28,18Z"/><path class="cls-2" d="M23,18V5a1,1,0,0,1,2,0V18A1,1,0,0,1,23,18Z"/><circle class="cls-3" cx="14" cy="7" r="2"/><circle class="cls-4" cx="24" cy="3" r="2"/><circle class="cls-5" cx="35" cy="6" r="2"/><polygon class="cls-6" points="27 31 27 37 21 35 21 31 27 31"/><path class="cls-7" d="M47,41v2a4,4,0,0,1-4,4H5a4,4,0,0,1-4-4V41H19l1,2h8l1-2Z"/><rect class="cls-8" x="13" y="18" width="22" height="4" rx="1"/><polygon class="cls-6" points="33 22 27 31 21 31 15 22 33 22"/><path class="cls-9" d="M29,32H19a1,1,0,0,1,0-2H29A1,1,0,0,1,29,32Z"/></g></svg>