<svg xmlns="http://www.w3.org/2000/svg" xmlns:xlink="http://www.w3.org/1999/xlink" viewBox="0 0 48 48"><defs><style>.cls-1{fill:url(#linear-gradient);}.cls-2{fill:url(#linear-gradient-2);}.cls-3{fill:#54a5ff;}.cls-4{fill:url(#linear-gradient-3);}.cls-5{fill:url(#linear-gradient-4);}.cls-6{fill:url(#linear-gradient-5);}.cls-7{fill:url(#linear-gradient-6);}.cls-8{fill:url(#linear-gradient-7);}.cls-9{fill:url(#linear-gradient-8);}.cls-10{fill:url(#linear-gradient-9);}.cls-11{fill:url(#linear-gradient-10);}.cls-12{fill:url(#linear-gradient-11);}.cls-13{fill:url(#linear-gradient-12);}.cls-14{fill:url(#linear-gradient-13);}.cls-15{fill:url(#linear-gradient-14);}.cls-16{fill:url(#linear-gradient-15);}.cls-17{fill:url(#linear-gradient-16);}.cls-18{fill:url(#linear-gradient-17);}.cls-19{fill:url(#linear-gradient-18);}.cls-20{fill:#ffb369;}</style><linearGradient id="linear-gradient" x1="14" y1="5" x2="34" y2="5" gradientUnits="userSpaceOnUse"><stop offset="0" stop-color="#54a5ff"/><stop offset="1" stop-color="#8ad3fe"/></linearGradient><linearGradient id="linear-gradient-2" y1="17" y2="17" xlink:href="#linear-gradient"/><linearGradient id="linear-gradient-3" x1="17.01" y1="5" x2="20.99" y2="5" gradientUnits="userSpaceOnUse"><stop offset="0" stop-color="#d3e6f5"/><stop offset="1" stop-color="#f0f7fc"/></linearGradient><linearGradient id="linear-gradient-4" x1="17.01" y1="17" x2="20.99" y2="17" xlink:href="#linear-gradient-3"/><linearGradient id="linear-gradient-5" x1="29" x2="31" xlink:href="#linear-gradient-3"/><linearGradient id="linear-gradient-6" x1="29" y1="17" x2="31" y2="17" xlink:href="#linear-gradient-3"/><linearGradient id="linear-gradient-7" x1="1" y1="31" x2="21" y2="31" xlink:href="#linear-gradient"/><linearGradient id="linear-gradient-8" x1="1" y1="43" x2="21" y2="43" xlink:href="#linear-gradient"/><linearGradient id="linear-gradient-9" x1="4.01" y1="31" x2="7.99" y2="31" xlink:href="#linear-gradient-3"/><linearGradient id="linear-gradient-10" x1="4.01" y1="43" x2="7.99" y2="43" xlink:href="#linear-gradient-3"/><linearGradient id="linear-gradient-11" x1="16" y1="31" x2="18" y2="31" xlink:href="#linear-gradient-3"/><linearGradient id="linear-gradient-12" x1="16" y1="43" x2="18" y2="43" xlink:href="#linear-gradient-3"/><linearGradient id="linear-gradient-13" x1="27" y1="31" x2="47" y2="31" xlink:href="#linear-gradient"/><linearGradient id="linear-gradient-14" x1="27" y1="43" x2="47" y2="43" xlink:href="#linear-gradient"/><linearGradient id="linear-gradient-15" x1="30.01" y1="31" x2="33.99" y2="31" xlink:href="#linear-gradient-3"/><linearGradient id="linear-gradient-16" x1="30.01" y1="43" x2="33.99" y2="43" xlink:href="#linear-gradient-3"/><linearGradient id="linear-gradient-17" x1="42" y1="31" x2="44" y2="31" xlink:href="#linear-gradient-3"/><linearGradient id="linear-gradient-18" x1="42" y1="43" x2="44" y2="43" xlink:href="#linear-gradient-3"/></defs><title>Data Server</title><g id="Data_Server" data-name="Data Server"><rect class="cls-1" x="14" y="1" width="20" height="8" rx="1"/><rect class="cls-2" x="14" y="13" width="20" height="8" rx="1"/><rect class="cls-3" x="16" y="9" width="16" height="4"/><path class="cls-4" d="M20,6H18a1,1,0,0,1,0-2h2A1,1,0,0,1,20,6Z"/><path class="cls-5" d="M20,18H18a1,1,0,0,1,0-2h2A1,1,0,0,1,20,18Z"/><path class="cls-6" d="M31,5a1,1,0,0,0-2,0A1,1,0,0,0,31,5Z"/><path class="cls-7" d="M31,17a1,1,0,0,0-2,0A1,1,0,0,0,31,17Z"/><rect class="cls-8" x="1" y="27" width="20" height="8" rx="1"/><rect class="cls-9" x="1" y="39" width="20" height="8" rx="1"/><rect class="cls-3" x="3" y="35" width="16" height="4"/><path class="cls-10" d="M7,32H5a1,1,0,0,1,0-2H7A1,1,0,0,1,7,32Z"/><path class="cls-11" d="M7,44H5a1,1,0,0,1,0-2H7A1,1,0,0,1,7,44Z"/><path class="cls-12" d="M18,31a1,1,0,0,0-2,0A1,1,0,0,0,18,31Z"/><path class="cls-13" d="M18,43a1,1,0,0,0-2,0A1,1,0,0,0,18,43Z"/><rect class="cls-14" x="27" y="27" width="20" height="8" rx="1"/><rect class="cls-15" x="27" y="39" width="20" height="8" rx="1"/><rect class="cls-3" x="29" y="35" width="16" height="4"/><path class="cls-16" d="M33,32H31a1,1,0,0,1,0-2h2A1,1,0,0,1,33,32Z"/><path class="cls-17" d="M33,44H31a1,1,0,0,1,0-2h2A1,1,0,0,1,33,44Z"/><path class="cls-18" d="M44,31a1,1,0,0,0-2,0A1,1,0,0,0,44,31Z"/><path class="cls-19" d="M44,43a1,1,0,0,0-2,0A1,1,0,0,0,44,43Z"/><path class="cls-20" d="M45.92,20.62c-.28-.69-.85-.62-1.92-.62V11a7,7,0,0,0-7-7,1,1,0,0,0,0,2,5,5,0,0,1,5,5v9c-.94,0-1.62-.12-1.92.62s.29,1.16,2.21,3.09a1,1,0,0,0,1.42,0C45.58,21.84,46.27,21.44,45.92,20.62Z"/><path class="cls-20" d="M11,4a7,7,0,0,0-7,7v9c-.94,0-1.62-.12-1.92.62s.35,1.22,2.21,3.09a1,1,0,0,0,1.42,0c1.86-1.87,2.55-2.27,2.21-3.09S7.09,20,6,20V11a5,5,0,0,1,5-5A1,1,0,0,0,11,4Z"/></g></svg>