<svg xmlns="http://www.w3.org/2000/svg" xmlns:xlink="http://www.w3.org/1999/xlink" viewBox="0 0 48 48"><defs><style>.cls-1{fill:#d7e9f7;}.cls-2{fill:url(#linear-gradient);}.cls-3{fill:url(#linear-gradient-2);}.cls-4{fill:url(#linear-gradient-3);}.cls-5{fill:#54a5ff;}.cls-6{fill:url(#linear-gradient-4);}.cls-7{fill:url(#linear-gradient-5);}.cls-8{fill:url(#linear-gradient-6);}.cls-9{fill:url(#linear-gradient-7);}.cls-10{fill:url(#linear-gradient-8);}.cls-11{fill:url(#linear-gradient-9);}.cls-12{fill:url(#linear-gradient-10);}</style><linearGradient id="linear-gradient" x1="1" y1="15.01" x2="47" y2="15.01" gradientUnits="userSpaceOnUse"><stop offset="0" stop-color="#d3e6f5"/><stop offset="1" stop-color="#f0f7fc"/></linearGradient><linearGradient id="linear-gradient-2" x1="11" y1="23" x2="37" y2="23" gradientUnits="userSpaceOnUse"><stop offset="0" stop-color="#54a5ff"/><stop offset="1" stop-color="#8ad3fe"/></linearGradient><linearGradient id="linear-gradient-3" y1="35" y2="35" xlink:href="#linear-gradient-2"/><linearGradient id="linear-gradient-4" x1="14.01" y1="23" x2="17.99" y2="23" xlink:href="#linear-gradient"/><linearGradient id="linear-gradient-5" x1="14.01" y1="35" x2="17.99" y2="35" xlink:href="#linear-gradient"/><linearGradient id="linear-gradient-6" x1="22" y1="45" x2="26" y2="45" xlink:href="#linear-gradient-2"/><linearGradient id="linear-gradient-7" x1="1" y1="45" x2="5" y2="45" xlink:href="#linear-gradient-2"/><linearGradient id="linear-gradient-8" x1="43" y1="45" x2="47" y2="45" xlink:href="#linear-gradient-2"/><linearGradient id="linear-gradient-9" x1="32" y1="23" x2="34" y2="23" xlink:href="#linear-gradient"/><linearGradient id="linear-gradient-10" x1="32" y1="35" x2="34" y2="35" xlink:href="#linear-gradient"/></defs><title>Cloud Server</title><g id="Cloud_Server" data-name="Cloud Server"><path class="cls-1" d="M23,43V39a1,1,0,0,1,2,0v4A1,1,0,0,1,23,43Z"/><path class="cls-2" d="M47,23a6,6,0,0,1-6,6H11A10,10,0,0,1,1,19C1,13,6.38,8.56,11.35,9,17.06-3.08,34.91-1,37.69,12.06a4,4,0,0,1,3.18,5H41A6,6,0,0,1,47,23Z"/><rect class="cls-3" x="11" y="19" width="26" height="8" rx="1"/><rect class="cls-4" x="11" y="31" width="26" height="8" rx="1"/><rect class="cls-5" x="13" y="27" width="22" height="4"/><path class="cls-6" d="M17,24H15a1,1,0,0,1,0-2h2A1,1,0,0,1,17,24Z"/><path class="cls-7" d="M17,36H15a1,1,0,0,1,0-2h2A1,1,0,0,1,17,36Z"/><path class="cls-1" d="M22,46H5a1,1,0,0,1,0-2H22A1,1,0,0,1,22,46Z"/><path class="cls-1" d="M43,46H26a1,1,0,0,1,0-2H43A1,1,0,0,1,43,46Z"/><circle class="cls-8" cx="24" cy="45" r="2"/><circle class="cls-9" cx="3" cy="45" r="2"/><circle class="cls-10" cx="45" cy="45" r="2"/><path class="cls-11" d="M34,23a1,1,0,0,0-2,0A1,1,0,0,0,34,23Z"/><path class="cls-12" d="M34,35a1,1,0,0,0-2,0A1,1,0,0,0,34,35Z"/></g></svg>