<svg xmlns="http://www.w3.org/2000/svg" xmlns:xlink="http://www.w3.org/1999/xlink" viewBox="0 0 48 48"><defs><style>.cls-1{fill:#b4cde1;}.cls-2{fill:url(#linear-gradient);}.cls-3{fill:url(#linear-gradient-2);}.cls-4{fill:url(#linear-gradient-3);}.cls-5{fill:url(#linear-gradient-4);}.cls-6{fill:url(#linear-gradient-5);}.cls-7{fill:url(#linear-gradient-6);}.cls-8{fill:url(#linear-gradient-7);}.cls-9{fill:url(#linear-gradient-8);}.cls-10{fill:url(#linear-gradient-9);}</style><linearGradient id="linear-gradient" x1="12" y1="23.01" x2="35.99" y2="23.01" gradientUnits="userSpaceOnUse"><stop offset="0" stop-color="#d3e6f5"/><stop offset="1" stop-color="#f0f7fc"/></linearGradient><linearGradient id="linear-gradient-2" x1="21" y1="4" x2="27" y2="4" gradientUnits="userSpaceOnUse"><stop offset="0" stop-color="#54a5ff"/><stop offset="1" stop-color="#8ad3fe"/></linearGradient><linearGradient id="linear-gradient-3" x1="21" y1="44" y2="44" xlink:href="#linear-gradient-2"/><linearGradient id="linear-gradient-4" x1="41" y1="24" x2="47" y2="24" xlink:href="#linear-gradient-2"/><linearGradient id="linear-gradient-5" x1="1" y1="24" x2="7" y2="24" xlink:href="#linear-gradient-2"/><linearGradient id="linear-gradient-6" x1="35.14" y1="38.14" x2="41.14" y2="38.14" xlink:href="#linear-gradient-2"/><linearGradient id="linear-gradient-7" x1="6.86" y1="9.86" x2="12.86" y2="9.86" xlink:href="#linear-gradient-2"/><linearGradient id="linear-gradient-8" x1="35.14" y1="9.86" x2="41.14" y2="9.86" xlink:href="#linear-gradient-2"/><linearGradient id="linear-gradient-9" x1="6.86" y1="38.14" x2="12.86" y2="38.14" xlink:href="#linear-gradient-2"/></defs><title>Cloud Network</title><g id="Cloud_Network" data-name="Cloud Network"><path class="cls-1" d="M23,15V7a1,1,0,0,1,2,0v8A1,1,0,0,1,23,15Z"/><path class="cls-1" d="M23,41V31a1,1,0,0,1,2,0V41A1,1,0,0,1,23,41Z"/><path class="cls-1" d="M19,20c-.59,0-.17.24-7.71-7.29a1,1,0,0,1,1.42-1.42l7,7A1,1,0,0,1,19,20Z"/><path class="cls-1" d="M15,25H7a1,1,0,0,1,0-2h8A1,1,0,0,1,15,25Z"/><path class="cls-1" d="M12,37a1,1,0,0,1-.71-1.71l6.5-6.5a1,1,0,0,1,1.42,1.42C12.18,37.23,12.58,37,12,37Z"/><path class="cls-1" d="M29,20a1,1,0,0,1-.71-1.71l7-7a1,1,0,0,1,1.42,1.42C29.16,20.26,29.58,20,29,20Z"/><path class="cls-1" d="M41,25H32a1,1,0,0,1,0-2h9A1,1,0,0,1,41,25Z"/><path class="cls-1" d="M36,37c-.58,0-.15.26-7.21-6.79a1,1,0,0,1,1.42-1.42l6.5,6.5A1,1,0,0,1,36,37Z"/><path class="cls-2" d="M32,31H17a5,5,0,0,1-.77-9.93,8,8,0,0,1,15.22-1,2,2,0,0,1,2.06,3.22A4,4,0,0,1,32,31Z"/><circle class="cls-3" cx="24" cy="4" r="3"/><circle class="cls-4" cx="24" cy="44" r="3"/><circle class="cls-5" cx="44" cy="24" r="3"/><circle class="cls-6" cx="4" cy="24" r="3"/><circle class="cls-7" cx="38.14" cy="38.14" r="3"/><circle class="cls-8" cx="9.86" cy="9.86" r="3"/><circle class="cls-9" cx="38.14" cy="9.86" r="3"/><circle class="cls-10" cx="9.86" cy="38.14" r="3"/></g></svg>