<svg xmlns="http://www.w3.org/2000/svg" xmlns:xlink="http://www.w3.org/1999/xlink" viewBox="0 0 48 48"><defs><style>.cls-1{fill:url(#linear-gradient);}.cls-2{fill:#f0f7fc;}.cls-3{fill:#b4cde1;}.cls-4{fill:url(#linear-gradient-2);}.cls-5{fill:#d7e9f7;}.cls-6{fill:#8ad3fe;}</style><linearGradient id="linear-gradient" x1="15" y1="17" x2="47" y2="17" gradientUnits="userSpaceOnUse"><stop offset="0" stop-color="#54a5ff"/><stop offset="1" stop-color="#8ad3fe"/></linearGradient><linearGradient id="linear-gradient-2" x1="1" y1="37.65" x2="19.69" y2="37.65" xlink:href="#linear-gradient"/></defs><title>Audit</title><g id="Audit"><path class="cls-1" d="M42.31,28.31a16,16,0,1,1,0-22.62A16,16,0,0,1,42.31,28.31Z"/><circle class="cls-2" cx="31" cy="17" r="12"/><path class="cls-3" d="M21.19,29.64c-3,3-2.82,2.92-2.92,2.92l-2.82-2.83,2.91-2.92A16.84,16.84,0,0,0,21.19,29.64Z"/><path class="cls-4" d="M19.69,34,7.75,45.9a4,4,0,1,1-5.5-5.8L14,28.31C16.86,31.16,16.87,31.15,19.69,34Z"/><path class="cls-5" d="M39,17a8.9,8.9,0,0,1-16,0A8.9,8.9,0,0,1,39,17Z"/><circle class="cls-6" cx="31" cy="15" r="3"/></g></svg>