<svg xmlns="http://www.w3.org/2000/svg" xmlns:xlink="http://www.w3.org/1999/xlink" viewBox="0 0 48 48"><defs><style>.cls-1{fill:url(#linear-gradient);}.cls-2{fill:url(#linear-gradient-2);}.cls-3{fill:url(#linear-gradient-3);}.cls-4{fill:#b4cde1;}.cls-5{fill:url(#linear-gradient-4);}.cls-6{fill:#eb7f58;}</style><linearGradient id="linear-gradient" x1="26" y1="40" x2="46" y2="40" gradientUnits="userSpaceOnUse"><stop offset="0" stop-color="#fe9661"/><stop offset="1" stop-color="#ffb369"/></linearGradient><linearGradient id="linear-gradient-2" x1="2" y1="24" x2="38" y2="24" gradientUnits="userSpaceOnUse"><stop offset="0" stop-color="#d3e6f5"/><stop offset="1" stop-color="#f0f7fc"/></linearGradient><linearGradient id="linear-gradient-3" x1="28" y1="6" x2="38" y2="6" gradientUnits="userSpaceOnUse"><stop offset="0" stop-color="#54a5ff"/><stop offset="1" stop-color="#8ad3fe"/></linearGradient><linearGradient id="linear-gradient-4" x1="34" y1="41.23" x2="39.54" y2="41.23" xlink:href="#linear-gradient-2"/></defs><title>Generation Speed</title><g id="Generation_Speed" data-name="Generation Speed"><path class="cls-1" d="M46,43v4H26c0-3.87,0-4.18.05-5a10,10,0,0,1,20,1Z"/><path class="cls-2" d="M38,11V33.2A10,10,0,0,0,26,43v4H4a2,2,0,0,1-2-2V3A2,2,0,0,1,4,1H28V11Z"/><polygon class="cls-3" points="38 11 28 11 28 1 38 11"/><path class="cls-4" d="M7,21V15a1,1,0,0,1,2,0v6A1,1,0,0,1,7,21Z"/><path class="cls-4" d="M27,21V15a1,1,0,0,1,2,0v6A1,1,0,0,1,27,21Z"/><path class="cls-4" d="M31,21V15a1,1,0,0,1,2,0v6A1,1,0,0,1,31,21Z"/><path class="cls-4" d="M14,22a3,3,0,0,1-3-3V17a3,3,0,0,1,6,0v2A3,3,0,0,1,14,22Zm-1-5v2a1,1,0,0,0,2,0V17A1,1,0,0,0,13,17Z"/><path class="cls-4" d="M22,22a3,3,0,0,1-3-3V17a3,3,0,0,1,6,0v2A3,3,0,0,1,22,22Zm-1-5v2a1,1,0,0,0,2,0V17A1,1,0,0,0,21,17Z"/><path class="cls-4" d="M7,31V25a1,1,0,0,1,2,0v6A1,1,0,0,1,7,31Z"/><path class="cls-4" d="M11,31V25a1,1,0,0,1,2,0v6A1,1,0,0,1,11,31Z"/><path class="cls-4" d="M23,31V25a1,1,0,0,1,2,0v6A1,1,0,0,1,23,31Z"/><path class="cls-4" d="M30,32a3,3,0,0,1-3-3V27a3,3,0,0,1,6,0v2A3,3,0,0,1,30,32Zm-1-5v2a1,1,0,0,0,2,0V27A1,1,0,0,0,29,27Z"/><path class="cls-4" d="M18,32a3,3,0,0,1-3-3V27a3,3,0,0,1,6,0v2A3,3,0,0,1,18,32Zm-1-5v2a1,1,0,0,0,2,0V27A1,1,0,0,0,17,27Z"/><path class="cls-5" d="M37.41,43.41c.79-.78,2.13-4.95,2.13-4.95s-4.17,1.34-4.95,2.13a2,2,0,0,0,2.82,2.82Z"/><path class="cls-6" d="M37,33.05v2a1,1,0,0,1-2,0v-2A9.55,9.55,0,0,1,37,33.05Z"/><path class="cls-6" d="M28,44H26a19.45,19.45,0,0,1,.05-2H28A1,1,0,0,1,28,44Z"/><path class="cls-6" d="M46,44H44a1,1,0,0,1,0-2h2A19.18,19.18,0,0,1,46,44Z"/></g></svg>