<svg xmlns="http://www.w3.org/2000/svg" xmlns:xlink="http://www.w3.org/1999/xlink" viewBox="0 0 48 48"><defs><style>.cls-1{fill:#d7e9f7;}.cls-2{fill:url(#linear-gradient);}.cls-3{fill:url(#linear-gradient-2);}.cls-4{fill:url(#linear-gradient-3);}.cls-5{fill:url(#linear-gradient-4);}.cls-6{fill:url(#linear-gradient-5);}.cls-7{fill:url(#linear-gradient-6);}</style><linearGradient id="linear-gradient" x1="14" y1="9" x2="34" y2="9" gradientUnits="userSpaceOnUse"><stop offset="0" stop-color="#54a5ff"/><stop offset="1" stop-color="#8ad3fe"/></linearGradient><linearGradient id="linear-gradient-2" x1="22" y1="24" x2="26" y2="24" xlink:href="#linear-gradient"/><linearGradient id="linear-gradient-3" x1="6" y1="24" x2="10" y2="24" xlink:href="#linear-gradient"/><linearGradient id="linear-gradient-4" x1="38" y1="24" x2="42" y2="24" xlink:href="#linear-gradient"/><linearGradient id="linear-gradient-5" x1="1" y1="39" x2="21" y2="39" xlink:href="#linear-gradient"/><linearGradient id="linear-gradient-6" x1="27" y1="39" x2="47" y2="39" xlink:href="#linear-gradient"/></defs><title>Folders</title><g id="Folders"><path class="cls-1" d="M23,22V17a1,1,0,0,1,2,0v5A1,1,0,0,1,23,22Z"/><path class="cls-1" d="M22,25H10a1,1,0,0,1,0-2H22A1,1,0,0,1,22,25Z"/><path class="cls-1" d="M38,25H26a1,1,0,0,1,0-2H38A1,1,0,0,1,38,25Z"/><path class="cls-1" d="M6,25H2a1,1,0,0,1,0-2H6A1,1,0,0,1,6,25Z"/><path class="cls-1" d="M46,25H42a1,1,0,0,1,0-2h4A1,1,0,0,1,46,25Z"/><path class="cls-1" d="M7,31V26a1,1,0,0,1,2,0v5A1,1,0,0,1,7,31Z"/><path class="cls-1" d="M39,34V26a1,1,0,0,1,2,0v8A1,1,0,0,1,39,34Z"/><polygon class="cls-2" points="34 4 34 17 14 17 14 1 22 1 25 4 34 4"/><circle class="cls-3" cx="24" cy="24" r="2"/><circle class="cls-4" cx="8" cy="24" r="2"/><circle class="cls-5" cx="40" cy="24" r="2"/><polygon class="cls-6" points="21 34 21 47 1 47 1 31 9 31 12 34 21 34"/><polygon class="cls-7" points="47 34 47 47 27 47 27 31 35 31 38 34 47 34"/></g></svg>