<svg xmlns="http://www.w3.org/2000/svg" xmlns:xlink="http://www.w3.org/1999/xlink" viewBox="0 0 48 48"><defs><style>.cls-1{fill:url(#linear-gradient);}.cls-2{fill:url(#linear-gradient-2);}.cls-3{fill:url(#linear-gradient-3);}.cls-4{fill:url(#linear-gradient-4);}.cls-5{fill:#eb7f58;}.cls-6{fill:url(#linear-gradient-5);}</style><linearGradient id="linear-gradient" x1="7" y1="18" x2="41" y2="18" gradientUnits="userSpaceOnUse"><stop offset="0" stop-color="#54a5ff"/><stop offset="1" stop-color="#8ad3fe"/></linearGradient><linearGradient id="linear-gradient-2" x1="9" y1="28" x2="39" y2="28" gradientUnits="userSpaceOnUse"><stop offset="0" stop-color="#d3e6f5"/><stop offset="1" stop-color="#f0f7fc"/></linearGradient><linearGradient id="linear-gradient-3" x1="16" y1="37" x2="32" y2="37" xlink:href="#linear-gradient"/><linearGradient id="linear-gradient-4" x1="20" y1="43" x2="28" y2="43" xlink:href="#linear-gradient-2"/><linearGradient id="linear-gradient-5" x1="9.88" y1="8" x2="38.12" y2="8" gradientUnits="userSpaceOnUse"><stop offset="0" stop-color="#fe9661"/><stop offset="1" stop-color="#ffb369"/></linearGradient></defs><title>Setting Filter</title><g id="Setting_Filter" data-name="Setting Filter"><rect class="cls-1" x="7" y="15" width="34" height="6" rx="2"/><polygon class="cls-2" points="39 21 29 35 19 35 9 21 39 21"/><rect class="cls-3" x="16" y="35" width="16" height="4" rx="1"/><polygon class="cls-4" points="28 39 28 47 20 43 20 39 28 39"/><path class="cls-5" d="M29,15H19a5,5,0,0,1,10,0Z"/><path class="cls-6" d="M35.79,12.81A12.13,12.13,0,0,1,36,15H29a5,5,0,0,0-10,0H12a12.13,12.13,0,0,1,.21-2.19L9.88,11.46l4-6.92,2.33,1.34A12,12,0,0,1,20,3.7V1h8V3.7a12,12,0,0,1,3.79,2.18l2.33-1.34,4,6.92Z"/></g></svg>