<svg xmlns="http://www.w3.org/2000/svg" xmlns:xlink="http://www.w3.org/1999/xlink" viewBox="0 0 48 48"><defs><style>.cls-1{fill:url(#linear-gradient);}.cls-2{fill:#8ad3fe;}.cls-3{fill:#54a5ff;}.cls-4{fill:url(#linear-gradient-2);}</style><linearGradient id="linear-gradient" x1="1" y1="19.01" x2="47" y2="19.01" gradientUnits="userSpaceOnUse"><stop offset="0" stop-color="#d3e6f5"/><stop offset="1" stop-color="#f0f7fc"/></linearGradient><linearGradient id="linear-gradient-2" x1="24" y1="35.5" x2="33" y2="35.5" gradientUnits="userSpaceOnUse"><stop offset="0" stop-color="#54a5ff"/><stop offset="1" stop-color="#8ad3fe"/></linearGradient></defs><title>Cloud Value</title><g id="Cloud_Value" data-name="Cloud Value"><path class="cls-1" d="M47,27a6,6,0,0,1-6,6H11A10,10,0,0,1,1,23c0-6,5.38-10.44,10.35-10,5.71-12.09,23.56-10,26.34,3a4,4,0,0,1,3.18,5H41A6,6,0,0,1,47,27Z"/><polygon class="cls-2" points="33 28 24 33 15 28 24 23 33 28"/><polygon class="cls-3" points="24 33 24 43 15 38 15 28 24 33"/><polygon class="cls-4" points="33 28 33 38 24 43 24 33 33 28"/></g></svg>