<svg xmlns="http://www.w3.org/2000/svg" xmlns:xlink="http://www.w3.org/1999/xlink" viewBox="0 0 48 48"><defs><style>.cls-1{fill:url(#linear-gradient);}.cls-2{fill:url(#linear-gradient-2);}.cls-3{fill:#54a5ff;}.cls-4{fill:url(#linear-gradient-3);}.cls-5{fill:url(#linear-gradient-4);}.cls-6{fill:url(#linear-gradient-5);}.cls-7{fill:url(#linear-gradient-6);}.cls-8{fill:url(#linear-gradient-7);}.cls-9{fill:url(#linear-gradient-8);}.cls-10{fill:#d7e9f7;}</style><linearGradient id="linear-gradient" x1="3" y1="29" x2="29" y2="29" gradientUnits="userSpaceOnUse"><stop offset="0" stop-color="#54a5ff"/><stop offset="1" stop-color="#8ad3fe"/></linearGradient><linearGradient id="linear-gradient-2" y1="41" y2="41" xlink:href="#linear-gradient"/><linearGradient id="linear-gradient-3" x1="6.01" y1="29" x2="9.99" y2="29" gradientUnits="userSpaceOnUse"><stop offset="0" stop-color="#d3e6f5"/><stop offset="1" stop-color="#f0f7fc"/></linearGradient><linearGradient id="linear-gradient-4" x1="6.01" y1="41" x2="9.99" y2="41" xlink:href="#linear-gradient-3"/><linearGradient id="linear-gradient-5" x1="24" x2="26" xlink:href="#linear-gradient-3"/><linearGradient id="linear-gradient-6" x1="24" y1="41" x2="26" y2="41" xlink:href="#linear-gradient-3"/><linearGradient id="linear-gradient-7" x1="1" y1="11" x2="9" y2="11" xlink:href="#linear-gradient"/><linearGradient id="linear-gradient-8" x1="33" y1="43" x2="47" y2="43" xlink:href="#linear-gradient"/></defs><title>Scalable</title><g id="Scalable"><rect class="cls-1" x="3" y="25" width="26" height="8" rx="1"/><rect class="cls-2" x="3" y="37" width="26" height="8" rx="1"/><rect class="cls-3" x="5" y="33" width="22" height="4"/><path class="cls-4" d="M9,30H7a1,1,0,0,1,0-2H9A1,1,0,0,1,9,30Z"/><path class="cls-5" d="M9,42H7a1,1,0,0,1,0-2H9A1,1,0,0,1,9,42Z"/><path class="cls-6" d="M26,29a1,1,0,0,0-2,0A1,1,0,0,0,26,29Z"/><path class="cls-7" d="M26,41a1,1,0,0,0-2,0A1,1,0,0,0,26,41Z"/><polygon class="cls-8" points="1 6 5 1 9 6 7 6 7 21 3 21 3 6 1 6"/><polygon class="cls-9" points="42 39 47 43 42 47 42 45 33 45 33 41 42 41 42 39"/><path class="cls-10" d="M12,14H10a1,1,0,0,1,0-2h2A1,1,0,0,1,12,14Z"/><path class="cls-10" d="M18,14H16a1,1,0,0,1,0-2h2A1,1,0,0,1,18,14Z"/><path class="cls-10" d="M24,14H22a1,1,0,0,1,0-2h2A1,1,0,0,1,24,14Z"/><path class="cls-10" d="M30,14H28a1,1,0,0,1,0-2h2A1,1,0,0,1,30,14Z"/><path class="cls-10" d="M34,38V36a1,1,0,0,1,2,0v2A1,1,0,0,1,34,38Z"/><path class="cls-10" d="M34,32V30a1,1,0,0,1,2,0v2A1,1,0,0,1,34,32Z"/><path class="cls-10" d="M34,26V24a1,1,0,0,1,2,0v2A1,1,0,0,1,34,26Z"/><path class="cls-10" d="M34,20V18a1,1,0,0,1,2,0v2A1,1,0,0,1,34,20Z"/><path class="cls-10" d="M34,14a1,1,0,0,1,0-2h1a1,1,0,0,1,1,1v1A1,1,0,0,1,34,14Z"/><path class="cls-10" d="M23,3H21a1,1,0,0,1,0-2h2A1,1,0,0,1,23,3Z"/><path class="cls-10" d="M29,3H27a1,1,0,0,1,0-2h2A1,1,0,0,1,29,3Z"/><path class="cls-10" d="M35,3H33a1,1,0,0,1,0-2h2A1,1,0,0,1,35,3Z"/><path class="cls-10" d="M41,3H39a1,1,0,0,1,0-2h2A1,1,0,0,1,41,3Z"/><path class="cls-10" d="M45,27V25a1,1,0,0,1,2,0v2A1,1,0,0,1,45,27Z"/><path class="cls-10" d="M45,21V19a1,1,0,0,1,2,0v2A1,1,0,0,1,45,21Z"/><path class="cls-10" d="M45,15V13a1,1,0,0,1,2,0v2A1,1,0,0,1,45,15Z"/><path class="cls-10" d="M45,9V7a1,1,0,0,1,2,0V9A1,1,0,0,1,45,9Z"/><path class="cls-10" d="M45,3a1,1,0,0,1,0-2h1a1,1,0,0,1,1,1V3A1,1,0,0,1,45,3Z"/><path class="cls-10" d="M45,33V31a1,1,0,0,1,2,0v2A1,1,0,0,1,45,33Z"/><path class="cls-10" d="M45,39V37a1,1,0,0,1,2,0v2A1,1,0,0,1,45,39Z"/><path class="cls-10" d="M17,3H15a1,1,0,0,1,0-2h2A1,1,0,0,1,17,3Z"/><path class="cls-10" d="M11,3H9A1,1,0,0,1,9,1h2A1,1,0,0,1,11,3Z"/></g></svg>