<svg xmlns="http://www.w3.org/2000/svg" xmlns:xlink="http://www.w3.org/1999/xlink" viewBox="0 0 48 48"><defs><style>.cls-1{fill:url(#linear-gradient);}.cls-2{fill:url(#linear-gradient-2);}.cls-3{fill:url(#linear-gradient-3);}.cls-4{fill:#d7e9f7;}.cls-5{fill:#8ad3fe;}</style><linearGradient id="linear-gradient" x1="24" y1="12.5" x2="47" y2="12.5" gradientUnits="userSpaceOnUse"><stop offset="0" stop-color="#54a5ff"/><stop offset="1" stop-color="#8ad3fe"/></linearGradient><linearGradient id="linear-gradient-2" x1="36.02" y1="32.13" x2="47" y2="32.13" gradientUnits="userSpaceOnUse"><stop offset="0" stop-color="#fe9661"/><stop offset="1" stop-color="#ffb369"/></linearGradient><linearGradient id="linear-gradient-3" x1="1" y1="24" x2="40.26" y2="24" gradientUnits="userSpaceOnUse"><stop offset="0" stop-color="#d3e6f5"/><stop offset="1" stop-color="#f0f7fc"/></linearGradient></defs><title>Data Analytic</title><g id="Data_Analytic" data-name="Data Analytic"><path class="cls-1" d="M47,24H41A17,17,0,0,0,24,7V1A23,23,0,0,1,47,24Z"/><path class="cls-2" d="M47,24a22.93,22.93,0,0,1-6.74,16.26L36,36a16.93,16.93,0,0,0,5-12Z"/><path class="cls-3" d="M40.26,40.26C25.87,54.65,1,44.49,1,24A23,23,0,0,1,24,1V7A17,17,0,0,0,7,24C7,39.19,25.41,46.63,36,36Z"/><ellipse class="cls-4" cx="24" cy="24" rx="13" ry="7"/><circle class="cls-5" cx="24" cy="22" r="5"/></g></svg>