<svg xmlns="http://www.w3.org/2000/svg" xmlns:xlink="http://www.w3.org/1999/xlink" viewBox="0 0 48 48"><defs><style>.cls-1{fill:url(#linear-gradient);}.cls-2{fill:url(#linear-gradient-2);}.cls-3{fill:#54a5ff;}.cls-4{fill:url(#linear-gradient-3);}.cls-5{fill:url(#linear-gradient-4);}.cls-6{fill:url(#linear-gradient-5);}.cls-7{fill:url(#linear-gradient-6);}.cls-8{fill:url(#linear-gradient-7);}.cls-9{fill:url(#linear-gradient-8);}.cls-10{fill:url(#linear-gradient-9);}.cls-11{fill:url(#linear-gradient-10);}.cls-12{fill:url(#linear-gradient-11);}.cls-13{fill:url(#linear-gradient-12);}.cls-14{fill:url(#linear-gradient-13);}.cls-15{fill:url(#linear-gradient-14);}.cls-16{fill:url(#linear-gradient-15);}.cls-17{fill:url(#linear-gradient-16);}.cls-18{fill:url(#linear-gradient-17);}.cls-19{fill:#fe9661;}.cls-20{fill:#b4cde1;}</style><linearGradient id="linear-gradient" x1="6" y1="24" x2="42" y2="24" gradientUnits="userSpaceOnUse"><stop offset="0" stop-color="#d3e6f5"/><stop offset="1" stop-color="#f0f7fc"/></linearGradient><linearGradient id="linear-gradient-2" x1="32" y1="6" x2="42" y2="6" gradientUnits="userSpaceOnUse"><stop offset="0" stop-color="#54a5ff"/><stop offset="1" stop-color="#8ad3fe"/></linearGradient><linearGradient id="linear-gradient-3" x1="11" y1="23" x2="15" y2="23" xlink:href="#linear-gradient-2"/><linearGradient id="linear-gradient-4" x1="17" y1="23" x2="26" y2="23" gradientUnits="userSpaceOnUse"><stop offset="0" stop-color="#fe9661"/><stop offset="1" stop-color="#ffb369"/></linearGradient><linearGradient id="linear-gradient-5" x1="28" x2="37" xlink:href="#linear-gradient-4"/><linearGradient id="linear-gradient-6" x1="11" y1="27" x2="15" y2="27" xlink:href="#linear-gradient-2"/><linearGradient id="linear-gradient-7" y1="27" x2="26" y2="27" xlink:href="#linear-gradient-4"/><linearGradient id="linear-gradient-8" x1="28" y1="27" x2="37" y2="27" xlink:href="#linear-gradient-4"/><linearGradient id="linear-gradient-9" x1="11" y1="31" x2="15" y2="31" xlink:href="#linear-gradient-2"/><linearGradient id="linear-gradient-10" y1="31" x2="26" y2="31" xlink:href="#linear-gradient-4"/><linearGradient id="linear-gradient-11" x1="28" y1="31" x2="37" y2="31" xlink:href="#linear-gradient-4"/><linearGradient id="linear-gradient-12" x1="11" y1="35" x2="15" y2="35" xlink:href="#linear-gradient-2"/><linearGradient id="linear-gradient-13" y1="35" x2="26" y2="35" xlink:href="#linear-gradient-4"/><linearGradient id="linear-gradient-14" x1="28" y1="35" x2="37" y2="35" xlink:href="#linear-gradient-4"/><linearGradient id="linear-gradient-15" x1="11" y1="39" x2="15" y2="39" xlink:href="#linear-gradient-2"/><linearGradient id="linear-gradient-16" y1="39" x2="26" y2="39" xlink:href="#linear-gradient-4"/><linearGradient id="linear-gradient-17" x1="28" y1="39" x2="37" y2="39" xlink:href="#linear-gradient-4"/></defs><title>Report data</title><g id="Report_data" data-name="Report data"><path class="cls-1" d="M42,11V45a2,2,0,0,1-2,2H8a2,2,0,0,1-2-2V3A2,2,0,0,1,8,1H32V11Z"/><polygon class="cls-2" points="42 11 32 11 32 1 42 11"/><rect class="cls-3" x="11" y="18" width="4" height="2"/><rect class="cls-4" x="11" y="22" width="4" height="2"/><rect class="cls-5" x="17" y="22" width="9" height="2"/><rect class="cls-6" x="28" y="22" width="9" height="2"/><rect class="cls-7" x="11" y="26" width="4" height="2"/><rect class="cls-8" x="17" y="26" width="9" height="2"/><rect class="cls-9" x="28" y="26" width="9" height="2"/><rect class="cls-10" x="11" y="30" width="4" height="2"/><rect class="cls-11" x="17" y="30" width="9" height="2"/><rect class="cls-12" x="28" y="30" width="9" height="2"/><rect class="cls-13" x="11" y="34" width="4" height="2"/><rect class="cls-14" x="17" y="34" width="9" height="2"/><rect class="cls-15" x="28" y="34" width="9" height="2"/><rect class="cls-16" x="11" y="38" width="4" height="2"/><rect class="cls-17" x="17" y="38" width="9" height="2"/><rect class="cls-18" x="28" y="38" width="9" height="2"/><rect class="cls-19" x="17" y="18" width="20" height="2"/><path class="cls-20" d="M15,11H11a1,1,0,0,1,0-2h4A1,1,0,0,1,15,11Z"/><path class="cls-20" d="M19,15H11a1,1,0,0,1,0-2h8A1,1,0,0,1,19,15Z"/></g></svg>