<svg xmlns="http://www.w3.org/2000/svg" xmlns:xlink="http://www.w3.org/1999/xlink" viewBox="0 0 48 48"><defs><style>.cls-1{fill:url(#linear-gradient);}.cls-2{fill:#eb7f58;}.cls-3{fill:url(#linear-gradient-2);}</style><linearGradient id="linear-gradient" x1="1" y1="20.01" x2="47" y2="20.01" gradientUnits="userSpaceOnUse"><stop offset="0" stop-color="#d3e6f5"/><stop offset="1" stop-color="#f0f7fc"/></linearGradient><linearGradient id="linear-gradient-2" x1="17" y1="36" x2="31" y2="36" gradientUnits="userSpaceOnUse"><stop offset="0" stop-color="#fe9661"/><stop offset="1" stop-color="#ffb369"/></linearGradient></defs><title>Cloud Secure</title><g id="Cloud_Secure" data-name="Cloud Secure"><path class="cls-1" d="M47,28a6,6,0,0,1-6,6H11A10,10,0,0,1,1,24c0-6,5.38-10.44,10.35-10,5.71-12.09,23.56-10,26.34,3a4,4,0,0,1,3.18,5H41A6,6,0,0,1,47,28Z"/><path class="cls-2" d="M28,30V27a4,4,0,0,0-8,0v3a1,1,0,0,1-2,0V27a6,6,0,0,1,12,0v3A1,1,0,0,1,28,30Z"/><rect class="cls-3" x="17" y="30" width="14" height="12" rx="1"/><path class="cls-2" d="M24,33a2,2,0,0,0-1,3.72V38a1,1,0,0,0,2,0V36.72A2,2,0,0,0,24,33Z"/></g></svg>