<svg xmlns="http://www.w3.org/2000/svg" xmlns:xlink="http://www.w3.org/1999/xlink" viewBox="0 0 48 48"><defs><style>.cls-1{fill:#8ad3fe;}.cls-2{fill:url(#linear-gradient);}.cls-3{fill:#54a5ff;}.cls-4{fill:url(#linear-gradient-2);}.cls-5{fill:url(#linear-gradient-3);}.cls-6{fill:#ffb369;}</style><linearGradient id="linear-gradient" x1="24" y1="11" x2="31" y2="11" gradientUnits="userSpaceOnUse"><stop offset="0" stop-color="#54a5ff"/><stop offset="1" stop-color="#8ad3fe"/></linearGradient><linearGradient id="linear-gradient-2" x1="8" y1="40" x2="15" y2="40" xlink:href="#linear-gradient"/><linearGradient id="linear-gradient-3" x1="40" y1="40" x2="47" y2="40" xlink:href="#linear-gradient"/></defs><title>Network Data </title><g id="Network_Data" data-name="Network Data"><polygon class="cls-1" points="31 5 24 9 17 5 24 1 31 5"/><polygon class="cls-2" points="31 5 31 13 24 17 24 9 31 5"/><polygon class="cls-3" points="24 9 24 17 17 13 17 5 24 9"/><polygon class="cls-1" points="15 34 8 38 1 34 8 30 15 34"/><polygon class="cls-4" points="15 34 15 42 8 46 8 38 15 34"/><polygon class="cls-3" points="8 38 8 46 1 42 1 34 8 38"/><polygon class="cls-1" points="47 34 40 38 33 34 40 30 47 34"/><polygon class="cls-5" points="47 34 47 42 40 46 40 38 47 34"/><polygon class="cls-3" points="40 38 40 46 33 42 33 34 40 38"/><path class="cls-6" d="M3.23,27.14A21,21,0,0,1,12.45,6.46a1,1,0,0,1,1.1,1.68A19,19,0,0,0,5.21,26.86,1,1,0,0,1,3.23,27.14Z"/><path class="cls-6" d="M18.75,44.34A1,1,0,0,1,18,43.12c.53-2.07,3.33,1.18,10.72-.72a1,1,0,0,1,.5,1.94A21.21,21.21,0,0,1,18.75,44.34Z"/><path class="cls-6" d="M42.79,26.86A19,19,0,0,0,34.45,8.14a1,1,0,0,1,1.1-1.68,21,21,0,0,1,9.22,20.68A1,1,0,0,1,42.79,26.86Z"/></g></svg>