<svg xmlns="http://www.w3.org/2000/svg" xmlns:xlink="http://www.w3.org/1999/xlink" viewBox="0 0 48 48"><defs><style>.cls-1{fill:url(#linear-gradient);}.cls-2{fill:url(#linear-gradient-2);}.cls-3{fill:#d7e9f7;}.cls-4{fill:url(#linear-gradient-3);}.cls-5{fill:#ffb369;}.cls-6{fill:url(#linear-gradient-4);}.cls-7{fill:url(#linear-gradient-5);}.cls-8{fill:url(#linear-gradient-6);}.cls-9{fill:url(#linear-gradient-7);}.cls-10{fill:url(#linear-gradient-8);}</style><linearGradient id="linear-gradient" x1="6.99" y1="20" x2="41" y2="20" gradientUnits="userSpaceOnUse"><stop offset="0" stop-color="#d3e6f5"/><stop offset="1" stop-color="#f0f7fc"/></linearGradient><linearGradient id="linear-gradient-2" x1="7" y1="26.5" x2="41" y2="26.5" gradientUnits="userSpaceOnUse"><stop offset="0" stop-color="#54a5ff"/><stop offset="1" stop-color="#8ad3fe"/></linearGradient><linearGradient id="linear-gradient-3" y1="40.5" y2="40.5" xlink:href="#linear-gradient-2"/><linearGradient id="linear-gradient-4" x1="22" y1="3" x2="26" y2="3" xlink:href="#linear-gradient-2"/><linearGradient id="linear-gradient-5" x1="36" y1="6" x2="40" y2="6" xlink:href="#linear-gradient-2"/><linearGradient id="linear-gradient-6" x1="42" y1="13" x2="46" y2="13" xlink:href="#linear-gradient-2"/><linearGradient id="linear-gradient-7" x1="8" y1="6" x2="12" y2="6" xlink:href="#linear-gradient-2"/><linearGradient id="linear-gradient-8" x1="2" y1="13" x2="6" y2="13" xlink:href="#linear-gradient-2"/></defs><title>Database Network</title><g id="Database_Network" data-name="Database Network"><path class="cls-1" d="M34.21,24a52.75,52.75,0,0,1-20.42,0C.52,21,8.13,15,24,15,40.05,15,47.35,21.06,34.21,24Z"/><path class="cls-2" d="M41,20v8c0,1.13-1.27,2.17-3.41,3C27.92,34.81,7,32.79,7,28V20c0,1.63,2.67,3.08,6.79,4C24.78,26.44,41,24.16,41,20Z"/><path class="cls-3" d="M34.21,38c-15.63,3.47-35.42-2.49-23.8-7,6.78,2.67,20.41,2.66,27.18,0C43.73,33.38,41,36.48,34.21,38Z"/><path class="cls-4" d="M41,34v8c0,2.76-7.61,5-17,5S7,44.76,7,42V34c0,1.63,2.67,3.08,6.79,4a52.75,52.75,0,0,0,20.42,0C38.33,37.08,41,35.63,41,34Z"/><path class="cls-5" d="M23,21V5a1,1,0,0,1,2,0V21A1,1,0,0,1,23,21Z"/><path class="cls-5" d="M28,18V8a3,3,0,0,1,3-3h5a1,1,0,0,1,0,2H31a1,1,0,0,0-1,1V18A1,1,0,0,1,28,18Z"/><path class="cls-5" d="M33,20V15a3,3,0,0,1,3-3h6a1,1,0,0,1,0,2H36a1,1,0,0,0-1,1v5A1,1,0,0,1,33,20Z"/><path class="cls-5" d="M18,18V8a1,1,0,0,0-1-1H12a1,1,0,0,1,0-2h5a3,3,0,0,1,3,3V18A1,1,0,0,1,18,18Z"/><path class="cls-5" d="M13,20V15a1,1,0,0,0-1-1H6a1,1,0,0,1,0-2h6a3,3,0,0,1,3,3v5A1,1,0,0,1,13,20Z"/><circle class="cls-6" cx="24" cy="3" r="2"/><circle class="cls-7" cx="38" cy="6" r="2"/><circle class="cls-8" cx="44" cy="13" r="2"/><circle class="cls-9" cx="10" cy="6" r="2"/><circle class="cls-10" cx="4" cy="13" r="2"/></g></svg>