<svg xmlns="http://www.w3.org/2000/svg" xmlns:xlink="http://www.w3.org/1999/xlink" viewBox="0 0 48 48"><defs><style>.cls-1{fill:#8ad3fe;}.cls-2{fill:#54a5ff;}.cls-3{fill:url(#linear-gradient);}.cls-4{fill:#ffb369;}.cls-5{fill:#fe9661;}.cls-6{fill:url(#linear-gradient-2);}.cls-7{fill:url(#linear-gradient-3);}.cls-8{fill:url(#linear-gradient-4);}.cls-9{fill:url(#linear-gradient-5);}.cls-10{fill:url(#linear-gradient-6);}.cls-11{fill:url(#linear-gradient-7);}</style><linearGradient id="linear-gradient" x1="12" y1="20.04" x2="19" y2="20.04" gradientUnits="userSpaceOnUse"><stop offset="0" stop-color="#54a5ff"/><stop offset="1" stop-color="#8ad3fe"/></linearGradient><linearGradient id="linear-gradient-2" x1="12" y1="33.57" x2="19" y2="33.57" gradientUnits="userSpaceOnUse"><stop offset="0" stop-color="#fe9661"/><stop offset="1" stop-color="#ffb369"/></linearGradient><linearGradient id="linear-gradient-3" x1="36" y1="20" x2="43" y2="20" xlink:href="#linear-gradient"/><linearGradient id="linear-gradient-4" x1="36" y1="33" x2="43" y2="33" xlink:href="#linear-gradient-2"/><linearGradient id="linear-gradient-5" x1="24" y1="28" x2="31" y2="28" xlink:href="#linear-gradient"/><linearGradient id="linear-gradient-6" x1="24" y1="41" x2="31" y2="41" xlink:href="#linear-gradient-2"/><linearGradient id="linear-gradient-7" x1="24" y1="11" x2="31" y2="11" xlink:href="#linear-gradient"/></defs><title>Array</title><g id="Array"><path class="cls-1" d="M19,14l-7,4L5,14l7-4Z"/><path class="cls-2" d="M12,18v8c-3.29-1.89-1.74-1-7-4V14Z"/><path class="cls-3" d="M19,14.14v6.72L17,22v1.14L12,26V18C19.65,13.63,18.83,14,19,14.14Z"/><polygon class="cls-4" points="17 25.86 17 28.14 12 31 5 27 9.38 24.5 12 26 14.63 24.5 17 25.86"/><polygon class="cls-5" points="12 31 12 39 5 35 5 27 12 31"/><polygon class="cls-6" points="19 31.14 19 33.86 17 35 17 36.14 12 39 12 31 17 28.14 17 30 19 31.14"/><path class="cls-1" d="M43,14l-7,4-6.87-3.93c-.2-.11-.92.38,6.87-4.07Z"/><path class="cls-7" d="M43,14v8l-7,4V18Z"/><path class="cls-2" d="M36,18v8l-5-2.86V22l-2-1.14V14.14C29.19,14,28.37,13.64,36,18Z"/><polygon class="cls-4" points="43 27 36 31 31 28.14 31 25.86 33.38 24.5 36 26 38.63 24.5 43 27"/><polygon class="cls-5" points="36 31 36 39 31 36.14 31 35 29 33.86 29 31.14 31 30 31 28.14 36 31"/><polygon class="cls-8" points="43 27 43 35 36 39 36 31 43 27"/><path class="cls-1" d="M31,22l-7,4-7-4,7-4Z"/><path class="cls-2" d="M24,26v8l-7-4V22Z"/><path class="cls-9" d="M31,22v8l-7,4V26Z"/><polygon class="cls-5" points="24 39 24 47 17 43 17 35 24 39"/><path class="cls-10" d="M31,35v8l-7,4V39Z"/><path class="cls-4" d="M31,35l-7,4-7-4,4.38-2.5L24,34l2.63-1.5Z"/><polygon class="cls-1" points="31 5 24 9 17 5 24 1 31 5"/><path class="cls-2" d="M24,9v8l-5-2.86c0-.2.29,0-2-1.28V5Z"/><path class="cls-11" d="M31,5v7.86L29,14c0,.2.5-.15-5,3V9Z"/></g></svg>