<svg xmlns="http://www.w3.org/2000/svg" xmlns:xlink="http://www.w3.org/1999/xlink" viewBox="0 0 48 48"><defs><style>.cls-1{fill:url(#linear-gradient);}.cls-2{fill:url(#linear-gradient-2);}.cls-3{fill:#d7e9f7;}.cls-4{fill:url(#linear-gradient-3);}.cls-5{fill:url(#linear-gradient-4);}.cls-6{fill:#b4cde1;}.cls-7{fill:url(#linear-gradient-5);}.cls-8{fill:url(#linear-gradient-6);}.cls-9{fill:url(#linear-gradient-7);}.cls-10{fill:url(#linear-gradient-8);}</style><linearGradient id="linear-gradient" x1="0.99" y1="6" x2="35" y2="6" gradientUnits="userSpaceOnUse"><stop offset="0" stop-color="#d3e6f5"/><stop offset="1" stop-color="#f0f7fc"/></linearGradient><linearGradient id="linear-gradient-2" x1="1" y1="12.5" x2="35" y2="12.5" gradientUnits="userSpaceOnUse"><stop offset="0" stop-color="#54a5ff"/><stop offset="1" stop-color="#8ad3fe"/></linearGradient><linearGradient id="linear-gradient-3" y1="26.5" x2="27.67" y2="26.5" xlink:href="#linear-gradient-2"/><linearGradient id="linear-gradient-4" x1="31.58" y1="21.76" y2="21.76" xlink:href="#linear-gradient-2"/><linearGradient id="linear-gradient-5" y1="40.5" y2="40.5" xlink:href="#linear-gradient-2"/><linearGradient id="linear-gradient-6" x1="22.99" y1="32" x2="41" y2="32" gradientUnits="userSpaceOnUse"><stop offset="0" stop-color="#fe9661"/><stop offset="1" stop-color="#ffb369"/></linearGradient><linearGradient id="linear-gradient-7" x1="25" y1="32" x2="39" y2="32" xlink:href="#linear-gradient"/><linearGradient id="linear-gradient-8" x1="36.79" y1="41.9" x2="47" y2="41.9" xlink:href="#linear-gradient-6"/></defs><title>Database</title><g id="Database"><path class="cls-1" d="M28.21,10A52.75,52.75,0,0,1,7.79,10C-5.48,7,2.13,1,18,1,34.05,1,41.35,7.06,28.21,10Z"/><path class="cls-2" d="M35,6v8c0,1.13-1.27,2.17-3.41,3C21.92,20.81,1,18.79,1,14V6c0,1.63,2.67,3.08,6.79,4C18.78,12.44,35,10.16,35,6Z"/><path class="cls-3" d="M33.6,22a10.49,10.49,0,0,1-2.06,1,8.68,8.68,0,0,0-3.87,1.1C13.68,27.44-7.58,21.65,4.41,17c6.78,2.67,20.41,2.66,27.18,0C35.8,18.63,35.66,20.66,33.6,22Z"/><path class="cls-4" d="M23,32.78C17.42,33.27,9.49,33,4.41,31,2.27,30.17,1,29.13,1,28V20c0,1.63,2.67,3.08,6.79,4a52.73,52.73,0,0,0,19.88.11A9,9,0,0,0,23,32.78Z"/><path class="cls-5" d="M35,20v3.52c-3.42-1.24-4.62.29-2-1.18C33.91,21.89,35,21,35,20Z"/><path class="cls-6" d="M25.73,38.45C8.69,40.8-5.95,35,4.41,31c5.1,2,13,2.27,18.63,1.78A8.88,8.88,0,0,0,25.73,38.45Z"/><path class="cls-7" d="M35,40.48V42c0,2.76-7.61,5-17,5S1,44.76,1,42V34c0,1.63,2.67,3.08,6.79,4a52.84,52.84,0,0,0,17.94.45A9,9,0,0,0,35,40.48Z"/><path class="cls-8" d="M41,32a9,9,0,0,1-9,9c-9.22,0-12.53-12.37-4.33-16.89A9,9,0,0,1,41,32Z"/><path class="cls-9" d="M39,32a7,7,0,1,1-10.37-6.14A7.1,7.1,0,0,1,32,25,7,7,0,0,1,39,32Z"/><path class="cls-10" d="M47,45a2,2,0,0,1-2.82,1.82c-.44-.18-.07.11-7.39-7.21a8.83,8.83,0,0,0,2.82-2.82C47.09,44.27,47,43.9,47,45Z"/></g></svg>