<svg xmlns="http://www.w3.org/2000/svg" xmlns:xlink="http://www.w3.org/1999/xlink" viewBox="0 0 48 48"><defs><style>.cls-1{fill:#b4cde1;}.cls-2{fill:url(#linear-gradient);}.cls-3{fill:url(#linear-gradient-2);}.cls-4{fill:#4795ea;}.cls-5{fill:url(#linear-gradient-3);}.cls-6{fill:url(#linear-gradient-4);}.cls-7{fill:url(#linear-gradient-5);}.cls-8{fill:url(#linear-gradient-6);}.cls-9{fill:url(#linear-gradient-7);}.cls-10{fill:url(#linear-gradient-8);}.cls-11{fill:url(#linear-gradient-9);}.cls-12{fill:url(#linear-gradient-10);}.cls-13{fill:url(#linear-gradient-11);}.cls-14{fill:url(#linear-gradient-12);}.cls-15{fill:url(#linear-gradient-13);}.cls-16{fill:url(#linear-gradient-14);}</style><linearGradient id="linear-gradient" x1="1" y1="12" x2="21" y2="12" gradientUnits="userSpaceOnUse"><stop offset="0" stop-color="#54a5ff"/><stop offset="1" stop-color="#8ad3fe"/></linearGradient><linearGradient id="linear-gradient-2" y1="24" y2="24" xlink:href="#linear-gradient"/><linearGradient id="linear-gradient-3" x1="4.01" y1="12" x2="7.99" y2="12" gradientUnits="userSpaceOnUse"><stop offset="0" stop-color="#d3e6f5"/><stop offset="1" stop-color="#f0f7fc"/></linearGradient><linearGradient id="linear-gradient-4" x1="4.01" y1="24" x2="7.99" y2="24" xlink:href="#linear-gradient-3"/><linearGradient id="linear-gradient-5" x1="16" x2="18" xlink:href="#linear-gradient-3"/><linearGradient id="linear-gradient-6" x1="16" y1="24" x2="18" y2="24" xlink:href="#linear-gradient-3"/><linearGradient id="linear-gradient-7" x1="27" y1="12" x2="47" y2="12" xlink:href="#linear-gradient"/><linearGradient id="linear-gradient-8" x1="27" y1="24" x2="47" y2="24" xlink:href="#linear-gradient"/><linearGradient id="linear-gradient-9" x1="30.01" x2="33.99" xlink:href="#linear-gradient-3"/><linearGradient id="linear-gradient-10" x1="30.01" y1="24" x2="33.99" y2="24" xlink:href="#linear-gradient-3"/><linearGradient id="linear-gradient-11" x1="42" x2="44" xlink:href="#linear-gradient-3"/><linearGradient id="linear-gradient-12" x1="42" y1="24" x2="44" y2="24" xlink:href="#linear-gradient-3"/><linearGradient id="linear-gradient-13" x1="9" y1="38" x2="13" y2="38" xlink:href="#linear-gradient"/><linearGradient id="linear-gradient-14" x1="35" y1="38" x2="39" y2="38" xlink:href="#linear-gradient"/></defs><title>Server Network</title><g id="Server_Network" data-name="Server Network"><path class="cls-1" d="M36,36V28a1,1,0,0,1,2,0v8A1,1,0,0,1,36,36Z"/><path class="cls-1" d="M10,36V28a1,1,0,0,1,2,0v8A1,1,0,0,1,10,36Z"/><path class="cls-1" d="M35,39H13a1,1,0,0,1,0-2H35A1,1,0,0,1,35,39Z"/><path class="cls-1" d="M46,39H39a1,1,0,0,1,0-2h7A1,1,0,0,1,46,39Z"/><path class="cls-1" d="M9,39H2a1,1,0,0,1,0-2H9A1,1,0,0,1,9,39Z"/><rect class="cls-2" x="1" y="8" width="20" height="8" rx="1"/><rect class="cls-3" x="1" y="20" width="20" height="8" rx="1"/><rect class="cls-4" x="3" y="16" width="16" height="4"/><path class="cls-5" d="M7,13H5a1,1,0,0,1,0-2H7A1,1,0,0,1,7,13Z"/><path class="cls-6" d="M7,25H5a1,1,0,0,1,0-2H7A1,1,0,0,1,7,25Z"/><path class="cls-7" d="M18,12a1,1,0,0,0-2,0A1,1,0,0,0,18,12Z"/><path class="cls-8" d="M18,24a1,1,0,0,0-2,0A1,1,0,0,0,18,24Z"/><rect class="cls-9" x="27" y="8" width="20" height="8" rx="1"/><rect class="cls-10" x="27" y="20" width="20" height="8" rx="1"/><rect class="cls-4" x="29" y="16" width="16" height="4"/><path class="cls-11" d="M33,13H31a1,1,0,0,1,0-2h2A1,1,0,0,1,33,13Z"/><path class="cls-12" d="M33,25H31a1,1,0,0,1,0-2h2A1,1,0,0,1,33,25Z"/><path class="cls-13" d="M44,12a1,1,0,0,0-2,0A1,1,0,0,0,44,12Z"/><path class="cls-14" d="M44,24a1,1,0,0,0-2,0A1,1,0,0,0,44,24Z"/><circle class="cls-15" cx="11" cy="38" r="2"/><circle class="cls-16" cx="37" cy="38" r="2"/></g></svg>