<svg xmlns="http://www.w3.org/2000/svg" xmlns:xlink="http://www.w3.org/1999/xlink" viewBox="0 0 48 48"><defs><style>.cls-1{fill:url(#linear-gradient);}.cls-2{fill:url(#linear-gradient-2);}.cls-3{fill:url(#linear-gradient-3);}</style><linearGradient id="linear-gradient" x1="1" y1="15.01" x2="47" y2="15.01" gradientUnits="userSpaceOnUse"><stop offset="0" stop-color="#d3e6f5"/><stop offset="1" stop-color="#f0f7fc"/></linearGradient><linearGradient id="linear-gradient-2" x1="19" y1="40" x2="31" y2="40" gradientUnits="userSpaceOnUse"><stop offset="0" stop-color="#fe9661"/><stop offset="1" stop-color="#ffb369"/></linearGradient><linearGradient id="linear-gradient-3" x1="14" y1="23.5" x2="31.99" y2="23.5" gradientUnits="userSpaceOnUse"><stop offset="0" stop-color="#54a5ff"/><stop offset="1" stop-color="#8ad3fe"/></linearGradient></defs><title>Backup</title><g id="Backup"><path class="cls-1" d="M47,23a6,6,0,0,1-6,6H11A10,10,0,0,1,1,19C1,13,6.38,8.56,11.35,9,17.06-3.08,34.91-1,37.69,12.06a4,4,0,0,1,3.18,5H41A6,6,0,0,1,47,23Z"/><polygon class="cls-2" points="31 37 31 47 19 47 19 33 27 33 31 37"/><path class="cls-3" d="M31.71,22.3h0a28,28,0,0,1-2-2A1,1,0,0,0,28,21v1a5,5,0,0,0-3,1V14h1a1,1,0,0,0,.71-1.71l-2.05-2a1,1,0,0,0-1.37,0c-1.86,1.87-2.56,2.27-2.21,3.09S21.93,14,23,14v7.11A7,7,0,0,0,18,19c0-.94.12-1.62-.62-1.92s-1.14.27-3.09,2.21h0a1,1,0,0,0,0,1.41c1.79,1.8,2.23,2.57,3.08,2.21S18,22,18,21a5,5,0,0,1,5,5V36a1,1,0,0,0,2,0V27a3,3,0,0,1,3-3c0,.94-.12,1.62.62,1.92s1.22-.35,3.08-2.21C32.25,23.16,31.88,22.3,31.71,22.3Z"/></g></svg>