<svg xmlns="http://www.w3.org/2000/svg" xmlns:xlink="http://www.w3.org/1999/xlink" viewBox="0 0 48 48"><defs><style>.cls-1{fill:url(#linear-gradient);}.cls-2{fill:url(#linear-gradient-2);}.cls-3{fill:url(#linear-gradient-3);}.cls-4{fill:url(#linear-gradient-4);}</style><linearGradient id="linear-gradient" x1="20" y1="38" x2="28" y2="38" gradientUnits="userSpaceOnUse"><stop offset="0" stop-color="#54a5ff"/><stop offset="1" stop-color="#8ad3fe"/></linearGradient><linearGradient id="linear-gradient-2" x1="5" y1="35" x2="18" y2="35" xlink:href="#linear-gradient"/><linearGradient id="linear-gradient-3" x1="30" y1="35" x2="43" y2="35" xlink:href="#linear-gradient"/><linearGradient id="linear-gradient-4" x1="1" y1="15.01" x2="47" y2="15.01" gradientUnits="userSpaceOnUse"><stop offset="0" stop-color="#d3e6f5"/><stop offset="1" stop-color="#f0f7fc"/></linearGradient></defs><title>Cloud Sharing</title><g id="Cloud_Sharing" data-name="Cloud Sharing"><polygon class="cls-1" points="28 42 24 47 20 42 22 42 22 29 26 29 26 42 28 42"/><path class="cls-2" d="M10,39h4a4,4,0,0,0,4-4V29H14v6H10V33L5,37l5,4Z"/><path class="cls-3" d="M38,39H34a4,4,0,0,1-4-4V29h4v6h4V33l5,4-5,4Z"/><path class="cls-4" d="M47,23a6,6,0,0,1-6,6H11A10,10,0,0,1,1,19C1,13,6.38,8.56,11.35,9,17.06-3.08,34.91-1,37.69,12.06a4,4,0,0,1,3.18,5H41A6,6,0,0,1,47,23Z"/></g></svg>