<svg xmlns="http://www.w3.org/2000/svg" xmlns:xlink="http://www.w3.org/1999/xlink" viewBox="0 0 48 48"><defs><style>.cls-1{fill:#8ad3fe;}.cls-2{fill:#54a5ff;}.cls-3{fill:url(#linear-gradient);}.cls-4{fill:#ffb369;}</style><linearGradient id="linear-gradient" x1="24" y1="27" x2="34" y2="27" gradientUnits="userSpaceOnUse"><stop offset="0" stop-color="#54a5ff"/><stop offset="1" stop-color="#8ad3fe"/></linearGradient></defs><title>Recycling Data</title><g id="Recycling_Data" data-name="Recycling Data"><polygon class="cls-1" points="34 18 24 24 14 18 24 12 34 18"/><polygon class="cls-2" points="24 24 24 36 14 30 14 18 24 24"/><polygon class="cls-3" points="34 18 34 30 24 36 24 24 34 18"/><path class="cls-4" d="M44.42,13.4a1,1,0,0,0-1.78.92A21,21,0,0,1,9.87,39.54l.69-.69a1,1,0,0,0-.7-1.71H7a1,1,0,0,0-1,1c0,3.08-.09,3.16.29,3.54a1,1,0,0,0,1.42,0l.74-.74A23,23,0,0,0,44.42,13.4Z"/><path class="cls-4" d="M9.15,9.15a21,21,0,0,1,29-.69c-.65.65-1.22,1-.91,1.78s1.12.62,3.75.62a1,1,0,0,0,1-1c0-2.54.23-3.4-.62-3.75s-1.12.25-1.81.94a23,23,0,0,0-36,27.55,1,1,0,0,0,1.78-.92A20.91,20.91,0,0,1,9.15,9.15Z"/></g></svg>