<svg xmlns="http://www.w3.org/2000/svg" xmlns:xlink="http://www.w3.org/1999/xlink" viewBox="0 0 48 48"><defs><style>.cls-1{fill:#d7e9f7;}.cls-2{fill:url(#linear-gradient);}.cls-3{fill:url(#linear-gradient-2);}.cls-4{fill:url(#linear-gradient-3);}.cls-5{fill:url(#linear-gradient-4);}.cls-6{fill:url(#linear-gradient-5);}.cls-7{fill:url(#linear-gradient-6);}.cls-8{fill:url(#linear-gradient-7);}.cls-9{fill:url(#linear-gradient-8);}.cls-10{fill:url(#linear-gradient-9);}.cls-11{fill:url(#linear-gradient-10);}.cls-12{fill:url(#linear-gradient-11);}</style><linearGradient id="linear-gradient" x1="10" y1="24" x2="38" y2="24" gradientUnits="userSpaceOnUse"><stop offset="0" stop-color="#54a5ff"/><stop offset="1" stop-color="#8ad3fe"/></linearGradient><linearGradient id="linear-gradient-2" x1="13.98" y1="24.26" x2="33.38" y2="24.26" gradientUnits="userSpaceOnUse"><stop offset="0" stop-color="#d3e6f5"/><stop offset="1" stop-color="#f0f7fc"/></linearGradient><linearGradient id="linear-gradient-3" x1="22" y1="3" x2="26" y2="3" xlink:href="#linear-gradient"/><linearGradient id="linear-gradient-4" x1="37" y1="9" x2="41" y2="9" xlink:href="#linear-gradient"/><linearGradient id="linear-gradient-5" x1="37" y1="39" x2="41" y2="39" xlink:href="#linear-gradient"/><linearGradient id="linear-gradient-6" x1="7" y1="9" x2="11" y2="9" xlink:href="#linear-gradient"/><linearGradient id="linear-gradient-7" x1="7" y1="39" x2="11" y2="39" xlink:href="#linear-gradient"/><linearGradient id="linear-gradient-8" x1="43" x2="47" xlink:href="#linear-gradient"/><linearGradient id="linear-gradient-9" x1="22" y1="45" x2="26" y2="45" xlink:href="#linear-gradient"/><linearGradient id="linear-gradient-10" x1="1" x2="5" xlink:href="#linear-gradient"/><linearGradient id="linear-gradient-11" x1="30" y1="21.5" x2="38" y2="21.5" xlink:href="#linear-gradient-2"/></defs><title>Global Data</title><g id="Global_Data" data-name="Global Data"><path class="cls-1" d="M23,10V5a1,1,0,0,1,2,0v5A1,1,0,0,1,23,10Z"/><path class="cls-1" d="M10,25H5a1,1,0,0,1,0-2h5A1,1,0,0,1,10,25Z"/><path class="cls-1" d="M14,15c-.56,0-.3.12-4.71-4.29a1,1,0,0,1,1.42-1.42l4,4A1,1,0,0,1,14,15Z"/><path class="cls-1" d="M34,15a1,1,0,0,1-.71-1.71l4-4a1,1,0,0,1,1.42,1.42C34.34,15.08,34.56,15,34,15Z"/><path class="cls-1" d="M38,39c-.56,0-.3.12-4.71-4.29a1,1,0,0,1,1.42-1.42l4,4A1,1,0,0,1,38,39Z"/><path class="cls-1" d="M10,39a1,1,0,0,1-.71-1.71l4-4a1,1,0,0,1,1.42,1.42C10.34,39.08,10.56,39,10,39Z"/><path class="cls-1" d="M23,43V38a1,1,0,0,1,2,0v5A1,1,0,0,1,23,43Z"/><path class="cls-1" d="M43,25H38a1,1,0,0,1,0-2h5A1,1,0,0,1,43,25Z"/><circle class="cls-2" cx="24" cy="24" r="14"/><path class="cls-3" d="M33.38,34.38A13.93,13.93,0,0,1,24,38l-9.52-9.52c-.66-.66-.48-.16-.48-14.27a13.93,13.93,0,0,1,6.26-3.7,3.51,3.51,0,0,1-.55,2.43,1.55,1.55,0,0,0,2.39,2l1.2-1.2a2.41,2.41,0,0,1,3.79,2.9c-2.49,4.36-2.7,5.3-4.27,5.7-1.4.34-2.76.51-3.32,2.19A2.89,2.89,0,0,0,20,27.22c1.87,2.25,3.47,4.87,7.14,4.25C30.22,31,31.79,32.79,33.38,34.38Z"/><circle class="cls-4" cx="24" cy="3" r="2"/><circle class="cls-5" cx="39" cy="9" r="2"/><circle class="cls-6" cx="39" cy="39" r="2"/><circle class="cls-7" cx="9" cy="9" r="2"/><circle class="cls-8" cx="9" cy="39" r="2"/><circle class="cls-9" cx="45" cy="24" r="2"/><circle class="cls-10" cx="24" cy="45" r="2"/><circle class="cls-11" cx="3" cy="24" r="2"/><path class="cls-12" d="M37.86,26H32.5a2.5,2.5,0,0,1,0-5H33V19.5A2.5,2.5,0,0,1,35.5,17h.62A13.92,13.92,0,0,1,37.86,26Z"/><path class="cls-1" d="M41.54,33.59a19.53,19.53,0,0,0,1.65-3.94,1,1,0,0,1,1.92.56,20.83,20.83,0,0,1-1.82,4.34A1,1,0,0,1,41.54,33.59Z"/><path class="cls-1" d="M29.93,45.14a1,1,0,0,1-.28-2,19.29,19.29,0,0,0,4-1.64,1,1,0,0,1,1,1.76A19.2,19.2,0,0,1,29.93,45.14Z"/><path class="cls-1" d="M18.07,45.15a18.76,18.76,0,0,1-4.62-1.86,1,1,0,0,1,1-1.75,19.53,19.53,0,0,0,3.94,1.65A1,1,0,0,1,18.07,45.15Z"/><path class="cls-1" d="M13.93,6.58a1,1,0,0,1-.48-1.87,21.29,21.29,0,0,1,4.34-1.82,1,1,0,0,1,.56,1.92C15.13,5.76,14.6,6.58,13.93,6.58Z"/><path class="cls-1" d="M3.85,19.07a1,1,0,0,1-1-1.28,21.5,21.5,0,0,1,1.82-4.35,1,1,0,0,1,1.74,1C4.58,17.75,5.13,19.07,3.85,19.07Z"/><path class="cls-1" d="M4.7,34.56a21.83,21.83,0,0,1-1.8-4.35,1,1,0,0,1,1.92-.56,19.29,19.29,0,0,0,1.64,4A1,1,0,0,1,4.7,34.56Z"/><path class="cls-1" d="M44.14,19.07c-1.25,0-.69-1.2-2.6-4.67a1,1,0,0,1,1.76-1,21.83,21.83,0,0,1,1.8,4.35A1,1,0,0,1,44.14,19.07Z"/><path class="cls-1" d="M34.07,6.58c-.67,0-1.27-.83-4.42-1.77a1,1,0,0,1,.56-1.92,21.29,21.29,0,0,1,4.34,1.82A1,1,0,0,1,34.07,6.58Z"/></g></svg>