<svg xmlns="http://www.w3.org/2000/svg" xmlns:xlink="http://www.w3.org/1999/xlink" viewBox="0 0 48 48"><defs><style>.cls-1{fill:url(#linear-gradient);}.cls-2{fill:url(#linear-gradient-2);}.cls-3{fill:url(#linear-gradient-3);}.cls-4{fill:#4795ea;}</style><linearGradient id="linear-gradient" x1="3" y1="22" x2="45" y2="22" gradientUnits="userSpaceOnUse"><stop offset="0" stop-color="#d3e6f5"/><stop offset="1" stop-color="#f0f7fc"/></linearGradient><linearGradient id="linear-gradient-2" x1="1" y1="38" x2="47" y2="38" gradientUnits="userSpaceOnUse"><stop offset="0" stop-color="#54a5ff"/><stop offset="1" stop-color="#8ad3fe"/></linearGradient><linearGradient id="linear-gradient-3" x1="14" y1="21" x2="34" y2="21" xlink:href="#linear-gradient-2"/></defs><title>Global</title><g id="Global"><path class="cls-1" d="M45,9V35H29l-1,2H20l-1-2H3V9A2,2,0,0,1,5,7H43A2,2,0,0,1,45,9Z"/><path class="cls-2" d="M47,35v2a4,4,0,0,1-4,4H5a4,4,0,0,1-4-4V35H19l1,2h8l1-2Z"/><path class="cls-3" d="M34,21a10,10,0,1,1-11.42-9.89A10,10,0,0,1,34,21Z"/><path class="cls-4" d="M34,20h-4a13,13,0,0,0-4.52-8.89,9,9,0,0,0-2.84,0A13,13,0,0,0,18.06,20h-4a9.55,9.55,0,0,0,0,2h4a13,13,0,0,0,4.52,8.89,9,9,0,0,0,2.84,0A13,13,0,0,0,29.94,22h4A9.55,9.55,0,0,0,34,20ZM24,29.46A11,11,0,0,1,20.06,22h7.88A11,11,0,0,1,24,29.46ZM20.06,20A11,11,0,0,1,24,12.54,11,11,0,0,1,27.94,20Z"/></g></svg>