<?xml version="1.0" encoding="UTF-8"?>
<!DOCTYPE svg PUBLIC "-//W3C//DTD SVG 1.1//EN" "http://www.w3.org/Graphics/SVG/1.1/DTD/svg11.dtd">
<!-- Creator: CorelDRAW -->
<svg xmlns="http://www.w3.org/2000/svg" xml:space="preserve" width="2048px" height="2048px" style="shape-rendering:geometricPrecision; text-rendering:geometricPrecision; image-rendering:optimizeQuality; fill-rule:evenodd; clip-rule:evenodd"
viewBox="0 0 2048 2048"
 xmlns:xlink="http://www.w3.org/1999/xlink">
 <defs>
  <style type="text/css">
   <![CDATA[
    .fil0 {fill:none}
    .fil4 {fill:#D32F2F}
    .fil1 {fill:#EF9A9A}
    .fil2 {fill:#FFCDD2}
    .fil3 {fill:#D32F2F;fill-rule:nonzero}
    .fil5 {fill:white;fill-rule:nonzero}
   ]]>
  </style>
 </defs>
 <g id="Layer_x0020_1">
  <metadata id="CorelCorpID_0Corel-Layer"/>
  <rect class="fil0" width="2048" height="2048"/>
  <rect class="fil0" x="255.999" y="255.999" width="1536" height="1536"/>
  <path class="fil1" d="M1303.19 263.999l328.759 329.158 -269.982 0c-32.328,0 -58.7764,-26.4484 -58.7764,-58.7764l0 -270.382z"/>
  <path class="fil2" d="M454.851 263.999l848.395 0 0 268.747c0,33.228 27.1843,60.4111 60.4111,60.4111l268.344 0 0 814.843c0,22.0004 -17.9988,39.9992 -39.9992,39.9992l-1137.15 0c-22.0004,0 -39.9992,-17.9988 -39.9992,-39.9992l0 -1104c0,-22.0004 17.9988,-39.9992 39.9992,-39.9992z"/>
  <polygon class="fil3" points="671.999,763.342 1408,763.342 1408,827.344 671.999,827.344 "/>
  <polygon class="fil3" points="671.999,987.337 1408,987.337 1408,1051.34 671.999,1051.34 "/>
  <path class="fil4" d="M337.396 1226.19l1373.21 0c22.3748,0 42.7347,9.23387 57.5103,24.1075 14.7378,14.8358 23.8866,35.2382 23.8866,57.6189l0 394.353c0,22.3807 -9.15001,42.7819 -23.8866,57.6178 -14.7768,14.8736 -35.1366,24.1087 -57.5103,24.1087l-1373.21 0c-22.3725,0 -42.7347,-9.23505 -57.5115,-24.1087 -14.7366,-14.8335 -23.8855,-35.2347 -23.8855,-57.6178l0 -394.353c0,-22.3819 9.14883,-42.7831 23.8855,-57.6189 14.7744,-14.8736 35.1366,-24.1075 57.5115,-24.1075z"/>
  <path class="fil5" d="M874.499 1681.01l-78.6662 0 -31.2496 -81.3331 -143.084 0 -29.5004 81.3331 -76.6666 0 139.416 -357.917 76.4174 0 143.333 357.917zm-133.083 -141.584l-49.3335 -132.833 -48.3331 132.833 97.6666 0zm170.916 -216.333l72.2504 0 0 193.833c0,30.75 0.916536,50.7508 2.66693,59.8335 3.08268,14.6669 10.5,26.4166 22.0831,35.25 11.6669,8.91615 27.5835,13.3335 47.7496,13.3335 20.5004,0 36,-4.16693 46.4174,-12.5835 10.4161,-8.33386 16.6665,-18.6662 18.75,-30.8327 2.16614,-12.2504 3.16654,-32.5004 3.16654,-60.8339l0 -198 72.2493 0 0 188c0,43.0004 -1.91575,73.3335 -5.83229,91.0831 -3.91772,17.7508 -11.0835,32.667 -21.5835,44.9174 -10.5,12.1665 -24.5835,21.9166 -42.0839,29.1662 -17.5831,7.25079 -40.5827,10.8343 -68.9162,10.8343 -34.167,0 -60.0839,-3.91772 -77.7508,-11.8335 -17.6658,-7.91694 -31.5827,-18.1665 -41.8323,-30.75 -10.2508,-12.5835 -17.0008,-25.8343 -20.25,-39.6674 -4.7504,-20.4992 -7.08426,-50.7496 -7.08426,-90.8327l0 -190.917zm442.083 357.917l0 -297.333 -106.166 0 0 -60.5835 284.417 0 0 60.5835 -105.917 0 0 297.333 -72.3343 0z"/>
 </g>
</svg>
