<?xml version="1.0" encoding="UTF-8"?>
<!DOCTYPE svg PUBLIC "-//W3C//DTD SVG 1.1//EN" "http://www.w3.org/Graphics/SVG/1.1/DTD/svg11.dtd">
<!-- Creator: CorelDRAW -->
<svg xmlns="http://www.w3.org/2000/svg" xml:space="preserve" width="2048px" height="2048px" style="shape-rendering:geometricPrecision; text-rendering:geometricPrecision; image-rendering:optimizeQuality; fill-rule:evenodd; clip-rule:evenodd"
viewBox="0 0 2048 2048"
 xmlns:xlink="http://www.w3.org/1999/xlink">
 <defs>
  <style type="text/css">
   <![CDATA[
    .fil0 {fill:none}
    .fil4 {fill:#D32F2F}
    .fil1 {fill:#EF9A9A}
    .fil2 {fill:#FFCDD2}
    .fil3 {fill:#D32F2F;fill-rule:nonzero}
    .fil5 {fill:white;fill-rule:nonzero}
   ]]>
  </style>
 </defs>
 <g id="Layer_x0020_1">
  <metadata id="CorelCorpID_0Corel-Layer"/>
  <rect class="fil0" width="2048" height="2048"/>
  <rect class="fil0" x="255.999" y="255.999" width="1536" height="1536"/>
  <path class="fil1" d="M1303.19 263.999l328.759 329.158 -269.982 0c-32.328,0 -58.7764,-26.4484 -58.7764,-58.7764l0 -270.382z"/>
  <path class="fil2" d="M454.851 263.999l848.395 0 0 268.747c0,33.228 27.1843,60.4111 60.4111,60.4111l268.344 0 0 814.843c0,22.0004 -17.9988,39.9992 -39.9992,39.9992l-1137.15 0c-22.0004,0 -39.9992,-17.9988 -39.9992,-39.9992l0 -1104c0,-22.0004 17.9988,-39.9992 39.9992,-39.9992z"/>
  <polygon class="fil3" points="671.999,763.342 1408,763.342 1408,827.344 671.999,827.344 "/>
  <polygon class="fil3" points="671.999,987.337 1408,987.337 1408,1051.34 671.999,1051.34 "/>
  <path class="fil4" d="M337.396 1226.19l1373.21 0c22.3748,0 42.7347,9.23387 57.5103,24.1075 14.7378,14.8358 23.8866,35.2382 23.8866,57.6189l0 394.353c0,22.3807 -9.15001,42.7819 -23.8866,57.6178 -14.7768,14.8736 -35.1366,24.1087 -57.5103,24.1087l-1373.21 0c-22.3725,0 -42.7347,-9.23505 -57.5115,-24.1087 -14.7366,-14.8335 -23.8855,-35.2347 -23.8855,-57.6178l0 -394.353c0,-22.3819 9.14883,-42.7831 23.8855,-57.6189 14.7744,-14.8736 35.1366,-24.1075 57.5115,-24.1075z"/>
  <path class="fil5" d="M557.834 1684.05l0 -357.917 115.916 0c43.917,0 72.5835,1.83307 85.917,5.41654 20.5004,5.33386 37.7504,17.0008 51.5835,35.0008 13.8331,18 20.7496,41.25 20.7496,69.6662 0,22.0004 -3.99922,40.5 -12,55.4162 -7.99961,15 -18.0827,26.7508 -30.4158,35.3339 -12.2504,8.5004 -24.75,14.1662 -37.4174,16.9169 -17.25,3.41575 -42.2492,5.16615 -75.0001,5.16615l-47.0835 0 0 135 -72.2493 0zm72.2493 -297.333l0 101.5 39.5008 0c28.5,0 47.5831,-1.83425 57.1666,-5.58426 9.58347,-3.75 17.0835,-9.58347 22.5827,-17.5831 5.41654,-7.99961 8.16733,-17.25 8.16733,-27.8327 0,-13.0004 -3.83386,-23.7508 -11.5004,-32.25 -7.58268,-8.41654 -17.3327,-13.7504 -28.9996,-15.8339 -8.66694,-1.66654 -26.0008,-2.41654 -52.0004,-2.41654l-34.917 0zm261.417 297.333l0 -357.917 72.3331 0 0 140.834 141.584 0 0 -140.834 72.2493 0 0 357.917 -72.2493 0 0 -156.5 -141.584 0 0 156.5 -72.3331 0zm360.917 0l0 -357.917 115.916 0c43.917,0 72.5835,1.83307 85.917,5.41654 20.5004,5.33386 37.7504,17.0008 51.5835,35.0008 13.8331,18 20.7496,41.25 20.7496,69.6662 0,22.0004 -3.99922,40.5 -12,55.4162 -7.99961,15 -18.0827,26.7508 -30.4158,35.3339 -12.2504,8.5004 -24.75,14.1662 -37.4174,16.9169 -17.25,3.41575 -42.2492,5.16615 -75.0001,5.16615l-47.0835 0 0 135 -72.2493 0zm72.2493 -297.333l0 101.5 39.5008 0c28.5,0 47.5831,-1.83425 57.1666,-5.58426 9.58347,-3.75 17.0835,-9.58347 22.5827,-17.5831 5.41654,-7.99961 8.16733,-17.25 8.16733,-27.8327 0,-13.0004 -3.83386,-23.7508 -11.5004,-32.25 -7.58268,-8.41654 -17.3327,-13.7504 -28.9996,-15.8339 -8.66694,-1.66654 -26.0008,-2.41654 -52.0004,-2.41654l-34.917 0z"/>
 </g>
</svg>
