<?xml version="1.0" encoding="UTF-8"?>
<!DOCTYPE svg PUBLIC "-//W3C//DTD SVG 1.1//EN" "http://www.w3.org/Graphics/SVG/1.1/DTD/svg11.dtd">
<!-- Creator: CorelDRAW -->
<svg xmlns="http://www.w3.org/2000/svg" xml:space="preserve" width="2048px" height="2048px" style="shape-rendering:geometricPrecision; text-rendering:geometricPrecision; image-rendering:optimizeQuality; fill-rule:evenodd; clip-rule:evenodd"
viewBox="0 0 2048 2048"
 xmlns:xlink="http://www.w3.org/1999/xlink">
 <defs>
  <style type="text/css">
   <![CDATA[
    .fil0 {fill:none}
    .fil4 {fill:#43A047}
    .fil1 {fill:#A5D6A7}
    .fil2 {fill:#C8E6C9}
    .fil3 {fill:#43A047;fill-rule:nonzero}
    .fil5 {fill:white;fill-rule:nonzero}
   ]]>
  </style>
 </defs>
 <g id="Layer_x0020_1">
  <metadata id="CorelCorpID_0Corel-Layer"/>
  <rect class="fil0" width="2048" height="2048"/>
  <rect class="fil0" x="255.999" y="255.999" width="1536" height="1536"/>
  <path class="fil1" d="M1303.19 263.999l328.759 329.158 -269.982 0c-32.328,0 -58.7764,-26.4484 -58.7764,-58.7764l0 -270.382z"/>
  <path class="fil2" d="M454.851 263.999l848.395 0 0 268.747c0,33.228 27.1843,60.4111 60.4111,60.4111l268.344 0 0 814.843c0,22.0004 -17.9988,39.9992 -39.9992,39.9992l-1137.15 0c-22.0004,0 -39.9992,-17.9988 -39.9992,-39.9992l0 -1104c0,-22.0004 17.9988,-39.9992 39.9992,-39.9992z"/>
  <polygon class="fil3" points="671.999,763.342 1408,763.342 1408,827.344 671.999,827.344 "/>
  <polygon class="fil3" points="671.999,987.337 1408,987.337 1408,1051.34 671.999,1051.34 "/>
  <path class="fil4" d="M337.396 1226.19l1373.21 0c22.3748,0 42.7347,9.23387 57.5103,24.1075 14.7378,14.8358 23.8866,35.2382 23.8866,57.6189l0 394.353c0,22.3807 -9.15001,42.7819 -23.8866,57.6178 -14.7768,14.8736 -35.1366,24.1087 -57.5103,24.1087l-1373.21 0c-22.3725,0 -42.7347,-9.23505 -57.5115,-24.1087 -14.7366,-14.8335 -23.8855,-35.2347 -23.8855,-57.6178l0 -394.353c0,-22.3819 9.14883,-42.7831 23.8855,-57.6189 14.7744,-14.8736 35.1366,-24.1075 57.5115,-24.1075z"/>
  <path class="fil5" d="M503.875 1684.05l122.333 -186.75 -110.832 -171.167 84.4158 0 71.8335 115 70.2508 -115 83.7497 0 -111.333 173.834 122.333 184.083 -87.1666 0 -79.3335 -123.75 -79.5827 123.75 -86.667 0zm368.916 0l0 -357.917 108.167 0 64.917 244.167 64.167 -244.167 108.416 0 0 357.917 -67.0831 0 0 -281.75 -71.0835 281.75 -69.5835 0 -70.8331 -281.75 0 281.75 -67.0831 0zm419.417 0l0 -354.999 72.2493 0 0 294.666 179.667 0 0 60.3331 -251.916 0z"/>
 </g>
</svg>
