<?xml version="1.0" encoding="UTF-8"?>
<!DOCTYPE svg PUBLIC "-//W3C//DTD SVG 1.1//EN" "http://www.w3.org/Graphics/SVG/1.1/DTD/svg11.dtd">
<!-- Creator: CorelDRAW -->
<svg xmlns="http://www.w3.org/2000/svg" xml:space="preserve" width="2048px" height="2048px" style="shape-rendering:geometricPrecision; text-rendering:geometricPrecision; image-rendering:optimizeQuality; fill-rule:evenodd; clip-rule:evenodd"
viewBox="0 0 2048 2048"
 xmlns:xlink="http://www.w3.org/1999/xlink">
 <defs>
  <style type="text/css">
   <![CDATA[
    .fil0 {fill:none}
    .fil4 {fill:#43A047}
    .fil1 {fill:#A5D6A7}
    .fil2 {fill:#C8E6C9}
    .fil3 {fill:#43A047;fill-rule:nonzero}
    .fil5 {fill:white;fill-rule:nonzero}
   ]]>
  </style>
 </defs>
 <g id="Layer_x0020_1">
  <metadata id="CorelCorpID_0Corel-Layer"/>
  <rect class="fil0" width="2048" height="2048"/>
  <rect class="fil0" x="255.999" y="255.999" width="1536" height="1536"/>
  <path class="fil1" d="M1303.19 255.999l328.759 329.158 -269.982 0c-32.328,0 -58.7764,-26.4484 -58.7764,-58.7764l0 -270.382z"/>
  <path class="fil2" d="M454.851 255.999l848.395 0 0 268.747c0,33.228 27.1843,60.4111 60.4111,60.4111l268.344 0 0 814.843c0,22.0004 -17.9988,39.9992 -39.9992,39.9992l-1137.15 0c-22.0004,0 -39.9992,-17.9988 -39.9992,-39.9992l0 -1104c0,-22.0004 17.9988,-39.9992 39.9992,-39.9992z"/>
  <polygon class="fil3" points="671.999,755.343 1408,755.343 1408,819.344 671.999,819.344 "/>
  <polygon class="fil3" points="671.999,979.338 1408,979.338 1408,1043.34 671.999,1043.34 "/>
  <path class="fil4" d="M337.396 1218.19l1373.21 0c22.3748,0 42.7347,9.23387 57.5103,24.1075 14.7378,14.8358 23.8866,35.2382 23.8866,57.6189l0 394.353c0,22.3807 -9.15001,42.7819 -23.8866,57.6178 -14.7768,14.8736 -35.1366,24.1087 -57.5103,24.1087l-1373.21 0c-22.3725,0 -42.7347,-9.23505 -57.5115,-24.1087 -14.7366,-14.8335 -23.8855,-35.2347 -23.8855,-57.6178l0 -394.353c0,-22.3819 9.14883,-42.7831 23.8855,-57.6189 14.7744,-14.8736 35.1366,-24.1075 57.5115,-24.1075z"/>
  <path class="fil5" d="M338.25 1318.14l132.084 0c29.7496,0 52.4162,2.25 68.0823,6.83386 21,6.16654 39,17.1662 53.9174,33 15,15.75 26.4166,35.0835 34.2496,57.9166 7.7504,22.9158 11.6669,51.0827 11.6669,84.6662 0,29.4166 -3.66733,54.8339 -10.9996,76.167 -8.91733,25.9996 -21.6673,47.0835 -38.3339,63.1666 -12.4996,12.2504 -29.4166,21.75 -50.7496,28.5827 -15.9165,5.08347 -37.2508,7.58386 -64.0004,7.58386l-135.917 0 0 -357.917zm72.2504 60.5835l0 237 53.9162 0c20.1673,0 34.7504,-1.08307 43.7504,-3.41693 11.6669,-2.91614 21.4169,-7.83308 29.1662,-14.8335 7.7504,-6.99922 14.0008,-18.5835 18.9165,-34.5827 4.83307,-16.0004 7.33347,-37.917 7.33347,-65.5843 0,-27.6662 -2.5004,-48.8327 -7.33347,-63.6662 -4.91575,-14.8335 -11.7496,-26.4166 -20.4992,-34.6666 -8.83347,-8.33386 -20.0008,-13.9169 -33.5008,-16.8331 -10.0831,-2.33386 -29.8335,-3.41693 -59.3327,-3.41693l-32.4166 0zm274.416 120.584c0,-36.5008 5.41654,-67.0831 16.3335,-91.8331 8.16615,-18.1665 19.2496,-34.5839 33.3331,-49.0843 14.0835,-14.4165 29.5004,-25.1658 46.2496,-32.1662 22.3335,-9.49961 48,-14.1662 77.1674,-14.1662 52.7493,0 94.9158,16.3323 126.584,49.0831 31.6666,32.667 47.4992,78.1666 47.4992,136.416 0,57.8339 -15.75,103 -47.1662,135.666 -31.4173,32.5843 -73.4174,48.9178 -125.917,48.9178 -53.25,0 -95.5831,-16.2508 -126.999,-48.6674 -31.4173,-32.5004 -47.0835,-77.2501 -47.0835,-134.166zm74.4166 -2.41654c0,40.5 9.41694,71.2501 28.0831,92.1662 18.75,20.9162 42.5008,31.3335 71.3339,31.3335 28.7492,0 52.4162,-10.3335 70.9158,-31.167 18.4169,-20.7496 27.6673,-51.8327 27.6673,-93.3331 0,-40.9996 -9.00001,-71.5831 -26.9173,-91.8331 -17.9988,-20.1673 -41.9162,-30.2504 -71.6658,-30.2504 -29.8335,0 -53.8335,10.2508 -72.0839,30.6673 -18.1665,20.4166 -27.3331,51.1666 -27.3331,92.4166zm558.167 47.5831l70.0004 22.1669c-10.7504,39.0827 -28.5839,68.0823 -53.5831,87.0827 -24.9166,18.9165 -56.667,28.4173 -95.0835,28.4173 -47.5004,0 -86.5831,-16.2508 -117.167,-48.6674 -30.5835,-32.5004 -45.9166,-76.917 -45.9166,-133.167 0,-59.5831 15.4169,-105.833 46.167,-138.833 30.7488,-32.9162 71.1662,-49.4162 121.332,-49.4162 43.7504,0 79.3335,12.9165 106.667,38.8323 16.3335,15.2504 28.5,37.2508 36.6674,65.9174l-71.5831 17.0835c-4.16693,-18.5835 -13.0004,-33.2504 -26.5004,-44.0008 -13.4162,-10.7492 -29.7496,-16.0831 -48.9166,-16.0831 -26.5004,0 -48.0839,9.50079 -64.5839,28.5839 -16.5,18.9992 -24.75,49.8331 -24.75,92.4993 0,45.2504 8.08347,77.5005 24.4169,96.6674 16.2496,19.2496 37.4174,28.8331 63.417,28.8331 19.2496,0 35.7496,-6.08386 49.5827,-18.3331 13.8343,-12.1665 23.7508,-31.4173 29.8335,-57.5835zm95.667 131.583l122.333 -186.75 -110.832 -171.167 84.4158 0 71.8335 115 70.2508 -115 83.7497 0 -111.333 173.834 122.333 184.083 -87.1666 0 -79.3335 -123.75 -79.5827 123.75 -86.667 0z"/>
 </g>
</svg>
