<?xml version="1.0" encoding="UTF-8"?>
<!DOCTYPE svg PUBLIC "-//W3C//DTD SVG 1.1//EN" "http://www.w3.org/Graphics/SVG/1.1/DTD/svg11.dtd">
<!-- Creator: CorelDRAW -->
<svg xmlns="http://www.w3.org/2000/svg" xml:space="preserve" width="2048px" height="2048px" style="shape-rendering:geometricPrecision; text-rendering:geometricPrecision; image-rendering:optimizeQuality; fill-rule:evenodd; clip-rule:evenodd"
viewBox="0 0 2048 2048"
 xmlns:xlink="http://www.w3.org/1999/xlink">
 <defs>
  <style type="text/css">
   <![CDATA[
    .fil0 {fill:none}
    .fil4 {fill:#D32F2F}
    .fil1 {fill:#EF9A9A}
    .fil2 {fill:#FFCDD2}
    .fil3 {fill:#D32F2F;fill-rule:nonzero}
    .fil5 {fill:white;fill-rule:nonzero}
   ]]>
  </style>
 </defs>
 <g id="Layer_x0020_1">
  <metadata id="CorelCorpID_0Corel-Layer"/>
  <rect class="fil0" width="2048" height="2048"/>
  <rect class="fil0" x="255.999" y="255.999" width="1536" height="1536"/>
  <g id="_298036240">
   <g>
    <g>
     <path id="_298037008" class="fil1" d="M1303.19 263.999l328.759 329.158 -269.982 0c-32.328,0 -58.7764,-26.4484 -58.7764,-58.7764l0 -270.382z"/>
     <path id="_298036744" class="fil2" d="M454.851 263.999l848.395 0 0 268.747c0,33.228 27.1843,60.4111 60.4111,60.4111l268.344 0 0 814.843c0,22.0004 -17.9988,39.9992 -39.9992,39.9992l-1137.15 0c-22.0004,0 -39.9992,-17.9988 -39.9992,-39.9992l0 -1104c0,-22.0004 17.9988,-39.9992 39.9992,-39.9992z"/>
    </g>
    <path id="_298036576" class="fil3" d="M854.668 1022.85l0 -389.67c112.499,64.9489 225.023,129.854 337.519,194.805l-337.519 194.864z"/>
   </g>
   <g>
    <path id="_298036432" class="fil4" d="M337.396 1226.19l1373.21 0c22.3748,0 42.7347,9.23387 57.5103,24.1075 14.7378,14.8358 23.8866,35.2382 23.8866,57.6189l0 394.353c0,22.3807 -9.15001,42.7819 -23.8866,57.6178 -14.7768,14.8736 -35.1366,24.1087 -57.5103,24.1087l-1373.21 0c-22.3725,0 -42.7347,-9.23505 -57.5115,-24.1087 -14.7366,-14.8335 -23.8855,-35.2347 -23.8855,-57.6178l0 -394.353c0,-22.3819 9.14883,-42.7831 23.8855,-57.6189 14.7744,-14.8736 35.1366,-24.1075 57.5115,-24.1075z"/>
    <path id="_298036336" class="fil5" d="M556.126 1681.76l0 -357.917 108.167 0 64.917 244.167 64.167 -244.167 108.416 0 0 357.917 -67.0831 0 0 -281.75 -71.0835 281.75 -69.5835 0 -70.8331 -281.75 0 281.75 -67.0831 0zm417.5 0l0 -357.917 115.916 0c43.917,0 72.5835,1.83307 85.917,5.41654 20.5004,5.33386 37.7504,17.0008 51.5835,35.0008 13.8331,18 20.7496,41.25 20.7496,69.6662 0,22.0004 -3.99922,40.5 -12,55.4162 -7.99961,15 -18.0827,26.7508 -30.4158,35.3339 -12.2504,8.5004 -24.75,14.1662 -37.4174,16.9169 -17.25,3.41575 -42.2492,5.16615 -75.0001,5.16615l-47.0835 0 0 135 -72.2493 0zm72.2493 -297.333l0 101.5 39.5008 0c28.5,0 47.5831,-1.83425 57.1666,-5.58426 9.58347,-3.75 17.0835,-9.58347 22.5827,-17.5831 5.41654,-7.99961 8.16733,-17.25 8.16733,-27.8327 0,-13.0004 -3.83386,-23.7508 -11.5004,-32.25 -7.58268,-8.41654 -17.3327,-13.7504 -28.9996,-15.8339 -8.66694,-1.66654 -26.0008,-2.41654 -52.0004,-2.41654l-34.917 0zm243.668 202.334l66.3331 -8.00079c2.16614,16.9169 7.83308,29.8335 17.1662,38.7508 9.2504,9.00001 20.5004,13.5 33.6673,13.5 14.1662,0 26.0823,-5.41654 35.7496,-16.1669 9.66615,-10.7504 14.5004,-25.1669 14.5004,-43.4162 0,-17.25 -4.58386,-30.9177 -13.9169,-41.0008 -9.2504,-10.1669 -20.5831,-15.1665 -33.9166,-15.1665 -8.75079,0 -19.2508,1.66654 -31.5,5.08347l7.58268 -55.8331c18.5835,0.416929 32.7508,-3.58347 42.5008,-12.0839 9.75001,-8.58308 14.6658,-19.9169 14.6658,-34.0831 0,-12.0827 -3.58347,-21.6662 -10.7492,-28.8331 -7.16693,-7.16693 -16.7504,-10.7504 -28.5839,-10.7504 -11.7496,0 -21.75,4.08307 -30,12.2504 -8.33268,8.08347 -13.4162,19.9996 -15.1665,35.5831l-63.2504 -10.6665c4.41733,-21.6662 11.0008,-39 19.9169,-51.9166 8.83347,-12.9165 21.2504,-23.0835 37.0831,-30.4996 15.9165,-7.41733 33.6673,-11.1673 53.3339,-11.1673 33.75,0 60.75,10.7504 81.0827,32.25 16.7504,17.5831 25.1669,37.4174 25.1669,59.5831 0,31.4173 -17.1662,56.5004 -51.4996,75.1666 20.5004,4.41733 36.8327,14.25 49.167,29.5843 12.2492,15.2492 18.4158,33.75 18.4158,55.4162 0,31.4162 -11.4992,58.167 -34.4162,80.3327 -22.9169,22.0843 -51.4996,33.1677 -85.6666,33.1677 -32.4166,0 -59.25,-9.33426 -80.5831,-27.9177 -21.3331,-18.6662 -33.6673,-42.9992 -37.0831,-73.1658z"/>
   </g>
  </g>
 </g>
</svg>
