<?xml version="1.0" encoding="UTF-8"?>
<!DOCTYPE svg PUBLIC "-//W3C//DTD SVG 1.1//EN" "http://www.w3.org/Graphics/SVG/1.1/DTD/svg11.dtd">
<!-- Creator: CorelDRAW -->
<svg xmlns="http://www.w3.org/2000/svg" xml:space="preserve" width="2048px" height="2048px" style="shape-rendering:geometricPrecision; text-rendering:geometricPrecision; image-rendering:optimizeQuality; fill-rule:evenodd; clip-rule:evenodd"
viewBox="0 0 2048 2048"
 xmlns:xlink="http://www.w3.org/1999/xlink">
 <defs>
  <style type="text/css">
   <![CDATA[
    .fil0 {fill:none}
    .fil4 {fill:#039BE5}
    .fil1 {fill:#81D4FA}
    .fil2 {fill:#B3E5FC}
    .fil3 {fill:#039BE5;fill-rule:nonzero}
    .fil5 {fill:white;fill-rule:nonzero}
   ]]>
  </style>
 </defs>
 <g id="Layer_x0020_1">
  <metadata id="CorelCorpID_0Corel-Layer"/>
  <rect class="fil0" width="2048" height="2048"/>
  <rect class="fil0" x="255.999" y="255.999" width="1536" height="1536"/>
  <path class="fil1" d="M1303.19 263.999l328.759 329.158 -269.982 0c-32.328,0 -58.7764,-26.4484 -58.7764,-58.7764l0 -270.382z"/>
  <path class="fil2" d="M454.851 263.999l848.395 0 0 268.747c0,33.228 27.1843,60.4111 60.4111,60.4111l268.344 0 0 814.843c0,22.0004 -17.9988,39.9992 -39.9992,39.9992l-1137.15 0c-22.0004,0 -39.9992,-17.9988 -39.9992,-39.9992l0 -1104c0,-22.0004 17.9988,-39.9992 39.9992,-39.9992z"/>
  <polygon class="fil3" points="671.999,763.342 1408,763.342 1408,827.344 671.999,827.344 "/>
  <polygon class="fil3" points="671.999,987.337 1408,987.337 1408,1051.34 671.999,1051.34 "/>
  <path class="fil4" d="M337.396 1226.19l1373.21 0c22.3748,0 42.7347,9.23387 57.5103,24.1075 14.7378,14.8358 23.8866,35.2382 23.8866,57.6189l0 394.353c0,22.3807 -9.15001,42.7819 -23.8866,57.6178 -14.7768,14.8736 -35.1366,24.1087 -57.5103,24.1087l-1373.21 0c-22.3725,0 -42.7347,-9.23505 -57.5115,-24.1087 -14.7366,-14.8335 -23.8855,-35.2347 -23.8855,-57.6178l0 -394.353c0,-22.3819 9.14883,-42.7831 23.8855,-57.6189 14.7744,-14.8736 35.1366,-24.1075 57.5115,-24.1075z"/>
  <path class="fil5" d="M535.75 1552.72l70.3323 -6.91654c4.16693,23.6669 12.75,40.9996 25.7504,52.0831 12.9165,10.9996 30.3331,16.5839 52.3335,16.5839 23.25,0 40.8331,-4.91693 52.5827,-14.8335 11.8335,-9.83387 17.7508,-21.3331 17.7508,-34.5 0,-8.5004 -2.5004,-15.6673 -7.50001,-21.5835 -4.91693,-6 -13.5839,-11.1673 -26.0008,-15.4996 -8.41654,-3 -27.75,-8.16733 -57.8327,-15.6673 -38.7496,-9.58347 -65.9162,-21.4169 -81.4997,-35.4166 -22.0004,-19.6666 -33,-43.6666 -33,-72.0001 0,-18.2504 5.16615,-35.25 15.4996,-51.1666 10.3335,-15.8339 25.2496,-27.9166 44.667,-36.2504 19.5,-8.25001 42.9166,-12.4158 70.4162,-12.4158 45,0 78.7501,9.83268 101.5,29.4992 22.6666,19.7504 34.5827,46.0004 35.7496,78.9166l-72.2504 3.16654c-3.08268,-18.4158 -9.75001,-31.6666 -19.9158,-39.6662 -10.1669,-8.08347 -25.4173,-12.0839 -45.75,-12.0839 -21,0 -37.5,4.25079 -49.3335,12.9177 -7.66654,5.49922 -11.5004,12.9165 -11.5004,22.1658 0,8.5004 3.58347,15.75 10.7504,21.75 9.08268,7.66654 31.2496,15.6673 66.417,23.9173 35.1662,8.33268 61.1658,16.9158 77.9989,25.7492 16.8343,8.91733 30,21 39.5835,36.417 9.50079,15.4169 14.25,34.4173 14.25,57 0,20.5004 -5.66575,39.75 -17.0835,57.5835 -11.4165,17.9162 -27.4996,31.2496 -48.3331,39.9166 -20.8335,8.74961 -46.8331,13.0831 -77.9162,13.0831 -45.2504,0 -79.9997,-10.4161 -104.25,-31.3335 -24.2504,-20.9162 -38.7496,-51.4158 -43.4162,-91.4162zm639.916 70.9997c17.6669,12.6673 37.0004,22.8331 57.8339,30.2504l-26.5843 51.0827c-10.9158,-3.24922 -21.5823,-7.74922 -31.9996,-13.4162 -2.33268,-1.16693 -18.3331,-11.7496 -48.0827,-31.7504 -23.5004,10.2508 -49.4174,15.3343 -77.9174,15.3343 -54.9993,0 -98.0835,-16.1669 -129.249,-48.5835 -31.167,-32.3339 -46.7504,-77.8335 -46.7504,-136.417 0,-58.5 15.5835,-103.916 46.8331,-136.416 31.2496,-32.4166 73.6666,-48.6662 127.25,-48.6662 53.0008,0 95.0835,16.2496 126.167,48.6662 31.0843,32.5004 46.6678,77.9162 46.6678,136.416 0,30.9166 -4.33347,58.0843 -12.9177,81.5009 -6.58229,17.9162 -16.9996,35.25 -31.2496,51.9993zm-58.167 -40.7492c9.33426,-10.9169 16.2508,-24.0839 20.9173,-39.5835 4.58268,-15.4169 6.91654,-33.1666 6.91654,-53.1674 0,-41.4166 -9.08387,-72.2493 -27.3331,-92.6658 -18.2504,-20.4166 -42.0839,-30.6673 -71.5004,-30.6673 -29.5004,0 -53.3327,10.2508 -71.667,30.75 -18.3331,20.5004 -27.4996,51.3331 -27.4996,92.5831 0,41.7508 9.16654,73.0843 27.4996,93.8339 18.3343,20.7496 41.4166,31.167 69.417,31.167 10.4173,0 20.3339,-1.7504 29.5831,-5.16733 -14.6658,-9.58347 -29.5831,-17.0835 -44.6658,-22.5l20.25 -41.25c23.7496,8.16733 46.5,20.3339 68.0823,36.6674zm160.918 86.1662l0 -354.999 72.2493 0 0 294.666 179.667 0 0 60.3331 -251.916 0z"/>
 </g>
</svg>
