<?xml version="1.0" encoding="UTF-8"?>
<!DOCTYPE svg PUBLIC "-//W3C//DTD SVG 1.1//EN" "http://www.w3.org/Graphics/SVG/1.1/DTD/svg11.dtd">
<!-- Creator: CorelDRAW -->
<svg xmlns="http://www.w3.org/2000/svg" xml:space="preserve" width="2048px" height="2048px" style="shape-rendering:geometricPrecision; text-rendering:geometricPrecision; image-rendering:optimizeQuality; fill-rule:evenodd; clip-rule:evenodd"
viewBox="0 0 2048 2048"
 xmlns:xlink="http://www.w3.org/1999/xlink">
 <defs>
  <style type="text/css">
   <![CDATA[
    .fil0 {fill:none}
    .fil4 {fill:#00897B}
    .fil1 {fill:#80CBC4}
    .fil2 {fill:#B2DFDB}
    .fil3 {fill:#00897B;fill-rule:nonzero}
    .fil5 {fill:white;fill-rule:nonzero}
   ]]>
  </style>
 </defs>
 <g id="Layer_x0020_1">
  <metadata id="CorelCorpID_0Corel-Layer"/>
  <rect class="fil0" width="2048" height="2048"/>
  <rect class="fil0" x="255.999" y="255.999" width="1536" height="1536"/>
  <g id="_298037728">
   <g>
    <g>
     <path id="_298038496" class="fil1" d="M1303.19 263.999l328.759 329.158 -269.982 0c-32.328,0 -58.7764,-26.4484 -58.7764,-58.7764l0 -270.382z"/>
     <path id="_298038232" class="fil2" d="M454.851 263.999l848.395 0 0 268.747c0,33.228 27.1843,60.4111 60.4111,60.4111l268.344 0 0 814.843c0,22.0004 -17.9988,39.9992 -39.9992,39.9992l-1137.15 0c-22.0004,0 -39.9992,-17.9988 -39.9992,-39.9992l0 -1104c0,-22.0004 17.9988,-39.9992 39.9992,-39.9992z"/>
    </g>
    <path id="_298038064" class="fil3" d="M854.668 1022.85l0 -389.67c112.499,64.9489 225.023,129.854 337.519,194.805l-337.519 194.864z"/>
   </g>
   <g>
    <path id="_298037920" class="fil4" d="M337.396 1226.19l1373.21 0c22.3748,0 42.7347,9.23387 57.5103,24.1075 14.7378,14.8358 23.8866,35.2382 23.8866,57.6189l0 394.353c0,22.3807 -9.15001,42.7819 -23.8866,57.6178 -14.7768,14.8736 -35.1366,24.1087 -57.5103,24.1087l-1373.21 0c-22.3725,0 -42.7347,-9.23505 -57.5115,-24.1087 -14.7366,-14.8335 -23.8855,-35.2347 -23.8855,-57.6178l0 -394.353c0,-22.3819 9.14883,-42.7831 23.8855,-57.6189 14.7744,-14.8736 35.1366,-24.1075 57.5115,-24.1075z"/>
    <path id="_298037824" class="fil5" d="M490.209 1684.05l0 -357.917 108.167 0 64.917 244.167 64.167 -244.167 108.416 0 0 357.917 -67.0831 0 0 -281.75 -71.0835 281.75 -69.5835 0 -70.8331 -281.75 0 281.75 -67.0831 0zm402.833 -176.75c0,-36.5008 5.41654,-67.0831 16.3335,-91.8331 8.16615,-18.1665 19.2496,-34.5839 33.3331,-49.0843 14.0835,-14.4165 29.5004,-25.1658 46.2496,-32.1662 22.3335,-9.49961 48,-14.1662 77.1674,-14.1662 52.7493,0 94.9158,16.3323 126.584,49.0831 31.6666,32.667 47.4992,78.1666 47.4992,136.416 0,57.8339 -15.75,103 -47.1662,135.666 -31.4173,32.5843 -73.4174,48.9178 -125.917,48.9178 -53.25,0 -95.5831,-16.2508 -126.999,-48.6674 -31.4173,-32.5004 -47.0835,-77.2501 -47.0835,-134.166zm74.4166 -2.41654c0,40.5 9.41694,71.2501 28.0831,92.1662 18.75,20.9162 42.5008,31.3335 71.3339,31.3335 28.7492,0 52.4162,-10.3335 70.9158,-31.167 18.4169,-20.7496 27.6673,-51.8327 27.6673,-93.3331 0,-40.9996 -9.00001,-71.5831 -26.9173,-91.8331 -17.9988,-20.1673 -41.9162,-30.2504 -71.6658,-30.2504 -29.8335,0 -53.8335,10.2508 -72.0839,30.6673 -18.1665,20.4166 -27.3331,51.1666 -27.3331,92.4166zm420.417 179.166l-127.917 -357.917 78.417 0 90.4997 264.917 87.6674 -264.917 76.6666 0 -128.167 357.917 -77.1662 0z"/>
   </g>
  </g>
 </g>
</svg>
