<?xml version="1.0" encoding="UTF-8"?>
<!DOCTYPE svg PUBLIC "-//W3C//DTD SVG 1.1//EN" "http://www.w3.org/Graphics/SVG/1.1/DTD/svg11.dtd">
<!-- Creator: CorelDRAW -->
<svg xmlns="http://www.w3.org/2000/svg" xml:space="preserve" width="2048px" height="2048px" style="shape-rendering:geometricPrecision; text-rendering:geometricPrecision; image-rendering:optimizeQuality; fill-rule:evenodd; clip-rule:evenodd"
viewBox="0 0 2048 2048"
 xmlns:xlink="http://www.w3.org/1999/xlink">
 <defs>
  <style type="text/css">
   <![CDATA[
    .fil0 {fill:none}
    .fil4 {fill:#D32F2F}
    .fil1 {fill:#EF9A9A}
    .fil2 {fill:#FFCDD2}
    .fil3 {fill:#D32F2F;fill-rule:nonzero}
    .fil5 {fill:white;fill-rule:nonzero}
   ]]>
  </style>
 </defs>
 <g id="Layer_x0020_1">
  <metadata id="CorelCorpID_0Corel-Layer"/>
  <rect class="fil0" width="2048" height="2048"/>
  <rect class="fil0" x="255.999" y="255.999" width="1536" height="1536"/>
  <path class="fil1" d="M1303.19 263.999l328.759 329.158 -269.982 0c-32.328,0 -58.7764,-26.4484 -58.7764,-58.7764l0 -270.382z"/>
  <path class="fil2" d="M454.851 263.999l848.395 0 0 268.747c0,33.228 27.1843,60.4111 60.4111,60.4111l268.344 0 0 814.843c0,22.0004 -17.9988,39.9992 -39.9992,39.9992l-1137.15 0c-22.0004,0 -39.9992,-17.9988 -39.9992,-39.9992l0 -1104c0,-22.0004 17.9988,-39.9992 39.9992,-39.9992z"/>
  <polygon class="fil3" points="671.999,763.342 1408,763.342 1408,827.344 671.999,827.344 "/>
  <polygon class="fil3" points="671.999,987.337 1408,987.337 1408,1051.34 671.999,1051.34 "/>
  <path class="fil4" d="M337.396 1226.19l1373.21 0c22.3748,0 42.7347,9.23387 57.5103,24.1075 14.7378,14.8358 23.8866,35.2382 23.8866,57.6189l0 394.353c0,22.3807 -9.15001,42.7819 -23.8866,57.6178 -14.7768,14.8736 -35.1366,24.1087 -57.5103,24.1087l-1373.21 0c-22.3725,0 -42.7347,-9.23505 -57.5115,-24.1087 -14.7366,-14.8335 -23.8855,-35.2347 -23.8855,-57.6178l0 -394.353c0,-22.3819 9.14883,-42.7831 23.8855,-57.6189 14.7744,-14.8736 35.1366,-24.1075 57.5115,-24.1075z"/>
  <path class="fil5" d="M520.291 1684.05l0 -357.917 152.166 0c38.25,0 66.0001,3.2504 83.3339,9.66733 17.3327,6.41575 31.2496,17.8323 41.6658,34.2496 10.4173,16.5 15.5835,35.25 15.5835,56.4166 0,26.8335 -7.91575,49.0831 -23.6658,66.5835 -15.75,17.4165 -39.417,28.5 -70.8343,33 15.6673,9.16654 28.5839,19.1669 38.7508,30.0827 10.1658,10.9169 23.8335,30.2504 41.0835,58.0831l43.7492 69.8339 -86.4166 0 -52.2496 -77.9162c-18.5835,-27.8339 -31.2496,-45.3343 -38.0835,-52.5839 -6.83386,-7.24961 -14.0835,-12.1665 -21.75,-14.9162 -7.66654,-2.66693 -19.7504,-4.0004 -36.417,-4.0004l-14.5831 0 0 149.417 -72.3331 0zm72.3331 -206.583l53.4166 0c34.6666,0 56.3339,-1.41732 64.9997,-4.33347 8.58426,-2.91614 15.3343,-7.99961 20.25,-15.1665 4.83426,-7.16693 7.33347,-16.0831 7.33347,-26.8335 0,-12.0827 -3.24922,-21.75 -9.66615,-29.1662 -6.41693,-7.41733 -15.4996,-12.0839 -27.2504,-14.0835 -5.83347,-0.750001 -23.4166,-1.16693 -52.7493,-1.16693l-56.3339 0 0 90.7501zm611.333 206.583l-78.6662 0 -31.2496 -81.3331 -143.084 0 -29.5004 81.3331 -76.6666 0 139.416 -357.917 76.4174 0 143.333 357.917zm-133.083 -141.584l-49.3335 -132.833 -48.3331 132.833 97.6666 0zm171.584 141.584l0 -357.917 152.166 0c38.25,0 66.0001,3.2504 83.3339,9.66733 17.3327,6.41575 31.2496,17.8323 41.6658,34.2496 10.4173,16.5 15.5835,35.25 15.5835,56.4166 0,26.8335 -7.91575,49.0831 -23.6658,66.5835 -15.75,17.4165 -39.417,28.5 -70.8343,33 15.6673,9.16654 28.5839,19.1669 38.7508,30.0827 10.1658,10.9169 23.8335,30.2504 41.0835,58.0831l43.7492 69.8339 -86.4166 0 -52.2496 -77.9162c-18.5835,-27.8339 -31.2496,-45.3343 -38.0835,-52.5839 -6.83386,-7.24961 -14.0835,-12.1665 -21.75,-14.9162 -7.66654,-2.66693 -19.7504,-4.0004 -36.417,-4.0004l-14.5831 0 0 149.417 -72.3331 0zm72.3331 -206.583l53.4166 0c34.6666,0 56.3339,-1.41732 64.9997,-4.33347 8.58426,-2.91614 15.3343,-7.99961 20.25,-15.1665 4.83426,-7.16693 7.33347,-16.0831 7.33347,-26.8335 0,-12.0827 -3.24922,-21.75 -9.66615,-29.1662 -6.41693,-7.41733 -15.4996,-12.0839 -27.2504,-14.0835 -5.83347,-0.750001 -23.4166,-1.16693 -52.7493,-1.16693l-56.3339 0 0 90.7501z"/>
 </g>
</svg>
