<?xml version="1.0" encoding="UTF-8"?>
<!DOCTYPE svg PUBLIC "-//W3C//DTD SVG 1.1//EN" "http://www.w3.org/Graphics/SVG/1.1/DTD/svg11.dtd">
<!-- Creator: CorelDRAW -->
<svg xmlns="http://www.w3.org/2000/svg" xml:space="preserve" width="2048px" height="2048px" style="shape-rendering:geometricPrecision; text-rendering:geometricPrecision; image-rendering:optimizeQuality; fill-rule:evenodd; clip-rule:evenodd"
viewBox="0 0 2048 2048"
 xmlns:xlink="http://www.w3.org/1999/xlink">
 <defs>
  <style type="text/css">
   <![CDATA[
    .fil0 {fill:none}
    .fil4 {fill:#D32F2F}
    .fil1 {fill:#EF9A9A}
    .fil2 {fill:#FFCDD2}
    .fil3 {fill:#D32F2F;fill-rule:nonzero}
    .fil5 {fill:white;fill-rule:nonzero}
   ]]>
  </style>
 </defs>
 <g id="Layer_x0020_1">
  <metadata id="CorelCorpID_0Corel-Layer"/>
  <rect class="fil0" width="2048" height="2048"/>
  <rect class="fil0" x="255.999" y="255.999" width="1536" height="1536"/>
  <path class="fil1" d="M1303.19 255.999l328.759 329.158 -269.982 0c-32.328,0 -58.7764,-26.4484 -58.7764,-58.7764l0 -270.382z"/>
  <path class="fil2" d="M454.851 255.999l848.395 0 0 268.747c0,33.228 27.1843,60.4111 60.4111,60.4111l268.344 0 0 814.843c0,22.0004 -17.9988,39.9992 -39.9992,39.9992l-1137.15 0c-22.0004,0 -39.9992,-17.9988 -39.9992,-39.9992l0 -1104c0,-22.0004 17.9988,-39.9992 39.9992,-39.9992z"/>
  <polygon class="fil3" points="671.999,755.343 1408,755.343 1408,819.344 671.999,819.344 "/>
  <polygon class="fil3" points="671.999,979.338 1408,979.338 1408,1043.34 671.999,1043.34 "/>
  <path class="fil4" d="M337.396 1218.19l1373.21 0c22.3748,0 42.7347,9.23387 57.5103,24.1075 14.7378,14.8358 23.8866,35.2382 23.8866,57.6189l0 394.353c0,22.3807 -9.15001,42.7819 -23.8866,57.6178 -14.7768,14.8736 -35.1366,24.1087 -57.5103,24.1087l-1373.21 0c-22.3725,0 -42.7347,-9.23505 -57.5115,-24.1087 -14.7366,-14.8335 -23.8855,-35.2347 -23.8855,-57.6178l0 -394.353c0,-22.3819 9.14883,-42.7831 23.8855,-57.6189 14.7744,-14.8736 35.1366,-24.1075 57.5115,-24.1075z"/>
  <path class="fil5" d="M821.875 1544.47l0 -60.3331 155.75 0 0 142.583c-15.1665,14.6669 -37.0831,27.5835 -65.8335,38.7496 -28.7504,11.0835 -57.8327,16.6677 -87.2505,16.6677 -37.4162,0 -70.0831,-7.83426 -97.9158,-23.5004 -27.8339,-15.75 -48.75,-38.1674 -62.7508,-67.4162 -13.9996,-29.25 -21,-61.0004 -21,-95.3339 0,-37.2496 7.83426,-70.4162 23.4177,-99.417 15.6662,-28.9158 38.4992,-51.1666 68.6658,-66.5835 22.9169,-11.9162 51.5008,-17.8323 85.6666,-17.8323 44.4166,0 79.167,9.33308 104.084,27.9166 25.0004,18.6662 41.0835,44.4166 48.2504,77.3327l-71.7508 13.4173c-5.08229,-17.5843 -14.5831,-31.5 -28.5,-41.667 -13.9158,-10.1669 -31.2496,-15.2504 -52.0831,-15.2504 -31.5827,0 -56.6658,10.0004 -75.3331,30 -18.6662,20.0835 -27.9166,49.7504 -27.9166,89.1674 0,42.4158 9.41694,74.3327 28.3335,95.5831 18.8327,21.2492 43.5827,31.8331 74.1662,31.8331 15.1665,0 30.3343,-3 45.5835,-8.91733 15.1665,-5.91615 28.2496,-13.1658 39.1666,-21.5823l0 -45.417 -82.7493 0zm220.167 131.583l0 -357.917 72.2493 0 0 357.917 -72.2493 0zm141.584 0l0 -357.917 245.416 0 0 60.5835 -173.082 0 0 84.6662 149.417 0 0 60.5835 -149.417 0 0 152.084 -72.3331 0z"/>
 </g>
</svg>
