<?xml version="1.0" encoding="UTF-8"?>
<!DOCTYPE svg PUBLIC "-//W3C//DTD SVG 1.1//EN" "http://www.w3.org/Graphics/SVG/1.1/DTD/svg11.dtd">
<!-- Creator: CorelDRAW -->
<svg xmlns="http://www.w3.org/2000/svg" xml:space="preserve" width="2048px" height="2048px" style="shape-rendering:geometricPrecision; text-rendering:geometricPrecision; image-rendering:optimizeQuality; fill-rule:evenodd; clip-rule:evenodd"
viewBox="0 0 2048 2048"
 xmlns:xlink="http://www.w3.org/1999/xlink">
 <defs>
  <style type="text/css">
   <![CDATA[
    .fil0 {fill:none}
    .fil4 {fill:#43A047}
    .fil1 {fill:#A5D6A7}
    .fil2 {fill:#C8E6C9}
    .fil3 {fill:#43A047;fill-rule:nonzero}
    .fil5 {fill:white;fill-rule:nonzero}
   ]]>
  </style>
 </defs>
 <g id="Layer_x0020_1">
  <metadata id="CorelCorpID_0Corel-Layer"/>
  <rect class="fil0" width="2048" height="2048"/>
  <rect class="fil0" x="255.999" y="255.999" width="1536" height="1536"/>
  <path class="fil1" d="M1303.19 263.999l328.759 329.158 -269.982 0c-32.328,0 -58.7764,-26.4484 -58.7764,-58.7764l0 -270.382z"/>
  <path class="fil2" d="M454.851 263.999l848.395 0 0 268.747c0,33.228 27.1843,60.4111 60.4111,60.4111l268.344 0 0 814.843c0,22.0004 -17.9988,39.9992 -39.9992,39.9992l-1137.15 0c-22.0004,0 -39.9992,-17.9988 -39.9992,-39.9992l0 -1104c0,-22.0004 17.9988,-39.9992 39.9992,-39.9992z"/>
  <polygon class="fil3" points="671.999,763.342 1408,763.342 1408,827.344 671.999,827.344 "/>
  <polygon class="fil3" points="671.999,987.337 1408,987.337 1408,1051.34 671.999,1051.34 "/>
  <path class="fil4" d="M337.396 1226.19l1373.21 0c22.3748,0 42.7347,9.23387 57.5103,24.1075 14.7378,14.8358 23.8866,35.2382 23.8866,57.6189l0 394.353c0,22.3807 -9.15001,42.7819 -23.8866,57.6178 -14.7768,14.8736 -35.1366,24.1087 -57.5103,24.1087l-1373.21 0c-22.3725,0 -42.7347,-9.23505 -57.5115,-24.1087 -14.7366,-14.8335 -23.8855,-35.2347 -23.8855,-57.6178l0 -394.353c0,-22.3819 9.14883,-42.7831 23.8855,-57.6189 14.7744,-14.8736 35.1366,-24.1075 57.5115,-24.1075z"/>
  <path class="fil5" d="M560.666 1323.1l72.0839 0 0 226.584c0,29.5831 -2.66693,52.4162 -7.83308,68.3327 -7.0004,20.8335 -19.6677,37.5839 -38.0835,50.1662 -18.4169,12.6673 -42.6674,18.9177 -72.7501,18.9177 -35.3339,0 -62.5004,-9.83387 -81.5835,-29.667 -19.0004,-19.7504 -28.6666,-48.75 -28.7504,-87.0001l68.0835 -7.83308c0.833859,20.4992 3.83386,34.9996 9.00001,43.5 7.83308,12.8327 19.7504,19.2496 35.667,19.2496 16.0831,0 27.4996,-4.58386 34.167,-13.8331 6.66615,-9.16654 9.99922,-28.2508 9.99922,-57.2504l0 -231.167zm471.75 357.917l-78.6662 0 -31.2496 -81.3331 -143.084 0 -29.5004 81.3331 -76.6666 0 139.416 -357.917 76.4174 0 143.333 357.917zm-133.083 -141.584l-49.3335 -132.833 -48.3331 132.833 97.6666 0zm225.584 141.584l-127.917 -357.917 78.417 0 90.4997 264.917 87.6674 -264.917 76.6666 0 -128.167 357.917 -77.1662 0zm527.917 0l-78.6662 0 -31.2496 -81.3331 -143.084 0 -29.5004 81.3331 -76.6666 0 139.416 -357.917 76.4174 0 143.333 357.917zm-133.083 -141.584l-49.3335 -132.833 -48.3331 132.833 97.6666 0z"/>
 </g>
</svg>
