<?xml version="1.0" encoding="UTF-8"?>
<!DOCTYPE svg PUBLIC "-//W3C//DTD SVG 1.1//EN" "http://www.w3.org/Graphics/SVG/1.1/DTD/svg11.dtd">
<!-- Creator: CorelDRAW -->
<svg xmlns="http://www.w3.org/2000/svg" xml:space="preserve" width="2048px" height="2048px" style="shape-rendering:geometricPrecision; text-rendering:geometricPrecision; image-rendering:optimizeQuality; fill-rule:evenodd; clip-rule:evenodd"
viewBox="0 0 2048 2048"
 xmlns:xlink="http://www.w3.org/1999/xlink">
 <defs>
  <style type="text/css">
   <![CDATA[
    .fil0 {fill:none}
    .fil4 {fill:#43A047}
    .fil1 {fill:#A5D6A7}
    .fil2 {fill:#C8E6C9}
    .fil3 {fill:#43A047;fill-rule:nonzero}
    .fil5 {fill:white;fill-rule:nonzero}
   ]]>
  </style>
 </defs>
 <g id="Layer_x0020_1">
  <metadata id="CorelCorpID_0Corel-Layer"/>
  <rect class="fil0" width="2048" height="2048"/>
  <rect class="fil0" x="255.999" y="255.999" width="1536" height="1536"/>
  <path class="fil1" d="M1303.19 263.999l328.759 329.158 -269.982 0c-32.328,0 -58.7764,-26.4484 -58.7764,-58.7764l0 -270.382z"/>
  <path class="fil2" d="M454.851 263.999l848.395 0 0 268.747c0,33.228 27.1843,60.4111 60.4111,60.4111l268.344 0 0 814.843c0,22.0004 -17.9988,39.9992 -39.9992,39.9992l-1137.15 0c-22.0004,0 -39.9992,-17.9988 -39.9992,-39.9992l0 -1104c0,-22.0004 17.9988,-39.9992 39.9992,-39.9992z"/>
  <polygon class="fil3" points="671.999,763.342 1408,763.342 1408,827.344 671.999,827.344 "/>
  <polygon class="fil3" points="671.999,987.337 1408,987.337 1408,1051.34 671.999,1051.34 "/>
  <path class="fil4" d="M337.396 1226.19l1373.21 0c22.3748,0 42.7347,9.23387 57.5103,24.1075 14.7378,14.8358 23.8866,35.2382 23.8866,57.6189l0 394.353c0,22.3807 -9.15001,42.7819 -23.8866,57.6178 -14.7768,14.8736 -35.1366,24.1087 -57.5103,24.1087l-1373.21 0c-22.3725,0 -42.7347,-9.23505 -57.5115,-24.1087 -14.7366,-14.8335 -23.8855,-35.2347 -23.8855,-57.6178l0 -394.353c0,-22.3819 9.14883,-42.7831 23.8855,-57.6189 14.7744,-14.8736 35.1366,-24.1075 57.5115,-24.1075z"/>
  <path class="fil5" d="M704.379 1326.14l72.0816 0 0 226.58c0,29.5831 -2.66575,52.4162 -7.83308,68.3327 -6.99922,20.8323 -19.6666,37.5827 -38.0823,50.1662 -18.4169,12.6662 -42.6662,18.9154 -72.7489,18.9154 -35.3339,0 -62.4993,-9.83268 -81.5835,-29.6658 -18.9992,-19.7492 -28.6654,-48.7489 -28.7492,-86.9989l68.0823 -7.83308c0.833859,20.4992 3.83386,34.9996 9.00001,43.4989 7.83308,12.8339 19.7504,19.2496 35.667,19.2496 16.0831,0 27.4996,-4.58268 34.1658,-13.8331 6.66615,-9.16654 10.0004,-28.2496 10.0004,-57.2493l0 -231.163zm148.997 357.912l0 -357.912 115.916 0c43.9158,0 72.5823,1.83307 85.9158,5.41654 20.4992,5.33268 37.7492,16.9996 51.5823,34.9996 13.8331,18 20.7496,41.2489 20.7496,69.665 0,22.0004 -3.99922,40.5 -12,55.4162 -7.99961,15 -18.0827,26.7496 -30.4158,35.3327 -12.2504,8.5004 -24.75,14.1673 -37.4162,16.9169 -17.25,3.41693 -42.2492,5.16615 -74.9989,5.16615l-47.0835 0 0 134.999 -72.2493 0zm72.2493 -297.33l0 101.499 39.4996 0c28.5,0 47.5831,-1.83425 57.1666,-5.58426 9.58229,-3.75 17.0823,-9.58229 22.5827,-17.5831 5.41654,-7.99961 8.16615,-17.2488 8.16615,-27.8327 0,-12.9992 -3.83268,-23.7496 -11.4992,-32.25 -7.58386,-8.41654 -17.3339,-13.7492 -28.9996,-15.8327 -8.66694,-1.66654 -25.9996,-2.41654 -51.9993,-2.41654l-34.917 0zm427.746 165.748l0 -60.3319 155.747 0 0 142.582c-15.1665,14.6658 -37.0831,27.5823 -65.8323,38.7496 -28.7492,11.0823 -57.8327,16.6654 -87.2493,16.6654 -37.4162,0 -70.0819,-7.83308 -97.9146,-23.4992 -27.8339,-15.75 -48.75,-38.1662 -62.7497,-67.4162 -13.9996,-29.2488 -21,-60.9993 -21,-95.3316 0,-37.2496 7.83308,-70.4162 23.4166,-99.4158 15.6662,-28.9158 38.4992,-51.1654 68.6658,-66.5823 22.9169,-11.9162 51.4996,-17.8335 85.6654,-17.8335 44.4166,0 79.1658,9.33308 104.082,27.9166 24.9992,18.6662 41.0835,44.4166 48.2492,77.3327l-71.7485 13.4162c-5.08347,-17.5831 -14.5831,-31.5 -28.5,-41.6658 -13.9169,-10.1669 -31.2496,-15.2504 -52.0831,-15.2504 -31.5827,0 -56.6658,10.0004 -75.3319,30 -18.6662,20.0835 -27.9166,49.7493 -27.9166,89.165 0,42.417 9.41694,74.3327 28.3335,95.5831 18.8327,21.2492 43.5827,31.8319 74.165,31.8319 15.1665,0 30.3331,-2.99882 45.5835,-8.91615 15.1665,-5.91615 28.2496,-13.1669 39.1654,-21.5835l0 -45.4158 -82.7481 0z"/>
 </g>
</svg>
