<?xml version="1.0" encoding="UTF-8"?>
<!DOCTYPE svg PUBLIC "-//W3C//DTD SVG 1.1//EN" "http://www.w3.org/Graphics/SVG/1.1/DTD/svg11.dtd">
<!-- Creator: CorelDRAW -->
<svg xmlns="http://www.w3.org/2000/svg" xml:space="preserve" width="2048px" height="2048px" style="shape-rendering:geometricPrecision; text-rendering:geometricPrecision; image-rendering:optimizeQuality; fill-rule:evenodd; clip-rule:evenodd"
viewBox="0 0 2048 2048"
 xmlns:xlink="http://www.w3.org/1999/xlink">
 <defs>
  <style type="text/css">
   <![CDATA[
    .fil0 {fill:none}
    .fil4 {fill:#546E7A}
    .fil1 {fill:#78909C}
    .fil2 {fill:#CFD8DC}
    .fil3 {fill:#546E7A;fill-rule:nonzero}
    .fil5 {fill:white;fill-rule:nonzero}
   ]]>
  </style>
 </defs>
 <g id="Layer_x0020_1">
  <metadata id="CorelCorpID_0Corel-Layer"/>
  <rect class="fil0" width="2048" height="2048"/>
  <rect class="fil0" x="255.999" y="255.999" width="1536" height="1536"/>
  <path class="fil1" d="M1303.19 263.999l328.759 329.158 -269.982 0c-32.328,0 -58.7764,-26.4484 -58.7764,-58.7764l0 -270.382z"/>
  <path class="fil2" d="M454.851 263.999l848.395 0 0 268.747c0,33.228 27.1843,60.4111 60.4111,60.4111l268.344 0 0 814.843c0,22.0004 -17.9988,39.9992 -39.9992,39.9992l-1137.15 0c-22.0004,0 -39.9992,-17.9988 -39.9992,-39.9992l0 -1104c0,-22.0004 17.9988,-39.9992 39.9992,-39.9992z"/>
  <polygon class="fil3" points="671.999,763.342 1408,763.342 1408,827.344 671.999,827.344 "/>
  <polygon class="fil3" points="671.999,987.337 1408,987.337 1408,1051.34 671.999,1051.34 "/>
  <path class="fil4" d="M337.396 1226.19l1373.21 0c22.3748,0 42.7347,9.23387 57.5103,24.1075 14.7378,14.8358 23.8866,35.2382 23.8866,57.6189l0 394.353c0,22.3807 -9.15001,42.7819 -23.8866,57.6178 -14.7768,14.8736 -35.1366,24.1087 -57.5103,24.1087l-1373.21 0c-22.3725,0 -42.7347,-9.23505 -57.5115,-24.1087 -14.7366,-14.8335 -23.8855,-35.2347 -23.8855,-57.6178l0 -394.353c0,-22.3819 9.14883,-42.7831 23.8855,-57.6189 14.7744,-14.8736 35.1366,-24.1075 57.5115,-24.1075z"/>
  <path class="fil5" d="M650.041 1326.14l143.084 0c28.3335,0 49.5,1.16693 63.4158,3.58347 13.9169,2.33386 26.3339,7.24961 37.3335,14.7496 11.0008,7.50001 20.0835,17.4165 27.417,29.9173 7.33347,12.4169 10.9996,26.4166 10.9996,41.8335 0,16.7492 -4.5,32.1662 -13.5,46.1658 -9.08268,14.0008 -21.3331,24.5008 -36.75,31.5 21.75,6.33426 38.5843,17.1673 50.25,32.4166 11.7508,15.3343 17.5843,33.3343 17.5843,54 0,16.2508 -3.75,32.0835 -11.3339,47.5004 -7.58386,15.3331 -17.9162,27.6662 -31.0004,36.8339 -13.0831,9.16654 -29.25,14.8323 -48.4996,16.9996 -12,1.24961 -41.0835,2.08347 -87.1666,2.41654l-121.833 0 0 -357.917zm72.3331 59.5831l0 82.7505 47.3339 0c28.1658,0 45.6662,-0.416929 52.5,-1.24961 12.3331,-1.41732 22.0831,-5.66693 29.1662,-12.75 7.08308,-7.08426 10.5839,-16.4173 10.5839,-28.0004 0,-11.0835 -3,-20.0835 -9.08387,-27 -6.16654,-6.91654 -15.2504,-11.0835 -27.2504,-12.4996 -7.16575,-0.833859 -27.75,-1.25079 -61.7493,-1.25079l-41.5004 0zm0 142.334l0 95.667 66.8339 0c26.0823,0 42.5823,-0.667323 49.5827,-2.16732 10.7504,-1.91575 19.5,-6.75001 26.25,-14.25 6.75001,-7.58268 10.1669,-17.7496 10.1669,-30.4158 0,-10.7504 -2.66693,-19.8343 -7.83308,-27.3343 -5.25,-7.50001 -12.75,-12.9992 -22.5839,-16.4162 -9.83268,-3.41693 -31.2496,-5.08347 -64.0831,-5.08347l-58.3335 0zm286.334 156l0 -357.917 72.2493 0 0 357.917 -72.2493 0zm141.833 0l0 -357.917 70.3335 0 146.501 239 0 -239 67.1658 0 0 357.917 -72.5823 0 -144.251 -233.417 0 233.417 -67.167 0z"/>
 </g>
</svg>
