<?xml version="1.0" encoding="UTF-8"?>
<!DOCTYPE svg PUBLIC "-//W3C//DTD SVG 1.1//EN" "http://www.w3.org/Graphics/SVG/1.1/DTD/svg11.dtd">
<!-- Creator: CorelDRAW -->
<svg xmlns="http://www.w3.org/2000/svg" xml:space="preserve" width="2048px" height="2048px" style="shape-rendering:geometricPrecision; text-rendering:geometricPrecision; image-rendering:optimizeQuality; fill-rule:evenodd; clip-rule:evenodd"
viewBox="0 0 2048 2048"
 xmlns:xlink="http://www.w3.org/1999/xlink">
 <defs>
  <style type="text/css">
   <![CDATA[
    .fil0 {fill:none}
    .fil4 {fill:#00897B}
    .fil1 {fill:#80CBC4}
    .fil2 {fill:#B2DFDB}
    .fil3 {fill:#00897B;fill-rule:nonzero}
    .fil5 {fill:white;fill-rule:nonzero}
   ]]>
  </style>
 </defs>
 <g id="Layer_x0020_1">
  <metadata id="CorelCorpID_0Corel-Layer"/>
  <rect class="fil0" width="2048" height="2048"/>
  <rect class="fil0" x="255.999" y="255.999" width="1536" height="1536"/>
  <path class="fil1" d="M1303.19 263.999l328.759 329.158 -269.982 0c-32.328,0 -58.7764,-26.4484 -58.7764,-58.7764l0 -270.382z"/>
  <path class="fil2" d="M454.851 263.999l848.395 0 0 268.747c0,33.228 27.1843,60.4111 60.4111,60.4111l268.344 0 0 814.843c0,22.0004 -17.9988,39.9992 -39.9992,39.9992l-1137.15 0c-22.0004,0 -39.9992,-17.9988 -39.9992,-39.9992l0 -1104c0,-22.0004 17.9988,-39.9992 39.9992,-39.9992z"/>
  <polygon class="fil3" points="671.999,763.342 1408,763.342 1408,827.344 671.999,827.344 "/>
  <polygon class="fil3" points="671.999,987.337 1408,987.337 1408,1051.34 671.999,1051.34 "/>
  <path class="fil4" d="M337.396 1226.19l1373.21 0c22.3748,0 42.7347,9.23387 57.5103,24.1075 14.7378,14.8358 23.8866,35.2382 23.8866,57.6189l0 394.353c0,22.3807 -9.15001,42.7819 -23.8866,57.6178 -14.7768,14.8736 -35.1366,24.1087 -57.5103,24.1087l-1373.21 0c-22.3725,0 -42.7347,-9.23505 -57.5115,-24.1087 -14.7366,-14.8335 -23.8855,-35.2347 -23.8855,-57.6178l0 -394.353c0,-22.3819 9.14883,-42.7831 23.8855,-57.6189 14.7744,-14.8736 35.1366,-24.1075 57.5115,-24.1075z"/>
  <path class="fil5" d="M558.75 1683.93l0 -357.917 152.166 0c38.25,0 66.0001,3.2504 83.3339,9.66733 17.3327,6.41575 31.2496,17.8323 41.6658,34.2496 10.4173,16.5 15.5835,35.25 15.5835,56.4166 0,26.8335 -7.91575,49.0831 -23.6658,66.5835 -15.75,17.4165 -39.417,28.5 -70.8343,33 15.6673,9.16654 28.5839,19.1669 38.7508,30.0827 10.1658,10.9169 23.8335,30.2504 41.0835,58.0831l43.7492 69.8339 -86.4166 0 -52.2496 -77.9162c-18.5835,-27.8339 -31.2496,-45.3343 -38.0835,-52.5839 -6.83386,-7.24961 -14.0835,-12.1665 -21.75,-14.9162 -7.66654,-2.66693 -19.7504,-4.0004 -36.417,-4.0004l-14.5831 0 0 149.417 -72.3331 0zm72.3331 -206.583l53.4166 0c34.6666,0 56.3339,-1.41732 64.9997,-4.33347 8.58426,-2.91614 15.3343,-7.99961 20.25,-15.1665 4.83426,-7.16693 7.33347,-16.0831 7.33347,-26.8335 0,-12.0827 -3.24922,-21.75 -9.66615,-29.1662 -6.41693,-7.41733 -15.4996,-12.0839 -27.2504,-14.0835 -5.83347,-0.750001 -23.4166,-1.16693 -52.7493,-1.16693l-56.3339 0 0 90.7501zm270.251 90.1666l70.3323 -6.91654c4.16693,23.6669 12.75,40.9996 25.7504,52.0831 12.9165,10.9996 30.3331,16.5839 52.3335,16.5839 23.25,0 40.8331,-4.91693 52.5827,-14.8335 11.8335,-9.83387 17.7508,-21.3331 17.7508,-34.5 0,-8.5004 -2.5004,-15.6673 -7.50001,-21.5835 -4.91693,-6 -13.5839,-11.1673 -26.0008,-15.4996 -8.41654,-3 -27.75,-8.16733 -57.8327,-15.6673 -38.7496,-9.58347 -65.9162,-21.4169 -81.4997,-35.4166 -22.0004,-19.6666 -33,-43.6666 -33,-72.0001 0,-18.2504 5.16615,-35.25 15.4996,-51.1666 10.3335,-15.8339 25.2496,-27.9166 44.667,-36.2504 19.5,-8.25001 42.9166,-12.4158 70.4162,-12.4158 45,0 78.7501,9.83268 101.5,29.4992 22.6666,19.7504 34.5827,46.0004 35.7496,78.9166l-72.2504 3.16654c-3.08268,-18.4158 -9.75001,-31.6666 -19.9158,-39.6662 -10.1669,-8.08347 -25.4173,-12.0839 -45.75,-12.0839 -21,0 -37.5,4.25079 -49.3335,12.9177 -7.66654,5.49922 -11.5004,12.9165 -11.5004,22.1658 0,8.5004 3.58347,15.75 10.7504,21.75 9.08268,7.66654 31.2496,15.6673 66.417,23.9173 35.1662,8.33268 61.1658,16.9158 77.9989,25.7492 16.8343,8.91733 30,21 39.5835,36.417 9.50079,15.4169 14.25,34.4173 14.25,57 0,20.5004 -5.66575,39.75 -17.0835,57.5835 -11.4165,17.9162 -27.4996,31.2496 -48.3331,39.9166 -20.8335,8.74961 -46.8331,13.0831 -77.9162,13.0831 -45.2504,0 -79.9997,-10.4161 -104.25,-31.3335 -24.2504,-20.9162 -38.7496,-51.4158 -43.4162,-91.4162zm333.5 0l70.3323 -6.91654c4.16693,23.6669 12.75,40.9996 25.7504,52.0831 12.9165,10.9996 30.3331,16.5839 52.3335,16.5839 23.25,0 40.8331,-4.91693 52.5827,-14.8335 11.8335,-9.83387 17.7508,-21.3331 17.7508,-34.5 0,-8.5004 -2.5004,-15.6673 -7.50001,-21.5835 -4.91693,-6 -13.5839,-11.1673 -26.0008,-15.4996 -8.41654,-3 -27.75,-8.16733 -57.8327,-15.6673 -38.7496,-9.58347 -65.9162,-21.4169 -81.4997,-35.4166 -22.0004,-19.6666 -33,-43.6666 -33,-72.0001 0,-18.2504 5.16615,-35.25 15.4996,-51.1666 10.3335,-15.8339 25.2496,-27.9166 44.667,-36.2504 19.5,-8.25001 42.9166,-12.4158 70.4162,-12.4158 45,0 78.7501,9.83268 101.5,29.4992 22.6666,19.7504 34.5827,46.0004 35.7496,78.9166l-72.2504 3.16654c-3.08268,-18.4158 -9.75001,-31.6666 -19.9158,-39.6662 -10.1669,-8.08347 -25.4173,-12.0839 -45.75,-12.0839 -21,0 -37.5,4.25079 -49.3335,12.9177 -7.66654,5.49922 -11.5004,12.9165 -11.5004,22.1658 0,8.5004 3.58347,15.75 10.7504,21.75 9.08268,7.66654 31.2496,15.6673 66.417,23.9173 35.1662,8.33268 61.1658,16.9158 77.9989,25.7492 16.8343,8.91733 30,21 39.5835,36.417 9.50079,15.4169 14.25,34.4173 14.25,57 0,20.5004 -5.66575,39.75 -17.0835,57.5835 -11.4165,17.9162 -27.4996,31.2496 -48.3331,39.9166 -20.8335,8.74961 -46.8331,13.0831 -77.9162,13.0831 -45.2504,0 -79.9997,-10.4161 -104.25,-31.3335 -24.2504,-20.9162 -38.7496,-51.4158 -43.4162,-91.4162z"/>
 </g>
</svg>
