<svg xmlns="http://www.w3.org/2000/svg" viewBox="0 0 64 64"><title>Avatar-25</title><g id="Moeslim"><path d="M36.011,32.014a4.863,4.863,0,0,1,6.4.4L43,33l3,6L36,38Z" style="fill:#d0dbf7"/><path d="M27.989,32.014a4.863,4.863,0,0,0-6.4.4L21,33l-3,6,10-1Z" style="fill:#d0dbf7"/><path d="M39,27.64v9.22L36,39v3l-4,3-4-3V39l-3-2.14V27.64a8.972,8.972,0,0,0,14,0Z" style="fill:#eac2b9"/><rect x="40" y="13" width="4" height="7" style="fill:#494a59"/><rect x="20" y="13" width="4" height="7" style="fill:#494a59"/><path d="M44,19H40v4a8.8,8.8,0,0,1-.52,3H44a2.006,2.006,0,0,0,2-2V21A2.006,2.006,0,0,0,44,19Z" style="fill:#eac2b9"/><path d="M24,23V19H20a2.006,2.006,0,0,0-2,2v3a2.006,2.006,0,0,0,2,2h4.52A8.8,8.8,0,0,1,24,23Z" style="fill:#eac2b9"/><path d="M53.077,41.949,46,39l-3-6-7,5v3l-4,3-4-3V38l-7-5-3,6-7.077,2.949A8,8,0,0,0,6,49.333V62.25a.75.75,0,0,0,.75.75h50.5a.75.75,0,0,0,.75-.75V49.333A8,8,0,0,0,53.077,41.949Z" style="fill:#e6ecff"/><path d="M49.75,50V63h-1.5V50a.75.75,0,0,1,1.5,0Z" style="fill:#d0dbf7"/><path d="M15.75,50V63h-1.5V50a.75.75,0,0,1,1.5,0Z" style="fill:#d0dbf7"/><path d="M23,13V23a9,9,0,0,0,18,0V13Z" style="fill:#ffddd4"/><path d="M41,20v3a9,9,0,0,1-18,0V20l2.63,1.32a3.287,3.287,0,0,1,1.74,2.16,3.379,3.379,0,0,0,1.18,1.82,3.334,3.334,0,0,0,2.04.7h2.82a3.325,3.325,0,0,0,3.22-2.52,3.287,3.287,0,0,1,1.74-2.16Z" style="fill:#494a59"/><circle cx="35" cy="53" r="1" style="fill:#d0dbf7"/><circle cx="35" cy="49" r="1" style="fill:#d0dbf7"/><circle cx="35" cy="45" r="1" style="fill:#d0dbf7"/><circle cx="35" cy="57" r="1" style="fill:#d0dbf7"/><circle cx="35" cy="61" r="1" style="fill:#d0dbf7"/><polygon points="32.75 43.438 32 44 31.25 43.438 31.25 63 32.75 63 32.75 43.438" style="fill:#d0dbf7"/><path d="M35,1H29a9,9,0,0,0-9,9v4H44V10A9,9,0,0,0,35,1Z" style="fill:#e6ecff"/><path d="M44,54.75H40a.75.75,0,0,1,0-1.5h4a.75.75,0,0,1,0,1.5Z" style="fill:#d0dbf7"/></g></svg>