<svg xmlns="http://www.w3.org/2000/svg" viewBox="0 0 64 64"><title>Avatar-37</title><g id="CS"><path d="M12.25,44.19a5.343,5.343,0,0,1-1.14-4.4c.95-4.37,4.95-3.88,2.43-9.4A19.24,19.24,0,0,1,12.58,21c.47-3.26,2.82-9.01,5.26-13.63A11.98,11.98,0,0,1,28.44,1H36a4,4,0,0,1,4,4,9.035,9.035,0,0,1,4.94,1.47,8.77,8.77,0,0,1,3.3,3.93,50.432,50.432,0,0,1,3.2,11.1,16.752,16.752,0,0,1-.98,8.89c-2.52,5.52,1.48,5.03,2.43,9.4a5.343,5.343,0,0,1-1.14,4.4Z" style="fill:#343544"/><path d="M52.1,44.35l-7.89-3.56L38,47l-6-4-6,4-6.21-6.21L11.9,44.35A9.992,9.992,0,0,0,6,53.47v8.78a.75.75,0,0,0,.75.75h50.5a.75.75,0,0,0,.75-.75V53.47A9.992,9.992,0,0,0,52.1,44.35Z" style="fill:#e6ecff"/><path d="M38,31.7V39l-6,5-6-5V31.7a8.976,8.976,0,0,0,12,0Z" style="fill:#eac2b9"/><path d="M23,18a25.056,25.056,0,0,0,13.925-4.928l.034.093A4.905,4.905,0,0,0,41,16.347h0V26a9,9,0,0,1-9,9h0a9,9,0,0,1-9-9Z" style="fill:#ffddd4"/><path d="M45,23v2a2.006,2.006,0,0,1-2,2H40.94A8.262,8.262,0,0,0,41,26V21h2A2.006,2.006,0,0,1,45,23Z" style="fill:#eac2b9"/><path d="M23.06,27H21a2.006,2.006,0,0,1-2-2V23a2.006,2.006,0,0,1,2-2h2v5A8.262,8.262,0,0,0,23.06,27Z" style="fill:#eac2b9"/><path d="M16.75,52v3a.718.718,0,0,1-.13.42,11.147,11.147,0,0,0-1.87,6.19V63h-1.5V61.61a12.584,12.584,0,0,1,2-6.83V52a.75.75,0,0,1,1.5,0Z" style="fill:#d0dbf7"/><path d="M50.75,61.61V63h-1.5V61.61a11.147,11.147,0,0,0-1.87-6.19.718.718,0,0,1-.13-.42V52a.75.75,0,0,1,1.5,0v2.78A12.584,12.584,0,0,1,50.75,61.61Z" style="fill:#d0dbf7"/><polygon points="32 43 26 47 19.79 40.79 26 38 32 43" style="fill:#d0dbf7"/><polygon points="44.21 40.79 38 47 32 43 38 38 44.21 40.79" style="fill:#d0dbf7"/><polygon points="31.25 43.5 31.25 63 32.75 63 32.75 43.5 32 43 31.25 43.5" style="fill:#bbcaea"/><path d="M44,56.75H39a.75.75,0,0,1,0-1.5h5a.75.75,0,0,1,0,1.5Z" style="fill:#d0dbf7"/><path d="M39.324,26.975A11.809,11.809,0,0,1,34,28.25H32a.75.75,0,0,0,0,1.5h2a13.328,13.328,0,0,0,6-1.437l.788-.4a9.056,9.056,0,0,0,.2-1.786Z" style="fill:#376cfb"/><circle cx="32" cy="29" r="2" style="fill:#4294ff"/></g></svg>