<svg xmlns="http://www.w3.org/2000/svg" viewBox="0 0 64 64"><title>Avatar-30</title><g id="Graduated"><polygon points="44 8.21 44 16.21 32 20 20 16.21 20 8.21 22.5 9 32 12 41.5 9 44 8.21" style="fill:#494a59"/><path d="M11,44.81C2.12,34,13.86,31.5,15,22c.72-6.04,5-7,5-7v.21L32,19,44,15.21V15s4.28.96,5,7c1.14,9.5,12.88,12,4,22.81Z" style="fill:#343544"/><path d="M52.1,44.35C40.823,39.268,43.775,40.6,38,38l-6,5-6-5c-5.793,2.606-2.775,1.247-14.1,6.35A9.992,9.992,0,0,0,6,53.47v8.78a.75.75,0,0,0,.75.75h50.5a.75.75,0,0,0,.75-.75V53.47A9.992,9.992,0,0,0,52.1,44.35Z" style="fill:#494a59"/><path d="M49.52,43.19C46.64,48.95,39.87,53,32,53s-14.64-4.05-17.52-9.81C22.77,39.45,20.7,40.39,26,38l6,5,6-5C43.28,40.38,41.26,39.47,49.52,43.19Z" style="fill:#ffb64d"/><path d="M45.88,41.55C43.65,45.92,38.27,49,32,49s-11.65-3.08-13.88-7.45c4.14-1.87,3.56-1.6,7.88-3.55l6,5,6-5C42.3,39.94,41.76,39.69,45.88,41.55Z" style="fill:#ea972a"/><path d="M38,32.71V38l-6,5-6-5V32.7a8.991,8.991,0,0,0,12,.01Z" style="fill:#eac2b9"/><path d="M41,21.12V26a9,9,0,0,1-18,0V21.12a1.816,1.816,0,0,1,1-1.62,1.816,1.816,0,0,0,1-1.62V16.79L32,19l7-2.21v1.09a1.816,1.816,0,0,0,1,1.62A1.816,1.816,0,0,1,41,21.12Z" style="fill:#ffddd4"/><path d="M45,24v2a2.006,2.006,0,0,1-2,2H40.78A9.356,9.356,0,0,0,41,26V22h2A2.006,2.006,0,0,1,45,24Z" style="fill:#eac2b9"/><path d="M23.22,28H21a2.006,2.006,0,0,1-2-2V24a2.006,2.006,0,0,1,2-2h2v4A9.356,9.356,0,0,0,23.22,28Z" style="fill:#eac2b9"/><path d="M16.75,54v3a.749.749,0,0,1-.22.53,6.128,6.128,0,0,0-1.78,4.3V63h-1.5V61.83a7.66,7.66,0,0,1,2-5.13V54a.75.75,0,0,1,1.5,0Z" style="fill:#343544"/><path d="M50.75,61.83V63h-1.5V61.83a6.128,6.128,0,0,0-1.78-4.3.749.749,0,0,1-.22-.53V54a.75.75,0,0,1,1.5,0v2.7A7.66,7.66,0,0,1,50.75,61.83Z" style="fill:#343544"/><polygon points="42.58 40.06 37 45 32 43 38 38 42.58 40.06" style="fill:#e6ecff"/><polygon points="32 43 27 45 21.42 40.06 26 38 32 43" style="fill:#e6ecff"/><polygon points="13 7 32 13 51 7 32 1 13 7" style="fill:#343544"/><path d="M51,7v9a.75.75,0,0,1-1.5,0V7.47Z" style="fill:#494a59"/></g></svg>