<svg xmlns="http://www.w3.org/2000/svg" viewBox="0 0 64 64"><title>Avatar-26</title><g id="tas_delivery" data-name="tas delivery"><path d="M49.212,33.993c.378-.347.341-1.66,1.248-3.6a16.752,16.752,0,0,0,.98-8.89,50.432,50.432,0,0,0-3.2-11.1,8.77,8.77,0,0,0-3.3-3.93A9.035,9.035,0,0,0,40,5a4,4,0,0,0-4-4H28.44a11.98,11.98,0,0,0-10.6,6.37C15.4,11.99,13.05,17.74,12.58,21a19.24,19.24,0,0,0,.96,9.39,20.652,20.652,0,0,1,1.066,3.3v3.229H49.292Z" style="fill:#494a59"/><path d="M41,26V16.35a4.924,4.924,0,0,1-4.04-3.19l-.03-.09A25.086,25.086,0,0,1,23,18v8" style="fill:#494a59"/><path d="M58.016,36V50.73a4,4,0,0,0-.32-.4,9.4,9.4,0,0,0-1.93-1.79c-1.17-.862-2.66-2.012-18.75-8.54V35h20A1,1,0,0,1,58.016,36Z" style="fill:#ea972a"/><path d="M6.016,36V50.73a4,4,0,0,1,.32-.4,9.4,9.4,0,0,1,1.93-1.79c1.17-.862,2.66-2.012,18.75-8.54V35h-20A1,1,0,0,0,6.016,36Z" style="fill:#ea972a"/><path d="M53.806,44.46C50,42.9,42.1,39.664,38.016,38l-6,5-6-5c-2.241.908-3.717,1.515-15.79,6.46a10,10,0,0,0-6.21,9.25v8.54a.75.75,0,0,0,.75.75h54.5a.75.75,0,0,0,.75-.75V53.71A10,10,0,0,0,53.806,44.46Z" style="fill:#e6ecff"/><path d="M38.016,31.7V39l-6,5-6-5V31.7a8.976,8.976,0,0,0,12,0Z" style="fill:#eac2b9"/><polygon points="31.266 42.375 31.266 63 32.766 63 32.766 42.375 32.016 43 31.266 42.375" style="fill:#bbcaea"/><path d="M53.016,63V33a1,1,0,0,0-1-1h-4a1,1,0,0,0-1,1V63" style="fill:#ffb64d"/><path d="M53.016,33v2h-6V33a1,1,0,0,1,1-1h4A1,1,0,0,1,53.016,33Z" style="fill:#ffb64d"/><path d="M11.016,63V33a1,1,0,0,1,1-1h4a1,1,0,0,1,1,1V63" style="fill:#ffb64d"/><circle cx="35.016" cy="53" r="1" style="fill:#d0dbf7"/><circle cx="35.016" cy="49" r="1" style="fill:#d0dbf7"/><circle cx="35.016" cy="57" r="1" style="fill:#d0dbf7"/><circle cx="35.016" cy="61" r="1" style="fill:#d0dbf7"/><rect x="47.016" y="49" width="6" height="5" style="fill:#ea972a"/><rect x="11.016" y="49" width="6" height="5" transform="translate(28.032 103) rotate(-180)" style="fill:#ea972a"/><path d="M44.406,40.61,38.016,47l-6-4,6-5C40,38.81,42.236,39.73,44.406,40.61Z" style="fill:#d0dbf7"/><path d="M32.016,43l-6,4-6.39-6.39c2.22-.91,4.49-1.84,6.39-2.61Z" style="fill:#d0dbf7"/><path d="M45,23v2a2.006,2.006,0,0,1-2,2H39.94A8.262,8.262,0,0,0,40,26V21h3A2.006,2.006,0,0,1,45,23Z" style="fill:#eac2b9"/><path d="M24.06,27H21a2.006,2.006,0,0,1-2-2V23a2.006,2.006,0,0,1,2-2h3v5A8.262,8.262,0,0,0,24.06,27Z" style="fill:#eac2b9"/><path d="M23,18a25.056,25.056,0,0,0,13.925-4.928l.034.093A4.905,4.905,0,0,0,41,16.347h0V26a9,9,0,0,1-9,9h0a9,9,0,0,1-9-9Z" style="fill:#ffddd4"/></g></svg>