<svg xmlns="http://www.w3.org/2000/svg" viewBox="0 0 64 64"><title>Avatar-12</title><g id="Chef"><path d="M46,7A5.993,5.993,0,0,0,36,2.537a5.973,5.973,0,0,0-8,0,5.995,5.995,0,1,0-7,9.654V18H43V12.191A5.992,5.992,0,0,0,46,7Z" style="fill:#e6ecff"/><rect x="40" y="20" width="4" height="6" style="fill:#494a59"/><rect x="20" y="20" width="4" height="6" style="fill:#494a59"/><path d="M46,27v3a2.006,2.006,0,0,1-2,2H39.48A8.8,8.8,0,0,0,40,29V25h4A2.006,2.006,0,0,1,46,27Z" style="fill:#eac2b9"/><path d="M24.52,32H20a2.006,2.006,0,0,1-2-2V27a2.006,2.006,0,0,1,2-2h4v4A8.8,8.8,0,0,0,24.52,32Z" style="fill:#eac2b9"/><path d="M39,33.64v9.22L36,45v3l-4,2.46L28,48V45l-3-2.14V33.64a8.976,8.976,0,0,0,13.36.72A8.669,8.669,0,0,0,39,33.64Z" style="fill:#eac2b9"/><path d="M52.8,47.57,46,46l-3-7-4,2.86L36,44v3l-4,2.46L28,47V44l-3-2.14L21,39l-3,7-6.8,1.57A8,8,0,0,0,5,55.36V63H59V55.36A8,8,0,0,0,52.8,47.57Z" style="fill:#d0dbf7"/><path d="M59,55.36V63H23V57.24a4.01,4.01,0,0,1,1.9-3.41L32,49.46,36,47V44l3-2.14L43,39l3,7,6.8,1.57A8,8,0,0,1,59,55.36Z" style="fill:#e6ecff"/><path d="M50.75,56v7h-1.5V56a.75.75,0,0,1,1.5,0Z" style="fill:#d0dbf7"/><path d="M14.75,56v7h-1.5V56a.75.75,0,0,1,1.5,0Z" style="fill:#bbcaea"/><path d="M23,21v8a9,9,0,0,0,9,9h0a9,9,0,0,0,9-9V21Z" style="fill:#ffddd4"/><rect x="18" y="17" width="28" height="4" rx="0.75" ry="0.75" style="fill:#d0dbf7"/><path d="M28,2.54a6.122,6.122,0,0,0-1.62,2.34.75.75,0,0,1-1.4-.54,7.606,7.606,0,0,1,1.77-2.67A6.357,6.357,0,0,1,28,2.54Z" style="fill:#d0dbf7"/><path d="M38.59,5.31a.646.646,0,0,1-.27.05.753.753,0,0,1-.7-.48A6.122,6.122,0,0,0,36,2.54a6.357,6.357,0,0,1,1.25-.87,7.606,7.606,0,0,1,1.77,2.67A.746.746,0,0,1,38.59,5.31Z" style="fill:#d0dbf7"/><path d="M43,12.19v1.68a7.505,7.505,0,0,1-3,.63A.75.75,0,0,1,40,13,5.974,5.974,0,0,0,43,12.19Z" style="fill:#d0dbf7"/><path d="M24.75,13.75a.749.749,0,0,1-.75.75,7.505,7.505,0,0,1-3-.63V12.19A5.974,5.974,0,0,0,24,13,.755.755,0,0,1,24.75,13.75Z" style="fill:#d0dbf7"/><path d="M43,39l-4,2.86V37a4.829,4.829,0,0,1,3.41,1.41Z" style="fill:#d0dbf7"/><path d="M25,37v4.86L21,39l.59-.59A4.829,4.829,0,0,1,25,37Z" style="fill:#bbcaea"/><circle cx="26" cy="57" r="1" style="fill:#d0dbf7"/><circle cx="26" cy="60.5" r="1" style="fill:#d0dbf7"/></g></svg>