<svg xmlns="http://www.w3.org/2000/svg" viewBox="0 0 64 64"><title>Avatar-17</title><g id="Hijab"><path d="M53.7,44.057A7.665,7.665,0,0,1,49,37.123V19.445C49,9.917,41.2,1.825,31.675,2A17,17,0,0,0,15,19V37.123a7.665,7.665,0,0,1-4.7,6.934A8.969,8.969,0,0,0,5,52.242V61.25a.75.75,0,0,0,.75.75h52.5a.75.75,0,0,0,.75-.75V52.242A8.969,8.969,0,0,0,53.7,44.057Z" style="fill:#e6ecff"/><path d="M32.75,50.28V62h-1.5V50.28a.75.75,0,0,1,1.5,0Z" style="fill:#d0dbf7"/><path d="M50.26,41.18A7.8,7.8,0,0,1,49,36.95V19a17,17,0,0,0-34,0V36.95a7.718,7.718,0,0,1-4.63,7.07s9.41-1.55,14.57,2.67c.94.77,1.83,1.47,2.63,2.08a7.263,7.263,0,0,0,8.86,0c.8-.61,1.69-1.31,2.63-2.08,5.16-4.22,14.57-2.67,14.57-2.67A7.815,7.815,0,0,1,50.26,41.18Z" style="fill:#494a59"/><path d="M50.75,60.61V62h-1.5V60.61a11.147,11.147,0,0,0-1.87-6.19.718.718,0,0,1-.13-.42V50a.75.75,0,0,1,1.5,0v3.78A12.584,12.584,0,0,1,50.75,60.61Z" style="fill:#d0dbf7"/><path d="M16.75,50v4a.718.718,0,0,1-.13.42,11.147,11.147,0,0,0-1.87,6.19V62h-1.5V60.61a12.584,12.584,0,0,1,2-6.83V50a.75.75,0,0,1,1.5,0Z" style="fill:#d0dbf7"/><path d="M32,12A10,10,0,0,0,22,22v5a10,10,0,0,0,20,0V22A10,10,0,0,0,32,12Z" style="fill:#ffddd4"/><path d="M39.07,13.93A10,10,0,0,0,22.05,20a15.884,15.884,0,0,1,19.9,0A9.944,9.944,0,0,0,39.07,13.93Z" style="fill:#343544"/></g></svg>