<svg xmlns="http://www.w3.org/2000/svg" viewBox="0 0 64 64"><title>Avatar-19</title><g id="Running_Girl" data-name="Running Girl"><path d="M51.12,45.22,38,39V32.71A9,9,0,0,0,41,26V17h2.5a2.567,2.567,0,0,0,.96-.19.564.564,0,0,0,.04.12c2.34,5.86,7.87,4.01,6.96,9.99-.96,7.43,1.48,6.43,2.43,10.44C54.52,39.99,52.64,43.71,51.12,45.22Z" style="fill:#494a59"/><path d="M26,32.71V39L12.88,45.21c-1.52-1.52-3.39-5.22-2.77-7.85.95-4.01,3.39-3.01,2.43-10.44-.92-5.98,4.62-4.13,6.96-9.99a.564.564,0,0,0,.04-.12,2.567,2.567,0,0,0,.96.19H23v9a8.954,8.954,0,0,0,2.64,6.36C25.76,32.48,25.88,32.59,26,32.71Z" style="fill:#494a59"/><path d="M43,22H41l-.226,6H43a2,2,0,0,0,2-2V24A2,2,0,0,0,43,22Z" style="fill:#eac2b9"/><path d="M23,22H21a2,2,0,0,0-2,2v2a2,2,0,0,0,2,2h2.225Z" style="fill:#eac2b9"/><path d="M51.28,45.29,38,39V31.71h-.01a8.979,8.979,0,0,1-11.98,0H26V39L12.72,45.29A10.009,10.009,0,0,0,7,54.33v7.92a.75.75,0,0,0,.75.75h48.5a.75.75,0,0,0,.75-.75V54.33A10.009,10.009,0,0,0,51.28,45.29Z" style="fill:#eac2b9"/><path d="M50,60v3H14V60a14.981,14.981,0,0,1,3-9V43.26l4.89-2.31A11.092,11.092,0,0,0,32,47a11.092,11.092,0,0,0,10.11-6.05L47,43.26V51A14.981,14.981,0,0,1,50,60Z" style="fill:#4294ff"/><path d="M41,16V26a9,9,0,0,1-9,9h0a9,9,0,0,1-9-9V16Z" style="fill:#ffddd4"/><path d="M51.12,45.22l-.02.02"/><path d="M43.49,12v.79H20.5V12h.01c.5-4.45.87-8.96,7.8-10.58a16.42,16.42,0,0,1,7.38,0C42.62,3.04,42.99,7.55,43.49,12Z" style="fill:#494a59"/><rect x="18" y="12" width="28" height="5" rx="2.5" ry="2.5" style="fill:#4294ff"/></g></svg>