<svg xmlns="http://www.w3.org/2000/svg" viewBox="0 0 64 64"><title>Avatar-6</title><g id="Business_Girl" data-name="Business Girl"><path d="M49.96,43.67,38,38l-4,5H30l-4-5L14.04,43.67c-1.63-1.01-4.66-3.33-3.92-6.29,1-4,5.19-5.38,2.55-10.42C10.37,22.58,11.88,1,32,1S53.63,22.58,51.33,26.96c-2.64,5.04,1.54,6.42,2.54,10.42C54.61,40.34,51.58,42.66,49.96,43.67Z" style="fill:#494a59"/><path d="M51.281,44.291,38,38l-4,5H30l-4-5L12.719,44.291A10,10,0,0,0,7,53.328V62.25a.75.75,0,0,0,.75.75h48.5a.75.75,0,0,0,.75-.75V53.328A10,10,0,0,0,51.281,44.291Z" style="fill:#e6ecff"/><path d="M38,31.7V39l-4,5H30l-4-5V31.7a8.976,8.976,0,0,0,12,0Z" style="fill:#eac2b9"/><path d="M43,22H41l-.226,6H43a2,2,0,0,0,2-2V24A2,2,0,0,0,43,22Z" style="fill:#eac2b9"/><path d="M23,22H21a2,2,0,0,0-2,2v2a2,2,0,0,0,2,2h2.225Z" style="fill:#eac2b9"/><path d="M16.75,52v4a.718.718,0,0,1-.13.42,11.147,11.147,0,0,0-1.87,6.19V63h-1.5v-.39a12.584,12.584,0,0,1,2-6.83V52a.75.75,0,0,1,1.5,0Z" style="fill:#d0dbf7"/><path d="M50.75,62.61V63h-1.5v-.39a11.147,11.147,0,0,0-1.87-6.19.718.718,0,0,1-.13-.42V52a.75.75,0,0,1,1.5,0v3.78A12.584,12.584,0,0,1,50.75,62.61Z" style="fill:#d0dbf7"/><path d="M23,19a25.056,25.056,0,0,0,13.925-4.928l.034.093A4.905,4.905,0,0,0,41,17.347h0V26a9,9,0,0,1-9,9h0a9,9,0,0,1-9-9Z" style="fill:#ffddd4"/><polygon points="38 63 35 52 37.88 46.24 34 43 30 43 26.12 46.24 29 52 26 63 38 63" style="fill:#494a59"/><polygon points="37.88 46.24 35 52 29 52 26.12 46.24 30 43 34 43 37.88 46.24" style="fill:#343544"/><polygon points="30 43 26.12 46.24 24 48 19.93 40.88 26 38 30 43" style="fill:#d0dbf7"/><polygon points="44.07 40.88 40 48 37.88 46.24 34 43 38 38 44.07 40.88" style="fill:#d0dbf7"/></g></svg>