<svg xmlns="http://www.w3.org/2000/svg" viewBox="0 0 64 64"><title>Avatar-39</title><g id="Girl"><path d="M8,56v5.25a.75.75,0,0,0,.75.75H18V56Z" style="fill:#ffddd4"/><path d="M42,56v6h9.25a.75.75,0,0,0,.75-.75V56Z" style="fill:#ffddd4"/><path d="M34,5.07c-.011-.012,8.121-6.159,14-1.02,8,7-3,27.45,10,31.95,0,0-28.369,8.112-24.5-30.481Z" style="fill:#343544"/><path d="M17,25V13A10.994,10.994,0,0,1,28,2h2.53a7.243,7.243,0,0,1,3.8,1.08A7.383,7.383,0,0,1,37,6a7.182,7.182,0,0,1,6,7.08V25Z" style="fill:#494a59"/><path d="M36,31.7V40l-6,5-6-5V31.7a8.976,8.976,0,0,0,12,0Z" style="fill:#eac2b9"/><path d="M50.436,45.418C39.72,40.66,42.932,42.088,36,39l-6,5-6-5c-6.934,3.089-3.715,1.657-14.436,6.418A6,6,0,0,0,6,50.9V56.25a.75.75,0,0,0,.75.75H17v5H43V57H53.25a.75.75,0,0,0,.75-.75V50.9A6,6,0,0,0,50.436,45.418Z" style="fill:#4294ff"/><path d="M44,24v2a2.006,2.006,0,0,1-2,2H37.78A9.356,9.356,0,0,0,38,26V22h4A2.006,2.006,0,0,1,44,24Z" style="fill:#eac2b9"/><path d="M22.22,28H18a2.006,2.006,0,0,1-2-2V24a2.006,2.006,0,0,1,2-2h4v4A9.356,9.356,0,0,0,22.22,28Z" style="fill:#eac2b9"/><path d="M30,52.75a.75.75,0,0,0,.75-.75V43.375L30,44l-.75-.625V52A.75.75,0,0,0,30,52.75Z" style="fill:#2946ed"/><path d="M39,55.75H35a.75.75,0,0,1,0-1.5h4a.75.75,0,0,1,0,1.5Z" style="fill:#376cfb"/><path d="M44.5,52v5H43V52a.75.75,0,0,1,1.5,0Z" style="fill:#376cfb"/><path d="M17,52v5H15.5V52A.75.75,0,0,1,17,52Z" style="fill:#376cfb"/><polygon points="30 44 25 48 18.5 41.45 24 39 30 44" style="fill:#376cfb"/><polygon points="41.5 41.45 35 48 30 44 36 39 41.5 41.45" style="fill:#376cfb"/><path d="M21,17.347h0V26a9,9,0,0,0,9,9h0a9,9,0,0,0,9-9V20c-9.894-.284-13-6-13-6A9.628,9.628,0,0,1,21,17.347Z" style="fill:#ffddd4"/></g></svg>