<svg xmlns="http://www.w3.org/2000/svg" viewBox="0 0 64 64"><title>Avatar-18</title><g id="Farmer_Girl" data-name="Farmer Girl"><path d="M38,28.7V37a6,6,0,0,1-12,0V28.7h.02A8.856,8.856,0,0,0,32,31,8.955,8.955,0,0,0,38,28.7Z" style="fill:#eac2b9"/><path d="M26.02,29.7H26V35l-5,2.89-5,2.9-4.14,2.4c-.79-1.34-3.55-6.75.14-11.5,1.5-1.94,3.52-4.19,3.75-7.07.29-3.63-.38-7.17,2.77-9.83,1.98-.26,4.16-.46,6.48-.59v1.68a1.816,1.816,0,0,1-1,1.62,1.816,1.816,0,0,0-1,1.62V23a8.954,8.954,0,0,0,2.64,6.36A2.99,2.99,0,0,0,26.02,29.7Z" style="fill:#343544"/><path d="M52.14,43.19,48,40.79l-5-2.9L38,35V29.7A8.96,8.96,0,0,0,41,23V19.12a1.816,1.816,0,0,0-1-1.62,1.816,1.816,0,0,1-1-1.62V14.2c2.32.13,4.5.33,6.48.59,3.15,2.66,2.48,6.2,2.77,9.83.23,2.88,2.25,5.13,3.75,7.07C55.69,36.44,52.93,41.85,52.14,43.19Z" style="fill:#343544"/><path d="M53.01,43.69,48,40.79l-5-2.9L38,35v1a6,6,0,0,1-6,6,6.1,6.1,0,0,1-6-6.2V35l-5,2.89-5,2.9-5.01,2.9A8,8,0,0,0,7,50.61V61.25a.75.75,0,0,0,.75.75h48.5a.75.75,0,0,0,.75-.75V50.61A8,8,0,0,0,53.01,43.69Z" style="fill:#494a59"/><polygon points="43 36 43 50 48 50 48 39 43 36" style="fill:#ea972a"/><polygon points="16 50 21 50 21 36 16 39 16 50" style="fill:#ea972a"/><path d="M49.5,56A3.37,3.37,0,0,1,48,53.2V49H16v4.2A3.37,3.37,0,0,1,14.5,56,3.37,3.37,0,0,0,13,58.8V62H51V58.8A3.37,3.37,0,0,0,49.5,56Z" style="fill:#ffb64d"/><path d="M36.257,53.462l-.522-2.608a.75.75,0,1,0-1.47.294l.521,2.608a1.25,1.25,0,0,1-1.225,1.495H32.75V51a.75.75,0,0,0-1.5,0v4.25h-.811a1.251,1.251,0,0,1-1.225-1.5l.521-2.607a.75.75,0,1,0-1.47-.294l-.522,2.608a2.751,2.751,0,0,0,2.7,3.289h.811V60a.75.75,0,1,0,1.5,0v-3.25h.811a2.752,2.752,0,0,0,2.7-3.289Z" style="fill:#ea972a"/><circle cx="45" cy="52" r="1" style="fill:#ea972a"/><circle cx="19" cy="52" r="1" style="fill:#ea972a"/><path d="M43,20H41l-.514,6H43a2,2,0,0,0,2-2V22A2,2,0,0,0,43,20Z" style="fill:#eac2b9"/><path d="M23,20H21a2,2,0,0,0-2,2v2a2,2,0,0,0,2,2h2.513Z" style="fill:#eac2b9"/><path d="M18.52,14.79c-2.63,2.22-2.6,5.05-2.68,8.03C10.43,21.9,7,20.53,7,19,7,17.23,11.59,15.68,18.52,14.79Z" style="fill:#ea972a"/><path d="M57,19c0,1.53-3.43,2.9-8.84,3.82-.08-2.98-.05-5.81-2.68-8.03C52.41,15.68,57,17.23,57,19Z" style="fill:#ea972a"/><path d="M41,19.12V23a9,9,0,0,1-18,0V19.12a1.816,1.816,0,0,1,1-1.62,1.816,1.816,0,0,0,1-1.62V13.2c2.22-.13,4.57-.2,7-.2s4.78.07,7,.2v2.68a1.816,1.816,0,0,0,1,1.62A1.816,1.816,0,0,1,41,19.12Z" style="fill:#ffddd4"/><path d="M47.778,14.921a16.094,16.094,0,0,0-31.556,0l-.042.209A100.746,100.746,0,0,1,32,14a100.746,100.746,0,0,1,15.82,1.13Z" style="fill:#ffb64d"/></g></svg>