<svg xmlns="http://www.w3.org/2000/svg" viewBox="0 0 64 64"><title>Avatar-7</title><g id="Hat_Girl" data-name="Hat Girl"><path d="M12.72,44.47c-.06.03-.13.06-.19.09a5.575,5.575,0,0,1-1.43-4.77c.95-4.37,4.96-3.88,2.44-9.4-.7-1.52-.73-4.92.07-8.87a34.18,34.18,0,0,1,3.46-9.59h.01A112.346,112.346,0,0,1,32,11a112.346,112.346,0,0,1,14.92.93h.01a34.18,34.18,0,0,1,3.46,9.59c.8,3.95.77,7.35.07,8.87-2.52,5.52,1.48,5.03,2.43,9.4a5.524,5.524,0,0,1-1.43,4.76c-.06-.03-.12-.05-.18-.08Z" style="fill:#494a59"/><path d="M44,56v7h8.25a.75.75,0,0,0,.75-.75V56Z" style="fill:#ffddd4"/><path d="M10.991,62.25a.75.75,0,0,0,.75.75h8.25V56h-9Z" style="fill:#ffddd4"/><path d="M43,22H41l-.226,6H43a2,2,0,0,0,2-2V24A2,2,0,0,0,43,22Z" style="fill:#eac2b9"/><path d="M23,22H21a2,2,0,0,0-2,2v2a2,2,0,0,0,2,2h2.225Z" style="fill:#eac2b9"/><path d="M17.07,11.93a34.18,34.18,0,0,0-3.46,9.59C7.72,20.42,4,18.8,4,17,4,14.86,9.22,12.99,17.07,11.93Z" style="fill:#ea972a"/><path d="M60,17c0,1.8-3.72,3.42-9.61,4.52a34.18,34.18,0,0,0-3.46-9.59C54.78,12.99,60,14.86,60,17Z" style="fill:#ea972a"/><path d="M50.61,12.52c-1.15-.22-2.38-.41-3.69-.59A113.5,113.5,0,0,0,32,11c-.75,0-1.5.01-2.23.02a101.053,101.053,0,0,0-16.38,1.5L16.81,5.5A8,8,0,0,1,24,1H40A8,8,0,0,1,47.19,5.5Z" style="fill:#ffb64d"/><path d="M51.28,44.47,38,39V32.7a8.976,8.976,0,0,1-12,0V39L12.72,44.47A6.01,6.01,0,0,0,9,50.02v6.23a.75.75,0,0,0,.75.75H19v6H45V57h9.25a.75.75,0,0,0,.75-.75V50.02A6.01,6.01,0,0,0,51.28,44.47Z" style="fill:#4294ff"/><path d="M42.21,40.73A11.054,11.054,0,0,1,32,47a11.054,11.054,0,0,1-10.21-6.27L26,39V31.7a8.976,8.976,0,0,0,12,0V39Z" style="fill:#eac2b9"/><path d="M46.5,52v5H45V52a.75.75,0,0,1,1.5,0Z" style="fill:#376cfb"/><path d="M19,52v5H17.5V52A.75.75,0,0,1,19,52Z" style="fill:#376cfb"/><path d="M41,18.347h0V26a9,9,0,0,1-9,9h0a9,9,0,0,1-9-9V20a25.056,25.056,0,0,0,13.925-4.928S38,18.417,41,18.347Z" style="fill:#ffddd4"/></g></svg>