<svg xmlns="http://www.w3.org/2000/svg" viewBox="0 0 64 64"><title>Avatar-40</title><g id="Business_Woman" data-name="Business Woman"><path d="M20.966,47.742,14.728,44.07s-5.475-3.223-4.608-6.69c1-4,5.19-5.38,2.55-10.42C10.37,22.58,11.88,1,32,1S53.63,22.58,51.33,26.96c-2.64,5.04,1.54,6.42,2.54,10.42.868,3.472-4.6,6.693-4.6,6.693l-6.75,3.979Z" style="fill:#272933"/><path d="M52.1,45.35l-11.1-5a11.784,11.784,0,0,1-18,0l-11.1,5A9.992,9.992,0,0,0,6,54.47v7.78a.75.75,0,0,0,.75.75h50.5a.75.75,0,0,0,.75-.75V54.47A9.992,9.992,0,0,0,52.1,45.35Z" style="fill:#494a59"/><path d="M41,40.35a11.784,11.784,0,0,1-18,0L26,39V32.7a8.976,8.976,0,0,0,12,0V39Z" style="fill:#eac2b9"/><path d="M41,19a25.056,25.056,0,0,1-13.925-4.928l-.034.093A4.905,4.905,0,0,1,23,17.347h0V26a9,9,0,0,0,9,9h0a9,9,0,0,0,9-9Z" style="fill:#ffddd4"/><path d="M45,24v2a2.006,2.006,0,0,1-2,2H40.78A9.356,9.356,0,0,0,41,26V22h2A2.006,2.006,0,0,1,45,24Z" style="fill:#eac2b9"/><path d="M23.22,28H21a2.006,2.006,0,0,1-2-2V24a2.006,2.006,0,0,1,2-2h2v4A9.356,9.356,0,0,0,23.22,28Z" style="fill:#eac2b9"/><path d="M15.75,52v4a.718.718,0,0,1-.13.42,11.172,11.172,0,0,0-1.87,6.19V63h-1.5v-.39a12.608,12.608,0,0,1,2-6.83V52a.75.75,0,0,1,1.5,0Z" style="fill:#343544"/><path d="M51.75,62.61V63h-1.5v-.39a11.172,11.172,0,0,0-1.87-6.19.718.718,0,0,1-.13-.42V52a.75.75,0,0,1,1.5,0v3.78A12.608,12.608,0,0,1,51.75,62.61Z" style="fill:#343544"/><polygon points="41 47 44 50 32 57 41 40.35 46.29 42.73 41 47" style="fill:#343544"/><polygon points="20 50 23 47 17.7 42.74 23 40.35 32 57 20 50" style="fill:#343544"/><path d="M32.75,63V54.188a.75.75,0,0,0-1.5,0V63Z" style="fill:#272933"/><path d="M41,40.35,32,57,23,40.35A11.784,11.784,0,0,0,41,40.35Z" style="fill:#e6ecff"/></g></svg>