<svg xmlns="http://www.w3.org/2000/svg" viewBox="0 0 64 64"><title>Avatar-27</title><g id="Chef_Girl" data-name="Chef Girl"><path d="M39,33.64V43.86L36,46v3l-4,2.46L28,49V46l-3-2.14V33.65a8.985,8.985,0,0,0,13.36.71A8.669,8.669,0,0,0,39,33.64Z" style="fill:#eac2b9"/><path d="M53.87,50.03,46,47l-3-7-4,2.86L36,45v3l-4,2.46L28,48V45l-3-2.14L21,40l-3,7-7.87,3.03A7.994,7.994,0,0,0,5,57.49V63H59V57.49A7.994,7.994,0,0,0,53.87,50.03Z" style="fill:#d0dbf7"/><path d="M52.84,49.63,46,47l-3-7-.59-.59A4.829,4.829,0,0,0,39,38V34.64A8.935,8.935,0,0,0,41,29V21h2c3.28,1.99,5.74,5.17,5.96,8.83.25,4.29,2.24,5.03,3.81,6.91C56.63,41.37,55.7,45.7,52.84,49.63Z" style="fill:#494a59"/><path d="M25,34.64V38a4.829,4.829,0,0,0-3.41,1.41L21,40l-3,7-6.84,2.63c-2.86-3.93-3.79-8.26.07-12.89,1.57-1.88,3.6-2.62,3.81-6.91C15.22,26.2,17.49,23.16,21,21h2v8A8.935,8.935,0,0,0,25,34.64Z" style="fill:#494a59"/><path d="M45,28v2a2.006,2.006,0,0,1-2,2H39.48A8.8,8.8,0,0,0,40,29V26h3A2.006,2.006,0,0,1,45,28Z" style="fill:#eac2b9"/><path d="M24.52,32H21a2.006,2.006,0,0,1-2-2V28a2.006,2.006,0,0,1,2-2h3v3A8.8,8.8,0,0,0,24.52,32Z" style="fill:#eac2b9"/><path d="M59,57.49V63H23V58.24a4.01,4.01,0,0,1,1.9-3.41L32,50.46,36,48V45l3-2.14L43,40l3,7,7.87,3.03A7.994,7.994,0,0,1,59,57.49Z" style="fill:#e6ecff"/><path d="M43,40l-4,2.86V38a4.829,4.829,0,0,1,3.41,1.41Z" style="fill:#d0dbf7"/><path d="M25,38v4.86L21,40l.59-.59A4.829,4.829,0,0,1,25,38Z" style="fill:#bbcaea"/><circle cx="26" cy="57" r="1" style="fill:#d0dbf7"/><circle cx="26" cy="60.5" r="1" style="fill:#d0dbf7"/><path d="M51.75,63h-1.5a9.112,9.112,0,0,0-1.54-5.08l-.33-.5a.718.718,0,0,1-.13-.42V54a.75.75,0,0,1,1.5,0v2.77l.21.32A10.613,10.613,0,0,1,51.75,63Z" style="fill:#d0dbf7"/><path d="M15.75,54v3a.718.718,0,0,1-.13.42l-.33.5A9.112,9.112,0,0,0,13.75,63h-1.5a10.613,10.613,0,0,1,1.79-5.91l.21-.32V54a.75.75,0,0,1,1.5,0Z" style="fill:#bbcaea"/><path d="M46,7A5.993,5.993,0,0,0,36,2.537a5.973,5.973,0,0,0-8,0,5.995,5.995,0,1,0-7,9.654V18H43V12.191A5.992,5.992,0,0,0,46,7Z" style="fill:#e6ecff"/><path d="M28,2.54a6.122,6.122,0,0,0-1.62,2.34.75.75,0,0,1-1.4-.54,7.606,7.606,0,0,1,1.77-2.67A6.357,6.357,0,0,1,28,2.54Z" style="fill:#d0dbf7"/><path d="M38.59,5.31a.646.646,0,0,1-.27.05.753.753,0,0,1-.7-.48A6.122,6.122,0,0,0,36,2.54a6.357,6.357,0,0,1,1.25-.87,7.606,7.606,0,0,1,1.77,2.67A.746.746,0,0,1,38.59,5.31Z" style="fill:#d0dbf7"/><path d="M43,12.19v1.68a7.505,7.505,0,0,1-3,.63A.75.75,0,0,1,40,13,5.974,5.974,0,0,0,43,12.19Z" style="fill:#d0dbf7"/><path d="M24.75,13.75a.749.749,0,0,1-.75.75,7.505,7.505,0,0,1-3-.63V12.19A5.974,5.974,0,0,0,24,13,.755.755,0,0,1,24.75,13.75Z" style="fill:#d0dbf7"/><path d="M23,20v9a9,9,0,0,0,9,9h0a9,9,0,0,0,9-9V20Z" style="fill:#ffddd4"/><rect x="18" y="17" width="28" height="4" rx="0.75" ry="0.75" style="fill:#d0dbf7"/></g></svg>