<svg xmlns="http://www.w3.org/2000/svg" viewBox="0 0 64 64"><title>Avatar-8</title><g id="Girl_glasses" data-name="Girl glasses"><path d="M52.89,39.79c-.95-4.37-4.95-3.88-2.43-9.4a16.752,16.752,0,0,0,.98-8.89,50.432,50.432,0,0,0-3.2-11.1,8.77,8.77,0,0,0-3.3-3.93A9.035,9.035,0,0,0,40,5a4,4,0,0,0-4-4H28.44a11.98,11.98,0,0,0-10.6,6.37C15.4,11.99,13.05,17.74,12.58,21a19.24,19.24,0,0,0,.96,9.39c2.52,5.52-1.48,5.03-2.43,9.4a5.524,5.524,0,0,0,1.43,4.76c.06-.03.12-.05.18-.08l9.07-3.74L26,39V34.22a11,11,0,0,0,12,0V39l4.21,1.73,9.07,3.74c.06.03.12.05.18.08A5.524,5.524,0,0,0,52.89,39.79Z" style="fill:#494a59"/><path d="M51.28,44.47C40.411,39.988,43.305,41.18,38,39V33.22a11,11,0,0,1-12,0V39c-5.3,2.18-2.41.988-13.28,5.47A6.01,6.01,0,0,0,9,50.02V62.25a.75.75,0,0,0,.75.75h44.5a.75.75,0,0,0,.75-.75V50.02A6.01,6.01,0,0,0,51.28,44.47Z" style="fill:#dbaa89"/><path d="M42.21,40.73A11.054,11.054,0,0,1,32,47a11.054,11.054,0,0,1-10.21-6.27L26,39V33.22a11,11,0,0,0,12,0V39Z" style="fill:#eac2b9"/><path d="M43,15.772V25A11,11,0,0,1,32,36h0A11,11,0,0,1,21,25V16.948a1,1,0,0,1,.952-.993A34.118,34.118,0,0,0,38,11a5.424,5.424,0,0,0,3.435,2.823A2.033,2.033,0,0,1,43,15.772Z" style="fill:#ffddd4"/><path d="M45,20H43l-.047,6H45a2,2,0,0,0,2-2V22A2,2,0,0,0,45,20Z" style="fill:#eac2b9"/><path d="M21,20H19a2,2,0,0,0-2,2v2a2,2,0,0,0,2,2h2.073Z" style="fill:#eac2b9"/><path d="M43,18.119l-3.662,2.254a1.746,1.746,0,0,0-.619-.123H35a1.748,1.748,0,0,0-1.574,1H30.574a1.748,1.748,0,0,0-1.574-1H25.281a1.73,1.73,0,0,0-.62.124L21,18.119v1.762l2.616,1.61a1.73,1.73,0,0,0-.033.934l.311,1.242a2.744,2.744,0,0,0,2.668,2.083H28A2.753,2.753,0,0,0,30.75,23v-.25h2.5V23A2.752,2.752,0,0,0,36,25.75h1.438a2.744,2.744,0,0,0,2.668-2.083l.311-1.243a1.733,1.733,0,0,0-.033-.932L43,19.881ZM29.25,23A1.252,1.252,0,0,1,28,24.25H26.562a1.249,1.249,0,0,1-1.213-.947l-.311-1.242a.251.251,0,0,1,.243-.311H29a.25.25,0,0,1,.25.25Zm9.4.3a1.249,1.249,0,0,1-1.213.947H36A1.252,1.252,0,0,1,34.75,23V22a.25.25,0,0,1,.25-.25h3.719a.246.246,0,0,1,.2.1.249.249,0,0,1,.046.215Z" style="fill:#343544"/><path d="M47.75,62.61V63h-1.5v-.39a11.172,11.172,0,0,0-1.87-6.19.718.718,0,0,1-.13-.42V52a.75.75,0,0,1,1.5,0v3.78A12.608,12.608,0,0,1,47.75,62.61Z" style="fill:#b28362"/><path d="M19.75,52v4a.718.718,0,0,1-.13.42,11.147,11.147,0,0,0-1.87,6.19V63h-1.5v-.39a12.584,12.584,0,0,1,2-6.83V52a.75.75,0,0,1,1.5,0Z" style="fill:#b28362"/><path d="M32,30.662a6.15,6.15,0,0,1-3.416-1.038.75.75,0,0,1,.832-1.248,4.648,4.648,0,0,0,5.168,0,.75.75,0,1,1,.832,1.248A6.155,6.155,0,0,1,32,30.662Z" style="fill:#d38d84"/></g></svg>