<svg xmlns="http://www.w3.org/2000/svg" viewBox="0 0 64 64"><title>Avatar-4</title><g id="Builder-2" data-name="Builder"><path d="M38,32.7V40a8.37,8.37,0,0,1-4.4,7.37l-1.6.86-1.6-.86A8.37,8.37,0,0,1,26,40V32.71a8.991,8.991,0,0,0,12-.01Z" style="fill:#eac2b9"/><path d="M50.875,44.418C47.176,42.864,49.741,43.943,38,39a8.37,8.37,0,0,1-4.4,7.37l-1.6.86-1.6-.86A8.37,8.37,0,0,1,26,39c-11.741,4.943-9.176,3.864-12.875,5.418A10,10,0,0,0,7,53.629V62.25a.75.75,0,0,0,.75.75h48.5a.75.75,0,0,0,.75-.75V53.629A10,10,0,0,0,50.875,44.418Z" style="fill:#494a59"/><path d="M38,39a8.37,8.37,0,0,1-4.4,7.37l-1.6.86-1.6-.86A8.37,8.37,0,0,1,26,39L16,43.21V63H48V43.21Z" style="fill:#ea972a"/><path d="M35,3.42V1.75A.75.75,0,0,0,34.25,1h-4.5a.75.75,0,0,0-.75.75V3.42A10.985,10.985,0,0,0,21,14v2H43V14A10.985,10.985,0,0,0,35,3.42Z" style="fill:#ffb64d"/><rect x="20" y="18" width="4" height="6" style="fill:#343544"/><rect x="40" y="18" width="4" height="6" style="fill:#343544"/><path d="M44,23H40l-.516,7H44a2,2,0,0,0,2-2V25A2,2,0,0,0,44,23Z" style="fill:#eac2b9"/><path d="M24,23H20a2,2,0,0,0-2,2v3a2,2,0,0,0,2,2h4.516Z" style="fill:#eac2b9"/><path d="M48,43.21V63H25V53.39a4,4,0,0,1,2.1-3.52L32,47.23l1.6-.86A8.37,8.37,0,0,0,38,39Z" style="fill:#ffb64d"/><path d="M23,18v9a9,9,0,0,0,9,9h0a9,9,0,0,0,9-9V18Z" style="fill:#ffddd4"/><path d="M44,15H20a2,2,0,0,0,0,4H44a2,2,0,0,0,0-4Z" style="fill:#ea972a"/><rect x="25" y="54" width="23" height="6" style="fill:#ea972a"/><rect x="16" y="54" width="9" height="6" style="fill:#ce6f19"/><path d="M40.75,7.34V12a.75.75,0,0,1-1.5,0V5.74A9.908,9.908,0,0,1,40.75,7.34Z" style="fill:#ea972a"/><path d="M24.75,5.74V12a.75.75,0,0,1-1.5,0V7.34A9.908,9.908,0,0,1,24.75,5.74Z" style="fill:#ea972a"/><path d="M28.25,9.75A.75.75,0,0,0,29,9V3.42a10.824,10.824,0,0,0-1.5.55V9A.75.75,0,0,0,28.25,9.75Z" style="fill:#ea972a"/><path d="M35.75,9.75A.75.75,0,0,0,36.5,9V3.97A10.824,10.824,0,0,0,35,3.42V9A.75.75,0,0,0,35.75,9.75Z" style="fill:#ea972a"/></g></svg>