<svg xmlns="http://www.w3.org/2000/svg" viewBox="0 0 64 64"><title>Avatar-9</title><g id="Sweater"><path d="M52.1,42.35l-1.13-.51a1.9,1.9,0,0,1-1.11.69C42.44,44.08,32,49,32,49s-10.44-4.92-17.86-6.47a1.9,1.9,0,0,1-1.11-.69l-1.13.51A9.992,9.992,0,0,0,6,51.47V62.25a.75.75,0,0,0,.75.75h50.5a.75.75,0,0,0,.75-.75V51.47A9.992,9.992,0,0,0,52.1,42.35Z" style="fill:#4294ff"/><path d="M54.79,44.13a9.915,9.915,0,0,0-2.69-1.78l-1.13-.51a1.9,1.9,0,0,1-1.11.69C42.44,44.08,32,49,32,49s-10.44-4.92-17.86-6.47a1.9,1.9,0,0,1-1.11-.69l-1.13.51a9.915,9.915,0,0,0-2.69,1.78,4.557,4.557,0,0,1-1.1-4.34c.95-4.37,6-6.36,4.2-12.16-1.17-3.79-1.06-5.19-.73-8.63.64-6.59,4.95-11.43,8.45-14.74A11.948,11.948,0,0,1,28.25,1H36c3.21,0,5,1.79,5,4a9.765,9.765,0,0,1,5.15,1.46,9.934,9.934,0,0,1,3.63,3.94,27.621,27.621,0,0,1,2.66,8.1c.6,3.98.02,6.61-.68,8.13-2.52,5.52,3.18,8.79,4.13,13.16A4.557,4.557,0,0,1,54.79,44.13Z" style="fill:#494a59"/><path d="M41,15.969V23a9,9,0,0,1-9,9h0a9,9,0,0,1-9-9V16.937a1,1,0,0,1,.938-.994,24.958,24.958,0,0,0,12.987-4.871,4.541,4.541,0,0,0,2.7,3A2.039,2.039,0,0,1,41,15.969Z" style="fill:#ffddd4"/><path d="M43,19H41l-.226,6H43a2,2,0,0,0,2-2V21A2,2,0,0,0,43,19Z" style="fill:#eac2b9"/><path d="M23,19H21a2,2,0,0,0-2,2v2a2,2,0,0,0,2,2h2.225Z" style="fill:#eac2b9"/><path d="M38,29.7V35a6,6,0,0,1-12,0V29.7a8.976,8.976,0,0,0,12,0Z" style="fill:#eac2b9"/><path d="M38,32l.568.213a5.83,5.83,0,0,1,1.568,10.123L32,49s10.436-4.915,17.86-6.473a1.957,1.957,0,0,0,1.355-2.742C49.749,36.547,46.133,31.456,38,32" style="fill:#376cfb"/><path d="M26,32l-.568.213a5.83,5.83,0,0,0-1.568,10.123L32,49s-10.436-4.915-17.86-6.473a1.957,1.957,0,0,1-1.355-2.742C14.251,36.547,17.867,31.456,26,32" style="fill:#376cfb"/><path d="M42.42,38l-4.5-2.03A6.243,6.243,0,0,0,38,35V32l.57.21a5.964,5.964,0,0,1,3.64,3.91A5.261,5.261,0,0,1,42.42,38Z" style="fill:#2946ed"/><path d="M26.08,35.97,21.58,38a5.261,5.261,0,0,1,.21-1.88,5.964,5.964,0,0,1,3.64-3.91L26,32v3A6.143,6.143,0,0,0,26.08,35.97Z" style="fill:#2946ed"/><path d="M42.42,38a6.188,6.188,0,0,1-2.28,4.34L32,49l-8.14-6.66A6.188,6.188,0,0,1,21.58,38l4.5-2.03a6,6,0,0,0,11.84,0Z" style="fill:#e6ecff"/><path d="M49.75,62.61V63h-1.5v-.39a11.172,11.172,0,0,0-1.87-6.19.718.718,0,0,1-.13-.42V53a.75.75,0,0,1,1.5,0v2.78A12.608,12.608,0,0,1,49.75,62.61Z" style="fill:#376cfb"/><path d="M17.75,53v3a.718.718,0,0,1-.13.42,11.172,11.172,0,0,0-1.87,6.19V63h-1.5v-.39a12.608,12.608,0,0,1,2-6.83V53a.75.75,0,0,1,1.5,0Z" style="fill:#376cfb"/><path d="M32.75,48.65V63h-1.5V48.65c.48.22.75.35.75.35S32.27,48.87,32.75,48.65Z" style="fill:#376cfb"/></g></svg>