<svg xmlns="http://www.w3.org/2000/svg" viewBox="0 0 64 64"><title>Avatar-23</title><g id="Delivery_Man" data-name="Delivery Man"><path d="M58,36V50.73a4,4,0,0,0-.32-.4,9.4,9.4,0,0,0-1.93-1.79C54.58,47.678,53.09,46.528,37,40V35H57A1,1,0,0,1,58,36Z" style="fill:#ea972a"/><path d="M6,36V50.73a4,4,0,0,1,.32-.4,9.4,9.4,0,0,1,1.93-1.79C9.42,47.678,10.91,46.528,27,40V35H7A1,1,0,0,0,6,36Z" style="fill:#ea972a"/><path d="M44.643,21H41V19a25.086,25.086,0,0,1-13.93-4.93l-.03.09A4.924,4.924,0,0,1,23,17.35V21H20a2,2,0,0,0-1,.27V10a5,5,0,0,1,5-5,3.995,3.995,0,0,1,4-4h5.76a14.393,14.393,0,0,1,9.11,3.15,9.932,9.932,0,0,1,4.12,8.31A19.32,19.32,0,0,1,44.643,21Z" style="fill:#494a59"/><path d="M53.79,44.46c-3.8-1.558-11.7-4.8-15.79-6.46l-6,5-6-5c-2.241.908-3.718,1.515-15.79,6.46A10,10,0,0,0,4,53.71v8.54a.75.75,0,0,0,.75.75h54.5a.75.75,0,0,0,.75-.75V53.71A10,10,0,0,0,53.79,44.46Z" style="fill:#e6ecff"/><path d="M38,31.7V39l-6,5-6-5V31.7a8.976,8.976,0,0,0,12,0Z" style="fill:#eac2b9"/><path d="M46,22v3a2.006,2.006,0,0,1-2,2H39.94A8.262,8.262,0,0,0,40,26V20h4A2.006,2.006,0,0,1,46,22Z" style="fill:#eac2b9"/><path d="M24.06,27H20a2.006,2.006,0,0,1-2-2V22a2.006,2.006,0,0,1,2-2h4v6A8.262,8.262,0,0,0,24.06,27Z" style="fill:#eac2b9"/><polygon points="31.25 42.375 31.25 63 32.75 63 32.75 42.375 32 43 31.25 42.375" style="fill:#bbcaea"/><path d="M53,63V33a1,1,0,0,0-1-1H48a1,1,0,0,0-1,1V63" style="fill:#ffb64d"/><path d="M53,33v2H47V33a1,1,0,0,1,1-1h4A1,1,0,0,1,53,33Z" style="fill:#ffb64d"/><path d="M11,63V33a1,1,0,0,1,1-1h4a1,1,0,0,1,1,1V63" style="fill:#ffb64d"/><circle cx="35" cy="53" r="1" style="fill:#d0dbf7"/><circle cx="35" cy="49" r="1" style="fill:#d0dbf7"/><circle cx="35" cy="57" r="1" style="fill:#d0dbf7"/><circle cx="35" cy="61" r="1" style="fill:#d0dbf7"/><rect x="47" y="49" width="6" height="5" style="fill:#ea972a"/><rect x="11" y="49" width="6" height="5" transform="translate(28 103) rotate(-180)" style="fill:#ea972a"/><path d="M44.39,40.61,38,47l-6-4,6-5C39.98,38.81,42.22,39.73,44.39,40.61Z" style="fill:#d0dbf7"/><path d="M32,43l-6,4-6.39-6.39C21.83,39.7,24.1,38.77,26,38Z" style="fill:#d0dbf7"/><path d="M41,18a25.056,25.056,0,0,1-13.925-4.928l-.034.093A4.905,4.905,0,0,1,23,16.347h0V26a9,9,0,0,0,9,9h0a9,9,0,0,0,9-9Z" style="fill:#ffddd4"/></g></svg>