<svg xmlns="http://www.w3.org/2000/svg" viewBox="0 0 64 64"><title>Avatar-36</title><g id="Chinesse_Girl" data-name="Chinesse Girl"><path d="M25.69,11C28.991,6.187,25.6,1,21,1a6,6,0,0,0-6,6c0,4.858,5.84,8.382,10.7,4.011Z" style="fill:#f25757"/><path d="M38.31,11C35.009,6.187,38.4,1,43,1a6,6,0,0,1,6,6c0,4.858-5.84,8.382-10.7,4.011Z" style="fill:#f25757"/><path d="M26,34,16,31V19a16,16,0,1,1,32,0V31L38,34Z" style="fill:#343544"/><path d="M38,29.7V37l-6,5-6-5V29.7a8.976,8.976,0,0,0,12,0Z" style="fill:#eac2b9"/><path d="M52.1,42.35C42.445,37.994,45.637,39.431,38,36l-6,5-6-5c-7.636,3.431-4.447,1.995-14.1,6.35A9.992,9.992,0,0,0,6,51.47V62.25a.75.75,0,0,0,.75.75h50.5a.75.75,0,0,0,.75-.75V51.47A9.992,9.992,0,0,0,52.1,42.35Z" style="fill:#f25757"/><path d="M16.75,50v4a.718.718,0,0,1-.13.42,11.147,11.147,0,0,0-1.87,6.19V63h-1.5V60.61a12.584,12.584,0,0,1,2-6.83V50a.75.75,0,0,1,1.5,0Z" style="fill:#d63434"/><path d="M50.75,60.61V63h-1.5V60.61a11.147,11.147,0,0,0-1.87-6.19.718.718,0,0,1-.13-.42V50a.75.75,0,0,1,1.5,0v3.78A12.584,12.584,0,0,1,50.75,60.61Z" style="fill:#d63434"/><polygon points="31.25 40.375 31.25 63 32.75 63 32.75 40.375 32 41 31.25 40.375" style="fill:#ba2020"/><path d="M40,47.25a.75.75,0,0,0-.75.75v.25H24.75V48a.75.75,0,0,0-1.5,0v2a.75.75,0,0,0,1.5,0v-.25h14.5V50a.75.75,0,0,0,1.5,0V48A.75.75,0,0,0,40,47.25Z" style="fill:#d63434"/><path d="M40,52.25a.75.75,0,0,0-.75.75v.25H24.75V53a.75.75,0,0,0-1.5,0v2a.75.75,0,0,0,1.5,0v-.25h14.5V55a.75.75,0,0,0,1.5,0V53A.75.75,0,0,0,40,52.25Z" style="fill:#d63434"/><path d="M40,57.25a.75.75,0,0,0-.75.75v.25H24.75V58a.75.75,0,0,0-1.5,0v2a.75.75,0,0,0,1.5,0v-.25h14.5V60a.75.75,0,0,0,1.5,0V58A.75.75,0,0,0,40,57.25Z" style="fill:#d63434"/><path d="M41,18v6a9,9,0,0,1-9,9h0a9,9,0,0,1-9-9V19a25.056,25.056,0,0,0,13.925-4.928h0a6.479,6.479,0,0,0,4.034,3.914Z" style="fill:#ffddd4"/><polygon points="32 41 26 45 19.79 38.79 26 36 32 41" style="fill:#d63434"/><polygon points="44.21 38.79 38 45 32 41 38 36 44.21 38.79" style="fill:#d63434"/></g></svg>