<svg xmlns="http://www.w3.org/2000/svg" viewBox="0 0 64 64"><title>Avatar-13</title><g id="Farmer"><path d="M39,29.14V36a7,7,0,0,1-14,0V29.14a10,10,0,0,0,14,0Z" style="fill:#eac2b9"/><path d="M45,12.87V21H41V18.12a1.816,1.816,0,0,0-1-1.62,1.816,1.816,0,0,1-1-1.62V12.32C40.78,12.46,43.46,12.64,45,12.87Z" style="fill:#494a59"/><path d="M25,12.32v2.56a1.816,1.816,0,0,1-1,1.62,1.816,1.816,0,0,0-1,1.62V21H19V12.87C20.54,12.64,23.22,12.46,25,12.32Z" style="fill:#494a59"/><path d="M54.011,43.69,48,40.21l-5-2.89L39,35a7,7,0,0,1-14,0l-4,2.32-5,2.89L9.989,43.69A8,8,0,0,0,6,50.61V62.25a.75.75,0,0,0,.75.75h50.5a.75.75,0,0,0,.75-.75V50.61A8,8,0,0,0,54.011,43.69Z" style="fill:#494a59"/><polygon points="48 38 43 35 43 49.062 48 49.063 48 38" style="fill:#ea972a"/><polygon points="16 38 21 35 21 49.062 16 49.062 16 38" style="fill:#ea972a"/><path d="M19,13.87V20a2.012,2.012,0,0,0-1.99,1.79C12.1,20.87,9,19.52,9,18,9,16.29,12.96,14.78,19,13.87Z" style="fill:#ea972a"/><path d="M55,18c0,1.52-3.1,2.87-8.01,3.79A2.012,2.012,0,0,0,45,20V13.87C51.04,14.78,55,16.29,55,18Z" style="fill:#ea972a"/><path d="M49.5,55.063a3.37,3.37,0,0,1-1.5-2.8v-4.2H16v4.2a3.37,3.37,0,0,1-1.5,2.8,3.367,3.367,0,0,0-1.5,2.8v5.2H51v-5.2A3.367,3.367,0,0,0,49.5,55.063Z" style="fill:#ffb64d"/><path d="M42,20h3a2,2,0,0,1,2,2v3a2,2,0,0,1-2,2H41.167Z" style="fill:#eac2b9"/><path d="M22,20H19a2,2,0,0,0-2,2v3a2,2,0,0,0,2,2h3.834Z" style="fill:#eac2b9"/><path d="M41,16.5a1.816,1.816,0,0,1-1-1.62V12.31c-2.49-.2-5.19-.31-8-.31s-5.51.11-8,.31v2.57a1.816,1.816,0,0,1-1,1.62,1.816,1.816,0,0,0-1,1.62V23a10,10,0,0,0,20,0V18.12A1.816,1.816,0,0,0,41,16.5Z" style="fill:#ffddd4"/><path d="M36.353,53.61l-.613-3.671a.75.75,0,0,0-1.48.247l.612,3.671a1.25,1.25,0,0,1-1.233,1.456H32.75v-5.25a.75.75,0,0,0-1.5,0v5.25h-.889a1.25,1.25,0,0,1-1.233-1.456l.612-3.671a.75.75,0,0,0-1.48-.247l-.612,3.671a2.752,2.752,0,0,0,2.713,3.2h.889v4.25a.75.75,0,0,0,1.5,0v-4.25h.889a2.752,2.752,0,0,0,2.714-3.2Z" style="fill:#ea972a"/><circle cx="45" cy="51" r="1" style="fill:#ea972a"/><circle cx="19" cy="51" r="1" style="fill:#ea972a"/><path d="M46.213,12.794a14.461,14.461,0,0,0-28.426,0L17.54,14.11A86.73,86.73,0,0,1,32,13a86.73,86.73,0,0,1,14.46,1.11Z" style="fill:#ffb64d"/></g></svg>