<svg xmlns="http://www.w3.org/2000/svg" viewBox="0 0 64 64"><title>Avatar-10</title><g id="Girl-2" data-name="Girl"><path d="M11,56v6.25a.75.75,0,0,0,.75.75H20V56Z" style="fill:#ffddd4"/><path d="M44,56v7h8.25a.75.75,0,0,0,.75-.75V56Z" style="fill:#ffddd4"/><path d="M12.54,44.55a5.524,5.524,0,0,1-1.43-4.76c.95-4.37,4.95-3.88,2.43-9.4A19.248,19.248,0,0,1,12.583,21c.465-3.255,2.821-9.009,5.258-13.627A11.979,11.979,0,0,1,28.443,1H36a4,4,0,0,1,4,4h0a8.945,8.945,0,0,1,8.24,5.4,50.119,50.119,0,0,1,3.2,11.1,16.707,16.707,0,0,1-.978,8.89c-2.52,5.52,1.48,5.03,2.43,9.4a5.524,5.524,0,0,1-1.43,4.76Z" style="fill:#494a59"/><path d="M38,31.7V40l-6,5-6-5V31.7a8.976,8.976,0,0,0,12,0Z" style="fill:#eac2b9"/><path d="M51.28,44.47l-7.65-3.15L38,39l-6,5-6-5-5.63,2.32-7.65,3.15A6.01,6.01,0,0,0,9,50.02v6.23a.75.75,0,0,0,.75.75H19v6H45V57h9.25a.75.75,0,0,0,.75-.75V50.02A6.01,6.01,0,0,0,51.28,44.47Z" style="fill:#ffb64d"/><path d="M46.5,52v5H45V52a.75.75,0,0,1,1.5,0Z" style="fill:#ea972a"/><path d="M43,22H41l-.226,6H43a2,2,0,0,0,2-2V24A2,2,0,0,0,43,22Z" style="fill:#eac2b9"/><path d="M23,22H21a2,2,0,0,0-2,2v2a2,2,0,0,0,2,2h2.225Z" style="fill:#eac2b9"/><path d="M19,52v5H17.5V52A.75.75,0,0,1,19,52Z" style="fill:#ea972a"/><polygon points="32 44 27 48 20.37 41.32 26 39 32 44" style="fill:#ea972a"/><polygon points="43.63 41.32 37 48 32 44 38 39 43.63 41.32" style="fill:#ea972a"/><path d="M23,19a25.056,25.056,0,0,0,13.925-4.928l.034.093A4.905,4.905,0,0,0,41,17.347h0V26a9,9,0,0,1-9,9h0a9,9,0,0,1-9-9Z" style="fill:#ffddd4"/></g></svg>