<svg xmlns="http://www.w3.org/2000/svg" viewBox="0 0 64 64"><title>Avatar-28</title><g id="Doctor_Girl" data-name="Doctor Girl"><path d="M9.57,46.2a5.5,5.5,0,0,1-.83-4.63c1.05-4.57,5.5-4.06,2.7-9.83a18.949,18.949,0,0,1-1.06-9.82c.52-3.42,3.15-9.47,5.87-14.31A13.007,13.007,0,0,1,27.58,1h9.1a4.187,4.187,0,0,1,4.19,4.18,10.145,10.145,0,0,1,5.61,1.69,10.368,10.368,0,0,1,3.79,4.5,50.2,50.2,0,0,1,3.31,11.07,18.371,18.371,0,0,1-1.08,9.3c-1.63,4.47.59,4.39,2.82,8.57a6.668,6.668,0,0,1-.26,6.33Z" style="fill:#494a59"/><path d="M41.03,40.3,32,58,22.97,40.3,26,39V32.7a8.976,8.976,0,0,0,12,0V39Z" style="fill:#eac2b9"/><path d="M52.94,45.4c-7.968-3.408-5.257-2.247-11.91-5.1L32,58,22.97,40.3c-6.655,2.854-3.941,1.692-11.91,5.1A10,10,0,0,0,5,54.59v7.66a.75.75,0,0,0,.75.75h52.5a.75.75,0,0,0,.75-.75V54.59A10,10,0,0,0,52.94,45.4Z" style="fill:#e6ecff"/><path d="M32.75,55v8h-1.5V55a.75.75,0,0,1,1.5,0Z" style="fill:#bbcaea"/><path d="M41,40.35,32,58,23,40.35A11.784,11.784,0,0,0,41,40.35Z" style="fill:#343544"/><path d="M51.75,63h-1.5a9.112,9.112,0,0,0-1.54-5.08l-.33-.5a.718.718,0,0,1-.13-.42V55a.75.75,0,0,1,1.5,0v1.77l.21.32A10.613,10.613,0,0,1,51.75,63Z" style="fill:#d0dbf7"/><path d="M15.75,55v2a.718.718,0,0,1-.13.42l-.33.5A9.112,9.112,0,0,0,13.75,63h-1.5a10.613,10.613,0,0,1,1.79-5.91l.21-.32V55a.75.75,0,0,1,1.5,0Z" style="fill:#d0dbf7"/><polygon points="41 47 42 50 32 58 41.03 40.3 46.44 42.62 41 47" style="fill:#d0dbf7"/><polygon points="22 50 23 47 17.56 42.62 22.97 40.3 32 58 22 50" style="fill:#d0dbf7"/><path d="M41,19a25.056,25.056,0,0,1-13.925-4.928l-.034.093A4.905,4.905,0,0,1,23,17.347h0V26a9,9,0,0,0,9,9h0a9,9,0,0,0,9-9Z" style="fill:#ffddd4"/><path d="M45,24v2a2.006,2.006,0,0,1-2,2H40.78A9.356,9.356,0,0,0,41,26V22h2A2.006,2.006,0,0,1,45,24Z" style="fill:#eac2b9"/><path d="M23.22,28H21a2.006,2.006,0,0,1-2-2V24a2.006,2.006,0,0,1,2-2h2v4A9.356,9.356,0,0,0,23.22,28Z" style="fill:#eac2b9"/><path d="M23,34.25A8.76,8.76,0,0,0,14.25,43v4.6l-2.666,1.777A.749.749,0,0,0,11.25,50v2a.75.75,0,0,0,1.5,0V50.4L15,48.9l2.25,1.5V52a.75.75,0,0,0,1.5,0V50a.749.749,0,0,0-.334-.624L15.75,47.6V43A7.255,7.255,0,0,1,23,35.75h3v-1.5Z" style="fill:#4294ff"/><path d="M49.75,43v4a.75.75,0,0,1-1.5,0V43A7.255,7.255,0,0,0,41,35.75H38v-1.5h3A8.753,8.753,0,0,1,49.75,43Z" style="fill:#4294ff"/><circle cx="49" cy="49" r="2.75" style="fill:#376cfb"/></g></svg>