<svg xmlns="http://www.w3.org/2000/svg" viewBox="0 0 64 64"><title>Avatar-35</title><g id="Criminal_Man" data-name="Criminal Man"><path d="M41.994,9.945a10.056,10.056,0,0,0-19.988,0L22,10h.006v1H42V9.945Z" style="fill:#343544"/><path d="M8,57v5.25a.75.75,0,0,0,.75.75H18V57Z" style="fill:#ffddd4"/><path d="M46,57v6h9.25a.75.75,0,0,0,.75-.75V57Z" style="fill:#ffddd4"/><path d="M38,30.24V38c-2.59,5.33-9.41,5.33-12,0V30.24A7.963,7.963,0,0,0,31,32h2A7.963,7.963,0,0,0,38,30.24Z" style="fill:#eac2b9"/><path d="M45,23v2a2,2,0,0,1-2,2H39.75A8.239,8.239,0,0,0,40,25V21h3A2.006,2.006,0,0,1,45,23Z" style="fill:#eac2b9"/><path d="M24.25,27H21a2,2,0,0,1-2-2V23a2.006,2.006,0,0,1,2-2h3v4A8.239,8.239,0,0,0,24.25,27Z" style="fill:#eac2b9"/><path d="M51.91,42.91,38,37c-2.59,5.33-9.41,5.33-12,0L12.09,42.91A10.016,10.016,0,0,0,6,52.12v5.13a.75.75,0,0,0,.75.75H17v5H47V58H57.25a.75.75,0,0,0,.75-.75V52.12A10.016,10.016,0,0,0,51.91,42.91Z" style="fill:#494a59"/><path d="M23,17v8a8,8,0,0,0,8,8h2a8,8,0,0,0,8-8V17Z" style="fill:#ffddd4"/><rect x="17" y="58" width="30" height="1.5" style="fill:#343544"/><path d="M58,52.33v1.5H6.75A.75.75,0,0,1,6,53.08v-.75Z" style="fill:#343544"/><path d="M57.18,48.17H6.82a8.969,8.969,0,0,1,.8-1.5H56.38A8.969,8.969,0,0,1,57.18,48.17Z" style="fill:#343544"/><polygon points="50.95 42.5 13.05 42.5 16.59 41 47.41 41 50.95 42.5" style="fill:#343544"/><rect x="20" y="10" width="24" height="8" rx="1" ry="1" style="fill:#494a59"/><path d="M32,15.75a.75.75,0,0,1-.75-.75V13a.75.75,0,0,1,1.5,0v2A.75.75,0,0,1,32,15.75Z" style="fill:#343544"/><path d="M29,15.75a.75.75,0,0,1-.75-.75V13a.75.75,0,0,1,1.5,0v2A.75.75,0,0,1,29,15.75Z" style="fill:#343544"/><path d="M26,15.75a.75.75,0,0,1-.75-.75V13a.75.75,0,0,1,1.5,0v2A.75.75,0,0,1,26,15.75Z" style="fill:#343544"/><path d="M23,15.75a.75.75,0,0,1-.75-.75V13a.75.75,0,0,1,1.5,0v2A.75.75,0,0,1,23,15.75Z" style="fill:#343544"/><path d="M35,15.75a.75.75,0,0,1-.75-.75V13a.75.75,0,0,1,1.5,0v2A.75.75,0,0,1,35,15.75Z" style="fill:#343544"/><path d="M38,15.75a.75.75,0,0,1-.75-.75V13a.75.75,0,0,1,1.5,0v2A.75.75,0,0,1,38,15.75Z" style="fill:#343544"/><path d="M41,15.75a.75.75,0,0,1-.75-.75V13a.75.75,0,0,1,1.5,0v2A.75.75,0,0,1,41,15.75Z" style="fill:#343544"/><path d="M48.5,50v8H47V50a.75.75,0,0,1,1.5,0Z" style="fill:#343544"/><path d="M17,50v8H15.5V50A.75.75,0,0,1,17,50Z" style="fill:#343544"/></g></svg>