<svg xmlns="http://www.w3.org/2000/svg" viewBox="0 0 64 64"><title>Avatar-22</title><g id="Doctor_Man" data-name="Doctor Man"><path d="M26.75,30a.755.755,0,0,1-.75.75v-1.5A.755.755,0,0,1,26.75,30Z" style="fill:#eac2b9"/><path d="M38,29.25v1.5a.75.75,0,0,1,0-1.5Z" style="fill:#eac2b9"/><path d="M45,8v9.27A2,2,0,0,0,44,17H41V13s-2,0-5.4-3c0,0-3.6,4-12.6,4v3H20a2,2,0,0,0-1,.27V8a4,4,0,0,1,4-4,3,3,0,0,1,3-3H38A7,7,0,0,1,45,8Z" style="fill:#494a59"/><path d="M46,18v3a2.006,2.006,0,0,1-2,2H39.78A9.356,9.356,0,0,0,40,21V16h4A2.006,2.006,0,0,1,46,18Z" style="fill:#eac2b9"/><path d="M24.22,23H20a2.006,2.006,0,0,1-2-2V18a2.006,2.006,0,0,1,2-2h4v5A9.356,9.356,0,0,0,24.22,23Z" style="fill:#eac2b9"/><path d="M38,26.7V34l-4,5H30l-4-5V26.7a8.976,8.976,0,0,0,12,0Z" style="fill:#eac2b9"/><path d="M53.283,39.877,38,33l-4,5H30l-4-5L10.717,39.877A8,8,0,0,0,6,47.173V62.25a.75.75,0,0,0,.75.75h50.5a.75.75,0,0,0,.75-.75V47.173A8,8,0,0,0,53.283,39.877Z" style="fill:#ffb64d"/><path d="M44,35.7v.08a17.958,17.958,0,0,1-4.84,12.28,9.857,9.857,0,0,1-14.32,0A17.958,17.958,0,0,1,20,35.78V35.7L26,33l4,5h4l4-5Z" style="fill:#e6ecff"/><path d="M26,29.25v1.5H23A7.255,7.255,0,0,0,15.75,38v6.6l2.67,1.78a.75.75,0,0,1,.33.62v2a.75.75,0,0,1-1.5,0V47.4L15,45.9l-2.25,1.5V49a.75.75,0,0,1-1.5,0V47a.75.75,0,0,1,.33-.62l2.67-1.78V38A8.76,8.76,0,0,1,23,29.25Z" style="fill:#4294ff"/><path d="M49.75,38v6a.75.75,0,0,1-1.5,0V38A7.255,7.255,0,0,0,41,30.75H38v-1.5h3A8.76,8.76,0,0,1,49.75,38Z" style="fill:#4294ff"/><polygon points="30 38 25 43 20 35.7 26 33 30 38" style="fill:#d0dbf7"/><polygon points="37.64 41.64 35 46 29 46 26.36 41.64 30 38 34 38 37.64 41.64" style="fill:#343544"/><polygon points="44 35.7 39 43 34 38 38 33 44 35.7" style="fill:#d0dbf7"/><path d="M36.32,50.16a9.989,9.989,0,0,1-8.64,0L29,46h6Z" style="fill:#494a59"/><path d="M49.75,52V63h-1.5V52a.75.75,0,0,1,1.5,0Z" style="fill:#ea972a"/><path d="M15.75,52V63h-1.5V52a.75.75,0,0,1,1.5,0Z" style="fill:#ea972a"/><path d="M23,13v8a9,9,0,0,0,9,9h0a9,9,0,0,0,9-9V12s-2,0-5.4-3C35.6,9,32,13,23,13Z" style="fill:#ffddd4"/><circle cx="49" cy="46" r="2.75" style="fill:#376cfb"/></g></svg>