<svg xmlns="http://www.w3.org/2000/svg" viewBox="0 0 64 64"><title>Avatar-20</title><g id="Karate-2" data-name="Karate"><path d="M37.575,3.053c2.656-1.5,8.141-3.754,12.425,0,8,7-4,27.45,9,31.95,0,0-11.87,3.68-19.09-5.71Z" style="fill:#343544"/><path d="M45,12.08v10.2H41V20c-9.89-.28-13-6-13-6a9.668,9.668,0,0,1-5,3.35v4.93H19V12A10.994,10.994,0,0,1,30,1h2.53a7.243,7.243,0,0,1,3.8,1.08A7.383,7.383,0,0,1,39,5,7.182,7.182,0,0,1,45,12.08Z" style="fill:#494a59"/><path d="M40,21h4a2,2,0,0,1,2,2v2a2,2,0,0,1-2,2H39.774Z" style="fill:#eac2b9"/><path d="M24,21H20a2,2,0,0,0-2,2v2a2,2,0,0,0,2,2h4.225Z" style="fill:#eac2b9"/><path d="M53.12,44.72l-11.5-5.2-3.05,4.1a16.329,16.329,0,0,1-13.14,0l-3.05-4.1-11.5,5.2A10,10,0,0,0,5,53.83v8.42a.75.75,0,0,0,.75.75h52.5a.75.75,0,0,0,.75-.75V53.83A10,10,0,0,0,53.12,44.72Z" style="fill:#e6ecff"/><polygon points="30.22 63 46.11 41.55 41.62 39.51 24.22 63 30.22 63" style="fill:#d0dbf7"/><polygon points="29 56.55 17.89 41.55 22.38 39.51 32 52.5 29 56.55" style="fill:#bbcaea"/><path d="M38.57,43.62,32,52.5l-6.57-8.88a16.329,16.329,0,0,0,13.14,0Z" style="fill:#494a59"/><path d="M41.62,39.52l-3.05,4.1a16.329,16.329,0,0,1-13.14,0l-3.05-4.1L26,37.88V30.71h.01a8.979,8.979,0,0,0,11.98,0H38v7.17Z" style="fill:#eac2b9"/><path d="M50.75,61.61V63h-1.5V61.61a11.172,11.172,0,0,0-1.87-6.19.718.718,0,0,1-.13-.42V52a.75.75,0,0,1,1.5,0v2.78A12.608,12.608,0,0,1,50.75,61.61Z" style="fill:#d0dbf7"/><path d="M16.75,52v3a.718.718,0,0,1-.13.42,11.172,11.172,0,0,0-1.87,6.19V63h-1.5V61.61a12.608,12.608,0,0,1,2-6.83V52a.75.75,0,0,1,1.5,0Z" style="fill:#d0dbf7"/><path d="M23,16.347h0V25a9,9,0,0,0,9,9h0a9,9,0,0,0,9-9V19c-9.894-.284-13-6-13-6A9.628,9.628,0,0,1,23,16.347Z" style="fill:#ffddd4"/></g></svg>