<svg xmlns="http://www.w3.org/2000/svg" viewBox="0 0 64 64"><title>Avatar-16</title><g id="Builder"><path d="M50.88,44.42,38,39V33.7A9.025,9.025,0,0,0,41,27V23.12a1.816,1.816,0,0,0-1-1.62,1.816,1.816,0,0,1-1-1.62V19h5s5.93,2.6,5.08,8.5c-.45,3.16-.07,1.84,2.6,6.2S50.88,44.42,50.88,44.42Z" style="fill:#343544"/><path d="M26,33.71V39L13.12,44.42s-3.46-6.37-.8-10.72,3.05-3.04,2.6-6.2C14.07,21.6,20,19,20,19h5v.88a1.816,1.816,0,0,1-1,1.62,1.816,1.816,0,0,0-1,1.62V27a9.029,9.029,0,0,0,2.64,6.36C25.76,33.48,25.88,33.59,26,33.71Z" style="fill:#343544"/><path d="M38,32.7V40a8.37,8.37,0,0,1-4.4,7.37l-1.6.86-1.6-.86A8.37,8.37,0,0,1,26,40V32.71a8.991,8.991,0,0,0,12-.01Z" style="fill:#eac2b9"/><path d="M43,23H41l-.516,7H43a2,2,0,0,0,2-2V25A2,2,0,0,0,43,23Z" style="fill:#eac2b9"/><path d="M23,23H21a2,2,0,0,0-2,2v3a2,2,0,0,0,2,2h2.516Z" style="fill:#eac2b9"/><path d="M50.88,44.42,38,39a8.37,8.37,0,0,1-4.4,7.37l-1.6.86-1.6-.86A8.37,8.37,0,0,1,26,39L13.12,44.42A10,10,0,0,0,7,53.64v8.61a.75.75,0,0,0,.75.75h48.5a.75.75,0,0,0,.75-.75V53.64A10,10,0,0,0,50.88,44.42Z" style="fill:#494a59"/><path d="M48,43.21V63H16V43.21L26,39a8.37,8.37,0,0,0,4.4,7.37l1.6.86,1.6-.86A8.37,8.37,0,0,0,38,39Z" style="fill:#ea972a"/><path d="M48,43.21V63H25V53.39a4,4,0,0,1,2.1-3.52l6.5-3.5A8.37,8.37,0,0,0,38,39Z" style="fill:#ffb64d"/><path d="M39,18v1.882A1.808,1.808,0,0,0,40,21.5h0a1.808,1.808,0,0,1,1,1.618V27a9,9,0,0,1-9,9h0a9,9,0,0,1-9-9V23.118A1.808,1.808,0,0,1,24,21.5h0a1.808,1.808,0,0,0,1-1.618V18Z" style="fill:#ffddd4"/><rect x="25" y="54" width="23" height="6" style="fill:#ea972a"/><rect x="16" y="54" width="9" height="6" transform="translate(41 114) rotate(180)" style="fill:#ce6f19"/><path d="M35,3.42V1.75A.75.75,0,0,0,34.25,1h-4.5a.75.75,0,0,0-.75.75V3.42A10.985,10.985,0,0,0,21,14v2H43V14A10.985,10.985,0,0,0,35,3.42Z" style="fill:#ffb64d"/><path d="M44,15H20a2,2,0,0,0,0,4H44a2,2,0,0,0,0-4Z" style="fill:#ea972a"/><path d="M40.75,7.34V12a.75.75,0,0,1-1.5,0V5.74A9.908,9.908,0,0,1,40.75,7.34Z" style="fill:#ea972a"/><path d="M24.75,5.74V12a.75.75,0,0,1-1.5,0V7.34A9.908,9.908,0,0,1,24.75,5.74Z" style="fill:#ea972a"/><path d="M28.25,9.75A.75.75,0,0,0,29,9V3.42a10.824,10.824,0,0,0-1.5.55V9A.75.75,0,0,0,28.25,9.75Z" style="fill:#ea972a"/><path d="M35.75,9.75A.75.75,0,0,0,36.5,9V3.97A10.824,10.824,0,0,0,35,3.42V9A.75.75,0,0,0,35.75,9.75Z" style="fill:#ea972a"/></g></svg>