<svg xmlns="http://www.w3.org/2000/svg" viewBox="0 0 64 64"><title>Avatar-14</title><g id="Run_Man" data-name="Run Man"><path d="M45,12.05v.83H19v-.83l.04-.23a13.172,13.172,0,0,1,25.92,0Z" style="fill:#494a59"/><path d="M38,31.71V40a7,7,0,0,1-12,0V31.71a9.005,9.005,0,0,0,12,0Z" style="fill:#eac2b9"/><path d="M24,16v6H20a2,2,0,0,0-1,.27V15.95a2.734,2.734,0,0,0,.5.05Z" style="fill:#494a59"/><path d="M45,15.95v6.32A2,2,0,0,0,44,22H40V16h4.5A2.734,2.734,0,0,0,45,15.95Z" style="fill:#494a59"/><path d="M40,21h4a2,2,0,0,1,2,2v3a2,2,0,0,1-2,2H39.774Z" style="fill:#eac2b9"/><path d="M24,21H20a2,2,0,0,0-2,2v3a2,2,0,0,0,2,2h4.225Z" style="fill:#eac2b9"/><path d="M52.69,45.61,38,39a7,7,0,0,1-12,0L11.31,45.61A9.015,9.015,0,0,0,6,53.82v8.43a.75.75,0,0,0,.75.75h50.5a.75.75,0,0,0,.75-.75V53.82A9.015,9.015,0,0,0,52.69,45.61Z" style="fill:#eac2b9"/><path d="M38,39a7,7,0,0,1-12,0L16,43.5V63H48V43.5Z" style="fill:#4294ff"/><path d="M41,17v9a9,9,0,0,1-9,9h0a9,9,0,0,1-9-9V17Z" style="fill:#ffddd4"/><path d="M44.5,12h-25a2.5,2.5,0,0,0,0,5h25a2.5,2.5,0,0,0,0-5Z" style="fill:#4294ff"/></g></svg>