<svg xmlns="http://www.w3.org/2000/svg" viewBox="0 0 64 64"><title>Avatar-31</title><g id="Wisuda_Man" data-name="Wisuda Man"><path d="M41,23h2a2,2,0,0,1,1,.27V14.21L32,18,20,14.21v9.06A2,2,0,0,1,21,23H41Z" style="fill:#343544"/><path d="M45,24v2a2.006,2.006,0,0,1-2,2H39.78A9.356,9.356,0,0,0,40,26V22h3A2.006,2.006,0,0,1,45,24Z" style="fill:#eac2b9"/><path d="M24.22,28H21a2.006,2.006,0,0,1-2-2V24a2.006,2.006,0,0,1,2-2h3v4A9.356,9.356,0,0,0,24.22,28Z" style="fill:#eac2b9"/><path d="M38,31.71V39l-6,5-6-5V31.7a8.991,8.991,0,0,0,12,.01Z" style="fill:#eac2b9"/><path d="M52.1,44.35C40.775,39.247,43.793,40.606,38,38l-6,5-6-5c-5.775,2.6-2.823,1.268-14.1,6.35A9.992,9.992,0,0,0,6,53.47v8.78a.75.75,0,0,0,.75.75h50.5a.75.75,0,0,0,.75-.75V53.47A9.992,9.992,0,0,0,52.1,44.35Z" style="fill:#494a59"/><path d="M51.16,43.93C47.89,49.86,40.53,54,32,54S16.11,49.86,12.84,43.93C23.13,39.288,20.231,40.6,26,38l6,5,6-5C43.8,40.608,40.884,39.3,51.16,43.93Z" style="fill:#ffb64d"/><path d="M47.53,42.29C44.88,46.83,38.93,50,32,50s-12.88-3.17-15.53-7.71c6.07-2.735,3.9-1.757,9.53-4.29l6,5,6-5C43.631,40.533,41.46,39.555,47.53,42.29Z" style="fill:#ea972a"/><path d="M25,16.789v1.093A1.808,1.808,0,0,1,24,19.5h0a1.808,1.808,0,0,0-1,1.618V26a9,9,0,0,0,9,9h0a9,9,0,0,0,9-9V21.118A1.808,1.808,0,0,0,40,19.5h0a1.808,1.808,0,0,1-1-1.618V16.789Z" style="fill:#ffddd4"/><polygon points="42.58 40.06 37 46 32 43 38 38 42.58 40.06" style="fill:#e6ecff"/><polygon points="32 43 27 46 21.42 40.06 26 38 32 43" style="fill:#e6ecff"/><path d="M44,8.21v7L32,19,20,15.21v-7L32,12C43.158,8.477,40.765,9.232,44,8.21Z" style="fill:#494a59"/><path d="M51,7V17a.75.75,0,0,1-1.5,0V7.47Z" style="fill:#494a59"/><path d="M48.75,55v8h-1.5V55a.75.75,0,0,1,1.5,0Z" style="fill:#343544"/><path d="M16.75,55v8h-1.5V55a.75.75,0,0,1,1.5,0Z" style="fill:#343544"/><polygon points="13 7 32 13 51 7 32 1 13 7" style="fill:#343544"/></g></svg>