<svg xmlns="http://www.w3.org/2000/svg" viewBox="0 0 64 64"><title>Avatar-38</title><g id="Business_Woman-2" data-name="Business Woman"><path d="M12.25,44.19a5.343,5.343,0,0,1-1.14-4.4c.95-4.37,4.95-3.88,2.43-9.4A19.24,19.24,0,0,1,12.58,21c.47-3.26,2.82-9.01,5.26-13.63A11.98,11.98,0,0,1,28.44,1H36a4,4,0,0,1,4,4,9.035,9.035,0,0,1,4.94,1.47,8.77,8.77,0,0,1,3.3,3.93,50.432,50.432,0,0,1,3.2,11.1,16.752,16.752,0,0,1-.98,8.89c-2.52,5.52,1.48,5.03,2.43,9.4a5.343,5.343,0,0,1-1.14,4.4Z" style="fill:#343544"/><path d="M41.72,39.68A11.175,11.175,0,0,1,32,45a11.175,11.175,0,0,1-9.72-5.32L26,38V31.7a8.976,8.976,0,0,0,12,0V38Z" style="fill:#eac2b9"/><path d="M58,53.47v8.78a.75.75,0,0,1-.75.75H6.75A.75.75,0,0,1,6,62.25V53.47a9.992,9.992,0,0,1,5.9-9.12l10.38-4.67A11.175,11.175,0,0,0,32,45a11.175,11.175,0,0,0,9.72-5.32L52.1,44.35A9.992,9.992,0,0,1,58,53.47Z" style="fill:#e6ecff"/><path d="M28,63H6.75A.75.75,0,0,1,6,62.25V53.47a9.992,9.992,0,0,1,5.9-9.12l10.38-4.67Z" style="fill:#494a59"/><path d="M52.1,44.35,41.72,39.68,36,63H57.25a.75.75,0,0,0,.75-.75V53.47A9.992,9.992,0,0,0,52.1,44.35Z" style="fill:#494a59"/><path d="M41,18a25.056,25.056,0,0,1-13.925-4.928l-.034.093A4.905,4.905,0,0,1,23,16.347h0V26a9,9,0,0,0,9,9h0a9,9,0,0,0,9-9Z" style="fill:#ffddd4"/><path d="M45,23v2a2.006,2.006,0,0,1-2,2H40.94A8.262,8.262,0,0,0,41,26V21h2A2.006,2.006,0,0,1,45,23Z" style="fill:#eac2b9"/><path d="M23.06,27H21a2.006,2.006,0,0,1-2-2V23a2.006,2.006,0,0,1,2-2h2v5A8.262,8.262,0,0,0,23.06,27Z" style="fill:#eac2b9"/><path d="M16.75,52v3a.718.718,0,0,1-.13.42,11.147,11.147,0,0,0-1.87,6.19V63h-1.5V61.61a12.584,12.584,0,0,1,2-6.83V52a.75.75,0,0,1,1.5,0Z" style="fill:#343544"/><path d="M50.75,61.61V63h-1.5V61.61a11.172,11.172,0,0,0-1.87-6.19.718.718,0,0,1-.13-.42V52a.75.75,0,0,1,1.5,0v2.78A12.608,12.608,0,0,1,50.75,61.61Z" style="fill:#343544"/><path d="M45,60.75H42a.75.75,0,0,1,0-1.5h3a.75.75,0,0,1,0,1.5Z" style="fill:#343544"/><path d="M41.72,39.68,36,63H28L22.28,39.68A11.175,11.175,0,0,0,32,45,11.175,11.175,0,0,0,41.72,39.68Z" style="fill:#e6ecff"/></g></svg>