<svg xmlns="http://www.w3.org/2000/svg" viewBox="0 0 64 64"><title>Avatar-11</title><g id="Barber_Man" data-name="Barber Man"><path d="M46,9v8.27A2,2,0,0,0,45,17H42V13s-2.22.14-6-3c0,0-4,4-14,4v3H19a2,2,0,0,0-1,.27V10a9,9,0,0,1,9-9H38a3,3,0,0,1,3,3A5,5,0,0,1,46,9Z" style="fill:#494a59"/><path d="M39,27.14V35l-7,6-7-6V27.14a10,10,0,0,0,14,0Z" style="fill:#eac2b9"/><path d="M6,62.25a.75.75,0,0,0,.75.75H15V54H6Z" style="fill:#eac2b9"/><path d="M49,54v9h8.25a.75.75,0,0,0,.75-.75V54Z" style="fill:#eac2b9"/><path d="M45,16H42l-.226,7H45a2,2,0,0,0,2-2V18A2,2,0,0,0,45,16Z" style="fill:#eac2b9"/><path d="M22,16H19a2,2,0,0,0-2,2v3a2,2,0,0,0,2,2h3.226Z" style="fill:#eac2b9"/><path d="M55.15,40.92C51.641,39.414,42.511,35.5,39,34l-7,6-7-6c-1.21.518-7.891,3.376-16.15,6.92A8,8,0,0,0,4,48.28v5.97a.75.75,0,0,0,.75.75H14v8H50V55h9.25a.75.75,0,0,0,.75-.75V48.28A8,8,0,0,0,55.15,40.92Z" style="fill:#494a59"/><polyline points="44 36.14 49.99 38.71 50 38.71"/><path d="M50,38.71V63H14V38.71h.01L20,36.14V45a3,3,0,0,0,3,3H41a3,3,0,0,0,3-3V36.14l5.99,2.57Z" style="fill:#4294ff"/><path d="M22,13v8A10,10,0,0,0,32,31h0A10,10,0,0,0,42,21V12s-2.222.143-6-3C36,9,32,13,22,13Z" style="fill:#ffddd4"/><path d="M36,56.25a2.721,2.721,0,0,0-1.331.358L33.061,55l3.469-3.47a.75.75,0,0,0-1.06-1.06L32,53.939,28.53,50.47a.75.75,0,0,0-1.06,1.06L30.939,55l-1.608,1.608A2.721,2.721,0,0,0,28,56.25,2.75,2.75,0,1,0,30.75,59a2.721,2.721,0,0,0-.358-1.331L32,56.061l1.608,1.608A2.721,2.721,0,0,0,33.25,59,2.75,2.75,0,1,0,36,56.25Zm-8,4a1.25,1.25,0,1,1,.872-2.141l.008.011.011.008A1.247,1.247,0,0,1,28,60.25Zm8,0a1.247,1.247,0,0,1-.891-2.122l.011-.008.008-.011A1.249,1.249,0,1,1,36,60.25Z" style="fill:#376cfb"/><path d="M32,45.75a.75.75,0,0,0,.75-.75V40a.74.74,0,0,0-.187-.482L32,40l-.563-.482A.74.74,0,0,0,31.25,40v5A.75.75,0,0,0,32,45.75Z" style="fill:#282a35"/><polygon points="44 36.14 37 43 32 40 39 34 44 36.14" style="fill:#343544"/><polygon points="32 40 27 43 20 36.14 25 34 32 40" style="fill:#343544"/></g></svg>