<svg xmlns="http://www.w3.org/2000/svg" viewBox="0 0 64 64"><title>Avatar-24</title><g id="Chinese_Man" data-name="Chinese Man"><path d="M43,17v6.27A2,2,0,0,0,42,23H39V17Z" style="fill:#343544"/><path d="M25,17v6H22a2,2,0,0,0-1,.27V17Z" style="fill:#343544"/><path d="M44,24v2a2.006,2.006,0,0,1-2,2H38.75A8.239,8.239,0,0,0,39,26V22h3A2.006,2.006,0,0,1,44,24Z" style="fill:#eac2b9"/><path d="M25.25,28H22a2.006,2.006,0,0,1-2-2V24a2.006,2.006,0,0,1,2-2h3v4A8.239,8.239,0,0,0,25.25,28Z" style="fill:#eac2b9"/><path d="M52.1,43.35,38,37l-6,5-6-5L11.9,43.35A9.992,9.992,0,0,0,6,52.47v9.78a.75.75,0,0,0,.75.75h50.5a.75.75,0,0,0,.75-.75V52.47A9.992,9.992,0,0,0,52.1,43.35Z" style="fill:#f25757"/><path d="M38,30.29V38l-6,5-6-5V30.29a8,8,0,0,0,12,0Z" style="fill:#eac2b9"/><path d="M40,17v9a8,8,0,0,1-8,8h0a8,8,0,0,1-8-8V17Z" style="fill:#ffddd4"/><polygon points="31.25 41.375 31.25 63 32.75 63 32.75 41.375 32 42 31.25 41.375" style="fill:#ba2020"/><path d="M40,48.25a.75.75,0,0,0-.75.75v.25H24.75V49a.75.75,0,0,0-1.5,0v2a.75.75,0,0,0,1.5,0v-.25h14.5V51a.75.75,0,0,0,1.5,0V49A.75.75,0,0,0,40,48.25Z" style="fill:#d63434"/><path d="M40,53.25a.75.75,0,0,0-.75.75v.25H24.75V54a.75.75,0,0,0-1.5,0v2a.75.75,0,0,0,1.5,0v-.25h14.5V56a.75.75,0,0,0,1.5,0V54A.75.75,0,0,0,40,53.25Z" style="fill:#d63434"/><path d="M40,58.25a.75.75,0,0,0-.75.75v.25H24.75V59a.75.75,0,0,0-1.5,0v2a.75.75,0,0,0,1.5,0v-.25h14.5V61a.75.75,0,0,0,1.5,0V59A.75.75,0,0,0,40,58.25Z" style="fill:#d63434"/><path d="M49.75,51V63h-1.5V51a.75.75,0,0,1,1.5,0Z" style="fill:#d63434"/><path d="M15.75,51V63h-1.5V51a.75.75,0,0,1,1.5,0Z" style="fill:#d63434"/><path d="M41.994,13.945a10.056,10.056,0,0,0-19.988,0L22,14v1H42V14Z" style="fill:#f25757"/><path d="M35,4a2.969,2.969,0,0,1-.33,1.36,10.081,10.081,0,0,0-5.34,0A3,3,0,1,1,35,4Z" style="fill:#f25757"/><path d="M30.27,5.15C28,6.64,26.84,9.61,26.84,14h-1.5a14.372,14.372,0,0,1,1.84-7.76A9.727,9.727,0,0,1,30.27,5.15Z" style="fill:#d63434"/><path d="M32.75,5.03V14h-1.5V5.03Q31.625,5,32,5T32.75,5.03Z" style="fill:#d63434"/><path d="M38.66,14h-1.5c0-4.39-1.16-7.36-3.43-8.85a9.727,9.727,0,0,1,3.09,1.09A14.372,14.372,0,0,1,38.66,14Z" style="fill:#d63434"/><path d="M44.039,14H19.961a.75.75,0,0,0-.728.932l.625,2.5a.749.749,0,0,0,.728.568H43.414a.749.749,0,0,0,.728-.568l.625-2.5A.75.75,0,0,0,44.039,14Z" style="fill:#494a59"/><polygon points="32 42 26 46 19.79 39.79 26 37 32 42" style="fill:#d63434"/><polygon points="44.21 39.79 38 46 32 42 38 37 44.21 39.79" style="fill:#d63434"/></g></svg>