<svg xmlns="http://www.w3.org/2000/svg" viewBox="0 0 64 64"><title>Avatar-29</title><g id="Girl_Camera" data-name="Girl Camera"><path d="M11.53,43a4.832,4.832,0,0,1-.42-3.21c.95-4.37,4.95-3.88,2.43-9.4A19.24,19.24,0,0,1,12.58,21c.47-3.25,2.82-9.01,5.26-13.63A12,12,0,0,1,28.44,1H36a4,4,0,0,1,4,4,9.035,9.035,0,0,1,4.94,1.47,8.77,8.77,0,0,1,3.3,3.93,50.432,50.432,0,0,1,3.2,11.1,16.735,16.735,0,0,1-.98,8.89c-2.52,5.52,1.48,5.03,2.43,9.4A4.832,4.832,0,0,1,52.47,43Z" style="fill:#494a59"/><path d="M8,55.36v6.89a.75.75,0,0,0,.75.75H18V57Z" style="fill:#ffddd4"/><path d="M46,57v6h9.25a.75.75,0,0,0,.75-.75V55.46Z" style="fill:#ffddd4"/><path d="M38,31.71V39a6.834,6.834,0,0,1-12,0V31.71h.01a8.979,8.979,0,0,0,11.98,0Z" style="fill:#eac2b9"/><path d="M52.12,42.88,38,39a6.834,6.834,0,0,1-12,0L11.88,42.88A8.017,8.017,0,0,0,6,50.6v4.774a.75.75,0,0,0,.616.738L17,58v5H47V58l10.376-1.773a.75.75,0,0,0,.624-.74V50.6A8.017,8.017,0,0,0,52.12,42.88Z" style="fill:#ffb64d"/><path d="M48.5,51v6.74L47,58V51a.75.75,0,0,1,1.5,0Z" style="fill:#ea972a"/><path d="M23,15.848V25a9,9,0,0,0,9,9h0a9,9,0,0,0,9-9V18.5C31.106,18.217,27,13,27,13A5.744,5.744,0,0,1,23,15.848Z" style="fill:#ffddd4"/><path d="M46,23v2a2,2,0,0,1-2,2H40.78A9.356,9.356,0,0,0,41,25V21h3A2.006,2.006,0,0,1,46,23Z" style="fill:#eac2b9"/><path d="M23.22,27H20a2,2,0,0,1-2-2V23a2.006,2.006,0,0,1,2-2h3v4A9.356,9.356,0,0,0,23.22,27Z" style="fill:#eac2b9"/><path d="M43.79,40.59,35.47,50.84a.739.739,0,0,1-.58.28.755.755,0,0,1-.58-1.23l7.9-9.73Z" style="fill:#376cfb"/><path d="M29.85,51.28a.75.75,0,0,1-1.06-.11L20.21,40.59l1.58-.43,8.17,10.06A.759.759,0,0,1,29.85,51.28Z" style="fill:#376cfb"/><path d="M17,51v7l-1.5-.27V51A.75.75,0,0,1,17,51Z" style="fill:#ea972a"/><polygon points="37 52 36 49 28 49 27 52 23 53 23 63 41 63 41 53 37 52" style="fill:#4294ff"/><circle cx="32" cy="57" r="4" style="fill:#376cfb"/></g></svg>