<svg xmlns="http://www.w3.org/2000/svg" viewBox="0 0 64 64"><title>Avatar-5</title><g id="Pilot"><path d="M38,34.7V41l-4,5H30l-4-5V34.7a8.976,8.976,0,0,0,12,0Z" style="fill:#eac2b9"/><rect x="20" y="12.281" width="24" height="5.438" style="fill:#d0dbf7"/><path d="M20,19.5V26h4V20H21.84A3.6,3.6,0,0,1,20,19.5Z" style="fill:#343544"/><path d="M44,19.5V26H40V20h2.16A3.6,3.6,0,0,0,44,19.5Z" style="fill:#343544"/><path d="M40,25h4a2,2,0,0,1,2,2v2a2,2,0,0,1-2,2H39.774Z" style="fill:#eac2b9"/><path d="M24,25H20a2,2,0,0,0-2,2v2a2,2,0,0,0,2,2h4.225Z" style="fill:#eac2b9"/><path d="M6,63V54.17A8,8,0,0,1,9.44,47.6l7.8-3.66L26,40l4,5h4l4-5,8.76,3.94,7.8,3.66A8,8,0,0,1,58,54.17V63Z" style="fill:#e6ecff"/><polygon points="42.87 42.19 39 48 37.06 46.83 34 45 38 40 42.87 42.19" style="fill:#d0dbf7"/><polygon points="30 45 26.94 46.83 25 48 21.13 42.19 26 40 30 45" style="fill:#d0dbf7"/><polygon points="37 63 27 63 30 52 34 52 37 63" style="fill:#494a59"/><polygon points="37.06 46.83 34 52 30 52 26.94 46.83 30 45 34 45 37.06 46.83" style="fill:#343544"/><path d="M49.75,56v7h-1.5V56a.75.75,0,0,1,1.5,0Z" style="fill:#d0dbf7"/><path d="M15.75,56v7h-1.5V56a.75.75,0,0,1,1.5,0Z" style="fill:#d0dbf7"/><path d="M41,20v9a8.954,8.954,0,0,1-2.64,6.36c-.12.12-.24.23-.36.34A9,9,0,0,1,23,29V20Z" style="fill:#ffddd4"/><path d="M44.719,17H19.281a1,1,0,0,0-.97,1.243h0A3.64,3.64,0,0,0,21.842,21H42.158a3.64,3.64,0,0,0,3.531-2.757h0A1,1,0,0,0,44.719,17Z" style="fill:#e6ecff"/><path d="M44,13a9.6,9.6,0,0,0,2.825-1.91c1.817-1.83,1.182-5.427-1.064-6.286L39.45,2.391a20.643,20.643,0,0,0-14.9,0L18.239,4.8c-2.246.859-2.881,4.456-1.064,6.286A9.6,9.6,0,0,0,20,13Z" style="fill:#e6ecff"/><circle cx="32" cy="7" r="2" style="fill:#ffb64d"/><rect x="46.379" y="43.71" width="8.621" height="4" transform="translate(22.845 -16.608) rotate(23.881)" style="fill:#ffb64d"/><rect x="9" y="43.71" width="8.621" height="4" transform="translate(43.986 82.119) rotate(156.119)" style="fill:#ffb64d"/><path d="M44,59.75H41a.75.75,0,0,1,0-1.5h3a.75.75,0,0,1,0,1.5Z" style="fill:#d0dbf7"/></g></svg>