<svg xmlns="http://www.w3.org/2000/svg" viewBox="0 0 32 32"><defs><style>.cls-1{fill:#ffe082;}.cls-2{fill:#ffb74d;}.cls-3{fill:#039be5;}</style></defs><title>place optimization marketing networking online</title><g id="place_optimization" data-name="place optimization"><path class="cls-1" d="M16,1a9.15,9.15,0,0,0-9.14,9.14c0,7.6,8.07,16.19,8.41,16.55a1,1,0,0,0,1.46,0c.34-.36,8.41-9,8.41-16.55A9.15,9.15,0,0,0,16,1Z"/><path class="cls-2" d="M21,31H11a1,1,0,0,1,0-2H21a1,1,0,0,1,0,2Z"/><path class="cls-3" d="M19,11a1,1,0,0,0,0-2h-.18l-.12-.29.13-.12a1,1,0,0,0-1.42-1.42l-.12.13L17,7.18V7a1,1,0,0,0-2,0v.18l-.29.12-.12-.13a1,1,0,1,0-1.42,1.42l.13.12L13.18,9H13a1,1,0,0,0,0,2h.18l.12.29-.13.12a1,1,0,0,0,0,1.42,1,1,0,0,0,.71.29,1,1,0,0,0,.71-.29l.12-.13.29.12V13a1,1,0,0,0,2,0v-.18l.29-.12.12.13a1,1,0,0,0,.71.29,1,1,0,0,0,.71-.29,1,1,0,0,0,0-1.42l-.13-.12.12-.29Zm-4-1a1,1,0,1,1,1,1A1,1,0,0,1,15,10Z"/></g></svg>