<svg xmlns="http://www.w3.org/2000/svg" viewBox="0 0 32 32"><defs><style>.cls-1{fill:#ffb74d;}.cls-2{fill:#ffe082;}.cls-3{fill:#039be5;}</style></defs><title>image search marketing networking online</title><g id="image_search" data-name="image search"><path class="cls-1" d="M30,5H2A1,1,0,0,0,1,6V19a1,1,0,0,0,1.64.77L8,15.27,15.67,21a1,1,0,0,0,1.55-1.1A5,5,0,0,1,17,18.5a4.5,4.5,0,0,1,8.7-1.6,1,1,0,0,0,.34.45l3.36,2.52a1,1,0,0,0,1.6-.8V6A1,1,0,0,0,30,5Z"/><path class="cls-2" d="M30.6,18.27l-3.14-2.35A6.49,6.49,0,0,0,15,18L8.6,13.2a1,1,0,0,0-1.24,0l-6,5A1,1,0,0,0,1,19v7a1,1,0,0,0,1,1H30a1,1,0,0,0,1-1V19.07A1,1,0,0,0,30.6,18.27Z"/><path class="cls-1" d="M29.19,30.58l-5-7a1,1,0,0,1,1.62-1.16l5,7a1,1,0,1,1-1.62,1.16Z"/><circle class="cls-2" cx="14" cy="11" r="2"/><path class="cls-3" d="M21.5,12A6.51,6.51,0,0,0,15,18.5a6.81,6.81,0,0,0,.32,2A6.5,6.5,0,1,0,21.5,12Z"/></g></svg>