<svg xmlns="http://www.w3.org/2000/svg" viewBox="0 0 32 32"><defs><style>.cls-1{fill:#ffe082;}.cls-2{fill:#ffb74d;}.cls-3{fill:#039be5;}</style></defs><title>video marketing marketing networking online</title><g id="video_marketing" data-name="video marketing"><rect class="cls-1" x="1" y="1" width="30" height="30" rx="1" ry="1"/><path class="cls-2" d="M26,25H23a1,1,0,0,0-2,0H6a1,1,0,0,0,0,2H26a1,1,0,0,0,0-2Z"/><path class="cls-3" d="M20,13.68,13.5,9.93a1,1,0,0,0-1.5.86V18.3a1,1,0,0,0,1.5.86L20,15.41A1,1,0,0,0,20,13.68Z"/></g></svg>