<svg xmlns="http://www.w3.org/2000/svg" viewBox="0 0 32 32"><defs><style>.cls-1{fill:#ffe082;}.cls-2{fill:#039be5;}</style></defs><title>testimonials marketing networking online</title><g id="testimonials"><path class="cls-1" d="M30,1H2A1,1,0,0,0,1,2V24a1,1,0,0,0,1,1H4v5a1,1,0,0,0,1.71.71L11.41,25H30a1,1,0,0,0,1-1V2A1,1,0,0,0,30,1Z"/><path class="cls-2" d="M13.76,9H10.4A1.4,1.4,0,0,0,9,10.4v3.2A1.4,1.4,0,0,0,10.4,15H12v3l2.64-2.64a1.24,1.24,0,0,0,.36-.87V10.24A1.25,1.25,0,0,0,13.76,9Z"/><path class="cls-2" d="M21.76,9H18.4A1.4,1.4,0,0,0,17,10.4v3.2A1.4,1.4,0,0,0,18.4,15H20v3l2.64-2.64a1.24,1.24,0,0,0,.36-.87V10.24A1.25,1.25,0,0,0,21.76,9Z"/></g></svg>