<svg xmlns="http://www.w3.org/2000/svg" viewBox="0 0 32 32"><defs><style>.cls-1{fill:#ffe082;}.cls-2{fill:#ffb74d;}.cls-3{fill:#039be5;}</style></defs><title>post entry marketing networking online</title><g id="post_entry" data-name="post entry"><path class="cls-1" d="M26,1H13a1,1,0,0,0-.71.29l-7,7A1,1,0,0,0,5,9V30a1,1,0,0,0,1,1H26a1,1,0,0,0,1-1V2A1,1,0,0,0,26,1Z"/><path class="cls-2" d="M12.29,1.29l-7,7A1,1,0,0,0,6,10h7a1,1,0,0,0,1-1V2A1,1,0,0,0,12.29,1.29Z"/><path class="cls-3" d="M17,17H11a1,1,0,0,1,0-2h6a1,1,0,0,1,0,2Z"/><path class="cls-2" d="M21,21H11a1,1,0,0,1,0-2H21a1,1,0,0,1,0,2Z"/><path class="cls-2" d="M21,25H11a1,1,0,0,1,0-2H21a1,1,0,0,1,0,2Z"/><path class="cls-3" d="M28.93,1.59a4,4,0,0,0-4.56,6.47L21.5,13.49a1,1,0,1,0,1.76.94L26.13,9a4,4,0,0,0,2.8-7.42Z"/></g></svg>