<svg xmlns="http://www.w3.org/2000/svg" viewBox="0 0 32 32"><defs><style>.cls-1{fill:#ffe082;}.cls-2{fill:#039be5;}</style></defs><title>download marketing networking online</title><g id="download"><path class="cls-1" d="M30,5H16.72L16,2.68A1,1,0,0,0,15,2H7a1,1,0,0,0-1,.68L5.28,5H2A1,1,0,0,0,1,6V26a1,1,0,0,0,1,1H30a1,1,0,0,0,1-1V6A1,1,0,0,0,30,5Z"/><path class="cls-2" d="M22.36,23.29a1,1,0,0,0-1.41,0L17,27.24V14a1,1,0,0,0-2,0V27.24l-3.95-3.95a1,1,0,0,0-1.41,0,1,1,0,0,0,0,1.42l5.65,5.65a1,1,0,0,0,1.42,0l5.65-5.65A1,1,0,0,0,22.36,23.29Z"/></g></svg>