<svg xmlns="http://www.w3.org/2000/svg" viewBox="0 0 32 32"><defs><style>.cls-1{fill:#ffe082;}.cls-2{fill:#ffb74d;}.cls-3{fill:#039be5;}</style></defs><title>page quality marketing networking online</title><g id="page_quality" data-name="page quality"><rect class="cls-1" x="1" y="3" width="30" height="26" rx="1" ry="1"/><path class="cls-2" d="M30,3H2A1,1,0,0,0,1,4V9H31V4A1,1,0,0,0,30,3Z"/><path class="cls-2" d="M18.76,22.17a5.05,5.05,0,0,1-5.51,0c-.51-.34-2.25-.36-2.25.83v7a1,1,0,0,0,1.45.89L16,29.12l3.55,1.77A1,1,0,0,0,21,30V23C21,21.83,19.28,21.82,18.76,22.17Z"/><path class="cls-3" d="M22.06,14.5a7,7,0,1,0-9.93,9.33,7,7,0,0,0,9.93-9.33Z"/><path class="cls-1" d="M16.65,20.4,16,19.93l-.65.47a1,1,0,0,1-1.54-1.12l.25-.76-.65-.47A1,1,0,0,1,14,16.24h.8l.25-.76a1,1,0,0,1,1.9,0l.25.76H18a1,1,0,0,1,.59,1.81l-.65.47.25.76A1,1,0,0,1,16.65,20.4Z"/></g></svg>