<svg xmlns="http://www.w3.org/2000/svg" viewBox="0 0 32 32"><defs><style>.cls-1{fill:#ffb74d;}.cls-2{fill:#ffe082;}.cls-3{fill:#039be5;}</style></defs><title>game developing marketing networking online</title><g id="game_developing" data-name="game developing"><path class="cls-1" d="M20,29H17V26a1,1,0,0,0-2,0v3H12a1,1,0,0,0,0,2h8a1,1,0,0,0,0-2Z"/><rect class="cls-2" x="1" y="1" width="30" height="26" rx="1" ry="1"/><path class="cls-3" d="M26,8H6A1,1,0,0,0,5,9V20a1,1,0,0,0,1,1h7a1,1,0,0,0,1-1,1.89,1.89,0,0,1,2-2,1.88,1.88,0,0,1,2,2,1,1,0,0,0,1,1h7a1,1,0,0,0,1-1V9A1,1,0,0,0,26,8Z"/><path class="cls-2" d="M11,17a1,1,0,0,1-1-1V12a1,1,0,0,1,2,0v4A1,1,0,0,1,11,17Z"/><path class="cls-2" d="M13,15H9a1,1,0,0,1,0-2h4a1,1,0,0,1,0,2Z"/><circle class="cls-1" cx="21" cy="12" r="1"/><circle class="cls-1" cx="19" cy="14" r="1"/><circle class="cls-1" cx="21" cy="16" r="1"/><circle class="cls-1" cx="23" cy="14" r="1"/></g></svg>