<svg xmlns="http://www.w3.org/2000/svg" viewBox="0 0 32 32"><defs><style>.cls-1{fill:#ffe082;}.cls-2{fill:#039be5;}</style></defs><title>upload marketing networking online</title><g id="upload"><path class="cls-1" d="M30,5H16.72L16,2.68A1,1,0,0,0,15,2H7a1,1,0,0,0-1,.68L5.28,5H2A1,1,0,0,0,1,6V26a1,1,0,0,0,1,1H30a1,1,0,0,0,1-1V6A1,1,0,0,0,30,5Z"/><path class="cls-2" d="M22.36,19l-5.65-5.66a1,1,0,0,0-1.42,0L9.64,19a1,1,0,1,0,1.41,1.41L15,16.41V29.66a1,1,0,0,0,2,0V16.41L21,20.36A1,1,0,1,0,22.36,19Z"/></g></svg>