<svg xmlns="http://www.w3.org/2000/svg" viewBox="0 0 32 32"><defs><style>.cls-1{fill:#ffb74d;}.cls-2{fill:#ffe082;}.cls-3{fill:#039be5;}</style></defs><title>seo training marketing networking online</title><g id="seo_training" data-name="seo training"><path class="cls-1" d="M7.61,30.92a1,1,0,0,1-.53-1.31l3-7a1,1,0,1,1,1.84.78l-3,7A1,1,0,0,1,7.61,30.92Z"/><path class="cls-1" d="M23.08,30.39l-3-7a1,1,0,1,1,1.84-.78l3,7a1,1,0,0,1-1.84.78Z"/><path class="cls-2" d="M30,2H17a1,1,0,0,0-2,0H2A1,1,0,0,0,1,3V23a1,1,0,0,0,1,1H30a1,1,0,0,0,1-1V3A1,1,0,0,0,30,2Z"/><path class="cls-3" d="M26,18H7v-.91c7.59.43,15.37-2.53,19.84-9.55a1,1,0,1,0-1.68-1.08C19.52,15.32,9.91,15.32,7,15.1V7A1,1,0,0,0,5,7V19a1,1,0,0,0,1,1H26a1,1,0,0,0,0-2Z"/></g></svg>