<svg xmlns="http://www.w3.org/2000/svg" viewBox="0 0 32 32"><defs><style>.cls-1{fill:#ffe082;}.cls-2{fill:#ffb74d;}.cls-3{fill:#039be5;}</style></defs><title>traffic analyze marketing networking online</title><g id="traffic_analyze" data-name="traffic analyze"><rect class="cls-1" x="3" y="5" width="23" height="22" rx="1" ry="1"/><path class="cls-2" d="M25,5H4A1,1,0,0,0,3,6v4.33H26V6A1,1,0,0,0,25,5Z"/><path class="cls-3" d="M30.45,9.11l-2-1a1,1,0,1,0-.9,1.78l.49.25L14,19.79,8.55,16.17a1,1,0,0,0-1.1,0l-6,4A1,1,0,0,0,2,22a.94.94,0,0,0,.55-.17L8,18.2l5.45,3.63a1,1,0,0,0,1.12,0L29,11.9V13a1,1,0,0,0,2,0V10A1.08,1.08,0,0,0,30.45,9.11Z"/></g></svg>