<svg xmlns="http://www.w3.org/2000/svg" viewBox="0 0 32 32"><defs><style>.cls-1{fill:#ffb74d;}.cls-2{fill:#ffe082;}.cls-3{fill:#039be5;}</style></defs><title>seo calculation marketing networking online</title><g id="seo_calculation" data-name="seo calculation"><path class="cls-1" d="M29.19,30.58l-5-7a1,1,0,0,1,1.62-1.16l5,7a1,1,0,1,1-1.62,1.16Z"/><rect class="cls-2" x="1" y="1" width="22" height="30" rx="1" ry="1"/><circle class="cls-3" cx="21.5" cy="18.5" r="6.5"/><path class="cls-3" d="M22,1H2A1,1,0,0,0,1,2V8H23V2A1,1,0,0,0,22,1Z"/><rect class="cls-1" x="5" y="11" width="3" height="4" rx="1" ry="1"/><rect class="cls-1" x="10" y="11" width="3" height="4" rx="1" ry="1"/><rect class="cls-1" x="5" y="17" width="3" height="4" rx="1" ry="1"/><rect class="cls-1" x="10" y="17" width="3" height="4" rx="1" ry="1"/><rect class="cls-1" x="5" y="23" width="3" height="4" rx="1" ry="1"/><rect class="cls-1" x="10" y="23" width="3" height="4" rx="1" ry="1"/></g></svg>