<svg xmlns="http://www.w3.org/2000/svg" viewBox="0 0 32 32"><defs><style>.cls-1{fill:#ffb74d;}.cls-2{fill:#ffe082;}.cls-3{fill:#039be5;}</style></defs><title>seo monitoring marketing networking online</title><g id="seo_monitoring" data-name="seo monitoring"><path class="cls-1" d="M22,29H17V27a1,1,0,0,0-2,0v2H10a1,1,0,0,0,0,2H22a1,1,0,0,0,0-2Z"/><rect class="cls-2" x="1" y="1" width="30" height="26" rx="1" ry="1"/><path class="cls-3" d="M26,21H7V17.47l5.25-4.38L19.76,15a1,1,0,0,0,.88-.2l6-5a1,1,0,1,0-1.28-1.54l-5.61,4.68L12.24,11a1,1,0,0,0-.88.2L7,14.86V6A1,1,0,0,0,5,6V22a1,1,0,0,0,1,1H26a1,1,0,0,0,0-2Z"/></g></svg>