<svg xmlns="http://www.w3.org/2000/svg" viewBox="0 0 32 32"><defs><style>.cls-1{fill:#039be5;}.cls-2{fill:#ffb74d;}</style></defs><title>network protection marketing networking online</title><g id="network_protection" data-name="network protection"><path class="cls-1" d="M18.65,21.39V11.75a1,1,0,0,0-.11-.44l-.82-1.65a1,1,0,0,0-1.6-.26l-1.65,1.65a1,1,0,0,0-.29.7v2.06c-.31.36-.83.63-.83,1.24v.83c0,.62.51.86.83,1.24V21a5.13,5.13,0,1,0,4.47.41Z"/><path class="cls-2" d="M28,8.45a15.94,15.94,0,0,0-24,0,1,1,0,0,1-1.41.09A1,1,0,0,1,2.5,7.13a17.94,17.94,0,0,1,27,0A1,1,0,1,1,28,8.45Z"/><path class="cls-2" d="M24.87,11A11.94,11.94,0,0,0,7.13,11,1,1,0,0,1,5.65,9.6a14,14,0,0,1,20.7,0A1,1,0,0,1,24.87,11Z"/></g></svg>