<svg xmlns="http://www.w3.org/2000/svg" viewBox="0 0 32 32"><defs><style>.cls-1{fill:#ffe082;}.cls-2{fill:#ffb74d;}.cls-3{fill:#039be5;}</style></defs><title>premium services marketing networking online</title><g id="premium_services" data-name="premium services"><circle class="cls-1" cx="16" cy="16" r="15"/><path class="cls-2" d="M20,25H12a1,1,0,0,1,0-2h8a1,1,0,0,1,0,2Z"/><path class="cls-3" d="M24.5,10A1.5,1.5,0,0,0,23,11.5a1.45,1.45,0,0,0,.12.59c-1.43.92-5.44-.43-6.15-2.35a2,2,0,1,0-1.94,0c-.72,1.92-4.73,3.27-6.15,2.35A1.45,1.45,0,0,0,9,11.5a1.5,1.5,0,1,0-2,1.42l1.77,8a1,1,0,0,0,1,.79H22.22a1,1,0,0,0,1-.79l1.77-8A1.5,1.5,0,0,0,24.5,10Z"/></g></svg>