<svg xmlns="http://www.w3.org/2000/svg" viewBox="0 0 32 32"><defs><style>.cls-1{fill:#ffe082;}.cls-2{fill:#ffb74d;}.cls-3{fill:#039be5;}</style></defs><title>email marketing marketing networking online</title><g id="email_marketing" data-name="email marketing"><path class="cls-1" d="M29.42,5.19,16,14.77,2.58,5.19A1,1,0,0,0,1,6V26a1,1,0,0,0,1,1H30a1,1,0,0,0,1-1V6A1,1,0,0,0,29.42,5.19Z"/><path class="cls-2" d="M30,5H2a1,1,0,0,0-.58,1.81l14,10a1,1,0,0,0,1.16,0l14-10A1,1,0,0,0,30,5Z"/><path class="cls-3" d="M12,14.37,8,11.51V4A1,1,0,0,1,9,3h2a1,1,0,0,1,1,1Z"/><path class="cls-3" d="M17,1H15a1,1,0,0,0-1,1V15.8l1.42,1a1,1,0,0,0,1.16,0l1.42-1V2A1,1,0,0,0,17,1Z"/><path class="cls-3" d="M23,3H21a1,1,0,0,0-1,1V14.37l4-2.86V4A1,1,0,0,0,23,3Z"/></g></svg>