<svg xmlns="http://www.w3.org/2000/svg" viewBox="0 0 32 32"><defs><style>.cls-1{fill:#ffe082;}.cls-2{fill:#ffb74d;}.cls-3{fill:#039be5;}</style></defs><title>add page marketing networking online</title><g id="add_page" data-name="add page"><rect class="cls-1" x="1" y="3" width="30" height="26" rx="1" ry="1"/><path class="cls-2" d="M30,3H2A1,1,0,0,0,1,4V9H31V4A1,1,0,0,0,30,3Z"/><circle class="cls-3" cx="16" cy="23" r="8"/><path class="cls-1" d="M18,22H17V21a1,1,0,0,0-2,0v1H14a1,1,0,0,0,0,2h1v1a1,1,0,0,0,2,0V24h1a1,1,0,0,0,0-2Z"/></g></svg>