<svg xmlns="http://www.w3.org/2000/svg" viewBox="0 0 32 32"><defs><style>.cls-1{fill:#ffb74d;}.cls-2{fill:#ffe082;}.cls-3{fill:#039be5;}</style></defs><title>data backup marketing networking online</title><g id="data_backup" data-name="data backup"><path class="cls-1" d="M28,27H5V10.59l.21.2A1,1,0,1,0,6.62,9.38L4.71,7.46a1,1,0,0,0-1.42,0L1.38,9.38a1,1,0,1,0,1.41,1.41l.21-.2V28a1,1,0,0,0,1,1H28a1,1,0,0,0,0-2Z"/><path class="cls-1" d="M30.62,21.46a1,1,0,0,0-1.41,0l-.21.21V4a1,1,0,0,0-1-1H4A1,1,0,0,0,4,5H27V21.67l-.21-.21a1,1,0,0,0-1.41,0,1,1,0,0,0,0,1.42l1.91,1.91a1,1,0,0,0,1.42,0l1.91-1.91A1,1,0,0,0,30.62,21.46Z"/><circle class="cls-2" cx="16" cy="16" r="8"/><path class="cls-3" d="M13.55,17.11,7.9,19.93a1,1,0,0,0-.26,1.61l2.82,2.82a1,1,0,0,0,1.61-.26l2.82-5.65A1,1,0,0,0,13.55,17.11Z"/></g></svg>