<svg xmlns="http://www.w3.org/2000/svg" viewBox="0 0 32 32"><defs><style>.cls-1{fill:#ffe082;}.cls-2{fill:#039be5;}.cls-3{fill:#ffb74d;}</style></defs><title>rss feed marketing networking online</title><g id="rss_feed" data-name="rss feed"><rect class="cls-1" x="1" y="1" width="29" height="30" rx="1" ry="1"/><circle class="cls-2" cx="7" cy="25" r="2"/><path class="cls-3" d="M24.64,27.09A23.11,23.11,0,0,0,4.86,6.25a1,1,0,0,1,.28-2,25.14,25.14,0,0,1,21.5,22.64,1,1,0,1,1-2,.18Z"/><path class="cls-3" d="M19.78,27.11a18.52,18.52,0,0,0-15-16,1,1,0,1,1,.36-2,20.5,20.5,0,0,1,16.58,17.7,1,1,0,0,1-2,.22Z"/><path class="cls-3" d="M14.88,27.15a13.44,13.44,0,0,0-10.12-11,1,1,0,0,1,.48-1.94A15.41,15.41,0,0,1,16.86,26.85a1,1,0,1,1-2,.3Z"/></g></svg>