<svg xmlns="http://www.w3.org/2000/svg" viewBox="0 0 32 32"><defs><style>.cls-1{fill:#ffe082;}.cls-2{fill:#ffb74d;}.cls-3{fill:#039be5;}</style></defs><title>custom css marketing networking online</title><g id="custom_css" data-name="custom css"><rect class="cls-1" y="3" width="30" height="26" rx="1" ry="1"/><path class="cls-2" d="M29,3H1A1,1,0,0,0,0,4V9H30V4A1,1,0,0,0,29,3Z"/><path class="cls-3" d="M20.09,22.71a1,1,0,0,1,0-1.42L23.38,18l-3.29-3.29a1,1,0,0,1,1.42-1.42l4,4a1,1,0,0,1,0,1.42l-4,4A1,1,0,0,1,20.09,22.71Z"/><path class="cls-3" d="M14,23H7a1,1,0,0,1,0-2h7a1,1,0,0,1,0,2Z"/></g></svg>