<svg xmlns="http://www.w3.org/2000/svg" viewBox="0 0 32 32"><defs><style>.cls-1{fill:#ffe082;}.cls-2{fill:#ffb74d;}.cls-3{fill:#039be5;}</style></defs><title>affiliate marketing marketing networking online</title><g id="affiliate_marketing" data-name="affiliate marketing"><path class="cls-1" d="M30.27,23.18c-5.88-1.68-7,6.49-7,6.59a1,1,0,0,0,1,1.23H30a1,1,0,0,0,1-1V24.14A1,1,0,0,0,30.27,23.18Z"/><path class="cls-2" d="M30.2,9c-.32-.06-3.1-.57-4.87.88A3.8,3.8,0,0,0,24,13c0,2.53,1.24,6.85,3.49,8.06,1.27.68,3.51.17,3.51-1.06V10A1,1,0,0,0,30.2,9Z"/><path class="cls-1" d="M1.93,23.18a1,1,0,0,0-.73,1V30a1,1,0,0,0,1,1H8a1,1,0,0,0,1-1.23C8.91,29.67,7.81,21.5,1.93,23.18Z"/><path class="cls-2" d="M4.71,21.06C7,19.85,8.2,15.53,8.2,13A3.8,3.8,0,0,0,6.87,9.9C5.1,8.45,2.32,9,2,9a1,1,0,0,0-.8,1V20C1.2,21.28,3.5,21.71,4.71,21.06Z"/><path class="cls-3" d="M26,3a1,1,0,0,0-1,1V4A14.95,14.95,0,0,0,5.51,5.29a1,1,0,0,0,1.4,1.42A13,13,0,0,1,23.32,5.27,1,1,0,0,0,23,6a1,1,0,0,0,1,1h2a1,1,0,0,0,1-1V4A1,1,0,0,0,26,3Z"/><path class="cls-3" d="M12,25.15a1,1,0,0,1,0-1.41,1,1,0,0,1,1.42,0,3.89,3.89,0,0,0,4.53,0,1.83,1.83,0,0,0-1.24-3.25,5.09,5.09,0,0,1-4.95-2.81A4.44,4.44,0,0,1,13,12.74c2-2,5-1,6.26-.13a1,1,0,0,1-1.1,1.67h0c-.1-.06-2.35-1.52-3.74-.13a2.49,2.49,0,0,0-.81,2.72,3.17,3.17,0,0,0,3.1,1.57,3.82,3.82,0,0,1,2.62,6.69A5.8,5.8,0,0,1,12,25.15Z"/><path class="cls-3" d="M16,29a1,1,0,0,1-1-1V10a1,1,0,0,1,2,0V28A1,1,0,0,1,16,29Z"/></g></svg>