<svg xmlns="http://www.w3.org/2000/svg" viewBox="0 0 32 32"><defs><style>.cls-1{fill:#ffe082;}.cls-2{fill:#ffb74d;}.cls-3{fill:#039be5;}</style></defs><title>website protection marketing networking online</title><g id="website_protection" data-name="website protection"><rect class="cls-1" x="1" y="3" width="30" height="26" rx="1" ry="1"/><path class="cls-2" d="M30,3H2A1,1,0,0,0,1,4V9H31V4A1,1,0,0,0,30,3Z"/><path class="cls-3" d="M24,15.9a1,1,0,0,0-.8-.88c-1.31-.26-5-1.27-6.49-2.73a1,1,0,0,0-1.42,0C13.83,13.75,10.11,14.76,8.8,15a1,1,0,0,0-.8.88c0,.44-1,10.74,7.55,15a1,1,0,0,0,.9,0C25,26.64,24,16.34,24,15.9Z"/></g></svg>