<svg xmlns="http://www.w3.org/2000/svg" viewBox="0 0 32 32"><defs><style>.cls-1{fill:#ffb74d;}.cls-2{fill:#039be5;}.cls-3{fill:#ffe082;}</style></defs><title>broken link marketing networking online</title><g id="broken_link" data-name="broken link"><path class="cls-1" d="M17,19H7A6,6,0,0,1,7,7H17a6,6,0,0,1,0,12ZM7,9a4,4,0,0,0,0,8H17a4,4,0,0,0,0-8H7Z"/><path class="cls-2" d="M8.5,28.86a1,1,0,0,1-.36-1.36l14-24a1,1,0,1,1,1.72,1l-14,24A1,1,0,0,1,8.5,28.86Z"/><path class="cls-3" d="M25,13H15a6,6,0,0,0-6,6,6,6,0,0,0,6,6H25a6,6,0,0,0,0-12Zm0,10H15a3.89,3.89,0,0,1-1.7-.39,3.75,3.75,0,0,1-1.55-1.29A4,4,0,0,1,15,15H25a4,4,0,0,1,0,8Z"/><path class="cls-2" d="M13.3,22.61l-1,1.74a5.89,5.89,0,0,1-1.6-1.2l1.07-1.83A3.75,3.75,0,0,0,13.3,22.61Z"/></g></svg>