<svg xmlns="http://www.w3.org/2000/svg" viewBox="0 0 32 32"><defs><style>.cls-1{fill:#ffe082;}.cls-2{fill:#039be5;}</style></defs><title>technical advice marketing networking online</title><g id="technical_advice" data-name="technical advice"><path class="cls-1" d="M30,1H2A1,1,0,0,0,1,2V24a1,1,0,0,0,1,1H4v5a1,1,0,0,0,1.71.71L11.41,25H30a1,1,0,0,0,1-1V2A1,1,0,0,0,30,1Z"/><path class="cls-2" d="M21,12a7.33,7.33,0,0,0-1.13,0A3.91,3.91,0,0,0,19.42,11a11,11,0,0,0,.82-.79,1,1,0,0,0-1.41-1.41,9.37,9.37,0,0,0-.79.82A3.91,3.91,0,0,0,17,9.13,9.32,9.32,0,0,0,17,8a1,1,0,0,0-2,0,7.38,7.38,0,0,0,0,1.13A3.91,3.91,0,0,0,14,9.58a11,11,0,0,0-.79-.82,1,1,0,0,0-1.41,1.41,9.37,9.37,0,0,0,.82.79A3.91,3.91,0,0,0,12.13,12,9.32,9.32,0,0,0,11,12a1,1,0,0,0,0,2,7.33,7.33,0,0,0,1.13,0A3.91,3.91,0,0,0,12.58,15a11,11,0,0,0-.82.79,1,1,0,0,0,0,1.41,1,1,0,0,0,1.41,0,9.37,9.37,0,0,0,.79-.82,3.91,3.91,0,0,0,1.07.45A9.32,9.32,0,0,0,15,18a1,1,0,0,0,2,0,7.33,7.33,0,0,0,0-1.13A3.91,3.91,0,0,0,18,16.42a11,11,0,0,0,.79.82,1,1,0,0,0,1.41,0,1,1,0,0,0,0-1.41,9.37,9.37,0,0,0-.82-.79A3.91,3.91,0,0,0,19.87,14,9.32,9.32,0,0,0,21,14a1,1,0,0,0,0-2Zm-5,3a2,2,0,1,1,2-2A2,2,0,0,1,16,15Z"/></g></svg>