<svg xmlns="http://www.w3.org/2000/svg" viewBox="0 0 32 32"><defs><style>.cls-1{fill:#ffe082;}.cls-2{fill:#039be5;}.cls-3{fill:#ffb74d;}</style></defs><title>content management marketing networking online</title><g id="content_management" data-name="content management"><rect class="cls-1" x="1" y="3" width="30" height="26" rx="1" ry="1"/><rect class="cls-2" x="5" y="7" width="4" height="4" rx="1" ry="1"/><path class="cls-3" d="M26,10H12a1,1,0,0,1,0-2H26a1,1,0,0,1,0,2Z"/><rect class="cls-2" x="5" y="14" width="4" height="4" rx="1" ry="1"/><path class="cls-3" d="M26,17H12a1,1,0,0,1,0-2H26a1,1,0,0,1,0,2Z"/><rect class="cls-2" x="5" y="21" width="4" height="4" rx="1" ry="1"/><path class="cls-3" d="M26,24H12a1,1,0,0,1,0-2H26a1,1,0,0,1,0,2Z"/></g></svg>