<svg xmlns="http://www.w3.org/2000/svg" viewBox="0 0 32 32"><defs><style>.cls-1{fill:#ffe082;}.cls-2{fill:#ffb74d;}.cls-3{fill:#039be5;}</style></defs><title>press release marketing networking online</title><g id="press_release" data-name="press release"><rect class="cls-1" x="1" y="1" width="30" height="30" rx="1" ry="1"/><path class="cls-2" d="M30,1H2A1,1,0,0,0,1,2V7H31V2A1,1,0,0,0,30,1Z"/><rect class="cls-3" x="5" y="9" width="8" height="10" rx="1" ry="1"/><path class="cls-2" d="M26,11H16a1,1,0,0,1,0-2H26a1,1,0,0,1,0,2Z"/><path class="cls-2" d="M26,15H16a1,1,0,0,1,0-2H26a1,1,0,0,1,0,2Z"/><path class="cls-2" d="M26,19H16a1,1,0,0,1,0-2H26a1,1,0,0,1,0,2Z"/><path class="cls-2" d="M26,23H6a1,1,0,0,1,0-2H26a1,1,0,0,1,0,2Z"/><path class="cls-2" d="M26,27H6a1,1,0,0,1,0-2H26a1,1,0,0,1,0,2Z"/></g></svg>