<svg xmlns="http://www.w3.org/2000/svg" viewBox="0 0 32 32"><defs><style>.cls-1{fill:#ffe082;}.cls-2{fill:#ffb74d;}.cls-3{fill:#039be5;}</style></defs><title>email notification marketing networking online</title><g id="email_notification" data-name="email notification"><path class="cls-1" d="M30.46,5.12a1,1,0,0,0-1,.08L16,14.78,2.56,5.59A1,1,0,0,0,1,6.42V26a1,1,0,0,0,1,1H30a1,1,0,0,0,1-1V6A1,1,0,0,0,30.46,5.12Z"/><path class="cls-2" d="M30,5H2A1,1,0,0,0,1,6v.42a1,1,0,0,0,.44.83l14,9.58a1,1,0,0,0,1.14,0l14-10A1,1,0,0,0,31,6h0A1,1,0,0,0,30,5Z"/><rect class="cls-3" x="19" y="1" width="12" height="12" rx="1" ry="1"/><path class="cls-1" d="M27.73,7.45V4.73a2.73,2.73,0,0,0-5.46,0V7.45a.91.91,0,1,0,0,1.82h5.46a.91.91,0,1,0,0-1.82Z"/><circle class="cls-2" cx="25" cy="11.09" r="0.91"/></g></svg>