<svg xmlns="http://www.w3.org/2000/svg" viewBox="0 0 32 32"><defs><style>.cls-1{fill:#ffe082;}.cls-2{fill:#ffb74d;}.cls-3{fill:#039be5;}</style></defs><title>social media marketing marketing networking online</title><g id="social_media_marketing" data-name="social media marketing"><path class="cls-1" d="M30.77,25.77C30.62,25.44,30,19,25,19a5.17,5.17,0,0,0-4.65,3.28,1,1,0,0,0,.14,1.06,8.93,8.93,0,0,1,1.58,3A1,1,0,0,0,23,27H29.8A1,1,0,0,0,30.77,25.77Z"/><path class="cls-1" d="M11.65,22.28A5.17,5.17,0,0,0,7,19c-2.66,0-4.67,2.21-5.3,4.79l-.47,2A1,1,0,0,0,2.2,27H9a1,1,0,0,0,.95-.7,8.75,8.75,0,0,1,1.58-3A1,1,0,0,0,11.65,22.28Z"/><path class="cls-2" d="M10.87,6.09c-1.68-1.62-6.06-1.61-7.74,0A3.83,3.83,0,0,0,2,9c0,2.05.88,5.86,2.77,7.56a3.32,3.32,0,0,0,4.46,0C11.12,14.86,12,11.05,12,9A3.83,3.83,0,0,0,10.87,6.09Z"/><path class="cls-2" d="M28.87,6.09c-1.71-1.65-6-1.64-7.74,0A3.83,3.83,0,0,0,20,9c0,2.05.88,5.86,2.77,7.56a3.35,3.35,0,0,0,4.46,0C29.12,14.86,30,11.05,30,9A3.83,3.83,0,0,0,28.87,6.09Z"/><path class="cls-3" d="M16,1a6,6,0,0,0-6,6c0,6.64,2,10,6,10s6-3.36,6-10A6,6,0,0,0,16,1Z"/><path class="cls-3" d="M25,29.77c-.74-3.09-1-5.38-2.93-7.7A7.82,7.82,0,0,0,16,19a7.55,7.55,0,0,0-5.17,2.13C7.75,24,7.67,27.78,7,29.77A1,1,0,0,0,8,31H24A1,1,0,0,0,25,29.77Z"/></g></svg>