<svg xmlns="http://www.w3.org/2000/svg" viewBox="0 0 32 32"><defs><style>.cls-1{fill:#ffb74d;}.cls-2{fill:#ffe082;}.cls-3{fill:#039be5;}</style></defs><title>ssl encryption marketing networking online</title><g id="ssl_encryption" data-name="ssl encryption"><path class="cls-1" d="M24,17H8a1,1,0,0,1-1-1V10a9,9,0,0,1,18,0,1,1,0,0,1-2,0A7,7,0,0,0,9,10v5H24a1,1,0,0,1,0,2Z"/><rect class="cls-2" x="2" y="15" width="28" height="16" rx="1" ry="1"/><path class="cls-3" d="M10,27H7a1,1,0,0,1,0-2H9V24H7a1,1,0,0,1-1-1V20a1,1,0,0,1,1-1h3a1,1,0,0,1,0,2H8v1h2a1,1,0,0,1,1,1v3A1,1,0,0,1,10,27Z"/><path class="cls-3" d="M17.5,27h-3a1,1,0,0,1,0-2h2V24h-2a1,1,0,0,1-1-1V20a1,1,0,0,1,1-1h3a1,1,0,0,1,0,2h-2v1h2a1,1,0,0,1,1,1v3A1,1,0,0,1,17.5,27Z"/><path class="cls-3" d="M25,27H22a1,1,0,0,1-1-1V20a1,1,0,0,1,2,0v5h2a1,1,0,0,1,0,2Z"/></g></svg>