<svg id="multiple_page" data-name="multiple page" xmlns="http://www.w3.org/2000/svg" viewBox="0 0 32 32"><defs><style>.cls-1{fill:#039be5;}.cls-2{fill:#ffe082;}.cls-3{fill:#ffb74d;}</style></defs><title>multiple page marketing networking online</title><path class="cls-1" d="M30,7H26a1,1,0,0,0-1,1V23H6a1,1,0,0,0-1,1v4a1,1,0,0,0,1,1H30a1,1,0,0,0,1-1V8A1,1,0,0,0,30,7Z"/><rect class="cls-2" x="1" y="3" width="26" height="22" rx="1" ry="1"/><path class="cls-3" d="M26,3H2A1,1,0,0,0,1,4V9H27V4A1,1,0,0,0,26,3Z"/></svg>