<svg xmlns="http://www.w3.org/2000/svg" viewBox="0 0 32 32"><defs><style>.cls-1{fill:#ffb74d;}.cls-2{fill:#039be5;}.cls-3{fill:#ffe082;}</style></defs><title>database marketing networking online</title><g id="database"><path class="cls-1" d="M16,29a1,1,0,0,1-1-1V22a1,1,0,0,1,2,0v6A1,1,0,0,1,16,29Z"/><path class="cls-1" d="M30,30H2a1,1,0,0,1,0-2H30a1,1,0,0,1,0,2Z"/><rect class="cls-2" x="11" y="27" width="10" height="4" rx="1" ry="1"/><path class="cls-3" d="M25.09,11a1,1,0,0,0-1,1c0,1.22-3.15,3-8.09,3s-8.09-1.78-8.09-3a1,1,0,0,0-2,0v6c0,2.85,4.34,5,10.09,5s10.09-2.15,10.09-5V12A1,1,0,0,0,25.09,11Z"/><path class="cls-1" d="M25.09,5a1,1,0,0,0-1,1c0,1.22-3.15,3-8.09,3S7.91,7.22,7.91,6a1,1,0,0,0-2,0v6c0,2.85,4.34,5,10.09,5s10.09-2.15,10.09-5V6A1,1,0,0,0,25.09,5Z"/><ellipse class="cls-3" cx="16" cy="6" rx="10.09" ry="5"/></g></svg>