<svg xmlns="http://www.w3.org/2000/svg" viewBox="0 0 32 32"><defs><style>.cls-1{fill:#ffb74d;}.cls-2{fill:#ffe082;}.cls-3{fill:#039be5;}</style></defs><title>firewall marketing networking online</title><g id="firewall"><rect class="cls-1" x="1" y="18" width="7" height="6" rx="1" ry="1"/><rect class="cls-2" x="24" y="18" width="7" height="6" rx="1" ry="1"/><rect class="cls-2" x="9" y="18" width="14" height="6" rx="1" ry="1"/><rect class="cls-2" x="1" y="25" width="18" height="6" rx="1" ry="1"/><rect class="cls-1" x="20" y="25" width="11" height="6" rx="1" ry="1"/><path class="cls-3" d="M21.63,14.65C24,11.66,23,7,23,6.78a1,1,0,0,0-1.87-.23A12,12,0,0,1,19.49,9c.36-2.84-.23-6-2.94-7.8h0a1,1,0,0,0-1.1,0h0c-2.71,1.8-3.3,5-2.94,7.8a12,12,0,0,1-1.62-2.42A1,1,0,0,0,9,6.78c0,.2-1,4.88,1.35,7.87C12.91,17.81,19.09,17.81,21.63,14.65Z"/></g></svg>