<svg xmlns="http://www.w3.org/2000/svg" viewBox="0 0 32 32"><defs><style>.cls-1{fill:#039be5;}.cls-2{fill:#ffb74d;}</style></defs><title>history marketing networking online</title><g id="history"><path class="cls-1" d="M16,1A14.86,14.86,0,0,0,6.67,4.26L6,4.83V2A1,1,0,0,0,4,2V7A1,1,0,0,0,5,8h5a1,1,0,0,0,0-2H7.71l.23-.2A12.86,12.86,0,0,1,16,3,13,13,0,1,1,3,16a1,1,0,0,0-2,0A15,15,0,1,0,16,1Z"/><path class="cls-2" d="M19.79,21.21l-4.5-4.5A1,1,0,0,1,15,16V7a1,1,0,0,1,2,0v8.59l4.21,4.2a1,1,0,0,1-1.42,1.42Z"/></g></svg>