<svg xmlns="http://www.w3.org/2000/svg" viewBox="0 0 32 32"><defs><style>.cls-1{fill:#039be5;}.cls-2{fill:#ffe082;}.cls-3{fill:#ffb74d;}</style></defs><title>bandwidth marketing networking online</title><g id="bandwidth"><circle class="cls-1" cx="16" cy="16" r="15"/><path class="cls-2" d="M16,5a11,11,0,0,0-5.32,20.62A1,1,0,0,0,12.13,25a4,4,0,0,1,7.74,0,1,1,0,0,0,1.45.62A11,11,0,0,0,16,5Z"/><circle class="cls-2" cx="16" cy="26" r="1"/><path class="cls-3" d="M16,18a1,1,0,0,1-1-1V10a1,1,0,0,1,2,0v7A1,1,0,0,1,16,18Z"/></g></svg>