<svg xmlns="http://www.w3.org/2000/svg" viewBox="0 0 32 32"><defs><style>.cls-1{fill:#ffb74d;}.cls-2{fill:#ffe082;}.cls-3{fill:#039be5;}</style></defs><title>target keyword marketing networking online</title><g id="target_keyword" data-name="target keyword"><path class="cls-1" d="M30.71,30.71a1,1,0,0,1-1.42,0l-11-11a1,1,0,0,1,1.42-1.42l11,11A1,1,0,0,1,30.71,30.71Z"/><circle class="cls-1" cx="12" cy="12" r="11"/><circle class="cls-2" cx="12" cy="12" r="6"/><path class="cls-3" d="M12,13a1,1,0,0,1-.71-.29,1,1,0,0,1,0-1.42l10-10A1,1,0,0,1,22,1h2a1,1,0,0,1,.71,1.71l-3,3a1,1,0,0,1-1.42,0,1.16,1.16,0,0,1-.23-.36l-7.35,7.36A1,1,0,0,1,12,13Z"/></g></svg>