<svg xmlns="http://www.w3.org/2000/svg" viewBox="0 0 32 32"><defs><style>.cls-1{fill:#ffe082;}.cls-2{fill:#ffb74d;}.cls-3{fill:#039be5;}</style></defs><title>under maintenance marketing networking online</title><g id="under_maintenance" data-name="under maintenance"><rect class="cls-1" y="3" width="30" height="26" rx="1" ry="1"/><path class="cls-2" d="M29,3H1A1,1,0,0,0,0,4V9H30V4A1,1,0,0,0,29,3Z"/><path class="cls-3" d="M23.92,29.62l-7-17a1,1,0,0,0-1.84,0l-7,17a1,1,0,0,0,.09.94A1,1,0,0,0,9,31H23a1,1,0,0,0,.83-.44A1,1,0,0,0,23.92,29.62Z"/><polygon class="cls-2" points="22.43 26 19.96 20 12.04 20 9.56 26 22.43 26"/><path class="cls-2" d="M25,31H7a1,1,0,0,1,0-2H25a1,1,0,0,1,0,2Z"/></g></svg>