<svg xmlns="http://www.w3.org/2000/svg" viewBox="0 0 32 32"><defs><style>.cls-1{fill:#ffe082;}.cls-2{fill:#ffb74d;}.cls-3{fill:#039be5;}</style></defs><title>domain registration marketing networking online</title><g id="domain_registration" data-name="domain registration"><rect class="cls-1" x="1" y="3" width="30" height="26" rx="1" ry="1"/><path class="cls-2" d="M30,3H2A1,1,0,0,0,1,4V9H31V4A1,1,0,0,0,30,3Z"/><rect class="cls-2" x="10.59" y="12.91" width="11.09" height="11.09" rx="1" ry="1"/><path class="cls-3" d="M15.88,20.53l-2.27-2.28a1,1,0,0,1,0-1.41,1,1,0,0,1,1.42,0l1.56,1.56,6.11-6.11a1,1,0,0,1,1.42,1.42L17.3,20.53A1,1,0,0,1,15.88,20.53Z"/></g></svg>