<svg xmlns="http://www.w3.org/2000/svg" viewBox="0 0 32 32"><defs><style>.cls-1{fill:#ffb74d;}.cls-2{fill:#039be5;}.cls-3{fill:#ffe082;}</style></defs><title>live chat marketing networking online</title><g id="live_chat" data-name="live chat"><path class="cls-1" d="M20,19.07H8V6A1,1,0,0,0,7,5H2A1,1,0,0,0,1,6V24a1,1,0,0,0,1,1H4v5a1,1,0,0,0,1.71.71L11.41,25H20a1,1,0,0,0,1-1V20.07A1,1,0,0,0,20,19.07Z"/><path class="cls-2" d="M30,1H7A1,1,0,0,0,6,2V20.07a1,1,0,0,0,1,1H22.19l4.64,4.64A1,1,0,0,0,28.54,25V21.07H30a1,1,0,0,0,1-1V2A1,1,0,0,0,30,1Z"/><path class="cls-3" d="M13,13a1,1,0,0,1-1-1V11a1,1,0,0,1,2,0v1A1,1,0,0,1,13,13Z"/><path class="cls-3" d="M18.5,13a1,1,0,0,1-1-1V11a1,1,0,0,1,2,0v1A1,1,0,0,1,18.5,13Z"/><path class="cls-3" d="M24,13a1,1,0,0,1-1-1V11a1,1,0,0,1,2,0v1A1,1,0,0,1,24,13Z"/></g></svg>