<svg xmlns="http://www.w3.org/2000/svg" viewBox="0 0 32 32"><defs><style>.cls-1{fill:#ffe082;}.cls-2{fill:#039be5;}.cls-3{fill:#ffb74d;}</style></defs><title>save marketing networking online</title><g id="save"><path class="cls-1" d="M30.74,11.33l-9-10A1,1,0,0,0,21,1H2A1,1,0,0,0,1,2V30a1,1,0,0,0,1,1H30a1,1,0,0,0,1-1V12A1,1,0,0,0,30.74,11.33Z"/><rect class="cls-2" x="8" y="15" width="16" height="12" rx="1" ry="1"/><path class="cls-3" d="M19,23a1,1,0,0,1-1-1V20a1,1,0,0,1,2,0v2A1,1,0,0,1,19,23Z"/></g></svg>