<svg xmlns="http://www.w3.org/2000/svg" viewBox="0 0 32 32"><defs><style>.cls-1{fill:#ffe082;}.cls-2{fill:#ffb74d;}.cls-3{fill:#039be5;}</style></defs><title>ceo strategy marketing networking online</title><g id="ceo_strategy" data-name="ceo strategy"><path class="cls-1" d="M16,15c-3.69,0-6.11,5-4.5,9.35a1,1,0,0,0,.94.65h7.12a1,1,0,0,0,.94-.65C22.13,20,19.64,15,16,15Z"/><circle class="cls-2" cx="16" cy="12" r="4"/><path class="cls-3" d="M29,2H25a1,1,0,0,0,0,2h1.59l-4.3,4.29a1,1,0,0,0,1.42,1.42L28,5.41V7a1,1,0,0,0,2,0V3A1,1,0,0,0,29,2Z"/><path class="cls-3" d="M29,24a1,1,0,0,0-1,1v1.59l-4.29-4.3a1,1,0,0,0-1.42,1.42L26.59,28H25a1,1,0,0,0,0,2h4a1,1,0,0,0,1-1V25A1,1,0,0,0,29,24Z"/><path class="cls-3" d="M9.71,8.29,5.41,4H7A1,1,0,0,0,7,2H3A1,1,0,0,0,2,3V7A1,1,0,0,0,4,7V5.41l4.29,4.3A1,1,0,0,0,9.71,8.29Z"/><path class="cls-3" d="M9.71,22.29a1,1,0,0,0-1.42,0L4,26.59V25a1,1,0,0,0-2,0v4a1,1,0,0,0,1,1H7a1,1,0,0,0,0-2H5.41l4.3-4.29A1,1,0,0,0,9.71,22.29Z"/></g></svg>