<svg xmlns="http://www.w3.org/2000/svg" viewBox="0 0 32 32"><defs><style>.cls-1{fill:#ffe082;}.cls-2{fill:#ffb74d;}.cls-3{fill:#039be5;}</style></defs><title>browser marketing networking online</title><g id="browser"><rect class="cls-1" x="1" y="3" width="30" height="26" rx="1" ry="1"/><path class="cls-2" d="M30,3H2A1,1,0,0,0,1,4V9H31V4A1,1,0,0,0,30,3Z"/><path class="cls-2" d="M17.77,18.56l-2.83-2.83a1,1,0,0,0-1.63.32L11.19,21a1,1,0,0,0,1.31,1.31l4.95-2.12A1,1,0,0,0,17.77,18.56Z"/><path class="cls-3" d="M19.44,12.72l-5.66,2.83a1,1,0,0,0-.26,1.6L16.35,20a1,1,0,0,0,1.6-.26l2.83-5.66A1,1,0,0,0,19.44,12.72Z"/></g></svg>