<svg xmlns="http://www.w3.org/2000/svg" viewBox="0 0 32 32"><defs><style>.cls-1{fill:#ffe082;}.cls-2{fill:#ffb74d;}.cls-3{fill:#039be5;}</style></defs><title>domain marketing networking online</title><g id="domain"><rect class="cls-1" x="1" y="3" width="30" height="26" rx="1" ry="1"/><path class="cls-2" d="M30,3H2A1,1,0,0,0,1,4V9H31V4A1,1,0,0,0,30,3Z"/><path class="cls-3" d="M13.78,23.32l-1-3.16-1.06,3.16a1,1,0,0,1-1.89,0l-2-6a1,1,0,1,1,1.89-.64l1.06,3.16,1-3.16a1,1,0,0,1,1.89,0l1.06,3.16,1-3.16a1,1,0,1,1,1.89.64l-2,6A1,1,0,0,1,13.78,23.32Z"/><path class="cls-3" d="M20.26,20.87a1,1,0,1,1,.48-1.94c1.48.35,2.21-.24,2.21-1.61,0-.67-1.57-.73-1.59-.73A1,1,0,0,1,20.53,15l.69-1H20.5a1,1,0,0,1,0-2h2.59a1,1,0,0,1,.83,1.55L23,14.87A2.58,2.58,0,0,1,25,17.32C25,20.26,22.67,21.49,20.26,20.87Z"/></g></svg>