<svg xmlns="http://www.w3.org/2000/svg" viewBox="0 0 32 32"><defs><style>.cls-1{fill:#ffb74d;}.cls-2{fill:#ffe082;}.cls-3{fill:#039be5;}</style></defs><title>bug fix marketing networking online</title><g id="bug_fix" data-name="bug fix"><path class="cls-1" d="M9.2,13H3a1,1,0,0,1,0-2H9.2a1,1,0,0,1,0,2Z"/><path class="cls-1" d="M8.76,9l-4-1a1,1,0,0,1-.62-.46l-3-5a1,1,0,1,1,1.72-1L5.64,6.13l3.6.9A1,1,0,1,1,8.76,9Z"/><path class="cls-1" d="M2.49,24.86a1,1,0,0,1-.35-1.37l3-5a1,1,0,0,1,.31-.32l3-2a1,1,0,1,1,1.1,1.66L6.74,19.71l-2.88,4.8A1,1,0,0,1,2.49,24.86Z"/><path class="cls-1" d="M22,8.24A1,1,0,0,1,22.76,7l3.6-.9,2.78-4.64a1,1,0,1,1,1.72,1l-3,5a1,1,0,0,1-.62.46l-4,1A1,1,0,0,1,22,8.24Z"/><path class="cls-1" d="M16,1a6,6,0,0,0-6,6,1,1,0,0,0,1,1H21a1,1,0,0,0,1-1A6,6,0,0,0,16,1Z"/><path class="cls-1" d="M29,13H22.8a1,1,0,1,1,0-2H29a1,1,0,0,1,0,2Z"/><path class="cls-2" d="M22.8,6H9.2a1,1,0,0,0-1,1V17.2A7.81,7.81,0,0,0,16,25h0a7.81,7.81,0,0,0,7.8-7.8V7A1,1,0,0,0,22.8,6Z"/><path class="cls-3" d="M30.13,26.39l-4.59-4.6.63-4.45a1,1,0,0,0-.47-1l-3.54-2.12a.91.91,0,0,0-.51-.14H17.4a1,1,0,0,0-.7,1.7l3.1,3.1-.36,1.06-1.06.35-3.1-3.09a1,1,0,0,0-1.7.7v4.25a.91.91,0,0,0,.14.51l2.12,3.54a1,1,0,0,0,1,.47L21.29,26l4.6,4.59a1,1,0,0,0,1.41,0l2.83-2.83A1,1,0,0,0,30.13,26.39Z"/></g></svg>