<svg xmlns="http://www.w3.org/2000/svg" viewBox="0 0 32 32"><defs><style>.cls-1{fill:#ffb74d;}.cls-2{fill:#ffe082;}.cls-3{fill:#039be5;}</style></defs><title>search engine optimization marketing networking online</title><g id="search_engine_optimization" data-name="search engine optimization"><path class="cls-1" d="M29.29,30.71l-11-11a1,1,0,0,1,1.42-1.42l11,11a1,1,0,0,1-1.42,1.42Z"/><circle class="cls-2" cx="12" cy="12" r="11"/><path class="cls-3" d="M17,11a9.46,9.46,0,0,0-1.13,0A3.91,3.91,0,0,0,15.42,10a11,11,0,0,0,.82-.79,1,1,0,1,0-1.41-1.41,9.37,9.37,0,0,0-.79.82A3.91,3.91,0,0,0,13,8.13,9.39,9.39,0,0,0,13,7a1,1,0,0,0-2,0,9.46,9.46,0,0,0,0,1.13A3.91,3.91,0,0,0,10,8.58a11,11,0,0,0-.79-.82A1,1,0,0,0,7.76,9.17a9.37,9.37,0,0,0,.82.79A3.91,3.91,0,0,0,8.13,11,9.39,9.39,0,0,0,7,11a1,1,0,0,0,0,2,9.46,9.46,0,0,0,1.13,0A3.91,3.91,0,0,0,8.58,14a11,11,0,0,0-.82.79,1,1,0,1,0,1.41,1.41,9.37,9.37,0,0,0,.79-.82,3.91,3.91,0,0,0,1.07.45A9.39,9.39,0,0,0,11,17a1,1,0,0,0,2,0,9.46,9.46,0,0,0,0-1.13A3.91,3.91,0,0,0,14,15.42a11,11,0,0,0,.79.82,1,1,0,1,0,1.41-1.41,9.37,9.37,0,0,0-.82-.79A3.91,3.91,0,0,0,15.87,13,9.39,9.39,0,0,0,17,13a1,1,0,0,0,0-2Zm-5,3a2,2,0,1,1,2-2A2,2,0,0,1,12,14Z"/></g></svg>