<svg xmlns="http://www.w3.org/2000/svg" viewBox="0 0 32 32"><defs><style>.cls-1{fill:#ffe082;}.cls-2{fill:#ffb74d;}.cls-3{fill:#039be5;}</style></defs><title>edit page marketing networking online</title><g id="edit_page" data-name="edit page"><rect class="cls-1" x="1" y="3" width="30" height="26" rx="1" ry="1"/><path class="cls-2" d="M30,3H2A1,1,0,0,0,1,4V9H31V4A1,1,0,0,0,30,3Z"/><circle class="cls-3" cx="16" cy="23" r="8"/><path class="cls-2" d="M24.71,15.29l-2-2a1,1,0,0,0-1.46.05l-7,8A1,1,0,0,0,14,22v2a1,1,0,0,0,1,1h2a1,1,0,0,0,.75-.34l7-8A1,1,0,0,0,24.71,15.29Z"/></g></svg>