<svg xmlns="http://www.w3.org/2000/svg" viewBox="0 0 32 32"><defs><style>.cls-1{fill:#ffe082;}.cls-2{fill:#ffb74d;}.cls-3{fill:#039be5;}</style></defs><title>promoting marketing networking online</title><g id="promoting"><path class="cls-1" d="M12.49,19.83,7.28,18.3a1,1,0,0,0-1.28,1V26a1,1,0,0,0,1.71.71l5.21-5.21A1,1,0,0,0,12.49,19.83Z"/><path class="cls-2" d="M6.72,11.78l-5,1.47a1,1,0,0,0-.72,1v3.58a1,1,0,0,0,.72,1l5,1.47a1,1,0,0,0,1.28-1V12.74A1,1,0,0,0,6.72,11.78Z"/><path class="cls-3" d="M29.72,5,6,12v8l23.72,7A1,1,0,0,0,31,26V6A1,1,0,0,0,29.72,5Z"/></g></svg>