<svg xmlns="http://www.w3.org/2000/svg" viewBox="0 0 32 32"><defs><style>.cls-1{fill:#ffe082;}.cls-2{fill:#ffb74d;}.cls-3{fill:#039be5;}</style></defs><title>landing page optimization marketing networking online</title><g id="landing_page_optimization" data-name="landing page optimization"><rect class="cls-1" x="1" y="3" width="30" height="26" rx="1" ry="1"/><path class="cls-2" d="M30,3H2A1,1,0,0,0,1,4V9H31V4A1,1,0,0,0,30,3Z"/><path class="cls-3" d="M23,19.76l-1-4a1,1,0,0,0-.26-.47l-3-3A1,1,0,0,0,17,13v4.38l-1,.5-1-.5V13a1,1,0,0,0-1.71-.71l-3,3a1,1,0,0,0-.26.47l-1,4a1,1,0,0,0,.37,1L13,23.5V30a1,1,0,0,0,1,1h4a1,1,0,0,0,1-1V23.5l3.6-2.7A1,1,0,0,0,23,19.76Z"/></g></svg>