<svg xmlns="http://www.w3.org/2000/svg" viewBox="0 0 32 32"><defs><style>.cls-1{fill:#ffe082;}.cls-2{fill:#039be5;}.cls-3{fill:#ffb74d;}</style></defs><title>file transfer protocol marketing networking online</title><g id="file_transfer_protocol" data-name="file transfer protocol"><path class="cls-1" d="M30,6H16.72L16,3.68A1,1,0,0,0,15,3H7a1,1,0,0,0-1,.68L5.28,6H2A1,1,0,0,0,1,7V29a1,1,0,0,0,1,1H30a1,1,0,0,0,1-1V7A1,1,0,0,0,30,6Z"/><path class="cls-2" d="M14.73,14.32l-3-3.24a1,1,0,0,0-1.46,0l-3,3.24a1,1,0,0,0,1.46,1.36L10,14.31V24a1,1,0,0,0,2,0V14.31l1.27,1.37a1,1,0,1,0,1.46-1.36Z"/><path class="cls-3" d="M24.68,20.27a1,1,0,0,0-1.41.05L22,21.69V12a1,1,0,0,0-2,0v9.69l-1.27-1.37a1,1,0,1,0-1.46,1.36l3,3.24a1,1,0,0,0,1.46,0l3-3.24A1,1,0,0,0,24.68,20.27Z"/></g></svg>