<svg xmlns="http://www.w3.org/2000/svg" viewBox="0 0 32 32"><defs><style>.cls-1{fill:#ffe082;}.cls-2{fill:#ffb74d;}.cls-3{fill:#039be5;}</style></defs><title>payment method marketing networking online</title><g id="payment_method" data-name="payment method"><rect class="cls-1" x="1" y="5" width="30" height="22" rx="1" ry="1"/><path class="cls-2" d="M22,24a1,1,0,0,0-1,.91c-1.18,1.44-8.82,1.44-10,0A1,1,0,0,0,9,25v3c0,4,14,4,14,0V25A1,1,0,0,0,22,24Z"/><path class="cls-3" d="M22,21a1,1,0,0,0-1,.91c-1.18,1.44-8.82,1.44-10,0A1,1,0,0,0,9,22v3c0,4,14,4,14,0V22A1,1,0,0,0,22,21Z"/><rect class="cls-3" x="1" y="9" width="30" height="6"/><path class="cls-2" d="M9,22c0,4,14,4,14,0S9,18,9,22Z"/></g></svg>