<svg xmlns="http://www.w3.org/2000/svg" viewBox="0 0 32 32"><defs><style>.cls-1{fill:#ffe082;}.cls-2{fill:#039be5;}.cls-3{fill:#ffb74d;}</style></defs><title>spam marketing networking online</title><g id="spam"><path class="cls-1" d="M26.75,7.34A1,1,0,0,0,26,7H6a1,1,0,0,0-.75.34,1,1,0,0,0-.24.8l3,22A1,1,0,0,0,9,31H23a1,1,0,0,0,1-.86l3-22A1,1,0,0,0,26.75,7.34Z"/><rect class="cls-2" x="10" y="4" width="12" height="5" rx="1" ry="1"/><path class="cls-2" d="M16,6a1,1,0,0,1-1-1V2a1,1,0,0,1,2,0V5A1,1,0,0,1,16,6Z"/><path class="cls-2" d="M14,25a1,1,0,0,1-1-.9l-1-10a1,1,0,1,1,2-.2l1,10a1,1,0,0,1-.9,1.1Z"/><path class="cls-2" d="M18,25h-.1a1,1,0,0,1-.9-1.1l1-10a1,1,0,0,1,2,.2l-1,10A1,1,0,0,1,18,25Z"/><path class="cls-3" d="M29,9H3A1,1,0,0,1,3,7H29a1,1,0,0,1,0,2Z"/></g></svg>