<svg xmlns="http://www.w3.org/2000/svg" viewBox="0 0 32 32"><defs><style>.cls-1{fill:#ffe082;}.cls-2{fill:none;}.cls-3{fill:#ffb74d;}.cls-4{fill:#039be5;}</style></defs><title>client brief marketing networking online</title><g id="client_brief" data-name="client brief"><rect class="cls-1" x="5" y="1" width="22" height="26" rx="1" ry="1"/><path class="cls-2" d="M26,23c-1.87,0-3.58,2.9-2.82,6h5.64C29.6,25.83,27.84,23,26,23Z"/><circle class="cls-2" cx="26" cy="18" r="2"/><path class="cls-3" d="M27.91,21.49a4,4,0,0,0-3.82,0c-2.62,1.42-3.86,5.43-2.59,8.86a1,1,0,0,0,.94.65h7.12a1,1,0,0,0,.94-.65C31.78,26.91,30.52,22.9,27.91,21.49Z"/><path class="cls-3" d="M22,7H10a1,1,0,0,1,0-2H22a1,1,0,0,1,0,2Z"/><path class="cls-3" d="M22,11H10a1,1,0,0,1,0-2H22a1,1,0,0,1,0,2Z"/><path class="cls-3" d="M18,15H10a1,1,0,0,1,0-2h8a1,1,0,0,1,0,2Z"/><path class="cls-3" d="M18,19H10a1,1,0,0,1,0-2h8a1,1,0,0,1,0,2Z"/><path class="cls-4" d="M18,23H10a1,1,0,0,1,0-2h8a1,1,0,0,1,0,2Z"/><path class="cls-4" d="M26,14a4,4,0,0,0-1.91,7.49,3.83,3.83,0,0,0,3.82,0A4,4,0,0,0,26,14Z"/></g></svg>