<svg xmlns="http://www.w3.org/2000/svg" viewBox="0 0 32 32"><defs><style>.cls-1{fill:#ffe082;}.cls-2{fill:#039be5;}</style></defs><title>faq marketing networking online</title><g id="faq"><path class="cls-1" d="M30,1H2A1,1,0,0,0,1,2V24a1,1,0,0,0,1,1H20.59l5.7,5.71A1,1,0,0,0,28,30V25h2a1,1,0,0,0,1-1V2A1,1,0,0,0,30,1Z"/><path class="cls-2" d="M16,17a1,1,0,0,1-1-1c0-1.86.3-2.94,2.16-4.8a2.26,2.26,0,0,0,.58-2.31c-.5-1.2-2.82-1.06-3.45-.38a1.15,1.15,0,0,0-.29.85,1,1,0,0,1-.91,1.08A1,1,0,0,1,12,9.56a3.16,3.16,0,0,1,.78-2.37c1.52-1.7,5.67-1.78,6.79.93a4.23,4.23,0,0,1-1,4.5C17.12,14.06,17,14.63,17,16A1,1,0,0,1,16,17Z"/><circle class="cls-2" cx="16" cy="20" r="1"/></g></svg>