<svg xmlns="http://www.w3.org/2000/svg" viewBox="0 0 32 32"><defs><style>.cls-1{fill:#ffe082;}.cls-2{fill:#ffb74d;}.cls-3{fill:#039be5;}</style></defs><title>local business marketing networking online</title><g id="local_business" data-name="local business"><rect class="cls-1" x="1" y="15" width="30" height="12" rx="1" ry="1"/><path class="cls-2" d="M30.53,15.15l-8-4.92a1,1,0,0,0-.53-.15H10a1,1,0,0,0-.53.15L1.47,15.15A1,1,0,0,0,2,17H30A1,1,0,0,0,30.53,15.15Z"/><path class="cls-3" d="M16,1A7.46,7.46,0,0,0,8.55,8.45c0,6.09,6.45,13,6.72,13.24a1,1,0,0,0,1.46,0c.27-.29,6.72-7.15,6.72-13.24A7.46,7.46,0,0,0,16,1Z"/><path class="cls-1" d="M16,11a2,2,0,1,1,2-2A2,2,0,0,1,16,11Zm0-2Z"/></g></svg>