<svg xmlns="http://www.w3.org/2000/svg" viewBox="0 0 32 32"><defs><style>.cls-1{fill:#ffe082;}.cls-2{fill:#ffb74d;}.cls-3{fill:#039be5;}</style></defs><title>keyword marketing networking online</title><g id="keyword"><path class="cls-1" d="M26,1H13a1,1,0,0,0-.71.29l-7,7A1,1,0,0,0,5,9V30a1,1,0,0,0,1,1H26a1,1,0,0,0,1-1V2A1,1,0,0,0,26,1Z"/><path class="cls-2" d="M12.29,1.29l-7,7A1,1,0,0,0,6,10h7a1,1,0,0,0,1-1V2A1,1,0,0,0,12.29,1.29Z"/><path class="cls-3" d="M27.52,7.13a5.12,5.12,0,0,0-5.85,8l-3.41,9a1.19,1.19,0,0,0-.06.46l.19,1.83a1,1,0,0,0,1.41.81l2.12-1a1,1,0,0,0,.53-.55l.73-1.93.68-.31c.57-.26.57-.8.82-1.33s-.18-1-.33-1.45L25.71,17a5.12,5.12,0,0,0,4.78-3.31h0A5.12,5.12,0,0,0,27.52,7.13Z"/><path class="cls-2" d="M17,12H10a1,1,0,0,0,0,2h7a1,1,0,0,0,0-2Z"/><path class="cls-2" d="M17,16H10a1,1,0,0,0,0,2h7a1,1,0,0,0,0-2Z"/><path class="cls-2" d="M14,20H10a1,1,0,0,0,0,2h4a1,1,0,0,0,0-2Z"/><path class="cls-3" d="M14,24H10a1,1,0,0,0,0,2h4a1,1,0,0,0,0-2Z"/></g></svg>