<svg xmlns="http://www.w3.org/2000/svg" viewBox="0 0 32 32"><defs><style>.cls-1{fill:#ffe082;}.cls-2{fill:#ffb74d;}.cls-3{fill:#039be5;}</style></defs><title>page speed marketing networking online</title><g id="page_speed" data-name="page speed"><rect class="cls-1" x="1" y="3" width="30" height="26" rx="1" ry="1"/><path class="cls-2" d="M30,3H2A1,1,0,0,0,1,4V9H31V4A1,1,0,0,0,30,3Z"/><path class="cls-3" d="M16,13A12,12,0,0,0,4,25a1,1,0,0,0,1,1H27a1,1,0,0,0,1-1A12,12,0,0,0,16,13Z"/><path class="cls-1" d="M15.29,23.71a1,1,0,0,1,0-1.42l5-5a1,1,0,0,1,1.42,1.42l-5,5A1,1,0,0,1,15.29,23.71Z"/></g></svg>