<svg xmlns="http://www.w3.org/2000/svg" viewBox="0 0 32 32"><defs><style>.cls-1{fill:#ffe082;}.cls-2{fill:#ffb74d;}.cls-3{fill:#039be5;}</style></defs><title>database setting marketing networking online</title><g id="database_setting" data-name="database setting"><path class="cls-1" d="M27.31,13a1,1,0,0,0-1,1c0,1.39-4,3.4-10.31,3.4S5.69,15.39,5.69,14a1,1,0,0,0-2,0v6.6C3.69,24.11,10,26,16,26s12.31-1.89,12.31-5.4V14A1,1,0,0,0,27.31,13Z"/><path class="cls-2" d="M27.31,6.4a1,1,0,0,0-1,1c0,1.39-4,3.4-10.31,3.4S5.69,8.79,5.69,7.4a1,1,0,0,0-2,0V14c0,3.51,6.34,5.4,12.31,5.4S28.31,17.51,28.31,14V7.4A1,1,0,0,0,27.31,6.4Z"/><path class="cls-3" d="M30,24a7.33,7.33,0,0,0-1.13,0A3.91,3.91,0,0,0,28.42,23a11,11,0,0,0,.82-.79,1,1,0,0,0-1.41-1.41,9.87,9.87,0,0,0-.79.82A3.91,3.91,0,0,0,26,21.13,9.32,9.32,0,0,0,26,20a1,1,0,0,0-2,0,7.38,7.38,0,0,0,0,1.13,3.91,3.91,0,0,0-1.07.45c-.22-.28-.42-.43-.79-.82a1,1,0,0,0-1.41,1.41,9.37,9.37,0,0,0,.82.79A3.91,3.91,0,0,0,21.13,24,9.32,9.32,0,0,0,20,24a1,1,0,0,0,0,2,7.38,7.38,0,0,0,1.13,0A3.91,3.91,0,0,0,21.58,27a11,11,0,0,0-.82.79,1,1,0,0,0,1.41,1.41,9.87,9.87,0,0,0,.79-.82,3.91,3.91,0,0,0,1.07.45A9.32,9.32,0,0,0,24,30a1,1,0,0,0,2,0,7.38,7.38,0,0,0,0-1.13A3.91,3.91,0,0,0,27,28.42c.22.28.42.43.79.82a1,1,0,0,0,1.41-1.41,9.37,9.37,0,0,0-.82-.79A3.91,3.91,0,0,0,28.87,26,9.32,9.32,0,0,0,30,26a1,1,0,0,0,0-2Zm-5,3a2,2,0,1,1,2-2A2,2,0,0,1,25,27Z"/><path class="cls-1" d="M16,2C10,2,3.69,3.89,3.69,7.4S10,12.8,16,12.8s12.31-1.89,12.31-5.4S22,2,16,2Z"/></g></svg>