<svg xmlns="http://www.w3.org/2000/svg" viewBox="0 0 32 32"><defs><style>.cls-1{fill:#ffe082;}.cls-2{fill:#ffb74d;}.cls-3{fill:#039be5;}</style></defs><title>password marketing networking online</title><g id="password"><rect class="cls-1" x="1" y="8" width="30" height="16" rx="1" ry="1"/><path class="cls-2" d="M9.41,16l.71-.71a1,1,0,0,0-1.41-1.41L8,14.59l-.71-.71a1,1,0,0,0-1.41,1.41l.71.71-.71.71a1,1,0,0,0,1.41,1.41L8,17.41l.71.71a1,1,0,0,0,1.41-1.41Z"/><path class="cls-3" d="M17.41,16l.71-.71a1,1,0,0,0-1.41-1.41l-.71.71-.71-.71a1,1,0,0,0-1.41,1.41l.71.71-.71.71a1,1,0,0,0,1.41,1.41l.71-.71.71.71a1,1,0,0,0,1.41-1.41Z"/><path class="cls-2" d="M25.41,16l.71-.71a1,1,0,0,0-1.41-1.41l-.71.71-.71-.71a1,1,0,0,0-1.41,1.41l.71.71-.71.71a1,1,0,0,0,1.41,1.41l.71-.71.71.71a1,1,0,0,0,1.41-1.41Z"/></g></svg>