<svg xmlns="http://www.w3.org/2000/svg" viewBox="0 0 32 32"><defs><style>.cls-1{fill:#ffe082;}.cls-2{fill:#039be5;}.cls-3{fill:#ffb74d;}</style></defs><title>pay per click marketing networking online</title><g id="pay_per_click" data-name="pay per click"><path class="cls-1" d="M27,13.81A13,13,0,1,0,14,27,13,13,0,0,0,27,13.81Z"/><path class="cls-2" d="M13.71,20.73a4.83,4.83,0,0,1-3.37-1.18,1,1,0,0,1,1.42-1.42,3,3,0,0,0,2,.6c1.68,0,2.46-.93,2.46-1.89A1.41,1.41,0,0,0,14.6,15.4a4.65,4.65,0,0,1-4.5-2.57c-1.34-3.25,2.49-7.5,6.84-4.6A1,1,0,0,1,15.83,9.9c-2.71-1.8-4.48.71-3.88,2.16A2.72,2.72,0,0,0,14.6,13.4a3.39,3.39,0,0,1,3.57,3.44C18.17,18.89,16.52,20.73,13.71,20.73Z"/><path class="cls-2" d="M14,23a1,1,0,0,1-1-1V6a1,1,0,0,1,2,0V22A1,1,0,0,1,14,23Z"/><path class="cls-3" d="M30.37,22.92l-9.19-3.54a1,1,0,0,0-1.3,1.3l3.54,9.19a1,1,0,0,0,1.88,0l1.26-3.77,3.77-1.26A1,1,0,0,0,30.37,22.92Z"/></g></svg>