<svg xmlns="http://www.w3.org/2000/svg" viewBox="0 0 32 32"><defs><style>.cls-1{fill:#ffe082;}.cls-2{fill:#039be5;}.cls-3{fill:#ffb74d;}</style></defs><title>hit counter marketing networking online</title><g id="hit_counter" data-name="hit counter"><rect class="cls-1" x="1" y="1" width="30" height="30" rx="1" ry="1"/><path class="cls-2" d="M6,15.11a1,1,0,0,1-1-1V9A1,1,0,0,1,7,9v5.11A1,1,0,0,1,6,15.11Z"/><path class="cls-2" d="M6,24a1,1,0,0,1-1-1V18.78a1,1,0,0,1,2,0V23A1,1,0,0,1,6,24Z"/><path class="cls-2" d="M14,15.11a1,1,0,0,1-1-1V9a1,1,0,0,1,2,0v5.11A1,1,0,0,1,14,15.11Z"/><path class="cls-2" d="M14,24a1,1,0,0,1-1-1V18.78a1,1,0,0,1,2,0V23A1,1,0,0,1,14,24Z"/><path class="cls-2" d="M12.22,8.11H7.78a1,1,0,1,1,0-2h4.44a1,1,0,0,1,0,2Z"/><path class="cls-2" d="M12.22,25.89H7.78a1,1,0,0,1,0-2h4.44a1,1,0,0,1,0,2Z"/><path class="cls-2" d="M11.33,17H8.67a1,1,0,0,1,0-2h2.66a1,1,0,0,1,0,2Z"/><path class="cls-3" d="M18,24a1,1,0,0,1-1-1V18.78a1,1,0,0,1,2,0V23A1,1,0,0,1,18,24Z"/><path class="cls-3" d="M26,15.11a1,1,0,0,1-1-1V9a1,1,0,0,1,2,0v5.11A1,1,0,0,1,26,15.11Z"/><path class="cls-3" d="M24.22,8.11H19.78a1,1,0,0,1,0-2h4.44a1,1,0,1,1,0,2Z"/><path class="cls-3" d="M24.22,25.89H19.78a1,1,0,0,1,0-2h4.44a1,1,0,0,1,0,2Z"/><path class="cls-3" d="M23.33,17H20.67a1,1,0,0,1,0-2h2.66a1,1,0,0,1,0,2Z"/></g></svg>