<svg xmlns="http://www.w3.org/2000/svg" viewBox="0 0 32 32"><defs><style>.cls-1{fill:#ffb74d;}.cls-2{fill:#ffe082;}.cls-3{fill:#039be5;}</style></defs><title>local seo marketing networking online</title><g id="local_seo" data-name="local seo"><path class="cls-1" d="M29.29,30.71l-11-11a1,1,0,0,1,1.42-1.42l11,11a1,1,0,0,1-1.42,1.42Z"/><circle class="cls-2" cx="12" cy="12" r="11"/><path class="cls-3" d="M12,5.5a4.73,4.73,0,0,0-4.73,4.73c0,3.7,3.84,7.79,4,8a1,1,0,0,0,1.46,0c.16-.17,4-4.26,4-8A4.73,4.73,0,0,0,12,5.5Z"/><circle class="cls-2" cx="12" cy="10" r="1"/></g></svg>