<svg xmlns="http://www.w3.org/2000/svg" viewBox="0 0 32 32"><defs><style>.cls-1{fill:#ffe082;}.cls-2{fill:#ffb74d;}.cls-3{fill:#039be5;}</style></defs><title>email authentication marketing networking online</title><g id="email_authentication" data-name="email authentication"><path class="cls-1" d="M30.46,5.12a1,1,0,0,0-1,.08L16,14.78,2.56,5.59a1,1,0,0,0-1,0A1,1,0,0,0,1,6.42V26a1,1,0,0,0,1,1H30a1,1,0,0,0,1-1V6A1,1,0,0,0,30.46,5.12Z"/><path class="cls-2" d="M30,5H2A1,1,0,0,0,1,6v.42a1,1,0,0,0,.44.83l14,9.58a1,1,0,0,0,1.14,0l14-10A1,1,0,0,0,31,6h0A1,1,0,0,0,30,5Z"/><path class="cls-3" d="M30.37,4.81a5.06,5.06,0,0,0-2.86-2.68,5.12,5.12,0,0,0-5.84,8l-3.41,9a1.19,1.19,0,0,0-.06.46l.19,1.83a1,1,0,0,0,1.41.81l2.12-1a1,1,0,0,0,.53-.55l.73-1.93c.45-.25,1-.29,1.21-.87l.29-.77c.21-.56-.16-1-.33-1.45L25.71,12a5.12,5.12,0,0,0,4.78-3.31A5,5,0,0,0,30.37,4.81Z"/></g></svg>