<svg xmlns="http://www.w3.org/2000/svg" viewBox="0 0 32 32"><defs><style>.cls-1{fill:#ffe082;}.cls-2{fill:#ffb74d;}.cls-3{fill:#039be5;}</style></defs><title>seo contest marketing networking online</title><g id="seo_contest" data-name="seo contest"><rect class="cls-1" x="1" y="3" width="30" height="26" rx="1" ry="1"/><path class="cls-2" d="M30,3H2A1,1,0,0,0,1,4V9H31V4A1,1,0,0,0,30,3Z"/><path class="cls-2" d="M11.92,13.62A1,1,0,0,0,11,13H8a1,1,0,0,0-1,1.16c.07.4.7,3.86,2.93,5.09a3.66,3.66,0,0,0,3.26.07A1,1,0,0,0,13.73,18Z"/><path class="cls-2" d="M24,13H21a1,1,0,0,0-.92.62L18.27,18a1,1,0,0,0,.53,1.31,3.66,3.66,0,0,0,3.26-.07C24.29,18,24.92,14.56,25,14.16A1,1,0,0,0,24,13Z"/><path class="cls-3" d="M22,12a1,1,0,0,0-1-1H11a1,1,0,0,0-1,1c0,.35.06,8,5,8.91V23H14a1,1,0,0,0,0,2h4a1,1,0,0,0,0-2H17V20.91C21.94,20,22,12.35,22,12Z"/></g></svg>