<svg xmlns="http://www.w3.org/2000/svg" viewBox="0 0 32 32"><defs><style>.cls-1{fill:#ffe082;}.cls-2{fill:#ffb74d;}.cls-3{fill:#039be5;}</style></defs><title>global solution marketing networking online</title><g id="global_solution" data-name="global solution"><circle class="cls-1" cx="16" cy="16" r="9"/><path class="cls-2" d="M16,7a9,9,0,0,0-9,9H25A9,9,0,0,0,16,7Z"/><path class="cls-3" d="M28,27H5V10.59l.21.2a1,1,0,0,0,.7.3,1,1,0,0,0,.71-1.71L4.71,7.46a1,1,0,0,0-1.42,0L1.38,9.38a1,1,0,0,0,1.41,1.41l.21-.2V28a1,1,0,0,0,1,1H28a1,1,0,0,0,0-2Z"/><path class="cls-3" d="M29.21,21.46l-.21.21V4a1,1,0,0,0-1-1H4A1,1,0,0,0,4,5H27V21.67l-.21-.21a1,1,0,0,0-1.41,1.42l1.91,1.91a1,1,0,0,0,1.42,0l1.91-1.91A1,1,0,0,0,29.21,21.46Z"/><path class="cls-2" d="M16,25c2.49,0,4.5-4,4.5-9h-9C11.5,21,13.51,25,16,25Z"/><path class="cls-1" d="M16,7c-2.49,0-4.5,4-4.5,9h9C20.5,11,18.49,7,16,7Z"/></g></svg>