<svg xmlns="http://www.w3.org/2000/svg" viewBox="0 0 32 32"><defs><style>.cls-1{fill:#ffe082;}.cls-2{fill:#ffb74d;}.cls-3{fill:#039be5;}</style></defs><title>error page marketing networking online</title><g id="error_page" data-name="error page"><rect class="cls-1" x="1" y="3" width="30" height="26" rx="1" ry="1"/><path class="cls-2" d="M30,3H2A1,1,0,0,0,1,4V9H31V4A1,1,0,0,0,30,3Z"/><path class="cls-3" d="M22.71,14.8,19.2,11.29a1,1,0,0,0-.71-.29h-5a1,1,0,0,0-.71.29L9.29,14.8a1,1,0,0,0-.29.71v5a1,1,0,0,0,.29.71l3.51,3.51a1,1,0,0,0,.71.29h5a1,1,0,0,0,.71-.29l3.51-3.51a1,1,0,0,0,.29-.71v-5A1,1,0,0,0,22.71,14.8Z"/><path class="cls-1" d="M17.41,18l1.3-1.29a1,1,0,0,0-1.42-1.42L16,16.59l-1.29-1.3a1,1,0,0,0-1.42,1.42L14.59,18l-1.3,1.29a1,1,0,0,0,1.42,1.42L16,19.41l1.29,1.3a1,1,0,0,0,1.42-1.42Z"/></g></svg>