<svg xmlns="http://www.w3.org/2000/svg" viewBox="0 0 32 32"><defs><style>.cls-1{fill:#039be5;}.cls-2{fill:#ffb74d;}.cls-3{fill:#ffe082;}</style></defs><title>support services marketing networking online</title><g id="support_services" data-name="support services"><path class="cls-1" d="M27.73,15a1,1,0,0,0-1.12.86c-1,7.71-4.44,12.29-9.63,13a1,1,0,0,0-1-.9,1,1,0,0,0-1,1c.06.2-.36,2,1,2h.06c4-.18,10.85-2.35,12.53-14.86A1,1,0,0,0,27.73,15Z"/><path class="cls-2" d="M8.45,10.05A1,1,0,0,0,7.45,9H4a1,1,0,0,0-1,1,44.36,44.36,0,0,0,.39,6.14,1,1,0,0,0,1,.86H7.76a1,1,0,0,0,1-1.14A37.19,37.19,0,0,1,8.45,10.05Z"/><path class="cls-2" d="M28,9H24.55a1,1,0,0,0-1,1.05c0,.18,0,.35,0,.52a39.22,39.22,0,0,1-.32,5.29,1,1,0,0,0,1,1.14H27.6a1,1,0,0,0,1-.86A44.36,44.36,0,0,0,29,10,1,1,0,0,0,28,9Z"/><path class="cls-2" d="M16,1A9.58,9.58,0,0,0,6.45,9.94a1,1,0,0,0,1,1.06h17.1a1,1,0,0,0,1-1.06A9.58,9.58,0,0,0,16,1Z"/><path class="cls-3" d="M25.57,10.57c0-.53-.07-1.05-.05-1.57h-19c0,.52-.05,1-.05,1.57C6.43,18.51,8.1,27,16,27S25.57,18.49,25.57,10.57Z"/><path class="cls-1" d="M16,23a3,3,0,0,1-2.65-1.46A1,1,0,0,1,15,20.46,1,1,0,0,0,16,21a1,1,0,0,0,1-.54,1,1,0,0,1,1.38-.3,1,1,0,0,1,.3,1.38A3,3,0,0,1,16,23Z"/></g></svg>