<svg xmlns="http://www.w3.org/2000/svg" viewBox="0 0 32 32"><defs><style>.cls-1{fill:#ffe082;}.cls-2{fill:#ffb74d;}.cls-3{fill:#039be5;}</style></defs><title>website optimization marketing networking online</title><g id="website_optimization" data-name="website optimization"><rect class="cls-1" x="1" y="3" width="30" height="26" rx="1" ry="1"/><path class="cls-2" d="M30,3H2A1,1,0,0,0,1,4V9H31V4A1,1,0,0,0,30,3Z"/><path class="cls-3" d="M21,17a9.46,9.46,0,0,0-1.13,0A3.91,3.91,0,0,0,19.42,16a11,11,0,0,0,.82-.79,1,1,0,0,0-1.41-1.41,9.37,9.37,0,0,0-.79.82A3.91,3.91,0,0,0,17,14.13,9.39,9.39,0,0,0,17,13a1,1,0,0,0-2,0,9.46,9.46,0,0,0,0,1.13,3.91,3.91,0,0,0-1.07.45,11,11,0,0,0-.79-.82,1,1,0,0,0-1.41,1.41,9.37,9.37,0,0,0,.82.79A3.91,3.91,0,0,0,12.13,17,9.39,9.39,0,0,0,11,17a1,1,0,0,0,0,2,9.46,9.46,0,0,0,1.13,0A3.91,3.91,0,0,0,12.58,20a11,11,0,0,0-.82.79,1,1,0,0,0,1.41,1.41,9.37,9.37,0,0,0,.79-.82,3.91,3.91,0,0,0,1.07.45A9.39,9.39,0,0,0,15,23a1,1,0,0,0,2,0,9.46,9.46,0,0,0,0-1.13A3.91,3.91,0,0,0,18,21.42a11,11,0,0,0,.79.82,1,1,0,0,0,1.41-1.41,9.37,9.37,0,0,0-.82-.79A3.91,3.91,0,0,0,19.87,19,9.39,9.39,0,0,0,21,19a1,1,0,0,0,0-2Zm-5,3a2,2,0,1,1,2-2A2,2,0,0,1,16,20Z"/></g></svg>