<svg xmlns="http://www.w3.org/2000/svg" viewBox="0 0 32 32"><defs><style>.cls-1{fill:#ffe082;}.cls-2{fill:#ffb74d;}.cls-3{fill:#039be5;}</style></defs><title>conversion optimization marketing networking online</title><g id="conversion_optimization" data-name="conversion optimization"><path class="cls-1" d="M28,27H5V10.59l.21.2a1,1,0,0,0,1.41,0,1,1,0,0,0,0-1.41L4.71,7.46a1,1,0,0,0-1.42,0L1.38,9.38a1,1,0,1,0,1.41,1.41l.21-.2V28a1,1,0,0,0,1,1H28a1,1,0,0,0,0-2Z"/><path class="cls-2" d="M30.62,21.46a1,1,0,0,0-1.41,0l-.21.21V4a1,1,0,0,0-1-1H4A1,1,0,0,0,4,5H27V21.67l-.21-.21a1,1,0,0,0-1.41,0,1,1,0,0,0,0,1.42l1.91,1.91a1,1,0,0,0,1.42,0l1.91-1.91A1,1,0,0,0,30.62,21.46Z"/><path class="cls-3" d="M21,15a7.38,7.38,0,0,0-1.13,0A3.91,3.91,0,0,0,19.42,14a11,11,0,0,0,.82-.79,1,1,0,0,0-1.41-1.41,9.37,9.37,0,0,0-.79.82A3.91,3.91,0,0,0,17,12.13,9.32,9.32,0,0,0,17,11a1,1,0,0,0-2,0,7.38,7.38,0,0,0,0,1.13,3.91,3.91,0,0,0-1.07.45,11,11,0,0,0-.79-.82,1,1,0,0,0-1.41,1.41,9.37,9.37,0,0,0,.82.79A3.91,3.91,0,0,0,12.13,15,9.32,9.32,0,0,0,11,15a1,1,0,0,0,0,2,7.38,7.38,0,0,0,1.13,0A3.91,3.91,0,0,0,12.58,18c-.28.22-.43.42-.82.79a1,1,0,0,0,1.41,1.41,9.37,9.37,0,0,0,.79-.82,3.91,3.91,0,0,0,1.07.45A9.32,9.32,0,0,0,15,21a1,1,0,0,0,2,0,7.33,7.33,0,0,0,0-1.13A3.91,3.91,0,0,0,18,19.42a11,11,0,0,0,.79.82,1,1,0,0,0,1.41-1.41,9.87,9.87,0,0,0-.82-.79A3.91,3.91,0,0,0,19.87,17,9.32,9.32,0,0,0,21,17a1,1,0,0,0,0-2Zm-5,3a2,2,0,1,1,2-2A2,2,0,0,1,16,18Z"/></g></svg>