<svg xmlns="http://www.w3.org/2000/svg" viewBox="0 0 32 32"><defs><style>.cls-1{fill:#ffe082;}.cls-2{fill:#ffb74d;}.cls-3{fill:#039be5;}</style></defs><title>preview marketing networking online</title><g id="preview"><path class="cls-1" d="M26,1H13a1,1,0,0,0-.71.29l-7,7A1,1,0,0,0,5,9V30a1,1,0,0,0,1,1H26a1,1,0,0,0,1-1V2A1,1,0,0,0,26,1Z"/><path class="cls-2" d="M12.29,1.29l-7,7A1,1,0,0,0,6,10h7a1,1,0,0,0,1-1V2A1,1,0,0,0,12.29,1.29Z"/><path class="cls-2" d="M29.2,30.6,23,22.28a1,1,0,1,1,1.6-1.2L30.8,29.4a1,1,0,1,1-1.6,1.2Z"/><circle class="cls-3" cx="20" cy="17" r="7"/></g></svg>