<svg xmlns="http://www.w3.org/2000/svg" viewBox="0 0 32 32"><defs><style>.cls-1{fill:#ffb74d;}.cls-2{fill:#ffe082;}.cls-3{fill:#039be5;}</style></defs><title>job search marketing networking online</title><g id="job_search" data-name="job search"><path class="cls-1" d="M29.29,30.71l-7-7a1,1,0,0,1,1.42-1.42l7,7a1,1,0,0,1-1.42,1.42Z"/><circle class="cls-2" cx="14" cy="14" r="13"/><path class="cls-1" d="M14,12.6c-3.22,0-5.08,4.26-3.79,7.75a1,1,0,0,0,.94.65h5.7a1,1,0,0,0,.94-.65C19.09,16.83,17.21,12.6,14,12.6Z"/><path class="cls-3" d="M14,7a3.4,3.4,0,1,0,3.4,3.4A3.4,3.4,0,0,0,14,7Z"/></g></svg>