<svg xmlns="http://www.w3.org/2000/svg" viewBox="0 0 32 32"><defs><style>.cls-1{fill:#039be5;}.cls-2{fill:#ffb74d;}.cls-3{fill:#ffe082;}</style></defs><title>data storage marketing networking online</title><g id="data_storage" data-name="data storage"><path class="cls-1" d="M30,15a1,1,0,0,0-1,1c0,1.5-5.06,3.67-13,3.67S3,17.5,3,16a1,1,0,0,0-2,0v7c0,3.72,7.55,5.67,15,5.67s15-2,15-5.67V16A1,1,0,0,0,30,15Z"/><path class="cls-2" d="M30,8a1,1,0,0,0-1,1c0,1.5-5.06,3.67-13,3.67S3,10.5,3,9A1,1,0,0,0,1,9v7c0,3.72,7.55,5.67,15,5.67s15-2,15-5.67V9A1,1,0,0,0,30,8Z"/><ellipse class="cls-3" cx="16" cy="9" rx="15" ry="5.67"/></g></svg>