<svg xmlns="http://www.w3.org/2000/svg" viewBox="0 0 32 32"><defs><style>.cls-1{fill:#ffb74d;}.cls-2{fill:#ffe082;}.cls-3{fill:#039be5;}</style></defs><title>services packages marketing networking online</title><g id="services_packages" data-name="services packages"><path class="cls-1" d="M30.53,9.15a1,1,0,0,0-1,0l-7.43,3.71h0L16,15.88,2.45,9.11A1,1,0,0,0,1,10V23a1,1,0,0,0,.55.89l14,7a1,1,0,0,0,.9,0l14-7A1,1,0,0,0,31,23V10A1,1,0,0,0,30.53,9.15Z"/><path class="cls-1" d="M30.53,9.15a1,1,0,0,0-1,0l-7.43,3.71h0l-6.57,3.29A1,1,0,0,0,15,17V30a1,1,0,0,0,.47.85A1,1,0,0,0,16,31a1,1,0,0,0,.45-.11l14-7A1,1,0,0,0,31,23V10A1,1,0,0,0,30.53,9.15Z"/><path class="cls-2" d="M30.5,9.13l-14-8a1,1,0,0,0-1,0l-14,8A1,1,0,0,0,1,10a1,1,0,0,0,.55.86l14,7a1,1,0,0,0,.9,0l14-7A1,1,0,0,0,31,10,1,1,0,0,0,30.5,9.13Z"/><path class="cls-3" d="M23,20a1,1,0,0,1-1-1V14.54l-5.55-3.71a1,1,0,0,1,1.1-1.66l6,4A1,1,0,0,1,24,14v5A1,1,0,0,1,23,20Z"/></g></svg>