<svg xmlns="http://www.w3.org/2000/svg" viewBox="0 0 32 32"><defs><style>.cls-1{fill:#ffb74d;}.cls-2{fill:#ffe082;}.cls-3{fill:#039be5;}</style></defs><title>partnership marketing networking online</title><g id="partnership"><path class="cls-1" d="M4,3C3,3,1,3.44,1,4.56v9.81a1,1,0,0,0,.39.79A4.18,4.18,0,0,0,4,16c3.27,0,4.93-2.72,4.93-8.07A4.93,4.93,0,0,0,4,3Z"/><path class="cls-1" d="M28,3a4.93,4.93,0,0,0-4.93,4.93C23.07,13.28,24.73,16,28,16a4.18,4.18,0,0,0,2.61-.84,1,1,0,0,0,.39-.79V4.56C31,3.44,29,3,28,3Z"/><path class="cls-2" d="M30.41,17.68A5.78,5.78,0,0,0,28,17.14a6.76,6.76,0,0,0-4.6,2.06L16,24.75,8.6,19.2c-1-.79-2.1-2.06-4.6-2.06a5.78,5.78,0,0,0-2.41.54,1,1,0,0,0-.59.91V30a1,1,0,0,0,1,1h9.29a1,1,0,0,0,1-1.24l-1.61-6.52L15.4,26.8a1,1,0,0,0,1.2,0l4.75-3.56-1.61,6.52a1,1,0,0,0,1,1.24H30a1,1,0,0,0,1-1V18.59A1,1,0,0,0,30.41,17.68Z"/><path class="cls-3" d="M22,1a1,1,0,0,0-1,.88,15,15,0,0,0-10,0A1,1,0,0,0,9,2V4a1,1,0,0,0,1,1h2a1,1,0,0,0,1-1,1,1,0,0,0-.21-.59,13.16,13.16,0,0,1,6.42,0A1,1,0,0,0,19,4a1,1,0,0,0,1,1h2a1,1,0,0,0,1-1V2A1,1,0,0,0,22,1Z"/></g></svg>