<svg xmlns="http://www.w3.org/2000/svg" viewBox="0 0 32 32"><defs><style>.cls-1{fill:#ffe082;}.cls-2{fill:#039be5;}.cls-3{fill:#ffb74d;}</style></defs><title>e-commerce solutions marketing networking online</title><g id="e-commerce_solutions" data-name="e-commerce solutions"><path class="cls-1" d="M30,6.75H26a1,1,0,0,0-.95.68l-1.44,4.32H2a1,1,0,0,0-.83.44,1,1,0,0,0-.1.93l4,10a1,1,0,0,0,.93.63H21a1,1,0,0,0,.95-.68c.49-1.48-1.77,5.3,4.77-14.32H30a1,1,0,0,0,0-2Z"/><path class="cls-2" d="M11.29,13.46l-3-3A1,1,0,0,1,9.71,9L12,11.34l6.79-6.8A1,1,0,1,1,20.21,6l-7.5,7.5A1,1,0,0,1,11.29,13.46Z"/><circle class="cls-3" cx="9" cy="25.75" r="1"/><circle class="cls-3" cx="16" cy="25.75" r="1"/></g></svg>