<svg xmlns="http://www.w3.org/2000/svg" viewBox="0 0 32 32"><defs><style>.cls-1{fill:#ffe082;}.cls-2{fill:#ffb74d;}.cls-3{fill:#039be5;}</style></defs><title>pageview marketing networking online</title><g id="pageview"><rect class="cls-1" x="1" y="3" width="30" height="26" rx="1" ry="1"/><path class="cls-2" d="M30,3H2A1,1,0,0,0,1,4V9H31V4A1,1,0,0,0,30,3Z"/><path class="cls-3" d="M23.79,17.38C23.65,17.2,20.3,13,16,13s-7.65,4.2-7.79,4.38a1,1,0,0,0,0,1.24C8.35,18.8,11.7,23,16,23s7.65-4.2,7.79-4.38A1,1,0,0,0,23.79,17.38Z"/><circle class="cls-1" cx="16" cy="18" r="2"/></g></svg>