<svg xmlns="http://www.w3.org/2000/svg" viewBox="0 0 48 48"><defs><style>.cls-1{fill:#dad7e5;}.cls-2{fill:#edebf2;}.cls-3{fill:#7c7d7d;}.cls-4{fill:#919191;}.cls-5{fill:#db5669;}.cls-6{fill:#f26674;}.cls-7{fill:#c6c3d8;}</style></defs><title>ID Card</title><g id="ID_Card" data-name="ID Card"><rect class="cls-1" x="1" y="15" width="46" height="30" rx="2"/><path class="cls-2" d="M47,17V43H7a4,4,0,0,1-4-4V15H45A2,2,0,0,1,47,17Z"/><rect class="cls-3" x="15" y="13" width="18" height="4" rx="1"/><path class="cls-4" d="M33,14v1H18a1,1,0,0,1-1-1V13H32A1,1,0,0,1,33,14Z"/><path class="cls-3" d="M28,7v6H20V7a4,4,0,0,1,8,0Z"/><path class="cls-4" d="M28,7v4c-4.38,0-7-4.59-5.64-7.64A4,4,0,0,1,28,7Z"/><path class="cls-2" d="M24,8a1,1,0,1,1,1-1A1,1,0,0,1,24,8Z"/><rect class="cls-5" x="6" y="22" width="14" height="18"/><path class="cls-6" d="M20,22c0,16.82-.1,16,0,16A12,12,0,0,1,8,26V22Z"/><path class="cls-7" d="M42,40H25a1,1,0,0,1,0-2H42A1,1,0,0,1,42,40Z"/><path class="cls-7" d="M42,36H25a1,1,0,0,1,0-2H42A1,1,0,0,1,42,36Z"/><path class="cls-7" d="M42,32H25a1,1,0,0,1,0-2H42A1,1,0,0,1,42,32Z"/><path class="cls-7" d="M42,28H25a1,1,0,0,1,0-2H42A1,1,0,0,1,42,28Z"/><path class="cls-7" d="M34,24H25a1,1,0,0,1,0-2h9A1,1,0,0,1,34,24Z"/></g></svg>