<svg xmlns="http://www.w3.org/2000/svg" viewBox="0 0 48 48"><defs><style>.cls-1{fill:#a87e6b;}.cls-2{fill:#be927c;}.cls-3{fill:#dad7e5;}.cls-4{fill:#edebf2;}.cls-5{fill:#db5669;}.cls-6{fill:#f26674;}</style></defs><title>whiteboard</title><g id="whiteboard"><path class="cls-1" d="M36,9h6V8a3,3,0,0,0-6,0Z"/><rect class="cls-1" x="2" y="9" width="44" height="30"/><path class="cls-2" d="M46,9V37H8a4,4,0,0,1-4-4V9Z"/><rect class="cls-3" x="6" y="13" width="36" height="26"/><path class="cls-4" d="M42,13V37H11a3,3,0,0,1-3-3V13Z"/><path class="cls-5" d="M20,37v2H10V37a2,2,0,0,1,2-2h6A2,2,0,0,1,20,37Z"/><path class="cls-6" d="M20,37H14a2,2,0,0,1-2-2h6A2,2,0,0,1,20,37Z"/><rect class="cls-1" x="1" y="39" width="46" height="4"/><path class="cls-2" d="M47,39v2H5a2,2,0,0,1-2-2Z"/><path class="cls-1" d="M12,8V9H6V8a3,3,0,0,1,6,0Z"/><path class="cls-2" d="M12,8H10.82A2.82,2.82,0,0,1,8,5.18,3,3,0,0,1,12,8Z"/><path class="cls-2" d="M42,8H40.82A2.82,2.82,0,0,1,38,5.18,3,3,0,0,1,42,8Z"/></g></svg>