<svg xmlns="http://www.w3.org/2000/svg" viewBox="0 0 48 48"><defs><style>.cls-1{fill:#6fabe6;}.cls-2{fill:#82bcf4;}.cls-3{fill:#5b9ad8;}.cls-4{fill:#fc6;}.cls-5{fill:#ffde76;}.cls-6{fill:#ffba55;}.cls-7{fill:#db5669;}.cls-8{fill:#f26674;}.cls-9{fill:#c4455e;}.cls-10{fill:#374f68;}.cls-11{fill:#425b72;}</style></defs><title>color scheme Pantone</title><g id="color_scheme_Pantone" data-name="color scheme Pantone"><rect class="cls-1" x="1" y="1" width="12" height="46" rx="2"/><path class="cls-2" d="M11,1V25.68l-10,10V3A2,2,0,0,1,3,1Z"/><rect class="cls-3" x="1" y="10" width="12" height="2"/><rect class="cls-3" x="1" y="20" width="12" height="2"/><rect class="cls-3" x="1" y="30" width="12" height="2"/><rect class="cls-1" x="1" y="10" width="10" height="2"/><rect class="cls-1" x="1" y="20" width="10" height="2"/><rect class="cls-1" x="1" y="30" width="10" height="2"/><path class="cls-4" d="M38.11,18.37,10.63,45.85,2.15,37.37,29.63,9.89a2,2,0,0,1,2.83,0l5.65,5.65A2,2,0,0,1,38.11,18.37Z"/><path class="cls-5" d="M38.11,15.54,20.66,33H6.52L29.63,9.89a2,2,0,0,1,2.83,0Z"/><rect class="cls-6" x="27.21" y="13.79" width="2" height="12" transform="translate(-5.73 25.75) rotate(-45)"/><rect class="cls-6" x="20.14" y="20.86" width="2" height="12" transform="translate(-12.8 22.82) rotate(-45)"/><rect class="cls-6" x="13.07" y="27.93" width="2" height="12" transform="translate(-19.87 19.89) rotate(-45)"/><rect class="cls-4" x="26.51" y="14.08" width="2" height="10" transform="translate(-5.44 25.04) rotate(-45)"/><rect class="cls-4" x="19.44" y="21.15" width="2" height="10" transform="translate(-12.51 22.11) rotate(-45)"/><rect class="cls-4" x="12.36" y="28.22" width="2" height="10" transform="translate(-19.58 19.18) rotate(-45)"/><rect class="cls-7" x="1" y="35" width="46" height="12" rx="2"/><path class="cls-8" d="M47,37v8H7a4,4,0,0,1-4-4V35H45A2,2,0,0,1,47,37Z"/><rect class="cls-9" x="36" y="35" width="2" height="12"/><rect class="cls-9" x="26" y="35" width="2" height="12"/><rect class="cls-9" x="16" y="35" width="2" height="12"/><path class="cls-10" d="M11,41a2,2,0,1,1-2.82-1.82A2,2,0,0,1,11,41Z"/><path class="cls-11" d="M10.82,41.82a2,2,0,0,1-2.64-2.64A2,2,0,0,1,10.82,41.82Z"/><rect class="cls-7" x="36" y="35" width="2" height="10"/><rect class="cls-7" x="26" y="35" width="2" height="10"/><rect class="cls-7" x="16" y="35" width="2" height="10"/></g></svg>