<svg xmlns="http://www.w3.org/2000/svg" viewBox="0 0 48 48"><defs><style>.cls-1{fill:#7c7d7d;}.cls-2{fill:#919191;}.cls-3{fill:#dad7e5;}.cls-4{fill:#edebf2;}.cls-5{fill:#c6c3d8;}</style></defs><title>notepad</title><g id="notepad"><rect class="cls-1" x="9" y="3" width="30" height="6"/><path class="cls-2" d="M39,3V7H15a4,4,0,0,1-4-4Z"/><rect class="cls-3" x="9" y="9" width="30" height="38"/><path class="cls-4" d="M39,9V45H17a6,6,0,0,1-6-6V9Z"/><path class="cls-3" d="M33,5V1a1,1,0,0,1,2,0V5A1,1,0,0,1,33,5Z"/><path class="cls-3" d="M29,5V1a1,1,0,0,1,2,0V5A1,1,0,0,1,29,5Z"/><path class="cls-3" d="M25,5V1a1,1,0,0,1,2,0V5A1,1,0,0,1,25,5Z"/><path class="cls-3" d="M21,5V1a1,1,0,0,1,2,0V5A1,1,0,0,1,21,5Z"/><path class="cls-3" d="M17,5V1a1,1,0,0,1,2,0V5A1,1,0,0,1,17,5Z"/><path class="cls-3" d="M13,5V1a1,1,0,0,1,2,0V5A1,1,0,0,1,13,5Z"/><path class="cls-5" d="M34,16H14a1,1,0,0,1,0-2H34A1,1,0,0,1,34,16Z"/><path class="cls-5" d="M34,21H14a1,1,0,0,1,0-2H34A1,1,0,0,1,34,21Z"/><path class="cls-5" d="M34,26H14a1,1,0,0,1,0-2H34A1,1,0,0,1,34,26Z"/><path class="cls-5" d="M34,31H14a1,1,0,0,1,0-2H34A1,1,0,0,1,34,31Z"/><path class="cls-5" d="M34,36H14a1,1,0,0,1,0-2H34A1,1,0,0,1,34,36Z"/><path class="cls-5" d="M34,41H14a1,1,0,0,1,0-2H34A1,1,0,0,1,34,41Z"/></g></svg>