<svg xmlns="http://www.w3.org/2000/svg" viewBox="0 0 48 48"><defs><style>.cls-1{fill:#fc6;}.cls-2{fill:#ffde76;}.cls-3{fill:#f6ccaf;}.cls-4{fill:#ffdec7;}.cls-5{fill:#374f68;}.cls-6{fill:#425b72;}.cls-7{fill:#ffba55;}.cls-8{fill:#db5669;}.cls-9{fill:#f26674;}.cls-10{fill:#dad7e5;}.cls-11{fill:#edebf2;}</style></defs><title>pencil</title><g id="pencil"><path class="cls-1" d="M40.58,15.75,12.81,43.53l-1.56-2.59c-.65-1.08-.07-.74-2.61-1.58-.85-2.54-.49-2-1.59-2.61L4.47,35.2,32.25,7.42Z"/><path class="cls-2" d="M39.58,14.75C18.81,35.52,19,36,15.24,37A10.35,10.35,0,0,1,5.47,34.2L32.25,7.42Z"/><path class="cls-3" d="M12.81,43.53l-6,1.75a8.76,8.76,0,0,0-4.12-4.12c.68-2.3.28-.93,1.75-6l3.47,2.08.7,2.08,2.08.7C12,42.23,11.54,41.43,12.81,43.53Z"/><path class="cls-4" d="M11.75,41.78c-4.49.81-7.52-1.83-8.52-2.35L4.47,35.2l3.47,2.08.7,2.08,2.08.7Z"/><path class="cls-5" d="M6.84,45.28c0,.1.09,0-5.84,1.72.81-2.76.42-1.45,1.72-5.84A8.85,8.85,0,0,1,6.84,45.28Z"/><path class="cls-6" d="M5.78,43.6,1.64,44.81l1.08-3.65A8.67,8.67,0,0,1,5.78,43.6Z"/><path class="cls-7" d="M38.51,13.68,11.25,40.94c-.64-1.07-.26-.79-1.58-1.24L37.1,12.27Z"/><path class="cls-7" d="M35.74,10.91,8.3,38.34c-.45-1.33-.17-1-1.25-1.59L34.32,9.49Z"/><path class="cls-1" d="M35.74,10.91,9.83,36.81a10.59,10.59,0,0,1-2-.84L34.32,9.49Z"/><path class="cls-8" d="M46.14,10.2,43.36,13,35,4.64,37.8,1.86a3,3,0,0,1,4.17,0L46.14,6A3,3,0,0,1,46.14,10.2Z"/><path class="cls-9" d="M46.83,7.11c-.77,2.2-4.18,3.15-6.25,1.08L36,3.64,37.8,1.86a3,3,0,0,1,4.17,0C46.58,6.47,46.55,6.31,46.83,7.11Z"/><path class="cls-10" d="M43.36,13l-2.78,2.78L32.25,7.42,35,4.64Z"/><path class="cls-11" d="M42.36,12a2.52,2.52,0,0,1-3.56,0L33.25,6.42,35,4.64Z"/><path class="cls-1" d="M38.51,13.68,15.24,37a10.69,10.69,0,0,1-3.09.27l25-24.95Z"/></g></svg>