<svg xmlns="http://www.w3.org/2000/svg" viewBox="0 0 48 48"><defs><style>.cls-1{fill:#374f68;}.cls-2{fill:#425b72;}.cls-3{fill:#dad7e5;}.cls-4{fill:#edebf2;}.cls-5{fill:#2c435e;}</style></defs><title>puncher</title><g id="puncher"><path class="cls-1" d="M47,40v3H1V40a2,2,0,0,1,2-2H45A2,2,0,0,1,47,40Z"/><path class="cls-2" d="M47,40v1H6a3,3,0,0,1-3-3H45A2,2,0,0,1,47,40Z"/><path class="cls-3" d="M42.28,29c-4,4.67-4,5-5.2,5H32a2,2,0,0,0-2,2v2H15c0-7.16-.94-5.42,9.75-12,5.19,3,5.06,3,5.78,3Z"/><path class="cls-4" d="M42.28,29c-4,4.67-4,5-5.2,5H32a2,2,0,0,0-2,2H20.76a3.78,3.78,0,0,1-3.37-5.47L24.75,26l4.79,2.74C30.19,29.11,29.57,29,42.28,29Z"/><path class="cls-1" d="M43.44,29c-14,0-13.26.1-13.9-.26l-6.17-3.53c-.53-.31,0,.34-8.08-10.82-.43-.57-.24-.36-8.5-4.5a2,2,0,0,1-.9-2.68C6.87,5.26,6.79,5.4,7,5,46.25,22,43.91,20.6,44.24,22c1.18,4.7,1.15,4.56,1.18,4.78A2,2,0,0,1,43.44,29Z"/><path class="cls-2" d="M45.42,26.74c-.64.36.07.26-13.89.26-.74,0-.6,0-5.78-3-1.22-.7-1.68-.89-2-1.35-8-11-7.54-10.53-8.19-10.87L7.79,7.89a2,2,0,0,1-.9-2.68L7,5C46.25,22,43.91,20.6,44.24,22,45.42,26.66,45.39,26.52,45.42,26.74Z"/><path class="cls-5" d="M39,26a1,1,0,1,1,.71-1.71A1,1,0,0,1,39,26Z"/><path class="cls-5" d="M34,24a1,1,0,1,1,1-1A1,1,0,0,1,34,24Z"/></g></svg>