<svg xmlns="http://www.w3.org/2000/svg" viewBox="0 0 48 48"><defs><style>.cls-1{fill:#374f68;}.cls-2{fill:#425b72;}.cls-3{fill:#7c7d7d;}.cls-4{fill:#919191;}.cls-5{fill:#dad7e5;}.cls-6{fill:#edebf2;}</style></defs><title>Compact disk</title><g id="Compact_disk" data-name="Compact disk"><rect class="cls-1" x="7" y="4" width="40" height="40"/><path class="cls-2" d="M47,4V42H17a8,8,0,0,1-8-8V4Z"/><rect class="cls-3" x="1" y="4" width="6" height="40"/><path class="cls-4" d="M7,4c0,39.25-.1,38,0,38a4,4,0,0,1-4-4V4Z"/><path class="cls-5" d="M43,24A16,16,0,0,1,27,40C12.07,40,5.33,21.27,16.73,11.73,27,3.16,43,10.24,43,24Z"/><path class="cls-6" d="M43,24a15.93,15.93,0,0,1-3.73,10.27A15.93,15.93,0,0,1,29,38C15.38,38,8.09,22,16.73,11.73,27,3.16,43,10.24,43,24Z"/><path class="cls-3" d="M33,24a6,6,0,1,1-9.12-5.12A6,6,0,0,1,33,24Z"/><path class="cls-4" d="M32.12,27.12c-5.3,3.26-11.53-2.9-8.24-8.24C29.2,15.6,35.39,21.81,32.12,27.12Z"/><circle class="cls-2" cx="27" cy="24" r="2"/></g></svg>