<svg xmlns="http://www.w3.org/2000/svg" viewBox="0 0 48 48"><defs><style>.cls-1{fill:#df8761;}.cls-2{fill:#f29b75;}.cls-3{fill:#f6ccaf;}.cls-4{fill:#ffdec7;}.cls-5{fill:#c6c3d8;}.cls-6{fill:#dad7e5;}.cls-7{fill:#edebf2;}</style></defs><title>envelop document</title><g id="envelop_document" data-name="envelop document"><rect class="cls-1" x="6" y="1" width="36" height="46"/><path class="cls-2" d="M42,1V45H16a8,8,0,0,1-8-8V1Z"/><path class="cls-3" d="M42,47H6l3.82-6.12A4,4,0,0,1,13.22,39H34.78a4,4,0,0,1,3.4,1.88Z"/><path class="cls-4" d="M40.75,45H15.6a3.66,3.66,0,0,1-3.1-5.6c1-.57-1.66-.4,22.28-.4a4,4,0,0,1,3.4,1.88Z"/><path class="cls-3" d="M42,1c-4,6.45-3.39,5.42-3.82,6.12A4,4,0,0,1,34.78,9H13.22a4,4,0,0,1-3.4-1.88L6,1Z"/><path class="cls-4" d="M42,1,38.5,6.6c-1.16.57,0,.4-23.28.4a4,4,0,0,1-3.4-1.88L9.25,1Z"/><path class="cls-5" d="M23,16V6a1,1,0,0,1,2,0V16A1,1,0,0,1,23,16Z"/><path class="cls-6" d="M26,5a2,2,0,1,1-2.82-1.82A2,2,0,0,1,26,5Z"/><path class="cls-7" d="M25.82,5.82a2,2,0,0,1-2.64-2.64A2,2,0,0,1,25.82,5.82Z"/><path class="cls-6" d="M26,17a2,2,0,1,1-2.82-1.82A2,2,0,0,1,26,17Z"/><path class="cls-7" d="M25.82,17.82a2,2,0,0,1-2.64-2.64A2,2,0,0,1,25.82,17.82Z"/></g></svg>