<svg xmlns="http://www.w3.org/2000/svg" viewBox="0 0 48 48"><defs><style>.cls-1{fill:#374f68;}.cls-2{fill:#425b72;}.cls-3{fill:#edebf2;}.cls-4{fill:#dad7e5;}.cls-5{fill:#2c435e;}</style></defs><title>stapler</title><g id="stapler"><path class="cls-1" d="M47,38v2H1V38a2,2,0,0,1,2-2H45A2,2,0,0,1,47,38Z"/><path class="cls-2" d="M47,38H5a2,2,0,0,1-2-2c0-.1-1.41,0,42,0A2,2,0,0,1,47,38Z"/><path class="cls-3" d="M43.61,20.26C1.68,35.52,14.34,30.82,11.9,31.8l-1.68-3.64,33.9-12.34.68,1.88A2,2,0,0,1,43.61,20.26Z"/><path class="cls-4" d="M41.61,19.26,11.22,30.32l-1-2.16c35-12.75,32.38-12,32.58-11.46A2,2,0,0,1,41.61,19.26Z"/><path class="cls-1" d="M13,36H3V28H9.44a2,2,0,0,1,1.94,1.51Z"/><path class="cls-2" d="M12.5,34H9a4,4,0,0,1-4-4V28H9.44a2,2,0,0,1,1.94,1.52Z"/><path class="cls-1" d="M46,15.14l-35.78,13L3,28c-.49-1.21-.22-.54-1.23-3.08a2,2,0,0,1,1.17-2.63C43.15,7.67,40.8,8.38,41.71,8.49a3,3,0,0,1,2.58,1.95Z"/><path class="cls-2" d="M39.3,15.85,10.78,26.23C9.9,25.92,10.13,26,2.2,26l-.43-1.08a2,2,0,0,1,1.17-2.63C43.15,7.67,40.8,8.38,41.71,8.49,43.35,10.27,42.8,14.57,39.3,15.85Z"/><path class="cls-5" d="M7,33a1,1,0,1,1,.71-1.71A1,1,0,0,1,7,33Z"/></g></svg>