<svg xmlns="http://www.w3.org/2000/svg" viewBox="0 0 48 48"><defs><style>.cls-1{fill:#dad7e5;}.cls-2{fill:#edebf2;}.cls-3{fill:#db5669;}.cls-4{fill:#7c7d7d;}.cls-5{fill:#919191;}.cls-6{fill:#f26674;}</style></defs><title>glue</title><g id="glue"><path class="cls-1" d="M27.24,14H20.76c.9-9.52.66-7,1-11a2.21,2.21,0,0,1,3.67-1.42C26.31,2.34,26.07,1.71,27.24,14Z"/><path class="cls-2" d="M27.24,14H22.76C23.9,2,23.63,1.94,25,1.25A2.14,2.14,0,0,1,26.19,3C26.58,7,26.33,4.41,27.24,14Z"/><polygon class="cls-1" points="28 22 20 22 20.38 18 27.62 18 28 22"/><path class="cls-1" d="M33.84,45a2,2,0,0,1-2,2H16.17a2,2,0,0,1-2-2.16L14.32,43H33.68C33.82,44.75,33.84,44.94,33.84,45Z"/><path class="cls-2" d="M33.84,45H18.17a2,2,0,0,1-2-2H33.68C33.82,44.75,33.84,44.94,33.84,45Z"/><path class="cls-1" d="M33.68,43H14.32l1.53-19.16a2,2,0,0,1,2-1.84H30.15a2,2,0,0,1,2,1.84C32.39,26.88,33.44,39.94,33.68,43Z"/><path class="cls-2" d="M33.52,41H20.65a4,4,0,0,1-4-4.32L17.84,22H30.15a2,2,0,0,1,2,1.84Z"/><path class="cls-3" d="M26.48,6h-5l.29-3a2.21,2.21,0,0,1,3.67-1.42C26.27,2.3,26.17,2.75,26.48,6Z"/><path class="cls-2" d="M27.81,20H24a1.84,1.84,0,0,1-1.82-2h5.43Z"/><rect class="cls-4" x="19" y="14" width="10" height="4" rx="1"/><path class="cls-5" d="M29,15v1H22a1,1,0,0,1-1-1V14h7A1,1,0,0,1,29,15Z"/><path class="cls-6" d="M26.48,6h-3c.28-2.86.12-4.06,1.48-4.75C26.35,1.83,26.21,3.21,26.48,6Z"/></g></svg>