<svg xmlns="http://www.w3.org/2000/svg" viewBox="0 0 48 48"><defs><style>.cls-1{fill:#dad7e5;}.cls-2{fill:#edebf2;}.cls-3{fill:#c6c3d8;}</style></defs><title>papers</title><g id="papers"><polygon class="cls-1" points="37 43 41 43 41 1 11 1 11 5 37 43"/><path class="cls-2" d="M41,1c0,41.23-.1,40,0,40a2,2,0,0,1-2-2V12.17L29.83,3H15a2,2,0,0,1-2-2Z"/><polygon class="cls-1" points="37 13 37 47 7 47 7 5 29 5 37 13"/><path class="cls-2" d="M37,13V45H15a6,6,0,0,1-6-6V5H29Z"/><polygon class="cls-3" points="37 13 29 13 29 5 37 13"/><path class="cls-3" d="M32,24H12a1,1,0,0,1,0-2H32A1,1,0,0,1,32,24Z"/><path class="cls-3" d="M32,19H12a1,1,0,0,1,0-2H32A1,1,0,0,1,32,19Z"/><path class="cls-3" d="M32,29H12a1,1,0,0,1,0-2H32A1,1,0,0,1,32,29Z"/><path class="cls-3" d="M32,34H12a1,1,0,0,1,0-2H32A1,1,0,0,1,32,34Z"/><path class="cls-3" d="M22,39H12a1,1,0,0,1,0-2H22A1,1,0,0,1,22,39Z"/></g></svg>