<svg xmlns="http://www.w3.org/2000/svg" viewBox="0 0 48 48"><defs><style>.cls-1{fill:#a87e6b;}.cls-2{fill:#be927c;}.cls-3{fill:#374f68;}.cls-4{fill:#425b72;}.cls-5{fill:#fc6;}.cls-6{fill:#ffde76;}</style></defs><title>stamp</title><g id="stamp"><path class="cls-1" d="M44,40v1a2,2,0,0,1-2,2H6a2,2,0,0,1-2-2V40a5,5,0,0,1,2.61-4.39C8.18,34.75,6.57,35,39,35A5,5,0,0,1,44,40Z"/><path class="cls-2" d="M44,40v1H9c-2.46,0-3.88-2.67-2.39-5.39A4.93,4.93,0,0,1,9,35H39A5,5,0,0,1,44,40Z"/><path class="cls-3" d="M42,43v2a2,2,0,0,1-2,2H8a2,2,0,0,1-2-2V43Z"/><path class="cls-4" d="M42,43v2H10a2,2,0,0,1-2-2Z"/><path class="cls-5" d="M32,32v3H16V32a2,2,0,0,1,2-2H30A2,2,0,0,1,32,32Z"/><path class="cls-6" d="M32,32v1H21a3,3,0,0,1-3-3H30A2,2,0,0,1,32,32Z"/><path class="cls-1" d="M34,10.68c.17,5.72-3.38,5.93-5,13.32H19a17.39,17.39,0,0,0-3.16-7.22A10,10,0,0,1,24.32,1,10.11,10.11,0,0,1,34,10.68Z"/><rect class="cls-1" x="19" y="24" width="10" height="6"/><path class="cls-2" d="M34,9.92c.6,5.81-2.82,6.63-4.45,12.08H23.65A4,4,0,0,1,20,19.52c-1.69-4-4-5-4-9.52a10,10,0,0,1,4.55-8.39h0A10,10,0,0,1,34,9.92Z"/><path class="cls-2" d="M29,24v4H25a4,4,0,0,1-4-4Z"/></g></svg>