<svg xmlns="http://www.w3.org/2000/svg" viewBox="0 0 48 48"><defs><style>.cls-1{fill:#7c7d7d;}.cls-2{fill:#919191;}.cls-3{fill:#dad7e5;}.cls-4{fill:#edebf2;}.cls-5{fill:#747575;}</style></defs><title>Trash</title><g id="Trash"><path class="cls-1" d="M38,43v2a2,2,0,0,1-2,2H12a2,2,0,0,1-2-2V43Z"/><path class="cls-2" d="M38,43v2H14a2,2,0,0,1-2-2Z"/><path class="cls-1" d="M42,11v1a2,2,0,0,1-2,2H8a2,2,0,0,1-2-2V11a1,1,0,0,1,1-1H41A1,1,0,0,1,42,11Z"/><path class="cls-2" d="M42,11v1H10a2,2,0,0,1-2-2H41A1,1,0,0,1,42,11Z"/><path class="cls-1" d="M40,14c-2.1,30.51-1.8,26.16-2,29H10L8,14Z"/><path class="cls-2" d="M40,14,38.14,41H15.59a4,4,0,0,1-4-3.73L10,14Z"/><path class="cls-3" d="M31.94,10H9a4.94,4.94,0,0,1,1-3c1-1,0-2,2-3a3.14,3.14,0,0,1,2.15,0,2,2,0,0,0,2.37-1.2A2.32,2.32,0,0,1,19,1c6,0,2.91,4.51,7,5a9.05,9.05,0,0,1,4,1A3.42,3.42,0,0,1,31.94,10Z"/><path class="cls-4" d="M31.23,8H12c1-1,0-2,2-3a3.14,3.14,0,0,1,2.15,0,2,2,0,0,0,2.37-1.2A2.32,2.32,0,0,1,21,2a7.59,7.59,0,0,1,1.53.13c1.2,1.31.7,3.54,3.47,3.87C27.69,6,30.28,6.71,31.23,8Z"/><path class="cls-3" d="M38.94,10h-7A3.42,3.42,0,0,0,30,7a9.05,9.05,0,0,0-4-1c-2.07-.25-2.3-1.53-2.8-2.73A5.94,5.94,0,0,1,28,1a3.66,3.66,0,0,1,3.35,2.13A2,2,0,0,0,33.64,4a3.29,3.29,0,0,1,2.3,0c2,1,1,2,2,3A4.94,4.94,0,0,1,38.94,10Z"/><path class="cls-4" d="M38.56,8h-5C31.74,3.75,26,4.25,25.64,3.82A5.65,5.65,0,0,1,30,2a3.12,3.12,0,0,1,.54,0,5.71,5.71,0,0,1,.81,1.09A2,2,0,0,0,33.64,4a3.29,3.29,0,0,1,2.3,0c2,1,1,2,2,3A2.8,2.8,0,0,1,38.56,8Z"/><path class="cls-5" d="M23,38V20a1,1,0,0,1,2,0V38A1,1,0,0,1,23,38Z"/><path class="cls-5" d="M30,37.94l1-18a1,1,0,0,1,2,.12l-1,18A1,1,0,0,1,30,37.94Z"/><path class="cls-5" d="M16,38.06l-1-18a1,1,0,0,1,2-.12l1,18A1,1,0,0,1,16,38.06Z"/></g></svg>