<svg xmlns="http://www.w3.org/2000/svg" viewBox="0 0 48 48"><defs><style>.cls-1{fill:#dad7e5;}.cls-2{fill:#edebf2;}.cls-3{fill:#db5669;}.cls-4{fill:#f26674;}.cls-5{fill:#374f68;}.cls-6{fill:#425b72;}.cls-7{fill:#c6c3d8;}</style></defs><title>cutter</title><g id="cutter"><path class="cls-1" d="M19.9,34.16,7.06,47,1.4,36.49,11.78,26.11Z"/><path class="cls-2" d="M18.39,32.67,10.86,40.2a4,4,0,0,1-6.35-.93L2.45,35.44l9.33-9.33Z"/><path class="cls-3" d="M40,16.82c-1.88.36-1.13,0-19.42,18.33a1,1,0,0,1-1.19.17l-6.62-3.68c-2.26-5.27-2.59-5.49-1.94-6.14L32.93,3.34A8,8,0,0,1,46.53,8C47,11.66,45,15.68,40,16.82Z"/><path class="cls-4" d="M46.53,8a7.81,7.81,0,0,1-6.27,6.75c-2.37.53-.64-.69-18.13,16.8a4,4,0,0,1-4.77.67l-4.64-2.58L10.9,25.38l22-22A8,8,0,0,1,46.53,8Z"/><path class="cls-5" d="M40.21,10.62a2.29,2.29,0,1,1,0-3.23A2.29,2.29,0,0,1,40.21,10.62Z"/><path class="cls-6" d="M40.83,8.51a2.3,2.3,0,0,1-4.47,0A2.29,2.29,0,0,1,40.83,8.51Z"/><polygon class="cls-7" points="6.99 30.9 12.65 41.41 11.18 42.88 5.52 32.37 6.99 30.9"/><path class="cls-2" d="M18.38,28.6a1,1,0,0,1-.71-1.71l3.24-3.23a1,1,0,0,1,1.41,1.41C19,28.45,19,28.6,18.38,28.6Z"/><path class="cls-2" d="M26.47,20.51a1,1,0,0,1-.71-1.7L30.61,14A1,1,0,1,1,32,15.37C26.87,20.53,27.05,20.51,26.47,20.51Z"/><path class="cls-1" d="M11.6,39.46a7.84,7.84,0,0,1-1.53,1.36L5.52,32.37,7,30.9Z"/><path class="cls-5" d="M27.27,21.94,24,25.17a1.14,1.14,0,0,1-1.62,0l-1.61-1.61a1.14,1.14,0,0,1,0-1.62L24,18.7a1.16,1.16,0,0,1,1.62,0l1.61,1.62A1.14,1.14,0,0,1,27.27,21.94Z"/><path class="cls-6" d="M27.08,20.13l-1.62,1.62a3.15,3.15,0,0,1-4.46,0l3-3.05a1.16,1.16,0,0,1,1.62,0Z"/></g></svg>