<svg id="computer" xmlns="http://www.w3.org/2000/svg" viewBox="0 0 48 48"><defs><style>.cls-1{fill:#7c7d7d;}.cls-2{fill:#919191;}.cls-3{fill:#dad7e5;}.cls-4{fill:#edebf2;}.cls-5{fill:#747575;}</style></defs><title>computer</title><path class="cls-1" d="M47,3V32H1V3A2,2,0,0,1,3,1H45A2,2,0,0,1,47,3Z"/><path class="cls-2" d="M47,3V30H7a4,4,0,0,1-4-4V1H45A2,2,0,0,1,47,3Z"/><path class="cls-1" d="M47,32v4a2,2,0,0,1-2,2H3a2,2,0,0,1-2-2V32Z"/><path class="cls-2" d="M47,32v4H5a2,2,0,0,1-2-2V32Z"/><rect class="cls-3" x="5" y="5" width="38" height="23"/><path class="cls-4" d="M43,5V26H28A21,21,0,0,1,7,5Z"/><path class="cls-5" d="M24,36a1,1,0,1,1,.71-1.71A1,1,0,0,1,24,36Z"/><path class="cls-1" d="M17,43H31a2,2,0,0,1,2,2v2a0,0,0,0,1,0,0H15a0,0,0,0,1,0,0V45A2,2,0,0,1,17,43Z"/><path class="cls-1" d="M28,38.17c0-.24.59-.17-4-.17s-4-.08-4,.17A6.84,6.84,0,0,1,18,43H30A6.84,6.84,0,0,1,28,38.17Z"/><path class="cls-2" d="M33,45H19a2,2,0,0,1-2-2c0-.1-.8,0,14,0A2,2,0,0,1,33,45Z"/><path class="cls-2" d="M28.62,41H25a3,3,0,0,1-3-3h6A6.68,6.68,0,0,0,28.62,41Z"/></svg>