<svg xmlns="http://www.w3.org/2000/svg" viewBox="0 0 48 48"><defs><style>.cls-1{fill:#ffba55;}.cls-2{fill:#fc6;}.cls-3{fill:#ffde76;}</style></defs><title>envelop</title><g id="envelop"><path class="cls-1" d="M47,9V39L28.84,23.21Z"/><path class="cls-2" d="M47,9,24,27,1,9Z"/><path class="cls-2" d="M47,39H1L19.16,23.21,24,27l4.84-3.79Z"/><path class="cls-1" d="M19.16,23.21,1,39V9Z"/><path class="cls-3" d="M44.7,37H9a5.93,5.93,0,0,1-4-1.51L19.16,23.21,24,27l4.84-3.79Z"/><path class="cls-2" d="M19.16,23.21,5,35.49A5.94,5.94,0,0,1,3,31V10.56Z"/><polygon class="cls-2" points="47 9 47 37 44.7 37 28.84 23.21 47 9"/><path class="cls-3" d="M47,9,24,27,3,10.56V9Z"/><path class="cls-1" d="M47,10.27l-16.59,13L47,37.68V39H45.48L28.81,24.51l-4.19,3.28a1,1,0,0,1-1.24,0l-4.19-3.28L2.52,39H1V37.68L17.59,23.25,1,10.27V9H2.63L24,25.73,45.37,9H47Z"/></g></svg>