<svg xmlns="http://www.w3.org/2000/svg" viewBox="0 0 48 48"><defs><style>.cls-1{fill:#fc6;}.cls-2{fill:#ffde76;}.cls-3{fill:#ffba55;}</style></defs><title>ruler</title><g id="ruler"><path class="cls-1" d="M47,7.05a6,6,0,0,1-1.77,4.28L9.56,47,1,38.44,36.67,2.77A6.06,6.06,0,0,1,47,7.05Z"/><path class="cls-2" d="M46.91,6.05c-.43,2.71.35,1.25-29.79,31.39A10.68,10.68,0,0,1,2,37.44L36.52,2.92A6.07,6.07,0,0,1,46.91,6.05Z"/><path class="cls-3" d="M6,37.72,3.86,35.58l1.41-1.41,2.14,2.14A1,1,0,0,1,6,37.72Z"/><path class="cls-3" d="M9.57,35.58,6.72,32.73l1.41-1.41L11,34.17A1,1,0,0,1,9.57,35.58Z"/><path class="cls-3" d="M11.71,32,9.57,29.87,11,28.46l2.14,2.14C14.06,31.54,12.61,33,11.71,32Z"/><path class="cls-3" d="M15.27,29.87,12.42,27l1.42-1.41,2.85,2.85A1,1,0,0,1,15.27,29.87Z"/><path class="cls-3" d="M17.41,26.31l-2.14-2.14,1.42-1.42,2.14,2.14A1,1,0,0,1,17.41,26.31Z"/><path class="cls-3" d="M21,24.17l-2.85-2.85,1.41-1.42,2.85,2.85A1,1,0,0,1,21,24.17Z"/><path class="cls-3" d="M23.12,20.6,21,18.46l1.41-1.41,2.14,2.14A1,1,0,0,1,23.12,20.6Z"/><path class="cls-3" d="M26.69,18.46l-2.85-2.85,1.41-1.41,2.85,2.85A1,1,0,0,1,26.69,18.46Z"/><path class="cls-3" d="M28.83,14.89l-2.14-2.14,1.41-1.41,2.14,2.14A1,1,0,0,1,28.83,14.89Z"/><path class="cls-3" d="M32.39,12.75,29.54,9.9,31,8.49l2.85,2.85A1,1,0,0,1,32.39,12.75Z"/><path class="cls-3" d="M34.53,9.19,32.39,7.05l1.42-1.42L36,7.77A1,1,0,0,1,34.53,9.19Z"/><path class="cls-3" d="M41.33,7.67a1,1,0,1,1,.83-.45A1,1,0,0,1,41.33,7.67Z"/></g></svg>