<svg xmlns="http://www.w3.org/2000/svg" viewBox="0 0 48 48"><defs><style>.cls-1{fill:#2c435e;}.cls-2{fill:#374f68;}.cls-3{fill:#dad7e5;}.cls-4{fill:#425b72;}</style></defs><title>paper clip</title><g id="paper_clip" data-name="paper clip"><path class="cls-1" d="M43.66,25.3,41,43l-8,4H15L7,43,4.34,25.3a2,2,0,0,1,2-2.3H41.68A2,2,0,0,1,43.66,25.3Z"/><path class="cls-2" d="M43.66,25.3,41.3,41H32a1,1,0,0,0-1,1v3H19a2,2,0,0,1-2-2V42a1,1,0,0,0-1-1H10.57a2,2,0,0,1-2-1.7C6.16,23.13,6.09,23.84,6.6,23H41.68A2,2,0,0,1,43.66,25.3Z"/><path class="cls-3" d="M33,46a21.87,21.87,0,0,1-2.83-.68,3,3,0,0,1-2.26-2.71L26.15,15.37C25.81,10.06,32,10.58,32,6.86V3a1,1,0,0,0-1-1H17a1,1,0,0,0-1,1V6.86c0,3.9,6.2,3,5.85,8.51L20.09,42.61a3,3,0,0,1-2.26,2.71L15.24,46A1,1,0,0,1,14.76,44c2.58-.65,3.28-.62,3.34-1.55l1.75-27.24C20.1,11.36,14,12.05,14,6.86V3a3,3,0,0,1,3-3H31a3,3,0,0,1,3,3c0,3.35.52,6.19-2.23,8-1.92,1.28-3.76,2.05-3.62,4.22L29.9,42.48c.06.93.75.9,3.34,1.55A1,1,0,0,1,33,46Z"/><rect class="cls-2" x="5" y="43" width="10" height="4"/><path class="cls-4" d="M15,43v2H9a2,2,0,0,1-2-2Z"/><rect class="cls-2" x="33" y="43" width="10" height="4" transform="translate(76 90) rotate(-180)"/><path class="cls-4" d="M43,43v2H37a2,2,0,0,1-2-2Z"/></g></svg>