<svg xmlns="http://www.w3.org/2000/svg" viewBox="0 0 48 48"><defs><style>.cls-1{fill:#6fabe6;}.cls-2{fill:#82bcf4;}.cls-3{fill:#dad7e5;}.cls-4{fill:#edebf2;}.cls-5{fill:#c6c3d8;}</style></defs><title>sharpener</title><g id="sharpener"><path class="cls-1" d="M46.23,21.53c-4.93,4.94-5,5.33-6.29,5.43-5.92.48-12.5,7.06-13,13-.11,1.28-.51,1.38-5.43,6.29a2.61,2.61,0,0,1-3.71,0l-16-16a2.61,2.61,0,0,1,0-3.71c4.93-4.94,5-5.33,6.29-5.43,5.92-.48,12.5-7.06,13-13,.11-1.28.51-1.38,5.43-6.29a2.61,2.61,0,0,1,3.71,0l16,16.05A2.6,2.6,0,0,1,46.23,21.53Z"/><path class="cls-2" d="M46.53,18.18c-.21.28.11-.07-5,5a2.63,2.63,0,0,1-1.62.75c-5.92.48-12.5,7.06-13,13-.11,1.28-.51,1.38-5.43,6.29a2.61,2.61,0,0,1-3.71,0C.66,26.07,1.67,27.11,1.47,26.82c.21-.28-.11.07,5-5A2.63,2.63,0,0,1,8.06,21c5.92-.48,12.5-7.06,13-13,.11-1.28.51-1.38,5.43-6.29a2.61,2.61,0,0,1,3.71,0C47.34,18.93,46.33,17.89,46.53,18.18Z"/><path class="cls-3" d="M35.73,22.15l-21,21-2.47-2.47L34.5,18.45l1.23,1.23A1.73,1.73,0,0,1,35.73,22.15Z"/><path class="cls-4" d="M35.47,19.42l-20,20a1,1,0,0,1-1.42,0c-.37-.37-2.6,2.07,20.47-21Z"/><path class="cls-3" d="M34.5,18.45,12.27,40.67,4.86,33.26l21-21a1.73,1.73,0,0,1,2.47,0Z"/><path class="cls-4" d="M33,17,14.39,35.55a3,3,0,0,1-4.24,0L6.36,31.76,25.85,12.27a1.73,1.73,0,0,1,2.47,0Z"/><path class="cls-5" d="M20.93,26.47a1.87,1.87,0,1,1-2.6-1.72A1.87,1.87,0,0,1,20.93,26.47Z"/><path class="cls-3" d="M20.93,26.47a2.06,2.06,0,0,1-.14.72,1.87,1.87,0,0,1-2.46-2.44A1.87,1.87,0,0,1,20.93,26.47Z"/></g></svg>