<svg xmlns="http://www.w3.org/2000/svg" viewBox="0 0 48 48"><defs><style>.cls-1{fill:#6fabe6;}.cls-2{fill:#82bcf4;}.cls-3{fill:#374f68;}.cls-4{fill:#425b72;}</style></defs><title>highlighter</title><g id="highlighter"><path class="cls-1" d="M45.07,17.24l-21,23.63A2.11,2.11,0,0,1,21,41L7.79,27.75a2.1,2.1,0,0,1-.36-2.5c.25-.46-1.23.93,24.08-21.57a2.1,2.1,0,0,1,2.88.08L45,14.35A2.12,2.12,0,0,1,45.07,17.24Z"/><path class="cls-2" d="M45.34,14.85c-.15.29.95-1-17.13,19.34a8,8,0,0,1-11.63.35C7,25,7.59,25.61,7.43,25.25c.25-.46-1.23.93,24.08-21.57a2.1,2.1,0,0,1,2.88.08C45.83,15.2,45.18,14.49,45.34,14.85Z"/><path class="cls-3" d="M46.38,12.78,44.9,14.26,34.48,3.85,36,2.36a2.1,2.1,0,0,1,3,0c8.11,8.11,7.61,7.56,7.8,7.93A2.09,2.09,0,0,1,46.38,12.78Z"/><path class="cls-4" d="M46.74,10.29a2.09,2.09,0,0,1-3.32.49L35.48,2.85,36,2.36a2.1,2.1,0,0,1,3,0C47.05,10.47,46.55,9.92,46.74,10.29Z"/><path class="cls-3" d="M21.09,41.05,19.6,42.54a2.11,2.11,0,0,1-3,0L6.21,32.12a2.1,2.1,0,0,1-.35-2.49c.2-.4.29-.43,1.84-2Z"/><path class="cls-4" d="M20.07,40A3,3,0,0,1,16,39.9L6.21,30.12c-.6-.6-.47-.51,1.49-2.46Z"/><path class="cls-3" d="M15.88,41.79,9.18,44,4.72,39.56,7,32.86Z"/><path class="cls-4" d="M14.38,40.29A8.89,8.89,0,0,1,5.3,38.14C5.18,38,5,38.62,7,32.86Z"/><path class="cls-1" d="M9.18,44,7,46.26,1,43.28l3.72-3.72Z"/><path class="cls-2" d="M8.18,43C6.62,44.6,5,43.29,2.33,42l2.39-2.39Z"/><path class="cls-3" d="M36.15,15.75c0,1.77.15,1.14-12.83,14.14a3.16,3.16,0,0,1-5.23-3.23c.33-1-.2-.27,12.67-13.14A3.16,3.16,0,0,1,36.15,15.75Z"/><path class="cls-4" d="M36,14.75c-.33,1,.14.32-12.67,13.14a3.17,3.17,0,0,1-5.23-1.23c.33-1-.2-.27,12.67-13.14A3.17,3.17,0,0,1,36,14.75Z"/></g></svg>