<svg xmlns="http://www.w3.org/2000/svg" viewBox="0 0 48 48"><defs><style>.cls-1{fill:#7c7d7d;}.cls-2{fill:#919191;}.cls-3{fill:#dad7e5;}.cls-4{fill:#edebf2;}.cls-5{fill:#db5669;}.cls-6{fill:#f26674;}</style></defs><title>calculator</title><g id="calculator"><path class="cls-1" d="M41,4c0,42.69.06,40.22-.13,40.87A3,3,0,0,1,38,47H10a3,3,0,0,1-3-3V4a3,3,0,0,1,3-3H38A3,3,0,0,1,41,4Z"/><path class="cls-2" d="M41,4c0,42.69.06,40.22-.13,40.87-.69.2-28,.13-27.87.13a4,4,0,0,1-4-4C9-.63,8.94,1.78,9.13,1.13,9.82.93,38.1,1,38,1A3,3,0,0,1,41,4Z"/><rect class="cls-3" x="21" y="36" width="6" height="6"/><rect class="cls-3" x="21" y="26" width="6" height="6"/><rect class="cls-3" x="11" y="36" width="6" height="6"/><path class="cls-4" d="M17,36v5a5,5,0,0,1-5-5Z"/><path class="cls-4" d="M27,36v5a5,5,0,0,1-5-5Z"/><rect class="cls-3" x="11" y="26" width="6" height="6"/><rect class="cls-5" x="31" y="26" width="6" height="16"/><path class="cls-6" d="M37,26c0,14.74-.1,14,0,14a4,4,0,0,1-4-4V26Z"/><rect class="cls-3" x="11" y="6" width="26" height="14"/><path class="cls-4" d="M37,6V18H25A12,12,0,0,1,13,6Z"/><path class="cls-4" d="M17,26v5a5,5,0,0,1-5-5Z"/><path class="cls-4" d="M27,26v5a5,5,0,0,1-5-5Z"/></g></svg>