<svg xmlns="http://www.w3.org/2000/svg" viewBox="0 0 48 48"><defs><style>.cls-1{fill:#9fdbf3;}.cls-2{fill:#b2e5fb;}.cls-3{fill:#6fabe6;}.cls-4{fill:#82bcf4;}.cls-5{fill:#dad7e5;}.cls-6{fill:#edebf2;}.cls-7{fill:#5b9ad8;}</style></defs><title>agenda book</title><g id="agenda_book" data-name="agenda book"><path class="cls-1" d="M43,3V45a2,2,0,0,1-2,2H37V1h4A2,2,0,0,1,43,3Z"/><path class="cls-2" d="M43,3c0,43.26-.1,42,0,42a4,4,0,0,1-4-4V1h2A2,2,0,0,1,43,3Z"/><path class="cls-3" d="M37,1V47H8a1,1,0,0,1-1-1V2A1,1,0,0,1,8,1Z"/><path class="cls-4" d="M37,1V45H13a4,4,0,0,1-4-4V1Z"/><path class="cls-5" d="M9,7H5A1,1,0,0,1,5,5H9A1,1,0,0,1,9,7Z"/><path class="cls-5" d="M9,11H5A1,1,0,0,1,5,9H9A1,1,0,0,1,9,11Z"/><path class="cls-5" d="M9,15H5a1,1,0,0,1,0-2H9A1,1,0,0,1,9,15Z"/><path class="cls-5" d="M9,19H5a1,1,0,0,1,0-2H9A1,1,0,0,1,9,19Z"/><path class="cls-5" d="M9,23H5a1,1,0,0,1,0-2H9A1,1,0,0,1,9,23Z"/><path class="cls-5" d="M9,27H5a1,1,0,0,1,0-2H9A1,1,0,0,1,9,27Z"/><path class="cls-5" d="M9,31H5a1,1,0,0,1,0-2H9A1,1,0,0,1,9,31Z"/><path class="cls-5" d="M9,35H5a1,1,0,0,1,0-2H9A1,1,0,0,1,9,35Z"/><path class="cls-5" d="M9,39H5a1,1,0,0,1,0-2H9A1,1,0,0,1,9,39Z"/><path class="cls-5" d="M9,43H5a1,1,0,0,1,0-2H9A1,1,0,0,1,9,43Z"/><rect class="cls-5" x="14" y="6" width="18" height="8"/><path class="cls-6" d="M32,6v6H22a6,6,0,0,1-6-6Z"/><path class="cls-7" d="M26,43H14a1,1,0,0,1,0-2H26A1,1,0,0,1,26,43Z"/><path class="cls-7" d="M32,39H14a1,1,0,0,1,0-2H32A1,1,0,0,1,32,39Z"/></g></svg>