<svg xmlns="http://www.w3.org/2000/svg" viewBox="0 0 48 48"><defs><style>.cls-1{fill:#7c7d7d;}.cls-2{fill:#919191;}.cls-3{fill:#2c435e;}.cls-4{fill:#374f68;}.cls-5{fill:#9dcc6b;}.cls-6{fill:#b5e08c;}.cls-7{fill:#db5669;}.cls-8{fill:#f26674;}.cls-9{fill:#edebf2;}.cls-10{fill:#dad7e5;}</style></defs><title>paper shredder machine</title><g id="paper_shredder_machine" data-name="paper shredder machine"><path class="cls-1" d="M42,23V45a2,2,0,0,1-2,2H8a2,2,0,0,1-2-2V23Z"/><path class="cls-2" d="M42,23V45H10a2,2,0,0,1-2-2V23Z"/><rect class="cls-3" x="10" y="23" width="28" height="20"/><path class="cls-4" d="M38,23V41H16a4,4,0,0,1-4-4V23Z"/><path class="cls-1" d="M42,13V23H6V13a2,2,0,0,1,2-2H40A2,2,0,0,1,42,13Z"/><path class="cls-2" d="M42,13v8H12a4,4,0,0,1-4-4V11H40A2,2,0,0,1,42,13Z"/><rect class="cls-5" x="28" y="15" width="10" height="4"/><path class="cls-6" d="M38,15v2H32a2,2,0,0,1-2-2Z"/><path class="cls-7" d="M14,17a2,2,0,1,1-2.82-1.82A2,2,0,0,1,14,17Z"/><path class="cls-8" d="M13.82,17.82a2,2,0,0,1-2.64-2.64A2,2,0,0,1,13.82,17.82Z"/><path class="cls-9" d="M18.29,16.29a1,1,0,0,1,1.42,1.42A1,1,0,0,1,18.29,16.29Z"/><path class="cls-9" d="M23,18a1,1,0,0,1-1-1,1,1,0,1,1,1,1Z"/><rect class="cls-10" x="14" y="23" width="4" height="14"/><path class="cls-9" d="M18,23c0,12.64-.1,12,0,12a2,2,0,0,1-2-2V23Z"/><rect class="cls-10" x="22" y="23" width="4" height="10"/><path class="cls-9" d="M26,23c0,8.55-.1,8,0,8a2,2,0,0,1-2-2V23Z"/><rect class="cls-10" x="30" y="23" width="4" height="12"/><path class="cls-9" d="M34,23c0,10.61-.1,10,0,10a2,2,0,0,1-2-2V23Z"/><polygon class="cls-10" points="34 5 34 11 14 11 14 1 30 1 34 5"/><path class="cls-9" d="M34,5V9H24a8,8,0,0,1-8-8H30Z"/></g></svg>