<svg xmlns="http://www.w3.org/2000/svg" viewBox="0 0 48 48"><defs><style>.cls-1{fill:#dad7e5;}.cls-2{fill:#374f68;}.cls-3{fill:#425b72;}.cls-4{fill:#db5669;}.cls-5{fill:#f26674;}.cls-6{fill:#fc6;}.cls-7{fill:#ffde76;}</style></defs><title>desk lamp-study lamp</title><g id="desk_lamp_study_lamp" data-name="desk lamp/study lamp"><path class="cls-1" d="M23,41V39a1,1,0,0,1,2,0v2A1,1,0,0,1,23,41Z"/><path class="cls-2" d="M44,43v4H18V45a4,4,0,0,1,2.36-3.64c1.09-.5,0-.36,21.64-.36A2,2,0,0,1,44,43Z"/><path class="cls-3" d="M44,43v2H22c-1.56,0-2.58-1.6-1.64-3.64,1.09-.5,0-.36,21.64-.36A2,2,0,0,1,44,43Z"/><path class="cls-4" d="M25.21,28.92C12.46,16.16,17.36,21.06,4,7.71l1.21-.55A22.47,22.47,0,0,1,18.85,5.59l8.48,8.48C28.48,19.81,27.34,24.24,25.21,28.92Z"/><path class="cls-5" d="M26.07,19A4,4,0,0,1,19.31,21c-7.17-7.19-4-4.06-13.93-13.93a22.31,22.31,0,0,1,13.47-1.5l7.81,7.81A20.81,20.81,0,0,1,26.07,19Z"/><path class="cls-2" d="M31.92,7c0,3-1.7,4.18-4.59,7.07L18.85,5.59l2.83-2.83A6,6,0,0,1,31.92,7Z"/><path class="cls-3" d="M31.72,5.5c-.93,3.74-4.82,5.14-7.22,2.74L20.35,4.09l1.33-1.33A6,6,0,0,1,31.72,5.5Z"/><path class="cls-6" d="M18.14,21.85l-.91.61a4.89,4.89,0,0,1-6.77-6.77l.61-.91Z"/><path class="cls-7" d="M16.54,20.25a4.88,4.88,0,0,1-6.76-.73c-.53-2.19.49-3.55,1.29-4.74Z"/><path class="cls-2" d="M31.64,8.81C41.45,18.62,40,18.71,40,41H36c0-21.73,1.2-20.95-6.71-28.89Z"/><path class="cls-2" d="M40,41H36c0-21.73,1.2-20.95-6.71-28.89l2.35-3.3C41.45,18.62,40,18.71,40,41Z"/><path class="cls-3" d="M40,24.63C40,39.74,39.9,39,40,39a2,2,0,0,1-2-2V24.63A14.42,14.42,0,0,0,33.14,14a3.08,3.08,0,0,1-.33-4l1.91,1.91A18,18,0,0,1,40,24.63Z"/></g></svg>