<svg xmlns="http://www.w3.org/2000/svg" viewBox="0 0 48 48"><defs><style>.cls-1{fill:#425b72;}.cls-2{fill:#374f68;}.cls-3{fill:#dad7e5;}.cls-4{fill:#edebf2;}</style></defs><title>Hardisk external</title><g id="Hardisk_external" data-name="Hardisk external"><path class="cls-1" d="M38,48H18a3,3,0,0,1-3-3V43a1,1,0,0,1,2,0v2a1,1,0,0,0,1,1H38a3,3,0,0,0,3-3V11a1,1,0,0,1,2,0V43A5,5,0,0,1,38,48Z"/><path class="cls-2" d="M29,25c0,12,.07,11.36-.18,12A3,3,0,0,1,26,39H6a3,3,0,0,1-3-3V25Z"/><path class="cls-1" d="M29,25c0,12,.07,11.36-.18,12H9a4,4,0,0,1-4-4V25Z"/><path class="cls-2" d="M29,4V25H3V4A3,3,0,0,1,5.13,1.13C5.75,1,4.13,1,26,1A3,3,0,0,1,29,4Z"/><path class="cls-1" d="M29,4V23H9a4,4,0,0,1-4-4C5,.46,4.94,1.76,5.13,1.13,5.82.93,26.1,1,26,1A3,3,0,0,1,29,4Z"/><path class="cls-2" d="M19,39v3a1,1,0,0,1-1,1H14a1,1,0,0,1-1-1V39Z"/><path class="cls-1" d="M19,39v2H17a2,2,0,0,1-2-2Z"/><path class="cls-2" d="M45,6a9.88,9.88,0,0,1-.13,2.87,3,3,0,0,1-5,1.25C38.81,9.05,39,8,39,6a1,1,0,0,1,1-1h4A1,1,0,0,1,45,6Z"/><path class="cls-1" d="M45,6a9.88,9.88,0,0,1-.13,2.87,3,3,0,0,1-3-.75A3.76,3.76,0,0,1,41,5h3A1,1,0,0,1,45,6Z"/><rect class="cls-3" x="40" y="1" width="4" height="4"/><path class="cls-4" d="M44,1V4a3,3,0,0,1-3-3Z"/></g></svg>