<svg xmlns="http://www.w3.org/2000/svg" viewBox="0 0 48 48"><defs><style>.cls-1{fill:#dad7e5;}.cls-2{fill:#fc6;}.cls-3{fill:#ffde76;}.cls-4{fill:#6fabe6;}.cls-5{fill:#82bcf4;}.cls-6{fill:#374f68;}.cls-7{fill:#425b72;}.cls-8{fill:#edebf2;}.cls-9{fill:#5b9ad8;}</style></defs><title>tape</title><g id="tape"><path class="cls-1" d="M40.41,30.88,19.86,12.64l1.45-1.39L41.74,29.39A1,1,0,0,1,40.41,30.88Z"/><path class="cls-2" d="M25,20A12,12,0,0,1,13,32C1.62,32-3.32,17.61,5.57,10.57A12,12,0,0,1,25,20Z"/><path class="cls-3" d="M25,20a12,12,0,0,1-2.57,7.43A12,12,0,0,1,5.57,10.57,12,12,0,0,1,25,20Z"/><path class="cls-4" d="M45,32v4H6V20H9a4,4,0,0,1,8,0h3v2A10,10,0,0,0,30,32Z"/><path class="cls-5" d="M45,32v2H14a6,6,0,0,1-6-6V20H9a4,4,0,0,1,1.18-2.82A4,4,0,0,1,17,20h3v2A10,10,0,0,0,30,32Z"/><rect class="cls-6" x="4" y="36" width="43" height="4"/><path class="cls-7" d="M47,36v2H8a2,2,0,0,1-2-2Z"/><path class="cls-1" d="M42,30v2H38c0-1.75-.26-3,1-3.73A2,2,0,0,1,42,30Z"/><path class="cls-8" d="M42,30v1a2.75,2.75,0,0,1-3-2.73A2,2,0,0,1,42,30Z"/><path class="cls-9" d="M13,21a1,1,0,1,1,.92-1.38A1,1,0,0,1,13,21Z"/></g></svg>