<svg xmlns="http://www.w3.org/2000/svg" viewBox="0 0 48 48"><defs><style>.cls-1{fill:#dad7e5;}.cls-2{fill:#edebf2;}.cls-3{fill:#db5669;}.cls-4{fill:#f26674;}.cls-5{fill:#c6c3d8;}</style></defs><title>scissors</title><g id="scissors"><path class="cls-1" d="M30.93,26.89l-4.26,3.55L14.77,10.62A10.85,10.85,0,0,1,14,1C35.21,33.44,14.57,1.86,30.93,26.89Z"/><path class="cls-2" d="M30.08,25.59a3.8,3.8,0,0,1-5.7-1C13.86,7.09,12,6,14,1,31.09,27.13,24.66,17.28,30.08,25.59Z"/><path class="cls-3" d="M21.39,30.49c-.77-.64-.11-.07-4.69-3.91a1,1,0,0,0-1.35.07l-2.92,2.92C11,31,7.62,29.61,6.16,32.91L3.06,40a5,5,0,0,0,4.59,7h3.88a4,4,0,0,0,3.58-2.21l6.54-13.08A1,1,0,0,0,21.39,30.49ZM7.19,40.74c0-.38.1-.43,2.07-4.93.65-1.5,2.1-1.18,3.33-1.08a2,2,0,0,1,1.63,2.89C11.47,43.12,12,43,9.18,43A2,2,0,0,1,7.19,40.74Z"/><path class="cls-4" d="M16.7,26.58a1,1,0,0,0-1.35.07c-3,3-3.13,3.3-3.94,3.47-2.28.45-4.25.52-5.25,2.79C3.08,40,2.23,41,2.79,43.19,4.61,45.4,6.66,45,10.53,45a4,4,0,0,0,3.58-2.21l6.48-13Zm-2.48,11C11.47,43.12,12,43,9.18,43a2,2,0,0,1-2-2.26c0-.38.1-.43,2.07-4.93.65-1.5,2.1-1.18,3.33-1.08A2,2,0,0,1,14.22,37.62Z"/><path class="cls-1" d="M34.78,5c0,4-.66,4.1-13.45,25.41l-4.26-3.55C18.4,24.88,15.84,28.79,34,1A11,11,0,0,1,34.78,5Z"/><path class="cls-2" d="M34.73,4a10.86,10.86,0,0,1-1.5,4.61l-9.62,16a3.8,3.8,0,0,1-5.69,1c-.1-.08-.84,1.28,16.08-24.6A11,11,0,0,1,34.73,4Z"/><path class="cls-3" d="M44.94,40l-3.1-7.09A4,4,0,0,0,39,30.59c-3.66-.73-2.38,0-6.31-3.94a1,1,0,0,0-1.35-.07c-4.86,4.07-5.4,4.19-4.95,5.13l6.54,13.08A4,4,0,0,0,36.47,47h3.88A5,5,0,0,0,44.94,40ZM34.58,35c.46-.29.81-.26,2.17-.37a2,2,0,0,1,2,1.19l1.92,4.39A2,2,0,0,1,38.82,43c-2.81,0-2.25.2-5-5.38A2,2,0,0,1,34.58,35Z"/><path class="cls-4" d="M41.84,32.91A4,4,0,0,0,39,30.59c-3.66-.73-2.38,0-6.31-3.94a1,1,0,0,0-1.35-.07l-3.89,3.25,6.48,13A4,4,0,0,0,37.47,45c3.48,0,5.88.44,7.74-1.81C45.76,41,45.05,40.25,41.84,32.91ZM38.82,43c-2.81,0-2.25.2-5-5.38a2,2,0,0,1,.8-2.63c.46-.29.81-.26,2.17-.37a2,2,0,0,1,2,1.19l1.92,4.39A2,2,0,0,1,38.82,43Z"/><path class="cls-5" d="M23.29,21.71a1,1,0,0,1,1.09-1.63A1,1,0,1,1,23.29,21.71Z"/></g></svg>