<svg xmlns="http://www.w3.org/2000/svg" viewBox="0 0 48 48"><defs><style>.cls-1{fill:#dad7e5;}.cls-2{fill:#edebf2;}</style></defs><title>clip</title><g id="clip"><path class="cls-1" d="M44.11,20.87C22.78,42.21,24.34,40.69,23.63,41.27a13.76,13.76,0,0,1-6.62,3C4.16,46.68-4.53,30.44,5,20.87L21.79,4.13a2,2,0,0,1,2.79,2.79L7.83,23.66C.17,31.32,8.87,44.3,19,39.58c2.12-.93,1.61-.77,22.33-21.5A5.92,5.92,0,0,0,37.7,8,5.85,5.85,0,0,0,33,9.71L15.51,27.15a2,2,0,0,0,2.79,2.79L29.46,18.78a2,2,0,0,1,2.79,2.79c-11,11-11.42,11.52-12.09,11.92a5.92,5.92,0,0,1-7.44-9.13L30.16,6.92a9.86,9.86,0,0,1,14,14Z"/><path class="cls-2" d="M44.11,20.87C22.78,42.21,24.34,40.69,23.63,41.27a13.94,13.94,0,0,1-7.82,3.14A13.83,13.83,0,0,1,7,20.87C24.93,3,23.9,4,24.19,3.83a2,2,0,0,1,.39,3.09L7.83,23.66a9.87,9.87,0,0,0,11.9,15.53c1.58-.89.59-.1,21.59-21.11A5.92,5.92,0,0,0,33,9.71L15.51,27.15a2,2,0,0,0,2.4,3.09,2,2,0,0,0,2.39-.3C32.55,17.69,31.72,18.35,32,18.59a2,2,0,0,1,.23,3C20.07,33.76,20.93,32.92,20.64,33.14a6.05,6.05,0,0,1-2.74,1.23,5.92,5.92,0,0,1-3.18-10L32.16,6.92C41-1.87,52.53,12.48,44.11,20.87Z"/></g></svg>