<svg xmlns="http://www.w3.org/2000/svg" viewBox="0 0 48 48"><defs><style>.cls-1{fill:#db5669;}.cls-2{fill:#f26674;}.cls-3{fill:#fc6;}.cls-4{fill:#ffde76;}.cls-5{fill:#ffba55;}.cls-6{fill:#f6ccaf;}.cls-7{fill:#ffdec7;}.cls-8{fill:#a87e6b;}.cls-9{fill:#be927c;}</style></defs><title>pencils glass</title><g id="pencils_glass" data-name="pencils glass"><path class="cls-1" d="M34,3V6H26V3a2,2,0,0,1,2-2h4A2,2,0,0,1,34,3Z"/><path class="cls-2" d="M34,3V4H31a3,3,0,0,1-3-3h4A2,2,0,0,1,34,3Z"/><rect class="cls-3" x="26" y="6" width="8" height="11"/><path class="cls-3" d="M22.71,17H14.2L12,11c2.67-1,1.68-.62,7.52-2.73Z"/><path class="cls-4" d="M34,6v9c-2,0-3.58.25-5-1.36S28,10.77,28,6Z"/><path class="cls-4" d="M22,15H16.6a2,2,0,0,1-1.88-1.32l-1.19-3.29,6-2.17Z"/><path class="cls-5" d="M19.46,17H17.4L14.82,9.92l1.88-.68C19.65,17.35,19.46,16.75,19.46,17Z"/><path class="cls-6" d="M19.52,8.22,12,11,13.38,3Z"/><polygon class="cls-7" points="19.52 8.22 13.55 10.39 14.65 4.08 19.52 8.22"/><path class="cls-8" d="M39,19a2,2,0,0,1-2,2H11a2,2,0,0,1,0-4H37A2,2,0,0,1,39,19Z"/><path class="cls-9" d="M39,19H13a2,2,0,0,1-2-2H37A2,2,0,0,1,39,19Z"/><path class="cls-8" d="M37,21c-1.94,25.12-1.76,23.43-2,24a3,3,0,0,1-2.83,2H15.78a3,3,0,0,1-3-2.77L11,21Z"/><path class="cls-9" d="M37,21c-1.94,25.12-1.76,23.43-2,24H18.7a4,4,0,0,1-4-3.69L13.15,21Z"/><path class="cls-3" d="M18.8,15H16.67L14.82,9.92l1.88-.68Z"/><rect class="cls-5" x="29" y="6" width="2" height="11"/><path class="cls-3" d="M31,6v8.87a4,4,0,0,1-2-1.23V6Z"/></g></svg>