<svg xmlns="http://www.w3.org/2000/svg" viewBox="0 0 48 48"><defs><style>.cls-1{fill:#a87e6b;}.cls-2{fill:#be927c;}.cls-3{fill:#dad7e5;}.cls-4{fill:#edebf2;}.cls-5{fill:#fc6;}.cls-6{fill:#ffde76;}.cls-7{fill:#919191;}.cls-8{fill:#c6c3d8;}</style></defs><title>clipboard</title><g id="clipboard"><rect class="cls-1" x="6" y="1" width="36" height="46"/><path class="cls-2" d="M42,1V45H12a4,4,0,0,1-4-4V1Z"/><polygon class="cls-3" points="38 5 38 35 30 43 10 43 10 5 38 5"/><path class="cls-4" d="M38,5V35l-6,6H18a6,6,0,0,1-6-6V5Z"/><rect class="cls-5" x="16" y="1" width="16" height="4"/><path class="cls-6" d="M32,1V3H20a2,2,0,0,1-2-2Z"/><path class="cls-7" d="M31,5V7a3,3,0,0,1-3,3H20a3,3,0,0,1-3-3V5h2V7a1,1,0,0,0,1,1h8a1,1,0,0,0,1-1V5Z"/><polygon class="cls-8" points="38 35 30 43 30 35 38 35"/><path class="cls-8" d="M33,20H15a1,1,0,0,1,0-2H33A1,1,0,0,1,33,20Z"/><path class="cls-8" d="M33,15H15a1,1,0,0,1,0-2H33A1,1,0,0,1,33,15Z"/><path class="cls-8" d="M33,25H15a1,1,0,0,1,0-2H33A1,1,0,0,1,33,25Z"/><path class="cls-8" d="M33,30H15a1,1,0,0,1,0-2H33A1,1,0,0,1,33,30Z"/><path class="cls-8" d="M24,35H15a1,1,0,0,1,0-2h9A1,1,0,0,1,24,35Z"/></g></svg>