<svg xmlns="http://www.w3.org/2000/svg" viewBox="0 0 48 48"><defs><style>.cls-1{fill:#fc6;}.cls-2{fill:#ffde76;}.cls-3{fill:#ffba55;}</style></defs><title>protractor</title><g id="protractor"><path class="cls-1" d="M43,30H35V29a11,11,0,0,0-22,0v1H5a23.25,23.25,0,0,1,.11-3A19,19,0,0,1,23,10C33.62,9.7,43,17.23,43,30Z"/><path class="cls-2" d="M43,28H34.92A11.2,11.2,0,0,0,24.15,18a11,11,0,0,0-11.1,10h-1.5a4,4,0,0,1-3.88-5C13.53,2.13,41.92,8.23,43,28Z"/><path class="cls-1" d="M25,10v2a1,1,0,0,1-2,0V10C23.88,10,24.12,10,25,10Z"/><path class="cls-1" d="M31.42,11.52c-.55,1.53-.67,2.51-1.61,2.51a1,1,0,0,1-.93-1.35l.67-1.85A15.52,15.52,0,0,1,31.42,11.52Z"/><path class="cls-1" d="M17.25,13.37l-.67-1.85a15.66,15.66,0,0,1,1.88-.69l.67,1.85A1,1,0,0,1,17.25,13.37Z"/><path class="cls-1" d="M47,30v8H1V30H21a3,3,0,0,1,6,0Z"/><path class="cls-2" d="M47,30v6H7a4,4,0,0,1-4-4V30H21a3,3,0,0,1,6,0Z"/><path class="cls-3" d="M7,35v3H5V35A1,1,0,0,1,7,35Z"/><path class="cls-3" d="M11,36v2H9V36A1,1,0,0,1,11,36Z"/><path class="cls-3" d="M15,35v3H13V35A1,1,0,0,1,15,35Z"/><path class="cls-3" d="M19,36v2H17V36A1,1,0,0,1,19,36Z"/><path class="cls-3" d="M23,35v3H21V35A1,1,0,0,1,23,35Z"/><path class="cls-3" d="M27,36v2H25V36A1,1,0,0,1,27,36Z"/><path class="cls-3" d="M31,35v3H29V35A1,1,0,0,1,31,35Z"/><path class="cls-3" d="M35,36v2H33V36A1,1,0,0,1,35,36Z"/><path class="cls-3" d="M39,35v3H37V35A1,1,0,0,1,39,35Z"/><path class="cls-3" d="M43,36v2H41V36A1,1,0,0,1,43,36Z"/><path class="cls-1" d="M37,15.11c-1.21,1.45-1.4,1.87-2,1.87a1,1,0,0,1-.77-1.65l1.27-1.5A18.7,18.7,0,0,1,37,15.11Z"/><path class="cls-1" d="M40.92,20.38C39,21.5,39.07,21.5,38.72,21.5a1,1,0,0,1-.5-1.87l1.7-1A14.13,14.13,0,0,1,40.92,20.38Z"/><path class="cls-3" d="M12.31,16.62,11,15.12a17.11,17.11,0,0,1,1.53-1.29l1.27,1.5A1,1,0,0,1,12.31,16.62Z"/><path class="cls-3" d="M8.78,21.37l-1.7-1a14.13,14.13,0,0,1,1-1.73l1.7,1A1,1,0,0,1,8.78,21.37Z"/><path class="cls-3" d="M7.24,27.05,5.11,27a16.48,16.48,0,0,1,.31-2l1.86,0A1,1,0,0,1,7.24,27.05Z"/><path class="cls-1" d="M42.89,27l-2.15,0a1,1,0,0,1,0-2l1.86,0A16.48,16.48,0,0,1,42.89,27Z"/><path class="cls-1" d="M8.24,26.26a3.85,3.85,0,0,1-.53-1.1A1,1,0,0,1,8.24,26.26Z"/><path class="cls-1" d="M8.78,21.37l-.47-.28a13.68,13.68,0,0,1,.83-1.83l.64.37A1,1,0,0,1,8.78,21.37Z"/><path class="cls-1" d="M12.31,16.62l-.78-.92a16.49,16.49,0,0,1,1.39-1.46l.92,1.09A1,1,0,0,1,12.31,16.62Z"/><path class="cls-1" d="M7,35v1a4,4,0,0,1-2-.54V35A1,1,0,0,1,7,35Z"/><path class="cls-1" d="M11,36H9A1,1,0,0,1,11,36Z"/><path class="cls-1" d="M15,35v1H13V35A1,1,0,0,1,15,35Z"/><path class="cls-1" d="M19,36H17A1,1,0,0,1,19,36Z"/><path class="cls-1" d="M23,35v1H21V35A1,1,0,0,1,23,35Z"/><path class="cls-1" d="M27,36H25A1,1,0,0,1,27,36Z"/><path class="cls-1" d="M31,35v1H29V35A1,1,0,0,1,31,35Z"/><path class="cls-1" d="M35,36H33A1,1,0,0,1,35,36Z"/><path class="cls-1" d="M39,35v1H37V35A1,1,0,0,1,39,35Z"/><path class="cls-1" d="M43,36H41A1,1,0,0,1,43,36Z"/></g></svg>