<svg xmlns="http://www.w3.org/2000/svg" viewBox="0 0 48 48"><defs><style>.cls-1{fill:#374f68;}.cls-2{fill:#425b72;}.cls-3{fill:#6fabe6;}.cls-4{fill:#82bcf4;}.cls-5{fill:#dad7e5;}.cls-6{fill:#edebf2;}.cls-7{fill:#2c435e;}.cls-8{fill:#9fdbf3;}.cls-9{fill:#b2e5fb;}</style></defs><title>Telephone fax</title><g id="Telephone_fax" data-name="Telephone fax"><rect class="cls-1" x="1" y="11" width="46" height="30" rx="2"/><path class="cls-2" d="M47,13V39H5a2,2,0,0,1-2-2V11H45A2,2,0,0,1,47,13Z"/><path class="cls-3" d="M16,34.53c0,.57.15.76.79,2,.28.56.21.47.21,5.42a2,2,0,0,1-2,2H9a2,2,0,0,1-2-2c0-5.65-.24-4.53.79-6.58.3-.6.21.43.21-18,0-.57-.15-.76-.79-2C6.93,14.86,7,15,7,10A2,2,0,0,1,9,8h6a2,2,0,0,1,2,2c0,5.65.24,4.53-.79,6.58C15.91,17.18,16,15.75,16,34.53Z"/><path class="cls-4" d="M16,34.53c0,.57.15.76.79,2,.28.56.21.47.21,5.42H11a2,2,0,0,1-2-2c0-3.41-.09-3.82.21-4.42.53-1.07.79-1.43.79-2,0-19.8.09-18.36-.21-19C8.77,12.53,9,13.7,9,8h6a2,2,0,0,1,2,2c0,5.65.24,4.53-.79,6.58C15.91,17.18,16,15.75,16,34.53Z"/><rect class="cls-5" x="23" y="4" width="18" height="11"/><path class="cls-6" d="M41,4v8H33a8,8,0,0,1-8-8Z"/><path class="cls-7" d="M43,16H21a1,1,0,0,1,0-2H43A1,1,0,0,1,43,16Z"/><rect class="cls-8" x="24" y="19" width="16" height="6"/><path class="cls-9" d="M40,19v4H30a4,4,0,0,1-4-4Z"/><path class="cls-6" d="M33,30H31a1,1,0,0,1,0-2h2A1,1,0,0,1,33,30Z"/><path class="cls-6" d="M39,30H37a1,1,0,0,1,0-2h2A1,1,0,0,1,39,30Z"/><path class="cls-6" d="M33,34H31a1,1,0,0,1,0-2h2A1,1,0,0,1,33,34Z"/><path class="cls-6" d="M39,34H37a1,1,0,0,1,0-2h2A1,1,0,0,1,39,34Z"/><path class="cls-6" d="M33,38H31a1,1,0,0,1,0-2h2A1,1,0,0,1,33,38Z"/><path class="cls-6" d="M39,38H37a1,1,0,0,1,0-2h2A1,1,0,0,1,39,38Z"/><path class="cls-6" d="M27,30H25a1,1,0,0,1,0-2h2A1,1,0,0,1,27,30Z"/><path class="cls-6" d="M27,34H25a1,1,0,0,1,0-2h2A1,1,0,0,1,27,34Z"/><path class="cls-6" d="M27,38H25a1,1,0,0,1,0-2h2A1,1,0,0,1,27,38Z"/></g></svg>