<svg xmlns="http://www.w3.org/2000/svg" viewBox="0 0 48 48"><defs><style>.cls-1{fill:#fc6;}.cls-2{fill:#6fabe6;}.cls-3{fill:#ffde76;}.cls-4{fill:#82bcf4;}.cls-5{fill:#374f68;}.cls-6{fill:#dad7e5;}.cls-7{fill:#db5669;}.cls-8{fill:#f26674;}.cls-9{fill:#425b72;}.cls-10{fill:#edebf2;}</style></defs><title>File folder</title><g id="File_folder" data-name="File folder"><rect class="cls-1" x="17" y="1" width="14" height="46"/><rect class="cls-2" x="31" y="1" width="14" height="46"/><path class="cls-3" d="M31,1V45H23a4,4,0,0,1-4-4V1Z"/><path class="cls-4" d="M45,1V45H37a4,4,0,0,1-4-4V1Z"/><circle class="cls-5" cx="24" cy="10" r="3"/><rect class="cls-6" x="21" y="19" width="6" height="20"/><circle class="cls-5" cx="38" cy="10" r="3"/><rect class="cls-6" x="35" y="19" width="6" height="20"/><rect class="cls-7" x="3" y="1" width="14" height="46"/><path class="cls-8" d="M17,1V45H9a4,4,0,0,1-3.87-3C4.94,41.32,5,43.76,5,1Z"/><path class="cls-5" d="M13,10A3,3,0,1,1,9.13,7.13,3,3,0,0,1,13,10Z"/><path class="cls-9" d="M12.87,10.87A3,3,0,0,1,9.13,7.13,3,3,0,0,1,12.87,10.87Z"/><path class="cls-9" d="M26.87,10.87a3,3,0,0,1-3.74-3.74A3,3,0,0,1,26.87,10.87Z"/><path class="cls-9" d="M40.87,10.87a3,3,0,0,1-3.74-3.74A3,3,0,0,1,40.87,10.87Z"/><rect class="cls-6" x="7" y="19" width="6" height="20"/><path class="cls-10" d="M13,19c0,18.76-.1,18,0,18a4,4,0,0,1-4-4V19Z"/><path class="cls-10" d="M27,19c0,18.76-.1,18,0,18a4,4,0,0,1-4-4V19Z"/><path class="cls-10" d="M41,19c0,18.76-.1,18,0,18a4,4,0,0,1-4-4V19Z"/><rect class="cls-5" x="3" y="42" width="14" height="2"/><path class="cls-9" d="M17,42v2H6.36a4,4,0,0,1-1.23-2Z"/><rect class="cls-5" x="17" y="42" width="14" height="2"/><path class="cls-9" d="M31,42v2H20.36a4,4,0,0,1-1.23-2Z"/><rect class="cls-5" x="31" y="42" width="14" height="2"/><path class="cls-9" d="M45,42v2H34.36a4,4,0,0,1-1.23-2Z"/></g></svg>