<svg xmlns="http://www.w3.org/2000/svg" viewBox="0 0 48 48"><defs><style>.cls-1{fill:#374f68;}.cls-2{fill:#425b72;}.cls-3{fill:#edebf2;}.cls-4{fill:#dad7e5;}.cls-5{fill:#c6c3d8;}</style></defs><title>stapler remover</title><g id="stapler_remover" data-name="stapler remover"><path class="cls-1" d="M41.28,13.54,4.3,27a2,2,0,0,1-2.43-.9,20.26,20.26,0,0,1-.82-2.18L41.73,9.12l.71,1.93A2,2,0,0,1,41.28,13.54Z"/><path class="cls-2" d="M39.28,12.54C-.26,26.93,2.16,26.08,1.87,26.1a20.26,20.26,0,0,1-.82-2.18C44.65,8.05,40.22,9.46,40.44,10.05A2,2,0,0,1,39.28,12.54Z"/><path class="cls-3" d="M44,21.08l-5.13-2.39L16,27H4.3L41.22,13.56Z"/><polygon class="cls-4" points="42.96 20.08 37.83 17.69 15 26 7.05 26 40.66 13.76 42.96 20.08"/><path class="cls-1" d="M47,37v2H3V37a2,2,0,0,1,2-2H45A2,2,0,0,1,47,37Z"/><path class="cls-2" d="M47,37H7a2,2,0,0,1-2-2c0-.1-1.23,0,40,0A2,2,0,0,1,47,37Z"/><path class="cls-4" d="M45,27v8H5a2,2,0,0,1-2-2V29a2,2,0,0,1,2-2H16l1.5,4H41Z"/><path class="cls-3" d="M45,27v6H7a2,2,0,0,1-2-2V27H16l1.5,4H41Z"/><path class="cls-5" d="M7,32a1,1,0,1,1,1-1A1,1,0,0,1,7,32Z"/></g></svg>