<svg xmlns="http://www.w3.org/2000/svg" viewBox="0 0 48 48"><defs><style>.cls-1{fill:#a87e6b;}.cls-2{fill:#be927c;}.cls-3{fill:#f6ccaf;}.cls-4{fill:#ffdec7;}</style></defs><title>box</title><g id="box"><rect class="cls-1" x="1" y="3" width="46" height="8"/><path class="cls-2" d="M47,3V9H9A6,6,0,0,1,3,3Z"/><rect class="cls-1" x="3" y="11" width="42" height="34"/><path class="cls-2" d="M45,11V43H17A12,12,0,0,1,5,31V11Z"/><rect class="cls-3" x="15" y="28" width="18" height="10"/><path class="cls-4" d="M33,28v8H25a8,8,0,0,1-8-8Z"/><path class="cls-4" d="M28,18H20a1,1,0,0,1,0-2h8A1,1,0,0,1,28,18Z"/><path class="cls-4" d="M30,22H18a1,1,0,0,1,0-2H30A1,1,0,0,1,30,22Z"/><path class="cls-3" d="M45,39v6H39A6,6,0,0,1,45,39Z"/><path class="cls-4" d="M45,39v4H39.35A6,6,0,0,1,45,39Z"/><path class="cls-3" d="M9,45H3V39A6,6,0,0,1,9,45Z"/></g></svg>