<svg xmlns="http://www.w3.org/2000/svg" viewBox="0 0 48 48"><defs><style>.cls-1{fill:#ffba55;}.cls-2{fill:#fc6;}.cls-3{fill:#ffde76;}.cls-4{fill:#db5669;}.cls-5{fill:#f26674;}</style></defs><title>sticky note</title><g id="sticky_note" data-name="sticky note"><rect class="cls-1" x="4" y="4" width="40" height="5"/><path class="cls-2" d="M44,4V7H9A3,3,0,0,1,6,4Z"/><polygon class="cls-2" points="44 9 44 39 36 47 4 47 4 9 44 9"/><path class="cls-3" d="M44,9V39l-6,6H10a4,4,0,0,1-4-4V9Z"/><path class="cls-1" d="M39,18H9a1,1,0,0,1,0-2H39A1,1,0,0,1,39,18Z"/><path class="cls-1" d="M39,24H9a1,1,0,0,1,0-2H39A1,1,0,0,1,39,24Z"/><path class="cls-1" d="M39,30H9a1,1,0,0,1,0-2H39A1,1,0,0,1,39,30Z"/><path class="cls-1" d="M24,36H9a1,1,0,0,1,0-2H24A1,1,0,0,1,24,36Z"/><polygon class="cls-1" points="44 39 36 47 36 39 44 39"/><rect class="cls-4" x="21" y="1" width="6" height="10"/><path class="cls-5" d="M27,1c0,8.55-.1,8,0,8a4,4,0,0,1-4-4V1Z"/></g></svg>