<svg xmlns="http://www.w3.org/2000/svg" viewBox="0 0 48 48"><defs><style>.cls-1{fill:#dad7e5;}.cls-2{fill:#edebf2;}.cls-3{fill:#c6c3d8;}.cls-4{fill:#6fabe6;}.cls-5{fill:#82bcf4;}.cls-6{fill:#374f68;}.cls-7{fill:#425b72;}.cls-8{fill:#2c435e;}</style></defs><title>Flash disk</title><g id="Flash_disk" data-name="Flash disk"><rect class="cls-1" x="17" y="1" width="14" height="9"/><path class="cls-2" d="M31,1V8H22a3,3,0,0,1-3-3V1Z"/><path class="cls-3" d="M22,6H21a1,1,0,0,1,0-2h1A1,1,0,0,1,22,6Z"/><path class="cls-3" d="M27,6H26a1,1,0,0,1,0-2h1A1,1,0,0,1,27,6Z"/><path class="cls-4" d="M34,12v3H14V12a2,2,0,0,1,2-2H32A2,2,0,0,1,34,12Z"/><path class="cls-5" d="M34,12v1H19a3,3,0,0,1-3-3H32A2,2,0,0,1,34,12Z"/><path class="cls-6" d="M34,15c0,28.52.31,27.18-.88,29.12A6,6,0,0,1,28,47H20a6,6,0,0,1-6-6V15Z"/><path class="cls-7" d="M34,15c0,28.52.31,27.18-.88,29.12C31.21,45.29,30.29,45,22,45a6,6,0,0,1-6-6V15Z"/><path class="cls-8" d="M28,24c0,8.58.12,8.6-.36,9.64A4,4,0,0,1,20,32V24a4,4,0,0,1,8,0Z"/><path class="cls-6" d="M28,24c0,8.58.12,8.6-.36,9.64A4,4,0,0,1,22,30c0-8.58-.12-8.6.36-9.64A4,4,0,0,1,28,24Z"/><path class="cls-4" d="M28,24a4,4,0,1,1-5.64-3.64A4,4,0,0,1,28,24Z"/><path class="cls-5" d="M27.64,25.64a4,4,0,0,1-5.28-5.28A4,4,0,0,1,27.64,25.64Z"/></g></svg>