<svg xmlns="http://www.w3.org/2000/svg" viewBox="0 0 48 48"><defs><style>.cls-1{fill:#dad7e5;}.cls-2{fill:#edebf2;}.cls-3{fill:#db5669;}.cls-4{fill:#f26674;}</style></defs><title>push pin</title><g id="push_pin" data-name="push pin"><path class="cls-1" d="M21.12,30.83,6,45.92,1,45.2,18.25,28Z"/><path class="cls-2" d="M19.62,29.33,7.75,41.2a4.89,4.89,0,0,1-4.13,1.38c-.1,0,0,0,14.63-14.63Z"/><path class="cls-3" d="M31.19,36.58,29,38.73,10.34,20.05l2.16-2.16a3,3,0,0,1,4.31,0c15.68,15.68,14.57,14.5,14.87,15A3,3,0,0,1,31.19,36.58Z"/><path class="cls-4" d="M31.68,32.92a3,3,0,0,1-4.81.66l-15-15,.66-.66a3,3,0,0,1,4.31,0C32.49,33.57,31.38,32.39,31.68,32.92Z"/><path class="cls-3" d="M47,17.89l-1.44,1.44a2,2,0,0,1-2.87,0L29.75,6.39a2,2,0,0,1,0-2.87c.11-.09.06,0,1.44-1.44Z"/><path class="cls-4" d="M45.49,16.38a2,2,0,0,1-2.8-.05L29.82,3.46l1.37-1.38Z"/><path class="cls-3" d="M42.69,19.33a22.08,22.08,0,0,0-11.5,12.94L16.81,17.89A22.06,22.06,0,0,0,29.75,6.39Z"/><path class="cls-4" d="M40.74,17.38A22,22,0,0,0,34.51,23a6,6,0,0,1-9,.6L19,17A22.13,22.13,0,0,0,29.75,6.39Z"/></g></svg>