<svg xmlns="http://www.w3.org/2000/svg" viewBox="0 0 48 48"><defs><style>.cls-1{fill:#dad7e5;}.cls-2{fill:#edebf2;}.cls-3{fill:#919191;}.cls-4{fill:#c6c3d8;}.cls-5{fill:#db5669;}.cls-6{fill:#f26674;}</style></defs><title>postcard</title><g id="postcard"><rect class="cls-1" x="1" y="8" width="46" height="32"/><path class="cls-2" d="M47,8V38H7a4,4,0,0,1-4-4V8Z"/><path class="cls-3" d="M23,36V12a1,1,0,0,1,2,0V36A1,1,0,0,1,23,36Z"/><path class="cls-4" d="M36,19H28a1,1,0,0,1,0-2h8A1,1,0,0,1,36,19Z"/><path class="cls-4" d="M43,23H28a1,1,0,0,1,0-2H43A1,1,0,0,1,43,23Z"/><path class="cls-4" d="M43,27H28a1,1,0,0,1,0-2H43A1,1,0,0,1,43,27Z"/><path class="cls-4" d="M43,31H35a1,1,0,0,1,0-2h8A1,1,0,0,1,43,31Z"/><rect class="cls-5" x="5" y="12" width="6" height="8"/><path class="cls-6" d="M11,12v6a4,4,0,0,1-4-4V12Z"/><path class="cls-4" d="M15,37H5a1,1,0,0,1,0-2H15A1,1,0,0,1,15,37Z"/><path class="cls-4" d="M11,33H5a1,1,0,0,1,0-2h6A1,1,0,0,1,11,33Z"/></g></svg>