<svg xmlns="http://www.w3.org/2000/svg" viewBox="0 0 48 48"><defs><style>.cls-1{fill:#dad7e5;}.cls-2{fill:#edebf2;}.cls-3{fill:#6fabe6;}.cls-4{fill:#82bcf4;}.cls-5{fill:#db5669;}.cls-6{fill:#f26674;}</style></defs><title>correction fluid</title><g id="correction_fluid" data-name="correction fluid"><path class="cls-1" d="M8.06,42.82,4.47,46.41A2,2,0,0,1,1.27,44c.17-.33,0-.16,3.91-4Z"/><path class="cls-2" d="M7.06,41.82,4.47,44.41A2,2,0,0,1,1.27,44c.17-.33,0-.16,3.91-4Z"/><path class="cls-1" d="M13.8,41.38l-1.44,1.44a3,3,0,0,1-4.3,0L5.18,39.94a3,3,0,0,1-.5-3.65A11.54,11.54,0,0,1,6.62,34.2Z"/><path class="cls-2" d="M12.3,39.88a3,3,0,0,1-4.24-.06c-2.66-2.66-3.08-3-3.38-3.53A11.54,11.54,0,0,1,6.62,34.2Z"/><path class="cls-3" d="M46.11,14.81,44,17,31,4.05l2.16-2.16a3,3,0,0,1,4.28,0c9.38,9.38,8.85,8.79,9.13,9.28A3,3,0,0,1,46.11,14.81Z"/><path class="cls-4" d="M46.6,11.17a3.06,3.06,0,0,1-4.81.64L32.53,2.55l.66-.66a3,3,0,0,1,4.28,0C46.85,11.27,46.32,10.68,46.6,11.17Z"/><path class="cls-5" d="M44,17l-23,23L8.06,27l23-23Z"/><path class="cls-6" d="M42.45,15.47,23.81,34.11a4,4,0,0,1-5.66,0L9.56,25.52,31,4.05Z"/><path class="cls-3" d="M21,39.94l-2.17,2.17a3,3,0,0,1-4.28,0L5.89,33.47a3,3,0,0,1-.49-3.64c.28-.49.45-.6,2.66-2.81Z"/><path class="cls-4" d="M19.48,38.44a4,4,0,0,1-5.62,0c-8.65-8.65-8.18-8.12-8.46-8.61.28-.49.45-.6,2.66-2.81Z"/><path class="cls-3" d="M33.18,19.13l-10,10.05a3.05,3.05,0,0,1-4.81-3.66c.28-.49-.39.24,10.55-10.7a3,3,0,0,1,4.31,4.31Z"/><path class="cls-4" d="M33.68,15.48c-.28.49.39-.24-10.55,10.7a3,3,0,0,1-4.81-.66c.28-.49-.39.24,10.55-10.7A3,3,0,0,1,33.68,15.48Z"/></g></svg>