<svg xmlns="http://www.w3.org/2000/svg" viewBox="0 0 48 48"><defs><style>.cls-1{fill:#db5669;}.cls-2{fill:#f26674;}.cls-3{fill:#dad7e5;}.cls-4{fill:#edebf2;}.cls-5{fill:#c6c3d8;}</style></defs><title>calendar desk</title><g id="calendar_desk" data-name="calendar desk"><rect class="cls-1" x="1" y="6" width="40" height="8"/><path class="cls-2" d="M41,6v6H9A6,6,0,0,1,3,6Z"/><rect class="cls-3" x="1" y="14" width="40" height="30"/><path class="cls-4" d="M41,14V42H7a4,4,0,0,1-4-4V14Z"/><path class="cls-3" d="M8,8V4a1,1,0,0,1,2,0V8A1,1,0,0,1,8,8Z"/><path class="cls-3" d="M12,8V4a1,1,0,0,1,2,0V8A1,1,0,0,1,12,8Z"/><path class="cls-3" d="M32,8V4a1,1,0,0,1,2,0V8A1,1,0,0,1,32,8Z"/><path class="cls-3" d="M28,8V4a1,1,0,0,1,2,0V8A1,1,0,0,1,28,8Z"/><rect class="cls-5" x="7" y="19" width="6" height="4"/><rect class="cls-5" x="18" y="19" width="6" height="4"/><rect class="cls-5" x="29" y="19" width="6" height="4"/><rect class="cls-5" x="7" y="27" width="6" height="4"/><rect class="cls-5" x="18" y="27" width="6" height="4"/><rect class="cls-5" x="29" y="27" width="6" height="4"/><rect class="cls-5" x="7" y="35" width="6" height="4"/><path class="cls-3" d="M13,35v2H11a2,2,0,0,1-2-2Z"/><rect class="cls-5" x="18" y="35" width="6" height="4"/><rect class="cls-5" x="29" y="35" width="6" height="4"/><path class="cls-1" d="M47,40H44l-3,4V6C47.72,44.05,46.32,36.1,47,40Z"/><polygon class="cls-2" points="46.65 38 44 38 43 39.33 43 17.33 46.65 38"/><path class="cls-3" d="M13,27v2H11a2,2,0,0,1-2-2Z"/><path class="cls-3" d="M13,19v2H11a2,2,0,0,1-2-2Z"/><path class="cls-3" d="M24,35v2H22a2,2,0,0,1-2-2Z"/><path class="cls-3" d="M24,27v2H22a2,2,0,0,1-2-2Z"/><path class="cls-3" d="M24,19v2H22a2,2,0,0,1-2-2Z"/><path class="cls-3" d="M35,35v2H33a2,2,0,0,1-2-2Z"/><path class="cls-3" d="M35,27v2H33a2,2,0,0,1-2-2Z"/><path class="cls-3" d="M35,19v2H33a2,2,0,0,1-2-2Z"/></g></svg>