<svg xmlns="http://www.w3.org/2000/svg" viewBox="0 0 48 48"><defs><style>.cls-1{fill:#374f68;}.cls-2{fill:#425b72;}.cls-3{fill:#dad7e5;}.cls-4{fill:#edebf2;}</style></defs><title>ink</title><g id="ink"><path class="cls-1" d="M40.37,47H7.63a6,6,0,0,1-6-6.6c1.71-17,1-9.86,2.16-21.59.35-3.57,4.77-2.26,5.43-4.8L10,11H38c.67,2.68.68,3.87,2,4.38,2.08.83,4,1.21,4.23,3.43,1.17,11.64.54,5.35,2.16,21.59A6,6,0,0,1,40.37,47Z"/><path class="cls-2" d="M45.48,44.13c-2,1.23-.71.87-35.85.87a6,6,0,0,1-6-6.6C6,15.24,5.81,16.6,6,16.22c3.51-1.4,2.93-.7,4.05-5.22H38c.67,2.68.68,3.87,2,4.38,2.08.83,4,1.21,4.23,3.43C46.49,41.87,46.89,41.88,45.48,44.13Z"/><rect class="cls-3" x="12" y="23" width="24" height="16" rx="2"/><path class="cls-4" d="M36,25V37H18a4,4,0,0,1-4-4V23H34A2,2,0,0,1,36,25Z"/><polygon class="cls-3" points="12 27 12 35 2.2 35 3 27 12 27"/><path class="cls-4" d="M12,27v6H10.23A5.46,5.46,0,0,1,4.8,27Z"/><path class="cls-3" d="M45.8,35H36V27h9C45.24,29.42,45.56,32.6,45.8,35Z"/><path class="cls-4" d="M45.6,33H44a6,6,0,0,1-6-6h7Z"/><rect class="cls-3" x="7" y="1" width="34" height="10" rx="2"/><path class="cls-4" d="M41,3V9H17A8,8,0,0,1,9,1H39A2,2,0,0,1,41,3Z"/><path class="cls-2" d="M24,36c-.81,0-.77-.3-3-4.76V35a1,1,0,0,1-2,0V27a1,1,0,0,1,1.89-.45L23,30.76V27a1,1,0,0,1,2,0v8A1,1,0,0,1,24,36Z"/><path class="cls-2" d="M27,35V27a1,1,0,0,1,2,0v8A1,1,0,0,1,27,35Z"/><path class="cls-2" d="M28,34a1,1,0,0,1-.83-1.55l4-6a1,1,0,0,1,1.66,1.1C28.48,34.08,28.72,34,28,34Z"/><path class="cls-2" d="M32,36c-.91,0-.83-.36-2.89-5.69A1,1,0,0,1,31,29.59l2,5.05A1,1,0,0,1,32,36Z"/><path class="cls-2" d="M15,35V27a1,1,0,0,1,2,0v8A1,1,0,0,1,15,35Z"/></g></svg>