<svg xmlns="http://www.w3.org/2000/svg" viewBox="0 0 48 48"><defs><style>.cls-1{fill:#db5669;}.cls-2{fill:#f26674;}.cls-3{fill:#6fabe6;}.cls-4{fill:#82bcf4;}.cls-5{fill:#dad7e5;}.cls-6{fill:#edebf2;}</style></defs><title>eraser</title><g id="eraser"><rect class="cls-1" x="15.67" y="16.4" width="3.99" height="27.89" transform="translate(-16.28 21.37) rotate(-45)"/><path class="cls-2" d="M27.43,37.29a1.88,1.88,0,0,1-2.64,0L7.89,20.39l1.32-1.32Z"/><path class="cls-3" d="M45.83,21.89l-16.9,16.9L9.21,19.07l16.9-16.9a4,4,0,0,1,5.64,0L45.83,16.25A4,4,0,0,1,45.83,21.89Z"/><path class="cls-4" d="M46.71,17.57a4.07,4.07,0,0,1-.88,1.32L31.76,33a4,4,0,0,1-5.66,0L10.71,17.57l15.4-15.4a4,4,0,0,1,5.64,0C47,17.44,46.27,16.51,46.71,17.57Z"/><path class="cls-1" d="M39.49,17,26.82,29.63l-8.45-8.45L31,8.51Z"/><path class="cls-2" d="M38,15.46l-4.22,4.22a9.83,9.83,0,0,1-13.9,0L31,8.51Z"/><path class="cls-5" d="M24.7,40.2l-5.63,5.63a4,4,0,0,1-5.63,0L2.17,34.56a4,4,0,0,1-.88-4.32c.41-1,.33-.76,6.51-6.94Z"/><path class="cls-6" d="M23.2,38.7l-4.13,4.13a4,4,0,0,1-5.63,0C2.71,32.1,1.29,30.88,1.29,30.24c.41-1,.33-.76,6.51-6.94Z"/></g></svg>