<svg xmlns="http://www.w3.org/2000/svg" viewBox="0 0 48 48"><defs><style>.cls-1{fill:#dad7e5;}.cls-2{fill:#edebf2;}.cls-3{fill:#7c7d7d;}.cls-4{fill:#919191;}</style></defs><title>compass</title><g id="compass"><path class="cls-1" d="M33.05,47.28,31.37,41.5A1,1,0,0,1,33.29,41L35,46.72A1,1,0,0,1,33.05,47.28Z"/><path class="cls-1" d="M25,3V6.41H21V3a2,2,0,0,1,4,0Z"/><path class="cls-2" d="M25,3V4.41a2,2,0,0,1-2-2V1A2,2,0,0,1,25,3Z"/><path class="cls-3" d="M28,11v5H18V11a5,5,0,0,1,10,0Z"/><path class="cls-4" d="M28,11v3H25a5,5,0,0,1-5-5,4.93,4.93,0,0,1,.62-2.4A5,5,0,0,1,28,11Z"/><path class="cls-1" d="M23,9a2,2,0,1,0,1.83,2.82A2,2,0,0,0,23,9Z"/><path class="cls-2" d="M22.15,9.18a2,2,0,0,0,2.65,2.64A2,2,0,0,0,22.15,9.18Z"/><path class="cls-1" d="M32.08,43.94a5.14,5.14,0,0,0,2.62-6.09L28,16H24l8.11,27.94"/><path class="cls-2" d="M24,16l7.52,25.9a5.14,5.14,0,0,0,1.21-5L26.28,16Z"/><path class="cls-4" d="M37,27H18.07a1,1,0,0,1,0-2H37A1,1,0,0,1,37,27Z"/><path class="cls-4" d="M34,27V25a1,1,0,0,1,2,0v2A1,1,0,0,1,34,27Z"/><path class="cls-1" d="M12.89,47.28l1.68-5.78A1,1,0,0,0,12.65,41L11,46.72A1,1,0,0,0,12.89,47.28Z"/><path class="cls-1" d="M22,16c-8.47,29.17-7.26,25-8.11,27.94a5.13,5.13,0,0,1-2.62-6.09L18,16Z"/><path class="cls-2" d="M22,16,14.45,41.9a5.14,5.14,0,0,1-1.21-5L19.66,16Z"/><path class="cls-3" d="M18,33a3,3,0,1,1-3.87-2.87A3,3,0,0,1,18,33Z"/><path class="cls-4" d="M17.85,33.86a3,3,0,0,1-3.75-3.73A3,3,0,0,1,17.85,33.86Z"/><path class="cls-2" d="M15,34a1,1,0,1,1,1-.8A1,1,0,0,1,15,34Z"/></g></svg>