<svg xmlns="http://www.w3.org/2000/svg" viewBox="0 0 48 48"><defs><style>.cls-1{fill:#374f68;}.cls-2{fill:#425b72;}.cls-3{fill:#dad7e5;}.cls-4{fill:#edebf2;}.cls-5{fill:#f26674;}.cls-6{fill:#6fabe6;}.cls-7{fill:#b5e08c;}.cls-8{fill:#ffde76;}</style></defs><title>Remote</title><g id="Remote"><path class="cls-1" d="M32.87,18.12c-.69,23-.25,22.85-2.06,25.42-4.32,6.28-14.8,3.55-15-4.3l-.64-21.12a4,4,0,0,1,2.36-3.76c1.13-.52,1.1-.36,11.4-.36A4,4,0,0,1,32.87,18.12Z"/><path class="cls-2" d="M32.87,18.12c-.69,23-.25,22.85-2.06,25.42-4.92,3.55-12.83.54-13-6.3-.69-22.78-.83-21.68-.28-22.88,1.13-.52,1.1-.36,11.4-.36A4,4,0,0,1,32.87,18.12Z"/><path class="cls-3" d="M29,31a5,5,0,1,1-6.18-4.86A5,5,0,0,1,29,31Z"/><path class="cls-4" d="M27.18,34.86a5,5,0,0,1-4.36-8.72A5,5,0,0,1,27.18,34.86Z"/><path class="cls-2" d="M26,31a2,2,0,1,0-2,2,2,2,0,0,0,2-2"/><circle class="cls-5" cx="24" cy="20" r="2"/><path class="cls-6" d="M22,41H20a1,1,0,0,1,0-2h2A1,1,0,0,1,22,41Z"/><path class="cls-7" d="M28,41H26a1,1,0,0,1,0-2h2A1,1,0,0,1,28,41Z"/><path class="cls-8" d="M20.88,5.88C20.88,4.84,22.72,4,24,4c1.76,0,4,1.45,2.83,2.59a1,1,0,0,1-1.42,0,2,2,0,0,0-2.82,0A1,1,0,0,1,20.88,5.88Z"/><path class="cls-8" d="M18.05,3.05c0-1.78,6.87-5.45,11.61-.71a1,1,0,0,1-1.42,1.42,6,6,0,0,0-8.48,0A1,1,0,0,1,18.05,3.05Z"/><path class="cls-8" d="M25,9a1,1,0,0,0-2,0,1,1,0,0,0,2,0"/></g></svg>