<svg xmlns="http://www.w3.org/2000/svg" viewBox="0 0 48 48"><defs><style>.cls-1{fill:#374f68;}.cls-2{fill:#425b72;}.cls-3{fill:#9fdbf3;}.cls-4{fill:#b2e5fb;}.cls-5{fill:#dad7e5;}.cls-6{fill:#edebf2;}</style></defs><title>Samsung Galaxy Fold</title><g id="Samsung_Galaxy_Fold" data-name="Samsung Galaxy Fold"><path class="cls-1" d="M47,5c0,41.59.08,39.32-.18,40A3,3,0,0,1,44,47H26a2,2,0,0,1-2-2V43H43V7H36.24A3.61,3.61,0,0,1,33,5H24V3a2,2,0,0,1,2-2H43A4,4,0,0,1,47,5Z"/><path class="cls-2" d="M47,5c0,41.59.08,39.32-.18,40H24V43H43V7H36.24A3.61,3.61,0,0,1,33,5H24V3a2,2,0,0,1,2-2H43A4,4,0,0,1,47,5Z"/><path class="cls-1" d="M5,5V43H24v2a2,2,0,0,1-2,2H5a4,4,0,0,1-4-4V5A4,4,0,0,1,5,1c18.22,0,17.6-.24,18.41.59S24,3,24,5Z"/><path class="cls-2" d="M24,3V5H7V1H22A2,2,0,0,1,24,3Z"/><path class="cls-2" d="M7,43H24v2H9A2,2,0,0,1,7,43Z"/><path class="cls-3" d="M43,7V43H5V5H33a3.61,3.61,0,0,0,3.24,2Z"/><path class="cls-4" d="M43,7c0,35.18.1,34,0,34A36,36,0,0,1,7,5H33a3.61,3.61,0,0,0,3.24,2Z"/><path class="cls-5" d="M37,4a1,1,0,0,1-2,0A1,1,0,0,1,37,4Z"/><path class="cls-6" d="M37,4a1,1,0,0,1-1-1A1,1,0,0,1,37,4Z"/><path class="cls-6" d="M16,39V37a1,1,0,0,1,2,0v2A1,1,0,0,1,16,39Z"/><path class="cls-6" d="M32,40c-.53,0-.67-.26-1.71-1.29a1,1,0,0,1,0-1.42l1-1a1,1,0,0,1,1.42,1.42l-.3.29.3.29A1,1,0,0,1,32,40Z"/><path class="cls-5" d="M43,5H40a1,1,0,0,1,0-2h3A1,1,0,0,1,43,5Z"/><path class="cls-6" d="M44,4H41a1,1,0,0,1-1-1h3A1,1,0,0,1,44,4Z"/><rect class="cls-6" x="22" y="36" width="4" height="4" rx="1.38"/></g></svg>