<svg xmlns="http://www.w3.org/2000/svg" viewBox="0 0 48 48"><defs><style>.cls-1{fill:#dad7e5;}.cls-2{fill:#edebf2;}.cls-3{fill:#425b72;}.cls-4{fill:#374f68;}.cls-5{fill:#2c435e;}.cls-6{fill:#7c7d7d;}.cls-7{fill:#919191;}.cls-8{fill:#c6c3d8;}</style></defs><title>Password Safe</title><g id="Password_Safe" data-name="Password Safe"><path class="cls-1" d="M47,16V26a2,2,0,0,0-2-2H33a2,2,0,0,0-1.82,1.18c-.24.48-.18.94-.18,2.82H5a4,4,0,0,1-4-4V16a4,4,0,0,1,4-4H43A4,4,0,0,1,47,16Z"/><path class="cls-2" d="M47,16V26a2,2,0,0,0-2-2H33a2,2,0,0,0-2,2H6a3,3,0,0,1-3-3V12.54A4,4,0,0,1,5,12H43A4,4,0,0,1,47,16Z"/><path class="cls-3" d="M15,19H13.41l1.3-1.29a1,1,0,0,0-1.42-1.42L12,17.59V16a1,1,0,0,0-2,0v1.59l-1.29-1.3a1,1,0,0,0-1.42,1.42L8.59,19H7a1,1,0,0,0,0,2H8.59l-1.3,1.29A1,1,0,0,0,8,24c.55,0,.69-.27,2-1.59V24a1,1,0,0,0,2,0V22.41C13.23,23.64,13.44,24,14,24a1,1,0,0,0,.71-1.71L13.41,21H15A1,1,0,0,0,15,19Z"/><path class="cls-3" d="M27,19H25.41l1.3-1.29a1,1,0,0,0-1.42-1.42L24,17.59V16a1,1,0,0,0-2,0v1.59l-1.29-1.3a1,1,0,0,0-1.42,1.42L20.59,19H19a1,1,0,0,0,0,2h1.59l-1.3,1.29A1,1,0,0,0,20,24c.55,0,.69-.27,2-1.59V24a1,1,0,0,0,2,0V22.41C25.23,23.64,25.44,24,26,24a1,1,0,0,0,.71-1.71L25.41,21H27A1,1,0,0,0,27,19Z"/><path class="cls-4" d="M42,24V21a3,3,0,0,0-6,0v3a1,1,0,0,1-2,0V21a5,5,0,0,1,10,0v3A1,1,0,0,1,42,24Z"/><path class="cls-3" d="M35,18a5,5,0,0,1,8,4v3a1,1,0,0,0,1-1V21A5,5,0,0,0,35,18Z"/><path class="cls-5" d="M35,25c2,0,.23-3.56,1.45-5.55C34.64,20.55,35,22.21,35,25Z"/><rect class="cls-6" x="31" y="24" width="16" height="12" rx="2"/><path class="cls-7" d="M47,26v8H35a2,2,0,0,1-2-2V24H45A2,2,0,0,1,47,26Z"/><path class="cls-8" d="M31,26v2H30c0-1-.07-1.44.28-2Z"/><path class="cls-1" d="M31.18,25.18c-.48,1,.33.82-.9.82A2,2,0,0,1,31.18,25.18Z"/><path class="cls-1" d="M39,27a2,2,0,0,0-1,3.72V32a1,1,0,0,0,2,0V30.72A2,2,0,0,0,39,27Z"/><path class="cls-8" d="M38.5,27.07a2,2,0,0,1,.5,3.65c0,1.32.11,1.76-.5,2.13A1,1,0,0,0,40,32V30.72A2,2,0,0,0,38.5,27.07Z"/></g></svg>