<svg xmlns="http://www.w3.org/2000/svg" viewBox="0 0 48 48"><defs><style>.cls-1{fill:#b2e5fb;}.cls-2{fill:#9fdbf3;}.cls-3{fill:#dad7e5;}.cls-4{fill:#edebf2;}.cls-5{fill:#c6c3d8;}.cls-6{fill:#fc6;}.cls-7{fill:#82bcf4;}.cls-8{fill:#6fabe6;}.cls-9{fill:#8bd1ea;}.cls-10{fill:#425b72;}</style></defs><title>Smartphone and Home</title><g id="Smartphone_and_Home" data-name="Smartphone and Home"><polygon class="cls-1" points="20 29 20 33 24 30.71 24 39 1 39 1 9 27 9 27 25 20 29"/><path class="cls-2" d="M4,12V9H1V39H26V34h0A22,22,0,0,1,4,12Z"/><rect class="cls-3" x="1" y="9" width="2" height="30"/><rect class="cls-4" x="25" y="9" width="2" height="30"/><path class="cls-3" d="M24,39v8H4a3,3,0,0,1-3-3V39Z"/><path class="cls-4" d="M24,39v6H7a3,3,0,0,1-3-3V39Z"/><path class="cls-5" d="M16,44H12a1,1,0,0,1,0-2h4A1,1,0,0,1,16,44Z"/><path class="cls-3" d="M17,43H13a1,1,0,0,1-1-1h4A1,1,0,0,1,17,43Z"/><path class="cls-6" d="M12,24.55c-2.34,1.25-.43,3.06.59,2a2,2,0,0,1,2.82,0,1,1,0,0,0,1.42-1.42A4.12,4.12,0,0,0,12,24.55Z"/><path class="cls-6" d="M19.66,22.34c-5.12-5.12-13.15-.41-11.32,1.42a1,1,0,0,0,1.42,0,6,6,0,0,1,8.48,0A1,1,0,0,0,19.66,22.34Z"/><path class="cls-6" d="M15,29a1,1,0,0,0-2,0,1,1,0,0,0,2,0Z"/><path class="cls-7" d="M44,19v7.71l-4-2.28V19Z"/><polygon class="cls-8" points="42 21 42 25.57 40 24.43 40 21 42 21"/><rect class="cls-5" x="23" y="39" width="1" height="8"/><polygon class="cls-9" points="24 30.71 24 39 23 39 23 32.71 19 35 19 31 20 30.43 20 33 24 30.71"/><path class="cls-3" d="M27,4V9H1V4A3,3,0,0,1,4,1H24A3,3,0,0,1,27,4Z"/><path class="cls-4" d="M27,4V9H4V4A3,3,0,0,1,7,1H24A3,3,0,0,1,27,4Z"/><path class="cls-8" d="M48,29v4c-5-2.89-2-1.14-14-8L20,33V29l14-8Z"/><path class="cls-8" d="M48,29v4c-5-2.89-2-1.14-14-8L20,33V29l14-8Z"/><path class="cls-3" d="M44,30.71V47H24V30.71L34,25Z"/><path class="cls-4" d="M44,30.71V45H30a4,4,0,0,1-4-4V29.57L34,25Z"/><polygon class="cls-5" points="26 29.57 26 31 24 32.14 24 30.71 26 29.57"/><path class="cls-3" d="M44,30.71v2.57L33,27l-7,4V29.57L34,25Z"/><path class="cls-7" d="M48,29v2.43c-5.4-3.1-2.11-1.22-15-8.57L20,30.28V29l14-8Z"/><rect class="cls-8" x="30" y="37" width="8" height="10"/><rect class="cls-7" x="30" y="37" width="8" height="8"/><path class="cls-10" d="M11,5A1,1,0,0,0,9,5a1,1,0,0,0,2,0"/><path class="cls-10" d="M18,6H14a1,1,0,0,1,0-2h4A1,1,0,0,1,18,6Z"/></g></svg>