<svg xmlns="http://www.w3.org/2000/svg" viewBox="0 0 48 48"><defs><style>.cls-1{fill:#6fabe6;}.cls-2{fill:#5b9ad8;}.cls-3{fill:#edebf2;}.cls-4{fill:#dad7e5;}.cls-5{fill:#c6c3d8;}.cls-6{fill:#82bcf4;}</style></defs><title>Fan</title><g id="Fan"><path class="cls-1" d="M42,19A18,18,0,1,1,24,1,18,18,0,0,1,42,19Z"/><path class="cls-2" d="M35,26a17.86,17.86,0,0,1-2.26,8.73C17.05,43.57-.49,26,8.26,10.26A18,18,0,0,1,35,26Z"/><path class="cls-3" d="M38,19a14,14,0,1,1-25.07-8.57C21.09-.08,38,5.69,38,19Z"/><path class="cls-4" d="M33.5,23.5a13.86,13.86,0,0,1-2.11,7.38A14,14,0,0,1,12.12,11.61,14,14,0,0,1,33.5,23.5Z"/><path class="cls-5" d="M18,43H30c-1.44-5.08-1-3.65-1.85-6.49a17.91,17.91,0,0,1-8.3,0Z"/><path class="cls-4" d="M20.57,43H30l-1.2-4.23a17.43,17.43,0,0,1-6.95-.26Z"/><path class="cls-1" d="M34,45a2,2,0,0,1-2,2H16a2,2,0,0,1,0-4H32A2,2,0,0,1,34,45Z"/><path class="cls-1" d="M29,10c-3.88,7-3.46,6.37-3.56,6.37a3,3,0,0,0-2.9,0L19,10A10.84,10.84,0,0,1,29,10Z"/><path class="cls-1" d="M29,10c-3.88,7-3.46,6.37-3.56,6.37a3,3,0,0,0-2.9,0L19,10A10.84,10.84,0,0,1,29,10Z"/><path class="cls-6" d="M29,10l-1.23,2.21A13.91,13.91,0,0,0,20,9.51,10.92,10.92,0,0,1,29,10Z"/><path class="cls-1" d="M34,19a8.79,8.79,0,0,1-4,8l-4.2-5.6A3,3,0,0,0,27,19Z"/><path class="cls-6" d="M34,19a9.74,9.74,0,0,1-.53,3.68A13.57,13.57,0,0,0,32.76,19Z"/><path class="cls-1" d="M22.2,21.4,18,27a8.79,8.79,0,0,1-4-8h7A3,3,0,0,0,22.2,21.4Z"/><path class="cls-6" d="M33.16,16c-1,0-.79-.87-2-2.39a1,1,0,0,1,1.58-1.22,10.35,10.35,0,0,1,1.3,2.21A1,1,0,0,1,33.16,16Z"/><path class="cls-6" d="M14.84,16a1,1,0,0,1-.92-1.4,10.35,10.35,0,0,1,1.3-2.21,1,1,0,0,1,1.58,1.22C15.61,15.15,15.85,16,14.84,16Z"/><path class="cls-6" d="M21.8,29.78a1,1,0,0,1,.4-2,9.09,9.09,0,0,0,3.6,0,1,1,0,0,1,.4,2A11.23,11.23,0,0,1,21.8,29.78Z"/><circle class="cls-2" cx="24" cy="19" r="3"/></g></svg>