<svg xmlns="http://www.w3.org/2000/svg" viewBox="0 0 48 48"><defs><style>.cls-1{fill:#c6c3d8;}.cls-2{fill:#dad7e5;}.cls-3{fill:#edebf2;}.cls-4{fill:#7c7d7d;}.cls-5{fill:#919191;}.cls-6{fill:#fc6;}.cls-7{fill:#747575;}</style></defs><title>Faucet</title><g id="Faucet"><rect class="cls-1" x="8" y="15" width="14" height="26"/><path class="cls-2" d="M11,15H22a0,0,0,0,1,0,0V39a0,0,0,0,1,0,0H15a4,4,0,0,1-4-4V15A0,0,0,0,1,11,15Z"/><path class="cls-2" d="M32,1V5L23.42,7.57A2,2,0,0,0,22,9.49V15H8V11a4,4,0,0,1,3-3.87Z"/><path class="cls-3" d="M32,1V5L23.42,7.57A2,2,0,0,0,22,9.49V15H11V7.13Z"/><path class="cls-4" d="M25,43v4H5V43a2,2,0,0,1,2-2H23A2,2,0,0,1,25,43Z"/><path class="cls-5" d="M25,43v2H13a2,2,0,0,1-2-2V41H23A2,2,0,0,1,25,43Z"/><path class="cls-6" d="M35.17,35.41a1,1,0,0,1,1.42,0,2,2,0,0,0,2.82,0,1,1,0,0,1,1.42,1.42C38.14,39.52,33.69,36.9,35.17,35.41Z"/><path class="cls-6" d="M32.34,39.66a1,1,0,0,1,1.42-1.42,6,6,0,0,0,8.48,0,1,1,0,0,1,1.42,1.42A8,8,0,0,1,32.34,39.66Z"/><path class="cls-6" d="M37,33a1,1,0,0,0,2,0,1,1,0,0,0-2,0"/><path class="cls-3" d="M43,21v1.36a2,2,0,0,1-1.61,2C34.7,25.69,26.41,26.39,22,33V19H41A2,2,0,0,1,43,21Z"/><path class="cls-4" d="M41,24.4V28a1,1,0,0,1-1,1H36a1,1,0,0,1-1-1V25.6Z"/><path class="cls-7" d="M35,25.6v.8l5-1V29a1,1,0,0,0,1-1V24.4Z"/></g></svg>