<svg xmlns="http://www.w3.org/2000/svg" viewBox="0 0 48 48"><defs><style>.cls-1{fill:#374f68;}.cls-2{fill:#2c435e;}.cls-3{fill:#425b72;}.cls-4{fill:#dad7e5;}.cls-5{fill:#c6c3d8;}.cls-6{fill:#82bcf4;}.cls-7{fill:#6fabe6;}.cls-8{fill:#ffde76;}</style></defs><title>Home and Wifi</title><g id="Home_and_Wifi" data-name="Home and Wifi"><polygon class="cls-1" points="14 2 14 11.09 8 14.74 8 2 14 2"/><rect class="cls-2" x="8" y="2" width="4" height="3"/><rect class="cls-1" x="12" y="2" width="2" height="3"/><polygon class="cls-3" points="14 5 14 11.09 12 12.31 12 5 14 5"/><path class="cls-1" d="M14,3H8A1,1,0,0,1,8,1h6A1,1,0,0,1,14,3Z"/><path class="cls-3" d="M15,2H10A1,1,0,0,1,9,1h5A1,1,0,0,1,15,2Z"/><path class="cls-4" d="M40,19.9V45a2,2,0,0,1-2,2H10a2,2,0,0,1-2-1.8c0-.11,0,1.62,0-25.29L24,10Z"/><path class="cls-5" d="M40,44v1a2,2,0,0,1-2,2H10a2,2,0,0,1-2-1.8V20h3V40a4,4,0,0,0,4,4Z"/><path class="cls-1" d="M47,19l-2,4L24,10,3,23,1,19,24,5Z"/><path class="cls-3" d="M24,5,1,19l.53,1.07L23,7,46,21l1-2Z"/><path class="cls-5" d="M40,19.9v3.62L23,13,8,22.29V19.91L24,10Z"/><circle class="cls-4" cx="24" cy="31" r="9"/><path class="cls-4" d="M33,31a8.9,8.9,0,0,1-3.44,7.06A9,9,0,1,1,33,31Z"/><path class="cls-6" d="M33,31a9,9,0,0,1-9,9c-8.75,0-12.31-11.29-5.23-16.32A9,9,0,0,1,33,31Z"/><path class="cls-7" d="M31.5,32.5a8.92,8.92,0,0,1-1.93,5.55A8.75,8.75,0,0,1,24,40a9,9,0,0,1-7.06-14.56,2.91,2.91,0,0,1,.33-.26A9,9,0,0,1,31.5,32.5Z"/><path class="cls-8" d="M25.41,32.59a2,2,0,0,0-2.82,0,1,1,0,0,1-1.42-1.42,4,4,0,0,1,5.66,0A1,1,0,0,1,25.41,32.59Z"/><path class="cls-8" d="M28.24,29.76a6,6,0,0,0-8.48,0,1,1,0,0,1-1.42-1.42,8,8,0,0,1,11.32,0A1,1,0,0,1,28.24,29.76Z"/><path class="cls-8" d="M25,35a1,1,0,0,0-2,0,1,1,0,0,0,2,0"/></g></svg>