<svg xmlns="http://www.w3.org/2000/svg" viewBox="0 0 48 48"><defs><style>.cls-1{fill:#374f68;}.cls-2{fill:#2c435e;}.cls-3{fill:#425b72;}.cls-4{fill:#dad7e5;}.cls-5{fill:#c6c3d8;}.cls-6{fill:#5b9ad8;}.cls-7{fill:#6fabe6;}.cls-8{fill:#fc6;}</style></defs><title>Home Protection</title><g id="Home_Protection" data-name="Home Protection"><polygon class="cls-1" points="14 2 14 11.09 8 14.74 8 2 14 2"/><rect class="cls-2" x="8" y="2" width="4" height="3"/><rect class="cls-1" x="12" y="2" width="2" height="3"/><polygon class="cls-3" points="14 5 14 11.09 12 12.31 12 5 14 5"/><path class="cls-1" d="M14,3H8A1,1,0,0,1,8,1h6A1,1,0,0,1,14,3Z"/><path class="cls-3" d="M15,2H10A1,1,0,0,1,9,1h5A1,1,0,0,1,15,2Z"/><path class="cls-4" d="M40,19.9V45a2,2,0,0,1-2,2H10a2,2,0,0,1-2-2V19.91L24,10Z"/><path class="cls-5" d="M40,44v1a2,2,0,0,1-2,2H10a2,2,0,0,1-2-1.8V20h3V40a4,4,0,0,0,4,4Z"/><path class="cls-6" d="M34,25.5C33,30.8,32.68,35,28.45,39A15.38,15.38,0,0,1,24,42c-8.49-3.75-9.1-11.68-10-16.5,6.82-3.74,3.18-1.76,10-5.5C28.6,22.43,26.34,21.19,34,25.5Z"/><path class="cls-7" d="M34,25.5c-1.1,5.86-1.18,9.25-5.57,12.67a4.65,4.65,0,0,1-5.83,0c-5.25-4.19-5.66-9.4-6.45-13.87,8.26-4.55,0,0,7.85-4.32C28.6,22.43,26.34,21.19,34,25.5Z"/><path class="cls-8" d="M23,35c-.55,0-.43,0-3.71-3.29a1,1,0,0,1,1.42-1.42L23,32.59l5.29-5.3a1,1,0,0,1,1.42,1.42C23.11,35.31,23.57,35,23,35Z"/><path class="cls-1" d="M47,19l-2,4L24,10,3,23,1,19,24,5Z"/><path class="cls-3" d="M24,5,1,19l.53,1.07L23,7,46,21l1-2Z"/><path class="cls-5" d="M40,19.9v3.62L23,13,8,22.29V19.91L24,10Z"/></g></svg>