<svg xmlns="http://www.w3.org/2000/svg" viewBox="0 0 48 48"><defs><style>.cls-1{fill:#db5669;}.cls-2{fill:#7c7d7d;}.cls-3{fill:#919191;}.cls-4{fill:#374f68;}.cls-5{fill:#2c435e;}.cls-6{fill:#747575;}.cls-7{fill:#dad7e5;}.cls-8{fill:#edebf2;}.cls-9{fill:#c6c3d8;}</style></defs><title>CCTV</title><g id="CCTV"><path class="cls-1" d="M4,31V18.77a8.28,8.28,0,0,1,10.51-8A1,1,0,0,1,14,12.71a6.28,6.28,0,0,0-8,6.06V31A1,1,0,0,1,4,31Z"/><path class="cls-2" d="M9,35c0,8.23.2,8.71-.54,10C7,47.47,4.77,47,1,47V31H5A4,4,0,0,1,9,35Z"/><path class="cls-3" d="M9,35c0,8.23.2,8.71-.54,10H7a4,4,0,0,1-4-4V31H5A4,4,0,0,1,9,35Z"/><path class="cls-4" d="M19.54,41H9V37H19.54A4,4,0,0,0,19.54,41Z"/><circle class="cls-2" cx="23" cy="39" r="4"/><path class="cls-5" d="M19.36,37a4,4,0,0,0-1.23,4h1.41a4,4,0,0,1,0-4Z"/><path class="cls-3" d="M26.28,41.28a4,4,0,0,1-5.56-5.56A4,4,0,0,1,26.28,41.28Z"/><path class="cls-4" d="M25,23.53v12a4,4,0,0,0-4,0V22.46Z"/><polygon class="cls-5" points="21 22.46 21 24.46 25 25.53 25 23.53 21 22.46"/><path class="cls-2" d="M29.47,20.59,29,22.52a2,2,0,0,1-2.45,1.42l-5.8-1.56a2,2,0,0,1-1.41-2.45L19.82,18Z"/><path class="cls-6" d="M19.82,18l-.32,1.18,9,2.41a16.3,16.3,0,0,1-.62,2.23c1-.48,1.08-1.19,1.62-3.23Z"/><path class="cls-7" d="M40,16l-1.83,6.92L13.05,16.19c2.68-10,1.48-5.48,2.3-8.56L28,11l1,2Z"/><path class="cls-8" d="M40,16c-1.23,4.66-1,3.7-1.32,5L19,15.71a2,2,0,0,1-1.41-2.45c1.24-4.62,1-3.71,1.26-4.7L28,11l1,2Z"/><polygon class="cls-4" points="44.36 15.26 42.81 21.06 38.94 20.02 40 16 41.51 14.49 44.36 15.26"/><path class="cls-5" d="M44.36,15.26,43.9,17,40,16c0-.1-.06,0,1.52-1.54Z"/><path class="cls-2" d="M47,9l-7,7L29,13l-1-2L13,7l2-6C21.81,2.69,13.94.73,47,9Z"/><rect class="cls-9" x="16.6" y="6.67" width="0.78" height="3.6" transform="translate(4.43 22.7) rotate(-75.07)"/><polygon class="cls-7" points="37.64 15.36 37 16 26 13 25 11 18.63 9.31 18.83 8.56 28 11 29 13 37.64 15.36"/><path class="cls-4" d="M24,39a1,1,0,0,1-2,0,1,1,0,0,1,2,0Z"/><path class="cls-3" d="M47,9l-7,7L29,13l-1-2L18.89,8.57l1.66-6.19Z"/></g></svg>