<svg xmlns="http://www.w3.org/2000/svg" viewBox="0 0 48 48"><defs><style>.cls-1{fill:#dad7e5;}.cls-2{fill:#edebf2;}.cls-3{fill:#8bd1ea;}.cls-4{fill:#b2e5fb;}.cls-5{fill:#fc6;}.cls-6{fill:#6fabe6;}.cls-7{fill:#82bcf4;}</style></defs><title>Smart Temperature</title><g id="Smart_Temperature" data-name="Smart Temperature"><path class="cls-1" d="M42,29a17.87,17.87,0,0,1-3.19,10.21h0C28.85,53.69,6,46.65,6,29a18,18,0,0,1,36,0Z"/><path class="cls-1" d="M42,29a17.87,17.87,0,0,1-3.19,10.21h0C28.85,53.69,6,46.65,6,29a18,18,0,0,1,36,0Z"/><path class="cls-2" d="M42,29a17.87,17.87,0,0,1-3.19,10.21h0C28.85,53.69,6,46.65,6,29a18,18,0,0,1,36,0Z"/><path class="cls-1" d="M30,41A18,18,0,0,1,14.63,13.65,18,18,0,0,0,6,29C6,46.64,28.85,53.7,38.8,39.22h0C40.55,36.69,37.53,41,30,41Z"/><path class="cls-3" d="M38,29A14,14,0,0,1,24,43C10.19,43,4.74,25,16.31,17.31A14,14,0,0,1,38,29Z"/><path class="cls-4" d="M34,33a14.19,14.19,0,0,1-2.32,7.7A14,14,0,0,1,12.3,21.32a0,0,0,0,1,0,0A14,14,0,0,1,34,33Z"/><path class="cls-5" d="M25.41,7.59a2,2,0,0,0-2.82,0,1,1,0,0,1-1.42-1.42c2.64-2.64,7.15-.07,5.66,1.42A1,1,0,0,1,25.41,7.59Z"/><path class="cls-5" d="M28.24,4.76a6,6,0,0,0-8.48,0,1,1,0,0,1-1.42-1.42,8,8,0,0,1,11.32,0A1,1,0,0,1,28.24,4.76Z"/><path class="cls-5" d="M20,24H16a1,1,0,0,0,0,2h3v2H16a1,1,0,0,0,0,2h3v2H16a1,1,0,0,0,0,2h4a1,1,0,0,0,1-1V25A1,1,0,0,0,20,24Z"/><path class="cls-5" d="M28,34H24a1,1,0,0,1,0-2h3V30H24a1,1,0,0,1-1-1V25a1,1,0,0,1,1-1h4a1,1,0,0,1,0,2H25v2h3a1,1,0,0,1,1,1v4A1,1,0,0,1,28,34Z"/><path class="cls-5" d="M33,24a1,1,0,0,0-2,0,1,1,0,0,0,2,0"/><path class="cls-5" d="M34,32h-.5a2.5,2.5,0,0,1,0-5H34a1,1,0,0,1,0,2h-.5a.5.5,0,0,0,0,1H34A1,1,0,0,1,34,32Z"/><path class="cls-6" d="M26,40H22a1,1,0,0,1,0-2h4A1,1,0,0,1,26,40Z"/><path class="cls-7" d="M27,39H23a1,1,0,0,1-1-1h4A1,1,0,0,1,27,39Z"/></g></svg>