<svg xmlns="http://www.w3.org/2000/svg" viewBox="0 0 48 48"><defs><style>.cls-1{fill:#a87e6b;}.cls-2{fill:#be927c;}.cls-3{fill:#7c7d7d;}.cls-4{fill:#919191;}.cls-5{fill:#ffba55;}.cls-6{fill:#dad7e5;}.cls-7{fill:#c6c3d8;}.cls-8{fill:#374f68;}.cls-9{fill:#425b72;}.cls-10{fill:#fc6;}</style></defs><title>Smartlock on Door</title><g id="Smartlock_on_Door" data-name="Smartlock on Door"><rect class="cls-1" x="3" y="1" width="38" height="46"/><path class="cls-2" d="M41,1V45H14a6,6,0,0,1-6-6V1Z"/><path class="cls-3" d="M28,29.88A4,4,0,0,0,32.46,28H37V38a4,4,0,0,1-4,4H25a4,4,0,0,1-4-4V10a4,4,0,0,1,4-4h8a4,4,0,0,1,4,4V24H32.46A4,4,0,1,0,28,29.88Z"/><path class="cls-4" d="M25.19,24.79A4,4,0,0,0,32.46,28H37c0,10.89.18,10.75-.54,12H27a4,4,0,0,1-4-4V6.54C24.32,5.77,24.78,6,33,6a4,4,0,0,1,4,4V24H32.46A4,4,0,0,0,25.19,24.79Z"/><path class="cls-1" d="M27,42v1H24a4,4,0,0,1-4-4V11a4,4,0,0,1,1.72-3.28C20.69,9.21,21,7.89,21,38a4,4,0,0,0,4,4Z"/><path class="cls-1" d="M35.27,41.28A4,4,0,0,1,32,43H27V42C33.25,42,33.92,42.23,35.27,41.28Z"/><path class="cls-5" d="M31.27,29.27c.49-.34.35-.27.19-.27A1.65,1.65,0,0,1,31.27,29.27Z"/><rect class="cls-6" x="25" y="10" width="8" height="8" rx="2"/><path class="cls-7" d="M31,10H27a2,2,0,0,0-1.95,1.55c.34-.07.11-.05,4.45-.05a2,2,0,0,1,2,2c0,4.43,0,4.12-.05,4.45A2,2,0,0,0,33,16V12A2,2,0,0,0,31,10Z"/><path class="cls-8" d="M45,26a2,2,0,0,1-2,2H32.46a4,4,0,1,1,0-4H43A2,2,0,0,1,45,26Z"/><path class="cls-8" d="M45,26a2,2,0,0,1-2,2H32.46a4,4,0,1,1,0-4H43A2,2,0,0,1,45,26Z"/><path class="cls-3" d="M25.72,23.72a4,4,0,1,0,5.54,5.58A4,4,0,0,1,25.72,23.72Z"/><path class="cls-3" d="M37,28v1H31.65C33,27.68,31.29,28,37,28Z"/><path class="cls-8" d="M45,26a2,2,0,0,1-2,2H32.46a4,4,0,1,1,0-4H43A2,2,0,0,1,45,26Z"/><path class="cls-9" d="M25.13,27a4,4,0,0,1,7.33-1H43a2,2,0,0,1,1.72,1A2,2,0,0,0,43,24H32.46A4,4,0,0,0,25.13,27Z"/><path class="cls-9" d="M26,34a1,1,0,0,0-2,0,1,1,0,0,0,2,0"/><path class="cls-9" d="M30,34a1,1,0,0,0-2,0,1,1,0,0,0,2,0"/><path class="cls-9" d="M34,34a1,1,0,0,0-2,0,1,1,0,0,0,2,0"/><path class="cls-9" d="M28,38a1,1,0,0,0-2,0,1,1,0,0,0,2,0"/><path class="cls-9" d="M32,38a1,1,0,0,0-2,0,1,1,0,0,0,2,0"/><path class="cls-10" d="M13.88,27.12c-1,0-1.88-1.84-1.88-3.12,0-1.76,1.45-4,2.59-2.83a1,1,0,0,1,0,1.42,2,2,0,0,0,0,2.82A1,1,0,0,1,13.88,27.12Z"/><path class="cls-10" d="M11.05,30c-1.78,0-5.45-6.87-.71-11.61a1,1,0,0,1,1.42,1.42,6,6,0,0,0,0,8.48A1,1,0,0,1,11.05,30Z"/><path class="cls-10" d="M17,23a1,1,0,0,0,0,2,1,1,0,0,0,0-2"/></g></svg>