<svg xmlns="http://www.w3.org/2000/svg" viewBox="0 0 48 48"><defs><style>.cls-1{fill:#374f68;}.cls-2{fill:#82bcf4;}.cls-3{fill:#425b72;}.cls-4{fill:#2c435e;}.cls-5{fill:#edebf2;}.cls-6{fill:#c6c3d8;}.cls-7{fill:#dad7e5;}</style></defs><title>Alexa Speaker</title><g id="Alexa_Speaker" data-name="Alexa Speaker"><path class="cls-1" d="M38,8c0,4.28-7.61,6.89-11.5,6.89-.81.07-1.65.11-2.5.11-7.73,0-14-3.13-14-7s6.27-7,14-7c.85,0,1.69,0,2.5.11C30.45,1.11,38,3.73,38,8Z"/><path class="cls-1" d="M38,8c0,4.28-7.61,6.89-11.5,6.89a26.9,26.9,0,0,1-8.66-.6C4.52,11,9.26,1,24,1,29.18,1,38,3,38,8Z"/><path class="cls-2" d="M18.08,13.32C13.84,12.28,11,10.14,11,8c0-2.9,5.22-6,13-6,4.48,0,13,1.79,13,6S26.79,15.43,18.08,13.32Z"/><path class="cls-3" d="M18.31,12.35C14.17,11.33,12,9.39,12,8,12,4.25,24,.9,32.39,4.55c7.67,3.33,1.75,7.64-6.06,8.35A25.21,25.21,0,0,1,18.31,12.35Z"/><path class="cls-1" d="M38,8c0,9.64,0,9.2-.06,9.65a4.7,4.7,0,0,1-1.41,2.47C29.9,26.77,10,24.31,10,17V8c0,3.15,3.95,5.19,7,6.06C24.75,16.32,38,14.22,38,8Z"/><path class="cls-3" d="M38,8c0,9.64,0,9.2-.06,9.65a4.7,4.7,0,0,1-1.41,2.47C27.84,24.19,13,21.24,13,15V12.33C20.94,17.43,38,14.74,38,8Z"/><path class="cls-1" d="M38,17V36a4.47,4.47,0,0,1-1.46,3.12C29.93,45.76,10,43.32,10,36V17c0,3.15,3.95,5.19,7,6.06C26,25.69,38,22.53,38,17Z"/><path class="cls-3" d="M38,17V36a4.47,4.47,0,0,1-1.46,3.12C27.73,43.24,13,40.16,13,34V21.33C21.12,26.5,38,23.65,38,17Z"/><path class="cls-1" d="M38,36v4c0,2-1.61,3.73-4.21,5C25.09,49.27,10,46.27,10,40V36c0,2.59,2.81,4.85,7,6.06C25.58,44.56,38,41.77,38,36Z"/><path class="cls-3" d="M38,36c0,2.19.57,4.67-4.21,7-4.31,2.11-10.41,2.47-15.21,1.46A2.16,2.16,0,0,1,17,42.06C25.58,44.56,38,41.77,38,36Z"/><path class="cls-4" d="M15,25a1,1,0,0,0-2,0,1,1,0,0,0,2,0"/><path class="cls-4" d="M19,27a1,1,0,0,0-2,0,1,1,0,0,0,2,0"/><path class="cls-4" d="M23,29a1,1,0,0,0-2,0,1,1,0,0,0,2,0"/><path class="cls-4" d="M23,33a1,1,0,0,0-2,0,1,1,0,0,0,2,0"/><path class="cls-4" d="M23,37a1,1,0,0,0-2,0,1,1,0,0,0,2,0"/><path class="cls-4" d="M19,31a1,1,0,0,0-2,0,1,1,0,0,0,2,0"/><path class="cls-4" d="M19,35a1,1,0,0,0-2,0,1,1,0,0,0,2,0"/><path class="cls-4" d="M19,39a1,1,0,0,0-2,0,1,1,0,0,0,2,0"/><path class="cls-4" d="M15,36.92a1,1,0,0,0-2,.15,1,1,0,0,0,2-.15"/><path class="cls-4" d="M15,29a1,1,0,0,0-2,0,1,1,0,0,0,2,0"/><path class="cls-4" d="M15,33a1,1,0,0,0-2,0,1,1,0,0,0,2,0"/><path class="cls-4" d="M33,25a1,1,0,0,1,2,0,1,1,0,0,1-2,0"/><path class="cls-4" d="M29,27a1,1,0,0,1,2,0,1,1,0,0,1-2,0"/><path class="cls-4" d="M25,29a1,1,0,0,1,2,0,1,1,0,0,1-2,0"/><path class="cls-4" d="M25,33a1,1,0,0,1,2,0,1,1,0,0,1-2,0"/><path class="cls-4" d="M25,37a1,1,0,0,1,2,0,1,1,0,0,1-2,0"/><path class="cls-4" d="M29,31a1,1,0,0,1,2,0,1,1,0,0,1-2,0"/><path class="cls-4" d="M29,35a1,1,0,0,1,2,0,1,1,0,0,1-2,0"/><path class="cls-4" d="M29,39a1,1,0,0,1,2,0,1,1,0,0,1-2,0"/><path class="cls-4" d="M33,36.92a1,1,0,0,1,2,.15,1,1,0,0,1-2-.15"/><path class="cls-4" d="M33,29a1,1,0,0,1,2,0,1,1,0,0,1-2,0"/><path class="cls-4" d="M33,33a1,1,0,0,1,2,0,1,1,0,0,1-2,0"/><path class="cls-5" d="M34,8c0,1.3-1.66,2-3,2-2.36,0-3.38-1.54-2.87-2.56C29.09,5.23,34,5.7,34,8Z"/><path class="cls-6" d="M33.87,7.45C32.89,5.19,28,5.75,28,8a1.87,1.87,0,0,0,1.13,1.55C28.29,7.61,31.69,6.28,33.87,7.45Z"/><path class="cls-5" d="M20,8c0,1.3-1.66,2-3,2-2.36,0-3.38-1.54-2.87-2.56C15.09,5.23,20,5.7,20,8Z"/><path class="cls-6" d="M19.87,7.45C18.89,5.19,14,5.75,14,8a1.87,1.87,0,0,0,1.13,1.55C14.29,7.61,17.69,6.28,19.87,7.45Z"/><path class="cls-7" d="M42,24a1,1,0,0,1-.71-1.71l4-4a1,1,0,0,1,1.42,1.42C42.34,24.08,42.56,24,42,24Z"/><path class="cls-7" d="M46,40c-.56,0-.3.12-4.71-4.29a1,1,0,0,1,1.42-1.42l4,4A1,1,0,0,1,46,40Z"/><path class="cls-7" d="M46,30H42a1,1,0,0,1,0-2h4A1,1,0,0,1,46,30Z"/><path class="cls-7" d="M6,24c-.56,0-.3.12-4.71-4.29a1,1,0,0,1,1.42-1.42l4,4A1,1,0,0,1,6,24Z"/><path class="cls-7" d="M2,40a1,1,0,0,1-.71-1.71l4-4a1,1,0,0,1,1.42,1.42C2.34,40.08,2.56,40,2,40Z"/><path class="cls-7" d="M6,30H2a1,1,0,0,1,0-2H6A1,1,0,0,1,6,30Z"/></g></svg>