<svg xmlns="http://www.w3.org/2000/svg" viewBox="0 0 48 48"><defs><style>.cls-1{fill:#82bcf4;}.cls-2{fill:#6fabe6;}.cls-3{fill:#5b9ad8;}.cls-4{fill:#7c7d7d;}.cls-5{fill:#919191;}.cls-6{fill:#374f68;}.cls-7{fill:#2c435e;}.cls-8{fill:#fc6;}</style></defs><title>Plug</title><g id="Plug"><path class="cls-1" d="M38,14a2,2,0,0,1-2,2H12a2,2,0,0,1,0-4H36A2,2,0,0,1,38,14Z"/><path class="cls-2" d="M38,14.34A2.07,2.07,0,0,1,35.88,16H19a2,2,0,0,1-2-2V12H36A2,2,0,0,1,38,14.34Z"/><path class="cls-3" d="M36,16c0,9.59.28,9.78-.8,10.6C31.51,29.37,32,28.36,32,33a2,2,0,0,1-2,2H18a2,2,0,0,1-2-2c0-3,.23-3.82-.8-4.6C13,26.78,12,26.33,12,25V16Z"/><path class="cls-2" d="M36,18c0,7.18.28,7.78-.8,8.6C33,28.22,32,28.67,32,30a2,2,0,0,1-2,2H21a2,2,0,0,1-2-2c0-1.76.22-2.82-.8-3.6C16,24.78,15,24.33,15,23V20a2,2,0,0,1,2-2Z"/><path class="cls-4" d="M19,3v9H15V3a2,2,0,0,1,4,0Z"/><path class="cls-5" d="M19,3v8H18a1,1,0,0,1-1-1V1A2,2,0,0,1,19,3Z"/><path class="cls-4" d="M31,1a2,2,0,0,0-2,2v9h4V3A2,2,0,0,0,31,1Z"/><path class="cls-2" d="M26,39H22a2,2,0,0,1-2-2V35h8v2A2,2,0,0,1,26,39Z"/><path class="cls-3" d="M20,35v1h7c0,2.1.06,2.29-.18,2.82C28.3,38.15,28,36.64,28,35Z"/><rect class="cls-6" x="22" y="39" width="4" height="8"/><polygon class="cls-7" points="22 39 22 40 25 40 25 47 26 47 26 39 22 39"/><path class="cls-8" d="M25.41,27.59a2,2,0,0,0-2.82,0,1,1,0,0,1-1.42-1.42c2.64-2.64,7.15-.07,5.66,1.42A1,1,0,0,1,25.41,27.59Z"/><path class="cls-8" d="M28.24,24.76a6,6,0,0,0-8.48,0,1,1,0,0,1-1.42-1.42,8,8,0,0,1,11.32,0A1,1,0,0,1,28.24,24.76Z"/><path class="cls-8" d="M25,30a1,1,0,0,0-2,0,1,1,0,0,0,2,0"/><path class="cls-5" d="M33,3v8H32a1,1,0,0,1-1-1V1A2,2,0,0,1,33,3Z"/></g></svg>