<svg xmlns="http://www.w3.org/2000/svg" viewBox="0 0 48 48"><defs><style>.cls-1{fill:#919191;}.cls-2{fill:#374f68;}.cls-3{fill:#2c435e;}.cls-4{fill:#425b72;}.cls-5{fill:#6fabe6;}.cls-6{fill:#82bcf4;}.cls-7{fill:#edebf2;}.cls-8{fill:#dad7e5;}.cls-9{fill:#fc6;}.cls-10{fill:#c6c3d8;}</style></defs><title>Wireless Charging</title><g id="Wireless_Charging" data-name="Wireless Charging"><path class="cls-1" d="M34,4H31a1,1,0,0,1,0-2h3A1,1,0,0,1,34,4Z"/><path class="cls-1" d="M34,8H31a1,1,0,0,1,0-2h3A1,1,0,0,1,34,8Z"/><path class="cls-2" d="M40.5,47A6.51,6.51,0,0,1,34,40.5v-11A4.51,4.51,0,0,0,29.5,25H28a1,1,0,0,1,0-2h1.5A6.51,6.51,0,0,1,36,29.5v11a4.5,4.5,0,0,0,9,0V13a7,7,0,0,0-7-7,1,1,0,0,1-1-1c0-2.76,10-.11,10,8V40.5A6.51,6.51,0,0,1,40.5,47Z"/><path class="cls-3" d="M35,30.5v11a4.49,4.49,0,0,0,8.13,2.63A4.49,4.49,0,0,1,36,40.5v-11A6.51,6.51,0,0,0,29.5,23H28a1,1,0,0,0-1,1h1.5A6.51,6.51,0,0,1,35,30.5Z"/><path class="cls-4" d="M37,5a9,9,0,0,1,9,9V41.5a6.42,6.42,0,0,1-1.44,4.06A6.45,6.45,0,0,0,47,40.5V13C47,4.94,37,2.22,37,5Z"/><path class="cls-5" d="M37.94,7.29C36.58,9.25,34.65,9,33,9V1h1.67A4,4,0,0,1,37.94,7.29Z"/><path class="cls-6" d="M37.94,7.29C36.72,8.15,35.65,8,34,8V1h.67A4,4,0,0,1,37.94,7.29Z"/><path class="cls-7" d="M29,24a13.75,13.75,0,0,1-1.93,7.07C19.91,43.35,1,38.24,1,24a14,14,0,0,1,28,0Z"/><path class="cls-8" d="M26.2,32.38C18.16,43.13,1,37.42,1,24A14,14,0,0,1,6.62,12.8,14,14,0,0,0,26.2,32.38Z"/><path class="cls-9" d="M14.05,26.68,14.61,25H14a1,1,0,0,1-.95-1.32l1-3a1,1,0,0,1,1.9.64L15.39,23c.65,0,1.07-.07,1.42.42s.23.63-.86,3.9A1,1,0,0,1,14.05,26.68Z"/><path class="cls-10" d="M9.75,28.24a6,6,0,0,1,0-8.48,1,1,0,0,1,1.42,1.4,4,4,0,0,0,0,5.68A1,1,0,0,1,9.75,28.24Z"/><path class="cls-10" d="M8.34,29.65a1,1,0,0,1-.21,1.57A14,14,0,0,1,4,23.36,9.81,9.81,0,0,1,6,18c.67-.92,1.51-1.83,2.31-1a1,1,0,0,1,0,1.41A8,8,0,0,0,8.34,29.65Z"/><path class="cls-10" d="M8.13,31.22a1,1,0,0,1-1.2-.15A9.92,9.92,0,0,1,4,23.36,14,14,0,0,0,8.13,31.22Z"/><path class="cls-10" d="M20,28.54a1,1,0,0,1-.71-1.7,4,4,0,0,0,0-5.68,1,1,0,0,1,1.42-1.4C24.18,23.27,21.62,28.54,20,28.54Z"/><path class="cls-10" d="M21.35,30.65a9.39,9.39,0,0,0,0-13.3A1.18,1.18,0,0,1,23,15.68a11.75,11.75,0,0,1,0,16.64A1.18,1.18,0,0,1,21.35,30.65Z"/></g></svg>