<svg xmlns="http://www.w3.org/2000/svg" viewBox="0 0 48 48"><defs><style>.cls-1{fill:#374f68;}.cls-2{fill:#425b72;}.cls-3{fill:#dad7e5;}.cls-4{fill:#edebf2;}.cls-5{fill:#db5669;}.cls-6{fill:#f26674;}</style></defs><title>Low Battery</title><g id="Low_Battery" data-name="Low Battery"><rect class="cls-1" x="12" y="7" width="24" height="40"/><path class="cls-2" d="M14,7H36a0,0,0,0,1,0,0V45a0,0,0,0,1,0,0H16a2,2,0,0,1-2-2V7A0,0,0,0,1,14,7Z"/><rect class="cls-1" x="20" y="1" width="8" height="6"/><path class="cls-2" d="M28,1V5H24a2,2,0,0,1-2-2V1Z"/><rect class="cls-3" x="16" y="11" width="16" height="26"/><rect class="cls-4" x="18" y="11" width="14" height="26"/><rect class="cls-5" x="16" y="37" width="16" height="6"/><path class="cls-6" d="M32,37v4H20a2,2,0,0,1-2-2V37Z"/><polygon class="cls-6" points="27 15 26 25 22 25 21 15 27 15"/><circle class="cls-6" cx="24" cy="31" r="2"/></g></svg>