<svg xmlns="http://www.w3.org/2000/svg" viewBox="0 0 48 48"><defs><style>.cls-1{fill:#dad7e5;}.cls-2{fill:#edebf2;}.cls-3{fill:#c6c3d8;}.cls-4{fill:#7c7d7d;}.cls-5{fill:#919191;}</style></defs><title>Socket USA</title><g id="Socket_USA" data-name="Socket USA"><path class="cls-1" d="M47,9V39a8,8,0,0,1-8,8H9a8,8,0,0,1-8-8V9A8,8,0,0,1,8,1.06C8.71,1,6.1,1,39,1A8,8,0,0,1,47,9Z"/><path class="cls-2" d="M47,9c0,41,0,27.1,0,30.07A6.13,6.13,0,0,1,40.8,45H11a8,8,0,0,1-8-8V6.91A5.84,5.84,0,0,1,8,1.06C8.8,1,39.1,1,39,1A8,8,0,0,1,47,9Z"/><path class="cls-3" d="M43,9c0,32.48.23,30.66-.54,32A4,4,0,0,1,39,43H9a4,4,0,0,1-4-4V9A4,4,0,0,1,8,5.13C8.66,4.94,6.06,5,39,5A4,4,0,0,1,43,9Z"/><path class="cls-1" d="M9,40a1,1,0,0,1-1-1V9a1,1,0,0,1,.74-1C9,8,38.1,8,38,8a2,2,0,0,1,2,2V39a1,1,0,0,1-1,1Z"/><path class="cls-2" d="M39,24A15,15,0,1,1,18.39,10.09,15,15,0,0,1,39,24Z"/><path class="cls-3" d="M14.27,12.6A14.85,14.85,0,0,1,21,11c14,0,20.27,17.4,9.72,26.4A15,15,0,1,0,14.27,12.6Z"/><path class="cls-4" d="M27,32v1H21a4.23,4.23,0,0,1,.44-2.56A3,3,0,0,1,27,32Z"/><path class="cls-5" d="M26,33H21a4.23,4.23,0,0,1,.44-2.56A3,3,0,0,1,26,33Z"/><rect class="cls-4" x="28" y="17" width="4" height="8"/><rect class="cls-5" x="28" y="18" width="3" height="7"/><rect class="cls-4" x="16" y="17" width="4" height="8"/><rect class="cls-5" x="16" y="18" width="3" height="7"/></g></svg>