<svg xmlns="http://www.w3.org/2000/svg" viewBox="0 0 48 48"><defs><style>.cls-1{fill:#6fabe6;}.cls-2{fill:#82bcf4;}.cls-3{fill:#374f68;}.cls-4{fill:#425b72;}.cls-5{fill:#c6c3d8;}.cls-6{fill:#dad7e5;}.cls-7{fill:#2c435e;}.cls-12,.cls-8{fill:#edebf2;}.cls-9{fill:#9fdbf3;}.cls-10{fill:#8bd1ea;}.cls-11{fill:#fc6;}.cls-12{opacity:0.2;}</style></defs><title>Router</title><g id="Router"><path class="cls-1" d="M47,28V38H1V28a2,2,0,0,1,2-2H45A2,2,0,0,1,47,28Z"/><path class="cls-2" d="M47,28V38H6V26H45A2,2,0,0,1,47,28Z"/><path class="cls-3" d="M47,38v2a2,2,0,0,1-2,2H3a2,2,0,0,1-2-2V38Z"/><path class="cls-4" d="M47,38v2H8a2,2,0,0,1-2-2Z"/><rect class="cls-5" x="4" y="22" width="8" height="4"/><rect class="cls-6" x="6" y="22" width="6" height="3"/><rect class="cls-5" x="36" y="22" width="8" height="4"/><rect class="cls-6" x="36" y="22" width="8" height="3"/><polygon class="cls-3" points="11 46 5 46 4 42 12 42 11 46"/><polygon class="cls-7" points="4 42 4.25 43 11 43 10.25 46 11 46 12 42 4 42"/><polygon class="cls-3" points="43 46 37 46 36 42 44 42 43 46"/><polygon class="cls-7" points="36 42 36.25 43 43 43 42.25 46 43 46 44 42 36 42"/><path class="cls-8" d="M10,4V22H6V4a2,2,0,0,1,4,0Z"/><path class="cls-6" d="M42,4V22H38V4a2,2,0,0,1,4,0Z"/><path class="cls-8" d="M42,4.22V22H38V4.22a2,2,0,1,1,4,0Z"/><rect class="cls-9" x="5" y="30" width="18" height="4"/><polygon class="cls-10" points="5 30 5 31 22 31 22 34 23 34 23 30 5 30"/><circle class="cls-4" cx="41" cy="32" r="2"/><path class="cls-4" d="M35,32a2,2,0,1,1-2.82-1.82A2,2,0,0,1,35,32Z"/><path class="cls-11" d="M25.41,16.59a2,2,0,0,0-2.82,0,1,1,0,0,1-1.42-1.42,4,4,0,0,1,5.66,0A1,1,0,0,1,25.41,16.59Z"/><path class="cls-11" d="M28.24,13.76a6,6,0,0,0-8.48,0,1,1,0,0,1-1.42-1.42,8,8,0,0,1,11.32,0A1,1,0,0,1,28.24,13.76Z"/><path class="cls-11" d="M25,19a1,1,0,0,0-2,0,1,1,0,0,0,2,0"/><path class="cls-12" d="M16,30l4,4h3V30Z"/><polygon class="cls-12" points="18 34 14 30 11 30 15 34 18 34"/><polygon class="cls-12" points="12 34 8 30 6 30 10 34 12 34"/></g></svg>