<svg id="Protect_Shield" data-name="Protect Shield" xmlns="http://www.w3.org/2000/svg" viewBox="0 0 48 48"><defs><style>.cls-1{fill:#374f68;}.cls-2{fill:#6fabe6;}.cls-3{fill:#82bcf4;}.cls-4{fill:#5b9ad8;}.cls-5{fill:#dad7e5;}.cls-6{fill:#edebf2;}.cls-7{fill:#fc6;}</style></defs><title>Protect Shield</title><path class="cls-1" d="M45,12,43.22,22.84A33.06,33.06,0,0,1,24,47,33,33,0,0,1,4.78,22.84L3,12,24,1Z"/><path class="cls-2" d="M45,12c-1.66,10.1-2.3,26.78-21,35A33,33,0,0,1,4.78,22.84L3,12,24,1Z"/><path class="cls-3" d="M24,44.8A31,31,0,0,1,6.75,22.47L5.21,13.1,24,3.26,42.79,13.1C41.3,22.18,41,30.7,32.37,39A31,31,0,0,1,24,44.8Z"/><path class="cls-4" d="M41,14c-1.45,9.15-1.5,10.1-2.43,12.81A27.1,27.1,0,0,1,24,43,27.34,27.34,0,0,1,8.44,23.06L7,14,24,5Z"/><path class="cls-2" d="M41,14c-1.45,9.15-1.5,10.1-2.43,12.81a27.49,27.49,0,0,1-6.11,8.75,9.48,9.48,0,0,1-13.13-.2c-7.63-7.45-8-15.79-9.13-23L24,5Z"/><path class="cls-5" d="M33,24a9,9,0,1,1-10.5-8.88A9,9,0,0,1,33,24Z"/><path class="cls-6" d="M24,15a8.94,8.94,0,0,0-7.29,3.73A8.86,8.86,0,0,1,22,17a9,9,0,0,1,7.28,14.28A9,9,0,0,0,24,15Z"/><path class="cls-7" d="M25.41,25.59a2,2,0,0,0-2.82,0,1,1,0,0,1-1.42-1.42c2.64-2.63,7.15-.08,5.66,1.42A1,1,0,0,1,25.41,25.59Z"/><path class="cls-7" d="M28.24,22.76a6,6,0,0,0-8.48,0,1,1,0,0,1-1.42-1.42,8,8,0,0,1,11.32,0A1,1,0,0,1,28.24,22.76Z"/><path class="cls-7" d="M25,28a1,1,0,0,0-2,0,1,1,0,0,0,2,0"/></svg>