<svg xmlns="http://www.w3.org/2000/svg" viewBox="0 0 48 48"><defs><style>.cls-1{fill:#425b72;}.cls-2{fill:#374f68;}.cls-3{fill:#2c435e;}.cls-4{fill:#dad7e5;}.cls-5{fill:#c6c3d8;}.cls-6{fill:#6fabe6;}.cls-7{fill:#db5669;}</style></defs><title>Home and Wiring</title><g id="Home_and_Wiring" data-name="Home and Wiring"><path class="cls-1" d="M47,19l-2,4L24,10,3,23,1,19,24,5Z"/><path class="cls-2" d="M14,2v9.09L8,14.74V2Z"/><rect class="cls-3" x="8" y="2" width="4" height="3"/><polygon class="cls-1" points="14 5 14 11.09 12 12.31 12 5 14 5"/><rect class="cls-2" x="12" y="2" width="2" height="3"/><path class="cls-2" d="M14,3H8A1,1,0,0,1,8,1h6A1,1,0,0,1,14,3Z"/><path class="cls-1" d="M15,2H9A1,1,0,0,1,8,1h6A1,1,0,0,1,15,2Z"/><path class="cls-4" d="M40,19.9V45a2,2,0,0,1-2,2H10a2,2,0,0,1-2-2V19.91L24,10Z"/><path class="cls-5" d="M40,44v1a2,2,0,0,1-2,2H10a2,2,0,0,1-2-1.8V20h3V40a4,4,0,0,0,4,4Z"/><path class="cls-2" d="M19,32V30a1,1,0,0,1,2,0v2A1,1,0,0,1,19,32Z"/><path class="cls-2" d="M27,32V30a1,1,0,0,1,2,0v2A1,1,0,0,1,27,32Z"/><path class="cls-6" d="M24,40v7H20V42a2,2,0,0,1-1.41-.59C17.8,40.64,18,40.67,18,32h4v6A2,2,0,0,1,24,40Z"/><path class="cls-7" d="M30,32c0,8.55.2,8.64-.59,9.41A2,2,0,0,1,28,42v5H24V40a2,2,0,0,1,2-2V32Z"/><path class="cls-6" d="M22,23H21V22a1,1,0,0,0-2,0v1H18a1,1,0,0,0,0,2h1v1a1,1,0,0,0,2,0V25h1A1,1,0,0,0,22,23Z"/><path class="cls-7" d="M30,25H26a1,1,0,0,1,0-2h4A1,1,0,0,1,30,25Z"/><path class="cls-2" d="M46,21l-1,2L24,10,3,23,1.53,20.07,23,7Z"/><path class="cls-5" d="M40,19.9v3.62L23,13,8,22.29V19.91L24,10Z"/></g></svg>