<svg xmlns="http://www.w3.org/2000/svg" viewBox="0 0 48 48"><defs><style>.cls-1{fill:#dad7e5;}.cls-2{fill:#edebf2;}.cls-3{fill:#fc6;}.cls-4{fill:#c6c3d8;}.cls-5{fill:#f29b75;}</style></defs><title>Key Card</title><g id="Key_Card" data-name="Key Card"><path class="cls-1" d="M47,18V36H1V18a2,2,0,0,1,2-2H45A2,2,0,0,1,47,18Z"/><path class="cls-2" d="M47,18V36H4V16H44.85A2.09,2.09,0,0,1,47,18Z"/><path class="cls-3" d="M20.88,8.88C20.88,7.84,22.72,7,24,7c1.76,0,4,1.45,2.83,2.59a1,1,0,0,1-1.42,0,2,2,0,0,0-2.82,0A1,1,0,0,1,20.88,8.88Z"/><path class="cls-3" d="M18.05,6.05c0-1.78,6.87-5.45,11.61-.71a1,1,0,0,1-1.42,1.42,6,6,0,0,0-8.48,0A1,1,0,0,1,18.05,6.05Z"/><path class="cls-3" d="M25,12a1,1,0,0,0-2,0,1,1,0,0,0,2,0"/><path class="cls-4" d="M47,36v6a2,2,0,0,1-2,2H3a2,2,0,0,1-2-2V36Z"/><path class="cls-1" d="M47,36v6H6a2,2,0,0,1-2-2V36Z"/><path class="cls-5" d="M38.87,27.29A6,6,0,0,1,27.35,28H22v2a1,1,0,0,1-1,1H19a1,1,0,0,1-1-1V28H14v1a1,1,0,0,1-1,1H10a1,1,0,0,1-1-1V26a2,2,0,0,1,2-2H27.35a6,6,0,0,1,11.52,3.29Z"/><circle class="cls-2" cx="33" cy="26" r="2"/><path class="cls-2" d="M5,41H1V39H5A1,1,0,0,1,5,41Z"/><path class="cls-2" d="M9,39a1,1,0,0,0,0,2H47V39Z"/></g></svg>