<svg xmlns="http://www.w3.org/2000/svg" viewBox="0 0 48 48"><defs><style>.cls-1{fill:#7c7d7d;}.cls-2{fill:#919191;}.cls-3{fill:#dad7e5;}.cls-4{fill:#edebf2;}.cls-5{fill:#fc6;}.cls-6{fill:#c6c3d8;}</style></defs><title>Smoke Detector</title><g id="Smoke_Detector" data-name="Smoke Detector"><path class="cls-1" d="M47,9c0,1.94.13,2.83-.54,4A4,4,0,0,1,43,15H5a4,4,0,0,1-4-4V9A2,2,0,0,1,3,7H45A2,2,0,0,1,47,9Z"/><path class="cls-2" d="M47,9a5.09,5.09,0,0,1-.54,3H10A5,5,0,0,1,5,7H45A2,2,0,0,1,47,9Z"/><path class="cls-3" d="M8,15l.86,6H15v4H9.43l.33,2.28a2,2,0,0,0,2,1.72H36.26a2,2,0,0,0,2-1.72c0-.37,0,0,.33-2.28H33V21h6.14c.69-4.81.49-3.48.86-6ZM29,25H19V21H29Z"/><path class="cls-4" d="M13,15v6h2v4H13a2,2,0,0,0,2,2H38.28l.29-2H33V21h6.14c.69-4.81.49-3.48.86-6ZM29,25H19V21H29Z"/><path class="cls-5" d="M21.17,35.41a1,1,0,0,1,1.42,0,2,2,0,0,0,2.82,0,1,1,0,0,1,1.42,1.42C24.14,39.52,19.69,36.9,21.17,35.41Z"/><path class="cls-5" d="M18.34,39.66a1,1,0,0,1,1.42-1.42,6,6,0,0,0,8.48,0,1,1,0,0,1,1.42,1.42A8,8,0,0,1,18.34,39.66Z"/><path class="cls-5" d="M23,33a1,1,0,0,0,2,0,1,1,0,0,0-2,0"/><polygon class="cls-6" points="13 15 13 17 8.29 17 8 15 13 15"/><polygon class="cls-3" points="40 15 39.71 17 13 17 13 15 40 15"/></g></svg>