<svg xmlns="http://www.w3.org/2000/svg" viewBox="0 0 48 48"><defs><style>.cls-1{fill:#dad7e5;}.cls-2{fill:#edebf2;}.cls-3{fill:#c6c3d8;}.cls-4{fill:#7c7d7d;}.cls-5{fill:#919191;}.cls-6{fill:#fc6;}</style></defs><title>Toilet</title><g id="Toilet"><path class="cls-1" d="M17,3V25H5V3A2,2,0,0,1,7,1h8A2,2,0,0,1,17,3Z"/><path class="cls-2" d="M17,3V23H9a2,2,0,0,1-2-2V1h8A2,2,0,0,1,17,3Z"/><path class="cls-3" d="M11,6H5V4h6A1,1,0,0,1,11,6Z"/><path class="cls-3" d="M17,4V6H15a1,1,0,0,1,0-2Z"/><path class="cls-1" d="M43,25H17V21H39A4,4,0,0,1,43,25Z"/><path class="cls-2" d="M42.46,23H21a2,2,0,0,1-2-2H39A4,4,0,0,1,42.46,23Z"/><path class="cls-4" d="M18,12H13.72a2,2,0,1,1,0-2H18A1,1,0,0,1,18,12Z"/><path class="cls-1" d="M17,12v1H13.72a2,2,0,0,1-3.65-1.5,2,2,0,0,0,3.65.5Z"/><path class="cls-5" d="M19,11H13a1,1,0,0,1-1-1V9a2,2,0,0,1,1.72,1H18A1,1,0,0,1,19,11Z"/><path class="cls-1" d="M35,47H5c4.53-11.32,4.44-8.75,0-22H17A12,12,0,0,0,29,37h2c6.12,0,8.66-4,9-4l-8,9Z"/><path class="cls-2" d="M43,25a12,12,0,0,1-7.2,11c-2.52,1.12-4.42,1-6.8,1A12,12,0,0,1,17,25Z"/><path class="cls-1" d="M31,36A12,12,0,0,1,19.05,25H17A12,12,0,0,0,29,37c2.93,0,5.17.15,8.34-1.83C35,36.12,33.29,36,31,36Z"/><path class="cls-3" d="M17,25H15A12,12,0,0,0,27,37h2A12,12,0,0,1,17,25Z"/><path class="cls-3" d="M32,42l.6,1H12a1,1,0,0,1,0-2H32.89Z"/><path class="cls-6" d="M31.41,12.59a2,2,0,0,0-2.82,0,1,1,0,0,1-1.42-1.42c2.64-2.64,7.15-.07,5.66,1.42A1,1,0,0,1,31.41,12.59Z"/><path class="cls-6" d="M34.24,9.76a6,6,0,0,0-8.48,0,1,1,0,0,1-1.42-1.42,8,8,0,0,1,11.32,0A1,1,0,0,1,34.24,9.76Z"/><path class="cls-6" d="M31,15a1,1,0,0,0-2,0,1,1,0,0,0,2,0"/><path class="cls-3" d="M17.17,27H5.67L5,25H17A12,12,0,0,0,17.17,27Z"/></g></svg>