<svg xmlns="http://www.w3.org/2000/svg" viewBox="0 0 48 48"><defs><style>.cls-1{fill:#a87e6b;}.cls-2{fill:#a07765;}.cls-3{fill:#df8761;}.cls-4{fill:#f29b75;}.cls-5{fill:#ffde76;}.cls-6{fill:#9dcc6b;}.cls-7{fill:#b5e08c;}.cls-8{fill:#cc734c;}</style></defs><title>Plant</title><g id="Plant"><path class="cls-1" d="M26,16H25V11H23v9H22a1,1,0,0,0,0,2h1v3a1,1,0,0,0,2,0V18h1A1,1,0,0,0,26,16Z"/><rect class="cls-2" x="23" y="11" width="2" height="3"/><rect class="cls-3" x="10" y="25" width="28" height="4" rx="1"/><path class="cls-4" d="M38,26v1H13a1,1,0,0,1-1-1V25H37A1,1,0,0,1,38,26Z"/><path class="cls-3" d="M36,29c-3,17.9-2.69,16.58-3,17.06a2,2,0,0,1-1.7.94H16.69a2,2,0,0,1-2-1.67L12,29Z"/><path class="cls-5" d="M25.41,39.59a2,2,0,0,0-2.82,0,1,1,0,0,1-1.42-1.42c2.64-2.64,7.15-.07,5.66,1.42A1,1,0,0,1,25.41,39.59Z"/><path class="cls-5" d="M28.24,36.76a6,6,0,0,0-8.48,0,1,1,0,0,1-1.42-1.42,8,8,0,0,1,11.32,0A1,1,0,0,1,28.24,36.76Z"/><path class="cls-5" d="M25,42a1,1,0,0,0-2,0,1,1,0,0,0,2,0"/><path class="cls-6" d="M24,11H20a8,8,0,0,1-8-8V1h4a8,8,0,0,1,8,8Z"/><path class="cls-7" d="M16,1H12V3h3a8,8,0,0,1,8,8h1V9A8,8,0,0,0,16,1Z"/><path class="cls-6" d="M24,13h4a8,8,0,0,0,8-8V3H32a8,8,0,0,0-8,8Z"/><path class="cls-7" d="M32,3a8,8,0,0,0-7.58,5.45C27.19,4.45,31.06,5,35,5a12.36,12.36,0,0,1-.42,4.55C36.21,7.19,36,5.14,36,3Z"/><path class="cls-8" d="M35.67,31,36,29H12c3,17.82,2.69,16.56,3,17a2,2,0,0,0,1.67,1c0-.1-.59,0,14.63,0a2,2,0,0,0,1.7-.94V45H21.42a6,6,0,0,1-5.92-5L14,31Z"/></g></svg>