<svg xmlns="http://www.w3.org/2000/svg" viewBox="0 0 48 48"><defs><style>.cls-1{fill:#db5669;}.cls-2{fill:#f26674;}.cls-3{fill:#fc6;}.cls-4{fill:#ffde76;}.cls-5{fill:#ffba55;}.cls-6{fill:#919191;}</style></defs><title>Ticket</title><g id="Ticket"><path class="cls-1" d="M47,12v5H1V12H31a2,2,0,0,0,4,0Z"/><path class="cls-2" d="M47,12v3H7a3,3,0,0,1-3-3H31a2,2,0,0,0,4,0Z"/><path class="cls-3" d="M47,17V36H35a2,2,0,0,0-4,0H1V17Z"/><path class="cls-4" d="M47,17V34H21A17,17,0,0,1,4,17Z"/><path class="cls-5" d="M34,16a1,1,0,0,1-2,0c0-3.2-.25-2,1-2S34,12.83,34,16Z"/><path class="cls-5" d="M32,22V20a1,1,0,0,1,2,0v2A1,1,0,0,1,32,22Z"/><path class="cls-5" d="M32,28V26a1,1,0,0,1,2,0v2A1,1,0,0,1,32,28Z"/><path class="cls-5" d="M34,32a10.93,10.93,0,0,1,0,2.25,2,2,0,0,0-1.92,0A10.16,10.16,0,0,1,32,32,1,1,0,0,1,34,32Z"/><path class="cls-6" d="M25,23H5a1,1,0,0,1,0-2H25A1,1,0,0,1,25,23Z"/><path class="cls-6" d="M21,27H5a1,1,0,0,1,0-2H21A1,1,0,0,1,21,27Z"/><path class="cls-6" d="M17,31H5a1,1,0,0,1,0-2H17A1,1,0,0,1,17,31Z"/><path class="cls-6" d="M43,23H37a1,1,0,0,1,0-2h6A1,1,0,0,1,43,23Z"/><path class="cls-6" d="M43,26H39a1,1,0,0,1,0-2h4A1,1,0,0,1,43,26Z"/><path class="cls-6" d="M43,29H38a1,1,0,0,1,0-2h5A1,1,0,0,1,43,29Z"/><path class="cls-6" d="M43,32H37a1,1,0,0,1,0-2h6A1,1,0,0,1,43,32Z"/></g></svg>