<svg xmlns="http://www.w3.org/2000/svg" viewBox="0 0 48 48"><defs><style>.cls-1{fill:#9fdbf3;}.cls-2{fill:#b2e5fb;}.cls-3{fill:#dad7e5;}.cls-4{fill:#edebf2;}.cls-5{fill:#8bd1ea;}.cls-6{fill:#f16f39;}.cls-7{fill:#f8834b;}</style></defs><title>breakfast</title><g id="breakfast"><path class="cls-1" d="M43,24C43,42.75,18.28,50.27,8,34.24c0-16.38-.07-14.55.17-14.74A5,5,0,0,0,11,15V12H9.28A19,19,0,0,1,40,13.77V24Z"/><path class="cls-2" d="M41,26v6.22A19,19,0,0,1,8,30.47V19.59c3.46-1.73,3-4.42,3-7.59H9.28a19,19,0,0,1,28.91-.61C37.92,12.48,38,12.16,38,26Z"/><path class="cls-3" d="M47,4V24H40V11A7,7,0,0,1,47,4Z"/><path class="cls-4" d="M47,4c0,18.76-.1,18,0,18a5,5,0,0,1-5-5c0-8.06-.35-9.58,1.15-11.85A6.92,6.92,0,0,1,47,4Z"/><path class="cls-3" d="M47,24V42a2,2,0,0,1-4,0V24Z"/><path class="cls-4" d="M47,24V42a2,2,0,0,1-2-2V24Z"/><path class="cls-5" d="M39,24c0,3.87-1.71,7.82-3.46,9.57C26.54,44.4,9,37.92,9,24c0-3.86,1.7-7.8,3.47-9.58C21.42,3.65,39,10,39,24Z"/><path class="cls-1" d="M37,26c0,3.83-1.71,7.82-3.43,9.54A15,15,0,0,1,9,24c0-3.86,1.7-7.8,3.47-9.58C22.15,6.46,37,13.25,37,26Z"/><path class="cls-3" d="M32.66,30.66A6,6,0,0,1,24,32.37,6,6,0,0,1,15.63,24,6,6,0,0,1,24,15.63,6,6,0,0,1,32.37,24,6,6,0,0,1,32.66,30.66Z"/><path class="cls-4" d="M32.66,30.66a6,6,0,0,1-5.17.51,4.19,4.19,0,0,0-3,0,6,6,0,0,1-7.69-7.69,4.19,4.19,0,0,0,0-3,6,6,0,0,1,.51-5.17,6,6,0,0,1,6.66.29A6,6,0,0,1,32.37,24,6,6,0,0,1,32.66,30.66Z"/><path class="cls-6" d="M28,24a4,4,0,1,1-6.28-3.28A4,4,0,0,1,28,24Z"/><path class="cls-7" d="M27.28,26.28a4,4,0,0,1-5.56-5.56A4,4,0,0,1,27.28,26.28Z"/><path class="cls-3" d="M1,12V5A1,1,0,0,1,3,5v7A1,1,0,0,1,1,12Z"/><path class="cls-4" d="M9,12V5a1,1,0,0,1,2,0v7A1,1,0,0,1,9,12Z"/><path class="cls-4" d="M5,12V5A1,1,0,0,1,7,5v7A1,1,0,0,1,5,12Z"/><path class="cls-4" d="M11,12v3a5,5,0,0,1-3,4.59V42a2,2,0,0,1-4,0V19.59C.48,18,1,14.7,1,12Z"/><path class="cls-3" d="M6,40V20a4.88,4.88,0,0,0-1.53-3.45C2.93,15,3,13.4,3,12H1c0,2.78-.48,6,3,7.59V42a2,2,0,0,0,4,0A2,2,0,0,1,6,40Z"/></g></svg>