<svg xmlns="http://www.w3.org/2000/svg" viewBox="0 0 48 48"><defs><style>.cls-1{fill:#dad7e5;}.cls-2{fill:#edebf2;}</style></defs><title>Cutlery</title><g id="Cutlery"><path class="cls-1" d="M47,1c0,46.61,0,43.65,0,44a2.5,2.5,0,0,1-5-.46v-16A1.5,1.5,0,0,0,40.5,27,1.5,1.5,0,0,1,39,25.5V9A8,8,0,0,1,47,1Z"/><path class="cls-2" d="M47,1c0,46.61,0,43.65,0,44a2.54,2.54,0,0,1-3-2.52V28.28a4.06,4.06,0,0,0-2.24-3.47A1.52,1.52,0,0,1,41,23.5c0-17.61-.47-18.32,1.43-21.07A8,8,0,0,1,47,1Z"/><path class="cls-1" d="M35,14a8,8,0,0,1-5,7.42V44a3,3,0,0,1-6,0V21.42A8,8,0,0,1,19,14c0-4.42,3.58-13,8-13S35,9.58,35,14Z"/><path class="cls-2" d="M35,14a8,8,0,0,1-5,7.42c0,24.7.08,22.91-.18,23.57A3,3,0,0,1,27,42V22.72C27,17.86,22,18,22,12A19.25,19.25,0,0,1,26.21,1.09C31,0,35,9.24,35,14Z"/><path class="cls-2" d="M15,3V14a7,7,0,0,1-4,6.32V43.83A3.11,3.11,0,0,1,8.22,47,3,3,0,0,1,5,44V20.32A7,7,0,0,1,1,14V3A2,2,0,0,1,5,3v8H6V3a2,2,0,0,1,4,0v8h1V3a2,2,0,0,1,4,0Z"/><path class="cls-1" d="M7,42V21.37C7,17,3,16.89,3,12V1A2,2,0,0,0,1,3V14a7,7,0,0,0,4,6.32V44a3,3,0,0,0,5.82.88A3,3,0,0,1,7,42Z"/></g></svg>