<svg xmlns="http://www.w3.org/2000/svg" viewBox="0 0 48 48"><defs><style>.cls-1{fill:#dad7e5;}.cls-2{fill:#edebf2;}.cls-3{fill:#db5669;}.cls-4{fill:#f26674;}.cls-5{fill:#374f68;}</style></defs><title>Emergency Door</title><g id="Emergency_Door" data-name="Emergency Door"><rect class="cls-1" x="5" y="1" width="38" height="46"/><path class="cls-2" d="M43,1c0,45.32-.1,44,0,44A35,35,0,0,1,8,10V1Z"/><rect class="cls-3" x="10" y="6" width="28" height="41"/><path class="cls-4" d="M38,6c0,40.19-.1,39,0,39A25,25,0,0,1,13,20V6Z"/><path class="cls-1" d="M34,33H14a1,1,0,0,1-1-1V29a1,1,0,0,1,2,0v2H33V29a1,1,0,0,1,2,0v3A1,1,0,0,1,34,33Z"/><circle class="cls-5" cx="18" cy="11" r="2"/><path class="cls-5" d="M22.89,12.45a1,1,0,0,0-1.78-.9L20.38,13c-2.59,0-3.53,0-3.83.11-3,1.47-2.16.56-3.5,4.57a1,1,0,0,0,1.9.64c1.26-3.79,1.05-4,1.05,2.14l-2.55,1.71a1,1,0,0,0,1.1,1.66C18.53,21.18,18,22.12,18,19c.78,0,.32-.27,2,1.41V24a1,1,0,0,0,2,0c0-4.34.1-4.32-.29-4.71L20,17.59V15C21.92,15,21.5,15.24,22.89,12.45Z"/><polygon class="cls-1" points="34 18 30 22 30 20 25 20 25 16 30 16 30 14 34 18"/><path class="cls-2" d="M34,18l-1,1H30a3,3,0,0,1-3-3h3V14Z"/><path class="cls-5" d="M46,47H2a1,1,0,0,1,0-2H46A1,1,0,0,1,46,47Z"/></g></svg>