<svg xmlns="http://www.w3.org/2000/svg" viewBox="0 0 48 48"><defs><style>.cls-1{fill:#c6c3d8;}.cls-2{fill:#a87e6b;}.cls-3{fill:#be927c;}.cls-4{fill:#a07765;}.cls-5{fill:#dad7e5;}.cls-6{fill:#edebf2;}.cls-7{fill:#9dcc6b;}.cls-8{fill:#9fdbf3;}.cls-9{fill:#b2e5fb;}.cls-10{fill:#b5e08c;}.cls-11{fill:#fc6;}</style></defs><title>twin bed</title><g id="twin_bed" data-name="twin bed"><path class="cls-1" d="M32,9c-.47,0,0,.26-8-5.75L16.6,8.8a1,1,0,0,1-1.2-1.6l8-6a1,1,0,0,1,1.2,0l8,6A1,1,0,0,1,32,9Z"/><path class="cls-2" d="M20,26V39H2c0-13.77-.24-13.6.59-14.41A2,2,0,0,1,6,26v.88a14.68,14.68,0,0,1,10,0V26a2,2,0,0,1,4,0Z"/><path class="cls-3" d="M20,26.11V37H17A13,13,0,0,1,4,24a2,2,0,0,1,2,2v.88a14.68,14.68,0,0,1,10,0V26a2,2,0,0,1,.59-1.41A2,2,0,0,1,20,26.11Z"/><rect class="cls-2" x="1" y="39" width="20" height="4"/><path class="cls-3" d="M21,39v2H6a2,2,0,0,1-2-2Z"/><rect class="cls-4" x="1" y="43" width="4" height="4"/><path class="cls-2" d="M5,44v3H2A3,3,0,0,1,5,44Z"/><rect class="cls-4" x="17" y="43" width="4" height="4"/><path class="cls-2" d="M21,44v3H18A3,3,0,0,1,21,44Z"/><path class="cls-5" d="M20,37.12V39H2V37.12A2.12,2.12,0,0,1,4.12,35H17.88A2.12,2.12,0,0,1,20,37.12Z"/><path class="cls-6" d="M20,37.12V38H6.88a1.91,1.91,0,0,1-1.56-3H17.88A2.12,2.12,0,0,1,20,37.12Z"/><path class="cls-5" d="M14.41,34.41c-.82.84-1.7.59-5.41.59a2,2,0,0,1-1.41-3.41C8.41,30.75,9.29,31,13,31A2,2,0,0,1,14.41,34.41Z"/><path class="cls-6" d="M14.73,34H11a2,2,0,0,1-1.73-3H13A2,2,0,0,1,14.73,34Z"/><path class="cls-2" d="M46,26V39H28c0-13.77-.24-13.6.59-14.41A2,2,0,0,1,32,26v.88a14.68,14.68,0,0,1,10,0V26a2,2,0,0,1,4,0Z"/><path class="cls-3" d="M46,26.11V37H43A13,13,0,0,1,30,24a2,2,0,0,1,2,2v.88a14.68,14.68,0,0,1,10,0V26a2,2,0,0,1,.59-1.41A2,2,0,0,1,46,26.11Z"/><rect class="cls-2" x="27" y="39" width="20" height="4"/><path class="cls-3" d="M47,39v2H32a2,2,0,0,1-2-2Z"/><rect class="cls-4" x="27" y="43" width="4" height="4"/><path class="cls-2" d="M31,44v3H28A3,3,0,0,1,31,44Z"/><rect class="cls-4" x="43" y="43" width="4" height="4"/><path class="cls-2" d="M47,44v3H44A3,3,0,0,1,47,44Z"/><path class="cls-5" d="M46,37.12V39H28V37.12A2.12,2.12,0,0,1,30.12,35H43.88A2.12,2.12,0,0,1,46,37.12Z"/><path class="cls-6" d="M46,37.12V38H32.88a1.91,1.91,0,0,1-1.56-3H43.88A2.12,2.12,0,0,1,46,37.12Z"/><path class="cls-5" d="M40.41,34.41c-.82.84-1.7.59-5.41.59a2,2,0,0,1-1.41-3.41c.82-.84,1.7-.59,5.41-.59A2,2,0,0,1,40.41,34.41Z"/><path class="cls-6" d="M40.73,34H37a2,2,0,0,1-1.73-3H39A2,2,0,0,1,40.73,34Z"/><path class="cls-7" d="M33,15v4H15l7-6,2,2,4-4Z"/><path class="cls-8" d="M33,7v8l-5-4-4,4-2-2-7,6V7Z"/><path class="cls-9" d="M33,7v8l-5-4-4,4-2-2-1.15,1A10,10,0,0,1,18,7Z"/><path class="cls-10" d="M33,15v2c-5,0-8.64.58-12.15-3L22,13l2,2,4-4Z"/><path class="cls-11" d="M20,11a1,1,0,0,0-2,0A1,1,0,0,0,20,11Z"/><path class="cls-5" d="M33,6H15a1,1,0,0,0-1,1V19a1,1,0,0,0,1,1H33a1,1,0,0,0,1-1V7A1,1,0,0,0,33,6ZM16,18V8H32V18Z"/><path class="cls-6" d="M34,7V18H32V8H16V6H33A1,1,0,0,1,34,7Z"/></g></svg>