<svg xmlns="http://www.w3.org/2000/svg" viewBox="0 0 48 48"><defs><style>.cls-1{fill:#edb996;}.cls-2{fill:#f6ccaf;}.cls-3{fill:#425b72;}.cls-4{fill:#2c435e;}.cls-5{fill:#dad7e5;}.cls-6{fill:#edebf2;}.cls-7{fill:#374f68;}.cls-8{fill:#ffdec7;}.cls-9{fill:#be927c;}.cls-10{fill:#a87e6b;}</style></defs><title>Waiter</title><g id="Waiter"><path class="cls-1" d="M30,22.29c0,4.45.3,3-1.15,6.59a11.06,11.06,0,0,1-9.69,0C17.7,25.25,18,26.74,18,22.29A8,8,0,0,0,30,22.29Z"/><path class="cls-2" d="M30,25.93a20.55,20.55,0,0,1-1.15,2.95,11.15,11.15,0,0,1-8.25.61c-.41-1-.6-1.59-.6-1.49a2.11,2.11,0,0,1,3-1.89A7.51,7.51,0,0,0,26,27,7.94,7.94,0,0,0,30,25.93Z"/><path class="cls-3" d="M34,27.41V29a12.07,12.07,0,0,0-6.14,2.3c1.25-3.1.76-1.88,2.14-5.34Z"/><path class="cls-4" d="M24,36H23a4,4,0,0,0-4,4v7H9V29.18L18,26c1.46,3.62.73,1.81,3.26,8.14A3,3,0,0,0,24,36Z"/><path class="cls-5" d="M9,29.18V47H1V39.08a10,10,0,0,1,4-8A12.83,12.83,0,0,1,9,29.18Z"/><path class="cls-6" d="M9,29.18C9,45.81,8.9,45,9,45a6,6,0,0,1-6-6c0-2.64-.15-5.08,2-7.94A12.83,12.83,0,0,1,9,29.18Z"/><path class="cls-7" d="M25,47H19V40a4,4,0,0,1,4-4c.26,0,1,0,1.09,0C22.84,38.71,23,40.82,23,43h2a2,2,0,0,0,0,4Z"/><path class="cls-2" d="M32,12c0,4.71.37,7-1.44,9.57A8,8,0,0,1,18,22.29c-2.5-2.84-2-5.61-2-10.29,6.77,0,5.85.15,11-5A5,5,0,0,0,32,12Z"/><path class="cls-8" d="M32,14c0,3.08.27,5.12-1.44,7.57a8,8,0,0,1-10.22-.91c-2-2-2.34-4.14-2.34-6.66,4.64,0,4.55-.55,9-5A5,5,0,0,0,32,14Z"/><path class="cls-2" d="M36,14a2,2,0,0,1-2,2H32V12h2A2,2,0,0,1,36,14Z"/><path class="cls-2" d="M16,12v4H14a2,2,0,0,1,0-4Z"/><path class="cls-5" d="M47,45a2,2,0,0,1-2,2H25a2,2,0,0,1,0-4H45A2,2,0,0,1,47,45Z"/><path class="cls-6" d="M47,45H28a2,2,0,0,1-2-2H45A2,2,0,0,1,47,45Z"/><path class="cls-5" d="M28.85,28.88c-1.19,3-1,2.37-1,2.47C24.75,33.66,24.31,36,24,36a3,3,0,0,1-2.74-1.86l-2.1-5.26A11,11,0,0,0,28.85,28.88Z"/><path class="cls-6" d="M28.85,28.88c-1.19,3-1,2.37-1,2.47a12.12,12.12,0,0,0-3.06,3.32c-1.3-.65-1.44-1.62-2.72-4.82A11.08,11.08,0,0,0,28.85,28.88Z"/><path class="cls-5" d="M47,41v2H23c0-2.34-.13-4.35,1.09-7A12,12,0,0,1,47,41Z"/><path class="cls-6" d="M47,41H28a2,2,0,0,1-2-2,11.89,11.89,0,0,1,3.94-8.88A12,12,0,0,1,47,41Z"/><path class="cls-5" d="M36,27v2a13.35,13.35,0,0,0-2,0V27A1,1,0,0,1,36,27Z"/><path class="cls-9" d="M33,10v2H32a5,5,0,0,1-5-5c-5.43,5.43-4.22,5-12,5V10a9,9,0,0,1,18,0Z"/><path class="cls-10" d="M19,10a2,2,0,0,1-2-2,9,9,0,0,1,1.72-5.28A9,9,0,0,0,15,10v2c7,0,6.49.51,10.76-3.76A6,6,0,0,1,21.51,10Z"/><path class="cls-7" d="M24,36H23a4,4,0,0,0-4,4v5a7,7,0,0,1-7-7V28.12L18,26c1.46,3.62.73,1.81,3.26,8.14A3,3,0,0,0,24,36Z"/><path class="cls-3" d="M25,43a2,2,0,0,0-2,2H19V40a4,4,0,0,1,4-4c.26,0,1,0,1.09,0C22.84,38.71,23,40.82,23,43Z"/></g></svg>