<svg xmlns="http://www.w3.org/2000/svg" viewBox="0 0 48 48"><defs><style>.cls-1{fill:#b5e08c;}.cls-2{fill:#9dcc6b;}.cls-3{fill:#6fabe6;}.cls-4{fill:#82bcf4;}.cls-5{fill:#edebf2;}</style></defs><title>24 hour cutomer service</title><g id="_24_hour_cutomer_service" data-name="24 hour cutomer service"><path class="cls-1" d="M30,39a6,6,0,0,1-6,5A23,23,0,0,1,1,21a6,6,0,0,1,5-6l7,7a6,6,0,0,1-6,5A18,18,0,0,0,18,38a6,6,0,0,1,5-6Z"/><path class="cls-2" d="M25,42A23,23,0,0,1,2,19a6.21,6.21,0,0,1,.27-1.74A6.18,6.18,0,0,0,1,21,23,23,0,0,0,24,44a6,6,0,0,0,5.84-4.35A6.14,6.14,0,0,1,25,42Z"/><path class="cls-3" d="M47,7c0,13,.07,12.35-.18,13A3,3,0,0,1,44,22H31.24c-1.63,0-1.86.62-7.24,6l-2-6a3,3,0,0,1-3-3V7a3,3,0,0,1,3-3H44A3,3,0,0,1,47,7Z"/><path class="cls-4" d="M47,7c0,13,.07,12.35-.18,13H38A16,16,0,0,1,22,4c0-.1,22.1,0,22,0A3,3,0,0,1,47,7Z"/><path class="cls-5" d="M28,10.41A2.41,2.41,0,0,0,25.59,8H23a1,1,0,0,0,0,2c4.21,0,4.07-.48-.71,4.29A1,1,0,0,0,23,16h4a1,1,0,0,0,0-2H25.41C27.19,12.22,28,11.71,28,10.41Z"/><path class="cls-5" d="M33,9v2H31V9a1,1,0,0,0-2,0v3a1,1,0,0,0,1,1h3v2a1,1,0,0,0,2,0V9A1,1,0,0,0,33,9Z"/><path class="cls-5" d="M43,11H40V9a1,1,0,0,0-2,0v6a1,1,0,0,0,2,0V13h2v2a1,1,0,0,0,2,0V12A1,1,0,0,0,43,11Z"/></g></svg>