<svg xmlns="http://www.w3.org/2000/svg" viewBox="0 0 48 48"><defs><style>.cls-1{fill:#dad7e5;}.cls-2{fill:#edebf2;}.cls-3{fill:#7c7d7d;}.cls-4{fill:#919191;}.cls-5{fill:#b2e5fb;}.cls-6{fill:#9fdbf3;}.cls-7{fill:#6fabe6;}.cls-8{fill:#9dcc6b;}.cls-9{fill:#c6c3d8;}.cls-10{fill:#b5e08c;}.cls-11{fill:#82bcf4;}</style></defs><title>laundry</title><g id="laundry"><rect class="cls-1" x="1" y="9" width="36" height="38"/><path class="cls-2" d="M37,9c0,37.25-.1,36,0,36A33,33,0,0,1,4,12V9Z"/><rect class="cls-3" x="1" y="1" width="12" height="8"/><path class="cls-4" d="M13,1V7H10A6,6,0,0,1,4,1Z"/><rect class="cls-1" x="13" y="1" width="24" height="8"/><path class="cls-2" d="M37,1V7H19a6,6,0,0,1-6-6Z"/><path class="cls-3" d="M23.59,31.59A2,2,0,0,0,25,35a2,2,0,0,0,0,4h.92a13,13,0,1,1,5.73-8C24.53,31,24.36,30.8,23.59,31.59Z"/><path class="cls-4" d="M31.65,31H25a2,2,0,0,0,0,4,2,2,0,0,0-.83,3.82C11.31,41,3.68,24.82,13.39,16.27A13,13,0,0,1,31.65,31Z"/><path class="cls-5" d="M27,23.83A3,3,0,0,1,23,21c0-1.14.5-.85-.31-1.2A8.65,8.65,0,0,0,19,19a9,9,0,1,0,8,4.83Z"/><path class="cls-6" d="M27,23.83A3,3,0,0,1,23,21c0-1.14.5-.85-.31-1.2-3.1-1.67-8.21-.87-11,2.92a9,9,0,0,1,9-.92c.8.35.31.05.31,1.2a3,3,0,0,0,4,2.83C28.12,32.12,23,36.31,24.59,35,25.32,35,30,29.83,27,23.83Z"/><path class="cls-3" d="M19,3a2,2,0,1,0,1.82,2.82A2,2,0,0,0,19,3Z"/><path class="cls-4" d="M18.18,3.18a2,2,0,0,0,2.64,2.64A2,2,0,0,0,18.18,3.18Z"/><path class="cls-7" d="M32,6V4a1,1,0,0,1,2,0V6A1,1,0,0,1,32,6Z"/><path class="cls-7" d="M28,6V4a1,1,0,0,1,2,0V6A1,1,0,0,1,28,6Z"/><path class="cls-7" d="M46.41,43.59A2,2,0,0,1,45,47H27a4,4,0,0,1,0-8c19.36,0,18.61-.24,19.41.59A2,2,0,0,1,45,43,2,2,0,0,1,46.41,43.59Z"/><path class="cls-8" d="M47,35a4,4,0,0,1-4,4H25a2,2,0,0,1-1.41-3.41A2,2,0,0,1,25,35a2,2,0,0,1,0-4H43A4,4,0,0,1,47,35Z"/><rect class="cls-9" x="5" y="43" width="4" height="4"/><path class="cls-10" d="M46.46,37H32a6,6,0,0,1-6-6H42.81A4,4,0,0,1,46.46,37Z"/><path class="cls-11" d="M47,45H31.87A5.87,5.87,0,0,1,26,39.13c.66-.18-.62-.13,19-.13a2,2,0,0,1,0,4A2,2,0,0,1,47,45Z"/><path class="cls-7" d="M44,44H30a1,1,0,0,1,0-2H44A1,1,0,0,1,44,44Z"/><path class="cls-8" d="M40,36H26a1,1,0,0,1,0-2H40A1,1,0,0,1,40,36Z"/></g></svg>