<svg xmlns="http://www.w3.org/2000/svg" viewBox="0 0 48 48"><defs><style>.cls-1{fill:#c6c3d8;}.cls-2{fill:#dad7e5;}.cls-3{fill:#edebf2;}.cls-4{fill:#9fdbf3;}.cls-5{fill:#b2e5fb;}.cls-6{fill:#7c7d7d;}.cls-7{fill:#747575;}.cls-8{fill:#919191;}.cls-9{fill:#8bd1ea;}</style></defs><title>Swimming pool</title><g id="Swimming_pool" data-name="Swimming pool"><rect class="cls-1" x="1" y="7" width="46" height="4"/><path class="cls-2" d="M3,7H18V9H5A2,2,0,0,1,3,7Z"/><rect class="cls-2" x="22" y="7" width="12" height="2"/><rect class="cls-2" x="38" y="7" width="9" height="2"/><rect class="cls-2" x="1" y="11" width="46" height="25"/><path class="cls-2" d="M47,13V27c-3.45,3.45-8.83,2.49-13,0-5-3-10,0-10,0-3.08,3.08-7.84,2.67-11.79.66A21,21,0,0,1,4.1,13Z"/><path class="cls-3" d="M4.1,13H18V29.23a13.34,13.34,0,0,1-5.79-1.57A21,21,0,0,1,4.1,13Z"/><path class="cls-3" d="M34,13V27c-5-3-10,0-10,0a7.3,7.3,0,0,1-2,1.42V13Z"/><path class="cls-3" d="M47,13V27c-2.38,2.38-5.77,2.67-9,1.77V13Z"/><path class="cls-4" d="M47,29V47H1V29a10.14,10.14,0,0,1,10,0c4.24,2.54,9.59,3.41,13,0,0,0,5-3,10,0C38.17,31.49,43.55,32.45,47,29Z"/><path class="cls-5" d="M47,29V45H21.09A17.09,17.09,0,0,1,4,27.91,9.47,9.47,0,0,1,11,29c4.24,2.54,9.59,3.41,13,0,0,0,5-3,10,0C38.17,31.49,43.55,32.45,47,29Z"/><path class="cls-6" d="M42,1a2,2,0,0,0-2,2V31.16A13,13,0,0,1,36,30V3a2,2,0,0,1,2-2Z"/><path class="cls-7" d="M44,3V7H40V3a2,2,0,0,1,4,0Z"/><path class="cls-6" d="M26,1a2,2,0,0,0-2,2V29a7.57,7.57,0,0,1-4,2.08V3a2,2,0,0,1,2-2Z"/><path class="cls-8" d="M26,1a2,2,0,0,0-2,2V27a1.18,1.18,0,0,1-2-.85V3a2,2,0,0,1,2-2Z"/><path class="cls-7" d="M28,3V7H24V3a2,2,0,0,1,4,0Z"/><rect class="cls-6" x="24" y="18" width="12" height="4"/><path class="cls-8" d="M36,18v2H28a2,2,0,0,1-2-2Z"/><path class="cls-9" d="M8,38.45c-1.57,0-1.62-1.32-2.27-.73a1,1,0,0,1-1.4-1.43,2.36,2.36,0,0,1,3.42,0c.11.11.28.28.6,0a1,1,0,0,1,1.4,1.43A2.57,2.57,0,0,1,8,38.45Z"/><path class="cls-9" d="M18,44.45c-1.57,0-1.62-1.32-2.27-.73a1,1,0,0,1-1.4-1.43,2.36,2.36,0,0,1,3.42,0c.11.12.28.28.6,0a1,1,0,0,1,1.4,1.43A2.57,2.57,0,0,1,18,44.45Z"/><path class="cls-9" d="M31,36.45c-1.57,0-1.62-1.32-2.27-.73a1,1,0,0,1-1.4-1.43,2.36,2.36,0,0,1,3.42,0c.11.11.28.28.6,0a1,1,0,0,1,1.4,1.43A2.57,2.57,0,0,1,31,36.45Z"/><path class="cls-9" d="M42.46,44c-1.57,0-1.62-1.32-2.27-.73a1,1,0,0,1-1.4-1.43,2.36,2.36,0,0,1,3.42,0c.11.11.28.28.6,0a1,1,0,0,1,1.4,1.43A2.57,2.57,0,0,1,42.46,44Z"/><path class="cls-8" d="M42,1a2,2,0,0,0-2,2V29a2.58,2.58,0,0,1-2-2.51V3a2,2,0,0,1,2-2Z"/></g></svg>