<svg xmlns="http://www.w3.org/2000/svg" viewBox="0 0 48 48"><defs><style>.cls-1{fill:#dad7e5;}.cls-2{fill:#edebf2;}.cls-3{fill:#df8761;}.cls-4{fill:#a87e6b;}.cls-5{fill:#be927c;}.cls-6{fill:#c6c3d8;}.cls-7{fill:#747575;}.cls-8{fill:#7c7d7d;}</style></defs><title>Smoking area</title><g id="Smoking_area" data-name="Smoking area"><rect class="cls-1" x="12" y="9" width="18" height="4"/><path class="cls-2" d="M30,9v2H16a2,2,0,0,1-2-2Z"/><path class="cls-3" d="M32,12V10a1,1,0,0,1,2,0v2A1,1,0,0,1,32,12Z"/><path class="cls-3" d="M35,12V10a1,1,0,0,1,2,0v2A1,1,0,0,1,35,12Z"/><path class="cls-1" d="M33,8a1,1,0,0,1-1-1,1,1,0,0,0-1-1H23a1,1,0,0,1,0-2h8C34,4,34.92,8,33,8Z"/><path class="cls-1" d="M36,8a1,1,0,0,1-1-1,4,4,0,0,0-4-4H18a1,1,0,0,1,0-2H31C36.52,1,38.41,8,36,8Z"/><rect class="cls-4" x="17" y="35" width="30" height="6"/><path class="cls-5" d="M47,35v4H23a4,4,0,0,1-4-4Z"/><rect class="cls-4" x="18" y="21" width="28" height="8"/><path class="cls-5" d="M46,21v6H26a6,6,0,0,1-6-6Z"/><rect class="cls-6" x="18" y="41" width="4" height="6"/><path class="cls-1" d="M22,42v5H19V45A3,3,0,0,1,22,42Z"/><rect class="cls-6" x="42" y="41" width="4" height="6"/><path class="cls-1" d="M46,42v5H43V45A3,3,0,0,1,46,42Z"/><rect class="cls-6" x="20" y="29" width="4" height="6"/><path class="cls-1" d="M24,30v5H21V33A3,3,0,0,1,24,30Z"/><rect class="cls-6" x="40" y="29" width="4" height="6"/><path class="cls-1" d="M44,30v5H41V33A3,3,0,0,1,44,30Z"/><path class="cls-1" d="M43,25a1,1,0,0,0-2,0A1,1,0,0,0,43,25Z"/><path class="cls-1" d="M23,25a1,1,0,0,0-2,0A1,1,0,0,0,23,25Z"/><rect class="cls-1" x="2" y="25" width="8" height="22"/><path class="cls-2" d="M10,25c0,18.76-.1,18,0,18a6,6,0,0,1-6-6V25Z"/><rect class="cls-7" x="6" y="30" width="4" height="6"/><path class="cls-8" d="M10,31v5H7V34A3,3,0,0,1,10,31Z"/><path class="cls-8" d="M46,47H2a1,1,0,0,1,0-2H46A1,1,0,0,1,46,47Z"/></g></svg>