<svg xmlns="http://www.w3.org/2000/svg" viewBox="0 0 48 48"><defs><style>.cls-1{fill:#a87e6b;}.cls-2{fill:#be927c;}.cls-3{fill:#a07765;}.cls-4{fill:#dad7e5;}.cls-5{fill:#edebf2;}</style></defs><title>Double Bed</title><g id="Double_Bed" data-name="Double Bed"><path class="cls-1" d="M46,10V30H2C2,8.56,1.75,9.41,2.59,8.59A2,2,0,0,1,6,10v.36c8.15-5.8,27.82-5.82,36,0V10a2,2,0,0,1,.59-1.41A2,2,0,0,1,46,10Z"/><path class="cls-2" d="M46,10.11V28H24.73A19.73,19.73,0,0,1,5,8.27,2,2,0,0,1,6,10v.36c8.15-5.8,27.82-5.82,36,0V10a2,2,0,0,1,.59-1.41A2,2,0,0,1,46,10.11Z"/><rect class="cls-1" x="1" y="30" width="46" height="6"/><path class="cls-2" d="M47,30v4H8a4,4,0,0,1-4-4Z"/><rect class="cls-3" x="1" y="36" width="4" height="6"/><path class="cls-1" d="M4,40v2H1V37A3,3,0,0,1,4,40Z"/><rect class="cls-3" x="43" y="36" width="4" height="6"/><path class="cls-1" d="M47,37v5H44V40A3,3,0,0,1,47,37Z"/><path class="cls-4" d="M46,28v2H2V28a4,4,0,0,1,3.52-4C5.9,24,3.34,24,42,24A4,4,0,0,1,46,28Z"/><path class="cls-5" d="M46,28H7a2,2,0,0,1-2-2,2.06,2.06,0,0,1,2.09-2H42A4,4,0,0,1,46,28Z"/><path class="cls-4" d="M19.41,23.41c-.77.79-.74.59-9.41.59a2,2,0,0,1-1.41-3.41C9.36,19.8,9.33,20,18,20A2,2,0,0,1,19.41,23.41Z"/><path class="cls-5" d="M19.73,23H12a2,2,0,0,1-1.73-3H18A2,2,0,0,1,19.73,23Z"/><path class="cls-4" d="M39.41,23.41c-.77.79-.74.59-9.41.59a2,2,0,0,1-1.41-3.41c.77-.79.74-.59,9.41-.59A2,2,0,0,1,39.41,23.41Z"/><path class="cls-5" d="M39.73,23H32a2,2,0,0,1-1.73-3H38A2,2,0,0,1,39.73,23Z"/></g></svg>