<svg xmlns="http://www.w3.org/2000/svg" viewBox="0 0 48 48"><defs><style>.cls-1{fill:#c6c3d8;}.cls-2{fill:#dad7e5;}.cls-3{fill:#6fabe6;}.cls-4{fill:#82bcf4;}.cls-5{fill:#9fdbf3;}.cls-6{fill:#b2e5fb;}.cls-7{fill:#2c435e;}.cls-8{fill:#374f68;}.cls-9{fill:#fc6;}.cls-10{fill:#ffde76;}.cls-11{fill:#7c7d7d;}</style></defs><title>parking Car</title><g id="parking_Car" data-name="parking Car"><rect class="cls-1" x="7" y="21" width="4" height="26"/><path class="cls-2" d="M11,23V47H9V25A2,2,0,0,1,11,23Z"/><rect class="cls-3" x="1" y="1" width="16" height="20" rx="2"/><path class="cls-4" d="M17,3c0,16.82-.1,16,0,16A13,13,0,0,1,4,6V1H15A2,2,0,0,1,17,3Z"/><path class="cls-2" d="M5,16V6A1,1,0,0,1,6,5H9.5a3.5,3.5,0,0,1,0,7H7v4A1,1,0,0,1,5,16Zm2-6H9.5a1.5,1.5,0,0,0,0-3H7Z"/><path class="cls-1" d="M46,34c0,5,.29,4.77-1.33,6-2.4,1.79-2.51,2-3.34,2-22.4,0-21.11.17-21.86-.4C15.34,38.51,16,39.78,16,34a2,2,0,0,1,2-2c28.19,0,26.22-.06,26.72.14A2,2,0,0,1,46,34Z"/><path class="cls-2" d="M46,34c0,5,.29,4.78-1.33,6H27a8,8,0,0,1-8-8c0-.1-1.26,0,25,0A2,2,0,0,1,46,34Z"/><path class="cls-5" d="M44.72,32.14C44.2,31.93,45.91,32,18,32a1.92,1.92,0,0,0-.72.14L20,23.63A4,4,0,0,1,23.8,21H38.2A4,4,0,0,1,42,23.63C44.41,31.15,43.8,29.29,44.72,32.14Z"/><path class="cls-6" d="M44,30H30.24a7.21,7.21,0,0,1-7-9c.1-.08-.66,0,15,0A4,4,0,0,1,42,23.63Z"/><path class="cls-7" d="M23,42v5H17V39.75C20.51,42.38,19.42,42,23,42Z"/><path class="cls-8" d="M23,43v4H17V40.75C20.51,43.38,19.42,43,23,43Z"/><path class="cls-7" d="M45,39.75V47H39V42C42.59,42,41.52,42.36,45,39.75Z"/><path class="cls-8" d="M45,40.75V47H39V43C42.59,43,41.52,43.36,45,40.75Z"/><path class="cls-9" d="M26,37a2,2,0,0,1-2,2H22a2,2,0,0,1,0-4h2A2,2,0,0,1,26,37Z"/><path class="cls-10" d="M26,37c0,1.18-.36,1-3,1a2,2,0,0,1-2-2c0-1.18.36-1,3-1A2,2,0,0,1,26,37Z"/><path class="cls-9" d="M42,37a2,2,0,0,1-2,2H38a2,2,0,0,1,0-4h2A2,2,0,0,1,42,37Z"/><path class="cls-10" d="M42,37c0,1.18-.36,1-3,1a2,2,0,0,1-2-2c0-1.18.36-1,3-1A2,2,0,0,1,42,37Z"/><path class="cls-11" d="M33,37H29a1,1,0,0,1,0-2h4A1,1,0,0,1,33,37Z"/><path class="cls-11" d="M33,40H29a1,1,0,0,1,0-2h4A1,1,0,0,1,33,40Z"/><path class="cls-11" d="M29.71,29.71,27.42,32H24.58l3.71-3.71A1,1,0,0,1,29.71,29.71Z"/><path class="cls-11" d="M37.71,29.71,35.42,32H32.58l3.71-3.71A1,1,0,0,1,37.71,29.71Z"/><path class="cls-1" d="M46,47H2a1,1,0,0,1,0-2H46A1,1,0,0,1,46,47Z"/></g></svg>