<svg xmlns="http://www.w3.org/2000/svg" viewBox="0 0 48 48"><defs><style>.cls-1{fill:#c6c3d8;}.cls-2{fill:#dad7e5;}.cls-3{fill:#edebf2;}.cls-4{fill:#9fdbf3;}.cls-5{fill:#b2e5fb;}</style></defs><title>Television</title><g id="Television"><path class="cls-1" d="M3,44a1,1,0,0,1-.1-2l19-2a1,1,0,0,1,.2,2C2.16,44.09,3.1,44,3,44Z"/><path class="cls-1" d="M45,44c-.1,0,1.1.12-19.1-2a1,1,0,0,1,.2-2l19,2A1,1,0,0,1,45,44Z"/><rect class="cls-2" x="1" y="4" width="46" height="30"/><path class="cls-3" d="M47,4V32H32A28,28,0,0,1,4,4Z"/><rect class="cls-4" x="3" y="6" width="42" height="26"/><path class="cls-5" d="M45,6V30H30A24,24,0,0,1,6,6Z"/><rect class="cls-2" x="1" y="34" width="46" height="4"/><path class="cls-3" d="M47,34v2H6a2,2,0,0,1-2-2Z"/><rect class="cls-1" x="22" y="38" width="4" height="4"/><path class="cls-2" d="M25,42H22V39A3,3,0,0,1,25,42Z"/></g></svg>