<svg xmlns="http://www.w3.org/2000/svg" viewBox="0 0 48 48"><defs><style>.cls-1{fill:#dad7e5;}.cls-2{fill:#edebf2;}.cls-3{fill:#7c7d7d;}.cls-4{fill:#919191;}.cls-5{fill:#c6c3d8;}.cls-6{fill:#b2e5fb;}</style></defs><title>Air Conditioner</title><g id="Air_Conditioner" data-name="Air Conditioner"><rect class="cls-1" x="1" y="3" width="46" height="20" rx="2"/><path class="cls-2" d="M47,5V21H22A18.05,18.05,0,0,1,4,3H45A2,2,0,0,1,47,5Z"/><rect class="cls-3" x="6" y="19" width="36" height="4"/><path class="cls-4" d="M40,23c0,.1,1.18,0-34,0V21H38A2,2,0,0,1,40,23Z"/><path class="cls-1" d="M42,9H6A1,1,0,0,1,6,7H42A1,1,0,0,1,42,9Z"/><rect class="cls-5" x="14" y="19" width="2" height="4"/><rect class="cls-5" x="32" y="19" width="2" height="4"/><rect class="cls-5" x="23" y="19" width="2" height="4"/><path class="cls-6" d="M23,40V26a1,1,0,0,1,2,0V40A1,1,0,0,1,23,40Z"/><path class="cls-6" d="M10,45a6,6,0,0,1-6-6V37a1,1,0,0,1,2,0v2a4,4,0,0,0,8,0V26a1,1,0,0,1,2,0V39A6,6,0,0,1,10,45Z"/><path class="cls-6" d="M38,45a6,6,0,0,1-6-6V26a1,1,0,0,1,2,0V39a4,4,0,0,0,8,0V37a1,1,0,0,1,2,0v2A6,6,0,0,1,38,45Z"/></g></svg>