<svg xmlns="http://www.w3.org/2000/svg" viewBox="0 0 48 48"><defs><style>.cls-1{fill:#dad7e5;}.cls-2{fill:#edebf2;}.cls-3{fill:#2c435e;}.cls-4{fill:#374f68;}.cls-5{fill:#9fdbf3;}.cls-6{fill:#b2e5fb;}.cls-7{fill:#fc6;}.cls-8{fill:#ffde76;}.cls-9{fill:#7c7d7d;}.cls-10{fill:#425b72;}.cls-11{fill:#c6c3d8;}.cls-12{fill:#9dcc6b;}</style></defs><title>Rent Car</title><g id="Rent_Car" data-name="Rent Car"><path class="cls-1" d="M44,31c0,4.36.18,4.82-.59,5.59l-3.82,3.82c-.84.84,1,.59-29.76.59C8.78,41,8.56,40.56,6,38s-2-1.33-2-7a2,2,0,0,1,2-2H42A2,2,0,0,1,44,31Z"/><path class="cls-2" d="M44,31c0,5.93.57,4.43-3,8H17A10,10,0,0,1,7,29c0-.1,35.1,0,35,0A2,2,0,0,1,44,31Z"/><path class="cls-3" d="M14,41v6H6V38C9.57,41.57,8.12,41,14,41Z"/><path class="cls-4" d="M14,43v4H6V40C9.57,43.57,8.12,43,14,43Z"/><path class="cls-3" d="M42,38v9H34V41C39.91,41,38.4,41.6,42,38Z"/><path class="cls-4" d="M42,40v7H34V43C39.91,43,38.4,43.6,42,40Z"/><path class="cls-5" d="M42,29H6c1.45-5.09.74-2.6,3.17-11.1A4,4,0,0,1,12.54,15c.33,0-1,0,22.44,0a4,4,0,0,1,3.85,2.9Z"/><path class="cls-6" d="M41.43,27H13.16a3.14,3.14,0,0,1-3-4c2.08-7.3,2-7.38,2.4-8,.33,0-1,0,22.44,0a4,4,0,0,1,3.85,2.9C41.22,26.27,40.69,24.39,41.43,27Z"/><path class="cls-1" d="M7.14,25c-1,3.53-.75,2.67-1.14,4H3a2,2,0,0,1-.82-3.82C2.72,24.92,2.84,25,7.14,25Z"/><path class="cls-2" d="M5.14,25c-1,3.45-.73,3-1.14,3a2,2,0,0,1-1.82-2.82C2.7,24.93,3,25,5.14,25Z"/><path class="cls-1" d="M46.41,28.41c-.75.77-1.4.59-4.41.59l-1.14-4H45A2,2,0,0,1,46.41,28.41Z"/><path class="cls-2" d="M46.82,27.82c-1.27.61-3.93-.22-4.67-2.82h2.69A2,2,0,0,1,46.82,27.82Z"/><rect class="cls-7" x="10" y="33" width="6" height="4"/><path class="cls-8" d="M16,33v3H14a3,3,0,0,1-3-3Z"/><rect class="cls-7" x="32" y="33" width="6" height="4"/><path class="cls-8" d="M38,33v3H36a3,3,0,0,1-3-3Z"/><path class="cls-9" d="M19,37V33a1,1,0,0,1,2,0v4A1,1,0,0,1,19,37Z"/><path class="cls-9" d="M23,37V33a1,1,0,0,1,2,0v4A1,1,0,0,1,23,37Z"/><path class="cls-9" d="M27,37V33a1,1,0,0,1,2,0v4A1,1,0,0,1,27,37Z"/><path class="cls-4" d="M22,6a5,5,0,0,1-5,5H10V1h7A5,5,0,0,1,22,6Z"/><path class="cls-10" d="M21,9c-3.58,2.72-10-.33-10-6V1h6A5,5,0,0,1,21,9Z"/><path class="cls-1" d="M38,4V8H21.59a5.05,5.05,0,0,0,0-4Z"/><path class="cls-2" d="M38,4V7H26a3,3,0,0,1-3-3Z"/><path class="cls-11" d="M35,7V8H33V7A1,1,0,0,1,35,7Z"/><path class="cls-3" d="M12,8V4a1,1,0,0,1,2,0V8A1,1,0,0,1,12,8Z"/><path class="cls-12" d="M19,6a1,1,0,0,0-2,0A1,1,0,0,0,19,6Z"/><path class="cls-9" d="M22.71,24.71,18.42,29H15.58l5.71-5.71A1,1,0,0,1,22.71,24.71Z"/><path class="cls-9" d="M31.71,24.71,27.42,29H24.58l5.71-5.71A1,1,0,0,1,31.71,24.71Z"/></g></svg>