<svg xmlns="http://www.w3.org/2000/svg" viewBox="0 0 48 48"><defs><style>.cls-1{fill:#edb996;}.cls-2{fill:#f6ccaf;}.cls-3{fill:#425b72;}.cls-4{fill:#edebf2;}.cls-5{fill:#374f68;}.cls-6{fill:#dad7e5;}.cls-7{fill:#ffdec7;}.cls-8{fill:#be927c;}.cls-9{fill:#a87e6b;}.cls-10{fill:#2c435e;}.cls-11{fill:#a07765;}.cls-12{fill:#6fabe6;}.cls-13{fill:#82bcf4;}.cls-14{fill:#c6c3d8;}.cls-15{fill:#9dcc6b;}.cls-16{fill:#5b9ad8;}.cls-17{fill:#b5e08c;}</style></defs><title>housekeeping</title><g id="housekeeping"><path class="cls-1" d="M22,23.29V27l-6,5-6-5V23.29A8,8,0,0,0,22,23.29Z"/><path class="cls-2" d="M22,26.93c0,.1.48-.33-6,5.07-3.92-3.27-4-3.43-4-3.33A1.89,1.89,0,0,1,14.73,27,8.22,8.22,0,0,0,18,28,7.94,7.94,0,0,0,22,26.93Z"/><path class="cls-3" d="M26.43,28.77,24.74,31a2,2,0,0,0-1.63,2.61c0,.1,0,0-2.11,3.37l-5-5,6-5Z"/><path class="cls-4" d="M31.84,31H27V29C30,30.21,29.2,29.86,31.84,31Z"/><path class="cls-5" d="M27,29v2H25c-.33,0-.6.47,1.43-2.23Z"/><polygon class="cls-3" points="16 32 11 37 5.53 28.79 10 27 16 32"/><path class="cls-6" d="M27,47H1V30.73A25.92,25.92,0,0,1,5,29V42H23.13A4,4,0,0,0,27,47Z"/><path class="cls-2" d="M24.47,13H24v5a8,8,0,0,1-13.66,5.66C7.4,20.72,8,17.41,8,13A13.67,13.67,0,0,0,18,9,7.24,7.24,0,0,0,24.47,13Z"/><path class="cls-7" d="M24,15c0,3.12.27,5.15-1.44,7.59a8,8,0,0,1-10.22-.91C10.28,19.6,10,17.52,10,14.89A13.61,13.61,0,0,0,18,11,7.23,7.23,0,0,0,24,15Z"/><path class="cls-2" d="M28,15a2,2,0,0,1-2,2H24V13h2A2,2,0,0,1,28,15Z"/><path class="cls-2" d="M8,13v4H6a2,2,0,1,1,0-4Z"/><path class="cls-8" d="M26,11v2H24.47A7.24,7.24,0,0,1,18,9a13.67,13.67,0,0,1-4.43,3c-2.87,1.19-5,1-7.57,1V11a10,10,0,0,1,20,0Z"/><path class="cls-9" d="M11,11A2,2,0,0,1,9,9a10,10,0,0,1,3.06-7.19A10,10,0,0,0,6,11v2c3.41,0,7.2.23,11.34-3.41A13.11,13.11,0,0,1,11,11Z"/><path class="cls-10" d="M16,32V42H5V29l.53-.21c2,2.94.68,1,5.47,8.21Z"/><path class="cls-5" d="M16,32v8H11a4,4,0,0,1-4-4V31l4,6Z"/><path class="cls-11" d="M9.88,23.15A5,5,0,1,1,4,15.4a1.94,1.94,0,0,0,.55,1C5.31,17.15,6,17,8,17,8,19.05,8.08,21,9.88,23.15Z"/><path class="cls-9" d="M8.84,24.1A5,5,0,0,1,1,20a4.93,4.93,0,0,1,1-3,4.73,4.73,0,0,1,1-.61A2,2,0,0,0,5,18H7C7,20,7.08,22,8.84,24.1Z"/><path class="cls-12" d="M45,7c0,12.89.29,13.24-.88,15.11A5.85,5.85,0,0,1,41,24.65,6,6,0,0,1,33,19V7A6,6,0,0,1,45,7Z"/><path class="cls-13" d="M45,7c0,13.4.5,14.75-2,15.65A6,6,0,0,1,35,17c0-12.94-.29-13.22.88-15.12A6,6,0,0,1,45,7Z"/><path class="cls-14" d="M41,24.65V31H37V24.65A5.85,5.85,0,0,0,41,24.65Z"/><path class="cls-6" d="M41,27v4H39V28.89A1.93,1.93,0,0,1,41,27Z"/><path class="cls-12" d="M46.41,43.59A2,2,0,0,1,45,47H27a4,4,0,0,1-1-7.87c.66-.18-.62-.13,19-.13a2,2,0,0,1,0,4A2,2,0,0,1,46.41,43.59Z"/><path class="cls-15" d="M47,35a4,4,0,0,1-4,4H25a2,2,0,0,1,0-4,2,2,0,0,1-1.89-1.36h0A2,2,0,0,1,25,31H43A4,4,0,0,1,47,35Z"/><path class="cls-10" d="M27,39a4,4,0,0,0-3.87,3H16V32l5,5,2.11-3.36A2,2,0,0,0,25,35a2,2,0,0,0-1.41.59A2,2,0,0,0,25,39Z"/><path class="cls-16" d="M38,6V4a1,1,0,0,1,2,0V6A1,1,0,0,1,38,6Z"/><path class="cls-16" d="M38,12V10a1,1,0,0,1,2,0v2A1,1,0,0,1,38,12Z"/><path class="cls-16" d="M38,18V16a1,1,0,0,1,2,0v2A1,1,0,0,1,38,18Z"/><path class="cls-16" d="M38,24V22a1,1,0,0,1,2,0v2A1,1,0,0,1,38,24Z"/><path class="cls-16" d="M42,8c-1.91,0-1-4,2-4h1a1,1,0,0,1,0,2H44a1,1,0,0,0-1,1A1,1,0,0,1,42,8Z"/><path class="cls-16" d="M36,8a1,1,0,0,1-1-1,1,1,0,0,0-1-1H33a1,1,0,0,1,0-2h1C37,4,37.92,8,36,8Z"/><path class="cls-16" d="M42,14c-1.91,0-1-4,2-4h1a1,1,0,0,1,0,2H44a1,1,0,0,0-1,1A1,1,0,0,1,42,14Z"/><path class="cls-16" d="M36,14a1,1,0,0,1-1-1,1,1,0,0,0-1-1H33a1,1,0,0,1,0-2h1C37,10,37.92,14,36,14Z"/><path class="cls-16" d="M42,20c-1.91,0-1-4,2-4h1a1,1,0,0,1,0,2H44a1,1,0,0,0-1,1A1,1,0,0,1,42,20Z"/><path class="cls-16" d="M36,20a1,1,0,0,1-1-1,1,1,0,0,0-1-1H33a1,1,0,0,1,0-2h1C37,16,37.92,20,36,20Z"/><path class="cls-16" d="M42,25c-1.91,0-1-4,2-4h1a1,1,0,0,1,0,2H44a1,1,0,0,0-1,1A1,1,0,0,1,42,25Z"/><path class="cls-16" d="M36,25a1,1,0,0,1-1-1,1,1,0,0,0-1-1H33a1,1,0,0,1,0-2h1C37,21,37.92,25,36,25Z"/><path class="cls-5" d="M27,39a4,4,0,0,0-2.65,1H20a4,4,0,0,1-4-4V32l5,5,2.11-3.36A2,2,0,0,0,25,35a2,2,0,0,0-2,2.18A2.08,2.08,0,0,0,25.11,39Z"/><polygon class="cls-10" points="17 33 17 42 15 42 15 33 16 32 17 33"/><path class="cls-4" d="M23.54,45H7a4,4,0,0,1-4-4V29.8L5,29V42H23.13A4,4,0,0,0,23.54,45Z"/><path class="cls-17" d="M46.46,37H32a6,6,0,0,1-6-6H42.81A4,4,0,0,1,46.46,37Z"/><path class="cls-13" d="M47,45H31.87A5.87,5.87,0,0,1,26,39.13c.66-.18-.62-.13,19-.13a2,2,0,0,1,0,4A2,2,0,0,1,47,45Z"/><path class="cls-12" d="M44,44H30a1,1,0,0,1,0-2H44A1,1,0,0,1,44,44Z"/><path class="cls-15" d="M40,36H26a1,1,0,0,1,0-2H40A1,1,0,0,1,40,36Z"/></g></svg>