<svg xmlns="http://www.w3.org/2000/svg" viewBox="0 0 48 48"><defs><style>.cls-1{fill:#a87e6b;}.cls-2{fill:#be927c;}.cls-3{fill:#dad7e5;}.cls-4{fill:#edebf2;}</style></defs><title>Bunkbed</title><g id="Bunkbed"><path class="cls-1" d="M5,3V47H1V3A2,2,0,0,1,5,3Z"/><path class="cls-2" d="M5,3c0,43.26-.1,42,0,42a2,2,0,0,1-2-2V1A2,2,0,0,1,5,3Z"/><path class="cls-1" d="M47,3V47H43V3a2,2,0,0,1,4,0Z"/><path class="cls-2" d="M47,3c0,43.26-.1,42,0,42a2,2,0,0,1-2-2V1A2,2,0,0,1,47,3Z"/><rect class="cls-1" x="5" y="15" width="10" height="4"/><path class="cls-2" d="M13,15v2H7a2,2,0,0,1-2-2Z"/><rect class="cls-1" x="19" y="39" width="24" height="4"/><path class="cls-2" d="M43,39v2H23a2,2,0,0,1-2-2Z"/><rect class="cls-1" x="5" y="39" width="10" height="4"/><path class="cls-2" d="M13,39v2H7a2,2,0,0,1-2-2Z"/><path class="cls-3" d="M43,13v2H5V13A4,4,0,0,1,8.52,9C8.89,9,7,9,39,9A4,4,0,0,1,43,13Z"/><path class="cls-4" d="M43,13H10a2,2,0,0,1-2-2,2.09,2.09,0,0,1,2.09-2H39A4,4,0,0,1,43,13Z"/><path class="cls-3" d="M43,37v2H19V33H39A4,4,0,0,1,43,37Z"/><path class="cls-4" d="M43,37H21V33H39A4,4,0,0,1,43,37Z"/><rect class="cls-1" x="19" y="15" width="24" height="4"/><path class="cls-2" d="M43,15v2H23a2,2,0,0,1-2-2Z"/><rect class="cls-1" x="15" y="15" width="4" height="32"/><path class="cls-2" d="M19,15c0,31.16-.1,30,0,30a2,2,0,0,1-2-2V15Z"/><rect class="cls-1" x="5" y="24" width="10" height="4"/><path class="cls-2" d="M13,24v2H7a2,2,0,0,1-2-2Z"/><rect class="cls-3" x="5" y="33" width="10" height="6"/><path class="cls-4" d="M13,33v4H9a4,4,0,0,1-4-4Z"/><path class="cls-3" d="M37.41,8.41c-.77.79-1,.59-7.41.59a2,2,0,0,1-1.41-3.41C29.36,4.8,29.59,5,36,5A2,2,0,0,1,37.41,8.41Z"/><path class="cls-4" d="M37.73,8H32a2,2,0,0,1-1.73-3H36A2,2,0,0,1,37.73,8Z"/><path class="cls-3" d="M37.41,32.41c-.77.79-1,.59-7.41.59a2,2,0,0,1-1.41-3.41c.77-.79,1-.59,7.41-.59A2,2,0,0,1,37.41,32.41Z"/><path class="cls-4" d="M37.73,32H32a2,2,0,0,1-1.73-3H36A2,2,0,0,1,37.73,32Z"/></g></svg>