<svg xmlns="http://www.w3.org/2000/svg" viewBox="0 0 48 48"><defs><style>.cls-1{fill:#ffde76;}.cls-2{fill:#dad7e5;}.cls-3{fill:#7c7d7d;}.cls-4{fill:#919191;}.cls-5{fill:#fc6;}.cls-6{fill:#edebf2;}.cls-7{fill:#9dcc6b;}.cls-8{fill:#b5e08c;}</style></defs><title>Room Service</title><g id="Room_Service" data-name="Room Service"><path class="cls-1" d="M13,21V18a1,1,0,0,1,2,0v3A1,1,0,0,1,13,21Z"/><path class="cls-1" d="M16,19H12a1,1,0,0,1,0-2h4A1,1,0,0,1,16,19Z"/><path class="cls-2" d="M29,33V25a1,1,0,0,1,2,0v8A1,1,0,0,1,29,33Z"/><rect class="cls-3" x="1" y="33" width="46" height="4"/><path class="cls-4" d="M47,33v2H6a2,2,0,0,1-2-2Z"/><path class="cls-5" d="M25,32v1H3c0-3.16.48-5.88,3-8.55C12.82,17.19,25,22.12,25,32Z"/><path class="cls-1" d="M25,31H12.55A6.55,6.55,0,0,1,6,24.45,11,11,0,0,1,25,31Z"/><path class="cls-2" d="M33,18c0,5,.27,5.82-.76,7A3,3,0,0,1,27,23V18Z"/><path class="cls-6" d="M33,18c0,5,.27,5.82-.76,7A3,3,0,0,1,29,22V18Z"/><path class="cls-7" d="M45,21V31a2,2,0,0,1-2,2H39a2,2,0,0,1-2-2c0-10.56-.22-10.62.59-11.41A2,2,0,0,1,39,19V15h4v4A2,2,0,0,1,45,21Z"/><path class="cls-8" d="M45,21c0,10.61-.1,10,0,10a6,6,0,0,1-6-6V21a2,2,0,0,1,2-2V15h2v4A2,2,0,0,1,45,21Z"/><rect class="cls-5" x="39" y="11" width="4" height="4"/><path class="cls-1" d="M43,11v3a2,2,0,0,1-2-2V11Z"/></g></svg>