<svg xmlns="http://www.w3.org/2000/svg" viewBox="0 0 48 48"><defs><style>.cls-1{fill:#374f68;}.cls-2{fill:#a87e6b;}.cls-3{fill:#be927c;}.cls-4{fill:#a07765;}.cls-5{fill:#dad7e5;}.cls-6{fill:#edebf2;}.cls-7{fill:#fc6;}.cls-8{fill:#ffde76;}</style></defs><title>Single Bed</title><g id="Single_Bed" data-name="Single Bed"><path class="cls-1" d="M40,23V17a1,1,0,0,1,2,0v6A1,1,0,0,1,40,23Z"/><path class="cls-2" d="M30,11V27H2V11H6v3.12c5-1.47,15-1.48,20,0V11Z"/><path class="cls-3" d="M30,11V25H18A14,14,0,0,1,4,11H6v3.12c5-1.47,15-1.48,20,0V11Z"/><rect class="cls-2" x="1" y="27" width="30" height="6"/><path class="cls-3" d="M31,27v4H8a4,4,0,0,1-4-4Z"/><rect class="cls-4" x="1" y="33" width="5" height="4"/><path class="cls-2" d="M5,37H1V34H2A3,3,0,0,1,5,37Z"/><rect class="cls-4" x="26" y="33" width="5" height="4"/><path class="cls-2" d="M31,34v3H27a3,3,0,0,1,3-3Z"/><rect class="cls-5" x="35" y="30" width="12" height="7"/><path class="cls-6" d="M47,30v5H42a5,5,0,0,1-5-5Z"/><rect class="cls-5" x="35" y="23" width="12" height="7"/><path class="cls-6" d="M47,23v5H42a5,5,0,0,1-5-5Z"/><path class="cls-5" d="M30,27H2a4,4,0,0,1,4-4H26A4,4,0,0,1,30,27Z"/><path class="cls-6" d="M29.87,26H7.55a1.74,1.74,0,0,1-1.24-3c.1-.09-.65,0,19.69,0A4,4,0,0,1,29.87,26Z"/><path class="cls-5" d="M20.41,22.41c-.77.79-1,.59-7.41.59a2,2,0,0,1-1.41-3.41c.77-.79,1-.59,7.41-.59A2,2,0,0,1,20.41,22.41Z"/><path class="cls-6" d="M20.73,22H15a2,2,0,0,1-1.73-3H19A2,2,0,0,1,20.73,22Z"/><path class="cls-7" d="M45,17H37l1-6h6C45,16.81,44.77,15.67,45,17Z"/><path class="cls-8" d="M44.83,16H40.36a2,2,0,0,1-2-2.33L38.83,11H44Z"/><path class="cls-1" d="M42,26a1,1,0,0,0-2,0A1,1,0,0,0,42,26Z"/><path class="cls-1" d="M42,33a1,1,0,0,0-2,0A1,1,0,0,0,42,33Z"/></g></svg>