<svg xmlns="http://www.w3.org/2000/svg" viewBox="0 0 48 48"><defs><style>.cls-1{fill:#a87e6b;}.cls-2{fill:#dad7e5;}.cls-10,.cls-3{fill:#edebf2;}.cls-4{fill:#c6c3d8;}.cls-5{fill:#fc6;}.cls-6{fill:#374f68;}.cls-7{fill:#9fdbf3;}.cls-8{fill:#b2e5fb;}.cls-9{fill:#ffde76;}.cls-10{opacity:0.3;}</style></defs><title>Welcome drink</title><g id="Welcome_drink" data-name="Welcome drink"><rect class="cls-1" x="1" y="36" width="46" height="4"/><rect class="cls-2" x="25" y="14" width="16" height="22"/><path class="cls-3" d="M41,14c0,20.82-.1,20,0,20A13,13,0,0,1,28,21V14Z"/><path class="cls-2" d="M19,36H7A6,6,0,0,1,7,24c8.14,0,9.25-.39,10.83,1.17A4,4,0,0,1,15,32c4.13,0,4.65-.19,5.41.59A2,2,0,0,1,19,36Z"/><path class="cls-3" d="M21,34H13.19A9.18,9.18,0,0,1,4,24.81,5.72,5.72,0,0,1,7,24c8.14,0,9.25-.39,10.83,1.17A4,4,0,0,1,15,32c4.13,0,4.65-.19,5.41.59A2,2,0,0,1,21,34Z"/><path class="cls-4" d="M15,31H7a1,1,0,0,1-.69-1.71c.4-.41.25-.29,7.69-.29a1,1,0,0,0,0-2c-7.32,0-8-.28-9.11.87A3,3,0,0,0,7,33h8A1,1,0,0,0,15,31Z"/><path class="cls-5" d="M47,14a6,6,0,0,1-6,6V14H35a6,6,0,0,1,12,0Z"/><path class="cls-6" d="M32,21c-.87,0-.52.19-6.62-12H21a1,1,0,0,1,0-2h5c.87,0,.49-.25,6.89,12.55A1,1,0,0,1,32,21Z"/><rect class="cls-7" x="26" y="20" width="14" height="15"/><path class="cls-8" d="M40,20c0,13.72-.1,13,0,13A12,12,0,0,1,28,21V20Z"/><path class="cls-9" d="M46.12,17.12a6,6,0,0,1-5.12.53V14H37.35a6,6,0,0,1,.53-5.12C43.2,5.6,49.39,11.81,46.12,17.12Z"/><rect class="cls-10" x="25" y="14" width="16" height="22"/></g></svg>