<svg xmlns="http://www.w3.org/2000/svg" viewBox="0 0 48 48"><defs><style>.cls-1{fill:#6fabe6;}.cls-2{fill:#82bcf4;}.cls-3{fill:#dad7e5;}.cls-4{fill:#c6c3d8;}.cls-5{fill:#edebf2;}</style></defs><title>Bathrobe</title><g id="Bathrobe"><path class="cls-1" d="M24.29,13.75l-2.08,3.94C13.1,2.51,14.43,4.71,14,4l3-3C26.56,17.72,23.74,12.84,24.29,13.75Z"/><path class="cls-2" d="M23.11,11.69,22,13.74,15.37,2.63,17,1Z"/><rect class="cls-1" x="21" y="34" width="4" height="13"/><path class="cls-2" d="M25,36V47H23V38A2,2,0,0,1,25,36Z"/><path class="cls-1" d="M34,4c-.44.84-.22.43-9,17v9H21V20L31,1Z"/><path class="cls-2" d="M34,4c-.44.84-.22.43-9,17v7a2,2,0,0,1-2-2V20c2.7-5.15-1.5,2.84,9.31-17.69Z"/><path class="cls-3" d="M36,47H25V34h8.4Z"/><polygon class="cls-3" points="47 22 41 27 36 18 33.43 30 25 30 25 21 33.72 4.54 41 10 47 22"/><path class="cls-3" d="M47,22l-6,5-5-9L33.43,30H25V21L33.72,4.54,41,10Z"/><polygon class="cls-3" points="21 34 21 47 12 47 14.6 34 21 34"/><path class="cls-3" d="M22.21,17.69,21,20V30H14.57L12,18,7,27,1,22,7,10c6.38-4.77,4.78-3.57,7.31-5.48Z"/><path class="cls-1" d="M35.41,33.41c-.81.84.11.59-21.41.59a2,2,0,0,1-1.41-3.41C13.4,29.75,12.48,30,34,30A2,2,0,0,1,35.41,33.41Z"/><path class="cls-2" d="M35.73,33H16a2,2,0,0,1-1.73-3H34A2,2,0,0,1,35.73,33Z"/><path class="cls-4" d="M31,1,24.29,13.75C22.84,11.22,24.13,13.46,17,1Z"/><polygon class="cls-3" points="29 1 23.25 11.93 17 1 29 1"/><path class="cls-5" d="M21,15.69c-.72,1.35-.27.51-2,3.82v8.06C16,26.27,16.36,24.92,12.41,6l1.9-1.43Z"/><polygon class="cls-5" points="47 22 41 27 36 18 33.86 28 25 28 25 21 33.72 4.54 41 10 47 22"/><path class="cls-5" d="M21,36v9a5.17,5.17,0,0,1-5.17-5.15A30.16,30.16,0,0,1,16.35,36Z"/><polygon class="cls-5" points="35.6 45 25 45 25 36 33.8 36 35.6 45"/></g></svg>