<svg xmlns="http://www.w3.org/2000/svg" viewBox="0 0 48 48"><defs><style>.cls-1{fill:#dad7e5;}.cls-2{fill:#edebf2;}.cls-3{fill:#c6c3d8;}</style></defs><title>Toilets</title><g id="Toilets"><path class="cls-1" d="M42,25a12,12,0,0,1-4.27,9.19C34.29,37.07,31.07,37,28,37A12,12,0,0,1,16,25Z"/><path class="cls-2" d="M42,25a12,12,0,0,1-4.27,9.19,15.45,15.45,0,0,1-6.37.81A12,12,0,0,1,19.53,25Z"/><rect class="cls-3" x="6" y="1" width="10" height="4"/><path class="cls-1" d="M16,1V5H13A4,4,0,0,1,9,1Z"/><rect class="cls-1" x="6" y="5" width="10" height="20"/><path class="cls-2" d="M16,5c0,18.76-.1,18,0,18a7,7,0,0,1-7-7V5Z"/><path class="cls-3" d="M36,47H8c3.2-8,2.78-14.91,1-22h7A12,12,0,0,0,28,37c2.39,0,4.12.12,6.64-.92a12.57,12.57,0,0,0,.68,9.57Z"/><path class="cls-1" d="M8,47A33.24,33.24,0,0,0,9.49,27H14A12,12,0,0,0,26,39c2.39,0,4.12.12,6.64-.92A12.58,12.58,0,0,0,33,47Z"/><path class="cls-1" d="M42,25H16V21H38A4,4,0,0,1,42,25Z"/><path class="cls-2" d="M41.46,23H21a2,2,0,0,1-2-2c0-.1-.93,0,19,0A4,4,0,0,1,41.46,23Z"/><path class="cls-3" d="M18,11H13.72a2,2,0,1,0,0,2H18A1,1,0,0,0,18,11Z"/></g></svg>