<svg xmlns="http://www.w3.org/2000/svg" viewBox="0 0 48 48"><defs><style>.cls-1{fill:#dad7e5;}.cls-2{fill:#edebf2;}.cls-3{fill:#c6c3d8;}.cls-4{fill:#fc6;}.cls-5{fill:#df8761;}.cls-6{fill:#f29b75;}.cls-7{fill:#cc734c;}.cls-8{fill:#9fdbf3;}.cls-9{fill:#b2e5fb;}</style></defs><title>Five Star</title><g id="Five_Star" data-name="Five Star"><rect class="cls-1" x="13" y="17" width="22" height="30"/><path class="cls-2" d="M35,17c0,29.13-.1,28,0,28A19,19,0,0,1,16,26V17Z"/><rect class="cls-3" x="12" y="13" width="24" height="4"/><path class="cls-1" d="M36,13v2H17a2,2,0,0,1-2-2Z"/><rect class="cls-1" x="1" y="19" width="12" height="28"/><path class="cls-2" d="M13,19c0,27.19-.1,26,0,26A10,10,0,0,1,3,35V19Z"/><rect class="cls-1" x="35" y="23" width="12" height="24"/><path class="cls-2" d="M47,23c0,23.28-.1,22,0,22A10,10,0,0,1,37,35V23Z"/><path class="cls-4" d="M15.39,5,15,3.68a1,1,0,0,0-1.9,0L12.61,5H11a1,1,0,0,0-.62,1.78l1.29,1-.62,1.86A1,1,0,0,0,11.88,11c.57.08.75-.19,2.12-1.29,1.25,1,1.63,1.54,2.37,1.24,1.14-.46.39-1.79,0-3.1,1.09-.87,1.92-1.27,1.61-2.15S17,5,15.39,5Z"/><path class="cls-4" d="M25.39,3,25,1.68a1,1,0,0,0-1.9,0L22.61,3H21a1,1,0,0,0-.62,1.78l1.29,1-.62,1.86A1,1,0,0,0,21.87,9c.58.08.79-.22,2.13-1.29,1.25,1,1.63,1.54,2.37,1.24,1.14-.46.39-1.79,0-3.1,1.09-.87,1.92-1.27,1.61-2.15S27,3,25.39,3Z"/><path class="cls-4" d="M6.39,9,6,7.68a1,1,0,0,0-1.9,0L3.61,9H2a1,1,0,0,0-.62,1.78l1.29,1-.62,1.86A1,1,0,0,0,2.87,15c.58.08.79-.22,2.13-1.29,1.25,1,1.63,1.54,2.37,1.24,1.14-.46.39-1.79,0-3.1C8.42,11,9.25,10.55,8.94,9.67S8,9,6.39,9Z"/><path class="cls-4" d="M35.39,5,35,3.68a1,1,0,0,0-1.9,0L32.61,5H31a1,1,0,0,0-.62,1.78l1.29,1-.62,1.86A1,1,0,0,0,31.88,11c.57.08.77-.21,2.12-1.29,1.25,1,1.63,1.54,2.37,1.24,1.14-.46.39-1.79,0-3.1,1.09-.87,1.92-1.27,1.61-2.15S37,5,35.39,5Z"/><path class="cls-4" d="M46.94,9.67C46.66,8.87,46,9,44.39,9c-.33-1-.45-2-1.39-2s-.91.57-1.39,2c-1.37,0-2.25-.2-2.55.67s.37,1.15,1.61,2.15c-.82,2.47-.58,1.73-.63,2A1,1,0,0,0,40.87,15c.6.08.76-.19,2.13-1.29,1,.81,1.59,1.51,2.32,1.27,1.24-.41.42-1.89,0-3.13C46.42,11,47.25,10.55,46.94,9.67Z"/><rect class="cls-3" x="35" y="23" width="12" height="4"/><path class="cls-1" d="M47,23v2H39a2,2,0,0,1-2-2Z"/><rect class="cls-3" x="1" y="19" width="12" height="4"/><path class="cls-1" d="M13,19v2H5a2,2,0,0,1-2-2Z"/><rect class="cls-5" x="20" y="39" width="8" height="8"/><path class="cls-6" d="M28,39v7a7,7,0,0,1-7-7Z"/><rect class="cls-7" x="23" y="39" width="2" height="8"/><rect class="cls-8" x="18" y="22" width="4" height="4"/><rect class="cls-8" x="26" y="22" width="4" height="4"/><rect class="cls-8" x="18" y="30" width="4" height="4"/><rect class="cls-8" x="26" y="30" width="4" height="4"/><rect class="cls-8" x="39" y="31" width="4" height="4"/><rect class="cls-8" x="39" y="39" width="4" height="4"/><rect class="cls-8" x="5" y="28" width="4" height="4"/><rect class="cls-8" x="5" y="36" width="4" height="4"/><path class="cls-9" d="M22,22v3a3,3,0,0,1-3-3Z"/><path class="cls-9" d="M9,28v3a3,3,0,0,1-3-3Z"/><path class="cls-9" d="M9,36v3a3,3,0,0,1-3-3Z"/><path class="cls-9" d="M43,31v3a3,3,0,0,1-3-3Z"/><path class="cls-9" d="M43,39v3a3,3,0,0,1-3-3Z"/><path class="cls-9" d="M30,22v3a3,3,0,0,1-3-3Z"/><path class="cls-9" d="M30,30v3a3,3,0,0,1-3-3Z"/><path class="cls-9" d="M22,30v3a3,3,0,0,1-3-3Z"/></g></svg>