<svg xmlns="http://www.w3.org/2000/svg" viewBox="0 0 48 48"><defs><style>.cls-1{fill:#9dcc6b;}.cls-2{fill:#b5e08c;}.cls-3{fill:#dad7e5;}.cls-4{fill:#edebf2;}.cls-5{fill:#c6c3d8;}.cls-6{fill:#374f68;}.cls-7{fill:#425b72;}</style></defs><title>Cleaning Service</title><g id="Cleaning_Service" data-name="Cleaning Service"><polygon class="cls-1" points="23 30 23 45 1 45 1 21 15 21 15 26 23 30"/><path class="cls-2" d="M23,30c0,13.72-.1,13,0,13A19,19,0,0,1,4,24V21H15v5Z"/><rect class="cls-3" x="3" y="17" width="10" height="4"/><path class="cls-4" d="M13,17v3H8a3,3,0,0,1-3-3Z"/><rect class="cls-5" x="5" y="13" width="6" height="4"/><path class="cls-3" d="M11,14v3H7a3,3,0,0,1,3-3Z"/><polygon class="cls-3" points="20 3 20 7 14 7 11 13 4 13 4 9 1 9 6 3 20 3"/><path class="cls-5" d="M20,16c-2.95-2.34-5.14-4.73-6-9h4A22.07,22.07,0,0,0,20,16Z"/><path class="cls-3" d="M19.56,14.88a14.17,14.17,0,0,1-3-4.82A1.53,1.53,0,0,1,18,8,21.31,21.31,0,0,0,19.56,14.88Z"/><rect class="cls-5" x="25" y="3" width="22" height="4"/><path class="cls-3" d="M47,3V6H30a3,3,0,0,1-3-3Z"/><polygon class="cls-1" points="45 7 45 11 43 11 38 16 34 16 29 11 27 11 27 7 45 7"/><path class="cls-2" d="M45,7v4H43l-3,3a7.25,7.25,0,0,1-5.12-2.12L32.41,9.41a1.42,1.42,0,0,0-1-.41A1.41,1.41,0,0,1,30,7.59V7Z"/><path class="cls-6" d="M38,16V28a2,2,0,0,1-4,0V16Z"/><path class="cls-7" d="M38,16V28a2,2,0,0,1-2-2V16Z"/><path class="cls-4" d="M20,3V7H14l-2,4A6,6,0,0,1,6,5V3Z"/></g></svg>