<svg xmlns="http://www.w3.org/2000/svg" viewBox="0 0 48 48"><defs><style>.cls-1{fill:#c6c3d8;}.cls-2{fill:#dad7e5;}.cls-3{fill:#edebf2;}.cls-4{fill:#7c7d7d;}.cls-5{fill:#919191;}.cls-6{fill:#9fdbf3;}.cls-7{fill:#b2e5fb;}</style></defs><title>bathtube</title><g id="bathtube"><path class="cls-1" d="M2,25V6A5,5,0,0,1,12,6V7a1,1,0,0,1-2,0V6A3,3,0,0,0,4,6V25A1,1,0,0,1,2,25Z"/><path class="cls-2" d="M47,26a2,2,0,0,1-2,2H3a2,2,0,0,1,0-4H45A2,2,0,0,1,47,26Z"/><path class="cls-3" d="M47,26H6a2,2,0,0,1-2-2H45A2,2,0,0,1,47,26Z"/><path class="cls-2" d="M45,28c-1.3,6.94-1.28,12.49-7.28,15.15-.26-.77-.55-2.15-2.09-2.15a1.92,1.92,0,0,0-1.9,1.9A3.23,3.23,0,0,0,34,44c-.1,0-18.85.07-20-.08l.14-.41a1.9,1.9,0,1,0-3.6-1.2l-.14.4A9.94,9.94,0,0,1,5.81,37L3,28Z"/><path class="cls-4" d="M14.27,42.9a18.65,18.65,0,0,1-1,3.07A1.9,1.9,0,0,1,9.83,44.5c.7-2.09.55-1.66.74-2.2A1.9,1.9,0,0,1,14.27,42.9Z"/><path class="cls-5" d="M14.27,42.9a18.65,18.65,0,0,1-1,3.07,1.89,1.89,0,0,1-1.48-2.47A18.91,18.91,0,0,1,12.69,41,1.9,1.9,0,0,1,14.27,42.9Z"/><path class="cls-4" d="M38.1,45.87a1.89,1.89,0,0,1-3.53-.17L34,44h0a3.29,3.29,0,0,1-.26-1.09,1.9,1.9,0,0,1,1.9-1.9c1.47,0,1.77,1.22,2.09,2.15C38.25,44.74,38.45,45.11,38.1,45.87Z"/><path class="cls-5" d="M38.1,45.87a1.91,1.91,0,0,1-2.53-1.16L35,43h0a2.24,2.24,0,0,1-.09-1.86,1.94,1.94,0,0,1,.73-.14c1.47,0,1.77,1.22,2.09,2.15C38.25,44.74,38.45,45.11,38.1,45.87Z"/><path class="cls-2" d="M15,11c-8.55,0-8-.1-8,0a4,4,0,0,1,8,0Z"/><path class="cls-6" d="M9,14a1,1,0,0,0-2,0A1,1,0,0,0,9,14Z"/><path class="cls-6" d="M9,17a1,1,0,0,0-2,0A1,1,0,0,0,9,17Z"/><path class="cls-6" d="M9,20a1,1,0,0,0-2,0A1,1,0,0,0,9,20Z"/><path class="cls-6" d="M12,14a1,1,0,0,0-2,0A1,1,0,0,0,12,14Z"/><path class="cls-6" d="M12,17a1,1,0,0,0-2,0A1,1,0,0,0,12,17Z"/><path class="cls-6" d="M12,20a1,1,0,0,0-2,0A1,1,0,0,0,12,20Z"/><path class="cls-6" d="M15,14a1,1,0,0,0-2,0A1,1,0,0,0,15,14Z"/><path class="cls-6" d="M15,17a1,1,0,0,0-2,0A1,1,0,0,0,15,17Z"/><path class="cls-6" d="M15,20a1,1,0,0,0-2,0A1,1,0,0,0,15,20Z"/><path class="cls-6" d="M44,24H21.1A5,5,0,0,1,24,20.42,4.84,4.84,0,0,1,26.1,20a5,5,0,0,1,9.81.06A5,5,0,0,1,44,24Z"/><path class="cls-6" d="M43,14a1,1,0,0,0-2,0A1,1,0,0,0,43,14Z"/><path class="cls-6" d="M35,10a1,1,0,0,0-2,0A1,1,0,0,0,35,10Z"/><path class="cls-6" d="M26,13a1,1,0,0,0-2,0A1,1,0,0,0,26,13Z"/><path class="cls-3" d="M45,28c-1.39,7.4-1.4,11.09-5.31,14H37.3A1.88,1.88,0,0,0,34,42H26.24A20.12,20.12,0,0,1,7.06,28Z"/><path class="cls-7" d="M43.9,23H26.58A2.59,2.59,0,0,1,24,20.42,5.2,5.2,0,0,1,26.1,20a5,5,0,0,1,9.81.06A5,5,0,0,1,43.9,23Z"/></g></svg>