<svg xmlns="http://www.w3.org/2000/svg" viewBox="0 0 48 48"><defs><style>.cls-1{fill:#7c7d7d;}.cls-2{fill:#dad7e5;}.cls-3{fill:#edebf2;}.cls-4{fill:#c6c3d8;}.cls-5{fill:#9fdbf3;}.cls-6{fill:#b2e5fb;}</style></defs><title>bathroom</title><g id="bathroom"><path class="cls-1" d="M8,26V21.5a.5.5,0,0,0-1,0V22a1,1,0,0,1-2,0v-.5a2.5,2.5,0,0,1,5,0V26A1,1,0,0,1,8,26Z"/><path class="cls-1" d="M46,26H45V20h1a1,1,0,0,0,0-2H45V7a5,5,0,0,0-5-5H36a5,5,0,0,0-5,5v3a1,1,0,0,0,2,0V7a3,3,0,0,1,3-3h4a3,3,0,0,1,3,3V33H41V32a1,1,0,0,0-2,0v4a1,1,0,0,0,2,0V35h2V46a1,1,0,0,0,2,0V28h1A1,1,0,0,0,46,26Z"/><rect class="cls-2" x="1" y="25" width="16" height="4"/><path class="cls-3" d="M17,25v2H5a2,2,0,0,1-2-2Z"/><path class="cls-4" d="M15,29c0,1.62.3,3.15-1.18,3.82-.58.28-.45.18-8.82.18a2,2,0,0,1-2-2V29Z"/><path class="cls-2" d="M6,30a2,2,0,0,0-1.82,2.82A1.89,1.89,0,0,0,5,33h8a2,2,0,0,0,2-2V30Z"/><rect class="cls-4" x="7" y="33" width="4" height="14"/><path class="cls-2" d="M8,37V47h3c0-13.72-.1-13,0-13A3,3,0,0,0,8,37Z"/><rect class="cls-5" x="2" y="1" width="14" height="14"/><path class="cls-6" d="M16,1c0,12.64-.1,12,0,12A12,12,0,0,1,4,1Z"/><path class="cls-3" d="M7,8a1,1,0,0,1-.71-1.71l2-2A1,1,0,0,1,9.71,5.71C7.53,7.89,7.54,8,7,8Z"/><path class="cls-3" d="M8,12a1,1,0,0,1-.71-1.71l2-2a1,1,0,0,1,1.42,1.42C8.53,11.89,8.54,12,8,12Z"/><path class="cls-4" d="M38,12.06V14H26c0-1.63-.29-3.12,1.19-3.81.59-.27.31-.19,8.75-.19A2.06,2.06,0,0,1,38,12.06Z"/><path class="cls-2" d="M38,12.06V13H28.94a2,2,0,0,1-1.75-2.81,2.09,2.09,0,0,1,.87-.19h7.88A2.06,2.06,0,0,1,38,12.06Z"/><path class="cls-5" d="M29,18a1,1,0,0,0-2,0A1,1,0,0,0,29,18Z"/><path class="cls-5" d="M33,18a1,1,0,0,0-2,0A1,1,0,0,0,33,18Z"/><path class="cls-5" d="M29,22a1,1,0,0,0-2,0A1,1,0,0,0,29,22Z"/><path class="cls-5" d="M33,22a1,1,0,0,0-2,0A1,1,0,0,0,33,22Z"/><path class="cls-5" d="M29,26a1,1,0,0,0-2,0A1,1,0,0,0,29,26Z"/><path class="cls-5" d="M33,26a1,1,0,0,0-2,0A1,1,0,0,0,33,26Z"/><path class="cls-5" d="M29,30a1,1,0,0,0-2,0A1,1,0,0,0,29,30Z"/><path class="cls-5" d="M33,30a1,1,0,0,0-2,0A1,1,0,0,0,33,30Z"/><path class="cls-5" d="M37,18a1,1,0,0,0-2,0A1,1,0,0,0,37,18Z"/><path class="cls-5" d="M37,22a1,1,0,0,0-2,0A1,1,0,0,0,37,22Z"/><path class="cls-5" d="M37,26a1,1,0,0,0-2,0A1,1,0,0,0,37,26Z"/><path class="cls-5" d="M37,30a1,1,0,0,0-2,0A1,1,0,0,0,37,30Z"/><path class="cls-1" d="M46,47H2a1,1,0,0,1,0-2H46A1,1,0,0,1,46,47Z"/></g></svg>