<svg xmlns="http://www.w3.org/2000/svg" viewBox="0 0 48 48"><defs><style>.cls-1{fill:#edb996;}.cls-2{fill:#f6ccaf;}.cls-3{fill:#a87e6b;}.cls-4{fill:#be927c;}.cls-5{fill:#dad7e5;}</style></defs><title>Door number</title><g id="Door_number" data-name="Door number"><rect class="cls-1" x="8" y="1" width="32" height="46"/><path class="cls-2" d="M40,1c0,43.26-.1,42,0,42A29,29,0,0,1,11,14V1Z"/><rect class="cls-3" x="12" y="5" width="24" height="42"/><path class="cls-4" d="M36,5c0,39.25-.1,38,0,38A21,21,0,0,1,15,22V5Z"/><path class="cls-5" d="M20,14.76,20.72,12H20a1,1,0,0,1,0-2c2,0,2.39-.13,2.79.38s.25.56-.82,4.86A1,1,0,0,1,20,14.76Z"/><path class="cls-5" d="M26,14.76,26.72,12H26a1,1,0,0,1,0-2c2,0,2.39-.13,2.79.38s.25.56-.82,4.86A1,1,0,0,1,26,14.76Z"/><path class="cls-5" d="M30,19H18a1,1,0,0,1,0-2H30A1,1,0,0,1,30,19Z"/><path class="cls-5" d="M25,22a1,1,0,0,0-2,0A1,1,0,0,0,25,22Z"/><path class="cls-5" d="M46,47H2a1,1,0,0,1,0-2H46A1,1,0,0,1,46,47Z"/><path class="cls-5" d="M32,27H28a1,1,0,0,0,0,2h2a2,2,0,1,0,2-2Z"/></g></svg>