<svg xmlns="http://www.w3.org/2000/svg" viewBox="0 0 48 48"><defs><style>.cls-1{fill:#6fabe6;}.cls-2{fill:#82bcf4;}.cls-3{fill:#dad7e5;}.cls-4{fill:#c6c3d8;}.cls-5{fill:#5b9ad8;}.cls-6{fill:#edebf2;}</style></defs><title>towel</title><g id="towel"><path class="cls-1" d="M39,10V41H17V10a3,3,0,0,0-3-3H36A3,3,0,0,1,39,10Z"/><path class="cls-2" d="M39,10c0,30.2-.1,29,0,29A19,19,0,0,1,20,20V7H36A3,3,0,0,1,39,10Z"/><path class="cls-3" d="M47,10c0,6.3.2,6.64-.59,7.41A2,2,0,0,1,43,16V15H39V11h4V10a2,2,0,0,1,.59-1.41A2,2,0,0,1,47,10Z"/><path class="cls-4" d="M45,15V14H44a3,3,0,0,1-3-3H39v4h4v.89A2,2,0,0,0,46.74,17,2,2,0,0,1,45,15Z"/><path class="cls-3" d="M17,11v4H5v1a2,2,0,0,1-.59,1.41A2,2,0,0,1,1,16c0-6.3-.2-6.64.59-7.41A2,2,0,0,1,5,10v1Z"/><path class="cls-4" d="M3,15c0-6.56-.09-6.35.26-7a1.9,1.9,0,0,0-1.67.56C.8,9.36,1,9.59,1,16a2,2,0,0,0,3.74,1A2,2,0,0,1,3,15Z"/><path class="cls-5" d="M17,10v1H11c0-1.21-.09-2,.76-3A2.93,2.93,0,0,1,14,7,3,3,0,0,1,17,10Z"/><path class="cls-1" d="M15,11H11c0-1.21-.09-2,.76-3A3,3,0,0,1,15,11Z"/><rect class="cls-5" x="11" y="15" width="6" height="14"/><rect class="cls-1" x="11" y="15" width="4" height="14"/><polygon class="cls-3" points="39 28 39 34 29 34 35 28 39 28"/><polygon class="cls-3" points="35 28 29 34 21 34 27 28 35 28"/><polygon class="cls-3" points="27 28 21 34 17 34 17 28 27 28"/><rect class="cls-4" x="15" y="11" width="2" height="4"/><path class="cls-6" d="M27,28c-3.88,3.88-4.1,4-4,4a3,3,0,0,1-3-3V28Z"/><path class="cls-6" d="M39,28v4H35.83a2,2,0,0,1-1.42-3.41L35,28Z"/><path class="cls-6" d="M35,28l-4,4H27.83a2,2,0,0,1-1.42-3.41L27,28Z"/></g></svg>