<svg xmlns="http://www.w3.org/2000/svg" viewBox="0 0 48 48"><defs><style>.cls-1{fill:#82bcf4;}.cls-2{fill:#6fabe6;}</style></defs><title>door hanger</title><g id="door_hanger" data-name="door hanger"><path class="cls-1" d="M13,12V45a2,2,0,0,0,2,2H33a2,2,0,0,0,2-2V21a2,2,0,0,0-2-2H25a7,7,0,0,1-7-7,6,6,0,0,1,12,0,1,1,0,0,0,1,1h3a1,1,0,0,0,1-1,11,11,0,0,0-22,0Z"/><path class="cls-2" d="M17,27V10a11,11,0,0,1,4.18-8.62A11,11,0,0,0,13,12V45a2,2,0,0,0,2,2H33a2,2,0,0,0,2-2A18,18,0,0,1,17,27Z"/></g></svg>