<svg xmlns="http://www.w3.org/2000/svg" viewBox="0 0 48 48"><defs><style>.cls-1{fill:#ffde76;}.cls-2{fill:#a87e6b;}.cls-3{fill:#be927c;}.cls-4{fill:#919191;}.cls-5{fill:#dad7e5;}.cls-6{fill:#edebf2;}.cls-7{fill:#747575;}.cls-8{fill:#edb996;}.cls-9{fill:#f6ccaf;}.cls-10{fill:#ffdec7;}.cls-11{fill:#fc6;}.cls-12{fill:#7c7d7d;}</style></defs><title>receptionist</title><g id="receptionist"><path class="cls-1" d="M6,23V21a1,1,0,0,1,2,0v2A1,1,0,0,1,6,23Z"/><rect class="cls-2" x="1" y="32" width="46" height="4"/><path class="cls-3" d="M47,32v2H6a2,2,0,0,1-2-2Z"/><path class="cls-4" d="M40,32H35c.37-4.87.63-8.15,1-13,2.1,2.93,1,1.39,5,7l-2,2Z"/><path class="cls-5" d="M35.76,22.12C35,31.57,35.2,29.39,35,32H29l-.76-9.88A8.46,8.46,0,0,0,35.76,22.12Z"/><path class="cls-6" d="M35.76,22.12,35.15,30a4.48,4.48,0,0,1-4.47-4.14l-.23-3A8.47,8.47,0,0,0,35.76,22.12Z"/><path class="cls-7" d="M23,26l2,2-1,4H17l.6-4.81a6.09,6.09,0,0,1,3.27-4.63L28,19Z"/><path class="cls-7" d="M47,32H40l-1-4,2-2-5-7C46.78,24.39,45.86,22.91,47,32Z"/><path class="cls-8" d="M36,16.46a40.93,40.93,0,0,1-.24,5.66,8.46,8.46,0,0,1-7.52,0A39.92,39.92,0,0,1,28,16.46,6,6,0,0,0,36,16.46Z"/><path class="cls-9" d="M36,19.67l-.19,2.45a8.52,8.52,0,0,1-5.62.69l-.08-2.43a1,1,0,0,1,1.41-.94A6,6,0,0,0,36,19.67Z"/><path class="cls-9" d="M38,9c0,3,.35,5.38-2,7.46A6,6,0,0,1,26,12V9c2.93,0,4.78.27,6.89-1.11C34.28,9.28,35.41,9,38,9Z"/><path class="cls-10" d="M38,11c0,2.38-.26,4.14-2.39,5.78A6,6,0,0,1,28,11a7.66,7.66,0,0,0,4.89-1.11C34.28,11.28,35.36,11,38,11Z"/><path class="cls-3" d="M41,10V21.5L36,19V16.46C38.35,14.38,38,12,38,9c-2.66,0-3.74.26-5.11-1.11C30.83,9.24,29.24,9,26,9c0,3-.35,5.38,2,7.46V19l-5,2.5V10a9,9,0,0,1,18,0Z"/><path class="cls-2" d="M26.72,2.72C24.5,5.79,25,7.41,25,20.5l-2,1V10A9,9,0,0,1,26.72,2.72Z"/><path class="cls-4" d="M24,32l1-4-2-2,5-7c.37,4.84.63,8.13,1,13Z"/><path class="cls-11" d="M13,28H1a6,6,0,0,1,12,0Z"/><path class="cls-1" d="M12.65,26h-7a2.07,2.07,0,0,1-1.82-3.09A5.55,5.55,0,0,1,7,22,6,6,0,0,1,12.65,26Z"/><rect class="cls-11" x="1" y="28" width="12" height="4"/><path class="cls-1" d="M13,28v2H6a2,2,0,0,1-2-2Z"/><rect class="cls-8" x="2" y="36" width="44" height="11"/><path class="cls-9" d="M46,38v9H5a9,9,0,0,1,9-9Z"/><path class="cls-12" d="M46.75,30H41.56A2.65,2.65,0,0,1,39,28l2-2-5-7C46.44,24.22,45.93,23.39,46.75,30Z"/><path class="cls-12" d="M23,26l2,2-.5,2A4.5,4.5,0,0,1,20,25.5V23.11c.5-.41.06-.14,8-4.11Z"/></g></svg>