<svg xmlns="http://www.w3.org/2000/svg" viewBox="0 0 48 48"><defs><style>.cls-1{fill:#9fdbf3;}.cls-2{fill:#b2e5fb;}.cls-3{fill:#de4a8c;}.cls-4{fill:#6fabe6;}.cls-5{fill:#8bd1ea;}</style></defs><title>Toilet sign</title><g id="Toilet_sign" data-name="Toilet sign"><path class="cls-1" d="M47,15c0,19.31.21,18.7-.54,20A4,4,0,0,1,43,37H24V11H43A4,4,0,0,1,47,15Z"/><path class="cls-2" d="M47,15c0,19.31.21,18.7-.54,20A21,21,0,0,1,25,14V11H43A4,4,0,0,1,47,15Z"/><path class="cls-1" d="M24,11V37H5a4,4,0,0,1-4-4V15a4,4,0,0,1,4-4Z"/><path class="cls-2" d="M24,11c0,24.83-.1,24,0,24A20,20,0,0,1,4,15c0-1.84-.11-2.6.35-3.64C5.2,10.84,2.86,11,24,11Z"/><circle class="cls-3" cx="12" cy="16" r="2"/><circle class="cls-4" cx="36" cy="16" r="2"/><polygon class="cls-3" points="17 28 15 19 9 19 7 28 10 28 10 34 14 34 14 28 17 28"/><polygon class="cls-4" points="32 19 32 27 34 27 34 34 38 34 38 27 40 27 40 19 32 19"/><rect class="cls-5" x="23" y="11" width="2" height="26"/></g></svg>