<svg xmlns="http://www.w3.org/2000/svg" viewBox="0 0 48 48"><defs><style>.cls-1{fill:#7c7d7d;}.cls-2{fill:#919191;}.cls-3{fill:#c6c3d8;}.cls-4{fill:#dad7e5;}</style></defs><title>fitness</title><g id="fitness"><path class="cls-1" d="M15,3.5c0,16,0,15.17,0,15.46a2.5,2.5,0,0,1-5-.46V3.5a2.5,2.5,0,1,1,5,0Z"/><path class="cls-2" d="M15,3.5c0,16,0,15.17,0,15.46a2.51,2.51,0,0,1-3-2.46C12,.49,12,1.33,12,1A2.5,2.5,0,0,1,15,3.5Z"/><path class="cls-1" d="M10,5.5C10,17.55,10,16.67,10,17a2.5,2.5,0,0,1-5-.46V5.5a2.5,2.5,0,1,1,5,0Z"/><path class="cls-2" d="M10,5.5C10,17.55,10,16.67,10,17A2.51,2.51,0,0,1,7,14.5C7,2.43,7,3.33,7,3A2.5,2.5,0,0,1,10,5.5Z"/><rect class="cls-3" x="1" y="9" width="4" height="4"/><path class="cls-4" d="M4,9v2H3A2,2,0,0,1,1,9Z"/><path class="cls-1" d="M38,3.5c0,16,0,15.17,0,15.46a2.5,2.5,0,0,1-5-.46C33,2,32.74,2.72,33.73,1.73A2.51,2.51,0,0,1,38,3.5Z"/><path class="cls-2" d="M38,3.5c0,16,0,15.17,0,15.46a2.51,2.51,0,0,1-3-2.46C35,.49,35,1.33,35,1A2.51,2.51,0,0,1,38,3.5Z"/><path class="cls-1" d="M43,5.5C43,17.55,43,16.67,43,17a2.5,2.5,0,0,1-5-.46c0-12-.25-11.79.73-12.77A2.51,2.51,0,0,1,43,5.5Z"/><path class="cls-2" d="M43,5.5C43,17.55,43,16.67,43,17a2.51,2.51,0,0,1-3-2.46C40,2.43,40,3.33,40,3A2.51,2.51,0,0,1,43,5.5Z"/><rect class="cls-3" x="43" y="9" width="4" height="4"/><rect class="cls-4" x="43" y="9" width="4" height="2"/><rect class="cls-3" x="15" y="9" width="18" height="4"/><path class="cls-4" d="M31,9v2H19a2,2,0,0,1-2-2Z"/><path class="cls-1" d="M15,29.5c0,16,0,15.17,0,15.46a2.5,2.5,0,0,1-5-.46v-15a2.5,2.5,0,1,1,5,0Z"/><path class="cls-2" d="M15,29.5c0,16,0,15.17,0,15.46a2.51,2.51,0,0,1-3-2.46c0-16,0-15.17,0-15.46A2.5,2.5,0,0,1,15,29.5Z"/><path class="cls-1" d="M10,31.5c0,12,0,11.17,0,11.46a2.5,2.5,0,0,1-5-.46v-11a2.5,2.5,0,1,1,5,0Z"/><path class="cls-2" d="M10,31.5c0,12,0,11.17,0,11.46A2.51,2.51,0,0,1,7,40.5C7,28.43,7,29.33,7,29A2.5,2.5,0,0,1,10,31.5Z"/><rect class="cls-3" x="1" y="35" width="4" height="4"/><path class="cls-4" d="M4,35v2H3a2,2,0,0,1-2-2Z"/><path class="cls-1" d="M38,29.5c0,16,0,15.17,0,15.46a2.5,2.5,0,0,1-5-.46c0-16.55-.26-15.78.73-16.77A2.51,2.51,0,0,1,38,29.5Z"/><path class="cls-2" d="M38,29.5c0,16,0,15.17,0,15.46a2.51,2.51,0,0,1-3-2.46c0-16,0-15.17,0-15.46A2.51,2.51,0,0,1,38,29.5Z"/><path class="cls-1" d="M43,31.5c0,12,0,11.17,0,11.46a2.5,2.5,0,0,1-5-.46c0-12-.25-11.79.73-12.77A2.51,2.51,0,0,1,43,31.5Z"/><path class="cls-2" d="M43,31.5c0,12,0,11.17,0,11.46a2.51,2.51,0,0,1-3-2.46C40,28.43,40,29.33,40,29A2.51,2.51,0,0,1,43,31.5Z"/><rect class="cls-3" x="43" y="35" width="4" height="4"/><rect class="cls-4" x="43" y="35" width="4" height="2"/><rect class="cls-3" x="15" y="35" width="18" height="4"/><path class="cls-4" d="M31,35v2H19a2,2,0,0,1-2-2Z"/></g></svg>