<svg xmlns="http://www.w3.org/2000/svg" viewBox="0 0 48 48"><defs><style>.cls-1{fill:#fc6;}.cls-2{fill:#dad7e5;}.cls-3{fill:#ffde76;}.cls-4{fill:#edebf2;}.cls-5{fill:#7c7d7d;}.cls-6{fill:#919191;}.cls-7{fill:#ffba55;}</style></defs><title>Hairdryer</title><g id="Hairdryer"><path class="cls-1" d="M39,8v8c-8.87,0-11.25,3.51-14.69,5.15C22.39,15.87,22.55,8.21,25,3.2,27.64,4.65,30.51,8,39,8Z"/><path class="cls-2" d="M24.31,21.15a15.85,15.85,0,0,1-3.49,1.26C18.17,16.59,18.37,7,21.77,1.84A17.7,17.7,0,0,1,25,3.2C22.52,8.26,22.41,15.94,24.31,21.15Z"/><path class="cls-2" d="M8,2.7V21.3C-1.39,17-1.25,7,8,2.7Z"/><path class="cls-1" d="M20.82,22.41A19.66,19.66,0,0,1,8,21.3V2.7a19.8,19.8,0,0,1,13.77-.86C18.33,7.09,18.2,16.66,20.82,22.41Z"/><path class="cls-3" d="M39,8v6c-9.09,0-11.19,3.61-15.22,5.4-1.31-5-1-11.66,1.22-16.2C27.64,4.65,30.51,8,39,8Z"/><path class="cls-4" d="M23.78,19.4a16.28,16.28,0,0,1-3.66,1.16c-1.9-5.85-1.39-14.09,1.65-18.72A17.7,17.7,0,0,1,25,3.2C22.78,7.73,22.46,14.34,23.78,19.4Z"/><path class="cls-3" d="M20.12,20.56A19.54,19.54,0,0,1,8,19.3V2.7a19.8,19.8,0,0,1,13.77-.86C18.71,6.5,18.23,14.74,20.12,20.56Z"/><path class="cls-4" d="M8,2.7V19.3C4.15,17.53,1.49,14.5,1.07,11,1.49,7.5,4.15,4.47,8,2.7Z"/><path class="cls-1" d="M23.45,21.55c-3.18,2.6-5.37,3.79-5.71,6.91-.21,2.31,0,.32-1.48,16.08a2.76,2.76,0,0,1-5.48,0C9.11,22.38,9.28,24.56,9.06,21.74A19.83,19.83,0,0,0,23.45,21.55Z"/><polygon class="cls-5" points="21 29 21 35 17.14 35 17.69 29 21 29"/><path class="cls-6" d="M21,29v5a2.61,2.61,0,0,1-2.6-2.85L18.6,29Z"/><path class="cls-2" d="M47,5V19H43c-2.4-2.4-1.48-1.74-4-3V8c2.52-1.26,1.6-.6,4-3Z"/><path class="cls-4" d="M47,5V17h-.81a2.87,2.87,0,0,1-2-.84l-.83-.83c-.65-.65-2.33-1-2.33-3.1V7l2-2Z"/><path class="cls-7" d="M9.06,21.74l1.72,22.75a2.75,2.75,0,0,0,5.41.42,2.75,2.75,0,0,1-3.41-2.42l-1.36-18a19.69,19.69,0,0,0,8.25.21C28.58,17.19,20.41,26.18,9.06,21.74Z"/></g></svg>