<svg xmlns="http://www.w3.org/2000/svg" viewBox="0 0 48 48"><defs><style>.cls-1{fill:#374f68;}.cls-2{fill:#dad7e5;}.cls-3{fill:#edebf2;}.cls-4{fill:#c6c3d8;}.cls-5{fill:#9fdbf3;}.cls-6{fill:#b2e5fb;}</style></defs><title>Sink and mirror</title><g id="Sink_and_mirror" data-name="Sink and mirror"><path class="cls-1" d="M31,31V28a1,1,0,0,1,2,0v3A1,1,0,0,1,31,31Z"/><path class="cls-1" d="M15,31V28a1,1,0,0,1,2,0v3A1,1,0,0,1,15,31Z"/><path class="cls-1" d="M20,31V26.5a3.5,3.5,0,0,1,7,0V27a1,1,0,0,1-2,0v-.5a1.5,1.5,0,0,0-3,0V31A1,1,0,0,1,20,31Z"/><path class="cls-2" d="M40,31c0,3.15.06,3.38-.18,4A3,3,0,0,1,37,37H11a3,3,0,0,1-3-3V31Z"/><path class="cls-3" d="M40,31c0,3.15.06,3.38-.18,4H15a4,4,0,0,1-4-4C11,30.9,9.86,31,40,31Z"/><path class="cls-4" d="M36,37a4,4,0,0,1-2.36,3.64c-1.12.52-.46.36-17.64.36a4,4,0,0,1-4-4Z"/><path class="cls-2" d="M34,39a3.93,3.93,0,0,1-.36,1.64c-1.12.52-.46.36-17.64.36a4,4,0,0,1-3.46-2Z"/><rect class="cls-4" x="21" y="41" width="6" height="6"/><path class="cls-2" d="M26,47H21V42A5,5,0,0,1,26,47Z"/><rect class="cls-5" x="11" y="1" width="26" height="19"/><path class="cls-6" d="M37,1V18H31A17,17,0,0,1,14,1Z"/><path class="cls-3" d="M21,11a1,1,0,0,1-.71-1.71l3-3a1,1,0,0,1,1.42,1.42C21.59,10.82,21.58,11,21,11Z"/><path class="cls-3" d="M24,14a1,1,0,0,1-.71-1.71l3-3a1,1,0,0,1,1.42,1.42C24.59,13.82,24.58,14,24,14Z"/></g></svg>