<svg xmlns="http://www.w3.org/2000/svg" viewBox="0 0 48 48"><defs><style>.cls-1{fill:#dad7e5;}.cls-2{fill:#edebf2;}.cls-3{fill:#c6c3d8;}</style></defs><title>Flip Flop Hotel</title><g id="Flip_Flop_Hotel" data-name="Flip Flop Hotel"><path class="cls-1" d="M47,13,45.5,37a8.52,8.52,0,0,1-17,0L27,13a10,10,0,0,1,20,0Z"/><path class="cls-2" d="M46.22,25.52c-.77,12.35-.35,14-3.09,16.88A8.52,8.52,0,0,1,31.5,35L31,26.41A29.85,29.85,0,0,0,46.22,25.52Z"/><path class="cls-2" d="M47,13c-.09,1.46,0,1-.15.28-4.84,2-11.52,2.18-16.65,1L30,11a9.94,9.94,0,0,1,3-7.18A10,10,0,0,1,47,13Z"/><path class="cls-3" d="M46.35,23.47a29.33,29.33,0,0,1-18.7,0c-.64-10.3-.78-10.64-.5-12.19a29,29,0,0,0,19.7,0C47.11,12.74,47,12.29,46.35,23.47Z"/><path class="cls-1" d="M46.42,22.33A29.91,29.91,0,0,1,40,23a9.86,9.86,0,0,1-9.83-9.31l-.09-1.47c5.17,1.25,11.93,1,16.77-.94C47.1,12.71,47,12.49,46.42,22.33Z"/><path class="cls-1" d="M21,13,19.5,37a8.52,8.52,0,0,1-17,0L1,13a10,10,0,0,1,20,0Z"/><path class="cls-2" d="M20.22,25.52c-.77,12.35-.35,14-3.09,16.88A8.52,8.52,0,0,1,5.5,35L5,26.41A29.85,29.85,0,0,0,20.22,25.52Z"/><path class="cls-2" d="M21,13c-.09,1.46,0,1-.15.28-4.84,2-11.52,2.18-16.65,1L4,11A9.94,9.94,0,0,1,7.05,3.82,10,10,0,0,1,21,13Z"/><path class="cls-3" d="M20.35,23.47a29.33,29.33,0,0,1-18.7,0C1,13.17.87,12.83,1.15,11.28a29,29,0,0,0,19.7,0C21.11,12.74,21,12.29,20.35,23.47Z"/><path class="cls-1" d="M20.42,22.33A29.91,29.91,0,0,1,14,23a9.86,9.86,0,0,1-9.83-9.31l-.09-1.47c5.17,1.25,11.93,1,16.77-.94C21.1,12.71,21,12.49,20.42,22.33Z"/></g></svg>