<svg xmlns="http://www.w3.org/2000/svg" viewBox="0 0 48 48"><defs><style>.cls-1{fill:#6fabe6;}.cls-2{fill:#82bcf4;}.cls-3{fill:#dad7e5;}.cls-4{fill:#edebf2;}.cls-5{fill:#c6c3d8;}.cls-6{fill:#db5669;}.cls-7{fill:#f26674;}.cls-8{fill:#c4455e;}.cls-9{fill:#fc6;}.cls-10{fill:#ffde76;}.cls-11{fill:#9fdbf3;}.cls-12{fill:#b2e5fb;}</style></defs><title>toiletries</title><g id="toiletries"><polygon class="cls-1" points="47 44 47 47 23 47 23 45 24 44 47 44"/><path class="cls-1" d="M47,23V40H23V23a6,6,0,0,1,3-5.19c1.83-1.08,2.07-.81,15-.81A6,6,0,0,1,47,23Z"/><path class="cls-2" d="M47,23V45A21,21,0,0,1,26,24V17.81c1.83-1.08,2.07-.81,15-.81A6,6,0,0,1,47,23Z"/><rect class="cls-3" x="29" y="11" width="12" height="6"/><path class="cls-4" d="M41,11v4H35a4,4,0,0,1-4-4Z"/><rect class="cls-5" x="31" y="5" width="8" height="6"/><path class="cls-3" d="M39,7v4H33a4,4,0,0,1,4-4Z"/><polygon class="cls-6" points="23 27 23 40 22 40 19 43 16 43 16 37 7 37 7 27 23 27"/><path class="cls-7" d="M21,27V39H20l-2.68,2.68A12.91,12.91,0,0,1,12.05,37C9.7,33.35,10,30.25,10,27Z"/><polygon class="cls-3" points="41 1 41 5 27 5 23 9 20 6 25 1 41 1"/><path class="cls-4" d="M41,1V3H28.66a4,4,0,0,0-2.83,1.17L25,5a2.83,2.83,0,0,1-4,0l4-4Z"/><rect class="cls-8" x="11" y="21" width="8" height="6"/><path class="cls-6" d="M19,21v4H17a4,4,0,0,1-4-4Z"/><rect class="cls-3" x="2" y="37" width="14" height="6"/><path class="cls-4" d="M16,37v5H8a5,5,0,0,1-5-5Z"/><polygon class="cls-9" points="47 40 47 44 24 44 21 47 1 47 1 43 19 43 22 40 47 40"/><path class="cls-10" d="M47,40v2H27.66c-2.06,0-3,1.31-4.66,3H5a2,2,0,0,1-2-2c0-.1-.79,0,16,0l3-3Z"/><path class="cls-5" d="M6,37v2a1,1,0,0,1-2,0V37Z"/><path class="cls-5" d="M10,37v2a1,1,0,0,1-2,0V37Z"/><path class="cls-5" d="M14,37v2a1,1,0,0,1-2,0V37Z"/><path class="cls-3" d="M42,24V40H28V24a2,2,0,0,1,2-2H40A2,2,0,0,1,42,24Z"/><path class="cls-4" d="M42,24c0,14.74-.1,14,0,14A12,12,0,0,1,30,26V22H40A2,2,0,0,1,42,24Z"/><path class="cls-11" d="M38,33a3,3,0,0,1-6,0c0-1.37,2.12-4,3-5C35,28,38,31.34,38,33Z"/><path class="cls-12" d="M38,33.24c-2.22,2-5.6-.23-4.9-2.75A23.9,23.9,0,0,1,35,28C35.69,28.77,38.31,31.93,38,33.24Z"/></g></svg>