<svg xmlns="http://www.w3.org/2000/svg" viewBox="0 0 48 48"><defs><style>.cls-1{fill:#dad7e5;}.cls-2{fill:#fc6;}.cls-3{fill:#7c7d7d;}.cls-4{fill:#919191;}.cls-5{fill:#374f68;}.cls-6{fill:#425b72;}.cls-7{fill:#ffde76;}.cls-8{fill:#6fabe6;}.cls-9{fill:#82bcf4;}.cls-10{fill:#db5669;}.cls-11{fill:#f26674;}.cls-12{fill:#c4455e;}</style></defs><title>Trolley Bag</title><g id="Trolley_Bag" data-name="Trolley Bag"><path class="cls-1" d="M34,28V25H28v3a1,1,0,0,1-2,0V24a1,1,0,0,1,1-1h8a1,1,0,0,1,1,1v4A1,1,0,0,1,34,28Z"/><path class="cls-1" d="M16,22V19H14v3a1,1,0,0,1-2,0V18a1,1,0,0,1,1-1h4a1,1,0,0,1,1,1v4A1,1,0,0,1,16,22Z"/><path class="cls-1" d="M23,4V2a1,1,0,0,1,2,0V4A1,1,0,0,1,23,4Z"/><path class="cls-1" d="M24,13H18a1,1,0,0,1,0-2h6A1,1,0,0,1,24,13Z"/><path class="cls-1" d="M30,13H24a1,1,0,0,1,0-2h6A1,1,0,0,1,30,13Z"/><path class="cls-1" d="M23,12V8a1,1,0,0,1,2,0v4A1,1,0,0,1,23,12Z"/><path class="cls-2" d="M42,39H6a1,1,0,0,1-1-1V24A18.92,18.92,0,0,1,20.84,5.27a1,1,0,0,1,.32,2A16.92,16.92,0,0,0,7,24V37H41V24A17,17,0,0,0,26.84,7.25a1,1,0,0,1,.32-2A19,19,0,0,1,43,24V38A1,1,0,0,1,42,39Z"/><rect class="cls-3" x="4" y="37" width="40" height="4"/><path class="cls-4" d="M44,37v2H9a2,2,0,0,1-2-2Z"/><path class="cls-5" d="M13,44a3,3,0,1,1-4.56-2.56A3,3,0,0,1,13,44Z"/><path class="cls-6" d="M12.56,45.56a3,3,0,0,1-4.12-4.12A3,3,0,0,1,12.56,45.56Z"/><path class="cls-5" d="M42,44a3,3,0,1,1-4.56-2.56A3,3,0,0,1,42,44Z"/><path class="cls-6" d="M41.56,45.56a3,3,0,0,1-4.12-4.12A3,3,0,0,1,41.56,45.56Z"/><path class="cls-2" d="M26.41,7.41C25.69,8.15,25,8,23,8a2,2,0,0,1-1.41-3.41A2,2,0,0,1,23,4h2A2,2,0,0,1,26.41,7.41Z"/><path class="cls-7" d="M27,6c0,1.18-.36,1-3,1a2,2,0,0,1-2-2c0-1.18.36-1,3-1A2,2,0,0,1,27,6Z"/><rect class="cls-8" x="10" y="21" width="10" height="16"/><path class="cls-9" d="M20,21c0,14.74-.1,14,0,14a8,8,0,0,1-8-8V21Z"/><path class="cls-5" d="M14,31V27a1,1,0,0,1,2,0v4A1,1,0,0,1,14,31Z"/><rect class="cls-10" x="24" y="27" width="14" height="10"/><path class="cls-11" d="M38,27v8H34a8,8,0,0,1-8-8Z"/><path class="cls-12" d="M29,27v5a1,1,0,0,1-2,0V27Z"/><path class="cls-12" d="M35,27v5a1,1,0,0,1-2,0V27Z"/></g></svg>