<svg xmlns="http://www.w3.org/2000/svg" viewBox="0 0 48 48"><defs><style>.cls-1{fill:#7c7d7d;}.cls-2{fill:#919191;}.cls-3{fill:#c6c3d8;}.cls-4{fill:#9fdbf3;}.cls-5{fill:#b2e5fb;}.cls-6{fill:#dad7e5;}</style></defs><title>smart handle door</title><g id="smart_handle_door" data-name="smart handle door"><path class="cls-1" d="M11,36a6,6,0,0,0,11.19,3H28v8H6V1H28V33H22.19A6,6,0,0,0,11,36Z"/><path class="cls-2" d="M11,36.72A6,6,0,0,0,22.19,39H28v6A19,19,0,0,1,9,26V1H28V33H22.19C19,27.38,10.28,30.24,11,36.72Z"/><path class="cls-3" d="M12,18H10a1,1,0,0,1,0-2h2A1,1,0,0,1,12,18Z"/><path class="cls-3" d="M18,18H16a1,1,0,0,1,0-2h2A1,1,0,0,1,18,18Z"/><path class="cls-3" d="M24,18H22a1,1,0,0,1,0-2h2A1,1,0,0,1,24,18Z"/><path class="cls-3" d="M12,22H10a1,1,0,0,1,0-2h2A1,1,0,0,1,12,22Z"/><path class="cls-3" d="M18,22H16a1,1,0,0,1,0-2h2A1,1,0,0,1,18,22Z"/><path class="cls-3" d="M24,22H22a1,1,0,0,1,0-2h2A1,1,0,0,1,24,22Z"/><path class="cls-3" d="M12,26H10a1,1,0,0,1,0-2h2A1,1,0,0,1,12,26Z"/><path class="cls-3" d="M18,26H16a1,1,0,0,1,0-2h2A1,1,0,0,1,18,26Z"/><path class="cls-3" d="M24,26H22a1,1,0,0,1,0-2h2A1,1,0,0,1,24,26Z"/><rect class="cls-4" x="10" y="6" width="14" height="7"/><path class="cls-5" d="M24,6v5H17a5,5,0,0,1-5-5Z"/><path class="cls-3" d="M42,36a3,3,0,0,1-3,3H22.19a6,6,0,1,1,0-6H39A3,3,0,0,1,42,36Z"/><path class="cls-6" d="M41.82,35A3,3,0,0,1,39,37H22.19a6,6,0,0,1-11.1-2,6,6,0,0,1,11.1-2c18.46,0,17.74-.31,18.93.88A2.84,2.84,0,0,1,41.82,35Z"/></g></svg>