<svg xmlns="http://www.w3.org/2000/svg" viewBox="0 0 48 48"><defs><style>.cls-1{fill:#dad7e5;}.cls-2{fill:#7c7d7d;}.cls-3{fill:#919191;}</style></defs><title>Stairs</title><g id="Stairs"><path class="cls-1" d="M46,1c-7.2,0-7.1,0-7.4.08S28.26,10.23,15.22,21.87C-.18,35.5,1,34.43,1,35v3a1,1,0,0,0,2,0V35.45l3-2.68V41a1,1,0,0,0,2,0V31l6-5.35V34a1,1,0,0,0,2,0V23.85l6-5.35V27a1,1,0,0,0,2,0V16.72l6-5.35V20a1,1,0,0,0,2,0V9.58l6-5.35V13a1,1,0,0,0,2,0V3h6A1,1,0,0,0,46,1Z"/><polygon class="cls-2" points="47 12 47 47 5 47 5 40 13 40 13 33 21 33 21 26 29 26 29 19 37 19 37 12 47 12"/><path class="cls-3" d="M47,12V45H13a5,5,0,0,1-5-5h5V33h8V26h8V19h8V12Z"/><path class="cls-1" d="M41,25H37a1,1,0,0,0,0,2h1.48L23.34,40.25a1,1,0,0,0,1.32,1.5L40,28.33V30a1,1,0,0,0,2,0V26A1,1,0,0,0,41,25Z"/></g></svg>