<svg xmlns="http://www.w3.org/2000/svg" viewBox="0 0 48 48"><defs><style>.cls-1{fill:#7c7d7d;}.cls-2{fill:#919191;}.cls-3{fill:#c6c3d8;}.cls-4{fill:#dad7e5;}.cls-5{fill:#9dcc6b;}.cls-6{fill:#b5e08c;}.cls-7{fill:#edebf2;}.cls-8{fill:#fc6;}</style></defs><title>Smart Keycard</title><g id="Smart_Keycard" data-name="Smart Keycard"><path class="cls-1" d="M11,36a6,6,0,0,0,11.19,3H28v8H6V7h4V21H24V7h4V33H22.19A6,6,0,0,0,11,36Z"/><path class="cls-2" d="M11,36.72A6,6,0,0,0,22.19,39H28v6A19,19,0,0,1,9,26V7h1V21H24V7h4V33H22.19C19,27.38,10.28,30.24,11,36.72Z"/><path class="cls-3" d="M42,36a3,3,0,0,1-3,3H22.19a6,6,0,1,1,0-6H39A3,3,0,0,1,42,36Z"/><path class="cls-4" d="M41.82,35A3,3,0,0,1,39,37H22.19a6,6,0,0,1-11.1-2,6,6,0,0,1,11.1-2c18.46,0,17.74-.31,18.93.88A2.84,2.84,0,0,1,41.82,35Z"/><rect class="cls-5" x="20" y="1" width="4" height="20"/><rect class="cls-4" x="10" y="1" width="10" height="20"/><rect class="cls-6" x="20" y="1" width="4" height="18"/><path class="cls-7" d="M20,1c0,18.76-.1,18,0,18a7,7,0,0,1-7-7V1Z"/><path class="cls-5" d="M24,26H10a1,1,0,0,1,0-2H24A1,1,0,0,1,24,26Z"/><path class="cls-8" d="M15,4a3,3,0,0,0-1,5.82V13a1,1,0,0,0,0,2v1a1,1,0,0,0,0,2h1a1,1,0,0,0,1-1V9.82A3,3,0,0,0,15,4Zm0,4a1,1,0,0,1,0-2A1,1,0,0,1,15,8Z"/></g></svg>