<svg xmlns="http://www.w3.org/2000/svg" viewBox="0 0 48 48"><defs><style>.cls-1{fill:#fc6;}.cls-2{fill:#7c7d7d;}.cls-3{fill:#ffba55;}.cls-4{fill:#ffde76;}.cls-5{fill:#747575;}.cls-6{fill:#919191;}</style></defs><title>Bell</title><g id="Bell"><path class="cls-1" d="M43.09,34H4.91c-2.56,0-2.53-4,0-4C4.91,16.5,15.62,9,26,10.11,34.91,11,43.09,18.24,43.09,30,45.65,30,45.62,34,43.09,34Z"/><path class="cls-2" d="M47,44a2,2,0,0,1-2,2H3a2,2,0,0,1,0-4V40a2,2,0,0,1,2-2H43a2,2,0,0,1,2,2v2A2,2,0,0,1,47,44Z"/><path class="cls-3" d="M26,6v4.11a17.83,17.83,0,0,0-4,0V6Z"/><path class="cls-1" d="M26,7v3.11A17.64,17.64,0,0,0,23,10,3,3,0,0,1,26,7Z"/><path class="cls-1" d="M29,4a2,2,0,0,1-2,2H21a2,2,0,0,1,0-4h6A2,2,0,0,1,29,4Z"/><path class="cls-4" d="M29,4H23a2,2,0,0,1-2-2h6A2,2,0,0,1,29,4Z"/><rect class="cls-5" x="21" y="34" width="6" height="4"/><path class="cls-2" d="M26,38H21V35h2A3,3,0,0,1,26,38Z"/><path class="cls-4" d="M45,31.91c0,.14-26.51.09-26.41.09A11.59,11.59,0,0,1,7,20.41C15.75,3.19,43.09,8.06,43.09,30A1.9,1.9,0,0,1,45,31.91Z"/><path class="cls-6" d="M47,44H12a6,6,0,0,1-6-6c0-.1,37.1,0,37,0a2,2,0,0,1,2,2v2A2,2,0,0,1,47,44Z"/></g></svg>