<svg xmlns="http://www.w3.org/2000/svg" viewBox="0 0 48 48"><defs><style>.cls-1{fill:#dad7e5;}.cls-2{fill:#edebf2;}.cls-3{fill:#9fdbf3;}.cls-4{fill:#b2e5fb;}.cls-5{fill:#df8761;}.cls-6{fill:#f29b75;}.cls-7{fill:#cc734c;}.cls-8{fill:#c6c3d8;}</style></defs><title>Hotel Building</title><g id="Hotel_Building" data-name="Hotel Building"><path class="cls-1" d="M23,6V2a1,1,0,0,1,2,0V6A1,1,0,0,1,23,6Z"/><rect class="cls-1" x="16" y="5" width="16" height="4"/><path class="cls-2" d="M32,5V7H21a2,2,0,0,1-2-2Z"/><rect class="cls-1" x="10" y="9" width="28" height="4"/><path class="cls-2" d="M38,9v2H15a2,2,0,0,1-2-2Z"/><rect class="cls-1" x="10" y="13" width="28" height="34"/><path class="cls-2" d="M38,13c0,33.18-.1,32,0,32A25,25,0,0,1,13,20V13Z"/><rect class="cls-1" x="1" y="13" width="9" height="4"/><path class="cls-2" d="M8,13v2H6a2,2,0,0,1-2-2Z"/><rect class="cls-3" x="14" y="20" width="4" height="4"/><path class="cls-4" d="M18,20v3a3,3,0,0,1-3-3Z"/><rect class="cls-3" x="14" y="28" width="4" height="4"/><path class="cls-4" d="M18,28v3a3,3,0,0,1-3-3Z"/><rect class="cls-3" x="22" y="20" width="4" height="4"/><rect class="cls-3" x="22" y="28" width="4" height="4"/><path class="cls-4" d="M26,28v3a3,3,0,0,1-3-3Z"/><rect class="cls-3" x="30" y="20" width="4" height="4"/><rect class="cls-3" x="30" y="28" width="4" height="4"/><path class="cls-5" d="M30,39v8H18V39a2,2,0,0,1,2-2h8A2,2,0,0,1,30,39Z"/><path class="cls-6" d="M30,39v6H29a8,8,0,0,1-8-8h7A2,2,0,0,1,30,39Z"/><rect class="cls-7" x="23" y="37" width="2" height="10"/><rect class="cls-1" x="1" y="17" width="9" height="28"/><path class="cls-2" d="M8,17V42.65A6,6,0,0,1,4,37V17Z"/><rect class="cls-3" x="5" y="21" width="5" height="4"/><path class="cls-4" d="M8,21v2.82A3,3,0,0,1,6,21Z"/><rect class="cls-3" x="5" y="29" width="5" height="4"/><path class="cls-4" d="M8,29v2.82A3,3,0,0,1,6,29Z"/><rect class="cls-3" x="5" y="37" width="5" height="4"/><path class="cls-4" d="M8,37v2.82A3,3,0,0,1,6,37Z"/><rect class="cls-1" x="38" y="13" width="9" height="4"/><path class="cls-2" d="M47,13v2H43a2,2,0,0,1-2-2Z"/><rect class="cls-1" x="38" y="17" width="9" height="28"/><path class="cls-2" d="M47,17c0,27.19-.1,26,0,26a6,6,0,0,1-6-6V17Z"/><rect class="cls-3" x="38" y="21" width="5" height="4"/><path class="cls-4" d="M43,21v3H42a3,3,0,0,1-3-3Z"/><rect class="cls-3" x="38" y="29" width="5" height="4"/><path class="cls-4" d="M43,29v3H42a3,3,0,0,1-3-3Z"/><rect class="cls-3" x="38" y="37" width="5" height="4"/><path class="cls-4" d="M43,37v3H42a3,3,0,0,1-3-3Z"/><path class="cls-4" d="M26,20v3a3,3,0,0,1-3-3Z"/><path class="cls-4" d="M34,20v3a3,3,0,0,1-3-3Z"/><path class="cls-4" d="M34,28v3a3,3,0,0,1-3-3Z"/><rect class="cls-8" x="8" y="15" width="2" height="2"/></g></svg>