<svg xmlns="http://www.w3.org/2000/svg" viewBox="0 0 48 48"><defs><style>.cls-1{fill:#dad7e5;}.cls-2{fill:#edebf2;}.cls-3{fill:#c6c3d8;}.cls-4{fill:#2c435e;}.cls-5{fill:#374f68;}</style></defs><title>toilet paper</title><g id="toilet_paper" data-name="toilet paper"><path class="cls-1" d="M19,15a17.34,17.34,0,0,1-2.67,9.94C14.83,27.23,12.69,29,10,29,.57,29-2.59,8.79,6.17,2.34,11.88-1.89,19,4.34,19,15Z"/><path class="cls-2" d="M19,15a17.34,17.34,0,0,1-2.67,9.94A6.71,6.71,0,0,1,12,26.66c-8,0-12-15.17-6.38-23.87C11.54-2.47,19,4.32,19,15Z"/><path class="cls-3" d="M19,15V29H10C15,29,19,22.73,19,15Z"/><path class="cls-1" d="M47,15V47l-5-2-4,2-5-2-5,2-4-2-5,2V15c0-7.73-4-14-9-14H38C43,1,47,7.27,47,15Z"/><path class="cls-2" d="M47,15V43A25,25,0,0,1,22,18V15c0-7.73-4-14-9-14H38C43,1,47,7.27,47,15Z"/><path class="cls-4" d="M14,15c0,2.66-1.42,6-4,6-3.1,0-4.8-4.81-3.63-8.51C8.15,6.67,14,8.59,14,15Z"/><path class="cls-5" d="M12.63,19.51A3.35,3.35,0,0,1,10,21c-3.1,0-4.8-4.81-3.63-8.51C9.61,8.19,14.44,13.77,12.63,19.51Z"/><path class="cls-3" d="M25,16H23a1,1,0,0,1,0-2h2A1,1,0,0,1,25,16Z"/><path class="cls-3" d="M31,16H29a1,1,0,0,1,0-2h2A1,1,0,0,1,31,16Z"/><path class="cls-3" d="M37,16H35a1,1,0,0,1,0-2h2A1,1,0,0,1,37,16Z"/><path class="cls-3" d="M43,16H41a1,1,0,0,1,0-2h2A1,1,0,0,1,43,16Z"/></g></svg>