<svg xmlns="http://www.w3.org/2000/svg" viewBox="0 0 48 48"><defs><style>.cls-1{fill:#7c7d7d;}.cls-2{fill:#919191;}.cls-3{fill:#dad7e5;}.cls-4{fill:#edebf2;}.cls-5{fill:#c6c3d8;}.cls-6{fill:#9dcc6b;}</style></defs><title>Lift elevator</title><g id="Lift_elevator" data-name="Lift elevator"><rect class="cls-1" x="1" y="1" width="46" height="46"/><path class="cls-2" d="M47,1c0,45.32-.1,44,0,44C24.45,45,4,27.31,4,1Z"/><rect class="cls-3" x="9" y="13" width="30" height="34"/><path class="cls-3" d="M37,15V44.92A27,27,0,0,1,12,18V15Z"/><path class="cls-4" d="M12,15H23V39.74A26.92,26.92,0,0,1,12,18Z"/><path class="cls-4" d="M37,15V44.92a26.67,26.67,0,0,1-12-3.84V15Z"/><path class="cls-3" d="M44,30a1.34,1.34,0,0,1-1-.59l-.29.3a1,1,0,0,1-1.42-1.42l1-1a1,1,0,0,1,1.42,0l1,1A1,1,0,0,1,44,30Z"/><path class="cls-3" d="M43,36c-.53,0-.67-.26-1.71-1.29a1,1,0,0,1,1.42-1.42l.29.3.29-.3a1,1,0,0,1,1.42,1.42C43.65,35.77,43.52,36,43,36Z"/><path class="cls-5" d="M15,8a1,1,0,0,0-2,0A1,1,0,0,0,15,8Z"/><path class="cls-5" d="M19,8a1,1,0,0,0-2,0A1,1,0,0,0,19,8Z"/><path class="cls-5" d="M23,8a1,1,0,0,0-2,0A1,1,0,0,0,23,8Z"/><path class="cls-5" d="M27,8a1,1,0,0,0-2,0A1,1,0,0,0,27,8Z"/><path class="cls-5" d="M31,8a1,1,0,0,0-2,0A1,1,0,0,0,31,8Z"/><path class="cls-6" d="M35,8a1,1,0,0,0-2,0A1,1,0,0,0,35,8Z"/><path class="cls-3" d="M25,15V41.08a22.48,22.48,0,0,1-2-1.34V15Z"/><rect class="cls-5" x="23" y="13" width="2" height="2"/><path class="cls-5" d="M23,39.74a22.48,22.48,0,0,0,2,1.34V47H23Z"/></g></svg>