<svg xmlns="http://www.w3.org/2000/svg" viewBox="0 0 48 48"><defs><style>.cls-1{fill:#7c7d7d;}.cls-2{fill:#919191;}.cls-3{fill:#747575;}.cls-4{fill:#dad7e5;}.cls-5{fill:#edebf2;}.cls-6{fill:#c6c3d8;}</style></defs><title>Safe Box</title><g id="Safe_Box" data-name="Safe Box"><rect class="cls-1" x="1" y="1" width="46" height="42"/><path class="cls-2" d="M47,1V41H44A40,40,0,0,1,4,1Z"/><rect class="cls-3" x="3" y="43" width="8" height="4"/><path class="cls-1" d="M9,47H3V45H7A2,2,0,0,1,9,47Z"/><rect class="cls-3" x="37" y="43" width="8" height="4"/><path class="cls-1" d="M45,45v2H39a2,2,0,0,1,2-2Z"/><rect class="cls-4" x="5" y="5" width="38" height="34"/><path class="cls-5" d="M43,5V37H40A32,32,0,0,1,8,5Z"/><path class="cls-6" d="M29,14a5,5,0,1,1-8.86-3.18A5,5,0,0,1,29,14Z"/><path class="cls-4" d="M28.86,15.18a5,5,0,0,1-8.72-4.36A5,5,0,0,1,28.86,15.18Z"/><path class="cls-2" d="M25,9.1V11a1,1,0,0,1-2,0V9.11A4.82,4.82,0,0,1,25,9.1Z"/><path class="cls-1" d="M28,31a4,4,0,1,1-6.28-3.28A4,4,0,0,1,28,31Z"/><path class="cls-2" d="M27.28,33.28a4,4,0,0,1-5.56-5.56A4,4,0,0,1,27.28,33.28Z"/><path class="cls-6" d="M31.5,34.13,25,30.42V23a1,1,0,0,0-2,0v7.42l-6.5,3.71A1,1,0,0,0,17,36c.38,0,0,.18,7-3.85,7.06,4,6.63,3.85,7,3.85A1,1,0,0,0,31.5,34.13Z"/><rect class="cls-6" x="39" y="9" width="4" height="6"/><path class="cls-4" d="M43,9v5a3,3,0,0,1-3-3V9Z"/><rect class="cls-6" x="39" y="29" width="4" height="6"/><path class="cls-4" d="M43,29v5a3,3,0,0,1-3-3V29Z"/></g></svg>