<svg xmlns="http://www.w3.org/2000/svg" viewBox="0 0 48 48"><defs><style>.cls-1{fill:#dad7e5;}.cls-2{fill:#db5669;}.cls-3{fill:#edebf2;}.cls-4{fill:#df8761;}.cls-5{fill:#f26674;}</style></defs><title>No smoking</title><g id="No_smoking" data-name="No smoking"><path class="cls-1" d="M29.18,18H18a1,1,0,0,1,0-2H29.18A1,1,0,0,1,29.18,18Z"/><path class="cls-1" d="M34,22v-.5a.5.5,0,0,0-.5-.5h-1c-1.55,0-2.8-1.47-1.77-2.31a1,1,0,0,1,1.4.14c.22.26.52.17,1.37.17A2.5,2.5,0,0,1,36,21.5V22A1,1,0,0,1,34,22Z"/><path class="cls-1" d="M37,22a8,8,0,0,0-8-8H20a1,1,0,0,1,0-2h9A10,10,0,0,1,39,22,1,1,0,0,1,37,22Z"/><path class="cls-2" d="M24,1A23,23,0,0,0,1,24C1,43.23,23.22,53.85,38.19,42.09,55.37,28.66,45.72,1,24,1Zm0,4A18.93,18.93,0,0,1,36,9.23L9.23,36C-.74,23.64,8,5,24,5Zm0,38a18.93,18.93,0,0,1-11.95-4.23L38.77,12.05C48.74,24.36,40,43,24,43Z"/><polygon class="cls-1" points="32 25 32 31 19.82 31 25.82 25 32 25"/><polygon class="cls-1" points="20.18 25 14.18 31 10 31 10 25 20.18 25"/><path class="cls-3" d="M17.35,25c-3.68,3.68-3.17,3.32-3.42,3.07A3.74,3.74,0,0,1,13,25Z"/><polygon class="cls-3" points="32 25 32 29 21.82 29 25.82 25 32 25"/><path class="cls-4" d="M34,30V26a1,1,0,0,1,2,0v4A1,1,0,0,1,34,30Z"/><path class="cls-4" d="M37,30V26a1,1,0,0,1,2,0v4A1,1,0,0,1,37,30Z"/><path class="cls-5" d="M24,1A22.88,22.88,0,0,0,12.81,3.91,23,23,0,0,0,38.19,42.09C55.37,28.66,45.72,1,24,1ZM9.23,36C-.74,23.64,8,5,24,5A18.93,18.93,0,0,1,36,9.23ZM24,43a18.93,18.93,0,0,1-11.95-4.23L38.77,12.05C48.74,24.36,40,43,24,43Z"/></g></svg>