<svg xmlns="http://www.w3.org/2000/svg" viewBox="0 0 48 48"><defs><style>.cls-1{fill:#2c435e;}.cls-2{fill:#374f68;}</style></defs><title>Tread</title><g id="Tread"><rect class="cls-1" x="9" y="1" width="6" height="4"/><rect class="cls-1" x="33" y="1" width="6" height="4"/><path class="cls-2" d="M39,1V4H36a3,3,0,0,1-3-3Z"/><path class="cls-2" d="M15,1V4H13a3,3,0,0,1-3-3Z"/><path class="cls-1" d="M29,1V5L24,7,19,5V1l5,2Z"/><path class="cls-2" d="M29,1V4L24,6c-2.21-1.1-4-1.87-4-4.6L24,3Z"/><rect class="cls-1" x="9" y="9" width="6" height="4"/><rect class="cls-1" x="33" y="9" width="6" height="4"/><path class="cls-2" d="M39,9v3H36a3,3,0,0,1-3-3Z"/><path class="cls-2" d="M15,9v3H13a3,3,0,0,1-3-3Z"/><path class="cls-1" d="M29,9v4l-5,2-5-2V9l5,2Z"/><path class="cls-2" d="M29,9v3l-5,2c-2.21-1.1-4-1.87-4-4.6L24,11Z"/><rect class="cls-1" x="9" y="17" width="6" height="4"/><rect class="cls-1" x="33" y="17" width="6" height="4"/><path class="cls-2" d="M39,17v3H36a3,3,0,0,1-3-3Z"/><path class="cls-2" d="M15,17v3H13a3,3,0,0,1-3-3Z"/><path class="cls-1" d="M29,17v4l-5,2-5-2V17l5,2Z"/><path class="cls-2" d="M29,17v3l-5,2c-2.21-1.1-4-1.87-4-4.6L24,19Z"/><rect class="cls-1" x="9" y="25" width="6" height="4"/><rect class="cls-1" x="33" y="25" width="6" height="4"/><path class="cls-2" d="M39,25v3H36a3,3,0,0,1-3-3Z"/><path class="cls-2" d="M15,25v3H13a3,3,0,0,1-3-3Z"/><path class="cls-1" d="M29,25v4l-5,2-5-2V25l5,2Z"/><path class="cls-2" d="M29,25v3l-5,2c-2.21-1.1-4-1.87-4-4.6L24,27Z"/><rect class="cls-1" x="9" y="33" width="6" height="4"/><rect class="cls-1" x="33" y="33" width="6" height="4"/><path class="cls-2" d="M39,33v3H36a3,3,0,0,1-3-3Z"/><path class="cls-2" d="M15,33v3H13a3,3,0,0,1-3-3Z"/><path class="cls-1" d="M29,33v4l-5,2-5-2V33l5,2Z"/><path class="cls-2" d="M29,33v3l-5,2c-2.21-1.1-4-1.87-4-4.6L24,35Z"/><rect class="cls-1" x="9" y="41" width="6" height="4"/><rect class="cls-1" x="33" y="41" width="6" height="4"/><path class="cls-2" d="M39,41v3H36a3,3,0,0,1-3-3Z"/><path class="cls-2" d="M15,41v3H13a3,3,0,0,1-3-3Z"/><path class="cls-1" d="M29,41v4l-5,2-5-2V41l5,2Z"/><path class="cls-2" d="M29,41v3l-5,2c-2.21-1.1-4-1.87-4-4.6L24,43Z"/></g></svg>