<svg xmlns="http://www.w3.org/2000/svg" viewBox="0 0 48 48"><defs><style>.cls-1{fill:#9fdbf3;}.cls-2{fill:#b2e5fb;}.cls-3{fill:#919191;}.cls-4{fill:#425b72;}.cls-5{fill:#edebf2;opacity:0.3;}.cls-6{fill:#374f68;}</style></defs><title>Windshield and Wiper</title><g id="Windshield_and_Wiper" data-name="Windshield and Wiper"><path class="cls-1" d="M47,31.72a3.1,3.1,0,0,1-1.28,1.94c-3.59,2.87-12.31,3.93-17,4.2A71.47,71.47,0,0,1,9.25,36.49C6.83,35.92,1,34.19,1,31.72,1.09,30.71.66,33,5,12H43C47.36,33.1,46.91,30.71,47,31.72Z"/><path class="cls-2" d="M47,31.72a3.1,3.1,0,0,1-1.28,1.94C32.67,38.05,6.64,35.91,5.07,30c-.16-.54-.14-.29,3.52-18H43C47.36,33.1,46.91,30.71,47,31.72Z"/><rect class="cls-3" x="19" y="15" width="10" height="4" rx="1"/><rect class="cls-4" x="23" y="12" width="2" height="3"/><path class="cls-4" d="M25,19v1a1,1,0,0,1-2,0V19Z"/><path class="cls-5" d="M47,31.72a3.1,3.1,0,0,1-1.28,1.94c-2,1.56-6,2.85-11.12,3.61L43,12C47.36,33.1,46.91,30.71,47,31.72Z"/><path class="cls-5" d="M37.51,12,28.73,37.86a82.86,82.86,0,0,1-9,0L28,12Z"/><path class="cls-5" d="M23.51,12,14.86,37.47a51.49,51.49,0,0,1-5.61-1L18,12Z"/><path class="cls-6" d="M21.84,27.54l-6.36,10c-.43,0-1.64-.2-2.19-.28l6.87-10.8A1,1,0,0,1,21.84,27.54Z"/><path class="cls-6" d="M20,32V24a1,1,0,0,1,2,0v8A1,1,0,0,1,20,32Z"/><path class="cls-4" d="M20,24a1,1,0,0,1,1,1v8a1,1,0,0,0,1-1V24A1,1,0,0,0,20,24Z"/><path class="cls-6" d="M33.83,27.55,26.9,37.94c-.8,0-1.61.05-2.43.06l7.7-11.55A1,1,0,0,1,33.83,27.55Z"/><path class="cls-4" d="M34,24v8a1,1,0,0,1-2,0V24A1,1,0,0,1,34,24Z"/><path class="cls-6" d="M33,25v8a1,1,0,0,1-1-1V24A1,1,0,0,1,33,25Z"/></g></svg>