<svg xmlns="http://www.w3.org/2000/svg" viewBox="0 0 48 48"><defs><style>.cls-1{fill:#374f68;}.cls-2{fill:#7c7d7d;}.cls-3{fill:#919191;}.cls-4{fill:#747575;}</style></defs><title>Rear seats</title><g id="Rear_Seats" data-name="Rear Seats"><path class="cls-1" d="M15,15H11a1,1,0,0,1-1-1V10a1,1,0,0,1,1-1h4a1,1,0,0,1,1,1v4A1,1,0,0,1,15,15Zm-3-2h2V11H12Z"/><path class="cls-1" d="M37,15H33a1,1,0,0,1-1-1V10a1,1,0,0,1,1-1h4a1,1,0,0,1,1,1v4A1,1,0,0,1,37,15Zm-3-2h2V11H34Z"/><path class="cls-2" d="M7,13V36H6.18a4,4,0,0,1-4-4.17l.65-15A4,4,0,0,1,7,13Z"/><path class="cls-3" d="M7,13V33.82a4,4,0,0,1-2.82-4c.7-16.19.56-15.47,1-16.47A4,4,0,0,1,7,13Z"/><rect class="cls-4" x="7" y="13" width="13" height="23"/><rect class="cls-4" x="28" y="13" width="13" height="23"/><path class="cls-2" d="M45.82,31.83a4,4,0,0,1-4,4.17H41c0-24.73-.09-23,.17-23a4,4,0,0,1,4,3.83Z"/><path class="cls-3" d="M45.77,30.63a4,4,0,0,1-4,3.37H41c0-23.32-.07-21,.17-21a4,4,0,0,1,4,3.83Z"/><path class="cls-2" d="M46.38,38.49c-1,4.08-.84,3.35-1,4A2,2,0,0,1,43.44,44H4.56a2,2,0,0,1-1.94-1.51l-1-4A2,2,0,0,1,3.56,36H44.44A2,2,0,0,1,46.38,38.49Z"/><path class="cls-3" d="M46.38,38.49,45.5,42H7.56a2,2,0,0,1-1.94-1.51l-1-4C4.45,35.79.4,36,44.44,36A2,2,0,0,1,46.38,38.49Z"/><rect class="cls-2" x="20" y="19" width="8" height="17"/><rect class="cls-3" x="20" y="19" width="8" height="15"/><path class="cls-2" d="M17.78,10a1,1,0,0,1-1,1H9.22a1,1,0,0,1-1-1.2l.6-3a1,1,0,0,1,1-.8h6.36a1,1,0,0,1,1,.8C17.79,10,17.78,9.87,17.78,10Z"/><path class="cls-3" d="M17.78,10H11.22a1,1,0,0,1-1-1.2L10.8,6h5.38a1,1,0,0,1,1,.8C17.79,10,17.78,9.87,17.78,10Z"/><path class="cls-2" d="M39.78,10a1,1,0,0,1-1,1H31.22a1,1,0,0,1-1-1.2l.6-3a1,1,0,0,1,1-.8h6.36a1,1,0,0,1,1,.8C39.79,10,39.78,9.87,39.78,10Z"/><path class="cls-3" d="M39.78,10H33.22a1,1,0,0,1-1-1.2L32.8,6h5.38a1,1,0,0,1,1,.8C39.79,10,39.78,9.87,39.78,10Z"/><rect class="cls-2" x="20" y="13" width="8" height="6"/><path class="cls-1" d="M47,45H1a1,1,0,0,1,0-2H47A1,1,0,0,1,47,45Z"/><path class="cls-2" d="M18,13V32a2,2,0,0,1-2,2H11a2,2,0,0,1-2-2V13Z"/><path class="cls-2" d="M39,13V32a2,2,0,0,1-2,2H32a2,2,0,0,1-2-2V13Z"/></g></svg>