<svg xmlns="http://www.w3.org/2000/svg" viewBox="0 0 48 48"><defs><style>.cls-1{fill:#374f68;}.cls-2{fill:#425b72;}.cls-3{fill:#7c7d7d;}.cls-4{fill:#919191;}.cls-5{fill:#2c435e;}</style></defs><title>Gas and Brake Pedals</title><g id="Gas_and_Brake_Pedals" data-name="Gas and Brake Pedals"><path class="cls-1" d="M26,15V25c-3.51,5.25-3.65,6-5.07,6H9.07c-1.3,0-1.31-.36-5.07-6V15a2,2,0,0,1,2-2H24A2,2,0,0,1,26,15Z"/><path class="cls-2" d="M26,15V25L23.36,29c-.06.1-7.46.05-7.36.05A10,10,0,0,1,6,19V13H24A2,2,0,0,1,26,15Z"/><path class="cls-1" d="M44,15V45a2,2,0,0,1-2,2H30a2,2,0,0,1-2-2c0-10.29-.12-9.83.34-10.5C31.91,29.12,32,29.19,32,28.39V15a2,2,0,0,1,2-2h8A2,2,0,0,1,44,15Z"/><path class="cls-2" d="M44,15V45H38a8,8,0,0,1-8-8c0-2.49-.48-1.26,3.66-7.5A2,2,0,0,0,34,28.39V15a2,2,0,0,1,2-2h6A2,2,0,0,1,44,15Z"/><rect class="cls-3" x="35" y="1" width="6" height="12"/><path class="cls-4" d="M41,1c0,11.62-.1,11,0,11a5,5,0,0,1-5-5V1Z"/><rect class="cls-3" x="12" y="1" width="6" height="12"/><path class="cls-4" d="M18,1c0,11.62-.1,11,0,11a5,5,0,0,1-5-5V1Z"/><path class="cls-5" d="M22,19H8a1,1,0,0,1,0-2H22A1,1,0,0,1,22,19Z"/><path class="cls-5" d="M22,23H8a1,1,0,0,1,0-2H22A1,1,0,0,1,22,23Z"/><path class="cls-5" d="M21,27H9a1,1,0,0,1,0-2H21A1,1,0,0,1,21,27Z"/><path class="cls-5" d="M40,19H36a1,1,0,0,1,0-2h4A1,1,0,0,1,40,19Z"/><path class="cls-5" d="M40,23H36a1,1,0,0,1,0-2h4A1,1,0,0,1,40,23Z"/><path class="cls-5" d="M40,27H36a1,1,0,0,1,0-2h4A1,1,0,0,1,40,27Z"/><path class="cls-5" d="M40,31H36a1,1,0,0,1,0-2h4A1,1,0,0,1,40,31Z"/><path class="cls-5" d="M40,35H34a1,1,0,0,1,0-2h6A1,1,0,0,1,40,35Z"/><path class="cls-5" d="M40,39H32a1,1,0,0,1,0-2h8A1,1,0,0,1,40,39Z"/><path class="cls-5" d="M40,43H32a1,1,0,0,1,0-2h8A1,1,0,0,1,40,43Z"/></g></svg>