<svg xmlns="http://www.w3.org/2000/svg" viewBox="0 0 48 48"><defs><style>.cls-1{fill:#374f68;}.cls-2{fill:#7c7d7d;}.cls-3{fill:#919191;}.cls-4{fill:#747575;}.cls-5{fill:#425b72;}.cls-6{fill:#fc6;}.cls-7{fill:#ffde76;}.cls-8{fill:#2c435e;}.cls-9{fill:#dad7e5;}.cls-10{fill:#edebf2;}</style></defs><title>Rechargeable battery</title><g id="Rechargeable_battery" data-name="Rechargeable battery"><path class="cls-1" d="M45,12V30a6,6,0,0,1-6,6,1,1,0,0,1,0-2,4,4,0,0,0,4-4V12A1,1,0,0,1,45,12Z"/><rect class="cls-2" x="1" y="17" width="36" height="4" rx="1"/><path class="cls-3" d="M37,18v2H6a3,3,0,0,1-3-3H36A1,1,0,0,1,37,18Z"/><rect class="cls-2" x="1" y="41" width="36" height="4" rx="1"/><path class="cls-3" d="M37,42v2H6a3,3,0,0,1-3-3H36A1,1,0,0,1,37,42Z"/><rect class="cls-4" x="3" y="21" width="32" height="20"/><path class="cls-2" d="M35,24V38a1,1,0,0,1-1,1H17A12,12,0,0,1,5,27V24a1,1,0,0,1,1-1H34A1,1,0,0,1,35,24Z"/><path class="cls-1" d="M11,14v3H3V14a1,1,0,0,1,1-1h6A1,1,0,0,1,11,14Z"/><path class="cls-5" d="M11,14v2H7a3,3,0,0,1-3-3h6A1,1,0,0,1,11,14Z"/><path class="cls-1" d="M35,14v3H27V14a1,1,0,0,1,1-1h6A1,1,0,0,1,35,14Z"/><path class="cls-5" d="M35,14v2H31a3,3,0,0,1-3-3h6A1,1,0,0,1,35,14Z"/><path class="cls-2" d="M9,10v3H5V10A1,1,0,0,1,6,9H8A1,1,0,0,1,9,10Z"/><path class="cls-3" d="M9,10v2H8a2,2,0,0,1-2-2V9H8A1,1,0,0,1,9,10Z"/><path class="cls-2" d="M33,10v3H29V10a1,1,0,0,1,1-1h2A1,1,0,0,1,33,10Z"/><path class="cls-3" d="M33,10v2H32a2,2,0,0,1-2-2V9h2A1,1,0,0,1,33,10Z"/><path class="cls-6" d="M24,30l-8,7,1-6H15l2-6h6l-2,5Z"/><polygon class="cls-7" points="18.15 35.12 19 30 17 30 18.67 25 23 25 21 30 24 30 18.15 35.12"/><path class="cls-2" d="M47,7c0,2.91.14,3.62-.44,4.56A3,3,0,0,1,41,10V7Z"/><path class="cls-8" d="M45,12.82v.41A3,3,0,0,1,43,14V12.82A2.87,2.87,0,0,0,45,12.82Z"/><path class="cls-3" d="M47,7c0,2.91.14,3.62-.44,4.56A3,3,0,0,1,42,9V7Z"/><path class="cls-9" d="M46,4V7H42V4a1,1,0,0,1,1-1h2A1,1,0,0,1,46,4Z"/><path class="cls-10" d="M46,4V6H45a2,2,0,0,1-2-2V3h2A1,1,0,0,1,46,4Z"/><path class="cls-2" d="M39,34v2a1,1,0,0,1-1,1H35V33h3A1,1,0,0,1,39,34Z"/><path class="cls-3" d="M39,34v2H38a2,2,0,0,1-2-2V33h2A1,1,0,0,1,39,34Z"/></g></svg>