<svg xmlns="http://www.w3.org/2000/svg" viewBox="0 0 48 48"><defs><style>.cls-1{fill:#dad7e5;}.cls-2{fill:#edebf2;}.cls-3{fill:#9fdbf3;}.cls-4{fill:#b2e5fb;}.cls-5{fill:#fc6;}.cls-6{fill:#ffde76;}.cls-7{fill:#747575;}.cls-8{fill:#7c7d7d;}.cls-9{fill:#c6c3d8;}</style></defs><title>Front Bumper</title><g id="Front_Bumper" data-name="Front Bumper"><path class="cls-1" d="M47,17c0,7.16.67,13.32-2,16a10,10,0,0,1-8,4H11A10,10,0,0,1,1,27V17a13.68,13.68,0,0,0,9.66,4H37.34A13.65,13.65,0,0,0,47,17Z"/><path class="cls-2" d="M47,17c0,10,.58,12.55-2,16a9.85,9.85,0,0,1-6,2H13A10,10,0,0,1,3,25V18.64A13.56,13.56,0,0,0,10.66,21c28.7,0,28.54.36,31.91-1A13.67,13.67,0,0,0,47,17Z"/><path class="cls-3" d="M11,28.28a2,2,0,0,0-1,1.94,3,3,0,1,1,1-1.94Z"/><path class="cls-4" d="M10.56,29.56a3,3,0,0,1-4.12-4.12A3,3,0,0,1,10.56,29.56Z"/><path class="cls-5" d="M14,30a2,2,0,1,1-2.82-1.82A2,2,0,0,1,14,30Z"/><path class="cls-6" d="M13.82,30.82a2,2,0,0,1-2.64-2.64A2,2,0,0,1,13.82,30.82Z"/><path class="cls-3" d="M43,28a3,3,0,0,1-5,2.22,2,2,0,0,0-1-1.94A3,3,0,1,1,43,28Z"/><path class="cls-5" d="M38,30a2,2,0,1,1-2-2A2,2,0,0,1,38,30Z"/><path class="cls-6" d="M37.82,30.81a2,2,0,0,1-2.64-2.63A2,2,0,0,1,37.82,30.81Z"/><path class="cls-7" d="M30,26v3H18V26a1,1,0,0,1,1-1H29A1,1,0,0,1,30,26Z"/><path class="cls-8" d="M29,27v2H18V26H28A1,1,0,0,1,29,27Z"/><path class="cls-7" d="M30,29c0,1.21.13,2.62-1.44,3.56-1,.63-1.56.44-7.56.44a3,3,0,0,1-3-3V29Z"/><path class="cls-8" d="M29,30c0,3.65-.26,3-8,3a3,3,0,0,1-3-3Z"/><path class="cls-9" d="M47,17a13.6,13.6,0,0,1-4.43,3c-3.34,1.38-2.63,1-31.91,1A13.65,13.65,0,0,1,1,17l5-6H42Z"/><path class="cls-1" d="M47,17a13.68,13.68,0,0,1-3.88,2.72c-2,.4-.75.28-29.46.28A13.65,13.65,0,0,1,4,16l4.17-5H42Z"/><path class="cls-3" d="M42.56,29.56a3,3,0,0,1-4.12-4.12A3,3,0,0,1,42.56,29.56Z"/><path class="cls-4" d="M42.56,29.56a3,3,0,0,1-4.12-4.12A3,3,0,0,1,42.56,29.56Z"/></g></svg>