<svg xmlns="http://www.w3.org/2000/svg" viewBox="0 0 48 48"><defs><style>.cls-1{fill:#374f68;}.cls-2{fill:#2c435e;}.cls-3{fill:#425b72;}.cls-4{fill:#9fdbf3;}.cls-5{fill:#b2e5fb;}.cls-6{fill:#edebf2;opacity:0.3;}</style></defs><title>Side Mirror</title><g id="Side_Mirrors" data-name="Side Mirrors"><path class="cls-1" d="M21,36H8a3,3,0,0,0-3,3V24h9c-.69,2.8-1.21,3.82-.2,4.83Z"/><path class="cls-2" d="M5,36.18V39a3,3,0,0,1,3-3C5.86,36,5.66,36,5,36.18Z"/><path class="cls-2" d="M13.83,28.83c-1-1-.5-2,.2-4.83H12c-.69,2.8-1.21,3.82-.2,4.83L19,36h2Z"/><path class="cls-1" d="M47,20c0,11.71.5,10.5-5,16H21l-7.17-7.17a2,2,0,0,1-.51-2c.9-3.65.3-1.2,2.93-11.83a4,4,0,0,1,3.88-3H39A8,8,0,0,1,47,20Z"/><path class="cls-3" d="M47,20c0,8.64.7,10.3-3,14H34.14a24.49,24.49,0,0,1-17.31-7.17c-1-1-.5-2,.2-4.83,2.41-9.74,2.26-9.35,2.62-10C20,12,39.1,12,39,12A8,8,0,0,1,47,20Z"/><path class="cls-1" d="M5,24V39a4,4,0,0,1-4,4V20A4,4,0,0,1,5,24Z"/><path class="cls-3" d="M5,24c0,15.11.07,14.57,0,14.67a1.74,1.74,0,0,1-3-1.22V20.12A4,4,0,0,1,5,24Z"/><path class="cls-4" d="M43,20c0,10,.6,8.4-3,12H23l-5-5,2.8-10.26a1,1,0,0,1,1-.74H39A4,4,0,0,1,43,20Z"/><path class="cls-5" d="M43,20c0,7.57.33,8.5-1,10h-13a7.11,7.11,0,0,1-6.85-9l1.37-5H39A4,4,0,0,1,43,20Z"/><path class="cls-6" d="M43,20c0,10,.6,8.4-3,12H36l3-16A4,4,0,0,1,43,20Z"/><polygon class="cls-6" points="36 16 32.62 32 30 32 33 16 36 16"/><polygon class="cls-6" points="28 16 24.62 32 23 32 26 16 28 16"/></g></svg>