<svg xmlns="http://www.w3.org/2000/svg" viewBox="0 0 48 48"><defs><style>.cls-1{fill:#9fdbf3;}.cls-2{fill:#b2e5fb;}.cls-3{fill:#919191;}.cls-4{fill:#425b72;}.cls-5{fill:#edebf2;opacity:0.3;}.cls-6{fill:#f26674;}</style></defs><title>glass and interior heating car</title><g id="glass_and_interior_heating_car" data-name="glass and interior heating car"><path class="cls-1" d="M47,27.72a3.1,3.1,0,0,1-1.28,1.94C36.91,36.69,1,34.45,1,27.72,1.09,26.71.66,29,5,8H43C47.36,29.1,46.91,26.71,47,27.72Z"/><path class="cls-2" d="M47,27.72a3.1,3.1,0,0,1-1.28,1.94C32.67,34.05,6.64,31.91,5.07,26c-.16-.54-.14-.29,3.52-18H43C47.36,29.1,46.91,26.71,47,27.72Z"/><rect class="cls-3" x="19" y="11" width="10" height="4" rx="1"/><rect class="cls-4" x="23" y="8" width="2" height="3"/><path class="cls-4" d="M25,15v1a1,1,0,0,1-2,0V15Z"/><path class="cls-5" d="M47,27.72a3.1,3.1,0,0,1-1.28,1.94c-2,1.56-6,2.85-11.12,3.61L43,8C47.36,29.1,46.91,26.71,47,27.72Z"/><path class="cls-5" d="M37.51,8,28.73,33.86a82.86,82.86,0,0,1-9,0L28,8Z"/><path class="cls-5" d="M23.51,8,14.86,33.47a51.49,51.49,0,0,1-5.61-1L18,8Z"/><path class="cls-6" d="M9.23,41.36a5.57,5.57,0,0,0,0-6.78,7.57,7.57,0,0,1,0-9.22,1,1,0,0,1,1.54,1.28,5.58,5.58,0,0,0,0,6.78,7.57,7.57,0,0,1,0,9.22A1,1,0,0,1,9.23,41.36Z"/><path class="cls-6" d="M16.23,41.36a5.57,5.57,0,0,0,0-6.78,7.57,7.57,0,0,1,0-9.22,1,1,0,0,1,1.54,1.28,5.58,5.58,0,0,0,0,6.78,7.57,7.57,0,0,1,0,9.22A1,1,0,0,1,16.23,41.36Z"/><path class="cls-6" d="M23.23,41.36a5.57,5.57,0,0,0,0-6.78,7.57,7.57,0,0,1,0-9.22,1,1,0,0,1,1.54,1.28,5.58,5.58,0,0,0,0,6.78,7.57,7.57,0,0,1,0,9.22A1,1,0,0,1,23.23,41.36Z"/><path class="cls-6" d="M30.23,41.36a5.57,5.57,0,0,0,0-6.78,7.57,7.57,0,0,1,0-9.22,1,1,0,0,1,1.54,1.28,5.58,5.58,0,0,0,0,6.78,7.57,7.57,0,0,1,0,9.22A1,1,0,0,1,30.23,41.36Z"/><path class="cls-6" d="M37.23,41.36a5.57,5.57,0,0,0,0-6.78,7.57,7.57,0,0,1,0-9.22,1,1,0,0,1,1.54,1.28,5.58,5.58,0,0,0,0,6.78,7.57,7.57,0,0,1,0,9.22A1,1,0,0,1,37.23,41.36Z"/></g></svg>