<svg xmlns="http://www.w3.org/2000/svg" viewBox="0 0 48 48"><defs><style>.cls-1{fill:#dad7e5;}.cls-2{fill:#edebf2;}.cls-3{fill:#7c7d7d;}.cls-4{fill:#747575;}.cls-5{fill:#b5e08c;}</style></defs><title>Manual Transmisson</title><g id="Manual_Transmission" data-name="Manual Transmission"><rect class="cls-1" x="1" y="8" width="46" height="34" rx="2"/><path class="cls-2" d="M47.05,10.07l-.11,30-11,0A32.09,32.09,0,0,1,4.06,7.93l41,.14A2,2,0,0,1,47.05,10.07Z"/><path class="cls-3" d="M42,15V26a2,2,0,0,1-2,2H34a2,2,0,0,0-2,2v5a3,3,0,0,1-6,0V30a2,2,0,0,0-4,0v5a3,3,0,0,1-6,0V30a2,2,0,0,0-4,0v5a3,3,0,0,1-6,0V15a3,3,0,0,1,6,0v5a2,2,0,0,0,4,0V15a3,3,0,0,1,6,0v5a2,2,0,0,0,4,0V15a3,3,0,0,1,6,0v7h3a1,1,0,0,0,1-1V15a3,3,0,0,1,6,0Z"/><path class="cls-4" d="M10,17v5a2,2,0,0,0,4,0,2,2,0,0,1-2-2V15a3,3,0,0,0-5.86-.86A3,3,0,0,1,10,17Z"/><path class="cls-4" d="M20,17v5a2,2,0,0,0,4,0,2,2,0,0,1-2-2V15a3,3,0,0,0-5.86-.86A3,3,0,0,1,20,17Z"/><path class="cls-4" d="M30,17.47V23a1,1,0,0,0,1,1h2a1,1,0,0,0,1-1V22H33a1,1,0,0,1-1-1V15.17a3,3,0,0,0-5.86-1C28.21,13.52,30,15.37,30,17.47Z"/><path class="cls-4" d="M30,32c0,5.53.05,5.24-.14,5.86A3,3,0,0,0,32,35V30A2,2,0,0,0,30,32Z"/><path class="cls-4" d="M36.14,14.14A3,3,0,0,1,40,17V28a2,2,0,0,0,2-2V15A3,3,0,0,0,36.14,14.14Z"/><path class="cls-4" d="M20,32c0,5.53.05,5.24-.14,5.86A3,3,0,0,0,22,35V30A2,2,0,0,0,20,32Z"/><path class="cls-4" d="M10,32c0,5.53.05,5.24-.14,5.86A3,3,0,0,0,12,35V30A2,2,0,0,0,10,32Z"/><path class="cls-5" d="M40.67,35.7A2.5,2.5,0,0,0,39.5,31H37a1,1,0,0,0-1,1v6a1,1,0,0,0,2,0V36c.62,0,.19-.41,2.17,2.55a1,1,0,0,0,1.66-1.1ZM38,33c1.51,0,2-.11,2,.5s-.61.5-2,.5Z"/></g></svg>