<svg xmlns="http://www.w3.org/2000/svg" viewBox="0 0 48 48"><defs><style>.cls-1{fill:#747575;}.cls-2{fill:#7c7d7d;}.cls-3{fill:#374f68;}.cls-4{fill:#425b72;}.cls-5{fill:#db5669;}.cls-6{fill:#f16f39;}.cls-7{fill:#c6c3d8;}.cls-8{fill:#dad7e5;}.cls-9{fill:#edebf2;}.cls-10{fill:#919191;}.cls-11{fill:#2c435e;}.cls-12{fill:#ffba55;}.cls-13{fill:#fc6;}.cls-14{fill:#ffde76;}.cls-15{fill:#f26674;}.cls-16{fill:#c4455e;}</style></defs><title>Rear Bumper Bull bar Car</title><g id="Rear_Bumper_Bull_Bar_Car" data-name="Rear Bumper Bull Bar Car"><path class="cls-1" d="M43,35v2a1,1,0,0,1-1,1H37a1,1,0,0,1,0-2h4V35Z"/><path class="cls-2" d="M42,36v2H37a1,1,0,0,1-1-1h5V36Z"/><polygon class="cls-3" points="47 27 47 33 45 35 33.67 35 35 27 47 27"/><path class="cls-4" d="M47,27v6H38.36a2,2,0,0,1-2-2.33L37,27Z"/><path class="cls-5" d="M42,31a1,1,0,0,1,2,0A1,1,0,0,1,42,31Z"/><path class="cls-6" d="M38,31a1,1,0,0,1,2,0A1,1,0,0,1,38,31Z"/><path class="cls-1" d="M11,38H6a1,1,0,0,1-1-1V35H7v1h4A1,1,0,0,1,11,38Z"/><path class="cls-2" d="M11,38H6a1,1,0,0,1-1-1V36H6v1h4A1,1,0,0,1,11,38Z"/><rect class="cls-7" x="3" y="23" width="8" height="4"/><path class="cls-8" d="M10,23a2,2,0,0,1-2,2H3V23Z"/><rect class="cls-8" x="37" y="23" width="8" height="4"/><path class="cls-9" d="M45,23v2H40a2,2,0,0,1-2-2Z"/><rect class="cls-2" x="11" y="9" width="26" height="18"/><path class="cls-10" d="M37,10V25H21a8,8,0,0,1-8-8V10Z"/><polygon class="cls-11" points="14.33 35 3 35 1 33 1 27 13 27 14.33 35"/><path class="cls-3" d="M1,27v6H9.64a2,2,0,0,0,2-2.33L11,27Z"/><path class="cls-3" d="M35,27c-2,11.84-1.53,9.24-2,12H15L13,27Z"/><path class="cls-4" d="M35,27c-1.57,9.45-1.23,7.39-1.66,10H22a6,6,0,0,1-5.91-4.93L15.18,27Z"/><rect class="cls-8" x="19" y="31" width="10" height="4" rx="1"/><path class="cls-9" d="M29,32v2H22a2,2,0,0,1-2-2V31h8A1,1,0,0,1,29,32Z"/><path class="cls-12" d="M11,15v8H3V11a4,4,0,0,0,4,4Z"/><path class="cls-13" d="M45,11V23H37V15h4A4,4,0,0,0,45,11Z"/><path class="cls-14" d="M45,13.5V22H40a2,2,0,0,1-2-2V16h4.5A2.5,2.5,0,0,0,45,13.5Z"/><path class="cls-13" d="M3,13.5V22H8a2,2,0,0,0,2-2V16H5.5A2.5,2.5,0,0,1,3,13.5Z"/><path class="cls-12" d="M11,18v2H9a1,1,0,0,1,0-2Z"/><path class="cls-12" d="M39,20H37V18h2A1,1,0,0,1,39,20Z"/><path class="cls-5" d="M45,9c0,1.94.16,3-.72,4.28A4,4,0,0,1,41,15H37V9Z"/><path class="cls-15" d="M45,9c0,1.94.16,3-.72,4.28A4,4,0,0,1,42,14H40a2,2,0,0,1-2-2V9Z"/><path class="cls-16" d="M11,9v6H7a4,4,0,0,1-4-4V9Z"/><path class="cls-5" d="M10,9v3a2,2,0,0,1-2,2c-1.95,0-3,.16-4.28-.72C2.85,12,3,11.06,3,9Z"/><path class="cls-3" d="M27,14H21a1,1,0,0,1,0-2h6A1,1,0,0,1,27,14Z"/><path class="cls-5" d="M6,31a1,1,0,0,0-2,0A1,1,0,0,0,6,31Z"/><path class="cls-6" d="M10,31a1,1,0,0,0-2,0A1,1,0,0,0,10,31Z"/><path class="cls-2" d="M46,9H2A1,1,0,0,1,2,7H46A1,1,0,0,1,46,9Z"/><path class="cls-10" d="M47,8H4A1,1,0,0,1,3,7H46A1,1,0,0,1,47,8Z"/><rect class="cls-5" x="37" y="9" width="8" height="1"/><rect class="cls-16" x="3" y="9" width="8" height="1"/></g></svg>