<svg xmlns="http://www.w3.org/2000/svg" viewBox="0 0 48 48"><defs><style>.cls-1{fill:#7c7d7d;}.cls-2{fill:#919191;}.cls-3{fill:#374f68;}.cls-4{fill:#2c435e;}.cls-5{fill:#dad7e5;}.cls-6{fill:#edebf2;}.cls-7{fill:#c4455e;}</style></defs><title>Seat Adjustment</title><g id="Seats_Adjustment" data-name="Seats Adjustment"><path class="cls-1" d="M40,39c0,5.23.07,5.36-.18,6A3,3,0,0,1,37,47H14a2,2,0,0,1-2-2V41.3a4,4,0,0,1,4.28-4l17.78,1.27a3,3,0,0,0,5.77.41Z"/><path class="cls-2" d="M40,39c0,5.23.07,5.36-.18,6H20.7c-4.26,0-6.88-4.61-5.19-7.67.65-.08-.68-.12,18.55,1.25a3,3,0,0,0,5.77.41Z"/><path class="cls-3" d="M36,5V8a1,1,0,0,1-2,0V5Z"/><path class="cls-4" d="M36,5V8a1,1,0,0,1-2,0V5Z"/><path class="cls-3" d="M35,6V9a1,1,0,0,1-1-1V6Z"/><path class="cls-1" d="M38,4V5H32c0-1.21-.13-2.62,1.44-3.56A3,3,0,0,1,38,4Z"/><path class="cls-2" d="M38,4H34c-1.22,0-1.2-1.53-.56-2.56A3,3,0,0,1,38,4Z"/><path class="cls-1" d="M39.88,37.18a3,3,0,0,0-5.46-.72,3,3,0,0,0-.36,2.12L29,38.22V20C31.53,9.9,31.33,9.7,32.58,8.74a3.49,3.49,0,0,1,5.63,2.53C40.25,43,39.8,35.89,39.88,37.18Z"/><path class="cls-2" d="M39.75,36.84a3,3,0,0,0-5.33-.38A3.67,3.67,0,0,1,31,32.79V18c2.61-10.43,2.15-9.15,2.83-9.89a3.5,3.5,0,0,1,4.38,3.16C40,38.82,39.92,36.86,39.75,36.84Z"/><path class="cls-5" d="M40,38.45c-.34,3.23-5.27,3.48-5.9.13a3,3,0,0,1,5.82-1.4Z"/><path class="cls-5" d="M40,38.45C39.59,42,34,41.8,34,38a3,3,0,0,1,5.88-.82Z"/><path class="cls-6" d="M39.48,39.67a3,3,0,0,1-3.86-4.33,3,3,0,0,1,4.26,1.84C39.88,38,40.2,38.67,39.48,39.67Z"/><path class="cls-7" d="M25.66,9.33,22,7.79a1,1,0,0,0-.77,1.84l1.46.61a17,17,0,0,0-10,20.24l-1.34-.89a1,1,0,0,0-1.11,1.66c4.92,3.28,3.67,3.51,6.93-1.39a1,1,0,0,0-1.67-1.11L14.56,30a14.94,14.94,0,0,1,8.87-17.95l-.62,1.47a1,1,0,0,0,1.85.77l1.54-3.69A1,1,0,0,0,25.66,9.33Z"/></g></svg>