<svg xmlns="http://www.w3.org/2000/svg" viewBox="0 0 48 48"><defs><style>.cls-1{fill:#374f68;}.cls-2{fill:#425b72;}.cls-3{fill:#2c435e;}.cls-4{fill:#dad7e5;}.cls-5{fill:#edebf2;}.cls-6{fill:#9fdbf3;}.cls-7{fill:#b2e5fb;}.cls-8{fill:#7c7d7d;}.cls-9{fill:#919191;}.cls-10{fill:#db5669;}.cls-11{fill:#f26674;}</style></defs><title>CD Disc</title><g id="CD_Disc" data-name="CD Disc"><path class="cls-1" d="M47,22V44a2,2,0,0,1-2,2H3a2,2,0,0,1-2-2V22a2,2,0,0,1,2-2H15.51a11,11,0,0,0,17,0H45A2,2,0,0,1,47,22Z"/><path class="cls-2" d="M47,22V44H23A19.06,19.06,0,0,1,4,25V20H15.51a11,11,0,0,0,16,1,10.63,10.63,0,0,0,1.8-1H45A2,2,0,0,1,47,22Z"/><path class="cls-3" d="M37,25H11a1,1,0,0,1,0-2H37A1,1,0,0,1,37,25Z"/><path class="cls-4" d="M11,31a3,3,0,1,1-4.56-2.56A3,3,0,0,1,11,31Z"/><path class="cls-5" d="M10.56,32.56a3,3,0,0,1-4.12-4.12A3,3,0,0,1,10.56,32.56Z"/><rect class="cls-6" x="15" y="28" width="18" height="14" rx="1"/><path class="cls-7" d="M33,29V40H29A12,12,0,0,1,17,28H32A1,1,0,0,1,33,29Z"/><path class="cls-4" d="M24,2a11,11,0,1,0,8.49,18A11,11,0,0,0,24,2Zm0,9a2,2,0,1,1-2,2A2,2,0,0,1,24,11Z"/><path class="cls-5" d="M24,2a10.88,10.88,0,0,0-6.71,2.29A10.88,10.88,0,0,0,15,11a11,11,0,0,0,17.69,8.73A11,11,0,0,0,24,2Zm0,13a2,2,0,1,1,2-2A2,2,0,0,1,24,15Z"/><path class="cls-8" d="M24,8a5,5,0,1,0,4.39,7.39A5,5,0,0,0,24,8Zm0,3a2,2,0,1,1-2,2A2,2,0,0,1,24,11Z"/><path class="cls-9" d="M21.61,8.61a5,5,0,0,0,6.78,6.78A5,5,0,0,0,21.61,8.61ZM24,15a2,2,0,1,1,2-2A2,2,0,0,1,24,15Z"/><path class="cls-10" d="M43,30v2H37c0-1.62-.3-3.15,1.18-3.82C38.69,27.94,39,28,41,28A2,2,0,0,1,43,30Z"/><path class="cls-11" d="M43,30v1H40a2,2,0,0,1-1.82-2.82A1.89,1.89,0,0,1,39,28h2A2,2,0,0,1,43,30Z"/><rect class="cls-4" x="37" y="32" width="6" height="6"/><path class="cls-5" d="M43,32v5H42a4,4,0,0,1-4-4V32Z"/><path class="cls-10" d="M43,38c0,2,.06,2.32-.18,2.82C42.15,42.3,40.62,42,39,42a2,2,0,0,1-2-2V38Z"/><path class="cls-11" d="M43,38c0,2.59.18,3-1,3H41a3,3,0,0,1-3-3Z"/><path class="cls-4" d="M10.41,41.41C9.69,42.15,9,42,7,42a2,2,0,0,1-1.41-3.41A2,2,0,0,1,7,38H9A2,2,0,0,1,10.41,41.41Z"/><path class="cls-5" d="M11,40c0,1.18-.36,1-3,1a2,2,0,0,1-2-2c0-1.18.36-1,3-1A2,2,0,0,1,11,40Z"/></g></svg>