<svg xmlns="http://www.w3.org/2000/svg" viewBox="0 0 48 48"><defs><style>.cls-1{fill:#7c7d7d;}.cls-2{fill:#c4455e;}.cls-3{fill:#db5669;}.cls-4{fill:#f26674;}.cls-5{fill:#747575;}.cls-6{fill:#374f68;}.cls-7{fill:#425b72;}</style></defs><title>Electric Winch</title><g id="Electric_Winch" data-name="Electric Winch"><path class="cls-1" d="M21,39.83c0-1.49.88-2.13,2-3.24V35a1,1,0,0,1,2,0c0,2.87.33,2.09-1.71,4.12A1.08,1.08,0,0,0,23,40a1,1,0,0,0,2,0,1,1,0,0,1,2,0C27,43.93,21,44.09,21,39.83Z"/><rect class="cls-2" x="1" y="12" width="10" height="14"/><path class="cls-3" d="M9,16V26H1V14H7A2,2,0,0,1,9,16Z"/><rect class="cls-3" x="41" y="13" width="6" height="12"/><path class="cls-4" d="M47,13c0,10.61-.1,10,0,10a4,4,0,0,1-4-4V13Z"/><path class="cls-3" d="M16,10.5V36H1l1-4h9c0-23.2-.21-22.07.51-23A2.5,2.5,0,0,1,16,10.5Z"/><path class="cls-4" d="M11.51,9A2.5,2.5,0,0,1,14,11.5V36h2V10.5A2.5,2.5,0,0,0,11.51,9Z"/><path class="cls-3" d="M47,36H32V10.5a2.51,2.51,0,0,1,4.27-1.77c1,1,.73.25.73,23.27h9Z"/><path class="cls-4" d="M35,11.5V31a2,2,0,0,0,2,2h3.91a4,4,0,0,1,3.84,3H47l-1-4H37V10.5A2.5,2.5,0,0,0,32.51,9,2.49,2.49,0,0,1,35,11.5Z"/><rect class="cls-5" x="16" y="12" width="16" height="14"/><path class="cls-1" d="M30,12v8a4,4,0,0,1-4,4H16V12Z"/><path class="cls-6" d="M11,7v5H1V7A2,2,0,0,1,3,5H9A2,2,0,0,1,11,7Z"/><path class="cls-7" d="M11,7v3H8A5,5,0,0,1,3,5H9A2,2,0,0,1,11,7Z"/><rect class="cls-3" x="37" y="11" width="4" height="16"/><path class="cls-4" d="M41,11c0,15.75-.1,15,0,15a3,3,0,0,1-3-3V11Z"/><path class="cls-7" d="M29,12V26a1,1,0,0,1-2,0V12A1,1,0,0,1,29,12Z"/><path class="cls-6" d="M28,13V27a1,1,0,0,1-1-1V12A1,1,0,0,1,28,13Z"/><path class="cls-7" d="M25,12V30a1,1,0,0,1-2,0V12A1,1,0,0,1,25,12Z"/><path class="cls-6" d="M24,13V31a1,1,0,0,1-1-1V12A1,1,0,0,1,24,13Z"/><path class="cls-7" d="M21,12V26a1,1,0,0,1-2,0V12A1,1,0,0,1,21,12Z"/><path class="cls-6" d="M20,13V27a1,1,0,0,1-1-1V12A1,1,0,0,1,20,13Z"/><path class="cls-3" d="M27,33v3H21c0-2.68-.37-4.48,1.44-5.56A3,3,0,0,1,27,33Z"/><path class="cls-4" d="M27,33v2H25a3,3,0,0,1-2.56-4.56A3,3,0,0,1,27,33Z"/><path class="cls-2" d="M7,18H5a1,1,0,0,1,0-2H7A1,1,0,0,1,7,18Z"/><path class="cls-2" d="M7,22H5a1,1,0,0,1,0-2H7A1,1,0,0,1,7,22Z"/><path class="cls-2" d="M43,18H41V16h2A1,1,0,0,1,43,18Z"/><path class="cls-2" d="M43,22H41V20h2A1,1,0,0,1,43,22Z"/></g></svg>