<svg xmlns="http://www.w3.org/2000/svg" viewBox="0 0 48 48"><defs><style>.cls-1{fill:#374f68;}.cls-2{fill:#425b72;}.cls-3{fill:#2c435e;}.cls-4{fill:#dad7e5;}.cls-5{fill:#edebf2;}</style></defs><title>Ignition Key</title><g id="Ignition_Key" data-name="Ignition Key"><path class="cls-1" d="M42,29a1,1,0,0,1-1-1V20c0-1.81,3.16-.89,4.53.46A5,5,0,0,1,42,29Zm1-7.83v5.66A3,3,0,0,0,43,21.17Z"/><path class="cls-2" d="M11,28h9.68c-1.11,6.9-5,12-9.68,12C5.48,40,1,32.84,1,24S5.48,8,11,8c4.66,0,8.57,5.1,9.68,12H11Z"/><path class="cls-1" d="M13,38C3.66,38-.63,19.06,6.72,9.56-2.87,16.84.37,40,11,40c2.37,0,4.54-1.32,6.26-3.53A7,7,0,0,1,13,38Z"/><path class="cls-3" d="M10,30V18a1,1,0,0,1,2,0V30A1,1,0,0,1,10,30Z"/><rect class="cls-4" x="11" y="20" width="12" height="8"/><path class="cls-5" d="M23,20v6H19a6,6,0,0,1-6-6Z"/><path class="cls-1" d="M43,17V31a2,2,0,0,1-2,2c-14.33,0-13.78.26-14.6-.75L23,28V20c3.48-4.35,3.68-5,5-5H41A2,2,0,0,1,43,17Z"/><path class="cls-2" d="M43,17V31H35.54A10.54,10.54,0,0,1,25,20.46v-3c1.44-1.8,1.59-2.15,2.32-2.39C27.82,14.94,41.1,15,41,15A2,2,0,0,1,43,17Z"/><rect class="cls-4" x="35" y="20" width="4" height="8"/><path class="cls-5" d="M39,20v7a3,3,0,0,1-3-3V20Z"/><polygon class="cls-4" points="31 20 31 28 27 27 27 21 31 20"/><path class="cls-5" d="M31,20v6.75a4,4,0,0,1-3-3.84V20.75Z"/></g></svg>