<svg xmlns="http://www.w3.org/2000/svg" viewBox="0 0 48 48"><defs><style>.cls-1{fill:#374f68;}.cls-2{fill:#425b72;}.cls-3{fill:#7c7d7d;}.cls-4{fill:#747575;}.cls-5{fill:#919191;}.cls-6{fill:#c6c3d8;}.cls-7{fill:#dad7e5;}.cls-8{fill:#b2e5fb;}.cls-9{fill:#9fdbf3;}</style></defs><title>DVR</title><g id="DVR"><path class="cls-1" d="M32,1c0,3.61.2,4.72-.54,6A4,4,0,0,1,28,9V5H20V9a4,4,0,0,1-4-4V1Z"/><path class="cls-2" d="M32,1c0,3.61.2,4.72-.54,6H28V6a1,1,0,0,0-1-1H21a1,1,0,0,0-1,1V7a2,2,0,0,1-2-2V1Z"/><rect class="cls-3" x="20" y="5" width="8" height="10" rx="1"/><path class="cls-4" d="M22,5V6H21a1,1,0,0,0-1,1V6a1,1,0,0,1,1-1Z"/><path class="cls-5" d="M28,6v7a5.94,5.94,0,0,1-4.24-1.76C21.73,9.23,22,7,22,5h5A1,1,0,0,1,28,6Z"/><path class="cls-3" d="M28,6V7a1,1,0,0,0-1-1H22V5h5A1,1,0,0,1,28,6Z"/><path class="cls-1" d="M30,23h6a4,4,0,0,1,4,4V39a4,4,0,0,1-4,4H12a4,4,0,0,1-4-4V27a4,4,0,0,1,4-4h6"/><path class="cls-1" d="M40,27c0,13.24.18,12.75-.54,14A4,4,0,0,1,36,43H12a4,4,0,0,1-4-4V27a4,4,0,0,1,4-4H36A4,4,0,0,1,40,27Z"/><path class="cls-2" d="M40,27c0,13.24.18,12.75-.54,14H28A16,16,0,0,1,12,25a4,4,0,0,1,.54-2H36A4,4,0,0,1,40,27Z"/><rect class="cls-6" x="21" y="15" width="6" height="4"/><rect class="cls-7" x="21" y="16" width="5" height="3"/><circle class="cls-5" cx="24" cy="33" r="8"/><path class="cls-3" d="M26,39a8,8,0,0,1-6.56-12.56A8,8,0,1,0,30.56,37.56,7.87,7.87,0,0,1,26,39Z"/><circle class="cls-8" cx="24" cy="33" r="6"/><path class="cls-9" d="M25,38a6,6,0,0,1-4.71-9.71,6,6,0,1,0,8.42,8.42A5.94,5.94,0,0,1,25,38Z"/><path class="cls-3" d="M29,21v2H19c0-1.62-.3-3.15,1.18-3.82.53-.25.47-.18,6.82-.18A2,2,0,0,1,29,21Z"/><path class="cls-5" d="M29,21v1H22a2,2,0,0,1-1.82-2.82A1.89,1.89,0,0,1,21,19h6A2,2,0,0,1,29,21Z"/><path class="cls-3" d="M26,47H23a4,4,0,0,1-4-4H30A4,4,0,0,1,26,47Z"/><path class="cls-4" d="M19,43a4.09,4.09,0,0,0,.14,1H29a4,4,0,0,1-.72,2.28A4,4,0,0,0,30,43Z"/></g></svg>