<svg xmlns="http://www.w3.org/2000/svg" viewBox="0 0 48 48"><defs><style>.cls-1{fill:#dad7e5;}.cls-2{fill:#edebf2;}.cls-3{fill:#f16f39;}.cls-4{fill:#db5669;}.cls-5{fill:#c6c3d8;}.cls-6{fill:#2c435e;}.cls-7{fill:#374f68;}.cls-8{fill:#f26674;}.cls-9{fill:#f8834b;}</style></defs><title>Rear Bumper</title><g id="Rear_Bumper" data-name="Rear Bumper"><path class="cls-1" d="M47,11V36l-5,1-2-8H8L6,37,1,36V11Z"/><path class="cls-2" d="M47,11V34l-5.52.92L40,29H8L6.54,34.85A3.67,3.67,0,0,1,4.7,33.49C3.73,32.15,4,32.75,4,11Z"/><path class="cls-3" d="M17,15l-1,4H9.87a4,4,0,0,0-1.23-4Z"/><circle class="cls-4" cx="5" cy="19" r="4"/><path class="cls-3" d="M43,15a4,4,0,0,0-4,4H32l-1-4Z"/><circle class="cls-4" cx="43" cy="19" r="4"/><polygon class="cls-5" points="39.25 15 31 15 32 19 38.5 19 37 25 11 25 9.5 19 16 19 17 15 8.75 15 8 11 40 11 39.25 15"/><polygon class="cls-5" points="42 37 6 37 8 29 40 29 42 37"/><path class="cls-1" d="M41.5,35H15.18a4.83,4.83,0,0,1-4.68-6c0-.1-1.53,0,29.5,0Z"/><polygon class="cls-6" points="29 37 19 37 20 33 28 33 29 37"/><path class="cls-7" d="M27.75,37H19l.75-3C27.19,34,26.86,33.43,27.75,37Z"/><path class="cls-4" d="M47,19a4,4,0,1,1-6.28-3.28A4,4,0,0,1,47,19Z"/><path class="cls-8" d="M46.28,21.28a4,4,0,0,1-5.56-5.56A4,4,0,0,1,46.28,21.28Z"/><path class="cls-4" d="M9,19a4,4,0,1,1-6.28-3.28A4,4,0,0,1,9,19Z"/><path class="cls-8" d="M8.28,21.28a4,4,0,0,1-5.56-5.56A4,4,0,0,1,8.28,21.28Z"/><path class="cls-1" d="M39.25,15H31l1,4h6.5l-1,4H17.1a5.16,5.16,0,0,1-5-4H16l1-4H11.15l-.92-4H40Z"/><path class="cls-9" d="M43,15a4,4,0,0,0-3.87,3H36.06a3.73,3.73,0,0,1-3.66-3Z"/><path class="cls-9" d="M17,15l-.75,3h-4.6a2,2,0,0,1-1.9-1.39A4,4,0,0,0,8.64,15Z"/><path class="cls-3" d="M9.87,19H9a4,4,0,0,0-3-3.88c-.9-.2-2.53-.12,2.68-.12A4,4,0,0,1,9.87,19Z"/></g></svg>