<svg xmlns="http://www.w3.org/2000/svg" viewBox="0 0 48 48"><defs><style>.cls-1{fill:#7c7d7d;}.cls-2{fill:#919191;}.cls-3{fill:#9fdbf3;}.cls-4{fill:#b2e5fb;}.cls-5{fill:#374f68;}.cls-6{fill:#425b72;}.cls-7{fill:#edebf2;opacity:0.3;}.cls-8{fill:#ffba55;}</style></defs><title>Rear Parking Monitor</title><g id="Rear_Parking_Monitor" data-name="Rear Parking Monitor"><path class="cls-1" d="M47,10V33.46a8.53,8.53,0,0,1-5.27,7.89c-2.14.89-1,.65-32.19.65a8.53,8.53,0,0,1-7.89-5.27C.77,34.63,1,35.68,1,10A4,4,0,0,1,5,6H43A4,4,0,0,1,47,10Z"/><path class="cls-2" d="M47,10V33.12A9,9,0,0,1,44,40H36.46A33.46,33.46,0,0,1,3,6.54,4,4,0,0,1,5,6H43A4,4,0,0,1,47,10Z"/><rect class="cls-3" x="5" y="10" width="38" height="22"/><path class="cls-4" d="M43,10V30H27A20,20,0,0,1,7,10Z"/><path class="cls-5" d="M13,37a2,2,0,1,1-2.82-1.82A2,2,0,0,1,13,37Z"/><path class="cls-6" d="M12.82,37.82a2,2,0,0,1-2.64-2.64A2,2,0,0,1,12.82,37.82Z"/><path class="cls-5" d="M26,37a2,2,0,1,1-2.82-1.82A2,2,0,0,1,26,37Z"/><path class="cls-6" d="M25.82,37.82a2,2,0,0,1-2.64-2.64A2,2,0,0,1,25.82,37.82Z"/><path class="cls-5" d="M39,37a2,2,0,1,1-2.82-1.82A2,2,0,0,1,39,37Z"/><path class="cls-6" d="M38.82,37.82a2,2,0,0,1-2.64-2.64A2,2,0,0,1,38.82,37.82Z"/><polygon class="cls-7" points="43 10 43 32 32 32 43 10"/><polygon class="cls-7" points="36 10 25.32 32 17.99 32 28 10 36 10"/><polygon class="cls-7" points="20 10 10 32 4.99 32 15 10 20 10"/><path class="cls-8" d="M21,18H13.77l-1.34,5H18a1,1,0,0,1,0,2H11.9L10,32H8c0-.22-.26.81,4-15.26A1,1,0,0,1,13,16h8A1,1,0,0,1,21,18Z"/><path class="cls-8" d="M40,32H38L36.1,25H30a1,1,0,0,1,0-2h5.57l-1.34-5H27a1,1,0,0,1,0-2h8a1,1,0,0,1,1,.74C40.28,32.9,40,31.78,40,32Z"/></g></svg>