<svg xmlns="http://www.w3.org/2000/svg" viewBox="0 0 48 48"><defs><style>.cls-1{fill:#edebf2;}.cls-2{fill:#c6c3d8;}.cls-3{fill:#dad7e5;}.cls-4{fill:#fc6;}.cls-5{fill:#ffde76;}.cls-6{fill:#9fdbf3;}.cls-7{fill:#8bd1ea;}</style></defs><title>Head Lights</title><g id="Front_Lamp" data-name="Front Lamp"><path class="cls-1" d="M47,18l-1.92,9a6,6,0,0,1-6.22,4.73c-13.61-.8-11.3-.75-13.24-.57L27,27l11.42.82a3,3,0,0,0,3.14-2.35L43,19l-2-5L8,28l3,4.52L6,33,1,27,43,9Z"/><path class="cls-2" d="M27,27l-1.38,4.13L17.05,32c3-3,2.95-6.17,2.95-9l5-2.12V25A2,2,0,0,0,27,27Z"/><path class="cls-3" d="M27,27l-1.38,4.13L17.05,32c3-3,2.95-6.17,2.95-9l5-2.12V25A2,2,0,0,0,27,27Z"/><path class="cls-2" d="M25,25V20.79l-5,2.12v.58l4-1.7V26a2,2,0,0,0,2,2l-1.07,3.2.69-.07L27,27A2,2,0,0,1,25,25Z"/><path class="cls-4" d="M20,22.91c0,2.69.16,5.9-2.95,9l-6,.57L8,28Z"/><path class="cls-4" d="M20,22.91c0,3.31-.07,6.16-2.95,9l-6,.57L8,28Z"/><path class="cls-5" d="M20,22.91c0,2.36.19,5.06-2.09,8.05l-5.9.56L9.3,27.45Z"/><path class="cls-6" d="M43,19l-1.44,6.47a3,3,0,0,1-3.14,2.35L27,27a2,2,0,0,1-2-2V20.79L41,14Z"/><path class="cls-7" d="M41,14l-1.37.58L41,18l-1.44,6.47a3,3,0,0,1-3.14,2.35L25.29,26c.72,1.19.52.89,13.13,1.8a3,3,0,0,0,3.14-2.35L43,19Z"/></g></svg>