<svg xmlns="http://www.w3.org/2000/svg" viewBox="0 0 48 48"><defs><style>.cls-1{fill:#7c7d7d;}.cls-2{fill:#919191;}.cls-3{fill:#747575;}.cls-4{fill:none;}</style></defs><title>Exhaust System</title><g id="Exhaust_System" data-name="Exhaust System"><path class="cls-1" d="M38.82,21.85,23.26,37.41a2,2,0,0,1-2.82,0L14,31a2,2,0,0,1,0-2.83c.9-.92-1.13,1.12,15.55-15.56a2,2,0,0,1,2.83,0L38.82,19A2,2,0,0,1,38.82,21.85Z"/><path class="cls-2" d="M38.24,18.44l-9.32,9.31a10,10,0,0,1-14.14,0C14.5,27.47,13,29.2,29.56,12.59a2,2,0,0,1,2.83,0Z"/><path class="cls-3" d="M41.26,13,37,17.22l-2.83-2.83,4.25-4.24Z"/><rect class="cls-1" x="34.04" y="12.61" width="4.44" height="1.41" transform="translate(1.2 29.54) rotate(-45)"/><path class="cls-1" d="M47,10l-4.32,4.39L37,8.74l5.66-5.66Z"/><path class="cls-2" d="M46.24,8.78l-.73.75a4,4,0,0,1-5.68,0L38,7.74l4.66-4.66Z"/><polygon class="cls-1" points="18.64 35.61 11.56 42.68 8.03 39.14 1 46 1 40 8.03 33.48 11.56 37.02 15.81 32.78 18.64 35.61"/><polygon class="cls-2" points="11.56 39.02 15.81 34.78 17.64 36.61 18.64 35.61 15.81 32.78 11.56 37.02 8.03 33.48 1 40 1 42 8.03 35.48 11.56 39.02"/><polygon class="cls-3" points="18.64 35.61 17.63 36.62 14.81 33.78 15.81 32.78 18.64 35.61"/><line class="cls-4" x1="38.33" y1="12.25" x2="37.33" y2="11.25"/></g></svg>