<svg xmlns="http://www.w3.org/2000/svg" viewBox="0 0 48 48"><defs><style>.cls-1{fill:#c6c3d8;}.cls-2{fill:#dad7e5;}.cls-3{fill:#edebf2;}.cls-4{fill:#374f68;}.cls-5{fill:#425b72;}.cls-6{fill:#7c7d7d;}.cls-7{fill:#919191;}.cls-8{fill:#2c435e;}.cls-9{fill:#747575;}</style></defs><title>differential</title><g id="differential"><rect class="cls-1" x="1" y="20" width="12" height="8"/><path class="cls-2" d="M11,20a6,6,0,0,1-6,6H1V20Z"/><rect class="cls-2" x="39" y="20" width="8" height="8"/><path class="cls-3" d="M47,20v6H45a5,5,0,0,1-5-5V20Z"/><rect class="cls-4" x="25" y="10" width="10" height="28" rx="2"/><path class="cls-5" d="M35,12c0,24.83-.1,24,0,24a8,8,0,0,1-8-8V10h6A2,2,0,0,1,35,12Z"/><path class="cls-6" d="M25,17V31H15a2,2,0,0,1-2-2V19a2,2,0,0,1,2-2Z"/><path class="cls-7" d="M23,17V29H13V19a2,2,0,0,1,2-2Z"/><path class="cls-6" d="M39,17V31a2,2,0,0,1-2,2H35V15h2A2,2,0,0,1,39,17Z"/><path class="cls-7" d="M39,17V30.73A2,2,0,0,1,36,29V15h1A2,2,0,0,1,39,17Z"/><path class="cls-8" d="M29,15H25V13h4A1,1,0,0,1,29,15Z"/><path class="cls-8" d="M35,17v2H31a1,1,0,0,1,0-2Z"/><path class="cls-8" d="M29,23H25V21h4A1,1,0,0,1,29,23Z"/><path class="cls-8" d="M35,25v2H31a1,1,0,0,1,0-2Z"/><path class="cls-8" d="M29,31H25V29h4A1,1,0,0,1,29,31Z"/><path class="cls-8" d="M35,33v2H31a1,1,0,0,1,0-2Z"/><path class="cls-9" d="M22,17v5a1,1,0,0,1-2,0V17Z"/><path class="cls-9" d="M22,26v5H20V26A1,1,0,0,1,22,26Z"/></g></svg>