<svg xmlns="http://www.w3.org/2000/svg" viewBox="0 0 48 48"><defs><style>.cls-1{fill:#919191;}.cls-2{fill:#7c7d7d;}.cls-3{fill:#747575;}.cls-4{fill:#374f68;}.cls-5{fill:#425b72;}.cls-6{fill:#82bcf4;}.cls-7{fill:#6fabe6;}</style></defs><title>cigarette lighter</title><g id="cigarette_lighter" data-name="cigarette lighter"><path class="cls-1" d="M25,2c0,.62.11,0-1,0s-1,.61-1,0A1,1,0,0,1,25,2Z"/><path class="cls-1" d="M28,22V14c0-2.1,5-.81,5,3v2C33,22.81,28,24.1,28,22Zm2-6.73v5.46A2,2,0,0,0,31,19C31,17.34,31.26,16,30,15.27Z"/><path class="cls-2" d="M15,17c0,1.91-.31,4.13,2,5.46V13.54A4,4,0,0,0,15,17Z"/><path class="cls-3" d="M20,14v8c0,1.35-1.83,1.13-3,.46V19a2,2,0,0,0,1,1.73V15.27A2,2,0,0,0,17,17V13.54C18.18,12.86,20,12.65,20,14Z"/><path class="cls-4" d="M35,37.91c0,2,.14,2.91-.54,4.09A4,4,0,0,1,31,44H17a4,4,0,0,1-4-4c0-2.62-.24-5.72,2.5-9A10.76,10.76,0,0,0,18,24.09V11a2,2,0,0,1,2-2h8a2,2,0,0,1,2,2V24.09C30,30.9,35,31.1,35,37.91Z"/><path class="cls-5" d="M35,37.91c0,2,.14,2.91-.54,4.09H19c-2.9,0-5.18-2.71-3.36-7.77C17,30.52,20,29.56,20,24.09V9h8a2,2,0,0,1,2,2V24.09C30,30.9,35,31.1,35,37.91Z"/><polygon class="cls-2" points="28 9 20 9 21 5 27 5 28 9"/><path class="cls-1" d="M27.75,8H24.09a2.42,2.42,0,0,1-2.34-3H27Z"/><path class="cls-2" d="M26,4V5H22c0-.92-.17-2.21,1.18-2.82A2,2,0,0,1,26,4Z"/><circle class="cls-6" cx="24" cy="32" r="3"/><path class="cls-7" d="M22.45,29.45A3,3,0,0,0,24,35a3,3,0,0,0,2.55-1.45A3,3,0,0,1,22.45,29.45Z"/><rect class="cls-2" x="18" y="44" width="12" height="3"/><path class="cls-3" d="M18,44v1h9a2,2,0,0,1,2,2h1V44Z"/><path class="cls-1" d="M23.18,2.18C22.7,3.18,23.23,4,24,4h2A2,2,0,0,0,23.18,2.18Z"/></g></svg>