<svg xmlns="http://www.w3.org/2000/svg" viewBox="0 0 48 48"><defs><style>.cls-1{fill:#7c7d7d;}.cls-2{fill:#919191;}.cls-3{fill:#dad7e5;}.cls-4{fill:#edebf2;}.cls-5{fill:#374f68;}.cls-6{fill:#425b72;}.cls-7{fill:#2c435e;}</style></defs><title>Speaker</title><g id="Speaker"><path class="cls-1" d="M45.2,40.43A4.23,4.23,0,0,1,41,45.24c-2,0-3-1.23-4-2.26a23,23,0,0,1-26,0l-1,1a4.25,4.25,0,0,1-7.24-3C2.76,39,4,38,5,37A23,23,0,0,1,5,11L4,10A4.25,4.25,0,0,1,7,2.76C9,2.76,10,4,11,5A23,23,0,0,1,37,5l1-1a4.24,4.24,0,0,1,6,6l-1,1a23,23,0,0,1,0,26C44.1,38.1,45,38.79,45.2,40.43Z"/><path class="cls-1" d="M47,24A23,23,0,0,1,24,47C2.54,47-7.2,20,9.31,6.31,24.09-6,47,4.37,47,24Z"/><path class="cls-2" d="M47,24a22.92,22.92,0,0,1-5.31,14.69A22.92,22.92,0,0,1,27,44C7.4,44-3,21.11,9.31,6.31,24.09-6,47,4.37,47,24Z"/><path class="cls-3" d="M24,7A17,17,0,0,0,7,24C7,39.83,26.79,47,37,35,46.18,24.13,38.64,7,24,7Zm0,30A13,13,0,1,1,37,24,13,13,0,0,1,24,37Z"/><path class="cls-4" d="M24,7a16.91,16.91,0,0,0-11,4A16.91,16.91,0,0,0,9,22C9,36.62,26.12,44.19,37,35,46.18,24.13,38.64,7,24,7Zm0,30A13,13,0,1,1,37,24,13,13,0,0,1,24,37Z"/><path class="cls-5" d="M24,11A13,13,0,0,0,11,24c0,12.23,15.5,17.69,23.13,8.13A13,13,0,0,0,24,11Zm0,6a7,7,0,1,1-7,7A7,7,0,0,1,24,17Z"/><path class="cls-6" d="M37,24a12.88,12.88,0,0,1-2.87,8.13A13,13,0,0,1,15.87,13.87,13,13,0,0,1,37,24Z"/><path class="cls-3" d="M31,24a7,7,0,1,1-10.85-5.85A7,7,0,0,1,31,24Z"/><path class="cls-4" d="M31,24a6.92,6.92,0,0,1-1.15,3.85A6.92,6.92,0,0,1,26,29a7,7,0,0,1-5.85-10.85A7,7,0,0,1,31,24Z"/><path class="cls-7" d="M43,41a2,2,0,1,1-2.82-1.82A2,2,0,0,1,43,41Z"/><path class="cls-5" d="M42.82,41.82a2,2,0,0,1-2.64-2.64A2,2,0,0,1,42.82,41.82Z"/><path class="cls-7" d="M9,41a2,2,0,1,1-2.82-1.82A2,2,0,0,1,9,41Z"/><path class="cls-6" d="M8.82,41.82a2,2,0,0,1-2.64-2.64A2,2,0,0,1,8.82,41.82Z"/><path class="cls-7" d="M9,7A2,2,0,1,1,6.18,5.18,2,2,0,0,1,9,7Z"/><path class="cls-5" d="M8.82,7.82A2,2,0,0,1,6.18,5.18,2,2,0,0,1,8.82,7.82Z"/><path class="cls-7" d="M43,7a2,2,0,1,1-2.82-1.82A2,2,0,0,1,43,7Z"/><path class="cls-5" d="M42.82,7.82a2,2,0,0,1-2.64-2.64A2,2,0,0,1,42.82,7.82Z"/></g></svg>