<svg xmlns="http://www.w3.org/2000/svg" viewBox="0 0 48 48"><defs><style>.cls-1{fill:#db5669;}.cls-2{fill:#f26674;}.cls-3{fill:#c6c3d8;}.cls-4{fill:#dad7e5;}.cls-5{fill:#f16f39;}.cls-6{fill:#f8834b;}.cls-7{fill:#edebf2;}</style></defs><title>Rear Lights</title><g id="Rear_Lights" data-name="Rear Lights"><path class="cls-1" d="M35,47H13V17A16,16,0,0,1,29,1h4l.45,10.26C30.46,4.26,20,6.42,20,14a7,7,0,0,0,13.66,2.16l.62,14.32a9,9,0,1,0,.28,6.3C35,46.32,34.88,44.34,35,47Z"/><path class="cls-2" d="M34.91,45H25A10,10,0,0,1,15,35V9.25A16,16,0,0,1,29,1h4l.45,10.26A7,7,0,0,0,26.85,7,7.09,7.09,0,0,0,20,13.9a7,7,0,0,0,13.66,2.26l.62,14.32a9,9,0,0,0-8-5.48A9.12,9.12,0,0,0,17,33.74a9,9,0,0,0,17.56,3Z"/><path class="cls-3" d="M33.66,16.16a7,7,0,1,1-.21-4.9C33.45,11.66,33.39,9.85,33.66,16.16Z"/><path class="cls-4" d="M33.22,17.21a7,7,0,0,1-10.9-8.4,7,7,0,0,1,11.13,2.45C33.45,16,34.07,15.56,33.22,17.21Z"/><path class="cls-5" d="M34.56,36.78C31.42,46.54,17,44.13,17,34c0-9.73,13.45-12.52,17.28-3.52Z"/><path class="cls-6" d="M34.56,36.78a8.93,8.93,0,0,1-1.26,2.49A9,9,0,0,1,20.72,26.72a9,9,0,0,1,13.56,3.76Z"/><path class="cls-7" d="M30,34a4,4,0,1,1-7.28-2.28A4,4,0,0,1,30,34Z"/><path class="cls-7" d="M30,14a3,3,0,1,1-5.56-1.56A3,3,0,0,1,30,14Z"/></g></svg>