<svg xmlns="http://www.w3.org/2000/svg" viewBox="0 0 48 48"><defs><style>.cls-1{fill:#374f68;}.cls-2{fill:#2c435e;}.cls-3{fill:#425b72;}.cls-4{fill:#dad7e5;}.cls-5{fill:#c6c3d8;}.cls-6{fill:#edebf2;}.cls-7{fill:#9fdbf3;}.cls-8{fill:#b2e5fb;}</style></defs><title>Phone Holder</title><g id="Phone_Holder" data-name="Phone Holder"><path class="cls-1" d="M27,43H41a0,0,0,0,1,0,0v2a2,2,0,0,1-2,2H29a2,2,0,0,1-2-2V43A0,0,0,0,1,27,43Z"/><path class="cls-2" d="M41,43c0,1.62.3,3.15-1.18,3.82-.54.26,0,.18-10.82.18a2,2,0,0,1-2-2V43Z"/><path class="cls-1" d="M40,44c0,2,.06,2.32-.18,2.82-.54.26,0,.18-10.82.18a2,2,0,0,1-2-2V44Z"/><path class="cls-1" d="M25,20V34H23a2,2,0,0,1-2-2V22a2,2,0,0,1,2-2Z"/><path class="cls-3" d="M24,20V33c-2,0-2.32.06-2.82-.18-.26-.54-.18,0-.18-10.82a2,2,0,0,1,2-2Z"/><path class="cls-1" d="M47,22c0,10.82.07,10.29-.18,10.82C46.15,34.3,44.62,34,43,34V20h2A2,2,0,0,1,47,22Z"/><path class="cls-3" d="M47,22c0,10.82.07,10.29-.18,10.82-.51.24-.81.18-2.82.18V20h1A2,2,0,0,1,47,22Z"/><path class="cls-1" d="M19,1c0,1.94.13,2.83-.54,4A4,4,0,0,1,15,7a2,2,0,0,0-2-2C6.8,5,6,4.69,5.27,6A2,2,0,0,0,5,7,4,4,0,0,1,1,3V1Z"/><path class="cls-3" d="M19,1c0,1.89.25,3.62-1.37,5H8A5,5,0,0,1,3,1Z"/><path class="cls-1" d="M15,7c0,2,.06,2.32-.18,2.82A2,2,0,0,1,13,11H7A2,2,0,0,1,5,9V7A2,2,0,0,1,7,5h6A2,2,0,0,1,15,7Z"/><path class="cls-2" d="M6.18,5.18A2.21,2.21,0,0,0,6,6.27,2,2,0,0,0,5,8C5,7.08,4.83,5.79,6.18,5.18Z"/><path class="cls-3" d="M15,7c0,2,.06,2.32-.18,2.82-.53.25-.47.18-6.82.18A2,2,0,0,1,6,8V6c0-1.3-.16-1,7-1A2,2,0,0,1,15,7Z"/><path class="cls-1" d="M15,7V8a2,2,0,0,0-2-2c-6.4,0-6.3-.07-6.82.18C6,6.3,6,6.34,6,6c0-1.3-.16-1,7-1A2,2,0,0,1,15,7Z"/><path class="cls-4" d="M21,25v4H14a6,6,0,0,1-6-6V11h4V22a3,3,0,0,0,3,3Z"/><rect class="cls-5" x="8" y="11" width="4" height="1"/><rect class="cls-5" x="20" y="25" width="1" height="4"/><path class="cls-6" d="M20,25v1H14a3,3,0,0,1-3-3V12h1V22a3,3,0,0,0,3,3Z"/><rect class="cls-4" x="25" y="11" width="18" height="32" rx="2"/><path class="cls-6" d="M43,13V41H39A12,12,0,0,1,27,29V11H41A2,2,0,0,1,43,13Z"/><circle class="cls-4" cx="34" cy="40" r="2"/><path class="cls-5" d="M33.18,38.18a2,2,0,1,0,2.64,2.64A2,2,0,0,1,33.18,38.18Z"/><path class="cls-4" d="M36,15H32a1,1,0,0,1,0-2h4A1,1,0,0,1,36,15Z"/><path class="cls-5" d="M32,13a1,1,0,0,0,0,2h4a1,1,0,0,0,1-1H33A1,1,0,0,1,32,13Z"/><rect class="cls-7" x="27" y="17" width="14" height="20"/><path class="cls-8" d="M41,17c0,18.76-.1,18,0,18A12,12,0,0,1,29,23V17Z"/><rect class="cls-4" x="11" y="11" width="1" height="1"/><rect class="cls-4" x="20" y="25" width="1" height="1"/></g></svg>