<svg xmlns="http://www.w3.org/2000/svg" viewBox="0 0 48 48"><defs><style>.cls-1{fill:#dad7e5;}.cls-2{fill:#edebf2;}.cls-3{fill:#374f68;}.cls-4{fill:#425b72;}.cls-5{fill:#7c7d7d;}.cls-6{fill:#919191;}.cls-7{fill:#a87e6b;}.cls-8{fill:#be927c;}</style></defs><title>Transmission</title><g id="Transmission"><rect class="cls-1" x="1" y="21" width="4" height="26"/><path class="cls-2" d="M5,21c0,24.83-.1,24,0,24a2,2,0,0,1-2-2V21Z"/><path class="cls-3" d="M39,27c0,15.58.13,14.58-.36,15.64A4,4,0,0,1,35,45H5V23H35A4,4,0,0,1,39,27Z"/><path class="cls-4" d="M39,27c0,15.58.13,14.58-.36,15.64A3.93,3.93,0,0,1,37,43H25A18,18,0,0,1,7,25V23H35A4,4,0,0,1,39,27Z"/><rect class="cls-1" x="39" y="29" width="4" height="10"/><path class="cls-2" d="M43,29c0,9.57-.1,9,0,9a3,3,0,0,1-3-3V29Z"/><rect class="cls-1" x="43" y="31" width="4" height="6"/><path class="cls-2" d="M47,31v5a3,3,0,0,1-3-3V31Z"/><path class="cls-5" d="M30,23H18a4,4,0,0,1,1.17-2.83C20.67,18.7,22,19,26,19A4,4,0,0,1,30,23Z"/><path class="cls-6" d="M29.87,22H20a4,4,0,0,1,1.17-2.83c.2-.2,0-.17,4.83-.17A4,4,0,0,1,29.87,22Z"/><path class="cls-3" d="M23,15V7a1,1,0,0,1,2,0v8A1,1,0,0,1,23,15Z"/><path class="cls-7" d="M26.81,2.16c-.48,2.9-.47,3.13-.72,3.56A2.36,2.36,0,0,1,21.67,5l-.48-2.87a1,1,0,0,1,1-1.16h3.64A1,1,0,0,1,26.81,2.16Z"/><path class="cls-8" d="M26.81,2.16c-.48,2.9-.47,3.13-.72,3.56A2.35,2.35,0,0,1,22.67,4c-.49-2.94-.49-2.87-.49-3h3.64A1,1,0,0,1,26.81,2.16Z"/><polygon class="cls-1" points="31 32 28.83 32 30 30 28 28 26 29.17 26 27 22 27 22 29.17 20 28 18 30 19.17 32 17 32 17 36 19.17 36 18 38 20 40 22 38.83 22 41 26 41 26 38.83 28 40 30 38 28.83 36 31 36 31 32"/><circle class="cls-3" cx="24" cy="34" r="2"/><path class="cls-5" d="M27,18v1H21c0-1.21-.13-2.62,1.44-3.56A3,3,0,0,1,27,18Z"/><path class="cls-6" d="M27,18H22a4.23,4.23,0,0,1,.44-2.56A3,3,0,0,1,27,18Z"/></g></svg>