<svg xmlns="http://www.w3.org/2000/svg" viewBox="0 0 48 48"><defs><style>.cls-1{fill:#9fdbf3;}.cls-2{fill:#b2e5fb;}.cls-3{fill:#919191;}.cls-4{fill:#425b72;}.cls-5{fill:#edebf2;opacity:0.3;}</style></defs><title>Windshield</title><g id="Windshield"><path class="cls-1" d="M47,31.72a3.1,3.1,0,0,1-1.28,1.94C36.91,40.69,1,38.45,1,31.72,1.09,30.71.66,33,5,12H43C47.36,33.1,46.91,30.71,47,31.72Z"/><path class="cls-2" d="M47,31.72a3.1,3.1,0,0,1-1.28,1.94C32.67,38.05,6.64,35.91,5.07,30c-.16-.54-.14-.29,3.52-18H43C47.36,33.1,46.91,30.71,47,31.72Z"/><rect class="cls-3" x="19" y="15" width="10" height="4" rx="1"/><rect class="cls-4" x="23" y="12" width="2" height="3"/><path class="cls-4" d="M25,19v1a1,1,0,0,1-2,0V19Z"/><path class="cls-5" d="M47,31.72a3.1,3.1,0,0,1-1.28,1.94c-2,1.56-6,2.85-11.12,3.61L43,12C47.36,33.1,46.91,30.71,47,31.72Z"/><path class="cls-5" d="M37.51,12,28.73,37.86a82.86,82.86,0,0,1-9,0L28,12Z"/><path class="cls-5" d="M23.51,12,14.86,37.47a51.49,51.49,0,0,1-5.61-1L18,12Z"/></g></svg>