<svg xmlns="http://www.w3.org/2000/svg" viewBox="0 0 48 48"><defs><style>.cls-1{fill:#919191;}.cls-2{fill:#374f68;}.cls-3{fill:#425b72;}.cls-4{fill:#7c7d7d;}.cls-5{fill:#747575;}</style></defs><title>Half Shaft</title><g id="Half_Shaft" data-name="Half Shaft"><path class="cls-1" d="M2,34a1,1,0,0,1-.71-1.71l1.36-1.35a1,1,0,1,1,1.41,1.41C2.6,33.82,2.53,34,2,34Z"/><path class="cls-1" d="M31.64,4.36a1,1,0,0,1-.7-1.71l1.35-1.36a1,1,0,0,1,1.42,1.42C32.24,4.18,32.17,4.36,31.64,4.36Z"/><path class="cls-2" d="M29.52,12.55,28.11,14a2,2,0,0,1-2.83,0L21,9.72a2,2,0,0,1-.31-2.41c.14-.3.31-.42,1.72-1.83Z"/><path class="cls-3" d="M28.52,11.55l-.41.41a2,2,0,0,1-2.83,0c-4.42-4.42-4.42-4.37-4.55-4.65.14-.3.31-.42,1.72-1.83Z"/><path class="cls-4" d="M33.06,7.6l-2.83,2.83a2,2,0,0,1-2.83,0L24.57,7.6a2,2,0,0,1,0-2.83L27.4,1.94a2,2,0,0,1,2.83,0l2.83,2.83A2,2,0,0,1,33.06,7.6Z"/><path class="cls-1" d="M32.06,6.6,29.23,9.43a2,2,0,0,1-2.83,0L24.57,7.6a2,2,0,0,1,0-2.83L27.4,1.94a2,2,0,0,1,2.83,0l1.83,1.83A2,2,0,0,1,32.06,6.6Z"/><path class="cls-2" d="M14,28.11l-1.41,1.41L5.48,22.45,6.89,21a2,2,0,0,1,2.83,0c4.56,4.56,4.41,4.37,4.55,4.66A2,2,0,0,1,14,28.11Z"/><path class="cls-3" d="M14.27,25.7a2,2,0,0,1-3.13.41L6.48,21.45,6.89,21a2,2,0,0,1,2.83,0C14.28,25.6,14.13,25.41,14.27,25.7Z"/><path class="cls-4" d="M10.43,30.23,7.6,33.06a2,2,0,0,1-2.83,0L1.94,30.23a2,2,0,0,1,0-2.83l2.83-2.83a2,2,0,0,1,2.83,0l2.83,2.83A2,2,0,0,1,10.43,30.23Z"/><rect class="cls-1" x="1.68" y="25.02" width="8" height="6.59" rx="2" transform="translate(-18.36 12.31) rotate(-45)"/><rect class="cls-4" x="9.5" y="15.5" width="15.99" height="4" transform="translate(-7.25 17.5) rotate(-45)"/><path class="cls-1" d="M23.57,12.26l-8.48,8.48a2.59,2.59,0,0,1-3.66,0L21.74,10.43Z"/><path class="cls-5" d="M27.29,6.71,25,4.38,26.38,3l2.33,2.33A1,1,0,0,1,27.29,6.71Z"/><path class="cls-5" d="M10,30.62,8.62,32,6.29,29.71a1,1,0,0,1,1.42-1.42Z"/><path class="cls-1" d="M15,47a1,1,0,0,1-.71-1.71l1.36-1.35a1,1,0,1,1,1.41,1.41C15.6,46.82,15.53,47,15,47Z"/><path class="cls-1" d="M44.64,17.36a1,1,0,0,1-.7-1.71l1.35-1.36a1,1,0,0,1,1.42,1.42C45.24,17.18,45.17,17.36,44.64,17.36Z"/><path class="cls-2" d="M42.52,25.55,41.11,27a2,2,0,0,1-2.83,0L34,22.72a2,2,0,0,1-.31-2.41c.14-.3.31-.42,1.72-1.83Z"/><path class="cls-3" d="M41.52,24.55l-.41.41a2,2,0,0,1-2.83,0c-4.42-4.42-4.42-4.37-4.55-4.65.14-.3.31-.42,1.72-1.83Z"/><path class="cls-4" d="M46.06,20.6l-2.83,2.83a2,2,0,0,1-2.83,0L37.57,20.6a2,2,0,0,1,0-2.83l2.83-2.83a2,2,0,0,1,2.83,0l2.83,2.83A2,2,0,0,1,46.06,20.6Z"/><path class="cls-1" d="M45.06,19.6l-2.83,2.83a2,2,0,0,1-2.83,0L37.57,20.6a2,2,0,0,1,0-2.83l2.83-2.83a2,2,0,0,1,2.83,0l1.83,1.83A2,2,0,0,1,45.06,19.6Z"/><path class="cls-2" d="M27,41.11l-1.41,1.41-7.07-7.07L19.89,34a2,2,0,0,1,2.83,0c4.56,4.56,4.41,4.37,4.55,4.66A2,2,0,0,1,27,41.11Z"/><path class="cls-3" d="M27.27,38.7a2,2,0,0,1-3.13.41l-4.66-4.66.41-.41a2,2,0,0,1,2.83,0C27.28,38.6,27.13,38.41,27.27,38.7Z"/><path class="cls-4" d="M23.43,43.23,20.6,46.06a2,2,0,0,1-2.83,0l-2.83-2.83a2,2,0,0,1,0-2.83l2.83-2.83a2,2,0,0,1,2.83,0l2.83,2.83A2,2,0,0,1,23.43,43.23Z"/><rect class="cls-1" x="14.68" y="38.02" width="8" height="6.59" rx="2" transform="translate(-23.74 25.31) rotate(-45)"/><rect class="cls-4" x="22.5" y="28.5" width="15.99" height="4" transform="translate(-12.63 30.5) rotate(-45)"/><path class="cls-1" d="M36.57,25.26l-8.48,8.48a2.59,2.59,0,0,1-3.66,0L34.74,23.43Z"/><path class="cls-5" d="M40.29,19.71,38,17.38,39.38,16l2.33,2.33A1,1,0,0,1,40.29,19.71Z"/><path class="cls-5" d="M23,43.62,21.62,45l-2.33-2.33a1,1,0,0,1,1.42-1.42Z"/></g></svg>