<svg xmlns="http://www.w3.org/2000/svg" viewBox="0 0 48 48"><defs><style>.cls-1{fill:#7c7d7d;}.cls-2{fill:#919191;}.cls-3{fill:#747575;}.cls-4{fill:#dad7e5;}</style></defs><title>crankshaft</title><g id="_crankshaft" data-name=" crankshaft"><path class="cls-1" d="M21.58,41.33l-.49.48a2,2,0,0,1-2.82,0c-2.74-2.73-6.2-6.18-10.66-10.66a4,4,0,0,1-.89-4.33A5,5,0,0,1,8.09,25L21.58,38.5A2,2,0,0,1,21.58,41.33Z"/><path class="cls-2" d="M21.49,38.41l-.4.4a2,2,0,0,1-2.82,0c-11.54-11.5-11.15-11-11.55-12A5,5,0,0,1,8.09,25Z"/><path class="cls-1" d="M36.24,26.66l-.49.49a4,4,0,0,1-5.65,0L19.44,16.49a2,2,0,0,1,0-2.83l.48-.48a2,2,0,0,1,2.83,0C38.23,28.66,34.21,24.63,36.24,26.66Z"/><path class="cls-2" d="M35.55,26a4,4,0,0,1-4.45-.82C19.63,13.68,19.93,14.26,19.88,13.22a2,2,0,0,1,2.87,0C35.35,25.78,34.23,24.67,35.55,26Z"/><path class="cls-1" d="M41.17,19.71a4.22,4.22,0,0,1-1.62,3.64L26.06,9.87a2,2,0,0,1-.31-2.42,4.34,4.34,0,0,1,.79-.9,2,2,0,0,1,2.83,0C40.87,18.05,41.09,17.81,41.17,19.71Z"/><path class="cls-1" d="M28.2,34.7l-.48.49a2,2,0,0,1-2.83,0L11.4,21.7a5.37,5.37,0,0,1,1.26-1.09,4,4,0,0,1,4.88.6C29,32.62,28.28,31.93,28.4,32.11A2,2,0,0,1,28.2,34.7Z"/><path class="cls-2" d="M28.4,32.11c-1.21,1.61-2.62,1.62-3.51.73L12.66,20.61a4,4,0,0,1,4.88.6C29,32.62,28.28,31.93,28.4,32.11Z"/><rect class="cls-3" x="11.54" y="23.98" width="4.68" height="7.03" transform="translate(-15.37 17.87) rotate(-45)"/><path class="cls-1" d="M17,29.32l-2.31,2.31-4-4a3.26,3.26,0,0,1,4.62,0Z"/><rect class="cls-3" x="31.41" y="17.36" width="4.68" height="7.03" transform="translate(-4.87 29.98) rotate(-45)"/><path class="cls-1" d="M36.89,22.7,34.58,25l-4-4a3.27,3.27,0,0,1,4.63,0Z"/><rect class="cls-3" x="21.48" y="20.67" width="4.68" height="7.03" transform="translate(-10.12 23.93) rotate(-45)"/><path class="cls-1" d="M27,26l-2.31,2.31-4-4a3.26,3.26,0,0,1,4.62,0Z"/><rect class="cls-4" x="8.23" y="33.92" width="4.68" height="7.03" transform="translate(-23.37 18.44) rotate(-45)"/><rect class="cls-3" x="8.23" y="33.92" width="4.68" height="7.03" transform="translate(-23.37 18.44) rotate(-45)"/><path class="cls-1" d="M13.71,39.26,11.4,41.57l-4-4a3.26,3.26,0,0,1,4.62,0Z"/><rect class="cls-3" x="34.46" y="7.95" width="6.49" height="4.7" transform="translate(3.76 29.68) rotate(-45)"/><path class="cls-1" d="M37.34,12l-1.27,1.27-2.32-2.32,3.59-3.59A3.28,3.28,0,0,1,37.34,12Z"/><path class="cls-1" d="M47,9l-3,3L36,4l3-3Z"/><path class="cls-2" d="M46,8a2.83,2.83,0,0,1-4,0L37,3l2-2Z"/><rect class="cls-1" x="1.17" y="40.17" width="9.07" height="4.24" transform="translate(-28.21 16.4) rotate(-44.96)"/><polygon class="cls-3" points="6.42 38.59 9.42 41.59 10.42 40.59 7.42 37.59 1 44 1 44 6.42 38.59"/><path class="cls-2" d="M41.17,19.71a1.79,1.79,0,0,1-2.5,0C25.53,6.57,26,7.14,26.06,7l.48-.49a2,2,0,0,1,2.83,0C40.87,18.05,41.09,17.81,41.17,19.71Z"/></g></svg>