<svg xmlns="http://www.w3.org/2000/svg" viewBox="0 0 48 48"><defs><style>.cls-1{fill:#374f68;}.cls-2{fill:#425b72;}.cls-3{fill:#edebf2;}.cls-4{fill:#dad7e5;}</style></defs><title>Steering Wheel</title><g id="Steering_Wheel" data-name="Steering Wheel"><path class="cls-1" d="M24,1A23,23,0,0,0,1,24C1,42.2,21.1,53,36.22,43.48A23,23,0,0,0,24,1ZM40.53,28A17,17,0,0,1,28,40.53V37H20v3.53A17,17,0,0,1,7.47,28H11V20H7.47a17,17,0,0,1,33.06,0H37v8Z"/><path class="cls-2" d="M15.78,2.52a23,23,0,0,0,20.44,41,23,23,0,0,0-20.44-41ZM40.53,28A17,17,0,0,1,28,40.53V37H20v3.53A17,17,0,0,1,7.47,28H11V20H7.47a17,17,0,0,1,33.06,0H37v8Z"/><path class="cls-3" d="M31.42,21a8,8,0,0,0-14.84,0H11v6h5.58A8,8,0,0,0,21,31.42V37h6V31.42A8,8,0,0,0,31.42,27H37V21ZM24,28a4,4,0,1,1,4-4A4,4,0,0,1,24,28Z"/><path class="cls-4" d="M23,31a2.53,2.53,0,0,0-1.16-2.16C18.89,27.05,19.4,25,17,25a4,4,0,0,1-4-4H11v6h5.58A8,8,0,0,0,21,31.42V37h6V35A4,4,0,0,1,23,31Z"/><path class="cls-4" d="M33.42,25a7.84,7.84,0,0,1-1.17,2H37V25Z"/><path class="cls-1" d="M28,24a4,4,0,1,1-6.93-2.72A4,4,0,0,1,28,24Z"/><path class="cls-2" d="M27.93,24.72c-2.73,3-7.69.37-6.86-3.44C23.81,18.31,28.76,20.92,27.93,24.72Z"/></g></svg>