<svg xmlns="http://www.w3.org/2000/svg" viewBox="0 0 48 48"><defs><style>.cls-1{fill:#7c7d7d;}.cls-2{fill:#919191;}.cls-3{fill:#747575;}.cls-4{fill:#2c435e;}</style></defs><title>Two front seats</title><g id="Two_Front_Seats" data-name="Two Front Seats"><path class="cls-1" d="M21.81,29.82a4,4,0,0,1-4,4.18H17c0-23.73-.1-22,.18-22a4,4,0,0,1,4,3.82C21.85,30.62,21.74,28.21,21.81,29.82Z"/><path class="cls-2" d="M21.76,28.63a4,4,0,0,1-4,3.37H17c0-21.7-.09-20,.18-20a4,4,0,0,1,4,3.82Z"/><rect class="cls-3" x="7" y="12" width="10" height="22"/><path class="cls-1" d="M7,12V34H6.19a4,4,0,0,1-4-4.18l.64-14A4,4,0,0,1,7,12Z"/><path class="cls-2" d="M7,12V32a4.24,4.24,0,0,1-2.81-4.18c.7-15.22.55-14.52,1-15.48A4.2,4.2,0,0,1,7,12Z"/><path class="cls-1" d="M16.78,11a1,1,0,0,1-1,1H8.22a1,1,0,0,1-1-1.2l.6-3a1,1,0,0,1,1-.8h6.36a1,1,0,0,1,1,.8C16.79,11,16.78,10.87,16.78,11Z"/><path class="cls-2" d="M16.78,11H10.22a1,1,0,0,1-1-1.2L9.8,7h5.38a1,1,0,0,1,1,.8C16.79,11,16.78,10.87,16.78,11Z"/><path class="cls-1" d="M31,12V34h-.81a4,4,0,0,1-4-4.18l.64-14A4,4,0,0,1,31,12Z"/><path class="cls-2" d="M31,12V32a4.24,4.24,0,0,1-2.81-4.18c.7-15.22.55-14.52,1-15.48A4.2,4.2,0,0,1,31,12Z"/><rect class="cls-3" x="31" y="12" width="10" height="22"/><path class="cls-1" d="M45.81,29.82a4,4,0,0,1-4,4.18H41V12a4,4,0,0,1,4.17,3.82C45.83,30.42,45.73,28.18,45.81,29.82Z"/><path class="cls-2" d="M45.75,28.6A4,4,0,0,1,41.81,32H41V12a4,4,0,0,1,4.17,3.82Z"/><path class="cls-1" d="M46.38,36.49c-1,4-.84,3.31-1,4A2,2,0,0,1,43.44,42H28.56a2,2,0,0,1-1.94-1.51l-1-4A2,2,0,0,1,27.56,34H44.44A2,2,0,0,1,46.38,36.49Z"/><path class="cls-2" d="M46.38,36.49c-.94,3.74-.84,3.51-.94,3.51H30.56a2,2,0,0,1-1.94-1.51C27.51,34,27.56,34.34,27.56,34H44.44A2,2,0,0,1,46.38,36.49Z"/><path class="cls-1" d="M21.94,36.49l-1,4A2,2,0,0,1,19.06,42H4.5a2,2,0,0,1-1.9-1.51l-1-4A2,2,0,0,1,3.52,34H20A2,2,0,0,1,21.94,36.49Z"/><path class="cls-2" d="M21.94,36.49c-.88,3.61-.78,3.51-.88,3.51H6.5a2,2,0,0,1-1.9-1.51c-1-4.26-1-4.15-1-4.49H20A2,2,0,0,1,21.94,36.49Z"/><path class="cls-1" d="M40.78,11a1,1,0,0,1-1,1H32.22a1,1,0,0,1-1-1.2l.6-3a1,1,0,0,1,1-.8h6.36a1,1,0,0,1,1,.8C40.79,11,40.78,10.87,40.78,11Z"/><path class="cls-2" d="M40.78,11H34.22a1,1,0,0,1-1-1.2L33.8,7h5.38a1,1,0,0,1,1,.8C40.79,11,40.78,10.87,40.78,11Z"/><path class="cls-4" d="M46,43H2a1,1,0,0,1,0-2H46A1,1,0,0,1,46,43Z"/><path class="cls-1" d="M15,12V30a2,2,0,0,1-2,2H11a2,2,0,0,1-2-2V12Z"/><path class="cls-1" d="M39,12V30a2,2,0,0,1-2,2H35a2,2,0,0,1-2-2V12Z"/></g></svg>