<svg xmlns="http://www.w3.org/2000/svg" viewBox="0 0 48 48"><defs><style>.cls-1{fill:#9fdbf3;}.cls-2{fill:#b2e5fb;}.cls-3{fill:#dad7e5;}.cls-4,.cls-8{fill:#edebf2;}.cls-5{fill:#c6c3d8;}.cls-6{fill:#7c7d7d;}.cls-7{fill:#919191;}.cls-8{opacity:0.3;}</style></defs><title>Front and Rear Door</title><g id="Front_and_Rear_Door" data-name="Front and Rear Door"><path class="cls-1" d="M23,15v7H1c8.9-8.9,8.68-9,9.83-9H21A2,2,0,0,1,23,15Z"/><path class="cls-2" d="M23,20H7.41a1,1,0,0,1-.7-1.71L12,13c9.54,0,9.71-.24,10.52.7C23.15,14.43,23,14.61,23,20Z"/><path class="cls-3" d="M23,22V33a2,2,0,0,1-2,2H7a6,6,0,0,0-6-6V22Z"/><path class="cls-4" d="M23,22V33H11a2.4,2.4,0,0,1-2.26-1.75A6,6,0,0,0,4.5,27.19,2,2,0,0,1,3,25.26V22Z"/><path class="cls-5" d="M20,27H18a1,1,0,0,1,0-2h2A1,1,0,0,1,20,27Z"/><path class="cls-1" d="M45,22H27V15a2,2,0,0,1,2-2h9.82C40.33,13,40.16,13.27,45,22Z"/><path class="cls-2" d="M43.89,20H31a2,2,0,0,1-2-2V13h9.82a2,2,0,0,1,1.75,1Z"/><path class="cls-3" d="M47,24v5a6,6,0,0,0-6,6H29a2,2,0,0,1-2-2V22H45Z"/><path class="cls-4" d="M47,24v5a6,6,0,0,0-5.65,4H37a8,8,0,0,1-8-8V22H45Z"/><path class="cls-5" d="M43,27H41a1,1,0,0,1,0-2h2A1,1,0,0,1,43,27Z"/><path class="cls-6" d="M23,30v2H12a1,1,0,0,1,0-2Z"/><path class="cls-7" d="M23,30v1H13a1,1,0,0,1-1-1Z"/><path class="cls-6" d="M38,32H27V30H38A1,1,0,0,1,38,32Z"/><path class="cls-7" d="M39,31H28V30H38A1,1,0,0,1,39,31Z"/><path class="cls-8" d="M23,22H16.83l5.69-8.3C23.16,14.45,23,14.4,23,22Z"/><path class="cls-8" d="M45,22H38.83l3.41-5Z"/><polygon class="cls-8" points="12.92 22 10 22 15 13 17.83 13 12.92 22"/><polygon class="cls-8" points="33.92 22 31 22 36 13 38.83 13 33.92 22"/></g></svg>