<svg xmlns="http://www.w3.org/2000/svg" viewBox="0 0 48 48"><defs><style>.cls-1{fill:#919191;}.cls-2{fill:#7c7d7d;}.cls-3{fill:#edebf2;}.cls-4{fill:#dad7e5;}.cls-5{fill:#2c435e;}.cls-6{fill:#425b72;}.cls-7{fill:#374f68;}.cls-8{fill:#db5669;}.cls-9{fill:#9dcc6b;}</style></defs><title>Speedometer</title><g id="Speedo_meter" data-name="Speedo meter"><path class="cls-1" d="M47,39a12,12,0,0,1-14.8.94,17,17,0,0,1-16.4,0A12,12,0,0,1,1,39V18H5a2,2,0,0,0,1.79-1.1c6.83-14.52,27.53-14.51,34.36,0C41.86,18.29,43,18,47,18,47,18,47.21,38.74,47,39Z"/><path class="cls-2" d="M34.2,37.89a17,17,0,0,1-16.4,0c-6.89,4.75-14.8,1-14.8-6.1V18H1V39a12,12,0,0,0,14.8.94,17,17,0,0,0,16.4,0A12,12,0,0,0,47,39a2.48,2.48,0,0,0,0-.59A12,12,0,0,1,34.2,37.89Z"/><path class="cls-3" d="M37,25a13,13,0,0,1-21.57,9.77C6.42,26.92,12,12,24,12A13,13,0,0,1,37,25Z"/><path class="cls-4" d="M26,36A13,13,0,0,1,15.9,14.84,12.94,12.94,0,0,0,11,26c.87,11.66,15.72,16.37,23.13,7.09A13,13,0,0,1,26,36Z"/><path class="cls-3" d="M15.43,34.77a8,8,0,0,1-12.28.69c-5.61-6,.49-15.51,8.12-13.13A13,13,0,0,0,15.43,34.77Z"/><path class="cls-4" d="M3,28a8,8,0,0,1,1.41-4.54A8,8,0,0,0,1.06,29c-1,8.16,9.48,12.34,14.37,5.77a.46.46,0,0,0-.07-.07A8,8,0,0,1,3,28Z"/><path class="cls-4" d="M47,30a8,8,0,0,1-14.43,4.77,13,13,0,0,0,4.16-12.44A8,8,0,0,1,47,30Z"/><path class="cls-3" d="M45.58,34.56a8,8,0,0,1-11.08-1.9,13,13,0,0,0,2.23-10.33A8,8,0,0,1,45.58,34.56Z"/><path class="cls-4" d="M29,32a2,2,0,0,1-2,2H24V30h3A2,2,0,0,1,29,32Z"/><path class="cls-4" d="M27.82,33.82c-.54.26-.86.18-3.82.18V30h3A2,2,0,0,1,27.82,33.82Z"/><path class="cls-3" d="M28,33c0,1.23-.29,1-4,1V31h2A2,2,0,0,1,28,33Z"/><path class="cls-5" d="M24,30v4H21a2,2,0,0,1,0-4Z"/><path class="cls-6" d="M24,31v3H21a2,2,0,0,1-1.93-1.5,1.89,1.89,0,0,1,.52-.91C20.34,30.82,21,31,24,31Z"/><circle class="cls-7" cx="24" cy="25" r="2"/><path class="cls-8" d="M24,26a1,1,0,0,1-.71-1.71l4-4a1,1,0,0,1,1.42,1.42C24.34,26.08,24.56,26,24,26Z"/><path class="cls-7" d="M25,12v3a1,1,0,0,1-2,0V12A13.35,13.35,0,0,1,25,12Z"/><path class="cls-7" d="M33.87,16.54C31.59,18.83,31.56,19,31,19a1,1,0,0,1-.71-1.71l2.17-2.16A11.74,11.74,0,0,1,33.87,16.54Z"/><path class="cls-7" d="M37,26H34a1,1,0,0,1,0-2h3A13.35,13.35,0,0,1,37,26Z"/><path class="cls-7" d="M16.29,18.71l-2.16-2.17a11.74,11.74,0,0,1,1.41-1.41l2.17,2.16A1,1,0,0,1,16.29,18.71Z"/><path class="cls-7" d="M14,26H11a13.35,13.35,0,0,1,0-2h3A1,1,0,0,1,14,26Z"/><path class="cls-7" d="M39,31a1,1,0,0,1-.45-1.89l2-1a1,1,0,0,1,.9,1.78C39.25,31,39.32,31,39,31Z"/><path class="cls-9" d="M46.94,31H45a1,1,0,0,1,0-2h1.94A8.36,8.36,0,0,1,46.94,31Z"/><path class="cls-9" d="M44.85,24.54a11.06,11.06,0,0,1-1.14,1.17,1,1,0,0,1-1.42-1.42l1-1C43.4,23.18,44.57,24.24,44.85,24.54Z"/><path class="cls-8" d="M44.85,35.46c-.29.32-1.46,1.35-1.56,1.25l-1-1a1,1,0,0,1,1.42-1.42A12.69,12.69,0,0,1,44.85,35.46Z"/><path class="cls-7" d="M9,31c-.31,0-.25,0-2.45-1.11a1,1,0,0,1,.9-1.78l2,1A1,1,0,0,1,9,31Z"/><path class="cls-7" d="M3,31H1.06a8.36,8.36,0,0,1,0-2H3A1,1,0,0,1,3,31Z"/><path class="cls-7" d="M4.29,25.71a12.69,12.69,0,0,1-1.14-1.17c.29-.32,1.46-1.35,1.56-1.25l1,1A1,1,0,0,1,4.29,25.71Z"/><path class="cls-7" d="M5.71,35.71l-1,1c-.11.11-1.28-1-1.56-1.25a11.06,11.06,0,0,1,1.14-1.17A1,1,0,0,1,5.71,35.71Z"/><path class="cls-5" d="M10,34a1,1,0,0,0-2,0A1,1,0,0,0,10,34Z"/><path class="cls-5" d="M39,34a1,1,0,0,0-2,0A1,1,0,0,0,39,34Z"/><path class="cls-4" d="M38,23.92a14.74,14.74,0,0,0-.25-1.81,6.33,6.33,0,0,0-1,.22,12.88,12.88,0,0,1-4.16,12.44,6.69,6.69,0,0,0,.65.76h0A13.93,13.93,0,0,0,38,23.92ZM11.27,22.33a6.33,6.33,0,0,0-1-.22,13.89,13.89,0,0,0,4.48,13.41h0a6.69,6.69,0,0,0,.65-.76A12.9,12.9,0,0,1,11.27,22.33Z"/></g></svg>