<svg xmlns="http://www.w3.org/2000/svg" viewBox="0 0 48 48"><defs><style>.cls-1{fill:#919191;}.cls-2{fill:#7c7d7d;}.cls-3{fill:#747575;}</style></defs><title>internal combustion engine</title><g id="internal_combustion_engine" data-name="internal combustion engine"><path class="cls-1" d="M35,3V21H31a4,4,0,0,0-4-4H21a4,4,0,0,0-4,4H13V3a2,2,0,0,1,2-2H33A2,2,0,0,1,35,3Z"/><path class="cls-2" d="M15,16.45V1a2,2,0,0,0-2,2V21h4a4,4,0,0,1,.55-2A2.55,2.55,0,0,1,15,16.45Z"/><path class="cls-3" d="M27,6H13V4H27A1,1,0,0,1,27,6Z"/><path class="cls-3" d="M35,4V6H30a1,1,0,0,1,0-2Z"/><path class="cls-2" d="M28,39a5,5,0,0,0-8,0C22,17.53,21.75,19.74,22,17h4C26.21,19.39,25.81,14.9,28,39Z"/><path class="cls-2" d="M28,39a5,5,0,0,0-8,0c-3.29,4.33,1.87,10.06,6.5,7.33A5,5,0,0,0,28,39Zm-5,1.27a2,2,0,1,1,0,3.46A2,2,0,0,1,23,40.27Z"/><path class="cls-1" d="M28,39a5,5,0,0,0-5.08-1.88h-.08a5,5,0,0,0,4.31,8.73A5,5,0,0,0,28,39Zm-2.18,3.81A2,2,0,1,1,25,40.27,2,2,0,0,1,25.82,42.81Z"/><path class="cls-3" d="M27,11a3,3,0,1,1-5.56-1.56A3,3,0,0,1,27,11Z"/><path class="cls-2" d="M25.56,13.56a3,3,0,0,1-4.12-4.12A3,3,0,0,1,25.56,13.56Z"/><path class="cls-1" d="M27.86,37.41a6,6,0,0,0-5.63-1.14L23.83,17H26Z"/><polygon class="cls-2" points="26.18 19 21.82 19 22 17 26 17 26.18 19"/></g></svg>