<svg xmlns="http://www.w3.org/2000/svg" viewBox="0 0 48 48"><defs><style>.cls-1{fill:#dad7e5;}.cls-2{fill:#edebf2;}.cls-3{fill:#9fdbf3;}.cls-4{fill:#b2e5fb;}.cls-5{fill:#374f68;}.cls-6{fill:#425b72;}.cls-7{fill:#7c7d7d;}.cls-8{fill:#919191;}.cls-9{fill:#fc6;}.cls-10{fill:#db5669;}.cls-11{fill:#f26674;}.cls-12{fill:#c6c3d8;}.cls-13{fill:#ffde76;}.cls-14{fill:#6fabe6;}</style></defs><title>Electric Car</title><g id="Electric_Car" data-name="Electric Car"><path class="cls-1" d="M47,24l-1,2v6l-3,5H40a5,5,0,0,0-9.59-2A5.11,5.11,0,0,0,30,37H26V23C44.64,23,40.34,22.67,47,24Z"/><path class="cls-2" d="M47,24l-1,2v6l-1.8,3H39.59a5,5,0,0,0-9.18,0A2.41,2.41,0,0,1,28,32.59V23C44.8,23,40.34,22.67,47,24Z"/><path class="cls-1" d="M26,23V37H15A5,5,0,0,0,5,37a4,4,0,0,1-4-4V26.74a1,1,0,0,1,.71-.95L11,23Z"/><path class="cls-2" d="M26,23V35H14.59a5,5,0,0,0-9.18,0A2.41,2.41,0,0,1,3,32.59V25.4L11,23Z"/><path class="cls-3" d="M42,23H26V15.38l6.52.31a8,8,0,0,0,7.69,3.22h0C40.46,19.37,40.32,19.1,42,23Z"/><path class="cls-4" d="M41.57,22H30a2,2,0,0,1-2-2V15.48l4.52.21A8,8,0,0,0,39,19a8.43,8.43,0,0,0,1.22-.09C40.46,19.36,40.44,19.37,41.57,22Z"/><path class="cls-5" d="M15,37a5,5,0,1,1-8.86-3.18A5,5,0,0,1,15,37Z"/><path class="cls-6" d="M14.86,38.18a5,5,0,0,1-8.72-4.36A5,5,0,0,1,14.86,38.18Z"/><path class="cls-5" d="M40,37a5,5,0,1,1-8.86-3.18A5,5,0,0,1,40,37Z"/><path class="cls-6" d="M39.86,38.18a5,5,0,0,1-8.72-4.36A5,5,0,0,1,39.86,38.18Z"/><path class="cls-7" d="M37,37a2,2,0,1,1-2.82-1.82A2,2,0,0,1,37,37Z"/><path class="cls-8" d="M36.82,37.82a2,2,0,0,1-2.64-2.64A2,2,0,0,1,36.82,37.82Z"/><path class="cls-7" d="M12,37a2,2,0,1,1-2.82-1.82A2,2,0,0,1,12,37Z"/><path class="cls-8" d="M11.82,37.82a2,2,0,0,1-2.64-2.64A2,2,0,0,1,11.82,37.82Z"/><path class="cls-3" d="M26,15.38V23H11C18.76,14.13,16.87,15,26,15.38Z"/><path class="cls-4" d="M26,15.38V22H16.2a1,1,0,0,1-.75-1.66c3.56-4.07,4-4.65,4.83-5.19C20.69,15.11,20.74,15.13,26,15.38Z"/><path class="cls-9" d="M5,31H1V29H5A1,1,0,0,1,5,31Z"/><path class="cls-10" d="M46,27v4H42a2,2,0,0,1,0-4Z"/><path class="cls-11" d="M46,27v3H43a2,2,0,0,1-1.82-2.82C41.69,26.93,41.7,27,46,27Z"/><path class="cls-12" d="M22,28H20a1,1,0,0,1,0-2h2A1,1,0,0,1,22,28Z"/><circle class="cls-9" cx="39" cy="11" r="8"/><circle class="cls-9" cx="39" cy="11" r="8"/><path class="cls-3" d="M40.94,20.53A8,8,0,0,1,30.4,15.59l2.12.1a8,8,0,0,0,7.69,3.22h0C40.43,19.31,40.47,19.43,40.94,20.53Z"/><path class="cls-13" d="M47,11a7.94,7.94,0,0,1-1.57,4.75A7.93,7.93,0,0,1,41,17.09,8,8,0,0,1,34.55,4.36,8,8,0,0,1,47,11Z"/><path class="cls-14" d="M38.11,14.55,39.38,12H37a1,1,0,0,1-.89-1.45l2-4a1,1,0,0,1,1.78.9L38.62,10c2.53,0,2.86-.13,3.23.47s.17.72-2,5A1,1,0,0,1,38.11,14.55Z"/></g></svg>