<svg xmlns="http://www.w3.org/2000/svg" viewBox="0 0 48 48"><defs><style>.cls-1{fill:#374f68;}.cls-2{fill:#425b72;}.cls-3{fill:#9fdbf3;}.cls-4{fill:#b2e5fb;}.cls-5{fill:#edebf2;opacity:0.3;}.cls-6{fill:#2c435e;}</style></defs><title>Rearview Mirror</title><g id="Rearview_Mirror" data-name="Rearview Mirror"><path class="cls-1" d="M46.72,20.25c-1.4,11.18-1.45,11.61-1.5,12a2,2,0,0,1-2,1.75H4.77a2,2,0,0,1-2-1.75l-1.5-12a2,2,0,0,1,2-2.25H44.73A2,2,0,0,1,46.72,20.25Z"/><path class="cls-2" d="M46.72,20.25,45.25,32H7.77a2,2,0,0,1-2-1.75l-1.5-12c0-.37-3.11-.25,40.45-.25A2,2,0,0,1,46.72,20.25Z"/><path class="cls-3" d="M45,22c-1.46,9-1.28,7.86-1.39,8.5A1.82,1.82,0,0,1,41.77,32H6.23A1.82,1.82,0,0,1,4.4,30.47L3,22a1.8,1.8,0,0,1,1.84-2h38.3A1.8,1.8,0,0,1,45,22Z"/><path class="cls-4" d="M45,22l-1.31,8H8.23A1.82,1.82,0,0,1,6.4,28.47L5,20H43.15A1.8,1.8,0,0,1,45,22Z"/><path class="cls-5" d="M45,22c-1.46,9-1.28,7.86-1.39,8.5A1.82,1.82,0,0,1,41.77,32H35l5-12h3.15A1.8,1.8,0,0,1,45,22Z"/><rect class="cls-6" x="20" y="14" width="8" height="4"/><rect class="cls-1" x="20" y="15" width="7" height="3"/><path class="cls-6" d="M28,34c0,5.16-8,5.39-8,0Z"/><path class="cls-1" d="M27,35a4,4,0,0,1-.72,2.28A4,4,0,0,1,20.13,35Z"/><path class="cls-1" d="M31.27,13.27c-1,1-.8.73-12.77.73a2.51,2.51,0,0,1-1.77-4.27c1-1,.76-.73,12.77-.73A2.51,2.51,0,0,1,31.27,13.27Z"/><path class="cls-2" d="M32,12c-.29.06.59,0-11.46,0A2.51,2.51,0,0,1,18,9c.29-.06-.59,0,11.46,0A2.51,2.51,0,0,1,32,12Z"/><polygon class="cls-5" points="34 20 29.08 32 24.27 32 29 20 34 20"/><polygon class="cls-5" points="22 20 17.08 32 13 32 18 20 22 20"/></g></svg>