<svg xmlns="http://www.w3.org/2000/svg" viewBox="0 0 48 48"><defs><style>.cls-1{fill:#7c7d7d;}.cls-2{fill:#919191;}.cls-3{fill:#374f68;}.cls-4{fill:#425b72;}.cls-5{fill:#747575;}.cls-6{fill:#c4455e;}</style></defs><title>Steering Wheel Adjustment</title><g id="Steering_Wheel_Adjusment" data-name="Steering Wheel Adjusment"><path class="cls-1" d="M15,20V42L1,47V20a2,2,0,0,1,2-2H13A2,2,0,0,1,15,20Z"/><path class="cls-2" d="M15,20c0,21.13-.1,20.75,0,20.71A9,9,0,0,1,3,32.26V18H13A2,2,0,0,1,15,20Z"/><path class="cls-3" d="M44,29.12c-1.26,0,.18,1.06-21.5-20.62a2.12,2.12,0,0,1,3-3l20,20A2.13,2.13,0,0,1,44,29.12Z"/><path class="cls-4" d="M45.91,27.91a2.09,2.09,0,0,1-2.41-.41l-20-20a2.11,2.11,0,0,1-.41-2.41,2.11,2.11,0,0,1,2.41.41l20,20A2.11,2.11,0,0,1,45.91,27.91Z"/><path class="cls-1" d="M32.31,28.72,15,40V22l6.79-4.85a2,2,0,0,1,2.58.22l8.26,8.26A2,2,0,0,1,32.31,28.72Z"/><path class="cls-2" d="M32.61,25.83,23.18,32A4,4,0,0,1,17,28.62v-8l4.79-3.42a2,2,0,0,1,2.58.22C33.26,26.26,32.64,25.53,32.61,25.83Z"/><rect class="cls-5" x="28.28" y="15.3" width="4.95" height="9.9" transform="translate(-5.31 27.67) rotate(-45)"/><path class="cls-1" d="M35,23l-2.5,2.5-6-6a3.54,3.54,0,0,1,5,0Z"/><rect class="cls-3" x="19" y="24" width="4" height="6" rx="1"/><path class="cls-4" d="M23,25v4a3,3,0,0,1-3-3V24h2A1,1,0,0,1,23,25Z"/><path class="cls-6" d="M48,11a1,1,0,0,0-2,0v.59L39.41,5H40a1,1,0,0,0,0-2c-4.54,0-4-.59-4,4a1,1,0,0,0,2,0V6.41L44.59,13H44a1,1,0,0,0,0,2C48.58,15,48,15.57,48,11Z"/><path class="cls-6" d="M33,35.44a1,1,0,0,0-.35,2l.57.1-7.63,5.34.1-.58a1,1,0,0,0-2-.35C23,46.37,22.45,45.75,27,46.56a1,1,0,0,0,.35-2l-.57-.1,7.63-5.34-.1.58a1,1,0,0,0,2,.35C37.06,35.54,37.5,36.24,33,35.44Z"/></g></svg>