<svg xmlns="http://www.w3.org/2000/svg" viewBox="0 0 48 48"><defs><style>.cls-1{fill:#231f20;}.cls-2{fill:#dad7e5;}.cls-3{fill:#c6c3d8;}.cls-4{fill:#6fabe6;}.cls-5{fill:#7c7d7d;}.cls-6{fill:#919191;}.cls-7{fill:#2c435e;}.cls-8{fill:#374f68;}.cls-9{fill:#425b72;}</style></defs><title>Tire</title><g id="Tire"><circle class="cls-1" cx="24" cy="24" r="2"/><path class="cls-2" d="M39,29.51l-3.75-1.4a12,12,0,0,0,.06-8l3.77-1.34A16.06,16.06,0,0,1,39,29.51Z"/><path class="cls-3" d="M39.11,18.74l-3.77,1.34c.07.19.12.39.18.58a2.5,2.5,0,0,1,3.31,2,16.07,16.07,0,0,1-.41,6.62l.61.23A16.06,16.06,0,0,0,39.11,18.74Z"/><path class="cls-4" d="M39,29.51a15.88,15.88,0,0,1-3,5.07c-1.2-1,0-.11-8.42-7.09a5,5,0,0,0,1.23-2.14C36.58,28.67,34.3,27.74,39,29.51Z"/><path class="cls-2" d="M36,34.58A16.05,16.05,0,0,1,27,39.73l-.72-3.94A11.94,11.94,0,0,0,33,32Z"/><path class="cls-3" d="M33,32a11.66,11.66,0,0,1-.93.93,2.35,2.35,0,0,1,0,3.59,16.1,16.1,0,0,1-5.17,2.76l.09.5A16.05,16.05,0,0,0,36,34.58Z"/><path class="cls-5" d="M27,39.73a16.25,16.25,0,0,1-5.9,0c1-5.43.42-2.06,1.81-10.86a5.16,5.16,0,0,0,2.28,0C26.44,37.15,26.05,34.79,27,39.73Z"/><path class="cls-2" d="M21.77,35.79l-.72,3.94A16.05,16.05,0,0,1,12,34.58L15,32A11.94,11.94,0,0,0,21.77,35.79Z"/><path class="cls-5" d="M20.41,27.49C13.91,32.86,16.07,31,12,34.58a16,16,0,0,1-3-5.07c4.93-1.85,2.27-.77,10.21-4.16A5,5,0,0,0,20.41,27.49Z"/><path class="cls-2" d="M12.72,28.11,9,29.51a16.06,16.06,0,0,1-.08-10.77l3.77,1.34A12,12,0,0,0,12.72,28.11Z"/><path class="cls-5" d="M20.4,20.53a5,5,0,0,0-1.22,2.14c-7.85-3.12-5.53-2.24-10.29-3.93a15.65,15.65,0,0,1,2.93-5.11C15.94,17.06,12.82,14.59,20.4,20.53Z"/><path class="cls-2" d="M21.77,12.21a12,12,0,0,0-6.89,4l-3.06-2.57a16,16,0,0,1,9.23-5.36Z"/><path class="cls-3" d="M17.66,10.91a2.13,2.13,0,0,1,2.8,1.63,11.41,11.41,0,0,1,1.31-.33l-.72-3.94a16,16,0,0,0-9.23,5.36l.53.45A16.24,16.24,0,0,1,17.66,10.91Z"/><path class="cls-4" d="M27,8.27c-.91,5-.5,2.53-1.81,10.86a5.16,5.16,0,0,0-2.28,0c-1.31-8.33-.9-5.91-1.81-10.86A16.25,16.25,0,0,1,27,8.27Z"/><path class="cls-2" d="M36.18,13.63,33.12,16.2a12,12,0,0,0-6.89-4L27,8.27A16,16,0,0,1,36.18,13.63Z"/><path class="cls-3" d="M35.1,14.54l1.08-.91A16,16,0,0,0,27,8.27l-.22,1.18A16,16,0,0,1,35.1,14.54Z"/><path class="cls-4" d="M39.11,18.74c-4.73,1.68-2.43.81-10.29,3.93a5,5,0,0,0-1.22-2.14c6.63-5.2,4.73-3.67,8.58-6.9A15.65,15.65,0,0,1,39.11,18.74Z"/><path class="cls-6" d="M20.4,20.53c-2.71,2.81,2.11,3-10.16-1.31a15.86,15.86,0,0,1,1.94-5.29C15.63,16.83,13.73,15.3,20.4,20.53Z"/><path class="cls-6" d="M14.12,32.73a15.89,15.89,0,0,1-2.7-4.14c1.81-.67.3-.05,7.76-3.24C20.22,29.07,22.65,25.25,14.12,32.73Z"/><path class="cls-6" d="M26.63,38a15.79,15.79,0,0,1-5.15-.63c.36-1.91.14-.57,1.38-8.48a5.16,5.16,0,0,0,2.28,0C26.38,36.79,26.17,35.48,26.63,38Z"/><path class="cls-6" d="M27,8.27c-.86,4.73-.55,2.83-1.81,10.86a5.16,5.16,0,0,0-2.28,0c-1.26-8-.95-6.16-1.81-10.86A16.25,16.25,0,0,1,27,8.27Z"/><path class="cls-6" d="M39,29.51c-.59,1.62-2,4.25-3.08,5-3.77-3.28-1.92-1.73-8.36-7a5,5,0,0,0,1.23-2.14C36.59,28.67,34.28,27.74,39,29.51Z"/><path class="cls-6" d="M39.11,18.74c-4.73,1.68-2.6.87-10.29,3.93a5,5,0,0,0-1.22-2.14c6.7-5.26,4.66-3.61,8.58-6.9A15.65,15.65,0,0,1,39.11,18.74Z"/><circle class="cls-1" cx="24" cy="24" r="2"/><circle class="cls-6" cx="24" cy="24" r="5"/><path class="cls-5" d="M19.18,22.67l-1.86-.74a6.93,6.93,0,0,1,1.5-2.64l1.58,1.24A5,5,0,0,0,19.18,22.67Z"/><path class="cls-5" d="M19.18,25.35a5,5,0,0,0,1.23,2.14l-1.55,1.28a7,7,0,0,1-1.53-2.63Z"/><path class="cls-5" d="M25.45,17.15l-.31,2c-2.83-.61-2.08,1.25-2.59-2A7.08,7.08,0,0,1,25.45,17.15Z"/><path class="cls-5" d="M25.45,30.85a7.08,7.08,0,0,1-2.9,0l.31-2C25.69,29.48,24.94,27.62,25.45,30.85Z"/><path class="cls-5" d="M28.82,25.35l1.85.79a7,7,0,0,1-1.53,2.63l-1.55-1.28A5,5,0,0,0,28.82,25.35Z"/><path class="cls-5" d="M28.82,22.67a5,5,0,0,0-1.22-2.14l1.58-1.24a6.93,6.93,0,0,1,1.5,2.64Z"/><path class="cls-7" d="M47,22.93C46.1,3.49,22.69-6.11,8.42,7.1A23,23,0,1,0,47,22.93ZM24,8A16,16,0,1,1,8,24,16,16,0,0,1,24,8Z"/><path class="cls-8" d="M24,1C17,1,10.58,4.48,8.6,7.21A23,23,0,0,0,4.52,25.86C8.2,42.93,28.87,49.61,41.68,38.7,54.08,23.84,43.45,1,24,1Zm0,39A16,16,0,1,1,40,24,16,16,0,0,1,24,40Z"/><path class="cls-8" d="M26,24a2,2,0,1,1-2.82-1.82A2,2,0,0,1,26,24Z"/><path class="cls-9" d="M25.82,24.82a2,2,0,0,1-2.64-2.64A2,2,0,0,1,25.82,24.82Z"/><path class="cls-9" d="M25,1c0,.2,0,.05-1.05,3.29a1,1,0,0,1-1.9-.64L22.93,1A17.87,17.87,0,0,1,25,1Z"/><path class="cls-8" d="M26,44c0,.26.05.05-.93,3A17.87,17.87,0,0,1,23,47c0-.2,0-.08,1-3.16C24.66,43.89,25.33,44,26,44Z"/><path class="cls-9" d="M26,44c-.67,0-1.34-.09-2-.17A1,1,0,0,1,26,44Z"/><path class="cls-9" d="M47,25A20.75,20.75,0,0,1,43.68,24a1,1,0,0,1,.64-1.9l2.65.88A17.87,17.87,0,0,1,47,25Z"/><path class="cls-8" d="M4.52,25.86C4,26.17,3.76,26,1,25.07A17.87,17.87,0,0,1,1,23c.2,0,0-.05,3.18,1A18.3,18.3,0,0,0,4.52,25.86Z"/><path class="cls-9" d="M4.52,25.86A18.3,18.3,0,0,1,4.21,24,1,1,0,0,1,4.52,25.86Z"/><path class="cls-8" d="M7.39,9l-.28-.55A9.48,9.48,0,0,1,8.42,7.1C8.79,7.28,8.58,7,7.39,9Z"/><path class="cls-9" d="M8.11,10.45,7.39,9A21.59,21.59,0,0,1,8.6,7.21c.25.17.22.21,1.29,2.34A1,1,0,0,1,8.11,10.45Z"/><path class="cls-9" d="M40.9,8.42c-.16.4-.28.39-2.45,1.47a1,1,0,0,1-.9-1.78l2-1A9.48,9.48,0,0,1,40.9,8.42Z"/><path class="cls-8" d="M11.32,40l-2.89,1a16.82,16.82,0,0,1-1.34-1.33c.23-.51.37-.46,3.59-1.53A1,1,0,0,1,11.32,40Z"/><path class="cls-8" d="M40.91,39.57a16.82,16.82,0,0,1-1.33,1.34,1,1,0,0,1-.43-.38C41.13,39.3,40.78,39.2,40.91,39.57Z"/><path class="cls-9" d="M40.84,39.37c-.54.41-1.11.8-1.69,1.16a29.54,29.54,0,0,1-1.1-3.21,1,1,0,0,1,1.9-.64Z"/></g></svg>