<svg xmlns="http://www.w3.org/2000/svg" viewBox="0 0 48 48"><defs><style>.cls-1{fill:#374f68;}.cls-2{fill:#425b72;}.cls-3{fill:#dad7e5;}</style></defs><title>Plate Number</title><g id="Plate_Number" data-name="Plate Number"><rect class="cls-1" x="1" y="10" width="46" height="24" rx="2"/><path class="cls-2" d="M47,12V32H25A22.06,22.06,0,0,1,3,10H45A2,2,0,0,1,47,12Z"/><path class="cls-3" d="M10,14H8a3,3,0,0,0-3,3v4a3,3,0,0,0,3,3h2a3,3,0,0,0,3-3V17A3,3,0,0,0,10,14ZM8,16h2L7,20V17A1,1,0,0,1,8,16Zm2,6H8l3-4v3A1,1,0,0,1,10,22Z"/><path class="cls-3" d="M30,14H28a3,3,0,0,0-3,3v4a3,3,0,0,0,3,3h2a3,3,0,0,0,3-3V17A3,3,0,0,0,30,14Zm-2,2h2l-3,4V17A1,1,0,0,1,28,16Zm2,6H28l3-4v3A1,1,0,0,1,30,22Z"/><path class="cls-3" d="M18,20h3v3a1,1,0,0,0,2,0V15a1,1,0,0,0-2,0v3H18a1,1,0,0,1-1-1V15a1,1,0,0,0-2,0v2A3,3,0,0,0,18,20Z"/><path class="cls-3" d="M41,18H37V16h5a1,1,0,0,0,0-2H37a2,2,0,0,0-2,2v2a2,2,0,0,0,2,2h4v2H36a1,1,0,0,0,0,2h5a2,2,0,0,0,2-2V20A2,2,0,0,0,41,18Z"/><path class="cls-3" d="M26,28H22a1,1,0,0,0,0,2h4A1,1,0,0,0,26,28Z"/><path class="cls-3" d="M17.29,27.29l-.29.3-.29-.3a1,1,0,0,0-1.42,1.42l.3.29-.3.29a1,1,0,0,0,1.42,1.42l.29-.3.29.3a1,1,0,0,0,1.42-1.42l-.3-.29.3-.29A1,1,0,0,0,17.29,27.29Z"/><path class="cls-3" d="M31.29,27.29l-.29.3-.29-.3a1,1,0,0,0-1.42,1.42l.3.29-.3.29a1,1,0,0,0,1.42,1.42l.29-.3.29.3a1,1,0,0,0,1.42-1.42l-.3-.29.3-.29A1,1,0,0,0,31.29,27.29Z"/></g></svg>