<svg xmlns="http://www.w3.org/2000/svg" viewBox="0 0 48 48"><defs><style>.cls-1{fill:#374f68;}.cls-2{fill:#7c7d7d;}.cls-3{fill:#919191;}.cls-4{fill:#2c435e;}.cls-5{fill:#747575;}.cls-6{fill:#db5669;}.cls-7{fill:#c4455e;}.cls-8{fill:#f26674;}</style></defs><title>Spring Suspension</title><g id="Spring_Suspension" data-name="Spring Suspension"><path class="cls-1" d="M10,45H6a1,1,0,0,1,0-2h4A1,1,0,0,1,10,45Z"/><path class="cls-1" d="M20,45H16a1,1,0,0,1,0-2h4A1,1,0,0,1,20,45Z"/><rect class="cls-1" x="11" y="20" width="4" height="12"/><rect class="cls-2" x="6" y="11" width="14" height="6"/><path class="cls-3" d="M20,11v4H12a4,4,0,0,1-4-4Z"/><rect class="cls-2" x="6" y="35" width="14" height="6" rx="2"/><path class="cls-3" d="M20,37v2H12a4,4,0,0,1-4-4H18A2,2,0,0,1,20,37Z"/><rect class="cls-4" x="11" y="17" width="4" height="3"/><rect class="cls-1" x="11" y="18" width="3" height="2"/><rect class="cls-4" x="11" y="32" width="4" height="3"/><rect class="cls-1" x="11" y="34" width="3" height="1"/><path class="cls-5" d="M17,41v4a2,2,0,0,1-1.18,1.82c-.51.25-.52.18-4.82.18a2,2,0,0,1-2-2V41Z"/><path class="cls-2" d="M16,42c0,4.2.07,4.31-.18,4.82-.51.25-.52.18-4.82.18a2,2,0,0,1-2-2V42Z"/><path class="cls-2" d="M20,8v3H6c0-3.19-.41-6.49,3.15-8.85A7,7,0,0,1,20,8Z"/><path class="cls-3" d="M20,8V9H11A3,3,0,0,1,8,6,6.92,6.92,0,0,1,9.15,2.15,7,7,0,0,1,20,8Z"/><circle class="cls-1" cx="13" cy="6" r="2"/><path class="cls-6" d="M20,31H13.14l7.14-2A1,1,0,0,0,20,27H13.14l7.14-2A1,1,0,0,0,20,23H13.14l7.14-2A1,1,0,0,0,20,19H6a1,1,0,0,0,0,2h6.86L5.72,23A1,1,0,0,0,6,25h6.86L5.72,27A1,1,0,0,0,6,29h6.86L5.72,31A1,1,0,0,0,6,33H20A1,1,0,0,0,20,31Z"/><path class="cls-7" d="M5.08,31.65C12.62,29.5,11.31,30,9.36,30,5.47,31.11,5.32,31,5.08,31.65Z"/><path class="cls-8" d="M18,20a1,1,0,0,1,.92,1.35L20.28,21A1,1,0,0,0,20,19H6a1,1,0,0,0-1,1Z"/><path class="cls-8" d="M20.28,29A1,1,0,0,0,20,27c-6.43,0-4.45-.26-8.86,1H18a1,1,0,0,1,1,.86C19.07,29.45,18.41,29.49,20.28,29Z"/><path class="cls-7" d="M5.08,23.65C12.64,21.49,11.31,22,9.36,22,5.47,23.11,5.32,23,5.08,23.65Z"/><path class="cls-8" d="M20,31c-6.43,0-4.45-.26-8.86,1H18a1,1,0,0,1,1,1h1A1,1,0,0,0,20,31Z"/><path class="cls-7" d="M5.08,27.65C12.62,25.5,11.31,26,9.36,26,5.47,27.11,5.32,27,5.08,27.65Z"/><path class="cls-8" d="M20,23c-6.43,0-4.45-.26-8.86,1H18a1,1,0,0,1,1,.86c.08.59-.58.63,1.29.1A1,1,0,0,0,20,23Z"/><path class="cls-1" d="M32,45H28a1,1,0,0,1,0-2h4A1,1,0,0,1,32,45Z"/><path class="cls-1" d="M42,45H38a1,1,0,0,1,0-2h4A1,1,0,0,1,42,45Z"/><rect class="cls-1" x="33" y="20" width="4" height="12"/><rect class="cls-2" x="28" y="11" width="14" height="6"/><path class="cls-3" d="M42,11v4H34a4,4,0,0,1-4-4Z"/><rect class="cls-2" x="28" y="35" width="14" height="6" rx="2"/><path class="cls-3" d="M42,37v2H34a4,4,0,0,1-4-4H40A2,2,0,0,1,42,37Z"/><rect class="cls-4" x="33" y="17" width="4" height="3"/><rect class="cls-1" x="33" y="18" width="3" height="2"/><rect class="cls-4" x="33" y="32" width="4" height="3"/><rect class="cls-1" x="33" y="34" width="3" height="1"/><path class="cls-5" d="M39,41v4a2,2,0,0,1-1.18,1.82c-.51.25-.52.18-4.82.18a2,2,0,0,1-2-2V41Z"/><path class="cls-2" d="M38,42c0,4.2.07,4.31-.18,4.82-.51.25-.52.18-4.82.18a2,2,0,0,1-2-2V42Z"/><path class="cls-2" d="M42,8v3H28c0-3.19-.41-6.49,3.15-8.85A7,7,0,0,1,42,8Z"/><path class="cls-3" d="M42,8V9H33a3,3,0,0,1-3-3,6.92,6.92,0,0,1,1.15-3.85A7,7,0,0,1,42,8Z"/><circle class="cls-1" cx="35" cy="6" r="2"/><path class="cls-6" d="M42,31H35.14l7.14-2A1,1,0,0,0,42,27H35.14l7.14-2A1,1,0,0,0,42,23H35.14l7.14-2A1,1,0,0,0,42,19H28a1,1,0,0,0,0,2h6.86l-7.14,2A1,1,0,0,0,28,25h6.86l-7.14,2A1,1,0,0,0,28,29h6.86l-7.14,2A1,1,0,0,0,28,33H42A1,1,0,0,0,42,31Z"/><path class="cls-7" d="M27.08,31.65C34.62,29.5,33.31,30,31.36,30,27.47,31.11,27.32,31,27.08,31.65Z"/><path class="cls-8" d="M40,20a1,1,0,0,1,.92,1.35L42.28,21A1,1,0,0,0,42,19H28a1,1,0,0,0-1,1Z"/><path class="cls-8" d="M42.28,29A1,1,0,0,0,42,27c-6.43,0-4.45-.26-8.86,1H40a1,1,0,0,1,1,.86C41.07,29.45,40.41,29.49,42.28,29Z"/><path class="cls-7" d="M27.08,23.65C34.64,21.49,33.31,22,31.36,22,27.47,23.11,27.32,23,27.08,23.65Z"/><path class="cls-8" d="M42,31c-6.43,0-4.45-.26-8.86,1H40a1,1,0,0,1,1,1h1A1,1,0,0,0,42,31Z"/><path class="cls-7" d="M27.08,27.65C34.62,25.5,33.31,26,31.36,26,27.47,27.11,27.32,27,27.08,27.65Z"/><path class="cls-8" d="M42,23c-6.43,0-4.45-.26-8.86,1H40a1,1,0,0,1,1,.86c.08.59-.58.63,1.29.1A1,1,0,0,0,42,23Z"/></g></svg>