<svg xmlns="http://www.w3.org/2000/svg" viewBox="0 0 48 48"><defs><style>.cls-1{fill:#425b72;}.cls-2{fill:#374f68;}.cls-3{fill:#dad7e5;}.cls-4{fill:#c6c3d8;}.cls-5{fill:#7c7d7d;}.cls-6{fill:#919191;}.cls-7{fill:#edebf2;}.cls-8{fill:#2c435e;}</style></defs><title>Power Steering</title><g id="Power_Steering" data-name="Power Steering"><path class="cls-1" d="M11,35V31a1,1,0,0,1,.92-1l13-1a1,1,0,0,1,.16,2L13,31.93V35A1,1,0,0,1,11,35Z"/><path class="cls-1" d="M35,35V31.88L27.88,31a1,1,0,0,1,.24-2l8,1A1,1,0,0,1,37,31v4A1,1,0,0,1,35,35Z"/><rect class="cls-2" x="1" y="29" width="8" height="18" rx="2"/><path class="cls-1" d="M9,31c0,14.74-.1,14,0,14a6,6,0,0,1-6-6V29H7A2,2,0,0,1,9,31Z"/><rect class="cls-2" x="39" y="29" width="8" height="18" rx="2"/><path class="cls-1" d="M47,31c0,14.74-.1,14,0,14a6,6,0,0,1-6-6V29h4A2,2,0,0,1,47,31Z"/><path class="cls-3" d="M23.54,40H13V36H23.54A4,4,0,0,0,23.54,40Z"/><path class="cls-4" d="M35,36v4H30.46a4,4,0,0,0,0-4Z"/><path class="cls-3" d="M34,36v4H30.46a4,4,0,0,0,0-4Z"/><rect class="cls-5" x="9" y="35" width="4" height="6"/><path class="cls-6" d="M13,35v4a3,3,0,0,1-3-3V35Z"/><rect class="cls-5" x="35" y="35" width="4" height="6"/><path class="cls-6" d="M38,35v4a3,3,0,0,1-3-3V35Z"/><path class="cls-3" d="M29,20V34.54a4,4,0,0,0-4,0V20Z"/><path class="cls-7" d="M29,20c0,13.72-.1,13,0,13a3,3,0,0,1-3-3V20Z"/><path class="cls-5" d="M27,1a9.86,9.86,0,0,0-6,2c-7.67,5.76-3.54,18,6,18a10,10,0,0,0,8-4s0,0,0,0A10,10,0,0,0,27,1ZM21.55,8.5C24.19,2.71,33,4.53,33,11a5.8,5.8,0,0,1-.35,2A3.66,3.66,0,0,0,29,16.65a5.85,5.85,0,0,1-4,0A3.66,3.66,0,0,0,21.35,13,6,6,0,0,1,21.55,8.5Z"/><path class="cls-3" d="M25,20.8a10.16,10.16,0,0,0,4,0v1.74A10.13,10.13,0,0,1,25,23Z"/><rect class="cls-7" x="13" y="36" width="11" height="3"/><rect class="cls-7" x="30" y="36" width="4" height="3"/><path class="cls-5" d="M31,38a4,4,0,1,1-5.64-3.64A4,4,0,0,1,31,38Z"/><path class="cls-5" d="M31,38a4,4,0,1,1-5.64-3.64A4,4,0,0,1,31,38Z"/><path class="cls-4" d="M23,38c0,2.38,1.61,2-.87,2a3.91,3.91,0,0,1,1.26-4h.15A4,4,0,0,0,23,38Z"/><path class="cls-6" d="M30.64,39.64a4,4,0,0,1-5.28-5.28A4,4,0,0,1,30.64,39.64Z"/><path class="cls-2" d="M32.65,13A3.66,3.66,0,0,0,29,16.65a5.85,5.85,0,0,1-4,0A3.66,3.66,0,0,0,21.35,13a6,6,0,0,1,.2-4.5h10.9A5.92,5.92,0,0,1,32.65,13Z"/><path class="cls-1" d="M32.65,13A3.66,3.66,0,0,0,29,16.65a5.85,5.85,0,0,1-4,0A3.66,3.66,0,0,0,21.35,13a6,6,0,0,1,.2-4.5h10.9A5.92,5.92,0,0,1,32.65,13Z"/><path class="cls-2" d="M27,15.15a3.66,3.66,0,0,0-3.65-3.65,5.68,5.68,0,0,1-.26-3H21.55a5.94,5.94,0,0,0-.2,4.5A3.66,3.66,0,0,1,25,16.65a5.85,5.85,0,0,0,4,0,3.51,3.51,0,0,1,.21-1.17A5.41,5.41,0,0,1,27,15.15Z"/><path class="cls-8" d="M4,34H1V32H4A1,1,0,0,1,4,34Z"/><path class="cls-8" d="M9,35v2H6a1,1,0,0,1,0-2Z"/><path class="cls-8" d="M4,41H1V39H4A1,1,0,0,1,4,41Z"/><path class="cls-8" d="M9,42v2H6a1,1,0,0,1,0-2Z"/><path class="cls-8" d="M42,44H39V42h3A1,1,0,0,1,42,44Z"/><path class="cls-8" d="M47,39v2H44a1,1,0,0,1,0-2Z"/><path class="cls-8" d="M42,37H39V35h3A1,1,0,0,1,42,37Z"/><path class="cls-8" d="M47,32v2H44a1,1,0,0,1,0-2Z"/><path class="cls-6" d="M27,1a9.86,9.86,0,0,0-6,2A10,10,0,0,0,35,17,10,10,0,0,0,27,1Zm5.65,12A3.66,3.66,0,0,0,29,16.65a5.85,5.85,0,0,1-4,0A3.66,3.66,0,0,0,21.35,13,5.72,5.72,0,0,1,21,11c0-6.72,9.52-8.42,11.73-1.79A6,6,0,0,1,32.65,13Z"/></g></svg>