<svg xmlns="http://www.w3.org/2000/svg" viewBox="0 0 48 48"><defs><style>.cls-1{fill:#2c435e;}.cls-2{fill:#374f68;}.cls-3{fill:#425b72;}.cls-4{fill:#919191;}.cls-5{fill:#7c7d7d;}.cls-6{fill:#747575;}.cls-7{fill:#f16f39;}.cls-8{fill:#dad7e5;}.cls-9{fill:#edebf2;}</style></defs><title>Front Bumper Bull Bar Car</title><g id="Front_Bumper_Bull_Bar_Car" data-name="Front Bumper Bull Bar Car"><path class="cls-1" d="M15,26V38c-1.4,0,.93.59-14-4V26Z"/><path class="cls-2" d="M13,26V36c-1.41,0,.61.49-12-3.38V26Z"/><rect class="cls-1" x="19" y="26" width="10" height="12"/><rect class="cls-2" x="19" y="26" width="8" height="10"/><path class="cls-2" d="M47,26v8c-14.93,4.59-12.6,4-14,4V26Z"/><path class="cls-3" d="M47,26v6.62C34.35,36.51,36.39,36,35,36V26Z"/><rect class="cls-4" x="19" y="12" width="10" height="4"/><path class="cls-5" d="M6,16c0,4.36-.18,4.82.59,5.59L11,26H6c-4.58-4.58-4-3.23-4-10a4,4,0,0,1,4-4h9v4Z"/><path class="cls-4" d="M13,12a2,2,0,0,1-2,2c-7.53,0-7.6-.12-8.64.36A4,4,0,0,1,6,12Z"/><path class="cls-6" d="M6,18a2,2,0,0,0-2,2c0,3.6-.43,2.57,3,6h4C5.27,20.27,6,21.7,6,18Z"/><path class="cls-5" d="M46,16c0,6.82.55,5.45-4,10H37c4.58-4.58,5-4.73,5-5.83V16H33V12h9A4,4,0,0,1,46,16Z"/><path class="cls-4" d="M42,12H33v2h7a4,4,0,0,1,4,4c0,4.08.33,5.67-1.17,7.17C46.46,21.54,46,22.55,46,16A4,4,0,0,0,42,12Z"/><path class="cls-2" d="M19,12V26H15V12a2,2,0,0,1,4,0Z"/><path class="cls-3" d="M19,12c0,13.72-.1,13,0,13a3,3,0,0,1-3-3c0-12-.07-11.3.18-11.82A2,2,0,0,1,19,12Z"/><path class="cls-2" d="M33,12V26H29V12a2,2,0,0,1,4,0Z"/><path class="cls-3" d="M33,12c0,13.72-.1,13,0,13a3,3,0,0,1-3-3c0-12-.07-11.3.18-11.82A2,2,0,0,1,33,12Z"/><rect class="cls-2" x="15" y="26" width="4" height="12"/><path class="cls-3" d="M19,26c0,10.61-.1,10,0,10a3,3,0,0,1-3-3V26Z"/><rect class="cls-2" x="29" y="26" width="4" height="12"/><path class="cls-3" d="M33,26V36a2.91,2.91,0,0,1-3-2.91V26Z"/><path class="cls-7" d="M10,31H5a1,1,0,0,1,0-2h5A1,1,0,0,1,10,31Z"/><path class="cls-7" d="M43,31H38a1,1,0,0,1,0-2h5A1,1,0,0,1,43,31Z"/><rect class="cls-8" x="19" y="30" width="10" height="4"/><path class="cls-9" d="M29,30v3H23a3,3,0,0,1-3-3Z"/><path class="cls-8" d="M15,33v2H13a1,1,0,0,1,0-2Z"/><path class="cls-8" d="M35,35H33V33h2A1,1,0,0,1,35,35Z"/><path class="cls-5" d="M29,12v4H19V14h6a2,2,0,0,0,2-2Z"/></g></svg>